<svg width="20" height="20" viewBox="0 0 20 20" fill="none" xmlns="http://www.w3.org/2000/svg">
<g clip-path="url(#clip0_4639_32701)">
<path d="M6.66602 6.66699V4.33366C6.66602 3.40024 6.66602 2.93353 6.84767 2.57701C7.00746 2.2634 7.26243 2.00844 7.57603 1.84865C7.93255 1.66699 8.39926 1.66699 9.33268 1.66699H15.666C16.5994 1.66699 17.0661 1.66699 17.4227 1.84865C17.7363 2.00844 17.9912 2.2634 18.151 2.57701C18.3327 2.93353 18.3327 3.40024 18.3327 4.33366V10.667C18.3327 11.6004 18.3327 12.0671 18.151 12.4236C17.9912 12.7372 17.7363 12.9922 17.4227 13.152C17.0661 13.3337 16.5994 13.3337 15.666 13.3337H13.3327M4.33268 18.3337H10.666C11.5994 18.3337 12.0661 18.3337 12.4227 18.152C12.7363 17.9922 12.9912 17.7372 13.151 17.4236C13.3327 17.0671 13.3327 16.6004 13.3327 15.667V9.33366C13.3327 8.40024 13.3327 7.93353 13.151 7.57701C12.9912 7.2634 12.7363 7.00844 12.4227 6.84865C12.0661 6.66699 11.5994 6.66699 10.666 6.66699H4.33268C3.39926 6.66699 2.93255 6.66699 2.57603 6.84865C2.26243 7.00844 2.00746 7.2634 1.84767 7.57701C1.66602 7.93353 1.66602 8.40024 1.66602 9.33366V15.667C1.66602 16.6004 1.66602 17.0671 1.84767 17.4236C2.00746 17.7372 2.26243 17.9922 2.57603 18.152C2.93255 18.3337 3.39926 18.3337 4.33268 18.3337Z" stroke="black" stroke-width="2" stroke-linecap="round" stroke-linejoin="round"/>
</g>
<defs>
<clipPath id="clip0_4639_32701">
<rect width="20" height="20" fill="white"/>
</clipPath>
</defs>
</svg>
