<svg width="48" height="49" viewBox="0 0 48 49" fill="none" xmlns="http://www.w3.org/2000/svg">
<path d="M40.5 14.0007H33.9436C34.9199 12.8096 35.4007 11.2888 35.2867 9.75301C35.1727 8.21723 34.4725 6.78409 33.3311 5.75026C32.1897 4.71642 30.6945 4.16106 29.155 4.19912C27.6154 4.23718 26.1495 4.86575 25.0605 5.95473C24.6262 6.40734 24.2681 6.92728 24 7.49437C23.7318 6.92727 23.3736 6.4073 22.9393 5.95464C21.8503 4.86568 20.3844 4.23713 18.8449 4.1991C17.3053 4.16106 15.8101 4.71645 14.6687 5.7503C13.5274 6.78414 12.8272 8.21729 12.7132 9.75306C12.5992 11.2888 13.0801 12.8096 14.0564 14.0007H7.5C6.70463 14.0016 5.94209 14.3179 5.37968 14.8803C4.81726 15.4427 4.5009 16.2053 4.5 17.0007V23.0007C4.5009 23.796 4.81726 24.5586 5.37968 25.121C5.94209 25.6834 6.70463 25.9998 7.5 26.0007V38.0007C7.50091 38.796 7.81727 39.5586 8.37968 40.121C8.9421 40.6834 9.70463 40.9997 10.5 41.0007H37.5C38.2954 40.9997 39.0579 40.6834 39.6203 40.121C40.1827 39.5586 40.4991 38.796 40.5 38.0007V26.0007C41.2954 25.9998 42.0579 25.6834 42.6203 25.121C43.1827 24.5586 43.4991 23.796 43.5 23.0007V17.0007C43.4991 16.2053 43.1827 15.4427 42.6203 14.8803C42.0579 14.3179 41.2954 14.0016 40.5 14.0007ZM27.1818 8.07605C27.4604 7.79735 27.7911 7.57626 28.1551 7.4254C28.5191 7.27454 28.9093 7.19686 29.3033 7.19681C29.6973 7.19676 30.0875 7.27433 30.4516 7.42509C30.8156 7.57585 31.1464 7.79686 31.425 8.07548C31.7037 8.3541 31.9247 8.68488 32.0754 9.04892C32.2262 9.41297 32.3038 9.80315 32.3038 10.1972C32.3037 10.5912 32.226 10.9814 32.0752 11.3454C31.9243 11.7094 31.7033 12.0401 31.4246 12.3187C30.4982 13.2452 27.8198 13.7654 25.5639 13.9367C25.7353 11.6807 26.2555 9.00243 27.1818 8.07605ZM16.5753 8.07605C17.1383 7.5143 17.9012 7.19881 18.6966 7.1988C19.492 7.1988 20.2549 7.51426 20.818 8.07601C21.7445 9.00247 22.2647 11.6809 22.4361 13.9367C20.1801 13.7653 17.5018 13.2451 16.5754 12.3187C16.0137 11.7556 15.6982 10.9928 15.6982 10.1974C15.6981 9.40205 16.0136 8.63915 16.5753 8.07605ZM40.5 23.0007H25.5V36.5007C25.5 36.8985 25.342 37.28 25.0607 37.5613C24.7794 37.8426 24.3978 38.0007 24 38.0007C23.6022 38.0007 23.2206 37.8426 22.9393 37.5613C22.658 37.28 22.5 36.8985 22.5 36.5007V23.0007H7.5V17.0007H22.5V23.0007H25.5V17.0007H40.5L40.5018 23.0006L40.5 23.0007Z" fill="white"/>
</svg>
