<svg width="32" height="32" viewBox="0 0 32 32" fill="none" xmlns="http://www.w3.org/2000/svg">
<path d="M16.0003 19.9993C18.2095 19.9993 20.0003 18.2085 20.0003 15.9993C20.0003 13.7902 18.2095 11.9993 16.0003 11.9993C13.7912 11.9993 12.0003 13.7902 12.0003 15.9993C12.0003 18.2085 13.7912 19.9993 16.0003 19.9993Z" stroke="black" stroke-width="3" stroke-linecap="round" stroke-linejoin="round"/>
<path d="M24.97 19.6357C24.8087 20.0013 24.7605 20.4069 24.8318 20.8001C24.9031 21.1933 25.0906 21.5561 25.37 21.8418L25.4428 21.9145C25.6681 22.1396 25.847 22.407 25.969 22.7013C26.091 22.9956 26.1537 23.3111 26.1537 23.6297C26.1537 23.9482 26.091 24.2637 25.969 24.558C25.847 24.8523 25.6681 25.1197 25.4428 25.3448C25.2176 25.5702 24.9502 25.749 24.6559 25.871C24.3616 25.993 24.0462 26.0558 23.7276 26.0558C23.409 26.0558 23.0936 25.993 22.7993 25.871C22.505 25.749 22.2376 25.5702 22.0124 25.3448L21.9397 25.2721C21.654 24.9926 21.2912 24.8052 20.898 24.7339C20.5048 24.6626 20.0993 24.7107 19.7337 24.8721C19.3752 25.0257 19.0694 25.2809 18.854 25.6061C18.6387 25.9313 18.5231 26.3123 18.5215 26.7024V26.9084C18.5215 27.5514 18.2661 28.168 17.8115 28.6226C17.3569 29.0773 16.7402 29.3327 16.0973 29.3327C15.4543 29.3327 14.8377 29.0773 14.3831 28.6226C13.9285 28.168 13.6731 27.5514 13.6731 26.9084V26.7994C13.6637 26.3981 13.5338 26.009 13.3003 25.6826C13.0669 25.3562 12.7406 25.1076 12.364 24.969C11.9984 24.8077 11.5928 24.7596 11.1996 24.8309C10.8064 24.9022 10.4436 25.0896 10.1579 25.369L10.0852 25.4418C9.86003 25.6672 9.59266 25.846 9.29836 25.968C9.00406 26.09 8.68861 26.1528 8.37002 26.1528C8.05144 26.1528 7.73598 26.09 7.44168 25.968C7.14738 25.846 6.88002 25.6672 6.65487 25.4418C6.42947 25.2166 6.25066 24.9493 6.12867 24.655C6.00667 24.3607 5.94387 24.0452 5.94387 23.7266C5.94387 23.408 6.00667 23.0926 6.12867 22.7983C6.25066 22.504 6.42947 22.2366 6.65487 22.0115L6.7276 21.9387C7.00704 21.6531 7.19449 21.2902 7.26579 20.897C7.33708 20.5038 7.28895 20.0983 7.1276 19.7327C6.97395 19.3742 6.71882 19.0684 6.39362 18.8531C6.06842 18.6377 5.68734 18.5221 5.2973 18.5206H5.09123C4.44829 18.5206 3.83167 18.2652 3.37704 17.8105C2.9224 17.3559 2.66699 16.7393 2.66699 16.0963C2.66699 15.4534 2.9224 14.8368 3.37704 14.3821C3.83167 13.9275 4.44829 13.6721 5.09123 13.6721H5.20033C5.60153 13.6627 5.99063 13.5328 6.31705 13.2994C6.64347 13.0659 6.8921 12.7396 7.03063 12.363C7.19198 11.9974 7.24011 11.5918 7.16882 11.1986C7.09752 10.8054 6.91007 10.4426 6.63063 10.1569L6.5579 10.0842C6.3325 9.85905 6.15369 9.59168 6.0317 9.29739C5.9097 9.00309 5.8469 8.68763 5.8469 8.36905C5.8469 8.05046 5.9097 7.735 6.0317 7.44071C6.15369 7.14641 6.3325 6.87904 6.5579 6.65389C6.78305 6.4285 7.05041 6.24969 7.34471 6.12769C7.63901 6.00569 7.95447 5.9429 8.27305 5.9429C8.59164 5.9429 8.90709 6.00569 9.20139 6.12769C9.49569 6.24969 9.76306 6.4285 9.9882 6.65389L10.0609 6.72662C10.3466 7.00606 10.7094 7.19351 11.1026 7.26481C11.4958 7.3361 11.9014 7.28797 12.267 7.12662H12.364C12.7225 6.97297 13.0282 6.71784 13.2436 6.39264C13.459 6.06744 13.5745 5.68636 13.5761 5.29632V5.09026C13.5761 4.44731 13.8315 3.83069 14.2861 3.37606C14.7408 2.92143 15.3574 2.66602 16.0003 2.66602C16.6433 2.66602 17.2599 2.92143 17.7145 3.37606C18.1692 3.83069 18.4246 4.44731 18.4246 5.09026V5.19935C18.4261 5.58939 18.5417 5.97047 18.7571 6.29567C18.9724 6.62087 19.2782 6.876 19.6367 7.02965C20.0023 7.191 20.4078 7.23914 20.801 7.16784C21.1942 7.09654 21.5571 6.90909 21.8428 6.62965L21.9155 6.55692C22.1406 6.33153 22.408 6.15272 22.7023 6.03072C22.9966 5.90872 23.312 5.84593 23.6306 5.84593C23.9492 5.84593 24.2647 5.90872 24.559 6.03072C24.8533 6.15272 25.1206 6.33153 25.3458 6.55692C25.5712 6.78207 25.75 7.04944 25.872 7.34374C25.994 7.63803 26.0568 7.95349 26.0568 8.27208C26.0568 8.59066 25.994 8.90612 25.872 9.20042C25.75 9.49472 25.5712 9.76208 25.3458 9.98723L25.2731 10.06C24.9936 10.3456 24.8062 10.7085 24.7349 11.1017C24.6636 11.4949 24.7117 11.9004 24.8731 12.266V12.363C25.0267 12.7215 25.2818 13.0272 25.607 13.2426C25.9322 13.458 26.3133 13.5736 26.7034 13.5751H26.9094C27.5524 13.5751 28.169 13.8305 28.6236 14.2852C29.0782 14.7398 29.3337 15.3564 29.3337 15.9993C29.3337 16.6423 29.0782 17.2589 28.6236 17.7135C28.169 18.1682 27.5524 18.4236 26.9094 18.4236H26.8003C26.4103 18.4251 26.0292 18.5407 25.704 18.7561C25.3788 18.9715 25.1237 19.2772 24.97 19.6357Z" stroke="black" stroke-width="3" stroke-linecap="round" stroke-linejoin="round"/>
</svg>
