<svg width="48" height="49" viewBox="0 0 48 49" fill="none" xmlns="http://www.w3.org/2000/svg">
<path d="M40.5 14H10.5C10.1022 14 9.72064 13.842 9.43934 13.5607C9.15804 13.2794 9 12.8978 9 12.5C9 12.1022 9.15804 11.7206 9.43934 11.4393C9.72064 11.158 10.1022 11 10.5 11H36C36.3978 11 36.7794 10.842 37.0607 10.5607C37.342 10.2794 37.5 9.89782 37.5 9.5C37.5 9.10218 37.342 8.72064 37.0607 8.43934C36.7794 8.15804 36.3978 8 36 8H10.5C9.30694 8.00136 8.16314 8.47591 7.31953 9.31953C6.47591 10.1631 6.00136 11.3069 6 12.5V36.5C6.00136 37.6931 6.47591 38.8369 7.31953 39.6805C8.16314 40.5241 9.30694 40.9986 10.5 41H40.5C41.2954 40.9991 42.0579 40.6827 42.6203 40.1203C43.1827 39.5579 43.4991 38.7954 43.5 38V17C43.4991 16.2046 43.1827 15.4421 42.6203 14.8797C42.0579 14.3173 41.2954 14.0009 40.5 14ZM33.75 29.75C33.305 29.75 32.87 29.618 32.5 29.3708C32.13 29.1236 31.8416 28.7722 31.6713 28.361C31.501 27.9499 31.4564 27.4975 31.5432 27.061C31.63 26.6246 31.8443 26.2237 32.159 25.909C32.4737 25.5943 32.8746 25.38 33.311 25.2932C33.7475 25.2064 34.1999 25.251 34.611 25.4213C35.0222 25.5916 35.3736 25.88 35.6208 26.25C35.868 26.62 36 27.055 36 27.5C36 28.0967 35.7629 28.669 35.341 29.091C34.919 29.5129 34.3467 29.75 33.75 29.75Z" fill="white"/>
</svg>
