<svg width="375" height="306" viewBox="0 0 375 306" fill="none" xmlns="http://www.w3.org/2000/svg">
<g clip-path="url(#clip0_2544_18812)">
<path d="M326.934 123.601C326.504 127.807 328.203 131.739 328.526 135.876C328.692 137.789 328.44 139.715 327.789 141.519C327.605 142.132 327.309 142.705 326.915 143.207C326.839 143.32 326.735 143.412 326.614 143.473C326.494 143.534 326.359 143.563 326.224 143.557C325.95 143.496 325.797 143.179 325.709 142.935C325.509 142.379 325.435 141.66 325.783 141.155C326.131 140.649 326.531 140.655 326.983 140.941C327.882 141.496 328.589 142.663 328.901 143.665C329.534 145.684 328.901 147.636 327.934 149.426C326.989 151.17 325.797 152.758 324.92 154.555C324.237 155.943 323.673 157.509 323.659 159.084C323.659 160.211 323.895 161.608 324.909 162.257C325.16 162.408 325.44 162.503 325.731 162.535C326.021 162.577 326.145 162.13 325.854 162.088C324.402 161.885 324.1 160.197 324.131 158.961C324.174 157.146 324.953 155.371 325.83 153.819C327.624 150.601 330.907 146.944 329.151 142.99C328.894 142.42 328.563 141.888 328.167 141.407C327.82 140.922 327.345 140.546 326.797 140.322C326.561 140.245 326.308 140.246 326.073 140.325C325.838 140.404 325.634 140.556 325.49 140.761C325.309 141.017 325.185 141.31 325.125 141.619C325.065 141.929 325.072 142.248 325.144 142.554C325.235 143.11 325.501 143.834 326.104 143.99C326.706 144.145 327.216 143.623 327.523 143.157C327.851 142.612 328.114 142.029 328.307 141.421C328.65 140.471 328.873 139.48 328.97 138.473C329.406 133.988 327.372 129.773 327.326 125.328C327.319 124.749 327.346 124.171 327.405 123.595C327.435 123.298 326.978 123.301 326.948 123.595L326.934 123.601Z" fill="#3A5769"/>
<path d="M333.232 126.064C333.649 126.555 334.082 127.541 333.07 128.646C332.059 129.751 330.44 129.057 330.44 129.057C330.208 129.594 329.824 130.049 329.336 130.363C328.847 130.677 328.278 130.836 327.699 130.82C327.121 130.836 326.552 130.677 326.063 130.362C325.575 130.048 325.191 129.594 324.959 129.057C324.959 129.057 323.342 129.754 322.331 128.646C321.32 127.538 321.753 126.555 322.167 126.064C322.838 125.272 325.365 123.442 325.365 123.442H330.034C330.034 123.442 332.563 125.269 333.232 126.064Z" fill="#3FC6FF"/>
<path d="M340.598 108.356C340.599 109.348 340.518 110.338 340.357 111.316C339.197 118.369 333.961 123.692 327.688 123.692C325.372 123.683 323.112 122.96 321.21 121.62C319.701 120.565 318.414 119.216 317.423 117.653C316.664 116.469 316.061 115.189 315.631 113.846C315.238 112.627 314.979 111.368 314.861 110.092V110.075C314.809 109.52 314.781 108.937 314.781 108.356C314.779 107.098 314.908 105.844 315.168 104.613C315.438 103.316 315.86 102.056 316.423 100.859C318.637 96.1808 322.852 93.021 327.688 93.021C328.158 93.0207 328.628 93.0513 329.094 93.1126C330.388 93.2803 331.644 93.6729 332.807 94.2733C334.265 95.0363 335.567 96.0727 336.643 97.3276C337.555 98.3728 338.322 99.5396 338.921 100.796C339.349 101.688 339.698 102.617 339.962 103.572C340.388 105.13 340.602 106.74 340.598 108.356Z" fill="#3FC6FF"/>
<path d="M330.038 123.718H325.343C325.271 123.718 325.201 123.689 325.15 123.637C325.098 123.585 325.069 123.514 325.069 123.44C325.069 123.367 325.098 123.296 325.15 123.244C325.201 123.192 325.271 123.163 325.343 123.163H330.038C330.11 123.163 330.18 123.192 330.231 123.244C330.283 123.296 330.312 123.367 330.312 123.44C330.312 123.514 330.283 123.585 330.231 123.637C330.18 123.689 330.11 123.718 330.038 123.718Z" fill="#3A5769"/>
<path d="M325.05 97.1256C325.009 97.1564 324.956 97.1928 324.923 97.2236C325.056 97.0416 325.119 97.0528 325.05 97.1256Z" fill="#BFECFF"/>
<path d="M332.806 94.2739C332.057 95.3495 331.225 96.3634 330.318 97.306C329.462 98.2021 328.547 99.0371 327.577 99.805C326.571 100.63 325.501 101.373 324.379 102.026C322.472 103.109 320.408 103.878 318.263 104.306C318.104 104.336 317.942 104.367 317.781 104.392C317.416 104.45 317.049 104.498 316.685 104.536C316.177 104.588 315.668 104.613 315.158 104.611C315.432 103.315 315.856 102.056 316.421 100.86H316.449H316.635C316.676 100.848 316.719 100.84 316.761 100.835L316.97 100.796C317.274 100.744 317.572 100.685 317.871 100.616C318.038 100.577 318.205 100.538 318.373 100.494C319.191 100.28 319.994 100.01 320.776 99.6856L320.847 99.6578C321.012 99.5801 321.08 99.5495 321.099 99.544L321.069 99.5607L321.343 99.4413C321.554 99.3413 321.762 99.2413 321.968 99.1358C322.376 98.9248 322.79 98.6999 323.168 98.4583C323.653 98.1557 324.122 97.8252 324.582 97.4865L324.916 97.231L324.993 97.1755L325.043 97.1339L325.084 97.1061C325.306 96.9284 325.525 96.7451 325.741 96.5508C326.597 95.8234 327.404 95.0396 328.158 94.2045C328.479 93.8546 328.797 93.4854 329.093 93.1133C330.387 93.281 331.643 93.6736 332.806 94.2739Z" fill="#BFECFF"/>
<path d="M338.921 100.797C338.173 101.955 337.34 103.054 336.428 104.084C335.521 105.135 334.532 106.11 333.471 107C331.035 109.009 328.309 110.628 325.39 111.801C323.242 112.675 320.998 113.281 318.706 113.605C318.229 113.675 317.752 113.733 317.273 113.78H317.199C316.678 113.831 316.154 113.849 315.631 113.836C315.239 112.621 314.981 111.366 314.861 110.093V110.076H314.916H314.996C315.441 110.116 315.889 110.128 316.336 110.112L316.678 110.096C316.952 110.079 317.226 110.057 317.484 110.026L317.793 110.007H317.813C319.062 109.827 320.298 109.568 321.515 109.229C322.183 109.038 322.847 108.821 323.499 108.577C323.841 108.449 324.184 108.316 324.524 108.174C324.565 108.153 324.608 108.134 324.652 108.119H324.636H324.652L325.099 107.916C326.361 107.333 327.582 106.664 328.755 105.914C329.303 105.564 329.851 105.187 330.358 104.803L330.435 104.742L330.528 104.673C330.643 104.579 330.755 104.487 330.867 104.395C331.117 104.19 331.358 103.979 331.599 103.762C332.555 102.895 333.446 101.958 334.265 100.958C334.372 100.827 334.479 100.68 334.586 100.558C334.608 100.527 334.633 100.5 334.657 100.469C334.666 100.456 334.675 100.444 334.685 100.433L334.72 100.386C334.888 100.161 335.055 99.9305 335.216 99.6972C335.537 99.2503 335.834 98.7869 336.107 98.3089C336.285 97.9868 336.46 97.6675 336.622 97.3398C337.541 98.3803 338.314 99.5434 338.921 100.797Z" fill="#BFECFF"/>
<path d="M339.963 103.589C339.874 104.035 339.762 104.475 339.626 104.908C339.541 105.172 339.45 105.433 339.352 105.691C339.353 105.685 339.353 105.678 339.352 105.672C339.31 105.749 339.278 105.833 339.259 105.919L339.275 105.886C339.275 105.911 339.253 105.938 339.245 105.963C339.237 105.988 339.245 105.933 339.245 105.919C339.193 106.038 339.138 106.161 339.083 106.28C338.813 106.851 338.514 107.407 338.187 107.946C337.856 108.487 337.494 109.009 337.118 109.52L337.003 109.665L336.729 109.998C336.513 110.259 336.291 110.514 336.063 110.767C335.248 111.668 334.365 112.504 333.422 113.266L333.414 113.291L333.386 113.313L333.361 113.335L333.318 113.371H333.296L332.978 113.61C332.726 113.791 332.474 113.968 332.216 114.138C331.736 114.46 331.251 114.752 330.761 115.015C330.35 115.232 329.933 115.435 329.511 115.626L329.188 115.77L329.04 115.837L329.251 115.746C329.009 115.866 328.759 115.968 328.503 116.051C327.447 116.467 326.37 116.828 325.278 117.131C324.708 117.29 324.135 117.431 323.559 117.553C323.302 117.606 323.041 117.659 322.784 117.703C322.623 117.735 322.461 117.762 322.299 117.786L322.025 117.82H322.071H321.992H321.954C320.855 117.949 319.746 117.973 318.643 117.892L318.386 117.861H318.429C318.383 117.861 318.336 117.861 318.292 117.845H318.383C318.257 117.822 318.128 117.8 318.005 117.772C317.816 117.731 317.624 117.684 317.438 117.631C318.422 119.201 319.705 120.557 321.211 121.621H321.288C323.845 121.387 326.361 120.811 328.769 119.908C330.925 119.122 333.027 118.147 334.888 116.778C336.98 115.253 338.829 113.411 340.368 111.317C340.53 110.339 340.611 109.349 340.61 108.357C340.609 106.745 340.391 105.141 339.963 103.589ZM339.311 105.811L339.281 105.875C339.281 105.841 339.308 105.811 339.319 105.78L339.338 105.73C339.331 105.752 339.321 105.773 339.311 105.794V105.811Z" fill="#BFECFF"/>
<path d="M317.122 111.29C316.947 111.29 316.777 111.226 316.644 111.11C316.511 110.994 316.424 110.833 316.399 110.657C316.288 109.895 316.232 109.126 316.231 108.356C316.231 103.208 318.665 98.5817 322.578 96.2855C322.661 96.2366 322.753 96.2048 322.849 96.192C322.944 96.1792 323.041 96.1855 323.134 96.2106C323.227 96.2358 323.314 96.2792 323.391 96.3385C323.467 96.3978 323.531 96.4718 323.58 96.5562C323.628 96.6406 323.659 96.7338 323.672 96.8305C323.684 96.9272 323.678 97.0254 323.653 97.1197C323.629 97.2139 323.586 97.3023 323.527 97.3797C323.469 97.4572 323.396 97.5222 323.312 97.5711C319.851 99.6036 317.7 103.735 317.7 108.356C317.7 109.053 317.749 109.75 317.848 110.441C317.875 110.634 317.825 110.83 317.709 110.986C317.594 111.142 317.422 111.246 317.232 111.274C317.196 111.282 317.159 111.288 317.122 111.29Z" fill="white"/>
<path d="M318.842 116.298C318.714 116.299 318.588 116.265 318.476 116.201C318.365 116.136 318.272 116.044 318.207 115.932C317.732 115.106 317.34 114.235 317.036 113.33C316.974 113.144 316.986 112.94 317.072 112.763C317.157 112.586 317.309 112.451 317.493 112.388C317.677 112.324 317.878 112.337 318.052 112.424C318.227 112.51 318.36 112.664 318.423 112.85C318.696 113.66 319.048 114.44 319.473 115.179C319.521 115.265 319.552 115.358 319.565 115.456C319.577 115.553 319.57 115.652 319.545 115.747C319.519 115.842 319.476 115.93 319.416 116.008C319.357 116.085 319.283 116.15 319.199 116.199C319.09 116.263 318.968 116.297 318.842 116.298Z" fill="white"/>
</g>
<g clip-path="url(#clip1_2544_18812)">
<path d="M255.433 108.408C257.191 109.133 259.244 108.973 261.044 108.558C262.988 108.104 264.841 107.323 266.523 106.248C267.267 105.795 267.957 105.261 268.581 104.655C268.998 104.198 269.374 103.703 269.703 103.179C270.496 102.009 271.281 100.656 271.498 99.2389C271.677 98.4532 271.543 97.6289 271.124 96.9401C270.864 96.5818 270.525 96.2877 270.133 96.0804C269.742 95.8731 269.308 95.758 268.865 95.744C267.107 95.6542 265.802 97.2391 264.975 98.5997C263.221 101.467 262.17 105.152 263.479 108.404C264.098 110.045 265.256 111.427 266.763 112.325C268.398 113.226 270.292 113.54 272.13 113.215C273.548 113.012 274.879 112.41 275.968 111.481C277.001 110.589 277.922 109.575 278.71 108.46C280.206 106.423 281.889 103.347 280.651 100.813C280.023 99.5342 278.639 98.8651 277.285 98.6596C276.548 98.4994 275.778 98.6054 275.112 98.9586C274.804 99.1526 274.549 99.4183 274.367 99.7327C274.185 100.047 274.083 100.401 274.068 100.764C273.978 102.039 274.775 103.302 275.646 104.162C276.812 105.324 278.381 105.993 280.027 106.031C281.897 106.053 283.805 105.145 285.286 104.046C286.924 102.831 288.357 101.254 288.996 99.2801C289.288 98.3376 289.347 97.3384 289.168 96.3682C289.06 95.6991 288.237 95.3253 287.635 95.4898C287.319 95.5847 287.051 95.7977 286.888 96.0845C286.725 96.3713 286.679 96.7099 286.759 97.0298C286.823 97.4036 286.759 96.8878 286.759 97.1158C286.759 97.2167 286.759 97.3139 286.759 97.4148C286.759 97.5718 286.759 97.7325 286.759 97.8895C286.759 97.654 286.759 97.9082 286.759 97.9718C286.759 98.0353 286.722 98.1661 286.696 98.2633C286.647 98.4577 286.58 98.6371 286.516 98.8427C286.453 99.0483 286.483 98.9362 286.516 98.8838C286.468 98.996 286.412 99.1081 286.356 99.2202C286.299 99.3324 286.195 99.5155 286.109 99.6576C286.023 99.7996 285.877 100.031 285.735 100.192C285.643 100.322 285.545 100.447 285.439 100.566C284.923 101.153 284.335 101.673 283.689 102.113C283.364 102.337 283.028 102.542 282.682 102.73C282.375 102.901 282.057 103.049 281.729 103.175C281.399 103.298 281.062 103.396 280.719 103.47L280.498 103.511C280.554 103.511 280.741 103.474 280.498 103.511C280.3 103.511 280.124 103.534 279.907 103.511C279.825 103.511 279.365 103.452 279.671 103.511C279.522 103.485 279.376 103.459 279.226 103.422C279.077 103.384 278.961 103.347 278.826 103.302L278.643 103.231C278.927 103.339 278.643 103.231 278.587 103.205C278.328 103.069 278.078 102.917 277.838 102.749C277.618 102.562 277.775 102.704 277.838 102.749L277.7 102.637C277.592 102.536 277.479 102.439 277.378 102.334C277.277 102.229 277.188 102.121 277.09 102.016C276.993 101.912 276.971 101.829 277.131 102.076L277.038 101.945C276.896 101.732 276.795 101.497 276.664 101.287C276.843 101.568 276.698 101.37 276.664 101.231C276.63 101.093 276.619 101.044 276.593 100.951C276.526 100.738 276.593 101.216 276.593 101.074C276.596 101.027 276.596 100.98 276.593 100.932C276.597 100.896 276.597 100.86 276.593 100.824C276.567 100.633 276.537 101.13 276.593 100.947C276.66 100.674 276.436 101.194 276.563 100.992C276.69 100.79 276.324 101.224 276.529 101.033C276.608 100.962 276.234 101.198 276.503 101.067C276.047 101.287 276.503 101.018 276.567 101.067C276.63 101.115 276.193 101.067 276.432 101.089C276.481 101.089 276.533 101.089 276.578 101.089C276.623 101.089 277.087 101.149 276.761 101.089C277.083 101.149 277.382 101.239 277.696 101.328C277.771 101.328 277.898 101.433 277.636 101.295L277.786 101.366L278.123 101.56C278.381 101.717 278.044 101.456 278.156 101.586C278.194 101.631 278.493 101.93 278.34 101.758C278.186 101.586 278.399 101.848 278.433 101.904C278.451 101.944 278.471 101.983 278.493 102.02C278.624 102.211 278.429 101.788 278.463 101.934C278.497 102.08 278.527 102.121 278.553 102.218C278.553 102.259 278.553 102.304 278.583 102.349C278.654 102.637 278.583 102.297 278.583 102.285C278.661 102.326 278.583 102.883 278.583 102.969C278.583 103.055 278.583 103.093 278.583 103.156C278.583 103.13 278.643 102.842 278.583 103.052C278.557 103.179 278.538 103.31 278.504 103.425C278.448 103.668 278.378 103.908 278.295 104.143C278.246 104.281 278.19 104.416 278.141 104.551C278.115 104.618 278.037 104.756 278.164 104.498C278.123 104.58 278.089 104.666 278.052 104.749C277.795 105.287 277.505 105.809 277.184 106.311C277.027 106.554 276.862 106.793 276.694 107.029C276.612 107.148 276.522 107.264 276.436 107.38C276.252 107.612 276.395 107.436 276.436 107.38L276.256 107.604C275.882 108.042 275.508 108.468 275.134 108.872C274.943 109.062 274.76 109.245 274.551 109.425L274.307 109.634L274.162 109.758C274.128 109.787 273.907 109.956 274.083 109.821L273.922 109.937L273.675 110.101C273.514 110.199 273.346 110.277 273.182 110.371C273.017 110.464 273.526 110.255 273.271 110.329C273.159 110.359 273.051 110.404 272.938 110.442C272.744 110.505 272.564 110.561 272.347 110.61C272.13 110.658 271.973 110.699 271.768 110.737L271.517 110.778C271.745 110.744 271.397 110.778 271.349 110.778C270.989 110.806 270.627 110.806 270.268 110.778L269.98 110.756C269.759 110.756 270.271 110.812 269.916 110.756C269.733 110.722 269.542 110.688 269.366 110.643C269.19 110.599 269.048 110.554 268.895 110.501C268.82 110.479 268.397 110.303 268.637 110.412C268.314 110.267 268.004 110.096 267.709 109.9L267.537 109.776C267.26 109.586 267.657 109.881 267.5 109.746C267.343 109.612 267.26 109.544 267.144 109.436C267.028 109.328 266.92 109.212 266.815 109.092C266.71 108.973 266.703 108.961 266.643 108.894C266.471 108.696 266.74 109.051 266.58 108.812C266.398 108.547 266.23 108.273 266.078 107.989C266.011 107.862 265.947 107.732 265.891 107.616C265.989 107.844 265.891 107.616 265.873 107.56C265.854 107.504 265.798 107.35 265.764 107.246C265.659 106.903 265.574 106.555 265.51 106.203C265.472 105.956 265.51 106.158 265.51 106.203L265.487 105.971C265.465 105.754 265.454 105.535 265.454 105.317C265.447 104.942 265.466 104.568 265.51 104.195C265.54 103.96 265.454 104.487 265.528 104.087L265.573 103.833C265.614 103.616 265.667 103.403 265.723 103.19C265.798 102.906 265.888 102.626 265.989 102.349C266.033 102.222 266.082 102.098 266.131 101.975C266.179 101.852 266.336 101.485 266.217 101.758C266.486 101.131 266.794 100.522 267.141 99.9342C267.308 99.6501 267.491 99.3735 267.69 99.1044C267.541 99.31 267.814 98.9623 267.863 98.9063C267.98 98.7685 268.105 98.6375 268.237 98.5138L268.353 98.4128C268.136 98.5923 268.296 98.454 268.353 98.4128C268.409 98.3717 268.79 98.226 268.476 98.3157C268.54 98.3157 268.917 98.1998 268.708 98.2334C268.498 98.2671 268.779 98.2334 268.786 98.2334H268.869C268.674 98.1998 268.644 98.1998 268.786 98.2334C268.929 98.2671 269.16 98.3792 268.91 98.2334C268.963 98.2724 269.02 98.3039 269.082 98.3269C269.224 98.353 268.865 98.1288 269.033 98.2858C269.258 98.4988 268.929 98.1661 269.056 98.2858C269.089 98.3231 269.153 98.525 269.082 98.3194C269.011 98.1138 269.082 98.3605 269.082 98.4054C269.127 98.6782 269.104 98.1288 269.082 98.4764C269.082 98.5362 269.052 98.9175 269.082 98.7119C269.112 98.5063 269.041 98.895 269.022 98.9661C268.981 99.1305 268.932 99.295 268.876 99.4557C268.82 99.6165 268.779 99.7249 268.723 99.8594C268.839 99.5791 268.656 99.994 268.626 100.061C268.483 100.353 268.334 100.633 268.173 100.91C267.886 101.425 267.571 101.924 267.23 102.405C267.178 102.472 266.897 102.831 267.159 102.502C267.111 102.566 267.058 102.633 267.006 102.693C266.806 102.916 266.586 103.12 266.348 103.302L266.176 103.444C265.903 103.676 266.292 103.362 266.116 103.496L265.682 103.807C265.338 104.05 264.986 104.274 264.612 104.48C264.238 104.685 263.924 104.853 263.568 105.033C263.222 105.204 262.868 105.358 262.506 105.493C261.733 105.794 260.936 106.032 260.123 106.203C259.929 106.244 259.749 106.277 259.544 106.311C259.286 106.356 259.431 106.33 259.491 106.311L259.173 106.345C258.761 106.386 258.346 106.4 257.932 106.386C257.752 106.386 257.576 106.363 257.397 106.349C257.146 106.326 257.329 106.349 257.397 106.349L257.109 106.292C256.762 106.221 256.424 106.116 256.099 105.978C255.474 105.735 254.722 106.292 254.561 106.868C254.363 107.59 254.808 108.161 255.433 108.408Z" fill="#FFE0D2"/>
</g>
<g clip-path="url(#clip2_2544_18812)">
<path d="M108.274 88.5454C103.361 86.7152 101.865 80.7829 101.848 80.7206C101.798 80.5153 101.682 80.333 101.518 80.2025C101.354 80.0721 101.152 80.0012 100.944 80.001C100.735 80.0019 100.533 80.073 100.368 80.2032C100.203 80.3334 100.086 80.5153 100.034 80.7206C100.034 80.7829 98.5209 86.7152 93.6136 88.5454C93.4335 88.6116 93.2779 88.7325 93.168 88.8917C93.058 89.0509 92.999 89.2405 92.999 89.4349C92.999 89.6293 93.058 89.819 93.168 89.9781C93.2779 90.1373 93.4335 90.2582 93.6136 90.3245C98.5209 92.1546 100.023 98.087 100.034 98.1323C100.085 98.3386 100.202 98.5218 100.366 98.6531C100.531 98.7844 100.734 98.8563 100.944 98.8575C101.153 98.8571 101.356 98.7853 101.52 98.6538C101.684 98.5222 101.799 98.3386 101.848 98.1323C101.848 98.0756 103.361 92.1433 108.274 90.3132C108.454 90.2469 108.61 90.126 108.72 89.9668C108.83 89.8076 108.889 89.618 108.889 89.4236C108.889 89.2292 108.83 89.0395 108.72 88.8804C108.61 88.7212 108.454 88.6003 108.274 88.534V88.5454Z" fill="#FFE0D2"/>
</g>
<g clip-path="url(#clip3_2544_18812)">
<path d="M168.067 79.3994C166.225 78.7251 165.664 76.5395 165.657 76.5166C165.639 76.441 165.595 76.3738 165.534 76.3257C165.472 76.2777 165.396 76.2515 165.318 76.2515C165.24 76.2518 165.164 76.278 165.102 76.326C165.04 76.3739 164.996 76.441 164.977 76.5166C164.977 76.5395 164.41 78.7251 162.569 79.3994C162.502 79.4238 162.443 79.4684 162.402 79.527C162.361 79.5856 162.339 79.6555 162.339 79.7271C162.339 79.7987 162.361 79.8686 162.402 79.9273C162.443 79.9859 162.502 80.0305 162.569 80.0549C164.41 80.7291 164.973 82.9147 164.977 82.9314C164.996 83.0074 165.04 83.0749 165.102 83.1233C165.163 83.1717 165.24 83.1982 165.318 83.1986C165.397 83.1984 165.473 83.172 165.534 83.1235C165.596 83.0751 165.639 83.0074 165.657 82.9314C165.657 82.9105 166.225 80.7249 168.067 80.0507C168.135 80.0263 168.193 79.9817 168.234 79.9231C168.275 79.8644 168.297 79.7946 168.297 79.723C168.297 79.6513 168.275 79.5815 168.234 79.5228C168.193 79.4642 168.135 79.4196 168.067 79.3952V79.3994Z" fill="#FFE0D2"/>
</g>
<path d="M264.151 141.415C262.309 140.741 261.748 138.555 261.741 138.532C261.723 138.457 261.679 138.389 261.618 138.341C261.556 138.293 261.48 138.267 261.402 138.267C261.324 138.267 261.248 138.294 261.186 138.342C261.124 138.39 261.08 138.457 261.061 138.532C261.061 138.555 260.494 140.741 258.653 141.415C258.586 141.439 258.527 141.484 258.486 141.543C258.445 141.601 258.423 141.671 258.423 141.743C258.423 141.814 258.445 141.884 258.486 141.943C258.527 142.002 258.586 142.046 258.653 142.07C260.494 142.745 261.057 144.93 261.061 144.947C261.08 145.023 261.124 145.091 261.186 145.139C261.247 145.187 261.324 145.214 261.402 145.214C261.481 145.214 261.557 145.188 261.618 145.139C261.68 145.091 261.723 145.023 261.741 144.947C261.741 144.926 262.309 142.741 264.151 142.066C264.219 142.042 264.277 141.997 264.318 141.939C264.359 141.88 264.381 141.81 264.381 141.739C264.381 141.667 264.359 141.597 264.318 141.538C264.277 141.48 264.219 141.435 264.151 141.411V141.415Z" fill="#FFE0D2"/>
<g clip-path="url(#clip4_2544_18812)">
<path d="M276.786 244.361C274.943 243.687 274.382 241.501 274.376 241.478C274.357 241.402 274.314 241.335 274.252 241.287C274.191 241.239 274.115 241.213 274.037 241.213C273.959 241.213 273.883 241.239 273.821 241.287C273.759 241.335 273.715 241.402 273.696 241.478C273.696 241.501 273.128 243.687 271.288 244.361C271.221 244.385 271.162 244.43 271.121 244.488C271.08 244.547 271.058 244.617 271.058 244.689C271.058 244.76 271.08 244.83 271.121 244.889C271.162 244.947 271.221 244.992 271.288 245.016C273.128 245.691 273.691 247.876 273.696 247.893C273.715 247.969 273.759 248.036 273.82 248.085C273.882 248.133 273.958 248.16 274.037 248.16C274.115 248.16 274.191 248.133 274.253 248.085C274.314 248.037 274.358 247.969 274.376 247.893C274.376 247.872 274.943 245.686 276.786 245.012C276.853 244.988 276.912 244.943 276.953 244.885C276.994 244.826 277.016 244.756 277.016 244.684C277.016 244.613 276.994 244.543 276.953 244.484C276.912 244.426 276.853 244.381 276.786 244.357V244.361Z" fill="#FFE0D2"/>
</g>
<g clip-path="url(#clip5_2544_18812)">
<path d="M186.088 146.213C186.088 146.213 192.512 146.228 194.043 140.283C195.63 134.102 191.328 130.71 192.788 126.018C192.788 126.018 184.405 130.065 183.093 136.691C181.782 143.317 186.088 146.213 186.088 146.213Z" fill="#FF4E4F"/>
<path d="M184.609 151.968L187.002 142.646" stroke="#540E00" stroke-width="1.42999" stroke-miterlimit="10"/>
<path d="M181.371 149.4L172.737 183.045C172.535 183.833 173.008 184.636 173.794 184.839L178.261 185.992C179.047 186.194 179.848 185.72 180.051 184.932L188.684 151.287C188.886 150.498 188.413 149.695 187.627 149.492L183.16 148.34C182.374 148.137 181.573 148.611 181.371 149.4Z" fill="#3FC6FF"/>
<path d="M171.543 202.898L148.317 196.906L146.475 231.652L163.068 235.935L179.661 240.217L194.774 208.889L171.543 202.898Z" fill="#BFECFF"/>
<path d="M153.463 233.459L156.642 199.055" stroke="#3FC6FF" stroke-width="5.71995" stroke-miterlimit="10"/>
<path d="M172.664 238.412L186.441 206.741" stroke="#3FC6FF" stroke-width="5.71995" stroke-miterlimit="10"/>
<path d="M163.065 235.937L171.541 202.899" stroke="#3FC6FF" stroke-width="5.71995" stroke-miterlimit="10"/>
<path d="M203.555 200.764C204.238 191.692 196.544 179.822 178.65 175.207C160.756 170.592 148.301 177.254 144.535 185.537C140.769 193.821 144.678 199.26 149.188 198.907C149.321 200.134 149.79 201.301 150.544 202.278C151.298 203.254 152.307 204.002 153.459 204.438C157.485 205.972 161.745 203.158 161.745 203.158C161.745 203.158 163.756 207.144 170.037 208.761C176.318 210.378 179.997 207.881 179.997 207.881C179.997 207.881 182.369 212.424 186.63 212.997C187.847 213.17 189.089 213.002 190.217 212.511C191.345 212.021 192.316 211.228 193.023 210.219C196.824 212.716 202.871 209.841 203.555 200.764Z" fill="#FFBC38"/>
<path d="M178.649 175.209C162.408 171.044 150.673 176.124 145.795 183.323C147.162 186.214 149.566 186.475 152.387 186.961C156.275 187.58 155.719 190.732 157.837 193.306C160.133 196.181 162.332 195.987 165.572 195.173C167.858 194.626 169.945 193.894 171.919 195.547C174.103 197.378 175.425 199.64 178.552 199.671C182.088 199.671 183.267 196.575 186.206 195.941C189.145 195.306 190.227 198.499 192.446 199.706C195.431 201.364 197.692 200.428 200.171 198.657C201.178 198.005 202.242 197.447 203.35 196.989C201.973 188.624 194.13 179.23 178.649 175.209Z" fill="#FF4E4F"/>
<path d="M167.51 176.16C161.035 176.201 156.555 179.081 157.306 181.951C158.056 184.822 166.49 185.446 174.419 184.98C182.348 184.515 181.062 176.057 167.51 176.16Z" fill="#FFA9AB"/>
<path d="M150.355 176.671C151.325 177.925 152.32 179.153 153.371 180.335C154.555 181.665 156.483 179.695 155.31 178.37C154.417 177.347 153.549 176.323 152.728 175.269C152.537 174.961 152.234 174.739 151.884 174.648C151.533 174.558 151.161 174.606 150.845 174.783C150.258 175.126 149.896 176.078 150.335 176.671H150.355Z" fill="white"/>
<path d="M164.01 180.391C164.795 180.199 165.591 180.05 166.392 179.945C166.877 179.874 167.362 179.812 167.847 179.766C168.01 179.766 168.173 179.736 168.357 179.731C168.755 179.731 168.928 179.889 168.194 179.582C168.513 179.757 168.887 179.802 169.238 179.706C169.588 179.611 169.889 179.383 170.076 179.071C170.166 178.912 170.224 178.737 170.246 178.557C170.268 178.376 170.254 178.192 170.205 178.017C170.156 177.841 170.073 177.677 169.961 177.534C169.849 177.391 169.709 177.271 169.551 177.183C168.607 176.789 167.556 177.009 166.571 177.147C165.457 177.275 164.351 177.469 163.259 177.73C161.54 178.18 162.295 180.836 164.015 180.385L164.01 180.391Z" fill="white"/>
<path d="M159.52 185.754C160.169 186.926 160.711 188.156 161.137 189.428C161.724 191.101 164.377 190.359 163.785 188.675C163.288 187.178 162.656 185.73 161.897 184.347C161.009 182.812 158.637 184.209 159.525 185.754H159.52Z" fill="white"/>
<path d="M169.77 190.098C171.977 190.065 174.156 189.597 176.184 188.721C177.791 187.964 176.378 185.59 174.786 186.347C173.28 187.059 171.367 187.268 169.724 187.335C167.954 187.401 167.994 190.164 169.77 190.098Z" fill="white"/>
<path d="M174.776 174.675C175.287 176.138 175.134 177.745 175.225 179.28C175.333 181.045 178.088 181.014 177.981 179.229C177.874 177.443 177.981 175.647 177.425 173.933C176.868 172.219 174.2 172.997 174.776 174.69V174.675Z" fill="white"/>
<path d="M180.67 193.398C181.746 192.068 182.501 190.461 183.685 189.223C184.869 187.985 182.961 185.999 181.726 187.279C180.491 188.558 179.797 190.118 178.715 191.454C177.634 192.789 179.552 194.779 180.67 193.398Z" fill="white"/>
<path d="M188.43 187.022C189.588 188.736 190.221 190.66 190.95 192.579C191.578 194.226 194.236 193.49 193.604 191.822C192.792 189.693 192.073 187.519 190.802 185.615C189.813 184.147 187.435 185.544 188.43 187.022Z" fill="white"/>
<path d="M184.491 183.175C185.219 182.745 185.957 182.334 186.705 181.941C187.114 181.721 187.527 181.507 187.945 181.307L188.17 181.205C188.012 181.271 188.022 181.266 188.17 181.205C188.476 181.082 188.313 181.205 188.17 181.169L187.466 180.985C187.784 181.161 188.157 181.206 188.508 181.11C188.858 181.015 189.158 180.786 189.343 180.473C189.524 180.155 189.572 179.779 189.476 179.426C189.381 179.073 189.149 178.772 188.833 178.59C187.813 178.119 186.792 178.769 185.894 179.235C184.996 179.7 184.016 180.258 183.103 180.77C181.572 181.675 182.97 184.055 184.501 183.149L184.491 183.175Z" fill="white"/>
<path d="M198.692 186.587C198.195 188.761 197.898 190.975 197.804 193.203C197.804 194.984 200.549 194.938 200.559 193.152C200.645 191.173 200.913 189.207 201.36 187.278C201.702 185.538 199.033 184.843 198.692 186.587Z" fill="white"/>
</g>
<path d="M77.7186 123.456C77.5434 124.5 77.269 125.524 76.899 126.515C76.8628 126.606 76.8311 126.693 76.7949 126.78C76.6319 127.201 76.8674 126.625 76.7587 126.867C76.65 127.109 76.5866 127.247 76.4961 127.429C76.2823 127.87 76.045 128.299 75.7852 128.714C75.5588 129.076 75.3324 129.432 75.0608 129.771C75.26 129.505 74.9295 129.926 74.8661 129.999C74.7257 130.173 74.5763 130.342 74.4133 130.507C74.1416 130.8 73.8609 131.083 73.5666 131.353C73.4217 131.485 73.2768 131.618 73.1138 131.746L72.9327 131.892L72.7561 132.039C72.8965 131.929 72.9237 131.911 72.8331 131.975C72.2383 132.435 71.6119 132.852 70.9586 133.223C70.6553 133.397 70.3429 133.557 70.0259 133.708L69.6048 133.9C69.5143 133.941 69.2788 134.028 69.6456 133.9L69.3694 134.014C68.7779 134.247 68.1731 134.444 67.5583 134.604C67.3002 134.668 67.0421 134.728 66.7795 134.782C66.6482 134.782 66.5214 134.833 66.3901 134.851L66.1637 134.888C65.9011 134.933 66.5531 134.851 66.2724 134.888C65.8497 134.93 65.4249 134.95 65.0001 134.947H64.7375C64.3662 134.947 64.9956 135.016 64.8597 134.97C64.7329 134.919 64.6007 134.884 64.4658 134.865C64.3436 134.865 64.9186 134.988 64.6696 134.947C64.5337 134.924 64.7375 135.034 64.5835 134.878C64.4296 134.723 64.2711 134.572 64.1308 134.421C64.33 134.654 64.1308 134.449 64.1308 134.375L63.9225 134.01C63.7867 133.781 63.9225 134.01 63.9225 134.06C63.8863 133.955 63.8455 133.85 63.8184 133.744C63.7912 133.639 63.7912 133.598 63.7685 133.534C63.6689 133.228 63.7414 133.754 63.7685 133.58C63.78 133.496 63.78 133.412 63.7685 133.328C63.7323 133.022 63.6916 133.566 63.7685 133.397C63.7935 133.324 63.8117 133.249 63.8229 133.173C63.8636 132.866 63.687 133.479 63.8229 133.2C63.8229 133.164 64.004 132.917 63.85 133.136C63.6961 133.356 63.85 133.136 63.9044 133.09C64.1579 132.912 63.6735 133.264 63.8455 133.141C64.0176 133.017 64.1172 133.058 63.7776 133.141C63.8369 133.113 63.8992 133.094 63.9632 133.081C63.601 133.081 64.3209 133.081 63.9632 133.081C64.0401 133.086 64.1173 133.086 64.1942 133.081C64.3617 133.081 64.3526 133.081 64.1625 133.081L64.3617 133.118C64.771 133.203 65.163 133.357 65.5208 133.575C65.7381 133.699 65.9419 133.836 66.1502 133.973C66.5214 134.22 66.0324 133.868 66.2316 134.032C66.3494 134.128 66.4626 134.234 66.5712 134.339C66.7203 134.481 66.8595 134.634 66.9878 134.796C66.775 134.526 67.0557 134.924 67.11 135.02C67.1644 135.116 67.35 135.555 67.2278 135.217C67.3002 135.424 67.3636 135.634 67.4179 135.848C67.4179 135.875 67.4813 136.232 67.4451 135.971C67.4089 135.711 67.4451 136.067 67.4451 136.095C67.4451 136.282 67.4451 136.465 67.4451 136.653C67.4451 136.726 67.4451 136.804 67.4451 136.877C67.4451 137.256 67.5175 136.552 67.4451 136.927C67.4043 137.119 67.3681 137.311 67.3183 137.499C67.2685 137.686 67.2051 137.883 67.1417 138.075C67.101 138.189 67.0557 138.303 67.0104 138.418C67.0104 138.367 67.1417 138.139 67.0104 138.418C66.811 138.846 66.5888 139.262 66.3448 139.666C66.1115 140 65.8622 140.322 65.5978 140.631C65.4393 140.841 65.8196 140.361 65.5434 140.695L65.3714 140.905C65.1993 141.116 65.0227 141.321 64.8371 141.523C64.2313 142.178 63.5807 142.789 62.8902 143.352C62.5596 143.626 63.1347 143.178 62.7951 143.425L62.5913 143.576C62.4238 143.699 62.2563 143.818 62.0842 143.932C61.6934 144.196 61.2866 144.434 60.8663 144.646C60.7802 144.692 60.6987 144.733 60.6127 144.769C60.6127 144.769 60.2097 144.948 60.409 144.865C60.6082 144.783 60.178 144.952 60.1961 144.943L59.8656 145.062C59.4023 145.222 58.9288 145.35 58.4484 145.446C58.2175 145.496 57.9957 145.533 57.7557 145.569C57.801 145.569 58.0409 145.528 57.7557 145.569L57.3391 145.611C56.8501 145.659 56.3792 145.676 55.9265 145.661C55.4737 145.661 54.9983 145.634 54.541 145.588L54.1969 145.551C53.9297 145.519 54.5546 145.611 54.1199 145.551C53.8528 145.505 53.5811 145.464 53.314 145.409C52.4539 145.238 51.6089 144.996 50.7875 144.687C50.6924 144.65 50.1219 144.408 50.4524 144.554C50.2713 144.472 50.0857 144.39 49.9046 144.298C49.5559 144.129 49.2209 143.942 48.8903 143.74C48.7364 143.64 48.5825 143.544 48.4376 143.439C48.3681 143.383 48.2955 143.331 48.2202 143.283C48.0346 143.169 48.4964 143.521 48.2202 143.283C47.9588 143.067 47.7109 142.835 47.4777 142.588L47.3464 142.46C47.1336 142.25 47.4732 142.698 47.3917 142.529C47.3102 142.359 47.2422 142.318 47.1788 142.213C47.1788 142.213 46.9887 141.861 46.9932 141.856C47.0702 141.829 47.1109 142.263 47.034 141.934C47.034 141.866 46.9932 141.792 46.9706 141.719C46.9479 141.646 46.9706 141.623 46.9389 141.577C46.8483 141.331 46.9117 141.952 46.9389 141.696C46.9389 141.642 46.9027 141.358 46.9389 141.335C46.9751 141.312 46.8076 141.765 46.9389 141.527C46.9587 141.471 46.9739 141.413 46.9842 141.353C47.0747 140.942 46.8212 141.577 47.0204 141.262C47.1155 141.116 47.3645 140.864 47.0611 141.157C47.1698 141.052 47.2603 140.928 47.369 140.823L47.5094 140.69C47.6543 140.544 47.5863 140.494 47.446 140.732C47.5003 140.64 47.6995 140.558 47.7856 140.507C47.8716 140.457 48.0165 140.343 48.0663 140.361C48.1161 140.379 47.6588 140.489 47.9621 140.411L48.0889 140.37C48.1931 140.338 48.3063 140.325 48.4149 140.293C48.6594 140.219 48.0618 140.293 48.2383 140.32C48.3108 140.32 48.3968 140.32 48.4693 140.32H48.7998C49.0081 140.32 48.3696 140.219 48.759 140.32C48.8677 140.347 48.9809 140.37 49.0896 140.407L49.2526 140.462C49.5152 140.539 49.2526 140.402 49.1529 140.411C49.3205 140.411 49.6601 140.672 49.8004 140.764C49.9408 140.855 50.0087 140.91 50.1174 140.983C50.2939 141.102 49.9996 140.887 49.9951 140.887C49.9906 140.887 50.1808 141.038 50.2124 141.065C50.411 141.239 50.5999 141.424 50.7784 141.619C50.878 141.724 50.9731 141.829 51.0682 141.939L51.204 142.112C51.0456 141.875 51.4485 142.391 51.204 142.112C51.5631 142.623 51.8868 143.158 52.173 143.713C52.2454 143.855 52.3133 144.001 52.3812 144.17C52.5624 144.568 52.2997 143.937 52.4537 144.349C52.5759 144.678 52.6937 145.007 52.7933 145.341C52.8929 145.675 52.9608 145.963 53.0242 146.255C53.0604 146.42 53.0876 146.589 53.1147 146.758C53.1147 146.79 53.1691 147.129 53.1147 146.859C53.0604 146.589 53.1147 147.014 53.1374 147.06C53.2008 147.746 53.2008 148.437 53.1374 149.123C53.1374 149.155 53.0921 149.497 53.1374 149.228C53.1827 148.958 53.1374 149.296 53.1374 149.333C53.1057 149.502 53.074 149.671 53.0378 149.84C52.9619 150.181 52.8651 150.517 52.748 150.846C52.7027 150.979 52.5035 151.427 52.6665 151.075C52.5895 151.235 52.5216 151.4 52.4356 151.555C52.25 151.912 52.0413 152.255 51.8107 152.584L51.6794 152.762C51.7292 152.698 51.8922 152.479 51.6794 152.762C51.5572 152.909 51.4304 153.055 51.2991 153.22C51.0157 153.524 50.7132 153.81 50.3936 154.075C50.6607 153.855 50.1626 154.239 50.0947 154.29C49.9136 154.413 49.7325 154.532 49.5469 154.642C49.1429 154.871 48.7273 155.079 48.3017 155.264C47.5547 155.611 47.3962 156.695 47.7584 157.358C47.9669 157.697 48.296 157.943 48.6782 158.045C49.0604 158.147 49.4668 158.098 49.814 157.907C53.4724 156.206 55.931 152.877 56.2162 148.807C56.3949 145.492 55.3001 142.236 53.16 139.716C51.3489 137.627 48.3063 136.305 45.8658 138.139C44.4486 139.195 43.5431 140.882 44.0864 142.68C44.5844 144.321 45.9609 145.537 47.36 146.411C51.1234 148.669 55.615 149.342 59.8656 148.286C61.9716 147.689 63.912 146.608 65.5344 145.126C67.1701 143.742 68.5142 142.041 69.4871 140.123C70.3519 138.294 70.8454 136.191 70.0757 134.252C69.5813 133.08 68.785 132.064 67.7697 131.309C66.7544 130.554 65.5572 130.087 64.3028 129.958C63.7279 129.911 63.1507 130.016 62.6283 130.263C62.1058 130.51 61.6561 130.891 61.3236 131.367C61.0456 131.811 60.8619 132.308 60.7839 132.828C60.706 133.347 60.7356 133.877 60.8708 134.385C61.2194 135.894 62.4917 137.585 64.0674 137.869C65.2745 138.049 66.5048 137.99 67.6896 137.695C69.1724 137.378 70.6067 136.863 71.9547 136.163C75.5409 134.344 78.3341 131.249 79.7968 127.475C80.1908 126.44 80.482 125.368 80.6661 124.274C80.7636 123.88 80.7052 123.462 80.5032 123.111C80.3012 122.759 79.9715 122.501 79.584 122.39C79.1968 122.285 78.784 122.337 78.4349 122.537C78.0858 122.736 77.8285 123.066 77.7186 123.456Z" fill="#FFE0D2"/>
<g clip-path="url(#clip6_2544_18812)">
<path d="M275.19 178.507C276.223 178.277 277.275 178.147 278.333 178.117C278.431 178.116 278.523 178.113 278.617 178.114C279.069 178.107 278.446 178.105 278.712 178.115C278.977 178.125 279.128 178.132 279.331 178.147C279.82 178.18 280.307 178.238 280.789 178.323C281.209 178.397 281.625 178.473 282.04 178.598C281.72 178.513 282.234 178.661 282.325 178.692C282.539 178.757 282.752 178.832 282.966 178.921C283.339 179.063 283.707 179.217 284.068 179.388C284.245 179.473 284.423 179.557 284.603 179.66L284.806 179.773L285.008 179.882C284.854 179.793 284.827 179.775 284.92 179.834C285.57 180.213 286.192 180.637 286.781 181.103C287.056 181.319 287.322 181.548 287.581 181.785L287.917 182.103C287.989 182.172 288.158 182.357 287.901 182.065L288.111 182.278C288.549 182.739 288.959 183.226 289.338 183.735C289.494 183.95 289.646 184.167 289.796 184.39C289.845 184.512 289.94 184.61 290.006 184.725L290.125 184.921C290.266 185.147 289.945 184.574 290.084 184.82C290.282 185.196 290.46 185.582 290.617 185.977L290.716 186.221C290.855 186.565 290.682 185.956 290.691 186.099C290.692 186.235 290.709 186.371 290.741 186.503C290.787 186.617 290.686 186.037 290.741 186.284C290.771 186.418 290.796 186.188 290.71 186.389C290.624 186.59 290.543 186.794 290.456 186.98C290.597 186.708 290.482 186.97 290.414 186.998L290.153 187.328C289.992 187.54 290.153 187.328 290.2 187.309C290.116 187.382 290.034 187.459 289.946 187.524C289.859 187.589 289.821 187.604 289.77 187.649C289.524 187.857 289.984 187.592 289.812 187.632C289.731 187.653 289.652 187.685 289.579 187.727C289.309 187.875 289.829 187.709 289.643 187.701C289.566 187.705 289.49 187.716 289.415 187.735C289.116 187.812 289.75 187.745 289.44 187.724C289.406 187.738 289.11 187.663 289.371 187.723C289.632 187.783 289.371 187.723 289.308 187.69C289.047 187.522 289.556 187.839 289.377 187.726C289.198 187.613 289.198 187.505 289.402 187.789C289.355 187.744 289.313 187.694 289.277 187.639C289.413 187.975 289.143 187.307 289.277 187.639C289.253 187.566 289.224 187.495 289.191 187.425C289.128 187.27 289.131 187.278 289.203 187.454L289.162 187.256C289.086 186.845 289.083 186.423 289.15 186.01C289.183 185.762 289.233 185.522 289.282 185.277C289.372 184.84 289.229 185.426 289.307 185.179C289.352 185.034 289.406 184.89 289.463 184.75C289.539 184.558 289.629 184.371 289.73 184.192C289.56 184.49 289.824 184.081 289.892 183.994C289.961 183.908 290.298 183.571 290.03 183.811C290.195 183.666 290.366 183.529 290.544 183.398C290.569 183.388 290.876 183.195 290.648 183.326C290.42 183.458 290.737 183.29 290.762 183.28C290.936 183.21 291.105 183.141 291.279 183.071C291.347 183.043 291.419 183.014 291.487 182.986C291.839 182.844 291.159 183.041 291.533 182.967C291.727 182.933 291.918 182.895 292.111 182.87C292.303 182.846 292.509 182.831 292.711 182.817C292.832 182.812 292.955 182.811 293.078 182.81C293.032 182.829 292.77 182.793 293.078 182.81C293.55 182.834 294.019 182.884 294.485 182.958C294.882 183.049 295.274 183.159 295.66 183.288C295.915 183.356 295.327 183.184 295.74 183.314L295.999 183.395C296.259 183.475 296.516 183.562 296.772 183.658C297.607 183.974 298.418 184.347 299.199 184.775C299.577 184.979 298.946 184.614 299.302 184.836L299.519 184.968C299.696 185.077 299.869 185.188 300.04 185.304C300.43 185.567 300.804 185.855 301.158 186.165C301.233 186.227 301.302 186.288 301.368 186.353C301.368 186.353 301.685 186.66 301.533 186.506C301.382 186.353 301.701 186.688 301.685 186.674L301.92 186.936C302.242 187.305 302.539 187.696 302.808 188.105C302.942 188.3 303.059 188.492 303.183 188.701C303.166 188.659 303.038 188.452 303.183 188.701L303.377 189.071C303.606 189.506 303.799 189.936 303.955 190.362C304.125 190.781 304.278 191.232 304.407 191.673L304.503 192.006C304.573 192.265 304.423 191.652 304.532 192.077C304.59 192.342 304.654 192.609 304.703 192.877C304.867 193.739 304.961 194.613 304.983 195.49C304.984 195.592 304.974 196.212 304.986 195.85C304.977 196.049 304.971 196.252 304.954 196.454C304.928 196.841 304.88 197.222 304.818 197.604C304.783 197.784 304.751 197.963 304.708 198.137C304.683 198.222 304.662 198.309 304.646 198.397C304.61 198.612 304.763 198.051 304.646 198.397C304.544 198.72 304.422 199.037 304.281 199.346L304.211 199.516C304.096 199.792 304.384 199.309 304.258 199.448C304.132 199.587 304.119 199.665 304.045 199.764C304.045 199.764 303.791 200.072 303.785 200.07C303.73 200.009 304.118 199.808 303.841 200.003C303.778 200.029 303.725 200.094 303.666 200.142C303.607 200.191 303.577 200.178 303.547 200.225C303.352 200.402 303.904 200.109 303.657 200.18C303.606 200.201 303.357 200.341 303.322 200.316C303.287 200.291 303.77 200.276 303.5 200.244C303.44 200.247 303.381 200.254 303.322 200.267C302.906 200.338 303.591 200.334 303.224 200.268C303.052 200.235 302.726 200.098 303.111 200.27C302.972 200.208 302.824 200.171 302.686 200.11L302.51 200.029C302.32 199.95 302.299 200.032 302.572 200.073C302.467 200.057 302.316 199.903 302.237 199.842C302.158 199.781 301.998 199.69 301.996 199.637C301.994 199.584 302.268 199.966 302.082 199.715L301.996 199.613C301.927 199.528 301.872 199.428 301.801 199.34C301.642 199.14 301.934 199.667 301.893 199.493C301.866 199.426 301.833 199.346 301.806 199.279L301.682 198.973C301.604 198.78 301.75 199.409 301.697 199.01C301.682 198.899 301.661 198.786 301.654 198.671L301.643 198.5C301.617 198.227 301.588 198.522 301.634 198.611C301.571 198.456 301.685 198.043 301.717 197.879C301.749 197.714 301.775 197.631 301.802 197.502C301.845 197.294 301.757 197.648 301.759 197.652C301.76 197.656 301.829 197.423 301.842 197.383C301.929 197.134 302.029 196.89 302.142 196.651C302.202 196.519 302.264 196.392 302.33 196.262L302.44 196.071C302.279 196.307 302.607 195.74 302.44 196.071C302.778 195.547 303.152 195.046 303.559 194.572C303.664 194.452 303.774 194.334 303.905 194.207C304.206 193.89 303.719 194.37 304.043 194.073C304.302 193.836 304.563 193.603 304.835 193.386C305.107 193.168 305.349 192.997 305.596 192.828C305.735 192.733 305.881 192.644 306.028 192.555C306.058 192.543 306.351 192.366 306.121 192.517C305.892 192.669 306.265 192.459 306.299 192.421C306.911 192.104 307.551 191.845 308.211 191.646C308.24 191.634 308.575 191.547 308.308 191.607C308.041 191.666 308.372 191.581 308.405 191.567C308.574 191.533 308.743 191.499 308.913 191.469C309.258 191.411 309.606 191.374 309.954 191.359C310.094 191.351 310.585 191.368 310.197 191.349C310.374 191.36 310.552 191.361 310.729 191.383C311.129 191.421 311.526 191.485 311.917 191.575L312.132 191.63C312.053 191.608 311.789 191.539 312.132 191.63C312.313 191.688 312.496 191.751 312.698 191.811C313.087 191.959 313.465 192.132 313.831 192.329C313.527 192.163 314.07 192.481 314.142 192.525C314.325 192.646 314.503 192.769 314.674 192.9C315.039 193.188 315.387 193.496 315.718 193.821C316.321 194.382 317.385 194.122 317.863 193.537C318.099 193.217 318.204 192.819 318.155 192.427C318.106 192.034 317.907 191.676 317.6 191.426C314.649 188.675 310.64 187.647 306.762 188.911C303.622 189.991 301.016 192.229 299.485 195.158C298.228 197.622 298.147 200.938 300.763 202.511C302.274 203.428 304.178 203.633 305.639 202.454C306.974 201.376 307.584 199.644 307.868 198.019C308.547 193.683 307.483 189.267 304.908 185.725C303.563 183.997 301.832 182.605 299.85 181.658C297.953 180.662 295.871 180.056 293.729 179.874C291.709 179.76 289.574 180.093 288.066 181.534C287.166 182.433 286.524 183.552 286.205 184.777C285.887 186.002 285.904 187.286 286.255 188.497C286.428 189.048 286.742 189.543 287.167 189.935C287.592 190.326 288.114 190.6 288.68 190.729C289.196 190.82 289.726 190.804 290.237 190.681C290.747 190.558 291.228 190.331 291.647 190.015C292.914 189.125 294.004 187.311 293.675 185.744C293.389 184.558 292.872 183.44 292.154 182.452C291.303 181.197 290.287 180.061 289.132 179.075C286.098 176.435 282.181 175.009 278.134 175.071C277.026 175.095 275.923 175.228 274.841 175.468C274.439 175.526 274.074 175.737 273.824 176.056C273.574 176.375 273.458 176.778 273.501 177.178C273.549 177.577 273.753 177.94 274.069 178.188C274.385 178.437 274.787 178.551 275.19 178.507Z" fill="#FFE0D2"/>
</g>
<g clip-path="url(#clip7_2544_18812)">
<path d="M237.567 132.31C238.664 132.31 239.553 131.42 239.553 130.323C239.553 129.227 238.664 128.337 237.567 128.337C236.47 128.337 235.581 129.227 235.581 130.323C235.581 131.42 236.47 132.31 237.567 132.31Z" fill="#FFE0D2"/>
</g>
<g clip-path="url(#clip8_2544_18812)">
<path d="M135.013 126.02C136.11 126.02 137 125.131 137 124.034C137 122.937 136.11 122.048 135.013 122.048C133.917 122.048 133.027 122.937 133.027 124.034C133.027 125.131 133.917 126.02 135.013 126.02Z" fill="#FFE0D2"/>
</g>
<g clip-path="url(#clip9_2544_18812)">
<path d="M323.689 87.2891C324.786 87.2891 325.675 86.3999 325.675 85.303C325.675 84.2061 324.786 83.3169 323.689 83.3169C322.592 83.3169 321.703 84.2061 321.703 85.303C321.703 86.3999 322.592 87.2891 323.689 87.2891Z" fill="#FFE0D2"/>
</g>
<g clip-path="url(#clip10_2544_18812)">
<path d="M294.891 245.185C295.988 245.185 296.877 244.296 296.877 243.199C296.877 242.102 295.988 241.213 294.891 241.213C293.794 241.213 292.905 242.102 292.905 243.199C292.905 244.296 293.794 245.185 294.891 245.185Z" fill="#FFE0D2"/>
</g>
<g clip-path="url(#clip11_2544_18812)">
<path d="M179.701 135.949C180.798 135.949 181.687 135.06 181.687 133.963C181.687 132.866 180.798 131.977 179.701 131.977C178.604 131.977 177.715 132.866 177.715 133.963C177.715 135.06 178.604 135.949 179.701 135.949Z" fill="#FFE0D2"/>
</g>
<g clip-path="url(#clip12_2544_18812)">
<path d="M213.745 102.248C217.036 102.248 219.704 99.5805 219.704 96.2898C219.704 92.9992 217.036 90.3315 213.745 90.3315C210.455 90.3315 207.787 92.9992 207.787 96.2898C207.787 99.5805 210.455 102.248 213.745 102.248Z" fill="#FFE0D2"/>
</g>
<g clip-path="url(#clip13_2544_18812)">
<path d="M155.867 117.083C159.158 117.083 161.826 114.415 161.826 111.125C161.826 107.834 159.158 105.167 155.867 105.167C152.577 105.167 149.909 107.834 149.909 111.125C149.909 114.415 152.577 117.083 155.867 117.083Z" fill="#FFE0D2"/>
</g>
<g clip-path="url(#clip14_2544_18812)">
<path d="M76.4221 260.082C79.7128 260.082 82.3804 257.414 82.3804 254.123C82.3804 250.833 79.7128 248.165 76.4221 248.165C73.1315 248.165 70.4639 250.833 70.4639 254.123C70.4639 257.414 73.1315 260.082 76.4221 260.082Z" fill="#FFE0D2"/>
</g>
<g clip-path="url(#clip15_2544_18812)">
<path d="M106.045 192.065C105.379 198.555 107.997 204.621 108.495 211.008C108.751 213.958 108.362 216.929 107.357 219.708C107.074 220.654 106.619 221.537 106.016 222.313C105.899 222.488 105.741 222.63 105.554 222.724C105.368 222.819 105.161 222.863 104.954 222.852C104.532 222.754 104.292 222.266 104.161 221.893C103.853 221.036 103.739 219.922 104.271 219.143C104.802 218.363 105.426 218.376 106.121 218.813C107.5 219.67 108.592 221.469 109.072 223.015C110.046 226.134 109.072 229.145 107.584 231.904C106.126 234.599 104.292 237.045 102.947 239.821C101.901 241.962 101.029 244.378 101.012 246.807C101.012 248.542 101.37 250.697 102.934 251.699C103.321 251.932 103.752 252.079 104.199 252.128C104.621 252.188 104.836 251.498 104.389 251.434C102.154 251.121 101.69 248.521 101.737 246.61C101.804 243.813 103.002 241.071 104.351 238.677C107.108 233.712 112.163 228.074 109.46 221.97C109.063 221.094 108.554 220.274 107.947 219.532C107.414 218.783 106.683 218.202 105.839 217.858C105.472 217.742 105.078 217.749 104.714 217.877C104.351 218.004 104.038 218.247 103.819 218.569C103.544 218.966 103.354 219.418 103.263 219.895C103.172 220.372 103.182 220.863 103.293 221.336C103.432 222.193 103.836 223.311 104.764 223.546C105.691 223.782 106.48 222.981 106.952 222.261C107.455 221.42 107.86 220.521 108.158 219.584C108.686 218.119 109.029 216.592 109.178 215.039C109.844 208.116 106.716 201.618 106.648 194.755C106.636 193.862 106.677 192.97 106.771 192.082C106.817 191.624 106.113 191.628 106.067 192.082L106.045 192.065Z" fill="#3A5769"/>
<path d="M115.733 195.863C116.374 196.621 117.04 198.142 115.484 199.851C113.929 201.56 111.437 200.481 111.437 200.481C111.081 201.309 110.49 202.011 109.739 202.496C108.987 202.98 108.111 203.226 107.221 203.201C106.332 203.226 105.455 202.98 104.704 202.496C103.953 202.011 103.361 201.309 103.005 200.481C103.005 200.481 100.514 201.556 98.9582 199.851C97.4025 198.146 98.0686 196.621 98.7094 195.863C99.7423 194.646 103.629 191.819 103.629 191.819H110.813C110.813 191.819 114.704 194.642 115.733 195.863Z" fill="#FF4E4F"/>
<path d="M127.066 168.546C127.067 170.076 126.943 171.604 126.695 173.113C125.164 182.447 119.03 189.819 111.227 191.721L110.805 191.816C109.619 192.076 108.409 192.206 107.196 192.206H106.728C106.492 192.206 106.26 192.206 106.029 192.171C105.212 192.117 104.4 192.001 103.6 191.824L103.179 191.726C101.051 191.195 99.0369 190.274 97.2342 189.01C94.9137 187.38 92.9336 185.299 91.4079 182.888C90.2396 181.062 89.3139 179.088 88.6549 177.015C88.0502 175.135 87.6529 173.193 87.4703 171.223C87.3859 170.367 87.3438 169.481 87.3438 168.568C87.3406 166.621 87.5399 164.68 87.9382 162.776C88.3541 160.773 89.0037 158.827 89.8733 156.98C93.2755 149.762 99.7637 144.887 107.205 144.887C107.928 144.886 108.65 144.934 109.367 145.028C111.359 145.287 113.291 145.893 115.08 146.819C117.323 147.997 119.325 149.596 120.982 151.531C122.385 153.143 123.564 154.943 124.486 156.881C125.147 158.266 125.683 159.708 126.088 161.191C126.742 163.586 127.071 166.061 127.066 168.546Z" fill="#FF4E4F"/>
<path d="M110.814 192.249H103.596C103.485 192.249 103.377 192.204 103.298 192.124C103.219 192.044 103.175 191.935 103.175 191.821C103.175 191.707 103.219 191.598 103.298 191.518C103.377 191.438 103.485 191.393 103.596 191.393H110.814C110.926 191.393 111.033 191.438 111.112 191.518C111.191 191.598 111.236 191.707 111.236 191.821C111.236 191.935 111.191 192.044 111.112 192.124C111.033 192.204 110.926 192.249 110.814 192.249Z" fill="#3A5769"/>
<path d="M115.079 146.819C113.927 148.48 112.647 150.046 111.251 151.502C109.937 152.886 108.529 154.175 107.035 155.357C105.49 156.632 103.846 157.778 102.12 158.784C99.1836 160.457 96.0046 161.646 92.7014 162.305C92.4569 162.352 92.2081 162.4 91.9636 162.438C91.4029 162.528 90.8422 162.605 90.2773 162.661C89.4973 162.738 88.709 162.777 87.9248 162.777C88.3447 160.773 88.9986 158.827 89.8725 156.981H89.9147H90.2014C90.2649 156.962 90.3297 156.949 90.3953 156.942L90.7157 156.882C91.1795 156.805 91.6432 156.711 92.1027 156.604C92.3599 156.544 92.6171 156.484 92.8742 156.415C94.1318 156.081 95.3668 155.665 96.5715 155.169L96.736 155.104C96.9763 154.993 97.0648 154.954 97.0732 154.954C97.1913 154.907 97.3051 154.852 97.4232 154.796C97.7436 154.646 98.064 154.487 98.3802 154.325C99.0125 154.005 99.6295 153.656 100.231 153.279C100.977 152.812 101.698 152.307 102.406 151.784C102.583 151.656 102.76 151.519 102.933 151.386L103.051 151.3L103.119 151.245C103.054 151.287 102.992 151.334 102.933 151.386C103.136 151.108 103.237 151.129 103.123 151.24L103.186 151.193C103.528 150.919 103.869 150.641 104.202 150.336C105.517 149.212 106.759 148.003 107.921 146.717C108.427 146.168 108.909 145.606 109.367 145.029C111.358 145.288 113.291 145.893 115.079 146.819Z" fill="#FFA9AB"/>
<path d="M124.485 156.881C123.334 158.668 122.051 160.365 120.649 161.957C119.261 163.578 117.745 165.08 116.117 166.451C112.364 169.551 108.165 172.049 103.667 173.857C100.363 175.206 96.9105 176.141 93.3846 176.642C92.651 176.753 91.9217 176.839 91.1839 176.912H91.0701C90.2687 176.989 89.4634 177.018 88.6586 176.997C88.0536 175.123 87.6549 173.186 87.4697 171.223H87.5287H87.6679C88.3533 171.285 89.0419 171.302 89.7294 171.274C89.9065 171.274 90.0836 171.266 90.2606 171.248C90.6822 171.248 91.1038 171.188 91.5001 171.146L91.9807 171.094H92.0313C93.9536 170.821 95.8562 170.42 97.7269 169.895C98.7556 169.609 99.773 169.275 100.779 168.892C101.306 168.695 101.833 168.464 102.356 168.271H102.385H102.423H102.457H102.478H102.457H102.491H102.516L103.186 167.967C105.143 167.037 107.033 165.971 108.844 164.776C109.687 164.236 110.509 163.665 111.31 163.062L111.428 162.972L111.458 162.946C111.497 162.921 111.533 162.892 111.568 162.861C111.753 162.715 111.93 162.565 112.111 162.432C112.491 162.111 112.866 161.786 113.237 161.451C114.716 160.107 116.091 158.651 117.352 157.095C117.52 156.889 117.685 156.666 117.849 156.474L117.972 156.319L117.997 156.285L118.035 156.234L118.064 156.195C118.321 155.844 118.579 155.493 118.827 155.137C119.319 154.447 119.774 153.732 120.193 152.995C120.472 152.503 120.741 152.006 120.994 151.504C122.395 153.125 123.569 154.934 124.485 156.881Z" fill="#FFA9AB"/>
<path d="M109.305 180.078L109.19 180.127L109.28 180.087L109.305 180.078Z" fill="#FFA9AB"/>
<path d="M126.087 161.195C125.95 161.882 125.775 162.562 125.564 163.23C125.433 163.658 125.29 164.061 125.142 164.468C125.144 164.448 125.144 164.428 125.142 164.408C125.079 164.535 125.03 164.668 124.995 164.806L125.033 164.725C125.012 164.768 124.995 164.815 124.978 164.857V164.806C124.902 164.986 124.822 165.166 124.738 165.342C124.323 166.223 123.863 167.081 123.359 167.912C122.836 168.769 122.271 169.591 121.673 170.392L121.648 170.426L121.546 170.551L121.125 171.065C120.807 171.476 120.471 171.874 120.117 172.26C118.853 173.668 117.48 174.972 116.011 176.158L115.969 176.192L115.91 176.24C115.9 176.238 115.89 176.238 115.88 176.24L115.825 176.287C115.661 176.407 115.501 176.531 115.332 176.651C114.949 176.933 114.561 177.203 114.164 177.469C113.448 177.94 112.71 178.386 111.955 178.788C111.323 179.127 110.691 179.435 110.033 179.735L109.531 179.958L109.611 179.928C109.237 180.126 108.849 180.297 108.452 180.442C106.827 181.078 105.171 181.627 103.49 182.087C102.616 182.33 101.735 182.545 100.846 182.734C100.45 182.819 100.054 182.897 99.6576 182.969L98.9114 183.094L98.553 183.141H98.4729H98.3717H98.3043C96.6249 183.337 94.931 183.371 93.2452 183.244H93.1146L92.9122 183.218H92.9712L92.7014 183.184H92.8911C92.6803 183.149 92.4695 183.111 92.2545 183.064C91.9594 183.004 91.6685 182.931 91.3818 182.845C92.9105 185.274 94.8997 187.37 97.2335 189.01H97.3557C101.29 188.65 105.161 187.762 108.865 186.366C112.183 185.154 115.412 183.655 118.279 181.539C121.499 179.187 124.343 176.345 126.711 173.112C126.959 171.603 127.083 170.076 127.082 168.546C127.081 166.061 126.746 163.588 126.087 161.195ZM125.079 164.622C125.067 164.654 125.053 164.686 125.037 164.716C125.037 164.669 125.079 164.618 125.096 164.57C125.113 164.523 125.096 164.523 125.126 164.498C125.113 164.528 125.096 164.592 125.079 164.613V164.622Z" fill="#FFA9AB"/>
<path d="M90.9473 173.078C90.677 173.076 90.416 172.977 90.2118 172.797C90.0076 172.617 89.8737 172.368 89.8343 172.097C89.6615 170.921 89.5756 169.734 89.5772 168.545C89.5772 160.603 93.3166 153.466 99.3411 149.924C99.4693 149.848 99.6108 149.799 99.7576 149.78C99.9044 149.76 100.054 149.769 100.197 149.808C100.34 149.847 100.474 149.914 100.592 150.006C100.709 150.097 100.808 150.211 100.882 150.341C100.956 150.472 101.004 150.615 101.024 150.765C101.043 150.914 101.034 151.065 100.996 151.211C100.957 151.356 100.891 151.492 100.801 151.612C100.711 151.731 100.599 151.832 100.471 151.907C95.1421 155.043 91.8327 161.417 91.8327 168.545C91.8333 169.622 91.9108 170.697 92.0645 171.762C92.1044 172.06 92.0272 172.362 91.8497 172.603C91.6721 172.843 91.4086 173.003 91.116 173.048L90.9473 173.078Z" fill="white"/>
<path d="M93.5925 180.801C93.3953 180.801 93.2017 180.748 93.0309 180.648C92.86 180.548 92.7179 180.405 92.6186 180.232C91.8884 178.959 91.2854 177.616 90.8184 176.222C90.7705 176.08 90.7507 175.929 90.7601 175.779C90.7694 175.629 90.8078 175.482 90.873 175.347C90.9382 175.212 91.0289 175.091 91.14 174.992C91.251 174.893 91.3803 174.816 91.5204 174.768C91.6604 174.719 91.8086 174.699 91.9563 174.708C92.104 174.718 92.2485 174.757 92.3814 174.823C92.5143 174.889 92.6331 174.981 92.7309 175.094C92.8288 175.207 92.9038 175.339 92.9517 175.481C93.3716 176.73 93.9124 177.934 94.5663 179.075C94.6407 179.206 94.6888 179.35 94.7078 179.5C94.7269 179.65 94.7165 179.802 94.6773 179.948C94.6381 180.094 94.5708 180.231 94.4794 180.35C94.388 180.469 94.2743 180.569 94.1447 180.643C93.9775 180.744 93.787 180.799 93.5925 180.801Z" fill="white"/>
</g>
<g clip-path="url(#clip16_2544_18812)">
<path d="M327.672 255.701C327.106 261.109 329.331 266.164 329.754 271.486C329.972 273.945 329.642 276.42 328.787 278.737C328.547 279.525 328.16 280.261 327.647 280.907C327.548 281.053 327.413 281.171 327.255 281.25C327.097 281.329 326.921 281.366 326.744 281.357C326.386 281.275 326.182 280.868 326.07 280.557C325.809 279.843 325.712 278.915 326.164 278.265C326.615 277.616 327.145 277.626 327.737 277.991C328.909 278.705 329.837 280.204 330.245 281.493C331.073 284.091 330.245 286.601 328.98 288.9C327.74 291.145 326.182 293.184 325.038 295.497C324.15 297.282 323.408 299.295 323.394 301.319C323.394 302.765 323.698 304.561 325.028 305.396C325.356 305.59 325.723 305.712 326.103 305.753C326.461 305.803 326.644 305.228 326.264 305.175C324.365 304.914 323.97 302.747 324.01 301.155C324.067 298.824 325.085 296.539 326.232 294.544C328.575 290.406 332.872 285.709 330.575 280.622C330.237 279.891 329.805 279.208 329.288 278.59C328.836 277.966 328.214 277.482 327.497 277.194C327.184 277.098 326.85 277.104 326.541 277.21C326.232 277.317 325.966 277.519 325.78 277.787C325.546 278.118 325.384 278.495 325.307 278.892C325.23 279.29 325.238 279.699 325.332 280.093C325.45 280.807 325.794 281.739 326.583 281.935C327.371 282.132 328.041 281.464 328.443 280.864C328.871 280.163 329.214 279.414 329.468 278.633C329.917 277.412 330.208 276.14 330.335 274.846C330.901 269.077 328.242 263.661 328.185 257.942C328.175 257.198 328.209 256.455 328.289 255.715C328.328 255.333 327.73 255.336 327.69 255.715L327.672 255.701Z" fill="#3A5769"/>
<path d="M335.905 258.867C336.449 259.498 337.016 260.766 335.693 262.19C334.371 263.614 332.253 262.715 332.253 262.715C331.951 263.405 331.448 263.99 330.809 264.394C330.171 264.798 329.426 265.003 328.67 264.982C327.914 265.003 327.168 264.798 326.53 264.394C325.891 263.99 325.389 263.405 325.086 262.715C325.086 262.715 322.968 263.611 321.646 262.19C320.324 260.769 320.89 259.498 321.435 258.867C322.312 257.853 325.616 255.497 325.616 255.497H331.723C331.723 255.497 335.03 257.849 335.905 258.867Z" fill="#FFA800"/>
<path d="M345.538 236.102C345.539 237.377 345.434 238.65 345.223 239.908C343.922 247.686 338.708 253.83 332.075 255.415L331.717 255.494C330.709 255.71 329.68 255.819 328.649 255.819H328.251C328.051 255.819 327.854 255.819 327.656 255.79C326.962 255.744 326.272 255.648 325.592 255.501L325.234 255.419C323.426 254.976 321.714 254.209 320.181 253.155C318.209 251.797 316.526 250.063 315.229 248.054C314.236 246.533 313.449 244.887 312.889 243.16C312.375 241.593 312.037 239.975 311.882 238.334C311.81 237.62 311.774 236.882 311.774 236.12C311.772 234.498 311.941 232.88 312.28 231.294C312.633 229.624 313.185 228.003 313.925 226.464C316.816 220.449 322.331 216.386 328.656 216.386C329.271 216.386 329.885 216.425 330.495 216.504C332.187 216.72 333.83 217.224 335.35 217.996C337.256 218.978 338.959 220.31 340.367 221.923C341.56 223.267 342.562 224.767 343.345 226.382C343.907 227.535 344.363 228.737 344.707 229.973C345.263 231.969 345.542 234.031 345.538 236.102Z" fill="#FFA800"/>
<path d="M331.724 255.853H325.589C325.494 255.853 325.403 255.816 325.335 255.749C325.268 255.682 325.23 255.591 325.23 255.496C325.23 255.401 325.268 255.311 325.335 255.244C325.403 255.177 325.494 255.139 325.589 255.139H331.724C331.819 255.139 331.91 255.177 331.977 255.244C332.044 255.311 332.082 255.401 332.082 255.496C332.082 255.591 332.044 255.682 331.977 255.749C331.91 255.816 331.819 255.853 331.724 255.853Z" fill="#3A5769"/>
<path d="M335.351 217.996C334.371 219.38 333.283 220.684 332.097 221.897C330.98 223.051 329.783 224.125 328.513 225.11C327.2 226.173 325.803 227.128 324.335 227.966C321.84 229.361 319.137 230.351 316.33 230.901C316.122 230.94 315.91 230.979 315.703 231.011C315.226 231.086 314.749 231.15 314.269 231.197C313.606 231.261 312.936 231.293 312.27 231.293C312.626 229.623 313.182 228.002 313.925 226.463H313.961H314.205C314.259 226.448 314.314 226.437 314.369 226.431L314.642 226.381C315.036 226.317 315.43 226.238 315.821 226.149C316.039 226.099 316.258 226.049 316.477 225.992C317.546 225.714 318.595 225.367 319.619 224.953L319.759 224.9C319.963 224.807 320.039 224.775 320.046 224.775C320.146 224.735 320.243 224.689 320.343 224.643C320.615 224.518 320.888 224.386 321.157 224.25C321.694 223.983 322.218 223.693 322.73 223.379C323.364 222.99 323.977 222.569 324.579 222.133C324.729 222.026 324.88 221.912 325.027 221.801L325.127 221.73L325.184 221.683C325.129 221.719 325.076 221.758 325.027 221.801C325.199 221.569 325.285 221.587 325.188 221.68L325.242 221.64C325.532 221.412 325.822 221.18 326.105 220.926C327.223 219.989 328.278 218.982 329.266 217.91C329.696 217.453 330.106 216.984 330.495 216.503C332.188 216.719 333.83 217.224 335.351 217.996Z" fill="#FFE9E0"/>
<path d="M343.347 226.382C342.368 227.872 341.278 229.286 340.086 230.613C338.906 231.963 337.618 233.216 336.234 234.357C333.044 236.941 329.475 239.023 325.652 240.53C322.843 241.653 319.908 242.433 316.911 242.85C316.288 242.943 315.668 243.014 315.041 243.075H314.944C314.263 243.14 313.578 243.164 312.894 243.146C312.38 241.584 312.041 239.971 311.884 238.334H311.934H312.052C312.635 238.386 313.22 238.4 313.805 238.377C313.955 238.377 314.106 238.37 314.256 238.356C314.614 238.356 314.973 238.306 315.31 238.27L315.718 238.227H315.761C317.395 238 319.012 237.666 320.602 237.228C321.477 236.99 322.342 236.711 323.197 236.392C323.645 236.228 324.093 236.035 324.537 235.875H324.562H324.594H324.623H324.641H324.623H324.652H324.673L325.243 235.621C326.906 234.846 328.513 233.958 330.052 232.962C330.769 232.512 331.468 232.036 332.148 231.534L332.249 231.459L332.274 231.437C332.307 231.416 332.338 231.392 332.367 231.366C332.525 231.245 332.675 231.12 332.829 231.009C333.152 230.741 333.471 230.47 333.786 230.191C335.043 229.072 336.212 227.858 337.284 226.561C337.427 226.39 337.567 226.204 337.706 226.043L337.81 225.915L337.832 225.886L337.864 225.843L337.889 225.811C338.108 225.519 338.326 225.226 338.538 224.93C338.955 224.355 339.343 223.759 339.699 223.145C339.935 222.734 340.165 222.32 340.38 221.902C341.57 223.253 342.569 224.761 343.347 226.382Z" fill="#FFE9E0"/>
<path d="M330.44 245.712L330.343 245.752L330.419 245.719L330.44 245.712Z" fill="#FFE9E0"/>
<path d="M344.706 229.977C344.59 230.55 344.441 231.116 344.262 231.673C344.151 232.03 344.029 232.365 343.904 232.704C343.905 232.688 343.905 232.671 343.904 232.654C343.85 232.76 343.808 232.872 343.778 232.986L343.81 232.919C343.792 232.954 343.778 232.994 343.764 233.029V232.986C343.699 233.136 343.631 233.286 343.56 233.433C343.207 234.167 342.816 234.882 342.388 235.575C341.943 236.289 341.463 236.974 340.954 237.641L340.933 237.67L340.847 237.774L340.489 238.202C340.219 238.545 339.933 238.877 339.632 239.198C338.557 240.372 337.39 241.458 336.142 242.446L336.106 242.475L336.056 242.514C336.047 242.513 336.039 242.513 336.031 242.514L335.984 242.554C335.844 242.654 335.708 242.757 335.565 242.857C335.239 243.093 334.909 243.318 334.572 243.539C333.963 243.932 333.336 244.303 332.694 244.638C332.157 244.92 331.619 245.177 331.06 245.427L330.634 245.613L330.702 245.588C330.384 245.753 330.054 245.896 329.717 246.016C328.336 246.546 326.928 247.004 325.499 247.387C324.756 247.589 324.007 247.769 323.252 247.926C322.915 247.998 322.578 248.062 322.241 248.122L321.607 248.226L321.303 248.265H321.234H321.148H321.091C319.664 248.429 318.224 248.457 316.791 248.351H316.68L316.508 248.33H316.558L316.329 248.301H316.49C316.311 248.272 316.132 248.24 315.949 248.201C315.698 248.151 315.451 248.09 315.207 248.019C316.506 250.043 318.197 251.789 320.181 253.156H320.285C323.629 252.857 326.919 252.116 330.068 250.953C332.888 249.943 335.633 248.694 338.07 246.93C340.807 244.97 343.224 242.602 345.237 239.908C345.448 238.651 345.553 237.378 345.552 236.103C345.551 234.032 345.267 231.971 344.706 229.977ZM343.85 232.833C343.839 232.86 343.827 232.886 343.814 232.911C343.814 232.872 343.85 232.829 343.864 232.79C343.879 232.751 343.864 232.751 343.889 232.729C343.879 232.754 343.864 232.808 343.85 232.826V232.833Z" fill="#FFE9E0"/>
<path d="M314.837 239.879C314.607 239.878 314.385 239.795 314.211 239.645C314.038 239.495 313.924 239.288 313.89 239.061C313.744 238.082 313.671 237.093 313.672 236.102C313.672 229.484 316.85 223.536 321.971 220.584C322.08 220.521 322.2 220.48 322.325 220.464C322.45 220.447 322.577 220.456 322.698 220.488C322.82 220.52 322.934 220.576 323.034 220.652C323.134 220.728 323.218 220.824 323.281 220.932C323.344 221.041 323.385 221.16 323.402 221.285C323.418 221.409 323.41 221.535 323.378 221.657C323.345 221.778 323.289 221.891 323.213 221.991C323.136 222.09 323.041 222.174 322.932 222.237C318.402 224.85 315.589 230.162 315.589 236.102C315.59 236.999 315.656 237.895 315.786 238.783C315.82 239.031 315.754 239.283 315.604 239.483C315.453 239.684 315.229 239.817 314.98 239.854L314.837 239.879Z" fill="white"/>
<path d="M317.084 246.316C316.917 246.316 316.752 246.272 316.607 246.189C316.462 246.105 316.341 245.986 316.256 245.841C315.636 244.781 315.123 243.662 314.726 242.5C314.686 242.381 314.669 242.256 314.677 242.131C314.685 242.006 314.717 241.884 314.773 241.771C314.828 241.658 314.905 241.558 315 241.475C315.094 241.392 315.204 241.329 315.323 241.288C315.442 241.248 315.568 241.231 315.694 241.239C315.819 241.247 315.942 241.279 316.055 241.334C316.168 241.39 316.269 241.466 316.352 241.56C316.435 241.654 316.499 241.764 316.54 241.883C316.897 242.924 317.356 243.927 317.912 244.878C317.975 244.987 318.016 245.107 318.032 245.232C318.049 245.357 318.04 245.484 318.006 245.605C317.973 245.727 317.916 245.841 317.838 245.94C317.76 246.039 317.664 246.122 317.554 246.184C317.412 246.268 317.25 246.314 317.084 246.316Z" fill="white"/>
</g>
<g clip-path="url(#clip17_2544_18812)">
<path d="M251.033 227.063C250.371 233.313 252.985 239.154 253.482 245.301C253.738 248.143 253.35 251.004 252.348 253.683C252.066 254.595 251.61 255.446 251.004 256.192C250.887 256.36 250.728 256.496 250.542 256.587C250.356 256.678 250.149 256.721 249.941 256.711C249.52 256.621 249.283 256.15 249.149 255.787C248.841 254.962 248.727 253.894 249.262 253.143C249.798 252.392 250.413 252.4 251.109 252.825C252.492 253.65 253.579 255.383 254.06 256.872C255.034 259.871 254.06 262.771 252.572 265.432C251.117 268.023 249.283 270.383 247.934 273.052C246.885 275.114 246.016 277.441 245.995 279.78C245.995 281.455 246.358 283.53 247.918 284.495C248.304 284.719 248.736 284.86 249.182 284.908C249.629 284.97 249.819 284.306 249.372 284.244C247.138 283.943 246.674 281.434 246.72 279.599C246.788 276.901 247.985 274.265 249.334 271.959C252.095 267.177 257.146 261.744 254.444 255.87C254.049 255.023 253.54 254.233 252.93 253.518C252.396 252.798 251.666 252.239 250.822 251.905C250.46 251.791 250.07 251.793 249.708 251.91C249.347 252.027 249.033 252.254 248.811 252.557C248.533 252.938 248.342 253.374 248.25 253.833C248.159 254.293 248.169 254.767 248.28 255.222C248.419 256.047 248.828 257.124 249.756 257.355C250.683 257.586 251.467 256.81 251.939 256.117C252.444 255.307 252.848 254.442 253.145 253.539C253.674 252.127 254.017 250.655 254.165 249.158C254.836 242.496 251.708 236.233 251.636 229.629C251.626 228.769 251.667 227.91 251.758 227.055C251.805 226.613 251.101 226.617 251.054 227.055L251.033 227.063Z" fill="#3A5769"/>
<path d="M260.72 230.722C261.36 231.452 262.026 232.917 260.471 234.558C258.915 236.2 256.424 235.169 256.424 235.169C256.068 235.967 255.476 236.643 254.725 237.11C253.974 237.576 253.097 237.813 252.208 237.789C251.318 237.812 250.442 237.575 249.691 237.109C248.94 236.642 248.348 235.967 247.992 235.169C247.992 235.169 245.504 236.204 243.949 234.558C242.393 232.912 243.059 231.452 243.696 230.722C244.729 229.546 248.616 226.828 248.616 226.828H255.8C255.8 226.828 259.691 229.542 260.72 230.722Z" fill="#3FC6FF"/>
<path d="M272.052 204.414C272.053 205.888 271.929 207.359 271.681 208.812C269.897 219.29 261.841 227.198 252.191 227.198C248.627 227.185 245.151 226.111 242.224 224.121C239.903 222.552 237.923 220.549 236.398 218.226C235.23 216.467 234.303 214.565 233.641 212.57C233.036 210.76 232.639 208.889 232.456 206.993V206.968C232.376 206.143 232.334 205.277 232.334 204.414C232.33 202.545 232.53 200.681 232.928 198.854C233.345 196.926 233.993 195.054 234.859 193.276C238.266 186.325 244.75 181.63 252.191 181.63C252.914 181.63 253.636 181.675 254.354 181.767C256.345 182.016 258.277 182.599 260.066 183.491C262.309 184.625 264.312 186.164 265.968 188.029C267.371 189.582 268.55 191.315 269.472 193.181C270.131 194.506 270.667 195.887 271.074 197.307C271.73 199.621 272.059 202.013 272.052 204.414Z" fill="#3FC6FF"/>
<path d="M255.804 227.235H248.582C248.47 227.235 248.363 227.191 248.284 227.114C248.205 227.037 248.16 226.932 248.16 226.822C248.16 226.713 248.205 226.608 248.284 226.53C248.363 226.453 248.47 226.41 248.582 226.41H255.804C255.915 226.41 256.023 226.453 256.102 226.53C256.181 226.608 256.225 226.713 256.225 226.822C256.225 226.932 256.181 227.037 256.102 227.114C256.023 227.191 255.915 227.235 255.804 227.235Z" fill="#3A5769"/>
<path d="M248.131 187.728C248.068 187.773 247.987 187.827 247.937 187.873C248.139 187.604 248.237 187.62 248.131 187.728Z" fill="#BFECFF"/>
<path d="M260.065 183.49C258.913 185.089 257.633 186.595 256.237 187.995C254.921 189.327 253.513 190.567 252.021 191.708C250.473 192.933 248.828 194.037 247.101 195.008C244.167 196.617 240.991 197.76 237.692 198.395C237.447 198.441 237.198 198.486 236.95 198.523C236.389 198.61 235.824 198.68 235.263 198.738C234.483 198.814 233.699 198.851 232.915 198.849C233.336 196.923 233.988 195.052 234.859 193.276H234.901H235.187C235.251 193.258 235.316 193.246 235.381 193.239L235.702 193.181C236.17 193.102 236.629 193.016 237.089 192.913C237.346 192.855 237.603 192.797 237.86 192.731C239.119 192.414 240.355 192.013 241.558 191.531L241.667 191.489C241.92 191.374 242.026 191.329 242.055 191.32L242.009 191.345L242.43 191.168C242.755 191.019 243.075 190.871 243.391 190.714C244.02 190.4 244.656 190.066 245.238 189.707C245.984 189.258 246.705 188.767 247.413 188.263L247.928 187.884L248.046 187.801L248.122 187.74L248.185 187.698C248.526 187.434 248.864 187.162 249.197 186.873C250.513 185.793 251.755 184.628 252.915 183.387C253.408 182.868 253.897 182.319 254.353 181.766C256.344 182.015 258.277 182.599 260.065 183.49Z" fill="#BFECFF"/>
<path d="M269.472 193.181C268.322 194.902 267.039 196.535 265.636 198.066C264.242 199.627 262.72 201.076 261.087 202.397C257.339 205.382 253.146 207.787 248.654 209.53C245.351 210.828 241.898 211.729 238.372 212.211C237.638 212.315 236.905 212.401 236.167 212.471H236.053C235.252 212.546 234.446 212.574 233.642 212.554C233.038 210.749 232.641 208.884 232.457 206.993V206.968H232.541H232.664C233.349 207.027 234.038 207.045 234.725 207.022L235.252 206.997C235.674 206.972 236.095 206.939 236.492 206.894L236.968 206.865H236.998C238.919 206.598 240.821 206.212 242.693 205.71C243.722 205.425 244.742 205.104 245.745 204.741C246.272 204.551 246.799 204.353 247.322 204.142C247.386 204.11 247.452 204.083 247.52 204.06H247.495H247.52L248.208 203.759C250.149 202.892 252.027 201.899 253.831 200.784C254.675 200.265 255.518 199.704 256.298 199.134L256.416 199.043L256.559 198.94C256.736 198.8 256.909 198.664 257.082 198.528C257.466 198.223 257.837 197.909 258.208 197.587C259.678 196.299 261.049 194.907 262.31 193.421C262.474 193.227 262.638 193.008 262.803 192.827C262.837 192.781 262.874 192.74 262.912 192.695C262.925 192.676 262.939 192.658 262.955 192.641L263.009 192.571C263.267 192.237 263.524 191.894 263.772 191.548C264.265 190.884 264.723 190.195 265.143 189.485C265.417 189.007 265.686 188.532 265.935 188.045C267.349 189.591 268.539 191.319 269.472 193.181Z" fill="#BFECFF"/>
<path d="M271.074 197.333C270.938 197.994 270.765 198.648 270.556 199.292C270.425 199.684 270.286 200.072 270.134 200.455C270.136 200.446 270.136 200.436 270.134 200.426C270.069 200.542 270.021 200.665 269.991 200.794L270.016 200.744C270.016 200.781 269.982 200.823 269.97 200.86C269.957 200.897 269.97 200.814 269.97 200.794C269.89 200.971 269.805 201.153 269.721 201.33C269.306 202.178 268.846 203.004 268.342 203.805C267.832 204.61 267.276 205.385 266.698 206.144L266.521 206.359L266.1 206.854C265.767 207.241 265.425 207.621 265.075 207.996C263.821 209.336 262.462 210.577 261.011 211.709L260.998 211.746L260.956 211.779L260.918 211.812L260.851 211.866H260.817L260.328 212.221C259.94 212.489 259.552 212.753 259.156 213.005C258.417 213.483 257.671 213.918 256.917 214.308C256.285 214.63 255.644 214.932 254.995 215.216L254.498 215.43L254.27 215.529L254.595 215.393C254.223 215.572 253.838 215.723 253.444 215.847C251.819 216.465 250.163 217.001 248.482 217.452C247.605 217.688 246.723 217.897 245.838 218.079C245.442 218.157 245.041 218.235 244.645 218.301C244.398 218.348 244.149 218.389 243.899 218.425L243.477 218.475H243.549H243.427H243.368C241.677 218.667 239.972 218.703 238.275 218.582L237.879 218.537H237.946C237.874 218.537 237.803 218.537 237.735 218.512H237.874C237.68 218.479 237.482 218.446 237.293 218.405C237.002 218.343 236.707 218.273 236.42 218.194C237.935 220.527 239.908 222.542 242.225 224.122H242.343C246.278 223.774 250.148 222.919 253.853 221.577C257.17 220.409 260.404 218.961 263.267 216.928C266.486 214.662 269.329 211.925 271.698 208.813C271.947 207.36 272.071 205.889 272.069 204.416C272.068 202.021 271.734 199.638 271.074 197.333ZM270.071 200.633L270.025 200.728C270.025 200.678 270.067 200.633 270.084 200.587L270.113 200.513C270.102 200.546 270.087 200.577 270.071 200.608V200.633Z" fill="#BFECFF"/>
<path d="M235.937 208.775C235.667 208.775 235.406 208.68 235.201 208.507C234.997 208.335 234.863 208.096 234.824 207.835C234.653 206.702 234.567 205.559 234.566 204.415C234.566 196.766 238.31 189.894 244.33 186.482C244.459 186.409 244.6 186.362 244.747 186.343C244.894 186.324 245.043 186.333 245.186 186.371C245.329 186.408 245.463 186.473 245.581 186.561C245.698 186.649 245.797 186.759 245.871 186.884C245.945 187.01 245.994 187.148 246.013 187.292C246.033 187.435 246.023 187.581 245.985 187.721C245.947 187.861 245.881 187.993 245.791 188.108C245.701 188.223 245.588 188.319 245.46 188.392C240.136 191.412 236.826 197.55 236.826 204.415C236.826 205.451 236.902 206.487 237.054 207.513C237.095 207.8 237.018 208.091 236.84 208.323C236.663 208.555 236.398 208.708 236.105 208.75C236.05 208.763 235.993 208.771 235.937 208.775Z" fill="white"/>
<path d="M238.582 216.214C238.385 216.214 238.191 216.164 238.019 216.069C237.848 215.973 237.704 215.836 237.604 215.67C236.874 214.443 236.271 213.148 235.804 211.804C235.707 211.527 235.727 211.224 235.858 210.962C235.99 210.699 236.223 210.498 236.506 210.404C236.789 210.309 237.098 210.328 237.367 210.457C237.635 210.586 237.84 210.814 237.937 211.09C238.357 212.294 238.898 213.453 239.552 214.552C239.626 214.678 239.674 214.817 239.693 214.962C239.713 215.107 239.702 215.254 239.663 215.394C239.624 215.535 239.557 215.667 239.465 215.782C239.374 215.897 239.26 215.994 239.13 216.066C238.964 216.161 238.775 216.212 238.582 216.214Z" fill="white"/>
</g>
<g clip-path="url(#clip18_2544_18812)">
<path d="M42.4911 226.069C41.8292 232.319 44.443 238.16 44.9405 244.307C45.1957 247.149 44.8085 250.011 43.8064 252.69C43.5243 253.602 43.0679 254.453 42.4616 255.198C42.3448 255.366 42.1858 255.503 41.9998 255.594C41.8137 255.685 41.6069 255.727 41.3992 255.718C40.9776 255.627 40.7415 255.157 40.6066 254.794C40.2988 253.969 40.185 252.9 40.7204 252.149C41.2558 251.399 41.8714 251.407 42.567 251.832C43.9498 252.657 45.0375 254.389 45.5181 255.879C46.4919 258.878 45.5181 261.778 44.0299 264.439C42.5754 267.029 40.7415 269.389 39.3924 272.058C38.3427 274.121 37.4742 276.447 37.4531 278.786C37.4531 280.461 37.8157 282.536 39.3756 283.502C39.7624 283.726 40.1936 283.866 40.6403 283.914C41.0872 283.976 41.2769 283.312 40.83 283.25C38.5956 282.949 38.1319 280.441 38.1783 278.605C38.2457 275.907 39.443 273.271 40.7921 270.965C43.5535 266.184 48.6041 260.751 45.9017 254.876C45.5069 254.03 44.9978 253.239 44.3882 252.525C43.8543 251.804 43.1238 251.245 42.2803 250.912C41.9178 250.798 41.5276 250.799 41.1661 250.917C40.8047 251.034 40.4906 251.26 40.2693 251.564C39.9912 251.945 39.7999 252.38 39.7082 252.84C39.6166 253.299 39.6268 253.773 39.7381 254.229C39.8772 255.054 40.2862 256.13 41.2137 256.361C42.1412 256.592 42.9253 255.817 43.3975 255.124C43.9018 254.314 44.3065 253.448 44.6032 252.545C45.1317 251.133 45.4746 249.661 45.6235 248.164C46.2938 241.502 43.1656 235.24 43.094 228.635C43.084 227.775 43.1248 226.916 43.2162 226.061C43.2626 225.62 42.5585 225.624 42.5122 226.061L42.4911 226.069Z" fill="#3A5769"/>
<path d="M52.1795 229.728C52.8203 230.458 53.4864 231.923 51.9308 233.565C50.3751 235.207 47.8835 234.175 47.8835 234.175C47.5276 234.973 46.9361 235.649 46.1849 236.116C45.4337 236.583 44.5571 236.819 43.6677 236.795C42.7783 236.819 41.9019 236.582 41.1509 236.115C40.3998 235.648 39.8082 234.973 39.4518 234.175C39.4518 234.175 36.9644 235.211 35.4088 233.565C33.8531 231.919 34.5192 230.458 35.1558 229.728C36.1887 228.553 40.0757 225.834 40.0757 225.834H47.2596C47.2596 225.834 51.1508 228.548 52.1795 229.728Z" fill="#3FC6FF"/>
<path d="M63.5107 203.421C63.5122 204.894 63.3881 206.365 63.1397 207.818C61.3564 218.297 53.2999 226.205 43.6497 226.205C40.0857 226.191 36.6101 225.118 33.6834 223.127C31.3619 221.559 29.3816 219.555 27.8571 217.232C26.6891 215.473 25.7621 213.572 25.0999 211.576C24.4952 209.766 24.0979 207.895 23.9153 205.999V205.974C23.8352 205.149 23.793 204.283 23.793 203.421C23.7892 201.552 23.9885 199.688 24.3875 197.86C24.8039 195.933 25.452 194.06 26.3183 192.282C29.7247 185.331 36.2087 180.637 43.6497 180.637C44.3729 180.636 45.0953 180.682 45.8125 180.773C47.8038 181.022 49.7363 181.605 51.525 182.497C53.768 183.631 55.7709 185.171 57.4272 187.035C58.83 188.588 60.0088 190.322 60.9306 192.188C61.59 193.513 62.1262 194.894 62.5326 196.313C63.1886 198.627 63.5177 201.019 63.5107 203.421Z" fill="#3FC6FF"/>
<path d="M47.2625 226.241H40.0407C39.9289 226.241 39.8217 226.198 39.7426 226.12C39.6636 226.043 39.6191 225.938 39.6191 225.829C39.6191 225.719 39.6636 225.614 39.7426 225.537C39.8217 225.459 39.9289 225.416 40.0407 225.416H47.2625C47.3743 225.416 47.4815 225.459 47.5606 225.537C47.6397 225.614 47.6841 225.719 47.6841 225.829C47.6841 225.938 47.6397 226.043 47.5606 226.12C47.4815 226.198 47.3743 226.241 47.2625 226.241Z" fill="#3A5769"/>
<path d="M39.59 186.734C39.5266 186.779 39.4462 186.833 39.3955 186.878C39.5985 186.61 39.6957 186.626 39.59 186.734Z" fill="#BFECFF"/>
<path d="M51.5252 182.497C50.3726 184.095 49.0926 185.601 47.6972 187.002C46.3812 188.333 44.9725 189.574 43.4813 190.714C41.9329 191.94 40.2878 193.043 38.5614 194.015C35.6273 195.623 32.4513 196.766 29.1516 197.402C28.9071 197.447 28.6583 197.492 28.4096 197.529C27.8489 197.616 27.2839 197.686 26.7232 197.744C25.9429 197.82 25.1592 197.857 24.375 197.855C24.7958 195.929 25.4481 194.058 26.3185 192.282H26.3607H26.6474C26.7108 192.264 26.7757 192.252 26.8413 192.245L27.1617 192.187C27.6296 192.109 28.0892 192.022 28.5487 191.919C28.8059 191.861 29.063 191.804 29.3202 191.738C30.5792 191.42 31.8145 191.019 33.0175 190.537L33.1271 190.496C33.3801 190.38 33.4855 190.335 33.515 190.327L33.4686 190.351L33.8902 190.174C34.2148 190.026 34.5352 189.877 34.8514 189.72C35.4796 189.407 36.1162 189.073 36.698 188.714C37.4442 188.264 38.1651 187.773 38.8734 187.27L39.3877 186.89L39.5057 186.808L39.5816 186.746L39.6449 186.705C39.9864 186.441 40.3236 186.168 40.6567 185.88C41.9732 184.799 43.2153 183.634 44.3751 182.394C44.8683 181.874 45.3574 181.325 45.8127 180.772C47.804 181.022 49.7365 181.605 51.5252 182.497Z" fill="#BFECFF"/>
<path d="M60.9303 192.188C59.7798 193.909 58.4973 195.541 57.0939 197.072C55.6996 198.634 54.1783 200.082 52.545 201.404C48.7971 204.388 44.6043 206.794 40.1124 208.536C36.8087 209.835 33.3558 210.735 29.8299 211.218C29.0963 211.321 28.3628 211.408 27.625 211.478H27.5112C26.7098 211.553 25.9045 211.58 25.0997 211.56C24.4962 209.755 24.0989 207.89 23.915 205.999V205.975H23.9994H24.1216C24.807 206.034 25.4955 206.052 26.1832 206.028L26.7102 206.003C27.1317 205.979 27.5533 205.946 27.9496 205.9L28.426 205.871H28.4555C30.3771 205.604 32.2794 205.219 34.1512 204.716C35.1798 204.432 36.2001 204.11 37.2034 203.747C37.7304 203.557 38.2574 203.359 38.7802 203.149C38.8442 203.117 38.9104 203.089 38.9783 203.066H38.953H38.9783L39.6655 202.765C41.6065 201.899 43.4855 200.905 45.2895 199.791C46.1326 199.271 46.9758 198.71 47.7558 198.141L47.8738 198.05L48.0171 197.947C48.1942 197.806 48.3671 197.67 48.5399 197.534C48.9236 197.229 49.2945 196.915 49.6655 196.594C51.1362 195.306 52.5073 193.913 53.7676 192.427C53.932 192.233 54.0964 192.014 54.2608 191.833C54.2946 191.788 54.3325 191.746 54.3704 191.701C54.3832 191.682 54.3972 191.664 54.4126 191.647L54.4674 191.577C54.7246 191.243 54.9817 190.901 55.2305 190.554C55.7232 189.89 56.1805 189.202 56.6006 188.491C56.8747 188.013 57.1445 187.539 57.3932 187.052C58.8066 188.598 59.9967 190.326 60.9303 192.188Z" fill="#BFECFF"/>
<path d="M62.5333 196.337C62.3967 196.999 62.2236 197.653 62.0148 198.296C61.8841 198.688 61.745 199.076 61.5932 199.46C61.5949 199.45 61.5949 199.44 61.5932 199.431C61.5284 199.546 61.4801 199.67 61.4498 199.798L61.4751 199.749C61.4751 199.786 61.4414 199.827 61.4288 199.864C61.4161 199.901 61.4288 199.819 61.4288 199.798C61.3487 199.975 61.2643 200.157 61.18 200.334C60.7648 201.182 60.3046 202.008 59.8014 202.81C59.2913 203.614 58.7348 204.389 58.1573 205.149L57.9802 205.363L57.5586 205.858C57.2255 206.246 56.8841 206.625 56.5341 207.001C55.2802 208.34 53.9214 209.581 52.47 210.714L52.4574 210.751L52.4152 210.784L52.3773 210.817L52.3098 210.87H52.2761L51.7871 211.225C51.3992 211.493 51.0114 211.757 50.6151 212.009C49.8759 212.487 49.1297 212.922 48.3764 213.313C47.7441 213.634 47.1033 213.937 46.454 214.22L45.9565 214.435L45.7289 214.534L46.0535 214.397C45.6816 214.576 45.297 214.728 44.9026 214.851C43.2779 215.469 41.6217 216.005 39.9405 216.456C39.0636 216.693 38.1825 216.902 37.2971 217.083C36.9009 217.161 36.5003 217.24 36.1041 217.306C35.8567 217.353 35.608 217.394 35.3579 217.43L34.9363 217.479H35.0079H34.8857H34.8267C33.1363 217.672 31.4311 217.707 29.7339 217.586L29.3376 217.541H29.405C29.3334 217.541 29.2617 217.541 29.1943 217.516H29.3334C29.1394 217.483 28.9413 217.45 28.7516 217.409C28.4607 217.347 28.1656 217.277 27.8789 217.199C29.3937 219.531 31.3669 221.546 33.6842 223.127H33.8022C37.7366 222.779 41.6066 221.923 45.3115 220.581C48.6294 219.414 51.863 217.966 54.7255 215.932C57.9446 213.666 60.7885 210.929 63.1573 207.818C63.4056 206.364 63.5297 204.893 63.5283 203.42C63.5275 201.026 63.1927 198.643 62.5333 196.337ZM61.5299 199.637L61.4836 199.732C61.4836 199.683 61.5257 199.637 61.5426 199.592L61.5721 199.518C61.5605 199.55 61.5464 199.582 61.5299 199.612V199.637Z" fill="#BFECFF"/>
<path d="M27.3946 207.781C27.1246 207.781 26.8637 207.686 26.6594 207.514C26.4551 207.341 26.321 207.102 26.2816 206.841C26.1112 205.709 26.0252 204.566 26.0244 203.421C26.0244 195.773 29.7681 188.9 35.7884 185.488C35.9165 185.416 36.058 185.369 36.2049 185.349C36.3517 185.33 36.5009 185.34 36.6439 185.377C36.787 185.414 36.9212 185.479 37.0388 185.567C37.1564 185.655 37.2551 185.765 37.3293 185.891C37.4034 186.016 37.4517 186.154 37.4712 186.298C37.4906 186.442 37.481 186.588 37.4429 186.728C37.4047 186.868 37.3387 186.999 37.2487 187.114C37.1587 187.229 37.0464 187.326 36.9182 187.398C31.5936 190.418 28.2841 196.556 28.2841 203.421C28.2837 204.458 28.3597 205.493 28.5118 206.519C28.5527 206.806 28.476 207.097 28.2983 207.329C28.1205 207.561 27.8563 207.715 27.5632 207.757C27.5077 207.769 27.4513 207.777 27.3946 207.781Z" fill="white"/>
<path d="M30.041 215.218C29.8437 215.219 29.6496 215.169 29.4781 215.073C29.3066 214.978 29.1635 214.84 29.0629 214.674C28.3328 213.447 27.7297 212.152 27.2628 210.808C27.166 210.532 27.1857 210.229 27.3173 209.966C27.4489 209.703 27.6818 209.503 27.9647 209.408C28.2476 209.313 28.5573 209.333 28.8257 209.461C29.0941 209.59 29.2993 209.818 29.396 210.095C29.8159 211.298 30.3568 212.457 31.0107 213.556C31.0851 213.682 31.1333 213.822 31.1524 213.966C31.1715 214.111 31.1611 214.258 31.122 214.399C31.0828 214.54 31.0155 214.671 30.9241 214.786C30.8326 214.902 30.7188 214.998 30.5891 215.07C30.4228 215.165 30.2338 215.217 30.041 215.218Z" fill="white"/>
</g>
<defs>
<clipPath id="clip0_2544_18812">
<rect width="25.8192" height="69.5133" fill="white" transform="translate(314.776 93.0205)"/>
</clipPath>
<clipPath id="clip1_2544_18812">
<rect width="34.7566" height="17.8748" fill="white" transform="translate(254.512 95.4536)"/>
</clipPath>
<clipPath id="clip2_2544_18812">
<rect width="15.8888" height="18.8679" fill="white" transform="translate(93 80)"/>
</clipPath>
<clipPath id="clip3_2544_18812">
<rect width="5.95828" height="6.95133" fill="white" transform="translate(162.34 76.251)"/>
</clipPath>
<clipPath id="clip4_2544_18812">
<rect width="5.95828" height="6.95133" fill="white" transform="translate(271.061 241.212)"/>
</clipPath>
<clipPath id="clip5_2544_18812">
<rect width="60.5759" height="114.2" fill="white" transform="translate(143.019 126.02)"/>
</clipPath>
<clipPath id="clip6_2544_18812">
<rect width="36.7427" height="35.7497" fill="white" transform="translate(286.849 210.243) rotate(-112.065)"/>
</clipPath>
<clipPath id="clip7_2544_18812">
<rect width="3.97219" height="3.97219" fill="white" transform="translate(235.581 128.337)"/>
</clipPath>
<clipPath id="clip8_2544_18812">
<rect width="3.97219" height="3.97219" fill="white" transform="translate(133.026 122.048)"/>
</clipPath>
<clipPath id="clip9_2544_18812">
<rect width="3.97219" height="3.97219" fill="white" transform="translate(321.705 83.3179)"/>
</clipPath>
<clipPath id="clip10_2544_18812">
<rect width="3.97219" height="3.97219" fill="white" transform="translate(292.907 241.212)"/>
</clipPath>
<clipPath id="clip11_2544_18812">
<rect width="3.97219" height="3.97219" fill="white" transform="translate(177.713 131.979)"/>
</clipPath>
<clipPath id="clip12_2544_18812">
<rect width="11.9166" height="11.9166" fill="white" transform="translate(207.786 90.3325)"/>
</clipPath>
<clipPath id="clip13_2544_18812">
<rect width="11.9166" height="11.9166" fill="white" transform="translate(149.906 105.165)"/>
</clipPath>
<clipPath id="clip14_2544_18812">
<rect width="11.9166" height="11.9166" fill="white" transform="translate(70.4639 248.165)"/>
</clipPath>
<clipPath id="clip15_2544_18812">
<rect width="39.7219" height="107.249" fill="white" transform="translate(87.3467 144.888)"/>
</clipPath>
<clipPath id="clip16_2544_18812">
<rect width="33.7636" height="89.3742" fill="white" transform="translate(311.775 216.387)"/>
</clipPath>
<clipPath id="clip17_2544_18812">
<rect width="39.7219" height="103.277" fill="white" transform="translate(232.329 181.63)"/>
</clipPath>
<clipPath id="clip18_2544_18812">
<rect width="39.7219" height="103.277" fill="white" transform="translate(23.79 180.637)"/>
</clipPath>
</defs>
</svg>
