<svg width="302" height="321" viewBox="0 0 302 321" fill="none" xmlns="http://www.w3.org/2000/svg">
<g clip-path="url(#clip0_2128_3836)">
<path d="M281.911 251.076H142.718C132.032 251.076 123.369 257.012 123.369 264.334V301.887C123.369 309.209 132.032 315.144 142.718 315.144H281.911C292.597 315.144 301.26 309.209 301.26 301.887V264.334C301.26 257.012 292.597 251.076 281.911 251.076Z" fill="#FFE9E0"/>
<path d="M140.759 192.465C136.464 194.212 119.194 198.161 115.807 198.658C96.7807 201.475 76.7772 200.448 58.8547 193.036C-3.83145 167.113 -19.3066 80.1051 29.7307 34.1024C73.6397 -7.08819 144.868 2.74229 179.815 49.8619C210.437 91.1531 200.265 140.628 166.682 176.795C182.396 212.052 195.8 246.53 195.8 246.53C195.8 246.53 140.854 192.422 140.759 192.465Z" fill="#FF9565"/>
<path d="M147.04 184.275C141.269 186.085 125.476 189.971 122.089 190.468C103.062 193.284 83.0584 192.257 65.136 184.846C2.4498 158.923 -13.0253 71.9148 36.012 25.9228C79.921 -15.2626 151.149 -5.43208 186.097 41.6822C216.718 82.9734 206.546 132.454 172.963 168.621C188.677 203.872 199.629 246.545 199.629 246.545C199.629 246.545 147.141 184.243 147.04 184.275Z" fill="#FFE0D2"/>
<path d="M92.2137 56.1764C92.7127 54.1965 93.7426 52.8166 95.3034 52.0367C96.7512 51.2818 98.401 51.0021 100.018 51.2373C101.621 51.4907 103.098 52.2561 104.227 53.4184C104.83 54.0295 105.294 54.7628 105.587 55.5684C105.88 56.3741 105.996 57.2332 105.926 58.0875C105.647 60.7767 105.399 63.4482 105.183 66.1022C104.967 68.7561 104.755 71.4294 104.546 74.1222C104.192 78.8654 103.889 83.6068 103.638 88.3465C103.387 93.0861 103.192 97.7941 103.054 102.47C102.7 111.957 102.594 121.441 102.736 130.924C102.736 133.116 101.991 134.78 100.501 135.916C99.0972 137.015 97.3833 137.646 95.6007 137.721C93.8297 137.791 92.0919 137.228 90.7007 136.133C89.2142 135 88.4692 133.266 88.4657 130.929C88.3206 126.472 88.2852 122.048 88.3595 117.658C88.4338 113.268 88.54 108.809 88.678 104.281C84.7849 104.281 80.8104 104.422 76.7545 104.704C72.6986 104.986 68.1914 105.339 63.233 105.763C63.3887 109.998 63.5657 114.155 63.7639 118.235C63.9621 122.315 64.139 126.438 64.2948 130.606C64.4399 132.798 63.7957 134.48 62.3624 135.651C61.006 136.789 59.3078 137.443 57.5367 137.509C55.7301 137.573 53.9545 137.03 52.4933 135.969C50.9219 134.868 50.0654 133.08 49.9239 130.606C49.7788 128.058 49.6531 125.51 49.547 122.962C49.4408 120.414 49.3523 117.866 49.2815 115.318C48.9984 106.4 48.786 97.4005 48.6445 88.32C48.5029 83.7956 48.4144 79.2836 48.379 74.7839C48.3436 70.2842 48.3613 65.7369 48.4321 61.1419C48.4321 58.9468 49.1771 57.2652 50.6671 56.097C52.066 54.9606 53.8159 54.3416 55.6202 54.3448C57.4058 54.3382 59.1442 54.9166 60.568 55.9911C62.0615 57.0887 62.8083 58.8056 62.8083 61.1419V76.4303C62.8083 78.9007 62.826 81.4134 62.8614 83.9686C62.8968 86.5237 62.9145 89.0364 62.9145 91.5068C63.6949 91.438 64.454 91.3851 65.2026 91.348C65.9355 91.314 66.6648 91.2255 67.3845 91.0833C71.0759 90.7304 74.7495 90.4816 78.4055 90.3369C82.0615 90.1922 85.6998 90.0864 89.3204 90.0193C89.4584 87.6159 89.6018 84.8156 89.7451 81.634C89.8884 78.4525 90.0477 75.2815 90.2229 72.1317C90.3981 68.982 90.6476 65.991 90.9714 63.1324C91.217 60.7869 91.6322 58.4622 92.2137 56.1764Z" fill="#E46125"/>
<path d="M110.638 88.7748C110.721 87.8489 111.037 86.9588 111.558 86.1878C112.079 85.4167 112.787 84.7896 113.616 84.3651C115.229 83.4994 117.069 83.1483 118.888 83.3593C120.641 83.5432 122.269 84.3537 123.469 85.6409C124.712 86.9485 125.062 88.8172 124.584 91.2152C123.566 96.8835 122.908 102.61 122.615 108.362C122.294 114.256 122.418 120.167 122.986 126.043C123.153 127.264 122.93 128.507 122.349 129.595C121.809 130.595 120.998 131.424 120.008 131.988C118.98 132.563 117.831 132.89 116.653 132.941C115.452 133.018 114.25 132.819 113.139 132.358C112.005 131.873 111.016 131.106 110.267 130.13C109.384 128.935 108.85 127.521 108.722 126.043C108.223 120.092 108.116 114.115 108.403 108.15C108.743 101.651 109.489 95.1805 110.638 88.7748ZM119.132 76.7739C116.86 76.848 115.122 76.1934 113.919 74.8099C112.756 73.5434 112.078 71.9092 112.002 70.1938C111.943 68.4665 112.508 66.7754 113.595 65.4294C114.731 63.9436 116.501 63.0949 118.904 62.8831C121.463 62.6714 123.326 63.2731 124.494 64.6883C125.633 66.0116 126.241 67.709 126.198 69.4527C126.147 71.2603 125.491 72.999 124.335 74.3917C123.153 75.9128 121.419 76.7069 119.132 76.7739Z" fill="#E46125"/>
<path d="M159.845 86.3467C157.806 92.5298 155.72 98.697 153.745 104.901C152.874 107.649 151.16 108.962 148.277 108.697C145.623 108.453 144.391 106.664 144.062 104.287C141.938 89.0254 139.985 73.7476 141.758 58.2899C141.864 57.3688 142.044 56.453 142.193 55.5424C142.968 51.6674 143.876 47.8348 146.127 44.4838C148.25 41.3076 151.207 39.7194 155.035 40.0953C158.863 40.4712 161.448 42.6363 162.802 46.2043C165.026 52.0274 164.517 58.1099 163.991 64.1342C163.333 71.6619 161.071 78.9143 159.845 86.3467Z" fill="#E46125"/>
<path d="M147.408 126.592C146.504 126.607 145.607 126.438 144.771 126.096C143.935 125.753 143.178 125.244 142.546 124.6C141.914 123.956 141.421 123.19 141.095 122.349C140.77 121.509 140.621 120.61 140.655 119.71C140.724 115.777 143.623 113.05 147.658 113.125C148.532 113.144 149.393 113.337 150.191 113.693C150.989 114.048 151.709 114.559 152.307 115.195C152.905 115.83 153.37 116.579 153.674 117.396C153.979 118.213 154.117 119.082 154.081 119.953C154.071 121.714 153.365 123.399 152.115 124.642C150.865 125.886 149.173 126.586 147.408 126.592Z" fill="#E46125"/>
<path d="M158.565 281.898C159.054 281.86 159.544 281.941 159.995 282.134C160.445 282.326 160.842 282.625 161.151 283.004C161.698 283.693 161.995 284.545 161.995 285.423C161.995 286.302 161.698 287.154 161.151 287.843C160.842 288.222 160.445 288.52 159.995 288.713C159.544 288.906 159.054 288.987 158.565 288.949C158.097 288.979 157.628 288.902 157.194 288.724C156.76 288.546 156.372 288.272 156.06 287.922C155.497 287.291 155.179 286.48 155.163 285.635C155.15 284.77 155.428 283.926 155.954 283.237C156.268 282.841 156.663 282.516 157.114 282.285C157.564 282.054 158.059 281.922 158.565 281.898Z" fill="#E46125"/>
<path d="M169.176 281.897C169.664 281.86 170.155 281.941 170.605 282.134C171.055 282.327 171.452 282.625 171.761 283.004C172.308 283.692 172.606 284.545 172.606 285.423C172.606 286.301 172.308 287.154 171.761 287.842C171.452 288.221 171.055 288.519 170.605 288.712C170.155 288.905 169.664 288.986 169.176 288.949C168.707 288.979 168.237 288.902 167.802 288.724C167.367 288.546 166.978 288.272 166.665 287.922C166.106 287.288 165.789 286.478 165.768 285.635C165.76 284.771 166.038 283.928 166.559 283.237C166.874 282.84 167.27 282.515 167.722 282.284C168.173 282.053 168.669 281.921 169.176 281.897Z" fill="#E46125"/>
<path d="M179.78 281.897C180.269 281.86 180.76 281.941 181.211 282.134C181.663 282.327 182.06 282.625 182.371 283.004C182.918 283.692 183.215 284.545 183.215 285.423C183.215 286.301 182.918 287.154 182.371 287.842C182.06 288.221 181.663 288.519 181.211 288.712C180.76 288.905 180.269 288.986 179.78 288.949C179.312 288.979 178.843 288.902 178.408 288.724C177.974 288.546 177.586 288.271 177.274 287.922C176.714 287.289 176.396 286.479 176.377 285.635C176.367 284.77 176.645 283.926 177.168 283.237C177.482 282.84 177.878 282.516 178.329 282.285C178.779 282.054 179.274 281.922 179.78 281.897Z" fill="#E46125"/>
<path d="M190.395 281.899C190.879 281.855 191.367 281.929 191.817 282.113C192.267 282.298 192.666 282.587 192.98 282.958C193.527 283.646 193.825 284.499 193.825 285.377C193.825 286.255 193.527 287.108 192.98 287.796C192.671 288.175 192.274 288.474 191.824 288.666C191.374 288.859 190.883 288.94 190.395 288.902C189.926 288.933 189.457 288.857 189.023 288.679C188.588 288.501 188.2 288.226 187.889 287.875C187.327 287.243 187.007 286.433 186.987 285.589C186.978 284.723 187.258 283.88 187.783 283.19C188.101 282.802 188.498 282.486 188.949 282.263C189.399 282.04 189.892 281.916 190.395 281.899Z" fill="#E46125"/>
<path d="M201.003 281.898C201.492 281.86 201.983 281.941 202.434 282.134C202.886 282.326 203.283 282.625 203.594 283.004C204.14 283.693 204.438 284.545 204.438 285.423C204.438 286.302 204.14 287.154 203.594 287.843C203.283 288.222 202.886 288.52 202.434 288.713C201.983 288.906 201.492 288.987 201.003 288.949C200.534 288.978 200.065 288.901 199.631 288.723C199.197 288.545 198.809 288.271 198.497 287.922C197.929 287.281 197.611 286.458 197.6 285.603C197.589 284.739 197.868 283.895 198.391 283.205C198.708 282.815 199.105 282.496 199.556 282.271C200.006 282.045 200.499 281.918 201.003 281.898Z" fill="#E46125"/>
<path d="M211.616 281.898C212.105 281.86 212.595 281.941 213.045 282.134C213.496 282.326 213.892 282.625 214.202 283.004C214.749 283.693 215.046 284.545 215.046 285.423C215.046 286.302 214.749 287.154 214.202 287.843C213.892 288.222 213.496 288.52 213.045 288.713C212.595 288.906 212.105 288.987 211.616 288.949C211.148 288.979 210.679 288.902 210.244 288.724C209.81 288.546 209.423 288.272 209.111 287.922C208.548 287.291 208.229 286.48 208.213 285.635C208.2 284.77 208.479 283.926 209.004 283.237C209.318 282.841 209.714 282.516 210.165 282.285C210.615 282.054 211.11 281.922 211.616 281.898Z" fill="#E46125"/>
<path d="M222.227 281.898C222.715 281.86 223.206 281.941 223.656 282.134C224.106 282.326 224.503 282.625 224.812 283.004C225.359 283.693 225.657 284.545 225.657 285.423C225.657 286.302 225.359 287.154 224.812 287.843C224.503 288.222 224.106 288.52 223.656 288.713C223.206 288.906 222.715 288.987 222.227 288.949C221.758 288.979 221.288 288.902 220.853 288.724C220.418 288.546 220.029 288.272 219.716 287.922C219.157 287.288 218.84 286.479 218.819 285.635C218.81 284.77 219.09 283.926 219.615 283.237C219.928 282.84 220.324 282.515 220.775 282.284C221.225 282.053 221.721 281.921 222.227 281.898Z" fill="#E46125"/>
<path d="M232.833 281.897C233.322 281.86 233.813 281.941 234.264 282.134C234.715 282.327 235.113 282.625 235.424 283.004C235.97 283.692 236.268 284.545 236.268 285.423C236.268 286.301 235.97 287.154 235.424 287.842C235.113 288.221 234.715 288.519 234.264 288.712C233.813 288.905 233.322 288.986 232.833 288.949C232.364 288.979 231.895 288.902 231.461 288.724C231.027 288.546 230.639 288.271 230.327 287.922C229.767 287.289 229.449 286.479 229.43 285.635C229.419 284.77 229.698 283.926 230.221 283.237C230.535 282.84 230.931 282.516 231.381 282.285C231.832 282.054 232.327 281.922 232.833 281.897Z" fill="#E46125"/>
<path d="M243.444 281.898C243.933 281.86 244.423 281.941 244.874 282.134C245.324 282.326 245.721 282.625 246.03 283.004C246.577 283.693 246.874 284.545 246.874 285.423C246.874 286.302 246.577 287.154 246.03 287.843C245.721 288.222 245.324 288.52 244.874 288.713C244.423 288.906 243.933 288.987 243.444 288.949C242.976 288.98 242.506 288.903 242.072 288.725C241.638 288.547 241.25 288.272 240.939 287.922C240.376 287.291 240.057 286.48 240.041 285.635C240.028 284.77 240.307 283.926 240.832 283.237C241.146 282.84 241.541 282.515 241.992 282.284C242.443 282.053 242.938 281.921 243.444 281.898Z" fill="#E46125"/>
<path d="M254.052 281.898C254.541 281.86 255.032 281.941 255.483 282.134C255.934 282.326 256.332 282.625 256.642 283.004C257.189 283.693 257.487 284.545 257.487 285.423C257.487 286.302 257.189 287.154 256.642 287.843C256.332 288.222 255.934 288.52 255.483 288.713C255.032 288.906 254.541 288.987 254.052 288.949C253.583 288.978 253.114 288.901 252.68 288.723C252.246 288.545 251.858 288.271 251.546 287.922C250.985 287.289 250.667 286.479 250.649 285.635C250.638 284.77 250.916 283.927 251.44 283.237C251.754 282.841 252.15 282.516 252.6 282.285C253.051 282.054 253.546 281.922 254.052 281.898Z" fill="#E46125"/>
<path d="M264.661 281.899C265.146 281.855 265.634 281.929 266.084 282.113C266.534 282.298 266.932 282.587 267.247 282.958C267.796 283.645 268.095 284.498 268.095 285.377C268.095 286.256 267.796 287.109 267.247 287.796C266.937 288.175 266.541 288.474 266.09 288.666C265.64 288.859 265.15 288.94 264.661 288.902C264.193 288.932 263.724 288.855 263.289 288.677C262.855 288.499 262.467 288.225 262.155 287.875C261.592 287.244 261.274 286.433 261.258 285.589C261.245 284.723 261.524 283.879 262.049 283.19C262.368 282.803 262.766 282.487 263.216 282.265C263.666 282.042 264.159 281.917 264.661 281.899Z" fill="#E46125"/>
<path d="M275.276 281.898C275.764 281.86 276.255 281.941 276.705 282.134C277.155 282.326 277.552 282.625 277.861 283.004C278.408 283.693 278.705 284.545 278.705 285.423C278.705 286.302 278.408 287.154 277.861 287.843C277.552 288.222 277.155 288.52 276.705 288.713C276.255 288.906 275.764 288.987 275.276 288.949C274.806 288.979 274.336 288.902 273.901 288.724C273.466 288.546 273.078 288.272 272.765 287.922C272.199 287.28 271.881 286.458 271.867 285.603C271.859 284.738 272.139 283.895 272.664 283.205C272.98 282.814 273.377 282.495 273.828 282.269C274.278 282.044 274.772 281.917 275.276 281.898Z" fill="#E46125"/>
</g>
<defs>
<clipPath id="clip0_2128_3836">
<rect width="300.515" height="320.34" fill="white" transform="translate(0.742188)"/>
</clipPath>
</defs>
</svg>
