<svg width="305" height="222" viewBox="0 0 305 222" fill="none" xmlns="http://www.w3.org/2000/svg">
<rect width="11.0814" height="11.0814" rx="5.54068" transform="matrix(-0.967116 -0.254335 -0.254335 0.967116 60.5352 58.8184)" fill="#FFE9E0"/>
<rect width="8.61883" height="8.61883" rx="4.30941" transform="matrix(-0.967116 -0.254335 -0.254335 0.967116 65.5273 75.1924)" fill="#FFE9E0"/>
<rect width="6.81147" height="6.81147" rx="3.40574" transform="matrix(-0.967116 -0.254335 -0.254335 0.967116 69.8379 89.0254)" fill="#FFE9E0"/>
<rect width="112.045" height="52.9443" rx="14.7751" fill="#FFE9E0"/>
<path d="M22.7826 21.9303C23.4465 21.051 24.2243 20.2712 25.094 19.613C25.843 19.0169 26.7249 18.6269 27.6579 18.4793C28.5193 18.361 29.3931 18.5638 30.1239 19.0515C30.907 19.5554 31.579 20.496 32.14 21.8733C32.4352 22.6196 32.6785 23.3868 32.8681 24.1692C33.0742 25.001 33.2459 25.8329 33.3833 26.6647C33.5207 27.4966 33.6352 28.2963 33.7268 29.064C33.8104 29.8305 33.8802 30.5043 33.9363 31.0854C33.985 31.4397 33.9108 31.8005 33.7268 32.1032C33.5534 32.3696 33.3168 32.5851 33.0399 32.7289C32.7521 32.8759 32.4366 32.9551 32.116 32.9606C31.7967 32.9766 31.4783 32.9136 31.1869 32.777C30.9009 32.6358 30.6548 32.4202 30.4725 32.1514C30.2677 31.8396 30.1648 31.4678 30.1789 31.0908C30.1409 30.2539 30.052 29.4204 29.9127 28.5952C29.7736 27.7628 29.6002 26.9179 29.3975 26.0658C29.0609 24.6077 28.6768 23.6416 28.2452 23.1674C27.8136 22.6932 27.2984 22.7075 26.6997 23.2102C26.3344 23.5132 26.0093 23.865 25.7328 24.2565C25.4414 24.6686 25.1703 25.0958 24.9206 25.5364C24.6628 25.993 24.4289 26.4637 24.2199 26.9464C24.0053 27.4419 23.7872 27.9214 23.5622 28.3867C23.3372 28.8519 23.1329 29.3118 22.8907 29.7681C22.6508 30.2184 22.4463 30.6882 22.2794 31.1728C22.1245 31.6801 21.8108 32.1193 21.3881 32.4205C21.0191 32.689 20.5764 32.8265 20.1259 32.8127C19.6967 32.7942 19.2887 32.6135 18.9788 32.3047C18.6388 31.9814 18.4688 31.4799 18.4688 30.8002C18.4882 30.3546 18.5025 29.9083 18.5117 29.4615C18.5208 29.0147 18.5437 28.5691 18.5804 28.1246C18.6754 26.5346 18.783 24.9547 18.9032 23.3849C19.0234 21.8151 19.1774 20.2446 19.3652 18.6736C19.439 17.9945 19.688 17.5061 20.107 17.2048C20.4972 16.9137 20.9719 16.7702 21.4517 16.7984C21.9146 16.8201 22.3557 17.0093 22.6984 17.3332C22.8748 17.4994 23.0082 17.7088 23.0865 17.9424C23.1648 18.1759 23.1855 18.4261 23.1466 18.6701C23.0917 19.1347 23.0407 19.5905 22.9938 20.0373C22.9457 20.4829 22.8959 20.9285 22.8392 21.3742C22.8213 21.4651 22.8121 21.5577 22.8117 21.6505C22.8112 21.7445 22.8014 21.8383 22.7826 21.9303Z" fill="#FF9565"/>
<path d="M45.5631 18.5589C45.6807 18.324 45.8465 18.1187 46.0489 17.9576C46.2513 17.7965 46.4853 17.6835 46.7343 17.6267C47.1791 17.5257 47.6431 17.5712 48.0618 17.7568C48.464 17.9404 48.7992 18.2527 49.0183 18.6481C49.1332 18.8484 49.1996 19.0747 49.2118 19.3075C49.2241 19.5403 49.1819 19.7728 49.0887 19.985C48.9943 20.5857 48.917 21.1882 48.85 21.7889C48.783 22.3896 48.7229 22.9992 48.668 23.6195C48.4435 26.379 48.4716 29.1544 48.7521 31.9083C48.7829 32.264 48.7035 32.6206 48.5255 32.9261C48.3595 33.1948 48.1254 33.4106 47.8488 33.55C47.5588 33.6976 47.2411 33.7774 46.9181 33.7835C46.5973 33.7968 46.278 33.7321 45.9856 33.5946C45.6977 33.454 45.4498 33.2385 45.2661 32.9689C45.0576 32.6555 44.9533 32.28 44.969 31.8994C44.9316 31.6784 44.9087 31.4551 44.9003 31.231C44.89 30.9974 44.8762 30.7657 44.8573 30.5322C44.6398 30.7415 44.4054 30.9312 44.1567 31.099C43.9137 31.2649 43.6614 31.4155 43.4011 31.55C42.9395 31.7879 42.4563 31.9778 41.9586 32.1169C41.4513 32.2614 40.9287 32.3398 40.4027 32.3504C39.8808 32.3584 39.3604 32.2894 38.8572 32.1454C38.335 31.9963 37.8453 31.7446 37.4147 31.4039C36.9285 31.0561 36.5141 30.6113 36.1954 30.0955C35.868 29.5713 35.6092 29.0043 35.426 28.4092C35.2355 27.8046 35.1285 27.1751 35.1083 26.5393C35.0875 25.8894 35.1511 25.2394 35.2972 24.6071C35.5282 23.5827 35.921 22.6051 36.4598 21.714C36.9935 20.8137 37.6794 20.0208 38.4845 19.3735C39.2721 18.7364 40.1732 18.2669 41.136 17.9921C42.1344 17.7126 43.186 17.7095 44.1859 17.9832C44.6736 18.091 45.1396 18.2858 45.5631 18.5589ZM40.9917 28.5001C41.5135 28.3174 41.9877 28.0124 42.3776 27.6088C42.7674 27.201 43.1008 26.7391 43.3685 26.2363C43.649 25.7116 43.883 25.1615 44.0674 24.5928C44.2552 24.0212 44.4234 23.4639 44.5723 22.9208C43.7709 21.9903 42.9586 21.6219 42.1355 21.8156C41.3123 22.0093 40.567 22.5738 39.8996 23.509C39.5913 23.9608 39.3676 24.4688 39.2401 25.0063C39.0685 25.615 38.9886 26.2476 39.0031 26.8816C38.994 27.4047 39.1624 27.9146 39.4788 28.3219C39.7822 28.6784 40.2865 28.7378 40.9917 28.5001Z" fill="#FF9565"/>
<path d="M54.36 21.9307C55.0239 21.0513 55.8017 20.2715 56.6714 19.6134C57.4205 19.0175 58.3024 18.6276 59.2353 18.4797C60.095 18.3627 60.9668 18.5654 61.6962 19.0519C62.4793 19.5557 63.1513 20.4963 63.7123 21.8736C64.0082 22.6196 64.2515 23.3869 64.4404 24.1695C64.6465 25.0014 64.8182 25.8332 64.9556 26.6651C65.093 27.4969 65.2075 28.2967 65.299 29.0643C65.3838 29.8308 65.4536 30.5046 65.5086 31.0857C65.5573 31.4401 65.483 31.8008 65.299 32.1036C65.1257 32.3699 64.8891 32.5854 64.6121 32.7292C64.3244 32.8763 64.0089 32.9554 63.6882 32.961C63.3702 32.9748 63.0535 32.9101 62.7643 32.772C62.4777 32.6317 62.2314 32.416 62.0499 32.1463C61.8413 31.8379 61.7341 31.4678 61.7443 31.0911C61.7063 30.2542 61.6174 29.4207 61.4781 28.5955C61.339 27.7631 61.1656 26.9182 60.9629 26.0661C60.6286 24.6116 60.2462 23.6472 59.8158 23.1731C59.3853 22.6989 58.8701 22.7132 58.2702 23.2159C57.905 23.5184 57.5805 23.8703 57.3051 24.2622C56.7103 25.1006 56.2032 26.0023 55.7922 26.952C55.5758 27.4476 55.3577 27.9271 55.1327 28.3923C54.9078 28.8576 54.7034 29.3175 54.4613 29.7738C54.2198 30.2222 54.0136 30.6902 53.8448 31.1731C53.6904 31.6802 53.3773 32.1193 52.9552 32.4209C52.5867 32.689 52.1446 32.8266 51.6948 32.813C51.265 32.7945 50.8565 32.6138 50.5459 32.305C50.2093 31.9853 50.041 31.4862 50.041 30.8077C50.0605 30.362 50.0748 29.9158 50.0839 29.469C50.0925 29.0233 50.1166 28.5777 50.1526 28.1321C50.2477 26.5421 50.3553 24.9621 50.4755 23.3923C50.5957 21.8225 50.7497 20.2521 50.9374 18.6811C51.013 18.0025 51.2609 17.5129 51.681 17.2123C52.071 16.9206 52.5458 16.7771 53.0256 16.8059C53.4885 16.8283 53.9293 17.0174 54.2724 17.3406C54.4482 17.5073 54.5812 17.7168 54.6594 17.9502C54.7377 18.1836 54.7587 18.4336 54.7206 18.6775C54.6645 19.1422 54.613 19.5979 54.566 20.0447C54.5191 20.4916 54.4676 20.9372 54.4115 21.3816C54.3935 21.4726 54.3843 21.5651 54.384 21.6579C54.3847 21.7494 54.3766 21.8408 54.36 21.9307Z" fill="#FF9565"/>
<path d="M76.1509 21.5807C75.7047 21.2344 75.2372 20.9188 74.7513 20.636C74.3125 20.3718 73.8263 20.2038 73.3225 20.1422C72.8651 20.093 72.4061 20.2199 72.0328 20.4987C71.6413 20.7792 71.3144 21.3074 71.0523 22.0834C70.7121 22.9759 70.5457 23.9295 70.5628 24.8891C70.5653 25.8591 70.7796 26.816 71.1896 27.6877C71.392 28.1309 71.6668 28.5344 72.0019 28.8802C72.1462 29.044 72.3249 29.1711 72.5241 29.2518C72.7233 29.3325 72.9377 29.3645 73.1508 29.3454C73.5745 29.2847 73.9754 29.1095 74.3134 28.8374C74.7651 28.488 75.1827 28.0933 75.5601 27.6592C75.7932 27.3435 76.1346 27.1335 76.5132 27.0727C76.8729 27.0128 77.2415 27.0578 77.5779 27.2028C77.9197 27.351 78.2164 27.5924 78.4366 27.9016C78.6684 28.2244 78.7893 28.6185 78.78 29.021C78.7776 29.5301 78.587 30.0189 78.2477 30.3864C77.5462 31.2746 76.681 32.0085 75.7026 32.5451C74.7602 33.0762 73.6917 33.3179 72.6218 33.242C71.8265 33.2176 71.0503 32.9826 70.3671 32.5593C69.7014 32.1406 69.1243 31.5864 68.6704 30.9301C68.1934 30.2397 67.8161 29.4807 67.5507 28.677C67.2695 27.8383 67.0766 26.9705 66.9754 26.0887C66.8744 25.2156 66.8606 24.3339 66.9342 23.4577C66.9981 22.65 67.1585 21.8536 67.4116 21.087C67.656 20.3102 68.0102 19.5755 68.4626 18.9069C68.9063 18.2431 69.4557 17.6626 70.0871 17.1903C70.7214 16.7214 71.4405 16.3903 72.2011 16.2171C73.0258 16.0332 73.8809 16.0577 74.6946 16.2884C75.5548 16.5029 76.3771 16.8566 77.1314 17.3365C77.8973 17.8214 78.4388 18.3448 78.756 18.9069C78.7889 18.9724 78.817 19.0403 78.8401 19.1101C78.8636 19.1798 78.8917 19.2477 78.9243 19.3133C79.0562 19.7155 79.0465 20.1532 78.8968 20.5486C78.7599 20.9093 78.5329 21.2256 78.2391 21.4649C77.9472 21.6987 77.5967 21.8404 77.2293 21.8731C76.8478 21.9115 76.4656 21.8078 76.1509 21.5807Z" fill="#FF9565"/>
<path d="M90.5791 16.9435C90.948 16.7252 91.3758 16.6388 91.7966 16.6975C92.217 16.7552 92.6092 16.9485 92.918 17.2501C93.2594 17.5942 93.4557 18.0646 93.4641 18.5585C93.5007 19.628 93.5288 20.6797 93.5483 21.7135C93.5677 22.7474 93.5769 23.7991 93.5757 24.8686C93.5563 25.508 93.5517 26.1574 93.562 26.8169C93.5723 27.4765 93.5677 28.1449 93.5483 28.8223C93.5288 29.502 93.4819 30.1758 93.4074 30.8437C93.3326 31.5162 93.2109 32.1823 93.0434 32.8365C92.948 33.2514 92.8264 33.6593 92.6793 34.0576C92.5376 34.4486 92.3495 34.8199 92.1195 35.1628C91.8059 35.6808 91.4186 36.1466 90.9706 36.5442C90.0686 37.3452 88.9742 37.8775 87.804 38.0843C87.202 38.1915 86.5873 38.1969 85.9836 38.1004C84.5194 37.9401 83.1152 37.4107 81.8931 36.5585C81.4824 36.2936 81.1826 35.8781 81.0533 35.3945C80.9613 35.1446 80.937 34.8734 80.9829 34.6102C81.0271 34.3658 81.1076 34.1301 81.2216 33.9114C81.3431 33.6878 81.5101 33.4943 81.711 33.3446C81.9117 33.191 82.1342 33.0707 82.3705 32.9881C82.6042 32.9291 82.8462 32.9146 83.0849 32.9453C83.3386 32.9678 83.5835 33.0528 83.7993 33.1931C84.164 33.4316 84.5406 33.65 84.9275 33.8472C85.329 34.0502 85.7602 34.1827 86.2034 34.2394C87.0621 34.3166 87.7295 34.142 88.2058 33.7153C88.6705 33.3019 89.0252 32.7716 89.2362 32.1752C89.4488 31.5823 89.5761 30.96 89.614 30.3285C89.6517 29.6975 89.6792 29.2091 89.6981 28.8597C89.7153 28.4141 89.7336 27.9631 89.7531 27.5068C89.772 27.0522 89.7823 26.5906 89.7823 26.1253C89.165 26.9849 88.4098 27.7277 87.5498 28.3214C86.8855 28.7806 86.1279 29.074 85.3362 29.1788C84.6403 29.2594 83.9364 29.1359 83.3047 28.8223C82.6633 28.5019 82.1069 28.024 81.6836 27.4301C81.1907 26.7345 80.8294 25.9482 80.6189 25.1128C80.3569 24.0943 80.2577 23.0381 80.3252 21.9863C80.3637 20.9926 80.467 20.0028 80.6343 19.0237C80.8021 18.0446 81.0479 17.0817 81.3693 16.1449C81.4205 15.7833 81.5955 15.453 81.8622 15.2144C82.1062 15.0056 82.3976 14.8651 82.7088 14.8062C83.0289 14.7497 83.3572 14.7698 83.6687 14.8651C83.9813 14.9538 84.2734 15.1072 84.5274 15.316C84.7687 15.5177 84.9443 15.7915 85.0305 16.1003C85.1251 16.4535 85.1058 16.8291 84.9756 17.1699C84.6935 18.0692 84.4686 18.9868 84.3024 19.9167C84.1332 20.8711 84.0675 21.8421 84.1067 22.8116C84.1067 24.3232 84.4043 25.1081 84.9996 25.1663C85.595 25.2245 86.3196 24.6238 87.1737 23.3642C87.6067 22.7328 87.998 22.0718 88.3449 21.3856C88.6998 20.6844 89.0249 19.9661 89.3203 19.2305L89.7943 18.038C89.8436 17.8085 89.939 17.5924 90.0742 17.4039C90.2095 17.2153 90.3815 17.0584 90.5791 16.9435Z" fill="#FF9565"/>
<rect width="13.3548" height="13.3548" rx="6.67742" transform="matrix(-1 0 0 1 124.741 179.807)" fill="#FFE9E0"/>
<rect width="8" height="8" rx="4" transform="matrix(-1 0 0 1 133 214)" fill="#FFE9E0"/>
<rect width="10.3871" height="10.3871" rx="5.19355" transform="matrix(-1 0 0 1 128.387 198)" fill="#FFE9E0"/>
<rect x="55" y="116" width="210.837" height="59.4652" rx="17.8065" fill="#FFE9E0"/>
<path d="M75.521 128.439C76.6534 128.002 77.8663 127.814 79.0778 127.886C80.1123 127.954 81.1207 128.24 82.0376 128.724C82.8752 129.179 83.5942 129.824 84.1367 130.608C84.6861 131.401 85.0569 132.303 85.2235 133.253C85.3984 134.29 85.3532 135.353 85.0906 136.371C84.7838 137.561 84.2474 138.679 83.5116 139.662C82.9464 140.432 82.3226 141.157 81.6457 141.831C80.96 142.517 80.2603 143.151 79.5466 143.734C79.6061 143.77 79.6706 143.796 79.7379 143.811C80.8096 144.346 81.7778 145.067 82.5973 145.941C83.425 146.815 84.095 147.826 84.5775 148.929C85.0574 150.027 85.3158 151.21 85.3378 152.408C85.3596 153.643 85.0995 154.867 84.5775 155.986C84.0214 157.173 83.1408 158.178 82.0376 158.885C80.8971 159.61 79.6426 160.138 78.3268 160.446C76.9118 160.78 75.4635 160.952 74.0097 160.959C72.5535 160.974 71.098 160.891 69.6529 160.712C69.2037 160.654 68.7736 160.495 68.3957 160.245C68.0863 160.038 67.8266 159.765 67.6354 159.445C67.4592 159.145 67.3368 158.817 67.2739 158.475C67.2114 158.143 67.1926 157.804 67.2179 157.467C67.5471 153.691 67.674 149.899 67.5981 146.109C67.5281 142.295 67.2879 138.281 66.8774 134.069C66.8519 133.744 66.9042 133.418 67.0299 133.117C67.1556 132.816 67.3512 132.549 67.6004 132.339C68.099 131.857 68.7515 131.567 69.4429 131.52C69.7534 131.517 70.062 131.568 70.3549 131.672C71.0958 130.988 71.8949 130.371 72.7432 129.827C73.616 129.265 74.5475 128.799 75.521 128.439ZM79.0988 137.153C79.5894 136.615 79.9473 135.969 80.1437 135.268C80.2951 134.781 80.2473 134.255 80.0108 133.803C79.7822 133.422 79.3764 133.189 78.7933 133.104C78.2102 133.018 77.4872 133.164 76.6242 133.542C75.794 133.908 75.0191 134.389 74.3222 134.97C73.5882 135.575 72.907 136.241 72.2861 136.961C72.3623 137.747 72.426 138.546 72.4773 139.359C72.5286 140.171 72.5776 141.02 72.6289 141.908C73.8101 141.321 74.9536 140.66 76.0528 139.93C77.193 139.151 78.2183 138.216 79.0988 137.153ZM75.1035 155.986C76.447 155.986 77.5439 155.669 78.3945 155.035C79.245 154.4 79.7651 153.652 79.9548 152.791C80.1445 151.928 79.9602 151.053 79.402 150.165C78.8438 149.277 77.8293 148.566 76.3583 148.033C75.7976 147.83 75.2178 147.684 74.6277 147.597C74.0307 147.508 73.4025 147.438 72.7432 147.387V148.338C72.7183 149.632 72.6864 150.906 72.6476 152.161C72.6087 153.416 72.5512 154.679 72.475 155.949C72.9109 155.999 73.3493 156.024 73.7881 156.024C74.2336 156.024 74.672 156.012 75.1035 155.986Z" fill="#FF9565"/>
<path d="M101.927 139.294C102.785 140.38 103.36 141.662 103.599 143.025C103.879 144.487 103.911 145.985 103.695 147.457C103.482 148.958 103.033 150.416 102.363 151.776C101.75 153.069 100.876 154.222 99.7974 155.163C98.9882 155.833 98.0589 156.342 97.0592 156.665C96.1028 156.978 95.0928 157.095 94.0902 157.008C93.0971 156.918 92.1329 156.627 91.2564 156.152C90.3177 155.637 89.5052 154.92 88.8774 154.053C88.0404 153.014 87.4595 151.793 87.1818 150.489C86.8892 149.152 86.8316 147.774 87.0115 146.417C87.1949 145.021 87.588 143.662 88.1777 142.384C88.7439 141.118 89.534 139.964 90.51 138.979C91.2764 138.118 92.2074 137.419 93.2482 136.924C94.1906 136.478 95.2216 136.252 96.2639 136.262C97.3054 136.281 98.3282 136.542 99.2516 137.024C100.296 137.58 101.208 138.354 101.927 139.294ZM93.4791 151.545C93.764 151.767 94.1081 151.899 94.468 151.926C94.8224 151.951 95.1785 151.906 95.5152 151.793C95.867 151.673 96.1954 151.493 96.4855 151.261C96.7805 151.03 97.0372 150.753 97.2458 150.442C97.5913 149.932 97.8784 149.384 98.1018 148.81C98.3426 148.201 98.5215 147.569 98.6359 146.925C98.7486 146.285 98.7862 145.633 98.7478 144.984C98.7136 144.352 98.579 143.73 98.349 143.14C97.9183 142.151 97.3352 141.612 96.5998 141.523C96.2366 141.477 95.8678 141.503 95.515 141.601C95.1622 141.698 94.8324 141.866 94.545 142.092C94.0511 142.486 93.6262 142.959 93.2878 143.492C92.9304 144.055 92.6497 144.662 92.4529 145.299C92.2444 145.958 92.1144 146.639 92.0657 147.328C92.0137 147.984 92.0522 148.644 92.18 149.29C92.257 149.721 92.3985 150.138 92.5998 150.526C92.8091 150.927 93.1105 151.272 93.4791 151.534V151.545Z" fill="#FF9565"/>
<path d="M111.326 143.276C112.224 142.119 113.278 141.092 114.459 140.226C115.481 139.446 116.685 138.938 117.957 138.749C119.129 138.598 120.316 138.867 121.307 139.51C122.372 140.169 123.285 141.399 124.047 143.2C124.448 144.177 124.778 145.182 125.036 146.206C125.313 147.294 125.546 148.383 125.736 149.471C125.925 150.56 126.081 151.606 126.202 152.611C126.316 153.613 126.411 154.495 126.489 155.255C126.554 155.719 126.453 156.191 126.202 156.587C125.968 156.936 125.646 157.219 125.269 157.406C124.878 157.598 124.448 157.702 124.012 157.709C123.58 157.726 123.15 157.641 122.757 157.462C122.368 157.278 122.034 156.995 121.787 156.643C121.506 156.232 121.366 155.741 121.388 155.244C121.335 154.149 121.215 153.058 121.027 151.978C120.835 150.89 120.602 149.787 120.327 148.669C119.856 146.772 119.329 145.512 118.746 144.89C118.163 144.269 117.463 144.288 116.647 144.949C116.149 145.344 115.708 145.805 115.333 146.318C114.53 147.416 113.846 148.597 113.293 149.84C113.002 150.488 112.704 151.116 112.399 151.724C112.119 152.334 111.815 152.936 111.485 153.532C111.157 154.124 110.877 154.74 110.648 155.377C110.432 156.036 110.004 156.604 109.43 156.993C108.93 157.344 108.329 157.524 107.718 157.506C107.135 157.481 106.58 157.245 106.158 156.841C105.703 156.422 105.475 155.771 105.475 154.882C105.498 154.299 105.519 153.716 105.531 153.131C105.542 152.545 105.575 151.964 105.626 151.381C105.752 149.301 105.898 147.234 106.065 145.18C106.231 143.126 106.44 141.071 106.692 139.015C106.793 138.126 107.129 137.485 107.7 137.093C108.23 136.712 108.874 136.525 109.526 136.562C110.154 136.591 110.753 136.838 111.219 137.261C111.458 137.479 111.639 137.753 111.746 138.059C111.852 138.364 111.88 138.691 111.828 139.011C111.752 139.619 111.682 140.215 111.618 140.8C111.554 141.384 111.483 141.97 111.403 142.558C111.378 142.677 111.365 142.798 111.364 142.92C111.363 143.04 111.351 143.159 111.326 143.276Z" fill="#FF9565"/>
<path d="M145.683 137.429C146.062 139.484 146.385 141.57 146.653 143.686C146.92 145.802 147.091 147.965 147.166 150.175C147.217 151.419 147.204 152.664 147.129 153.907C147.038 155.199 146.795 156.475 146.406 157.711C145.871 159.486 144.977 160.862 143.723 161.839C142.524 162.792 141.079 163.386 139.556 163.551C137.988 163.702 136.408 163.429 134.982 162.76C133.394 162.032 132.033 160.887 131.043 159.448C130.806 159.173 130.63 158.852 130.525 158.505C130.42 158.158 130.389 157.793 130.434 157.433C130.509 156.802 130.79 156.213 131.234 155.758C131.667 155.326 132.24 155.063 132.85 155.017C133.495 154.953 134.11 155.213 134.695 155.796C134.898 155.999 135.108 156.202 135.322 156.405C135.537 156.607 135.761 156.81 135.989 157.013C136.563 157.569 137.261 157.98 138.026 158.212C138.597 158.383 139.212 158.343 139.756 158.098C140.317 157.806 140.78 157.357 141.088 156.806C141.501 156.094 141.785 155.315 141.925 154.504C142.077 153.471 142.128 152.426 142.077 151.383C142.026 150.343 141.948 149.226 141.844 148.034C141.242 148.637 140.593 149.191 139.903 149.69C139.208 150.191 138.455 150.606 137.659 150.926C136.575 151.405 135.4 151.644 134.215 151.626C133.23 151.617 132.26 151.388 131.376 150.956C130.569 150.542 129.876 149.934 129.359 149.188C128.822 148.416 128.471 147.53 128.332 146.599C128.184 145.571 128.242 144.524 128.503 143.518C128.814 142.332 129.336 141.21 130.044 140.209C130.499 139.545 131.008 138.921 131.567 138.343C132.152 137.733 132.788 137.173 133.468 136.671C134.153 136.163 134.886 135.723 135.656 135.357C136.412 134.996 137.212 134.733 138.035 134.576C138.831 134.419 139.64 134.341 140.451 134.343C141.262 134.338 142.069 134.447 142.849 134.667C143.546 134.858 144.194 135.195 144.75 135.656C145.273 136.108 145.606 136.741 145.683 137.429ZM137.349 145.265C137.925 144.818 138.438 144.293 138.872 143.707C139.304 143.12 139.662 142.48 139.936 141.804C140.167 141.339 140.316 140.837 140.374 140.321C140.397 140.184 140.386 140.043 140.34 139.912C140.294 139.78 140.216 139.663 140.113 139.57C139.875 139.421 139.587 139.372 139.313 139.434C138.937 139.497 138.572 139.612 138.228 139.777C137.445 140.149 136.709 140.613 136.036 141.16C135.332 141.725 134.688 142.362 134.117 143.061C133.482 143.924 133.171 144.629 133.184 145.174C133.196 145.72 133.407 146.092 133.816 146.291C134.222 146.495 134.748 146.514 135.395 146.347C136.121 146.137 136.789 145.764 137.349 145.256V145.265Z" fill="#FF9565"/>
<path d="M154.963 140.347C156.088 139.925 157.256 139.626 158.445 139.453C159.523 139.288 160.619 139.281 161.699 139.432C162.673 139.572 163.611 139.901 164.458 140.403C165.305 140.922 166.005 141.65 166.492 142.516C167.048 143.477 167.417 144.537 167.576 145.636C167.742 146.735 167.723 147.854 167.52 148.946C167.312 150.053 166.926 151.12 166.377 152.104C165.828 153.109 165.107 154.01 164.248 154.767C163.046 155.863 161.586 156.637 160.005 157.018C158.318 157.376 156.575 157.376 154.888 157.018C154.936 157.308 154.968 157.601 154.982 157.895C154.996 158.173 155.014 158.453 155.04 158.73C155.059 159.065 155.002 159.4 154.874 159.71C154.746 160.019 154.549 160.296 154.298 160.519C153.811 160.987 153.166 161.258 152.491 161.279C152.169 161.306 151.846 161.258 151.545 161.14C151.245 161.021 150.977 160.835 150.76 160.596C150.268 160.095 149.977 159.431 149.941 158.73C149.839 157.667 149.769 156.621 149.731 155.593C149.694 154.565 149.65 153.531 149.598 152.491C149.547 150.664 149.541 148.825 149.58 146.975C149.619 145.125 149.689 143.285 149.79 141.457C150.023 137.546 150.441 133.675 151.045 129.844C151.092 129.524 151.223 129.222 151.425 128.969C151.627 128.717 151.879 128.51 152.166 128.361C152.464 128.207 152.786 128.105 153.118 128.058C153.452 128.006 153.792 128.006 154.126 128.058C154.451 128.106 154.76 128.237 155.021 128.438C155.288 128.643 155.508 128.902 155.667 129.198C155.831 129.5 155.941 129.828 155.991 130.168C156.041 130.506 156.014 130.85 155.914 131.176C155.84 132.243 155.726 133.315 155.572 134.392C155.418 135.47 155.279 136.693 155.154 138.063C155.102 138.442 155.071 138.824 155.058 139.206C155.037 139.586 155.014 139.966 154.963 140.347ZM154.697 151.187C155.356 151.699 156.136 152.033 156.962 152.158C157.73 152.274 158.516 152.194 159.245 151.924C159.974 151.654 160.626 151.21 161.146 150.632C161.707 150.005 162.082 149.234 162.23 148.405C162.357 147.728 162.37 147.034 162.27 146.352C162.197 145.736 161.96 145.151 161.584 144.657C161.409 144.437 161.19 144.256 160.941 144.125C160.692 143.994 160.419 143.915 160.138 143.894C159.529 143.832 158.793 144.065 157.932 144.594C157.523 144.815 157.133 145.069 156.766 145.354C156.393 145.65 156.049 145.979 155.737 146.338C155.447 146.66 155.192 147.011 154.975 147.386C154.789 147.683 154.685 148.024 154.671 148.375V149.802C154.66 150.271 154.671 150.735 154.697 151.187Z" fill="#FF9565"/>
<path d="M184.149 139.293C185.007 140.38 185.582 141.662 185.823 143.025C186.102 144.487 186.134 145.985 185.917 147.457C185.704 148.958 185.255 150.416 184.585 151.776C183.971 153.069 183.098 154.222 182.019 155.163C181.21 155.832 180.281 156.342 179.281 156.665C178.325 156.978 177.315 157.095 176.312 157.008C175.283 156.918 174.285 156.609 173.385 156.1C172.486 155.591 171.706 154.896 171.099 154.06C170.261 153.019 169.68 151.796 169.404 150.489C169.112 149.151 169.055 147.774 169.233 146.416C169.417 145.021 169.81 143.662 170.4 142.384C170.966 141.118 171.756 139.964 172.732 138.979C173.498 138.118 174.429 137.419 175.47 136.924C176.41 136.48 177.439 136.253 178.479 136.261C179.52 136.281 180.543 136.542 181.466 137.024C182.513 137.579 183.428 138.353 184.149 139.293ZM175.701 151.545C175.986 151.767 176.33 151.899 176.69 151.925C177.044 151.951 177.4 151.906 177.737 151.792C178.089 151.673 178.417 151.493 178.707 151.261C179.002 151.03 179.259 150.753 179.468 150.442C179.813 149.932 180.1 149.384 180.324 148.809C180.564 148.201 180.743 147.569 180.858 146.925C180.971 146.285 181.01 145.633 180.972 144.984C180.936 144.352 180.8 143.73 180.571 143.14C180.139 142.151 179.556 141.612 178.822 141.523C178.458 141.477 178.09 141.503 177.737 141.601C177.384 141.698 177.054 141.866 176.767 142.092C176.273 142.485 175.849 142.958 175.512 143.492C175.154 144.054 174.872 144.662 174.675 145.299C174.47 145.954 174.342 146.63 174.295 147.314C174.24 147.97 174.279 148.631 174.409 149.276C174.484 149.707 174.625 150.124 174.826 150.512C175.033 150.917 175.332 151.267 175.701 151.534V151.545Z" fill="#FF9565"/>
<path d="M193.547 143.279C194.448 142.128 195.505 141.107 196.687 140.247C197.704 139.467 198.902 138.957 200.169 138.763C201.339 138.612 202.526 138.882 203.516 139.524C204.581 140.183 205.494 141.413 206.256 143.214C206.657 144.191 206.987 145.196 207.245 146.22C207.522 147.308 207.755 148.397 207.945 149.485C208.135 150.574 208.286 151.62 208.4 152.625C208.515 153.627 208.61 154.509 208.687 155.269C208.752 155.733 208.651 156.205 208.4 156.601C208.165 156.95 207.844 157.233 207.467 157.42C207.075 157.612 206.646 157.716 206.21 157.723C205.778 157.74 205.348 157.655 204.955 157.476C204.566 157.292 204.232 157.009 203.985 156.657C203.704 156.246 203.564 155.755 203.586 155.258C203.533 154.163 203.412 153.072 203.224 151.992C203.033 150.904 202.8 149.801 202.525 148.683C202.069 146.778 201.55 145.515 200.967 144.893C200.384 144.271 199.684 144.29 198.868 144.951C198.371 145.347 197.929 145.807 197.554 146.32C196.747 147.417 196.058 148.597 195.5 149.84C195.209 150.488 194.911 151.116 194.606 151.724C194.326 152.334 194.022 152.936 193.692 153.532C193.364 154.124 193.084 154.74 192.855 155.377C192.64 156.036 192.212 156.605 191.637 156.993C191.137 157.344 190.536 157.524 189.925 157.506C189.342 157.481 188.787 157.245 188.365 156.841C187.91 156.422 187.682 155.771 187.682 154.882C187.705 154.299 187.726 153.716 187.738 153.131C187.749 152.545 187.782 151.964 187.833 151.381C187.959 149.301 188.105 147.234 188.272 145.18C188.438 143.126 188.647 141.071 188.899 139.015C188.999 138.126 189.334 137.485 189.907 137.093C190.437 136.712 191.081 136.525 191.733 136.562C192.361 136.591 192.96 136.838 193.426 137.261C193.666 137.479 193.847 137.753 193.953 138.058C194.06 138.364 194.088 138.691 194.035 139.011C193.96 139.619 193.888 140.216 193.825 140.8C193.762 141.383 193.692 141.966 193.617 142.549C193.592 142.668 193.579 142.789 193.578 142.91C193.58 143.034 193.57 143.157 193.547 143.279Z" fill="#FF9565"/>
<path d="M227.904 137.429C228.285 139.484 228.609 141.57 228.875 143.686C229.14 145.802 229.312 147.965 229.388 150.175C229.44 151.418 229.427 152.664 229.35 153.907C229.26 155.199 229.017 156.475 228.627 157.711C228.096 159.486 227.202 160.862 225.945 161.839C224.746 162.792 223.302 163.385 221.78 163.551C220.209 163.708 218.625 163.439 217.194 162.772C215.606 162.043 214.245 160.899 213.255 159.46C213.02 159.184 212.844 158.863 212.739 158.516C212.634 158.169 212.603 157.804 212.646 157.445C212.722 156.814 213.003 156.226 213.446 155.77C213.879 155.338 214.452 155.075 215.062 155.028C215.708 154.965 216.323 155.224 216.907 155.807C217.11 156.01 217.32 156.213 217.535 156.416C217.749 156.619 217.973 156.822 218.202 157.025C218.775 157.581 219.473 157.992 220.238 158.224C220.81 158.395 221.424 158.354 221.969 158.109C222.529 157.818 222.992 157.369 223.3 156.817C223.714 156.106 223.997 155.326 224.138 154.515C224.289 153.482 224.34 152.437 224.289 151.395C224.238 150.354 224.16 149.238 224.056 148.045C223.455 148.649 222.806 149.202 222.115 149.701C221.42 150.202 220.667 150.618 219.872 150.937C218.788 151.417 217.612 151.656 216.427 151.637C215.445 151.624 214.478 151.391 213.598 150.956C212.79 150.541 212.097 149.934 211.58 149.188C211.044 148.416 210.693 147.53 210.554 146.599C210.405 145.571 210.463 144.524 210.724 143.518C211.036 142.332 211.558 141.211 212.266 140.209C212.72 139.545 213.23 138.921 213.789 138.343C214.371 137.729 215.003 137.166 215.681 136.659C216.365 136.151 217.098 135.711 217.868 135.346C218.624 134.984 219.424 134.721 220.247 134.564C221.043 134.407 221.852 134.329 222.664 134.331C223.474 134.327 224.281 134.436 225.061 134.655C225.758 134.846 226.406 135.183 226.962 135.644C227.492 136.098 227.829 136.736 227.904 137.429ZM219.571 145.265C220.147 144.818 220.659 144.293 221.094 143.707C221.527 143.12 221.885 142.48 222.16 141.804C222.391 141.339 222.539 140.837 222.596 140.321C222.618 140.185 222.605 140.045 222.559 139.915C222.512 139.786 222.434 139.67 222.33 139.579C222.092 139.43 221.804 139.382 221.53 139.444C221.155 139.506 220.79 139.621 220.448 139.787C219.665 140.155 218.93 140.616 218.258 141.16C217.553 141.725 216.91 142.362 216.338 143.061C215.704 143.924 215.393 144.628 215.405 145.174C215.418 145.72 215.627 146.092 216.033 146.291C216.439 146.495 216.965 146.514 217.612 146.347C218.34 146.138 219.01 145.765 219.571 145.256V145.265Z" fill="#FF9565"/>
<path d="M235.059 153.703C235.896 153.703 236.518 153.969 236.925 154.503C237.319 155 237.534 155.617 237.534 156.252C237.534 156.887 237.319 157.503 236.925 158.001C236.519 158.534 235.897 158.801 235.059 158.801C234.273 158.801 233.66 158.554 233.252 158.059C232.846 157.602 232.617 157.015 232.606 156.403C232.597 155.779 232.797 155.17 233.175 154.673C233.57 154.127 234.198 153.804 235.059 153.703Z" fill="#FF9565"/>
<path d="M243.272 153.703C244.109 153.703 244.731 153.969 245.138 154.503C245.532 155 245.747 155.617 245.747 156.252C245.747 156.887 245.532 157.503 245.138 158.001C244.732 158.534 244.11 158.801 243.272 158.801C242.487 158.801 241.884 158.554 241.465 158.059C241.061 157.6 240.833 157.014 240.819 156.403C240.811 155.779 241.012 155.17 241.39 154.673C241.782 154.127 242.409 153.804 243.272 153.703Z" fill="#FF9565"/>
<path d="M251.492 153.703C252.328 153.703 252.95 153.969 253.358 154.503C253.752 155 253.967 155.617 253.967 156.252C253.967 156.887 253.752 157.503 253.358 158.001C252.952 158.534 252.33 158.801 251.492 158.801C250.705 158.801 250.103 158.554 249.684 158.059C249.28 157.601 249.051 157.014 249.038 156.403C249.03 155.779 249.232 155.17 249.61 154.673C250.002 154.127 250.629 153.804 251.492 153.703Z" fill="#FF9565"/>
<rect x="240.099" y="90.582" width="5.50355" height="5.50355" rx="2.75177" transform="rotate(-6.13508 240.099 90.582)" fill="#FFE9E0"/>
<rect x="248.553" y="63.8125" width="10.2706" height="10.2706" rx="5.13529" transform="rotate(-6.13508 248.553 63.8125)" fill="#FFE9E0"/>
<rect x="244.343" y="78.0381" width="7.98824" height="7.98824" rx="3.99412" transform="rotate(-6.13508 244.343 78.0381)" fill="#FFE9E0"/>
<rect x="208" y="9" width="96.8158" height="48.0137" rx="13.6941" fill="#FFE9E0"/>
<path d="M236.528 25.4494C236.659 26.5877 236.764 27.717 236.845 28.8374C236.926 29.9577 236.975 31.0786 236.994 32.1999C236.994 32.8184 236.986 33.505 236.97 34.2599C236.952 35.0296 236.894 35.798 236.797 36.5618C236.702 37.3353 236.553 38.1011 236.349 38.8533C236.158 39.5709 235.863 40.2564 235.472 40.8879C235.092 41.4953 234.595 42.0213 234.01 42.4354C233.359 42.8806 232.611 43.1647 231.829 43.2645C230.912 43.3955 229.978 43.2928 229.112 42.9657C228.201 42.6271 227.391 42.0615 226.76 41.3226C226.302 40.7759 225.943 40.153 225.7 39.4822C225.461 38.8178 225.297 38.1289 225.21 37.4282C225.12 36.7049 225.095 35.975 225.137 35.2473C225.177 34.4984 225.246 33.759 225.343 33.029C225.349 32.7201 225.454 32.4214 225.642 32.176C225.814 31.9536 226.038 31.7771 226.294 31.6622C226.555 31.5484 226.837 31.4904 227.122 31.4919C227.396 31.4877 227.667 31.546 227.915 31.6622C228.148 31.775 228.342 31.953 228.475 32.1745C228.619 32.4343 228.674 32.7335 228.634 33.0275C228.601 33.2381 228.568 33.4995 228.536 33.8073C228.505 34.115 228.475 34.4526 228.45 34.8186C228.424 35.1845 228.414 35.5655 228.414 35.9523C228.413 36.335 228.438 36.7172 228.487 37.0966C228.587 37.8614 228.814 38.4629 229.17 38.9011C229.472 39.3018 229.895 39.5959 230.375 39.7406C230.827 39.8632 231.305 39.8375 231.741 39.6674C232.216 39.4869 232.628 39.1693 232.922 38.7547C233.138 38.4519 233.298 38.1136 233.397 37.7554C233.504 37.3805 233.577 36.9972 233.617 36.6096C233.658 36.2171 233.678 35.8227 233.678 35.428C233.678 35.0307 233.678 34.6438 233.702 34.2703C233.735 32.9558 233.714 31.6383 233.641 30.3177C233.567 28.9972 233.465 27.6672 233.333 26.3278C232.407 26.5071 231.473 26.6614 230.531 26.7909C229.589 26.9203 228.648 27.0259 227.707 27.1076C227.404 27.1339 227.101 27.061 226.843 26.8999C226.612 26.7483 226.428 26.5351 226.312 26.2845C226.189 26.0298 226.123 25.7516 226.117 25.4689C226.106 25.1851 226.158 24.9025 226.269 24.6413C226.382 24.3824 226.563 24.1593 226.793 23.996C227.064 23.8173 227.384 23.7294 227.707 23.745L228.78 23.6479C229.137 23.6166 229.501 23.5673 229.876 23.4985C230.59 23.399 231.297 23.2854 231.996 23.158C232.695 23.0305 233.392 22.8926 234.087 22.7442C234.338 22.6835 234.598 22.6782 234.851 22.7285C235.103 22.7788 235.342 22.8835 235.55 23.0355C235.961 23.327 236.247 23.7619 236.354 24.2544C236.386 24.4536 236.415 24.6567 236.439 24.8639C236.47 25.076 236.497 25.2717 236.528 25.4494Z" fill="#FF9565"/>
<path d="M247.593 29.5934C248.143 30.289 248.511 31.1103 248.664 31.9835C248.844 32.9194 248.864 33.8789 248.725 34.8217C248.589 35.7831 248.301 36.7169 247.872 37.5882C247.479 38.4165 246.92 39.1549 246.229 39.7572C245.71 40.1856 245.115 40.512 244.475 40.7192C243.863 40.9199 243.216 40.9946 242.574 40.9388C241.938 40.8808 241.32 40.6943 240.759 40.3906C240.158 40.0601 239.638 39.601 239.235 39.0462C238.7 38.3826 238.328 37.6022 238.151 36.7681C237.964 35.9121 237.927 35.0301 238.042 34.1615C238.159 33.2674 238.411 32.3961 238.788 31.5772C239.151 30.7664 239.657 30.0277 240.282 29.3962C240.773 28.8442 241.369 28.3958 242.036 28.0772C242.638 27.7922 243.296 27.6467 243.961 27.6515C244.631 27.6639 245.288 27.8322 245.881 28.1429C246.549 28.4987 247.132 28.9933 247.593 29.5934ZM242.182 37.4403C242.365 37.5817 242.585 37.6663 242.816 37.6838C243.043 37.7003 243.271 37.6714 243.486 37.5987C243.712 37.5221 243.922 37.4063 244.108 37.2566C244.296 37.1088 244.461 36.9324 244.595 36.7338C244.816 36.4066 245 36.0559 245.143 35.6881C245.297 35.2988 245.412 34.8949 245.485 34.4826C245.557 34.0725 245.581 33.6554 245.557 33.2398C245.535 32.8344 245.449 32.435 245.301 32.0567C245.026 31.4233 244.652 31.0783 244.181 31.0215C243.948 30.9936 243.711 31.0127 243.485 31.0776C243.259 31.1425 243.048 31.2519 242.865 31.3994C242.549 31.6507 242.277 31.9538 242.061 32.2957C241.832 32.6565 241.651 33.0463 241.525 33.4549C241.393 33.8746 241.311 34.3082 241.28 34.747C241.247 35.1667 241.271 35.5889 241.353 36.0018C241.402 36.2778 241.493 36.5447 241.622 36.7935C241.756 37.05 241.948 37.2715 242.182 37.4403Z" fill="#FF9565"/>
<path d="M253.612 32.1527C254.188 31.4128 254.865 30.7567 255.622 30.2033C256.274 29.7042 257.04 29.377 257.851 29.2517C258.601 29.1551 259.362 29.3282 259.996 29.7402C260.678 30.1625 261.263 30.9502 261.751 32.1034C262.008 32.7293 262.22 33.3728 262.385 34.0289C262.562 34.726 262.711 35.4231 262.833 36.1202C262.954 36.8173 263.051 37.4875 263.124 38.1309C263.198 38.7722 263.259 39.3364 263.308 39.8234C263.35 40.1205 263.285 40.4229 263.124 40.6763C262.975 40.9008 262.769 41.0817 262.527 41.2006C262.276 41.3243 262.001 41.3912 261.722 41.3963C261.445 41.407 261.17 41.3528 260.918 41.238C260.669 41.12 260.455 40.9393 260.296 40.7137C260.117 40.4502 260.027 40.1358 260.041 39.8174C260.007 39.1161 259.93 38.4177 259.809 37.7261C259.687 37.029 259.538 36.3219 259.361 35.6049C259.069 34.3879 258.735 33.5798 258.362 33.1804C257.989 32.7811 257.54 32.793 257.018 33.2163C256.703 33.4731 256.424 33.771 256.188 34.1021C255.671 34.8047 255.23 35.5603 254.872 36.3562C254.686 36.7695 254.496 37.1714 254.3 37.5617C254.121 37.9516 253.925 38.3385 253.715 38.7194C253.505 39.0987 253.326 39.4938 253.178 39.901C253.041 40.3235 252.766 40.6881 252.399 40.9377C252.078 41.1627 251.694 41.2779 251.302 41.2664C250.929 41.2499 250.574 41.0986 250.303 40.8406C250.012 40.5717 249.866 40.153 249.865 39.5843C249.88 39.2109 249.894 38.8374 249.901 38.464C249.909 38.0905 249.929 37.7171 249.962 37.3436C250.043 36.0112 250.137 34.6867 250.243 33.3701C250.35 32.0536 250.482 30.7376 250.639 29.422C250.704 28.8534 250.919 28.4431 251.284 28.1911C251.624 27.9472 252.037 27.827 252.454 27.8506C252.856 27.8701 253.24 28.0285 253.538 28.2987C253.692 28.4385 253.808 28.6146 253.876 28.8108C253.944 29.007 253.962 29.2171 253.928 29.422C253.879 29.8114 253.834 30.1928 253.794 30.5663C253.754 30.9397 253.71 31.3137 253.661 31.6881C253.645 31.7643 253.636 31.8418 253.636 31.9197C253.635 31.9979 253.627 32.076 253.612 32.1527Z" fill="#FF9565"/>
<path d="M273.429 29.3238C273.532 29.1273 273.676 28.9558 273.852 28.8211C274.028 28.6863 274.231 28.5918 274.448 28.544C274.834 28.4598 275.237 28.4984 275.601 28.6545C275.951 28.8077 276.243 29.0696 276.433 29.4014C276.533 29.5695 276.591 29.7594 276.602 29.9548C276.613 30.1502 276.576 30.3453 276.494 30.5233C276.414 31.0272 276.345 31.5306 276.288 32.0335C276.231 32.5364 276.179 33.0483 276.13 33.5691C275.934 35.8811 275.958 38.2064 276.201 40.5138C276.228 40.8117 276.16 41.1103 276.006 41.3668C275.861 41.5916 275.657 41.7728 275.417 41.8911C275.165 42.0148 274.888 42.0812 274.606 42.0853C274.328 42.0966 274.05 42.0429 273.796 41.9284C273.546 41.81 273.331 41.6295 273.171 41.4041C272.989 41.1416 272.898 40.8268 272.912 40.5078C272.879 40.3227 272.859 40.1356 272.851 39.9476C272.843 39.7535 272.831 39.5578 272.815 39.3636C272.624 39.5374 272.421 39.6962 272.206 39.8386C271.994 39.977 271.774 40.1032 271.548 40.2165C271.146 40.4153 270.725 40.5744 270.292 40.6916C269.851 40.8122 269.397 40.8774 268.94 40.8858C268.484 40.8945 268.028 40.8372 267.588 40.7155C267.134 40.5902 266.707 40.3793 266.332 40.094C265.91 39.8018 265.55 39.4292 265.273 38.9976C264.988 38.5582 264.762 38.0831 264.602 37.5845C264.438 37.0756 264.348 36.5459 264.335 36.0115C264.318 35.4665 264.376 34.9218 264.505 34.3922C264.705 33.5331 265.047 32.7132 265.516 31.9663C265.98 31.2129 266.574 30.5486 267.272 30.0049C267.956 29.4721 268.738 29.0787 269.574 28.8472C270.443 28.6122 271.358 28.6081 272.229 28.8353C272.655 28.9272 273.061 29.0925 273.429 29.3238ZM269.453 37.6591C269.906 37.506 270.319 37.2504 270.658 36.9122C270.999 36.5687 271.29 36.179 271.523 35.7546C271.767 35.3147 271.971 34.8538 272.132 34.3773C272.295 33.8993 272.441 33.4322 272.572 32.9761C271.874 32.1963 271.167 31.8876 270.45 32.0499C269.733 32.2123 269.084 32.6838 268.501 33.4646C268.233 33.8432 268.039 34.2688 267.929 34.7194C267.778 35.2296 267.708 35.7604 267.721 36.2923C267.715 36.7316 267.863 37.1591 268.139 37.5008C268.397 37.8006 268.835 37.8533 269.453 37.6591Z" fill="#FF9565"/>
<path d="M282.488 29.8129C282.132 29.8129 281.868 29.8816 281.697 30.0191C281.618 30.0797 281.553 30.1571 281.508 30.2457C281.462 30.3343 281.437 30.4319 281.434 30.5314C281.431 30.7558 281.504 30.9744 281.64 31.1529C281.811 31.3842 282.038 31.5686 282.299 31.6891C282.72 31.9162 283.146 32.1313 283.577 32.3345C284.013 32.5415 284.433 32.7817 284.832 33.053C285.322 33.3476 285.762 33.7177 286.136 34.1494C286.515 34.5843 286.827 35.0731 287.062 35.5999C287.298 36.1277 287.438 36.6932 287.476 37.27C287.515 37.866 287.428 38.4635 287.221 39.0237C286.862 40.0575 286.168 40.9411 285.247 41.5333C284.786 41.8297 284.282 42.0557 283.754 42.204C283.204 42.3588 282.632 42.4204 282.061 42.3862C281.324 42.3527 280.596 42.2051 279.904 41.9486C279.149 41.6568 278.463 41.2083 277.893 40.6325C277.52 40.2591 277.362 39.8488 277.418 39.4016C277.463 38.9826 277.642 38.5894 277.929 38.2813C278.208 37.9829 278.584 37.7929 278.99 37.745C279.412 37.6882 279.811 37.871 280.185 38.2932C280.356 38.561 280.591 38.7826 280.868 38.9385C281.156 39.1079 281.475 39.2195 281.806 39.2672C282.136 39.3164 282.472 39.2956 282.793 39.2059C283.111 39.1211 283.398 38.9482 283.622 38.707C283.799 38.5149 283.939 38.2922 284.036 38.0497C284.132 37.813 284.174 37.5578 284.158 37.3028C284.138 37.0378 284.054 36.7816 283.914 36.5559C283.746 36.2903 283.522 36.0657 283.256 35.8987C282.831 35.6051 282.381 35.3482 281.912 35.1309C281.44 34.9118 280.969 34.6628 280.499 34.384C279.729 34.0467 279.085 33.4754 278.658 32.7512C278.259 32.0603 278.09 31.2605 278.176 30.4672C278.239 29.5199 278.626 28.6231 279.272 27.9278C279.9 27.2656 280.717 26.8146 281.612 26.6371C282.109 26.539 282.618 26.5143 283.122 26.5639C283.643 26.6131 284.156 26.7316 284.645 26.9165C285.142 27.106 285.613 27.3569 286.047 27.6634C286.482 27.9684 286.875 28.329 287.216 28.7359C287.486 29.0613 287.652 29.4606 287.691 29.8816C287.732 30.3039 287.574 30.7022 287.216 31.0767C287.068 31.2353 286.884 31.3561 286.68 31.4292C286.479 31.5135 286.264 31.5591 286.047 31.5637C285.837 31.5572 285.63 31.5116 285.437 31.4292C285.233 31.3561 285.049 31.2353 284.901 31.0767C284.582 30.7455 284.22 30.4595 283.824 30.2267C283.418 29.9839 282.96 29.842 282.488 29.8129Z" fill="#FF9565"/>
</svg>
