<svg width="370" height="370" viewBox="0 0 370 370" fill="none" xmlns="http://www.w3.org/2000/svg">
<rect width="370" height="370" rx="64.9412" fill="white"/>
<path d="M185 91.4141C148.24 91.4141 118.333 121.321 118.333 158.081C118.333 194.841 148.24 224.747 185 224.747C221.76 224.747 251.666 194.841 251.666 158.081C251.666 121.321 221.76 91.4141 185 91.4141ZM161.666 138.081C162.98 138.081 164.281 138.34 165.494 138.843C166.708 139.347 167.81 140.084 168.739 141.013C169.667 141.942 170.404 143.045 170.906 144.259C171.408 145.473 171.667 146.774 171.666 148.087C171.666 149.401 171.407 150.702 170.904 151.915C170.4 153.129 169.663 154.231 168.734 155.16C167.805 156.088 166.702 156.825 165.488 157.327C164.274 157.83 162.973 158.088 161.66 158.087C159.007 158.087 156.463 157.032 154.587 155.155C152.712 153.279 151.659 150.734 151.66 148.081C151.661 145.428 152.715 142.884 154.592 141.008C156.469 139.133 159.013 138.08 161.666 138.081ZM213.273 186.374C207.745 191.911 200.711 195.699 193.046 197.267C185.122 198.879 176.897 198.068 169.44 194.941C162.284 191.919 156.164 186.878 151.826 180.434L162.88 172.987C163.833 174.394 164.926 175.721 166.133 176.921C168.564 179.364 171.446 181.311 174.62 182.654C176.24 183.334 177.92 183.861 179.613 184.201C183.169 184.914 186.831 184.914 190.386 184.201C192.073 183.854 193.753 183.327 195.386 182.647C196.946 181.981 198.48 181.154 199.913 180.194C201.3 179.247 202.626 178.154 203.853 176.934C205.073 175.721 206.166 174.394 207.113 172.987L218.166 180.434C216.74 182.567 215.093 184.567 213.273 186.374ZM191.666 158.081C191.666 158.081 195 144.747 208.333 144.747C221.66 144.747 225 158.081 225 158.081L191.666 158.081Z" fill="#FFE0D2"/>
</svg>
