<svg width="170" height="170" viewBox="0 0 170 170" fill="none" xmlns="http://www.w3.org/2000/svg">
<path d="M85 41C68.458 41 55 54.458 55 71C55 87.542 68.458 101 85 101C101.542 101 115 87.542 115 71C115 54.458 101.542 41 85 41ZM74.5 62C75.0911 62.0002 75.6765 62.1168 76.2225 62.3432C76.7686 62.5696 77.2647 62.9014 77.6826 63.3195C78.1005 63.7377 78.4319 64.234 78.6579 64.7802C78.884 65.3265 79.0002 65.9119 79 66.503C78.9998 67.0941 78.8832 67.6795 78.6568 68.2255C78.4304 68.7716 78.0986 69.2677 77.6805 69.6856C77.2623 70.1035 76.766 70.4349 76.2198 70.6609C75.6735 70.887 75.0881 71.0032 74.497 71.003C73.3031 71.0026 72.1583 70.528 71.3144 69.6835C70.4705 68.839 69.9966 67.6939 69.997 66.5C69.9974 65.3061 70.472 64.1613 71.3165 63.3174C72.161 62.4735 73.3061 61.9996 74.5 62ZM97.723 83.732C95.2355 86.2234 92.0702 87.9282 88.621 88.634C85.0552 89.3592 81.3536 88.9944 77.998 87.587C74.7779 86.2272 72.0238 83.9588 70.072 81.059L75.046 77.708C75.475 78.341 75.967 78.938 76.51 79.478C77.6038 80.5774 78.9008 81.4536 80.329 82.058C81.058 82.364 81.814 82.601 82.576 82.754C84.1761 83.075 85.8239 83.075 87.424 82.754C88.183 82.598 88.939 82.361 89.674 82.055C90.376 81.755 91.066 81.383 91.711 80.951C92.335 80.525 92.932 80.033 93.484 79.484C94.033 78.938 94.525 78.341 94.951 77.708L99.925 81.059C99.283 82.019 98.542 82.919 97.723 83.732ZM88 71C88 71 89.5 65 95.5 65C101.497 65 103 71 103 71H88Z" fill="#F3F3F3"/>
</svg>
