<svg width="370" height="370" viewBox="0 0 370 370" fill="none" xmlns="http://www.w3.org/2000/svg">
<path d="M185 89.0996C148.24 89.0996 118.333 119.006 118.333 155.766C118.333 192.526 148.24 222.433 185 222.433C221.76 222.433 251.666 192.526 251.666 155.766C251.666 119.006 221.76 89.0996 185 89.0996ZM161.666 135.766C162.98 135.767 164.281 136.026 165.494 136.529C166.708 137.032 167.81 137.769 168.739 138.699C169.667 139.628 170.404 140.731 170.906 141.945C171.408 143.158 171.667 144.459 171.666 145.773C171.666 147.087 171.407 148.387 170.904 149.601C170.4 150.814 169.663 151.917 168.734 152.845C167.805 153.774 166.702 154.51 165.488 155.013C164.274 155.515 162.973 155.773 161.66 155.773C159.007 155.772 156.463 154.717 154.587 152.841C152.712 150.964 151.659 148.419 151.66 145.766C151.661 143.113 152.715 140.569 154.592 138.694C156.469 136.818 159.013 135.765 161.666 135.766ZM213.273 184.06C207.745 189.596 200.711 193.384 193.046 194.953C185.122 196.565 176.897 195.754 169.44 192.626C162.284 189.604 156.164 184.564 151.826 178.12L162.88 170.673C163.833 172.08 164.926 173.406 166.133 174.606C168.564 177.049 171.446 178.997 174.62 180.34C176.24 181.02 177.92 181.546 179.613 181.886C183.169 182.6 186.831 182.6 190.386 181.886C192.073 181.54 193.753 181.013 195.386 180.333C196.946 179.666 198.48 178.84 199.913 177.88C201.3 176.933 202.626 175.84 203.853 174.62C205.073 173.406 206.166 172.08 207.113 170.673L218.166 178.12C216.74 180.253 215.093 182.253 213.273 184.06ZM191.666 155.766C191.666 155.766 195 142.433 208.333 142.433C221.66 142.433 225 155.766 225 155.766L191.666 155.766Z" fill="#FFE0D2"/>
</svg>
