<svg width="170" height="170" viewBox="0 0 170 170" fill="none" xmlns="http://www.w3.org/2000/svg">
<rect width="170" height="170" rx="30" fill="white"/>
<path d="M85 39C68.458 39 55 52.458 55 69C55 85.542 68.458 99 85 99C101.542 99 115 85.542 115 69C115 52.458 101.542 39 85 39ZM74.5 60C75.0911 60.0002 75.6765 60.1168 76.2225 60.3432C76.7686 60.5696 77.2647 60.9014 77.6826 61.3195C78.1005 61.7377 78.4319 62.234 78.6579 62.7802C78.884 63.3265 79.0002 63.9119 79 64.503C78.9998 65.0941 78.8832 65.6795 78.6568 66.2255C78.4304 66.7716 78.0986 67.2677 77.6805 67.6856C77.2623 68.1035 76.766 68.4349 76.2198 68.6609C75.6735 68.887 75.0881 69.0032 74.497 69.003C73.3031 69.0026 72.1583 68.528 71.3144 67.6835C70.4705 66.839 69.9966 65.6939 69.997 64.5C69.9974 63.3061 70.472 62.1613 71.3165 61.3174C72.161 60.4735 73.3061 59.9996 74.5 60ZM97.723 81.732C95.2355 84.2234 92.0702 85.9282 88.621 86.634C85.0552 87.3592 81.3536 86.9944 77.998 85.587C74.7779 84.2272 72.0238 81.9588 70.072 79.059L75.046 75.708C75.475 76.341 75.967 76.938 76.51 77.478C77.6038 78.5774 78.9008 79.4536 80.329 80.058C81.058 80.364 81.814 80.601 82.576 80.754C84.1761 81.075 85.8239 81.075 87.424 80.754C88.183 80.598 88.939 80.361 89.674 80.055C90.376 79.755 91.066 79.383 91.711 78.951C92.335 78.525 92.932 78.033 93.484 77.484C94.033 76.938 94.525 76.341 94.951 75.708L99.925 79.059C99.283 80.019 98.542 80.919 97.723 81.732ZM88 69C88 69 89.5 63 95.5 63C101.497 63 103 69 103 69H88Z" fill="#F3F3F3"/>
</svg>
