<svg width="150" height="150" viewBox="0 0 150 150" fill="none" xmlns="http://www.w3.org/2000/svg">
<path fill-rule="evenodd" clip-rule="evenodd" d="M46.6054 71.5173L63.2661 88.1887L102.662 48.7923C103.258 48.1877 103.967 47.707 104.75 47.378C105.532 47.0489 106.371 46.878 107.22 46.875C108.069 46.8721 108.909 47.0372 109.694 47.3608C110.478 47.6844 111.191 48.1602 111.791 48.7606C112.39 49.361 112.865 50.0742 113.188 50.859C113.511 51.6439 113.675 52.4849 113.671 53.3335C113.667 54.1821 113.495 55.0215 113.165 55.8033C112.835 56.5851 112.353 57.2939 111.748 57.8887L67.8196 101.828C67.2241 102.428 66.5155 102.905 65.7349 103.23C64.9543 103.555 64.117 103.722 63.2714 103.722C62.4258 103.722 61.5886 103.555 60.808 103.23C60.0273 102.905 59.3188 102.428 58.7232 101.828L37.5089 80.6137C36.3027 79.4074 35.625 77.7714 35.625 76.0655C35.625 74.3596 36.3027 72.7235 37.5089 71.5173C38.1062 70.92 38.8153 70.4462 39.5957 70.1229C40.3761 69.7997 41.2125 69.6333 42.0571 69.6333C42.9018 69.6333 43.7382 69.7997 44.5186 70.1229C45.299 70.4462 46.0081 70.92 46.6054 71.5173Z" fill="#36CA68"/>
<rect x="5" y="5" width="140" height="140" rx="70" stroke="#36CA68" stroke-width="10"/>
</svg>
