<svg width="64" height="64" viewBox="0 0 64 64" fill="none" xmlns="http://www.w3.org/2000/svg">
<g clip-path="url(#clip0_1633_28425)">
<path fill-rule="evenodd" clip-rule="evenodd" d="M64 32C64 14.3269 49.6731 0 32 0C14.3269 0 0 14.3269 0 32C0 49.6731 14.3269 64 32 64C49.6731 64 64 49.6731 64 32ZM60.16 32C60.16 16.4477 47.5523 3.84 32 3.84C16.4477 3.84 3.84 16.4477 3.84 32C3.84 47.5523 16.4477 60.16 32 60.16C47.5523 60.16 60.16 47.5523 60.16 32ZM43.9751 24.9902C42.1283 22.2395 39.2516 21.8627 38.2263 21.8192C35.7781 21.5669 33.4492 23.2863 32.2066 23.2863C30.9672 23.2863 29.0499 21.8565 27.0194 21.894C24.3509 21.9344 21.8904 23.4733 20.5163 25.9059C17.7437 30.8027 19.8063 38.0572 22.5086 42.0286C23.829 43.9724 25.4036 46.156 27.4709 46.078C29.4617 45.9971 30.2145 44.7668 32.6214 44.7668C35.0283 44.7668 35.7048 46.078 37.8117 46.0377C39.9539 45.9972 41.3112 44.0565 42.6225 42.1066C44.1389 39.8514 44.7632 37.6679 44.8 37.5558C44.7524 37.5337 40.6226 35.9234 40.5812 31.0829C40.5415 27.0303 43.8282 25.0867 43.9751 24.9902ZM38.2584 14.08C36.6779 14.1455 34.7621 15.1516 33.6282 16.5034C32.6107 17.7027 31.7201 19.6167 31.9587 21.4545C33.7231 21.5947 35.5242 20.5419 36.6226 19.19C37.7198 17.8351 38.4604 15.9553 38.2584 14.08Z" fill="black"/>
</g>
<defs>
<clipPath id="clip0_1633_28425">
<rect width="64" height="64" fill="white"/>
</clipPath>
</defs>
</svg>
