<svg width="100" height="100" viewBox="0 0 100 100" fill="none" xmlns="http://www.w3.org/2000/svg">
<g clip-path="url(#clip0_1972_5031)">
<path d="M49.995 99.9901C77.6065 99.9901 99.9901 77.6065 99.9901 49.995C99.9901 22.3835 77.6065 0 49.995 0C22.3835 0 0 22.3835 0 49.995C0 77.6065 22.3835 99.9901 49.995 99.9901Z" fill="#35208A"/>
<path d="M50.1941 53.4454C49.0009 51.4567 45.2224 48.0263 41.792 47.6783C42.14 42.4779 42.4184 38.2321 42.7863 33.0317L40.3104 33.3499H34.3444L31.8188 33.0317C32.1668 38.2321 32.4552 42.4779 32.8131 47.6783C29.3529 48.0263 25.6042 51.4865 24.4011 53.4454C23.0807 55.5131 22.1838 57.8223 21.7622 60.2391C21.3406 62.656 21.4028 65.1325 21.9451 67.5251C23.4266 73.2525 28.627 78.065 34.5433 78.2838H40.032C45.9483 78.065 51.1586 73.2525 52.6302 67.5251C53.1782 65.134 53.245 62.6577 52.8268 60.2405C52.4086 57.8233 51.5136 55.5134 50.1941 53.4454Z" fill="#FA8D61"/>
<path d="M42.7567 32.8925C42.4684 32.2064 41.0167 31.6794 39.0479 31.5303C36.8454 31.2559 34.6093 31.4801 32.5052 32.1866C32.3297 32.2245 32.1688 32.3122 32.0419 32.4392C31.9149 32.5661 31.8272 32.727 31.7893 32.9025C31.7609 33.1704 31.8189 33.4403 31.9549 33.6729C32.0908 33.9054 32.2976 34.0884 32.545 34.1951C34.9115 35.4082 37.5166 35.1894 39.9726 34.9607C40.8633 34.9812 41.7304 34.6733 42.4087 34.0957C42.568 33.9439 42.6842 33.7525 42.7454 33.5411C42.8065 33.3298 42.8104 33.1059 42.7567 32.8925Z" fill="#96CBEB"/>
<path d="M34.0066 40.6682C33.0123 38.8386 29.8205 38.8088 28.0406 39.1369C26.8833 39.4279 25.8006 39.9601 24.8633 40.6986C23.926 41.4372 23.1553 42.3654 22.6016 43.4225C19.9865 47.9368 22.2735 53.863 25.4454 57.5221C26.221 58.4071 27.5832 57.2735 27.0364 56.2892C25.2267 53.0079 22.2934 48.9609 24.2025 45.0631C24.5663 44.2099 25.1006 43.4399 25.7725 42.8004C26.4445 42.1609 27.24 41.6654 28.1102 41.3443C28.8973 41.1324 29.7184 41.0783 30.5265 41.1852C31.3423 41.408 32.1428 41.6836 32.9228 42.0105C33.0944 42.0443 33.2721 42.0286 33.4352 41.9654C33.5982 41.9023 33.7401 41.7941 33.8442 41.6536C33.9483 41.5131 34.0104 41.3459 34.0233 41.1715C34.0362 40.997 33.9994 40.8225 33.9171 40.6682H34.0066Z" fill="#FA8D61"/>
<path d="M41.6526 42.0106C42.394 41.7035 43.1507 41.4347 43.9196 41.2051C44.7244 41.082 45.5455 41.1191 46.3359 41.3145C47.2342 41.621 48.0579 42.1132 48.7535 42.7591C49.449 43.4049 50.0008 44.19 50.3729 45.0632C52.282 48.9609 49.3785 53.0178 47.539 56.2892C47.0021 57.2835 48.3444 58.417 49.1299 57.5221C52.3019 53.863 54.5789 47.9467 51.9638 43.4225C51.4206 42.3868 50.6696 41.4742 49.7577 40.742C48.8458 40.0097 47.7926 39.4734 46.664 39.1668C44.904 38.779 41.6028 38.779 40.6185 40.6682C40.5362 40.8226 40.4994 40.9971 40.5123 41.1715C40.5252 41.3459 40.5873 41.5131 40.6914 41.6536C40.7955 41.7941 40.9373 41.9023 41.1004 41.9655C41.2635 42.0286 41.4412 42.0443 41.6128 42.0106H41.6526Z" fill="#FA8D61"/>
<path d="M24.5703 50.9197C24.8288 52.2422 25.3956 53.7536 26.7081 54.3403C28.2891 55.0462 29.5121 53.3459 31.0335 53.8331C32.3957 54.2309 33.1415 55.6428 34.623 55.8218C36.2935 56.0704 37.2083 54.8275 38.6699 54.3601C40.4001 53.8232 41.9115 55.3545 43.6416 55.4241C45.3717 55.4937 45.7496 53.5945 47.3704 53.4354C47.8383 53.4588 48.3038 53.3546 48.7172 53.134C49.1305 52.9133 49.4761 52.5844 49.717 52.1826C49.9443 51.786 50.053 51.3325 50.0301 50.8759C50.0072 50.4194 49.8536 49.979 49.5877 49.6072C49.4585 49.4382 49.2099 49.6072 49.2994 49.8359C49.4544 50.1129 49.5478 50.42 49.5734 50.7363C49.5989 51.0526 49.556 51.3707 49.4475 51.6689C49.3389 51.9672 49.1674 52.2385 48.9445 52.4644C48.7216 52.6903 48.4526 52.8655 48.1559 52.978C47.5493 53.157 46.903 52.978 46.3164 53.2266C45.9786 53.394 45.6855 53.6394 45.4612 53.9425C45.263 54.2594 44.9895 54.5223 44.6651 54.708C44.3407 54.8936 43.9755 54.9961 43.6018 55.0065C42.9108 54.956 42.2357 54.7738 41.6132 54.4695C41.1001 54.1736 40.5317 53.9865 39.9433 53.9198C39.3548 53.8531 38.7589 53.9082 38.1927 54.0817C36.7907 54.6883 35.7963 55.8914 34.1159 55.265C33.1216 54.8871 32.4255 53.9226 31.4113 53.505C30.9678 53.3751 30.5022 53.3381 30.0437 53.3962C29.5852 53.4544 29.1436 53.6065 28.7465 53.8431C26.3701 54.7479 25.5746 52.6499 24.8885 50.8601C24.8708 50.8268 24.8424 50.8004 24.808 50.7851C24.7735 50.7698 24.7349 50.7665 24.6984 50.7756C24.6618 50.7848 24.6293 50.8059 24.6061 50.8356C24.5829 50.8653 24.5703 50.9019 24.5703 50.9396V50.9197Z" fill="#35208A"/>
<path d="M19.3499 57.3928C18.5942 59.0335 19.8073 61.2409 21.0502 62.3645C22.5914 63.7466 24.3215 63.7168 26.171 63.0705C26.7676 62.8617 27.1057 62.6429 27.5233 63.15C27.9523 63.7779 28.4276 64.3728 28.9452 64.9299C29.6139 65.5192 30.4157 65.9375 31.2816 66.1488C32.1476 66.3601 33.0518 66.3581 33.9169 66.143C34.6994 65.9042 35.4357 65.5344 36.0944 65.0492C36.5916 64.7211 37.2876 64.0549 37.934 64.1444C38.5803 64.2339 39.2564 64.9001 39.8132 65.2282C40.9373 65.8924 42.2434 66.182 43.5429 66.0551C44.8423 65.9282 46.0678 65.3914 47.042 64.5222C47.3423 64.2403 47.6153 63.9307 47.8574 63.5975C48.0065 63.3986 48.2253 62.9412 48.444 62.8318C48.6628 62.7225 48.9313 62.9611 49.1997 63.0307C49.7406 63.1877 50.2978 63.2811 50.8603 63.3091C51.8616 63.3184 52.8491 63.0756 53.7318 62.6029C54.6146 62.1303 55.3641 61.443 55.9115 60.6045C56.9655 58.9639 57.3334 56.1201 55.7723 54.6385C55.5658 54.4459 55.3089 54.3159 55.0314 54.2636C54.7539 54.2112 54.4673 54.2387 54.2048 54.3429C53.9423 54.447 53.7148 54.6236 53.5488 54.8519C53.3827 55.0803 53.2848 55.3511 53.2666 55.6329C53.2666 56.9156 53.7936 58.1386 52.7197 59.1727C51.6458 60.2068 50.383 59.6798 49.0506 59.4611C47.0619 59.1329 46.2167 60.2665 45.1329 61.6088C44.8058 62.0071 44.3772 62.3096 43.8925 62.4847C43.4077 62.6597 42.8847 62.7006 42.3786 62.6031C41.0164 62.3546 40.0519 61.1017 38.6598 60.8233C37.9025 60.7292 37.134 60.7938 36.403 61.0129C35.672 61.232 34.9947 61.6009 34.414 62.096C33.4197 62.7622 32.3458 63.3191 31.262 62.5037C30.1782 61.6884 29.8997 60.515 28.7264 59.8488C27.8724 59.4531 26.9025 59.3858 26.002 59.6599C25.3687 59.951 24.7002 60.1583 24.0133 60.2764C22.3428 60.1869 22.3031 57.6017 20.9806 56.9553C20.7163 56.8021 20.4024 56.759 20.1066 56.8353C19.8108 56.9115 19.5568 57.1011 19.3996 57.363L19.3499 57.3928Z" fill="#996666"/>
<path d="M20.1953 62.275C20.4663 63.7227 21.2632 65.0189 22.4326 65.9143C23.8147 66.7993 24.9383 66.1231 26.3502 65.7651C28.4483 65.2183 28.846 67.366 30.2182 68.3604C30.7484 68.7444 31.3653 68.9917 32.014 69.0801C32.6627 69.1686 33.3233 69.0956 33.937 68.8675C35.5379 68.2609 36.8106 66.4314 38.68 67.1274C40.082 67.6444 41.0266 68.768 42.6573 68.8675C43.8983 68.9474 45.1216 68.5408 46.0678 67.7339C46.6346 67.2467 46.9429 66.5606 47.4699 66.0436C48.3946 65.1487 49.8165 66.0436 50.9202 66.0436C51.6646 66.0575 52.4002 65.8812 53.0575 65.5314C53.7147 65.1816 54.2718 64.6698 54.676 64.0446C55.0803 63.4193 55.3182 62.7012 55.3674 61.9583C55.4166 61.2154 55.2754 60.4722 54.9572 59.7992C54.8577 59.6003 54.5197 59.7395 54.5992 59.9483C54.9503 60.7268 55.0518 61.595 54.8898 62.4335C54.7278 63.2721 54.3102 64.0399 53.6944 64.6316C52.9999 65.2376 52.1195 65.5884 51.1986 65.6259C50.3577 65.5443 49.5258 65.3879 48.7128 65.1586C47.4699 65.0194 46.9627 65.9938 46.2866 66.839C45.7834 67.4524 45.121 67.9152 44.3719 68.1765C43.6229 68.4379 42.8163 68.4878 42.0408 68.3206C40.6686 68.0422 39.7737 66.8788 38.4214 66.6203C37.8865 66.5593 37.3448 66.611 36.831 66.772C36.3173 66.9329 35.8429 67.1996 35.4384 67.5549C34.0165 68.5493 32.4554 69.2055 30.8247 68.2609C29.7011 67.6146 29.3432 66.2723 28.2792 65.5762C27.2153 64.8802 25.9127 65.5762 24.7295 65.9044C22.2536 66.5208 21.3388 63.9754 20.5234 62.2054C20.4439 62.0364 20.1953 62.2054 20.2351 62.3248L20.1953 62.275Z" fill="white"/>
<path d="M21.2887 68.3703C21.8157 70.4286 24.1523 71.6715 26.0515 72.1488C27.1044 72.4383 28.2092 72.4859 29.2831 72.288C29.6087 72.178 29.9408 72.0883 30.2774 72.0195C30.622 71.9788 30.9713 72.0289 31.2905 72.165C31.6097 72.3011 31.8878 72.5183 32.0971 72.7951C32.5478 73.2788 33.0881 73.6706 33.688 73.9485C34.8427 74.4561 36.1472 74.5059 37.3372 74.0877C38.9579 73.501 40.3202 72.2084 42.1199 72.5266C43.4722 72.7652 44.6952 73.5209 46.0973 73.2922C47.4346 73.0877 48.7127 72.5995 49.8459 71.8604C52.1329 70.4385 54.6585 68.3305 54.9965 65.5066C54.9965 65.2282 54.6087 65.2381 54.569 65.5066C54.2209 68.1316 51.7451 70.1501 49.5973 71.4726C48.5301 72.1728 47.3274 72.6404 46.0674 72.8448C44.5759 73.0536 43.2733 72.1885 41.8216 72.0493C40.7016 72.0109 39.597 72.32 38.6596 72.9343C37.2477 73.69 35.8357 74.2468 34.2349 73.6999C33.5238 73.4459 32.8831 73.0267 32.3655 72.4769C32.0743 72.0932 31.6914 71.7889 31.2519 71.5919C30.7131 71.4935 30.1573 71.5522 29.651 71.761C29.102 71.9226 28.533 72.0063 27.9606 72.0095C26.6481 72.0282 25.3546 71.695 24.2145 71.0445C23.0744 70.394 22.1293 69.45 21.4776 68.3106C21.4279 68.2013 21.2588 68.3106 21.2887 68.3902V68.3703Z" fill="#35208A"/>
<path d="M76.8518 57.5719C76.3248 57.4824 75.8077 57.5719 75.2807 57.5023C74.4356 57.4129 73.6565 57.0038 73.1031 56.3588C72.0995 55.0734 71.6423 53.4445 71.8304 51.8246C71.9596 48.9013 72.5065 46.0078 72.5861 43.0745C72.7452 37.6554 71.6812 32.1965 67.8232 28.1595C63.9652 24.1225 58.9239 22.462 53.6938 21.8753C47.6705 21.0594 41.5619 22.559 36.6012 26.0714C34.6646 27.4205 33.1344 29.2739 32.1764 31.4309C32.0015 31.7465 31.8928 32.0944 31.8569 32.4534C31.821 32.8124 31.8587 33.175 31.9676 33.519C32.4003 34.0295 32.9922 34.3798 33.648 34.5133C35.8361 35.2319 38.1814 35.3249 40.4194 34.7818C41.1282 34.6448 41.8037 34.3712 42.4081 33.9764C42.5618 33.8149 42.6893 33.6304 42.7859 33.4295C43.187 32.7473 43.7825 32.2003 44.4962 31.8584C46.8726 30.7945 49.6369 32.3258 51.3471 33.9366C53.3666 35.9041 54.787 38.4036 55.4438 41.1455C55.9158 43.7272 55.9963 46.3652 55.6824 48.9709C55.4637 52.2522 54.9466 55.4838 54.5091 58.7352C53.9685 61.8228 53.7883 64.9627 53.9722 68.0919C54.0235 69.2541 54.3151 70.3931 54.8285 71.437C55.3419 72.4809 56.066 73.4072 56.9552 74.1573C57.8434 74.8502 58.8865 75.3171 59.9949 75.5181C61.1034 75.719 62.244 75.6478 63.3189 75.3108C63.8331 75.1859 64.3139 74.9505 64.7279 74.6207C65.1418 74.291 65.4788 73.875 65.7154 73.4017C65.9521 72.9284 66.0827 72.4092 66.0981 71.8803C66.1135 71.3513 66.0134 70.8254 65.8047 70.3391C65.6456 69.6033 65.4667 68.8774 65.2877 68.1516C66.6002 70.4485 68.8673 72.1289 71.6812 71.1942C72.3629 70.9882 72.9697 70.5878 73.4271 70.0421C73.8846 69.4963 74.1728 68.8289 74.2565 68.1217C74.2769 67.3307 74.1396 66.5436 73.8529 65.8062C73.5661 65.0687 73.1354 64.3957 72.5861 63.8262C73.4634 64.2204 74.4481 64.3072 75.3809 64.0727C76.3137 63.8381 77.1402 63.2959 77.7268 62.5336C78.8404 61.0421 78.9995 58.258 76.8518 57.5719Z" fill="#96CBEB"/>
<path d="M39.1962 34.0957C39.6629 32.2171 40.8299 30.588 42.4584 29.5417C44.0869 28.4955 46.0537 28.1113 47.9563 28.4677C52.033 29.1041 55.4834 32.1368 57.5814 35.5573C59.6274 39.1901 60.6127 43.3242 60.4252 47.4893C60.4252 51.7948 59.3016 56.0306 59.3811 60.3261C59.4408 63.8759 60.7235 67.9726 64.144 69.643C64.1902 69.6707 64.2454 69.6789 64.2976 69.6659C64.3498 69.6528 64.3947 69.6196 64.4224 69.5734C64.4501 69.5273 64.4583 69.472 64.4453 69.4198C64.4322 69.3676 64.399 69.3227 64.3528 69.295C60.2263 66.8788 59.5502 62.0165 59.938 57.6414C60.3258 53.2664 61.1511 48.8515 60.7533 44.3671C60.4845 40.3129 58.9899 36.436 56.4678 33.2505C54.0416 30.3271 50.5018 27.9407 46.5244 27.9407C43.094 27.9407 39.1664 30.3669 38.9277 34.0658C38.9277 34.0975 38.9403 34.1278 38.9627 34.1502C38.9851 34.1726 39.0154 34.1851 39.0471 34.1851C39.0787 34.1851 39.109 34.1726 39.1314 34.1502C39.1538 34.1278 39.1664 34.0975 39.1664 34.0658L39.1962 34.0957Z" fill="white"/>
<path d="M35.5171 33.3598C36.3122 31.4724 37.5113 29.782 39.0299 28.4077C40.5485 27.0335 42.3497 26.0086 44.307 25.4052C46.4223 24.789 48.6421 24.6167 50.8272 24.8991C53.0122 25.1814 55.1154 25.9123 57.0046 27.0458C60.7519 29.3047 63.6173 32.7734 65.1283 36.8798C66.8485 41.3841 66.6596 46.137 66.8385 50.8601C66.9777 54.8374 67.2562 60.9426 71.3627 63.0009C71.6014 63.1202 71.8201 62.7622 71.5716 62.633C69.4039 61.4696 68.4692 59.1031 67.9522 56.8062C67.4439 54.1857 67.2007 51.5207 67.2263 48.8515C67.1368 44.1782 66.938 39.5943 64.9195 35.2888C61.3498 27.6524 52.6395 22.3625 44.1876 25.0074C42.1603 25.6351 40.2973 26.7043 38.7327 28.1382C37.1681 29.5722 35.9408 31.3351 35.1392 33.3002C35.0398 33.5388 35.4276 33.6482 35.5171 33.4095V33.3598Z" fill="white"/>
<path d="M61.9167 37.4764C62.1156 38.3415 62.5332 39.1568 62.742 40.0318C62.9536 40.8964 63.0867 41.7783 63.1397 42.6668C63.2326 44.4656 63.1661 46.2691 62.9409 48.0561C62.5531 51.6755 62.1255 55.2153 62.6923 58.8446C63.1298 61.6685 63.9352 64.9299 66.1526 66.9186C67.9125 68.4996 70.6967 69.0266 72.6157 67.4555C72.7748 67.3263 72.6157 67.0478 72.397 67.1672C69.7123 69.1558 66.431 67.2765 64.9892 64.7509C63.3585 61.9469 62.8613 58.3474 62.8116 55.1656C62.7619 51.9837 63.4679 48.5533 63.5971 45.2223C63.6618 43.8356 63.5818 42.446 63.3585 41.0759C63.2311 39.7568 62.7653 38.493 62.0062 37.4068C62.0062 37.4068 61.9068 37.4068 61.9167 37.4665V37.4764Z" fill="white"/>
<path d="M69.3844 41.6923C69.0996 42.6597 68.982 43.6685 69.0364 44.6753C69.0364 45.7293 69.0364 46.7833 69.106 47.8373C69.2641 49.9581 69.6237 52.0589 70.1798 54.1116C70.9654 57.015 72.8745 60.9028 76.5436 60.2366C76.7623 60.2366 76.7126 59.8091 76.4839 59.8389C72.2978 60.2864 70.8958 55.6031 70.1898 52.3715C69.8023 50.5711 69.5629 48.7421 69.4739 46.9026C69.4739 46.0376 69.4739 45.1725 69.4739 44.3074C69.5583 43.4378 69.5583 42.562 69.4739 41.6923C69.4739 41.6327 69.3844 41.6923 69.3645 41.6923H69.3844Z" fill="white"/>
<path d="M58.0191 51.8942C57.1896 53.979 56.7352 56.194 56.6767 58.4369C56.509 60.7231 56.5957 63.0208 56.9352 65.2879C57.4026 68.3604 58.8444 73.6602 63.0703 72.7653C63.2791 72.7155 63.2393 72.3476 63.0703 72.3775C58.4367 72.9641 57.5219 66.9186 57.2037 63.5876C57.0148 61.63 57.0148 59.6587 57.2037 57.7011C57.4026 55.7125 57.9594 53.863 58.198 51.924C58.198 51.8644 58.0986 51.8445 58.0688 51.924L58.0191 51.8942Z" fill="white"/>
<path d="M57.1445 40.6383C57.1445 42.0403 57.6715 43.4324 57.7809 44.8344C57.8903 46.2364 57.6715 47.4893 57.8505 48.7223C57.8505 48.8515 58.0494 48.8217 58.0891 48.7223C58.414 47.3082 58.4411 45.8419 58.1687 44.4168C58.1264 43.0865 57.8081 41.7795 57.234 40.5787H57.1445V40.6383Z" fill="white"/>
<path d="M68.6088 35.5176C68.7281 36.3329 68.9269 37.1185 69.0065 37.9437C69.086 38.769 69.0065 39.3955 69.0761 40.1213C69.0761 40.2904 69.3644 40.35 69.4042 40.1213C69.6623 38.5169 69.4731 36.8723 68.8573 35.3684C68.7977 35.2193 68.5889 35.3684 68.6088 35.4778V35.5176Z" fill="white"/>
<path d="M56.9457 30.8243C57.5622 31.4806 58.2681 32.0275 58.8349 32.7434C59.436 33.5086 59.9248 34.3557 60.2866 35.259C60.396 35.5076 60.8037 35.3982 60.7043 35.1497C60.0509 33.2751 58.7498 31.6955 57.0352 30.6951C57.0181 30.6868 56.9986 30.6849 56.9802 30.6897C56.9619 30.6945 56.9458 30.7057 56.935 30.7213C56.9242 30.737 56.9194 30.7559 56.9213 30.7748C56.9233 30.7937 56.9319 30.8112 56.9457 30.8243Z" fill="white"/>
<path d="M54.3605 23.864C55.8923 24.047 57.4081 24.3462 58.8946 24.7589C60.341 25.24 61.7032 25.9445 62.9316 26.847C65.3748 28.7078 67.184 31.2775 68.1121 34.205C68.2016 34.4735 68.6192 34.3641 68.5297 34.0956C67.5992 31.1793 65.8196 28.607 63.4188 26.7077C61.0424 24.8583 57.4528 23.2276 54.3903 23.5955C54.271 23.5955 54.2113 23.8043 54.3903 23.8341L54.3605 23.864Z" fill="white"/>
<path d="M87.6601 23.4464C87.6746 23.4079 87.6746 23.3655 87.6601 23.327C87.3717 22.7702 86.2979 22.6608 85.7609 22.5614C84.8859 22.3824 83.991 22.283 83.1061 22.1637L82.6686 22.104C82.6089 22.104 82.5095 22.0443 82.5194 22.104C82.4092 21.9082 82.3193 21.7016 82.2509 21.4875C81.883 20.6324 81.535 19.7673 81.1572 18.9122C80.9682 18.4846 80.7793 18.0471 80.5705 17.6295C80.4412 17.361 80.302 16.8738 80.0037 16.7446C79.3574 16.4562 78.91 18.0571 78.731 18.4449C78.3233 19.3696 77.9355 20.2943 77.5378 21.229C77.4526 21.5431 77.3184 21.8417 77.1401 22.114C76.859 22.1404 76.576 22.1404 76.2949 22.114L75.1116 22.2134C74.4406 22.2601 73.7751 22.3666 73.123 22.5316C72.7352 22.6509 72.0292 22.8398 72.1286 23.3768C72.2281 23.9137 72.8644 24.2418 73.123 24.4904C73.6495 24.9033 74.2044 25.2788 74.7835 25.614C75.0763 25.7412 75.3589 25.8908 75.6287 26.0615C75.9369 26.2901 75.7878 26.5387 75.7082 26.8669C75.5292 27.5331 75.3503 28.2092 75.1812 28.8555C75.0122 29.5018 74.9227 29.9692 74.8332 30.526C74.7339 30.9108 74.7339 31.3145 74.8332 31.6993C75.2409 32.5644 76.8219 31.053 77.1798 30.705C77.5378 30.357 78.1145 29.9692 78.562 29.5814C78.7907 29.3925 79.0094 29.1936 79.2182 28.9947C79.427 28.7959 79.6557 28.4578 79.8148 28.4379C79.9739 28.418 80.7495 29.2234 80.9583 29.4322C81.4223 29.83 81.8996 30.2178 82.3901 30.5956C83.012 31.2255 83.797 31.6697 84.6572 31.8783C85.4328 31.9479 85.0649 30.7845 84.9655 30.3271C84.7169 29.2433 84.3589 28.1694 84.0407 27.1055C83.9711 26.8768 83.8816 26.6382 83.8319 26.3995C83.7822 26.1609 83.8319 26.1609 84.001 26.0316C84.4285 25.7731 84.9456 25.614 85.3831 25.3953C86.099 25.0373 87.5209 24.4009 87.7297 23.4961C87.7104 23.4746 87.6866 23.4577 87.6601 23.4464Z" fill="#FFF896"/>
<path d="M52.2028 87.1731C50.9897 87.0737 49.7667 87.0836 48.5437 87.0936L49.538 86.0992C50.1208 85.6023 50.6239 85.0188 51.0295 84.3691C51.0678 84.305 51.0839 84.23 51.0751 84.1558C51.0663 84.0816 51.0332 84.0125 50.981 83.9591C50.9287 83.9057 50.8603 83.8711 50.7863 83.8608C50.7123 83.8504 50.637 83.8648 50.5721 83.9018C49.9107 84.2994 49.3139 84.7957 48.8022 85.3734L47.7482 86.3677V84.8861C47.8074 84.1197 47.7505 83.3486 47.5792 82.5992C47.5579 82.5301 47.5151 82.4696 47.4569 82.4266C47.3987 82.3836 47.3283 82.3604 47.256 82.3604C47.1837 82.3604 47.1133 82.3836 47.0551 82.4266C46.9969 82.4696 46.9541 82.5301 46.9329 82.5992C46.7452 83.3461 46.6714 84.1172 46.7141 84.8861C46.7141 85.3734 46.7141 85.8805 46.7141 86.3677L45.7198 85.3038C45.2193 84.7207 44.6324 84.2177 43.9797 83.8123C43.9157 83.7782 43.8425 83.7655 43.7708 83.7762C43.6991 83.7868 43.6328 83.8203 43.5815 83.8715C43.5303 83.9228 43.4969 83.9891 43.4862 84.0608C43.4755 84.1325 43.4882 84.2057 43.5223 84.2697C43.9163 84.9308 44.4092 85.5277 44.984 86.0396L45.9783 87.0936H44.4868C43.7203 87.0351 42.9494 87.0921 42.1998 87.2626C42.132 87.2866 42.0732 87.331 42.0316 87.3898C41.9901 87.4485 41.9678 87.5187 41.9678 87.5907C41.9678 87.6627 41.9901 87.7329 42.0316 87.7917C42.0732 87.8504 42.132 87.8949 42.1998 87.9189C42.9482 88.0979 43.7184 88.1682 44.4868 88.1277H45.9385C45.0436 88.9728 44.1487 89.818 43.3533 90.7328C43.2596 90.8264 43.207 90.9534 43.207 91.0858C43.207 91.2182 43.2596 91.3452 43.3533 91.4388C43.4469 91.5324 43.5739 91.585 43.7062 91.585C43.8386 91.585 43.9656 91.5324 44.0592 91.4388C44.984 90.6632 45.8291 89.7981 46.6743 88.9331C46.6743 90.1462 46.6147 91.3692 46.6743 92.5624C46.6974 92.6772 46.7595 92.7806 46.8502 92.8548C46.9408 92.929 47.0543 92.9696 47.1715 92.9696C47.2886 92.9696 47.4022 92.929 47.4928 92.8548C47.5834 92.7806 47.6456 92.6772 47.6687 92.5624C47.7681 91.3692 47.7581 90.1561 47.7482 88.943C48.5834 89.828 49.4187 90.7129 50.3235 91.4985C50.4171 91.5921 50.5441 91.6447 50.6765 91.6447C50.8089 91.6447 50.9359 91.5921 51.0295 91.4985C51.1231 91.4048 51.1757 91.2779 51.1757 91.1455C51.1757 91.0131 51.1231 90.8861 51.0295 90.7925C50.2406 89.8775 49.4042 89.0046 48.5238 88.1774C49.7369 88.1774 50.9599 88.247 52.163 88.1774C52.2852 88.1658 52.399 88.1102 52.4834 88.0211C52.5677 87.9319 52.6168 87.8152 52.6217 87.6926C52.6266 87.57 52.5868 87.4498 52.5098 87.3542C52.4327 87.2587 52.3237 87.1944 52.2028 87.1731Z" fill="white"/>
<path d="M30.1378 12.6579C30.3032 12.6579 30.4669 12.6251 30.6196 12.5616C30.7722 12.498 30.9108 12.4048 31.0272 12.2874C31.1437 12.17 31.2358 12.0307 31.2982 11.8776C31.3605 11.7244 31.392 11.5604 31.3907 11.3951C31.3855 11.0644 31.2519 10.7487 31.018 10.5148C30.7842 10.281 30.4685 10.1473 30.1378 10.1422C29.8033 10.1454 29.4829 10.2771 29.2429 10.5101C29.0156 10.7498 28.8846 11.0649 28.875 11.3951C28.8826 11.7276 29.0181 12.0444 29.2533 12.2796C29.4885 12.5148 29.8053 12.6503 30.1378 12.6579Z" fill="white"/>
<path d="M51.8245 18.3951C52.1311 18.3675 52.4163 18.2262 52.624 17.999C52.8317 17.7717 52.9469 17.475 52.9469 17.1671C52.9469 16.8593 52.8317 16.5626 52.624 16.3353C52.4163 16.1081 52.1311 15.9668 51.8245 15.9391C51.5179 15.9668 51.2327 16.1081 51.025 16.3353C50.8173 16.5626 50.7021 16.8593 50.7021 17.1671C50.7021 17.475 50.8173 17.7717 51.025 17.999C51.2327 18.2262 51.5179 18.3675 51.8245 18.3951Z" fill="white"/>
<path d="M63.9953 12.2403C64.3461 12.2403 64.6824 12.1009 64.9304 11.8529C65.1784 11.6049 65.3178 11.2685 65.3178 10.9178C65.3178 10.5671 65.1784 10.2307 64.9304 9.98268C64.6824 9.73467 64.3461 9.59534 63.9953 9.59534C63.6446 9.59534 63.3082 9.73467 63.0602 9.98268C62.8122 10.2307 62.6729 10.5671 62.6729 10.9178C62.6729 11.2685 62.8122 11.6049 63.0602 11.8529C63.3082 12.1009 63.6446 12.2403 63.9953 12.2403Z" fill="white"/>
<path d="M80.8788 42.4977C80.7007 42.6789 80.5752 42.905 80.5156 43.1519C80.4561 43.3989 80.4647 43.6574 80.5407 43.8997C80.6069 44.137 80.7332 44.3532 80.9074 44.5274C81.0816 44.7016 81.2977 44.8279 81.535 44.8941C81.7308 44.9433 81.9358 44.9433 82.1316 44.8941C82.2938 44.8767 82.4507 44.8263 82.5927 44.7459C82.7346 44.6656 82.8586 44.5569 82.9569 44.4267C83.08 44.2742 83.165 44.0945 83.2048 43.9026C83.2445 43.7106 83.238 43.5119 83.1856 43.323C83.1517 43.1961 83.0929 43.0771 83.0127 42.973C82.9324 42.8689 82.8324 42.7817 82.7183 42.7165C82.6024 42.6484 82.474 42.6044 82.3407 42.5873C82.2074 42.5702 82.072 42.5804 81.9427 42.6171H82.2112H82.1316H82.42L82.6884 42.7364C82.5492 42.6767 82.41 42.6071 82.2708 42.5574L82.5592 42.6767C82.5296 42.6819 82.4993 42.6819 82.4697 42.6767L82.7183 42.8656L82.9072 43.1142L83.0265 43.4125C83.0265 43.4125 83.0265 43.4125 83.0265 43.3628V43.6909V44.0191C83.0369 43.89 83.0369 43.7603 83.0265 43.6313C83.0265 43.7506 83.0265 43.86 83.0265 43.9694C83.0206 43.9465 83.0206 43.9226 83.0265 43.8997L82.8973 44.198C83.0964 43.9343 83.1825 43.6023 83.1369 43.2751C83.0912 42.9478 82.9174 42.6521 82.6536 42.453C82.3899 42.2539 82.0579 42.1677 81.7307 42.2134C81.4034 42.2591 81.1077 42.4329 80.9086 42.6966L80.8788 42.4977Z" fill="white"/>
<path d="M90.9816 59.9483C91.1783 59.9483 91.3705 59.89 91.5341 59.7807C91.6976 59.6715 91.825 59.5162 91.9003 59.3345C91.9755 59.1528 91.9952 58.9529 91.9569 58.76C91.9185 58.5671 91.8238 58.3899 91.6847 58.2509C91.5457 58.1118 91.3685 58.0171 91.1756 57.9788C90.9827 57.9404 90.7828 57.9601 90.6011 58.0353C90.4194 58.1106 90.2641 58.238 90.1549 58.4016C90.0456 58.5651 89.9873 58.7573 89.9873 58.954C89.9873 59.2177 90.0921 59.4706 90.2785 59.6571C90.465 59.8436 90.7179 59.9483 90.9816 59.9483Z" fill="white"/>
<path d="M82.0822 73.3917H82.2512C82.5501 73.3644 82.8281 73.2264 83.0305 73.0047C83.2329 72.783 83.3451 72.4937 83.3451 72.1935C83.3451 71.8934 83.2329 71.604 83.0305 71.3823C82.8281 71.1606 82.5501 71.0226 82.2512 70.9954H82.0822C81.7832 71.0226 81.5053 71.1606 81.3029 71.3823C81.1005 71.604 80.9883 71.8934 80.9883 72.1935C80.9883 72.4937 81.1005 72.783 81.3029 73.0047C81.5053 73.2264 81.7832 73.3644 82.0822 73.3917Z" fill="white"/>
<path d="M69.0064 91.409V91.3195C68.9604 91.1498 68.8766 90.9928 68.7612 90.8602C68.6458 90.7276 68.5019 90.6228 68.3402 90.5538L68.0916 90.4842C67.89 90.4239 67.677 90.4114 67.4697 90.4479C67.2624 90.4843 67.0664 90.5687 66.8974 90.6942C66.7285 90.8197 66.5911 90.9829 66.4964 91.1709C66.4016 91.3589 66.352 91.5664 66.3516 91.7769C66.3548 92.0114 66.4176 92.2412 66.5342 92.4447C66.6507 92.6482 66.8171 92.8188 67.0178 92.9402C67.2495 93.076 67.5164 93.1397 67.7845 93.1232C68.0526 93.1067 68.3098 93.0108 68.5231 92.8475C68.7364 92.6843 68.8963 92.4613 68.9824 92.2069C69.0685 91.9524 69.0769 91.6781 69.0064 91.4189V91.409Z" fill="white"/>
<path d="M32.2856 84.1503C32.2283 83.9438 32.1185 83.7556 31.9669 83.604C31.8153 83.4524 31.6271 83.3426 31.4206 83.2853C31.1492 83.2086 30.86 83.2242 30.5984 83.3297C30.3369 83.4352 30.1178 83.6246 29.9755 83.8681C29.8333 84.1116 29.7759 84.3955 29.8125 84.6752C29.8491 84.9548 29.9775 85.2144 30.1777 85.4131C30.3594 85.587 30.5879 85.704 30.8352 85.7499C31.0824 85.7959 31.3377 85.7687 31.5697 85.6717C31.853 85.5524 32.0835 85.3347 32.2188 85.0587C32.354 84.7827 32.3848 84.4671 32.3055 84.1702L32.2856 84.1503Z" fill="white"/>
<path d="M11.3552 64.0052C11.7079 64.0002 12.0455 63.8616 12.2998 63.6174C12.5494 63.3643 12.6893 63.0232 12.6893 62.6678C12.6893 62.3124 12.5494 61.9712 12.2998 61.7182C12.0455 61.474 11.7079 61.3354 11.3552 61.3304C11.1699 61.3144 10.9833 61.3371 10.8072 61.3971C10.6311 61.457 10.4694 61.5529 10.3324 61.6786C10.1953 61.8044 10.0858 61.9572 10.011 62.1275C9.93612 62.2978 9.89746 62.4818 9.89746 62.6678C9.89746 62.8538 9.93612 63.0378 10.011 63.2081C10.0858 63.3783 10.1953 63.5312 10.3324 63.6569C10.4694 63.7827 10.6311 63.8786 10.8072 63.9385C10.9833 63.9985 11.1699 64.0212 11.3552 64.0052Z" fill="white"/>
<path d="M18.5639 50.3331C18.5639 50.0166 18.4382 49.7131 18.2144 49.4894C17.9907 49.2656 17.6872 49.1399 17.3707 49.1399C17.1307 49.145 16.8972 49.2189 16.698 49.3529C16.4988 49.4868 16.3423 49.6752 16.2471 49.8956C16.1525 50.1181 16.1265 50.3639 16.1726 50.6013C16.2187 50.8387 16.3346 51.057 16.5056 51.228C16.6616 51.374 16.8512 51.4794 17.0575 51.5349C17.2639 51.5904 17.4807 51.5943 17.6889 51.5462C17.9457 51.4703 18.1717 51.3149 18.3344 51.1022C18.497 50.8895 18.5878 50.6306 18.5937 50.3629L18.5639 50.3331Z" fill="white"/>
<path d="M12.2996 27.5032C12.4456 27.5859 12.6031 27.6462 12.7669 27.6822C12.9839 27.7323 13.211 27.7142 13.4174 27.6306C13.6238 27.547 13.7994 27.4018 13.9204 27.2149C14.0171 27.058 14.0684 26.8772 14.0684 26.6929C14.0684 26.5085 14.0171 26.3278 13.9204 26.1708L13.7613 25.962C13.6711 25.8591 13.554 25.7833 13.4232 25.7433C13.2084 25.6568 12.9721 25.6395 12.747 25.6936C12.5832 25.7296 12.4257 25.7899 12.2797 25.8725C12.1484 25.9642 12.0412 26.0862 11.9672 26.2281C11.8932 26.3701 11.8545 26.5278 11.8545 26.6879C11.8545 26.848 11.8932 27.0057 11.9672 27.1477C12.0412 27.2896 12.1484 27.4116 12.2797 27.5032H12.2996Z" fill="white"/>
<path d="M27.9806 35.0601C28.1549 35.0284 28.3177 34.9507 28.4519 34.835C28.5862 34.7193 28.687 34.5698 28.7441 34.4019C28.8012 34.2341 28.8123 34.0541 28.7764 33.8806C28.7406 33.707 28.6589 33.5462 28.54 33.4147C28.4211 33.2833 28.2692 33.1861 28.1001 33.133C27.931 33.08 27.7508 33.0732 27.5781 33.1132C27.4054 33.1533 27.2466 33.2387 27.1181 33.3607C26.9895 33.4828 26.896 33.6369 26.847 33.8073C26.8116 33.9701 26.8175 34.1391 26.8644 34.299C26.9113 34.4588 26.9977 34.6043 27.1155 34.7221C27.2332 34.8399 27.3787 34.9262 27.5386 34.9731C27.6984 35.02 27.8675 35.026 28.0303 34.9905L27.9806 35.0601Z" fill="white"/>
<path d="M33.0416 22.2731C33.3943 22.2434 33.7231 22.0823 33.9626 21.8217C34.2022 21.5611 34.3352 21.2201 34.3352 20.8661C34.3352 20.5121 34.2022 20.171 33.9626 19.9105C33.7231 19.6499 33.3943 19.4888 33.0416 19.4591C32.6889 19.4888 32.3602 19.6499 32.1206 19.9105C31.881 20.171 31.748 20.5121 31.748 20.8661C31.748 21.2201 31.881 21.5611 32.1206 21.8217C32.3602 22.0823 32.6889 22.2434 33.0416 22.2731Z" fill="#F7B9E7"/>
<path d="M8.44179 43.3827C8.6606 43.3143 8.8708 43.2209 9.06822 43.1043C9.25369 42.9942 9.40733 42.8378 9.51405 42.6504C9.62076 42.463 9.67688 42.2511 9.67688 42.0354C9.67688 41.8197 9.62076 41.6078 9.51405 41.4204C9.40733 41.233 9.25369 41.0765 9.06822 40.9665C8.86917 40.8504 8.65939 40.7539 8.44179 40.6781C8.20254 40.6125 7.9501 40.612 7.7106 40.6767C7.4711 40.7414 7.25323 40.8689 7.07955 41.046C6.8206 41.3125 6.67455 41.6688 6.67188 42.0404C6.67949 42.4109 6.82482 42.7654 7.07955 43.0347C7.25427 43.2101 7.47261 43.3357 7.71206 43.3987C7.95151 43.4616 8.20341 43.4595 8.44179 43.3927V43.3827Z" fill="#F7B9E7"/>
<path d="M67.3956 82.0722C67.4649 81.8555 67.4649 81.6227 67.3956 81.406C67.3956 81.3463 67.326 81.237 67.3161 81.1972C67.2146 80.9563 67.0446 80.7506 66.8271 80.6056C66.6097 80.4606 66.3544 80.3828 66.093 80.3818C65.8613 80.3866 65.6345 80.4491 65.4331 80.5637C65.2317 80.6783 65.062 80.8413 64.9396 81.0381C64.8273 81.2458 64.7686 81.4782 64.7686 81.7142C64.7686 81.9503 64.8273 82.1827 64.9396 82.3904C65.0761 82.6142 65.2747 82.7935 65.5113 82.9065C65.7478 83.0195 66.0121 83.0613 66.272 83.0268C66.5008 82.994 66.7169 82.9014 66.8984 82.7583C67.124 82.5839 67.2907 82.3444 67.3757 82.0722H67.3956Z" fill="#F7B9E7"/>
<path d="M20.0163 83.5239H20.1655C20.4372 83.4397 20.6749 83.2708 20.8437 83.0418C21.0125 82.8127 21.1036 82.5357 21.1036 82.2512C21.1036 81.9667 21.0125 81.6896 20.8437 81.4606C20.6749 81.2316 20.4372 81.0626 20.1655 80.9784H20.0163C19.8185 80.9292 19.612 80.9256 19.4126 80.9681C19.2131 81.0105 19.026 81.0978 18.8654 81.2234C18.7047 81.3489 18.5748 81.5094 18.4854 81.6927C18.3961 81.8759 18.3496 82.0771 18.3496 82.281C18.3496 82.4849 18.3961 82.6861 18.4854 82.8694C18.5748 83.0526 18.7047 83.2131 18.8654 83.3387C19.026 83.4642 19.2131 83.5515 19.4126 83.594C19.612 83.6364 19.8185 83.6328 20.0163 83.5836V83.5239Z" fill="#F7B9E7"/>
<path d="M93.1591 40.5588L93.2586 40.2506C93.3149 40.035 93.3137 39.8085 93.255 39.5935C93.1964 39.3786 93.0823 39.1829 92.9243 39.0259C92.7662 38.8688 92.5698 38.756 92.3545 38.6987C92.1392 38.6415 91.9126 38.6417 91.6975 38.6994L91.3892 38.7988C91.1533 38.8676 90.9384 38.9948 90.7646 39.1686C90.5908 39.3424 90.4637 39.5572 90.3949 39.7932C90.3279 40.037 90.3267 40.2942 90.3914 40.5387C90.4561 40.7831 90.5843 41.0061 90.7631 41.1849C90.9419 41.3637 91.1649 41.492 91.4093 41.5566C91.6538 41.6213 91.911 41.6201 92.1549 41.5531C92.3896 41.4819 92.6031 41.3539 92.7766 41.1805C92.95 41.0071 93.078 40.7935 93.1492 40.5588H93.1591Z" fill="#F7B9E7"/>
</g>
<defs>
<clipPath id="clip0_1972_5031">
<rect width="100" height="100" fill="white"/>
</clipPath>
</defs>
</svg>
