<svg width="180" height="180" viewBox="0 0 180 180" fill="none" xmlns="http://www.w3.org/2000/svg">
<g clip-path="url(#clip0_2288_5915)">
<path d="M177.482 89.991C177.482 138.311 138.311 177.482 89.991 177.482C41.6711 177.482 2.5 138.311 2.5 89.991C2.5 41.6711 41.6711 2.5 89.991 2.5C138.311 2.5 177.482 41.6711 177.482 89.991Z" stroke="white" stroke-width="5"/>
<path d="M90.3488 96.2016C88.201 92.622 81.3998 86.4472 75.225 85.8208C75.8514 76.4602 76.3525 68.8177 77.0148 59.4571L72.5582 60.0298H61.8194L57.2733 59.4571C57.8997 68.8177 58.4188 76.4602 59.0631 85.8208C52.8346 86.4472 46.087 92.6757 43.9214 96.2016C41.5447 99.9236 39.9302 104.08 39.1713 108.43C38.4125 112.781 38.5244 117.238 39.5006 121.545C42.1674 131.854 51.528 140.517 62.1773 140.911H72.057C82.7063 140.517 92.0849 131.854 94.7338 121.545C95.7202 117.241 95.8405 112.784 95.0877 108.433C94.3348 104.082 92.7239 99.9241 90.3488 96.2016Z" fill="#FA8D61"/>
<path d="M76.9612 59.2065C76.4421 57.9715 73.829 57.023 70.2852 56.7545C66.3207 56.2605 62.2958 56.6642 58.5083 57.9357C58.1925 58.0041 57.9029 58.162 57.6744 58.3905C57.4459 58.619 57.288 58.9085 57.2197 59.2244C57.1686 59.7066 57.273 60.1925 57.5178 60.6111C57.7625 61.0297 58.1347 61.3591 58.5799 61.5511C62.8397 63.7347 67.5289 63.3409 71.9497 62.9293C73.553 62.9661 75.1137 62.4118 76.3347 61.3722C76.6215 61.0989 76.8306 60.7545 76.9407 60.374C77.0507 59.9935 77.0578 59.5906 76.9612 59.2065Z" fill="#96CBEB"/>
<path d="M61.2115 73.2027C59.4217 69.9095 53.6765 69.8558 50.4728 70.4464C48.3896 70.9702 46.4407 71.9281 44.7535 73.2575C43.0664 74.5869 41.6791 76.2577 40.6826 78.1605C35.9754 86.2861 40.0919 96.9533 45.8014 103.54C47.1974 105.133 49.6494 103.092 48.6651 101.32C45.4076 95.4141 40.1277 88.1296 43.5641 81.1136C44.219 79.5777 45.1806 78.1917 46.3902 77.0407C47.5997 75.8896 49.0316 74.9978 50.598 74.4198C52.0147 74.0382 53.4928 73.9409 54.9472 74.1334C56.4158 74.5343 57.8567 75.0305 59.2607 75.619C59.5696 75.6797 59.8893 75.6515 60.1829 75.5378C60.4764 75.424 60.7317 75.2294 60.9191 74.9764C61.1065 74.7235 61.2183 74.4225 61.2415 74.1086C61.2648 73.7946 61.1985 73.4805 61.0505 73.2027H61.2115Z" fill="#FA8D61"/>
<path d="M74.975 75.619C76.3096 75.0663 77.6716 74.5824 79.0557 74.1692C80.5043 73.9475 81.9824 74.0144 83.4049 74.3661C85.0219 74.9178 86.5046 75.8037 87.7566 76.9663C89.0086 78.1288 90.0018 79.5419 90.6715 81.1136C94.1079 88.1297 88.8817 95.432 85.5706 101.32C84.6041 103.11 87.0203 105.151 88.4343 103.54C94.1437 96.9534 98.2424 86.3041 93.5352 78.1605C92.5575 76.2961 91.2057 74.6535 89.5642 73.3355C87.9228 72.0174 86.0271 71.0522 83.9956 70.5001C80.8276 69.8021 74.8855 69.8021 73.1136 73.2027C72.9655 73.4806 72.8993 73.7947 72.9225 74.1086C72.9458 74.4226 73.0576 74.7235 73.245 74.9764C73.4323 75.2294 73.6876 75.4241 73.9812 75.5378C74.2747 75.6515 74.5945 75.6797 74.9034 75.619H74.975Z" fill="#FA8D61"/>
<path d="M44.2266 91.6556C44.6919 94.036 45.7121 96.7565 48.0746 97.8125C50.9204 99.0832 53.1219 96.0227 55.8603 96.8997C58.3123 97.6156 59.6546 100.157 62.3214 100.479C65.3283 100.927 66.9749 98.6895 69.6059 97.8483C72.7201 96.8818 75.4406 99.6381 78.5549 99.7633C81.6691 99.8886 82.3493 96.4701 85.2666 96.1838C86.109 96.2259 86.9469 96.0383 87.6909 95.6411C88.4349 95.2439 89.0569 94.652 89.4906 93.9286C89.8998 93.2148 90.0955 92.3985 90.0542 91.5767C90.013 90.7549 89.7366 89.9623 89.2579 89.293C89.0252 88.9888 88.5778 89.293 88.7388 89.7047C89.0178 90.2032 89.1861 90.7559 89.2321 91.3253C89.2781 91.8947 89.2008 92.4673 89.0054 93.0041C88.8101 93.5409 88.5013 94.0293 88.1001 94.4359C87.6989 94.8425 87.2147 95.1579 86.6806 95.3604C85.5888 95.6826 84.4254 95.3604 83.3695 95.8079C82.7614 96.1093 82.2338 96.551 81.8302 97.0965C81.4734 97.6669 80.9812 98.1402 80.3972 98.4744C79.8133 98.8085 79.1558 98.993 78.4833 99.0116C77.2394 98.9209 76.0243 98.5928 74.9037 98.0451C73.9803 97.5125 72.9571 97.1757 71.8979 97.0556C70.8386 96.9355 69.766 97.0348 68.7468 97.3471C66.2232 98.4389 64.4334 100.605 61.4086 99.477C59.6188 98.7969 58.366 97.0608 56.5404 96.309C55.742 96.0752 54.9039 96.0085 54.0786 96.1133C53.2533 96.218 52.4584 96.4918 51.7437 96.9176C47.4661 98.5463 46.0343 94.7698 44.7993 91.5482C44.7674 91.4883 44.7163 91.4408 44.6543 91.4133C44.5923 91.3857 44.5229 91.3797 44.457 91.3962C44.3912 91.4126 44.3328 91.4506 44.291 91.5041C44.2492 91.5576 44.2266 91.6235 44.2266 91.6914V91.6556Z" fill="#35208A"/>
<path d="M34.8298 103.307C33.4695 106.26 35.6531 110.234 37.8903 112.256C40.6645 114.744 43.7788 114.69 47.1078 113.527C48.1817 113.151 48.7902 112.757 49.5419 113.67C50.3142 114.8 51.1697 115.871 52.1013 116.874C53.305 117.935 54.7482 118.688 56.3069 119.068C57.8656 119.448 59.4933 119.445 61.0503 119.057C62.4589 118.628 63.7843 117.962 64.97 117.089C65.8649 116.498 67.1178 115.299 68.2811 115.46C69.4445 115.621 70.6616 116.82 71.6638 117.411C73.6871 118.606 76.0382 119.128 78.3772 118.899C80.7162 118.671 82.922 117.705 84.6757 116.14C85.2162 115.633 85.7076 115.075 86.1433 114.476C86.4118 114.118 86.8055 113.294 87.1993 113.097C87.593 112.9 88.0763 113.33 88.5595 113.455C89.533 113.738 90.5361 113.906 91.5485 113.956C93.3508 113.973 95.1283 113.536 96.7173 112.685C98.3062 111.834 99.6554 110.597 100.641 109.088C102.538 106.135 103.2 101.016 100.39 98.3494C100.018 98.0027 99.556 97.7687 99.0565 97.6745C98.557 97.5803 98.0411 97.6298 97.5687 97.8173C97.0962 98.0047 96.6867 98.3225 96.3878 98.7335C96.0888 99.1445 95.9126 99.632 95.8798 100.139C95.8798 102.448 96.8284 104.65 94.8954 106.511C92.9624 108.372 90.6894 107.424 88.2911 107.03C84.7115 106.439 83.1901 108.48 81.2393 110.896C80.6504 111.613 79.879 112.157 79.0065 112.472C78.1339 112.787 77.1925 112.861 76.2815 112.686C73.8295 112.238 72.0934 109.983 69.5877 109.482C68.2246 109.313 66.8411 109.429 65.5254 109.823C64.2096 110.218 62.9904 110.882 61.9452 111.773C60.1554 112.972 58.2225 113.974 56.2716 112.507C54.3207 111.039 53.8195 108.927 51.7076 107.728C50.1703 107.016 48.4244 106.894 46.8035 107.388C45.6637 107.912 44.4603 108.285 43.2239 108.498C40.2171 108.336 40.1455 103.683 37.7651 102.52C37.2894 102.244 36.7243 102.166 36.1918 102.304C35.6594 102.441 35.2023 102.782 34.9193 103.253L34.8298 103.307Z" fill="#996666"/>
<path d="M36.3516 112.095C36.8393 114.701 38.2737 117.034 40.3786 118.646C42.8664 120.239 44.8889 119.022 47.4304 118.377C51.2069 117.393 51.9228 121.259 54.3927 123.049C55.3472 123.74 56.4575 124.185 57.6252 124.344C58.7929 124.503 59.9819 124.372 61.0866 123.961C63.9682 122.87 66.2591 119.576 69.6239 120.829C72.1475 121.76 73.8478 123.782 76.7831 123.961C79.0169 124.105 81.2189 123.373 82.9221 121.921C83.9423 121.044 84.4971 119.809 85.4457 118.878C87.1102 117.268 89.6696 118.878 91.6563 118.878C92.9963 118.903 94.3204 118.586 95.5035 117.956C96.6865 117.327 97.6893 116.406 98.4169 115.28C99.1445 114.155 99.5728 112.862 99.6614 111.525C99.7499 110.188 99.4958 108.85 98.9229 107.638C98.7439 107.281 98.1354 107.531 98.2786 107.907C98.9106 109.308 99.0933 110.871 98.8017 112.38C98.5101 113.89 97.7584 115.272 96.6499 116.337C95.3999 117.428 93.8151 118.059 92.1575 118.127C90.6439 117.98 89.1465 117.698 87.683 117.285C85.4457 117.035 84.5329 118.789 83.3159 120.31C82.4102 121.414 81.2177 122.247 79.8695 122.718C78.5212 123.188 77.0693 123.278 75.6734 122.977C73.2035 122.476 71.5927 120.382 69.1586 119.916C68.1957 119.807 67.2206 119.9 66.2958 120.19C65.3711 120.479 64.5172 120.959 63.7892 121.599C61.2298 123.389 58.4198 124.57 55.4845 122.87C53.462 121.706 52.8177 119.29 50.9026 118.037C48.9875 116.784 46.6429 118.037 44.513 118.628C40.0564 119.738 38.4098 115.156 36.9422 111.97C36.799 111.666 36.3516 111.97 36.4232 112.185L36.3516 112.095Z" fill="white"/>
<path d="M38.3198 123.067C39.2684 126.771 43.4744 129.009 46.8929 129.868C48.7881 130.389 50.7767 130.475 52.7098 130.118C53.2958 129.92 53.8935 129.759 54.4996 129.635C55.1199 129.562 55.7485 129.652 56.3231 129.897C56.8977 130.142 57.3982 130.533 57.7749 131.031C58.5862 131.902 59.5587 132.607 60.6386 133.107C62.717 134.021 65.0651 134.111 67.2071 133.358C70.1245 132.302 72.5765 129.975 75.8161 130.548C78.2502 130.977 80.4516 132.338 82.9753 131.926C85.3825 131.558 87.6831 130.679 89.7228 129.349C93.8393 126.789 98.3854 122.995 98.9939 117.912C98.9939 117.411 98.2959 117.429 98.2243 117.912C97.5979 122.637 93.1413 126.27 89.2753 128.651C87.3544 129.911 85.1894 130.753 82.9216 131.121C80.2369 131.496 77.8922 129.939 75.2791 129.689C73.263 129.62 71.2749 130.176 69.5876 131.282C67.046 132.642 64.5045 133.644 61.623 132.66C60.343 132.203 59.1898 131.448 58.2581 130.458C57.734 129.768 57.0447 129.22 56.2536 128.865C55.2837 128.688 54.2834 128.794 53.372 129.17C52.3838 129.461 51.3595 129.611 50.3293 129.617C47.9668 129.651 45.6385 129.051 43.5863 127.88C41.5341 126.709 39.833 125.01 38.6598 122.959C38.5704 122.762 38.2661 122.959 38.3198 123.102V123.067Z" fill="#35208A"/>
<path d="M138.334 103.629C137.385 103.468 136.454 103.629 135.506 103.504C133.985 103.343 132.582 102.607 131.586 101.446C129.78 99.132 128.957 96.2001 129.295 93.2843C129.528 88.0223 130.512 82.8139 130.656 77.534C130.942 67.7796 129.027 57.9537 122.082 50.6871C115.138 43.4205 106.064 40.4315 96.6493 39.3755C85.8074 37.9069 74.812 40.6062 65.8827 46.9285C62.3969 49.3568 59.6425 52.693 57.9181 56.5755C57.6033 57.1436 57.4077 57.7699 57.3431 58.4161C57.2784 59.0623 57.3462 59.7149 57.5423 60.3341C58.3212 61.2531 59.3865 61.8835 60.567 62.1239C64.5055 63.4174 68.727 63.5848 72.7555 62.6071C74.0314 62.3605 75.2472 61.8681 76.3351 61.1574C76.6118 60.8667 76.8413 60.5346 77.0153 60.173C77.7372 58.9451 78.8091 57.9605 80.0937 57.3451C84.3713 55.43 89.347 58.1863 92.4254 61.0858C96.0605 64.6272 98.6172 69.1265 99.7994 74.0618C100.649 78.7089 100.794 83.4574 100.229 88.1475C99.8352 94.0539 98.9045 99.8707 98.117 105.723C97.1438 111.281 96.8195 116.933 97.1505 122.565C97.2429 124.657 97.7677 126.707 98.6918 128.587C99.616 130.466 100.919 132.133 102.52 133.483C104.119 134.73 105.996 135.571 107.991 135.932C109.987 136.294 112.04 136.166 113.975 135.559C114.9 135.335 115.766 134.911 116.511 134.317C117.256 133.724 117.862 132.975 118.288 132.123C118.714 131.271 118.949 130.337 118.977 129.384C119.005 128.432 118.825 127.486 118.449 126.61C118.163 125.286 117.841 123.979 117.518 122.673C119.881 126.807 123.962 129.832 129.027 128.15C130.254 127.779 131.346 127.058 132.169 126.076C132.993 125.093 133.512 123.892 133.662 122.619C133.699 121.195 133.452 119.778 132.936 118.451C132.42 117.124 131.644 115.912 130.656 114.887C132.235 115.597 134.007 115.753 135.686 115.331C137.365 114.909 138.853 113.933 139.909 112.56C141.913 109.876 142.2 104.864 138.334 103.629Z" fill="#96CBEB"/>
<path d="M70.5536 61.3722C71.3935 57.9908 73.4942 55.0584 76.4255 53.1752C79.3568 51.2919 82.8971 50.6003 86.3217 51.2419C93.6598 52.3874 99.8704 57.8463 103.647 64.0032C107.33 70.5422 109.103 77.9836 108.766 85.4808C108.766 93.2306 106.743 100.855 106.886 108.587C106.994 114.977 109.303 122.351 115.46 125.357C115.543 125.407 115.642 125.422 115.736 125.399C115.83 125.375 115.911 125.315 115.961 125.232C116.011 125.149 116.025 125.05 116.002 124.956C115.978 124.862 115.919 124.781 115.835 124.731C108.408 120.382 107.191 111.63 107.889 103.755C108.587 95.8795 110.072 87.9328 109.356 79.8608C108.872 72.5632 106.182 65.5849 101.642 59.8509C97.2752 54.5888 90.9036 50.2933 83.7444 50.2933C77.5696 50.2933 70.4999 54.6604 70.0703 61.3185C70.0703 61.3754 70.0929 61.4301 70.1332 61.4704C70.1735 61.5106 70.2281 61.5333 70.2851 61.5333C70.342 61.5333 70.3967 61.5106 70.437 61.4704C70.4772 61.4301 70.4999 61.3754 70.4999 61.3185L70.5536 61.3722Z" fill="white"/>
<path d="M63.9319 60.0477C65.3632 56.6503 67.5215 53.6077 70.255 51.134C72.9884 48.6602 76.2307 46.8154 79.7537 45.7293C83.5613 44.6203 87.557 44.3101 91.4901 44.8183C95.4232 45.3265 99.2088 46.6421 102.609 48.6825C109.355 52.7485 114.512 58.9922 117.232 66.3836C120.328 74.4914 119.988 83.0466 120.311 91.5482C120.561 98.7074 121.062 109.697 128.454 113.402C128.884 113.616 129.277 112.972 128.83 112.739C124.928 110.645 123.246 106.386 122.315 102.251C121.4 97.5343 120.963 92.7373 121.009 87.9328C120.847 79.5207 120.49 71.2698 116.856 63.5199C110.431 49.7743 94.7522 40.2526 79.5389 45.0134C75.8897 46.1431 72.5363 48.0678 69.72 50.6489C66.9037 53.2299 64.6947 56.4032 63.2518 59.9403C63.0728 60.3699 63.7708 60.5668 63.9319 60.1372V60.0477Z" fill="white"/>
<path d="M111.45 67.4575C111.808 69.0146 112.56 70.4823 112.936 72.0573C113.317 73.6135 113.556 75.2009 113.652 76.8002C113.819 80.038 113.699 83.2843 113.294 86.501C112.596 93.0158 111.826 99.3875 112.847 105.92C113.634 111.003 115.084 116.874 119.075 120.453C122.243 123.299 127.254 124.248 130.709 121.42C130.995 121.187 130.709 120.686 130.315 120.901C125.482 124.48 119.576 121.098 116.981 116.552C114.046 111.504 113.151 105.025 113.061 99.298C112.972 93.5707 114.243 87.3959 114.475 81.4C114.592 78.904 114.448 76.4027 114.046 73.9366C113.816 71.5623 112.978 69.2874 111.612 67.3322C111.612 67.3322 111.433 67.3322 111.45 67.4396V67.4575Z" fill="white"/>
<path d="M124.892 75.0462C124.379 76.7874 124.168 78.6032 124.265 80.4156C124.265 82.3128 124.265 84.21 124.391 86.1072C124.675 89.9245 125.323 93.7061 126.324 97.4008C127.738 102.627 131.174 109.625 137.778 108.426C138.172 108.426 138.083 107.656 137.671 107.71C130.136 108.515 127.612 100.086 126.342 94.2687C125.644 91.028 125.213 87.7357 125.053 84.4248C125.053 82.8676 125.053 81.3105 125.053 79.7534C125.205 78.188 125.205 76.6116 125.053 75.0462C125.053 74.9388 124.892 75.0462 124.856 75.0462H124.892Z" fill="white"/>
<path d="M104.435 93.4096C102.942 97.1622 102.124 101.149 102.018 105.186C101.717 109.302 101.873 113.437 102.484 117.518C103.325 123.049 105.92 132.588 113.527 130.977C113.903 130.888 113.831 130.226 113.527 130.279C105.186 131.335 103.54 120.453 102.967 114.458C102.627 110.934 102.627 107.386 102.967 103.862C103.325 100.282 104.327 96.9534 104.757 93.4633C104.757 93.3559 104.578 93.3201 104.524 93.4633L104.435 93.4096Z" fill="white"/>
<path d="M102.859 73.149C102.859 75.6727 103.808 78.1784 104.005 80.702C104.202 83.2256 103.808 85.4808 104.13 87.7001C104.13 87.9328 104.488 87.8791 104.56 87.7001C105.144 85.1547 105.193 82.5155 104.703 79.9503C104.627 77.5557 104.054 75.2031 103.02 73.0417H102.859V73.149Z" fill="white"/>
<path d="M123.497 63.9316C123.711 65.3992 124.069 66.8132 124.212 68.2987C124.356 69.7842 124.212 70.9118 124.338 72.2184C124.338 72.5226 124.857 72.63 124.928 72.2184C125.393 69.3303 125.052 66.3702 123.944 63.6631C123.837 63.3947 123.461 63.6631 123.497 63.86V63.9316Z" fill="white"/>
<path d="M102.502 55.4837C103.611 56.665 104.882 57.6494 105.902 58.938C106.984 60.3155 107.864 61.8403 108.515 63.4662C108.712 63.9137 109.446 63.7168 109.267 63.2694C108.091 59.8952 105.749 57.0518 102.663 55.2511C102.632 55.2361 102.597 55.2327 102.564 55.2414C102.531 55.2501 102.502 55.2703 102.482 55.2984C102.463 55.3265 102.454 55.3606 102.458 55.3946C102.461 55.4286 102.477 55.4602 102.502 55.4837Z" fill="white"/>
<path d="M97.8479 42.9551C100.605 43.2847 103.334 43.8232 106.009 44.566C108.613 45.432 111.065 46.7002 113.276 48.3245C117.674 51.674 120.93 56.2995 122.601 61.569C122.762 62.0523 123.514 61.8554 123.352 61.3722C121.678 56.1228 118.474 51.4926 114.153 48.074C109.875 44.7449 103.414 41.8097 97.9016 42.4719C97.6868 42.4719 97.5794 42.8478 97.9016 42.9015L97.8479 42.9551Z" fill="white"/>
<path d="M157.788 42.2034C157.814 42.1342 157.814 42.0579 157.788 41.9887C157.269 40.9864 155.336 40.7895 154.37 40.6105C152.795 40.2884 151.184 40.1094 149.591 39.8946L148.803 39.7872C148.696 39.7872 148.517 39.6798 148.535 39.7872C148.337 39.4347 148.175 39.0629 148.052 38.6775C147.389 37.1383 146.763 35.5812 146.083 34.042C145.743 33.2723 145.403 32.4848 145.027 31.7331C144.794 31.2499 144.544 30.3729 144.007 30.1402C142.843 29.6212 142.038 32.5027 141.716 33.2008C140.982 34.8653 140.284 36.5298 139.568 38.2122C139.415 38.7775 139.173 39.3151 138.852 39.8051C138.346 39.8528 137.837 39.8528 137.331 39.8051L135.201 39.9841C133.993 40.0681 132.795 40.2598 131.621 40.5568C130.923 40.7716 129.653 41.1117 129.832 42.0782C130.011 43.0446 131.156 43.6353 131.621 44.0827C132.569 44.8259 133.568 45.5018 134.61 46.1052C135.137 46.3342 135.646 46.6035 136.132 46.9106C136.686 47.3223 136.418 47.7697 136.275 48.3603C135.953 49.5595 135.63 50.7766 135.326 51.9399C135.022 53.1033 134.861 53.9445 134.7 54.9468C134.521 55.6394 134.521 56.3661 134.7 57.0588C135.434 58.6159 138.279 55.8954 138.924 55.269C139.568 54.6425 140.606 53.9445 141.412 53.2465C141.823 52.9064 142.217 52.5485 142.593 52.1905C142.969 51.8326 143.38 51.224 143.667 51.1882C143.953 51.1524 145.349 52.6022 145.725 52.978C146.56 53.6939 147.419 54.392 148.302 55.0721C149.422 56.2059 150.835 57.0054 152.383 57.3809C153.779 57.5062 153.117 55.4121 152.938 54.5888C152.49 52.638 151.846 50.705 151.273 48.7899C151.148 48.3782 150.987 47.9487 150.897 47.5191C150.808 47.0896 150.897 47.0896 151.202 46.8569C151.971 46.3916 152.902 46.1052 153.69 45.7114C154.978 45.0671 157.538 43.9216 157.913 42.2929C157.879 42.2544 157.836 42.2238 157.788 42.2034Z" fill="#FFF896"/>
<path d="M93.9641 156.912C91.7805 156.733 89.5791 156.751 87.3776 156.768L89.1674 154.979C90.2165 154.084 91.122 153.034 91.8521 151.864C91.9211 151.749 91.95 151.614 91.9342 151.481C91.9184 151.347 91.8588 151.222 91.7648 151.126C91.6707 151.03 91.5475 150.968 91.4144 150.949C91.2812 150.931 91.1457 150.957 91.0288 151.023C89.8383 151.739 88.764 152.632 87.843 153.672L85.9458 155.462V152.795C86.0524 151.415 85.9498 150.028 85.6415 148.679C85.6033 148.554 85.5262 148.445 85.4215 148.368C85.3168 148.291 85.19 148.249 85.0598 148.249C84.9297 148.249 84.8029 148.291 84.6982 148.368C84.5935 148.445 84.5164 148.554 84.4782 148.679C84.1403 150.023 84.0076 151.411 84.0844 152.795C84.0844 153.672 84.0844 154.585 84.0844 155.462L82.2946 153.547C81.3937 152.497 80.3374 151.592 79.1625 150.862C79.0473 150.801 78.9156 150.778 78.7865 150.797C78.6575 150.816 78.538 150.877 78.4458 150.969C78.3535 151.061 78.2934 151.18 78.2742 151.309C78.255 151.439 78.2778 151.57 78.3392 151.685C79.0484 152.875 79.9356 153.95 80.9702 154.871L82.76 156.768H80.0753C78.6956 156.663 77.3079 156.766 75.9587 157.073C75.8366 157.116 75.7308 157.196 75.656 157.302C75.5812 157.407 75.541 157.534 75.541 157.663C75.541 157.793 75.5812 157.919 75.656 158.025C75.7308 158.131 75.8366 158.211 75.9587 158.254C77.3057 158.576 78.6922 158.703 80.0753 158.63H82.6884C81.0775 160.151 79.4667 161.672 78.0349 163.319C77.8664 163.488 77.7717 163.716 77.7717 163.954C77.7717 164.193 77.8664 164.421 78.0349 164.59C78.2034 164.758 78.432 164.853 78.6703 164.853C78.9086 164.853 79.1371 164.758 79.3056 164.59C80.9702 163.194 82.4915 161.637 84.0128 160.08C84.0128 162.263 83.9054 164.465 84.0128 166.612C84.0544 166.819 84.1662 167.005 84.3293 167.139C84.4925 167.272 84.6968 167.345 84.9077 167.345C85.1186 167.345 85.3229 167.272 85.4861 167.139C85.6492 167.005 85.7611 166.819 85.8026 166.612C85.9816 164.465 85.9637 162.281 85.9458 160.097C87.4492 161.69 88.9527 163.283 90.5814 164.697C90.7499 164.866 90.9784 164.96 91.2167 164.96C91.4551 164.96 91.6836 164.866 91.8521 164.697C92.0206 164.529 92.1153 164.3 92.1153 164.062C92.1153 163.824 92.0206 163.595 91.8521 163.426C90.4321 161.78 88.9266 160.208 87.3418 158.719C89.5254 158.719 91.7268 158.845 93.8925 158.719C94.1124 158.698 94.3172 158.598 94.4691 158.438C94.6209 158.278 94.7094 158.067 94.7181 157.847C94.7268 157.626 94.6552 157.41 94.5166 157.238C94.3779 157.066 94.1816 156.95 93.9641 156.912Z" fill="white"/>
<path d="M54.2486 22.7841C54.5463 22.7841 54.841 22.7252 55.1158 22.6108C55.3906 22.4963 55.64 22.3286 55.8496 22.1173C56.0593 21.906 56.225 21.6553 56.3373 21.3796C56.4496 21.1039 56.5061 20.8087 56.5038 20.5111C56.4945 19.9159 56.254 19.3476 55.833 18.9267C55.4121 18.5057 54.8439 18.2652 54.2486 18.256C53.6466 18.2617 53.0698 18.4988 52.6378 18.9182C52.2286 19.3496 51.9928 19.9167 51.9756 20.5111C51.9892 21.1097 52.2331 21.6799 52.6565 22.1033C53.0798 22.5266 53.6501 22.7705 54.2486 22.7841Z" fill="white"/>
<path d="M93.2839 33.1113C93.8358 33.0615 94.3492 32.8072 94.723 32.3981C95.0969 31.9891 95.3042 31.455 95.3042 30.9009C95.3042 30.3467 95.0969 29.8126 94.723 29.4036C94.3492 28.9946 93.8358 28.7402 93.2839 28.6905C92.732 28.7402 92.2187 28.9946 91.8448 29.4036C91.471 29.8126 91.2637 30.3467 91.2637 30.9009C91.2637 31.455 91.471 31.9891 91.8448 32.3981C92.2187 32.8072 92.732 33.0615 93.2839 33.1113Z" fill="white"/>
<path d="M115.191 22.0324C115.822 22.0324 116.428 21.7816 116.874 21.3352C117.321 20.8888 117.571 20.2833 117.571 19.652C117.571 19.0206 117.321 18.4152 116.874 17.9688C116.428 17.5223 115.822 17.2715 115.191 17.2715C114.56 17.2715 113.954 17.5223 113.508 17.9688C113.061 18.4152 112.811 19.0206 112.811 19.652C112.811 20.2833 113.061 20.8888 113.508 21.3352C113.954 21.7816 114.56 22.0324 115.191 22.0324Z" fill="white"/>
<path d="M145.582 76.496C145.262 76.822 145.036 77.229 144.929 77.6735C144.822 78.118 144.837 78.5833 144.974 79.0196C145.093 79.4467 145.32 79.8358 145.634 80.1493C145.947 80.4629 146.337 80.6902 146.764 80.8094C147.116 80.898 147.485 80.898 147.837 80.8094C148.129 80.7782 148.412 80.6874 148.667 80.5427C148.923 80.398 149.146 80.2025 149.323 79.9682C149.545 79.6936 149.698 79.3701 149.769 79.0246C149.841 78.6791 149.829 78.3215 149.735 77.9815C149.674 77.753 149.568 77.5388 149.423 77.3514C149.279 77.164 149.099 77.0071 148.893 76.8897C148.685 76.7671 148.454 76.688 148.214 76.6572C147.974 76.6265 147.73 76.6447 147.497 76.7107H147.981H147.837H148.357L148.84 76.9255C148.589 76.8181 148.339 76.6928 148.088 76.6033L148.607 76.8181C148.554 76.8275 148.499 76.8275 148.446 76.8181L148.893 77.1582L149.234 77.6056L149.448 78.1426C149.448 78.1426 149.448 78.1426 149.448 78.0531V78.6437V79.2344C149.467 79.0021 149.467 78.7686 149.448 78.5363C149.448 78.7511 149.448 78.948 149.448 79.1449C149.438 79.1038 149.438 79.0607 149.448 79.0196L149.216 79.5565C149.574 79.0818 149.729 78.4842 149.647 77.8952C149.565 77.3061 149.252 76.7738 148.777 76.4154C148.302 76.057 147.705 75.9019 147.116 75.9841C146.527 76.0664 145.994 76.3792 145.636 76.8539L145.582 76.496Z" fill="white"/>
<path d="M163.766 107.907C164.12 107.907 164.466 107.802 164.761 107.605C165.055 107.409 165.284 107.129 165.42 106.802C165.555 106.475 165.591 106.115 165.522 105.768C165.453 105.421 165.282 105.102 165.032 104.852C164.782 104.601 164.463 104.431 164.116 104.362C163.768 104.293 163.408 104.328 163.081 104.464C162.754 104.599 162.475 104.828 162.278 105.123C162.082 105.417 161.977 105.763 161.977 106.117C161.977 106.592 162.165 107.047 162.501 107.383C162.836 107.718 163.292 107.907 163.766 107.907Z" fill="white"/>
<path d="M147.748 132.105H148.053C148.591 132.056 149.091 131.807 149.455 131.408C149.82 131.009 150.022 130.489 150.022 129.948C150.022 129.408 149.82 128.887 149.455 128.488C149.091 128.089 148.591 127.841 148.053 127.792H147.748C147.21 127.841 146.71 128.089 146.346 128.488C145.981 128.887 145.779 129.408 145.779 129.948C145.779 130.489 145.981 131.009 146.346 131.408C146.71 131.807 147.21 132.056 147.748 132.105Z" fill="white"/>
<path d="M124.212 164.536V164.375C124.13 164.07 123.979 163.787 123.771 163.548C123.563 163.31 123.304 163.121 123.013 162.997L122.566 162.872C122.203 162.763 121.819 162.741 121.446 162.806C121.073 162.872 120.72 163.024 120.416 163.25C120.112 163.476 119.865 163.769 119.694 164.108C119.524 164.446 119.434 164.819 119.434 165.198C119.439 165.621 119.552 166.034 119.762 166.401C119.972 166.767 120.272 167.074 120.633 167.292C121.05 167.537 121.53 167.652 122.013 167.622C122.496 167.592 122.958 167.419 123.342 167.126C123.726 166.832 124.014 166.43 124.169 165.972C124.324 165.514 124.339 165.021 124.212 164.554V164.536Z" fill="white"/>
<path d="M58.1146 151.471C58.0113 151.099 57.8137 150.76 57.5408 150.487C57.268 150.214 56.9292 150.017 56.5574 149.914C56.0689 149.775 55.5484 149.804 55.0776 149.994C54.6067 150.183 54.2124 150.524 53.9563 150.963C53.7003 151.401 53.5971 151.912 53.6629 152.415C53.7288 152.919 53.96 153.386 54.3202 153.744C54.6473 154.057 55.0586 154.267 55.5037 154.35C55.9487 154.433 56.4082 154.384 56.8259 154.209C57.3358 153.994 57.7507 153.603 57.9942 153.106C58.2376 152.609 58.2931 152.041 58.1504 151.506L58.1146 151.471Z" fill="white"/>
<path d="M20.4394 115.209C21.0741 115.2 21.6818 114.951 22.1397 114.511C22.589 114.056 22.8408 113.442 22.8408 112.802C22.8408 112.162 22.589 111.548 22.1397 111.093C21.6818 110.653 21.0741 110.404 20.4394 110.395C20.1058 110.366 19.7699 110.407 19.453 110.515C19.136 110.623 18.845 110.795 18.5982 111.022C18.3515 111.248 18.1545 111.523 18.0198 111.83C17.885 112.136 17.8154 112.467 17.8154 112.802C17.8154 113.137 17.885 113.468 18.0198 113.775C18.1545 114.081 18.3515 114.356 18.5982 114.583C18.845 114.809 19.136 114.981 19.453 115.089C19.7699 115.197 20.1058 115.238 20.4394 115.209Z" fill="white"/>
<path d="M33.4156 90.5996C33.4156 90.03 33.1893 89.4837 32.7866 89.0809C32.3838 88.6781 31.8375 88.4518 31.2679 88.4518C30.8359 88.461 30.4156 88.594 30.057 88.8352C29.6985 89.0763 29.4168 89.4154 29.2454 89.8121C29.0751 90.2127 29.0283 90.655 29.1113 91.0824C29.1942 91.5097 29.4029 91.9026 29.7107 92.2104C29.9915 92.4732 30.3327 92.663 30.7041 92.7628C31.0756 92.8627 31.4658 92.8697 31.8406 92.7831C32.3028 92.6466 32.7097 92.3668 33.0024 91.9839C33.2952 91.6011 33.4587 91.1351 33.4693 90.6533L33.4156 90.5996Z" fill="white"/>
<path d="M22.14 49.5058C22.4028 49.6546 22.6863 49.7632 22.9813 49.828C23.3718 49.918 23.7806 49.8856 24.1521 49.7351C24.5236 49.5846 24.8397 49.3233 25.0574 48.9868C25.2316 48.7043 25.3239 48.379 25.3239 48.0471C25.3239 47.7153 25.2316 47.3899 25.0574 47.1075L24.7711 46.7316C24.6088 46.5464 24.398 46.41 24.1625 46.3379C23.776 46.1823 23.3506 46.151 22.9455 46.2484C22.6505 46.3132 22.367 46.4218 22.1043 46.5706C21.8679 46.7355 21.675 46.9551 21.5417 47.2106C21.4085 47.4661 21.3389 47.75 21.3389 48.0382C21.3389 48.3264 21.4085 48.6103 21.5417 48.8658C21.675 49.1213 21.8679 49.3409 22.1043 49.5058H22.14Z" fill="white"/>
<path d="M50.3646 63.1083C50.6785 63.0512 50.9714 62.9113 51.2131 62.703C51.4547 62.4947 51.6363 62.2256 51.739 61.9235C51.8417 61.6215 51.8618 61.2975 51.7972 60.985C51.7326 60.6726 51.5857 60.3831 51.3717 60.1466C51.1576 59.91 50.8842 59.7349 50.5798 59.6395C50.2754 59.5441 49.951 59.5317 49.6402 59.6038C49.3294 59.6759 49.0435 59.8297 48.8122 60.0493C48.5808 60.269 48.4123 60.5465 48.3242 60.8531C48.2604 61.1461 48.2712 61.4504 48.3556 61.7382C48.44 62.0259 48.5954 62.2878 48.8074 62.4998C49.0195 62.7119 49.2814 62.8672 49.5691 62.9516C49.8568 63.0361 50.1611 63.0468 50.4541 62.983L50.3646 63.1083Z" fill="white"/>
<path d="M59.4749 40.0915C60.1098 40.0381 60.7015 39.7481 61.1328 39.2791C61.564 38.81 61.8033 38.1961 61.8033 37.5589C61.8033 36.9218 61.564 36.3078 61.1328 35.8388C60.7015 35.3697 60.1098 35.0798 59.4749 35.0264C58.84 35.0798 58.2483 35.3697 57.8171 35.8388C57.3858 36.3078 57.1465 36.9218 57.1465 37.5589C57.1465 38.1961 57.3858 38.81 57.8171 39.2791C58.2483 39.7481 58.84 40.0381 59.4749 40.0915Z" fill="#F7B9E7"/>
<path d="M15.1956 78.0889C15.5895 77.9658 15.9678 77.7976 16.3232 77.5878C16.657 77.3897 16.9336 77.1081 17.1257 76.7708C17.3178 76.4334 17.4188 76.0519 17.4188 75.6637C17.4188 75.2755 17.3178 74.894 17.1257 74.5567C16.9336 74.2193 16.657 73.9378 16.3232 73.7397C15.9649 73.5308 15.5873 73.357 15.1956 73.2207C14.765 73.1025 14.3106 73.1017 13.8795 73.2181C13.4484 73.3345 13.0562 73.564 12.7436 73.8829C12.2775 74.3626 12.0146 75.0038 12.0098 75.6727C12.0235 76.3397 12.2851 76.9778 12.7436 77.4625C13.0581 77.7782 13.4511 78.0044 13.8821 78.1176C14.3131 78.2309 14.7665 78.2272 15.1956 78.1068V78.0889Z" fill="#F7B9E7"/>
<path d="M121.313 147.73C121.437 147.34 121.437 146.921 121.313 146.531C121.313 146.423 121.187 146.226 121.169 146.155C120.987 145.721 120.681 145.351 120.289 145.09C119.898 144.829 119.438 144.689 118.968 144.687C118.551 144.696 118.143 144.808 117.78 145.015C117.418 145.221 117.112 145.514 116.892 145.869C116.69 146.242 116.584 146.661 116.584 147.086C116.584 147.511 116.69 147.929 116.892 148.303C117.138 148.706 117.495 149.028 117.921 149.232C118.347 149.435 118.822 149.51 119.29 149.448C119.702 149.389 120.091 149.222 120.418 148.965C120.824 148.651 121.124 148.22 121.277 147.73H121.313Z" fill="#F7B9E7"/>
<path d="M36.0284 150.343H36.2968C36.786 150.192 37.2139 149.887 37.5177 149.475C37.8216 149.063 37.9855 148.564 37.9855 148.052C37.9855 147.54 37.8216 147.041 37.5177 146.629C37.2139 146.217 36.786 145.913 36.2968 145.761H36.0284C35.6722 145.672 35.3006 145.666 34.9416 145.742C34.5827 145.819 34.2458 145.976 33.9567 146.202C33.6675 146.428 33.4336 146.717 33.2728 147.047C33.1119 147.377 33.0283 147.739 33.0283 148.106C33.0283 148.473 33.1119 148.835 33.2728 149.165C33.4336 149.495 33.6675 149.784 33.9567 150.01C34.2458 150.236 34.5827 150.393 34.9416 150.469C35.3006 150.545 35.6722 150.539 36.0284 150.45V150.343Z" fill="#F7B9E7"/>
<path d="M167.686 73.0059L167.865 72.451C167.966 72.0631 167.964 71.6553 167.858 71.2684C167.753 70.8816 167.548 70.5292 167.263 70.2466C166.979 69.9639 166.625 69.7609 166.237 69.6578C165.85 69.5546 165.442 69.555 165.055 69.6589L164.5 69.8379C164.075 69.9617 163.689 70.1906 163.376 70.5034C163.063 70.8163 162.834 71.203 162.71 71.6277C162.59 72.0666 162.587 72.5296 162.704 72.9696C162.82 73.4097 163.051 73.811 163.373 74.1328C163.695 74.4547 164.096 74.6856 164.536 74.802C164.976 74.9184 165.439 74.9162 165.878 74.7957C166.301 74.6675 166.685 74.4371 166.997 74.1249C167.309 73.8127 167.54 73.4284 167.668 73.0059H167.686Z" fill="#F7B9E7"/>
</g>
<defs>
<clipPath id="clip0_2288_5915">
<rect width="180" height="180" fill="white"/>
</clipPath>
</defs>
</svg>
