<svg width="100" height="100" viewBox="0 0 100 100" fill="none" xmlns="http://www.w3.org/2000/svg">
<g clip-path="url(#clip0_1972_4449)">
<path d="M99.3405 58.0112C103.765 30.7565 85.2567 5.0757 58.0019 0.651627C30.7472 -3.77245 5.0664 14.7355 0.642326 41.9902C-3.78175 69.245 14.7262 94.9258 41.9809 99.3498C69.2357 103.774 94.9165 85.266 99.3405 58.0112Z" fill="url(#paint0_linear_1972_4449)"/>
<path d="M76.852 42.3585C76.8567 42.3423 76.8567 42.3251 76.852 42.3088C76.8484 42.2356 76.828 42.1641 76.7924 42.1C76.0963 40.7676 74.048 40.5389 72.6957 40.4196C71.0231 40.2525 69.3356 40.5161 67.7936 41.1852C66.2914 41.8826 64.9962 42.9585 64.0351 44.3074C63.3092 45.3018 62.5535 46.4154 62.8816 47.6981C63.6771 50.7706 68.6885 50.2635 70.8363 49.4481C73.7 48.3444 77.1503 45.8387 76.852 42.3585Z" fill="#FFB07F"/>
<path d="M74.1672 44.0092C74.0876 43.7109 73.7595 43.5518 73.4712 43.4424C72.1577 42.9588 70.7269 42.8928 69.3745 43.2535C68.0167 43.6388 66.8573 44.5279 66.133 45.7393C65.8699 45.9895 65.6827 46.3088 65.593 46.6606C65.5033 47.0124 65.5147 47.3824 65.6259 47.728C65.9669 48.2308 66.4855 48.586 67.0776 48.7223C68.1158 48.9163 69.1855 48.8557 70.1951 48.5457C71.2047 48.2358 72.1241 47.6856 72.8746 46.9424C73.2248 46.6646 73.5242 46.3282 73.7595 45.9481C73.9575 45.5227 74.0915 45.0704 74.1573 44.6058C74.2216 44.4126 74.225 44.2044 74.1672 44.0092Z" fill="white"/>
<path d="M35.9654 44.3074C35.048 43.0112 33.8208 41.9653 32.3957 41.2648C30.8057 40.5416 29.0532 40.2501 27.3147 40.4196C25.9624 40.5488 23.914 40.7676 23.2081 42.1C23.1771 42.1659 23.1569 42.2365 23.1484 42.3088C23.1531 42.3251 23.1531 42.3423 23.1484 42.3585C22.8601 45.7691 26.1811 48.245 28.9951 49.3189C31.1627 50.1939 36.3233 50.8004 37.1287 47.6484C37.1997 47.0398 37.1319 46.423 36.9304 45.8444C36.7289 45.2658 36.399 44.7403 35.9654 44.3074Z" fill="#FFB07F"/>
<path d="M25.8522 44.0092C25.9166 43.8656 26.0142 43.7393 26.1369 43.6408C26.2597 43.5422 26.404 43.4743 26.5582 43.4424C27.8681 42.9583 29.2959 42.8923 30.6449 43.2535C31.9957 43.6424 33.1477 44.5312 33.8665 45.7393C34.1239 45.9934 34.3071 46.3128 34.3964 46.6632C34.4858 47.0136 34.4779 47.3817 34.3736 47.728C34.0288 48.2314 33.5069 48.5865 32.9119 48.7223C31.8753 48.9155 30.8073 48.8545 29.7994 48.5445C28.7915 48.2345 27.8738 47.6848 27.1249 46.9424C26.7716 46.6651 26.4688 46.3287 26.23 45.9481C26.0226 45.4892 25.8948 44.9982 25.8522 44.4964C25.8175 44.3358 25.8175 44.1697 25.8522 44.0092Z" fill="white"/>
<path d="M65.8845 40.2009C64.9986 39.1373 63.865 38.3076 62.5833 37.7846C58.2381 35.796 53.3858 35.796 48.6627 36.134C44.6854 36.4224 40.0418 36.2136 36.6412 38.7292C32.7633 41.5929 31.9181 46.9623 33.0318 51.3871C33.8774 54.1978 34.9895 56.9214 36.3529 59.5207C38.8586 64.8802 39.8131 73.2922 46.2365 75.0423C47.9782 75.4465 49.7824 75.504 51.5463 75.2113C52.8213 75.0977 54.0666 74.7611 55.2253 74.217C58.4171 72.5067 59.4512 67.6146 60.6543 64.6316C62.2652 60.4753 65.626 56.2494 66.5507 51.8942C67.3164 48.3146 68.2113 43.3628 65.8845 40.2009Z" fill="#FFB07F"/>
<path d="M56.5574 73.1332C57.1988 72.3303 57.6494 71.3922 57.875 70.3896C58.1007 69.3871 58.0955 68.3464 57.86 67.3461C57.0944 63.6075 53.2861 62.285 49.9053 62.4839C46.7334 62.6429 43.1538 63.9455 42.2191 67.3064C41.4833 69.9612 42.6666 73.6601 45.401 74.7241C46.2846 75.032 47.2101 75.203 48.1454 75.2312C50.002 75.4102 51.8754 75.2893 53.6937 74.8732C54.8048 74.6022 55.805 73.9945 56.5574 73.1332Z" fill="white"/>
<path d="M62.4835 55.2849C62.8973 55.2868 63.3024 55.1658 63.6473 54.9371C63.9922 54.7084 64.2613 54.3824 64.4206 54.0005C64.5799 53.6185 64.6221 53.1978 64.5418 52.7919C64.4616 52.3859 64.2625 52.0129 63.9699 51.7203C63.6773 51.4277 63.3043 51.2286 62.8983 51.1483C62.4923 51.0681 62.0717 51.1103 61.6897 51.2696C61.3078 51.4288 60.9817 51.698 60.7531 52.0429C60.5244 52.3878 60.4033 52.7929 60.4053 53.2067C60.413 53.7555 60.6344 54.2796 61.0225 54.6677C61.4106 55.0557 61.9347 55.2772 62.4835 55.2849Z" fill="url(#paint1_linear_1972_4449)"/>
<path d="M37.5061 55.2849C37.9195 55.2849 38.3236 55.1622 38.6672 54.9323C39.0108 54.7024 39.2784 54.3757 39.4362 53.9936C39.5939 53.6114 39.6347 53.1911 39.5533 52.7858C39.4719 52.3804 39.2721 52.0084 38.979 51.7168C38.686 51.4251 38.313 51.2271 37.9073 51.1476C37.5016 51.0682 37.0815 51.1109 36.7001 51.2705C36.3187 51.4301 35.9933 51.6993 35.7651 52.044C35.5368 52.3887 35.416 52.7933 35.418 53.2067C35.4307 53.7556 35.6551 54.2783 36.0443 54.6656C36.4334 55.0529 36.9572 55.2748 37.5061 55.2849Z" fill="url(#paint2_linear_1972_4449)"/>
<path d="M46.853 69.2652C47.1406 69.2398 47.4265 69.3292 47.6485 69.5138C47.7694 69.6173 47.8705 69.7419 47.9468 69.8817C48.0004 70.004 48.0796 70.1135 48.1791 70.2027C48.2786 70.2919 48.396 70.3588 48.5235 70.3987C48.6605 70.4355 48.8057 70.4262 48.9369 70.3723C49.0681 70.3184 49.1779 70.2229 49.2494 70.1004C49.667 69.4044 48.9511 68.6288 48.4042 68.2609C48.1226 68.0761 47.8069 67.9492 47.4757 67.8878C47.1445 67.8263 46.8044 67.8315 46.4752 67.9029C46.3847 67.9271 46.2999 67.969 46.2258 68.0262C46.1516 68.0834 46.0896 68.1549 46.0433 68.2363C45.9971 68.3177 45.9675 68.4076 45.9562 68.5006C45.945 68.5936 45.9524 68.6878 45.978 68.7779C46.0334 68.956 46.1551 69.1059 46.318 69.1966C46.481 69.2873 46.6725 69.3119 46.853 69.2652Z" fill="url(#paint3_linear_1972_4449)"/>
<path d="M53.5246 67.903C53.1937 67.8318 52.8521 67.8268 52.5193 67.8882C52.1866 67.9496 51.8692 68.0763 51.5856 68.2609C51.0387 68.6288 50.3228 69.4044 50.7404 70.1004C50.816 70.2214 50.9278 70.3154 51.0599 70.369C51.1921 70.4225 51.3378 70.433 51.4762 70.3987C51.7105 70.3167 51.9055 70.15 52.0231 69.9314C52.1029 69.774 52.2107 69.6325 52.3413 69.5138C52.5678 69.3305 52.8563 69.2414 53.1467 69.2652C53.2362 69.29 53.3296 69.2969 53.4217 69.2856C53.5139 69.2743 53.6029 69.245 53.6837 69.1993C53.7645 69.1536 53.8355 69.0924 53.8926 69.0193C53.9498 68.9461 53.9919 68.8624 54.0168 68.773C54.0416 68.6835 54.0485 68.5901 54.0372 68.498C54.0259 68.4058 53.9966 68.3168 53.9508 68.236C53.9051 68.1552 53.844 68.0842 53.7708 68.0271C53.6977 67.9699 53.614 67.9278 53.5246 67.903Z" fill="url(#paint4_linear_1972_4449)"/>
<path d="M45.8587 71.8007C47.1234 72.5959 48.602 72.9833 50.0942 72.9104C51.5863 72.8375 53.02 72.3078 54.2012 71.393C54.4498 71.1942 54.1216 70.7666 53.8631 70.9555C52.7551 71.7726 51.4296 72.2427 50.0544 72.3064C48.6792 72.3701 47.316 72.0246 46.1372 71.3135C45.8289 71.1246 45.5505 71.6118 45.8587 71.8007Z" fill="url(#paint5_linear_1972_4449)"/>
<path d="M63.5182 62.802C62.8416 62.802 62.1803 62.6014 61.6178 62.2255C61.0553 61.8497 60.6169 61.3155 60.358 60.6905C60.0991 60.0655 60.0314 59.3777 60.1634 58.7142C60.2954 58.0507 60.6211 57.4412 61.0995 56.9628C61.5779 56.4845 62.1873 56.1587 62.8509 56.0267C63.5144 55.8947 64.2021 55.9625 64.8271 56.2214C65.4521 56.4803 65.9864 56.9187 66.3622 57.4812C66.7381 58.0437 66.9387 58.705 66.9387 59.3815C66.9283 60.2855 66.5646 61.1495 65.9254 61.7887C65.2862 62.428 64.4221 62.7917 63.5182 62.802Z" fill="#E0435B"/>
<path d="M36.4129 62.802C35.7359 62.804 35.0736 62.605 34.5098 62.2304C33.946 61.8557 33.5061 61.3222 33.2457 60.6974C32.9852 60.0725 32.9161 59.3845 33.0469 58.7203C33.1778 58.0561 33.5028 57.4457 33.9807 56.9664C34.4587 56.487 35.0682 56.1602 35.732 56.0275C36.3957 55.8947 37.084 55.9618 37.7096 56.2204C38.3352 56.479 38.87 56.9174 39.2463 57.4801C39.6226 58.0428 39.8234 58.7046 39.8234 59.3815C39.8132 60.2838 39.4508 61.1463 38.8137 61.7853C38.1766 62.4243 37.3151 62.7891 36.4129 62.802Z" fill="#E0435B"/>
<path d="M85.155 39.3358C84.6853 36.9097 83.7238 34.6054 82.3296 32.5651C80.9354 30.5249 79.1381 28.7917 77.0485 27.4726C74.9589 26.1534 72.6213 25.2762 70.1797 24.895C67.7382 24.5138 65.2444 24.6366 62.8521 25.256C60.0331 26.2326 57.6492 28.1728 56.1205 30.7348C54.9034 32.5862 54.2157 34.7353 54.1318 36.9494C54.1318 39.2264 55.9316 41.056 57.7214 42.2293C59.5112 43.4026 62.1064 44.4069 64.3635 43.8997C65.5169 43.6313 65.9346 42.9054 66.6107 41.9707C67.7641 40.3798 68.8778 38.8883 70.946 38.5403C73.4418 38.1227 75.3608 40.2008 76.1265 42.3784C76.5277 43.5537 76.6879 44.7979 76.5974 46.0366C76.5068 47.2752 76.1674 48.4828 75.5995 49.5873C73.8594 52.8686 69.2656 53.7834 65.9445 52.7791C65.898 52.7678 65.8491 52.7702 65.8039 52.7859C65.7586 52.8017 65.7189 52.8302 65.6895 52.868C65.6601 52.9059 65.6422 52.9514 65.6381 52.9991C65.6339 53.0468 65.6437 53.0948 65.6661 53.1371C68.1022 57.711 75.4106 57.4326 78.9901 54.4894C81.1738 52.6563 82.8767 50.3177 83.9511 47.6768C85.0255 45.0359 85.4387 42.1727 85.155 39.3358Z" fill="#96CBEB"/>
<path d="M70.0999 53.4951C70.2924 53.8615 70.3488 54.2842 70.259 54.6883C70.2152 54.8622 70.1412 55.0272 70.0403 55.1755C69.921 55.3346 69.7917 55.4141 69.7619 55.613C69.7544 55.6434 69.7539 55.6751 69.7603 55.7058C69.7668 55.7364 69.7801 55.7652 69.7992 55.7901C69.8183 55.8149 69.8427 55.8351 69.8707 55.8492C69.8986 55.8633 69.9294 55.8709 69.9607 55.8715C70.4579 55.8715 70.7463 55.1357 70.8159 54.7181C70.8749 54.4562 70.8743 54.1844 70.8141 53.9228C70.7538 53.6611 70.6355 53.4164 70.4678 53.2067C70.2789 52.9979 70.0105 53.2664 70.0999 53.4851V53.4951Z" fill="url(#paint6_linear_1972_4449)"/>
<path d="M72.7754 52.5604C72.676 52.9979 73.2925 53.3957 73.4814 53.7735C73.6491 54.1308 73.7442 54.5177 73.7613 54.912C73.7784 55.3063 73.717 55.7 73.5808 56.0704C73.4615 56.4184 74.0084 56.5676 74.1277 56.2196C74.368 55.5715 74.4014 54.8649 74.2233 54.1971C74.0453 53.5293 73.6645 52.9332 73.1334 52.4908C73.0964 52.4669 73.0532 52.4541 73.0091 52.4541C72.965 52.4541 72.9218 52.4669 72.8848 52.4908C72.8848 52.4908 72.7953 52.4908 72.7953 52.5604H72.7754Z" fill="url(#paint7_linear_1972_4449)"/>
<path d="M74.8636 51.5363C75.5698 51.7944 76.2063 52.2131 76.723 52.7593C77.151 53.3694 77.486 54.0396 77.7173 54.748C77.8367 54.9866 78.135 54.8374 78.1549 54.6286C78.1169 53.793 77.7612 53.0034 77.1605 52.4212C76.6161 51.7535 75.8633 51.2878 75.0227 51.0988C74.7841 51.0988 74.5753 51.4169 74.8437 51.5363H74.8636Z" fill="url(#paint8_linear_1972_4449)"/>
<path d="M76.1062 49.468C77.0953 49.4971 78.077 49.6473 79.0295 49.9155C79.5216 50.0925 79.9528 50.4064 80.2724 50.8203C80.5409 51.1882 80.6105 51.6058 80.8392 51.9837C80.851 52.0164 80.8726 52.0448 80.901 52.0648C80.9295 52.0848 80.9635 52.0956 80.9983 52.0956C81.0331 52.0956 81.0671 52.0848 81.0955 52.0648C81.124 52.0448 81.1456 52.0164 81.1574 51.9837C81.4557 51.0788 80.531 50.1243 79.815 49.6967C78.6797 49.0902 77.3744 48.8802 76.1062 49.1001C75.9073 49.1001 75.9073 49.468 76.1062 49.5078V49.468Z" fill="url(#paint9_linear_1972_4449)"/>
<path d="M76.9416 46.8132C78.0215 46.41 79.1997 46.3513 80.3144 46.6451C81.429 46.9388 82.4252 47.5707 83.1661 48.4538C83.2068 48.492 83.2595 48.5146 83.3152 48.5179C83.3709 48.5212 83.426 48.5049 83.4709 48.4718C83.5158 48.4387 83.5477 48.391 83.561 48.3368C83.5744 48.2827 83.5683 48.2256 83.5439 48.1754C82.8426 47.0851 81.756 46.2993 80.5008 45.9749C79.2456 45.6505 77.9143 45.8114 76.7725 46.4254C76.7346 46.4553 76.7077 46.497 76.696 46.5438C76.6843 46.5907 76.6884 46.6401 76.7077 46.6844C76.727 46.7287 76.7604 46.7653 76.8027 46.7886C76.845 46.8119 76.8938 46.8205 76.9416 46.8132Z" fill="url(#paint10_linear_1972_4449)"/>
<path d="M76.9717 44.745C77.3296 44.7443 77.678 44.6293 77.966 44.4169C78.6881 44.0275 79.4718 43.7651 80.2828 43.6413C81.8041 43.4026 82.9973 43.8998 84.4491 44.1086C84.5982 44.1086 84.7772 43.9296 84.6181 43.8103C83.5044 42.8955 81.6351 42.816 80.243 43.0745C79.2487 43.2237 77.3296 43.6313 76.9717 44.7052V44.745Z" fill="url(#paint11_linear_1972_4449)"/>
<path d="M76.385 41.6824C77.1439 40.5603 78.1381 39.6171 79.2984 38.9181C80.0698 38.549 80.9077 38.3394 81.762 38.3018C82.6162 38.2642 83.4693 38.3994 84.2701 38.6994C84.6181 38.8187 84.7673 38.2718 84.4192 38.1525C81.5357 37.1582 77.0413 38.1525 76.0967 41.5134C76.0967 41.6724 76.2657 41.8216 76.385 41.6824Z" fill="url(#paint12_linear_1972_4449)"/>
<path d="M74.2967 39.0574C75.4402 38.063 75.9771 36.3428 77.051 35.1993C77.6122 34.5976 78.2588 34.0817 78.9701 33.6681C79.7683 33.3187 80.5928 33.0328 81.436 32.8129C81.4751 32.8035 81.5098 32.7813 81.5347 32.7497C81.5596 32.7181 81.5731 32.6791 81.5731 32.6389C81.5731 32.5988 81.5596 32.5597 81.5347 32.5282C81.5098 32.4966 81.4751 32.4743 81.436 32.4649C79.8351 32.2561 78.095 33.4593 77.0112 34.5232C75.9274 35.5871 74.3762 37.4266 74.1973 39.0176C74.1973 39.0872 74.2868 39.117 74.3365 39.0772L74.2967 39.0574Z" fill="url(#paint13_linear_1972_4449)"/>
<path d="M72.1786 38.0929C72.5368 37.5279 72.7738 36.8948 72.8746 36.2335C73.1435 35.1153 73.5129 34.0237 73.9784 32.9721C74.787 31.2458 75.9137 29.6873 77.2994 28.3783C77.3464 28.3257 77.3716 28.2572 77.3701 28.1867C77.3685 28.1162 77.3403 28.049 77.2911 27.9985C77.2419 27.948 77.1753 27.9181 77.1049 27.9147C77.0345 27.9114 76.9654 27.9349 76.9116 27.9805C75.4928 29.3269 74.3364 30.9251 73.5011 32.6937C73.0943 33.552 72.7616 34.4435 72.5067 35.3585C72.1486 36.2133 71.9855 37.1373 72.0295 38.0631C72.0341 38.0737 72.0418 38.0828 72.0515 38.0891C72.0612 38.0955 72.0725 38.0989 72.0842 38.0989C72.0958 38.0989 72.1071 38.0955 72.1168 38.0891C72.1265 38.0828 72.1342 38.0737 72.1388 38.0631L72.1786 38.0929Z" fill="url(#paint14_linear_1972_4449)"/>
<path d="M70.0808 38.421C70.2497 37.514 70.2497 36.5836 70.0808 35.6766C69.9913 34.5928 69.9118 33.499 69.8819 32.4053C69.7702 30.1398 70.0528 27.8722 70.7172 25.7035C70.8265 25.3654 70.2896 25.2262 70.1802 25.5543C69.5177 27.6928 69.2317 29.9302 69.335 32.1666C69.335 33.3399 69.4544 34.5132 69.5538 35.6766C69.549 36.6166 69.7141 37.5496 70.041 38.4309H70.1206L70.0808 38.421Z" fill="url(#paint15_linear_1972_4449)"/>
<path d="M69.1158 38.5005C67.1271 37.1482 66.1328 35.0502 65.2578 32.8925C64.2686 30.6372 63.8913 28.161 64.164 25.7134C64.164 25.3654 63.6768 25.2063 63.6271 25.5643C63.3036 28.2836 63.748 31.0391 64.9098 33.5189C65.5859 35.09 66.8984 38.7392 69.0363 38.8187C69.0717 38.8193 69.1064 38.808 69.1347 38.7866C69.163 38.7652 69.1834 38.7349 69.1925 38.7006C69.2017 38.6663 69.1991 38.63 69.1852 38.5973C69.1713 38.5647 69.1469 38.5376 69.1158 38.5204V38.5005Z" fill="url(#paint16_linear_1972_4449)"/>
<path d="M67.8735 39.7733C65.2385 39.7733 62.9018 37.1284 61.4203 35.1198C59.9974 33.2194 59.1579 30.9462 59.004 28.5771C59.004 28.2291 58.4472 28.2192 58.4572 28.5771C58.5958 31.2834 59.6075 33.872 61.3407 35.9551C62.8024 37.7946 65.3181 40.6185 67.9331 40.2307C68.2016 40.2307 68.1221 39.7733 67.8735 39.7733Z" fill="url(#paint17_linear_1972_4449)"/>
<path d="M66.5009 41.5432C65.2372 41.7143 63.9528 41.6503 62.7125 41.3543C61.3391 40.9017 60.0637 40.1932 58.9539 39.2662C58.0532 38.5365 57.2833 37.6589 56.6769 36.671C56.1494 35.6433 55.6781 34.5877 55.2649 33.509C55.2456 33.4693 55.2129 33.4377 55.1727 33.4196C55.1324 33.4015 55.0871 33.398 55.0446 33.4098C55.0021 33.4217 54.965 33.448 54.9399 33.4843C54.9148 33.5205 54.9031 33.5644 54.907 33.6084C54.907 36.0743 57.1144 38.5801 58.9837 39.992C60.9724 41.5034 64.0847 42.975 66.6103 41.8713C66.6417 41.8505 66.6658 41.8204 66.6791 41.7851C66.6924 41.7498 66.6943 41.7112 66.6843 41.6748C66.6744 41.6385 66.6533 41.6061 66.6239 41.5825C66.5945 41.5589 66.5584 41.5451 66.5208 41.5432H66.5009Z" fill="url(#paint18_linear_1972_4449)"/>
<path d="M44.8439 32.6141C43.6956 29.8883 41.6925 27.6095 39.1365 26.1211C36.3715 24.7338 33.2272 24.2935 30.1875 24.8683C22.5311 25.9521 16.1077 31.4905 14.8549 39.2761C14.5526 42.1187 14.952 44.9919 16.0181 47.6442C17.0842 50.2965 18.7845 52.6469 20.97 54.4894C24.5496 57.4724 31.9077 57.7111 34.2941 53.1371C34.3165 53.0948 34.3262 53.0469 34.3221 52.9991C34.3179 52.9514 34.3001 52.9059 34.2707 52.8681C34.2412 52.8303 34.2015 52.8018 34.1563 52.786C34.111 52.7702 34.0622 52.7678 34.0156 52.7792C31.0327 53.6641 27.2442 53.0576 25.1164 50.6911C22.372 47.6285 22.7698 41.7421 26.1107 39.2264C26.9511 38.6675 27.9601 38.4192 28.9639 38.5245C29.9677 38.6298 30.9033 39.082 31.6094 39.8031C32.7031 40.8671 33.3097 42.5177 34.5029 43.4424C36.0938 44.6754 38.8779 43.8799 40.4689 43.1739C42.6719 42.3322 44.4712 40.6823 45.5002 38.5602C46.236 36.6909 45.5797 34.3741 44.8439 32.6141Z" fill="#96CBEB"/>
<path d="M29.5317 53.2166C29.3681 53.4209 29.2512 53.6585 29.1894 53.9127C29.1275 54.167 29.1222 54.4317 29.1737 54.6883C29.2533 55.1059 29.5317 55.8417 30.0388 55.8417C30.0701 55.8411 30.1009 55.8335 30.1289 55.8194C30.1568 55.8053 30.1813 55.7851 30.2004 55.7602C30.2195 55.7354 30.2327 55.7066 30.2392 55.6759C30.2457 55.6453 30.2451 55.6136 30.2377 55.5832C30.1986 55.4381 30.1193 55.3071 30.009 55.2053C29.8807 55.0447 29.7891 54.8581 29.7405 54.6584C29.6496 54.2522 29.7023 53.827 29.8896 53.4553C29.9891 53.2365 29.7206 52.9681 29.5317 53.1769V53.2166Z" fill="url(#paint19_linear_1972_4449)"/>
<path d="M27.1952 52.5206H27.1256C27.0885 52.4966 27.0454 52.4839 27.0013 52.4839C26.9572 52.4839 26.914 52.4966 26.877 52.5206C26.3491 52.9589 25.968 53.5483 25.7849 54.2095C25.6019 54.8707 25.6255 55.5722 25.8528 56.2195C25.9721 56.5675 26.519 56.4184 26.3997 56.0704C26.2527 55.6506 26.2013 55.2033 26.2495 54.7611C26.2977 54.319 26.4441 53.8932 26.6781 53.5149C26.6781 53.5149 27.5233 52.6698 27.215 52.5206H27.1952Z" fill="url(#paint20_linear_1972_4449)"/>
<path d="M24.9476 51.0988C24.1091 51.2928 23.3578 51.7575 22.8098 52.4212C22.2132 53.0063 21.8583 53.7942 21.8154 54.6286C21.8154 54.8374 22.1436 54.9866 22.2629 54.748C22.4963 54.0404 22.8313 53.3706 23.2572 52.7593C23.7766 52.2163 24.4124 51.7982 25.1166 51.5363C25.3851 51.4269 25.1763 51.059 24.9277 51.0988H24.9476Z" fill="url(#paint21_linear_1972_4449)"/>
<path d="M23.8636 49.0604C22.5921 48.8405 21.2837 49.0504 20.1448 49.657C19.4388 50.0945 18.5141 51.0391 18.8124 51.9439C18.8242 51.9767 18.8458 52.005 18.8742 52.0251C18.9027 52.0451 18.9367 52.0558 18.9715 52.0558C19.0063 52.0558 19.0403 52.0451 19.0687 52.0251C19.0972 52.005 19.1188 51.9767 19.1306 51.9439C19.3195 51.6357 19.3692 51.2877 19.5482 50.9496C19.8787 50.439 20.3678 50.0513 20.9403 49.8459C21.8957 49.6013 22.8774 49.4744 23.8636 49.468C24.0625 49.468 24.0625 49.0902 23.8636 49.0604Z" fill="url(#paint22_linear_1972_4449)"/>
<path d="M23.2174 46.4254C22.0771 45.8119 20.7473 45.6514 19.4938 45.9758C18.2403 46.3003 17.1554 47.0858 16.4559 48.1754C16.4376 48.1995 16.4243 48.2271 16.4166 48.2564C16.409 48.2857 16.4072 48.3162 16.4114 48.3462C16.4155 48.3762 16.4255 48.4051 16.4409 48.4313C16.4562 48.4574 16.4765 48.4803 16.5007 48.4985C16.5248 48.5168 16.5523 48.5302 16.5817 48.5378C16.611 48.5455 16.6415 48.5473 16.6715 48.5431C16.7015 48.5389 16.7304 48.5289 16.7565 48.5136C16.7827 48.4983 16.8055 48.478 16.8238 48.4538C17.5654 47.5687 18.5634 46.9355 19.68 46.6417C20.7967 46.3478 21.9771 46.4077 23.0583 46.8132C23.1097 46.8343 23.1674 46.8341 23.2187 46.8126C23.27 46.7912 23.3106 46.7502 23.3317 46.6988C23.3528 46.6474 23.3526 46.5897 23.3312 46.5384C23.3097 46.4871 23.2688 46.4465 23.2174 46.4254Z" fill="url(#paint23_linear_1972_4449)"/>
<path d="M23.0582 44.745C22.6903 43.6611 20.7812 43.2634 19.7769 43.1143C18.4147 42.9054 16.5155 42.9353 15.4019 43.8501C15.2527 43.9694 15.4019 44.1683 15.5809 44.1484C17.0226 43.9396 18.2258 43.4424 19.7372 43.681C20.4848 43.7895 21.21 44.0179 21.8849 44.3572C22.3224 44.5759 22.5412 44.7947 23.0284 44.7847L23.0582 44.745Z" fill="url(#paint24_linear_1972_4449)"/>
<path d="M23.8637 41.5134C22.919 38.1625 18.4247 37.1582 15.5312 38.1525C15.1931 38.2718 15.3422 38.8187 15.6903 38.6994C16.491 38.3994 17.3441 38.2642 18.1984 38.3018C19.0527 38.3394 19.8906 38.549 20.6619 38.9181C21.8203 39.6196 22.814 40.5624 23.5753 41.6824C23.6946 41.8216 23.9034 41.6824 23.8637 41.5134Z" fill="url(#paint25_linear_1972_4449)"/>
<path d="M25.8524 38.9977C25.6833 37.3968 24.162 35.5871 23.0484 34.5033C21.9347 33.4195 20.2145 32.2363 18.6236 32.4451C18.582 32.447 18.5424 32.4634 18.5117 32.4915C18.4809 32.5195 18.4608 32.5573 18.4549 32.5985C18.449 32.6397 18.4577 32.6817 18.4794 32.7172C18.5011 32.7527 18.5345 32.7795 18.5739 32.7931C20.2742 33.4294 21.6563 33.7874 22.9688 35.1994C24.0427 36.3428 24.5796 38.0332 25.7132 39.0574C25.7629 39.0574 25.8623 39.0574 25.8524 38.9977Z" fill="url(#paint26_linear_1972_4449)"/>
<path d="M27.9308 38.063C27.973 37.2213 27.834 36.3804 27.5231 35.5971C27.2721 34.6036 26.9395 33.6325 26.5288 32.6936C25.6935 30.925 24.537 29.3269 23.1182 27.9805C22.8597 27.7319 22.4719 28.1296 22.7205 28.3782C24.1093 29.6869 25.2393 31.2453 26.0515 32.972C26.4695 33.9354 26.8022 34.9336 27.0458 35.955C27.1623 36.7145 27.433 37.442 27.8413 38.0929C27.8475 38.1032 27.8562 38.1117 27.8667 38.1176C27.8771 38.1235 27.889 38.1266 27.901 38.1266C27.913 38.1266 27.9248 38.1235 27.9352 38.1176C27.9457 38.1117 27.9544 38.1032 27.9606 38.0929L27.9308 38.063Z" fill="url(#paint27_linear_1972_4449)"/>
<path d="M29.999 38.4309C30.3275 37.5504 30.4894 36.6164 30.4763 35.6766C30.5856 34.5132 30.6751 33.3399 30.7049 32.1666C30.7984 29.9285 30.5024 27.6911 29.8299 25.5543C29.7206 25.2262 29.1936 25.3654 29.3029 25.7035C29.9639 27.8728 30.2431 30.1404 30.1282 32.4053C30.1282 33.499 30.0288 34.5928 29.9294 35.6766C29.7654 36.584 29.7654 37.5135 29.9294 38.421H30.0089L29.999 38.4309Z" fill="url(#paint28_linear_1972_4449)"/>
<path d="M30.9634 38.779C33.0615 38.6994 34.4137 35.0502 35.0899 33.4792C36.2471 30.998 36.6913 28.2437 36.3726 25.5245C36.3129 25.1666 35.7859 25.3257 35.8257 25.6737C36.1027 28.1213 35.7253 30.5987 34.7319 32.8528C33.8072 35.0502 32.8129 37.1483 30.8839 38.5006C30.8528 38.5177 30.8284 38.5448 30.8145 38.5775C30.8006 38.6101 30.798 38.6465 30.8071 38.6808C30.8163 38.7151 30.8366 38.7453 30.8649 38.7667C30.8933 38.7881 30.9279 38.7994 30.9634 38.7989V38.779Z" fill="url(#paint29_linear_1972_4449)"/>
<path d="M32.0669 40.2704C34.6721 40.6582 37.1977 37.8343 38.6494 35.9948C40.3893 33.9149 41.405 31.3251 41.5429 28.6169C41.5429 28.2589 41.0159 28.2688 40.996 28.6169C40.8371 30.9849 39.9981 33.2567 38.5798 35.1596C37.1181 37.1681 34.8014 39.7733 32.1266 39.7733C31.878 39.7733 31.7985 40.1909 32.0669 40.2307V40.2704Z" fill="url(#paint30_linear_1972_4449)"/>
<path d="M33.4095 41.8713C35.9252 43.0148 39.0076 41.5034 41.0261 39.992C43.0446 38.4806 45.0631 36.0743 45.1128 33.6084C45.1166 33.5644 45.105 33.5205 45.0799 33.4843C45.0547 33.448 45.0177 33.4217 44.9752 33.4098C44.9326 33.398 44.8873 33.4015 44.8471 33.4196C44.8068 33.4377 44.7742 33.4693 44.7548 33.509C44.2378 34.5033 43.9594 35.6667 43.3429 36.671C42.7305 37.6605 41.9537 38.5381 41.046 39.2662C39.9361 40.1932 38.6608 40.9017 37.2874 41.3543C36.047 41.65 34.7626 41.7141 33.499 41.5432C33.4613 41.5451 33.4252 41.5589 33.3959 41.5825C33.3665 41.6061 33.3453 41.6385 33.3354 41.6748C33.3255 41.7112 33.3273 41.7498 33.3406 41.7851C33.3539 41.8204 33.378 41.8505 33.4095 41.8713Z" fill="url(#paint31_linear_1972_4449)"/>
<path d="M44.3574 42.1696C44.1063 42.6149 43.9836 43.121 44.0029 43.6319C44.0223 44.1427 44.1828 44.6381 44.4668 45.0631C44.7202 45.5116 45.0737 45.8957 45.4996 46.1854C45.9256 46.4751 46.4126 46.6627 46.9228 46.7336C47.2311 46.7336 47.2311 46.3359 46.9924 46.2464C46.1558 45.9996 45.4292 45.4731 44.9342 44.7549C44.5814 43.9401 44.4149 43.0569 44.4469 42.1696C44.4469 42.1696 44.3873 42.0901 44.3574 42.1696Z" fill="url(#paint32_linear_1972_4449)"/>
<path d="M47.1216 42.3188C46.9227 43.5816 48.1159 45.0333 49.0108 45.8288C49.9057 46.6242 51.2083 47.36 52.4711 46.8231C52.7396 46.7038 52.5506 46.2464 52.2623 46.3458C50.9398 46.8032 49.677 45.8486 48.8418 44.8841C48.1557 44.1086 47.8474 43.0745 47.2111 42.3387C47.207 42.3302 47.2006 42.3232 47.1927 42.3182C47.1848 42.3132 47.1757 42.3106 47.1663 42.3106C47.157 42.3106 47.1478 42.3132 47.1399 42.3182C47.132 42.3232 47.1256 42.3302 47.1216 42.3387V42.3188Z" fill="url(#paint33_linear_1972_4449)"/>
<path d="M52.4812 44.1384C53.2966 44.8543 55.0864 45.7293 56.021 44.7251C56.1702 44.566 56.021 44.2577 55.7923 44.3373C55.3107 44.5592 54.7708 44.6218 54.2511 44.5162C53.7155 44.3201 53.1967 44.0807 52.7 43.8003C52.4912 43.7009 52.2326 43.9594 52.4414 44.1384H52.4812Z" fill="url(#paint34_linear_1972_4449)"/>
<path d="M47.0323 11.7629C47.0403 11.7458 47.0444 11.7271 47.0444 11.7082C47.0444 11.6893 47.0403 11.6707 47.0323 11.6536C46.734 11.0868 45.6701 10.9774 45.1331 10.878C44.2482 10.699 43.3632 10.5996 42.4782 10.4802L42.0407 10.4206C41.9811 10.4206 41.8816 10.3609 41.8916 10.4206C41.7755 10.2277 41.6853 10.0204 41.6231 9.80409C41.2552 8.94897 40.8973 8.0839 40.5294 7.22877C40.3404 6.80121 40.1416 6.3637 39.9427 5.94608C39.7438 5.52846 39.6643 5.19039 39.3759 5.06113C38.7296 4.78271 38.2822 6.37365 38.1032 6.76144C37.6955 7.68616 37.3077 8.62084 36.91 9.54557C36.8205 9.73449 36.6813 10.3013 36.5123 10.4305C36.2311 10.4568 35.9482 10.4568 35.6671 10.4305L34.4838 10.53C33.8128 10.5766 33.1473 10.6831 32.4952 10.8481C32.0974 10.9675 31.4014 11.1564 31.5008 11.6933C31.6003 12.2303 32.2366 12.5584 32.5449 12.807C33.0382 13.2147 33.5599 13.5868 34.106 13.9206C34.3988 14.0478 34.6813 14.1974 34.9512 14.3681C35.2594 14.6067 35.1102 14.8553 35.0307 15.1735C34.8517 15.8397 34.6628 16.5158 34.5037 17.1622C34.3571 17.7323 34.241 18.3098 34.1557 18.8923C34.0518 19.2765 34.0518 19.6814 34.1557 20.0656C34.5634 20.9307 36.1443 19.4193 36.5023 19.1309C36.8603 18.8426 37.437 18.3852 37.8844 17.9974L38.5407 17.4207C38.66 17.3014 38.9782 16.8837 39.1273 16.8539C39.2765 16.8241 40.1217 17.6394 40.2708 17.8482C40.7382 18.246 41.2652 18.6338 41.7126 19.0116C42.3318 19.645 43.1179 20.0897 43.9797 20.2943C44.7453 20.3639 44.3874 19.2105 44.278 18.7531C44.0393 17.6593 43.6814 16.5954 43.3632 15.5215C43.2936 15.2928 43.2041 15.0542 43.1544 14.8155C43.1047 14.5769 43.1544 14.5769 43.3234 14.4476C43.751 14.1891 44.3178 14.03 44.7056 13.8113C45.4215 13.4533 46.8434 12.8169 47.0422 11.9121C47.0562 11.8892 47.0628 11.8626 47.061 11.8359C47.0592 11.8092 47.0492 11.7837 47.0323 11.7629Z" fill="#FFF896"/>
<path d="M75.1816 81.8336C73.9642 81.7423 72.7428 81.7157 71.5225 81.754L72.5168 80.7597C73.0997 80.2628 73.6027 79.6792 74.0083 79.0296C74.0432 78.968 74.0579 78.897 74.0503 78.8266C74.0427 78.7563 74.0132 78.69 73.966 78.6373C73.9188 78.5846 73.8562 78.548 73.7871 78.5328C73.718 78.5175 73.6458 78.5243 73.5808 78.5523C72.9215 78.9489 72.325 79.4415 71.8109 80.0139L70.7569 81.0083V79.5466C70.8211 78.7801 70.764 78.0083 70.5878 77.2596C70.5666 77.1905 70.5237 77.13 70.4656 77.087C70.4074 77.0441 70.337 77.0209 70.2647 77.0209C70.1924 77.0209 70.1219 77.0441 70.0638 77.087C70.0056 77.13 69.9628 77.1905 69.9415 77.2596C69.7538 78.0066 69.6801 78.7776 69.7228 79.5466C69.7228 80.0438 69.7228 80.5409 69.7228 81.0282L68.7284 79.9742C68.2278 79.3884 67.6411 78.8822 66.9883 78.4727C66.9234 78.4358 66.8481 78.4214 66.7741 78.4317C66.7002 78.4421 66.6317 78.4767 66.5795 78.53C66.5272 78.5834 66.4941 78.6526 66.4854 78.7268C66.4766 78.801 66.4926 78.876 66.531 78.9401C66.9251 79.5981 67.4181 80.1917 67.9926 80.7L68.987 81.764H67.4955C66.7285 81.7039 65.9568 81.7643 65.2085 81.9429C65.1394 81.9642 65.0789 82.007 65.0359 82.0652C64.9929 82.1234 64.9697 82.1938 64.9697 82.2661C64.9697 82.3384 64.9929 82.4088 65.0359 82.467C65.0789 82.5252 65.1394 82.568 65.2085 82.5893C65.9552 82.7781 66.7269 82.8486 67.4955 82.7981H68.9472C68.0523 83.6432 67.1574 84.4884 66.3619 85.4032C66.2878 85.5013 66.2519 85.6231 66.2608 85.7457C66.2698 85.8684 66.323 85.9836 66.4105 86.0699C66.4981 86.1563 66.614 86.2079 66.7368 86.2151C66.8596 86.2223 66.9808 86.1847 67.0778 86.1092C67.9926 85.3436 68.8477 84.4685 69.6929 83.6035C69.6929 84.8166 69.6233 86.0396 69.6929 87.2328C69.716 87.3476 69.7781 87.451 69.8688 87.5252C69.9594 87.5994 70.0729 87.64 70.1901 87.64C70.3072 87.64 70.4208 87.5994 70.5114 87.5252C70.602 87.451 70.6642 87.3476 70.6873 87.2328C70.7966 86.0396 70.7768 84.8265 70.7668 83.6134C71.602 84.4984 72.4373 85.3833 73.3421 86.1689C73.4392 86.2443 73.5604 86.282 73.6832 86.2747C73.8059 86.2675 73.9219 86.2159 74.0094 86.1296C74.097 86.0432 74.1502 85.928 74.1592 85.8054C74.1681 85.6827 74.1322 85.561 74.0581 85.4629C73.2825 84.5183 72.4174 83.693 71.5921 82.8478C72.8052 82.8478 74.0183 82.9174 75.2214 82.8478C75.3559 82.8425 75.4828 82.784 75.5742 82.6852C75.6655 82.5864 75.7139 82.4553 75.7086 82.3208C75.7034 82.1863 75.6449 82.0594 75.546 81.968C75.4472 81.8767 75.3161 81.8283 75.1816 81.8336Z" fill="white"/>
<path d="M67.9927 16.1281C68.3209 16.1228 68.6344 15.991 68.8678 15.7602C68.9813 15.6465 69.0714 15.5117 69.1328 15.3632C69.1942 15.2148 69.2258 15.0557 69.2257 14.8951C69.2263 14.5676 69.0977 14.2532 68.8678 14.0201C68.6323 13.7937 68.3193 13.6657 67.9927 13.6621C67.6657 13.6636 67.352 13.792 67.1177 14.0201C66.8914 14.2555 66.7633 14.5685 66.7598 14.8951C66.7638 15.2187 66.892 15.5283 67.1177 15.7602C67.3522 15.9893 67.665 16.1208 67.9927 16.1281Z" fill="white"/>
<path d="M52.6999 23.864C53.0005 23.8618 53.2888 23.7444 53.5054 23.5359C53.6113 23.4305 53.6949 23.3049 53.7513 23.1665C53.8077 23.0281 53.8356 22.8799 53.8335 22.7305C53.8309 22.4297 53.711 22.1418 53.4992 21.9282C53.2875 21.7146 53.0007 21.5922 52.6999 21.587C52.3993 21.587 52.111 21.7064 51.8984 21.919C51.6858 22.1316 51.5664 22.4199 51.5664 22.7205C51.569 23.0213 51.6889 23.3092 51.9006 23.5228C52.1124 23.7364 52.3992 23.8588 52.6999 23.864Z" fill="white"/>
<path d="M84.1306 28.4578C84.4572 28.4543 84.7702 28.3262 85.0056 28.0999C85.1828 27.928 85.3044 27.7068 85.3545 27.4651C85.4046 27.2234 85.381 26.9722 85.2868 26.744C85.1925 26.5158 85.0319 26.3212 84.8258 26.1853C84.6196 26.0495 84.3775 25.9786 84.1306 25.9819C83.8044 25.9875 83.4922 26.1152 83.2556 26.3399C83.0223 26.5757 82.8903 26.8932 82.8877 27.2248C82.8954 27.5511 83.0291 27.8618 83.2608 28.0917C83.4925 28.3215 83.8043 28.4528 84.1306 28.4578Z" fill="white"/>
<path d="M81.7541 61.0023C82.082 60.9997 82.3956 60.8676 82.6266 60.6348C82.8575 60.402 82.9871 60.0873 82.9871 59.7594C82.9845 59.4323 82.8541 59.1191 82.6237 58.8868C82.3933 58.6546 82.0812 58.5217 81.7541 58.5165C81.4297 58.5243 81.1211 58.6586 80.8944 58.8909C80.6678 59.1232 80.5409 59.4349 80.541 59.7594C80.5486 60.0867 80.682 60.3984 80.9135 60.6299C81.1449 60.8613 81.4567 60.9947 81.7839 61.0023H81.7541Z" fill="white"/>
<path d="M85.3235 75.5692C85.6106 75.5678 85.8856 75.4535 86.0892 75.251C86.193 75.1479 86.2755 75.0253 86.3319 74.8903C86.3883 74.7552 86.4176 74.6104 86.4181 74.4641C86.4185 74.3177 86.3902 74.1727 86.3346 74.0373C86.279 73.9019 86.1973 73.7788 86.0941 73.675C85.991 73.5712 85.8684 73.4887 85.7334 73.4323C85.5983 73.3759 85.4535 73.3466 85.3072 73.3461C85.1608 73.3457 85.0158 73.374 84.8804 73.4296C84.7451 73.4852 84.6219 73.5669 84.5181 73.67C84.3511 73.8227 84.2354 74.0234 84.1872 74.2445C84.139 74.4656 84.1606 74.6962 84.2489 74.9046C84.3373 75.1129 84.4881 75.2887 84.6805 75.4078C84.873 75.5268 85.0977 75.5832 85.3235 75.5692Z" fill="white"/>
<path d="M54.4991 81.5352C54.8072 81.5314 55.1022 81.4106 55.3244 81.1972C55.5361 80.9739 55.6567 80.6795 55.6625 80.3719C55.6574 80.0649 55.5332 79.772 55.3161 79.5549C55.099 79.3378 54.8061 79.2136 54.4991 79.2085C54.1931 79.2137 53.9012 79.3382 53.6858 79.5555C53.4703 79.7729 53.3483 80.0658 53.3457 80.3719C53.3507 80.6771 53.4736 80.9686 53.6885 81.1854C53.9035 81.4022 54.1939 81.5276 54.4991 81.5352Z" fill="white"/>
<path d="M47.29 92.6519H47.3993C47.5524 92.6526 47.7041 92.6231 47.8457 92.5651C47.9873 92.5071 48.1161 92.4217 48.2246 92.3138C48.4398 92.0928 48.5609 91.797 48.5627 91.4885C48.5545 91.1843 48.4341 90.8939 48.2246 90.6732C48.1167 90.5644 47.9881 90.4784 47.8463 90.4204C47.7045 90.3623 47.5525 90.3333 47.3993 90.3351H47.29C47.1385 90.3345 46.9888 90.3685 46.8525 90.4345C46.7121 90.4827 46.5858 90.5647 46.4846 90.6732C46.2733 90.8887 46.1523 91.1768 46.1465 91.4786C46.146 91.6301 46.1756 91.7802 46.2337 91.9202C46.2917 92.0602 46.377 92.1872 46.4846 92.2939L46.7331 92.4729C46.9069 92.5785 47.1066 92.6336 47.3099 92.632L47.29 92.6519Z" fill="white"/>
<path d="M33.0718 78.244C33.4139 78.2402 33.7415 78.1049 33.9866 77.8662C34.1075 77.7467 34.2032 77.6041 34.2681 77.447C34.333 77.2899 34.3657 77.1214 34.3644 76.9514C34.3568 76.6119 34.2178 76.2886 33.9768 76.0494C33.7357 75.8102 33.4114 75.6738 33.0718 75.6687C32.7323 75.6709 32.4073 75.8067 32.167 76.0466C32.0459 76.1639 31.95 76.3046 31.885 76.4601C31.8201 76.6157 31.7875 76.7828 31.7891 76.9514C31.7942 77.2909 31.9306 77.6153 32.1698 77.8563C32.409 78.0974 32.7323 78.2363 33.0718 78.244Z" fill="white"/>
<path d="M12.4393 71.6416C12.7839 71.6354 13.1137 71.5006 13.364 71.2638C13.6051 71.0162 13.7406 70.6846 13.7419 70.3391C13.7442 70.0811 13.6693 69.8284 13.5268 69.6134C13.3843 69.3983 13.1807 69.2309 12.9423 69.1325C12.7038 69.0341 12.4414 69.0093 12.1887 69.0613C11.9361 69.1133 11.7047 69.2397 11.5245 69.4243C11.2795 69.666 11.14 69.9949 11.1367 70.3391C11.1419 70.6829 11.2807 71.0113 11.5239 71.2544C11.7671 71.4976 12.0954 71.6365 12.4393 71.6416Z" fill="white"/>
<path d="M25.4054 61.9668C25.7113 61.9668 26.0047 61.8452 26.221 61.6289C26.4373 61.4126 26.5588 61.1192 26.5588 60.8133C26.5537 60.509 26.4305 60.2186 26.2153 60.0034C26.0001 59.7882 25.7097 59.665 25.4054 59.6599C25.0995 59.6599 24.8061 59.7814 24.5898 59.9977C24.3735 60.2141 24.252 60.5074 24.252 60.8133C24.2571 61.1176 24.3802 61.4081 24.5954 61.6233C24.8107 61.8385 25.1011 61.9616 25.4054 61.9668Z" fill="white"/>
<path d="M11.793 49.3686C11.7674 49.0936 11.6397 48.8381 11.435 48.6527C11.2051 48.4376 10.9045 48.3139 10.5898 48.3047H10.2716C10.0729 48.3616 9.89168 48.4676 9.74463 48.6129C9.57726 48.7634 9.4594 48.961 9.40656 49.1797V49.3288C9.35667 49.5481 9.35667 49.7758 9.40656 49.995C9.46402 50.2067 9.57736 50.399 9.73469 50.5519C9.96957 50.7863 10.2878 50.9179 10.6196 50.9179C10.9515 50.9179 11.2697 50.7863 11.5046 50.5519C11.6591 50.3985 11.7691 50.206 11.8228 49.995C11.8824 49.777 11.8824 49.5469 11.8228 49.3288L11.793 49.3686Z" fill="white"/>
<path d="M21.6469 22.989C21.8574 22.989 22.0631 22.9266 22.238 22.8097C22.413 22.6927 22.5494 22.5266 22.6299 22.3322C22.7104 22.1378 22.7315 21.9238 22.6904 21.7175C22.6494 21.5111 22.5481 21.3215 22.3993 21.1727C22.2505 21.0239 22.0609 20.9226 21.8545 20.8815C21.6481 20.8405 21.4342 20.8615 21.2398 20.9421C21.0454 21.0226 20.8792 21.159 20.7623 21.3339C20.6454 21.5089 20.583 21.7146 20.583 21.925C20.5881 22.2056 20.7018 22.4733 20.9003 22.6717C21.0987 22.8701 21.3664 22.9839 21.6469 22.989Z" fill="white"/>
<path d="M70.9057 68.8674C71.2169 68.8674 71.5154 68.7438 71.7354 68.5238C71.9554 68.3037 72.079 68.0053 72.079 67.6941C72.079 67.3829 71.9554 67.0845 71.7354 66.8645C71.5154 66.6444 71.2169 66.5208 70.9057 66.5208C70.5946 66.5208 70.2961 66.6444 70.0761 66.8645C69.856 67.0845 69.7324 67.3829 69.7324 67.6941C69.7324 68.0053 69.856 68.3037 70.0761 68.5238C70.2961 68.7438 70.5946 68.8674 70.9057 68.8674Z" fill="#F7B9E7"/>
<path d="M93.6559 52.1627C93.8706 52.1397 94.0692 52.0381 94.2136 51.8775C94.3579 51.7169 94.4378 51.5086 94.4378 51.2926C94.4378 51.0767 94.3579 50.8684 94.2136 50.7078C94.0692 50.5472 93.8706 50.4456 93.6559 50.4226C93.4412 50.4456 93.2426 50.5472 93.0982 50.7078C92.9539 50.8684 92.874 51.0767 92.874 51.2926C92.874 51.5086 92.9539 51.7169 93.0982 51.8775C93.2426 52.0381 93.4412 52.1397 93.6559 52.1627Z" fill="#F7B9E7"/>
<path d="M24.6097 84.2597H24.9279C25.1111 84.225 25.2885 84.1648 25.4549 84.0807C25.6257 83.977 25.7669 83.831 25.8649 83.6569C25.9629 83.4827 26.0144 83.2862 26.0144 83.0864C26.0144 82.8866 25.9629 82.6901 25.8649 82.5159C25.7669 82.3418 25.6257 82.1958 25.4549 82.0921C25.2885 82.008 25.1111 81.9477 24.9279 81.9131H24.6097C24.2855 81.914 23.9748 82.0426 23.7447 82.271C23.5223 82.5051 23.3947 82.8134 23.3867 83.1361C23.3908 83.4597 23.5189 83.7693 23.7447 84.0012C23.8558 84.118 23.9903 84.2102 24.1393 84.2719C24.2883 84.3335 24.4485 84.3633 24.6097 84.3591V84.2597Z" fill="#F7B9E7"/>
<path d="M11.0568 32.6041C11.3776 32.6006 11.6843 32.4722 11.912 32.2462C12.0266 32.1354 12.1174 32.0025 12.179 31.8555C12.2405 31.7085 12.2715 31.5504 12.2699 31.3911C12.2703 31.2319 12.2389 31.0742 12.1774 30.9273C12.1159 30.7805 12.0257 30.6474 11.912 30.5359C11.6843 30.3099 11.3776 30.1815 11.0568 30.178C10.7365 30.1836 10.4305 30.3117 10.2017 30.5359C9.9757 30.7636 9.84729 31.0703 9.84375 31.3911C9.84635 31.712 9.97499 32.019 10.2019 32.246C10.4289 32.4729 10.7359 32.6016 11.0568 32.6041Z" fill="#F7B9E7"/>
</g>
<defs>
<linearGradient id="paint0_linear_1972_4449" x1="41.962" y1="99.3547" x2="57.9842" y2="0.64885" gradientUnits="userSpaceOnUse">
<stop stop-color="#551456"/>
<stop offset="1" stop-color="#2A5F9E"/>
</linearGradient>
<linearGradient id="paint1_linear_1972_4449" x1="60.4049" y1="53.1961" x2="64.5815" y2="53.1961" gradientUnits="userSpaceOnUse">
<stop stop-color="#E46125"/>
<stop offset="1" stop-color="#A12FA3"/>
</linearGradient>
<linearGradient id="paint2_linear_1972_4449" x1="35.4176" y1="53.1961" x2="39.5942" y2="53.1961" gradientUnits="userSpaceOnUse">
<stop stop-color="#E46125"/>
<stop offset="1" stop-color="#A12FA3"/>
</linearGradient>
<linearGradient id="paint3_linear_1972_4449" x1="45.9509" y1="69.1326" x2="49.3746" y2="69.1326" gradientUnits="userSpaceOnUse">
<stop stop-color="#E46125"/>
<stop offset="1" stop-color="#A12FA3"/>
</linearGradient>
<linearGradient id="paint4_linear_1972_4449" x1="50.615" y1="69.1316" x2="54.0425" y2="69.1316" gradientUnits="userSpaceOnUse">
<stop stop-color="#E46125"/>
<stop offset="1" stop-color="#A12FA3"/>
</linearGradient>
<linearGradient id="paint5_linear_1972_4449" x1="45.7239" y1="71.9134" x2="54.2896" y2="71.9134" gradientUnits="userSpaceOnUse">
<stop stop-color="#E46125"/>
<stop offset="1" stop-color="#A12FA3"/>
</linearGradient>
<linearGradient id="paint6_linear_1972_4449" x1="69.7558" y1="54.5009" x2="70.8597" y2="54.5009" gradientUnits="userSpaceOnUse">
<stop stop-color="#E46125"/>
<stop offset="1" stop-color="#A12FA3"/>
</linearGradient>
<linearGradient id="paint7_linear_1972_4449" x1="72.7645" y1="54.4352" x2="74.3362" y2="54.4352" gradientUnits="userSpaceOnUse">
<stop stop-color="#E46125"/>
<stop offset="1" stop-color="#A12FA3"/>
</linearGradient>
<linearGradient id="paint8_linear_1972_4449" x1="74.7175" y1="52.9838" x2="78.1548" y2="52.9838" gradientUnits="userSpaceOnUse">
<stop stop-color="#E46125"/>
<stop offset="1" stop-color="#A12FA3"/>
</linearGradient>
<linearGradient id="paint9_linear_1972_4449" x1="75.9566" y1="50.5548" x2="81.2149" y2="50.5548" gradientUnits="userSpaceOnUse">
<stop stop-color="#E46125"/>
<stop offset="1" stop-color="#A12FA3"/>
</linearGradient>
<linearGradient id="paint10_linear_1972_4449" x1="76.6889" y1="47.1642" x2="83.5679" y2="47.1642" gradientUnits="userSpaceOnUse">
<stop stop-color="#E46125"/>
<stop offset="1" stop-color="#A12FA3"/>
</linearGradient>
<linearGradient id="paint11_linear_1972_4449" x1="76.9711" y1="43.8453" x2="84.6803" y2="43.8453" gradientUnits="userSpaceOnUse">
<stop stop-color="#E46125"/>
<stop offset="1" stop-color="#A12FA3"/>
</linearGradient>
<linearGradient id="paint12_linear_1972_4449" x1="76.096" y1="39.7608" x2="84.6173" y2="39.7608" gradientUnits="userSpaceOnUse">
<stop stop-color="#E46125"/>
<stop offset="1" stop-color="#A12FA3"/>
</linearGradient>
<linearGradient id="paint13_linear_1972_4449" x1="74.1967" y1="35.7669" x2="81.5731" y2="35.7669" gradientUnits="userSpaceOnUse">
<stop stop-color="#E46125"/>
<stop offset="1" stop-color="#A12FA3"/>
</linearGradient>
<linearGradient id="paint14_linear_1972_4449" x1="72.022" y1="33.0048" x2="77.3701" y2="33.0048" gradientUnits="userSpaceOnUse">
<stop stop-color="#E46125"/>
<stop offset="1" stop-color="#A12FA3"/>
</linearGradient>
<linearGradient id="paint15_linear_1972_4449" x1="69.3143" y1="31.8969" x2="70.7318" y2="31.8969" gradientUnits="userSpaceOnUse">
<stop stop-color="#E46125"/>
<stop offset="1" stop-color="#A12FA3"/>
</linearGradient>
<linearGradient id="paint16_linear_1972_4449" x1="63.524" y1="32.0879" x2="69.1979" y2="32.0879" gradientUnits="userSpaceOnUse">
<stop stop-color="#E46125"/>
<stop offset="1" stop-color="#A12FA3"/>
</linearGradient>
<linearGradient id="paint17_linear_1972_4449" x1="58.4563" y1="34.2874" x2="68.1007" y2="34.2874" gradientUnits="userSpaceOnUse">
<stop stop-color="#E46125"/>
<stop offset="1" stop-color="#A12FA3"/>
</linearGradient>
<linearGradient id="paint18_linear_1972_4449" x1="54.9053" y1="37.8279" x2="66.6906" y2="37.8279" gradientUnits="userSpaceOnUse">
<stop stop-color="#E46125"/>
<stop offset="1" stop-color="#A12FA3"/>
</linearGradient>
<linearGradient id="paint19_linear_1972_4449" x1="29.1386" y1="54.4711" x2="30.2437" y2="54.4711" gradientUnits="userSpaceOnUse">
<stop stop-color="#E46125"/>
<stop offset="1" stop-color="#A12FA3"/>
</linearGradient>
<linearGradient id="paint20_linear_1972_4449" x1="25.663" y1="54.45" x2="27.2827" y2="54.45" gradientUnits="userSpaceOnUse">
<stop stop-color="#E46125"/>
<stop offset="1" stop-color="#A12FA3"/>
</linearGradient>
<linearGradient id="paint21_linear_1972_4449" x1="21.8152" y1="52.9823" x2="25.2422" y2="52.9823" gradientUnits="userSpaceOnUse">
<stop stop-color="#E46125"/>
<stop offset="1" stop-color="#A12FA3"/>
</linearGradient>
<linearGradient id="paint22_linear_1972_4449" x1="18.7545" y1="50.5151" x2="24.0127" y2="50.5151" gradientUnits="userSpaceOnUse">
<stop stop-color="#E46125"/>
<stop offset="1" stop-color="#A12FA3"/>
</linearGradient>
<linearGradient id="paint23_linear_1972_4449" x1="16.4086" y1="47.1781" x2="23.3474" y2="47.1781" gradientUnits="userSpaceOnUse">
<stop stop-color="#E46125"/>
<stop offset="1" stop-color="#A12FA3"/>
</linearGradient>
<linearGradient id="paint24_linear_1972_4449" x1="15.3402" y1="43.8963" x2="23.0582" y2="43.8963" gradientUnits="userSpaceOnUse">
<stop stop-color="#E46125"/>
<stop offset="1" stop-color="#A12FA3"/>
</linearGradient>
<linearGradient id="paint25_linear_1972_4449" x1="15.3402" y1="39.7623" x2="23.8686" y2="39.7623" gradientUnits="userSpaceOnUse">
<stop stop-color="#E46125"/>
<stop offset="1" stop-color="#A12FA3"/>
</linearGradient>
<linearGradient id="paint26_linear_1972_4449" x1="18.4525" y1="35.7379" x2="25.8531" y2="35.7379" gradientUnits="userSpaceOnUse">
<stop stop-color="#E46125"/>
<stop offset="1" stop-color="#A12FA3"/>
</linearGradient>
<linearGradient id="paint27_linear_1972_4449" x1="22.6402" y1="33.0124" x2="27.9606" y2="33.0124" gradientUnits="userSpaceOnUse">
<stop stop-color="#E46125"/>
<stop offset="1" stop-color="#A12FA3"/>
</linearGradient>
<linearGradient id="paint28_linear_1972_4449" x1="29.288" y1="31.8969" x2="30.7218" y2="31.8969" gradientUnits="userSpaceOnUse">
<stop stop-color="#E46125"/>
<stop offset="1" stop-color="#A12FA3"/>
</linearGradient>
<linearGradient id="paint29_linear_1972_4449" x1="30.8013" y1="32.0581" x2="36.4729" y2="32.0581" gradientUnits="userSpaceOnUse">
<stop stop-color="#E46125"/>
<stop offset="1" stop-color="#A12FA3"/>
</linearGradient>
<linearGradient id="paint30_linear_1972_4449" x1="31.8987" y1="34.3272" x2="41.5429" y2="34.3272" gradientUnits="userSpaceOnUse">
<stop stop-color="#E46125"/>
<stop offset="1" stop-color="#A12FA3"/>
</linearGradient>
<linearGradient id="paint31_linear_1972_4449" x1="33.3282" y1="37.8363" x2="45.1135" y2="37.8363" gradientUnits="userSpaceOnUse">
<stop stop-color="#E46125"/>
<stop offset="1" stop-color="#A12FA3"/>
</linearGradient>
<linearGradient id="paint32_linear_1972_4449" x1="44.0007" y1="44.4331" x2="47.1635" y2="44.4331" gradientUnits="userSpaceOnUse">
<stop stop-color="#E46125"/>
<stop offset="1" stop-color="#A12FA3"/>
</linearGradient>
<linearGradient id="paint33_linear_1972_4449" x1="47.0992" y1="44.6577" x2="52.6004" y2="44.6577" gradientUnits="userSpaceOnUse">
<stop stop-color="#E46125"/>
<stop offset="1" stop-color="#A12FA3"/>
</linearGradient>
<linearGradient id="paint34_linear_1972_4449" x1="52.364" y1="44.4782" x2="56.081" y2="44.4782" gradientUnits="userSpaceOnUse">
<stop stop-color="#E46125"/>
<stop offset="1" stop-color="#A12FA3"/>
</linearGradient>
<clipPath id="clip0_1972_4449">
<rect width="100" height="100" fill="white"/>
</clipPath>
</defs>
</svg>
