<svg width="180" height="180" viewBox="0 0 180 180" fill="none" xmlns="http://www.w3.org/2000/svg">
<g clip-path="url(#clip0_2288_5776)">
<path d="M104.003 3.64068C151.699 11.3828 184.087 56.324 176.345 104.02C168.603 151.715 123.662 184.104 75.9663 176.362C28.2706 168.62 -4.11822 123.679 3.62389 75.9831C11.366 28.2874 56.3072 -4.10142 104.003 3.64068Z" stroke="white" stroke-width="5"/>
<path d="M138.334 76.2454C138.342 76.2162 138.342 76.1851 138.334 76.1559C138.327 76.024 138.29 75.8954 138.226 75.78C136.973 73.3817 133.286 72.9701 130.852 72.7553C127.842 72.4546 124.804 72.929 122.029 74.1334C119.324 75.3888 116.993 77.3254 115.263 79.7534C113.957 81.5432 112.596 83.5478 113.187 85.8566C114.619 91.3871 123.639 90.4743 127.505 89.0066C132.66 87.02 138.871 82.5097 138.334 76.2454Z" fill="#FFB07F"/>
<path d="M133.501 79.2165C133.358 78.6795 132.767 78.3932 132.248 78.1963C129.884 77.3258 127.309 77.207 124.874 77.8562C122.43 78.5498 120.343 80.1502 119.04 82.3307C118.566 82.781 118.229 83.3558 118.068 83.989C117.906 84.6223 117.927 85.2882 118.127 85.9103C118.741 86.8154 119.674 87.4548 120.74 87.7001C122.609 88.0493 124.534 87.9403 126.351 87.3823C128.169 86.8243 129.824 85.8341 131.174 84.4964C131.805 83.9963 132.344 83.3907 132.767 82.7066C133.124 81.9408 133.365 81.1266 133.483 80.2903C133.599 79.9427 133.605 79.5678 133.501 79.2165Z" fill="white"/>
<path d="M64.7368 79.7534C63.0856 77.4203 60.8767 75.5375 58.3115 74.2766C55.4494 72.975 52.2949 72.4503 49.1656 72.7553C46.7315 72.988 43.0445 73.3817 41.7737 75.7801C41.7179 75.8987 41.6817 76.0257 41.6664 76.1559C41.6748 76.1851 41.6748 76.2162 41.6664 76.2454C41.1473 82.3844 47.1252 86.841 52.1904 88.774C56.0921 90.349 65.3812 91.4408 66.8309 85.7671C66.9587 84.6717 66.8366 83.5615 66.4739 82.52C66.1112 81.4785 65.5174 80.5326 64.7368 79.7534Z" fill="#FFB07F"/>
<path d="M46.5351 79.2165C46.6511 78.958 46.8267 78.7307 47.0477 78.5533C47.2686 78.376 47.5284 78.2536 47.8059 78.1963C50.1637 77.3249 52.7338 77.2061 55.1619 77.8562C57.5935 78.5562 59.6671 80.1562 60.9609 82.3307C61.4241 82.788 61.7539 83.3629 61.9147 83.9937C62.0756 84.6244 62.0614 85.287 61.8737 85.9103C61.253 86.8166 60.3136 87.4556 59.2427 87.7001C57.3767 88.0478 55.4543 87.938 53.6401 87.38C51.8259 86.8221 50.1741 85.8326 48.8261 84.4964C48.19 83.997 47.645 83.3915 47.2152 82.7066C46.8418 81.8805 46.6118 80.9968 46.5351 80.0935C46.4727 79.8045 46.4727 79.5055 46.5351 79.2165Z" fill="white"/>
<path d="M118.592 72.3615C116.998 70.4471 114.957 68.9536 112.65 68.0123C104.829 64.4327 96.0946 64.4327 87.593 65.0413C80.4339 65.5603 72.0755 65.1845 65.9544 69.7126C58.9742 74.8673 57.4528 84.5322 59.4574 92.4968C60.9795 97.5561 62.9812 102.459 65.4354 107.137C69.9456 116.784 71.6638 131.926 83.2259 135.076C86.3609 135.804 89.6085 135.907 92.7835 135.38C95.0786 135.176 97.32 134.57 99.4057 133.591C105.151 130.512 107.012 121.706 109.178 116.337C112.077 108.856 118.127 101.249 119.792 93.4096C121.17 86.9663 122.78 78.0531 118.592 72.3615Z" fill="#FFB07F"/>
<path d="M101.804 131.64C102.958 130.194 103.769 128.506 104.176 126.701C104.582 124.897 104.573 123.023 104.149 121.223C102.77 114.493 95.9155 112.113 89.8302 112.471C84.1207 112.757 77.6774 115.102 75.995 121.151C74.6706 125.93 76.8005 132.588 81.7224 134.503C83.3128 135.058 84.9787 135.365 86.6622 135.416C90.0043 135.738 93.3764 135.521 96.6493 134.772C98.6493 134.284 100.45 133.19 101.804 131.64Z" fill="white"/>
<path d="M112.471 99.5128C113.216 99.5163 113.945 99.2984 114.566 98.8868C115.187 98.4752 115.671 97.8884 115.958 97.2008C116.245 96.5133 116.321 95.7561 116.176 95.0254C116.032 94.2946 115.673 93.6233 115.147 93.0965C114.62 92.5698 113.949 92.2115 113.218 92.067C112.487 91.9226 111.73 91.9985 111.042 92.2852C110.355 92.5719 109.768 93.0564 109.356 93.6772C108.945 94.2981 108.727 95.0272 108.731 95.7721C108.744 96.7599 109.143 97.7033 109.841 98.4018C110.54 99.1003 111.483 99.4989 112.471 99.5128Z" fill="url(#paint0_linear_2288_5776)"/>
<path d="M67.5116 99.5128C68.2557 99.5128 68.9831 99.2919 69.6016 98.8781C70.22 98.4643 70.7018 97.8762 70.9857 97.1884C71.2696 96.5006 71.343 95.7439 71.1965 95.0143C71.0501 94.2848 70.6903 93.6151 70.1629 93.0902C69.6354 92.5652 68.964 92.2087 68.2338 92.0657C67.5035 91.9227 66.7472 91.9997 66.0608 92.2869C65.3743 92.5741 64.7885 93.0587 64.3777 93.6791C63.9669 94.2996 63.7494 95.028 63.753 95.7721C63.7759 96.7601 64.1798 97.701 64.8802 98.3981C65.5807 99.0952 66.5235 99.4946 67.5116 99.5128Z" fill="url(#paint1_linear_2288_5776)"/>
<path d="M84.3353 124.677C84.8529 124.632 85.3676 124.793 85.7671 125.125C85.9848 125.311 86.1667 125.536 86.3041 125.787C86.4005 126.007 86.5431 126.204 86.7222 126.365C86.9012 126.525 87.1126 126.646 87.3421 126.718C87.5887 126.784 87.8501 126.767 88.0862 126.67C88.3224 126.573 88.52 126.401 88.6487 126.181C89.4004 124.928 88.1118 123.532 87.1274 122.87C86.6204 122.537 86.0523 122.309 85.4561 122.198C84.8599 122.087 84.2477 122.097 83.6552 122.225C83.4923 122.269 83.3396 122.344 83.2062 122.447C83.0727 122.55 82.9611 122.679 82.8778 122.825C82.7945 122.972 82.7412 123.134 82.721 123.301C82.7009 123.468 82.7142 123.638 82.7603 123.8C82.8599 124.121 83.0791 124.391 83.3723 124.554C83.6655 124.717 84.0104 124.761 84.3353 124.677Z" fill="url(#paint2_linear_2288_5776)"/>
<path d="M96.3452 122.225C95.7497 122.097 95.1348 122.088 94.5358 122.199C93.9368 122.309 93.3656 122.537 92.8551 122.87C91.8707 123.532 90.582 124.928 91.3338 126.181C91.4697 126.398 91.671 126.568 91.9089 126.664C92.1467 126.761 92.409 126.779 92.6582 126.718C93.0798 126.57 93.4309 126.27 93.6426 125.876C93.7862 125.593 93.9803 125.338 94.2153 125.125C94.6231 124.795 95.1423 124.635 95.6651 124.677C95.8261 124.722 95.9943 124.734 96.1601 124.714C96.326 124.694 96.4862 124.641 96.6316 124.559C96.777 124.476 96.9048 124.366 97.0077 124.235C97.1106 124.103 97.1865 123.952 97.2311 123.791C97.2758 123.63 97.2883 123.462 97.2679 123.296C97.2476 123.13 97.1948 122.97 97.1125 122.825C97.0302 122.679 96.9201 122.552 96.7885 122.449C96.6568 122.346 96.5062 122.27 96.3452 122.225Z" fill="url(#paint3_linear_2288_5776)"/>
<path d="M82.5451 129.241C84.8216 130.673 87.483 131.37 90.1689 131.239C92.8548 131.108 95.4355 130.154 97.5615 128.508C98.009 128.15 97.4184 127.38 96.953 127.72C94.9586 129.191 92.5728 130.037 90.0974 130.152C87.622 130.266 85.1682 129.644 83.0463 128.364C82.4915 128.024 81.9903 128.901 82.5451 129.241Z" fill="url(#paint4_linear_2288_5776)"/>
<path d="M114.332 113.044C113.114 113.044 111.924 112.683 110.911 112.006C109.899 111.329 109.109 110.368 108.643 109.243C108.177 108.118 108.056 106.88 108.293 105.686C108.531 104.491 109.117 103.394 109.978 102.533C110.839 101.672 111.936 101.086 113.131 100.848C114.325 100.611 115.563 100.732 116.688 101.198C117.813 101.664 118.774 102.454 119.451 103.466C120.128 104.479 120.489 105.669 120.489 106.887C120.47 108.514 119.815 110.069 118.665 111.22C117.514 112.37 115.959 113.025 114.332 113.044Z" fill="#E0435B"/>
<path d="M65.542 113.044C64.3235 113.047 63.1314 112.689 62.1165 112.015C61.1017 111.34 60.3098 110.38 59.841 109.255C59.3723 108.131 59.2478 106.892 59.4833 105.697C59.7189 104.501 60.3038 103.402 61.1642 102.54C62.0245 101.677 63.1215 101.088 64.3163 100.849C65.5112 100.61 66.75 100.731 67.8761 101.197C69.0022 101.662 69.9648 102.451 70.6421 103.464C71.3194 104.477 71.681 105.668 71.681 106.887C71.6625 108.511 71.0103 110.063 69.8635 111.214C68.7167 112.364 67.166 113.02 65.542 113.044Z" fill="#E0435B"/>
<path d="M153.278 70.8044C152.433 66.4374 150.702 62.2899 148.192 58.6173C145.683 54.9448 142.448 51.8252 138.687 49.4507C134.925 47.0762 130.718 45.4972 126.323 44.811C121.928 44.1248 117.439 44.346 113.133 45.4609C108.059 47.2188 103.768 50.7111 101.016 55.3227C98.8253 58.6553 97.5875 62.5235 97.4365 66.5089C97.4365 70.6075 100.676 73.9008 103.898 76.0127C107.119 78.1247 111.791 79.9324 115.854 79.0196C117.93 78.5364 118.681 77.2298 119.898 75.5474C121.975 72.6837 123.979 69.999 127.702 69.3726C132.194 68.6209 135.649 72.3615 137.027 76.2812C137.749 78.3968 138.037 80.6363 137.874 82.8659C137.711 85.0954 137.101 87.2692 136.078 89.2572C132.946 95.1636 124.677 96.8102 118.699 95.0025C118.616 94.9821 118.528 94.9864 118.446 95.0148C118.365 95.0431 118.293 95.0945 118.24 95.1625C118.187 95.2306 118.155 95.3125 118.148 95.3985C118.14 95.4844 118.158 95.5706 118.198 95.6468C122.583 103.88 135.738 103.379 142.181 98.0809C146.112 94.7813 149.177 90.5719 151.111 85.8183C153.045 81.0647 153.789 75.9108 153.278 70.8044Z" fill="#96CBEB"/>
<path d="M126.181 96.2911C126.527 96.9507 126.629 97.7116 126.467 98.4389C126.388 98.752 126.255 99.0489 126.073 99.3159C125.859 99.6023 125.626 99.7454 125.572 100.103C125.559 100.158 125.558 100.215 125.57 100.27C125.581 100.326 125.605 100.377 125.639 100.422C125.674 100.467 125.718 100.503 125.768 100.529C125.819 100.554 125.874 100.568 125.93 100.569C126.825 100.569 127.344 99.2443 127.47 98.4926C127.576 98.0212 127.575 97.5319 127.466 97.061C127.358 96.59 127.145 96.1495 126.843 95.7721C126.503 95.3962 126.02 95.8795 126.181 96.2732V96.2911Z" fill="url(#paint5_linear_2288_5776)"/>
<path d="M130.995 94.6087C130.816 95.3963 131.926 96.1122 132.266 96.7923C132.568 97.4353 132.739 98.1319 132.77 98.8416C132.8 99.5513 132.69 100.26 132.445 100.927C132.23 101.553 133.214 101.822 133.429 101.195C133.862 100.029 133.922 98.7569 133.601 97.5548C133.281 96.3527 132.595 95.2797 131.639 94.4835C131.573 94.4403 131.495 94.4174 131.416 94.4174C131.336 94.4174 131.259 94.4403 131.192 94.4835C131.192 94.4835 131.031 94.4835 131.031 94.6087H130.995Z" fill="url(#paint6_linear_2288_5776)"/>
<path d="M134.754 92.7652C136.025 93.2298 137.171 93.9835 138.101 94.9667C138.871 96.0648 139.474 97.2712 139.89 98.5463C140.105 98.9758 140.642 98.7074 140.678 98.3315C140.61 96.8273 139.969 95.406 138.888 94.3582C137.908 93.1563 136.553 92.318 135.04 91.9777C134.611 91.9777 134.235 92.5505 134.718 92.7652H134.754Z" fill="url(#paint7_linear_2288_5776)"/>
<path d="M136.991 89.0425C138.771 89.0948 140.539 89.3653 142.253 89.8479C143.139 90.1666 143.915 90.7316 144.49 91.4766C144.974 92.1388 145.099 92.8905 145.511 93.5707C145.532 93.6296 145.571 93.6807 145.622 93.7167C145.673 93.7528 145.734 93.7721 145.797 93.7721C145.86 93.7721 145.921 93.7528 145.972 93.7167C146.023 93.6807 146.062 93.6296 146.083 93.5707C146.62 91.9419 144.956 90.2237 143.667 89.4541C141.624 88.3625 139.274 87.9845 136.991 88.3803C136.633 88.3803 136.633 89.0425 136.991 89.1141V89.0425Z" fill="url(#paint8_linear_2288_5776)"/>
<path d="M138.495 84.2637C140.439 83.538 142.56 83.4323 144.566 83.9611C146.572 84.4899 148.365 85.6273 149.699 87.2169C149.772 87.2855 149.867 87.3264 149.967 87.3323C150.068 87.3382 150.167 87.3089 150.248 87.2493C150.328 87.1898 150.386 87.1038 150.41 87.0063C150.434 86.9088 150.423 86.806 150.379 86.7157C149.117 84.7531 147.161 83.3387 144.901 82.7548C142.642 82.1709 140.246 82.4605 138.191 83.5657C138.122 83.6196 138.074 83.6946 138.053 83.7789C138.032 83.8632 138.039 83.9522 138.074 84.0319C138.109 84.1116 138.169 84.1775 138.245 84.2195C138.321 84.2614 138.409 84.277 138.495 84.2637Z" fill="url(#paint9_linear_2288_5776)"/>
<path d="M138.548 80.5409C139.192 80.5397 139.819 80.3327 140.338 79.9503C141.637 79.2494 143.048 78.7772 144.508 78.5542C147.246 78.1247 149.394 79.0196 152.007 79.3954C152.276 79.3954 152.598 79.0733 152.311 78.8585C150.307 77.2119 146.942 77.0687 144.436 77.5341C142.646 77.8025 139.192 78.5363 138.548 80.4693V80.5409Z" fill="url(#paint10_linear_2288_5776)"/>
<path d="M137.493 75.0283C138.859 73.0087 140.648 71.3108 142.737 70.0527C144.125 69.3882 145.633 69.0109 147.171 68.9432C148.709 68.8756 150.244 69.119 151.686 69.6589C152.312 69.8737 152.581 68.8893 151.954 68.6746C146.764 66.8848 138.674 68.6746 136.974 74.7241C136.974 75.0104 137.278 75.2789 137.493 75.0283Z" fill="url(#paint11_linear_2288_5776)"/>
<path d="M133.734 70.3033C135.792 68.5135 136.758 65.4171 138.691 63.3588C139.701 62.2757 140.865 61.347 142.146 60.6026C143.583 59.9737 145.067 59.459 146.584 59.0633C146.655 59.0464 146.717 59.0063 146.762 58.9495C146.807 58.8927 146.831 58.8224 146.831 58.7501C146.831 58.6778 146.807 58.6076 146.762 58.5507C146.717 58.4939 146.655 58.4538 146.584 58.4369C143.703 58.061 140.571 60.2267 138.62 62.1418C136.669 64.0569 133.877 67.368 133.555 70.2317C133.555 70.357 133.716 70.4107 133.805 70.3391L133.734 70.3033Z" fill="url(#paint12_linear_2288_5776)"/>
<path d="M129.922 68.5672C130.566 67.5503 130.993 66.4106 131.175 65.2203C131.659 63.2075 132.323 61.2427 133.161 59.3497C134.617 56.2424 136.645 53.4372 139.139 51.0809C139.224 50.9862 139.269 50.863 139.266 50.7361C139.264 50.6092 139.213 50.4881 139.124 50.3972C139.036 50.3064 138.916 50.2525 138.789 50.2465C138.662 50.2405 138.538 50.2828 138.441 50.3649C135.887 52.7884 133.806 55.6651 132.302 58.8486C131.57 60.3935 130.971 61.9983 130.512 63.6452C129.868 65.184 129.574 66.847 129.653 68.5135C129.662 68.5326 129.675 68.5489 129.693 68.5604C129.71 68.5719 129.731 68.578 129.752 68.578C129.773 68.578 129.793 68.5719 129.81 68.5604C129.828 68.5489 129.842 68.5326 129.85 68.5135L129.922 68.5672Z" fill="url(#paint13_linear_2288_5776)"/>
<path d="M126.145 69.1578C126.449 67.5252 126.449 65.8505 126.145 64.2179C125.984 62.2671 125.841 60.2983 125.787 58.3295C125.586 54.2517 126.095 50.17 127.291 46.2663C127.487 45.6577 126.521 45.4072 126.324 45.9978C125.131 49.8472 124.617 53.8744 124.803 57.9C124.803 60.0119 125.017 62.1239 125.196 64.2179C125.188 65.9099 125.485 67.5894 126.073 69.1757H126.217L126.145 69.1578Z" fill="url(#paint14_linear_2288_5776)"/>
<path d="M124.409 69.301C120.83 66.8669 119.04 63.0904 117.465 59.2065C115.684 55.147 115.005 50.6898 115.496 46.2842C115.496 45.6578 114.619 45.3714 114.53 46.0157C113.947 50.9105 114.747 55.8705 116.838 60.3341C118.055 63.162 120.418 69.7306 124.266 69.8737C124.33 69.8748 124.392 69.8544 124.443 69.8159C124.494 69.7774 124.531 69.7229 124.547 69.6612C124.564 69.5995 124.559 69.534 124.534 69.4752C124.509 69.4164 124.465 69.3677 124.409 69.3368V69.301Z" fill="url(#paint15_linear_2288_5776)"/>
<path d="M122.171 71.5919C117.428 71.5919 113.222 66.8311 110.556 63.2157C107.994 59.7949 106.483 55.7031 106.206 51.4388C106.206 50.8124 105.204 50.7945 105.222 51.4388C105.472 56.3101 107.293 60.9695 110.412 64.7191C113.043 68.0302 117.572 73.1133 122.279 72.4152C122.762 72.4152 122.619 71.5919 122.171 71.5919Z" fill="url(#paint16_linear_2288_5776)"/>
<path d="M119.701 74.7778C117.427 75.0858 115.115 74.9705 112.882 74.4377C110.41 73.6231 108.115 72.3478 106.117 70.6791C104.496 69.3657 103.11 67.786 102.018 66.0078C101.069 64.1579 100.22 62.2579 99.4767 60.3162C99.4418 60.2448 99.3831 60.1879 99.3106 60.1553C99.2382 60.1227 99.1566 60.1165 99.0801 60.1378C99.0036 60.159 98.9369 60.2064 98.8916 60.2717C98.8464 60.337 98.8254 60.416 98.8324 60.4952C98.8324 64.9339 102.806 69.4442 106.171 71.9857C109.75 74.7062 115.352 77.3551 119.898 75.3684C119.955 75.331 119.998 75.2767 120.022 75.2132C120.046 75.1497 120.049 75.0802 120.032 75.0148C120.014 74.9493 119.976 74.8911 119.923 74.8485C119.87 74.806 119.805 74.7812 119.737 74.7778H119.701Z" fill="url(#paint17_linear_2288_5776)"/>
<path d="M80.7202 58.7054C78.6533 53.7989 75.0477 49.6971 70.4468 47.018C65.4698 44.5207 59.8101 43.7284 54.3386 44.7629C40.5572 46.7137 28.9951 56.6829 26.7399 70.697C26.1958 75.8136 26.9147 80.9855 28.8337 85.7596C30.7527 90.5337 33.8133 94.7644 37.7472 98.0809C44.1905 103.45 57.435 103.88 61.7305 95.6468C61.7709 95.5706 61.7884 95.4844 61.7809 95.3985C61.7734 95.3125 61.7413 95.2306 61.6883 95.1625C61.6354 95.0945 61.5639 95.0431 61.4825 95.0147C61.401 94.9864 61.3131 94.9821 61.2293 95.0025C55.8599 96.5954 49.0408 95.5036 45.2107 91.2439C40.2708 85.7313 40.9867 75.1357 47.0005 70.6075C48.5131 69.6014 50.3294 69.1546 52.1362 69.3441C53.943 69.5336 55.6271 70.3475 56.898 71.6456C58.8668 73.5607 59.9586 76.5318 62.1063 78.1963C64.97 80.4156 69.9815 78.9838 72.8451 77.713C76.8107 76.198 80.0494 73.2281 81.9015 69.4084C83.226 66.0436 82.0447 61.8733 80.7202 58.7054Z" fill="#96CBEB"/>
<path d="M53.1567 95.79C52.8621 96.1576 52.6518 96.5853 52.5405 97.0429C52.4292 97.5006 52.4196 97.9771 52.5123 98.4389C52.6555 99.1906 53.1566 100.515 54.0694 100.515C54.1258 100.514 54.1812 100.5 54.2316 100.475C54.2819 100.45 54.3259 100.413 54.3603 100.368C54.3947 100.324 54.4185 100.272 54.4302 100.217C54.4418 100.162 54.4408 100.104 54.4274 100.05C54.3571 99.7887 54.2144 99.5529 54.0158 99.3696C53.785 99.0805 53.62 98.7446 53.5325 98.3852C53.3688 97.654 53.4637 96.8887 53.801 96.2195C53.98 95.8258 53.4967 95.3425 53.1567 95.7184V95.79Z" fill="url(#paint18_linear_2288_5776)"/>
<path d="M48.9511 94.5371H48.8258C48.7592 94.494 48.6815 94.471 48.6021 94.471C48.5227 94.471 48.445 94.494 48.3784 94.5371C47.4282 95.3261 46.7423 96.3869 46.4127 97.5771C46.0832 98.7673 46.1258 100.03 46.5349 101.195C46.7496 101.822 47.734 101.553 47.5192 100.927C47.2546 100.171 47.1622 99.366 47.2489 98.5701C47.3356 97.7742 47.5992 97.0078 48.0204 96.3269C48.0204 96.3269 49.5417 94.8056 48.9869 94.5371H48.9511Z" fill="url(#paint19_linear_2288_5776)"/>
<path d="M44.9064 91.9777C43.3971 92.327 42.0447 93.1635 41.0584 94.3582C39.9845 95.4113 39.3457 96.8295 39.2686 98.3315C39.2686 98.7074 39.8592 98.9759 40.074 98.5463C40.4942 97.2728 41.097 96.067 41.8638 94.9667C42.7987 93.9894 43.943 93.2367 45.2107 92.7653C45.6939 92.5684 45.3181 91.9061 44.8706 91.9777H44.9064Z" fill="url(#paint20_linear_2288_5776)"/>
<path d="M42.9555 88.3086C40.6668 87.913 38.3116 88.2908 36.2616 89.3825C34.9909 90.17 33.3263 91.8703 33.8633 93.4991C33.8845 93.558 33.9233 93.609 33.9746 93.6451C34.0259 93.6812 34.087 93.7005 34.1497 93.7005C34.2123 93.7005 34.2735 93.6812 34.3247 93.6451C34.376 93.609 34.4148 93.558 34.436 93.4991C34.7761 92.9442 34.8656 92.3178 35.1877 91.7093C35.7826 90.7903 36.663 90.0922 37.6935 89.7226C39.4132 89.2823 41.1803 89.0539 42.9555 89.0425C43.3134 89.0425 43.3134 88.3623 42.9555 88.3086Z" fill="url(#paint21_linear_2288_5776)"/>
<path d="M41.7919 83.5657C39.7394 82.4615 37.3458 82.1725 35.0895 82.7565C32.8332 83.3405 30.8803 84.7544 29.6212 86.7157C29.5883 86.7592 29.5643 86.8087 29.5505 86.8615C29.5368 86.9143 29.5336 86.9692 29.541 87.0232C29.5485 87.0772 29.5666 87.1293 29.5941 87.1763C29.6217 87.2233 29.6583 87.2645 29.7018 87.2974C29.7453 87.3303 29.7948 87.3543 29.8476 87.3681C29.9003 87.3818 29.9553 87.3851 30.0093 87.3776C30.0633 87.3701 30.1153 87.3521 30.1624 87.3245C30.2094 87.2969 30.2506 87.2603 30.2835 87.2169C31.6183 85.6237 33.4146 84.4839 35.4247 83.955C37.4347 83.426 39.5594 83.5339 41.5055 84.2637C41.5981 84.3017 41.7019 84.3013 41.7942 84.2627C41.8865 84.2241 41.9597 84.1504 41.9977 84.0579C42.0357 83.9653 42.0353 83.8614 41.9967 83.7691C41.9581 83.6768 41.8844 83.6036 41.7919 83.5657Z" fill="url(#paint22_linear_2288_5776)"/>
<path d="M41.5056 80.5409C40.8434 78.5901 37.407 77.8741 35.5993 77.6057C33.1472 77.2298 29.7287 77.2835 27.7242 78.9301C27.4557 79.1449 27.7242 79.5029 28.0463 79.4671C30.6415 79.0912 32.8072 78.1963 35.5277 78.6259C36.8734 78.8212 38.1787 79.2321 39.3936 79.8429C40.1811 80.2367 40.5749 80.6304 41.4519 80.6125L41.5056 80.5409Z" fill="url(#paint23_linear_2288_5776)"/>
<path d="M42.9554 74.7241C41.2551 68.6924 33.1652 66.8847 27.9569 68.6745C27.3483 68.8893 27.6168 69.8737 28.2432 69.6589C29.6846 69.119 31.2202 68.8756 32.7579 68.9432C34.2956 69.0109 35.8038 69.3882 37.1922 70.0527C39.2774 71.3153 41.066 73.0123 42.4363 75.0283C42.6511 75.2789 43.027 75.0283 42.9554 74.7241Z" fill="url(#paint24_linear_2288_5776)"/>
<path d="M46.5345 70.1959C46.2302 67.3143 43.4918 64.0569 41.4872 62.106C39.4827 60.1551 36.3863 58.0253 33.5226 58.4011C33.4478 58.4047 33.3766 58.4342 33.3212 58.4846C33.2658 58.5351 33.2297 58.6032 33.2191 58.6774C33.2085 58.7515 33.224 58.8271 33.2631 58.891C33.3022 58.9549 33.3623 59.0032 33.4332 59.0276C36.4937 60.173 38.9815 60.8174 41.3441 63.3589C43.277 65.4171 44.2435 68.4598 46.2839 70.3033C46.3734 70.3033 46.5524 70.3033 46.5345 70.1959Z" fill="url(#paint25_linear_2288_5776)"/>
<path d="M50.2752 68.5135C50.3512 66.9984 50.1009 65.4848 49.5414 64.0748C49.0895 62.2865 48.4909 60.5385 47.7516 58.8486C46.248 55.6651 44.1664 52.7884 41.6126 50.3649C41.1473 49.9175 40.4492 50.6334 40.8967 51.0809C43.3965 53.4364 45.4305 56.2416 46.8925 59.3497C47.6449 61.0838 48.2438 62.8805 48.6823 64.7191C48.8919 66.0861 49.3792 67.3957 50.1142 68.5672C50.1253 68.5857 50.141 68.601 50.1598 68.6117C50.1787 68.6223 50.1999 68.6279 50.2215 68.6279C50.2432 68.6279 50.2644 68.6223 50.2832 68.6117C50.302 68.601 50.3178 68.5857 50.3289 68.5672L50.2752 68.5135Z" fill="url(#paint26_linear_2288_5776)"/>
<path d="M53.9983 69.1757C54.5897 67.5907 54.881 65.9095 54.8574 64.2179C55.0543 62.1239 55.2154 60.0119 55.2691 57.9C55.4374 53.8713 54.9044 49.844 53.6941 45.9978C53.4972 45.4072 52.5486 45.6577 52.7455 46.2663C53.9352 50.171 54.4379 54.2528 54.231 58.3295C54.231 60.2983 54.052 62.2671 53.8731 64.2179C53.5779 65.8513 53.5779 67.5244 53.8731 69.1578H54.0162L53.9983 69.1757Z" fill="url(#paint27_linear_2288_5776)"/>
<path d="M55.7343 69.8021C59.5108 69.659 61.9449 63.0904 63.162 60.2625C65.245 55.7963 66.0445 50.8387 65.4708 45.9441C65.3635 45.2998 64.4149 45.5862 64.4865 46.2126C64.9851 50.6184 64.3057 55.0776 62.5177 59.1349C60.8532 63.0904 59.0634 66.8669 55.5912 69.301C55.5352 69.3319 55.4913 69.3806 55.4663 69.4394C55.4412 69.4982 55.4366 69.5637 55.453 69.6254C55.4695 69.6871 55.5061 69.7416 55.5571 69.7801C55.6081 69.8186 55.6705 69.839 55.7343 69.8379V69.8021Z" fill="url(#paint28_linear_2288_5776)"/>
<path d="M57.7215 72.4868C62.4107 73.1849 66.9568 68.1018 69.5699 64.7907C72.7018 61.0468 74.53 56.3852 74.7782 51.5104C74.7782 50.8661 73.8297 50.884 73.7939 51.5104C73.5078 55.7728 71.9976 59.8621 69.4446 63.2873C66.8136 66.9027 62.6434 71.5919 57.8289 71.5919C57.3814 71.5919 57.2382 72.3436 57.7215 72.4152V72.4868Z" fill="url(#paint29_linear_2288_5776)"/>
<path d="M60.1369 75.3684C64.6651 77.4267 70.2135 74.7062 73.8467 71.9857C77.48 69.2652 81.1133 64.9339 81.2028 60.4952C81.2098 60.416 81.1888 60.337 81.1436 60.2717C81.0983 60.2064 81.0316 60.159 80.9551 60.1378C80.8785 60.1165 80.797 60.1227 80.7245 60.1553C80.6521 60.1879 80.5933 60.2448 80.5585 60.3162C79.6278 62.106 79.1267 64.2001 78.017 66.0078C76.9148 67.7889 75.5165 69.3687 73.8825 70.6791C71.8849 72.3478 69.5893 73.6231 67.1171 74.4377C64.8844 74.9701 62.5726 75.0854 60.298 74.7778C60.2302 74.7812 60.1652 74.806 60.1124 74.8485C60.0595 74.8911 60.0214 74.9493 60.0035 75.0148C59.9857 75.0802 59.989 75.1497 60.0129 75.2132C60.0369 75.2767 60.0802 75.331 60.1369 75.3684Z" fill="url(#paint30_linear_2288_5776)"/>
<path d="M79.8428 75.9053C79.3908 76.7068 79.17 77.6179 79.2047 78.5373C79.2395 79.4568 79.5285 80.3486 80.0397 81.1137C80.4959 81.9209 81.132 82.6122 81.8987 83.1337C82.6654 83.6552 83.5421 83.9929 84.4605 84.1205C85.0153 84.1205 85.0153 83.4046 84.5858 83.2435C83.0798 82.7993 81.7719 81.8516 80.8809 80.5588C80.2459 79.0922 79.9463 77.5024 80.0039 75.9053C80.0039 75.9053 79.8965 75.7622 79.8428 75.9053Z" fill="url(#paint31_linear_2288_5776)"/>
<path d="M84.8188 76.1738C84.4609 78.4468 86.6086 81.06 88.2195 82.4918C89.8303 83.9236 92.1749 85.2481 94.448 84.2816C94.9312 84.0668 94.5911 83.2435 94.0721 83.4225C91.6917 84.2458 89.4186 82.5276 87.9152 80.7915C86.6802 79.3954 86.1254 77.5341 84.9799 76.2096C84.9726 76.1945 84.9612 76.1817 84.9469 76.1728C84.9327 76.1639 84.9162 76.1591 84.8994 76.1591C84.8826 76.1591 84.8661 76.1639 84.8519 76.1728C84.8376 76.1817 84.8262 76.1945 84.8188 76.2096V76.1738Z" fill="url(#paint32_linear_2288_5776)"/>
<path d="M94.4654 79.4492C95.933 80.7378 99.1547 82.3128 100.837 80.5051C101.106 80.2188 100.837 79.6639 100.425 79.8071C99.5584 80.2065 98.5867 80.3194 97.6512 80.1293C96.6871 79.7763 95.7533 79.3453 94.8592 78.8406C94.4833 78.6616 94.018 79.127 94.3938 79.4492H94.4654Z" fill="url(#paint33_linear_2288_5776)"/>
<path d="M84.6575 21.1733C84.6719 21.1425 84.6794 21.1089 84.6794 21.0749C84.6794 21.0409 84.6719 21.0073 84.6575 20.9764C84.1206 19.9563 82.2055 19.7594 81.239 19.5804C79.6461 19.2582 78.0532 19.0793 76.4603 18.8645L75.6727 18.7571C75.5654 18.7571 75.3864 18.6497 75.4043 18.7571C75.1954 18.4099 75.0329 18.0368 74.921 17.6474C74.2588 16.1082 73.6145 14.5511 72.9523 13.0118C72.6122 12.2422 72.2542 11.4547 71.8963 10.703C71.5383 9.95128 71.3951 9.34275 70.8761 9.11008C69.7127 8.60893 68.9073 11.4726 68.5851 12.1706C67.8513 13.8351 67.1533 15.5176 66.4374 17.1821C66.2763 17.5221 66.0257 18.5423 65.7215 18.775C65.2155 18.8222 64.7061 18.8222 64.2001 18.775L62.0703 18.954C60.8624 19.038 59.6645 19.2297 58.4907 19.5267C57.7748 19.7415 56.5219 20.0815 56.7009 21.048C56.8799 22.0145 58.0253 22.6052 58.5802 23.0526C59.4682 23.7865 60.4072 24.4564 61.3902 25.0572C61.9172 25.2862 62.4258 25.5554 62.9115 25.8626C63.4663 26.2921 63.1979 26.7396 63.0547 27.3123C62.7325 28.5115 62.3924 29.7286 62.1061 30.8919C61.8423 31.9182 61.6332 32.9577 61.4796 34.0062C61.2926 34.6977 61.2926 35.4266 61.4796 36.1181C62.2135 37.6753 65.0592 34.9548 65.7036 34.4357C66.3479 33.9167 67.386 33.0934 68.1914 32.3954L69.3727 31.3573C69.5874 31.1425 70.1602 30.3908 70.4286 30.3371C70.6971 30.2834 72.2184 31.751 72.4869 32.1269C73.3281 32.8428 74.2767 33.5408 75.0821 34.2209C76.1967 35.361 77.6116 36.1615 79.1629 36.5298C80.541 36.6551 79.8967 34.5789 79.6998 33.7556C79.2702 31.7868 78.6259 29.8717 78.0532 27.9388C77.9279 27.5271 77.7668 27.0975 77.6773 26.668C77.5878 26.2384 77.6773 26.2384 77.9816 26.0058C78.7512 25.5404 79.7714 25.2541 80.4694 24.8603C81.7581 24.216 84.3175 23.0705 84.6754 21.4418C84.7006 21.4007 84.7124 21.3528 84.7092 21.3047C84.706 21.2566 84.688 21.2107 84.6575 21.1733Z" fill="#FFF896"/>
<path d="M135.327 147.3C133.135 147.136 130.937 147.088 128.74 147.157L130.53 145.367C131.579 144.473 132.485 143.423 133.215 142.253C133.278 142.142 133.304 142.015 133.29 141.888C133.277 141.761 133.224 141.642 133.139 141.547C133.054 141.452 132.941 141.386 132.817 141.359C132.692 141.332 132.562 141.344 132.445 141.394C131.258 142.108 130.185 142.995 129.259 144.025L127.362 145.815V143.184C127.478 141.804 127.375 140.415 127.058 139.067C127.02 138.943 126.943 138.834 126.838 138.757C126.733 138.679 126.606 138.638 126.476 138.638C126.346 138.638 126.219 138.679 126.115 138.757C126.01 138.834 125.933 138.943 125.895 139.067C125.557 140.412 125.424 141.8 125.501 143.184C125.501 144.079 125.501 144.974 125.501 145.851L123.711 143.953C122.81 142.899 121.754 141.988 120.579 141.251C120.462 141.184 120.326 141.158 120.193 141.177C120.06 141.196 119.937 141.258 119.843 141.354C119.749 141.45 119.689 141.575 119.673 141.708C119.658 141.842 119.687 141.977 119.756 142.092C120.465 143.277 121.352 144.345 122.387 145.26L124.176 147.175H121.492C120.111 147.067 118.722 147.176 117.375 147.497C117.251 147.536 117.142 147.613 117.064 147.717C116.987 147.822 116.945 147.949 116.945 148.079C116.945 148.209 116.987 148.336 117.064 148.441C117.142 148.545 117.251 148.622 117.375 148.661C118.719 149.001 120.108 149.127 121.492 149.036H124.105C122.494 150.558 120.883 152.079 119.451 153.726C119.318 153.902 119.253 154.121 119.269 154.342C119.285 154.563 119.381 154.77 119.539 154.926C119.696 155.081 119.905 155.174 120.126 155.187C120.347 155.2 120.565 155.132 120.74 154.997C122.387 153.618 123.926 152.043 125.447 150.486C125.447 152.67 125.322 154.871 125.447 157.019C125.489 157.226 125.6 157.412 125.764 157.545C125.927 157.679 126.131 157.752 126.342 157.752C126.553 157.752 126.757 157.679 126.92 157.545C127.083 157.412 127.195 157.226 127.237 157.019C127.434 154.871 127.398 152.688 127.38 150.504C128.883 152.097 130.387 153.69 132.016 155.104C132.19 155.24 132.409 155.307 132.63 155.294C132.85 155.281 133.059 155.189 133.217 155.033C133.374 154.878 133.47 154.67 133.486 154.45C133.502 154.229 133.438 154.01 133.304 153.833C131.908 152.133 130.351 150.647 128.866 149.126C131.049 149.126 133.233 149.251 135.398 149.126C135.64 149.116 135.869 149.011 136.033 148.833C136.198 148.655 136.285 148.419 136.275 148.177C136.266 147.935 136.161 147.707 135.983 147.542C135.805 147.378 135.569 147.291 135.327 147.3Z" fill="white"/>
<path d="M122.386 29.0305C122.977 29.0211 123.541 28.7839 123.961 28.3683C124.166 28.1638 124.328 27.921 124.438 27.6538C124.549 27.3867 124.606 27.1003 124.606 26.8112C124.607 26.2218 124.375 25.6558 123.961 25.2362C123.538 24.8287 122.974 24.5982 122.386 24.5918C121.798 24.5946 121.233 24.8255 120.811 25.2362C120.404 25.66 120.173 26.2233 120.167 26.8112C120.174 27.3936 120.405 27.951 120.811 28.3683C121.233 28.7808 121.796 29.0175 122.386 29.0305Z" fill="white"/>
<path d="M94.8597 42.9551C95.4008 42.9512 95.9197 42.7398 96.3094 42.3645C96.5001 42.1748 96.6507 41.9487 96.7521 41.6997C96.8536 41.4506 96.9039 41.1837 96.9001 40.9148C96.8955 40.3734 96.6796 39.8552 96.2985 39.4707C95.9173 39.0862 95.401 38.8658 94.8597 38.8565C94.3186 38.8565 93.7996 39.0715 93.4169 39.4541C93.0343 39.8368 92.8193 40.3557 92.8193 40.8969C92.8239 41.4383 93.0398 41.9564 93.421 42.3409C93.8021 42.7254 94.3184 42.9458 94.8597 42.9551Z" fill="white"/>
<path d="M151.435 51.224C152.022 51.2176 152.586 50.9872 153.01 50.5797C153.329 50.2703 153.547 49.8723 153.638 49.4372C153.728 49.002 153.685 48.5498 153.516 48.1391C153.346 47.7284 153.057 47.3781 152.686 47.1335C152.315 46.889 151.879 46.7614 151.435 46.7674C150.847 46.7774 150.285 47.0073 149.859 47.4117C149.44 47.8361 149.202 48.4077 149.197 49.0047C149.211 49.592 149.452 50.1512 149.869 50.565C150.286 50.9787 150.847 51.2149 151.435 51.224Z" fill="white"/>
<path d="M147.157 109.804C147.747 109.799 148.312 109.562 148.728 109.143C149.143 108.723 149.377 108.157 149.377 107.567C149.372 106.978 149.137 106.414 148.722 105.996C148.308 105.578 147.746 105.339 147.157 105.33C146.573 105.344 146.018 105.586 145.61 106.004C145.202 106.422 144.973 106.983 144.974 107.567C144.987 108.156 145.227 108.717 145.644 109.134C146.061 109.55 146.622 109.79 147.211 109.804H147.157Z" fill="white"/>
<path d="M153.583 136.025C154.1 136.022 154.594 135.816 154.961 135.452C155.148 135.266 155.296 135.046 155.398 134.803C155.499 134.559 155.552 134.299 155.553 134.035C155.554 133.772 155.503 133.511 155.403 133.267C155.303 133.024 155.156 132.802 154.97 132.615C154.784 132.428 154.564 132.28 154.32 132.178C154.077 132.077 153.817 132.024 153.553 132.023C153.29 132.022 153.029 132.073 152.785 132.173C152.541 132.273 152.32 132.42 152.133 132.606C151.832 132.881 151.624 133.242 151.537 133.64C151.451 134.038 151.489 134.453 151.648 134.828C151.807 135.203 152.079 135.52 152.425 135.734C152.772 135.948 153.176 136.05 153.583 136.025Z" fill="white"/>
<path d="M98.0986 146.763C98.6531 146.757 99.1842 146.539 99.5842 146.155C99.9653 145.753 100.182 145.223 100.193 144.669C100.183 144.117 99.9599 143.59 99.5692 143.199C99.1784 142.808 98.6511 142.585 98.0986 142.575C97.5478 142.585 97.0224 142.809 96.6346 143.2C96.2467 143.591 96.0271 144.119 96.0225 144.669C96.0315 145.219 96.2526 145.744 96.6395 146.134C97.0265 146.524 97.5492 146.75 98.0986 146.763Z" fill="white"/>
<path d="M85.1227 166.773H85.3196C85.5951 166.775 85.8681 166.722 86.123 166.617C86.3779 166.513 86.6097 166.359 86.8051 166.165C87.1924 165.767 87.4105 165.235 87.4137 164.679C87.3989 164.132 87.1821 163.609 86.8051 163.212C86.6109 163.016 86.3793 162.861 86.1241 162.757C85.869 162.652 85.5954 162.6 85.3196 162.603H85.1227C84.85 162.602 84.5807 162.663 84.3352 162.782C84.0826 162.869 83.8552 163.016 83.673 163.212C83.2927 163.6 83.075 164.118 83.0645 164.661C83.0636 164.934 83.1169 165.204 83.2214 165.456C83.3259 165.708 83.4794 165.937 83.673 166.129L84.1204 166.451C84.4331 166.641 84.7926 166.74 85.1585 166.738L85.1227 166.773Z" fill="white"/>
<path d="M59.5287 140.839C60.1445 140.832 60.7341 140.589 61.1753 140.159C61.3929 139.944 61.5652 139.687 61.682 139.405C61.7988 139.122 61.8578 138.818 61.8554 138.512C61.8416 137.901 61.5915 137.319 61.1576 136.889C60.7237 136.458 60.1398 136.213 59.5287 136.204C58.9175 136.208 58.3325 136.452 57.9 136.884C57.6821 137.095 57.5094 137.348 57.3925 137.628C57.2756 137.908 57.2168 138.209 57.2198 138.512C57.2289 139.124 57.4746 139.707 57.9051 140.141C58.3356 140.575 58.9176 140.825 59.5287 140.839Z" fill="white"/>
<path d="M22.3905 128.955C23.0108 128.944 23.6044 128.701 24.055 128.275C24.489 127.829 24.7329 127.232 24.7352 126.61C24.7393 126.146 24.6045 125.691 24.348 125.304C24.0915 124.917 23.7251 124.616 23.2959 124.438C22.8667 124.261 22.3943 124.217 21.9395 124.31C21.4847 124.404 21.0683 124.632 20.7439 124.964C20.3028 125.399 20.0519 125.991 20.0459 126.61C20.0551 127.229 20.3051 127.82 20.7428 128.258C21.1806 128.696 21.7716 128.946 22.3905 128.955Z" fill="white"/>
<path d="M45.7295 111.54C46.2801 111.54 46.8082 111.321 47.1976 110.932C47.5869 110.543 47.8057 110.015 47.8057 109.464C47.7964 108.916 47.5748 108.394 47.1874 108.006C46.8 107.619 46.2772 107.397 45.7295 107.388C45.1789 107.388 44.6508 107.607 44.2614 107.996C43.8721 108.385 43.6533 108.913 43.6533 109.464C43.6625 110.012 43.8842 110.535 44.2716 110.922C44.659 111.309 45.1817 111.531 45.7295 111.54Z" fill="white"/>
<path d="M21.2271 88.8635C21.1812 88.3684 20.9512 87.9086 20.5828 87.5748C20.1689 87.1877 19.6279 86.965 19.0615 86.9484H18.4887C18.131 87.0509 17.8048 87.2417 17.5401 87.5032C17.2389 87.774 17.0267 88.1297 16.9316 88.5234V88.7919C16.8418 89.1866 16.8418 89.5964 16.9316 89.991C17.035 90.3721 17.239 90.7182 17.5222 90.9933C17.945 91.4152 18.5179 91.6521 19.1152 91.6521C19.7124 91.6521 20.2853 91.4152 20.7081 90.9933C20.9862 90.7172 21.1841 90.3708 21.2808 89.991C21.3882 89.5985 21.3882 89.1844 21.2808 88.7919L21.2271 88.8635Z" fill="white"/>
<path d="M38.9639 41.3801C39.3427 41.3801 39.7129 41.2678 40.0279 41.0574C40.3428 40.8469 40.5883 40.5478 40.7332 40.1979C40.8782 39.848 40.9161 39.4629 40.8422 39.0914C40.7683 38.7199 40.5859 38.3787 40.3181 38.1109C40.0502 37.843 39.709 37.6606 39.3375 37.5868C38.966 37.5129 38.581 37.5508 38.231 37.6957C37.8811 37.8407 37.582 38.0861 37.3716 38.4011C37.1611 38.716 37.0488 39.0863 37.0488 39.465C37.058 39.9701 37.2627 40.4519 37.6199 40.809C37.9771 41.1662 38.4589 41.3709 38.9639 41.3801Z" fill="white"/>
<path d="M127.631 123.961C128.191 123.961 128.728 123.739 129.124 123.343C129.52 122.947 129.742 122.41 129.742 121.849C129.742 121.289 129.52 120.752 129.124 120.356C128.728 119.96 128.191 119.737 127.631 119.737C127.07 119.737 126.533 119.96 126.137 120.356C125.741 120.752 125.519 121.289 125.519 121.849C125.519 122.41 125.741 122.947 126.137 123.343C126.533 123.739 127.07 123.961 127.631 123.961Z" fill="#F7B9E7"/>
<path d="M168.581 93.8928C168.968 93.8515 169.325 93.6686 169.585 93.3795C169.845 93.0904 169.989 92.7154 169.989 92.3268C169.989 91.9381 169.845 91.5631 169.585 91.274C169.325 90.9849 168.968 90.8021 168.581 90.7607C168.195 90.8021 167.837 90.9849 167.577 91.274C167.318 91.5631 167.174 91.9381 167.174 92.3268C167.174 92.7154 167.318 93.0904 167.577 93.3795C167.837 93.6686 168.195 93.8515 168.581 93.8928Z" fill="#F7B9E7"/>
<path d="M44.2972 151.667H44.8699C45.1996 151.605 45.5189 151.497 45.8185 151.345C46.1259 151.159 46.3801 150.896 46.5564 150.582C46.7328 150.269 46.8255 149.915 46.8255 149.556C46.8255 149.196 46.7328 148.842 46.5564 148.529C46.3801 148.215 46.1259 147.952 45.8185 147.766C45.5189 147.614 45.1996 147.506 44.8699 147.444H44.2972C43.7136 147.445 43.1542 147.677 42.74 148.088C42.3397 148.509 42.1101 149.064 42.0957 149.645C42.103 150.227 42.3337 150.785 42.74 151.202C42.9401 151.412 43.1821 151.578 43.4503 151.689C43.7185 151.8 44.007 151.854 44.2972 151.846V151.667Z" fill="#F7B9E7"/>
<path d="M19.9023 58.6875C20.4797 58.6811 21.0318 58.45 21.4415 58.0432C21.6478 57.8438 21.8114 57.6045 21.9222 57.3399C22.0329 57.0752 22.0886 56.7908 22.0859 56.5039C22.0866 56.2174 22.0299 55.9335 21.9193 55.6692C21.8086 55.4048 21.6462 55.1653 21.4415 54.9647C21.0318 54.5579 20.4797 54.3267 19.9023 54.3204C19.3257 54.3304 18.7749 54.561 18.3631 54.9647C17.9563 55.3744 17.7251 55.9266 17.7188 56.5039C17.7234 57.0816 17.955 57.6343 18.3635 58.0428C18.772 58.4513 19.3246 58.6828 19.9023 58.6875Z" fill="#F7B9E7"/>
</g>
<defs>
<linearGradient id="paint0_linear_2288_5776" x1="108.73" y1="95.7529" x2="116.248" y2="95.7529" gradientUnits="userSpaceOnUse">
<stop stop-color="#E46125"/>
<stop offset="1" stop-color="#A12FA3"/>
</linearGradient>
<linearGradient id="paint1_linear_2288_5776" x1="63.7523" y1="95.7529" x2="71.2701" y2="95.7529" gradientUnits="userSpaceOnUse">
<stop stop-color="#E46125"/>
<stop offset="1" stop-color="#A12FA3"/>
</linearGradient>
<linearGradient id="paint2_linear_2288_5776" x1="82.7114" y1="124.439" x2="88.874" y2="124.439" gradientUnits="userSpaceOnUse">
<stop stop-color="#E46125"/>
<stop offset="1" stop-color="#A12FA3"/>
</linearGradient>
<linearGradient id="paint3_linear_2288_5776" x1="91.1079" y1="124.437" x2="97.2774" y2="124.437" gradientUnits="userSpaceOnUse">
<stop stop-color="#E46125"/>
<stop offset="1" stop-color="#A12FA3"/>
</linearGradient>
<linearGradient id="paint4_linear_2288_5776" x1="82.3025" y1="129.444" x2="97.7207" y2="129.444" gradientUnits="userSpaceOnUse">
<stop stop-color="#E46125"/>
<stop offset="1" stop-color="#A12FA3"/>
</linearGradient>
<linearGradient id="paint5_linear_2288_5776" x1="125.561" y1="98.1017" x2="127.548" y2="98.1017" gradientUnits="userSpaceOnUse">
<stop stop-color="#E46125"/>
<stop offset="1" stop-color="#A12FA3"/>
</linearGradient>
<linearGradient id="paint6_linear_2288_5776" x1="130.975" y1="97.9833" x2="133.804" y2="97.9833" gradientUnits="userSpaceOnUse">
<stop stop-color="#E46125"/>
<stop offset="1" stop-color="#A12FA3"/>
</linearGradient>
<linearGradient id="paint7_linear_2288_5776" x1="134.491" y1="95.3708" x2="140.678" y2="95.3708" gradientUnits="userSpaceOnUse">
<stop stop-color="#E46125"/>
<stop offset="1" stop-color="#A12FA3"/>
</linearGradient>
<linearGradient id="paint8_linear_2288_5776" x1="136.722" y1="90.9988" x2="146.187" y2="90.9988" gradientUnits="userSpaceOnUse">
<stop stop-color="#E46125"/>
<stop offset="1" stop-color="#A12FA3"/>
</linearGradient>
<linearGradient id="paint9_linear_2288_5776" x1="138.04" y1="84.8956" x2="150.422" y2="84.8956" gradientUnits="userSpaceOnUse">
<stop stop-color="#E46125"/>
<stop offset="1" stop-color="#A12FA3"/>
</linearGradient>
<linearGradient id="paint10_linear_2288_5776" x1="138.547" y1="78.9216" x2="152.423" y2="78.9216" gradientUnits="userSpaceOnUse">
<stop stop-color="#E46125"/>
<stop offset="1" stop-color="#A12FA3"/>
</linearGradient>
<linearGradient id="paint11_linear_2288_5776" x1="136.972" y1="71.5694" x2="152.311" y2="71.5694" gradientUnits="userSpaceOnUse">
<stop stop-color="#E46125"/>
<stop offset="1" stop-color="#A12FA3"/>
</linearGradient>
<linearGradient id="paint12_linear_2288_5776" x1="133.554" y1="64.3804" x2="146.831" y2="64.3804" gradientUnits="userSpaceOnUse">
<stop stop-color="#E46125"/>
<stop offset="1" stop-color="#A12FA3"/>
</linearGradient>
<linearGradient id="paint13_linear_2288_5776" x1="129.64" y1="59.4087" x2="139.266" y2="59.4087" gradientUnits="userSpaceOnUse">
<stop stop-color="#E46125"/>
<stop offset="1" stop-color="#A12FA3"/>
</linearGradient>
<linearGradient id="paint14_linear_2288_5776" x1="124.765" y1="57.4146" x2="127.317" y2="57.4146" gradientUnits="userSpaceOnUse">
<stop stop-color="#E46125"/>
<stop offset="1" stop-color="#A12FA3"/>
</linearGradient>
<linearGradient id="paint15_linear_2288_5776" x1="114.344" y1="57.7583" x2="124.557" y2="57.7583" gradientUnits="userSpaceOnUse">
<stop stop-color="#E46125"/>
<stop offset="1" stop-color="#A12FA3"/>
</linearGradient>
<linearGradient id="paint16_linear_2288_5776" x1="105.22" y1="61.7174" x2="122.58" y2="61.7174" gradientUnits="userSpaceOnUse">
<stop stop-color="#E46125"/>
<stop offset="1" stop-color="#A12FA3"/>
</linearGradient>
<linearGradient id="paint17_linear_2288_5776" x1="98.8294" y1="68.0903" x2="120.043" y2="68.0903" gradientUnits="userSpaceOnUse">
<stop stop-color="#E46125"/>
<stop offset="1" stop-color="#A12FA3"/>
</linearGradient>
<linearGradient id="paint18_linear_2288_5776" x1="52.4491" y1="98.048" x2="54.4382" y2="98.048" gradientUnits="userSpaceOnUse">
<stop stop-color="#E46125"/>
<stop offset="1" stop-color="#A12FA3"/>
</linearGradient>
<linearGradient id="paint19_linear_2288_5776" x1="46.1931" y1="98.0101" x2="49.1086" y2="98.0101" gradientUnits="userSpaceOnUse">
<stop stop-color="#E46125"/>
<stop offset="1" stop-color="#A12FA3"/>
</linearGradient>
<linearGradient id="paint20_linear_2288_5776" x1="39.2681" y1="95.3682" x2="45.4367" y2="95.3682" gradientUnits="userSpaceOnUse">
<stop stop-color="#E46125"/>
<stop offset="1" stop-color="#A12FA3"/>
</linearGradient>
<linearGradient id="paint21_linear_2288_5776" x1="33.759" y1="90.9272" x2="43.2239" y2="90.9272" gradientUnits="userSpaceOnUse">
<stop stop-color="#E46125"/>
<stop offset="1" stop-color="#A12FA3"/>
</linearGradient>
<linearGradient id="paint22_linear_2288_5776" x1="29.5361" y1="84.9205" x2="42.0259" y2="84.9205" gradientUnits="userSpaceOnUse">
<stop stop-color="#E46125"/>
<stop offset="1" stop-color="#A12FA3"/>
</linearGradient>
<linearGradient id="paint23_linear_2288_5776" x1="27.6132" y1="79.0133" x2="41.5056" y2="79.0133" gradientUnits="userSpaceOnUse">
<stop stop-color="#E46125"/>
<stop offset="1" stop-color="#A12FA3"/>
</linearGradient>
<linearGradient id="paint24_linear_2288_5776" x1="27.6131" y1="71.5722" x2="42.9643" y2="71.5722" gradientUnits="userSpaceOnUse">
<stop stop-color="#E46125"/>
<stop offset="1" stop-color="#A12FA3"/>
</linearGradient>
<linearGradient id="paint25_linear_2288_5776" x1="33.2148" y1="64.3283" x2="46.5357" y2="64.3283" gradientUnits="userSpaceOnUse">
<stop stop-color="#E46125"/>
<stop offset="1" stop-color="#A12FA3"/>
</linearGradient>
<linearGradient id="paint26_linear_2288_5776" x1="40.7522" y1="59.4223" x2="50.3289" y2="59.4223" gradientUnits="userSpaceOnUse">
<stop stop-color="#E46125"/>
<stop offset="1" stop-color="#A12FA3"/>
</linearGradient>
<linearGradient id="paint27_linear_2288_5776" x1="52.7185" y1="57.4146" x2="55.2994" y2="57.4146" gradientUnits="userSpaceOnUse">
<stop stop-color="#E46125"/>
<stop offset="1" stop-color="#A12FA3"/>
</linearGradient>
<linearGradient id="paint28_linear_2288_5776" x1="55.4426" y1="57.7045" x2="65.6514" y2="57.7045" gradientUnits="userSpaceOnUse">
<stop stop-color="#E46125"/>
<stop offset="1" stop-color="#A12FA3"/>
</linearGradient>
<linearGradient id="paint29_linear_2288_5776" x1="57.4186" y1="61.789" x2="74.7782" y2="61.789" gradientUnits="userSpaceOnUse">
<stop stop-color="#E46125"/>
<stop offset="1" stop-color="#A12FA3"/>
</linearGradient>
<linearGradient id="paint30_linear_2288_5776" x1="59.9905" y1="68.1053" x2="81.2041" y2="68.1053" gradientUnits="userSpaceOnUse">
<stop stop-color="#E46125"/>
<stop offset="1" stop-color="#A12FA3"/>
</linearGradient>
<linearGradient id="paint31_linear_2288_5776" x1="79.2007" y1="79.9796" x2="84.8938" y2="79.9796" gradientUnits="userSpaceOnUse">
<stop stop-color="#E46125"/>
<stop offset="1" stop-color="#A12FA3"/>
</linearGradient>
<linearGradient id="paint32_linear_2288_5776" x1="84.7785" y1="80.3839" x2="94.6807" y2="80.3839" gradientUnits="userSpaceOnUse">
<stop stop-color="#E46125"/>
<stop offset="1" stop-color="#A12FA3"/>
</linearGradient>
<linearGradient id="paint33_linear_2288_5776" x1="94.2544" y1="80.0608" x2="100.945" y2="80.0608" gradientUnits="userSpaceOnUse">
<stop stop-color="#E46125"/>
<stop offset="1" stop-color="#A12FA3"/>
</linearGradient>
<clipPath id="clip0_2288_5776">
<rect width="180" height="180" fill="white"/>
</clipPath>
</defs>
</svg>
