<svg width="375" height="812" viewBox="0 0 375 812" fill="none" xmlns="http://www.w3.org/2000/svg">
<g clip-path="url(#clip0_1620_26082)">
<g opacity="0.1" clip-path="url(#clip1_1620_26082)">
<path d="M42.2079 169.59L20.4692 165.546L-28.9176 154.452L-52.0485 149.258L-59.7655 147.528C-68.3584 145.592 -77.3464 146.466 -85.408 150.019C-93.4697 153.573 -100.179 159.62 -104.551 167.271C-104.557 167.293 -104.567 167.313 -104.58 167.332C-105.397 168.655 -106.085 170.054 -106.637 171.508C-107.547 173.851 -108.304 176.25 -108.905 178.69C-109.157 179.653 -109.405 180.675 -109.652 181.764C-109.652 181.764 -107.971 180.698 -101.387 181.217L-79.6247 185.263L-37.9548 194.628L-7.08002 201.565L0.636911 203.294C9.22538 205.221 18.206 204.342 26.2601 200.787C34.3142 197.232 41.0174 191.187 45.3853 183.542C45.3853 183.542 45.4046 183.501 45.4142 183.481C46.2311 182.158 46.9199 180.76 47.4714 179.305C48.3811 176.962 49.1387 174.563 49.7396 172.123C49.9919 171.161 50.2398 170.138 50.4864 169.049C50.4729 169.043 48.7917 170.109 42.2079 169.59Z" fill="url(#paint0_linear_1620_26082)"/>
<path d="M122.838 30.3006C125.045 30.1755 127.238 29.8696 129.395 29.386C131.036 29.026 132.653 28.5631 134.236 28.0001C140.572 25.7578 146.263 21.996 150.81 17.0441C150.81 17.0441 150.829 17.0037 150.842 16.9768C151.933 15.8707 152.913 14.6611 153.77 13.365C155.167 11.2942 156.43 9.13631 157.553 6.90454C157.98 6.00902 158.479 5.08209 158.961 4.0721C158.961 4.0721 154.746 5.56633 137.61 -2.60408L70.5214 -34.5926C68.9824 -35.3264 67.4308 -36.0166 65.8667 -36.6632C60.4939 -38.8967 54.93 -40.6396 49.243 -41.8706C46.6401 -42.4175 44.0291 -42.8609 41.4101 -43.2006C38.6349 -43.5652 35.8523 -43.7929 33.0817 -43.9074C32.0369 -43.951 30.9956 -43.9847 29.9582 -43.9918C17.9821 -44.0823 6.09201 -41.9539 -5.11075 -37.7142C-22.4161 -31.1754 -37.4798 -19.8002 -48.5081 -4.94296C-59.5363 9.91426 -66.0644 27.6274 -67.315 46.0873C-68.5656 64.5472 -64.486 82.9759 -55.562 99.1791C-46.638 115.382 -33.2457 128.677 -16.9796 137.481C-0.713618 146.284 17.7407 150.225 36.1857 148.835C54.6308 147.444 72.2894 140.78 87.0589 129.637C101.828 118.494 113.086 103.341 119.492 85.9819C125.898 68.623 127.182 49.7899 123.191 31.7252C123.086 31.2534 122.957 30.7788 122.838 30.3006ZM50.4753 7.44977C59.3986 11.6963 66.8615 18.4951 71.92 26.986C76.9784 35.4769 79.4051 45.2786 78.8932 55.1511C78.3812 65.0236 74.9536 74.5234 69.0438 82.4488C63.134 90.3742 55.0077 96.3692 45.6927 99.6753C36.3777 102.981 26.2926 103.45 16.713 101.022C7.13351 98.5946 -1.51006 93.3793 -8.12427 86.036C-14.7385 78.6928 -19.0262 69.5517 -20.445 59.7689C-21.8638 49.9862 -20.35 40.0013 -16.095 31.0774C-10.3929 19.1186 -0.177881 9.91223 12.305 5.48168C24.788 1.05115 38.5172 1.75904 50.4753 7.44977Z" fill="url(#paint1_linear_1620_26082)"/>
</g>
<g opacity="0.07" clip-path="url(#clip2_1620_26082)">
<path d="M265.397 780.963L275.921 794.633L301.157 825.012L312.975 839.241L316.915 843.989C321.31 849.273 323.893 855.829 324.283 862.694C324.674 869.558 322.852 876.369 319.086 882.125C319.073 882.137 319.062 882.151 319.054 882.167C318.424 883.205 317.697 884.18 316.882 885.08C315.576 886.544 314.178 887.923 312.695 889.208C312.116 889.725 311.493 890.26 310.824 890.819C310.824 890.819 310.968 889.271 308.271 884.881L297.736 871.195L276.441 845.565L260.664 826.574L256.724 821.826C252.337 816.542 249.761 809.989 249.374 803.129C248.987 796.269 250.809 789.463 254.573 783.712C254.573 783.712 254.594 783.684 254.604 783.67C255.234 782.632 255.962 781.657 256.777 780.757C258.082 779.293 259.481 777.914 260.964 776.629C261.543 776.112 262.165 775.577 262.835 775.018C262.844 775.026 262.7 776.573 265.397 780.963Z" fill="url(#paint2_linear_1620_26082)"/>
<path d="M333.592 675.448C332.896 673.87 332.33 672.238 331.901 670.567C331.569 669.298 331.317 668.011 331.146 666.71C330.456 661.511 331.051 656.22 332.879 651.301C332.879 651.301 332.901 651.273 332.915 651.255C333.297 650.104 333.789 648.992 334.386 647.937C335.33 646.23 336.381 644.586 337.534 643.013C338.005 642.398 338.472 641.721 339.003 641.028C339.003 641.028 339.46 644.488 351.219 653.493L397.258 688.75C398.314 689.559 399.344 690.392 400.349 691.249C403.807 694.19 406.993 697.437 409.867 700.952C411.171 702.566 412.405 704.223 413.571 705.922C414.809 707.721 415.955 709.574 417.017 711.459C417.418 712.169 417.811 712.881 418.184 713.599C422.497 721.89 425.237 730.909 426.266 740.2C427.862 754.549 425.302 769.058 418.889 782C412.477 794.941 402.482 805.771 390.097 813.198C377.711 820.625 363.455 824.337 349.027 823.892C334.599 823.446 320.607 818.863 308.716 810.687C296.826 802.511 287.538 791.087 281.959 777.775C276.38 764.463 274.745 749.824 277.249 735.602C279.752 721.38 286.289 708.173 296.08 697.554C305.872 686.936 318.505 679.353 332.477 675.709C332.842 675.615 333.217 675.536 333.592 675.448ZM375.152 717.617C369.034 712.924 361.66 710.154 353.964 709.655C346.268 709.156 338.595 710.952 331.915 714.815C325.235 718.678 319.849 724.435 316.438 731.357C313.027 738.279 311.744 746.056 312.751 753.704C313.759 761.352 317.012 768.527 322.099 774.321C327.185 780.116 333.877 784.269 341.328 786.257C348.779 788.245 356.653 787.977 363.956 785.487C371.258 782.998 377.661 778.399 382.353 772.272C388.641 764.061 391.415 753.691 390.064 743.443C388.714 733.194 383.35 723.905 375.152 717.617Z" fill="url(#paint3_linear_1620_26082)"/>
</g>
</g>
<defs>
<linearGradient id="paint0_linear_1620_26082" x1="-93.9573" y1="144.696" x2="34.7942" y2="206.086" gradientUnits="userSpaceOnUse">
<stop stop-color="#E46125"/>
<stop offset="1" stop-color="#A12FA3"/>
</linearGradient>
<linearGradient id="paint1_linear_1620_26082" x1="-57.4433" y1="9.56896" x2="116.767" y2="92.6338" gradientUnits="userSpaceOnUse">
<stop stop-color="#E46125"/>
<stop offset="1" stop-color="#A12FA3"/>
</linearGradient>
<linearGradient id="paint2_linear_1620_26082" x1="331.017" y1="866.744" x2="242.663" y2="799.081" gradientUnits="userSpaceOnUse">
<stop stop-color="#E46125"/>
<stop offset="1" stop-color="#A12FA3"/>
</linearGradient>
<linearGradient id="paint3_linear_1620_26082" x1="411.974" y1="793.364" x2="292.424" y2="701.811" gradientUnits="userSpaceOnUse">
<stop stop-color="#E46125"/>
<stop offset="1" stop-color="#A12FA3"/>
</linearGradient>
<clipPath id="clip0_1620_26082">
<rect width="375" height="812" fill="white"/>
</clipPath>
<clipPath id="clip1_1620_26082">
<rect width="193" height="276" fill="white" transform="translate(-15.2129 -79) rotate(25.4922)"/>
</clipPath>
<clipPath id="clip2_1620_26082">
<rect width="150.579" height="215.45" fill="white" transform="matrix(-0.793933 -0.608006 -0.608006 0.793933 458.544 732.553)"/>
</clipPath>
</defs>
</svg>
