<svg width="1440" height="1024" viewBox="0 0 1440 1024" fill="none" xmlns="http://www.w3.org/2000/svg">
<g clip-path="url(#clip0_1616_53893)">
<g opacity="0.1" clip-path="url(#clip1_1616_53893)">
<path d="M375.761 770.156L352.778 812.208L296.632 906.457L270.338 950.601L261.574 965.331C251.793 981.726 247.533 1000.83 249.418 1019.83C251.304 1038.83 259.236 1056.73 272.049 1070.89C272.089 1070.92 272.125 1070.95 272.155 1070.99C274.33 1073.57 276.746 1075.93 279.369 1078.04C283.582 1081.5 288.013 1084.67 292.635 1087.56C294.447 1088.73 296.385 1089.93 298.462 1091.17C298.462 1091.17 297.4 1086.99 302.908 1073.77L325.914 1031.68L373.295 952.157L408.398 893.237L417.162 878.507C426.92 862.115 431.164 843.024 429.271 824.037C427.378 805.051 419.447 787.169 406.643 773.017C406.643 773.017 406.573 772.95 406.538 772.917C404.362 770.342 401.946 767.98 399.323 765.864C395.11 762.411 390.679 759.233 386.057 756.35C384.245 755.181 382.307 753.982 380.23 752.74C380.208 752.763 381.27 756.945 375.761 770.156Z" fill="url(#paint0_linear_1616_53893)"/>
<path d="M143.207 510.17C144.437 505.539 145.286 500.816 145.744 496.047C146.109 492.424 146.245 488.781 146.152 485.141C145.805 470.578 141.893 456.32 134.758 443.616C134.758 443.616 134.688 443.549 134.641 443.505C133.098 440.512 131.268 437.676 129.176 435.038C125.852 430.764 122.259 426.707 118.418 422.891C116.861 421.408 115.289 419.754 113.533 418.081C113.533 418.081 113.77 427.77 85.388 457.559L-25.7306 574.185C-28.2797 576.861 -30.7474 579.591 -33.1337 582.377C-41.3563 591.938 -48.6973 602.224 -55.067 613.108C-57.9482 618.101 -60.6216 623.18 -63.087 628.346C-65.7089 633.817 -68.0538 639.395 -70.1573 645.025C-70.9516 647.147 -71.723 649.27 -72.437 651.402C-80.6971 676.009 -84.3286 701.936 -83.1479 727.87V727.87C-81.3456 767.924 -68.0698 806.621 -44.9012 839.353C-21.7326 872.085 10.3526 897.474 47.5336 912.494C84.7146 927.515 125.425 931.535 164.817 924.077C204.208 916.618 240.622 897.995 269.721 870.425C298.821 842.855 319.38 807.499 328.95 768.568C338.52 729.637 336.699 688.771 323.703 650.836C310.707 612.901 287.083 579.496 255.645 554.599C224.208 529.701 186.28 514.36 146.38 510.402C145.337 510.302 144.272 510.247 143.207 510.17ZM47.3552 643.819C62.118 628.302 81.1533 617.513 102.053 612.817C122.953 608.122 144.779 609.731 164.77 617.441C184.76 625.151 202.017 638.616 214.358 656.132C226.699 673.648 233.569 694.428 234.1 715.844C234.63 737.261 228.797 758.35 217.338 776.446C205.879 794.541 189.309 808.829 169.724 817.503C150.14 826.177 128.42 828.846 107.313 825.174C86.2054 821.501 66.659 811.652 51.1458 796.871C30.3568 777.064 18.2797 749.816 17.5689 721.117C16.8581 692.417 27.5718 664.615 47.3552 643.819V643.819Z" fill="url(#paint1_linear_1616_53893)"/>
</g>
<g opacity="0.1" clip-path="url(#clip2_1616_53893)">
<path d="M1390.64 872.501L1243.01 867.326L905.728 842.959L747.759 831.557L695.061 827.778C636.371 823.501 577.854 838.174 528.113 869.641C478.372 901.108 440.033 947.708 418.732 1002.59C418.711 1002.74 418.667 1002.88 418.602 1003.02C414.516 1012.57 411.35 1022.49 409.147 1032.64C405.459 1049.02 402.83 1065.63 401.278 1082.35C400.564 1088.95 399.94 1095.95 399.389 1103.39C399.389 1103.39 409.441 1094.68 453.454 1091.59L601.241 1096.76L885.826 1117.35L1096.68 1132.59L1149.38 1136.37C1208.03 1140.59 1266.49 1125.88 1316.18 1094.42C1365.87 1062.95 1404.17 1016.38 1425.46 961.534C1425.46 961.534 1425.54 961.248 1425.59 961.105C1429.67 951.552 1432.84 941.631 1435.04 931.478C1438.73 915.097 1441.36 898.496 1442.91 881.777C1443.62 875.169 1444.25 868.17 1444.8 860.731C1444.7 860.702 1434.65 869.41 1390.64 872.501Z" fill="url(#paint2_linear_1616_53893)"/>
<path d="M1785.35 -127.644C1799.81 -130.657 1813.99 -134.851 1827.77 -140.183C1838.25 -144.187 1848.47 -148.847 1858.37 -154.136C1898.02 -175.228 1931.89 -205.72 1957.02 -242.94C1957.02 -242.94 1957.11 -243.226 1957.17 -243.417C1963.28 -251.806 1968.56 -260.769 1972.93 -270.181C1980.11 -285.247 1986.32 -300.755 1991.52 -316.612C1993.46 -322.951 1995.84 -329.571 1998.02 -336.721C1998.02 -336.721 1971.65 -322.672 1850.35 -359.676L1375.41 -504.549C1364.51 -507.873 1353.58 -510.896 1342.6 -513.618C1304.89 -523.051 1266.41 -529.054 1227.61 -531.553C1209.88 -532.587 1192.19 -532.929 1174.55 -532.579C1155.85 -532.238 1137.24 -530.986 1118.82 -528.997C1111.88 -528.25 1104.96 -527.441 1098.1 -526.46C1018.89 -515.193 942.441 -489.35 872.627 -450.24C764.771 -389.894 676.518 -299.815 618.376 -190.73C560.234 -81.6442 534.654 41.8515 544.681 165.052C554.707 288.252 599.919 405.966 674.932 504.176C749.945 602.387 851.598 676.955 967.787 719.002C1083.98 761.05 1209.8 768.804 1330.29 741.342C1450.78 713.881 1560.84 652.36 1647.38 564.105C1733.92 475.851 1793.29 364.582 1818.41 243.548C1843.54 122.514 1833.36 -3.1854 1789.1 -118.582C1787.93 -121.594 1786.61 -124.603 1785.35 -127.644ZM1284.62 -206.922C1347.78 -187.706 1403.83 -150.182 1445.66 -99.0955C1487.49 -48.009 1513.24 14.3447 1519.63 80.078C1526.03 145.811 1512.8 211.971 1481.61 270.188C1450.41 328.405 1402.66 376.064 1344.4 407.136C1286.13 438.208 1219.96 451.297 1154.27 444.748C1088.57 438.199 1026.3 412.305 975.324 370.343C924.349 328.381 886.964 272.235 867.898 209.007C848.832 145.78 848.941 78.3119 868.212 15.1376C894.036 -69.5216 952.404 -140.468 1030.49 -182.107C1108.57 -223.746 1199.98 -232.672 1284.62 -206.922Z" fill="url(#paint3_linear_1616_53893)"/>
</g>
</g>
<defs>
<linearGradient id="paint0_linear_1616_53893" x1="232.69" y1="1033.85" x2="445.94" y2="810.031" gradientUnits="userSpaceOnUse">
<stop stop-color="#E46125" stop-opacity="0.08"/>
<stop offset="1" stop-color="#A12FA3"/>
</linearGradient>
<linearGradient id="paint1_linear_1616_53893" x1="-21.0328" y1="867.541" x2="267.51" y2="564.697" gradientUnits="userSpaceOnUse">
<stop stop-color="#E46125" stop-opacity="0.08"/>
<stop offset="1" stop-color="#A12FA3"/>
</linearGradient>
<linearGradient id="paint2_linear_1616_53893" x1="466.355" y1="842.943" x2="1377.82" y2="1120.97" gradientUnits="userSpaceOnUse">
<stop stop-color="#E46125" stop-opacity="0.08"/>
<stop offset="1" stop-color="#A12FA3"/>
</linearGradient>
<linearGradient id="paint3_linear_1616_53893" x1="573.72" y1="-85.9991" x2="1807" y2="290.196" gradientUnits="userSpaceOnUse">
<stop stop-color="#E46125" stop-opacity="0.08"/>
<stop offset="1" stop-color="#A12FA3"/>
</linearGradient>
<clipPath id="clip0_1616_53893">
<rect width="1440" height="1024" fill="white"/>
</clipPath>
<clipPath id="clip1_1616_53893">
<rect width="418.296" height="598.185" fill="white" transform="translate(-175 720.846) rotate(-46.3854)"/>
</clipPath>
<clipPath id="clip2_1616_53893">
<rect width="1289.38" height="1843.88" fill="white" transform="translate(764.979 -713) rotate(16.9636)"/>
</clipPath>
</defs>
</svg>
