<svg width="722" height="716" viewBox="0 0 722 716" fill="none" xmlns="http://www.w3.org/2000/svg">
<g opacity="0.1" clip-path="url(#clip0_1718_2558)">
<path d="M550.761 352.156L527.778 394.208L471.632 488.457L445.338 532.601L436.574 547.331C426.793 563.726 422.533 582.828 424.418 601.829C426.304 620.831 434.236 638.728 447.049 652.89C447.089 652.918 447.125 652.952 447.155 652.991C449.33 655.566 451.746 657.927 454.369 660.043C458.582 663.497 463.013 666.675 467.635 669.558C469.447 670.726 471.385 671.926 473.462 673.168C473.462 673.168 472.4 668.986 477.908 655.775L500.914 613.676L548.295 534.157L583.398 475.237L592.162 460.507C601.92 444.115 606.164 425.024 604.271 406.037C602.378 387.051 594.447 369.169 581.643 355.017C581.643 355.017 581.573 354.95 581.538 354.917C579.362 352.342 576.946 349.98 574.323 347.864C570.11 344.411 565.679 341.233 561.057 338.35C559.245 337.181 557.307 335.982 555.23 334.74C555.208 334.763 556.27 338.945 550.761 352.156Z" fill="url(#paint0_linear_1718_2558)"/>
<path d="M318.207 92.1697C319.437 87.5394 320.286 82.8158 320.744 78.0466C321.109 74.4237 321.245 70.7814 321.152 67.1413C320.805 52.5777 316.893 38.3198 309.758 25.6161C309.758 25.6161 309.688 25.5491 309.641 25.5045C308.098 22.5118 306.268 19.6763 304.176 17.0381C300.852 12.7645 297.259 8.70733 293.418 4.8914C291.861 3.40816 290.289 1.75384 288.533 0.0810109C288.533 0.0810109 288.77 9.77035 260.388 39.5588L149.269 156.185C146.72 158.861 144.253 161.591 141.866 164.377C133.644 173.938 126.303 184.224 119.933 195.108C117.052 200.101 114.378 205.18 111.913 210.346C109.291 215.817 106.946 221.395 104.843 227.025C104.048 229.147 103.277 231.27 102.563 233.402C94.3029 258.009 90.6714 283.936 91.8521 309.87C93.6544 349.924 106.93 388.621 130.099 421.353C153.267 454.085 185.353 479.474 222.534 494.494C259.715 509.515 300.425 513.535 339.817 506.077C379.208 498.618 415.622 479.995 444.721 452.425C473.821 424.855 494.38 389.499 503.95 350.568C513.52 311.637 511.699 270.771 498.703 232.836C485.707 194.901 462.083 161.496 430.645 136.599C399.208 111.701 361.28 96.3601 321.38 92.4023C320.337 92.3016 319.272 92.2471 318.207 92.1697ZM222.355 225.819C237.118 210.302 256.153 199.513 277.053 194.817C297.953 190.122 319.779 191.731 339.77 199.441C359.76 207.151 377.017 220.616 389.358 238.132C401.699 255.648 408.569 276.428 409.1 297.844C409.63 319.261 403.797 340.35 392.338 358.446C380.879 376.541 364.309 390.829 344.724 399.503C325.14 408.177 303.42 410.846 282.313 407.174C261.205 403.501 241.659 393.652 226.146 378.871C205.357 359.064 193.28 331.816 192.569 303.117C191.858 274.417 202.572 246.615 222.355 225.819Z" fill="url(#paint1_linear_1718_2558)"/>
</g>
<defs>
<linearGradient id="paint0_linear_1718_2558" x1="407.69" y1="615.851" x2="620.94" y2="392.031" gradientUnits="userSpaceOnUse">
<stop stop-color="#E46125" stop-opacity="0.08"/>
<stop offset="1" stop-color="#A12FA3"/>
</linearGradient>
<linearGradient id="paint1_linear_1718_2558" x1="153.967" y1="449.541" x2="442.51" y2="146.697" gradientUnits="userSpaceOnUse">
<stop stop-color="#E46125" stop-opacity="0.08"/>
<stop offset="1" stop-color="#A12FA3"/>
</linearGradient>
<clipPath id="clip0_1718_2558">
<rect width="418.296" height="598.185" fill="white" transform="translate(0 302.846) rotate(-46.3854)"/>
</clipPath>
</defs>
</svg>
