<svg width="1440" height="1024" viewBox="0 0 1440 1024" fill="none" xmlns="http://www.w3.org/2000/svg">
<g clip-path="url(#clip0_1633_26340)">
<rect width="1440" height="1024" fill="#FFE0D2"/>
<g opacity="0.1" clip-path="url(#clip1_1633_26340)">
<path d="M790.981 258.113L756.054 321.407L670.644 462.999L630.645 529.316L617.313 551.446C602.435 576.075 596.078 605.181 599.177 634.484C602.277 663.787 614.669 691.742 634.532 714.236C634.594 714.281 634.649 714.335 634.695 714.396C638.069 718.477 641.811 722.244 645.87 725.646C652.388 731.194 659.24 736.331 666.381 741.025C669.182 742.924 672.177 744.879 675.386 746.906C675.386 746.906 673.708 740.42 682.046 720.437L717.005 657.074L789.084 537.611L842.482 449.095L855.814 426.965C870.659 402.339 876.99 373.25 873.879 343.969C870.768 314.687 858.378 286.757 838.528 264.28C838.528 264.28 838.42 264.173 838.365 264.12C834.991 260.039 831.249 256.272 827.19 252.87C820.672 247.322 813.821 242.185 806.679 237.491C803.879 235.591 800.883 233.637 797.675 231.609C797.641 231.644 799.319 238.13 790.981 258.113Z" fill="url(#paint0_linear_1633_26340)"/>
<path d="M430.435 -154.685C432.279 -161.729 433.535 -168.938 434.191 -176.24C434.714 -181.785 434.886 -187.373 434.706 -192.972C434.02 -215.368 427.851 -237.5 416.74 -257.428C416.74 -257.428 416.632 -257.534 416.559 -257.606C414.154 -262.292 411.308 -266.754 408.061 -270.928C402.902 -277.685 397.331 -284.124 391.381 -290.208C388.971 -292.576 386.534 -295.208 383.815 -297.879C383.815 -297.879 384.28 -282.978 340.919 -238.836L171.155 -66.0151C167.26 -62.0506 163.492 -57.9966 159.849 -53.853C147.296 -39.6337 136.108 -24.251 126.42 -7.89292C122.039 -0.386828 117.978 7.26406 114.238 15.0597C110.261 23.3148 106.711 31.7512 103.533 40.2804C102.333 43.4963 101.168 46.7126 100.092 49.9477C87.6383 87.2832 82.3207 126.91 84.4078 166.824V166.824C87.5986 228.47 108.43 288.689 144.421 340.309C180.412 391.93 230.047 432.778 287.415 457.989C344.782 483.201 407.466 491.712 468.001 482.512C528.536 473.311 584.372 446.785 628.86 406.093C673.349 365.4 704.614 312.256 718.935 252.989C733.255 193.721 730.026 130.827 709.633 71.7958C689.24 12.7648 652.542 -39.9159 603.909 -79.9733C555.275 -120.031 496.756 -145.777 435.319 -154.146C433.713 -154.36 432.075 -154.505 430.435 -154.685ZM284.339 45.1673C306.893 22.1714 336.071 6.68612 368.181 0.670373C400.291 -5.34537 433.891 -1.62133 464.732 11.3714C495.572 24.3642 522.266 46.0419 541.438 73.6624C560.61 101.283 571.398 133.605 572.437 166.541C573.476 199.477 564.721 231.546 547.277 258.692C529.834 285.838 504.486 306.841 474.442 319.045C444.397 331.249 411.004 334.105 378.487 327.252C345.971 320.399 315.792 304.144 291.767 280.545C259.572 248.919 240.705 206.361 239.312 162.224C237.919 118.088 254.115 75.9839 284.339 45.1673V45.1673Z" fill="url(#paint1_linear_1633_26340)"/>
</g>
</g>
<defs>
<linearGradient id="paint0_linear_1633_26340" x1="573.584" y1="655.069" x2="899.381" y2="323.404" gradientUnits="userSpaceOnUse">
<stop stop-color="#E46125" stop-opacity="0.08"/>
<stop offset="1" stop-color="#A12FA3"/>
</linearGradient>
<linearGradient id="paint1_linear_1633_26340" x1="181.442" y1="384.989" x2="622.27" y2="-63.7777" gradientUnits="userSpaceOnUse">
<stop stop-color="#E46125" stop-opacity="0.08"/>
<stop offset="1" stop-color="#A12FA3"/>
</linearGradient>
<clipPath id="clip0_1633_26340">
<rect width="1440" height="1024" fill="white"/>
</clipPath>
<clipPath id="clip1_1633_26340">
<rect width="629.063" height="940.156" fill="white" transform="translate(-57 150.766) rotate(-45.5112)"/>
</clipPath>
</defs>
</svg>
