<svg width="1772" height="2140" viewBox="0 0 1772 2140" fill="none" xmlns="http://www.w3.org/2000/svg">
<g opacity="0.1" clip-path="url(#clip0_1633_28473)">
<path d="M1163.64 1585.5L1016.01 1580.33L678.728 1555.96L520.759 1544.56L468.061 1540.78C409.371 1536.5 350.854 1551.17 301.113 1582.64C251.372 1614.11 213.033 1660.71 191.732 1715.59C191.711 1715.74 191.667 1715.88 191.602 1716.02C187.516 1725.57 184.35 1735.49 182.147 1745.64C178.459 1762.02 175.83 1778.63 174.278 1795.35C173.564 1801.95 172.94 1808.95 172.389 1816.39C172.389 1816.39 182.441 1807.68 226.454 1804.59L374.241 1809.76L658.826 1830.35L869.683 1845.59L922.38 1849.37C981.032 1853.59 1039.49 1838.88 1089.18 1807.42C1138.87 1775.95 1177.17 1729.38 1198.46 1674.53C1198.46 1674.53 1198.54 1674.25 1198.59 1674.11C1202.67 1664.55 1205.84 1654.63 1208.04 1644.48C1211.73 1628.1 1214.36 1611.5 1215.91 1594.78C1216.62 1588.17 1217.25 1581.17 1217.8 1573.73C1217.7 1573.7 1207.65 1582.41 1163.64 1585.5Z" fill="url(#paint0_linear_1633_28473)"/>
<path d="M1558.35 585.356C1572.81 582.343 1586.99 578.149 1600.77 572.817C1611.25 568.813 1621.47 564.153 1631.37 558.864C1671.02 537.772 1704.89 507.28 1730.02 470.06C1730.02 470.06 1730.11 469.774 1730.17 469.583C1736.28 461.194 1741.56 452.231 1745.93 442.819C1753.11 427.753 1759.32 412.245 1764.52 396.388C1766.46 390.049 1768.84 383.429 1771.02 376.28C1771.02 376.28 1744.65 390.328 1623.35 353.324L1148.41 208.451C1137.51 205.127 1126.58 202.104 1115.6 199.382C1077.89 189.949 1039.41 183.946 1000.61 181.447C982.876 180.413 965.187 180.071 947.546 180.421C928.85 180.762 910.24 182.014 891.822 184.003C884.876 184.75 877.963 185.559 871.102 186.54C791.888 197.807 715.441 223.65 645.627 262.76V262.76C537.771 323.106 449.518 413.185 391.376 522.27C333.234 631.356 307.654 754.852 317.681 878.052C327.707 1001.25 372.919 1118.97 447.932 1217.18C522.944 1315.39 624.598 1389.96 740.787 1432C856.976 1474.05 982.805 1481.8 1103.29 1454.34C1223.78 1426.88 1333.84 1365.36 1420.38 1277.11C1506.92 1188.85 1566.29 1077.58 1591.41 956.548C1616.54 835.514 1606.36 709.815 1562.1 594.418C1560.93 591.406 1559.61 588.397 1558.35 585.356ZM1057.62 506.078C1120.78 525.294 1176.83 562.818 1218.66 613.905C1260.49 664.991 1286.24 727.345 1292.63 793.078C1299.03 858.811 1285.8 924.971 1254.61 983.188C1223.41 1041.41 1175.66 1089.06 1117.4 1120.14C1059.13 1151.21 992.963 1164.3 927.268 1157.75C861.572 1151.2 799.298 1125.31 748.323 1083.34C697.349 1041.38 659.964 985.235 640.898 922.007C621.832 858.78 621.941 791.312 641.211 728.138C667.036 643.478 725.404 572.532 803.487 530.893C881.57 489.254 972.978 480.328 1057.62 506.078V506.078Z" fill="url(#paint1_linear_1633_28473)"/>
</g>
<defs>
<linearGradient id="paint0_linear_1633_28473" x1="239.355" y1="1555.94" x2="1150.82" y2="1833.97" gradientUnits="userSpaceOnUse">
<stop stop-color="#E46125" stop-opacity="0.08"/>
<stop offset="1" stop-color="#A12FA3"/>
</linearGradient>
<linearGradient id="paint1_linear_1633_28473" x1="346.72" y1="627.001" x2="1580" y2="1003.2" gradientUnits="userSpaceOnUse">
<stop stop-color="#E46125" stop-opacity="0.08"/>
<stop offset="1" stop-color="#A12FA3"/>
</linearGradient>
<clipPath id="clip0_1633_28473">
<rect width="1289.38" height="1843.88" fill="white" transform="translate(537.979) rotate(16.9636)"/>
</clipPath>
</defs>
</svg>
