<svg width="570" height="468" viewBox="0 0 570 468" fill="none" xmlns="http://www.w3.org/2000/svg">
<g clip-path="url(#clip0_1829_3187)">
<g opacity="0.06" clip-path="url(#clip1_1829_3187)">
<path d="M173.236 331.128L155.621 347.204L113.96 382.484L94.4486 399.009L87.9425 404.524C80.689 410.659 75.5955 418.961 73.4111 428.208C71.2267 437.456 72.0666 447.161 75.8073 455.898C75.8217 455.918 75.8329 455.939 75.8406 455.962C76.4482 457.526 77.2034 459.028 78.096 460.448C79.5204 462.754 81.092 464.966 82.8012 467.07C83.4651 467.913 84.1835 468.791 84.9601 469.711C84.9601 469.711 85.1361 467.571 89.8644 462.244L107.497 446.15L142.652 416.386L168.698 394.33L175.204 388.815C182.447 382.678 187.531 374.379 189.709 365.137C191.887 355.895 191.046 346.197 187.307 337.467C187.307 337.467 187.285 337.424 187.274 337.403C186.667 335.839 185.911 334.337 185.019 332.917C183.594 330.611 182.023 328.399 180.314 326.295C179.65 325.452 178.931 324.574 178.155 323.654C178.14 323.661 177.964 325.801 173.236 331.128Z" fill="url(#paint0_linear_1829_3187)"/>
<path d="M105.818 171.174C107.146 169.193 108.309 167.107 109.295 164.937C110.053 163.291 110.706 161.599 111.251 159.87C113.442 152.96 113.906 145.617 112.601 138.485C112.601 138.485 112.579 138.442 112.564 138.414C112.322 136.756 111.919 135.125 111.361 133.546C110.487 130.997 109.452 128.507 108.262 126.09C107.769 125.14 107.296 124.107 106.74 123.036C106.74 123.036 105.285 127.634 87.112 137.066L15.9612 173.99C14.329 174.837 12.7262 175.724 11.1527 176.649C5.73709 179.82 0.61933 183.474 -4.13805 187.566C-6.30124 189.45 -8.38056 191.409 -10.376 193.441C-12.4944 195.592 -14.4998 197.838 -16.3999 200.148C-17.1168 201.018 -17.823 201.892 -18.5037 202.781C-26.3694 213.026 -32.2699 224.641 -35.9068 237.038C-41.5339 256.18 -41.5417 276.538 -35.9294 295.689C-30.317 314.839 -19.321 331.975 -4.25055 345.055C10.8199 358.135 29.3296 366.609 49.0746 369.467C68.8196 372.325 88.9678 369.447 107.12 361.176C125.272 352.904 140.664 339.588 151.462 322.813C162.26 306.038 168.009 286.51 168.025 266.556C168.042 246.602 162.324 227.061 151.553 210.261C140.783 193.461 125.413 180.109 107.274 171.796C106.799 171.58 106.307 171.382 105.818 171.174ZM39.1007 218.578C48.5572 213.662 59.2601 211.661 69.8555 212.83C80.4508 213.999 90.4626 218.285 98.6244 225.145C106.786 232.006 112.731 241.133 115.708 251.371C118.684 261.61 118.558 272.501 115.345 282.666C112.133 292.831 105.978 301.813 97.6597 308.477C89.3413 315.141 79.233 319.187 68.6135 320.103C57.994 321.019 47.3404 318.764 38.0003 313.623C28.6602 308.482 21.0532 300.687 16.1416 291.223C9.55969 278.54 8.28074 263.764 12.5859 250.142C16.8911 236.52 26.428 225.167 39.1007 218.578Z" fill="url(#paint1_linear_1829_3187)"/>
</g>
<g opacity="0.1" clip-path="url(#clip2_1829_3187)">
<path d="M676.354 38.1937L649.485 92.9783L583.37 216.025L552.408 273.656L542.088 292.886C530.57 314.291 526.225 338.829 529.693 362.893C533.16 386.957 544.258 409.277 561.353 426.57C561.406 426.603 561.453 426.645 561.493 426.692C564.405 429.845 567.61 432.713 571.067 435.257C576.62 439.413 582.435 443.206 588.476 446.613C590.847 447.997 593.38 449.414 596.092 450.877C596.092 450.877 594.505 445.618 600.769 428.503L627.663 373.658L683.459 269.842L724.794 192.918L735.114 173.689C746.604 152.289 750.928 127.766 747.451 103.721C743.975 79.6756 732.88 57.3757 715.797 40.0952C715.797 40.0952 715.704 40.014 715.657 39.9734C712.745 36.8207 709.539 33.9526 706.083 31.4084C700.53 27.2528 694.715 23.4596 688.674 20.0526C686.303 18.6683 683.769 17.2514 681.058 15.7882C681.031 15.8192 682.617 21.0788 676.354 38.1937Z" fill="url(#paint2_linear_1829_3187)"/>
<path d="M365.911 -279.427C367.215 -285.386 368.029 -291.442 368.343 -297.535C368.603 -302.164 368.572 -306.804 368.249 -311.43C366.988 -329.935 361.209 -347.851 351.419 -363.609C351.419 -363.609 351.326 -363.691 351.264 -363.745C349.133 -367.465 346.645 -370.968 343.835 -374.207C339.366 -379.456 334.568 -384.414 329.468 -389.052C327.404 -390.851 325.311 -392.867 322.983 -394.896C322.983 -394.896 323.829 -382.584 289.403 -343.096L154.621 -188.492C151.529 -184.945 148.544 -181.333 145.665 -177.655C135.744 -165.03 126.985 -151.533 119.495 -137.33C116.111 -130.817 112.996 -124.205 110.151 -117.495C107.124 -110.389 104.455 -103.162 102.096 -95.8821C101.205 -93.1374 100.343 -90.3945 99.5548 -87.6422C90.4326 -55.8758 87.2722 -22.6926 90.2334 10.2294C94.7799 61.0777 113.845 109.554 145.158 149.887C176.47 190.219 218.712 220.707 266.852 237.722C314.993 254.736 367.003 257.559 416.691 245.855C466.378 234.151 511.649 208.413 547.112 171.706C582.576 134.998 606.738 88.8679 616.721 38.8083C626.704 -11.2514 622.087 -63.1313 603.421 -110.654C584.755 -158.176 552.826 -199.339 511.435 -229.24C470.045 -259.141 420.937 -276.521 369.96 -279.31C368.628 -279.379 367.27 -279.389 365.911 -279.427ZM251.506 -104.028C269.412 -124.598 293.018 -139.393 319.339 -146.541C345.66 -153.69 373.513 -152.871 399.375 -144.189C425.238 -135.506 447.947 -119.35 464.63 -97.7639C481.314 -76.1777 491.222 -50.1313 493.102 -22.9194C494.982 4.29245 488.749 31.4472 475.191 55.1098C461.633 78.7724 441.36 97.8799 416.936 110.015C392.512 122.15 365.034 126.768 337.979 123.284C310.923 119.8 285.506 108.372 264.941 90.4435C237.382 66.4182 220.486 32.4381 217.967 -4.02825C215.448 -40.4946 227.512 -76.4631 251.506 -104.028Z" fill="url(#paint3_linear_1829_3187)"/>
</g>
</g>
<defs>
<linearGradient id="paint0_linear_1829_3187" x1="63.2715" y1="432.103" x2="199.818" y2="361.24" gradientUnits="userSpaceOnUse">
<stop stop-color="#E46125" stop-opacity="0.08"/>
<stop offset="1" stop-color="#A12FA3"/>
</linearGradient>
<linearGradient id="paint1_linear_1829_3187" x1="-29.2531" y1="312.814" x2="155.505" y2="216.931" gradientUnits="userSpaceOnUse">
<stop stop-color="#E46125" stop-opacity="0.08"/>
<stop offset="1" stop-color="#A12FA3"/>
</linearGradient>
<linearGradient id="paint2_linear_1829_3187" x1="509.203" y1="381.67" x2="767.866" y2="84.9664" gradientUnits="userSpaceOnUse">
<stop stop-color="#E46125" stop-opacity="0.08"/>
<stop offset="1" stop-color="#A12FA3"/>
</linearGradient>
<linearGradient id="paint3_linear_1829_3187" x1="177.105" y1="184.399" x2="527.095" y2="-217.063" gradientUnits="userSpaceOnUse">
<stop stop-color="#E46125" stop-opacity="0.08"/>
<stop offset="1" stop-color="#A12FA3"/>
</linearGradient>
<clipPath id="clip0_1829_3187">
<rect width="570" height="468" fill="white"/>
</clipPath>
<clipPath id="clip1_1829_3187">
<rect width="208.156" height="297.674" fill="white" transform="translate(-78 218.883) rotate(-27.4277)"/>
</clipPath>
<clipPath id="clip2_1829_3187">
<rect width="532.602" height="761.649" fill="white" transform="translate(-27 6.46289) rotate(-48.9184)"/>
</clipPath>
</defs>
</svg>
