<svg width="375" height="291" viewBox="0 0 375 291" fill="none" xmlns="http://www.w3.org/2000/svg">
<g clip-path="url(#clip0_1968_4075)">
<path d="M348.152 56.9215C347.713 61.2102 349.446 65.2186 349.775 69.4365C349.944 71.3866 349.688 73.3504 349.024 75.1887C348.837 75.8144 348.534 76.3984 348.132 76.9099C348.055 77.0255 347.95 77.119 347.826 77.1814C347.703 77.2439 347.566 77.2732 347.428 77.2666C347.149 77.2043 346.993 76.8816 346.903 76.6325C346.699 76.0663 346.624 75.3331 346.979 74.8179C347.333 74.3027 347.741 74.3084 348.202 74.5999C349.119 75.1661 349.839 76.355 350.158 77.377C350.803 79.435 350.158 81.425 349.172 83.2509C348.208 85.0287 346.993 86.6479 346.099 88.4794C345.403 89.8949 344.827 91.4914 344.813 93.0965C344.813 94.2458 345.054 95.6697 346.087 96.3321C346.344 96.4858 346.63 96.5823 346.926 96.6152C347.222 96.6577 347.347 96.2019 347.051 96.1595C345.571 95.9528 345.263 94.2317 345.294 92.972C345.339 91.1206 346.132 89.3117 347.026 87.7293C348.856 84.4484 352.203 80.7202 350.412 76.6891C350.151 76.1082 349.813 75.5655 349.409 75.0755C349.055 74.581 348.571 74.1974 348.012 73.9687C347.772 73.8904 347.514 73.8916 347.274 73.972C347.034 74.0524 346.826 74.2079 346.68 74.4159C346.495 74.6775 346.369 74.9761 346.308 75.2916C346.247 75.6071 346.254 75.932 346.328 76.2446C346.42 76.8108 346.691 77.5497 347.306 77.7082C347.92 77.8667 348.44 77.3345 348.753 76.8589C349.087 76.3031 349.355 75.7092 349.552 75.0897C349.902 74.1206 350.129 73.1104 350.228 72.0833C350.672 67.5116 348.599 63.2144 348.552 58.6822C348.545 58.0923 348.572 57.5025 348.633 56.9158C348.663 56.6129 348.197 56.6157 348.166 56.9158L348.152 56.9215Z" fill="#3A5769"/>
<path d="M354.572 59.4323C354.997 59.9334 355.438 60.9383 354.407 62.065C353.376 63.1916 351.725 62.4839 351.725 62.4839C351.489 63.0315 351.097 63.4952 350.6 63.8155C350.102 64.1358 349.521 64.2981 348.931 64.2815C348.342 64.2977 347.761 64.1353 347.264 63.815C346.766 63.4948 346.374 63.0313 346.138 62.4839C346.138 62.4839 344.489 63.1945 343.458 62.065C342.428 60.9355 342.869 59.9334 343.291 59.4323C343.975 58.6255 346.551 56.76 346.551 56.76H351.312C351.312 56.76 353.89 58.6227 354.572 59.4323Z" fill="#3FC6FF"/>
<path d="M362.082 41.3802C362.083 42.3913 362.001 43.4007 361.836 44.3979C360.654 51.5882 355.315 57.0148 348.92 57.0148C346.559 57.0054 344.255 56.2689 342.316 54.903C340.778 53.8267 339.465 52.4517 338.455 50.8578C337.681 49.6507 337.067 48.3459 336.628 46.9768C336.227 45.7344 335.964 44.4508 335.843 43.1495V43.1325C335.79 42.5663 335.762 41.9719 335.762 41.3802C335.759 40.0977 335.891 38.8185 336.156 37.5643C336.432 36.2418 336.861 34.9571 337.435 33.737C339.693 28.9671 343.989 25.7456 348.92 25.7456C349.4 25.7453 349.878 25.7765 350.354 25.839C351.673 26.01 352.954 26.4103 354.139 27.0223C355.626 27.8002 356.953 28.8569 358.051 30.1362C358.98 31.2018 359.761 32.3914 360.372 33.6719C360.809 34.5813 361.164 35.5287 361.434 36.5027C361.869 38.091 362.087 39.732 362.082 41.3802Z" fill="#3FC6FF"/>
<path d="M351.315 57.0405H346.529C346.455 57.0405 346.384 57.0107 346.332 56.9576C346.279 56.9045 346.25 56.8325 346.25 56.7574C346.25 56.6824 346.279 56.6104 346.332 56.5573C346.384 56.5042 346.455 56.4744 346.529 56.4744H351.315C351.389 56.4744 351.46 56.5042 351.513 56.5573C351.565 56.6104 351.594 56.6824 351.594 56.7574C351.594 56.8325 351.565 56.9045 351.513 56.9576C351.46 57.0107 351.389 57.0405 351.315 57.0405Z" fill="#3A5769"/>
<path d="M346.231 29.9299C346.189 29.9612 346.135 29.9982 346.102 30.0296C346.236 29.8445 346.301 29.8558 346.231 29.9299Z" fill="#BFECFF"/>
<path d="M354.139 27.0224C353.376 28.119 352.527 29.1526 351.603 30.1136C350.731 31.0273 349.797 31.8785 348.809 32.6614C347.783 33.5022 346.693 34.2595 345.549 34.926C343.604 36.0297 341.5 36.8141 339.313 37.2501C339.151 37.2813 338.986 37.3124 338.821 37.3379C338.45 37.3973 338.075 37.4455 337.704 37.4851C337.187 37.5375 336.667 37.563 336.147 37.5615C336.426 36.2397 336.859 34.9559 337.435 33.7371H337.463H337.653C337.695 33.725 337.738 33.7165 337.782 33.7116L337.994 33.672C338.304 33.6182 338.609 33.5588 338.913 33.488C339.084 33.4484 339.254 33.4087 339.425 33.3634C340.259 33.1458 341.078 32.8706 341.875 32.5397L341.947 32.5114C342.115 32.4321 342.185 32.401 342.204 32.3953L342.174 32.4123L342.453 32.2905C342.668 32.1886 342.88 32.0867 343.09 31.9792C343.506 31.764 343.928 31.5347 344.314 31.2884C344.808 30.9799 345.286 30.643 345.755 30.2977L346.096 30.0372L346.174 29.9806L346.225 29.9381L346.267 29.9098C346.493 29.7287 346.716 29.5418 346.937 29.3437C347.809 28.6021 348.633 27.803 349.401 26.9516C349.728 26.5949 350.052 26.2184 350.354 25.8391C351.673 26.0101 352.954 26.4104 354.139 27.0224Z" fill="#BFECFF"/>
<path d="M360.372 33.6718C359.61 34.8527 358.76 35.9732 357.83 37.0235C356.906 38.0952 355.898 39.0892 354.815 39.9959C352.332 42.0439 349.553 43.6945 346.576 44.8904C344.387 45.7814 342.099 46.3993 339.762 46.7304C339.276 46.8012 338.79 46.8606 338.301 46.9087H338.226C337.695 46.9601 337.161 46.979 336.628 46.9654C336.228 45.7267 335.965 44.4469 335.843 43.1494V43.1324H335.899H335.98C336.434 43.173 336.89 43.1853 337.346 43.1692L337.695 43.1522C337.974 43.1353 338.254 43.1126 338.516 43.0815L338.832 43.0617H338.852C340.125 42.8785 341.386 42.6137 342.626 42.269C343.308 42.0737 343.984 41.8529 344.649 41.6038C344.998 41.4736 345.347 41.3377 345.694 41.1933C345.736 41.1714 345.78 41.1525 345.825 41.1367H345.808H345.825L346.28 40.9301C347.567 40.3356 348.812 39.6537 350.007 38.889C350.566 38.5323 351.125 38.1474 351.642 37.7567L351.72 37.6944L351.815 37.6237C351.932 37.5274 352.047 37.434 352.161 37.3406C352.415 37.1311 352.661 36.916 352.907 36.6951C353.882 35.8115 354.79 34.8558 355.626 33.836C355.734 33.703 355.843 33.5529 355.952 33.4284C355.975 33.3972 356 33.3689 356.025 33.3378C356.033 33.3249 356.043 33.3126 356.053 33.301L356.089 33.2529C356.26 33.0236 356.43 32.7886 356.595 32.5508C356.921 32.0952 357.225 31.6227 357.503 31.1354C357.685 30.807 357.863 30.4815 358.028 30.1475C358.965 31.2082 359.753 32.394 360.372 33.6718Z" fill="#BFECFF"/>
<path d="M361.434 36.5198C361.343 36.9739 361.228 37.4228 361.09 37.8644C361.003 38.1333 360.911 38.3994 360.811 38.6627C360.812 38.6562 360.812 38.6494 360.811 38.6429C360.768 38.722 360.736 38.8068 360.716 38.8948L360.732 38.8609C360.732 38.8863 360.71 38.9146 360.702 38.9401C360.693 38.9656 360.702 38.909 360.702 38.8948C360.649 39.0166 360.593 39.1411 360.537 39.2628C360.262 39.8447 359.957 40.4116 359.623 40.9613C359.285 41.5133 358.916 42.0455 358.534 42.5664L358.416 42.7136L358.137 43.0533C357.916 43.3194 357.69 43.5798 357.458 43.8374C356.627 44.7564 355.727 45.6082 354.765 46.3852L354.756 46.4107L354.729 46.4333L354.703 46.456L354.659 46.4928H354.636L354.312 46.7362C354.055 46.9202 353.798 47.1014 353.536 47.2741C353.046 47.6024 352.551 47.9006 352.052 48.1686C351.633 48.3894 351.208 48.597 350.778 48.7914L350.448 48.9386L350.298 49.0065L350.513 48.9131C350.266 49.0355 350.011 49.1396 349.75 49.2245C348.673 49.6487 347.576 50.0162 346.462 50.3257C345.881 50.488 345.297 50.6314 344.71 50.756C344.447 50.8098 344.182 50.8635 343.919 50.9088C343.756 50.9409 343.591 50.9692 343.425 50.9938L343.146 51.0277H343.193H343.112H343.073C341.953 51.1598 340.823 51.1845 339.698 51.1013L339.435 51.0702H339.48C339.433 51.0702 339.385 51.0702 339.34 51.0532H339.433C339.304 51.0306 339.173 51.0079 339.047 50.9796C338.854 50.9371 338.659 50.889 338.469 50.8352C339.473 52.436 340.78 53.8187 342.316 54.9031H342.394C345.001 54.6644 347.566 54.0771 350.021 53.1565C352.22 52.3554 354.363 51.3618 356.26 49.9662C358.393 48.4113 360.277 46.5333 361.847 44.3979C362.012 43.4007 362.094 42.3914 362.093 41.3803C362.092 39.7373 361.871 38.102 361.434 36.5198ZM360.769 38.7844L360.738 38.8495C360.738 38.8156 360.766 38.7844 360.777 38.7533L360.797 38.7023C360.789 38.7247 360.78 38.7465 360.769 38.7674V38.7844Z" fill="#BFECFF"/>
<path d="M338.148 44.3725C337.969 44.3724 337.796 44.3072 337.661 44.1887C337.526 44.0702 337.437 43.9064 337.411 43.7271C337.298 42.9501 337.241 42.1657 337.24 41.3803C337.24 36.132 339.721 31.4159 343.711 29.0748C343.796 29.025 343.889 28.9926 343.987 28.9795C344.084 28.9664 344.183 28.9729 344.278 28.9985C344.372 29.0241 344.461 29.0684 344.539 29.1289C344.617 29.1893 344.683 29.2647 344.732 29.3508C344.781 29.4368 344.813 29.5319 344.826 29.6304C344.839 29.729 344.832 29.8292 344.807 29.9253C344.782 30.0213 344.738 30.1114 344.678 30.1904C344.619 30.2693 344.544 30.3356 344.459 30.3854C340.931 32.4576 338.738 36.6699 338.738 41.3803C338.737 42.0917 338.788 42.8022 338.889 43.5063C338.916 43.7033 338.865 43.9031 338.747 44.0622C338.629 44.2213 338.454 44.3268 338.26 44.3555C338.223 44.364 338.186 44.3697 338.148 44.3725Z" fill="white"/>
<path d="M339.903 49.4764C339.772 49.4766 339.643 49.4423 339.53 49.3768C339.416 49.3112 339.321 49.2168 339.255 49.1027C338.771 48.2611 338.371 47.3725 338.062 46.4503C337.998 46.2603 338.011 46.0523 338.098 45.8721C338.185 45.6919 338.339 45.5541 338.527 45.4892C338.714 45.4242 338.92 45.4374 339.097 45.5258C339.275 45.6142 339.411 45.7706 339.475 45.9605C339.754 46.7861 340.112 47.5817 340.545 48.3356C340.595 48.4223 340.627 48.518 340.639 48.6173C340.652 48.7166 340.645 48.8174 340.619 48.914C340.593 49.0105 340.549 49.1009 340.488 49.18C340.427 49.259 340.352 49.3251 340.266 49.3745C340.156 49.44 340.031 49.4751 339.903 49.4764Z" fill="white"/>
</g>
<g clip-path="url(#clip1_1968_4075)">
<path d="M48.6357 83.3396L37.3437 119.295L13.9514 89.7846L48.6357 83.3396Z" fill="#FF4E4F"/>
<path d="M33.0965 96.3109C30.3957 93.1785 26.4179 96.0423 27.8118 98.7938C29.2057 101.545 34.5128 103.844 34.5128 103.844C34.5128 103.844 38.6303 99.8034 38.9481 96.7334C39.2659 93.6635 34.4956 92.4167 33.0965 96.3109Z" fill="white"/>
<path d="M94.0127 70.0183L87.3167 107.105L60.4105 80.7756L94.0127 70.0183Z" fill="#FFBC38"/>
<path d="M80.2107 84.8363C77.1132 82.0693 73.5529 85.4157 75.2798 87.9708C77.0068 90.5259 82.5365 92.1335 82.5365 92.1335C82.5365 92.1335 86.1121 87.6083 86.0405 84.5243C85.9689 81.4402 81.1263 80.8043 80.2107 84.8363Z" fill="white"/>
<path d="M139.34 49.6708L137.332 87.3086L107.349 64.5598L139.34 49.6708Z" fill="#3FC6FF"/>
<path d="M127.509 66.1055C124.118 63.7491 120.976 67.5157 123.007 69.8315C125.037 72.1473 130.729 73.0518 130.729 73.0518C130.729 73.0518 133.715 68.116 133.26 65.064C132.805 62.012 127.901 61.9936 127.509 66.1055Z" fill="white"/>
<path d="M179.069 24.8644L182.414 62.4049L149.506 44.15L179.069 24.8644Z" fill="#FF4E4F"/>
<path d="M169.684 42.8149C165.994 40.9651 163.414 45.1392 165.756 47.1427C168.099 49.1463 173.857 49.235 173.857 49.235C173.857 49.235 176.107 43.924 175.223 40.967C174.339 38.01 169.489 38.6844 169.684 42.8149Z" fill="white"/>
<path d="M214.902 -5.25908L223.647 31.3891L188.439 18.1163L214.902 -5.25908Z" fill="#FFBC38"/>
<path d="M208.217 13.8597C204.296 12.5693 202.349 17.0678 204.957 18.7144C207.565 20.361 213.271 19.6212 213.271 19.6212C213.271 19.6212 214.73 14.0365 213.426 11.2436C212.121 8.45084 207.425 9.80028 208.217 13.8597Z" fill="white"/>
<path d="M0.75668 91.2913C0.75668 91.2913 130.468 84.216 221.11 -11.8413" stroke="#3A5769" stroke-width="2.03497" stroke-linecap="round" stroke-linejoin="round"/>
</g>
<g clip-path="url(#clip2_1968_4075)">
<path d="M336.262 87.3894L347.554 123.345L370.946 93.8344L336.262 87.3894Z" fill="#FF4E4F"/>
<path d="M351.801 100.361C354.502 97.2283 358.48 100.092 357.086 102.844C355.692 105.595 350.385 107.894 350.385 107.894C350.385 107.894 346.267 103.853 345.949 100.783C345.632 97.7133 350.402 96.4665 351.801 100.361Z" fill="white"/>
<path d="M290.885 74.0681L297.581 111.155L324.487 84.8254L290.885 74.0681Z" fill="#FFBC38"/>
<path d="M304.688 88.8861C307.785 86.1191 311.346 89.4655 309.619 92.0206C307.892 94.5757 302.362 96.1833 302.362 96.1833C302.362 96.1833 298.786 91.6581 298.858 88.5741C298.93 85.49 303.772 84.8541 304.688 88.8861Z" fill="white"/>
<path d="M245.557 53.7206L247.566 91.3584L277.548 68.6096L245.557 53.7206Z" fill="#3FC6FF"/>
<path d="M257.388 70.1553C260.78 67.7989 263.921 71.5655 261.891 73.8813C259.86 76.1971 254.169 77.1016 254.169 77.1016C254.169 77.1016 251.183 72.1658 251.638 69.1138C252.092 66.0618 256.996 66.0434 257.388 70.1553Z" fill="white"/>
<path d="M205.828 28.9142L202.483 66.4547L235.392 48.1998L205.828 28.9142Z" fill="#FF4E4F"/>
<path d="M215.214 46.8644C218.904 45.0147 221.484 49.1887 219.142 51.1923C216.8 53.1959 211.042 53.2846 211.042 53.2846C211.042 53.2846 208.791 47.9735 209.676 45.0165C210.56 42.0596 215.409 42.7339 215.214 46.8644Z" fill="white"/>
<path d="M169.995 -1.20928L161.25 35.4389L196.458 22.1661L169.995 -1.20928Z" fill="#FFBC38"/>
<path d="M176.68 17.9095C180.602 16.6191 182.548 21.1176 179.941 22.7642C177.333 24.4108 171.626 23.671 171.626 23.671C171.626 23.671 170.167 18.0863 171.472 15.2935C172.776 12.5006 177.473 13.8501 176.68 17.9095Z" fill="white"/>
<path d="M384.141 95.3412C384.141 95.3412 254.429 88.2658 163.787 -7.79147" stroke="#3A5769" stroke-width="2.03497" stroke-linecap="round" stroke-linejoin="round"/>
</g>
<g clip-path="url(#clip3_1968_4075)">
<path d="M246.59 111.848C248.383 112.587 250.476 112.424 252.311 112.001C254.293 111.538 256.183 110.742 257.897 109.645C258.655 109.184 259.359 108.64 259.995 108.022C260.42 107.555 260.803 107.052 261.139 106.517C261.947 105.324 262.748 103.944 262.969 102.5C263.151 101.699 263.014 100.859 262.588 100.156C262.322 99.7911 261.977 99.4913 261.578 99.28C261.178 99.0686 260.736 98.9513 260.285 98.9369C258.492 98.8455 257.161 100.461 256.319 101.848C254.53 104.771 253.459 108.529 254.793 111.844C255.425 113.517 256.605 114.926 258.141 115.842C259.808 116.76 261.74 117.08 263.614 116.749C265.059 116.542 266.416 115.929 267.526 114.981C268.58 114.071 269.518 113.037 270.322 111.902C271.847 109.825 273.563 106.688 272.301 104.104C271.66 102.801 270.249 102.119 268.869 101.909C268.117 101.746 267.332 101.854 266.653 102.214C266.34 102.412 266.079 102.683 265.894 103.004C265.709 103.324 265.604 103.685 265.589 104.055C265.498 105.354 266.31 106.643 267.198 107.519C268.387 108.704 269.986 109.386 271.664 109.424C273.571 109.447 275.516 108.521 277.026 107.401C278.696 106.162 280.157 104.554 280.809 102.542C281.107 101.581 281.167 100.563 280.984 99.5733C280.874 98.8912 280.035 98.5101 279.421 98.6778C279.098 98.7745 278.826 98.9917 278.66 99.2841C278.493 99.5765 278.446 99.9217 278.528 100.248C278.593 100.629 278.528 100.103 278.528 100.336C278.528 100.438 278.528 100.537 278.528 100.64C278.528 100.8 278.528 100.964 278.528 101.124C278.528 100.884 278.528 101.143 278.528 101.208C278.528 101.273 278.49 101.406 278.463 101.505C278.414 101.704 278.345 101.887 278.28 102.096C278.216 102.306 278.246 102.191 278.28 102.138C278.231 102.252 278.174 102.367 278.116 102.481C278.059 102.595 277.952 102.782 277.865 102.927C277.777 103.072 277.628 103.308 277.483 103.472C277.39 103.604 277.29 103.732 277.182 103.853C276.656 104.451 276.056 104.981 275.397 105.431C275.067 105.658 274.724 105.868 274.372 106.059C274.059 106.233 273.734 106.385 273.399 106.513C273.064 106.638 272.72 106.739 272.37 106.814L272.145 106.856C272.392 106.818 272.202 106.856 272.145 106.856C271.942 106.856 271.763 106.879 271.542 106.856C271.458 106.856 270.989 106.795 271.302 106.856C271.149 106.829 271 106.803 270.848 106.764C270.695 106.726 270.577 106.688 270.44 106.643L270.253 106.57C270.543 106.681 270.253 106.57 270.196 106.543C269.932 106.405 269.677 106.25 269.433 106.079C269.368 106.033 269.208 105.888 269.433 106.079L269.292 105.964C269.181 105.861 269.067 105.762 268.964 105.655C268.861 105.549 268.77 105.438 268.67 105.332C268.571 105.225 268.548 105.141 268.712 105.393L268.617 105.259C268.472 105.042 268.369 104.802 268.236 104.588C268.419 104.874 268.27 104.672 268.236 104.531C268.201 104.39 268.19 104.341 268.163 104.245C268.095 104.028 268.163 104.516 268.163 104.371C268.167 104.323 268.167 104.275 268.163 104.226C268.167 104.19 268.167 104.153 268.163 104.116C268.137 103.922 268.106 104.428 268.163 104.242C268.232 103.963 268.003 104.493 268.133 104.287C268.262 104.082 267.889 104.524 268.098 104.329C268.179 104.257 267.797 104.497 268.072 104.364C267.607 104.588 268.072 104.314 268.137 104.364C268.201 104.413 267.755 104.364 267.999 104.386C268.049 104.386 268.102 104.386 268.148 104.386C268.194 104.386 268.667 104.447 268.335 104.386C268.663 104.447 268.968 104.539 269.288 104.63C269.365 104.63 269.494 104.737 269.227 104.596L269.38 104.668L269.723 104.867C269.986 105.027 269.643 104.76 269.757 104.893C269.795 104.939 270.101 105.244 269.944 105.069C269.788 104.893 270.005 105.16 270.039 105.217C270.058 105.258 270.078 105.297 270.101 105.335C270.234 105.53 270.036 105.099 270.07 105.248C270.104 105.396 270.135 105.438 270.162 105.537C270.162 105.579 270.162 105.625 270.192 105.671C270.264 105.964 270.192 105.617 270.192 105.606C270.272 105.648 270.192 106.216 270.192 106.303C270.192 106.391 270.192 106.429 270.192 106.494C270.192 106.467 270.253 106.174 270.192 106.387C270.165 106.517 270.146 106.65 270.112 106.768C270.054 107.016 269.983 107.26 269.898 107.5C269.849 107.641 269.792 107.778 269.742 107.915C269.715 107.984 269.635 108.125 269.765 107.862C269.723 107.946 269.689 108.033 269.651 108.117C269.389 108.666 269.093 109.198 268.766 109.71C268.606 109.958 268.438 110.202 268.266 110.442C268.182 110.564 268.091 110.682 268.003 110.8C267.961 110.857 267.816 111.036 268.003 110.8L267.82 111.029C267.439 111.475 267.057 111.909 266.676 112.321C266.482 112.515 266.295 112.702 266.081 112.885L265.833 113.098L265.685 113.224C265.65 113.254 265.425 113.426 265.604 113.289L265.44 113.407L265.189 113.574C265.025 113.674 264.853 113.754 264.685 113.849C264.518 113.944 265.036 113.731 264.777 113.807C264.663 113.837 264.552 113.883 264.438 113.921C264.239 113.986 264.056 114.043 263.835 114.093C263.614 114.142 263.454 114.184 263.244 114.222L262.988 114.264C263.221 114.23 262.866 114.264 262.817 114.264C262.45 114.293 262.081 114.293 261.715 114.264L261.421 114.241C261.196 114.241 261.719 114.299 261.356 114.241C261.169 114.207 260.975 114.173 260.796 114.127C260.616 114.081 260.471 114.036 260.315 113.982C260.239 113.959 259.808 113.78 260.052 113.891C259.723 113.743 259.407 113.569 259.106 113.369L258.931 113.243C258.649 113.049 259.053 113.35 258.893 113.212C258.733 113.075 258.649 113.007 258.53 112.896C258.412 112.786 258.302 112.668 258.195 112.546C258.088 112.424 258.08 112.412 258.019 112.344C257.844 112.142 258.119 112.504 257.955 112.26C257.769 111.99 257.598 111.71 257.444 111.421C257.375 111.292 257.31 111.158 257.253 111.04C257.352 111.273 257.253 111.04 257.234 110.983C257.215 110.926 257.158 110.77 257.123 110.663C257.016 110.314 256.93 109.959 256.864 109.6C256.864 109.554 256.826 109.348 256.864 109.6L256.841 109.363C256.818 109.142 256.807 108.919 256.807 108.697C256.8 108.315 256.819 107.933 256.864 107.553C256.894 107.313 256.807 107.851 256.883 107.443L256.929 107.184C256.971 106.963 257.024 106.745 257.081 106.528C257.158 106.239 257.249 105.953 257.352 105.671C257.398 105.541 257.447 105.415 257.497 105.29C257.547 105.164 257.707 104.79 257.585 105.069C257.859 104.429 258.173 103.808 258.527 103.209C258.697 102.919 258.884 102.637 259.087 102.363C258.935 102.572 259.213 102.218 259.263 102.161C259.382 102.02 259.509 101.887 259.644 101.761L259.762 101.658C259.541 101.841 259.705 101.7 259.762 101.658C259.819 101.616 260.208 101.467 259.888 101.559C259.953 101.559 260.338 101.441 260.124 101.475C259.911 101.509 260.197 101.475 260.205 101.475H260.288C260.09 101.441 260.06 101.441 260.205 101.475C260.349 101.509 260.586 101.624 260.33 101.475C260.384 101.515 260.443 101.547 260.506 101.57C260.651 101.597 260.285 101.368 260.456 101.528C260.685 101.746 260.349 101.406 260.479 101.528C260.513 101.566 260.578 101.772 260.506 101.563C260.433 101.353 260.506 101.605 260.506 101.65C260.552 101.928 260.529 101.368 260.506 101.723C260.506 101.784 260.475 102.172 260.506 101.963C260.536 101.753 260.464 102.149 260.445 102.222C260.403 102.39 260.353 102.557 260.296 102.721C260.239 102.885 260.197 102.996 260.14 103.133C260.258 102.847 260.071 103.27 260.041 103.338C259.896 103.636 259.743 103.922 259.579 104.204C259.286 104.729 258.966 105.237 258.618 105.728C258.565 105.796 258.279 106.162 258.546 105.827C258.496 105.892 258.443 105.96 258.389 106.021C258.185 106.249 257.961 106.457 257.718 106.643L257.543 106.787C257.264 107.024 257.661 106.703 257.482 106.841L257.039 107.157C256.689 107.405 256.33 107.633 255.949 107.843C255.567 108.053 255.247 108.224 254.885 108.407C254.532 108.582 254.171 108.738 253.802 108.876C253.013 109.183 252.201 109.426 251.373 109.6C251.174 109.642 250.991 109.676 250.781 109.71C250.518 109.756 250.667 109.729 250.728 109.71L250.404 109.745C249.983 109.787 249.56 109.801 249.138 109.786C248.955 109.786 248.776 109.764 248.593 109.748C248.337 109.726 248.524 109.748 248.593 109.748L248.299 109.691C247.946 109.619 247.601 109.512 247.269 109.371C246.632 109.123 245.866 109.691 245.702 110.278C245.5 111.014 245.954 111.597 246.59 111.848Z" fill="#FFE0D2"/>
</g>
<g clip-path="url(#clip4_1968_4075)">
<path d="M86.077 33.444C81.0683 31.5782 79.5429 25.5301 79.5258 25.4665C79.4749 25.2573 79.3565 25.0714 79.1894 24.9384C79.0223 24.8054 78.8161 24.7331 78.6037 24.7329C78.3909 24.7338 78.1844 24.8063 78.0165 24.9391C77.8486 25.0718 77.7289 25.2573 77.676 25.4665C77.676 25.5301 76.1335 31.5782 71.1304 33.444C70.9469 33.5115 70.7882 33.6348 70.6761 33.7971C70.564 33.9594 70.5039 34.1527 70.5039 34.3509C70.5039 34.5491 70.564 34.7425 70.6761 34.9047C70.7882 35.067 70.9469 35.1903 71.1304 35.2578C76.1335 37.1237 77.6646 43.1718 77.676 43.218C77.7278 43.4283 77.8471 43.6151 78.0151 43.749C78.1831 43.8828 78.3902 43.9562 78.6037 43.9574C78.8169 43.9569 79.0236 43.8837 79.1908 43.7496C79.3581 43.6155 79.476 43.4283 79.5258 43.218C79.5258 43.1602 81.0683 37.1121 86.077 35.2463C86.2606 35.1787 86.4192 35.0555 86.5313 34.8932C86.6434 34.7309 86.7036 34.5375 86.7036 34.3394C86.7036 34.1412 86.6434 33.9478 86.5313 33.7856C86.4192 33.6233 86.2606 33.5 86.077 33.4324V33.444Z" fill="#FFE0D2"/>
</g>
<g clip-path="url(#clip5_1968_4075)">
<path d="M103.68 52.2404C101.801 51.5529 101.229 49.3247 101.223 49.3013C101.204 49.2242 101.16 49.1557 101.097 49.1067C101.034 49.0577 100.957 49.0311 100.877 49.031C100.797 49.0313 100.72 49.058 100.657 49.107C100.594 49.1559 100.549 49.2242 100.529 49.3013C100.529 49.3247 99.9509 51.5529 98.0748 52.2404C98.006 52.2652 97.9465 52.3107 97.9044 52.3704C97.8624 52.4302 97.8398 52.5015 97.8398 52.5745C97.8398 52.6475 97.8624 52.7187 97.9044 52.7785C97.9465 52.8383 98.006 52.8837 98.0748 52.9086C99.9509 53.596 100.525 55.8243 100.529 55.8413C100.549 55.9188 100.594 55.9876 100.657 56.0369C100.72 56.0862 100.797 56.1133 100.877 56.1137C100.957 56.1135 101.035 56.0866 101.097 56.0372C101.16 55.9878 101.204 55.9188 101.223 55.8413C101.223 55.82 101.801 53.5918 103.68 52.9044C103.749 52.8795 103.808 52.834 103.85 52.7743C103.892 52.7145 103.915 52.6432 103.915 52.5702C103.915 52.4972 103.892 52.426 103.85 52.3662C103.808 52.3064 103.749 52.261 103.68 52.2361V52.2404Z" fill="#FFE0D2"/>
</g>
<g clip-path="url(#clip6_1968_4075)">
<path d="M315.275 67.4266C313.397 66.7392 312.825 64.511 312.819 64.4876C312.8 64.4105 312.755 64.342 312.693 64.293C312.63 64.244 312.553 64.2174 312.473 64.2173C312.393 64.2176 312.316 64.2443 312.253 64.2932C312.19 64.3421 312.145 64.4105 312.125 64.4876C312.125 64.511 311.547 66.7392 309.671 67.4266C309.602 67.4515 309.542 67.4969 309.5 67.5567C309.458 67.6165 309.436 67.6877 309.436 67.7608C309.436 67.8338 309.458 67.905 309.5 67.9648C309.542 68.0246 309.602 68.07 309.671 68.0949C311.547 68.7823 312.121 71.0105 312.125 71.0276C312.145 71.105 312.189 71.1739 312.252 71.2232C312.315 71.2725 312.393 71.2995 312.473 71.3C312.553 71.2998 312.63 71.2728 312.693 71.2234C312.756 71.174 312.8 71.1051 312.819 71.0276C312.819 71.0063 313.397 68.7781 315.275 68.0906C315.344 68.0658 315.404 68.0203 315.446 67.9605C315.488 67.9008 315.51 67.8295 315.51 67.7565C315.51 67.6835 315.488 67.6123 315.446 67.5525C315.404 67.4927 315.344 67.4473 315.275 67.4224V67.4266Z" fill="#FFE0D2"/>
</g>
<g clip-path="url(#clip7_1968_4075)">
<path d="M285.915 228.402C284.037 227.714 283.465 225.486 283.458 225.463C283.439 225.386 283.395 225.317 283.332 225.268C283.27 225.219 283.192 225.192 283.113 225.192C283.033 225.193 282.955 225.219 282.892 225.268C282.829 225.317 282.785 225.386 282.765 225.463C282.765 225.486 282.186 227.714 280.31 228.402C280.241 228.427 280.182 228.472 280.14 228.532C280.098 228.592 280.075 228.663 280.075 228.736C280.075 228.809 280.098 228.88 280.14 228.94C280.182 229 280.241 229.045 280.31 229.07C282.186 229.757 282.76 231.986 282.765 232.003C282.784 232.08 282.829 232.149 282.892 232.198C282.955 232.248 283.033 232.275 283.113 232.275C283.193 232.275 283.27 232.248 283.333 232.199C283.396 232.149 283.44 232.08 283.458 232.003C283.458 231.981 284.037 229.753 285.915 229.066C285.984 229.041 286.043 228.995 286.085 228.936C286.128 228.876 286.15 228.805 286.15 228.732C286.15 228.659 286.128 228.587 286.085 228.528C286.043 228.468 285.984 228.422 285.915 228.397V228.402Z" fill="#FFE0D2"/>
</g>
<g clip-path="url(#clip8_1968_4075)">
<path d="M193.445 128.341C193.445 128.341 199.994 128.356 201.554 122.295C203.172 115.994 198.787 112.535 200.275 107.752C200.275 107.752 191.728 111.878 190.391 118.633C189.054 125.388 193.445 128.341 193.445 128.341Z" fill="#FF4E4F"/>
<path d="M191.936 134.209L194.375 124.705" stroke="#540E00" stroke-width="1.45789" stroke-miterlimit="10"/>
<path d="M188.635 131.589L179.833 165.891C179.627 166.694 180.11 167.513 180.911 167.72L185.465 168.895C186.266 169.102 187.083 168.618 187.289 167.814L196.091 133.513C196.298 132.709 195.815 131.89 195.014 131.684L190.46 130.508C189.658 130.302 188.841 130.785 188.635 131.589Z" fill="#3FC6FF"/>
<path d="M178.614 186.132L154.935 180.024L153.057 215.448L169.973 219.814L186.89 224.18L202.298 192.241L178.614 186.132Z" fill="#BFECFF"/>
<path d="M160.183 217.289L163.423 182.215" stroke="#3FC6FF" stroke-width="5.83155" stroke-miterlimit="10"/>
<path d="M179.759 222.339L193.804 190.05" stroke="#3FC6FF" stroke-width="5.83155" stroke-miterlimit="10"/>
<path d="M169.973 219.814L178.613 186.132" stroke="#3FC6FF" stroke-width="5.83155" stroke-miterlimit="10"/>
<path d="M211.251 183.957C211.948 174.708 204.104 162.607 185.86 157.901C167.617 153.196 154.919 159.988 151.08 168.433C147.241 176.878 151.226 182.423 155.824 182.064C155.959 183.315 156.437 184.505 157.206 185.5C157.975 186.496 159.004 187.258 160.178 187.702C164.283 189.267 168.626 186.398 168.626 186.398C168.626 186.398 170.676 190.462 177.08 192.11C183.483 193.759 187.234 191.213 187.234 191.213C187.234 191.213 189.653 195.845 193.996 196.429C195.238 196.605 196.503 196.434 197.653 195.934C198.803 195.434 199.794 194.625 200.514 193.597C204.39 196.142 210.554 193.211 211.251 183.957Z" fill="#FFBC38"/>
<path d="M185.86 157.901C169.302 153.655 157.337 158.835 152.364 166.174C153.758 169.122 156.209 169.388 159.085 169.883C163.049 170.514 162.482 173.728 164.641 176.352C166.982 179.283 169.224 179.085 172.527 178.256C174.858 177.697 176.985 176.951 178.998 178.636C181.225 180.504 182.572 182.809 185.761 182.841C189.366 182.841 190.568 179.685 193.564 179.038C196.56 178.391 197.663 181.646 199.926 182.877C202.969 184.567 205.273 183.613 207.802 181.808C208.828 181.143 209.913 180.574 211.042 180.107C209.638 171.579 201.643 162.001 185.86 157.901Z" fill="#FF4E4F"/>
<path d="M174.504 158.872C167.903 158.914 163.335 161.85 164.1 164.777C164.865 167.703 173.464 168.339 181.548 167.865C189.631 167.39 188.32 158.767 174.504 158.872Z" fill="#FFA9AB"/>
<path d="M157.015 159.393C158.003 160.671 159.018 161.923 160.089 163.128C161.296 164.485 163.262 162.476 162.066 161.125C161.156 160.082 160.271 159.039 159.434 157.964C159.239 157.65 158.93 157.423 158.573 157.331C158.215 157.239 157.836 157.288 157.514 157.469C156.916 157.818 156.547 158.788 156.994 159.393H157.015Z" fill="white"/>
<path d="M170.936 163.186C171.737 162.99 172.548 162.839 173.365 162.732C173.859 162.659 174.353 162.596 174.848 162.549C175.014 162.549 175.181 162.518 175.368 162.513C175.774 162.513 175.95 162.675 175.201 162.362C175.527 162.54 175.908 162.585 176.266 162.488C176.624 162.391 176.93 162.159 177.121 161.84C177.212 161.678 177.271 161.5 177.294 161.316C177.316 161.132 177.302 160.945 177.252 160.766C177.203 160.587 177.118 160.42 177.003 160.274C176.889 160.128 176.747 160.006 176.585 159.915C175.623 159.513 174.551 159.738 173.547 159.879C172.411 160.009 171.284 160.208 170.171 160.473C168.418 160.932 169.188 163.64 170.941 163.181L170.936 163.186Z" fill="white"/>
<path d="M166.358 168.652C167.021 169.848 167.573 171.101 168.007 172.398C168.605 174.103 171.31 173.347 170.707 171.631C170.2 170.104 169.556 168.627 168.782 167.218C167.877 165.653 165.458 167.077 166.363 168.652H166.358Z" fill="white"/>
<path d="M176.809 173.081C179.059 173.048 181.281 172.571 183.348 171.678C184.987 170.906 183.546 168.485 181.923 169.257C180.388 169.983 178.437 170.196 176.762 170.264C174.957 170.332 174.999 173.149 176.809 173.081Z" fill="white"/>
<path d="M181.913 157.359C182.433 158.851 182.277 160.489 182.371 162.054C182.48 163.853 185.289 163.822 185.18 162.001C185.07 160.181 185.18 158.35 184.613 156.603C184.046 154.855 181.325 155.648 181.913 157.375V157.359Z" fill="white"/>
<path d="M187.92 176.446C189.018 175.089 189.787 173.451 190.994 172.189C192.201 170.927 190.256 168.903 188.997 170.207C187.738 171.511 187.03 173.102 185.928 174.463C184.825 175.825 186.781 177.854 187.92 176.446Z" fill="white"/>
<path d="M195.832 169.946C197.013 171.693 197.658 173.655 198.402 175.611C199.042 177.291 201.752 176.539 201.107 174.839C200.28 172.669 199.546 170.452 198.251 168.512C197.242 167.014 194.818 168.438 195.832 169.946Z" fill="white"/>
<path d="M191.816 166.023C192.558 165.585 193.311 165.166 194.074 164.766C194.49 164.542 194.911 164.323 195.338 164.119L195.567 164.015C195.416 164.078 195.405 164.083 195.567 164.015C195.879 163.89 195.712 164.015 195.567 163.978L194.849 163.791C195.173 163.97 195.554 164.016 195.911 163.919C196.269 163.821 196.574 163.588 196.763 163.269C196.948 162.945 196.996 162.561 196.899 162.201C196.801 161.842 196.565 161.535 196.243 161.349C195.203 160.87 194.162 161.532 193.247 162.007C192.331 162.481 191.332 163.05 190.401 163.572C188.841 164.495 190.266 166.92 191.826 165.997L191.816 166.023Z" fill="white"/>
<path d="M206.294 169.503C205.788 171.719 205.485 173.976 205.389 176.247C205.389 178.063 208.187 178.016 208.198 176.195C208.285 174.178 208.559 172.173 209.014 170.207C209.363 168.433 206.642 167.724 206.294 169.503Z" fill="white"/>
</g>
<g clip-path="url(#clip9_1968_4075)">
<path d="M62.4326 121.038C62.254 122.102 61.9742 123.147 61.597 124.157C61.5601 124.25 61.5278 124.339 61.4909 124.427C61.3247 124.856 61.5647 124.269 61.4539 124.516C61.3432 124.763 61.2785 124.903 61.1862 125.089C60.9683 125.539 60.7264 125.976 60.4615 126.399C60.2307 126.768 59.9999 127.131 59.7229 127.476C59.926 127.206 59.589 127.635 59.5244 127.709C59.3813 127.886 59.229 128.059 59.0628 128.227C58.7858 128.525 58.4996 128.814 58.1996 129.089C58.0519 129.224 57.9042 129.36 57.738 129.49L57.5533 129.639L57.3733 129.789C57.5164 129.677 57.5441 129.658 57.4518 129.723C56.8454 130.193 56.2067 130.618 55.5407 130.996C55.2315 131.173 54.9129 131.336 54.5898 131.49L54.1605 131.686C54.0682 131.728 53.8282 131.817 54.2021 131.686L53.9205 131.803C53.3174 132.04 52.7008 132.241 52.074 132.404C51.8109 132.469 51.5478 132.53 51.2801 132.586C51.1462 132.586 51.017 132.637 50.8831 132.656L50.6523 132.693C50.3845 132.74 51.0493 132.656 50.7631 132.693C50.3321 132.737 49.8991 132.757 49.4659 132.754H49.1982C48.8197 132.754 49.4613 132.824 49.3228 132.777C49.1936 132.725 49.0588 132.689 48.9212 132.67C48.7966 132.67 49.3829 132.796 49.129 132.754C48.9905 132.73 49.1982 132.842 49.0413 132.684C48.8843 132.525 48.7228 132.371 48.5797 132.217C48.7828 132.455 48.5797 132.245 48.5797 132.171L48.3673 131.798C48.2288 131.565 48.3673 131.798 48.3673 131.849C48.3304 131.742 48.2888 131.635 48.2611 131.527C48.2334 131.42 48.2334 131.378 48.2104 131.313C48.1088 131.001 48.1827 131.537 48.2104 131.36C48.2221 131.275 48.2221 131.188 48.2104 131.103C48.1734 130.791 48.1319 131.346 48.2104 131.173C48.2358 131.099 48.2544 131.022 48.2658 130.945C48.3073 130.632 48.1273 131.257 48.2658 130.973C48.2658 130.935 48.4504 130.684 48.2935 130.907C48.1365 131.131 48.2935 130.907 48.3488 130.861C48.6074 130.679 48.1134 131.038 48.2888 130.912C48.4643 130.786 48.5658 130.828 48.2196 130.912C48.28 130.884 48.3436 130.864 48.4089 130.852C48.7735 130.852 48.0396 130.852 48.4089 130.852C48.4873 130.856 48.5659 130.856 48.6443 130.852C48.8151 130.852 48.8058 130.852 48.612 130.852L48.8151 130.889C49.2324 130.975 49.632 131.133 49.9968 131.355C50.2184 131.481 50.4261 131.621 50.6384 131.761C51.017 132.012 50.5184 131.653 50.7215 131.821C50.8415 131.919 50.9569 132.026 51.0677 132.134C51.2197 132.279 51.3616 132.435 51.4924 132.6C51.2755 132.325 51.5617 132.73 51.617 132.828C51.6724 132.926 51.8617 133.374 51.7371 133.029C51.8109 133.24 51.8755 133.454 51.9309 133.672C51.9309 133.7 51.9956 134.064 51.9586 133.798C51.9217 133.532 51.9586 133.896 51.9586 133.924C51.9586 134.115 51.9586 134.301 51.9586 134.492C51.9586 134.567 51.9586 134.646 51.9586 134.721C51.9586 135.108 52.0325 134.39 51.9586 134.772C51.9171 134.968 51.8802 135.164 51.8294 135.355C51.7786 135.546 51.714 135.747 51.6494 135.942C51.6078 136.059 51.5617 136.175 51.5155 136.292C51.5155 136.241 51.6494 136.008 51.5155 136.292C51.3122 136.728 51.0857 137.153 50.8369 137.565C50.599 137.905 50.3449 138.233 50.0753 138.548C49.9137 138.763 50.3015 138.273 50.0199 138.614L49.8445 138.828C49.6691 139.043 49.489 139.252 49.2998 139.457C48.6821 140.125 48.0188 140.748 47.3148 141.322C46.9779 141.602 47.5641 141.145 47.2179 141.397L47.0102 141.551C46.8394 141.677 46.6686 141.798 46.4932 141.914C46.0948 142.183 45.68 142.426 45.2514 142.642C45.1637 142.688 45.0807 142.73 44.9929 142.767C44.9929 142.767 44.5821 142.949 44.7852 142.865C44.9883 142.781 44.5498 142.954 44.5683 142.945L44.2313 143.066C43.7589 143.229 43.2762 143.36 42.7865 143.457C42.551 143.509 42.3248 143.546 42.0802 143.583C42.371 143.541 42.1264 143.583 42.0802 143.583L41.6555 143.625C41.157 143.675 40.6769 143.692 40.2153 143.677C39.7537 143.677 39.269 143.649 38.8028 143.602L38.4519 143.565C38.1796 143.532 38.8166 143.625 38.3735 143.565C38.1011 143.518 37.8241 143.476 37.5518 143.42C36.6749 143.245 35.8135 142.999 34.976 142.684C34.8791 142.646 34.2974 142.399 34.6344 142.548C34.4498 142.464 34.2605 142.381 34.0759 142.287C33.7204 142.115 33.3788 141.924 33.0419 141.719C32.8849 141.616 32.728 141.518 32.5803 141.411C32.5094 141.354 32.4354 141.301 32.3587 141.252C32.1694 141.136 32.6403 141.495 32.3587 141.252C32.0922 141.032 31.8394 140.795 31.6016 140.544L31.4678 140.413C31.2508 140.199 31.597 140.656 31.5139 140.483C31.4309 140.311 31.3616 140.269 31.297 140.161C31.297 140.161 31.1031 139.802 31.1077 139.798C31.1862 139.77 31.2277 140.213 31.1493 139.877C31.1493 139.807 31.1077 139.733 31.0846 139.658C31.0616 139.583 31.0846 139.56 31.0523 139.513C30.96 139.262 31.0246 139.896 31.0523 139.635C31.0523 139.579 31.0154 139.29 31.0523 139.266C31.0893 139.243 30.9185 139.705 31.0523 139.462C31.0726 139.404 31.088 139.345 31.0985 139.285C31.1908 138.865 30.9323 139.513 31.1354 139.192C31.2324 139.043 31.4862 138.786 31.177 139.085C31.2878 138.977 31.3801 138.851 31.4909 138.744L31.634 138.609C31.7817 138.46 31.7124 138.409 31.5693 138.651C31.6247 138.558 31.8278 138.474 31.9155 138.423C32.0032 138.371 32.151 138.255 32.2017 138.273C32.2525 138.292 31.7863 138.404 32.0956 138.325L32.2248 138.283C32.331 138.25 32.4464 138.236 32.5572 138.203C32.8064 138.129 32.1971 138.203 32.3772 138.231C32.451 138.231 32.5387 138.231 32.6126 138.231H32.9495C33.1619 138.231 32.511 138.129 32.908 138.231C33.0188 138.259 33.1342 138.283 33.245 138.32L33.4112 138.376C33.6789 138.455 33.4112 138.315 33.3096 138.325C33.4804 138.325 33.8266 138.59 33.9697 138.684C34.1128 138.777 34.182 138.833 34.2928 138.907C34.4729 139.029 34.1728 138.809 34.1682 138.809C34.1636 138.809 34.3575 138.963 34.3898 138.991C34.5922 139.169 34.7848 139.357 34.9668 139.555C35.0683 139.663 35.1653 139.77 35.2622 139.882L35.4007 140.059C35.65 140.343 35.2391 139.816 35.4007 140.059C35.7667 140.579 36.0968 141.124 36.3885 141.691C36.4624 141.835 36.5316 141.984 36.6009 142.157C36.7855 142.562 36.5178 141.919 36.6747 142.339C36.7994 142.674 36.9194 143.01 37.0209 143.35C37.1225 143.691 37.1917 143.984 37.2564 144.283C37.2933 144.45 37.321 144.623 37.3487 144.795C37.3487 144.828 37.4041 145.173 37.3487 144.898C37.2933 144.623 37.3487 145.056 37.3718 145.103C37.4364 145.802 37.4364 146.506 37.3718 147.206C37.3718 147.238 37.3256 147.588 37.3718 147.313C37.4179 147.038 37.3718 147.383 37.3718 147.42C37.3395 147.593 37.3071 147.765 37.2702 147.938C37.1928 148.285 37.0942 148.628 36.9748 148.963C36.9286 149.098 36.7255 149.555 36.8917 149.196C36.8132 149.359 36.744 149.527 36.6563 149.686C36.4671 150.049 36.2543 150.4 36.0193 150.735L35.8854 150.917C36.1023 150.628 35.9362 150.851 35.8854 150.917C35.7608 151.066 35.6315 151.215 35.4976 151.383C35.2087 151.693 34.9003 151.984 34.5744 152.255C34.8468 152.031 34.339 152.422 34.2698 152.474C34.0851 152.6 33.9005 152.721 33.7112 152.833C33.2994 153.066 32.8757 153.278 32.4418 153.467C31.6801 153.821 31.5186 154.926 31.8878 155.602C32.1005 155.948 32.436 156.198 32.8256 156.302C33.2153 156.406 33.6295 156.356 33.9836 156.161C37.7134 154.427 40.2199 151.033 40.5107 146.884C40.6929 143.505 39.5767 140.185 37.3948 137.616C35.5484 135.485 32.4464 134.138 29.9583 136.008C28.5135 137.085 27.5903 138.805 28.1442 140.637C28.652 142.311 30.0553 143.551 31.4816 144.441C35.3185 146.743 39.8977 147.43 44.2313 146.353C46.3784 145.744 48.3566 144.642 50.0106 143.131C51.6782 141.72 53.0486 139.986 54.0405 138.031C54.9222 136.166 55.4253 134.022 54.6406 132.045C54.1365 130.851 53.3246 129.815 52.2895 129.045C51.2544 128.275 50.0339 127.799 48.7551 127.667C48.1689 127.62 47.5805 127.727 47.0478 127.979C46.5152 128.23 46.0567 128.618 45.7177 129.103C45.4343 129.556 45.247 130.063 45.1675 130.593C45.0881 131.122 45.1182 131.663 45.2561 132.18C45.6115 133.719 46.9086 135.444 48.515 135.733C49.7457 135.916 51 135.856 52.2079 135.555C53.7196 135.232 55.182 134.707 56.5563 133.994C60.2124 132.139 63.0601 128.984 64.5513 125.136C64.953 124.08 65.2499 122.987 65.4376 121.873C65.5371 121.47 65.4775 121.045 65.2715 120.686C65.0656 120.328 64.7294 120.064 64.3344 119.952C63.9397 119.844 63.5188 119.898 63.1629 120.101C62.807 120.304 62.5446 120.641 62.4326 121.038Z" fill="#FFE0D2"/>
</g>
<g clip-path="url(#clip10_1968_4075)">
<path d="M284.285 161.264C285.339 161.03 286.412 160.897 287.49 160.867C287.59 160.866 287.684 160.863 287.78 160.864C288.24 160.857 287.605 160.855 287.876 160.865C288.147 160.875 288.301 160.882 288.508 160.898C289.007 160.931 289.503 160.991 289.994 161.077C290.422 161.153 290.846 161.23 291.27 161.357C290.943 161.27 291.467 161.422 291.56 161.454C291.778 161.52 291.995 161.596 292.213 161.687C292.594 161.832 292.969 161.988 293.337 162.163C293.518 162.249 293.699 162.335 293.882 162.44L294.09 162.555L294.295 162.666C294.138 162.575 294.11 162.557 294.206 162.618C294.868 163.003 295.502 163.436 296.103 163.911C296.383 164.131 296.654 164.365 296.918 164.606L297.261 164.931C297.334 165.001 297.507 165.19 297.245 164.892L297.459 165.109C297.906 165.579 298.323 166.075 298.71 166.595C298.869 166.814 299.024 167.035 299.177 167.262C299.227 167.386 299.323 167.487 299.391 167.604L299.512 167.804C299.656 168.034 299.328 167.45 299.47 167.701C299.673 168.084 299.854 168.478 300.014 168.88L300.114 169.129C300.257 169.479 300.08 168.858 300.089 169.004C300.09 169.143 300.107 169.282 300.141 169.417C300.187 169.532 300.084 168.942 300.14 169.193C300.171 169.33 300.196 169.095 300.108 169.3C300.021 169.505 299.939 169.713 299.85 169.903C299.994 169.626 299.876 169.893 299.807 169.921L299.541 170.258C299.377 170.474 299.541 170.258 299.588 170.238C299.503 170.313 299.419 170.392 299.33 170.458C299.241 170.524 299.202 170.539 299.15 170.585C298.899 170.797 299.368 170.527 299.194 170.568C299.11 170.589 299.03 170.621 298.956 170.664C298.68 170.816 299.21 170.646 299.021 170.638C298.942 170.642 298.865 170.654 298.788 170.672C298.483 170.751 299.13 170.683 298.814 170.662C298.78 170.676 298.477 170.599 298.743 170.661C299.01 170.722 298.743 170.661 298.679 170.627C298.414 170.455 298.932 170.778 298.749 170.663C298.567 170.548 298.568 170.438 298.775 170.727C298.727 170.682 298.684 170.63 298.648 170.575C298.511 170.237 298.787 170.917 298.648 170.575C298.623 170.5 298.593 170.427 298.56 170.356C298.495 170.198 298.499 170.207 298.572 170.386L298.53 170.184C298.453 169.765 298.449 169.335 298.518 168.914C298.552 168.661 298.603 168.416 298.653 168.167C298.744 167.721 298.599 168.318 298.678 168.067C298.724 167.919 298.78 167.772 298.837 167.629C298.915 167.433 299.006 167.243 299.11 167.06C298.937 167.365 299.205 166.947 299.275 166.859C299.345 166.771 299.688 166.427 299.416 166.672C299.584 166.524 299.758 166.384 299.939 166.251C299.965 166.24 300.278 166.044 300.045 166.178C299.813 166.312 300.136 166.141 300.162 166.131C300.339 166.059 300.512 165.989 300.689 165.917C300.758 165.889 300.832 165.859 300.901 165.831C301.259 165.686 300.566 165.887 300.948 165.812C301.145 165.777 301.341 165.738 301.537 165.713C301.733 165.688 301.943 165.673 302.149 165.659C302.272 165.654 302.398 165.653 302.523 165.652C302.476 165.671 302.209 165.635 302.523 165.652C303.004 165.676 303.483 165.727 303.958 165.803C304.362 165.895 304.762 166.007 305.155 166.139C305.415 166.208 304.815 166.033 305.237 166.166L305.501 166.248C305.766 166.33 306.028 166.418 306.289 166.516C307.14 166.838 307.967 167.218 308.763 167.655C309.149 167.862 308.505 167.491 308.868 167.717L309.089 167.852C309.27 167.963 309.446 168.075 309.62 168.194C310.019 168.463 310.4 168.756 310.761 169.072C310.837 169.136 310.907 169.197 310.975 169.264C310.975 169.264 311.297 169.577 311.143 169.42C310.989 169.263 311.314 169.605 311.298 169.591L311.537 169.858C311.866 170.234 312.168 170.633 312.443 171.05C312.579 171.249 312.698 171.444 312.825 171.657C312.677 171.403 312.807 171.614 312.825 171.657L313.023 172.035C313.257 172.478 313.453 172.917 313.612 173.35C313.785 173.778 313.941 174.238 314.073 174.687L314.17 175.027C314.243 175.291 314.09 174.666 314.2 175.099C314.259 175.369 314.324 175.642 314.375 175.915C314.542 176.793 314.637 177.684 314.66 178.579C314.662 178.683 314.651 179.315 314.663 178.946C314.654 179.149 314.648 179.356 314.631 179.562C314.604 179.956 314.555 180.345 314.492 180.734C314.456 180.918 314.424 181.1 314.38 181.277C314.354 181.364 314.333 181.453 314.316 181.542C314.28 181.761 314.435 181.19 314.316 181.542C314.212 181.872 314.088 182.195 313.944 182.51L313.873 182.683C313.756 182.965 314.05 182.472 313.921 182.614C313.792 182.756 313.779 182.836 313.704 182.936C313.704 182.936 313.444 183.25 313.438 183.248C313.383 183.186 313.778 182.981 313.496 183.18C313.431 183.206 313.378 183.272 313.317 183.322C313.257 183.371 313.227 183.359 313.196 183.406C312.997 183.586 313.56 183.288 313.308 183.361C313.256 183.382 313.002 183.524 312.967 183.499C312.931 183.473 313.423 183.458 313.148 183.425C313.087 183.428 313.026 183.436 312.967 183.449C312.543 183.521 313.241 183.517 312.866 183.45C312.692 183.416 312.359 183.277 312.751 183.452C312.61 183.389 312.459 183.351 312.318 183.289L312.139 183.207C311.945 183.126 311.924 183.209 312.202 183.251C312.095 183.235 311.941 183.078 311.86 183.016C311.78 182.954 311.616 182.861 311.615 182.807C311.613 182.753 311.892 183.143 311.702 182.886L311.615 182.782C311.544 182.696 311.488 182.594 311.416 182.504C311.254 182.301 311.552 182.837 311.51 182.66C311.482 182.591 311.449 182.51 311.421 182.442L311.295 182.129C311.215 181.933 311.364 182.574 311.31 182.168C311.295 182.055 311.273 181.939 311.266 181.822L311.255 181.647C311.228 181.369 311.199 181.67 311.246 181.761C311.182 181.602 311.298 181.182 311.331 181.014C311.363 180.846 311.389 180.761 311.417 180.631C311.461 180.418 311.371 180.779 311.373 180.783C311.374 180.787 311.444 180.55 311.458 180.509C311.546 180.255 311.648 180.006 311.764 179.763C311.825 179.628 311.888 179.498 311.956 179.366L312.068 179.171C312.238 178.833 311.904 179.412 312.068 179.171C312.412 178.637 312.794 178.126 313.209 177.643C313.315 177.52 313.427 177.4 313.561 177.271C313.868 176.947 313.372 177.437 313.702 177.134C313.966 176.893 314.232 176.655 314.509 176.433C314.787 176.211 315.033 176.037 315.285 175.865C315.427 175.768 315.576 175.677 315.726 175.587C315.756 175.574 316.055 175.393 315.821 175.548C315.586 175.703 315.967 175.489 316.002 175.45C316.626 175.127 317.278 174.863 317.951 174.66C317.981 174.648 318.322 174.559 318.05 174.62C317.778 174.68 318.115 174.593 318.149 174.579C318.321 174.544 318.493 174.51 318.667 174.479C319.018 174.42 319.373 174.383 319.729 174.368C319.871 174.36 320.371 174.376 319.976 174.357C320.156 174.368 320.338 174.37 320.518 174.391C320.926 174.43 321.33 174.496 321.729 174.588L321.948 174.643C321.599 174.551 321.869 174.621 321.948 174.643C322.133 174.703 322.32 174.767 322.526 174.828C322.922 174.979 323.308 175.155 323.681 175.356C323.371 175.187 323.925 175.511 323.998 175.556C324.184 175.68 324.366 175.805 324.541 175.939C324.912 176.232 325.267 176.546 325.605 176.877C326.219 177.45 327.304 177.184 327.792 176.588C328.032 176.261 328.139 175.856 328.089 175.456C328.039 175.056 327.836 174.691 327.523 174.436C324.515 171.631 320.428 170.583 316.473 171.872C313.273 172.972 310.616 175.254 309.055 178.241C307.774 180.752 307.69 184.133 310.358 185.737C311.898 186.671 313.839 186.881 315.329 185.679C316.69 184.58 317.312 182.814 317.601 181.157C318.293 176.736 317.209 172.235 314.583 168.623C313.213 166.862 311.448 165.443 309.427 164.477C307.493 163.462 305.371 162.843 303.186 162.658C301.127 162.542 298.95 162.881 297.413 164.351C296.496 165.267 295.841 166.408 295.516 167.657C295.191 168.905 295.209 170.215 295.567 171.45C295.743 172.011 296.063 172.516 296.497 172.915C296.93 173.314 297.462 173.593 298.039 173.725C298.565 173.818 299.105 173.801 299.626 173.676C300.147 173.55 300.636 173.319 301.064 172.997C302.356 172.09 303.467 170.24 303.132 168.643C302.839 167.433 302.312 166.293 301.58 165.287C300.713 164.007 299.677 162.849 298.5 161.844C295.407 159.152 291.413 157.698 287.287 157.761C286.158 157.786 285.033 157.921 283.93 158.166C283.52 158.225 283.148 158.44 282.893 158.766C282.638 159.091 282.52 159.502 282.564 159.91C282.613 160.316 282.82 160.686 283.143 160.94C283.465 161.193 283.875 161.31 284.285 161.264Z" fill="#FFE0D2"/>
</g>
<g clip-path="url(#clip11_1968_4075)">
<path d="M288.174 58.1427C289.293 58.1427 290.199 57.2362 290.199 56.1179C290.199 54.9996 289.293 54.093 288.174 54.093C287.056 54.093 286.149 54.9996 286.149 56.1179C286.149 57.2362 287.056 58.1427 288.174 58.1427Z" fill="#FFE0D2"/>
</g>
<g clip-path="url(#clip12_1968_4075)">
<path d="M141.373 107.752C142.492 107.752 143.398 106.845 143.398 105.727C143.398 104.608 142.492 103.702 141.373 103.702C140.255 103.702 139.349 104.608 139.349 105.727C139.349 106.845 140.255 107.752 141.373 107.752Z" fill="#FFE0D2"/>
</g>
<g clip-path="url(#clip13_1968_4075)">
<path d="M333.733 68.2667C334.851 68.2667 335.758 67.3602 335.758 66.2419C335.758 65.1236 334.851 64.217 333.733 64.217C332.615 64.217 331.708 65.1236 331.708 66.2419C331.708 67.3602 332.615 68.2667 333.733 68.2667Z" fill="#FFE0D2"/>
</g>
<g clip-path="url(#clip14_1968_4075)">
<path d="M304.373 229.242C305.492 229.242 306.398 228.336 306.398 227.217C306.398 226.099 305.492 225.193 304.373 225.193C303.255 225.193 302.349 226.099 302.349 227.217C302.349 228.336 303.255 229.242 304.373 229.242Z" fill="#FFE0D2"/>
</g>
<g clip-path="url(#clip15_1968_4075)">
<path d="M186.933 117.876C188.051 117.876 188.958 116.969 188.958 115.851C188.958 114.732 188.051 113.826 186.933 113.826C185.815 113.826 184.908 114.732 184.908 115.851C184.908 116.969 185.815 117.876 186.933 117.876Z" fill="#FFE0D2"/>
</g>
<g clip-path="url(#clip16_1968_4075)">
<path d="M309.436 49.0309C312.791 49.0309 315.51 46.3112 315.51 42.9564C315.51 39.6015 312.791 36.8818 309.436 36.8818C306.081 36.8818 303.361 39.6015 303.361 42.9564C303.361 46.3112 306.081 49.0309 309.436 49.0309Z" fill="#FFE0D2"/>
</g>
<g clip-path="url(#clip17_1968_4075)">
<path d="M162.635 98.6398C165.99 98.6398 168.71 95.9201 168.71 92.5653C168.71 89.2104 165.99 86.4907 162.635 86.4907C159.28 86.4907 156.561 89.2104 156.561 92.5653C156.561 95.9201 159.28 98.6398 162.635 98.6398Z" fill="#FFE0D2"/>
</g>
<g clip-path="url(#clip18_1968_4075)">
<path d="M81.6409 244.429C84.9958 244.429 87.7155 241.709 87.7155 238.354C87.7155 234.999 84.9958 232.28 81.6409 232.28C78.2861 232.28 75.5664 234.999 75.5664 238.354C75.5664 241.709 78.2861 244.429 81.6409 244.429Z" fill="#FFE0D2"/>
</g>
<g clip-path="url(#clip19_1968_4075)">
<path d="M111.844 175.086C111.165 181.702 113.834 187.886 114.341 194.398C114.602 197.406 114.206 200.434 113.181 203.268C112.893 204.232 112.429 205.133 111.814 205.924C111.695 206.102 111.533 206.247 111.343 206.343C111.154 206.439 110.943 206.484 110.731 206.474C110.301 206.373 110.056 205.876 109.923 205.496C109.609 204.622 109.493 203.487 110.034 202.692C110.576 201.897 111.212 201.91 111.921 202.355C113.327 203.229 114.44 205.063 114.93 206.64C115.923 209.819 114.93 212.89 113.413 215.702C111.926 218.449 110.056 220.943 108.685 223.773C107.619 225.957 106.729 228.42 106.712 230.896C106.712 232.665 107.077 234.862 108.672 235.884C109.066 236.121 109.506 236.27 109.961 236.32C110.391 236.382 110.61 235.678 110.155 235.613C107.877 235.294 107.404 232.643 107.451 230.695C107.52 227.843 108.741 225.048 110.116 222.607C112.927 217.545 118.08 211.798 115.325 205.574C114.92 204.681 114.401 203.845 113.782 203.089C113.239 202.325 112.494 201.733 111.633 201.381C111.259 201.264 110.857 201.271 110.487 201.401C110.117 201.531 109.797 201.779 109.574 202.106C109.293 202.511 109.1 202.972 109.007 203.458C108.915 203.945 108.925 204.446 109.037 204.928C109.179 205.801 109.592 206.941 110.537 207.181C111.483 207.422 112.287 206.605 112.768 205.871C113.281 205.013 113.694 204.097 113.997 203.142C114.536 201.648 114.886 200.091 115.037 198.508C115.716 191.45 112.527 184.825 112.459 177.828C112.446 176.918 112.488 176.008 112.583 175.103C112.63 174.636 111.913 174.64 111.865 175.103L111.844 175.086Z" fill="#3A5769"/>
<path d="M121.721 178.959C122.374 179.732 123.053 181.283 121.467 183.025C119.881 184.768 117.341 183.667 117.341 183.667C116.978 184.512 116.375 185.228 115.609 185.722C114.843 186.216 113.95 186.466 113.043 186.441C112.136 186.466 111.242 186.216 110.476 185.722C109.711 185.228 109.107 184.512 108.745 183.667C108.745 183.667 106.204 184.763 104.618 183.025C103.032 181.287 103.712 179.732 104.365 178.959C105.418 177.719 109.381 174.836 109.381 174.836H116.705C116.705 174.836 120.672 177.715 121.721 178.959Z" fill="#FF4E4F"/>
<path d="M133.274 151.109C133.276 152.668 133.149 154.226 132.896 155.764C131.336 165.281 125.082 172.797 117.126 174.736L116.696 174.832C115.487 175.097 114.254 175.23 113.017 175.23H112.54C112.299 175.23 112.063 175.23 111.827 175.195C110.994 175.139 110.166 175.021 109.351 174.841L108.921 174.74C106.752 174.199 104.699 173.261 102.861 171.972C100.495 170.31 98.4762 168.189 96.9208 165.731C95.7296 163.869 94.7859 161.856 94.1141 159.743C93.4976 157.826 93.0925 155.846 92.9063 153.838C92.8204 152.965 92.7774 152.062 92.7774 151.13C92.7741 149.146 92.9773 147.167 93.3834 145.226C93.8074 143.183 94.4697 141.2 95.3563 139.317C98.8248 131.958 105.44 126.988 113.026 126.988C113.763 126.987 114.5 127.035 115.231 127.132C117.261 127.395 119.231 128.013 121.055 128.957C123.341 130.158 125.383 131.788 127.072 133.761C128.503 135.405 129.704 137.24 130.644 139.216C131.318 140.627 131.865 142.098 132.277 143.61C132.944 146.052 133.279 148.574 133.274 151.109Z" fill="#FF4E4F"/>
<path d="M116.705 175.273H109.347C109.233 175.273 109.123 175.227 109.043 175.145C108.962 175.064 108.917 174.952 108.917 174.837C108.917 174.721 108.962 174.61 109.043 174.528C109.123 174.446 109.233 174.4 109.347 174.4H116.705C116.819 174.4 116.929 174.446 117.009 174.528C117.09 174.61 117.135 174.721 117.135 174.837C117.135 174.952 117.09 175.064 117.009 175.145C116.929 175.227 116.819 175.273 116.705 175.273Z" fill="#3A5769"/>
<path d="M121.054 128.957C119.879 130.651 118.574 132.247 117.152 133.731C115.812 135.143 114.376 136.456 112.853 137.662C111.278 138.961 109.602 140.13 107.842 141.155C104.849 142.861 101.608 144.073 98.2399 144.745C97.9906 144.794 97.737 144.842 97.4877 144.881C96.9161 144.973 96.3444 145.051 95.7685 145.108C94.9733 145.187 94.1696 145.226 93.3701 145.226C93.7982 143.183 94.4649 141.199 95.3558 139.317H95.3988H95.6911C95.7558 139.298 95.822 139.285 95.8888 139.278L96.2155 139.216C96.6883 139.138 97.1611 139.042 97.6296 138.932C97.8917 138.871 98.1539 138.81 98.4161 138.74C99.6982 138.4 100.957 137.975 102.186 137.469L102.353 137.404C102.598 137.29 102.688 137.251 102.697 137.251C102.817 137.203 102.933 137.146 103.054 137.089C103.38 136.937 103.707 136.775 104.029 136.609C104.674 136.283 105.303 135.928 105.916 135.543C106.677 135.067 107.412 134.552 108.134 134.019C108.315 133.888 108.495 133.748 108.671 133.613L108.792 133.526L108.861 133.469C108.794 133.512 108.731 133.56 108.671 133.613C108.878 133.329 108.981 133.351 108.865 133.465L108.929 133.416C109.277 133.137 109.626 132.853 109.965 132.543C111.305 131.397 112.572 130.164 113.756 128.853C114.272 128.294 114.763 127.72 115.23 127.132C117.261 127.396 119.231 128.013 121.054 128.957Z" fill="#FFA9AB"/>
<path d="M130.644 139.216C129.47 141.039 128.162 142.769 126.732 144.392C125.318 146.044 123.772 147.576 122.112 148.973C118.286 152.134 114.005 154.681 109.42 156.524C106.051 157.899 102.531 158.852 98.9365 159.363C98.1886 159.476 97.4451 159.564 96.6929 159.638H96.5768C95.7598 159.717 94.9388 159.746 94.1183 159.725C93.5016 157.814 93.0951 155.84 92.9062 153.838H92.9664H93.1083C93.807 153.901 94.5091 153.919 95.21 153.891C95.3906 153.891 95.5711 153.882 95.7516 153.864C96.1814 153.864 96.6112 153.803 97.0153 153.76L97.5052 153.707H97.5568C99.5166 153.429 101.456 153.02 103.364 152.484C104.412 152.193 105.45 151.852 106.475 151.462C107.013 151.261 107.55 151.026 108.083 150.829H108.113H108.152H108.186H108.208H108.186H108.22H108.246L108.93 150.519C110.924 149.571 112.851 148.484 114.698 147.265C115.557 146.715 116.395 146.133 117.212 145.518L117.332 145.427L117.363 145.4C117.402 145.374 117.439 145.345 117.474 145.313C117.663 145.165 117.844 145.012 118.029 144.876C118.416 144.549 118.798 144.217 119.176 143.876C120.684 142.506 122.086 141.021 123.371 139.435C123.543 139.225 123.711 138.998 123.879 138.801L124.003 138.644L124.029 138.609L124.068 138.557L124.098 138.517C124.36 138.159 124.622 137.801 124.876 137.439C125.376 136.736 125.841 136.007 126.268 135.255C126.552 134.753 126.827 134.246 127.085 133.735C128.513 135.388 129.71 137.232 130.644 139.216Z" fill="#FFA9AB"/>
<path d="M115.167 162.865L115.05 162.915L115.141 162.874L115.167 162.865Z" fill="#FFA9AB"/>
<path d="M132.277 143.614C132.137 144.315 131.959 145.008 131.744 145.689C131.61 146.125 131.464 146.536 131.314 146.951C131.316 146.931 131.316 146.91 131.314 146.89C131.249 147.019 131.199 147.155 131.163 147.296L131.202 147.213C131.181 147.257 131.163 147.305 131.146 147.348V147.296C131.069 147.479 130.987 147.663 130.901 147.842C130.479 148.74 130.01 149.615 129.496 150.462C128.963 151.336 128.387 152.174 127.777 152.991L127.751 153.026L127.648 153.153L127.218 153.677C126.894 154.096 126.552 154.502 126.191 154.895C124.902 156.331 123.502 157.66 122.004 158.87L121.961 158.904L121.901 158.952C121.891 158.95 121.881 158.95 121.871 158.952L121.815 159.001C121.647 159.123 121.484 159.249 121.312 159.372C120.921 159.66 120.526 159.935 120.122 160.206C119.391 160.686 118.639 161.141 117.869 161.551C117.225 161.896 116.58 162.211 115.909 162.516L115.398 162.743L115.48 162.713C115.098 162.914 114.703 163.089 114.298 163.237C112.641 163.885 110.953 164.445 109.239 164.914C108.348 165.161 107.449 165.381 106.544 165.573C106.14 165.661 105.736 165.739 105.332 165.814L104.571 165.94L104.206 165.988H104.124H104.021H103.952C102.24 166.188 100.513 166.223 98.7943 166.093H98.6611L98.4547 166.067H98.5149L98.2398 166.032H98.4333C98.2184 165.997 98.0034 165.958 97.7842 165.91C97.4834 165.849 97.1868 165.774 96.8945 165.687C98.4531 168.163 100.481 170.3 102.86 171.972H102.985C106.996 171.605 110.942 170.699 114.719 169.277C118.101 168.041 121.394 166.512 124.317 164.355C127.599 161.957 130.499 159.06 132.913 155.764C133.166 154.226 133.293 152.669 133.291 151.109C133.29 148.575 132.949 146.054 132.277 143.614ZM131.249 147.108C131.237 147.141 131.223 147.173 131.206 147.204C131.206 147.156 131.249 147.104 131.267 147.056C131.284 147.008 131.267 147.008 131.297 146.982C131.284 147.012 131.267 147.078 131.249 147.099V147.108Z" fill="#FFA9AB"/>
<path d="M96.4516 155.729C96.176 155.728 95.9099 155.626 95.7017 155.443C95.4935 155.259 95.357 155.006 95.3169 154.729C95.1407 153.53 95.0531 152.32 95.0547 151.108C95.0547 143.011 98.8671 135.735 105.009 132.123C105.14 132.047 105.284 131.997 105.434 131.976C105.583 131.956 105.736 131.966 105.881 132.006C106.027 132.045 106.164 132.114 106.284 132.207C106.404 132.3 106.504 132.417 106.58 132.549C106.656 132.682 106.705 132.829 106.725 132.981C106.745 133.133 106.735 133.287 106.696 133.436C106.657 133.584 106.59 133.723 106.498 133.845C106.406 133.966 106.292 134.069 106.161 134.146C100.728 137.342 97.3542 143.841 97.3542 151.108C97.3549 152.206 97.4339 153.302 97.5906 154.388C97.6312 154.692 97.5525 155 97.3715 155.245C97.1905 155.49 96.9218 155.653 96.6235 155.699L96.4516 155.729Z" fill="white"/>
<path d="M99.1468 163.604C98.9458 163.603 98.7484 163.549 98.5743 163.448C98.4001 163.346 98.2552 163.199 98.1539 163.023C97.4095 161.726 96.7947 160.356 96.3186 158.935C96.2698 158.79 96.2496 158.636 96.2591 158.483C96.2687 158.33 96.3078 158.181 96.3742 158.043C96.4407 157.905 96.5332 157.782 96.6464 157.681C96.7597 157.58 96.8915 157.502 97.0343 157.452C97.1771 157.403 97.3281 157.382 97.4787 157.392C97.6293 157.401 97.7766 157.441 97.9121 157.509C98.0476 157.576 98.1687 157.67 98.2684 157.785C98.3682 157.9 98.4447 158.034 98.4935 158.179C98.9216 159.453 99.473 160.681 100.14 161.844C100.215 161.977 100.265 162.124 100.284 162.277C100.303 162.43 100.293 162.585 100.253 162.734C100.213 162.883 100.144 163.022 100.051 163.143C99.9579 163.265 99.8419 163.366 99.7099 163.442C99.5393 163.545 99.3452 163.601 99.1468 163.604Z" fill="white"/>
</g>
<g clip-path="url(#clip20_1968_4075)">
<path d="M337.791 239.963C337.214 245.477 339.482 250.631 339.914 256.057C340.135 258.563 339.799 261.088 338.927 263.449C338.682 264.253 338.288 265.003 337.765 265.662C337.664 265.811 337.527 265.931 337.365 266.011C337.204 266.092 337.025 266.129 336.845 266.12C336.479 266.037 336.271 265.622 336.158 265.305C335.891 264.577 335.792 263.631 336.253 262.969C336.713 262.306 337.254 262.317 337.857 262.688C339.051 263.416 339.998 264.945 340.414 266.259C341.258 268.908 340.414 271.467 339.124 273.811C337.86 276.1 336.271 278.178 335.106 280.536C334.2 282.356 333.443 284.409 333.429 286.472C333.429 287.946 333.739 289.777 335.095 290.629C335.43 290.827 335.803 290.951 336.191 290.993C336.556 291.043 336.742 290.458 336.355 290.403C334.419 290.137 334.017 287.928 334.057 286.305C334.116 283.928 335.153 281.599 336.322 279.565C338.712 275.346 343.092 270.557 340.75 265.371C340.406 264.626 339.965 263.93 339.439 263.3C338.977 262.663 338.344 262.17 337.612 261.877C337.294 261.779 336.952 261.784 336.637 261.893C336.323 262.002 336.051 262.208 335.862 262.481C335.623 262.818 335.458 263.202 335.38 263.607C335.301 264.013 335.31 264.43 335.405 264.832C335.526 265.56 335.876 266.51 336.68 266.71C337.484 266.91 338.167 266.23 338.576 265.618C339.013 264.903 339.363 264.14 339.621 263.343C340.079 262.099 340.376 260.801 340.505 259.482C341.083 253.601 338.372 248.079 338.313 242.249C338.303 241.491 338.338 240.732 338.419 239.978C338.459 239.589 337.849 239.592 337.809 239.978L337.791 239.963Z" fill="#3A5769"/>
<path d="M346.186 243.192C346.741 243.836 347.319 245.128 345.97 246.58C344.622 248.032 342.463 247.115 342.463 247.115C342.155 247.819 341.642 248.415 340.991 248.827C340.34 249.239 339.581 249.448 338.81 249.426C338.039 249.448 337.279 249.239 336.628 248.827C335.977 248.415 335.465 247.819 335.156 247.115C335.156 247.115 332.997 248.029 331.649 246.58C330.301 245.132 330.878 243.836 331.434 243.192C332.329 242.158 335.697 239.756 335.697 239.756H341.922C341.922 239.756 345.295 242.155 346.186 243.192Z" fill="#FFA800"/>
<path d="M356.006 219.983C356.008 221.283 355.9 222.58 355.685 223.862C354.359 231.793 349.043 238.056 342.281 239.672L341.915 239.752C340.888 239.973 339.839 240.084 338.788 240.084H338.382C338.178 240.084 337.977 240.084 337.776 240.054C337.068 240.008 336.365 239.909 335.672 239.76L335.306 239.676C333.463 239.225 331.717 238.443 330.155 237.368C328.144 235.984 326.428 234.216 325.106 232.168C324.093 230.616 323.291 228.939 322.72 227.178C322.196 225.581 321.852 223.93 321.694 222.257C321.621 221.529 321.584 220.777 321.584 220.001C321.581 218.347 321.754 216.698 322.099 215.08C322.46 213.378 323.022 211.725 323.776 210.156C326.724 204.024 332.347 199.882 338.795 199.882C339.422 199.881 340.048 199.922 340.669 200.002C342.395 200.222 344.07 200.736 345.62 201.523C347.563 202.524 349.299 203.882 350.735 205.527C351.95 206.896 352.972 208.426 353.77 210.072C354.344 211.248 354.808 212.474 355.159 213.734C355.726 215.769 356.011 217.871 356.006 219.983Z" fill="#FFA800"/>
<path d="M341.922 240.12H335.667C335.57 240.12 335.477 240.082 335.409 240.013C335.34 239.945 335.302 239.853 335.302 239.756C335.302 239.66 335.34 239.567 335.409 239.499C335.477 239.43 335.57 239.392 335.667 239.392H341.922C342.019 239.392 342.112 239.43 342.18 239.499C342.249 239.567 342.287 239.66 342.287 239.756C342.287 239.853 342.249 239.945 342.18 240.013C342.112 240.082 342.019 240.12 341.922 240.12Z" fill="#3A5769"/>
<path d="M345.619 201.523C344.621 202.934 343.511 204.264 342.302 205.501C341.164 206.678 339.943 207.772 338.649 208.777C337.31 209.86 335.885 210.833 334.389 211.688C331.845 213.11 329.09 214.12 326.227 214.68C326.015 214.72 325.8 214.76 325.588 214.793C325.102 214.869 324.616 214.935 324.126 214.982C323.451 215.048 322.767 215.08 322.088 215.08C322.452 213.378 323.018 211.725 323.776 210.156H323.812H324.061C324.116 210.141 324.172 210.13 324.229 210.123L324.506 210.072C324.908 210.007 325.31 209.927 325.708 209.836C325.931 209.785 326.154 209.734 326.377 209.676C327.467 209.392 328.537 209.038 329.581 208.617L329.724 208.562C329.932 208.467 330.008 208.435 330.016 208.435C330.118 208.395 330.217 208.347 330.319 208.3C330.597 208.173 330.874 208.038 331.148 207.9C331.696 207.628 332.231 207.332 332.752 207.012C333.399 206.615 334.024 206.185 334.637 205.741C334.791 205.632 334.944 205.516 335.094 205.403L335.196 205.33L335.255 205.283C335.198 205.319 335.145 205.359 335.094 205.403C335.269 205.166 335.357 205.185 335.258 205.279L335.313 205.239C335.609 205.006 335.905 204.77 336.194 204.511C337.333 203.556 338.409 202.529 339.416 201.436C339.854 200.97 340.272 200.492 340.669 200.002C342.395 200.222 344.069 200.736 345.619 201.523Z" fill="#FFE9E0"/>
<path d="M353.771 210.072C352.773 211.591 351.662 213.033 350.447 214.385C349.244 215.762 347.93 217.039 346.519 218.203C343.267 220.837 339.628 222.96 335.731 224.496C332.868 225.641 329.876 226.436 326.82 226.861C326.184 226.956 325.552 227.029 324.913 227.091H324.814C324.12 227.157 323.422 227.181 322.725 227.163C322.2 225.571 321.855 223.926 321.694 222.257H321.745H321.866C322.46 222.31 323.057 222.325 323.653 222.301C323.806 222.301 323.959 222.294 324.113 222.279C324.478 222.279 324.844 222.228 325.187 222.192L325.603 222.148H325.647C327.313 221.916 328.962 221.576 330.583 221.129C331.474 220.887 332.356 220.603 333.228 220.278C333.685 220.11 334.141 219.914 334.595 219.75H334.62H334.653H334.682H334.7H334.682H334.711H334.733L335.314 219.491C337.009 218.702 338.648 217.796 340.217 216.78C340.948 216.321 341.66 215.836 342.354 215.324L342.457 215.248L342.482 215.226C342.516 215.204 342.547 215.18 342.577 215.153C342.738 215.029 342.891 214.902 343.048 214.789C343.377 214.516 343.702 214.24 344.024 213.956C345.305 212.814 346.497 211.577 347.59 210.254C347.736 210.08 347.878 209.89 348.021 209.727L348.127 209.596L348.149 209.567L348.182 209.523L348.207 209.49C348.43 209.192 348.653 208.893 348.868 208.591C349.294 208.005 349.689 207.398 350.052 206.771C350.293 206.353 350.527 205.931 350.746 205.505C351.96 206.882 352.978 208.419 353.771 210.072Z" fill="#FFE9E0"/>
<path d="M340.614 229.78L340.515 229.821L340.592 229.788L340.614 229.78Z" fill="#FFE9E0"/>
<path d="M355.159 213.738C355.04 214.322 354.889 214.899 354.706 215.466C354.593 215.83 354.468 216.172 354.34 216.518C354.342 216.501 354.342 216.484 354.34 216.467C354.286 216.575 354.243 216.689 354.213 216.806L354.245 216.736C354.227 216.773 354.213 216.813 354.198 216.849V216.806C354.132 216.958 354.063 217.111 353.99 217.261C353.631 218.009 353.232 218.738 352.795 219.444C352.342 220.172 351.852 220.871 351.334 221.552L351.312 221.581L351.224 221.686L350.859 222.123C350.584 222.472 350.292 222.811 349.986 223.138C348.89 224.335 347.7 225.443 346.427 226.45L346.391 226.479L346.339 226.519C346.331 226.518 346.322 226.518 346.314 226.519L346.266 226.559C346.124 226.661 345.985 226.767 345.839 226.869C345.507 227.109 345.17 227.338 344.827 227.564C344.206 227.964 343.567 228.343 342.913 228.685C342.365 228.972 341.817 229.234 341.247 229.489L340.812 229.678L340.881 229.653C340.557 229.821 340.221 229.967 339.877 230.09C338.469 230.63 337.033 231.097 335.577 231.487C334.819 231.694 334.056 231.877 333.286 232.037C332.942 232.11 332.599 232.175 332.256 232.237L331.609 232.343L331.298 232.383H331.229H331.141H331.083C329.628 232.549 328.16 232.579 326.699 232.47H326.586L326.41 232.448H326.461L326.227 232.419H326.392C326.209 232.39 326.027 232.357 325.84 232.317C325.585 232.266 325.332 232.204 325.084 232.131C326.409 234.195 328.133 235.975 330.155 237.369H330.261C333.671 237.064 337.025 236.308 340.235 235.123C343.11 234.093 345.908 232.819 348.393 231.021C351.183 229.023 353.648 226.609 355.7 223.863C355.915 222.581 356.022 221.283 356.021 219.983C356.02 217.872 355.73 215.771 355.159 213.738ZM354.286 216.649C354.275 216.676 354.263 216.703 354.249 216.729C354.249 216.689 354.286 216.645 354.3 216.605C354.315 216.565 354.3 216.565 354.326 216.544C354.315 216.569 354.3 216.624 354.286 216.642V216.649Z" fill="#FFE9E0"/>
<path d="M324.707 223.833C324.473 223.832 324.246 223.748 324.07 223.595C323.893 223.442 323.776 223.231 323.742 223C323.593 222.001 323.518 220.993 323.52 219.983C323.52 213.235 326.76 207.172 331.981 204.162C332.092 204.098 332.215 204.056 332.342 204.039C332.469 204.023 332.598 204.031 332.722 204.064C332.846 204.097 332.963 204.154 333.064 204.232C333.166 204.309 333.252 204.406 333.316 204.517C333.38 204.627 333.422 204.75 333.439 204.876C333.456 205.003 333.448 205.132 333.415 205.255C333.382 205.379 333.324 205.495 333.246 205.596C333.168 205.698 333.071 205.783 332.96 205.847C328.342 208.511 325.474 213.927 325.474 219.983C325.475 220.898 325.542 221.811 325.675 222.716C325.71 222.969 325.643 223.226 325.489 223.43C325.335 223.634 325.107 223.77 324.853 223.808L324.707 223.833Z" fill="white"/>
<path d="M326.998 230.395C326.828 230.395 326.66 230.35 326.512 230.265C326.364 230.18 326.241 230.058 326.155 229.911C325.522 228.83 324.999 227.689 324.595 226.505C324.553 226.384 324.536 226.256 324.544 226.128C324.552 226.001 324.585 225.876 324.642 225.761C324.698 225.647 324.777 225.544 324.873 225.46C324.969 225.375 325.081 225.31 325.203 225.269C325.324 225.228 325.453 225.211 325.581 225.219C325.709 225.227 325.834 225.26 325.949 225.316C326.064 225.372 326.167 225.451 326.252 225.547C326.337 225.643 326.402 225.754 326.443 225.875C326.807 226.937 327.276 227.959 327.842 228.929C327.907 229.04 327.949 229.163 327.965 229.29C327.982 229.417 327.973 229.547 327.939 229.671C327.905 229.794 327.846 229.91 327.767 230.012C327.688 230.113 327.589 230.198 327.477 230.261C327.332 230.346 327.167 230.393 326.998 230.395Z" fill="white"/>
</g>
<g clip-path="url(#clip21_1968_4075)">
<path d="M259.657 210.766C258.982 217.138 261.647 223.093 262.154 229.36C262.414 232.257 262.019 235.175 260.998 237.906C260.71 238.835 260.245 239.703 259.627 240.463C259.508 240.635 259.346 240.773 259.156 240.866C258.966 240.959 258.755 241.003 258.544 240.993C258.114 240.9 257.873 240.421 257.736 240.051C257.422 239.209 257.306 238.12 257.852 237.355C258.397 236.589 259.025 236.598 259.734 237.031C261.144 237.872 262.253 239.638 262.743 241.157C263.736 244.214 262.743 247.171 261.226 249.884C259.743 252.525 257.873 254.931 256.498 257.652C255.427 259.755 254.542 262.127 254.521 264.512C254.521 266.219 254.89 268.335 256.48 269.319C256.875 269.547 257.314 269.69 257.77 269.739C258.225 269.802 258.419 269.125 257.963 269.062C255.685 268.755 255.213 266.198 255.26 264.326C255.329 261.576 256.549 258.888 257.925 256.537C260.74 251.663 265.889 246.124 263.134 240.135C262.731 239.272 262.212 238.466 261.591 237.737C261.047 237.003 260.302 236.433 259.442 236.093C259.072 235.977 258.674 235.979 258.306 236.098C257.937 236.217 257.617 236.448 257.392 236.758C257.108 237.146 256.913 237.59 256.82 238.058C256.726 238.527 256.737 239.01 256.85 239.474C256.992 240.316 257.409 241.413 258.354 241.649C259.3 241.884 260.099 241.094 260.581 240.387C261.095 239.561 261.508 238.679 261.81 237.758C262.349 236.319 262.698 234.818 262.85 233.292C263.534 226.5 260.344 220.115 260.271 213.382C260.261 212.505 260.303 211.629 260.396 210.757C260.443 210.307 259.726 210.312 259.678 210.757L259.657 210.766Z" fill="#3A5769"/>
<path d="M269.533 214.496C270.186 215.241 270.866 216.734 269.28 218.408C267.694 220.081 265.153 219.03 265.153 219.03C264.791 219.844 264.187 220.533 263.422 221.008C262.656 221.484 261.762 221.725 260.855 221.701C259.949 221.725 259.055 221.483 258.289 221.008C257.524 220.532 256.92 219.843 256.557 219.03C256.557 219.03 254.021 220.086 252.435 218.408C250.849 216.729 251.528 215.241 252.177 214.496C253.23 213.297 257.193 210.526 257.193 210.526H264.517C264.517 210.526 268.484 213.293 269.533 214.496Z" fill="#3FC6FF"/>
<path d="M281.086 187.676C281.088 189.178 280.961 190.678 280.708 192.159C278.89 202.842 270.676 210.904 260.838 210.904C257.204 210.89 253.661 209.796 250.677 207.767C248.31 206.168 246.291 204.125 244.737 201.757C243.546 199.963 242.601 198.025 241.926 195.991C241.31 194.145 240.905 192.238 240.718 190.304V190.279C240.637 189.438 240.594 188.555 240.594 187.676C240.59 185.77 240.793 183.87 241.2 182.006C241.624 180.042 242.285 178.133 243.168 176.32C246.641 169.233 253.252 164.447 260.838 164.447C261.575 164.447 262.312 164.493 263.043 164.586C265.073 164.84 267.043 165.435 268.867 166.344C271.154 167.5 273.196 169.07 274.884 170.97C276.314 172.554 277.516 174.321 278.456 176.223C279.128 177.575 279.675 178.982 280.089 180.429C280.758 182.789 281.094 185.227 281.086 187.676Z" fill="#3FC6FF"/>
<path d="M264.522 210.942H257.159C257.045 210.942 256.936 210.898 256.855 210.819C256.775 210.74 256.729 210.633 256.729 210.522C256.729 210.41 256.775 210.303 256.855 210.224C256.936 210.145 257.045 210.101 257.159 210.101H264.522C264.636 210.101 264.745 210.145 264.826 210.224C264.907 210.303 264.952 210.41 264.952 210.522C264.952 210.633 264.907 210.74 264.826 210.819C264.745 210.898 264.636 210.942 264.522 210.942Z" fill="#3A5769"/>
<path d="M256.699 170.663C256.634 170.71 256.553 170.764 256.501 170.811C256.707 170.537 256.806 170.554 256.699 170.663Z" fill="#BFECFF"/>
<path d="M268.866 166.344C267.691 167.973 266.386 169.509 264.964 170.937C263.622 172.294 262.186 173.559 260.666 174.722C259.087 175.971 257.41 177.096 255.65 178.087C252.658 179.726 249.42 180.892 246.056 181.54C245.807 181.586 245.553 181.632 245.3 181.67C244.728 181.758 244.152 181.83 243.581 181.889C242.785 181.967 241.986 182.004 241.187 182.002C241.615 180.038 242.281 178.131 243.168 176.32H243.211H243.503C243.568 176.302 243.634 176.29 243.701 176.282L244.028 176.224C244.505 176.144 244.973 176.055 245.442 175.95C245.704 175.891 245.966 175.832 246.228 175.765C247.512 175.442 248.771 175.033 249.998 174.541L250.109 174.499C250.367 174.381 250.475 174.335 250.505 174.327L250.458 174.352L250.887 174.171C251.218 174.02 251.545 173.868 251.867 173.709C252.508 173.389 253.157 173.048 253.75 172.682C254.511 172.224 255.246 171.723 255.968 171.21L256.492 170.823L256.612 170.739L256.69 170.676L256.754 170.634C257.102 170.365 257.446 170.087 257.786 169.793C259.128 168.691 260.394 167.504 261.577 166.239C262.08 165.709 262.578 165.15 263.042 164.586C265.073 164.84 267.043 165.435 268.866 166.344Z" fill="#BFECFF"/>
<path d="M278.456 176.224C277.283 177.978 275.976 179.643 274.545 181.203C273.123 182.795 271.573 184.272 269.907 185.619C266.086 188.662 261.812 191.114 257.232 192.891C253.864 194.215 250.344 195.133 246.749 195.625C246.001 195.73 245.253 195.818 244.501 195.89H244.385C243.568 195.966 242.747 195.994 241.927 195.974C241.311 194.134 240.906 192.232 240.719 190.304V190.279H240.805H240.929C241.628 190.34 242.33 190.358 243.031 190.334L243.568 190.309C243.998 190.283 244.428 190.25 244.832 190.204L245.318 190.174H245.348C247.307 189.902 249.246 189.509 251.155 188.996C252.203 188.706 253.243 188.378 254.266 188.008C254.804 187.815 255.341 187.613 255.874 187.398C255.939 187.366 256.007 187.338 256.076 187.314H256.05H256.076L256.777 187.007C258.755 186.124 260.671 185.111 262.51 183.975C263.37 183.445 264.229 182.873 265.025 182.292L265.145 182.2L265.291 182.095C265.472 181.952 265.648 181.813 265.824 181.674C266.215 181.363 266.593 181.043 266.972 180.715C268.471 179.402 269.869 177.983 271.154 176.467C271.321 176.27 271.489 176.047 271.657 175.862C271.691 175.816 271.73 175.773 271.768 175.727C271.781 175.708 271.796 175.69 271.811 175.673L271.867 175.601C272.129 175.26 272.392 174.911 272.645 174.558C273.148 173.881 273.614 173.179 274.042 172.455C274.321 171.967 274.597 171.484 274.85 170.987C276.291 172.563 277.504 174.325 278.456 176.224Z" fill="#BFECFF"/>
<path d="M280.089 180.455C279.95 181.129 279.774 181.796 279.561 182.452C279.427 182.852 279.286 183.247 279.131 183.638C279.133 183.629 279.133 183.619 279.131 183.609C279.065 183.727 279.016 183.852 278.985 183.983L279.011 183.933C279.011 183.971 278.976 184.013 278.963 184.051C278.95 184.088 278.963 184.004 278.963 183.983C278.882 184.164 278.796 184.349 278.71 184.53C278.286 185.394 277.817 186.237 277.304 187.053C276.784 187.874 276.217 188.664 275.628 189.438L275.447 189.657L275.018 190.162C274.678 190.557 274.33 190.944 273.973 191.327C272.695 192.692 271.309 193.957 269.83 195.112L269.817 195.15L269.774 195.183L269.735 195.217L269.666 195.272H269.632L269.133 195.633C268.738 195.907 268.343 196.176 267.939 196.432C267.185 196.92 266.424 197.363 265.656 197.761C265.012 198.089 264.358 198.398 263.696 198.687L263.189 198.905L262.957 199.006L263.288 198.868C262.909 199.049 262.517 199.204 262.115 199.33C260.458 199.96 258.77 200.506 257.056 200.966C256.162 201.207 255.263 201.42 254.361 201.605C253.957 201.685 253.548 201.765 253.144 201.833C252.892 201.88 252.639 201.922 252.384 201.959L251.954 202.009H252.027H251.902H251.842C250.119 202.205 248.38 202.242 246.65 202.119L246.246 202.072H246.315C246.242 202.072 246.169 202.072 246.1 202.047H246.242C246.044 202.013 245.842 201.98 245.649 201.938C245.352 201.875 245.051 201.803 244.759 201.723C246.303 204.102 248.315 206.156 250.677 207.767H250.798C254.809 207.412 258.754 206.54 262.532 205.172C265.914 203.982 269.211 202.506 272.129 200.432C275.411 198.122 278.31 195.332 280.725 192.159C280.979 190.678 281.105 189.178 281.104 187.676C281.103 185.235 280.762 182.805 280.089 180.455ZM279.066 183.819L279.019 183.916C279.019 183.865 279.062 183.819 279.079 183.773L279.109 183.697C279.098 183.731 279.083 183.763 279.066 183.794V183.819Z" fill="#BFECFF"/>
<path d="M244.265 192.121C243.99 192.121 243.724 192.024 243.516 191.848C243.307 191.672 243.171 191.429 243.13 191.162C242.957 190.008 242.869 188.843 242.868 187.676C242.868 179.878 246.685 172.871 252.823 169.393C252.953 169.319 253.098 169.271 253.247 169.252C253.397 169.232 253.549 169.242 253.695 169.28C253.841 169.318 253.978 169.384 254.097 169.474C254.217 169.563 254.318 169.675 254.394 169.803C254.469 169.931 254.518 170.072 254.538 170.219C254.558 170.365 254.548 170.514 254.509 170.657C254.47 170.8 254.403 170.933 254.311 171.051C254.22 171.168 254.105 171.267 253.975 171.341C248.546 174.419 245.172 180.677 245.172 187.676C245.171 188.733 245.249 189.788 245.404 190.834C245.446 191.127 245.368 191.424 245.186 191.66C245.005 191.897 244.736 192.053 244.437 192.096C244.38 192.109 244.323 192.117 244.265 192.121Z" fill="white"/>
<path d="M246.964 199.705C246.762 199.705 246.565 199.654 246.39 199.557C246.215 199.459 246.069 199.319 245.966 199.149C245.222 197.899 244.607 196.579 244.131 195.209C244.033 194.926 244.053 194.617 244.187 194.35C244.321 194.082 244.558 193.877 244.847 193.781C245.135 193.684 245.451 193.704 245.725 193.835C245.998 193.966 246.207 194.199 246.306 194.481C246.734 195.708 247.286 196.89 247.952 198.01C248.028 198.138 248.077 198.281 248.097 198.428C248.116 198.576 248.106 198.725 248.066 198.869C248.026 199.012 247.957 199.147 247.864 199.264C247.771 199.382 247.655 199.48 247.522 199.553C247.353 199.65 247.16 199.703 246.964 199.705Z" fill="white"/>
</g>
<g clip-path="url(#clip22_1968_4075)">
<path d="M47.0474 209.753C46.3726 216.125 49.0374 222.08 49.5446 228.347C49.8047 231.244 49.41 234.162 48.3884 236.893C48.1007 237.823 47.6355 238.69 47.0173 239.45C46.8983 239.622 46.7361 239.761 46.5465 239.854C46.3568 239.946 46.146 239.99 45.9342 239.98C45.5044 239.888 45.2637 239.408 45.1261 239.038C44.8124 238.197 44.6963 237.107 45.2422 236.342C45.788 235.577 46.4156 235.585 47.1248 236.018C48.5345 236.859 49.6435 238.626 50.1334 240.144C51.1263 243.202 50.1334 246.158 48.6162 248.871C47.1333 251.512 45.2637 253.918 43.8883 256.639C42.818 258.742 41.9326 261.114 41.9111 263.499C41.9111 265.206 42.2808 267.322 43.8711 268.306C44.2655 268.534 44.705 268.678 45.1605 268.727C45.6161 268.79 45.8095 268.113 45.3539 268.049C43.0759 267.742 42.6031 265.185 42.6504 263.314C42.7192 260.563 43.9398 257.876 45.3152 255.525C48.1305 250.65 53.2797 245.111 50.5246 239.122C50.122 238.259 49.603 237.453 48.9815 236.725C48.4372 235.99 47.6924 235.42 46.8325 235.08C46.4629 234.964 46.0651 234.966 45.6966 235.085C45.3281 235.205 45.0079 235.436 44.7823 235.745C44.4987 236.133 44.3037 236.577 44.2102 237.046C44.1168 237.514 44.1272 237.997 44.2407 238.462C44.3826 239.303 44.7995 240.401 45.7451 240.636C46.6906 240.872 47.4901 240.081 47.9715 239.374C48.4856 238.549 48.8982 237.666 49.2007 236.746C49.7395 235.306 50.0891 233.805 50.2409 232.279C50.9243 225.487 47.7351 219.103 47.662 212.369C47.6519 211.493 47.6935 210.616 47.7867 209.745C47.8339 209.295 47.1162 209.299 47.0689 209.745L47.0474 209.753Z" fill="#3A5769"/>
<path d="M56.9248 213.483C57.5781 214.228 58.2572 215.721 56.6712 217.395C55.0852 219.069 52.545 218.017 52.545 218.017C52.1821 218.831 51.5791 219.52 50.8132 219.996C50.0474 220.472 49.1537 220.713 48.2469 220.688C47.3401 220.712 46.4467 220.471 45.681 219.995C44.9152 219.519 44.3121 218.831 43.9487 218.017C43.9487 218.017 41.4128 219.073 39.8268 217.395C38.2408 215.717 38.9199 214.228 39.5689 213.483C40.622 212.285 44.5849 209.513 44.5849 209.513H51.9089C51.9089 209.513 55.876 212.281 56.9248 213.483Z" fill="#3FC6FF"/>
<path d="M68.478 186.663C68.4795 188.166 68.353 189.665 68.0998 191.147C66.2817 201.829 58.068 209.892 48.2296 209.892C44.596 209.878 41.0525 208.784 38.0688 206.754C35.702 205.155 33.683 203.112 32.1288 200.744C30.938 198.951 29.9929 197.012 29.3178 194.978C28.7013 193.132 28.2962 191.225 28.1101 189.292V189.267C28.0284 188.426 27.9854 187.542 27.9854 186.663C27.9815 184.758 28.1847 182.857 28.5914 180.994C29.016 179.029 29.6767 177.12 30.56 175.308C34.0329 168.221 40.6434 163.435 48.2296 163.435C48.9668 163.434 49.7033 163.481 50.4345 163.574C52.4647 163.828 54.4349 164.422 56.2584 165.332C58.5453 166.487 60.5872 168.057 62.2758 169.958C63.706 171.541 64.9078 173.309 65.8475 175.211C66.5198 176.562 67.0665 177.97 67.4808 179.417C68.1496 181.776 68.4851 184.215 68.478 186.663Z" fill="#3FC6FF"/>
<path d="M51.9136 209.93H44.5509C44.4369 209.93 44.3276 209.885 44.247 209.806C44.1664 209.727 44.1211 209.621 44.1211 209.509C44.1211 209.397 44.1664 209.29 44.247 209.212C44.3276 209.133 44.4369 209.088 44.5509 209.088H51.9136C52.0276 209.088 52.1369 209.133 52.2175 209.212C52.2981 209.29 52.3434 209.397 52.3434 209.509C52.3434 209.621 52.2981 209.727 52.2175 209.806C52.1369 209.885 52.0276 209.93 51.9136 209.93Z" fill="#3A5769"/>
<path d="M44.0903 169.651C44.0258 169.697 43.9442 169.752 43.8926 169.798C44.0989 169.525 44.1977 169.542 44.0903 169.651Z" fill="#BFECFF"/>
<path d="M56.258 165.332C55.0829 166.961 53.778 168.496 52.3553 169.924C51.0137 171.282 49.5775 172.546 48.0572 173.709C46.4786 174.959 44.8014 176.084 43.0413 177.074C40.05 178.714 36.812 179.879 33.4479 180.527C33.1986 180.573 32.945 180.62 32.6914 180.657C32.1198 180.746 31.5438 180.817 30.9722 180.876C30.1767 180.954 29.3776 180.992 28.5781 180.99C29.0071 179.026 29.6722 177.118 30.5596 175.308H30.6025H30.8948C30.9595 175.29 31.0257 175.277 31.0925 175.27L31.4192 175.211C31.8963 175.131 32.3648 175.043 32.8333 174.938C33.0954 174.879 33.3576 174.82 33.6198 174.752C34.9034 174.429 36.1628 174.02 37.3893 173.529L37.501 173.487C37.7589 173.369 37.8664 173.323 37.8965 173.314L37.8492 173.339L38.279 173.158C38.6099 173.007 38.9366 172.856 39.259 172.696C39.8994 172.376 40.5484 172.036 41.1415 171.67C41.9023 171.211 42.6373 170.711 43.3594 170.198L43.8837 169.811L44.0041 169.727L44.0814 169.663L44.1459 169.621C44.4941 169.352 44.8379 169.075 45.1775 168.78C46.5197 167.679 47.7861 166.491 48.9684 165.226C49.4713 164.696 49.9699 164.137 50.4341 163.573C52.4642 163.827 54.4344 164.422 56.258 165.332Z" fill="#BFECFF"/>
<path d="M65.8469 175.211C64.6739 176.965 63.3664 178.63 61.9356 180.19C60.5141 181.783 58.9631 183.259 57.2979 184.607C53.4769 187.649 49.2023 190.102 44.6228 191.878C41.2546 193.202 37.7344 194.12 34.1396 194.612C33.3918 194.717 32.6439 194.806 31.8917 194.877H31.7757C30.9586 194.953 30.1376 194.981 29.3171 194.961C28.7018 193.121 28.2968 191.219 28.1094 189.292V189.267H28.1953H28.32C29.0188 189.327 29.7207 189.345 30.4218 189.321L30.959 189.296C31.3888 189.271 31.8187 189.237 32.2227 189.191L32.7084 189.161H32.7385C34.6975 188.889 36.637 188.496 38.5452 187.984C39.594 187.694 40.6341 187.366 41.6571 186.995C42.1943 186.802 42.7316 186.6 43.2645 186.386C43.3298 186.353 43.3973 186.325 43.4666 186.301H43.4408H43.4666L44.1672 185.994C46.1461 185.111 48.0617 184.098 49.9008 182.962C50.7605 182.432 51.6201 181.86 52.4152 181.28L52.5356 181.187L52.6817 181.082C52.8623 180.939 53.0385 180.8 53.2147 180.662C53.6058 180.35 53.9841 180.031 54.3623 179.703C55.8617 178.39 57.2595 176.97 58.5444 175.455C58.712 175.257 58.8796 175.034 59.0472 174.849C59.0816 174.803 59.1203 174.761 59.159 174.715C59.172 174.695 59.1863 174.677 59.202 174.66L59.2579 174.588C59.52 174.248 59.7822 173.899 60.0358 173.545C60.5381 172.868 61.0044 172.166 61.4327 171.442C61.7121 170.955 61.9872 170.471 62.2407 169.975C63.6817 171.551 64.8951 173.312 65.8469 175.211Z" fill="#BFECFF"/>
<path d="M67.4809 179.442C67.3417 180.117 67.1652 180.784 66.9523 181.44C66.819 181.839 66.6772 182.235 66.5225 182.626C66.5242 182.616 66.5242 182.606 66.5225 182.596C66.4564 182.714 66.4072 182.84 66.3763 182.971L66.4021 182.92C66.4021 182.958 66.3677 183 66.3548 183.038C66.3419 183.076 66.3548 182.992 66.3548 182.971C66.2732 183.151 66.1872 183.336 66.1012 183.517C65.6779 184.382 65.2088 185.224 64.6958 186.041C64.1757 186.861 63.6083 187.652 63.0195 188.425L62.839 188.644L62.4092 189.149C62.0696 189.544 61.7215 189.931 61.3647 190.314C60.0863 191.679 58.701 192.945 57.2213 194.099L57.2084 194.137L57.1655 194.171L57.1268 194.204L57.058 194.259H57.0236L56.525 194.621C56.1296 194.894 55.7342 195.163 55.3302 195.42C54.5766 195.908 53.8158 196.351 53.0479 196.749C52.4031 197.077 51.7498 197.385 51.0879 197.674L50.5807 197.893L50.3486 197.994L50.6796 197.855C50.3005 198.037 49.9083 198.191 49.5062 198.317C47.8498 198.948 46.1613 199.494 44.4473 199.954C43.5533 200.195 42.655 200.408 41.7524 200.593C41.3484 200.673 40.94 200.753 40.536 200.82C40.2839 200.868 40.0303 200.91 39.7753 200.946L39.3454 200.997H39.4185H39.2939H39.2337C37.5104 201.193 35.7719 201.229 34.0416 201.106L33.6375 201.06H33.7063C33.6332 201.06 33.5602 201.06 33.4914 201.034H33.6332C33.4355 201.001 33.2335 200.967 33.0401 200.925C32.7435 200.862 32.4427 200.79 32.1504 200.711C33.6947 203.089 35.7065 205.143 38.0689 206.754H38.1893C42.2004 206.4 46.146 205.527 49.9231 204.159C53.3057 202.969 56.6024 201.493 59.5208 199.419C62.8027 197.109 65.7021 194.319 68.1171 191.147C68.3703 189.665 68.4968 188.165 68.4953 186.663C68.4945 184.222 68.1532 181.793 67.4809 179.442ZM66.458 182.807L66.4107 182.903C66.4107 182.853 66.4537 182.807 66.4709 182.76L66.501 182.685C66.4892 182.718 66.4748 182.75 66.458 182.781V182.807Z" fill="#BFECFF"/>
<path d="M31.6567 191.109C31.3814 191.109 31.1154 191.012 30.9071 190.836C30.6989 190.66 30.5622 190.416 30.522 190.15C30.3482 188.995 30.2606 187.83 30.2598 186.663C30.2598 178.866 34.0765 171.859 40.2142 168.381C40.3449 168.307 40.4892 168.258 40.6388 168.239C40.7885 168.22 40.9406 168.229 41.0865 168.267C41.2324 168.305 41.3691 168.371 41.489 168.461C41.6089 168.551 41.7095 168.663 41.7852 168.791C41.8608 168.919 41.91 169.06 41.9298 169.206C41.9497 169.353 41.9399 169.501 41.901 169.644C41.8621 169.787 41.7948 169.921 41.703 170.038C41.6113 170.155 41.4968 170.254 41.3661 170.328C35.9376 173.407 32.5636 179.665 32.5636 186.663C32.5631 187.72 32.6407 188.776 32.7957 189.822C32.8374 190.114 32.7592 190.411 32.578 190.648C32.3968 190.884 32.1274 191.041 31.8286 191.083C31.772 191.096 31.7145 191.104 31.6567 191.109Z" fill="white"/>
<path d="M34.3552 198.692C34.154 198.692 33.9562 198.641 33.7813 198.544C33.6064 198.446 33.4605 198.306 33.358 198.136C32.6136 196.886 31.9988 195.566 31.5227 194.196C31.4241 193.913 31.4441 193.604 31.5783 193.337C31.7126 193.069 31.95 192.864 32.2384 192.768C32.5268 192.671 32.8425 192.691 33.1162 192.822C33.3899 192.953 33.599 193.186 33.6976 193.468C34.1257 194.695 34.6771 195.877 35.3438 196.997C35.4197 197.125 35.4688 197.268 35.4883 197.415C35.5077 197.563 35.4972 197.713 35.4572 197.856C35.4173 197.999 35.3487 198.134 35.2555 198.251C35.1622 198.369 35.0462 198.467 34.914 198.54C34.7444 198.638 34.5518 198.69 34.3552 198.692Z" fill="white"/>
</g>
<defs>
<clipPath id="clip0_1968_4075">
<rect width="26.323" height="70.8696" fill="white" transform="translate(335.758 25.7454)"/>
</clipPath>
<clipPath id="clip1_1968_4075">
<rect width="215.646" height="150.851" fill="white" transform="translate(13.9639 -35) rotate(6.22396)"/>
</clipPath>
<clipPath id="clip2_1968_4075">
<rect width="215.646" height="150.851" fill="white" transform="matrix(-0.994106 0.108415 0.108415 0.994106 370.935 -30.9502)"/>
</clipPath>
<clipPath id="clip3_1968_4075">
<rect width="35.4348" height="18.2236" fill="white" transform="translate(245.653 98.6396)"/>
</clipPath>
<clipPath id="clip4_1968_4075">
<rect width="16.1988" height="19.236" fill="white" transform="translate(70.5029 24.7329)"/>
</clipPath>
<clipPath id="clip5_1968_4075">
<rect width="6.07453" height="7.08696" fill="white" transform="translate(97.8398 49.031)"/>
</clipPath>
<clipPath id="clip6_1968_4075">
<rect width="6.07453" height="7.08696" fill="white" transform="translate(309.436 64.2173)"/>
</clipPath>
<clipPath id="clip7_1968_4075">
<rect width="6.07453" height="7.08696" fill="white" transform="translate(280.075 225.193)"/>
</clipPath>
<clipPath id="clip8_1968_4075">
<rect width="61.7578" height="116.429" fill="white" transform="translate(149.535 107.751)"/>
</clipPath>
<clipPath id="clip9_1968_4075">
<rect width="37.4596" height="36.4472" fill="white" transform="translate(27.9814 119.901)"/>
</clipPath>
<clipPath id="clip10_1968_4075">
<rect width="37.4596" height="36.4472" fill="white" transform="translate(296.172 193.619) rotate(-112.065)"/>
</clipPath>
<clipPath id="clip11_1968_4075">
<rect width="4.04969" height="4.04969" fill="white" transform="translate(286.15 54.093)"/>
</clipPath>
<clipPath id="clip12_1968_4075">
<rect width="4.04969" height="4.04969" fill="white" transform="translate(139.349 103.702)"/>
</clipPath>
<clipPath id="clip13_1968_4075">
<rect width="4.04969" height="4.04969" fill="white" transform="translate(331.709 64.2173)"/>
</clipPath>
<clipPath id="clip14_1968_4075">
<rect width="4.04969" height="4.04969" fill="white" transform="translate(302.349 225.193)"/>
</clipPath>
<clipPath id="clip15_1968_4075">
<rect width="4.04969" height="4.04969" fill="white" transform="translate(184.907 113.826)"/>
</clipPath>
<clipPath id="clip16_1968_4075">
<rect width="12.1491" height="12.1491" fill="white" transform="translate(303.36 36.8818)"/>
</clipPath>
<clipPath id="clip17_1968_4075">
<rect width="12.1491" height="12.1491" fill="white" transform="translate(156.56 86.4907)"/>
</clipPath>
<clipPath id="clip18_1968_4075">
<rect width="12.1491" height="12.1491" fill="white" transform="translate(75.5654 232.28)"/>
</clipPath>
<clipPath id="clip19_1968_4075">
<rect width="40.4969" height="109.342" fill="white" transform="translate(92.7773 126.988)"/>
</clipPath>
<clipPath id="clip20_1968_4075">
<rect width="34.4224" height="91.118" fill="white" transform="translate(321.585 199.882)"/>
</clipPath>
<clipPath id="clip21_1968_4075">
<rect width="40.4969" height="105.292" fill="white" transform="translate(240.591 164.447)"/>
</clipPath>
<clipPath id="clip22_1968_4075">
<rect width="40.4969" height="105.292" fill="white" transform="translate(27.9814 163.435)"/>
</clipPath>
</defs>
</svg>
