<svg width="719" height="494" viewBox="0 0 719 494" fill="none" xmlns="http://www.w3.org/2000/svg">
<g clip-path="url(#clip0_2028_29406)">
<path d="M647.02 62.2891C646.21 70.2052 649.407 77.604 650.016 85.3894C650.328 88.9888 649.854 92.6137 648.629 96.0069C648.284 97.1617 647.725 98.2397 646.984 99.1838C646.841 99.3971 646.646 99.5697 646.419 99.6849C646.191 99.8002 645.938 99.8543 645.684 99.8421C645.168 99.7272 644.88 99.1315 644.715 98.6717C644.338 97.6267 644.199 96.2734 644.854 95.3224C645.509 94.3714 646.262 94.3819 647.113 94.92C648.804 95.9651 650.134 98.1596 650.722 100.046C651.913 103.845 650.722 107.518 648.902 110.888C647.123 114.169 644.88 117.158 643.23 120.539C641.945 123.151 640.883 126.098 640.857 129.061C640.857 131.182 641.301 133.811 643.209 135.033C643.682 135.317 644.209 135.495 644.756 135.556C645.303 135.634 645.535 134.793 644.988 134.715C642.255 134.333 641.688 131.156 641.744 128.831C641.827 125.414 643.291 122.075 644.942 119.154C648.319 113.098 654.497 106.217 651.192 98.7762C650.709 97.7041 650.086 96.7024 649.34 95.7979C648.687 94.8851 647.794 94.177 646.762 93.7548C646.318 93.6105 645.841 93.6126 645.399 93.761C644.957 93.9094 644.573 94.1964 644.302 94.5804C643.962 95.0633 643.728 95.6144 643.616 96.1967C643.504 96.779 643.516 97.3789 643.652 97.9558C643.823 99.0009 644.323 100.365 645.457 100.657C646.592 100.95 647.551 99.9675 648.128 99.0897C648.745 98.0638 649.24 96.9676 649.603 95.824C650.25 94.0354 650.669 92.1707 650.851 90.2749C651.671 81.8363 647.845 73.9046 647.757 65.5392C647.745 64.4503 647.795 63.3617 647.907 62.2787C647.963 61.7196 647.102 61.7248 647.046 62.2787L647.02 62.2891Z" fill="#3A5769"/>
<path d="M658.868 66.954C659.652 67.8789 660.467 69.7338 658.564 71.8134C656.661 73.893 653.613 72.5867 653.613 72.5867C653.178 73.5975 652.454 74.4534 651.536 75.0446C650.617 75.6358 649.545 75.9353 648.457 75.9046C647.369 75.9346 646.297 75.6348 645.378 75.0437C644.459 74.4526 643.736 73.597 643.3 72.5867C643.3 72.5867 640.257 73.8982 638.354 71.8134C636.452 69.7285 637.266 67.8789 638.045 66.954C639.308 65.4648 644.063 62.0215 644.063 62.0215H652.85C652.85 62.0215 657.61 65.4596 658.868 66.954Z" fill="#3FC6FF"/>
<path d="M672.729 33.6181C672.731 35.4843 672.579 37.3475 672.275 39.1881C670.094 52.4599 660.24 62.4765 648.436 62.4765C644.076 62.459 639.825 61.0996 636.245 58.5786C633.406 56.5918 630.983 54.0539 629.119 51.1118C627.69 48.8838 626.556 46.4753 625.746 43.9482C625.006 41.6551 624.52 39.2857 624.297 36.8838V36.8525C624.199 35.8075 624.148 34.7102 624.148 33.6181C624.143 31.2508 624.387 28.8897 624.875 26.5747C625.384 24.1337 626.177 21.7624 627.236 19.5103C631.403 10.706 639.334 4.75977 648.436 4.75977C649.32 4.75928 650.204 4.81687 651.081 4.9322C653.517 5.24774 655.881 5.9866 658.069 7.1163C660.812 8.55216 663.262 10.5025 665.288 12.8639C667.004 14.8308 668.446 17.0266 669.573 19.3901C670.38 21.0687 671.036 22.8175 671.533 24.6152C672.335 27.5468 672.738 30.5759 672.729 33.6181Z" fill="#3FC6FF"/>
<path d="M652.85 62.5177H644.017C643.88 62.5177 643.749 62.4626 643.652 62.3646C643.555 62.2667 643.501 62.1337 643.501 61.9952C643.501 61.8566 643.555 61.7237 643.652 61.6257C643.749 61.5277 643.88 61.4727 644.017 61.4727H652.85C652.987 61.4727 653.118 61.5277 653.215 61.6257C653.312 61.7237 653.366 61.8566 653.366 61.9952C653.366 62.1337 653.312 62.2667 653.215 62.3646C653.118 62.4626 652.987 62.5177 652.85 62.5177Z" fill="#3A5769"/>
<path d="M643.48 12.4662C643.402 12.5242 643.303 12.5928 643.24 12.6508C643.49 12.3079 643.61 12.329 643.48 12.4662Z" fill="#BFECFF"/>
<path d="M658.071 7.09816C656.661 9.12224 655.095 11.0301 653.388 12.804C651.779 14.4903 650.056 16.0616 648.232 17.5066C646.338 19.0586 644.325 20.4564 642.214 21.6867C638.625 23.7238 634.74 25.1717 630.704 25.9765C630.405 26.034 630.101 26.0915 629.796 26.1385C629.11 26.2482 628.419 26.3371 627.734 26.4102C626.779 26.5069 625.821 26.554 624.861 26.5513C625.376 24.1114 626.174 21.7419 627.239 19.4922H627.29H627.641C627.718 19.4699 627.798 19.4542 627.878 19.4451L628.27 19.372C628.842 19.2727 629.404 19.163 629.967 19.0323C630.281 18.9592 630.596 18.886 630.91 18.8024C632.45 18.4008 633.961 17.8928 635.433 17.2819L635.567 17.2297C635.876 17.0834 636.005 17.0259 636.041 17.0154L635.984 17.0468L636.5 16.8221C636.897 16.634 637.289 16.4459 637.676 16.2474C638.444 15.8502 639.223 15.427 639.935 14.9724C640.847 14.4029 641.729 13.7811 642.595 13.1436L643.225 12.6629L643.369 12.5584L643.462 12.48L643.539 12.4278C643.957 12.0934 644.369 11.7485 644.777 11.3828C646.387 10.014 647.906 8.53909 649.325 6.96754C649.928 6.30917 650.526 5.61423 651.083 4.91406C653.519 5.2296 655.883 5.96847 658.071 7.09816Z" fill="#BFECFF"/>
<path d="M669.584 19.4037C668.177 21.5834 666.608 23.6515 664.891 25.5903C663.186 27.5683 661.325 29.4031 659.327 31.0766C654.743 34.8569 649.614 37.9036 644.12 40.1109C640.079 41.7556 635.855 42.8961 631.543 43.5072C630.645 43.6378 629.748 43.7476 628.846 43.8364H628.706C627.726 43.9312 626.741 43.9661 625.757 43.9409C625.018 41.6545 624.532 39.2923 624.308 36.8974V36.8661H624.411H624.56C625.399 36.941 626.241 36.9637 627.082 36.934L627.727 36.9027C628.242 36.8713 628.758 36.8295 629.243 36.772L629.825 36.7355H629.861C632.212 36.3973 634.539 35.9087 636.828 35.2724C638.086 34.9119 639.334 34.5043 640.562 34.0445C641.206 33.8042 641.851 33.5534 642.49 33.2869C642.569 33.2464 642.65 33.2115 642.733 33.1824H642.702H642.733L643.573 32.8009C645.947 31.7037 648.246 30.4451 650.452 29.0336C651.484 28.3753 652.515 27.6646 653.469 26.9436L653.613 26.8286L653.789 26.698C654.005 26.5203 654.217 26.3479 654.428 26.1755C654.897 25.7888 655.351 25.3917 655.805 24.9842C657.604 23.3531 659.281 21.5891 660.823 19.7068C661.024 19.4612 661.225 19.1843 661.426 18.9544C661.467 18.8969 661.514 18.8446 661.56 18.7872C661.576 18.7633 661.593 18.7406 661.612 18.7192L661.679 18.6304C661.993 18.2072 662.308 17.7735 662.612 17.3346C663.215 16.4935 663.774 15.6215 664.288 14.722C664.623 14.1159 664.953 13.515 665.257 12.8984C666.986 14.8563 668.442 17.0451 669.584 19.4037Z" fill="#BFECFF"/>
<path d="M671.544 24.627C671.377 25.4653 671.165 26.2938 670.909 27.1089C670.75 27.6053 670.579 28.0964 670.394 28.5824C670.396 28.5703 670.396 28.5579 670.394 28.5458C670.315 28.6919 670.256 28.8484 670.218 29.0108L670.249 28.9481C670.249 28.9952 670.208 29.0474 670.193 29.0944C670.177 29.1415 670.193 29.037 670.193 29.0108C670.095 29.2355 669.992 29.4654 669.888 29.6901C669.381 30.7641 668.818 31.8106 668.202 32.8252C667.578 33.8441 666.898 34.8264 666.191 35.7878L665.974 36.0595L665.459 36.6865C665.051 37.1777 664.634 37.6584 664.206 38.1339C662.672 39.8301 661.01 41.4024 659.235 42.8365L659.219 42.8835L659.168 42.9253L659.121 42.9671L659.039 43.0351H658.997L658.399 43.4844C657.925 43.8241 657.45 44.1585 656.966 44.4772C656.061 45.0833 655.149 45.6337 654.227 46.1283C653.454 46.5359 652.67 46.9191 651.876 47.2779L651.267 47.5496L650.989 47.675L651.386 47.5025C650.931 47.7285 650.461 47.9206 649.978 48.0773C647.991 48.8603 645.965 49.5387 643.909 50.1099C642.836 50.4095 641.758 50.6742 640.675 50.9041C640.191 51.0034 639.701 51.1027 639.216 51.1863C638.914 51.2455 638.609 51.2977 638.303 51.343L637.788 51.4057H637.875H637.726H637.654C635.586 51.6495 633.5 51.695 631.424 51.5416L630.94 51.4841H631.022C630.934 51.4841 630.847 51.4841 630.764 51.4527H630.934C630.697 51.4109 630.455 51.3691 630.223 51.3169C629.867 51.2385 629.506 51.1497 629.155 51.0504C631.008 54.0051 633.422 56.5573 636.256 58.5589H636.401C641.213 58.1184 645.947 57.0343 650.478 55.335C654.537 53.8563 658.492 52.0223 661.993 49.4463C665.931 46.5764 669.41 43.1099 672.307 39.1685C672.611 37.3278 672.763 35.4647 672.761 33.5985C672.76 30.5658 672.35 27.5474 671.544 24.627ZM670.316 28.8071L670.26 28.9272C670.26 28.8645 670.311 28.8071 670.332 28.7496L670.368 28.6555C670.354 28.6968 670.337 28.737 670.316 28.7757V28.8071Z" fill="#BFECFF"/>
<path d="M628.546 39.114C628.216 39.1139 627.897 38.9935 627.647 38.7748C627.397 38.5561 627.233 38.2537 627.185 37.9227C626.976 36.4885 626.871 35.0408 626.87 33.5911C626.87 23.9037 631.449 15.1987 638.813 10.8775C638.97 10.7855 639.143 10.7258 639.323 10.7016C639.502 10.6775 639.685 10.6894 639.86 10.7367C640.035 10.784 640.199 10.8658 640.343 10.9773C640.486 11.0889 640.607 11.2281 640.698 11.3869C640.789 11.5458 640.848 11.7212 640.872 11.9031C640.895 12.0851 640.884 12.27 640.837 12.4473C640.79 12.6247 640.71 12.791 640.599 12.9367C640.489 13.0824 640.352 13.2048 640.195 13.2967C633.682 17.1215 629.634 24.8965 629.634 33.5911C629.634 34.9042 629.727 36.2156 629.913 37.5152C629.963 37.8787 629.869 38.2476 629.651 38.5413C629.434 38.835 629.111 39.0296 628.752 39.0827C628.684 39.0984 628.615 39.1089 628.546 39.114Z" fill="white"/>
<path d="M631.784 48.5753C631.543 48.5758 631.305 48.5124 631.095 48.3914C630.886 48.2705 630.711 48.0961 630.588 47.8856C629.694 46.3321 628.957 44.6919 628.386 42.9897C628.267 42.6391 628.291 42.2552 628.452 41.9225C628.613 41.5899 628.898 41.3356 629.244 41.2158C629.59 41.0959 629.969 41.1202 630.297 41.2834C630.626 41.4465 630.877 41.7351 630.995 42.0857C631.509 43.6096 632.17 45.0781 632.97 46.4696C633.061 46.6297 633.12 46.8064 633.143 46.9896C633.167 47.1728 633.154 47.3589 633.106 47.5372C633.058 47.7154 632.976 47.8823 632.864 48.0282C632.752 48.1741 632.613 48.2961 632.454 48.3872C632.251 48.5081 632.02 48.573 631.784 48.5753Z" fill="white"/>
<path d="M94.1633 111.11L73.3205 177.477L30.1431 123.006L94.1633 111.11Z" fill="#FF4E4F"/>
<path d="M65.489 135.051C60.504 129.269 53.1617 134.555 55.7345 139.633C58.3074 144.712 68.1033 148.955 68.1033 148.955C68.1033 148.955 75.7034 141.497 76.29 135.83C76.8766 130.164 68.0716 127.863 65.489 135.051Z" fill="white"/>
<path d="M177.917 86.5293L165.557 154.984L115.894 106.385L177.917 86.5293Z" fill="#FFBC38"/>
<path d="M152.445 113.862C146.728 108.755 140.156 114.932 143.344 119.648C146.531 124.364 156.738 127.331 156.738 127.331C156.738 127.331 163.338 118.979 163.206 113.286C163.073 107.594 154.135 106.42 152.445 113.862Z" fill="white"/>
<path d="M261.581 48.9765L257.873 118.448L202.533 76.4588L261.581 48.9765Z" fill="#3FC6FF"/>
<path d="M239.754 79.306C233.494 74.9566 227.695 81.909 231.443 86.1835C235.191 90.4579 245.697 92.1274 245.697 92.1274C245.697 92.1274 251.208 83.017 250.369 77.3836C249.529 71.7502 240.477 71.7163 239.754 79.306Z" fill="white"/>
<path d="M334.925 3.15616L341.098 72.4485L280.356 38.7536L334.925 3.15616Z" fill="#FF4E4F"/>
<path d="M317.601 36.2995C310.789 32.8852 306.027 40.5897 310.351 44.2879C314.674 47.9861 325.302 48.1499 325.302 48.1499C325.302 48.1499 329.456 38.3467 327.824 32.8887C326.191 27.4307 317.24 28.6754 317.601 36.2995Z" fill="white"/>
<path d="M401.067 -52.4146L417.208 15.2305L352.221 -9.26828L401.067 -52.4146Z" fill="#FFBC38"/>
<path d="M5.79176 125.785C5.79176 125.785 245.213 112.725 412.52 -64.5776" stroke="#3A5769" stroke-width="3.75614" stroke-linecap="round" stroke-linejoin="round"/>
<path d="M625.081 118.535L645.924 184.902L689.101 130.432L625.081 118.535Z" fill="#FF4E4F"/>
<path d="M653.75 142.476C658.735 136.695 666.078 141.981 663.505 147.059C660.932 152.138 651.136 156.38 651.136 156.38C651.136 156.38 643.536 148.923 642.949 143.256C642.363 137.59 651.168 135.288 653.75 142.476Z" fill="white"/>
<path d="M541.328 93.9532L553.687 162.408L603.35 113.809L541.328 93.9532Z" fill="#FFBC38"/>
<path d="M566.8 121.288C572.518 116.181 579.089 122.357 575.902 127.074C572.714 131.79 562.507 134.757 562.507 134.757C562.507 134.757 555.907 126.405 556.04 120.712C556.172 115.02 565.11 113.846 566.8 121.288Z" fill="white"/>
<path d="M457.662 56.4023L461.37 125.874L516.711 83.8845L457.662 56.4023Z" fill="#3FC6FF"/>
<path d="M479.488 86.7318C485.748 82.3824 491.547 89.3348 487.799 93.6093C484.051 97.8837 473.545 99.5532 473.545 99.5532C473.545 99.5532 468.034 90.4428 468.874 84.8094C469.713 79.176 478.765 79.1421 479.488 86.7318Z" fill="white"/>
<path d="M384.32 10.5819L378.147 79.8743L438.889 46.1794L384.32 10.5819Z" fill="#FF4E4F"/>
<path d="M401.644 43.7253C408.456 40.311 413.218 48.0155 408.894 51.7137C404.571 55.4118 393.943 55.5756 393.943 55.5756C393.943 55.5756 389.789 45.7725 391.422 40.3145C393.054 34.8565 402.005 36.1012 401.644 43.7253Z" fill="white"/>
<path d="M318.177 -44.9888L302.036 22.6563L367.023 -1.8425L318.177 -44.9888Z" fill="#FFBC38"/>
<path d="M330.514 -9.71555C337.752 -12.0973 341.346 -3.79392 336.532 -0.754679C331.718 2.28456 321.185 0.918985 321.185 0.918985C321.185 0.918985 318.493 -9.38925 320.9 -14.5442C323.308 -19.6992 331.977 -17.2084 330.514 -9.71555Z" fill="white"/>
<path d="M713.452 133.21C713.452 133.21 474.031 120.151 306.724 -57.1518" stroke="#3A5769" stroke-width="3.75614" stroke-linecap="round" stroke-linejoin="round"/>
<path d="M530.308 217.385C531.475 217.126 532.663 216.979 533.856 216.946C533.967 216.945 534.071 216.941 534.178 216.942C534.687 216.934 533.984 216.932 534.284 216.943C534.583 216.954 534.754 216.962 534.983 216.979C535.535 217.016 536.085 217.082 536.629 217.178C537.103 217.262 537.572 217.347 538.041 217.488C537.679 217.392 538.259 217.559 538.363 217.595C538.604 217.668 538.844 217.752 539.086 217.853C539.507 218.013 539.923 218.187 540.33 218.38C540.53 218.475 540.73 218.571 540.933 218.687L541.163 218.814L541.391 218.937C541.216 218.837 541.186 218.816 541.291 218.884C542.025 219.311 542.727 219.789 543.392 220.315C543.702 220.559 544.002 220.818 544.294 221.085L544.674 221.444C544.755 221.522 544.946 221.731 544.656 221.402L544.893 221.642C545.387 222.162 545.85 222.711 546.278 223.287C546.454 223.529 546.626 223.774 546.795 224.026C546.85 224.163 546.957 224.274 547.031 224.404L547.166 224.625C547.325 224.88 546.962 224.233 547.12 224.511C547.344 224.935 547.544 225.371 547.721 225.817L547.833 226.092C547.99 226.48 547.795 225.793 547.805 225.954C547.806 226.108 547.825 226.261 547.862 226.411C547.914 226.539 547.799 225.885 547.861 226.163C547.895 226.315 547.924 226.055 547.826 226.282C547.729 226.509 547.638 226.739 547.54 226.949C547.699 226.642 547.569 226.938 547.492 226.969L547.198 227.342C547.016 227.581 547.198 227.342 547.25 227.32C547.156 227.403 547.063 227.49 546.964 227.563C546.866 227.636 546.823 227.654 546.765 227.704C546.487 227.938 547.007 227.64 546.813 227.685C546.721 227.708 546.633 227.744 546.55 227.792C546.245 227.959 546.832 227.771 546.622 227.763C546.535 227.767 546.449 227.78 546.365 227.801C546.027 227.888 546.743 227.813 546.393 227.789C546.355 227.805 546.02 227.72 546.315 227.788C546.61 227.856 546.315 227.788 546.244 227.75C545.95 227.561 546.524 227.918 546.321 227.791C546.119 227.663 546.12 227.541 546.35 227.862C546.297 227.811 546.249 227.754 546.209 227.693C546.058 227.319 546.363 228.072 546.209 227.693C546.182 227.61 546.149 227.53 546.111 227.451C546.04 227.276 546.044 227.285 546.125 227.484L546.079 227.26C545.994 226.796 545.989 226.321 546.066 225.854C546.103 225.574 546.16 225.303 546.215 225.027C546.316 224.534 546.155 225.195 546.242 224.917C546.293 224.753 546.355 224.59 546.419 224.431C546.505 224.215 546.606 224.005 546.721 223.802C546.529 224.139 546.826 223.677 546.903 223.579C546.981 223.481 547.361 223.101 547.059 223.372C547.245 223.209 547.438 223.053 547.638 222.906C547.667 222.894 548.013 222.677 547.756 222.825C547.499 222.974 547.857 222.785 547.885 222.773C548.081 222.693 548.273 222.616 548.469 222.536C548.545 222.505 548.627 222.472 548.703 222.441C549.1 222.28 548.333 222.503 548.756 222.42C548.974 222.381 549.19 222.338 549.407 222.31C549.625 222.283 549.857 222.266 550.085 222.251C550.222 222.245 550.361 222.244 550.499 222.243C550.447 222.264 550.152 222.224 550.499 222.243C551.032 222.27 551.562 222.326 552.087 222.41C552.535 222.512 552.978 222.636 553.413 222.782C553.701 222.858 553.037 222.664 553.503 222.812L553.796 222.902C554.089 222.993 554.38 223.091 554.669 223.2C555.611 223.556 556.526 223.977 557.407 224.461C557.835 224.69 557.122 224.278 557.524 224.529L557.769 224.678C557.969 224.801 558.164 224.926 558.357 225.057C558.798 225.354 559.219 225.679 559.619 226.029C559.704 226.1 559.781 226.167 559.856 226.242C559.856 226.242 560.213 226.588 560.043 226.414C559.872 226.241 560.232 226.619 560.214 226.604L560.479 226.899C560.843 227.316 561.178 227.757 561.481 228.219C561.632 228.439 561.764 228.656 561.904 228.891C561.74 228.61 561.885 228.844 561.904 228.891L562.124 229.309C562.382 229.8 562.6 230.286 562.776 230.766C562.968 231.239 563.14 231.748 563.287 232.246L563.394 232.621C563.474 232.914 563.305 232.222 563.427 232.702C563.492 233.001 563.564 233.302 563.62 233.605C563.805 234.577 563.911 235.564 563.936 236.554C563.938 236.669 563.926 237.369 563.939 236.961C563.93 237.185 563.922 237.414 563.903 237.643C563.874 238.079 563.82 238.509 563.75 238.94C563.71 239.144 563.675 239.345 563.626 239.542C563.597 239.638 563.574 239.736 563.556 239.835C563.515 240.077 563.687 239.445 563.556 239.835C563.441 240.2 563.303 240.558 563.144 240.906L563.065 241.098C562.935 241.41 563.26 240.864 563.118 241.021C562.975 241.178 562.961 241.267 562.878 241.378C562.878 241.378 562.59 241.726 562.584 241.723C562.522 241.654 562.959 241.428 562.648 241.648C562.576 241.677 562.517 241.75 562.45 241.805C562.383 241.86 562.349 241.846 562.315 241.898C562.095 242.098 562.719 241.768 562.439 241.848C562.382 241.871 562.101 242.029 562.061 242.001C562.022 241.973 562.567 241.956 562.262 241.92C562.195 241.923 562.127 241.932 562.061 241.946C561.592 242.026 562.365 242.021 561.95 241.947C561.757 241.909 561.388 241.756 561.823 241.949C561.667 241.88 561.499 241.837 561.343 241.768L561.145 241.678C560.931 241.588 560.907 241.681 561.215 241.727C561.096 241.708 560.926 241.535 560.837 241.466C560.748 241.398 560.567 241.295 560.565 241.235C560.563 241.175 560.871 241.607 560.661 241.322L560.564 241.207C560.487 241.112 560.425 240.999 560.345 240.899C560.165 240.674 560.495 241.269 560.449 241.072C560.418 240.996 560.381 240.906 560.351 240.831L560.21 240.485C560.122 240.267 560.288 240.978 560.228 240.528C560.21 240.402 560.186 240.274 560.178 240.145L560.167 239.951C560.137 239.644 560.105 239.976 560.156 240.077C560.085 239.901 560.214 239.436 560.25 239.25C560.286 239.065 560.315 238.97 560.345 238.826C560.395 238.59 560.295 238.989 560.297 238.994C560.299 238.999 560.376 238.736 560.391 238.691C560.489 238.41 560.602 238.134 560.73 237.865C560.798 237.716 560.867 237.572 560.942 237.426L561.066 237.21C561.254 236.836 560.885 237.477 561.066 237.21C561.448 236.618 561.87 236.053 562.329 235.518C562.447 235.382 562.571 235.249 562.719 235.106C563.059 234.748 562.51 235.29 562.875 234.955C563.168 234.687 563.462 234.425 563.769 234.179C564.076 233.933 564.349 233.74 564.628 233.549C564.785 233.442 564.95 233.342 565.116 233.241C565.149 233.228 565.48 233.028 565.221 233.199C564.962 233.37 565.384 233.133 565.422 233.09C566.112 232.733 566.835 232.44 567.579 232.215C567.613 232.202 567.99 232.104 567.689 232.171C567.388 232.238 567.761 232.142 567.799 232.126C567.989 232.088 568.18 232.049 568.372 232.015C568.761 231.95 569.154 231.909 569.547 231.892C569.705 231.883 570.259 231.901 569.821 231.88C570.021 231.893 570.222 231.894 570.421 231.918C570.873 231.961 571.321 232.034 571.762 232.135L572.005 232.197C571.618 232.095 571.917 232.172 572.005 232.197C572.21 232.263 572.416 232.334 572.644 232.401C573.083 232.569 573.51 232.764 573.923 232.986C573.58 232.799 574.193 233.158 574.274 233.207C574.48 233.344 574.681 233.483 574.875 233.631C575.286 233.956 575.679 234.303 576.053 234.67C576.734 235.304 577.934 235.01 578.474 234.35C578.741 233.988 578.858 233.54 578.803 233.097C578.748 232.654 578.524 232.25 578.177 231.967C574.846 228.862 570.322 227.701 565.944 229.129C562.401 230.347 559.458 232.873 557.73 236.18C556.312 238.96 556.22 242.703 559.173 244.479C560.879 245.513 563.028 245.745 564.677 244.415C566.183 243.198 566.872 241.242 567.192 239.409C567.958 234.514 566.758 229.531 563.851 225.532C562.334 223.582 560.38 222.011 558.142 220.942C556.001 219.818 553.652 219.133 551.233 218.929C548.953 218.8 546.544 219.175 544.842 220.803C543.826 221.816 543.101 223.08 542.742 224.462C542.382 225.845 542.402 227.295 542.798 228.662C542.993 229.283 543.348 229.842 543.828 230.284C544.308 230.726 544.896 231.035 545.535 231.181C546.117 231.283 546.716 231.265 547.292 231.126C547.868 230.987 548.41 230.731 548.884 230.375C550.314 229.37 551.545 227.322 551.173 225.554C550.85 224.215 550.266 222.953 549.456 221.839C548.495 220.422 547.348 219.14 546.045 218.027C542.621 215.047 538.2 213.437 533.632 213.507C532.382 213.534 531.137 213.684 529.915 213.955C529.461 214.02 529.049 214.258 528.767 214.619C528.485 214.979 528.354 215.434 528.403 215.886C528.457 216.336 528.687 216.745 529.043 217.026C529.4 217.306 529.854 217.436 530.308 217.385Z" fill="#FFE0D2"/>
<path d="M466.657 150.539C469.965 151.903 473.829 151.601 477.215 150.82C480.874 149.967 484.362 148.497 487.527 146.473C488.925 145.622 490.224 144.617 491.398 143.477C492.184 142.615 492.891 141.685 493.51 140.698C495.002 138.496 496.48 135.95 496.889 133.284C497.224 131.805 496.972 130.254 496.185 128.958C495.695 128.284 495.057 127.731 494.32 127.34C493.583 126.95 492.767 126.734 491.933 126.707C488.625 126.538 486.168 129.521 484.613 132.081C481.312 137.476 479.334 144.412 481.797 150.532C482.963 153.619 485.142 156.22 487.977 157.911C491.054 159.605 494.619 160.196 498.078 159.585C500.746 159.202 503.251 158.071 505.3 156.321C507.244 154.642 508.977 152.734 510.46 150.637C513.275 146.804 516.443 141.015 514.113 136.245C512.93 133.84 510.326 132.581 507.778 132.194C506.391 131.892 504.942 132.092 503.688 132.757C503.11 133.122 502.629 133.622 502.287 134.213C501.945 134.805 501.752 135.471 501.724 136.154C501.555 138.553 503.055 140.93 504.695 142.548C506.888 144.735 509.84 145.994 512.937 146.065C516.457 146.107 520.047 144.398 522.834 142.33C525.917 140.044 528.613 137.075 529.817 133.361C530.366 131.588 530.477 129.708 530.14 127.882C529.936 126.623 528.388 125.919 527.254 126.229C526.66 126.407 526.156 126.808 525.85 127.348C525.543 127.888 525.456 128.525 525.607 129.127C525.727 129.83 525.607 128.86 525.607 129.289C525.607 129.479 525.607 129.662 525.607 129.851C525.607 130.147 525.607 130.449 525.607 130.745C525.607 130.302 525.607 130.78 525.607 130.9C525.607 131.019 525.537 131.265 525.488 131.448C525.396 131.814 525.269 132.152 525.15 132.538C525.03 132.925 525.086 132.714 525.15 132.616C525.058 132.827 524.953 133.038 524.847 133.249C524.742 133.46 524.544 133.805 524.383 134.072C524.221 134.339 523.946 134.775 523.679 135.078C523.507 135.323 523.321 135.557 523.123 135.781C522.151 136.886 521.044 137.864 519.828 138.693C519.218 139.113 518.586 139.501 517.935 139.854C517.357 140.175 516.757 140.454 516.14 140.691C515.521 140.922 514.886 141.108 514.24 141.247L513.824 141.324C514.282 141.254 513.93 141.324 513.824 141.324C513.451 141.324 513.12 141.366 512.712 141.324C512.557 141.324 511.691 141.212 512.269 141.324C511.987 141.275 511.713 141.226 511.431 141.155C511.149 141.085 510.931 141.015 510.678 140.93L510.333 140.797C510.868 141.001 510.333 140.797 510.227 140.747C509.74 140.492 509.27 140.205 508.82 139.889C508.7 139.805 508.404 139.537 508.82 139.889L508.559 139.678C508.355 139.488 508.144 139.305 507.954 139.108C507.764 138.911 507.595 138.707 507.412 138.51C507.229 138.313 507.187 138.159 507.489 138.623L507.313 138.377C507.046 137.976 506.856 137.533 506.609 137.139C506.947 137.666 506.673 137.294 506.609 137.033C506.546 136.773 506.525 136.682 506.476 136.506C506.349 136.105 506.476 137.005 506.476 136.738C506.482 136.649 506.482 136.56 506.476 136.471C506.483 136.403 506.483 136.334 506.476 136.267C506.426 135.908 506.37 136.843 506.476 136.499C506.602 135.985 506.18 136.963 506.419 136.583C506.659 136.203 505.969 137.019 506.356 136.66C506.504 136.527 505.8 136.97 506.307 136.724C505.448 137.139 506.307 136.632 506.426 136.724C506.546 136.815 505.722 136.724 506.173 136.766C506.264 136.766 506.363 136.766 506.447 136.766C506.532 136.766 507.405 136.879 506.792 136.766C507.398 136.879 507.961 137.047 508.552 137.216C508.693 137.216 508.932 137.413 508.439 137.153L508.721 137.287L509.355 137.652C509.84 137.948 509.207 137.455 509.418 137.702C509.488 137.786 510.051 138.349 509.763 138.025C509.474 137.702 509.875 138.194 509.939 138.299C509.972 138.374 510.01 138.447 510.051 138.517C510.298 138.876 509.932 138.081 509.995 138.356C510.058 138.63 510.115 138.707 510.164 138.89C510.164 138.968 510.164 139.052 510.22 139.136C510.354 139.678 510.22 139.038 510.22 139.017C510.368 139.094 510.22 140.142 510.22 140.304C510.22 140.466 510.22 140.536 510.22 140.656C510.22 140.607 510.333 140.065 510.22 140.459C510.171 140.698 510.136 140.944 510.072 141.162C509.966 141.619 509.834 142.07 509.678 142.513C509.587 142.773 509.481 143.026 509.39 143.28C509.34 143.406 509.193 143.666 509.432 143.181C509.355 143.336 509.291 143.498 509.221 143.652C508.738 144.665 508.192 145.647 507.588 146.593C507.292 147.05 506.982 147.5 506.666 147.943C506.511 148.168 506.342 148.386 506.18 148.604C506.103 148.71 505.835 149.041 506.18 148.604L505.842 149.026C505.138 149.849 504.434 150.651 503.73 151.411C503.371 151.77 503.027 152.114 502.632 152.452L502.175 152.846L501.9 153.078C501.837 153.134 501.422 153.451 501.752 153.198L501.45 153.416L500.985 153.725C500.683 153.908 500.366 154.056 500.056 154.232C499.746 154.408 500.704 154.014 500.225 154.154C500.014 154.211 499.81 154.295 499.599 154.365C499.233 154.485 498.895 154.59 498.486 154.682C498.078 154.773 497.783 154.851 497.395 154.921L496.924 154.998C497.353 154.935 496.699 154.998 496.607 154.998C495.93 155.051 495.25 155.051 494.573 154.998L494.031 154.956C493.616 154.956 494.58 155.062 493.911 154.956C493.566 154.893 493.207 154.83 492.876 154.745C492.546 154.661 492.278 154.576 491.99 154.478C491.849 154.436 491.053 154.105 491.504 154.309C490.896 154.037 490.312 153.714 489.758 153.345L489.434 153.113C488.914 152.755 489.66 153.31 489.364 153.057C489.068 152.804 488.914 152.677 488.695 152.473C488.477 152.269 488.273 152.051 488.076 151.826C487.879 151.601 487.865 151.58 487.752 151.453C487.428 151.08 487.935 151.749 487.632 151.298C487.29 150.8 486.975 150.284 486.689 149.751C486.563 149.512 486.443 149.266 486.337 149.048C486.52 149.477 486.337 149.048 486.302 148.942C486.267 148.837 486.161 148.548 486.098 148.351C485.9 147.707 485.741 147.052 485.619 146.389C485.619 146.304 485.549 145.924 485.619 146.389L485.577 145.953C485.535 145.544 485.514 145.133 485.514 144.722C485.502 144.017 485.537 143.312 485.619 142.611C485.676 142.168 485.514 143.16 485.655 142.407L485.739 141.929C485.816 141.521 485.915 141.12 486.021 140.719C486.161 140.185 486.33 139.657 486.52 139.136C486.605 138.897 486.696 138.665 486.788 138.433C486.879 138.201 487.175 137.512 486.95 138.025C487.456 136.845 488.036 135.699 488.688 134.592C489.003 134.058 489.348 133.537 489.723 133.031C489.441 133.418 489.955 132.764 490.047 132.658C490.267 132.399 490.502 132.152 490.751 131.919L490.969 131.73C490.561 132.067 490.863 131.807 490.969 131.73C491.074 131.652 491.792 131.378 491.201 131.547C491.321 131.547 492.032 131.329 491.638 131.392C491.243 131.455 491.771 131.392 491.785 131.392H491.94C491.574 131.329 491.518 131.329 491.785 131.392C492.053 131.455 492.489 131.666 492.018 131.392C492.117 131.465 492.226 131.525 492.341 131.568C492.609 131.617 491.933 131.195 492.25 131.49C492.672 131.891 492.053 131.265 492.292 131.49C492.356 131.561 492.475 131.941 492.341 131.554C492.208 131.167 492.341 131.631 492.341 131.716C492.426 132.229 492.384 131.195 492.341 131.849C492.341 131.962 492.285 132.679 492.341 132.292C492.398 131.905 492.264 132.637 492.229 132.771C492.151 133.08 492.06 133.39 491.954 133.692C491.849 133.995 491.771 134.199 491.666 134.452C491.884 133.924 491.539 134.705 491.483 134.832C491.215 135.38 490.934 135.908 490.631 136.428C490.091 137.397 489.499 138.337 488.857 139.242C488.759 139.369 488.231 140.044 488.723 139.425C488.632 139.544 488.533 139.671 488.435 139.784C488.058 140.203 487.644 140.587 487.196 140.93L486.872 141.197C486.358 141.634 487.09 141.043 486.76 141.296L485.943 141.88C485.296 142.337 484.634 142.759 483.93 143.146C483.226 143.533 482.635 143.849 481.966 144.187C481.315 144.509 480.648 144.798 479.967 145.052C478.512 145.62 477.012 146.067 475.483 146.389C475.117 146.466 474.779 146.529 474.392 146.593C473.907 146.677 474.181 146.628 474.294 146.593L473.695 146.656C472.919 146.734 472.138 146.76 471.359 146.733C471.021 146.733 470.69 146.691 470.352 146.663C469.88 146.621 470.225 146.663 470.352 146.663L469.81 146.557C469.158 146.424 468.522 146.226 467.909 145.967C466.734 145.509 465.319 146.557 465.016 147.641C464.643 148.998 465.481 150.075 466.657 150.539Z" fill="#FFE0D2"/>
<path d="M163.277 18.9735C154.032 15.5295 151.216 4.36594 151.185 4.24866C151.091 3.86244 150.872 3.51925 150.564 3.27382C150.255 3.02839 149.875 2.89486 149.483 2.89453C149.09 2.89618 148.709 3.03 148.399 3.27503C148.089 3.52007 147.868 3.86248 147.77 4.24866C147.77 4.36594 144.923 15.5295 135.689 18.9735C135.35 19.0981 135.057 19.3257 134.85 19.6252C134.643 19.9247 134.532 20.2817 134.532 20.6475C134.532 21.0133 134.643 21.3702 134.85 21.6697C135.057 21.9692 135.35 22.1968 135.689 22.3215C144.923 25.7654 147.749 36.929 147.77 37.0143C147.866 37.4024 148.086 37.7472 148.396 37.9943C148.706 38.2415 149.089 38.3768 149.483 38.3791C149.876 38.3781 150.258 38.2431 150.567 37.9956C150.875 37.7481 151.093 37.4025 151.185 37.0143C151.185 36.9076 154.032 25.7441 163.277 22.3001C163.616 22.1754 163.909 21.9479 164.116 21.6484C164.323 21.3489 164.434 20.9919 164.434 20.6261C164.434 20.2603 164.323 19.9034 164.116 19.6039C163.909 19.3044 163.616 19.0768 163.277 18.9521V18.9735Z" fill="#FFE0D2"/>
<path d="M195.772 53.707C192.305 52.4382 191.249 48.3253 191.237 48.2821C191.202 48.1398 191.12 48.0134 191.004 47.9229C190.888 47.8325 190.746 47.7833 190.599 47.7832C190.451 47.7838 190.308 47.8331 190.192 47.9234C190.076 48.0137 189.993 48.1398 189.957 48.2821C189.957 48.3253 188.889 52.4382 185.426 53.707C185.299 53.753 185.189 53.8368 185.111 53.9471C185.034 54.0575 184.992 54.189 184.992 54.3238C184.992 54.4585 185.034 54.59 185.111 54.7004C185.189 54.8107 185.299 54.8946 185.426 54.9405C188.889 56.2093 189.949 60.3222 189.957 60.3536C189.992 60.4966 190.075 60.6237 190.191 60.7147C190.307 60.8057 190.451 60.8556 190.599 60.8564C190.746 60.8561 190.889 60.8064 191.005 60.7152C191.121 60.624 191.202 60.4966 191.237 60.3536C191.237 60.3143 192.305 56.2015 195.772 54.9326C195.899 54.8867 196.008 54.8029 196.086 54.6925C196.164 54.5822 196.205 54.4507 196.205 54.3159C196.205 54.1811 196.164 54.0496 196.086 53.9393C196.008 53.8289 195.899 53.7451 195.772 53.6992V53.707Z" fill="#FFE0D2"/>
<path d="M586.34 81.6914C582.873 80.4226 581.817 76.3097 581.805 76.2665C581.77 76.1242 581.688 75.9977 581.572 75.9073C581.457 75.8169 581.314 75.7677 581.167 75.7676C581.02 75.7682 580.877 75.8175 580.761 75.9078C580.644 75.998 580.561 76.1242 580.525 76.2665C580.525 76.3097 579.457 80.4226 575.994 81.6914C575.867 81.7373 575.757 81.8212 575.68 81.9315C575.602 82.0419 575.561 82.1734 575.561 82.3081C575.561 82.4429 575.602 82.5744 575.68 82.6847C575.757 82.7951 575.867 82.8789 575.994 82.9249C579.457 84.1937 580.517 88.3066 580.525 88.338C580.561 88.481 580.643 88.608 580.76 88.6991C580.876 88.7901 581.019 88.84 581.167 88.8408C581.315 88.8405 581.458 88.7907 581.573 88.6995C581.689 88.6084 581.771 88.481 581.805 88.338C581.805 88.2987 582.873 84.1858 586.34 82.917C586.467 82.8711 586.577 82.7872 586.654 82.6769C586.732 82.5665 586.774 82.435 586.774 82.3003C586.774 82.1655 586.732 82.034 586.654 81.9237C586.577 81.8133 586.467 81.7295 586.34 81.6835V81.6914Z" fill="#FFE0D2"/>
<path d="M562.473 286.371C559.006 285.102 557.95 280.989 557.938 280.946C557.903 280.804 557.821 280.677 557.705 280.587C557.59 280.497 557.447 280.447 557.3 280.447C557.153 280.448 557.01 280.497 556.893 280.587C556.777 280.678 556.694 280.804 556.658 280.946C556.658 280.989 555.59 285.102 552.127 286.371C552 286.417 551.89 286.501 551.813 286.611C551.735 286.722 551.693 286.853 551.693 286.988C551.693 287.123 551.735 287.254 551.813 287.364C551.89 287.475 552 287.559 552.127 287.605C555.59 288.873 556.65 292.986 556.658 293.018C556.694 293.161 556.776 293.288 556.892 293.379C557.009 293.47 557.152 293.52 557.3 293.521C557.447 293.52 557.59 293.47 557.706 293.379C557.822 293.288 557.904 293.161 557.938 293.018C557.938 292.978 559.006 288.866 562.473 287.597C562.6 287.551 562.71 287.467 562.787 287.357C562.865 287.246 562.906 287.115 562.906 286.98C562.906 286.845 562.865 286.714 562.787 286.603C562.71 286.493 562.6 286.409 562.473 286.363V286.371Z" fill="#FFE0D2"/>
<path d="M363.052 141.003C363.052 141.003 375.141 141.032 378.021 129.844C381.007 118.213 372.913 111.829 375.659 103C375.659 103 359.883 110.616 357.416 123.085C354.948 135.553 363.052 141.003 363.052 141.003Z" fill="#FF4E4F"/>
<path d="M360.251 151.849L364.754 134.307" stroke="#540E00" stroke-width="2.69097" stroke-miterlimit="10"/>
<path d="M354.162 146.983L337.916 210.297C337.535 211.78 338.426 213.292 339.905 213.673L348.311 215.842C349.79 216.224 351.297 215.331 351.678 213.848L367.925 150.534C368.305 149.051 367.415 147.539 365.936 147.158L357.53 144.989C356.05 144.607 354.543 145.5 354.162 146.983Z" fill="#3FC6FF"/>
<path d="M335.668 247.669L291.96 236.395L288.494 301.78L319.719 309.839L350.944 317.898L379.385 258.944L335.668 247.669Z" fill="#BFECFF"/>
<path d="M301.649 305.168L307.631 240.428" stroke="#3FC6FF" stroke-width="10.7639" stroke-miterlimit="10"/>
<path d="M337.775 314.496L363.7 254.896" stroke="#3FC6FF" stroke-width="10.7639" stroke-miterlimit="10"/>
<path d="M319.714 309.846L335.662 247.676" stroke="#3FC6FF" stroke-width="10.7639" stroke-miterlimit="10"/>
<path d="M395.912 243.674C397.199 226.603 382.719 204.265 349.046 195.581C315.372 186.896 291.934 199.432 284.848 215.02C277.762 230.609 285.117 240.843 293.605 240.179C293.854 242.49 294.736 244.686 296.155 246.523C297.574 248.36 299.473 249.767 301.642 250.587C309.217 253.476 317.235 248.18 317.235 248.18C317.235 248.18 321.018 255.681 332.838 258.723C344.658 261.766 351.58 257.067 351.58 257.067C351.58 257.067 356.045 265.617 364.063 266.695C366.354 267.02 368.69 266.703 370.813 265.781C372.936 264.858 374.763 263.365 376.094 261.467C383.247 266.166 394.625 260.755 395.912 243.674Z" fill="#FFBC38"/>
<path d="M349.048 195.575C318.485 187.738 296.401 197.299 287.222 210.846C289.795 216.286 294.317 216.777 299.627 217.692C306.944 218.857 305.897 224.788 309.882 229.631C314.203 235.042 318.341 234.676 324.438 233.145C328.74 232.115 332.667 230.738 336.383 233.848C340.492 237.295 342.979 241.551 348.865 241.608C355.519 241.608 357.737 235.783 363.268 234.589C368.798 233.395 370.834 239.404 375.011 241.676C380.628 244.795 384.881 243.033 389.548 239.702C391.442 238.474 393.444 237.424 395.53 236.563C392.937 220.821 378.179 203.143 349.048 195.575Z" fill="#FF4E4F"/>
<path d="M328.085 197.357C315.901 197.434 307.47 202.855 308.882 208.256C310.293 213.658 326.165 214.833 341.086 213.956C356.007 213.08 353.588 197.165 328.085 197.357Z" fill="#FFA9AB"/>
<path d="M295.802 198.328C297.626 200.687 299.498 202.998 301.476 205.222C303.704 207.726 307.333 204.019 305.125 201.525C303.445 199.599 301.812 197.674 300.266 195.69C299.906 195.11 299.337 194.692 298.678 194.521C298.018 194.351 297.318 194.442 296.723 194.776C295.619 195.421 294.937 197.211 295.763 198.328H295.802Z" fill="white"/>
<path d="M321.492 205.33C322.971 204.969 324.468 204.689 325.976 204.492C326.888 204.357 327.801 204.242 328.713 204.155C329.02 204.155 329.327 204.097 329.673 204.088C330.422 204.088 330.748 204.386 329.366 203.808C329.966 204.138 330.67 204.221 331.33 204.042C331.991 203.862 332.556 203.434 332.909 202.846C333.078 202.547 333.186 202.219 333.228 201.879C333.269 201.538 333.243 201.193 333.152 200.863C333.06 200.533 332.903 200.224 332.692 199.954C332.481 199.685 332.218 199.46 331.92 199.293C330.143 198.551 328.166 198.965 326.312 199.225C324.215 199.466 322.134 199.833 320.081 200.323C316.845 201.17 318.266 206.167 321.502 205.32L321.492 205.33Z" fill="white"/>
<path d="M313.045 215.411C314.268 217.618 315.287 219.932 316.089 222.325C317.193 225.473 322.186 224.077 321.072 220.909C320.136 218.092 318.947 215.366 317.519 212.764C315.849 209.875 311.384 212.504 313.054 215.411H313.045Z" fill="white"/>
<path d="M332.331 223.571C336.485 223.509 340.586 222.629 344.401 220.981C347.425 219.556 344.766 215.088 341.77 216.513C338.937 217.852 335.337 218.246 332.245 218.372C328.913 218.497 328.99 223.696 332.331 223.571Z" fill="white"/>
<path d="M341.762 194.554C342.722 197.308 342.434 200.331 342.607 203.219C342.809 206.541 347.993 206.483 347.792 203.123C347.59 199.763 347.792 196.383 346.745 193.158C345.699 189.932 340.677 191.396 341.762 194.583V194.554Z" fill="white"/>
<path d="M352.846 229.803C354.872 227.3 356.293 224.276 358.52 221.946C360.748 219.616 357.157 215.881 354.833 218.288C352.51 220.695 351.204 223.631 349.168 226.144C347.133 228.657 350.743 232.403 352.846 229.803Z" fill="white"/>
<path d="M367.458 217.815C369.637 221.04 370.828 224.66 372.201 228.271C373.382 231.371 378.384 229.985 377.194 226.846C375.667 222.841 374.313 218.748 371.922 215.167C370.06 212.403 365.585 215.032 367.458 217.815Z" fill="white"/>
<path d="M360.049 210.575C361.419 209.766 362.808 208.993 364.216 208.255C364.984 207.841 365.762 207.436 366.549 207.061L366.972 206.868C366.693 206.984 366.674 206.993 366.972 206.868C367.548 206.637 367.241 206.868 366.972 206.801L365.647 206.454C366.245 206.785 366.949 206.87 367.608 206.69C368.268 206.511 368.831 206.081 369.18 205.491C369.521 204.894 369.611 204.185 369.431 203.521C369.251 202.856 368.815 202.291 368.22 201.948C366.3 201.062 364.379 202.285 362.689 203.161C361 204.037 359.156 205.087 357.437 206.05C354.557 207.754 357.188 212.231 360.068 210.527L360.049 210.575Z" fill="white"/>
<path d="M386.766 216.994C385.832 221.084 385.273 225.251 385.096 229.443C385.096 232.794 390.261 232.707 390.281 229.347C390.442 225.624 390.947 221.923 391.788 218.293C392.431 215.02 387.41 213.71 386.766 216.994Z" fill="white"/>
<path d="M76.9658 193.027C76.6363 194.992 76.1198 196.92 75.4236 198.784C75.3555 198.956 75.2958 199.12 75.2276 199.283C74.9209 200.075 75.364 198.991 75.1595 199.447C74.955 199.903 74.8357 200.161 74.6653 200.505C74.2631 201.335 73.8165 202.142 73.3276 202.923C72.9016 203.603 72.4756 204.274 71.9643 204.911C72.3392 204.412 71.7173 205.203 71.598 205.341C71.3338 205.668 71.0527 205.986 70.7459 206.296C70.2347 206.847 69.7064 207.38 69.1526 207.888C68.88 208.138 68.6073 208.387 68.3006 208.628L67.9598 208.904L67.6275 209.179C67.8916 208.972 67.9427 208.938 67.7723 209.058C66.653 209.925 65.4742 210.71 64.2449 211.408C63.674 211.735 63.0861 212.036 62.4897 212.32L61.6973 212.681C61.5269 212.759 61.0838 212.922 61.774 212.681L61.2542 212.896C60.1411 213.335 59.003 213.705 57.8461 214.006C57.3604 214.127 56.8747 214.239 56.3806 214.342C56.1335 214.342 55.8949 214.437 55.6478 214.471L55.2218 214.54C54.7276 214.626 55.9545 214.471 55.4263 214.54C54.6307 214.62 53.8315 214.658 53.032 214.652H52.5379C51.8392 214.652 53.0235 214.781 52.7679 214.695C52.5293 214.6 52.2805 214.533 52.0266 214.497C51.7966 214.497 52.8787 214.729 52.4101 214.652C52.1544 214.609 52.5379 214.815 52.2482 214.523C51.9585 214.23 51.6603 213.946 51.3961 213.662C51.771 214.101 51.3961 213.714 51.3961 213.576L51.0042 212.888C50.7486 212.457 51.0042 212.888 51.0042 212.982C50.936 212.784 50.8593 212.586 50.8082 212.389C50.7571 212.191 50.7571 212.113 50.7145 211.993C50.5271 211.416 50.6634 212.406 50.7145 212.079C50.7361 211.922 50.7361 211.763 50.7145 211.606C50.6463 211.029 50.5697 212.053 50.7145 211.735C50.7615 211.598 50.7958 211.456 50.8167 211.313C50.8934 210.736 50.5611 211.889 50.8167 211.365C50.8167 211.296 51.1576 210.831 50.8679 211.244C50.5782 211.657 50.8679 211.244 50.9701 211.158C51.4473 210.822 50.5356 211.485 50.8593 211.253C51.1831 211.02 51.3706 211.098 50.7315 211.253C50.8431 211.201 50.9604 211.164 51.0809 211.141C51.754 211.141 50.3992 211.141 51.0809 211.141C51.2256 211.149 51.3707 211.149 51.5154 211.141C51.8307 211.141 51.8136 211.141 51.4558 211.141L51.8307 211.21C52.6009 211.369 53.3385 211.66 54.0119 212.07C54.4209 212.303 54.8043 212.561 55.1962 212.819C55.8949 213.284 54.9747 212.621 55.3496 212.931C55.5711 213.111 55.7841 213.309 55.9886 213.507C56.2692 213.776 56.5311 214.063 56.7725 214.368C56.372 213.86 56.9003 214.609 57.0025 214.789C57.1048 214.97 57.4541 215.796 57.2241 215.159C57.3604 215.549 57.4797 215.945 57.5819 216.347C57.5819 216.399 57.7012 217.07 57.6331 216.579C57.5649 216.089 57.6331 216.76 57.6331 216.812C57.6331 217.164 57.6331 217.509 57.6331 217.861C57.6331 217.999 57.6331 218.145 57.6331 218.283C57.6331 218.997 57.7694 217.672 57.6331 218.378C57.5564 218.739 57.4882 219.101 57.3945 219.453C57.3008 219.806 57.1815 220.176 57.0622 220.538C56.9855 220.753 56.9003 220.968 56.8151 221.183C56.8151 221.088 57.0622 220.658 56.8151 221.183C56.4398 221.988 56.0217 222.772 55.5626 223.532C55.1235 224.16 54.6543 224.766 54.1567 225.348C53.8585 225.744 54.5742 224.84 54.0545 225.468L53.7307 225.864C53.4069 226.26 53.0746 226.647 52.7253 227.026C51.5852 228.258 50.361 229.408 49.0615 230.468C48.4396 230.984 49.5216 230.141 48.8826 230.605L48.4992 230.889C48.1839 231.122 47.8687 231.345 47.5449 231.561C46.8095 232.056 46.044 232.504 45.2529 232.903C45.091 232.989 44.9377 233.066 44.7758 233.135C44.7758 233.135 44.0175 233.471 44.3924 233.316C44.7673 233.161 43.9578 233.48 43.9919 233.462L43.3699 233.686C42.4981 233.987 41.6071 234.229 40.703 234.409C40.2685 234.504 39.851 234.572 39.3994 234.641C39.9362 234.564 39.4846 234.641 39.3994 234.641L38.6155 234.719C37.6953 234.81 36.8092 234.842 35.9572 234.813C35.1051 234.813 34.2105 234.762 33.3499 234.676L32.7024 234.607C32.1997 234.547 33.3755 234.719 32.5576 234.607C32.0548 234.521 31.5436 234.443 31.0409 234.34C29.4224 234.017 27.8324 233.563 26.2865 232.98C26.1076 232.912 25.034 232.456 25.656 232.731C25.3152 232.576 24.9659 232.421 24.6251 232.249C23.969 231.931 23.3385 231.578 22.7165 231.199C22.4268 231.01 22.1371 230.829 21.8645 230.631C21.7337 230.526 21.5971 230.428 21.4555 230.339C21.1062 230.124 21.9752 230.786 21.4555 230.339C20.9636 229.932 20.497 229.495 20.0581 229.031L19.8111 228.79C19.4106 228.394 20.0496 229.237 19.8963 228.919C19.7429 228.6 19.6151 228.523 19.4958 228.325C19.4958 228.325 19.1379 227.663 19.1465 227.654C19.2913 227.602 19.368 228.42 19.2231 227.8C19.2231 227.671 19.1465 227.533 19.1039 227.396C19.0613 227.258 19.1039 227.215 19.0442 227.129C18.8738 226.664 18.9931 227.835 19.0442 227.353C19.0442 227.249 18.9761 226.716 19.0442 226.673C19.1124 226.63 18.7971 227.482 19.0442 227.034C19.0816 226.928 19.1101 226.819 19.1294 226.707C19.2998 225.933 18.8227 227.129 19.1976 226.535C19.3765 226.26 19.8451 225.787 19.2743 226.337C19.4788 226.139 19.6492 225.907 19.8537 225.709L20.1178 225.46C20.3904 225.184 20.2626 225.09 19.9985 225.537C20.1007 225.365 20.4756 225.21 20.6375 225.115C20.7994 225.021 21.0721 224.806 21.1658 224.84C21.2595 224.874 20.399 225.081 20.9698 224.935L21.2084 224.857C21.4044 224.797 21.6174 224.771 21.8219 224.711C22.282 224.573 21.1573 224.711 21.4896 224.763C21.6259 224.763 21.7878 224.763 21.9241 224.763H22.5461C22.938 224.763 21.7367 224.573 22.4694 224.763C22.6739 224.814 22.8869 224.857 23.0914 224.926L23.3981 225.029C23.8923 225.176 23.3981 224.918 23.2107 224.935C23.5259 224.935 24.165 225.425 24.4291 225.597C24.6932 225.769 24.821 225.873 25.0255 226.01C25.3578 226.234 24.804 225.83 24.7955 225.83C24.787 225.83 25.1448 226.114 25.2045 226.165C25.578 226.492 25.9336 226.84 26.2695 227.206C26.457 227.404 26.6359 227.602 26.8148 227.809L27.0704 228.136C27.5305 228.661 26.7722 227.688 27.0704 228.136C27.7461 229.096 28.3553 230.103 28.8938 231.148C29.0301 231.414 29.1579 231.69 29.2857 232.008C29.6265 232.757 29.1324 231.569 29.422 232.344C29.6521 232.963 29.8736 233.583 30.0611 234.211C30.2485 234.839 30.3763 235.381 30.4956 235.932C30.5638 236.242 30.6149 236.56 30.666 236.879C30.666 236.939 30.7683 237.576 30.666 237.068C30.5638 236.56 30.666 237.36 30.7086 237.446C30.8279 238.737 30.8279 240.037 30.7086 241.327C30.7086 241.388 30.6234 242.033 30.7086 241.525C30.7938 241.018 30.7086 241.654 30.7086 241.723C30.649 242.042 30.5893 242.36 30.5212 242.678C30.3784 243.32 30.1962 243.952 29.9759 244.571C29.8907 244.821 29.5158 245.664 29.8225 245.002C29.6777 245.303 29.5499 245.613 29.388 245.905C29.0388 246.576 28.646 247.223 28.2122 247.841L27.9651 248.177C28.3655 247.643 28.0588 248.056 27.9651 248.177C27.735 248.452 27.4964 248.728 27.2494 249.037C26.716 249.61 26.1468 250.148 25.5453 250.647C26.048 250.234 25.1107 250.956 24.9829 251.051C24.6421 251.283 24.3013 251.507 23.952 251.714C23.1918 252.145 22.4097 252.536 21.6089 252.884C20.203 253.538 19.9048 255.577 20.5864 256.825C20.9788 257.463 21.5981 257.926 22.3173 258.118C23.0365 258.31 23.8012 258.217 24.4547 257.858C31.3391 254.657 35.9657 248.392 36.5025 240.734C36.8387 234.496 34.7785 228.368 30.7512 223.627C27.3431 219.694 21.6174 217.207 17.0249 220.658C14.358 222.646 12.6539 225.821 13.6764 229.203C14.6136 232.292 17.2038 234.581 19.8366 236.225C26.9188 240.474 35.371 241.741 43.3699 239.753C47.333 238.63 50.9845 236.595 54.0374 233.807C57.1155 231.203 59.6449 228.002 61.4757 224.393C63.1031 220.951 64.0319 216.992 62.5834 213.344C61.6529 211.139 60.1544 209.227 58.2438 207.806C56.3333 206.385 54.0804 205.507 51.7199 205.264C50.6379 205.175 49.5518 205.373 48.5687 205.838C47.5856 206.303 46.7393 207.018 46.1135 207.914C45.5904 208.75 45.2446 209.686 45.098 210.663C44.9513 211.641 45.007 212.639 45.2614 213.593C45.9175 216.433 48.3117 219.617 51.2768 220.15C53.5484 220.489 55.8635 220.378 58.0932 219.823C60.8835 219.227 63.5827 218.258 66.1194 216.941C72.8678 213.517 78.124 207.694 80.8767 200.591C81.618 198.643 82.166 196.625 82.5126 194.568C82.6961 193.825 82.5861 193.04 82.2059 192.378C81.8258 191.716 81.2054 191.23 80.4762 191.022C79.7476 190.823 78.9708 190.922 78.3138 191.298C77.6569 191.673 77.1726 192.294 76.9658 193.027Z" fill="#FFE0D2"/>
<path d="M536.315 64.5901C538.379 64.5901 540.052 62.9168 540.052 60.8527C540.052 58.7886 538.379 57.1152 536.315 57.1152C534.25 57.1152 532.577 58.7886 532.577 60.8527C532.577 62.9168 534.25 64.5901 536.315 64.5901Z" fill="#FFE0D2"/>
<path d="M265.338 156.153C267.402 156.153 269.075 154.479 269.075 152.415C269.075 150.351 267.402 148.678 265.338 148.678C263.274 148.678 261.601 150.351 261.601 152.415C261.601 154.479 263.274 156.153 265.338 156.153Z" fill="#FFE0D2"/>
<path d="M620.407 83.2386C622.472 83.2386 624.145 81.5653 624.145 79.5011C624.145 77.437 622.472 75.7637 620.407 75.7637C618.343 75.7637 616.67 77.437 616.67 79.5011C616.67 81.5653 618.343 83.2386 620.407 83.2386Z" fill="#FFE0D2"/>
<path d="M569.841 337.291C571.905 337.291 573.578 335.618 573.578 333.554C573.578 331.49 571.905 329.816 569.841 329.816C567.777 329.816 566.104 331.49 566.104 333.554C566.104 335.618 567.777 337.291 569.841 337.291Z" fill="#FFE0D2"/>
<path d="M349.438 174.807C351.502 174.807 353.175 173.134 353.175 171.069C353.175 169.005 351.502 167.332 349.438 167.332C347.374 167.332 345.7 169.005 345.7 171.069C345.7 173.134 347.374 174.807 349.438 174.807Z" fill="#FFE0D2"/>
<path d="M575.556 47.7411C581.749 47.7411 586.768 42.7212 586.768 36.5288C586.768 30.3364 581.749 25.3164 575.556 25.3164C569.364 25.3164 564.344 30.3364 564.344 36.5288C564.344 42.7212 569.364 47.7411 575.556 47.7411Z" fill="#FFE0D2"/>
<path d="M304.592 139.306C310.785 139.306 315.805 134.286 315.805 128.093C315.805 121.901 310.785 116.881 304.592 116.881C298.4 116.881 293.38 121.901 293.38 128.093C293.38 134.286 298.4 139.306 304.592 139.306Z" fill="#FFE0D2"/>
<path d="M155.106 408.415C161.298 408.415 166.318 403.395 166.318 397.203C166.318 391.01 161.298 385.99 155.106 385.99C148.914 385.99 143.894 391.01 143.894 397.203C143.894 403.395 148.914 408.415 155.106 408.415Z" fill="#FFE0D2"/>
<path d="M207.338 232.434C206.084 244.647 211.011 256.062 211.947 268.081C212.429 273.632 211.698 279.223 209.805 284.453C209.274 286.233 208.418 287.896 207.282 289.355C207.063 289.684 206.764 289.951 206.414 290.129C206.064 290.307 205.674 290.39 205.283 290.37C204.49 290.185 204.037 289.266 203.792 288.565C203.212 286.952 202.998 284.857 203.998 283.389C204.997 281.922 206.172 281.946 207.481 282.769C210.075 284.381 212.13 287.767 213.034 290.677C214.867 296.545 213.034 302.213 210.234 307.404C207.489 312.475 204.037 317.078 201.507 322.301C199.539 326.332 197.897 330.879 197.865 335.449C197.865 338.714 198.54 342.769 201.483 344.655C202.21 345.094 203.022 345.369 203.863 345.461C204.656 345.574 205.061 344.276 204.22 344.155C200.015 343.567 199.143 338.674 199.23 335.078C199.357 329.814 201.61 324.655 204.149 320.149C209.337 310.806 218.849 300.197 213.764 288.71C213.016 287.061 212.058 285.519 210.916 284.123C209.913 282.713 208.538 281.62 206.949 280.971C206.258 280.754 205.517 280.766 204.833 281.007C204.149 281.248 203.559 281.704 203.149 282.309C202.63 283.056 202.273 283.907 202.102 284.805C201.931 285.702 201.95 286.627 202.157 287.517C202.419 289.129 203.181 291.233 204.926 291.676C206.671 292.12 208.155 290.612 209.043 289.258C209.991 287.674 210.752 285.983 211.312 284.22C212.307 281.463 212.952 278.589 213.232 275.667C214.486 262.64 208.599 250.411 208.472 237.496C208.45 235.817 208.527 234.137 208.702 232.466C208.79 231.604 207.465 231.612 207.377 232.466L207.338 232.434Z" fill="#3A5769"/>
<path d="M225.561 239.573C226.767 241 228.021 243.861 225.093 247.078C222.166 250.294 217.477 248.263 217.477 248.263C216.807 249.822 215.694 251.143 214.28 252.055C212.867 252.967 211.217 253.429 209.543 253.382C207.87 253.429 206.22 252.967 204.806 252.055C203.393 251.143 202.28 249.822 201.61 248.263C201.61 248.263 196.921 250.286 193.994 247.078C191.066 243.869 192.32 241 193.526 239.573C195.47 237.283 202.784 231.963 202.784 231.963H216.303C216.303 231.963 223.625 237.275 225.561 239.573Z" fill="#FF4E4F"/>
<path d="M246.895 188.165C246.897 191.044 246.664 193.919 246.197 196.758C243.317 214.324 231.773 228.198 217.089 231.777L216.295 231.954C214.064 232.443 211.787 232.689 209.504 232.688H208.624C208.179 232.688 207.743 232.688 207.307 232.623C205.77 232.52 204.242 232.302 202.737 231.97L201.944 231.785C197.94 230.786 194.15 229.054 190.757 226.674C186.391 223.607 182.665 219.692 179.793 215.154C177.595 211.718 175.853 208.002 174.613 204.102C173.475 200.564 172.727 196.909 172.384 193.203C172.225 191.591 172.146 189.925 172.146 188.205C172.14 184.543 172.515 180.889 173.264 177.307C174.047 173.537 175.269 169.875 176.906 166.4C183.308 152.816 195.518 143.643 209.52 143.643C210.881 143.642 212.24 143.731 213.59 143.909C217.337 144.395 220.974 145.535 224.34 147.278C228.56 149.495 232.329 152.504 235.447 156.146C238.087 159.18 240.305 162.567 242.039 166.214C243.284 168.819 244.293 171.534 245.054 174.324C246.285 178.831 246.904 183.488 246.895 188.165Z" fill="#FF4E4F"/>
<path d="M216.306 232.786H202.724C202.514 232.786 202.312 232.701 202.163 232.55C202.014 232.399 201.931 232.194 201.931 231.98C201.931 231.766 202.014 231.561 202.163 231.41C202.312 231.259 202.514 231.174 202.724 231.174H216.306C216.517 231.174 216.718 231.259 216.867 231.41C217.016 231.561 217.099 231.766 217.099 231.98C217.099 232.194 217.016 232.399 216.867 232.55C216.718 232.701 216.517 232.786 216.306 232.786Z" fill="#3A5769"/>
<path d="M224.335 147.301C222.166 150.427 219.757 153.373 217.131 156.112C214.659 158.718 212.008 161.143 209.198 163.367C206.29 165.766 203.196 167.923 199.947 169.816C194.422 172.965 188.44 175.202 182.224 176.443C181.764 176.532 181.296 176.62 180.836 176.693C179.78 176.862 178.725 177.007 177.662 177.112C176.195 177.257 174.711 177.33 173.235 177.33C174.026 173.559 175.256 169.897 176.901 166.423H176.98H177.519C177.639 166.388 177.761 166.364 177.884 166.35L178.487 166.237C179.36 166.092 180.233 165.915 181.097 165.713C181.581 165.6 182.065 165.488 182.549 165.359C184.916 164.73 187.24 163.946 189.507 163.013L189.816 162.892C190.269 162.682 190.435 162.61 190.451 162.61C190.673 162.521 190.887 162.416 191.109 162.311C191.712 162.029 192.315 161.731 192.91 161.425C194.1 160.823 195.261 160.167 196.393 159.458C197.797 158.579 199.154 157.628 200.487 156.644C200.82 156.402 201.153 156.145 201.478 155.895L201.701 155.733L201.828 155.629C201.705 155.709 201.589 155.798 201.478 155.895C201.859 155.371 202.05 155.411 201.835 155.621L201.954 155.532C202.597 155.016 203.24 154.492 203.866 153.92C206.34 151.804 208.677 149.528 210.864 147.108C211.816 146.076 212.723 145.017 213.585 143.932C217.332 144.418 220.969 145.558 224.335 147.301Z" fill="#FFA9AB"/>
<path d="M242.039 166.232C239.872 169.596 237.458 172.789 234.819 175.785C232.207 178.835 229.355 181.663 226.291 184.241C219.228 190.076 211.327 194.777 202.863 198.179C196.646 200.717 190.149 202.476 183.513 203.419C182.133 203.629 180.761 203.79 179.372 203.927H179.158C177.65 204.073 176.135 204.127 174.62 204.088C173.482 200.561 172.731 196.916 172.383 193.221H172.494H172.756C174.045 193.338 175.341 193.371 176.635 193.318C176.968 193.318 177.302 193.302 177.635 193.27C178.428 193.27 179.221 193.157 179.967 193.076L180.872 192.98H180.967C184.584 192.466 188.165 191.712 191.685 190.722C193.621 190.185 195.535 189.556 197.429 188.836C198.42 188.465 199.412 188.03 200.396 187.667H200.451H200.523H200.586H200.626H200.586H200.65H200.697L201.959 187.095C205.64 185.345 209.197 183.339 212.605 181.089C214.192 180.073 215.739 178.999 217.247 177.865L217.469 177.695L217.524 177.647C217.597 177.598 217.666 177.544 217.73 177.486C218.08 177.212 218.413 176.93 218.754 176.68C219.468 176.075 220.174 175.462 220.872 174.834C223.654 172.305 226.243 169.564 228.615 166.635C228.933 166.248 229.242 165.829 229.551 165.466L229.781 165.176L229.829 165.112L229.9 165.015L229.956 164.942C230.44 164.281 230.924 163.62 231.392 162.951C232.316 161.653 233.174 160.308 233.962 158.921C234.486 157.994 234.994 157.058 235.47 156.115C238.105 159.166 240.316 162.57 242.039 166.232Z" fill="#FFA9AB"/>
<path d="M213.467 209.881L213.251 209.972L213.419 209.897L213.467 209.881Z" fill="#FFA9AB"/>
<path d="M245.045 174.316C244.787 175.61 244.458 176.889 244.061 178.146C243.815 178.952 243.545 179.709 243.268 180.475C243.271 180.438 243.271 180.4 243.268 180.362C243.149 180.601 243.056 180.853 242.99 181.112L243.061 180.959C243.022 181.04 242.99 181.128 242.958 181.209V181.112C242.815 181.451 242.665 181.789 242.506 182.12C241.726 183.778 240.86 185.392 239.912 186.957C238.928 188.569 237.865 190.117 236.738 191.624L236.691 191.689L236.5 191.922L235.707 192.89C235.109 193.664 234.477 194.413 233.811 195.139C231.432 197.789 228.848 200.243 226.084 202.475L226.004 202.539L225.893 202.628C225.875 202.624 225.856 202.624 225.838 202.628L225.735 202.716C225.425 202.942 225.124 203.176 224.806 203.402C224.084 203.934 223.355 204.441 222.609 204.941C221.26 205.828 219.872 206.666 218.452 207.424C217.262 208.061 216.072 208.641 214.834 209.206L213.89 209.625L214.041 209.568C213.336 209.941 212.607 210.264 211.859 210.536C208.802 211.733 205.685 212.766 202.521 213.631C200.876 214.088 199.218 214.494 197.547 214.849C196.801 215.01 196.055 215.155 195.31 215.292L193.905 215.526L193.231 215.614H193.08H192.89H192.763C189.603 215.984 186.415 216.048 183.243 215.808H182.997L182.616 215.76H182.727L182.22 215.695H182.577C182.18 215.631 181.783 215.558 181.379 215.469C180.823 215.356 180.276 215.219 179.736 215.058C182.613 219.629 186.356 223.572 190.748 226.658H190.978C198.382 225.983 205.666 224.31 212.636 221.685C218.88 219.403 224.957 216.582 230.352 212.6C236.411 208.174 241.763 202.826 246.219 196.743C246.686 193.903 246.92 191.029 246.917 188.15C246.915 183.473 246.285 178.819 245.045 174.316ZM243.149 180.765C243.125 180.826 243.099 180.885 243.069 180.943C243.069 180.854 243.149 180.757 243.18 180.669C243.212 180.58 243.18 180.58 243.236 180.532C243.212 180.588 243.18 180.709 243.149 180.749V180.765Z" fill="#FFA9AB"/>
<path d="M178.926 196.711C178.417 196.709 177.926 196.521 177.542 196.183C177.158 195.844 176.906 195.376 176.832 194.865C176.506 192.653 176.345 190.419 176.348 188.182C176.348 173.237 183.385 159.806 194.722 153.14C194.963 152.998 195.229 152.906 195.505 152.868C195.782 152.831 196.062 152.849 196.332 152.922C196.601 152.995 196.853 153.122 197.075 153.294C197.296 153.466 197.482 153.681 197.621 153.926C197.761 154.171 197.852 154.441 197.888 154.722C197.925 155.003 197.907 155.288 197.835 155.562C197.763 155.835 197.639 156.092 197.47 156.317C197.3 156.541 197.089 156.73 196.848 156.872C186.82 162.773 180.592 174.768 180.592 188.182C180.593 190.208 180.739 192.232 181.028 194.236C181.103 194.797 180.958 195.365 180.624 195.817C180.29 196.27 179.794 196.571 179.243 196.655L178.926 196.711Z" fill="white"/>
<path d="M183.904 211.234C183.533 211.233 183.168 211.134 182.847 210.946C182.525 210.758 182.258 210.487 182.071 210.162C180.697 207.768 179.562 205.24 178.683 202.616C178.593 202.349 178.556 202.065 178.574 201.783C178.591 201.5 178.663 201.224 178.786 200.97C178.909 200.716 179.079 200.489 179.288 200.302C179.497 200.115 179.741 199.971 180.004 199.88C180.268 199.788 180.547 199.75 180.825 199.768C181.103 199.786 181.374 199.859 181.625 199.984C181.875 200.109 182.098 200.282 182.282 200.494C182.466 200.707 182.608 200.954 182.698 201.222C183.488 203.573 184.506 205.838 185.736 207.985C185.876 208.232 185.967 208.504 186.003 208.786C186.038 209.068 186.019 209.354 185.945 209.629C185.871 209.903 185.745 210.16 185.573 210.384C185.401 210.608 185.187 210.796 184.943 210.936C184.628 211.126 184.27 211.229 183.904 211.234Z" fill="white"/>
<path d="M631.641 271.1C630.575 281.277 634.763 290.789 635.558 300.805C635.968 305.431 635.346 310.09 633.738 314.449C633.286 315.932 632.559 317.318 631.593 318.534C631.407 318.808 631.153 319.031 630.855 319.179C630.557 319.327 630.226 319.396 629.894 319.38C629.22 319.226 628.835 318.46 628.626 317.875C628.134 316.532 627.952 314.785 628.802 313.562C629.651 312.34 630.649 312.36 631.762 313.045C633.967 314.389 635.714 317.21 636.482 319.635C638.04 324.526 636.482 329.248 634.102 333.575C631.769 337.8 628.835 341.636 626.684 345.989C625.012 349.348 623.616 353.137 623.589 356.946C623.589 359.666 624.162 363.045 626.664 364.617C627.282 364.983 627.972 365.212 628.687 365.289C629.361 365.383 629.705 364.302 628.99 364.201C625.416 363.71 624.675 359.633 624.749 356.637C624.857 352.25 626.772 347.951 628.93 344.195C633.34 336.41 641.425 327.569 637.103 317.996C636.467 316.622 635.653 315.337 634.682 314.174C633.83 312.998 632.661 312.088 631.31 311.547C630.723 311.366 630.093 311.376 629.511 311.577C628.93 311.778 628.429 312.158 628.08 312.662C627.639 313.285 627.335 313.994 627.19 314.742C627.045 315.49 627.061 316.26 627.237 317.002C627.46 318.345 628.107 320.099 629.591 320.468C631.074 320.838 632.335 319.582 633.09 318.453C633.896 317.133 634.543 315.724 635.019 314.254C635.865 311.957 636.413 309.562 636.651 307.127C637.716 296.271 632.713 286.08 632.605 275.318C632.586 273.918 632.651 272.519 632.8 271.126C632.875 270.408 631.748 270.414 631.674 271.126L631.641 271.1Z" fill="#3A5769"/>
<path d="M647.148 277.029C648.173 278.218 649.239 280.603 646.75 283.283C644.262 285.964 640.277 284.271 640.277 284.271C639.707 285.57 638.761 286.671 637.56 287.431C636.358 288.191 634.956 288.576 633.533 288.537C632.11 288.576 630.708 288.191 629.507 287.431C628.305 286.671 627.359 285.57 626.79 284.271C626.79 284.271 622.804 285.957 620.316 283.283C617.828 280.61 618.893 278.218 619.918 277.029C621.57 275.121 627.788 270.688 627.788 270.688H639.279C639.279 270.688 645.503 275.114 647.148 277.029Z" fill="#FFA800"/>
<path d="M665.269 234.204C665.272 236.603 665.073 238.998 664.676 241.365C662.228 256.003 652.416 267.564 639.934 270.547L639.26 270.694C637.363 271.102 635.428 271.307 633.487 271.306H632.739C632.361 271.306 631.99 271.306 631.619 271.252C630.313 271.166 629.015 270.985 627.735 270.708L627.061 270.553C623.658 269.721 620.436 268.278 617.553 266.294C613.841 263.738 610.674 260.476 608.233 256.695C606.364 253.831 604.884 250.735 603.83 247.485C602.862 244.536 602.227 241.49 601.935 238.402C601.8 237.059 601.732 235.67 601.732 234.237C601.727 231.185 602.046 228.141 602.683 225.155C603.349 222.013 604.388 218.962 605.779 216.066C611.221 204.746 621.599 197.102 633.501 197.102C634.658 197.101 635.813 197.175 636.96 197.323C640.145 197.729 643.237 198.679 646.098 200.131C649.685 201.978 652.888 204.486 655.538 207.521C657.783 210.049 659.668 212.872 661.142 215.911C662.2 218.082 663.058 220.344 663.705 222.669C664.751 226.425 665.277 230.306 665.269 234.204Z" fill="#FFA800"/>
<path d="M639.264 271.371H627.719C627.54 271.371 627.369 271.3 627.242 271.174C627.116 271.048 627.045 270.877 627.045 270.699C627.045 270.521 627.116 270.35 627.242 270.224C627.369 270.098 627.54 270.027 627.719 270.027H639.264C639.443 270.027 639.614 270.098 639.741 270.224C639.867 270.35 639.938 270.521 639.938 270.699C639.938 270.877 639.867 271.048 639.741 271.174C639.614 271.3 639.443 271.371 639.264 271.371Z" fill="#3A5769"/>
<path d="M646.09 200.14C644.246 202.744 642.199 205.2 639.967 207.483C637.865 209.654 635.612 211.674 633.223 213.529C630.752 215.528 628.122 217.325 625.36 218.903C620.664 221.527 615.579 223.391 610.296 224.425C609.904 224.499 609.507 224.573 609.115 224.633C608.219 224.774 607.322 224.895 606.418 224.982C605.171 225.103 603.91 225.164 602.655 225.164C603.327 222.021 604.373 218.97 605.771 216.075H605.838H606.297C606.398 216.046 606.502 216.026 606.607 216.014L607.119 215.92C607.861 215.799 608.603 215.651 609.338 215.483C609.749 215.389 610.161 215.295 610.572 215.188C612.584 214.664 614.559 214.011 616.486 213.233L616.749 213.132C617.133 212.958 617.275 212.897 617.289 212.897C617.477 212.823 617.659 212.736 617.848 212.648C618.361 212.413 618.873 212.165 619.379 211.91C620.391 211.408 621.377 210.862 622.339 210.27C623.533 209.538 624.686 208.745 625.819 207.926C626.102 207.724 626.385 207.509 626.662 207.301L626.851 207.167L626.959 207.079C626.855 207.146 626.755 207.22 626.662 207.301C626.986 206.865 627.147 206.898 626.965 207.073L627.067 206.999C627.613 206.569 628.159 206.132 628.692 205.655C630.794 203.892 632.781 201.996 634.639 199.979C635.449 199.119 636.22 198.237 636.952 197.332C640.138 197.738 643.229 198.688 646.09 200.14Z" fill="#FFE9E0"/>
<path d="M661.136 215.929C659.294 218.732 657.243 221.393 655 223.889C652.78 226.431 650.355 228.788 647.75 230.936C641.747 235.799 635.032 239.716 627.837 242.551C622.553 244.666 617.03 246.132 611.39 246.918C610.216 247.092 609.05 247.227 607.87 247.341H607.688C606.406 247.463 605.118 247.508 603.83 247.475C602.863 244.536 602.225 241.499 601.929 238.42H602.023H602.246C603.342 238.517 604.443 238.544 605.543 238.5C605.826 238.5 606.11 238.487 606.393 238.46C607.067 238.46 607.742 238.366 608.375 238.299L609.144 238.218H609.225C612.3 237.79 615.343 237.162 618.336 236.337C619.981 235.889 621.608 235.366 623.218 234.765C624.061 234.456 624.904 234.094 625.74 233.791H625.787H625.848H625.902H625.935H625.902H625.956H625.996L627.068 233.314C630.197 231.856 633.221 230.184 636.118 228.31C637.467 227.463 638.782 226.567 640.063 225.623L640.252 225.481L640.299 225.441C640.361 225.401 640.419 225.356 640.474 225.307C640.771 225.078 641.054 224.843 641.344 224.635C641.951 224.131 642.551 223.621 643.145 223.097C645.509 220.989 647.71 218.705 649.726 216.265C649.996 215.942 650.259 215.593 650.522 215.291L650.718 215.049L650.758 214.995L650.819 214.914L650.866 214.854C651.277 214.303 651.689 213.752 652.086 213.195C652.872 212.113 653.601 210.992 654.271 209.836C654.716 209.063 655.148 208.284 655.553 207.498C657.793 210.04 659.672 212.877 661.136 215.929Z" fill="#FFE9E0"/>
<path d="M636.842 252.279L636.679 252.347L636.806 252.292L636.842 252.279Z" fill="#FFE9E0"/>
<path d="M663.71 222.684C663.491 223.762 663.212 224.827 662.874 225.875C662.665 226.546 662.436 227.178 662.2 227.816C662.203 227.785 662.203 227.753 662.2 227.722C662.099 227.921 662.02 228.131 661.964 228.347L662.024 228.219C661.991 228.286 661.964 228.36 661.937 228.427V228.347C661.815 228.629 661.687 228.911 661.552 229.186C660.89 230.568 660.154 231.913 659.347 233.217C658.511 234.561 657.607 235.85 656.65 237.107L656.609 237.16L656.448 237.355L655.773 238.161C655.265 238.806 654.728 239.431 654.162 240.036C652.139 242.244 649.943 244.289 647.593 246.149L647.526 246.202L647.432 246.276C647.416 246.273 647.4 246.273 647.384 246.276L647.297 246.35C647.034 246.538 646.777 246.733 646.508 246.921C645.894 247.365 645.274 247.788 644.64 248.204C643.493 248.943 642.313 249.642 641.106 250.273C640.095 250.804 639.083 251.288 638.031 251.758L637.229 252.107L637.357 252.06C636.758 252.37 636.138 252.64 635.502 252.866C632.904 253.864 630.254 254.725 627.565 255.446C626.167 255.827 624.758 256.165 623.337 256.46C622.703 256.595 622.07 256.716 621.436 256.83L620.242 257.025L619.669 257.099H619.541H619.379H619.271C616.585 257.406 613.875 257.46 611.179 257.26H610.97L610.646 257.22H610.741L610.309 257.166H610.612C610.275 257.112 609.938 257.052 609.594 256.978C609.122 256.884 608.657 256.769 608.198 256.635C610.643 260.444 613.825 263.73 617.558 266.302H617.754C624.047 265.739 630.238 264.345 636.163 262.157C641.47 260.256 646.636 257.905 651.221 254.586C656.372 250.898 660.921 246.441 664.708 241.372C665.106 239.006 665.304 236.611 665.302 234.211C665.3 230.314 664.765 226.436 663.71 222.684ZM662.099 228.058C662.079 228.108 662.056 228.158 662.031 228.206C662.031 228.132 662.099 228.051 662.126 227.977C662.153 227.903 662.126 227.903 662.173 227.863C662.153 227.91 662.126 228.011 662.099 228.044V228.058Z" fill="#FFE9E0"/>
<path d="M607.505 241.297C607.073 241.295 606.655 241.139 606.329 240.857C606.002 240.575 605.788 240.185 605.725 239.759C605.448 237.915 605.311 236.054 605.314 234.19C605.314 221.735 611.295 210.543 620.931 204.988C621.136 204.87 621.363 204.793 621.598 204.762C621.832 204.731 622.071 204.746 622.3 204.807C622.529 204.868 622.743 204.973 622.931 205.116C623.12 205.26 623.277 205.439 623.396 205.643C623.515 205.847 623.592 206.073 623.623 206.306C623.654 206.54 623.639 206.778 623.578 207.006C623.517 207.234 623.411 207.448 623.267 207.635C623.123 207.823 622.944 207.98 622.739 208.098C614.215 213.016 608.921 223.012 608.921 234.19C608.922 235.878 609.046 237.564 609.292 239.235C609.356 239.702 609.232 240.175 608.948 240.553C608.664 240.93 608.243 241.18 607.775 241.25L607.505 241.297Z" fill="white"/>
<path d="M611.718 253.422C611.402 253.421 611.093 253.338 610.819 253.182C610.546 253.025 610.319 252.8 610.16 252.528C608.992 250.533 608.027 248.427 607.281 246.241C607.204 246.017 607.172 245.781 607.187 245.546C607.202 245.311 607.264 245.08 607.368 244.869C607.472 244.657 607.617 244.468 607.795 244.312C607.973 244.156 608.179 244.036 608.403 243.96C608.627 243.884 608.864 243.852 609.101 243.867C609.337 243.882 609.568 243.943 609.781 244.047C609.993 244.151 610.183 244.295 610.34 244.472C610.496 244.649 610.616 244.855 610.693 245.078C611.364 247.038 612.23 248.926 613.275 250.715C613.394 250.92 613.471 251.147 613.502 251.382C613.532 251.617 613.516 251.855 613.453 252.084C613.39 252.313 613.283 252.527 613.136 252.714C612.99 252.901 612.808 253.057 612.601 253.173C612.334 253.332 612.029 253.417 611.718 253.422Z" fill="white"/>
<path d="M477.503 269.241C476.257 281.002 481.176 291.995 482.112 303.561C482.592 308.909 481.864 314.295 479.978 319.336C479.447 321.052 478.588 322.653 477.447 324.056C477.228 324.373 476.928 324.629 476.578 324.801C476.228 324.972 475.839 325.052 475.448 325.034C474.655 324.863 474.211 323.978 473.957 323.295C473.378 321.743 473.163 319.732 474.171 318.319C475.178 316.906 476.337 316.922 477.646 317.721C480.248 319.274 482.295 322.534 483.199 325.337C485.032 330.981 483.199 336.438 480.399 341.445C477.662 346.32 474.211 350.761 471.672 355.783C469.696 359.665 468.062 364.043 468.022 368.445C468.022 371.597 468.705 375.502 471.64 377.318C472.368 377.74 473.179 378.004 474.02 378.094C474.861 378.211 475.218 376.961 474.377 376.845C470.172 376.278 469.3 371.558 469.387 368.103C469.514 363.026 471.767 358.066 474.306 353.726C479.502 344.729 489.006 334.505 483.921 323.45C483.178 321.858 482.22 320.369 481.073 319.025C480.068 317.669 478.694 316.617 477.106 315.99C476.424 315.776 475.69 315.779 475.01 315.999C474.329 316.22 473.738 316.646 473.322 317.217C472.799 317.934 472.439 318.753 472.266 319.618C472.094 320.483 472.113 321.374 472.322 322.232C472.584 323.784 473.354 325.81 475.099 326.245C476.844 326.68 478.32 325.22 479.209 323.916C480.158 322.392 480.919 320.763 481.478 319.064C482.472 316.407 483.117 313.637 483.398 310.82C484.659 298.283 478.772 286.498 478.637 274.07C478.619 272.452 478.696 270.835 478.868 269.226C478.955 268.395 477.63 268.403 477.543 269.226L477.503 269.241Z" fill="#3A5769"/>
<path d="M495.725 276.143C496.931 277.517 498.184 280.273 495.257 283.362C492.329 286.452 487.641 284.511 487.641 284.511C486.971 286.013 485.858 287.285 484.444 288.163C483.031 289.041 481.381 289.486 479.707 289.441C478.034 289.485 476.384 289.04 474.971 288.162C473.558 287.283 472.444 286.012 471.774 284.511C471.774 284.511 467.093 286.46 464.166 283.362C461.238 280.265 462.492 277.517 463.69 276.143C465.633 273.93 472.948 268.814 472.948 268.814H486.467C486.467 268.814 493.789 273.923 495.725 276.143Z" fill="#3FC6FF"/>
<path d="M517.053 226.629C517.056 229.402 516.822 232.17 516.355 234.905C512.999 254.623 497.838 269.504 479.678 269.504C472.971 269.478 466.431 267.459 460.924 263.713C456.555 260.762 452.828 256.991 449.959 252.62C447.761 249.31 446.017 245.731 444.771 241.977C443.633 238.57 442.885 235.05 442.542 231.481V231.434C442.391 229.882 442.312 228.252 442.312 226.629C442.304 223.112 442.679 219.604 443.43 216.165C444.214 212.538 445.433 209.015 447.064 205.669C453.474 192.588 465.676 183.754 479.678 183.754C481.039 183.753 482.399 183.839 483.748 184.01C487.495 184.479 491.132 185.577 494.498 187.255C498.719 189.388 502.488 192.286 505.605 195.794C508.245 198.717 510.463 201.979 512.198 205.49C513.438 207.984 514.447 210.583 515.212 213.253C516.447 217.609 517.066 222.109 517.053 226.629Z" fill="#3FC6FF"/>
<path d="M486.48 269.594H472.89C472.68 269.594 472.478 269.512 472.329 269.366C472.18 269.221 472.097 269.023 472.097 268.817C472.097 268.611 472.18 268.414 472.329 268.268C472.478 268.123 472.68 268.041 472.89 268.041H486.48C486.69 268.041 486.892 268.123 487.041 268.268C487.19 268.414 487.273 268.611 487.273 268.817C487.273 269.023 487.19 269.221 487.041 269.366C486.892 269.512 486.69 269.594 486.48 269.594Z" fill="#3A5769"/>
<path d="M472.045 195.211C471.926 195.297 471.775 195.398 471.68 195.483C472.061 194.978 472.243 195.009 472.045 195.211Z" fill="#BFECFF"/>
<path d="M494.493 187.27C492.324 190.278 489.915 193.112 487.289 195.748C484.813 198.253 482.162 200.588 479.356 202.734C476.442 205.04 473.346 207.117 470.097 208.945C464.576 211.971 458.6 214.122 452.39 215.318C451.93 215.404 451.462 215.489 450.994 215.559C449.939 215.722 448.875 215.854 447.82 215.963C446.352 216.106 444.877 216.176 443.401 216.172C444.193 212.547 445.421 209.027 447.059 205.684H447.138H447.678C447.797 205.651 447.919 205.628 448.042 205.614L448.645 205.506C449.526 205.358 450.391 205.195 451.255 205.001C451.739 204.892 452.223 204.784 452.707 204.66C455.077 204.063 457.401 203.308 459.665 202.401L459.871 202.323C460.347 202.106 460.546 202.02 460.601 202.005L460.514 202.051L461.307 201.717C461.918 201.438 462.521 201.158 463.116 200.863C464.298 200.273 465.496 199.645 466.591 198.969C467.995 198.123 469.352 197.199 470.685 196.252L471.652 195.538L471.875 195.383L472.017 195.266L472.136 195.189C472.779 194.692 473.414 194.179 474.04 193.636C476.518 191.603 478.855 189.411 481.038 187.076C481.966 186.098 482.886 185.066 483.743 184.025C487.49 184.494 491.127 185.592 494.493 187.27Z" fill="#BFECFF"/>
<path d="M512.199 205.481C510.034 208.72 507.62 211.792 504.979 214.673C502.356 217.612 499.493 220.338 496.419 222.824C489.366 228.44 481.476 232.967 473.023 236.246C466.806 238.69 460.309 240.384 453.674 241.292C452.293 241.486 450.913 241.649 449.524 241.781H449.31C447.802 241.922 446.287 241.974 444.772 241.937C443.637 238.54 442.889 235.03 442.543 231.472V231.425H442.702H442.932C444.222 231.537 445.517 231.57 446.811 231.526L447.803 231.48C448.596 231.433 449.39 231.371 450.135 231.286L451.032 231.231H451.087C454.703 230.729 458.283 230.003 461.805 229.058C463.741 228.522 465.661 227.917 467.549 227.233C468.541 226.876 469.533 226.504 470.516 226.108C470.637 226.048 470.761 225.996 470.889 225.953H470.842H470.889L472.182 225.386C475.835 223.756 479.371 221.886 482.766 219.789C484.352 218.811 485.939 217.755 487.407 216.683L487.629 216.513L487.899 216.319C488.232 216.055 488.557 215.798 488.882 215.542C489.604 214.968 490.302 214.378 491.001 213.772C493.768 211.349 496.348 208.728 498.72 205.932C499.029 205.567 499.339 205.155 499.648 204.814C499.711 204.728 499.783 204.651 499.854 204.565C499.878 204.53 499.905 204.496 499.934 204.464L500.037 204.332C500.521 203.704 501.005 203.059 501.473 202.407C502.4 201.158 503.261 199.862 504.051 198.526C504.567 197.625 505.075 196.732 505.543 195.816C508.202 198.725 510.442 201.977 512.199 205.481Z" fill="#BFECFF"/>
<path d="M515.213 213.307C514.956 214.552 514.63 215.783 514.237 216.994C513.991 217.732 513.73 218.461 513.444 219.183C513.447 219.165 513.447 219.147 513.444 219.129C513.322 219.346 513.231 219.578 513.174 219.82L513.222 219.727C513.222 219.797 513.158 219.874 513.135 219.944C513.111 220.014 513.135 219.859 513.135 219.82C512.984 220.154 512.825 220.495 512.666 220.829C511.885 222.425 511.019 223.979 510.072 225.487C509.112 227.001 508.065 228.46 506.978 229.889L506.645 230.292L505.852 231.224C505.225 231.953 504.582 232.668 503.924 233.374C501.564 235.894 499.007 238.23 496.276 240.361L496.252 240.431L496.173 240.493L496.101 240.555L495.974 240.656H495.911L494.991 241.323C494.261 241.828 493.531 242.325 492.785 242.798C491.394 243.699 489.99 244.517 488.573 245.252C487.382 245.857 486.177 246.426 484.955 246.959L484.019 247.363L483.59 247.549L484.201 247.293C483.501 247.629 482.778 247.914 482.035 248.147C478.978 249.31 475.861 250.318 472.698 251.167C471.047 251.612 469.389 252.005 467.723 252.347C466.978 252.494 466.224 252.642 465.478 252.766C465.013 252.854 464.545 252.932 464.074 252.999L463.281 253.092H463.415H463.185H463.074C459.893 253.454 456.685 253.522 453.491 253.294L452.745 253.209H452.872C452.737 253.209 452.602 253.209 452.475 253.162H452.737C452.372 253.1 451.999 253.038 451.642 252.96C451.095 252.844 450.539 252.712 450 252.564C452.85 256.954 456.564 260.746 460.924 263.72H461.147C468.55 263.065 475.833 261.455 482.805 258.93C489.049 256.733 495.133 254.008 500.52 250.181C506.578 245.917 511.93 240.767 516.387 234.911C516.855 232.177 517.088 229.408 517.085 226.636C517.084 222.13 516.454 217.646 515.213 213.307ZM513.325 219.517L513.238 219.696C513.238 219.602 513.317 219.517 513.349 219.432L513.404 219.292C513.382 219.353 513.356 219.413 513.325 219.47V219.517Z" fill="#BFECFF"/>
<path d="M449.085 234.85C448.577 234.85 448.086 234.671 447.702 234.346C447.317 234.021 447.065 233.572 446.991 233.08C446.67 230.949 446.508 228.798 446.507 226.644C446.507 212.252 453.552 199.319 464.881 192.898C465.122 192.762 465.388 192.673 465.664 192.637C465.941 192.601 466.222 192.619 466.491 192.689C466.76 192.76 467.013 192.881 467.234 193.047C467.455 193.213 467.641 193.419 467.78 193.655C467.92 193.891 468.011 194.152 468.047 194.422C468.084 194.693 468.066 194.967 467.994 195.231C467.922 195.494 467.798 195.741 467.629 195.958C467.459 196.174 467.248 196.356 467.007 196.493C456.987 202.175 450.759 213.727 450.759 226.644C450.758 228.595 450.901 230.544 451.188 232.474C451.265 233.015 451.12 233.563 450.786 233.999C450.451 234.435 449.954 234.725 449.403 234.803C449.298 234.827 449.192 234.842 449.085 234.85Z" fill="white"/>
<path d="M454.076 248.847C453.704 248.847 453.339 248.753 453.016 248.573C452.693 248.394 452.424 248.135 452.235 247.822C450.861 245.514 449.726 243.077 448.847 240.548C448.665 240.027 448.702 239.457 448.95 238.962C449.198 238.468 449.636 238.09 450.168 237.912C450.701 237.734 451.284 237.77 451.789 238.013C452.294 238.255 452.68 238.684 452.862 239.205C453.652 241.469 454.67 243.651 455.9 245.718C456.04 245.956 456.131 246.219 456.167 246.491C456.203 246.763 456.183 247.039 456.11 247.304C456.036 247.569 455.909 247.817 455.737 248.034C455.565 248.251 455.351 248.432 455.107 248.567C454.794 248.747 454.438 248.843 454.076 248.847Z" fill="white"/>
<path d="M102.057 292.845C100.811 304.606 105.73 315.598 106.666 327.165C107.146 332.513 106.418 337.898 104.532 342.94C104.001 344.655 103.142 346.257 102.001 347.659C101.781 347.976 101.482 348.233 101.132 348.404C100.782 348.575 100.393 348.656 100.002 348.638C99.2085 348.467 98.7643 347.582 98.5104 346.899C97.9313 345.346 97.7171 343.335 98.7246 341.923C99.7322 340.51 100.89 340.525 102.199 341.325C104.802 342.877 106.848 346.138 107.753 348.94C109.586 354.584 107.753 360.041 104.952 365.049C102.215 369.924 98.7643 374.364 96.2256 379.387C94.2501 383.269 92.6158 387.647 92.5762 392.049C92.5762 395.2 93.2585 399.105 96.1938 400.922C96.9218 401.343 97.7332 401.608 98.5739 401.698C99.4148 401.814 99.7718 400.565 98.9309 400.448C94.7261 399.881 93.8535 395.161 93.9407 391.707C94.0677 386.63 96.3208 381.669 98.8595 377.33C104.056 368.332 113.56 358.108 108.475 347.054C107.732 345.461 106.774 343.973 105.627 342.629C104.622 341.273 103.247 340.221 101.66 339.594C100.978 339.379 100.244 339.382 99.5634 339.603C98.8832 339.823 98.2922 340.25 97.8757 340.82C97.3524 341.538 96.9923 342.356 96.8199 343.222C96.6474 344.087 96.6666 344.978 96.8761 345.835C97.1379 347.388 97.9075 349.414 99.6528 349.849C101.398 350.283 102.874 348.824 103.762 347.52C104.711 345.995 105.473 344.367 106.031 342.668C107.026 340.01 107.671 337.24 107.951 334.423C109.213 321.886 103.326 310.102 103.191 297.673C103.172 296.055 103.249 294.438 103.421 292.829C103.508 291.998 102.184 292.006 102.096 292.829L102.057 292.845Z" fill="#3A5769"/>
<path d="M120.286 299.746C121.492 301.12 122.746 303.876 119.818 306.966C116.891 310.056 112.202 308.115 112.202 308.115C111.532 309.617 110.419 310.888 109.006 311.767C107.592 312.645 105.943 313.09 104.269 313.044C102.595 313.089 100.946 312.643 99.5326 311.765C98.1192 310.887 97.0059 309.616 96.3353 308.115C96.3353 308.115 91.6545 310.063 88.7271 306.966C85.7996 303.868 87.0531 301.12 88.2511 299.746C90.1948 297.534 97.5094 292.418 97.5094 292.418H111.028C111.028 292.418 118.351 297.526 120.286 299.746Z" fill="#3FC6FF"/>
<path d="M141.608 250.233C141.611 253.005 141.378 255.773 140.91 258.508C137.554 278.226 122.394 293.108 104.234 293.108C97.527 293.082 90.9865 291.062 85.4792 287.317C81.1106 284.365 77.3839 280.594 74.5151 276.223C72.3171 272.913 70.5727 269.335 69.3267 265.58C68.1886 262.173 67.441 258.653 67.0974 255.085V255.038C66.9466 253.485 66.8673 251.855 66.8673 250.233C66.8602 246.716 67.2351 243.208 67.9859 239.768C68.7695 236.142 69.9892 232.618 71.6194 229.272C78.0297 216.192 90.2313 207.357 104.234 207.357C105.595 207.357 106.954 207.442 108.304 207.614C112.051 208.082 115.688 209.18 119.054 210.859C123.275 212.992 127.044 215.89 130.16 219.398C132.8 222.32 135.019 225.582 136.753 229.094C137.994 231.588 139.003 234.186 139.768 236.857C141.002 241.212 141.622 245.713 141.608 250.233Z" fill="#3FC6FF"/>
<path d="M111.037 293.174H97.4467C97.2363 293.174 97.0345 293.092 96.8857 292.946C96.7369 292.801 96.6533 292.603 96.6533 292.397C96.6533 292.192 96.7369 291.994 96.8857 291.848C97.0345 291.703 97.2363 291.621 97.4467 291.621H111.037C111.247 291.621 111.449 291.703 111.598 291.848C111.746 291.994 111.83 292.192 111.83 292.397C111.83 292.603 111.746 292.801 111.598 292.946C111.449 293.092 111.247 293.174 111.037 293.174Z" fill="#3A5769"/>
<path d="M96.6004 218.821C96.4814 218.906 96.3306 219.007 96.2354 219.092C96.6163 218.588 96.7988 218.619 96.6004 218.821Z" fill="#BFECFF"/>
<path d="M119.049 210.86C116.88 213.867 114.471 216.702 111.845 219.337C109.369 221.843 106.718 224.177 103.911 226.324C100.998 228.63 97.9018 230.707 94.6531 232.535C89.1318 235.561 83.1552 237.712 76.9456 238.908C76.4855 238.993 76.0174 239.079 75.5494 239.149C74.4942 239.312 73.4311 239.444 72.376 239.552C70.9076 239.696 69.4327 239.766 67.957 239.762C68.7488 236.137 69.9765 232.617 71.6144 229.274H71.6937H72.2332C72.3526 229.241 72.4747 229.218 72.5981 229.204L73.201 229.096C74.0817 228.948 74.9464 228.785 75.8112 228.591C76.2951 228.482 76.779 228.374 77.263 228.249C79.6322 227.653 81.9568 226.898 84.2206 225.99L84.4269 225.913C84.9029 225.695 85.1012 225.61 85.1568 225.594L85.0695 225.641L85.8629 225.307C86.4737 225.028 87.0767 224.748 87.6717 224.453C88.8538 223.863 90.0517 223.234 91.1465 222.559C92.5508 221.713 93.9074 220.789 95.2402 219.842L96.2081 219.128L96.4302 218.973L96.573 218.856L96.692 218.778C97.3346 218.282 97.9693 217.769 98.5961 217.226C101.073 215.192 103.411 213.001 105.593 210.666C106.522 209.688 107.442 208.655 108.299 207.615C112.046 208.084 115.683 209.182 119.049 210.86Z" fill="#BFECFF"/>
<path d="M136.756 229.077C134.591 232.315 132.178 235.388 129.537 238.269C126.913 241.207 124.05 243.933 120.977 246.42C113.924 252.036 106.034 256.563 97.581 259.842C91.364 262.286 84.8664 263.98 78.2312 264.888C76.8508 265.082 75.4704 265.245 74.082 265.377H73.8678C72.3597 265.518 70.8443 265.57 69.3299 265.532C68.1942 262.135 67.4465 258.626 67.1006 255.068V255.021H67.2593H67.4893C68.7792 255.132 70.0747 255.166 71.3688 255.122L72.3605 255.076C73.1538 255.029 73.9472 254.967 74.6929 254.881L75.5894 254.827H75.6449C79.261 254.325 82.8408 253.599 86.363 252.653C88.2988 252.118 90.2187 251.512 92.1069 250.829C93.0985 250.472 94.0902 250.099 95.074 249.704C95.1944 249.643 95.319 249.591 95.4468 249.548H95.3993H95.4468L96.74 248.982C100.393 247.351 103.928 245.481 107.323 243.384C108.91 242.406 110.497 241.35 111.964 240.279L112.186 240.108L112.456 239.914C112.789 239.65 113.115 239.394 113.44 239.138C114.162 238.564 114.86 237.974 115.558 237.368C118.326 234.945 120.906 232.324 123.277 229.527C123.587 229.162 123.896 228.751 124.206 228.409C124.269 228.324 124.341 228.246 124.412 228.161C124.436 228.126 124.462 228.092 124.491 228.06L124.594 227.928C125.078 227.299 125.562 226.655 126.03 226.003C126.958 224.753 127.818 223.458 128.609 222.121C129.124 221.221 129.632 220.328 130.1 219.412C132.76 222.321 135 225.573 136.756 229.077Z" fill="#BFECFF"/>
<path d="M139.772 236.91C139.515 238.156 139.189 239.387 138.796 240.598C138.55 241.335 138.288 242.065 138.003 242.787C138.006 242.769 138.006 242.75 138.003 242.732C137.881 242.95 137.79 243.182 137.733 243.423L137.78 243.33C137.78 243.4 137.717 243.478 137.693 243.548C137.669 243.617 137.693 243.462 137.693 243.423C137.542 243.757 137.384 244.099 137.225 244.433C136.444 246.028 135.578 247.583 134.631 249.09C133.671 250.604 132.624 252.064 131.537 253.492L131.204 253.896L130.41 254.827C129.783 255.557 129.141 256.271 128.482 256.978C126.123 259.498 123.566 261.834 120.835 263.964L120.811 264.034L120.731 264.096L120.66 264.158L120.533 264.259H120.47L119.549 264.927C118.819 265.432 118.09 265.928 117.344 266.402C115.953 267.302 114.549 268.12 113.131 268.855C111.941 269.461 110.735 270.03 109.513 270.563L108.577 270.967L108.149 271.153L108.76 270.897C108.06 271.233 107.336 271.518 106.594 271.751C103.537 272.914 100.42 273.922 97.2562 274.771C95.6061 275.216 93.948 275.609 92.282 275.951C91.5362 276.098 90.7825 276.245 90.0368 276.37C89.5714 276.458 89.1033 276.535 88.6326 276.603L87.8392 276.696H87.9741H87.744H87.6329C84.452 277.058 81.2432 277.126 78.0493 276.898L77.3036 276.812H77.4305C77.2956 276.812 77.1608 276.812 77.0338 276.766H77.2956C76.9307 276.704 76.5578 276.641 76.2008 276.564C75.6534 276.447 75.0981 276.315 74.5586 276.168C77.4091 280.558 81.1224 284.35 85.483 287.323H85.7051C93.1089 286.669 100.392 285.058 107.363 282.534C113.607 280.337 119.692 277.612 125.079 273.785C131.137 269.521 136.488 264.371 140.946 258.515C141.413 255.78 141.647 253.012 141.644 250.239C141.643 245.734 141.013 241.249 139.772 236.91ZM137.884 243.121L137.796 243.299C137.796 243.206 137.876 243.121 137.907 243.035L137.963 242.895C137.941 242.957 137.915 243.017 137.884 243.074V243.121Z" fill="#BFECFF"/>
<path d="M73.6467 258.453C73.1387 258.453 72.6478 258.274 72.2633 257.949C71.8788 257.625 71.6265 257.175 71.5523 256.684C71.2316 254.553 71.0699 252.402 71.0684 250.248C71.0684 235.855 78.1133 222.922 89.4423 216.502C89.6834 216.365 89.9498 216.277 90.226 216.241C90.5023 216.205 90.783 216.223 91.0523 216.293C91.3216 216.363 91.574 216.485 91.7953 216.65C92.0166 216.816 92.2023 217.023 92.3419 217.259C92.4815 217.495 92.5723 217.756 92.609 218.026C92.6456 218.296 92.6276 218.571 92.5557 218.834C92.4839 219.098 92.3597 219.345 92.1903 219.561C92.0209 219.778 91.8096 219.96 91.5684 220.096C81.5485 225.779 75.3207 237.33 75.3207 250.248C75.3198 252.199 75.463 254.147 75.7491 256.078C75.8262 256.618 75.6818 257.166 75.3473 257.603C75.0129 258.039 74.5156 258.328 73.9641 258.407C73.8596 258.43 73.7536 258.446 73.6467 258.453Z" fill="white"/>
<path d="M78.6293 272.45C78.2579 272.451 77.8928 272.357 77.57 272.177C77.2472 271.997 76.9779 271.738 76.7888 271.425C75.4147 269.117 74.2799 266.681 73.4012 264.151C73.2192 263.631 73.2561 263.06 73.5038 262.566C73.7515 262.072 74.1898 261.694 74.7221 261.516C75.2544 261.338 75.8373 261.374 76.3424 261.616C76.8475 261.859 77.2335 262.288 77.4155 262.808C78.2057 265.073 79.2235 267.254 80.454 269.322C80.5941 269.559 80.6848 269.822 80.7207 270.094C80.7567 270.366 80.7372 270.643 80.6635 270.908C80.5897 271.173 80.4631 271.421 80.291 271.637C80.1189 271.854 79.9047 272.035 79.6607 272.171C79.3477 272.35 78.9922 272.447 78.6293 272.45Z" fill="white"/>
</g>
<defs>
<clipPath id="clip0_2028_29406">
<rect width="719" height="494" fill="white"/>
</clipPath>
</defs>
</svg>
