<svg width="180" height="180" viewBox="0 0 180 180" fill="none" xmlns="http://www.w3.org/2000/svg">
<g clip-path="url(#clip0_2288_5635)">
<path d="M105.179 3.83794C152.765 12.2286 184.539 57.6066 176.148 105.192C167.757 152.778 122.379 184.552 74.7933 176.162C27.2075 167.771 -4.56652 122.393 3.82415 74.8071C12.2148 27.2212 57.5928 -4.55274 105.179 3.83794Z" stroke="white" stroke-width="5"/>
<path d="M133.358 96.9355C130.286 90.0478 125.639 83.9783 119.791 79.2165C113.858 74.559 106.716 71.6961 99.2086 70.9655C91.0138 69.8079 82.6776 70.1353 74.5989 71.932C67.2667 73.8725 60.6373 77.8576 55.4838 83.4225C50.7588 88.416 45.9263 95.271 44.745 102.197C43.5101 109.697 50.1144 113.795 56.1461 116.516C59.9225 118.162 63.878 119.397 67.6187 121.134C71.3593 122.87 74.7779 124.856 78.5722 126.252C82.1914 127.486 86.0107 128.026 89.8301 127.845C93.7931 128.007 97.7499 127.399 101.482 126.055C105.974 124.266 110.108 121.796 114.565 119.97C118.503 118.359 122.601 117.089 126.378 115.102C129.51 113.437 133.125 111.129 134.503 107.674C135.882 104.22 134.772 100.229 133.358 96.9355Z" fill="#E0435B"/>
<path d="M75.4047 79.4492C74.8383 79.4492 74.2846 79.2812 73.8137 78.9665C73.3428 78.6519 72.9757 78.2046 72.759 77.6814C72.5423 77.1581 72.4855 76.5823 72.596 76.0268C72.7065 75.4713 72.9793 74.961 73.3798 74.5606C73.7803 74.1601 74.2905 73.8873 74.846 73.7768C75.4015 73.6663 75.9773 73.723 76.5006 73.9398C77.0238 74.1565 77.4711 74.5236 77.7857 74.9945C78.1004 75.4654 78.2684 76.0191 78.2684 76.5855C78.2591 77.3421 77.9544 78.0651 77.4193 78.6001C76.8843 79.1352 76.1613 79.4399 75.4047 79.4492Z" fill="#35208A"/>
<path d="M104.685 79.4492C104.119 79.4492 103.565 79.2812 103.094 78.9665C102.623 78.6519 102.256 78.2046 102.039 77.6814C101.823 77.1581 101.766 76.5823 101.876 76.0268C101.987 75.4713 102.26 74.961 102.66 74.5606C103.061 74.1601 103.571 73.8873 104.126 73.7768C104.682 73.6663 105.258 73.723 105.781 73.9398C106.304 74.1565 106.751 74.5236 107.066 74.9945C107.381 75.4654 107.549 76.0191 107.549 76.5855C107.535 77.3407 107.229 78.0611 106.695 78.5952C106.161 79.1293 105.44 79.4354 104.685 79.4492Z" fill="#35208A"/>
<path d="M56.3611 79.467C58.5626 82.1517 61.4083 86.7157 65.3101 86.6262C65.7862 86.5696 66.2342 86.3704 66.5952 86.0549C66.9563 85.7394 67.2136 85.3221 67.3336 84.8579C67.4535 84.3936 67.4304 83.9039 67.2674 83.453C67.1043 83.0021 66.8089 82.6109 66.4198 82.3307C64.1195 80.3377 62.0376 78.1058 60.2092 75.6727C58.4194 73.5428 55.0545 70.0348 55.5915 67.0458C56.1284 64.0569 58.2941 61.408 59.8154 58.9917C60.9825 59.0374 62.1493 58.8923 63.2697 58.5622C66.245 57.6078 68.9464 55.9501 71.1448 53.7297C73.4716 51.5283 76.5142 48.8615 76.2637 45.3893C76.265 45.3327 76.2496 45.277 76.2194 45.2292C76.1891 45.1814 76.1454 45.1437 76.0937 45.1207C76.042 45.0977 75.9846 45.0906 75.9289 45.1001C75.8731 45.1097 75.8215 45.1356 75.7804 45.1745C75.4225 45.6219 73.8474 45.6577 73.3105 45.7651C72.1761 46.0731 71.0121 46.2591 69.8383 46.32C69.2476 46.32 67.9232 46.4274 68.0485 45.264C68.0485 44.7807 69.194 44.0827 69.4982 43.8679C70.4837 43.169 71.5872 42.6536 72.7557 42.3466C74.7872 42.0781 76.8452 42.0781 78.8768 42.3466C78.9527 42.3466 79.0255 42.3164 79.0793 42.2627C79.133 42.209 79.1631 42.1362 79.1631 42.0602C79.1631 34.5073 68.6391 36.4761 64.3436 38.3733C61.3589 39.6017 58.8196 41.7107 57.064 44.4191C55.3085 47.1276 54.4202 50.3067 54.5176 53.5329C54.5231 54.5346 54.7621 55.5212 55.2156 56.4144L54.3923 57.7389C52.3699 61.0679 49.6494 64.8981 50.2221 69.0325C50.7948 73.1669 53.8912 76.5139 56.3611 79.467Z" fill="#E0435B"/>
<path d="M56.3787 91.1365C59.8509 91.2439 59.6719 86.2325 56.3787 85.7671C48.8615 84.8901 40.4137 81.9012 35.7781 75.5116C33.2366 71.932 33.9883 67.0458 33.9883 62.983C33.9883 61.4617 34.6684 54.034 31.3215 55.5553C29.4243 56.3786 29.6212 58.9023 29.5317 60.6742C29.4243 63.3052 29.2811 65.9183 29.1558 68.5493C28.9391 70.7164 29.1827 72.9049 29.8705 74.9714C30.5583 77.038 31.6749 78.9359 33.1471 80.5409C39.2106 86.9705 47.5484 90.7732 56.3787 91.1365Z" fill="#E0435B"/>
<path d="M33.8992 103.808C36.7408 103.668 39.5727 103.376 42.3828 102.931C45.0839 102.827 47.6986 101.951 49.9179 100.408C51.475 99.1011 50.0432 97.0428 48.4502 96.8281C46.2183 96.8237 43.9962 97.1248 41.8459 97.723C39.5012 98.0988 37.1387 98.3136 34.7762 98.5105C33.9542 98.5807 33.1275 98.4477 32.3691 98.1231C31.6106 97.7985 30.9436 97.2923 30.427 96.6491C28.8952 95.3413 27.5036 93.8777 26.2746 92.282C24.6101 90.0805 21.9254 86.5009 22.1581 83.6372C22.355 81.3821 23.9479 78.6079 23.2857 76.3707C23.1706 76.0215 22.9706 75.7065 22.7037 75.4537C22.4368 75.201 22.1112 75.0185 21.7564 74.9227C21.4015 74.8269 21.0283 74.8207 20.6705 74.9048C20.3126 74.9888 19.9812 75.1604 19.7061 75.4042C18.7936 76.6234 18.2194 78.062 18.0416 79.5744C17.5984 80.9436 17.2867 82.352 17.1109 83.7804C16.8424 88.1296 20.4399 93.0516 22.9993 96.309C25.5587 99.5665 29.4247 103.916 33.8992 103.808Z" fill="#E0435B"/>
<path d="M55.484 117.966C59.2557 118.33 63.0566 118.264 66.8134 117.769C68.9612 117.375 68.7822 114.189 66.8134 113.581C62.6163 112.772 58.3419 112.436 54.07 112.578C49.5598 112.435 45.1211 112.238 40.5392 112.131C33.1652 111.934 26.2208 113.76 22.2832 120.615C22.0164 121.166 21.9672 121.797 22.1453 122.383C22.3234 122.969 22.7159 123.466 23.2443 123.776C23.7728 124.085 24.3985 124.184 24.9966 124.052C25.5947 123.921 26.1213 123.569 26.4714 123.067C30.6595 116.677 37.4607 117.303 44.262 117.554L55.484 117.966Z" fill="#E0435B"/>
<path d="M82.3306 117.894C76.654 118.349 71.0224 119.252 65.4886 120.597L57.2734 122.189C54.8393 122.655 51.7429 122.547 49.5415 123.765C46.1766 125.554 42.7939 130.1 42.7402 134.002C42.7402 137.439 45.8008 143.578 49.792 143.416C50.2667 143.416 50.722 143.228 51.0576 142.892C51.3933 142.557 51.5818 142.101 51.5818 141.627C51.5818 138.405 47.2326 136.741 48.1096 133.25C48.7134 131.637 49.7546 130.224 51.1165 129.17C52.7273 127.738 54.8572 127.899 56.9333 127.541C61.2288 126.843 65.5065 125.966 69.7841 125.178C74.2721 124.523 78.7009 123.512 83.0286 122.154C85.1942 121.42 85.0153 117.804 82.3306 117.894Z" fill="#E0435B"/>
<path d="M67.2425 45.7114C62.9291 45.3356 57.6849 48.8615 54.5707 51.5283C54.0696 51.9578 54.7855 52.6559 55.2866 52.2442C57.1189 50.6906 59.1393 49.3737 61.3003 48.3245C63.2512 47.4296 65.4885 47.1075 67.3678 46.1231C67.4144 46.095 67.4507 46.0525 67.4711 46.002C67.4915 45.9515 67.4949 45.8957 67.4807 45.8431C67.4665 45.7906 67.4356 45.744 67.3926 45.7105C67.3496 45.6771 67.2969 45.6586 67.2425 45.6577V45.7114Z" fill="#35208A"/>
<path d="M55.4838 57.0051C55.3406 57.5957 56.0028 58.0968 56.4145 58.4011C57.0092 58.8359 57.6755 59.163 58.3832 59.3676C58.5114 59.4032 58.6485 59.3864 58.7643 59.321C58.8801 59.2555 58.9651 59.1467 59.0007 59.0186C59.0363 58.8904 59.0196 58.7534 58.9541 58.6376C58.8887 58.5218 58.7799 58.4367 58.6517 58.4011C58.0514 58.2246 57.4833 57.9526 56.9693 57.5957C56.5577 57.3451 56.146 56.8261 55.627 56.8977C55.5944 56.8966 55.5625 56.9067 55.5365 56.9262C55.5105 56.9458 55.4919 56.9736 55.4838 57.0051Z" fill="#35208A"/>
<path d="M50.6337 67.6007C50.92 68.2808 51.9223 68.5672 52.6024 68.7461C53.4373 69.0374 54.3386 69.0809 55.1976 68.8714C55.5735 68.7461 55.6451 68.1376 55.1976 68.0481C54.3743 67.8691 53.551 67.9586 52.7098 67.7617C52.0949 67.4817 51.4335 67.3179 50.7589 67.2785C50.5979 67.2785 50.58 67.4754 50.6337 67.6007Z" fill="#35208A"/>
<path d="M55.0898 76.9613C55.8724 77.03 56.6606 76.9262 57.3987 76.6571C57.9535 76.4602 58.7231 76.2275 58.7768 75.5474C58.7685 75.4759 58.7407 75.4081 58.6965 75.3513C58.6524 75.2945 58.5935 75.2509 58.5263 75.2252C57.9893 75.0641 57.5061 75.5474 57.0228 75.7264C56.4003 75.9332 55.7452 76.0242 55.0898 75.9948C54.4455 75.9948 54.4634 76.9255 55.0898 76.9613Z" fill="#35208A"/>
<path d="M57.9179 81.1316C58.5962 80.9605 59.215 80.6078 59.7077 80.1114C60.463 79.7528 61.1672 79.2953 61.8018 78.7511C61.9987 78.5006 61.9092 77.9994 61.5154 78.0352C60.6351 78.26 59.8315 78.7175 59.1887 79.3597C58.6518 79.7713 57.918 80.3262 57.8643 81.06L57.9179 81.1316Z" fill="#35208A"/>
<path d="M30.1936 63.1799C30.7835 63.3066 31.3936 63.3066 31.9834 63.1799C32.2817 63.146 32.5701 63.0526 32.8314 62.905C33.0928 62.7574 33.3218 62.5587 33.5048 62.3208C33.5383 62.2557 33.5547 62.1832 33.5523 62.1101C33.55 62.0369 33.529 61.9656 33.4913 61.9028C33.4537 61.8401 33.4006 61.788 33.3372 61.7515C33.2738 61.715 33.2021 61.6953 33.1289 61.6943C32.6699 61.8109 32.2256 61.979 31.8045 62.1955C31.3022 62.3243 30.7826 62.3726 30.2652 62.3387C29.7641 62.3387 29.6209 63.162 30.1399 63.2515L30.1936 63.1799Z" fill="#35208A"/>
<path d="M32.8245 79.1091C33.7895 79.279 34.7768 79.279 35.7419 79.1091C36.5115 79.0196 37.5317 79.0017 37.9433 78.3036C37.9624 78.2708 37.9748 78.2345 37.9798 78.1969C37.9847 78.1592 37.9821 78.1209 37.9721 78.0843C37.9621 78.0476 37.9449 78.0133 37.9215 77.9834C37.8982 77.9535 37.8691 77.9285 37.8359 77.9099C37.1737 77.6056 36.5831 77.9099 35.8851 78.071C34.91 78.1723 33.9301 78.2201 32.9498 78.2142C32.4487 78.2142 32.3055 78.9838 32.8245 79.0912V79.1091Z" fill="#35208A"/>
<path d="M50.3474 90.3848C51.0293 89.6786 51.6745 88.9379 52.2804 88.1654C52.9159 87.5068 53.4854 86.7874 53.9807 86.0177C54.0377 85.9269 54.0587 85.8181 54.0396 85.7127C54.0206 85.6072 53.9627 85.5127 53.8775 85.4477C53.7923 85.3827 53.6859 85.3519 53.5792 85.3613C53.4724 85.3707 53.373 85.4197 53.3005 85.4986C52.5975 86.1736 51.9565 86.9103 51.3855 87.7001C50.7948 88.416 50.2042 89.0961 49.6852 89.8657C49.4167 90.2595 50.0073 90.707 50.3474 90.3669V90.3848Z" fill="#35208A"/>
<path d="M45.3357 102.215C45.6937 101.41 45.7832 100.426 46.1053 99.6917C46.4275 98.9579 47.1255 98.1704 46.857 97.5082C46.857 97.5082 46.7318 97.3113 46.6244 97.3292C45.8369 97.3292 45.6042 98.3852 45.3357 99.0295C44.8759 99.9588 44.637 100.982 44.6377 102.018C44.6377 102.341 45.1567 102.591 45.3357 102.215Z" fill="#35208A"/>
<path d="M49.7919 112.757C51.0983 114.081 52.7172 115.053 54.499 115.585C56.5931 116.355 58.705 117.142 60.817 117.84C61.2824 117.983 61.4971 117.339 61.1392 117.089C59.6303 116.197 57.9949 115.539 56.2888 115.138C54.1402 114.55 52.1275 113.546 50.3646 112.185C50.2853 112.13 50.1893 112.104 50.0934 112.113C49.9974 112.122 49.9075 112.164 49.8393 112.232C49.7712 112.3 49.7291 112.39 49.7204 112.486C49.7117 112.582 49.737 112.678 49.7919 112.757Z" fill="#35208A"/>
<path d="M66.9741 120.597C67.9955 121.436 69.113 122.151 70.3031 122.726C71.3349 123.372 72.4748 123.827 73.6679 124.069C74.0975 124.069 74.1333 123.532 73.8648 123.335C72.8199 122.714 71.7313 122.169 70.6074 121.706C69.5335 121.169 68.5312 120.471 67.4573 119.916C67.0815 119.738 66.6161 120.221 66.9741 120.543V120.597Z" fill="#35208A"/>
<path d="M17.8982 85.5702C18.5922 85.7867 19.3241 85.854 20.0459 85.7676C20.7677 85.6813 21.4631 85.4432 22.0863 85.0691C22.677 84.7827 22.0863 83.9057 21.5852 84.1921C21.0157 84.4801 20.4152 84.7023 19.7954 84.8543C19.2048 84.9796 18.5962 84.9438 18.0056 85.1049C17.8087 85.1049 17.7371 85.4807 18.0056 85.5702H17.8982Z" fill="#35208A"/>
<path d="M31.1065 102.341C32.0316 101.454 32.689 100.325 33.0036 99.0832C33.0224 99.0174 33.0281 98.9485 33.0203 98.8805C33.0125 98.8125 32.9913 98.7467 32.9581 98.6869C32.9249 98.6271 32.8802 98.5744 32.8266 98.5318C32.773 98.4893 32.7115 98.4577 32.6457 98.4389C32.5799 98.4201 32.511 98.4144 32.443 98.4222C32.375 98.43 32.3092 98.4512 32.2494 98.4844C32.1896 98.5176 32.1369 98.5623 32.0943 98.616C32.0517 98.6696 32.0202 98.731 32.0014 98.7968C31.6391 99.8763 31.1074 100.891 30.4263 101.804C30.14 102.233 30.7664 102.645 31.1244 102.341H31.1065Z" fill="#35208A"/>
<path d="M34.3106 113.402C34.6686 113.974 35.2771 114.35 35.6708 114.905C35.8653 115.175 36.0331 115.462 36.172 115.764C36.3331 116.068 36.3868 116.391 36.6552 116.605C36.7061 116.654 36.7687 116.689 36.8371 116.707C36.9055 116.725 36.9773 116.725 37.0456 116.707C37.1139 116.689 37.1765 116.654 37.2272 116.605C37.2779 116.555 37.3152 116.494 37.3354 116.426C37.5322 115.728 36.8879 114.851 36.4763 114.314C36.0602 113.651 35.428 113.152 34.6865 112.9C34.418 112.9 34.1316 113.133 34.3106 113.402Z" fill="#35208A"/>
<path d="M38.5885 115.012C38.5525 115.244 38.5525 115.479 38.5885 115.71C38.5885 115.943 38.5885 116.194 38.6959 116.444C38.8033 116.695 39.7339 116.874 39.6803 116.301C39.6679 115.816 39.5325 115.341 39.2865 114.923C39.2485 114.861 39.1934 114.812 39.1279 114.781C39.0624 114.749 38.9893 114.738 38.9175 114.747C38.8456 114.757 38.778 114.787 38.7228 114.834C38.6676 114.881 38.6271 114.943 38.6064 115.012H38.5885Z" fill="#35208A"/>
<path d="M46.3916 139.282C46.587 139.026 46.8389 138.819 47.1276 138.676C47.4163 138.533 47.734 138.459 48.0561 138.459C48.1705 138.437 48.2738 138.376 48.348 138.286C48.4223 138.196 48.4629 138.083 48.4629 137.967C48.4629 137.85 48.4223 137.737 48.348 137.647C48.2738 137.557 48.1705 137.496 48.0561 137.474C47.5805 137.454 47.1076 137.556 46.6818 137.769C46.2561 137.981 45.8914 138.299 45.6219 138.691C45.2819 139.121 46.0515 139.73 46.3916 139.282Z" fill="#35208A"/>
<path d="M49.7747 125.483C50.5128 125.871 51.1314 126.452 51.5645 127.165C51.9046 127.72 52.7816 127.165 52.4415 126.646C51.9416 125.785 51.2015 125.088 50.3116 124.642C50.2564 124.61 50.1955 124.589 50.1323 124.581C50.0691 124.573 50.005 124.577 49.9435 124.594C49.882 124.611 49.8244 124.639 49.7739 124.678C49.7235 124.717 49.6812 124.765 49.6494 124.821C49.6177 124.876 49.5972 124.937 49.589 125C49.5808 125.063 49.5851 125.127 49.6018 125.189C49.6184 125.25 49.6469 125.308 49.6858 125.358C49.7247 125.409 49.7732 125.451 49.8284 125.483H49.7747Z" fill="#35208A"/>
<path d="M51.9044 124.982C52.5544 125.651 53.0868 126.426 53.4794 127.273C53.7478 127.774 54.589 127.434 54.4101 126.897C54.0434 125.904 53.4269 125.022 52.6203 124.337C52.1728 123.979 51.5464 124.57 51.9759 124.982H51.9044Z" fill="#35208A"/>
<path d="M123.622 91.1365C128.252 90.96 132.795 89.8181 136.959 87.7839C141.123 85.7498 144.816 82.8682 147.802 79.3238C150.916 75.3326 150.898 71.1445 150.648 66.312C150.648 64.7549 151.202 53.8729 147.533 55.5732C146.048 56.2891 146.03 57.8284 145.958 59.296C145.851 61.4617 145.958 63.6273 145.958 65.793C145.958 69.8916 146.137 73.5965 143.166 76.7644C137.914 81.9738 130.98 85.1457 123.604 85.7134C120.328 86.2325 120.132 91.2797 123.622 91.1365Z" fill="#E0435B"/>
<path d="M145.224 98.4389C142.862 98.242 140.499 98.0272 138.065 97.6514C135.915 97.0545 133.693 96.7535 131.461 96.7565C129.868 96.9534 128.436 99.0295 129.975 100.336C132.2 101.882 134.821 102.757 137.528 102.86C140.333 103.303 143.159 103.596 145.994 103.737C150.487 103.898 154.352 99.477 156.93 96.2374C159.507 92.9979 163.105 88.0939 162.818 83.7088C162.642 82.2804 162.331 80.8721 161.888 79.5028C161.71 77.9904 161.135 76.5518 160.223 75.3326C159.95 75.0843 159.618 74.9087 159.259 74.822C158.9 74.7354 158.525 74.7404 158.169 74.8367C157.812 74.9329 157.486 75.1173 157.219 75.3729C156.953 75.6284 156.755 75.9469 156.643 76.2991C155.892 78.5363 157.556 81.3105 157.753 83.5657C158.004 86.4472 155.337 89.991 153.654 92.2104C152.431 93.8209 151.052 95.3075 149.538 96.6491C149.013 97.2693 148.348 97.7553 147.598 98.0666C146.848 98.3779 146.034 98.5055 145.224 98.4389Z" fill="#E0435B"/>
<path d="M139.497 112.131C135.13 112.238 130.781 112.417 126.414 112.56C121.993 112.405 117.568 112.748 113.223 113.581C112.771 113.714 112.375 113.99 112.093 114.368C111.811 114.745 111.658 115.204 111.658 115.675C111.658 116.146 111.811 116.604 112.093 116.982C112.375 117.359 112.771 117.635 113.223 117.769C116.825 118.243 120.469 118.315 124.087 117.984L135.775 117.554C142.558 117.303 149.359 116.677 153.547 123.067C153.897 123.569 154.424 123.921 155.022 124.052C155.62 124.184 156.246 124.085 156.774 123.776C157.303 123.466 157.695 122.969 157.873 122.383C158.051 121.797 158.002 121.166 157.735 120.615C153.923 113.76 146.871 111.934 139.497 112.131Z" fill="#E0435B"/>
<path d="M130.459 123.765C128.364 122.601 125.465 122.709 123.156 122.279C120.418 121.778 117.662 121.223 114.923 120.686C109.232 119.295 103.438 118.361 97.5979 117.894C95.0027 117.894 94.7879 121.474 97.0251 122.207C101.199 123.527 105.473 124.508 109.804 125.143C114.243 125.966 118.664 126.932 123.12 127.595C124.91 127.899 127.219 127.738 128.669 128.991C130.038 130.035 131.121 131.408 131.819 132.982C133.125 136.562 128.418 138.351 128.472 141.68C128.472 142.155 128.66 142.61 128.996 142.946C129.332 143.282 129.787 143.47 130.262 143.47C134.146 143.613 137.188 137.743 137.296 134.414C137.367 130.297 133.931 125.662 130.459 123.765Z" fill="#E0435B"/>
<path d="M101.142 42.275C103.173 42.0065 105.231 42.0065 107.263 42.275C108.357 42.5582 109.393 43.0307 110.324 43.6711C110.699 43.9216 111.916 44.6376 111.97 45.1924C112.078 46.3558 110.753 46.2126 110.18 46.2484C109.086 46.1967 108 46.0287 106.941 45.7472C106.386 45.6398 104.614 45.5862 104.22 45.1029C104.059 44.906 103.755 45.1029 103.737 45.3177C103.522 48.7899 106.529 51.4567 108.874 53.6581C111.065 55.8783 113.761 57.5362 116.731 58.4906C117.857 58.8238 119.031 58.963 120.203 58.9023C121.778 61.3543 123.908 64.2716 124.409 66.9742C124.91 69.6768 121.707 73.2206 120.06 75.2789C118.159 77.8599 115.98 80.2247 113.563 82.3307C113.127 82.601 112.79 83.0048 112.602 83.4821C112.415 83.9593 112.386 84.4845 112.521 84.9794C112.655 85.4742 112.946 85.9123 113.35 86.2284C113.754 86.5445 114.25 86.7217 114.762 86.7336C118.575 86.7336 121.42 82.1875 123.711 79.5744C126.163 76.6213 129.295 73.0238 129.85 69.0683C130.405 65.1129 127.72 61.1216 125.698 57.7747C125.429 57.3272 125.143 56.8977 124.857 56.4502C125.325 55.5617 125.57 54.5729 125.573 53.5687C125.673 50.342 124.785 47.1617 123.029 44.4528C121.274 41.7439 118.733 39.6354 115.747 38.4091C111.451 36.5119 100.856 34.5431 100.927 42.096C100.945 42.1417 100.974 42.1822 101.011 42.2135C101.049 42.2449 101.094 42.266 101.142 42.275Z" fill="#E0435B"/>
<path d="M112.614 46.1768C114.511 47.1612 116.731 47.4833 118.699 48.3782C120.858 49.4106 122.878 50.7094 124.713 52.2442C125.214 52.6558 125.93 51.9578 125.429 51.5283C122.315 48.8615 117.053 45.3356 112.757 45.7114C112.543 45.7114 112.399 46.0515 112.632 46.1768H112.614Z" fill="#35208A"/>
<path d="M124.444 56.8977C123.943 56.8977 123.514 57.3451 123.12 57.5957C122.57 57.9578 121.966 58.2298 121.33 58.4011C120.721 58.5801 120.99 59.5644 121.598 59.3676C122.308 59.1666 122.975 58.8392 123.567 58.4011C123.979 58.0789 124.659 57.5957 124.498 57.005C124.49 56.9735 124.471 56.9457 124.445 56.9262C124.419 56.9067 124.387 56.8966 124.355 56.8977H124.444Z" fill="#35208A"/>
<path d="M129.241 67.2785C128.561 67.3181 127.894 67.4819 127.272 67.7617C126.449 67.9586 125.608 67.8691 124.802 68.0481C124.355 68.0481 124.427 68.7461 124.802 68.8714C125.662 69.0799 126.563 69.0364 127.398 68.7461C128.078 68.5672 129.08 68.2808 129.366 67.6007C129.366 67.4754 129.366 67.2964 129.241 67.2785Z" fill="#35208A"/>
<path d="M124.91 76.0664C124.254 76.0958 123.599 76.0048 122.977 75.7979C122.476 75.619 122.01 75.1357 121.473 75.2968C121.402 75.3162 121.339 75.358 121.294 75.4161C121.249 75.4742 121.224 75.5454 121.223 75.619C121.223 76.2991 122.028 76.5318 122.601 76.7286C123.339 76.9978 124.127 77.1016 124.91 77.0329C125.518 77.0329 125.536 76.0485 124.91 76.0664Z" fill="#35208A"/>
<path d="M122.136 81.06C122.136 80.3261 121.349 79.7713 120.812 79.3596C120.166 78.7216 119.363 78.2648 118.485 78.0352C118.091 78.0352 117.984 78.5005 118.199 78.7511C118.808 79.2946 119.488 79.7523 120.221 80.1114C120.717 80.6042 121.334 80.9563 122.011 81.1315L122.136 81.06Z" fill="#35208A"/>
<path d="M149.663 62.2671C149.146 62.2995 148.626 62.2512 148.124 62.1239C147.703 61.9074 147.258 61.7393 146.799 61.6227C146.726 61.6215 146.653 61.6401 146.589 61.6766C146.525 61.7131 146.472 61.7661 146.435 61.8301C146.399 61.8941 146.38 61.9668 146.381 62.0405C146.382 62.1142 146.403 62.1863 146.441 62.2492C146.812 62.7197 147.351 63.0278 147.945 63.1083C148.535 63.2345 149.145 63.2345 149.735 63.1083C150.254 63.1083 150.128 62.1776 149.609 62.1955L149.663 62.2671Z" fill="#35208A"/>
<path d="M147.05 78.2321C146.069 78.238 145.089 78.1902 144.114 78.0889C143.416 77.9636 142.826 77.6235 142.146 77.9278C142.118 77.9529 142.097 77.9834 142.082 78.0173C142.067 78.0511 142.06 78.0877 142.06 78.1247C142.06 78.1616 142.067 78.1982 142.082 78.2321C142.097 78.266 142.118 78.2964 142.146 78.3216C142.575 79.0375 143.559 79.0375 144.329 79.127C145.3 79.2971 146.293 79.2971 147.264 79.127C147.765 79.0196 147.622 78.2679 147.139 78.25L147.05 78.2321Z" fill="#35208A"/>
<path d="M130.315 89.8837C129.796 89.114 129.187 88.4339 128.525 87.718C127.955 86.922 127.314 86.1792 126.61 85.4987C126.234 85.1944 125.661 85.4987 125.912 86.0177C126.436 86.7911 127.036 87.5105 127.702 88.1654C128.308 88.9379 128.953 89.6786 129.635 90.3848C129.957 90.707 130.565 90.2774 130.297 89.8837H130.315Z" fill="#35208A"/>
<path d="M135.362 102.018C135.365 100.979 135.12 99.9545 134.646 99.0295C134.396 98.3852 134.163 97.4008 133.376 97.3292C133.25 97.3292 133.179 97.3292 133.143 97.5082C132.856 98.1704 133.662 99.0832 133.895 99.6918C134.127 100.3 134.306 101.482 134.664 102.215C134.825 102.591 135.326 102.341 135.362 102.018Z" fill="#35208A"/>
<path d="M129.617 112.167C127.854 113.518 125.849 114.52 123.71 115.12C122.004 115.521 120.369 116.179 118.86 117.071C118.502 117.321 118.699 117.966 119.164 117.822C121.276 117.124 123.406 116.337 125.482 115.567C127.264 115.045 128.884 114.078 130.189 112.757C130.244 112.678 130.27 112.582 130.261 112.486C130.252 112.39 130.21 112.3 130.142 112.232C130.074 112.164 129.984 112.122 129.888 112.113C129.792 112.104 129.696 112.13 129.617 112.185V112.167Z" fill="#35208A"/>
<path d="M112.543 119.916C111.451 120.453 110.449 121.151 109.375 121.706C108.258 122.158 107.175 122.69 106.135 123.299C105.867 123.496 105.903 124.069 106.332 124.033C107.521 123.794 108.655 123.339 109.679 122.691C110.874 122.123 111.993 121.408 113.008 120.561C113.366 120.239 113.008 119.755 112.543 119.934V119.916Z" fill="#35208A"/>
<path d="M162.12 85.1049C161.547 84.9438 160.938 84.9796 160.33 84.8543C159.71 84.7023 159.11 84.4801 158.54 84.1921C157.949 83.9057 157.43 84.7827 158.021 85.0691C158.644 85.4432 159.34 85.6813 160.061 85.7676C160.783 85.854 161.515 85.7867 162.209 85.5702C162.424 85.4807 162.352 85.1765 162.209 85.1049H162.12Z" fill="#35208A"/>
<path d="M149.574 101.804C148.894 100.888 148.356 99.8739 147.981 98.7968C147.928 98.6851 147.837 98.5959 147.725 98.5451C147.612 98.4944 147.485 98.4854 147.366 98.5199C147.248 98.5544 147.145 98.6301 147.077 98.7334C147.01 98.8366 146.981 98.9607 146.996 99.0832C147.311 100.325 147.968 101.454 148.893 102.341C149.234 102.645 149.878 102.233 149.574 101.804Z" fill="#35208A"/>
<path d="M145.314 112.9C144.569 113.146 143.935 113.647 143.524 114.314C143.112 114.851 142.468 115.728 142.647 116.426C142.667 116.494 142.704 116.555 142.755 116.605C142.806 116.654 142.868 116.689 142.937 116.707C143.005 116.725 143.077 116.725 143.145 116.707C143.214 116.689 143.276 116.654 143.327 116.605C143.596 116.408 143.631 116.14 143.774 115.854C143.927 115.52 144.113 115.202 144.329 114.905C144.723 114.35 145.332 113.974 145.69 113.402C145.723 113.344 145.739 113.277 145.735 113.211C145.731 113.144 145.708 113.08 145.668 113.026C145.628 112.973 145.573 112.933 145.51 112.91C145.447 112.888 145.379 112.884 145.314 112.9Z" fill="#35208A"/>
<path d="M140.732 114.923C140.488 115.344 140.347 115.816 140.32 116.301C140.32 116.874 141.162 116.981 141.305 116.444C141.366 116.204 141.402 115.958 141.412 115.71C141.466 115.481 141.466 115.242 141.412 115.012C141.395 114.942 141.358 114.878 141.304 114.83C141.251 114.781 141.183 114.75 141.112 114.74C141.04 114.731 140.967 114.743 140.902 114.775C140.838 114.808 140.785 114.859 140.75 114.923H140.732Z" fill="#35208A"/>
<path d="M134.378 138.691C134.107 138.3 133.743 137.984 133.317 137.771C132.892 137.558 132.419 137.456 131.944 137.474C131.83 137.496 131.726 137.557 131.652 137.647C131.578 137.737 131.537 137.85 131.537 137.967C131.537 138.083 131.578 138.196 131.652 138.286C131.726 138.376 131.83 138.437 131.944 138.459C132.266 138.459 132.584 138.533 132.872 138.676C133.161 138.819 133.413 139.026 133.608 139.282C133.949 139.712 134.718 139.139 134.378 138.691Z" fill="#35208A"/>
<path d="M129.724 124.642C128.838 125.093 128.099 125.789 127.594 126.646C127.254 127.201 128.149 127.72 128.489 127.165C128.913 126.445 129.534 125.861 130.279 125.483C130.816 125.161 130.279 124.373 129.778 124.642H129.724Z" fill="#35208A"/>
<path d="M127.469 124.337C126.658 125.018 126.04 125.901 125.679 126.897C125.483 127.434 126.342 127.774 126.592 127.273C126.991 126.43 127.523 125.656 128.167 124.982C128.597 124.57 127.97 123.979 127.541 124.337H127.469Z" fill="#35208A"/>
<path d="M79.6282 81.8117C79.2524 83.7626 81.418 86.1788 82.8141 87.3959C84.7634 89.0958 87.2003 90.1357 89.7764 90.3669C92.5613 90.7525 95.3896 90.0821 97.7052 88.4876C99.6382 87.02 101.732 84.4069 101.41 81.8296C101.41 81.7062 101.361 81.5878 101.274 81.5005C101.187 81.4133 101.068 81.3642 100.945 81.3642C100.821 81.3642 100.703 81.4133 100.616 81.5005C100.528 81.5878 100.479 81.7062 100.479 81.8296C99.7277 87.7896 93.5887 90.2953 88.2193 88.9888C86.1787 88.5105 84.3164 87.4614 82.8499 85.964C81.6328 84.729 81.0601 82.5992 79.6819 81.6864H79.5566L79.6282 81.8117Z" fill="#35208A"/>
<path d="M66.6526 92.0135C65.5906 92.0135 64.5525 91.6986 63.6695 91.1086C62.7865 90.5186 62.0983 89.68 61.6919 88.6989C61.2855 87.7178 61.1792 86.6382 61.3864 85.5966C61.5936 84.555 62.1049 83.5983 62.8559 82.8474C63.6068 82.0965 64.5635 81.5851 65.6051 81.3779C66.6466 81.1707 67.7262 81.277 68.7074 81.6834C69.6885 82.0898 70.5271 82.778 71.1171 83.661C71.7071 84.544 72.022 85.5821 72.022 86.6441C72.022 88.0682 71.4563 89.4339 70.4493 90.4408C69.4424 91.4478 68.0767 92.0135 66.6526 92.0135Z" fill="white"/>
<path d="M114.242 92.0135C113.18 92.0135 112.142 91.6986 111.259 91.1086C110.376 90.5186 109.688 89.68 109.282 88.6989C108.875 87.7178 108.769 86.6382 108.976 85.5966C109.183 84.555 109.695 83.5983 110.446 82.8474C111.197 82.0965 112.153 81.5851 113.195 81.3779C114.236 81.1707 115.316 81.277 116.297 81.6834C117.278 82.0898 118.117 82.778 118.707 83.661C119.297 84.544 119.612 85.5821 119.612 86.6441C119.612 88.0682 119.046 89.4339 118.039 90.4408C117.032 91.4478 115.666 92.0135 114.242 92.0135Z" fill="white"/>
<path d="M113.617 149.681C113.635 149.648 113.645 149.611 113.645 149.573C113.645 149.536 113.635 149.499 113.617 149.466C113.08 148.464 111.147 148.267 110.18 148.07C108.605 147.766 106.994 147.569 105.401 147.354L104.614 147.247C104.507 147.247 104.328 147.247 104.345 147.247C104.144 146.896 103.982 146.524 103.862 146.137C103.2 144.598 102.574 143.059 101.893 141.519C101.553 140.732 101.213 139.962 100.837 139.193C100.605 138.727 100.354 137.832 99.8173 137.6C98.6539 137.099 97.8485 139.98 97.5442 140.66C96.7925 142.325 96.0945 144.007 95.3786 145.672C95.2354 146.03 94.9848 147.032 94.6627 147.265C94.1572 147.322 93.6468 147.322 93.1413 147.265L91.0115 147.444C89.8017 147.51 88.6021 147.702 87.4319 148.016C86.7339 148.213 85.4631 148.553 85.6421 149.538C85.8211 150.522 86.9486 151.095 87.4319 151.524C88.3753 152.274 89.3745 152.95 90.4208 153.547C90.9041 153.833 91.5126 154.03 91.9422 154.352C92.3717 154.674 92.2285 155.229 92.0854 155.802C91.7632 157.019 91.441 158.236 91.1368 159.382C90.8325 160.527 90.6714 161.368 90.5103 162.388C90.3314 163.075 90.3314 163.796 90.5103 164.482C91.2442 166.04 94.0899 163.319 94.7343 162.8C95.3786 162.281 96.4167 161.458 97.24 160.76L98.4212 159.722C98.636 159.525 99.1909 158.755 99.4772 158.701C99.7636 158.648 101.16 160.115 101.535 160.491C102.377 161.225 103.325 161.923 104.113 162.603C105.241 163.735 106.659 164.533 108.211 164.912C109.59 165.037 108.927 162.943 108.748 162.12C108.301 160.151 107.675 158.236 107.084 156.303C106.959 155.891 106.797 155.48 106.708 155.05C106.619 154.621 106.708 154.621 107.03 154.37C107.782 153.923 108.713 153.636 109.518 153.225C110.789 152.58 113.366 151.435 113.724 149.806C113.701 149.755 113.664 149.711 113.617 149.681Z" fill="#F7B9E7"/>
<path d="M66.634 21.9787C64.4684 21.7818 62.249 21.8176 60.0476 21.8355C60.674 21.227 61.3004 20.6185 61.8374 20.0457C62.891 19.1489 63.797 18.092 64.5221 16.9136C64.5651 16.8063 64.5766 16.689 64.5553 16.5754C64.5341 16.4618 64.4809 16.3566 64.402 16.2721C64.3232 16.1876 64.2219 16.1273 64.11 16.0983C63.9982 16.0693 63.8804 16.0727 63.7704 16.1082C62.5854 16.8243 61.5171 17.7176 60.6024 18.7571L58.6873 20.5469C58.6873 19.652 58.6873 18.7571 58.6873 17.8801C58.7872 16.4936 58.6786 15.0999 58.3652 13.7456C58.3269 13.6212 58.2498 13.5123 58.1451 13.435C58.0404 13.3576 57.9137 13.3159 57.7835 13.3159C57.6533 13.3159 57.5266 13.3576 57.4219 13.435C57.3172 13.5123 57.24 13.6212 57.2018 13.7456C56.8653 15.1024 56.7445 16.5036 56.8438 17.898C56.8438 18.775 56.8438 19.6878 56.8438 20.5469L54.9109 18.6139C54.0141 17.5603 52.9571 16.6543 51.7787 15.9292C51.6636 15.8678 51.5318 15.845 51.4028 15.8642C51.2738 15.8834 51.1543 15.9436 51.0621 16.0358C50.9698 16.1281 50.9096 16.2475 50.8904 16.3766C50.8712 16.5056 50.894 16.6374 50.9554 16.7525C51.7032 17.9458 52.6263 19.0198 53.6938 19.9383L55.4836 21.8355H52.781C51.3954 21.7208 50.0004 21.8234 48.6466 22.1398C48.5221 22.178 48.4133 22.2552 48.3359 22.3599C48.2585 22.4646 48.2168 22.5913 48.2168 22.7215C48.2168 22.8516 48.2585 22.9784 48.3359 23.0831C48.4133 23.1878 48.5221 23.2649 48.6466 23.3032C49.9971 23.6411 51.3909 23.7739 52.781 23.6969H55.3762C53.7833 25.2003 52.1546 26.7217 50.7227 28.3683C50.5681 28.5423 50.4858 28.7688 50.4926 29.0015C50.4995 29.2342 50.595 29.4555 50.7596 29.6201C50.9242 29.7847 51.1455 29.8802 51.3782 29.887C51.6109 29.8939 51.8374 29.8116 52.0114 29.6569C53.658 28.2609 55.1972 26.7038 56.7186 25.1466C56.7186 27.3302 56.5933 29.5138 56.7186 31.6794C56.7601 31.8861 56.872 32.0721 57.0351 32.2057C57.1982 32.3393 57.4026 32.4123 57.6135 32.4123C57.8243 32.4123 58.0287 32.3393 58.1918 32.2057C58.355 32.0721 58.4668 31.8861 58.5084 31.6794C58.7052 29.5317 58.6694 27.3302 58.6515 25.1645C60.155 26.7396 61.6584 28.3504 63.2871 29.7643C63.4611 29.919 63.6876 30.0013 63.9203 29.9944C64.153 29.9876 64.3743 29.8921 64.5389 29.7275C64.7035 29.5629 64.799 29.3416 64.8059 29.1089C64.8127 28.8762 64.7304 28.6497 64.5758 28.4757C63.1797 26.8291 61.6226 25.2898 60.0655 23.7685C62.249 23.7685 64.4326 23.8938 66.5982 23.7685C66.806 23.7313 66.9944 23.6232 67.1314 23.4627C67.2684 23.3023 67.3456 23.0993 67.3498 22.8883C67.354 22.6773 67.285 22.4714 67.1545 22.3055C67.024 22.1397 66.8401 22.0242 66.634 21.9787Z" fill="white"/>
<path d="M89.2038 17.6295C89.8 17.621 90.3702 17.384 90.7967 16.9673C91.2198 16.5451 91.458 15.9721 91.4589 15.3744C91.4543 14.776 91.2158 14.2032 90.7944 13.7785C90.3729 13.3537 89.802 13.1106 89.2038 13.1013C88.6017 13.1071 88.0249 13.3442 87.5929 13.7635C87.3813 13.9747 87.2137 14.2259 87.1 14.5024C86.9864 14.779 86.9288 15.0754 86.9307 15.3744C86.9445 15.9712 87.189 16.5395 87.6128 16.96C88.0366 17.3804 88.6068 17.6204 89.2038 17.6295Z" fill="white"/>
<path d="M100.801 60.8531C101.319 60.8531 101.815 60.6476 102.181 60.2817C102.547 59.9159 102.752 59.4196 102.752 58.9022C102.752 58.3848 102.547 57.8886 102.181 57.5228C101.815 57.1569 101.319 56.9514 100.801 56.9514C100.284 56.9514 99.7879 57.1569 99.422 57.5228C99.0561 57.8886 98.8506 58.3848 98.8506 58.9022C98.8506 59.4196 99.0561 59.9159 99.422 60.2817C99.7879 60.6476 100.284 60.8531 100.801 60.8531Z" fill="white"/>
<path d="M74.0437 65.3276V65.8825C74.0368 65.853 74.0368 65.8224 74.0437 65.793L73.8289 66.312L73.5068 66.7416L73.0593 67.0816H73.2025L72.6835 67.2964H72.1107H72.2181H71.6454C72.106 67.4319 72.5985 67.4104 73.0456 67.2355C73.4927 67.0605 73.869 66.742 74.1153 66.3299C74.2527 66.0877 74.3408 65.8206 74.3746 65.5442C74.4084 65.2677 74.3872 64.9873 74.3122 64.7191C74.2032 64.3522 74.0034 64.0187 73.7312 63.7496C73.459 63.4806 73.1232 63.2846 72.7551 63.1799C72.1559 63.0067 71.5125 63.0774 70.9653 63.3767C70.5454 63.6327 70.2109 64.0073 70.0038 64.4533C69.7968 64.8993 69.7265 65.3966 69.8019 65.8825C69.9565 66.4158 70.3085 66.8702 70.7863 67.1532C71.1927 67.3857 71.6657 67.474 72.1286 67.4038C72.6251 67.3272 73.0781 67.076 73.4061 66.6955C73.7341 66.315 73.9158 65.83 73.9184 65.3276H74.0437Z" fill="white"/>
<path d="M128.865 23.9833L129.026 24.1086C129.281 24.3471 129.6 24.5059 129.944 24.5655C130.288 24.6251 130.641 24.5829 130.962 24.4441C131.282 24.3052 131.554 24.0758 131.746 23.7841C131.937 23.4923 132.039 23.151 132.039 22.802C132.039 22.453 131.937 22.1117 131.746 21.8199C131.554 21.5282 131.282 21.2988 130.962 21.1599C130.641 21.0211 130.288 20.9789 129.944 21.0385C129.6 21.0981 129.281 21.257 129.026 21.4955L128.865 21.6386C128.708 21.7906 128.582 21.9727 128.497 22.1741C128.411 22.3755 128.367 22.5921 128.367 22.811C128.367 23.0298 128.411 23.2464 128.497 23.4478C128.582 23.6492 128.708 23.8314 128.865 23.9833Z" fill="white"/>
<path d="M162.228 68.764C162.797 68.7597 163.342 68.5352 163.749 68.1376C163.949 67.9382 164.108 67.701 164.215 67.4399C164.323 67.1787 164.377 66.8987 164.375 66.6163C164.379 66.3335 164.326 66.053 164.218 65.7915C164.11 65.53 163.951 65.2931 163.749 65.0949C163.344 64.6941 162.797 64.4691 162.228 64.4685C161.659 64.4729 161.113 64.6974 160.706 65.0949C160.306 65.5002 160.082 66.0468 160.082 66.6163C160.082 67.1857 160.306 67.7323 160.706 68.1376C161.116 68.5321 161.659 68.756 162.228 68.764Z" fill="white"/>
<path d="M165.091 110.466C165.574 110.42 166.023 110.195 166.349 109.836C166.675 109.477 166.856 109.009 166.856 108.524C166.856 108.039 166.675 107.572 166.349 107.213C166.023 106.854 165.574 106.629 165.091 106.582C164.609 106.629 164.16 106.854 163.834 107.213C163.508 107.572 163.327 108.039 163.327 108.524C163.327 109.009 163.508 109.477 163.834 109.836C164.16 110.195 164.609 110.42 165.091 110.466Z" fill="white"/>
<path d="M73.7752 143.953C73.9222 143.935 74.0663 143.899 74.2048 143.846C74.6313 143.711 75.0062 143.449 75.2787 143.094C75.57 142.742 75.7284 142.299 75.7261 141.842C75.7112 141.478 75.6133 141.123 75.4398 140.803C75.1626 140.343 74.7214 140.004 74.2048 139.855C74.0663 139.802 73.9222 139.766 73.7752 139.747C73.3948 139.64 72.9923 139.64 72.6119 139.747C72.2441 139.838 71.9092 140.03 71.6454 140.302C71.2417 140.714 71.0111 141.265 71.0011 141.842C70.9969 142.322 71.153 142.791 71.4447 143.173C71.7363 143.556 72.147 143.83 72.6119 143.953C72.9923 144.06 73.3948 144.06 73.7752 143.953Z" fill="white"/>
<path d="M53.3177 160.706H53.5861C54.0423 160.572 54.4427 160.294 54.7275 159.913C55.0124 159.532 55.1663 159.069 55.1663 158.594C55.1663 158.119 55.0124 157.656 54.7275 157.275C54.4427 156.895 54.0423 156.616 53.5861 156.482H53.3177C52.9791 156.384 52.6224 156.366 52.2757 156.43C51.9291 156.494 51.602 156.637 51.3203 156.849C51.0385 157.061 50.8099 157.335 50.6525 157.65C50.495 157.966 50.4131 158.313 50.4131 158.666C50.4131 159.018 50.495 159.366 50.6525 159.681C50.8099 159.996 51.0385 160.271 51.3203 160.483C51.602 160.694 51.9291 160.838 52.2757 160.901C52.6224 160.965 52.9791 160.947 53.3177 160.849V160.706Z" fill="white"/>
<path d="M27.867 139.926C28.4373 139.876 28.968 139.614 29.3546 139.191C29.7412 138.769 29.9556 138.217 29.9556 137.644C29.9556 137.072 29.7412 136.52 29.3546 136.098C28.968 135.675 28.4373 135.413 27.867 135.362C27.2966 135.413 26.7659 135.675 26.3793 136.098C25.9927 136.52 25.7783 137.072 25.7783 137.644C25.7783 138.217 25.9927 138.769 26.3793 139.191C26.7659 139.614 27.2966 139.876 27.867 139.926Z" fill="white"/>
<path d="M34.1312 48.9868C34.7493 48.9821 35.3433 48.7458 35.7957 48.3245C36.016 48.1051 36.1907 47.8443 36.31 47.5571C36.4292 47.2699 36.4906 46.962 36.4906 46.6511C36.4906 46.3401 36.4292 46.0323 36.31 45.7451C36.1907 45.4579 36.016 45.1971 35.7957 44.9776C35.3443 44.5391 34.7425 44.2894 34.1133 44.2796C33.8035 44.2802 33.4969 44.3422 33.2112 44.462C32.9255 44.5818 32.6664 44.7571 32.4488 44.9776C32.2285 45.1971 32.0538 45.4579 31.9345 45.7451C31.8153 46.0323 31.7539 46.3401 31.7539 46.6511C31.7539 46.962 31.8153 47.2699 31.9345 47.5571C32.0538 47.8443 32.2285 48.1051 32.4488 48.3245C32.8926 48.7635 33.4891 49.0136 34.1133 49.0226L34.1312 48.9868Z" fill="white"/>
<path d="M9.37854 77.4804C9.98606 77.4756 10.5688 77.2386 11.0073 76.8181C11.3286 76.4953 11.5472 76.0846 11.6357 75.6377C11.7241 75.1909 11.6784 74.7278 11.5043 74.3069C11.3302 73.886 11.0355 73.526 10.6572 73.2722C10.2789 73.0183 9.83406 72.8821 9.37854 72.8806C8.76892 72.892 8.18654 73.1352 7.74982 73.5607C7.35335 74.0018 7.14186 74.5787 7.15919 75.1715C7.16842 75.7762 7.41275 76.3536 7.8404 76.7813C8.26805 77.2089 8.84541 77.4532 9.45013 77.4625L9.37854 77.4804Z" fill="white"/>
<path d="M136.687 148.034V148.338C136.737 148.886 136.989 149.395 137.395 149.765C137.801 150.136 138.33 150.342 138.88 150.342C139.429 150.342 139.959 150.136 140.365 149.765C140.77 149.395 141.023 148.886 141.072 148.338V148.034C141.287 145.188 136.437 145.188 136.651 148.034H136.687Z" fill="white"/>
<path d="M16.2336 107.603C16.5646 107.608 16.8933 107.548 17.2007 107.425C17.508 107.302 17.7877 107.119 18.0234 106.887C18.2458 106.663 18.422 106.398 18.5418 106.106C18.6615 105.814 18.7226 105.502 18.7214 105.186C18.7305 104.857 18.6734 104.528 18.5536 104.221C18.4337 103.913 18.2534 103.633 18.0234 103.397C17.5401 102.94 16.8982 102.69 16.2336 102.699C15.5928 102.699 14.9782 102.953 14.5251 103.406C14.0719 103.859 13.8174 104.474 13.8174 105.115C13.8266 105.753 14.0842 106.362 14.5353 106.813C14.9864 107.264 15.5957 107.522 16.2336 107.531V107.603Z" fill="#FFF896"/>
<path d="M107.835 23.3569C108.386 23.3569 108.914 23.1381 109.303 22.7488C109.692 22.3594 109.911 21.8313 109.911 21.2807C109.902 20.7329 109.68 20.2102 109.293 19.8228C108.905 19.4354 108.383 19.2137 107.835 19.2045C107.284 19.2045 106.756 19.4233 106.367 19.8126C105.978 20.202 105.759 20.7301 105.759 21.2807C105.768 21.8285 105.99 22.3512 106.377 22.7386C106.764 23.126 107.287 23.3477 107.835 23.3569Z" fill="#FFF896"/>
<path d="M136.991 55.0542C137.466 55.0542 137.921 54.8656 138.257 54.53C138.592 54.1943 138.781 53.7391 138.781 53.2644C138.781 52.7897 138.592 52.3344 138.257 51.9988C137.921 51.6631 137.466 51.4746 136.991 51.4746C136.516 51.4746 136.061 51.6631 135.725 51.9988C135.39 52.3344 135.201 52.7897 135.201 53.2644C135.201 53.7391 135.39 54.1943 135.725 54.53C136.061 54.8656 136.516 55.0542 136.991 55.0542Z" fill="#FFF896"/>
<path d="M148.553 129.51C148.79 128.971 148.804 128.36 148.591 127.811C148.378 127.262 147.955 126.821 147.417 126.583C146.878 126.346 146.267 126.333 145.718 126.546C145.169 126.759 144.728 127.181 144.49 127.72C144.336 127.989 144.238 128.286 144.201 128.593C144.164 128.901 144.189 129.212 144.276 129.51C144.447 130.059 144.809 130.528 145.296 130.834C145.59 131.002 145.918 131.101 146.256 131.123C146.594 131.145 146.932 131.09 147.246 130.963C147.56 130.835 147.84 130.638 148.067 130.387C148.293 130.135 148.459 129.835 148.553 129.51Z" fill="#FFF896"/>
<path d="M73.1851 167.686C73.8532 167.678 74.4931 167.415 74.9749 166.952C75.441 166.473 75.7039 165.831 75.7087 165.163C75.7087 164.834 75.6439 164.508 75.518 164.204C75.392 163.9 75.2075 163.623 74.9748 163.391C74.7421 163.158 74.4659 162.974 74.1619 162.848C73.8579 162.722 73.532 162.657 73.203 162.657C72.8739 162.657 72.5481 162.722 72.2441 162.848C71.9401 162.974 71.6638 163.158 71.4312 163.391C71.1985 163.623 71.0139 163.9 70.888 164.204C70.7621 164.508 70.6973 164.834 70.6973 165.163C70.7021 165.831 70.965 166.473 71.4311 166.952C71.9129 167.415 72.5527 167.678 73.2209 167.686H73.1851Z" fill="#FFF896"/>
</g>
<defs>
<clipPath id="clip0_2288_5635">
<rect width="180" height="180" fill="white"/>
</clipPath>
</defs>
</svg>
