<svg width="100" height="100" viewBox="0 0 100 100" fill="none" xmlns="http://www.w3.org/2000/svg">
<g clip-path="url(#clip0_1972_5024)">
<path d="M99.2277 58.6814C104.022 31.4894 85.8658 5.55909 58.6738 0.764403C31.4818 -4.03028 5.55143 14.1263 0.75674 41.3183C-4.03794 68.5104 14.1187 94.4407 41.3107 99.2354C68.5027 104.03 94.433 85.8734 99.2277 58.6814Z" fill="#35208A"/>
<path d="M74.0873 53.8531C72.3809 50.0266 69.7992 46.6547 66.5503 44.0092C63.254 41.4217 59.2863 39.8312 55.1155 39.4253C50.5628 38.7822 45.9316 38.9641 41.4434 39.9623C37.37 41.0403 33.687 43.2543 30.8239 46.3459C28.1989 49.1201 25.5142 52.9284 24.8579 56.7764C24.1718 60.9427 27.8409 63.2197 31.1918 64.7311C33.2899 65.6459 35.4873 66.332 37.5655 67.2965C39.6436 68.261 41.5428 69.3647 43.6508 70.1402C45.6615 70.8256 47.7833 71.1258 49.9051 71.0252C52.1068 71.1151 54.3051 70.7774 56.3783 70.0309C58.874 69.0365 61.1709 67.6644 63.6468 66.6501C65.8344 65.7552 68.1114 65.0493 70.2094 63.9456C71.9495 63.0208 73.9581 61.7381 74.7237 59.8191C75.4893 57.9 74.8728 55.6827 74.0873 53.8531Z" fill="#E0435B"/>
<path d="M41.8917 44.1384C41.5771 44.1384 41.2695 44.0451 41.0078 43.8703C40.7462 43.6955 40.5423 43.447 40.4219 43.1563C40.3015 42.8656 40.27 42.5457 40.3314 42.2371C40.3927 41.9285 40.5443 41.645 40.7668 41.4225C40.9893 41.2 41.2727 41.0485 41.5813 40.9871C41.8899 40.9257 42.2098 40.9572 42.5005 41.0776C42.7912 41.1981 43.0397 41.402 43.2145 41.6636C43.3893 41.9252 43.4826 42.2328 43.4826 42.5475C43.4775 42.9678 43.3082 43.3695 43.011 43.6667C42.7137 43.964 42.3121 44.1332 41.8917 44.1384Z" fill="#35208A"/>
<path d="M58.1583 44.1384C57.8437 44.1384 57.5361 44.0451 57.2744 43.8703C57.0128 43.6955 56.8089 43.447 56.6885 43.1563C56.5681 42.8656 56.5366 42.5457 56.598 42.2371C56.6593 41.9285 56.8109 41.645 57.0334 41.4225C57.2559 41.2 57.5393 41.0485 57.8479 40.9871C58.1566 40.9257 58.4764 40.9572 58.7671 41.0776C59.0578 41.1981 59.3063 41.402 59.4811 41.6636C59.6559 41.9252 59.7492 42.2328 59.7492 42.5475C59.7416 42.967 59.5715 43.3673 59.2748 43.664C58.9781 43.9607 58.5779 44.1308 58.1583 44.1384Z" fill="#35208A"/>
<path d="M31.3111 44.1484C32.5341 45.6399 34.1151 48.1754 36.2827 48.1257C36.5473 48.0942 36.7961 47.9836 36.9967 47.8083C37.1973 47.633 37.3403 47.4012 37.4069 47.1433C37.4735 46.8853 37.4607 46.6133 37.3701 46.3628C37.2795 46.1123 37.1154 45.8949 36.8992 45.7393C35.6213 44.632 34.4647 43.3921 33.4489 42.0404C32.4546 40.8571 30.5852 38.9082 30.8835 37.2477C31.1818 35.5871 32.3849 34.1155 33.2301 32.7732C33.8785 32.7985 34.5267 32.7179 35.1492 32.5346C36.8021 32.0043 38.3029 31.0834 39.5243 29.8499C40.8169 28.6268 42.5073 27.1453 42.368 25.2163C42.3688 25.1848 42.3602 25.1539 42.3434 25.1274C42.3266 25.1008 42.3023 25.0798 42.2736 25.067C42.2449 25.0543 42.213 25.0503 42.1821 25.0556C42.1511 25.061 42.1224 25.0753 42.0996 25.0969C41.9007 25.3455 41.0257 25.3654 40.7274 25.4251C40.0972 25.5962 39.4505 25.6995 38.7984 25.7333C38.4703 25.7333 37.7345 25.793 37.8041 25.1467C37.8041 24.8782 38.4404 24.4904 38.6095 24.3711C39.1569 23.9828 39.77 23.6965 40.4192 23.5259C41.5478 23.3767 42.6911 23.3767 43.8198 23.5259C43.862 23.5259 43.9024 23.5091 43.9323 23.4793C43.9621 23.4495 43.9789 23.409 43.9789 23.3668C43.9789 19.1707 38.1322 20.2645 35.7458 21.3185C34.0876 22.0009 32.6769 23.1726 31.7016 24.6773C30.7263 26.182 30.2328 27.9482 30.2869 29.7405C30.29 30.297 30.4227 30.8451 30.6747 31.3414L30.2173 32.0772C29.0937 33.9266 27.5823 36.0545 27.9005 38.3514C28.2187 40.6483 29.9389 42.5077 31.3111 44.1484Z" fill="#E0435B"/>
<path d="M31.3217 50.6314C33.2507 50.6911 33.1513 47.9069 31.3217 47.6484C27.1455 47.1612 22.4523 45.5006 19.8769 41.9509C18.465 39.9622 18.8826 37.2477 18.8826 34.9905C18.8826 34.1454 19.2604 30.0189 17.401 30.8641C16.3471 31.3215 16.4564 32.7235 16.4067 33.7079C16.3471 35.1695 16.2675 36.6212 16.1979 38.0829C16.0775 39.2869 16.2128 40.5027 16.5949 41.6508C16.977 42.7989 17.5974 43.8533 18.4153 44.7449C21.7839 48.3169 26.416 50.4296 31.3217 50.6314Z" fill="#E0435B"/>
<path d="M18.8328 57.6713C20.4114 57.5936 21.9847 57.431 23.5459 57.1841C25.0465 57.1259 26.4991 56.6394 27.732 55.782C28.5971 55.0562 27.8016 53.9127 26.9167 53.7934C25.6767 53.791 24.4422 53.9582 23.2476 54.2905C21.945 54.4994 20.6325 54.6187 19.32 54.7281C18.8633 54.7671 18.4041 54.6932 17.9827 54.5128C17.5613 54.3325 17.1908 54.0513 16.9038 53.694C16.0528 52.9674 15.2797 52.1543 14.5969 51.2678C13.6722 50.0448 12.1807 48.0561 12.3099 46.4652C12.4193 45.2123 13.3043 43.6711 12.9364 42.4282C12.8725 42.2342 12.7614 42.0592 12.6131 41.9188C12.4648 41.7783 12.2839 41.677 12.0868 41.6237C11.8896 41.5705 11.6823 41.5671 11.4835 41.6138C11.2847 41.6605 11.1006 41.7558 10.9477 41.8912C10.4408 42.5686 10.1218 43.3678 10.023 44.208C9.77676 44.9687 9.60363 45.7511 9.50593 46.5447C9.35678 48.9609 11.3554 51.6953 12.7773 53.505C14.1992 55.3147 16.3469 57.7309 18.8328 57.6713Z" fill="#E0435B"/>
<path d="M30.8241 65.5364C32.9195 65.7387 35.0311 65.702 37.1182 65.4271C38.3114 65.2083 38.212 63.4384 37.1182 63.1003C34.7865 62.6511 32.4119 62.4643 30.0386 62.5435C27.5329 62.4639 25.0669 62.3546 22.5214 62.2949C18.4248 62.1855 14.5668 63.1998 12.3792 67.008C12.231 67.3143 12.2037 67.6651 12.3026 67.9906C12.4016 68.3161 12.6196 68.5923 12.9132 68.7642C13.2068 68.9361 13.5544 68.991 13.8867 68.918C14.219 68.845 14.5115 68.6494 14.706 68.3703C17.0327 64.8205 20.8112 65.1685 24.5896 65.3077L30.8241 65.5364Z" fill="#E0435B"/>
<path d="M45.7397 65.4967C42.5861 65.7494 39.4574 66.2514 36.3831 66.9981L31.8191 67.8831C30.4668 68.1416 28.7466 68.082 27.5236 68.7581C25.6542 69.7524 23.7749 72.278 23.7451 74.4457C23.7451 76.3548 25.4454 79.7654 27.6628 79.6759C27.9265 79.6759 28.1794 79.5711 28.3659 79.3846C28.5524 79.1982 28.6571 78.9453 28.6571 78.6815C28.6571 76.8917 26.2409 75.967 26.7281 74.0281C27.0635 73.1319 27.642 72.3468 28.3986 71.761C29.2935 70.9655 30.4767 71.055 31.6302 70.8561C34.0166 70.4684 36.393 69.9811 38.7695 69.5436C41.2628 69.1795 43.7233 68.6175 46.1275 67.8632C47.3307 67.4555 47.2312 65.447 45.7397 65.4967Z" fill="#E0435B"/>
<path d="M37.3571 25.3952C34.9608 25.1864 32.0474 27.1453 30.3173 28.6268C30.0389 28.8655 30.4366 29.2533 30.715 29.0246C31.7329 28.1614 32.8554 27.4298 34.056 26.847C35.1398 26.3498 36.3827 26.1708 37.4267 25.6239C37.4527 25.6084 37.4728 25.5848 37.4842 25.5567C37.4955 25.5286 37.4974 25.4976 37.4895 25.4684C37.4816 25.4392 37.4645 25.4133 37.4406 25.3948C37.4167 25.3762 37.3874 25.3659 37.3571 25.3654V25.3952Z" fill="#35208A"/>
<path d="M30.8245 31.6695C30.745 31.9977 31.1129 32.2761 31.3416 32.4451C31.672 32.6867 32.0422 32.8684 32.4354 32.982C32.5066 33.0018 32.5827 32.9925 32.647 32.9561C32.7114 32.9198 32.7586 32.8594 32.7784 32.7882C32.7982 32.7169 32.7889 32.6408 32.7525 32.5765C32.7161 32.5121 32.6557 32.4649 32.5845 32.4451C32.251 32.347 31.9354 32.196 31.6498 31.9977C31.4211 31.8585 31.1924 31.5701 30.9041 31.6099C30.886 31.6093 30.8683 31.6149 30.8538 31.6257C30.8394 31.6366 30.829 31.652 30.8245 31.6695Z" fill="#35208A"/>
<path d="M28.1294 37.5559C28.2885 37.9338 28.8453 38.0929 29.2231 38.1923C29.6869 38.3541 30.1877 38.3783 30.6649 38.2619C30.8737 38.1923 30.9135 37.8542 30.6649 37.8045C30.2075 37.7051 29.7501 37.7548 29.2828 37.6454C28.9412 37.4898 28.5737 37.3988 28.199 37.377C28.1095 37.377 28.0995 37.4863 28.1294 37.5559Z" fill="#35208A"/>
<path d="M30.6056 42.7563C31.0404 42.7945 31.4782 42.7368 31.8883 42.5873C32.1965 42.4779 32.6241 42.3486 32.6539 41.9708C32.6493 41.9311 32.6338 41.8934 32.6093 41.8618C32.5848 41.8303 32.552 41.8061 32.5147 41.7918C32.2164 41.7023 31.9479 41.9708 31.6795 42.0702C31.3336 42.1851 30.9696 42.2356 30.6056 42.2194C30.2476 42.2194 30.2576 42.7364 30.6056 42.7563Z" fill="#35208A"/>
<path d="M32.1763 45.0731C32.5531 44.9781 32.8969 44.7821 33.1706 44.5064C33.5902 44.3071 33.9814 44.053 34.334 43.7507C34.4434 43.6115 34.3937 43.3331 34.1749 43.3529C33.6858 43.4778 33.2394 43.732 32.8823 44.0887C32.584 44.3174 32.1763 44.6257 32.1465 45.0334L32.1763 45.0731Z" fill="#35208A"/>
<path d="M16.7747 35.1C17.1024 35.1704 17.4413 35.1704 17.769 35.1C17.9347 35.0812 18.0949 35.0292 18.2401 34.9472C18.3853 34.8652 18.5125 34.7549 18.6142 34.6227C18.6328 34.5865 18.6419 34.5462 18.6406 34.5056C18.6393 34.465 18.6277 34.4254 18.6067 34.3905C18.5858 34.3556 18.5563 34.3267 18.5211 34.3064C18.4859 34.2861 18.446 34.2752 18.4054 34.2747C18.1504 34.3394 17.9036 34.4328 17.6696 34.5531C17.3905 34.6246 17.1019 34.6515 16.8144 34.6326C16.536 34.6326 16.4565 35.09 16.7448 35.1397L16.7747 35.1Z" fill="#35208A"/>
<path d="M18.2361 43.9495C18.7722 44.0439 19.3207 44.0439 19.8568 43.9495C20.2844 43.8998 20.8512 43.8898 21.0798 43.5021C21.0905 43.4838 21.0973 43.4636 21.1001 43.4427C21.1028 43.4218 21.1014 43.4005 21.0958 43.3802C21.0903 43.3598 21.0807 43.3408 21.0677 43.3241C21.0548 43.3075 21.0386 43.2936 21.0202 43.2833C20.6523 43.1143 20.3242 43.2833 19.9364 43.3728C19.3947 43.4291 18.8503 43.4556 18.3057 43.4523C18.0272 43.4523 17.9477 43.8799 18.2361 43.9396V43.9495Z" fill="#35208A"/>
<path d="M27.9701 50.2138C28.349 49.8215 28.7074 49.41 29.044 48.9808C29.3971 48.6149 29.7135 48.2153 29.9886 47.7876C30.0203 47.7372 30.032 47.6768 30.0214 47.6182C30.0108 47.5596 29.9786 47.5071 29.9313 47.471C29.884 47.4349 29.8249 47.4177 29.7656 47.423C29.7062 47.4282 29.651 47.4554 29.6108 47.4993C29.2202 47.8742 28.8641 48.2836 28.5468 48.7223C28.2187 49.1201 27.8906 49.4979 27.6022 49.9255C27.4531 50.1442 27.7812 50.3928 27.9701 50.2039V50.2138Z" fill="#35208A"/>
<path d="M25.1866 56.7863C25.3855 56.3389 25.4352 55.792 25.6142 55.3843C25.7932 54.9766 26.181 54.5391 26.0318 54.1712C26.0318 54.1712 25.9622 54.0619 25.9025 54.0718C25.465 54.0718 25.3358 54.6585 25.1866 55.0164C24.9312 55.5327 24.7985 56.101 24.7988 56.677C24.7988 56.8559 25.0872 56.9951 25.1866 56.7863Z" fill="#35208A"/>
<path d="M27.6627 62.643C28.3885 63.3782 29.2879 63.9185 30.2778 64.214C31.4411 64.6416 32.6145 65.0791 33.7878 65.4669C34.0463 65.5464 34.1656 65.1885 33.9668 65.0493C33.1285 64.5539 32.2199 64.1885 31.2721 63.9654C30.0784 63.6387 28.9603 63.0814 27.9809 62.3248C27.9368 62.2943 27.8835 62.2803 27.8302 62.2851C27.7769 62.2899 27.7269 62.3133 27.6891 62.3512C27.6512 62.389 27.6278 62.439 27.623 62.4923C27.6182 62.5456 27.6322 62.5989 27.6627 62.643Z" fill="#35208A"/>
<path d="M37.208 66.9981C37.7755 67.4644 38.3963 67.8616 39.0575 68.1814C39.6307 68.5403 40.264 68.7929 40.9268 68.9271C41.1655 68.9271 41.1854 68.6288 41.0362 68.5195C40.4557 68.1743 39.8509 67.8719 39.2265 67.6146C38.6299 67.3163 38.0731 66.9285 37.4765 66.6203C37.2677 66.5208 37.0092 66.7893 37.208 66.9683V66.9981Z" fill="#35208A"/>
<path d="M9.94313 47.5391C10.3287 47.6594 10.7353 47.6967 11.1363 47.6488C11.5373 47.6008 11.9236 47.4685 12.2699 47.2607C12.598 47.1016 12.2699 46.6144 11.9915 46.7734C11.6751 46.9335 11.3415 47.0569 10.9971 47.1413C10.669 47.2109 10.3309 47.1911 10.0028 47.2806C9.89341 47.2806 9.85364 47.4894 10.0028 47.5391H9.94313Z" fill="#35208A"/>
<path d="M17.2816 56.856C17.7956 56.3634 18.1608 55.7364 18.3356 55.0463C18.346 55.0097 18.3492 54.9715 18.3448 54.9337C18.3405 54.8959 18.3287 54.8594 18.3103 54.8261C18.2918 54.7929 18.267 54.7636 18.2372 54.74C18.2074 54.7163 18.1733 54.6988 18.1367 54.6883C18.1001 54.6779 18.0619 54.6747 18.0241 54.6791C17.9863 54.6834 17.9498 54.6952 17.9165 54.7136C17.8833 54.7321 17.854 54.7569 17.8304 54.7867C17.8067 54.8165 17.7892 54.8506 17.7787 54.8872C17.5775 55.4869 17.2821 56.0508 16.9037 56.5577C16.7446 56.7963 17.0927 57.025 17.2915 56.856H17.2816Z" fill="#35208A"/>
<path d="M19.0612 63.0009C19.2601 63.3191 19.5982 63.5279 19.8169 63.8362C19.9249 63.9859 20.0182 64.1457 20.0953 64.3135C20.1848 64.4825 20.2147 64.6615 20.3638 64.7808C20.3921 64.808 20.4269 64.8275 20.4648 64.8374C20.5028 64.8473 20.5427 64.8472 20.5807 64.8373C20.6186 64.8273 20.6534 64.8077 20.6816 64.7804C20.7098 64.7531 20.7304 64.719 20.7416 64.6814C20.851 64.2936 20.4931 63.8064 20.2644 63.5081C20.0332 63.1396 19.682 62.8621 19.27 62.7225C19.1209 62.7225 18.9618 62.8518 19.0612 63.0009Z" fill="#35208A"/>
<path d="M21.4378 63.8958C21.4179 64.0243 21.4179 64.1551 21.4378 64.2836C21.4378 64.4129 21.4378 64.5521 21.4975 64.6913C21.5571 64.8305 22.0742 64.9299 22.0444 64.6118C22.0375 64.3421 21.9623 64.0787 21.8256 63.8461C21.8045 63.8118 21.7739 63.7844 21.7375 63.7671C21.7011 63.7498 21.6605 63.7434 21.6206 63.7486C21.5807 63.7539 21.5431 63.7706 21.5124 63.7967C21.4818 63.8228 21.4593 63.8572 21.4478 63.8958H21.4378Z" fill="#35208A"/>
<path d="M25.7735 77.3789C25.8821 77.2367 26.022 77.1215 26.1824 77.0421C26.3428 76.9628 26.5193 76.9215 26.6982 76.9215C26.7618 76.9094 26.8192 76.8754 26.8605 76.8255C26.9017 76.7756 26.9243 76.7129 26.9243 76.6481C26.9243 76.5834 26.9017 76.5206 26.8605 76.4707C26.8192 76.4208 26.7618 76.3868 26.6982 76.3747C26.434 76.3636 26.1713 76.4198 25.9348 76.5381C25.6983 76.6564 25.4956 76.8328 25.346 77.0508C25.157 77.2894 25.5846 77.6275 25.7735 77.3789Z" fill="#35208A"/>
<path d="M27.6523 69.7127C28.0623 69.9283 28.406 70.2514 28.6466 70.6474C28.8355 70.9556 29.3228 70.6474 29.1338 70.359C28.8561 69.8806 28.4449 69.4936 27.9506 69.2453C27.9199 69.2277 27.886 69.2163 27.851 69.2118C27.8159 69.2072 27.7802 69.2096 27.746 69.2189C27.7119 69.2281 27.6799 69.244 27.6518 69.2656C27.6238 69.2872 27.6003 69.3141 27.5827 69.3448C27.5651 69.3755 27.5536 69.4093 27.5491 69.4444C27.5446 69.4795 27.547 69.5152 27.5562 69.5493C27.5654 69.5835 27.5813 69.6155 27.6029 69.6435C27.6245 69.6716 27.6514 69.6951 27.6821 69.7127H27.6523Z" fill="#35208A"/>
<path d="M28.8361 69.4343C29.1972 69.8063 29.493 70.2366 29.7111 70.707C29.8602 70.9854 30.3276 70.7965 30.2281 70.4982C30.0244 69.9467 29.682 69.4569 29.2338 69.0763C28.9852 68.8774 28.6372 69.2056 28.8759 69.4343H28.8361Z" fill="#35208A"/>
<path d="M68.6784 50.6314C71.2511 50.5334 73.7749 49.899 76.0882 48.7689C78.4014 47.6388 80.4531 46.0379 82.1118 44.0688C83.8419 41.8515 83.832 39.5247 83.6928 36.84C83.6928 35.975 84.001 29.9294 81.9626 30.874C81.1373 31.2718 81.1274 32.1269 81.0876 32.9423C81.028 34.1454 81.0876 35.3485 81.0876 36.5517C81.0876 38.8287 81.1871 40.887 79.5365 42.6469C76.6183 45.541 72.7662 47.3032 68.6684 47.6186C66.8488 47.907 66.7394 50.711 68.6784 50.6314Z" fill="#E0435B"/>
<path d="M80.6806 54.6883C79.3681 54.5789 78.0556 54.4596 76.7033 54.2508C75.5085 53.9192 74.2741 53.752 73.0342 53.7536C72.1492 53.863 71.3538 55.0164 72.2089 55.7423C73.4449 56.601 74.901 57.0875 76.405 57.1443C77.9629 57.3907 79.5328 57.5534 81.1082 57.6315C83.6039 57.721 85.7517 55.265 87.1835 53.4653C88.6154 51.6655 90.614 48.9411 90.4549 46.505C90.3572 45.7114 90.1841 44.929 89.9378 44.1683C89.839 43.328 89.52 42.5288 89.0131 41.8515C88.8613 41.7135 88.6772 41.616 88.4777 41.5678C88.2783 41.5197 88.07 41.5225 87.8719 41.576C87.6738 41.6294 87.4924 41.7319 87.3443 41.8739C87.1962 42.0158 87.0862 42.1928 87.0244 42.3884C86.6068 43.6313 87.5316 45.1726 87.6409 46.4254C87.7801 48.0263 86.2986 49.9951 85.3639 51.228C84.684 52.1227 83.918 52.9487 83.0769 53.694C82.7855 54.0385 82.4161 54.3085 81.9993 54.4815C81.5824 54.6544 81.1303 54.7253 80.6806 54.6883Z" fill="#E0435B"/>
<path d="M77.4984 62.2949C75.0722 62.3546 72.656 62.454 70.2298 62.5335C67.7735 62.4474 65.3154 62.6375 62.9016 63.1003C62.6506 63.1745 62.4303 63.3279 62.2736 63.5375C62.1169 63.7472 62.0322 64.0019 62.0322 64.2637C62.0322 64.5254 62.1169 64.7802 62.2736 64.9898C62.4303 65.1995 62.6506 65.3529 62.9016 65.4271C64.9028 65.6906 66.9271 65.7306 68.9372 65.5464L75.4302 65.3077C79.1987 65.1685 82.9772 64.8205 85.3039 68.3703C85.4984 68.6494 85.7909 68.845 86.1232 68.918C86.4555 68.991 86.8031 68.9361 87.0967 68.7642C87.3903 68.5923 87.6083 68.3161 87.7073 67.9906C87.8062 67.6651 87.7789 67.3143 87.6306 67.008C85.5127 63.1998 81.595 62.1855 77.4984 62.2949Z" fill="#E0435B"/>
<path d="M72.4773 68.7581C71.3139 68.1118 69.7031 68.1715 68.4204 67.9328C66.8991 67.6544 65.3678 67.3462 63.8465 67.0479C60.6846 66.275 57.466 65.7563 54.2214 65.4967C52.7796 65.4967 52.6603 67.4854 53.9032 67.893C56.2221 68.6261 58.5963 69.1714 61.0027 69.5237C63.4687 69.9811 65.9247 70.5181 68.4005 70.886C69.3949 71.055 70.6776 70.9655 71.483 71.6616C72.2435 72.2418 72.8454 73.0044 73.233 73.8789C73.9589 75.8676 71.3438 76.8619 71.3736 78.7114C71.3736 78.9751 71.4784 79.228 71.6648 79.4145C71.8513 79.6009 72.1042 79.7057 72.3679 79.7057C74.5256 79.7853 76.216 76.5238 76.2757 74.6744C76.3154 72.3874 74.4063 69.8121 72.4773 68.7581Z" fill="#E0435B"/>
<path d="M56.1898 23.4861C57.3185 23.337 58.4618 23.337 59.5905 23.4861C60.1981 23.6435 60.7736 23.906 61.2908 24.2617C61.4996 24.4009 62.1757 24.7987 62.2055 25.1069C62.2652 25.7532 61.5294 25.6737 61.2112 25.6936C60.6031 25.6649 59.9998 25.5715 59.4115 25.4151C59.1032 25.3555 58.1188 25.3257 57.9001 25.0572C57.8106 24.9478 57.6416 25.0572 57.6316 25.1765C57.5123 27.1055 59.1828 28.5871 60.4854 29.8101C61.7029 31.0435 63.2004 31.9645 64.8505 32.4948C65.4758 32.6799 66.1282 32.7573 66.7795 32.7235C67.6545 34.0857 68.8377 35.7065 69.1162 37.2079C69.3946 38.7094 67.6147 40.6781 66.6999 41.8216C65.6436 43.2555 64.4332 44.5693 63.0905 45.7393C62.8483 45.8894 62.6611 46.1138 62.5568 46.3789C62.4524 46.6441 62.4365 46.9358 62.5114 47.2108C62.5863 47.4857 62.7479 47.7291 62.9723 47.9047C63.1967 48.0803 63.4718 48.1787 63.7567 48.1854C65.8746 48.1854 67.4556 45.6597 68.7284 44.208C70.0906 42.5674 71.8307 40.5688 72.1389 38.3713C72.4472 36.1738 70.9557 33.9565 69.8321 32.0971C69.6829 31.8485 69.5238 31.6098 69.3647 31.3612C69.6248 30.8676 69.7613 30.3183 69.7625 29.7604C69.818 27.9678 69.3251 26.201 68.3496 24.696C67.3741 23.1911 65.9626 22.0197 64.3036 21.3384C61.9172 20.2844 56.0307 19.1906 56.0705 23.3867C56.0802 23.4121 56.0963 23.4346 56.1172 23.452C56.1381 23.4694 56.1631 23.4811 56.1898 23.4861Z" fill="#E0435B"/>
<path d="M62.5632 25.6538C63.6172 26.2007 64.8502 26.3797 65.9439 26.8768C67.1429 27.4504 68.2653 28.1719 69.2849 29.0246C69.5633 29.2533 69.961 28.8655 69.6826 28.6269C67.9525 27.1453 65.0291 25.1865 62.6427 25.3953C62.5234 25.3953 62.4439 25.5842 62.5731 25.6538H62.5632Z" fill="#35208A"/>
<path d="M69.1359 31.6098C68.8575 31.6098 68.6189 31.8584 68.4001 31.9976C68.0947 32.1988 67.759 32.3499 67.4058 32.4451C67.0677 32.5445 67.2169 33.0914 67.5549 32.982C67.9489 32.8703 68.3194 32.6885 68.6487 32.4451C68.8774 32.2661 69.2552 31.9976 69.1658 31.6695C69.1612 31.652 69.1509 31.6366 69.1365 31.6257C69.122 31.6149 69.1043 31.6093 69.0862 31.6098H69.1359Z" fill="#35208A"/>
<path d="M71.8009 37.377C71.423 37.399 71.0523 37.49 70.7071 37.6454C70.2497 37.7548 69.7824 37.7051 69.3349 37.8045C69.0863 37.8045 69.1261 38.1923 69.3349 38.2619C69.8122 38.3777 70.3128 38.3536 70.7767 38.1923C71.1546 38.0929 71.7114 37.9338 71.8705 37.5559C71.8705 37.4863 71.8705 37.3869 71.8009 37.377Z" fill="#35208A"/>
<path d="M69.394 42.2591C69.03 42.2754 68.666 42.2249 68.3201 42.11C68.0417 42.0106 67.7832 41.7421 67.4849 41.8316C67.4455 41.8423 67.4106 41.8656 67.3855 41.8979C67.3604 41.9301 67.3464 41.9697 67.3457 42.0106C67.3457 42.3884 67.7931 42.5177 68.1113 42.627C68.5214 42.7766 68.9592 42.8343 69.394 42.7961C69.7321 42.7961 69.742 42.2492 69.394 42.2591Z" fill="#35208A"/>
<path d="M67.8534 45.0333C67.8534 44.6257 67.4159 44.3174 67.1176 44.0887C66.7588 43.7343 66.313 43.4805 65.825 43.3529C65.6062 43.3529 65.5466 43.6114 65.6659 43.7506C66.0042 44.0526 66.3822 44.3069 66.7895 44.5063C67.0648 44.7801 67.4079 44.9758 67.7838 45.0731L67.8534 45.0333Z" fill="#35208A"/>
<path d="M83.1457 34.5929C82.8582 34.6109 82.5697 34.584 82.2905 34.5133C82.0566 34.3931 81.8097 34.2997 81.5547 34.2349C81.5138 34.2342 81.4734 34.2445 81.4378 34.2648C81.4022 34.2851 81.3727 34.3145 81.3524 34.3501C81.3321 34.3857 81.3217 34.426 81.3223 34.467C81.3229 34.5079 81.3345 34.548 81.3559 34.5829C81.5618 34.8443 81.8613 35.0155 82.1911 35.0602C82.5189 35.1303 82.8577 35.1303 83.1855 35.0602C83.4738 35.0602 83.4042 34.5431 83.1158 34.5531L83.1457 34.5929Z" fill="#35208A"/>
<path d="M81.6941 43.4623C81.1495 43.4656 80.6051 43.439 80.0634 43.3827C79.6756 43.3131 79.3475 43.1242 78.9696 43.2933C78.9546 43.3072 78.9425 43.3241 78.9343 43.343C78.9261 43.3618 78.9219 43.3821 78.9219 43.4026C78.9219 43.4232 78.9261 43.4435 78.9343 43.4623C78.9425 43.4811 78.9546 43.498 78.9696 43.512C79.2083 43.9097 79.7551 43.9097 80.1827 43.9595C80.7222 44.054 81.274 44.054 81.8134 43.9595C82.0918 43.8998 82.0123 43.4822 81.7438 43.4722L81.6941 43.4623Z" fill="#35208A"/>
<path d="M72.3972 49.9354C72.1088 49.5078 71.7707 49.13 71.4028 48.7322C71.0861 48.29 70.73 47.8774 70.3389 47.4993C70.1301 47.3302 69.8119 47.4993 69.9511 47.7876C70.2423 48.2173 70.5754 48.6169 70.9454 48.9808C71.282 49.4099 71.6405 49.8215 72.0193 50.2138C72.1983 50.3928 72.5364 50.1541 72.3872 49.9354H72.3972Z" fill="#35208A"/>
<path d="M75.2013 56.677C75.2031 56.0997 75.0667 55.5303 74.8036 55.0165C74.6644 54.6585 74.5351 54.1116 74.0976 54.0718C74.028 54.0718 73.9882 54.0718 73.9683 54.1713C73.8093 54.5392 74.2567 55.0463 74.386 55.3844C74.5152 55.7224 74.6147 56.3787 74.8135 56.7864C74.903 56.9952 75.1814 56.856 75.2013 56.677Z" fill="#35208A"/>
<path d="M72.0099 62.3148C71.0306 63.0656 69.9169 63.6224 68.7287 63.9555C67.7808 64.1785 66.8723 64.544 66.034 65.0393C65.8351 65.1785 65.9445 65.5365 66.203 65.4569C67.3764 65.0692 68.5596 64.6316 69.713 64.2041C70.703 63.9138 71.6028 63.3766 72.3281 62.643C72.3586 62.5989 72.3726 62.5456 72.3678 62.4923C72.363 62.439 72.3396 62.389 72.3018 62.3512C72.2639 62.3133 72.214 62.2899 72.1606 62.2851C72.1073 62.2803 72.054 62.2943 72.0099 62.3248V62.3148Z" fill="#35208A"/>
<path d="M62.5237 66.6203C61.9171 66.9186 61.3603 67.3064 60.7637 67.6146C60.143 67.8654 59.5415 68.1611 58.9639 68.4996C58.8148 68.6089 58.8347 68.9271 59.0733 68.9072C59.7336 68.7746 60.3638 68.5218 60.9327 68.1615C61.5965 67.8464 62.2179 67.4488 62.7822 66.9782C62.981 66.7993 62.7822 66.5308 62.5237 66.6302V66.6203Z" fill="#35208A"/>
<path d="M90.0662 47.2806C89.748 47.1911 89.4099 47.2109 89.0718 47.1413C88.7275 47.0569 88.3939 46.9335 88.0775 46.7734C87.7494 46.6144 87.461 47.1016 87.7891 47.2607C88.1354 47.4685 88.5217 47.6008 88.9227 47.6488C89.3237 47.6967 89.7303 47.6594 90.1159 47.5391C90.2352 47.4894 90.1954 47.3203 90.1159 47.2806H90.0662Z" fill="#35208A"/>
<path d="M83.0962 56.5577C82.7184 56.0488 82.42 55.4856 82.2113 54.8872C82.182 54.8251 82.1315 54.7755 82.0689 54.7473C82.0064 54.7191 81.9358 54.7142 81.8699 54.7333C81.804 54.7525 81.7471 54.7946 81.7095 54.8519C81.6718 54.9093 81.6558 54.9782 81.6644 55.0463C81.8392 55.7364 82.2044 56.3634 82.7184 56.856C82.9073 57.025 83.2653 56.7963 83.0962 56.5577Z" fill="#35208A"/>
<path d="M80.7301 62.7225C80.3165 62.8591 79.9643 63.1373 79.7357 63.508C79.507 63.8063 79.1491 64.2935 79.2485 64.6813C79.2597 64.7189 79.2804 64.753 79.3086 64.7803C79.3368 64.8076 79.3715 64.8272 79.4095 64.8372C79.4474 64.8472 79.4873 64.8473 79.5253 64.8374C79.5633 64.8275 79.5981 64.808 79.6264 64.7808C79.7755 64.6714 79.7954 64.5222 79.8749 64.3631C79.9598 64.1776 80.0631 64.0011 80.1832 63.8361C80.4019 63.5279 80.74 63.3191 80.9389 63.0009C80.9576 62.9688 80.9664 62.9319 80.9642 62.8949C80.9621 62.8578 80.949 62.8222 80.9267 62.7925C80.9045 62.7628 80.8739 62.7403 80.8389 62.7279C80.804 62.7154 80.7661 62.7135 80.7301 62.7225Z" fill="#35208A"/>
<path d="M78.1847 63.8461C78.0495 64.0798 77.9711 64.3421 77.9561 64.6117C77.9561 64.9299 78.4234 64.9896 78.5029 64.6913C78.5369 64.5578 78.5569 64.4212 78.5626 64.2836C78.5927 64.1561 78.5927 64.0233 78.5626 63.8958C78.5533 63.8567 78.5324 63.8213 78.5026 63.7943C78.4728 63.7673 78.4356 63.75 78.3957 63.7446C78.3559 63.7392 78.3153 63.746 78.2795 63.7641C78.2436 63.7823 78.214 63.8108 78.1947 63.8461H78.1847Z" fill="#35208A"/>
<path d="M74.6545 77.0508C74.5042 76.8335 74.3014 76.6576 74.065 76.5394C73.8287 76.4212 73.5663 76.3646 73.3022 76.3747C73.2386 76.3869 73.1813 76.4208 73.14 76.4707C73.0987 76.5207 73.0762 76.5834 73.0762 76.6481C73.0762 76.7129 73.0987 76.7756 73.14 76.8255C73.1813 76.8754 73.2386 76.9094 73.3022 76.9216C73.4811 76.9216 73.6577 76.9628 73.818 77.0422C73.9784 77.1215 74.1184 77.2367 74.2269 77.379C74.4159 77.6176 74.8434 77.2994 74.6545 77.0508Z" fill="#35208A"/>
<path d="M72.0691 69.2453C71.5767 69.4963 71.1662 69.8827 70.8859 70.359C70.6969 70.6672 71.1941 70.9556 71.383 70.6473C71.6182 70.2471 71.9633 69.9227 72.3774 69.7127C72.6757 69.5337 72.3774 69.0962 72.0989 69.2453H72.0691Z" fill="#35208A"/>
<path d="M70.8161 69.0763C70.3653 69.4544 70.0222 69.9449 69.8218 70.4982C69.7124 70.7965 70.1897 70.9854 70.3289 70.707C70.5506 70.2387 70.846 69.809 71.2039 69.4343C71.4426 69.2056 71.0946 68.8774 70.8559 69.0763H70.8161Z" fill="#35208A"/>
<path d="M44.238 45.451C44.0292 46.5348 45.2323 47.8771 46.0079 48.5533C47.0909 49.4977 48.4447 50.0755 49.8759 50.2039C51.423 50.4181 52.9943 50.0457 54.2808 49.1598C55.3547 48.3445 56.518 46.8928 56.339 45.4609C56.339 45.3924 56.3118 45.3266 56.2633 45.2781C56.2148 45.2296 56.1491 45.2024 56.0805 45.2024C56.0119 45.2024 55.9462 45.2296 55.8977 45.2781C55.8492 45.3266 55.822 45.3924 55.822 45.4609C55.4044 48.772 51.9938 50.1641 49.0108 49.4383C47.8772 49.1725 46.8425 48.5897 46.0278 47.7578C45.3517 47.0717 45.0335 45.8885 44.2678 45.3814H44.1982L44.238 45.451Z" fill="#35208A"/>
<path d="M37.0289 51.1186C36.4389 51.1186 35.8622 50.9437 35.3716 50.6159C34.8811 50.2881 34.4987 49.8223 34.273 49.2772C34.0472 48.7321 33.9881 48.1323 34.1032 47.5537C34.2183 46.975 34.5024 46.4435 34.9196 46.0264C35.3368 45.6092 35.8683 45.3251 36.4469 45.21C37.0256 45.0949 37.6254 45.1539 38.1704 45.3797C38.7155 45.6055 39.1814 45.9878 39.5092 46.4784C39.8369 46.9689 40.0119 47.5457 40.0119 48.1356C40.0119 48.9268 39.6976 49.6855 39.1382 50.2449C38.5788 50.8044 37.82 51.1186 37.0289 51.1186Z" fill="white"/>
<path d="M63.4684 51.1186C62.8784 51.1186 62.3016 50.9437 61.8111 50.6159C61.3205 50.2881 60.9382 49.8223 60.7124 49.2772C60.4866 48.7321 60.4276 48.1323 60.5427 47.5537C60.6578 46.975 60.9419 46.4435 61.3591 46.0264C61.7762 45.6092 62.3077 45.3251 62.8864 45.21C63.465 45.0949 64.0648 45.1539 64.6099 45.3797C65.155 45.6055 65.6208 45.9878 65.9486 46.4784C66.2764 46.9689 66.4513 47.5457 66.4513 48.1356C66.4513 48.9268 66.1371 49.6855 65.5776 50.2449C65.0182 50.8044 64.2595 51.1186 63.4684 51.1186Z" fill="white"/>
<path d="M63.1202 83.1561C63.1307 83.1379 63.1362 83.1173 63.1362 83.0964C63.1362 83.0755 63.1307 83.0549 63.1202 83.0367C62.8219 82.4799 61.7481 82.3705 61.2111 82.2612C60.3361 82.0921 59.4412 81.9828 58.5563 81.8634L58.1187 81.8038C58.0591 81.8038 57.9597 81.8038 57.9696 81.8038C57.8577 81.6088 57.7676 81.402 57.7011 81.1873C57.3332 80.3322 56.9852 79.477 56.6074 78.6219C56.4184 78.1844 56.2295 77.7568 56.0207 77.3293C55.8914 77.0707 55.7522 76.5736 55.4539 76.4443C54.8076 76.1659 54.3602 77.7668 54.1911 78.1446C53.7735 79.0694 53.3857 80.004 52.988 80.9288C52.9084 81.1276 52.7692 81.6844 52.5903 81.8137C52.3094 81.8458 52.0259 81.8458 51.7451 81.8137L50.5618 81.9131C49.8897 81.9502 49.2233 82.0568 48.5732 82.2313C48.1854 82.3407 47.4794 82.5296 47.5788 83.0765C47.6783 83.6234 48.3047 83.9416 48.5732 84.1802C49.0973 84.5965 49.6524 84.9721 50.2337 85.3038C50.5022 85.4629 50.8402 85.5723 51.0789 85.7513C51.3175 85.9302 51.238 86.2385 51.1584 86.5567C50.9794 87.2328 50.8005 87.909 50.6314 88.5453C50.4624 89.1817 50.3729 89.6491 50.2834 90.2158C50.184 90.5972 50.184 90.9978 50.2834 91.3792C50.6911 92.2443 52.2721 90.7329 52.63 90.4445C52.988 90.1562 53.5647 89.6988 54.0221 89.311L54.6784 88.7343C54.7977 88.6249 55.1059 88.1973 55.265 88.1675C55.4241 88.1377 56.1997 88.953 56.4085 89.1618C56.8758 89.5695 57.4028 89.9573 57.8403 90.3351C58.4671 90.9637 59.2549 91.4075 60.1174 91.6178C60.883 91.6874 60.5151 90.5241 60.4157 90.0667C60.1671 88.9729 59.8191 87.909 59.4909 86.8351C59.4213 86.6064 59.3318 86.3777 59.2821 86.1391C59.2324 85.9004 59.2821 85.9004 59.4611 85.7612C59.8787 85.5126 60.3958 85.3535 60.8432 85.1248C61.5492 84.7669 62.981 84.1305 63.1799 83.2257C63.1673 83.1971 63.1465 83.1729 63.1202 83.1561Z" fill="#F7B9E7"/>
<path d="M37.0189 12.2104C35.8158 12.101 34.5828 12.1209 33.3598 12.1309C33.7078 11.7928 34.0558 11.4547 34.3541 11.1365C34.9395 10.6383 35.4428 10.0511 35.8456 9.39644C35.8695 9.33683 35.8759 9.27167 35.8641 9.20855C35.8523 9.14544 35.8227 9.087 35.7789 9.04006C35.7351 8.99312 35.6788 8.95963 35.6167 8.9435C35.5545 8.92738 35.4891 8.92928 35.428 8.94899C34.7697 9.34684 34.1761 9.84313 33.668 10.4206L32.6041 11.4149C32.6041 10.9178 32.6041 10.4206 32.6041 9.93338C32.6596 9.1631 32.5992 8.38886 32.4251 7.63647C32.4039 7.56734 32.361 7.50685 32.3028 7.46387C32.2447 7.4209 32.1743 7.39771 32.1019 7.39771C32.0296 7.39771 31.9592 7.4209 31.901 7.46387C31.8429 7.50685 31.8 7.56734 31.7788 7.63647C31.5918 8.39021 31.5247 9.1687 31.5799 9.94332C31.5799 10.4305 31.5799 10.9377 31.5799 11.4149L30.506 10.3411C30.0078 9.7557 29.4206 9.25238 28.766 8.84955C28.702 8.81545 28.6288 8.8028 28.5571 8.81346C28.4854 8.82413 28.4191 8.85755 28.3678 8.9088C28.3166 8.96005 28.2831 9.02641 28.2725 9.0981C28.2618 9.16978 28.2745 9.243 28.3086 9.30695C28.724 9.96992 29.2368 10.5666 29.8299 11.0769L30.8242 12.1309H29.3228C28.553 12.0671 27.778 12.1241 27.0259 12.2999C26.9567 12.3211 26.8963 12.364 26.8533 12.4221C26.8103 12.4803 26.7871 12.5507 26.7871 12.623C26.7871 12.6954 26.8103 12.7658 26.8533 12.8239C26.8963 12.8821 26.9567 12.925 27.0259 12.9462C27.7762 13.134 28.5505 13.2077 29.3228 13.165H30.7646C29.8796 14.0002 28.9748 14.8454 28.1793 15.7602C28.0934 15.8568 28.0477 15.9827 28.0515 16.112C28.0553 16.2412 28.1083 16.3642 28.1998 16.4556C28.2912 16.5471 28.4142 16.6001 28.5434 16.6039C28.6727 16.6077 28.7985 16.562 28.8952 16.4761C29.81 15.7005 30.6651 14.8354 31.5103 13.9704C31.5103 15.1835 31.4407 16.3965 31.5103 17.5997C31.5334 17.7145 31.5955 17.8178 31.6862 17.8921C31.7768 17.9663 31.8903 18.0069 32.0075 18.0069C32.1246 18.0069 32.2382 17.9663 32.3288 17.8921C32.4194 17.8178 32.4816 17.7145 32.5046 17.5997C32.614 16.4065 32.5941 15.1835 32.5842 13.9803C33.4194 14.8553 34.2547 15.7502 35.1595 16.5357C35.2562 16.6217 35.382 16.6674 35.5113 16.6636C35.6406 16.6598 35.7635 16.6067 35.855 16.5153C35.9464 16.4238 35.9995 16.3009 36.0033 16.1716C36.0071 16.0423 35.9613 15.9165 35.8754 15.8198C35.0999 14.905 34.2348 14.0499 33.3697 13.2047C34.5828 13.2047 35.7959 13.2743 36.999 13.2047C37.1144 13.184 37.2191 13.124 37.2952 13.0349C37.3713 12.9457 37.4142 12.8329 37.4166 12.7157C37.4189 12.5985 37.3806 12.4841 37.3081 12.392C37.2356 12.2998 37.1334 12.2357 37.0189 12.2104Z" fill="white"/>
<path d="M49.5578 9.79423C49.889 9.78952 50.2058 9.65782 50.4427 9.42632C50.6778 9.19175 50.8101 8.87345 50.8106 8.54137C50.8081 8.20896 50.6755 7.89074 50.4414 7.65475C50.2073 7.41877 49.8901 7.28375 49.5578 7.27856C49.2233 7.28175 48.9028 7.41348 48.6628 7.64647C48.5453 7.7638 48.4522 7.90333 48.389 8.05697C48.3259 8.2106 48.2939 8.37526 48.2949 8.54137C48.3026 8.87295 48.4384 9.18866 48.6739 9.42226C48.9093 9.65586 49.2261 9.78917 49.5578 9.79423Z" fill="white"/>
<path d="M56.0008 33.8073C56.2883 33.8073 56.5639 33.6931 56.7672 33.4899C56.9705 33.2866 57.0846 33.0109 57.0846 32.7235C57.0846 32.436 56.9705 32.1603 56.7672 31.9571C56.5639 31.7538 56.2883 31.6396 56.0008 31.6396C55.7134 31.6396 55.4377 31.7538 55.2344 31.9571C55.0312 32.1603 54.917 32.436 54.917 32.7235C54.917 33.0109 55.0312 33.2866 55.2344 33.4899C55.4377 33.6931 55.7134 33.8073 56.0008 33.8073Z" fill="white"/>
<path d="M41.1356 36.2932V36.6014C41.1318 36.5851 41.1318 36.568 41.1356 36.5517L41.0163 36.84L40.8373 37.0787L40.5887 37.2676H40.6683L40.3799 37.3869H40.0617H40.1214H39.8032C40.0591 37.4622 40.3327 37.4503 40.5811 37.3531C40.8295 37.2559 41.0385 37.0789 41.1754 36.85C41.2517 36.7154 41.3007 36.5671 41.3195 36.4135C41.3382 36.2599 41.3264 36.1041 41.2848 35.9551C41.2242 35.7513 41.1132 35.566 40.962 35.4165C40.8107 35.267 40.6242 35.1581 40.4197 35.1C40.0868 35.0037 39.7294 35.0431 39.4254 35.2093C39.1921 35.3515 39.0063 35.5597 38.8912 35.8074C38.7762 36.0552 38.7372 36.3315 38.779 36.6014C38.8649 36.8977 39.0605 37.1502 39.3259 37.3074C39.5517 37.4365 39.8145 37.4856 40.0717 37.4466C40.3475 37.404 40.5992 37.2645 40.7814 37.0531C40.9636 36.8417 41.0645 36.5723 41.066 36.2932H41.1356Z" fill="white"/>
<path d="M71.5921 13.3241L71.6816 13.3937C71.8231 13.5262 72.0003 13.6144 72.1913 13.6475C72.3824 13.6806 72.5789 13.6572 72.7568 13.58C72.9346 13.5029 73.0861 13.3755 73.1925 13.2134C73.2988 13.0513 73.3555 12.8617 73.3555 12.6678C73.3555 12.4739 73.2988 12.2843 73.1925 12.1222C73.0861 11.9601 72.9346 11.8327 72.7568 11.7555C72.5789 11.6784 72.3824 11.655 72.1913 11.6881C72.0003 11.7212 71.8231 11.8094 71.6816 11.9419L71.5921 12.0215C71.5046 12.1059 71.435 12.2071 71.3875 12.319C71.3399 12.4309 71.3154 12.5512 71.3154 12.6728C71.3154 12.7943 71.3399 12.9147 71.3875 13.0266C71.435 13.1385 71.5046 13.2397 71.5921 13.3241Z" fill="white"/>
<path d="M90.1266 38.2023C90.4427 38.1998 90.7456 38.0751 90.9718 37.8542C91.0829 37.7435 91.171 37.6117 91.2307 37.4666C91.2905 37.3215 91.3207 37.166 91.3198 37.0091C91.3219 36.852 91.2921 36.6961 91.2323 36.5509C91.1725 36.4056 91.0839 36.274 90.9718 36.1639C90.7468 35.9412 90.4432 35.8162 90.1266 35.8159C89.8105 35.8183 89.5076 35.943 89.2814 36.1639C89.0592 36.389 88.9346 36.6927 88.9346 37.0091C88.9346 37.3254 89.0592 37.6291 89.2814 37.8542C89.5087 38.0734 89.8109 38.1978 90.1266 38.2023Z" fill="white"/>
<path d="M91.7174 61.3702C91.9857 61.3444 92.2347 61.2196 92.4159 61.0202C92.5972 60.8207 92.6976 60.5609 92.6976 60.2914C92.6976 60.0219 92.5972 59.7621 92.4159 59.5626C92.2347 59.3631 91.9857 59.2383 91.7174 59.2125C91.4492 59.2383 91.2001 59.3631 91.0189 59.5626C90.8377 59.7621 90.7373 60.0219 90.7373 60.2914C90.7373 60.5609 90.8377 60.8207 91.0189 61.0202C91.2001 61.2196 91.4492 61.3444 91.7174 61.3702Z" fill="white"/>
<path d="M40.9866 79.9742C41.0682 79.9638 41.1483 79.9437 41.2252 79.9145C41.4622 79.8397 41.6704 79.6939 41.8218 79.4969C41.9837 79.3012 42.0716 79.0548 42.0704 78.8009C42.0621 78.599 42.0077 78.4017 41.9113 78.2241C41.7573 77.9682 41.5122 77.7799 41.2252 77.6971C41.1483 77.6679 41.0682 77.6479 40.9866 77.6375C40.7752 77.578 40.5516 77.578 40.3403 77.6375C40.1359 77.6879 39.9499 77.7947 39.8033 77.9457C39.5791 78.1745 39.451 78.4805 39.4454 78.8009C39.4431 79.068 39.5298 79.3284 39.6918 79.5408C39.8538 79.7533 40.082 79.9057 40.3403 79.9742C40.5516 80.0336 40.7752 80.0336 40.9866 79.9742Z" fill="white"/>
<path d="M29.6215 89.2811H29.7706C30.024 89.2066 30.2465 89.052 30.4047 88.8405C30.563 88.629 30.6485 88.3719 30.6485 88.1078C30.6485 87.8437 30.563 87.5866 30.4047 87.3751C30.2465 87.1636 30.024 87.009 29.7706 86.9345H29.6215C29.4334 86.8801 29.2352 86.8702 29.0426 86.9055C28.85 86.9409 28.6683 87.0205 28.5118 87.1382C28.3553 87.2558 28.2283 87.4083 28.1408 87.5835C28.0533 87.7586 28.0078 87.9518 28.0078 88.1476C28.0078 88.3434 28.0533 88.5365 28.1408 88.7117C28.2283 88.8869 28.3553 89.0393 28.5118 89.157C28.6683 89.2746 28.85 89.3543 29.0426 89.3896C29.2352 89.425 29.4334 89.4151 29.6215 89.3607V89.2811Z" fill="white"/>
<path d="M15.4816 77.7369C15.7985 77.7088 16.0934 77.5631 16.3081 77.3284C16.5229 77.0938 16.642 76.7872 16.642 76.4691C16.642 76.151 16.5229 75.8445 16.3081 75.6098C16.0934 75.3752 15.7985 75.2294 15.4816 75.2014C15.1648 75.2294 14.8699 75.3752 14.6552 75.6098C14.4404 75.8445 14.3213 76.151 14.3213 76.4691C14.3213 76.7872 14.4404 77.0938 14.6552 77.3284C14.8699 77.5631 15.1648 77.7088 15.4816 77.7369Z" fill="white"/>
<path d="M18.9623 27.2149C19.3057 27.2123 19.6357 27.081 19.887 26.847C20.0094 26.725 20.1065 26.5802 20.1727 26.4206C20.239 26.2611 20.2731 26.09 20.2731 25.9173C20.2731 25.7445 20.239 25.5735 20.1727 25.414C20.1065 25.2544 20.0094 25.1095 19.887 24.9876C19.6363 24.744 19.302 24.6053 18.9524 24.5998C18.7803 24.6001 18.6099 24.6346 18.4512 24.7011C18.2925 24.7677 18.1485 24.8651 18.0276 24.9876C17.9053 25.1095 17.8082 25.2544 17.7419 25.414C17.6757 25.5735 17.6416 25.7445 17.6416 25.9173C17.6416 26.09 17.6757 26.2611 17.7419 26.4206C17.8082 26.5802 17.9053 26.725 18.0276 26.847C18.2742 27.0908 18.6056 27.2298 18.9524 27.2348L18.9623 27.2149Z" fill="white"/>
<path d="M5.21008 43.0447C5.54759 43.042 5.87131 42.9104 6.11493 42.6768C6.29345 42.4974 6.41492 42.2693 6.46406 42.021C6.5132 41.7728 6.48781 41.5155 6.39108 41.2817C6.29435 41.0478 6.1306 40.8478 5.92046 40.7068C5.71031 40.5658 5.46315 40.4901 5.21008 40.4893C4.8714 40.4956 4.54786 40.6307 4.30524 40.8671C4.08498 41.1122 3.96748 41.4326 3.97711 41.762C3.98224 42.098 4.11798 42.4187 4.35556 42.6563C4.59315 42.8939 4.9139 43.0296 5.24986 43.0347L5.21008 43.0447Z" fill="white"/>
<path d="M75.9368 82.2413V82.4103C75.9643 82.7144 76.1045 82.9972 76.3299 83.2031C76.5553 83.409 76.8496 83.5232 77.1549 83.5232C77.4602 83.5232 77.7544 83.409 77.9798 83.2031C78.2052 82.9972 78.3454 82.7144 78.3729 82.4103V82.2413C78.4923 80.6603 75.7976 80.6603 75.9169 82.2413H75.9368Z" fill="white"/>
<path d="M9.01813 59.7793C9.20199 59.7825 9.38464 59.7489 9.55538 59.6806C9.72612 59.6123 9.88152 59.5107 10.0125 59.3815C10.136 59.2573 10.2339 59.1099 10.3004 58.9479C10.367 58.7858 10.4009 58.6121 10.4003 58.4369C10.4053 58.2537 10.3736 58.0713 10.307 57.9005C10.2404 57.7297 10.1402 57.574 10.0125 57.4426C9.74394 57.1891 9.38735 57.0501 9.01813 57.0548C8.66212 57.0548 8.32069 57.1962 8.06895 57.448C7.81721 57.6997 7.67578 58.0411 7.67578 58.3972C7.68092 58.7516 7.82399 59.09 8.07463 59.3407C8.32526 59.5913 8.66372 59.7344 9.01813 59.7395V59.7793Z" fill="#FFF896"/>
<path d="M59.9083 12.976C60.2142 12.976 60.5076 12.8545 60.7239 12.6382C60.9402 12.4219 61.0617 12.1285 61.0617 11.8226C61.0566 11.5183 60.9335 11.2279 60.7182 11.0127C60.503 10.7975 60.2126 10.6743 59.9083 10.6692C59.6024 10.6692 59.309 10.7907 59.0927 11.007C58.8764 11.2233 58.7549 11.5167 58.7549 11.8226C58.76 12.1269 58.8832 12.4173 59.0984 12.6326C59.3136 12.8478 59.604 12.9709 59.9083 12.976Z" fill="#FFF896"/>
<path d="M76.1066 30.5857C76.3704 30.5857 76.6233 30.4809 76.8097 30.2945C76.9962 30.108 77.101 29.8551 77.101 29.5914C77.101 29.3277 76.9962 29.0748 76.8097 28.8883C76.6233 28.7018 76.3704 28.597 76.1066 28.597C75.8429 28.597 75.59 28.7018 75.4035 28.8883C75.2171 29.0748 75.1123 29.3277 75.1123 29.5914C75.1123 29.8551 75.2171 30.108 75.4035 30.2945C75.59 30.4809 75.8429 30.5857 76.1066 30.5857Z" fill="#FFF896"/>
<path d="M82.5295 71.9499C82.6614 71.6506 82.6689 71.3111 82.5505 71.0062C82.4321 70.7014 82.1974 70.456 81.8981 70.3241C81.5988 70.1923 81.2594 70.1847 80.9545 70.3031C80.6496 70.4215 80.4042 70.6562 80.2724 70.9555C80.1868 71.1048 80.1322 71.2698 80.1117 71.4406C80.0912 71.6114 80.1053 71.7846 80.1531 71.9499C80.2484 72.2548 80.4494 72.5157 80.7198 72.6857C80.8833 72.7788 81.0657 72.8336 81.2534 72.846C81.441 72.8584 81.6291 72.828 81.8033 72.7572C81.9776 72.6863 82.1335 72.5768 82.2592 72.437C82.385 72.2972 82.4774 72.1306 82.5295 71.9499Z" fill="#FFF896"/>
<path d="M40.6585 93.159C41.0297 93.1543 41.3852 93.0086 41.6528 92.7513C41.9118 92.4848 42.0578 92.1286 42.0605 91.757C42.0605 91.5742 42.0245 91.3932 41.9545 91.2243C41.8846 91.0554 41.782 90.9019 41.6528 90.7727C41.5235 90.6434 41.37 90.5409 41.2012 90.4709C41.0323 90.4009 40.8512 90.3649 40.6684 90.3649C40.4856 90.3649 40.3046 90.4009 40.1357 90.4709C39.9668 90.5409 39.8134 90.6434 39.6841 90.7727C39.5548 90.9019 39.4523 91.0554 39.3823 91.2243C39.3124 91.3932 39.2764 91.5742 39.2764 91.757C39.279 92.1286 39.4251 92.4848 39.684 92.7513C39.9517 93.0086 40.3072 93.1543 40.6784 93.159H40.6585Z" fill="#FFF896"/>
</g>
<defs>
<clipPath id="clip0_1972_5024">
<rect width="100" height="100" fill="white"/>
</clipPath>
</defs>
</svg>
