<svg width="100" height="100" viewBox="0 0 100 100" fill="none" xmlns="http://www.w3.org/2000/svg">
<g clip-path="url(#clip0_1972_5369)">
<path d="M50 100C77.6142 100 100 77.6142 100 50C100 22.3858 77.6142 0 50 0C22.3858 0 0 22.3858 0 50C0 77.6142 22.3858 100 50 100Z" fill="#35208A"/>
<path d="M71.022 26.7204C70.7658 25.3181 70.1757 23.9981 69.3017 22.8719C68.4126 21.7056 67.1453 20.8851 65.7173 20.5512C64.2892 20.2173 62.7895 20.3909 61.4755 21.0422C59.1914 22.374 57.3775 24.3825 56.2846 26.79C53.9874 31.3843 53.709 36.6349 53.5996 41.7065C53.6045 41.813 53.649 41.9139 53.7244 41.9894C53.7998 42.0648 53.9008 42.1093 54.0073 42.1142L62.0523 42.681C62.1604 42.681 62.2641 42.638 62.3406 42.5616C62.417 42.4851 62.46 42.3814 62.46 42.2733C62.46 42.2733 62.46 42.1937 62.46 42.1639C61.8832 38.1862 61.7341 33.9399 63.2257 30.0915C64.3295 27.2673 67.7404 24.3934 70.4154 27.2375C70.6044 27.4364 71.0817 27.0983 71.022 26.7204Z" fill="white"/>
<path d="M54.3952 36.0283C54.9627 35.8606 55.5123 35.6374 56.0361 35.362C56.6767 35.1354 57.3464 35.0015 58.0249 34.9642C59.2811 34.9762 60.5196 35.2612 61.6546 35.7995C61.8833 35.8791 61.9828 35.5609 61.8137 35.4416C60.5807 34.6896 59.1306 34.3744 57.6968 34.5466C56.6228 34.6659 55.0018 35.0139 54.3555 35.9587C54.3555 36.0183 54.3555 36.068 54.435 36.0581L54.3952 36.0283Z" fill="#35208A"/>
<path d="M55.0918 30.6186C55.6038 30.5376 56.1023 30.387 56.5735 30.1711C57.2603 29.9833 57.9849 29.9833 58.6717 30.1711C59.413 30.3705 60.0953 30.7457 60.6606 31.2649C61.0183 31.6841 61.4257 32.0581 61.8738 32.3787C62.013 32.4583 62.202 32.2991 62.1025 32.15C61.2802 30.8812 59.9962 29.9824 58.5226 29.644C57.5282 29.4551 55.5393 29.4849 55.0918 30.5589V30.6186Z" fill="#35208A"/>
<path d="M57.2995 25.3182C57.5879 25.6265 57.936 25.5668 58.3437 25.6663C58.9217 25.8277 59.4693 26.083 59.9646 26.422C61.138 27.2176 61.6452 28.4109 62.58 29.4053C62.593 29.4201 62.6091 29.432 62.6271 29.4401C62.6451 29.4483 62.6646 29.4525 62.6844 29.4525C62.7041 29.4525 62.7237 29.4483 62.7417 29.4401C62.7597 29.432 62.7757 29.4201 62.7888 29.4053C62.8012 29.3861 62.8078 29.3636 62.8078 29.3407C62.8078 29.3178 62.8012 29.2953 62.7888 29.2761C62.3106 27.9294 61.3836 26.7882 60.1635 26.0442C59.547 25.6364 57.936 24.6917 57.2598 25.3083L57.2995 25.3182Z" fill="#35208A"/>
<path d="M60.6599 21.609C61.1726 21.7623 61.6491 22.0174 62.0609 22.3591C62.4727 22.7009 62.8113 23.1222 63.0565 23.5979C63.4654 24.6454 63.7524 25.7365 63.9117 26.8497C63.9252 26.8864 63.9525 26.9163 63.9879 26.9331C64.0232 26.9498 64.0637 26.952 64.1006 26.9392C64.1394 26.9199 64.1709 26.8885 64.1901 26.8497C64.747 24.9105 62.9372 21.2709 60.6699 21.3107C60.6277 21.3107 60.5872 21.3275 60.5573 21.3573C60.5275 21.3871 60.5107 21.4276 60.5107 21.4698C60.5107 21.512 60.5275 21.5525 60.5573 21.5823C60.5872 21.6121 60.6277 21.6289 60.6699 21.6289L60.6599 21.609Z" fill="#35208A"/>
<path d="M65.1353 20.5748C66.438 22.0366 66.2093 23.8464 66.0402 25.6563C66.0402 25.717 66.0643 25.7751 66.1072 25.818C66.1501 25.8609 66.2083 25.885 66.2689 25.885C66.3296 25.885 66.3878 25.8609 66.4307 25.818C66.4736 25.7751 66.4977 25.717 66.4977 25.6563C66.6966 24.1647 67.0844 21.0919 65.2745 20.3261C65.1253 20.2665 65.0458 20.4753 65.1353 20.5748Z" fill="#35208A"/>
<path d="M68.7349 22.9515C68.6155 23.399 68.6653 23.8763 68.536 24.3337C68.3948 24.7575 68.1719 25.1494 67.8797 25.4873C67.7504 25.6563 67.999 25.8851 68.168 25.7757C68.5766 25.4409 68.8695 24.9861 69.0051 24.4756C69.1408 23.9652 69.1123 23.425 68.9238 22.9316C68.9036 22.9127 68.8769 22.9022 68.8492 22.9022C68.8216 22.9022 68.7949 22.9127 68.7747 22.9316L68.7349 22.9515Z" fill="#35208A"/>
<path d="M43.6456 26.6906C42.5527 24.283 40.7387 22.2745 38.4547 20.9428C37.1407 20.2915 35.6409 20.1179 34.2129 20.4518C32.7849 20.7856 31.5176 21.6062 30.6285 22.7725C29.7129 23.9305 29.098 25.297 28.8385 26.7502C28.7789 27.1182 29.2164 27.4762 29.5247 27.148C32.1997 24.3039 35.6106 27.148 36.7045 30.002C38.1961 33.8505 38.0569 38.0669 37.4702 42.0744C37.4702 42.3131 37.5696 42.6114 37.868 42.5915L45.903 42.0247C46.0095 42.0198 46.1104 41.9753 46.1859 41.8999C46.2613 41.8245 46.3058 41.7235 46.3107 41.617C46.2112 36.5354 45.9328 31.2848 43.6456 26.6906Z" fill="white"/>
<path d="M45.5547 35.9288C44.9083 34.9344 43.2874 34.6261 42.2134 34.5167C40.7793 34.3398 39.3277 34.6554 38.0965 35.4117C37.9175 35.531 38.0269 35.8493 38.2456 35.7697C39.3828 35.2514 40.6158 34.9771 41.8654 34.9642C42.4782 34.9993 43.0836 35.1164 43.6653 35.3123C44.2471 35.602 44.8526 35.8415 45.4752 36.0283C45.5249 36.0283 45.5845 36.0283 45.5547 35.9288Z" fill="#35208A"/>
<path d="M44.799 30.5788C44.3415 29.5048 42.3228 29.475 41.3582 29.6639C39.8887 30.0056 38.6089 30.9039 37.7882 32.1699C37.7696 32.2099 37.7664 32.2553 37.7792 32.2976C37.7921 32.3398 37.8201 32.3758 37.8578 32.3986C37.8816 32.4136 37.9092 32.4216 37.9374 32.4216C37.9655 32.4216 37.9931 32.4136 38.0169 32.3986C38.4651 32.078 38.8725 31.704 39.2301 31.2848C39.7955 30.7656 40.4777 30.3904 41.219 30.191C41.9103 30.012 42.6359 30.012 43.3272 30.191C43.8542 30.3103 44.252 30.6683 44.799 30.6385V30.5788Z" fill="#35208A"/>
<path d="M42.5621 25.2784C41.8958 24.6619 40.2848 25.6066 39.6683 26.0143C38.4415 26.7507 37.5124 27.8946 37.043 29.2462C37.043 29.3755 37.1822 29.4948 37.2816 29.3854C38.2263 28.391 38.7236 27.2275 39.9069 26.4021C40.4044 26.067 40.9514 25.812 41.5279 25.6464C41.9356 25.537 42.2836 25.6464 42.5223 25.2983L42.5621 25.2784Z" fill="#35208A"/>
<path d="M39.1904 21.2908C36.9231 21.2908 35.1232 24.8906 35.6701 26.8297C35.6836 26.8664 35.7109 26.8964 35.7463 26.9131C35.7816 26.9299 35.8221 26.9321 35.859 26.9192C35.8978 26.8999 35.9292 26.8685 35.9485 26.8297C36.1167 25.7109 36.4171 24.616 36.8435 23.568C37.0887 23.0923 37.4273 22.671 37.8391 22.3293C38.2509 21.9875 38.7274 21.7324 39.2401 21.5791C39.2833 21.5718 39.3219 21.548 39.3478 21.5128C39.3738 21.4775 39.3851 21.4336 39.3793 21.3902C39.3679 21.35 39.3427 21.315 39.3082 21.2914C39.2737 21.2678 39.232 21.257 39.1904 21.2609V21.2908Z" fill="#35208A"/>
<path d="M34.5861 20.3261C32.7862 21.0919 33.1741 24.1647 33.363 25.6563C33.363 25.9447 33.8602 25.9546 33.8304 25.6563C33.6514 23.8464 33.4326 22.0366 34.7353 20.5748C34.8049 20.4753 34.7353 20.2665 34.5861 20.3261Z" fill="#35208A"/>
<path d="M30.9464 22.9316C30.7568 23.424 30.7268 23.9635 30.8606 24.4739C30.9945 24.9843 31.2854 25.4397 31.6922 25.7757C31.8613 25.8851 32.1099 25.6563 31.9806 25.4873C31.6939 25.1456 31.4715 24.7548 31.3243 24.3337C31.195 23.8763 31.2547 23.399 31.1353 22.9515C31.1151 22.9326 31.0884 22.9221 31.0608 22.9221C31.0331 22.9221 31.0064 22.9326 30.9862 22.9515L30.9464 22.9316Z" fill="#35208A"/>
<path d="M80.638 33.1444V33.035C80.4269 32.5402 80.0704 32.1212 79.6158 31.8335C79.1611 31.5458 78.6299 31.403 78.0923 31.424C76.6831 31.6387 75.3945 32.3429 74.4527 33.4129C71.9375 35.842 69.0204 37.817 65.8309 39.2502C64.5115 39.7206 63.3435 40.5383 62.4499 41.6169C61.8731 42.3727 60.7892 44.1229 61.1671 45.1074C61.5252 45.7412 61.9593 46.3289 62.4598 46.8576L63.7625 48.5978C63.8184 48.6895 63.9074 48.7561 64.0111 48.7839C64.1148 48.8117 64.2252 48.7985 64.3194 48.747C66.4276 47.8222 68.4364 46.2609 70.7037 45.7637C72.6925 45.3162 74.6814 45.1969 76.6702 44.1925C78.3827 43.3375 79.7003 41.8562 80.3496 40.0557C80.9761 38.0569 81.543 35.1034 80.638 33.1444Z" fill="#996666"/>
<path d="M78.3313 36.0978C78.1553 35.7929 77.9014 35.5401 77.5956 35.3654C77.2899 35.1907 76.9432 35.1003 76.5911 35.1034C75.9859 35.2131 75.4376 35.5294 75.0398 35.9984C73.9857 37.0724 73.1802 38.4944 71.9272 39.3297C70.2665 40.4336 68.218 40.5529 66.5274 41.4976C66.1297 41.7164 62.2017 44.3317 62.8779 45.0079L64.638 46.8178C66.1993 46.8178 67.7605 45.5052 69.0533 44.829C70.6543 43.924 72.0366 43.9936 73.7768 43.6854C75.0821 43.4291 76.2677 42.753 77.1529 41.7602C78.038 40.7673 78.5741 39.5121 78.6794 38.1862C78.7851 37.4708 78.6633 36.7403 78.3313 36.0978Z" fill="#FFC9A8"/>
<path d="M37.5894 41.5871C36.6929 40.5159 35.5302 39.6996 34.2182 39.2203C31.0288 37.7872 28.1117 35.8122 25.5965 33.383C24.652 32.3164 23.3647 31.6129 21.9569 31.3942C21.4193 31.3732 20.888 31.516 20.4334 31.8036C19.9788 32.0913 19.6223 32.5103 19.4112 33.0052C19.3887 33.0386 19.3719 33.0756 19.3614 33.1145C18.4366 35.1034 19.0333 38.027 19.7493 39.9761C20.3945 41.7759 21.7088 43.2576 23.4187 44.113C25.3081 45.1074 27.3069 45.2267 29.3356 45.6842C31.6128 46.2013 33.6116 47.7625 35.7298 48.6674C35.824 48.7189 35.9344 48.7321 36.0381 48.7044C36.1418 48.6766 36.2308 48.6099 36.2867 48.5183L37.5794 46.7383C38.08 46.2073 38.5172 45.62 38.8821 44.9881C39.26 44.0931 38.1661 42.3329 37.5894 41.5871Z" fill="#996666"/>
<path d="M21.6686 36.0978C21.8455 35.7914 22.101 35.5377 22.4086 35.3628C22.7163 35.188 23.065 35.0985 23.4188 35.1034C24.0201 35.216 24.5643 35.532 24.9602 35.9984C26.0242 37.0724 26.8297 38.4944 28.0827 39.3297C29.7335 40.4336 31.782 40.5529 33.4825 41.4976C33.8802 41.7164 37.8082 44.3317 37.1221 45.0079L35.3321 46.8178C33.7609 46.8178 32.2096 45.5052 30.9069 44.8289C29.3059 43.924 27.9236 43.9936 26.1833 43.6853C24.8795 43.4261 23.6957 42.7491 22.8111 41.7568C21.9265 40.7645 21.3893 39.511 21.2808 38.1861C21.1933 37.4668 21.3287 36.7378 21.6686 36.0978Z" fill="#FFC9A8"/>
<path d="M63.693 41.7661C62.7187 40.2196 61.3442 38.9654 59.7153 38.1364C57.796 37.321 55.7375 37.9375 53.7487 38.1364C51.2762 38.5043 48.7629 38.5043 46.2904 38.1364C44.3811 37.8282 42.3127 37.321 40.4531 38.1364C36.9328 39.648 34.755 43.8743 33.86 47.4045C32.944 51.5162 33.5074 55.8192 35.4511 59.5565C37.2867 63.2149 39.332 66.7643 41.5768 70.1869C43.337 73.041 43.5657 77.8341 47.1854 79.1368C48.3656 79.6307 49.6543 79.8079 50.924 79.651C52.1937 79.494 53.4005 79.0083 54.4249 78.2418C55.9265 76.959 56.4833 75.0696 57.1198 73.2697C57.8468 71.4085 58.8021 69.6448 59.9639 68.0191C61.2765 66.0302 62.3903 63.8823 63.5239 61.784C64.6904 59.7418 65.6021 57.5644 66.2387 55.3003C66.7949 52.9926 66.8556 50.5932 66.4168 48.2603C65.9779 45.9274 65.0496 43.714 63.693 41.7661Z" fill="#996666"/>
<path d="M56.0665 75.895C56.0277 75.5926 55.9543 75.2956 55.8477 75.0099C54.6146 71.8377 49.6424 71.7979 47.1166 72.7725C45.7076 73.3876 44.5772 74.5039 43.9443 75.9049C44.5221 77.3341 45.6151 78.4946 47.0072 79.1567C48.1979 79.6656 49.5011 79.8535 50.7871 79.7017C52.073 79.5499 53.2967 79.0637 54.3361 78.2916C55.0795 77.6273 55.6698 76.8096 56.0665 75.895Z" fill="#FFC9A8"/>
<path d="M38.6738 57.2991C38.3197 57.2991 37.9737 57.1942 37.6793 56.9975C37.3849 56.8008 37.1555 56.5212 37.02 56.1941C36.8846 55.8671 36.8491 55.5072 36.9182 55.1599C36.9873 54.8127 37.1577 54.4938 37.4081 54.2434C37.6584 53.9931 37.9773 53.8226 38.3246 53.7536C38.6718 53.6845 39.0317 53.72 39.3588 53.8554C39.6858 53.9909 39.9654 54.2203 40.1621 54.5147C40.3588 54.8091 40.4637 55.1551 40.4637 55.5092C40.4586 55.9823 40.2683 56.4346 39.9338 56.7691C39.5992 57.1037 39.1469 57.294 38.6738 57.2991Z" fill="#35208A"/>
<path d="M61.3369 57.2991C60.9828 57.2991 60.6368 57.1942 60.3424 56.9975C60.048 56.8008 59.8186 56.5212 59.6831 56.1941C59.5477 55.8671 59.5122 55.5072 59.5813 55.1599C59.6503 54.8127 59.8208 54.4938 60.0711 54.2434C60.3215 53.9931 60.6404 53.8226 60.9876 53.7536C61.3349 53.6845 61.6948 53.72 62.0218 53.8554C62.3489 53.9909 62.6285 54.2203 62.8252 54.5147C63.0219 54.8091 63.1268 55.1551 63.1268 55.5092C63.1191 55.9815 62.9281 56.4323 62.5941 56.7664C62.26 57.1004 61.8092 57.2914 61.3369 57.2991Z" fill="#35208A"/>
<path d="M47.3253 74.4431C48.4192 73.8763 47.8921 72.0565 47.8125 71.072C47.6932 69.5307 47.5739 67.9793 47.4446 66.438C47.2159 63.4547 47.1562 60.362 46.6988 57.3886C46.2911 54.7236 44.1729 52.496 42.8106 50.2486C42.0864 49.0785 41.4386 47.8628 40.8714 46.609C40.2748 45.2367 39.9665 43.7749 39.4295 42.3926C39.3623 42.1963 39.229 42.0295 39.0523 41.9206C38.8757 41.8118 38.6667 41.7676 38.4612 41.7958C38.2556 41.824 38.0662 41.9228 37.9254 42.0752C37.7846 42.2276 37.7011 42.4241 37.6892 42.6313C37.4506 45.3759 39.1809 48.3493 40.5433 50.6563C41.2692 51.8795 42.0548 53.0629 42.8404 54.2363C43.7975 55.3804 44.4477 56.7493 44.7298 58.214C45.0977 61.3465 45.2966 64.5187 45.5751 67.6711C45.7242 69.2124 45.8535 70.7637 45.9927 72.3151C46.0524 72.8719 46.2115 75 47.3253 74.4133V74.4431Z" fill="#FFC9A8"/>
<path d="M53.0328 74.4929C54.1764 74.1249 54.0273 72.504 54.0869 71.5096L54.5046 66.8656L54.9223 62.2315C54.9899 60.673 55.1426 59.1194 55.3797 57.5776C55.8019 56.2446 56.4772 55.0054 57.3686 53.928C58.1641 52.7546 58.9497 51.5613 59.6657 50.3282C60.9485 48.1007 62.5396 45.2765 62.3208 42.6412C62.3089 42.4341 62.2255 42.2375 62.0847 42.0851C61.9439 41.9327 61.7545 41.834 61.5489 41.8058C61.3434 41.7776 61.1344 41.8217 60.9577 41.9306C60.7811 42.0394 60.6478 42.2063 60.5806 42.4026C60.0336 43.7848 59.7353 45.2466 59.1287 46.619C58.5143 47.9935 57.8032 49.3228 57.0006 50.5967C55.5587 52.9237 53.5798 55.0716 53.2417 57.8759C52.8737 60.9984 52.7345 64.1607 52.4959 67.2932C52.3666 68.8445 52.2472 70.3958 52.1279 71.9372C52.1279 72.4244 51.7898 74.9205 53.0328 74.5128V74.4929Z" fill="#FFC9A8"/>
<path d="M46.2314 74.463C46.6093 74.8409 47.2855 74.7514 47.7728 74.9702C48.26 75.1889 48.6479 75.706 49.1849 75.9646C49.7218 76.2231 49.9008 75.6663 49.8312 75.3182C49.692 74.642 48.8368 74.1647 48.2401 73.926C47.6435 73.6873 46.6888 73.389 46.2513 73.926C46.1751 74.0086 46.1328 74.1169 46.1328 74.2293C46.1328 74.3417 46.1751 74.45 46.2513 74.5326L46.2314 74.463Z" fill="#35208A"/>
<path d="M53.7787 73.8564C53.3114 73.3393 52.3169 73.6476 51.7899 73.8564C51.2628 74.0652 50.338 74.5724 50.1988 75.2486C50.1192 75.5966 50.4374 76.064 50.8452 75.895C51.2529 75.7259 51.7103 75.179 52.2473 74.9005C52.7843 74.6221 53.4108 74.7713 53.7986 74.3934C53.8708 74.3088 53.9104 74.2013 53.9104 74.0901C53.9104 73.9789 53.8708 73.8714 53.7986 73.7868L53.7787 73.8564Z" fill="#35208A"/>
<path d="M45.396 75.6563C46.1617 79.8528 53.3515 79.1965 54.6641 75.6563C54.7735 75.358 54.3061 75.2287 54.1967 75.527C53.6001 77.1877 51.7405 77.8639 50.1096 77.9833C49.2166 78.1397 48.297 77.9863 47.5031 77.5487C46.7092 77.111 46.0886 76.4153 45.7441 75.5768C45.7208 75.534 45.6826 75.5013 45.6368 75.4848C45.5909 75.4683 45.5407 75.4692 45.4954 75.4873C45.4608 75.5047 45.4319 75.5318 45.4125 75.5654C45.3931 75.5989 45.3839 75.6375 45.3861 75.6762L45.396 75.6563Z" fill="#35208A"/>
<path d="M62.7677 64.638C62.2101 64.6302 61.6672 64.4574 61.2077 64.1414C60.7481 63.8255 60.3923 63.3805 60.1853 62.8627C59.9782 62.3448 59.9291 61.7773 60.0441 61.2315C60.1592 60.6858 60.4332 60.1864 60.8317 59.7962C61.2302 59.406 61.7353 59.1425 62.2833 59.039C62.8313 58.9355 63.3977 58.9965 63.9111 59.2145C64.4245 59.4324 64.8618 59.7974 65.168 60.2635C65.4742 60.7297 65.6356 61.276 65.6317 61.8337C65.6186 62.5837 65.3108 63.2984 64.7749 63.8232C64.2389 64.3481 63.5179 64.6407 62.7677 64.638Z" fill="#E0435B"/>
<path d="M37.9572 64.638C37.3986 64.64 36.852 64.4763 36.3865 64.1676C35.9209 63.8589 35.5574 63.4191 35.3418 62.9038C35.1263 62.3885 35.0683 61.8209 35.1754 61.2727C35.2824 60.7244 35.5496 60.2203 35.9432 59.8239C36.3368 59.4276 36.8391 59.1568 37.3865 59.0459C37.934 58.935 38.502 58.9889 39.0188 59.2009C39.5356 59.4128 39.9779 59.7732 40.2899 60.2366C40.6019 60.6999 40.7694 61.2453 40.7714 61.8039C40.7663 62.5506 40.4687 63.2655 39.9426 63.7953C39.4165 64.3251 38.7037 64.6276 37.9572 64.638Z" fill="#E0435B"/>
<path d="M47.4443 41.3385C47.0764 41.8556 47.4443 42.7605 47.6034 43.3274C47.861 44.0427 48.2601 44.6989 48.7769 45.2566C48.9757 45.4853 49.3039 45.1571 49.105 44.9284C48.5723 44.3311 48.1754 43.6254 47.9415 42.86C47.7924 42.3827 47.8421 41.7562 47.5239 41.3584H47.4543L47.4443 41.3385Z" fill="#35208A"/>
<path d="M50.0995 42.0844C49.7415 42.9694 50.6266 44.3417 51.1536 45.0676C51.8974 46.0458 52.9479 46.7462 54.1369 47.0565C54.1884 47.071 54.2434 47.0645 54.2901 47.0384C54.3367 47.0123 54.371 46.9687 54.3855 46.9173C54.4 46.8659 54.3935 46.8108 54.3674 46.7641C54.3413 46.7175 54.2977 46.6832 54.2463 46.6687C53.1149 46.3057 52.1177 45.6131 51.3823 44.6798C51.0254 44.2126 50.7435 43.6926 50.547 43.1384C50.4774 42.7867 50.3461 42.4501 50.1592 42.144H50.0598L50.0995 42.0844Z" fill="#35208A"/>
<path d="M52.1277 40.2944C52.039 40.763 52.0801 41.247 52.2466 41.694C52.4131 42.1409 52.6987 42.5338 53.0724 42.8302C53.2713 42.9793 53.5398 42.7407 53.3608 42.5418C53.0876 42.2471 52.8758 41.901 52.7375 41.5238C52.5992 41.1465 52.5373 40.7455 52.5553 40.3441C52.5433 40.2874 52.5094 40.2378 52.461 40.2061C52.4125 40.1744 52.3534 40.1633 52.2967 40.175C52.2557 40.1849 52.2182 40.2059 52.1884 40.2357C52.1585 40.2656 52.1375 40.3031 52.1277 40.3441V40.2944Z" fill="#35208A"/>
<path d="M58.1349 63.2856C58.445 64.3509 58.3711 65.4912 57.926 66.5075C57.8465 66.7263 58.1846 66.8556 58.3039 66.6666C58.6113 66.1363 58.7878 65.5403 58.8189 64.9281C58.85 64.316 58.7349 63.7052 58.4829 63.1464C58.3934 62.9475 58.0752 63.0867 58.1349 63.2856Z" fill="#35208A"/>
<path d="M59.8851 65.2744C59.8755 65.5119 59.8455 65.7481 59.7956 65.9805C59.7042 66.1736 59.6374 66.3774 59.5967 66.5871C59.5965 66.6124 59.6017 66.6374 59.6119 66.6605C59.6221 66.6836 59.6371 66.7043 59.6559 66.7213C59.6747 66.7382 59.6969 66.7509 59.7209 66.7586C59.745 66.7664 59.7704 66.7689 59.7956 66.7661H59.8751C60.1138 66.6468 60.1933 66.3186 60.253 66.0799C60.3225 65.8058 60.3225 65.5187 60.253 65.2446C60.253 65.1971 60.2342 65.1516 60.2006 65.118C60.167 65.0845 60.1215 65.0656 60.074 65.0656C60.0265 65.0656 59.981 65.0845 59.9474 65.118C59.9139 65.1516 59.895 65.1971 59.895 65.2446L59.8851 65.2744Z" fill="#35208A"/>
<path d="M42.4022 65.2546C42.2006 65.7417 42.2006 66.2889 42.4022 66.7761C42.5311 67.3534 42.801 67.8898 43.1878 68.3373C43.2199 68.3713 43.2635 68.3923 43.3101 68.396C43.3567 68.3998 43.4031 68.3861 43.4402 68.3576C43.4773 68.3292 43.5026 68.2879 43.5111 68.2419C43.5196 68.1959 43.5107 68.1484 43.4861 68.1086C43.1717 67.6536 42.927 67.1542 42.7602 66.6269C42.7211 66.1797 42.6412 65.737 42.5215 65.3043H42.442L42.4022 65.2546Z" fill="#35208A"/>
<path d="M43.7553 66.9252C43.8615 67.3444 44.0471 67.7394 44.3022 68.0887C44.5011 68.387 44.7298 68.7649 45.0878 68.8743C45.1872 68.8743 45.3066 68.7947 45.2668 68.6953C45.09 68.3794 44.8764 68.0857 44.6304 67.8202C44.4191 67.5001 44.2265 67.1681 44.0536 66.8258C43.9641 66.6567 43.7155 66.8258 43.7553 66.955V66.9252Z" fill="#35208A"/>
<path d="M20.4054 36.1476C20.475 35.7398 20.4552 35.3222 20.5645 34.9145C20.7061 34.4381 20.9582 34.002 21.3004 33.6416C21.3413 33.5994 21.3637 33.5427 21.3628 33.4839C21.3619 33.4252 21.3376 33.3692 21.2955 33.3283C21.2533 33.2875 21.1965 33.265 21.1378 33.266C21.0791 33.2669 21.0231 33.2911 20.9822 33.3333C20.5896 33.6804 20.3049 34.1329 20.1621 34.6371C20.0193 35.1414 20.0244 35.676 20.1767 36.1774C20.1813 36.1924 20.1887 36.2064 20.1987 36.2186C20.2087 36.2307 20.2209 36.2407 20.2348 36.2481C20.2486 36.2555 20.2638 36.2601 20.2795 36.2616C20.2951 36.2631 20.3109 36.2615 20.3259 36.2569C20.3451 36.2521 20.3627 36.2422 20.3767 36.2282C20.3907 36.2142 20.4006 36.1966 20.4054 36.1774V36.1476Z" fill="#35208A"/>
<path d="M21.6483 34.8548L21.7577 34.7355C21.7861 34.6896 21.8063 34.6391 21.8174 34.5863C21.8684 34.4775 21.9355 34.3769 22.0163 34.288C22.1853 34.1189 22.4141 34.0692 22.5931 33.92C22.6253 33.8867 22.6433 33.8421 22.6433 33.7957C22.6433 33.7494 22.6253 33.7048 22.5931 33.6714C22.5671 33.6637 22.5395 33.6637 22.5135 33.6714C22.3506 33.6524 22.1856 33.6785 22.0365 33.7469C21.8875 33.8153 21.7601 33.9234 21.6682 34.0593C21.5672 34.1834 21.4897 34.3249 21.4395 34.4769C21.4199 34.5452 21.4199 34.6175 21.4395 34.6858C21.4395 34.7653 21.4892 34.815 21.5091 34.8846C21.5173 34.9015 21.53 34.9156 21.5458 34.9256C21.5616 34.9355 21.5799 34.9407 21.5986 34.9407C21.6173 34.9407 21.6356 34.9355 21.6514 34.9256C21.6673 34.9156 21.68 34.9015 21.6881 34.8846L21.6483 34.8548Z" fill="#35208A"/>
<path d="M76.949 33.3632C77.2075 33.4924 77.4959 33.5024 77.7545 33.6615C78.0401 33.8376 78.2494 34.1143 78.3412 34.4371C78.3518 34.4629 78.3677 34.4862 78.3878 34.5055C78.408 34.5247 78.432 34.5395 78.4582 34.5489C78.4845 34.5582 78.5124 34.562 78.5402 34.5599C78.568 34.5578 78.5951 34.5498 78.6196 34.5366C78.6596 34.5196 78.6929 34.49 78.7144 34.4523C78.736 34.4145 78.7446 34.3708 78.7389 34.3278C78.6905 34.1193 78.5991 33.9232 78.4707 33.752C78.3423 33.5808 78.1797 33.4382 77.9931 33.3333C77.8398 33.227 77.6596 33.1659 77.4732 33.1571C77.2868 33.1483 77.1017 33.1922 76.939 33.2836C76.9292 33.2945 76.9238 33.3087 76.9238 33.3234C76.9238 33.3381 76.9292 33.3522 76.939 33.3632H76.949Z" fill="#35208A"/>
<path d="M79.167 33.1444C79.167 33.4626 79.5747 33.7013 79.704 33.9996C79.8773 34.4339 79.8983 34.9142 79.7636 35.362C79.7579 35.4106 79.7713 35.4596 79.801 35.4985C79.8307 35.5375 79.8743 35.5634 79.9228 35.5708C79.956 35.5753 79.9899 35.5712 80.0212 35.559C80.0525 35.5469 80.0802 35.527 80.1018 35.5012C80.2195 35.2596 80.2808 34.9943 80.2808 34.7255C80.2808 34.4567 80.2195 34.1915 80.1018 33.9499C79.9725 33.6416 79.5847 32.9555 79.167 33.1046V33.1444Z" fill="#35208A"/>
<path d="M37.3113 76.7701C37.3112 76.7253 37.2933 76.6824 37.2616 76.6507C36.9633 76.0939 35.8893 75.9845 35.3523 75.8751C34.4772 75.706 33.5921 75.5966 32.6971 75.4773L32.2695 75.4176H32.1104C31.9981 75.2241 31.9112 75.0169 31.8519 74.8011C31.4839 73.9459 31.1259 73.0907 30.7481 72.2355C30.5591 71.7979 30.3702 71.3703 30.1613 70.9427C30.042 70.6842 29.8928 70.1869 29.6045 70.0577C28.9581 69.7792 28.5006 71.3803 28.3316 71.7581C27.9139 72.683 27.536 73.6177 27.1383 74.5425C27.0488 74.7414 26.9096 75.2983 26.7306 75.4276C26.4519 75.4788 26.168 75.4955 25.8853 75.4773L24.7119 75.5768C24.0401 75.6172 23.3739 75.7238 22.723 75.895C22.3352 76.0044 21.6391 76.1933 21.7286 76.7402C21.8181 77.2872 22.4545 77.6054 22.723 77.8441C23.249 78.2627 23.8076 78.6384 24.3936 78.9678C24.6522 79.1269 24.9903 79.2363 25.229 79.4153C25.4676 79.5943 25.398 79.9025 25.3085 80.2207C25.1295 80.897 24.9505 81.5732 24.7914 82.2096C24.6323 82.846 24.5229 83.3134 24.4334 83.8803C24.3243 84.2604 24.3243 84.6636 24.4334 85.0437C24.8411 85.9089 26.4223 84.3974 26.7703 84.109C27.1184 83.8206 27.7051 83.3632 28.1625 82.9753L28.8189 82.3986C28.9382 82.2892 29.2465 81.8616 29.4056 81.8317C29.5647 81.8019 30.3403 82.6173 30.5492 82.8262C31.0166 83.2339 31.5436 83.6217 31.9812 83.9996C32.6077 84.6286 33.3957 85.0726 34.2584 85.2824C35.0241 85.352 34.6562 84.1885 34.5567 83.7311C34.3181 82.6372 33.9601 81.5732 33.6319 80.4992C33.5623 80.2705 33.4728 80.0418 33.4231 79.8031C33.3734 79.5644 33.4231 79.5644 33.6021 79.4252C34.0197 79.1766 34.5368 79.0175 34.9843 78.7888C35.6904 78.4308 37.1224 77.7943 37.3212 76.8894C37.3326 76.8497 37.3291 76.8073 37.3113 76.7701Z" fill="#F7B9E7"/>
<path d="M92.482 48.3194C91.2688 48.21 90.0456 48.2299 88.8225 48.2399L89.8169 47.2454C90.402 46.7468 90.9053 46.1596 91.3086 45.5052C91.3309 45.4663 91.345 45.4233 91.35 45.3788C91.355 45.3343 91.3509 45.2892 91.3378 45.2464C91.3248 45.2035 91.3031 45.1638 91.2741 45.1296C91.2452 45.0955 91.2095 45.0676 91.1694 45.0477C91.1199 45.0232 91.0654 45.0104 91.0102 45.0104C90.955 45.0104 90.9006 45.0232 90.8511 45.0477C90.1922 45.445 89.5957 45.9376 89.081 46.5096L88.0269 47.504V46.0123C88.0854 45.2458 88.0284 44.4748 87.8579 43.7252C87.8304 43.6411 87.7719 43.5707 87.6943 43.5282C87.6167 43.4857 87.5259 43.4744 87.4402 43.4964C87.3864 43.5132 87.3375 43.5428 87.2977 43.5826C87.2579 43.6224 87.2283 43.6714 87.2115 43.7252C87.0247 44.4723 86.951 45.2433 86.9927 46.0123V47.494L85.9983 46.4399C85.4997 45.8549 84.9125 45.3516 84.2581 44.9483C84.2192 44.926 84.1762 44.9119 84.1317 44.9069C84.0872 44.9019 84.0421 44.906 83.9992 44.919C83.9564 44.9321 83.9166 44.9537 83.8825 44.9827C83.8483 45.0117 83.8205 45.0474 83.8006 45.0875C83.7761 45.137 83.7633 45.1914 83.7633 45.2466C83.7633 45.3018 83.7761 45.3563 83.8006 45.4057C84.1955 46.0634 84.6884 46.657 85.2624 47.1659C85.6105 47.5239 85.9486 47.8819 86.2569 48.2299H84.7652C83.9982 48.1748 83.2272 48.2352 82.478 48.4089C82.394 48.4364 82.3235 48.4949 82.2811 48.5725C82.2386 48.6501 82.2272 48.7409 82.2493 48.8266C82.2661 48.8804 82.2956 48.9293 82.3355 48.9691C82.3753 49.009 82.4242 49.0385 82.478 49.0553C83.2249 49.2437 83.9966 49.3142 84.7652 49.2641H86.2171C85.3221 50.1094 84.4271 50.9547 83.6316 51.8695C83.5379 51.9632 83.4853 52.0902 83.4853 52.2226C83.4853 52.355 83.5379 52.482 83.6316 52.5756C83.7252 52.6692 83.8522 52.7218 83.9846 52.7218C84.117 52.7218 84.244 52.6692 84.3376 52.5756C85.2624 51.8099 86.1077 50.9348 86.9629 50.0696C86.9629 51.2828 86.8933 52.506 86.9629 53.7092C86.9747 53.7752 86.9997 53.838 87.0364 53.894C87.0732 53.95 87.1208 53.9981 87.1765 54.0352C87.2322 54.0724 87.2949 54.0979 87.3607 54.1102C87.4265 54.1225 87.4942 54.1215 87.5596 54.107C87.6577 54.0874 87.7479 54.0391 87.8187 53.9683C87.8894 53.8975 87.9377 53.8074 87.9573 53.7092C88.0568 52.5159 88.0468 51.2928 88.0369 50.0796C88.8722 50.9646 89.7075 51.8497 90.6125 52.6452C90.665 52.6859 90.7252 52.7157 90.7894 52.7328C90.8537 52.7499 90.9207 52.7539 90.9865 52.7446C91.0523 52.7354 91.1156 52.713 91.1727 52.6788C91.2297 52.6447 91.2793 52.5994 91.3185 52.5458C91.3863 52.4573 91.423 52.3489 91.423 52.2375C91.423 52.126 91.3863 52.0177 91.3185 51.9292C90.5528 51.0143 89.6777 50.1591 88.8125 49.3139C90.0258 49.3139 91.2489 49.3835 92.4522 49.3139C92.5182 49.303 92.5815 49.2792 92.6383 49.2438C92.6951 49.2084 92.7444 49.162 92.7832 49.1075C92.8221 49.053 92.8497 48.9913 92.8646 48.926C92.8794 48.8607 92.8812 48.7931 92.8698 48.7271C92.8503 48.6295 92.8035 48.5394 92.7349 48.4672C92.6662 48.395 92.5786 48.3438 92.482 48.3194Z" fill="white"/>
<path d="M51.4117 7.67704C51.2442 7.39256 50.9742 7.18293 50.6571 7.09114C50.34 6.99935 49.9998 7.03235 49.7062 7.18338C49.4127 7.33441 49.188 7.59202 49.0783 7.90339C48.9686 8.21476 48.9822 8.55629 49.1163 8.85796C49.2504 9.15963 49.4948 9.39858 49.7994 9.52582C50.104 9.65305 50.4458 9.65892 50.7546 9.54223C51.0634 9.42554 51.3159 9.19513 51.4602 8.89824C51.6046 8.60135 51.6299 8.26049 51.531 7.94553C51.5015 7.84863 51.4615 7.75525 51.4117 7.66709V7.67704Z" fill="white"/>
<path d="M68.9739 16.3783C69.1848 16.4306 69.4071 16.4123 69.6066 16.3264C69.8062 16.2404 69.9721 16.0914 70.079 15.9022C70.1859 15.713 70.2279 15.494 70.1985 15.2786C70.1691 15.0633 70.07 14.8636 69.9163 14.7099C69.7627 14.5562 69.5629 14.4571 69.3476 14.4278C69.1323 14.3984 68.9133 14.4404 68.7241 14.5472C68.5349 14.6541 68.3859 14.82 68.2999 15.0196C68.2139 15.2192 68.1957 15.4414 68.248 15.6524C68.2915 15.8279 68.3821 15.9883 68.51 16.1162C68.6379 16.2442 68.7983 16.3348 68.9739 16.3783Z" fill="white"/>
<path d="M53.1321 27.0187C53.0741 26.7941 52.9533 26.5906 52.784 26.432C52.6608 26.3111 52.5118 26.2196 52.3482 26.1645C52.1846 26.1094 52.0106 26.092 51.8393 26.1138C51.5568 26.1655 51.3017 26.3159 51.1196 26.538C50.9376 26.7602 50.8402 27.0397 50.8449 27.327C50.8443 27.4952 50.8803 27.6616 50.9502 27.8146C51.0202 27.9676 51.1225 28.1037 51.2501 28.2133C51.3777 28.323 51.5276 28.4037 51.6894 28.4498C51.8512 28.4959 52.0211 28.5064 52.1874 28.4805C52.4903 28.436 52.7639 28.2749 52.9497 28.0315C53.1355 27.7881 53.2188 27.4818 53.1818 27.1778V27.0187H53.1321Z" fill="white"/>
<path d="M77.9735 26.1436C77.8223 26.0563 77.6508 26.0104 77.4763 26.0104C77.3017 26.0104 77.1302 26.0563 76.9791 26.1436C76.7833 26.2691 76.6314 26.4522 76.5441 26.6678C76.4568 26.8833 76.4385 27.1205 76.4918 27.3469C76.5509 27.558 76.6743 27.7454 76.845 27.8831C77.0156 28.0207 77.2249 28.1017 77.4437 28.1149C77.6625 28.128 77.88 28.0726 78.0659 27.9563C78.2517 27.84 78.3967 27.6687 78.4806 27.4662C78.5816 27.2519 78.6028 27.0086 78.5403 26.78C78.4561 26.5181 78.284 26.2932 78.053 26.1436H77.9735Z" fill="white"/>
<path d="M72.1458 59.6659H72.3944C72.5262 59.7095 72.6657 59.7251 72.8039 59.7116C72.9421 59.698 73.0759 59.6557 73.1967 59.5873C73.3176 59.5189 73.4228 59.426 73.5055 59.3145C73.5883 59.203 73.6467 59.0754 73.6772 58.9399C73.6917 58.851 73.6917 58.7604 73.6772 58.6715C73.6679 58.3967 73.5582 58.1349 73.3689 57.9356C73.2413 57.8092 73.084 57.7169 72.9115 57.6671C72.7292 57.6172 72.5369 57.6172 72.3546 57.6671H72.106L71.8673 57.7665C71.7523 57.8252 71.6559 57.9147 71.5889 58.0251C71.4485 58.1923 71.3711 58.4034 71.3701 58.6217C71.381 58.7986 71.4284 58.9713 71.5093 59.1289C71.6407 59.3536 71.8549 59.5178 72.106 59.5863L72.1458 59.6659Z" fill="white"/>
<path d="M87.2312 72.325C87.5443 72.3221 87.844 72.1972 88.0665 71.9769C88.2818 71.7511 88.4057 71.4535 88.4146 71.1416C88.4095 70.8294 88.2832 70.5313 88.0623 70.3105C87.8415 70.0897 87.5435 69.9634 87.2312 69.9583C86.9174 69.9583 86.6164 70.0829 86.3945 70.3049C86.1725 70.5268 86.0479 70.8278 86.0479 71.1416C86.0479 71.4555 86.1725 71.7565 86.3945 71.9784C86.6164 72.2003 86.9174 72.325 87.2312 72.325Z" fill="white"/>
<path d="M70.9524 75.5768C71.2576 75.5735 71.5498 75.4524 71.7678 75.2387C71.8754 75.132 71.9607 75.0049 72.0187 74.8649C72.0767 74.7249 72.1064 74.5748 72.1059 74.4233C72.096 74.1205 71.9712 73.8328 71.757 73.6186C71.5428 73.4044 71.2551 73.2796 70.9524 73.2697C70.6481 73.2779 70.3577 73.3984 70.1369 73.6078C69.9233 73.8258 69.8021 74.118 69.7988 74.4233C69.8014 74.7284 69.9238 75.0203 70.1396 75.2361C70.3553 75.4518 70.6472 75.5742 70.9524 75.5768Z" fill="white"/>
<path d="M57.6774 92.4821C57.5118 92.4334 57.3378 92.4198 57.1666 92.442C56.9954 92.4643 56.8307 92.5219 56.683 92.6114C56.5341 92.6963 56.4034 92.8096 56.2984 92.945C56.1933 93.0804 56.116 93.2352 56.0707 93.4005C56.0255 93.5658 56.0132 93.7384 56.0347 93.9084C56.0561 94.0784 56.1109 94.2425 56.1957 94.3914C56.2806 94.5403 56.394 94.671 56.5294 94.776C56.6648 94.8811 56.8195 94.9585 56.9848 95.0037C57.1501 95.0489 57.3227 95.0612 57.4927 95.0397C57.6628 95.0183 57.8269 94.9636 57.9758 94.8787C58.2264 94.7305 58.422 94.5049 58.5332 94.2359C58.6445 93.9668 58.6652 93.6689 58.5923 93.387C58.534 93.1685 58.4185 92.9695 58.2577 92.8104C58.0969 92.6514 57.8966 92.5381 57.6774 92.4821Z" fill="white"/>
<path d="M41.8553 82.0406C42.185 82.0406 42.5012 81.9096 42.7343 81.6765C42.9674 81.4434 43.0984 81.1272 43.0984 80.7975C43.0984 80.4679 42.9674 80.1517 42.7343 79.9186C42.5012 79.6855 42.185 79.5545 41.8553 79.5545C41.5262 79.5604 41.211 79.688 40.9703 79.9125C40.7415 80.1505 40.6133 80.4675 40.6123 80.7975C40.6149 81.1264 40.7467 81.4411 40.9793 81.6736C41.2118 81.9062 41.5265 82.038 41.8553 82.0406Z" fill="white"/>
<path d="M30.6882 60.5012C30.5587 60.5318 30.4346 60.5821 30.3203 60.6503C30.2104 60.712 30.11 60.789 30.0219 60.8791C29.8342 61.0835 29.7128 61.3401 29.6739 61.6149C29.627 61.8926 29.6798 62.1779 29.823 62.4204C29.9691 62.6566 30.1868 62.84 30.4444 62.9438C30.702 63.0475 30.986 63.0662 31.255 62.9972H30.6285C30.8593 63.071 31.1063 63.0775 31.3405 63.0159C31.5748 62.9542 31.7866 62.827 31.9511 62.6491C32.188 62.3988 32.3228 62.0689 32.329 61.7243C32.329 61.5529 32.2949 61.3831 32.2287 61.225C32.1625 61.0668 32.0655 60.9234 31.9434 60.8031C31.8212 60.6828 31.6763 60.588 31.5172 60.5242C31.358 60.4604 31.1878 60.4289 31.0164 60.4316C30.9075 60.4169 30.7971 60.4169 30.6882 60.4316V60.5012Z" fill="white"/>
<path d="M10.9885 64.1806V64.4888C11.0133 64.3775 11.0133 64.2621 10.9885 64.1507C10.9804 63.9425 10.9261 63.7387 10.8293 63.5541C10.6843 63.3192 10.4598 63.1441 10.1967 63.0607C9.93356 62.9772 9.64922 62.9908 9.3953 63.0991C9.14138 63.2075 8.93472 63.4032 8.81284 63.6509C8.69097 63.8986 8.66196 64.1818 8.73109 64.4491C8.76371 64.5687 8.80698 64.6852 8.86037 64.7971L9.03937 65.0258C9.13849 65.1346 9.26586 65.2138 9.4073 65.2546C9.63585 65.3681 9.89932 65.3895 10.1432 65.3142C10.3807 65.2444 10.5897 65.1008 10.7399 64.904C10.8902 64.7073 10.9737 64.4678 10.9785 64.2203L10.9885 64.1806Z" fill="white"/>
<path d="M17.8994 49.8707C18.2198 49.8651 18.5258 49.737 18.7546 49.5127C18.9218 49.3418 19.0353 49.1256 19.0809 48.8908C19.1266 48.6561 19.1024 48.4131 19.0114 48.1919C18.9204 47.9708 18.7666 47.7812 18.5689 47.6465C18.3713 47.5119 18.1385 47.4381 17.8994 47.4344C17.579 47.44 17.273 47.5681 17.0442 47.7924C16.9308 47.9051 16.8409 48.0392 16.7795 48.1868C16.7181 48.3344 16.6865 48.4927 16.6865 48.6526C16.6865 48.8124 16.7181 48.9707 16.7795 49.1184C16.8409 49.266 16.9308 49.4 17.0442 49.5127C17.273 49.737 17.579 49.8651 17.8994 49.8707Z" fill="white"/>
<path d="M16.9554 23.1404C17.1953 23.1404 17.4299 23.0692 17.6294 22.9359C17.8289 22.8026 17.9844 22.6132 18.0763 22.3915C18.1681 22.1698 18.1921 21.9259 18.1453 21.6905C18.0985 21.4552 17.9829 21.239 17.8133 21.0693C17.6436 20.8997 17.4274 20.7841 17.1921 20.7373C16.9567 20.6905 16.7128 20.7145 16.4911 20.8063C16.2694 20.8982 16.08 21.0537 15.9466 21.2532C15.8133 21.4527 15.7422 21.6872 15.7422 21.9272C15.7422 22.249 15.87 22.5575 16.0975 22.7851C16.325 23.0126 16.6336 23.1404 16.9554 23.1404Z" fill="white"/>
<path d="M10.7995 38.6536L10.889 38.4944C11.0349 38.2275 11.0907 37.9206 11.0481 37.6194C11.0163 37.3247 10.8827 37.0504 10.6702 36.8437C10.4975 36.6854 10.2945 36.5636 10.0736 36.4857C9.8976 36.4365 9.71346 36.4234 9.53229 36.4474C9.35112 36.4713 9.17667 36.5317 9.01949 36.6249L8.86038 36.7144C8.53203 36.9004 8.29099 37.2091 8.19028 37.5728C8.08957 37.9364 8.13746 38.3252 8.32339 38.6536C8.50933 38.9819 8.81809 39.223 9.18175 39.3237C9.54541 39.4244 9.93418 39.3765 10.2625 39.1905C10.4857 39.062 10.671 38.8767 10.7995 38.6536Z" fill="#FFF896"/>
<path d="M62.0125 80.5986C62.1396 80.3869 62.2068 80.1445 62.2068 79.8975C62.2068 79.6506 62.1396 79.4082 62.0125 79.1965C61.8945 78.9969 61.7295 78.8292 61.5319 78.7079C61.3343 78.5867 61.11 78.5156 60.8786 78.5009C60.6472 78.4862 60.4157 78.5283 60.2043 78.6235C59.9929 78.7188 59.808 78.8642 59.6657 79.0473C59.5497 79.1927 59.4635 79.3596 59.4122 79.5385C59.3609 79.7173 59.3454 79.9045 59.3667 80.0893C59.3879 80.2741 59.4455 80.4529 59.536 80.6154C59.6266 80.7779 59.7484 80.9209 59.8944 81.0362C60.001 81.1177 60.1181 81.1846 60.2424 81.2351C60.5628 81.3709 60.9214 81.3863 61.2522 81.2785C61.583 81.1706 61.8636 80.9468 62.0424 80.6483L62.0125 80.5986Z" fill="#FFF896"/>
<path d="M88.0167 61.9232C88.2965 61.9468 88.5769 61.884 88.8198 61.7433C89.0628 61.6026 89.2568 61.3907 89.3756 61.1363C89.4944 60.8818 89.5322 60.5971 89.4841 60.3204C89.4359 60.0438 89.304 59.7886 89.1063 59.5893C88.9085 59.3899 88.6544 59.256 88.3781 59.2057C88.1019 59.1554 87.8168 59.191 87.5614 59.3077C87.3061 59.4245 87.0927 59.6168 86.95 59.8587C86.8074 60.1005 86.7424 60.3803 86.7638 60.6603C86.7886 60.9853 86.9283 61.2909 87.1579 61.5223C87.3875 61.7537 87.6919 61.8958 88.0167 61.9232Z" fill="#FFF896"/>
<path d="M38.3551 12.2017C38.4731 12.2648 38.5962 12.318 38.723 12.3608C39.0038 12.4329 39.3004 12.4129 39.569 12.3037C39.8375 12.1944 40.0639 12.0018 40.2147 11.7542C40.3225 11.5657 40.3823 11.3536 40.3887 11.1366C40.3952 10.9195 40.3481 10.7043 40.2517 10.5097C40.1552 10.3152 40.0123 10.1474 39.8357 10.0212C39.659 9.89493 39.454 9.81412 39.2387 9.78589C39.0234 9.75765 38.8045 9.78286 38.6013 9.85927C38.398 9.93569 38.2167 10.061 38.0734 10.224C37.93 10.3871 37.829 10.583 37.7793 10.7943C37.7296 11.0057 37.7326 11.2261 37.7882 11.4359C37.8666 11.7542 38.0665 12.0291 38.3451 12.2017H38.3551Z" fill="#FFF896"/>
<path d="M39.34 91.2987C39.7105 91.2998 40.0669 91.1572 40.3345 90.901C40.5898 90.6329 40.7322 90.2768 40.7322 89.9065C40.7322 89.5363 40.5898 89.1802 40.3345 88.9121C40.07 88.6498 39.7126 88.5026 39.34 88.5026C38.9675 88.5026 38.6101 88.6498 38.3456 88.9121C38.2133 89.0417 38.1082 89.1965 38.0364 89.3672C37.9647 89.538 37.9277 89.7213 37.9277 89.9065C37.9277 90.0918 37.9647 90.2751 38.0364 90.4459C38.1082 90.6166 38.2133 90.7713 38.3456 90.901C38.6131 91.1572 38.9696 91.2998 39.34 91.2987Z" fill="#FFF896"/>
</g>
<defs>
<clipPath id="clip0_1972_5369">
<rect width="100" height="100" fill="white"/>
</clipPath>
</defs>
</svg>
