<svg width="324" height="494" viewBox="0 0 324 494" fill="none" xmlns="http://www.w3.org/2000/svg">
<path d="M265.387 247.485C265.011 247.228 264.654 246.939 264.32 246.619C263.112 238.67 260.106 231.183 255.579 224.847C253.124 221.66 250.874 218.289 248.845 214.758C246.997 210.676 245.908 206.229 245.644 201.678C244.872 193.417 242.002 185.562 237.36 179.012C232.278 172.081 225.113 168.028 218.277 163.613C212.332 159.784 206.106 155.032 203.184 148.045C199.093 133.177 194.723 118.001 186.363 105.368C178.003 92.7358 166.645 83.7085 152.543 82.0595C144.338 81.1138 136.058 82.7723 128.683 86.8387C128.451 86.9714 128.251 87.163 128.099 87.3977C122.409 86.8211 116.672 87.5985 111.279 89.677C105.887 91.7555 100.964 95.0864 96.8452 99.4434C87.3166 109.281 82.4126 122.808 79.9732 136.643C77.7118 149.527 76.3905 164.311 65.9471 172.64C60.7128 176.804 54.6145 179.431 49.5326 183.819C44.6617 188.131 41.1135 193.985 39.3687 200.588C37.0819 208.973 38.8097 216.994 39.9786 225.378C40.9187 232.226 40.8425 241.225 34.8967 245.445C34.6999 245.582 34.5308 245.762 34.3997 245.973C34.2686 246.185 34.1783 246.423 34.1344 246.675C27.35 252.264 21.5566 260.23 21.6837 270.012C22.1848 280.683 25.3401 290.998 30.8057 299.832C30.986 300.114 31.2315 300.337 31.5167 300.479C31.8019 300.62 32.1164 300.676 32.4276 300.639C32.7387 300.602 33.0352 300.474 33.2862 300.268C33.5372 300.062 33.7335 299.786 33.8549 299.469C33.8001 299.719 33.8009 299.979 33.8573 300.228C33.9136 300.477 34.0238 300.707 34.1785 300.899C34.3332 301.091 34.5278 301.24 34.7457 301.331C34.9637 301.423 35.1985 301.455 35.4303 301.425C50.7045 299.767 65.8583 296.965 80.7863 293.041C96.0321 289.38 111.1 285.802 126.524 283.036C156.608 277.642 187.049 273.952 216.524 265.065C231.645 260.638 246.289 254.435 260.203 246.563C260.488 247.184 260.837 247.765 261.245 248.296C261.312 248.688 261.487 249.048 261.746 249.328C262.005 249.608 262.336 249.794 262.693 249.861C263.016 250.138 263.356 250.39 263.71 250.616C264.087 250.86 264.537 250.93 264.962 250.809C265.386 250.689 265.749 250.388 265.971 249.973C266.194 249.558 266.257 249.062 266.147 248.596C266.038 248.129 265.764 247.73 265.387 247.485Z" fill="#9D7354"/>
<path d="M192.487 145.949C192.111 139.081 191.184 132.263 189.717 125.575C189.357 122.501 188.366 119.558 186.82 116.967C186.052 115.872 185.013 115.044 183.827 114.583C182.642 114.122 181.361 114.047 180.138 114.368C179.889 114.43 179.659 114.56 179.468 114.746C179.278 114.931 179.132 115.166 179.045 115.43C167.188 113.581 155.834 108.938 145.758 101.819C145.54 101.649 145.287 101.544 145.022 101.512C144.802 101.173 144.491 100.918 144.132 100.785L143.395 100.142C143.242 99.9714 143.059 99.8356 142.858 99.7426C142.657 99.6495 142.441 99.6009 142.223 99.5996C142.005 99.5983 141.788 99.6443 141.586 99.735C141.384 99.8257 141.2 99.9592 141.045 100.128C140.89 100.297 140.766 100.498 140.682 100.719C140.597 100.94 140.553 101.178 140.552 101.418C140.551 101.658 140.592 101.896 140.675 102.118C140.757 102.34 140.879 102.543 141.032 102.713L141.236 102.881C135.62 111.685 130.182 120.796 123.855 129.18C118.138 136.894 111.354 144.049 102.588 147.235C102.353 147.328 102.138 147.471 101.952 147.654C101.819 147.372 101.612 147.14 101.359 146.985C101.106 146.831 100.818 146.763 100.529 146.788C95.7779 146.983 90.3656 147.458 87.164 151.79C85.7934 154.002 84.8766 156.514 84.4774 159.154C84.0781 161.794 84.2058 164.498 84.8517 167.078C87.3927 177.754 98.2426 181.751 107.136 179.096C117.312 188.692 129.891 194.675 143.218 196.256C144.132 200.001 144.971 203.774 146.089 207.435C146.44 209.014 147.106 210.487 148.037 211.748C148.969 213.01 150.143 214.028 151.476 214.73C154.607 215.706 157.941 215.54 160.979 214.255C162.215 213.844 163.389 213.231 164.46 212.438C164.718 212.658 165.035 212.777 165.362 212.777C165.688 212.777 166.006 212.658 166.264 212.438C167.391 211.61 168.302 210.474 168.908 209.141C169.514 207.808 169.794 206.324 169.72 204.836C169.72 200.84 167.814 197.178 168.093 193.154C168.128 192.842 168.076 192.526 167.944 192.246C167.813 191.967 167.608 191.738 167.357 191.589C173.992 188.324 179.808 183.337 184.305 177.056C190.26 168.061 193.155 157.052 192.487 145.949Z" fill="#F5BE83"/>
<path d="M135.975 155.563C134.694 154.504 133.154 153.891 131.554 153.803C131.402 153.632 131.22 153.496 131.019 153.405C130.818 153.314 130.602 153.268 130.385 153.272C129.155 153.28 127.943 153.602 126.845 154.21C125.746 154.819 124.791 155.699 124.053 156.782C123.315 157.864 122.814 159.12 122.59 160.45C122.366 161.78 122.425 163.15 122.762 164.451C123.186 165.801 123.869 167.034 124.765 168.067C125.66 169.101 126.748 169.91 127.953 170.441C129.158 170.971 130.453 171.21 131.749 171.141C133.046 171.072 134.314 170.696 135.467 170.041C136.556 169.272 137.459 168.226 138.101 166.992C138.744 165.757 139.105 164.369 139.155 162.948C139.205 161.526 138.942 160.113 138.388 158.827C137.834 157.541 137.007 156.422 135.975 155.563ZM130.41 162.047C131.224 161.852 129.928 163.054 130.41 162.047V162.047Z" fill="#DB9556"/>
<path d="M185.6 148.241C185.165 147.122 184.52 146.117 183.707 145.292C182.894 144.467 181.931 143.841 180.882 143.455C179.832 143.07 178.721 142.933 177.62 143.055C176.519 143.176 175.454 143.553 174.496 144.16C173.097 145.154 172.062 146.658 171.574 148.409C171.045 149.315 170.688 150.328 170.522 151.389C170.356 152.45 170.385 153.537 170.608 154.585C170.925 155.671 171.434 156.677 172.105 157.546C172.777 158.415 173.597 159.13 174.52 159.649C175.444 160.168 176.451 160.482 177.484 160.572C178.518 160.662 179.557 160.527 180.543 160.175C181.607 159.786 182.587 159.163 183.424 158.343C184.261 157.523 184.936 156.524 185.41 155.406C185.883 154.289 186.144 153.077 186.177 151.845C186.21 150.613 186.013 149.387 185.6 148.241ZM177.977 154.501C177.581 154.643 177.158 154.666 176.752 154.568C176.345 154.469 175.97 154.253 175.665 153.942C176.366 154.355 177.157 154.549 177.951 154.501H177.977Z" fill="#DB9556"/>
<path d="M130.182 143.88C130.001 143.133 129.662 142.443 129.191 141.868C128.612 141.069 127.833 140.474 126.951 140.157C126.068 139.84 125.12 139.814 124.224 140.083C123.328 140.351 122.524 140.903 121.91 141.669C121.296 142.435 120.899 143.382 120.769 144.394C120.639 145.405 120.782 146.436 121.179 147.359C121.576 148.283 122.21 149.058 123.003 149.589C123.797 150.12 124.714 150.384 125.642 150.348C126.57 150.312 127.468 149.978 128.225 149.386C128.986 148.761 129.573 147.914 129.919 146.941C130.265 145.968 130.356 144.908 130.182 143.88Z" fill="#1A406D"/>
<path d="M176.63 132.842C176.444 132.088 176.105 131.391 175.639 130.801C175.058 130.007 174.278 129.416 173.396 129.103C172.514 128.789 171.568 128.766 170.674 129.037C169.78 129.308 168.978 129.86 168.366 130.626C167.754 131.392 167.359 132.338 167.23 133.348C167.101 134.357 167.243 135.386 167.639 136.308C168.035 137.23 168.667 138.005 169.459 138.536C170.25 139.068 171.165 139.333 172.091 139.299C173.018 139.266 173.915 138.935 174.673 138.348C175.434 137.723 176.021 136.876 176.367 135.902C176.713 134.929 176.804 133.869 176.63 132.842Z" fill="#1A406D"/>
<path d="M161.814 145.279C161.683 144.02 161.166 142.847 160.349 141.953C159.532 141.059 158.462 140.498 157.317 140.36C156.199 140.36 155.64 140.192 155.106 139.019C154.685 137.916 154.428 136.746 154.344 135.553C154.141 133.233 150.812 133.205 151.041 135.553C151.295 138.655 152.082 142.708 155.208 143.77C156.046 144.049 157.215 143.77 157.901 144.329C158.214 144.755 158.442 145.249 158.569 145.779C158.696 146.309 158.719 146.862 158.638 147.403C158.622 147.931 158.505 148.448 158.293 148.922C158.082 149.396 157.781 149.814 157.41 150.15C157.04 150.486 156.609 150.731 156.146 150.869C155.683 151.008 155.199 151.036 154.725 150.953C152.616 150.477 151.727 153.999 153.836 154.474C154.964 154.709 156.128 154.629 157.222 154.243C158.315 153.856 159.304 153.175 160.097 152.261C160.89 151.347 161.462 150.23 161.762 149.01C162.062 147.791 162.08 146.508 161.814 145.279Z" fill="#1A406D"/>
<path d="M163.415 156.626C162.862 157.757 162.075 158.729 161.117 159.463C160.159 160.196 159.057 160.671 157.901 160.848C156.745 161.025 155.567 160.899 154.463 160.481C153.359 160.063 152.361 159.365 151.548 158.443C151.238 158.102 150.818 157.91 150.38 157.91C149.941 157.91 149.521 158.102 149.211 158.443C148.901 158.784 148.727 159.246 148.727 159.728C148.727 160.21 148.901 160.673 149.211 161.014C150.382 162.328 151.816 163.324 153.399 163.921C154.982 164.518 156.67 164.7 158.328 164.453C159.987 164.206 161.569 163.537 162.951 162.498C164.333 161.459 165.474 160.08 166.286 158.471C167.328 156.402 164.456 154.558 163.415 156.626Z" fill="#1A406D"/>
<path d="M179.778 111.713C167.067 109.815 154.908 104.79 144.205 97.0123C143.891 96.7815 143.512 96.6824 143.138 96.7328C143.013 96.3555 142.781 96.0321 142.477 95.8106C137.879 92.489 132.885 89.8837 127.638 88.0689C125.605 87.3422 124.741 90.8637 126.774 91.5904C131.356 93.2579 135.728 95.5588 139.784 98.4377C139.46 98.6028 139.193 98.8769 139.021 99.2202C130.001 117.191 118.694 134.631 102.406 145.279C102.025 145.524 101.749 145.925 101.637 146.394C101.525 146.863 101.587 147.362 101.809 147.78C102.031 148.199 102.396 148.504 102.822 148.627C103.249 148.75 103.702 148.682 104.083 148.437C120.904 137.481 132.593 119.567 141.893 100.925C142.079 100.591 142.151 100.195 142.096 99.8071C142.198 99.9567 142.328 100.081 142.477 100.17C153.708 108.271 166.46 113.469 179.778 115.374C181.887 115.682 181.862 112.021 179.778 111.713Z" fill="#1A406D"/>
<path d="M102.611 168.308C101.653 168.463 100.675 168.367 99.7572 168.028C98.8391 167.689 98.0069 167.116 97.3283 166.356C96.6497 165.596 96.1439 164.67 95.8521 163.654C95.5603 162.638 95.4908 161.561 95.6492 160.51C95.6881 160.242 95.6881 159.968 95.6492 159.7C97.0222 159.805 98.3496 160.286 99.5114 161.097C101.316 162.355 102.993 159.197 101.188 157.939C98.8663 156.386 96.1312 155.753 93.4368 156.144C90.7425 156.536 88.2507 157.928 86.3747 160.091C84.9263 161.824 87.2894 164.423 88.7378 162.69C89.724 161.499 90.9767 160.612 92.3713 160.119C92.1704 161.759 92.3252 163.427 92.823 164.988C93.3208 166.549 94.1476 167.959 95.2356 169.101C96.3237 170.243 97.6421 171.086 99.083 171.56C100.524 172.034 102.047 172.126 103.526 171.829C105.61 171.522 104.771 168 102.611 168.308Z" fill="#1A406D"/>
<path d="M323.293 454.386C322.904 441.286 321.826 428.222 320.066 415.258C319.135 408.607 317.897 402.012 316.356 395.499C314.832 389.127 312.875 382.894 311.274 376.55C309.465 370.179 308.239 363.625 307.615 356.986C307.082 350.279 307.031 343.543 306.523 336.836C305.17 323.721 302.433 310.825 298.366 298.407C295.227 286.582 290.609 275.295 284.645 264.869C278.966 255.66 271.79 247.682 263.479 241.336C254.408 234.265 244.219 230.325 234.36 225.574C229.277 223.256 224.424 220.372 219.876 216.965C215.379 213.5 211.339 209.364 206.968 205.786C198.643 198.306 188.004 194.669 177.29 195.641C174.707 195.924 172.155 196.476 169.667 197.29C169.462 197.339 169.27 197.441 169.106 197.586C168.943 197.732 168.813 197.918 168.727 198.128C168.602 198.416 168.541 198.732 168.549 199.051C168.193 202.88 171.09 206.764 168.346 210.23C166.925 211.786 165.181 212.937 163.264 213.584C161.053 214.506 158.842 215.344 156.632 216.379C156.4 216.478 156.185 216.62 155.997 216.798C152.828 216.576 149.76 215.481 147.078 213.612L146.875 212.773C147.175 212.421 147.342 211.956 147.342 211.474C147.342 210.991 147.175 210.526 146.875 210.174L145.884 208.805V208.441C145.694 206.862 145.238 205.336 144.537 203.942C142.834 201.37 139.455 202.88 137.117 203.522C131.081 205.159 125.195 207.404 119.534 210.23C109.318 215.519 99.5265 221.745 90.2621 228.843C72.454 242.152 56.7971 258.646 43.9404 277.641C38.3175 286.02 33.3854 294.933 29.2029 304.276C27.7327 306.992 26.3927 309.79 25.1882 312.66C21.2429 322.739 19.0123 333.529 18.6071 344.493C18.226 350.67 18.0227 356.902 17.1333 363.023C16.2275 368.846 14.9453 374.589 13.2965 380.211C9.85016 391.332 7.12451 402.708 5.14003 414.252C4.1802 420.593 3.51024 426.982 3.13267 433.397C-1.11582 452.063 -0.0785622 471.712 6.10559 489.713C6.20838 490.027 6.38348 490.306 6.61378 490.523C6.53899 490.792 6.52201 491.076 6.56418 491.354C6.60634 491.631 6.70651 491.894 6.85678 492.122C7.00705 492.349 7.20332 492.535 7.43012 492.665C7.65693 492.795 7.90807 492.866 8.16377 492.871H8.7736C9.04867 493.042 9.35946 493.132 9.67564 493.132C9.99182 493.132 10.3026 493.042 10.5777 492.871H166.084C166.302 492.873 166.519 492.825 166.719 492.731H315.95C316.171 492.732 316.39 492.682 316.593 492.585C316.796 492.488 316.979 492.345 317.129 492.167C317.28 491.988 317.395 491.777 317.467 491.547C317.54 491.317 317.568 491.073 317.551 490.83C317.761 490.768 317.956 490.655 318.123 490.501C318.29 490.346 318.424 490.153 318.516 489.936C323.446 478.841 323.725 466.432 323.293 454.386Z" fill="#25B7EF"/>
<path d="M173.913 202.767C172.393 205.89 170.198 208.553 167.521 210.521C164.844 212.489 161.767 213.702 158.563 214.053C155.358 214.404 152.125 213.882 149.147 212.532C146.17 211.183 143.541 209.049 141.491 206.317C140.093 204.556 137.756 207.127 139.128 208.916C141.53 212.061 144.596 214.512 148.058 216.053C151.519 217.595 155.272 218.18 158.987 217.758C162.702 217.336 166.266 215.92 169.369 213.633C172.471 211.347 175.017 208.259 176.785 204.64C177.826 202.572 174.955 200.727 173.913 202.767Z" fill="#1A406D"/>
<path d="M101.494 324.483C96.5949 331.501 90.9282 337.827 84.6216 343.32C86.5019 334.004 88.5347 324.772 90.7199 315.623C90.7783 315.392 90.7947 315.15 90.7682 314.912C90.7417 314.674 90.6729 314.444 90.5655 314.235C90.4581 314.026 90.3144 313.842 90.1426 313.695C89.9707 313.547 89.774 313.438 89.5638 313.373C89.3536 313.309 89.1339 313.291 88.9174 313.32C88.7008 313.349 88.4916 313.425 88.3016 313.543C88.1117 313.661 87.9447 313.819 87.8103 314.008C87.6759 314.197 87.5767 314.414 87.5183 314.645C82.1993 337.171 77.7018 359.903 74.0258 382.839C70.3923 405.505 68.08 428.311 65.1579 451.088C63.6076 463.951 61.3933 476.707 58.526 489.294C58.4114 489.761 58.4702 490.259 58.6894 490.678C58.9086 491.097 59.2703 491.403 59.6949 491.529C60.1194 491.655 60.5721 491.591 60.9533 491.35C61.3345 491.109 61.6131 490.711 61.7276 490.244C67.0382 467.885 69.198 444.884 71.8914 422.05C74.5849 399.216 78.1422 376.355 82.5126 353.745C82.8684 351.844 83.2495 349.944 83.6307 348.155C83.8378 348.209 84.0535 348.21 84.2608 348.156C84.468 348.103 84.6612 347.997 84.8249 347.847C91.9533 341.916 98.3433 334.982 103.831 327.222C105.153 325.237 102.815 322.638 101.494 324.483Z" fill="#1A406D"/>
<path d="M271.915 420.15C270.442 396.874 267.796 373.707 263.987 350.754C261.751 337.814 258.905 324.958 255.704 312.297C255.586 311.83 255.304 311.434 254.92 311.196C254.537 310.957 254.083 310.896 253.658 311.026C253.234 311.155 252.873 311.465 252.656 311.887C252.44 312.309 252.384 312.809 252.502 313.275C258.249 335.604 262.437 358.383 265.029 381.413C267.773 404.555 269.272 427.835 270.365 451.116C270.949 464.224 271.432 477.332 271.89 490.44C271.89 492.787 275.294 492.787 275.218 490.44C274.38 466.991 273.541 443.542 271.915 420.15Z" fill="#1A406D"/>
</svg>
