<svg width="300" height="319" viewBox="0 0 300 319" fill="none" xmlns="http://www.w3.org/2000/svg">
<path d="M280.685 250.027H141.73C131.062 250.027 122.414 255.938 122.414 263.229V300.625C122.414 307.917 131.062 313.827 141.73 313.827H280.685C291.352 313.827 300 307.917 300 300.625V263.229C300 255.938 291.352 250.027 280.685 250.027Z" fill="#FFE9E0"/>
<path d="M139.775 191.659C135.487 193.398 118.247 197.331 114.866 197.826C95.8721 200.631 75.9028 199.608 58.0111 192.228C-4.56776 166.413 -20.0164 79.769 28.9369 33.9588C72.7707 -7.05948 143.877 2.72987 178.765 49.6523C209.333 90.7708 199.179 140.039 165.653 176.055C181.34 211.163 194.722 245.497 194.722 245.497C194.722 245.497 139.87 191.616 139.775 191.659Z" fill="#FF9565"/>
<path d="M146.044 183.504C140.284 185.306 124.517 189.176 121.136 189.671C102.142 192.476 82.1724 191.453 64.2806 184.073C1.70177 158.258 -13.7468 71.6139 35.2065 25.8143C79.0403 -15.1987 150.146 -5.40936 185.034 41.5078C215.603 82.6263 205.449 131.9 171.923 167.915C187.61 203.019 198.543 245.513 198.543 245.513C198.543 245.513 146.145 183.472 146.044 183.504Z" fill="#FFE0D2"/>
<path d="M91.3144 55.9406C91.8125 53.969 92.8407 52.5949 94.3988 51.8182C95.8441 51.0664 97.4911 50.7879 99.1049 51.0222C100.705 51.2745 102.18 52.0366 103.308 53.1941C103.909 53.8026 104.372 54.5328 104.665 55.3351C104.957 56.1374 105.073 56.9929 105.003 57.8436C104.724 60.5216 104.477 63.182 104.262 65.8248C104.046 68.4676 103.834 71.1298 103.626 73.8113C103.272 78.5346 102.97 83.2562 102.719 87.976C102.468 92.6959 102.274 97.3841 102.136 102.041C101.783 111.487 101.677 120.932 101.818 130.375C101.818 132.558 101.075 134.215 99.5872 135.347C98.1861 136.44 96.4751 137.069 94.6956 137.144C92.9276 137.214 91.1928 136.653 89.804 135.563C88.32 134.435 87.5763 132.707 87.5728 130.381C87.4279 125.942 87.3926 121.537 87.4668 117.165C87.541 112.793 87.647 108.353 87.7848 103.844C83.8983 103.844 79.9306 103.984 75.8817 104.265C71.8327 104.546 67.3332 104.898 62.3833 105.32C62.5388 109.537 62.7154 113.677 62.9133 117.739C63.1112 121.802 63.2878 125.909 63.4433 130.059C63.5881 132.242 62.9451 133.916 61.5142 135.083C60.1601 136.216 58.4648 136.867 56.6968 136.933C54.8933 136.996 53.1207 136.456 51.662 135.399C50.0933 134.303 49.2383 132.523 49.097 130.059C48.9521 127.522 48.8267 124.984 48.7207 122.447C48.6147 119.91 48.5264 117.372 48.4557 114.835C48.1731 105.954 47.9611 96.9922 47.8198 87.9497C47.6784 83.4442 47.5901 78.9511 47.5548 74.4702C47.5194 69.9894 47.5371 65.4611 47.6078 60.8853C47.6078 58.6994 48.3515 57.0248 49.8389 55.8615C51.2354 54.7298 52.9823 54.1134 54.7836 54.1166C56.5661 54.11 58.3015 54.686 59.7229 55.7561C61.2139 56.849 61.9594 58.5588 61.9594 60.8853V76.1097C61.9594 78.5698 61.977 81.072 62.0123 83.6164C62.0477 86.1609 62.0653 88.6631 62.0653 91.1232C62.8444 91.0546 63.6023 91.0019 64.3495 90.965C65.0812 90.9311 65.8092 90.843 66.5277 90.7015C70.2127 90.35 73.8801 90.1022 77.5299 89.9582C81.1796 89.8141 84.8116 89.7086 88.426 89.6419C88.5638 87.2486 88.7069 84.4599 88.85 81.2917C88.9931 78.1234 89.1521 74.9657 89.327 71.8291C89.5019 68.6925 89.751 65.7141 90.0742 62.8674C90.3194 60.5318 90.7339 58.2168 91.3144 55.9406Z" fill="#E46125"/>
<path d="M109.704 88.4046C109.787 87.4825 110.103 86.5962 110.623 85.8284C111.143 85.0605 111.849 84.4361 112.677 84.0134C114.287 83.1512 116.124 82.8016 117.94 83.0118C119.69 83.1949 121.315 84.0019 122.514 85.2838C123.754 86.5859 124.104 88.4468 123.627 90.8348C122.61 96.4794 121.953 102.182 121.66 107.91C121.34 113.779 121.464 119.665 122.031 125.517C122.197 126.733 121.975 127.97 121.395 129.054C120.856 130.05 120.046 130.875 119.058 131.437C118.032 132.01 116.885 132.335 115.709 132.386C114.51 132.463 113.31 132.264 112.201 131.806C111.069 131.323 110.082 130.559 109.333 129.586C108.453 128.397 107.919 126.989 107.791 125.517C107.293 119.591 107.187 113.639 107.473 107.699C107.812 101.227 108.557 94.7834 109.704 88.4046ZM118.184 76.4539C115.916 76.5277 114.181 75.8758 112.98 74.4981C111.819 73.2369 111.142 71.6095 111.066 69.9013C111.007 68.1813 111.571 66.4973 112.656 65.1569C113.79 63.6773 115.557 62.8321 117.956 62.6212C120.51 62.4104 122.371 63.0096 123.537 64.4189C124.674 65.7366 125.28 67.427 125.238 69.1633C125.187 70.9633 124.532 72.6948 123.378 74.0817C122.197 75.5964 120.466 76.3871 118.184 76.4539Z" fill="#E46125"/>
<path d="M158.826 85.985C156.791 92.1422 154.708 98.2837 152.737 104.462C151.868 107.198 150.156 108.505 147.278 108.242C144.628 107.999 143.399 106.217 143.07 103.85C140.95 88.6525 139 73.4386 140.77 58.0456C140.876 57.1283 141.056 56.2163 141.205 55.3096C141.979 51.4508 142.885 47.6342 145.132 44.2973C147.252 41.1343 150.204 39.5528 154.025 39.9271C157.846 40.3014 160.427 42.4575 161.778 46.0105C163.999 51.8093 163.49 57.8663 162.965 63.8654C162.308 71.3616 160.051 78.5837 158.826 85.985Z" fill="#E46125"/>
<path d="M146.41 126.065C145.508 126.08 144.612 125.912 143.778 125.571C142.943 125.23 142.188 124.723 141.557 124.081C140.926 123.44 140.433 122.677 140.108 121.84C139.784 121.003 139.634 120.108 139.669 119.212C139.738 115.295 142.632 112.58 146.659 112.654C147.532 112.673 148.392 112.866 149.189 113.22C149.985 113.574 150.703 114.082 151.3 114.715C151.898 115.348 152.362 116.094 152.666 116.907C152.97 117.721 153.108 118.587 153.072 119.454C153.062 121.207 152.357 122.885 151.109 124.123C149.861 125.361 148.173 126.059 146.41 126.065Z" fill="#E46125"/>
<path d="M157.55 280.718C158.038 280.68 158.527 280.761 158.977 280.953C159.426 281.145 159.822 281.442 160.131 281.82C160.677 282.505 160.974 283.354 160.974 284.229C160.974 285.103 160.677 285.952 160.131 286.638C159.822 287.015 159.426 287.313 158.977 287.505C158.527 287.697 158.038 287.777 157.55 287.74C157.082 287.769 156.614 287.693 156.18 287.516C155.747 287.338 155.36 287.065 155.048 286.717C154.486 286.088 154.169 285.281 154.153 284.44C154.14 283.578 154.418 282.737 154.942 282.052C155.256 281.657 155.651 281.334 156.101 281.104C156.551 280.874 157.045 280.742 157.55 280.718Z" fill="#E46125"/>
<path d="M168.143 280.718C168.63 280.681 169.12 280.762 169.569 280.953C170.019 281.145 170.415 281.442 170.724 281.82C171.27 282.505 171.567 283.354 171.567 284.229C171.567 285.103 171.27 285.952 170.724 286.638C170.415 287.015 170.019 287.312 169.569 287.504C169.12 287.696 168.63 287.777 168.143 287.74C167.674 287.769 167.205 287.693 166.771 287.516C166.337 287.338 165.949 287.065 165.636 286.717C165.078 286.086 164.761 285.28 164.74 284.439C164.733 283.579 165.01 282.74 165.53 282.051C165.844 281.656 166.24 281.333 166.691 281.103C167.142 280.873 167.637 280.741 168.143 280.718Z" fill="#E46125"/>
<path d="M178.731 280.718C179.22 280.681 179.71 280.762 180.16 280.953C180.611 281.145 181.008 281.442 181.318 281.82C181.864 282.505 182.161 283.354 182.161 284.229C182.161 285.103 181.864 285.952 181.318 286.638C181.008 287.015 180.611 287.312 180.16 287.504C179.71 287.696 179.22 287.777 178.731 287.74C178.264 287.769 177.795 287.693 177.362 287.515C176.929 287.338 176.541 287.065 176.23 286.717C175.67 286.087 175.353 285.28 175.334 284.439C175.324 283.578 175.602 282.738 176.124 282.051C176.438 281.657 176.833 281.334 177.282 281.103C177.732 280.873 178.226 280.742 178.731 280.718Z" fill="#E46125"/>
<path d="M189.326 280.717C189.81 280.674 190.297 280.747 190.746 280.931C191.196 281.114 191.594 281.403 191.907 281.771C192.453 282.457 192.75 283.306 192.75 284.181C192.75 285.055 192.453 285.904 191.907 286.59C191.599 286.967 191.203 287.265 190.753 287.456C190.304 287.648 189.814 287.729 189.326 287.691C188.859 287.722 188.39 287.646 187.957 287.468C187.523 287.291 187.136 287.018 186.825 286.669C186.264 286.039 185.945 285.232 185.924 284.391C185.916 283.53 186.195 282.69 186.719 282.003C187.036 281.617 187.433 281.302 187.883 281.08C188.333 280.858 188.825 280.734 189.326 280.717Z" fill="#E46125"/>
<path d="M199.915 280.718C200.403 280.68 200.894 280.761 201.344 280.953C201.794 281.145 202.191 281.442 202.501 281.82C203.047 282.505 203.344 283.354 203.344 284.229C203.344 285.103 203.047 285.952 202.501 286.638C202.191 287.015 201.794 287.313 201.344 287.505C200.894 287.697 200.403 287.777 199.915 287.74C199.447 287.769 198.979 287.692 198.546 287.515C198.112 287.338 197.725 287.065 197.414 286.717C196.847 286.079 196.529 285.26 196.518 284.408C196.507 283.547 196.785 282.707 197.308 282.02C197.624 281.631 198.021 281.314 198.47 281.089C198.92 280.865 199.412 280.738 199.915 280.718Z" fill="#E46125"/>
<path d="M210.509 280.718C210.997 280.68 211.486 280.761 211.936 280.953C212.385 281.145 212.781 281.442 213.09 281.82C213.636 282.505 213.933 283.354 213.933 284.229C213.933 285.103 213.636 285.952 213.09 286.638C212.781 287.015 212.385 287.313 211.936 287.505C211.486 287.697 210.997 287.777 210.509 287.74C210.041 287.769 209.573 287.693 209.139 287.516C208.706 287.338 208.319 287.065 208.007 286.717C207.445 286.088 207.128 285.281 207.112 284.44C207.099 283.578 207.377 282.737 207.901 282.052C208.215 281.657 208.61 281.334 209.06 281.104C209.51 280.874 210.004 280.742 210.509 280.718Z" fill="#E46125"/>
<path d="M221.102 280.718C221.589 280.68 222.079 280.761 222.529 280.953C222.978 281.145 223.374 281.442 223.683 281.82C224.229 282.505 224.526 283.354 224.526 284.229C224.526 285.103 224.229 285.952 223.683 286.638C223.374 287.015 222.978 287.313 222.529 287.505C222.079 287.697 221.589 287.777 221.102 287.74C220.633 287.769 220.164 287.693 219.73 287.516C219.296 287.339 218.908 287.065 218.595 286.717C218.037 286.086 217.72 285.28 217.699 284.44C217.691 283.578 217.971 282.738 218.494 282.052C218.807 281.656 219.202 281.332 219.652 281.102C220.102 280.872 220.596 280.741 221.102 280.718Z" fill="#E46125"/>
<path d="M231.69 280.718C232.179 280.681 232.669 280.762 233.119 280.953C233.57 281.145 233.967 281.442 234.277 281.82C234.823 282.505 235.12 283.354 235.12 284.229C235.12 285.103 234.823 285.952 234.277 286.638C233.967 287.015 233.57 287.312 233.119 287.504C232.669 287.696 232.179 287.777 231.69 287.74C231.223 287.769 230.754 287.693 230.321 287.515C229.887 287.338 229.5 287.065 229.189 286.717C228.629 286.087 228.312 285.28 228.293 284.439C228.283 283.578 228.561 282.738 229.083 282.051C229.397 281.657 229.792 281.334 230.241 281.103C230.691 280.873 231.185 280.742 231.69 280.718Z" fill="#E46125"/>
<path d="M242.284 280.718C242.772 280.68 243.262 280.761 243.711 280.953C244.161 281.145 244.557 281.442 244.865 281.82C245.411 282.505 245.708 283.354 245.708 284.229C245.708 285.103 245.411 285.952 244.865 286.638C244.557 287.015 244.161 287.313 243.711 287.505C243.262 287.697 242.772 287.777 242.284 287.74C241.817 287.77 241.348 287.694 240.914 287.517C240.481 287.339 240.094 287.066 239.783 286.717C239.221 286.088 238.903 285.281 238.887 284.44C238.874 283.578 239.152 282.737 239.677 282.052C239.99 281.656 240.385 281.332 240.834 281.102C241.284 280.872 241.779 280.741 242.284 280.718Z" fill="#E46125"/>
<path d="M252.876 280.718C253.364 280.68 253.855 280.761 254.305 280.953C254.755 281.145 255.152 281.442 255.462 281.82C256.008 282.505 256.305 283.354 256.305 284.229C256.305 285.103 256.008 285.952 255.462 286.638C255.152 287.015 254.755 287.313 254.305 287.505C253.855 287.697 253.364 287.777 252.876 287.74C252.408 287.769 251.94 287.692 251.507 287.515C251.073 287.338 250.686 287.065 250.374 286.717C249.815 286.087 249.498 285.28 249.479 284.44C249.468 283.579 249.746 282.738 250.268 282.052C250.582 281.657 250.977 281.334 251.427 281.104C251.877 280.874 252.371 280.742 252.876 280.718Z" fill="#E46125"/>
<path d="M263.466 280.717C263.95 280.674 264.437 280.747 264.886 280.931C265.335 281.114 265.733 281.403 266.047 281.771C266.596 282.456 266.894 283.305 266.894 284.181C266.894 285.056 266.596 285.905 266.047 286.59C265.738 286.967 265.342 287.265 264.893 287.456C264.443 287.648 263.954 287.729 263.466 287.691C262.998 287.721 262.53 287.645 262.096 287.467C261.663 287.29 261.276 287.017 260.964 286.669C260.402 286.04 260.085 285.232 260.069 284.391C260.056 283.53 260.334 282.689 260.858 282.003C261.177 281.617 261.574 281.303 262.023 281.081C262.473 280.86 262.964 280.735 263.466 280.717Z" fill="#E46125"/>
<path d="M274.063 280.718C274.55 280.68 275.04 280.761 275.489 280.953C275.939 281.145 276.335 281.442 276.644 281.82C277.19 282.505 277.487 283.354 277.487 284.229C277.487 285.103 277.19 285.952 276.644 286.638C276.335 287.015 275.939 287.313 275.489 287.505C275.04 287.697 274.55 287.777 274.063 287.74C273.594 287.769 273.125 287.693 272.691 287.516C272.257 287.339 271.868 287.065 271.556 286.717C270.991 286.078 270.674 285.259 270.66 284.408C270.652 283.546 270.932 282.706 271.455 282.02C271.771 281.63 272.167 281.313 272.617 281.088C273.067 280.863 273.56 280.737 274.063 280.718Z" fill="#E46125"/>
</svg>
