<svg width="24" height="24" viewBox="0 0 24 24" fill="none" xmlns="http://www.w3.org/2000/svg">
<g clip-path="url(#clip0_960_24467)">
<path d="M8.24995 22.6125V17.4375L4.38745 20.2875C5.47495 21.3 6.78745 22.0875 8.24995 22.6125ZM15.7499 22.6125C17.2125 22.0875 18.525 21.3 19.6124 20.2875L15.7499 17.4V22.6125ZM1.38745 15.75C1.49995 16.125 1.64995 16.4625 1.83745 16.8375L3.29995 15.75H1.38745ZM20.6999 15.75L22.1624 16.8375C22.3124 16.5 22.4624 16.125 22.6124 15.75H20.6999Z" fill="#2A5F9E"/>
<path d="M8.8126 14.25H0.975098C1.0876 14.775 1.2376 15.2625 1.3876 15.75H3.3001L1.8376 16.8375C2.1376 17.475 2.4751 18.0375 2.8876 18.6L6.7501 15.75H8.2501V16.5L3.8626 19.725L4.3876 20.25L8.2501 17.4375V22.6125C8.7376 22.8 9.2251 22.9125 9.7501 23.025V14.25H8.8126ZM23.0251 14.25H14.2501V23.025C14.7751 22.9125 15.2626 22.7625 15.7501 22.6125V17.4375L19.6126 20.25C20.1376 19.7625 20.5876 19.2375 21.0376 18.675L17.0251 15.75H19.5751L21.8626 17.4375C21.9751 17.25 22.0876 17.025 22.1626 16.8375L20.7001 15.75H22.6126C22.7626 15.2625 22.9126 14.775 23.0251 14.25Z" fill="white"/>
<path d="M2.88745 18.6C3.18745 19.0125 3.48745 19.3875 3.82495 19.7625L8.24995 16.5375V15.7875H6.74995L2.88745 18.6ZM17.0625 15.75L21.075 18.675C21.225 18.4875 21.3375 18.3 21.4874 18.1125C21.525 18.075 21.525 18.0375 21.5625 18.0375C21.675 17.85 21.825 17.625 21.9375 17.4375L19.575 15.75H17.0625Z" fill="#ED4C5C"/>
<path d="M15.7499 1.38672V6.56172L19.6124 3.71172C18.525 2.69922 17.2125 1.91172 15.7499 1.38672ZM8.24995 1.38672C6.78745 1.91172 5.47495 2.69922 4.38745 3.71172L8.24995 6.59922V1.38672ZM22.6124 8.24922C22.4999 7.87422 22.3499 7.53672 22.1624 7.16172L20.6999 8.24922H22.6124ZM3.29995 8.24922L1.83745 7.16172C1.68745 7.53672 1.53745 7.87422 1.38745 8.24922H3.29995Z" fill="#2A5F9E"/>
<path d="M15.1876 9.74961H22.9876C22.8751 9.22461 22.7251 8.73711 22.5751 8.24961H20.6626L22.1251 7.16211C21.8251 6.52461 21.4876 5.96211 21.0751 5.39961L17.2501 8.24961H15.7501V7.49961L20.1376 4.27461L19.6126 3.74961L15.7501 6.56211V1.38711C15.2626 1.19961 14.7751 1.08711 14.2501 0.974609V9.74961H15.1876ZM0.975098 9.74961H9.7501V0.974609C9.2251 1.08711 8.7376 1.23711 8.2501 1.38711V6.56211L4.3876 3.74961C3.8626 4.23711 3.4126 4.76211 2.9626 5.32461L6.9751 8.24961H4.4251L2.1376 6.56211C2.0251 6.74961 1.9126 6.97461 1.8376 7.16211L3.3001 8.24961H1.3876C1.2376 8.73711 1.0876 9.22461 0.975098 9.74961Z" fill="white"/>
<path d="M21.1126 5.40078C20.8126 4.98828 20.5126 4.61328 20.1751 4.23828L15.7501 7.46328V8.21328H17.2501L21.1126 5.40078ZM6.9376 8.25078L2.9626 5.32578C2.8126 5.51328 2.7001 5.70078 2.5501 5.88828C2.5126 5.92578 2.5126 5.96328 2.4751 5.96328C2.3626 6.15078 2.2126 6.37578 2.1001 6.56328L4.3876 8.25078H6.9376Z" fill="#ED4C5C"/>
<path d="M23.025 9.75H14.25V0.975C13.5375 0.825 12.7875 0.75 12 0.75C11.2125 0.75 10.4625 0.825 9.75 0.975V9.75H0.975C0.825 10.4625 0.75 11.2125 0.75 12C0.75 12.7875 0.825 13.5375 0.975 14.25H9.75V23.025C10.4625 23.175 11.2125 23.25 12 23.25C12.7875 23.25 13.5375 23.175 14.25 23.025V14.25H23.025C23.175 13.5375 23.25 12.7875 23.25 12C23.25 11.2125 23.175 10.4625 23.025 9.75Z" fill="#ED4C5C"/>
</g>
<defs>
<clipPath id="clip0_960_24467">
<rect width="24" height="24" fill="white"/>
</clipPath>
</defs>
</svg>
