<svg width="64" height="64" viewBox="0 0 64 64" fill="none" xmlns="http://www.w3.org/2000/svg">
<g clip-path="url(#clip0_1633_28417)">
<path d="M32 64C49.6731 64 64 49.6731 64 32C64 14.3269 49.6731 0 32 0C14.3269 0 0 14.3269 0 32C0 49.6731 14.3269 64 32 64Z" fill="#3C5A9A"/>
<path d="M42.4047 9.82227H35.3159C31.1091 9.82227 26.4301 11.5916 26.4301 17.6894C26.4506 19.8141 26.4301 21.8489 26.4301 24.139H21.5635V31.8833H26.5807V54.1775H35.8001V31.7361H41.8852L42.4357 24.1173H35.6412C35.6412 24.1173 35.6564 20.7281 35.6412 19.7439C35.6412 17.3342 38.1486 17.4722 38.2994 17.4722C39.4926 17.4722 41.8126 17.4756 42.4081 17.4722V9.82227H42.4047Z" fill="white"/>
</g>
<defs>
<clipPath id="clip0_1633_28417">
<rect width="64" height="64" fill="white"/>
</clipPath>
</defs>
</svg>
