<svg width="64" height="64" viewBox="0 0 64 64" fill="none" xmlns="http://www.w3.org/2000/svg">
<path d="M62.5041 32.5978C62.5041 29.9758 62.2914 28.0624 61.8309 26.0781H31.8896V37.9128H49.4645C49.1103 40.8538 47.1969 45.283 42.9448 48.2593L42.8852 48.6555L52.3521 55.9893L53.0079 56.0548C59.0315 50.4917 62.5041 42.3065 62.5041 32.5978Z" fill="#4285F4"/>
<path d="M31.8899 63.7802C40.5001 63.7802 47.7285 60.9454 53.0082 56.0557L42.9451 48.2602C40.2522 50.1382 36.6379 51.4492 31.8899 51.4492C23.4568 51.4492 16.2993 45.8863 13.7479 38.1973L13.3739 38.229L3.5301 45.8472L3.40137 46.2051C8.64546 56.6224 19.4172 63.7802 31.8899 63.7802Z" fill="#34A853"/>
<path d="M13.748 38.1974C13.0748 36.2132 12.6852 34.087 12.6852 31.8903C12.6852 29.6933 13.0748 27.5673 13.7126 25.5831L13.6948 25.1605L3.72763 17.4199L3.40153 17.575C1.24018 21.898 0 26.7524 0 31.8903C0 37.0281 1.24018 41.8823 3.40153 46.2053L13.748 38.1974Z" fill="#FBBC05"/>
<path d="M31.8899 12.3307C37.8781 12.3307 41.9174 14.9174 44.2207 17.079L53.2207 8.29142C47.6933 3.15359 40.5001 0 31.8899 0C19.4172 0 8.64546 7.1575 3.40137 17.5748L13.7125 25.5829C16.2993 17.8939 23.4568 12.3307 31.8899 12.3307Z" fill="#EB4335"/>
</svg>
