<svg width="100" height="100" viewBox="0 0 100 100" fill="none" xmlns="http://www.w3.org/2000/svg">
<g clip-path="url(#clip0_1972_5025)">
<path d="M49.995 99.9901C77.6065 99.9901 99.9901 77.6065 99.9901 49.995C99.9901 22.3835 77.6065 0 49.995 0C22.3835 0 0 22.3835 0 49.995C0 77.6065 22.3835 99.9901 49.995 99.9901Z" fill="#35208A"/>
<path d="M76.0964 40.4096C75.818 39.5048 75.4402 38.6497 75.2115 37.7249C74.9828 36.8002 74.8137 35.5672 74.6447 34.4834C74.4423 32.615 73.8349 30.8132 72.8649 29.2035C71.9488 27.8345 70.7023 26.7186 69.2407 25.959C67.779 25.1995 66.1493 24.8209 64.5025 24.8583C63.4485 24.8583 62.9911 24.8583 62.4443 23.864C62.1398 23.2631 61.7624 22.702 61.3207 22.1935C60.1283 20.9719 58.5658 20.1784 56.876 19.9363C55.017 19.7758 53.1535 20.1887 51.5364 21.1196C50.8776 21.5943 50.1304 21.9324 49.339 22.1139C48.1837 22.0628 47.0507 21.7787 46.0079 21.2787C42.8758 20.2048 39.863 19.9463 37.2379 22.2134C36.5927 22.8708 35.9052 23.4853 35.1797 24.0529C34.3058 24.5596 33.3605 24.9317 32.3756 25.1566C30.7414 25.5925 29.2034 26.3311 27.8415 27.3342C26.4481 28.3191 25.3442 29.6596 24.6446 31.216C23.9451 32.7724 23.6756 34.4878 23.8642 36.1837C23.9799 37.0059 24.2248 37.8046 24.59 38.5502C24.8088 38.9977 25.127 39.3656 25.3755 39.7932C25.8329 40.5886 25.5147 41.0659 25.2363 41.7818C24.3435 43.9701 23.745 46.2672 23.4565 48.6129C23.1184 52.3118 24.2917 56.2991 27.4338 58.417C26.9621 60.5684 27.1665 62.8129 28.0191 64.8437C28.8716 66.8745 30.3307 68.5924 32.1967 69.7623C33.1755 70.3179 34.2261 70.7361 35.3189 71.0053C36.2934 71.1899 37.1688 71.7194 37.7848 72.4968C38.2323 73.0834 38.6101 73.7297 39.0874 74.2965C39.6336 75.0224 40.3556 75.5973 41.1854 75.967C42.3886 76.4443 43.7409 75.8675 44.8247 76.6431C45.6699 77.2596 46.2167 78.1943 47.0023 78.8804C47.8485 79.5783 48.8911 79.9954 49.9853 80.0736C50.9567 80.186 51.9406 80.042 52.839 79.6559C53.1472 79.5167 53.4157 79.288 53.724 79.1687C54.6487 78.7909 54.6387 78.9997 55.3348 79.1687C55.9508 79.3269 56.6009 79.2886 57.1942 79.0593C59.7993 78.065 60.3661 74.8732 62.5835 73.4016C63.4784 72.805 64.4727 72.4073 65.3179 71.6814C66.4713 70.7567 66.7 69.3447 67.6943 68.3404C68.6887 67.3362 70.1304 66.7992 71.1347 65.7154C72.0622 64.6631 72.7418 63.416 73.1234 62.0662C73.5386 60.5929 73.6636 59.053 73.4913 57.5321C73.1338 55.5683 73.3584 53.5429 74.1376 51.7053C75.1944 49.9829 75.9603 48.0983 76.4047 46.1271C76.7382 44.2226 76.6328 42.2672 76.0964 40.4096Z" fill="#FA8D61"/>
<path d="M67.674 35.9054V35.796C67.6787 35.7597 67.6787 35.7229 67.674 35.6866C67.5751 34.5821 67.049 33.5599 66.2078 32.8374C65.3665 32.115 64.2764 31.7495 63.1697 31.8187C62.0995 31.9816 61.1267 32.5329 60.4371 33.3674C59.7475 34.2019 59.3893 35.2611 59.431 36.3429C59.4152 36.8788 59.5164 37.4118 59.7277 37.9047C59.9389 38.3975 60.255 38.8384 60.654 39.1966C61.4893 40.0716 62.2847 40.9566 63.637 40.9069C66.0831 40.7677 67.7337 38.1824 67.674 35.9054Z" fill="#FFB07F"/>
<path d="M36.9792 31.8783C36.4227 31.8235 35.8608 31.8791 35.3259 32.042C34.791 32.2049 34.2935 32.4719 33.862 32.8276C33.4305 33.1833 33.0736 33.6207 32.8116 34.1148C32.5497 34.6088 32.3879 35.1498 32.3356 35.7065C32.3356 35.7065 32.3356 35.7661 32.3356 35.8059V35.9054C32.276 38.1327 33.847 40.698 36.313 40.877C37.6155 40.9765 38.4209 40.2208 39.296 39.3358C39.7303 38.971 40.078 38.514 40.3136 37.998C40.5493 37.482 40.667 36.92 40.6582 36.3528C40.6853 35.2893 40.3283 34.2516 39.6527 33.4298C38.977 32.6081 38.0279 32.0573 36.9792 31.8783Z" fill="#FFB07F"/>
<path d="M66.0736 35.9849C66.0285 35.4957 65.851 35.0281 65.5602 34.6322C65.2694 34.2363 64.8763 33.9271 64.423 33.7377C63.9661 33.5599 63.4655 33.5265 62.989 33.642C62.5125 33.7576 62.0829 34.0166 61.7582 34.384C61.0721 35.1994 60.6943 36.9395 61.4897 37.7747L62.2752 38.6C62.4488 38.7811 62.6572 38.9251 62.8879 39.0236C63.1186 39.122 63.3668 39.1727 63.6176 39.1727C63.8684 39.1727 64.1166 39.122 64.3473 39.0236C64.578 38.9251 64.7864 38.7811 64.9599 38.6C65.3386 38.2828 65.6369 37.8805 65.8305 37.426C66.024 36.9715 66.1073 36.4777 66.0736 35.9849Z" fill="#FF9F63"/>
<path d="M33.927 35.9849C33.9691 35.4962 34.1443 35.0283 34.4335 34.6322C34.7227 34.236 35.115 33.9267 35.5677 33.7377C36.0246 33.5599 36.5251 33.5265 37.0016 33.642C37.4782 33.7576 37.9078 34.0166 38.2325 34.384C38.9186 35.1994 39.2964 36.9395 38.5009 37.7747L37.7154 38.6C37.5427 38.7808 37.3352 38.9247 37.1053 39.023C36.8755 39.1213 36.628 39.172 36.378 39.172C36.128 39.172 35.8806 39.1213 35.6508 39.023C35.4209 38.9247 35.2133 38.7808 35.0407 38.6C34.6588 38.2855 34.3583 37.8836 34.1644 37.4285C33.9706 36.9733 33.8892 36.4782 33.927 35.9849Z" fill="#FF9F63"/>
<path d="M67.2266 43.0546C67.0194 41.43 66.4766 39.8662 65.6327 38.4625C64.7888 37.0589 63.6622 35.8461 62.3246 34.9011C59.2024 32.7135 55.2946 32.276 51.5758 32.3158C47.857 32.3556 43.8598 32.2363 40.3498 33.519C38.8066 34.085 37.3994 34.9686 36.2193 36.1128C35.0391 37.257 34.1123 38.6361 33.4989 40.1611C31.9378 44.029 33.0017 48.1854 34.0855 52.0931C35.1587 56.0346 36.7361 59.8212 38.7788 63.3589C39.6147 64.9895 40.7477 66.4497 42.1197 67.6643C43.5784 68.6531 45.2735 69.2365 47.0317 69.3547C50.323 69.7823 54.6781 69.8419 57.5518 67.9328C59.1603 66.6544 60.4645 65.0343 61.37 63.1898C62.4936 61.2409 63.4611 59.2061 64.2635 57.1045C65.0846 54.9496 65.7785 52.7483 66.3417 50.5121C67.0754 48.0982 67.375 45.5732 67.2266 43.0546Z" fill="#FFB07F"/>
<path d="M58.3777 67.2666C58.8162 66.1334 59.1329 64.9568 59.3223 63.7566C59.6405 61.7679 59.7498 59.3418 58.7654 57.542C58.3107 56.823 57.6849 56.2278 56.944 55.8097C56.2031 55.3915 55.3702 55.1634 54.5196 55.1457C52.8669 54.9965 51.2067 54.9467 49.548 54.9965C46.1275 54.9965 42.1104 55.6826 40.778 59.302C40.0919 61.1514 40.6487 62.7126 40.9072 64.214C41.0427 65.4387 41.4504 66.6176 42.1004 67.6643C43.3334 68.947 45.2823 69.1359 47.0124 69.3547C50.2937 69.7823 54.6588 69.8419 57.5225 67.9328C57.8266 67.7363 58.1127 67.5133 58.3777 67.2666Z" fill="#FFC9A8"/>
<path d="M38.4409 50.88C38.079 50.88 37.7253 50.7727 37.4244 50.5716C37.1236 50.3706 36.8891 50.0849 36.7506 49.7505C36.6121 49.4162 36.5759 49.0484 36.6465 48.6935C36.7171 48.3386 36.8913 48.0126 37.1472 47.7567C37.4031 47.5008 37.7291 47.3266 38.084 47.256C38.4389 47.1854 38.8067 47.2216 39.141 47.3601C39.4754 47.4986 39.7611 47.7331 39.9621 48.0339C40.1632 48.3348 40.2705 48.6885 40.2705 49.0504C40.2679 49.5348 40.0743 49.9987 39.7317 50.3412C39.3892 50.6838 38.9253 50.8774 38.4409 50.88Z" fill="#35208A"/>
<path d="M61.5493 50.88C61.1874 50.88 60.8337 50.7727 60.5328 50.5716C60.232 50.3706 59.9975 50.0849 59.859 49.7505C59.7205 49.4162 59.6843 49.0484 59.7549 48.6935C59.8255 48.3386 59.9997 48.0126 60.2556 47.7567C60.5115 47.5008 60.8375 47.3266 61.1924 47.256C61.5473 47.1854 61.9151 47.2216 62.2494 47.3601C62.5838 47.4986 62.8695 47.7331 63.0705 48.0339C63.2716 48.3348 63.3789 48.6885 63.3789 49.0504C63.3712 49.5332 63.176 49.9941 62.8345 50.3356C62.493 50.6771 62.0321 50.8723 61.5493 50.88Z" fill="#35208A"/>
<path d="M52.6397 60.9427C53.3774 60.6961 54.0926 60.3867 54.7775 60.0179C54.9778 59.9209 55.1489 59.7726 55.2734 59.5881C55.398 59.4036 55.4715 59.1895 55.4867 58.9674C55.5018 58.7454 55.458 58.5232 55.3596 58.3236C55.2613 58.1239 55.1119 57.9537 54.9266 57.8304C54.8103 57.7631 54.6749 57.7364 54.5417 57.7544C54.4086 57.7724 54.2851 57.8341 54.1908 57.9298L54.0815 58.0193C54.0181 58.0858 53.9772 58.1706 53.9648 58.2616C53.9523 58.3527 53.9687 58.4453 54.0119 58.5264C54.2207 58.9043 54.519 58.8247 53.9124 59.0932L53.6738 59.1926C53.2396 58.9364 52.7242 58.8546 52.232 58.9639C51.6155 59.0733 50.5516 59.5506 50.6013 60.2963C50.5957 60.3292 50.5957 60.3629 50.6013 60.3958C50.328 60.4407 50.0493 60.4407 49.776 60.3958C49.7808 60.3561 49.7808 60.3161 49.776 60.2765C49.776 59.5307 48.7817 59.0534 48.1453 58.944C47.8875 58.8879 47.6211 58.8836 47.3616 58.9314C47.1021 58.9792 46.8548 59.0781 46.6339 59.2225C46.381 59.1367 46.1594 58.9774 45.9975 58.7651C46.0222 58.6236 46.0222 58.479 45.9975 58.3375C45.9975 58.2679 45.9279 58.1386 45.8484 58.0989C45.746 58.0431 45.6263 58.0285 45.5136 58.0581C45.4008 58.0877 45.3036 58.1592 45.2418 58.258C44.5657 59.2523 45.4507 60.0776 46.3455 60.3759C47.5288 60.7736 48.7319 61.5989 50.0146 61.6785C50.0146 62.0961 50.1041 62.5137 50.1141 62.9413C50.0591 63.3704 50.0591 63.8048 50.1141 64.2339H49.8754C48.1378 64.0693 46.4926 63.3752 45.1623 62.2452C44.9535 62.0861 44.6751 62.4441 44.8739 62.6131C47.6879 64.9697 52.5502 65.8248 54.9266 62.3447C55.0658 62.1359 54.7576 61.9072 54.5786 62.0762C53.5273 63.2942 52.0445 64.057 50.4422 64.2041C50.5749 63.7458 50.6088 63.2645 50.5416 62.7921C50.5393 62.4097 50.5127 62.0277 50.4621 61.6486H50.5615C51.2844 61.5137 51.9842 61.2759 52.6397 60.9427Z" fill="#35208A"/>
<path d="M60.3059 35.796C60.6912 36.2434 60.9787 36.7664 61.1499 37.3315C61.3211 37.8966 61.3723 38.4912 61.3002 39.0773C61.3002 39.3358 61.6582 39.3656 61.7278 39.1369C61.8851 38.4878 61.8576 37.8076 61.6485 37.1733C61.4394 36.5389 61.057 35.9757 60.5445 35.5474C60.5116 35.5157 60.4674 35.4985 60.4217 35.4994C60.376 35.5004 60.3326 35.5194 60.3009 35.5524C60.2693 35.5853 60.252 35.6295 60.253 35.6752C60.2539 35.7209 60.2729 35.7643 60.3059 35.796Z" fill="#35208A"/>
<path d="M62.4937 37.4465C62.6485 37.9055 62.7584 38.3783 62.8218 38.8585C62.8218 39.3059 62.6826 39.7534 62.7323 40.1909C62.7323 40.3102 62.9113 40.4295 63.0107 40.3003C63.6372 39.5844 63.319 37.9735 62.7522 37.3173C62.6428 37.188 62.4539 37.3173 62.4937 37.4664V37.4465Z" fill="#35208A"/>
<path d="M41.5336 34.2845C40.5393 34.3442 40.2907 35.965 40.758 36.6212C40.788 36.6591 40.8297 36.686 40.8765 36.6978C40.9234 36.7095 40.9728 36.7054 41.017 36.6861C41.0613 36.6668 41.098 36.6334 41.1213 36.5911C41.1446 36.5488 41.1532 36.4999 41.1458 36.4522C41.0168 36.0952 40.9927 35.7088 41.0762 35.3385C41.2203 35.0102 41.3969 34.6971 41.6032 34.4039C41.6102 34.3917 41.6139 34.3779 41.6139 34.3639C41.6139 34.3499 41.6101 34.3361 41.603 34.324C41.596 34.3119 41.5858 34.3019 41.5736 34.2949C41.5615 34.288 41.5476 34.2844 41.5336 34.2845Z" fill="#35208A"/>
<path d="M42.4285 35.3883C41.9612 35.5673 42.001 36.3826 42.0606 36.7903C42.1041 37.1068 42.2155 37.4101 42.3871 37.6796C42.5587 37.949 42.7865 38.1782 43.055 38.3514C43.0956 38.3673 43.1404 38.3694 43.1823 38.3574C43.2243 38.3453 43.2611 38.3198 43.2871 38.2847C43.3132 38.2497 43.3269 38.207 43.3263 38.1634C43.3256 38.1197 43.3107 38.0775 43.2837 38.0432C42.8831 37.6764 42.6083 37.1928 42.4981 36.661C42.4186 36.2633 42.6274 35.7761 42.4981 35.4181C42.4981 35.4181 42.4981 35.4181 42.4385 35.4181L42.4285 35.3883Z" fill="#35208A"/>
<path d="M71.1544 41.6426C71.2837 42.6369 71.8206 43.4821 71.8703 44.5162C71.9141 45.7132 71.6397 46.9004 71.0749 47.9566C71.0446 48.0067 71.0354 48.0668 71.0494 48.1237C71.0633 48.1806 71.0994 48.2296 71.1495 48.2599C71.1996 48.2902 71.2597 48.2994 71.3165 48.2854C71.3734 48.2714 71.4224 48.2354 71.4527 48.1853C72.0927 47.1337 72.4043 45.915 72.3476 44.6853C72.3476 43.6909 72.109 42.2392 71.2737 41.5929C71.2737 41.5929 71.1445 41.5929 71.1544 41.6426Z" fill="#35208A"/>
<path d="M73.7393 45.5404C73.4542 46.3385 73.2575 47.1654 73.1526 48.0063C72.791 48.9947 72.2887 49.9257 71.6611 50.7706C71.5219 50.9695 71.8301 51.2081 71.9992 51.0291C72.7176 50.2427 73.257 49.3097 73.5802 48.2947C73.8486 47.5191 74.2464 46.306 73.8287 45.5404C73.8287 45.5404 73.7691 45.5404 73.7492 45.5404H73.7393Z" fill="#35208A"/>
<path d="M27.7714 42.4381C25.3552 44.029 25.1066 48.0362 26.2501 50.3927C26.3595 50.6214 26.7572 50.4623 26.6677 50.2237C26.0986 48.9168 25.9257 47.4716 26.1705 46.0674C26.5059 44.7921 27.0721 43.589 27.841 42.5176C27.841 42.5176 27.841 42.4082 27.7615 42.4381H27.7714Z" fill="#35208A"/>
<path d="M28.776 46.4055C28.3884 47.4099 28.2937 48.5038 28.5032 49.5599C28.7127 50.616 29.2176 51.591 29.9593 52.3715C30.1283 52.5405 30.4465 52.3217 30.2974 52.1129C29.6825 51.3241 29.257 50.4047 29.0536 49.4255C28.8502 48.4464 28.8743 47.4335 29.1241 46.4651C29.1372 46.419 29.1316 46.3695 29.1082 46.3275C29.0849 46.2856 29.0459 46.2546 28.9998 46.2414C28.9536 46.2282 28.9041 46.2339 28.8622 46.2572C28.8202 46.2805 28.7892 46.3195 28.776 46.3657V46.4055Z" fill="#35208A"/>
<path d="M48.6431 29.1439C48.9186 28.8359 49.1649 28.503 49.3789 28.1495C49.7607 27.6316 50.2363 27.1897 50.7809 26.8469C51.7628 26.2448 52.9012 25.9472 54.0522 25.9918C54.2909 25.9918 54.3704 25.604 54.1119 25.5643C52.8557 25.4199 51.5893 25.7303 50.5422 26.4393C49.7269 26.9663 48.484 28.0203 48.5536 29.0842C48.5544 29.1 48.5594 29.1153 48.5681 29.1285C48.5768 29.1417 48.5888 29.1524 48.6029 29.1595C48.6171 29.1666 48.6328 29.1698 48.6486 29.1688C48.6644 29.1678 48.6797 29.1626 48.6928 29.1538L48.6431 29.1439Z" fill="#35208A"/>
<path d="M52.7691 28.4279C53.5844 28.2788 54.2506 27.7419 55.1157 27.6524C55.9558 27.5956 56.7975 27.7387 57.5717 28.07C57.8103 28.1694 57.9794 27.7717 57.7507 27.6524C56.9156 27.2428 55.9787 27.0872 55.056 27.2049C54.2804 27.3043 53.0674 27.5828 52.6895 28.3285C52.6833 28.3405 52.6807 28.354 52.682 28.3674C52.6833 28.3808 52.6885 28.3936 52.6969 28.4041C52.7053 28.4147 52.7166 28.4225 52.7294 28.4268C52.7423 28.431 52.756 28.4314 52.7691 28.4279Z" fill="#35208A"/>
<path d="M35.9056 28.9649C36.5022 27.0459 37.8147 26.1012 39.8829 26.5586C40.1017 26.6084 40.2806 26.2703 40.042 26.1609C38.1726 25.3058 35.5576 26.7476 35.6172 28.9152C35.6188 28.9544 35.6341 28.9918 35.6602 29.021C35.6864 29.0503 35.722 29.0695 35.7608 29.0753C35.7996 29.0812 35.8392 29.0734 35.8729 29.0533C35.9066 29.0331 35.9322 29.0019 35.9453 28.9649H35.9056Z" fill="#35208A"/>
<path d="M47.837 72.994C48.1054 73.9087 49.577 74.3065 50.4123 74.4357C51.5486 74.6313 52.7175 74.4201 53.7135 73.8391C53.7541 73.8042 53.7812 73.756 53.79 73.7031C53.7987 73.6501 53.7886 73.5958 53.7613 73.5496C53.7341 73.5034 53.6914 73.4682 53.6409 73.4503C53.5903 73.4323 53.5351 73.4327 53.4848 73.4514C52.4786 73.9614 51.3323 74.1257 50.2233 73.9187C49.3782 73.7397 48.712 73.0536 47.9066 72.9244C47.897 72.9226 47.8872 72.9231 47.8779 72.926C47.8687 72.9289 47.8603 72.934 47.8534 72.9408C47.8466 72.9477 47.8415 72.9561 47.8386 72.9653C47.8357 72.9746 47.8352 72.9844 47.837 72.994Z" fill="#35208A"/>
<path d="M53.4551 75.9869C55.4437 76.0465 58.2179 74.6246 58.4267 72.4272C58.4267 72.2382 58.1881 72.2084 58.0986 72.3377C57.6602 73.1808 57.0742 73.9385 56.3685 74.5749C55.53 75.2119 54.508 75.5607 53.4551 75.5693C53.3971 75.5693 53.3414 75.5923 53.3004 75.6333C53.2594 75.6744 53.2363 75.73 53.2363 75.788C53.2363 75.846 53.2594 75.9017 53.3004 75.9427C53.3414 75.9837 53.3971 76.0068 53.4551 76.0068V75.9869Z" fill="#35208A"/>
<path d="M64.5717 65.6955C64.8898 66.0237 65.6455 65.6061 65.9538 65.4271C66.4799 65.1571 66.8975 64.7149 67.137 64.1742C67.1458 64.1331 67.1414 64.0902 67.1243 64.0517C67.1072 64.0132 67.0783 63.9812 67.0418 63.9602C67.0053 63.9392 66.9631 63.9303 66.9213 63.9348C66.8794 63.9393 66.8401 63.957 66.8089 63.9853C66.4817 64.4019 66.1005 64.773 65.6754 65.089C65.4479 65.216 65.208 65.3193 64.9594 65.3972C64.7904 65.4569 64.6512 65.4668 64.5617 65.6359C64.5565 65.645 64.5537 65.6552 64.5537 65.6657C64.5537 65.6762 64.5565 65.6865 64.5617 65.6955H64.5717Z" fill="#35208A"/>
<path d="M35.1095 64.5023C34.9399 64.9017 34.8525 65.3312 34.8525 65.7651C34.8525 66.199 34.9399 66.6285 35.1095 67.0279C35.2616 67.365 35.4945 67.6594 35.7877 67.8849C36.0808 68.1104 36.4251 68.26 36.7899 68.3206C36.818 68.3284 36.8473 68.3306 36.8763 68.3271C36.9052 68.3236 36.9332 68.3144 36.9585 68.3001C36.9839 68.2858 37.0063 68.2666 37.0242 68.2437C37.0422 68.2208 37.0555 68.1945 37.0633 68.1664C37.0712 68.1384 37.0734 68.109 37.0699 68.0801C37.0664 68.0511 37.0572 68.0232 37.0429 67.9978C37.0286 67.9724 37.0094 67.9501 36.9865 67.9321C36.9636 67.9141 36.9373 67.9008 36.9092 67.893C36.529 67.7975 36.1856 67.5917 35.922 67.3016C35.6584 67.0114 35.4864 66.6499 35.4277 66.2623C35.4457 65.6697 35.3821 65.0775 35.2387 64.5023H35.1493H35.1095Z" fill="#35208A"/>
<path d="M63.9746 57.4923C63.4038 57.4942 62.8453 57.3268 62.3698 57.0111C61.8943 56.6955 61.5232 56.2458 61.3034 55.7191C61.0836 55.1924 61.0251 54.6123 61.1353 54.0523C61.2454 53.4923 61.5192 52.9775 61.9221 52.5733C62.325 52.169 62.8388 51.8934 63.3984 51.7813C63.958 51.6692 64.5383 51.7257 65.0658 51.9437C65.5933 52.1617 66.0442 52.5312 66.3615 53.0057C66.6788 53.4801 66.8482 54.038 66.8482 54.6087C66.8405 55.3694 66.5355 56.0968 65.9986 56.6357C65.4616 57.1745 64.7352 57.4819 63.9746 57.4923Z" fill="#E0435B"/>
<path d="M35.7957 57.4923C35.2254 57.4923 34.6679 57.3232 34.1937 57.0063C33.7195 56.6895 33.3499 56.2391 33.1316 55.7122C32.9134 55.1853 32.8563 54.6055 32.9675 54.0462C33.0788 53.4868 33.3534 52.973 33.7567 52.5697C34.16 52.1665 34.6738 51.8918 35.2331 51.7806C35.7925 51.6693 36.3723 51.7264 36.8992 51.9447C37.4261 52.1629 37.8764 52.5325 38.1933 53.0067C38.5101 53.4809 38.6792 54.0384 38.6792 54.6087C38.6715 55.3711 38.3652 56.1 37.8261 56.6391C37.287 57.1782 36.558 57.4845 35.7957 57.4923Z" fill="#E0435B"/>
<path d="M29.2436 69.8916C29.2552 69.8739 29.2613 69.8532 29.2613 69.832C29.2613 69.8108 29.2552 69.7901 29.2436 69.7723C28.9453 69.2155 27.8714 69.1061 27.3345 68.9967C26.4595 68.8178 25.5646 68.7183 24.6796 68.599L24.2421 68.5394C24.1924 68.5394 24.083 68.4797 24.093 68.5394C23.9811 68.3444 23.891 68.1376 23.8245 67.9229C23.4566 67.0677 23.1086 66.2027 22.7307 65.3575C22.5418 64.92 22.3529 64.4924 22.1441 64.0649C22.0148 63.7964 21.8756 63.3092 21.5873 63.1799C20.9409 62.9015 20.4835 64.4924 20.3145 64.8802C19.8969 65.8049 19.519 66.7396 19.1114 67.6643C19.0318 67.8632 18.8926 68.42 18.7136 68.5493C18.4326 68.5764 18.1495 68.5764 17.8684 68.5493L16.6852 68.6487C16.0131 68.6857 15.3466 68.7924 14.6965 68.9669C14.3087 69.0763 13.6127 69.2652 13.7022 69.8121C13.7917 70.359 14.4281 70.6672 14.6965 70.9158C15.2207 71.332 15.7758 71.7077 16.3571 72.0394C16.6479 72.1706 16.9302 72.32 17.2022 72.4869C17.5204 72.7255 17.3613 72.9741 17.2818 73.2923C17.1028 73.9684 16.9238 74.6346 16.7548 75.2809C16.5858 75.9272 16.4963 76.3846 16.4068 76.9415C16.3024 77.3256 16.3024 77.7306 16.4068 78.1148C16.8045 78.9798 18.3954 77.4685 18.7435 77.1801C19.0915 76.8917 19.6781 76.4344 20.1355 76.0466L20.7918 75.4698C20.9111 75.3605 21.2194 74.9329 21.3784 74.9031C21.5375 74.8733 22.3131 75.6886 22.5219 75.8974C22.9893 76.3051 23.4665 76.6829 23.9538 77.0608C24.5774 77.6955 25.3661 78.1432 26.2308 78.3534C26.9964 78.423 26.6285 77.2596 26.5291 76.8023C26.2805 75.7085 25.9325 74.6445 25.6044 73.5707C25.5348 73.342 25.4453 73.1033 25.3955 72.8746C25.3458 72.6459 25.3955 72.6261 25.5745 72.4968C25.9921 72.2383 26.5092 72.0891 26.9566 71.8604C27.6626 71.5025 29.0945 70.8661 29.2933 69.9612C29.2901 69.9469 29.2841 69.9333 29.2756 69.9214C29.267 69.9094 29.2561 69.8993 29.2436 69.8916Z" fill="#FFF896"/>
<path d="M90.0766 42.279C88.8592 42.1877 87.6377 42.1612 86.4175 42.1995L87.4118 41.2052C87.9947 40.7082 88.4977 40.1247 88.9033 39.475C88.9418 39.4149 88.9602 39.3442 88.956 39.2729C88.9518 39.2017 88.9252 39.1336 88.88 39.0784C88.8347 39.0232 88.7732 38.9838 88.7041 38.9657C88.6351 38.9477 88.5621 38.9519 88.4956 38.9779C87.8376 39.372 87.244 39.865 86.7357 40.4395L85.6717 41.4339V39.9424C85.7359 39.1759 85.6789 38.4041 85.5027 37.6554C85.4814 37.5863 85.4386 37.5258 85.3804 37.4828C85.3223 37.4398 85.2519 37.4166 85.1795 37.4166C85.1072 37.4166 85.0368 37.4398 84.9786 37.4828C84.9205 37.5258 84.8776 37.5863 84.8564 37.6554C84.667 38.402 84.5965 39.1738 84.6476 39.9424C84.6476 40.4395 84.6476 40.9367 84.6476 41.4239L83.6532 40.3699C83.1526 39.7842 82.5659 39.2779 81.9131 38.8685C81.8482 38.8315 81.7729 38.8171 81.6989 38.8275C81.625 38.8378 81.5565 38.8724 81.5043 38.9258C81.452 38.9792 81.4189 39.0484 81.4102 39.1225C81.4014 39.1967 81.4174 39.2717 81.4558 39.3358C81.8531 39.9917 82.3457 40.5848 82.9174 41.0958L83.9118 42.1597H82.4203C81.6533 42.0996 80.8816 42.16 80.1333 42.3387C80.0642 42.3599 80.0037 42.4028 79.9607 42.461C79.9177 42.5191 79.8945 42.5895 79.8945 42.6619C79.8945 42.7342 79.9177 42.8046 79.9607 42.8628C80.0037 42.9209 80.0642 42.9638 80.1333 42.985C80.88 43.1739 81.6517 43.2443 82.4203 43.1938H83.872C82.9771 44.039 82.0822 44.8842 81.2867 45.799C81.2126 45.8971 81.1767 46.0188 81.1856 46.1415C81.1946 46.2641 81.2478 46.3793 81.3353 46.4657C81.4229 46.552 81.5388 46.6036 81.6616 46.6108C81.7843 46.6181 81.9056 46.5804 82.0026 46.5049C82.9174 45.7393 83.7725 44.8643 84.6177 43.9992C84.6177 45.2123 84.5481 46.4353 84.6177 47.6285C84.6408 47.7434 84.703 47.8467 84.7936 47.9209C84.8842 47.9952 84.9977 48.0357 85.1149 48.0357C85.232 48.0357 85.3456 47.9952 85.4362 47.9209C85.5268 47.8467 85.589 47.7434 85.6121 47.6285C85.7214 46.4353 85.7016 45.2223 85.6916 44.0092C86.5269 44.8941 87.3621 45.7791 88.2669 46.5646C88.364 46.6401 88.4852 46.6777 88.608 46.6705C88.7307 46.6633 88.8467 46.6117 88.9343 46.5253C89.0218 46.439 89.075 46.3238 89.084 46.2011C89.0929 46.0785 89.057 45.9568 88.9828 45.8586C88.2073 44.9438 87.3422 44.0887 86.4771 43.2435C87.6902 43.2435 88.9033 43.3131 90.1065 43.2435C90.2133 43.2134 90.307 43.1485 90.3726 43.059C90.4382 42.9695 90.472 42.8606 90.4686 42.7496C90.4651 42.6387 90.4247 42.5321 90.3537 42.4468C90.2826 42.3615 90.1851 42.3025 90.0766 42.279Z" fill="white"/>
<path d="M54.0915 7.19899V7.11944C54.0033 6.95798 53.872 6.82416 53.7122 6.73288C53.5525 6.64159 53.3705 6.59642 53.1866 6.60239C53.0044 6.59827 52.8246 6.64432 52.6667 6.73551C52.5089 6.8267 52.3792 6.95952 52.2917 7.11944V7.19899C52.1939 7.36464 52.1424 7.55351 52.1426 7.74587C52.1414 7.93837 52.193 8.1275 52.2917 8.29276C52.3867 8.458 52.5236 8.59527 52.6886 8.69073C52.8536 8.78619 53.0408 8.83645 53.2314 8.83645C53.422 8.83645 53.6092 8.78619 53.7742 8.69073C53.9392 8.59527 54.076 8.458 54.171 8.29276C54.2624 8.12495 54.3103 7.93693 54.3102 7.74587C54.309 7.55497 54.2612 7.36725 54.171 7.19899H54.0915Z" fill="white"/>
<path d="M68.2112 18.2857L68.3405 18.6039C68.3405 18.6039 68.3405 18.6039 68.3405 18.5542L68.3902 18.9022C68.3868 18.5522 68.2478 18.2172 68.0024 17.9676C67.7939 17.7725 67.5297 17.6474 67.2467 17.6096C66.9594 17.5631 66.6649 17.6157 66.4115 17.7588L66.1231 17.898C65.961 18.0566 65.8443 18.2557 65.785 18.4747C65.7058 18.7441 65.7058 19.0306 65.785 19.3C65.8749 19.6371 66.0924 19.9259 66.3916 20.1054C66.5705 20.2114 66.7721 20.273 66.9797 20.2851C67.1873 20.2972 67.3948 20.2595 67.5848 20.175C67.7446 20.1093 67.8895 20.0121 68.0108 19.8891C68.1322 19.7661 68.2274 19.6198 68.2908 19.4591C68.3777 19.2714 68.4169 19.0651 68.4047 18.8587C68.3926 18.6522 68.3295 18.452 68.2212 18.2758L68.2112 18.2857Z" fill="white"/>
<path d="M85.1648 25.2759C85.4082 25.2739 85.6456 25.2 85.8471 25.0633C86.0485 24.9266 86.205 24.7334 86.2968 24.5079C86.3886 24.2825 86.4116 24.0349 86.3629 23.7964C86.3142 23.5578 86.196 23.3391 86.0232 23.1676C85.8504 22.9962 85.6307 22.8797 85.3918 22.833C85.1529 22.7862 84.9055 22.8112 84.6807 22.9048C84.456 22.9984 84.264 23.1564 84.129 23.359C83.994 23.5615 83.9219 23.7995 83.9219 24.0429C83.925 24.3716 84.0571 24.6858 84.2898 24.9179C84.5252 25.1443 84.8382 25.2723 85.1648 25.2759Z" fill="white"/>
<path d="M81.8238 60.2367C82.1613 60.234 82.485 60.1024 82.7286 59.8688C82.9106 59.6899 83.0351 59.4609 83.0862 59.2109C83.1373 58.961 83.1127 58.7015 83.0156 58.4656C82.9184 58.2297 82.7532 58.0281 82.5409 57.8866C82.3286 57.7451 82.0789 57.6701 81.8238 57.6713C81.4875 57.675 81.1661 57.8107 80.9289 58.0491C80.748 58.2252 80.624 58.4514 80.573 58.6986C80.5219 58.9458 80.5461 59.2026 80.6424 59.4359C80.7388 59.6692 80.9028 59.8683 81.1134 60.0075C81.3239 60.1467 81.5714 60.2196 81.8238 60.2168V60.2367Z" fill="white"/>
<path d="M84.3695 77.3789C84.6116 77.3819 84.849 77.3123 85.0512 77.1792C85.2534 77.0461 85.4111 76.8556 85.5042 76.6321C85.5972 76.4086 85.6212 76.1624 85.5732 75.9252C85.5252 75.6879 85.4072 75.4705 85.2346 75.3008C85.0045 75.0724 84.6937 74.9438 84.3695 74.9428C84.2089 74.9427 84.0498 74.9743 83.9014 75.0357C83.7529 75.0972 83.6181 75.1872 83.5044 75.3008C83.2802 75.5296 83.1521 75.8356 83.1465 76.1559C83.1464 76.3165 83.178 76.4756 83.2394 76.624C83.3008 76.7725 83.3909 76.9073 83.5044 77.021C83.7363 77.2467 84.0459 77.3748 84.3695 77.3789Z" fill="white"/>
<path d="M68.0619 80.3619H67.7536H67.9227C68.0822 80.3603 68.2378 80.3119 68.3701 80.2227L68.0917 80.342H67.7934C67.9945 80.3291 68.1908 80.2749 68.3701 80.1829C68.5181 80.094 68.6441 79.9728 68.7386 79.8283C68.833 79.6837 68.8935 79.5197 68.9155 79.3484C68.9375 79.1772 68.9205 79.0031 68.8656 78.8394C68.8108 78.6757 68.7196 78.5265 68.5988 78.4031C68.4034 78.1958 68.1426 78.0619 67.8602 78.0239C67.5778 77.9859 67.291 78.046 67.0477 78.1943C66.7825 78.3495 66.5894 78.6033 66.5107 78.9003C66.4434 79.1505 66.4593 79.4159 66.5562 79.6563C66.6531 79.8967 66.8256 80.099 67.0477 80.2327C67.1831 80.3114 67.3332 80.3617 67.4888 80.3805C67.6444 80.3993 67.8022 80.3862 67.9525 80.342L68.0619 80.3619Z" fill="white"/>
<path d="M58.4373 92.9005V92.801C58.3552 92.5217 58.1705 92.2837 57.9202 92.1348C57.702 92.0148 57.4516 91.9662 57.2043 91.9956C56.9343 92.031 56.6858 92.1617 56.5035 92.364C56.3212 92.5663 56.2171 92.8271 56.21 93.0993V93.2087C56.2128 93.3698 56.2496 93.5284 56.318 93.6743C56.3864 93.8201 56.4849 93.9498 56.6069 94.055C56.7289 94.1601 56.8718 94.2383 57.0262 94.2844C57.1805 94.3305 57.3429 94.3434 57.5026 94.3224C57.65 94.3075 57.7925 94.2617 57.921 94.1881C58.0495 94.1144 58.1611 94.0145 58.2483 93.8948C58.3633 93.7596 58.4426 93.5978 58.4791 93.4242C58.5156 93.2505 58.508 93.0705 58.4572 92.9005H58.4373Z" fill="white"/>
<path d="M40.9863 86.8748C41.2991 86.8709 41.5984 86.7462 41.8215 86.5268C41.9326 86.416 42.0207 86.2843 42.0804 86.1392C42.1401 85.9941 42.1704 85.8385 42.1695 85.6816C42.1714 85.526 42.1415 85.3717 42.0816 85.2281C42.0218 85.0845 41.9333 84.9546 41.8215 84.8464C41.6 84.6233 41.3005 84.495 40.9863 84.4884C40.669 84.4945 40.3662 84.6227 40.1411 84.8464C40.0293 84.9546 39.9408 85.0845 39.8809 85.2281C39.8211 85.3717 39.7912 85.526 39.7931 85.6816C39.7921 85.8385 39.8224 85.9941 39.8822 86.1392C39.9419 86.2843 40.0299 86.416 40.1411 86.5268C40.3689 86.7451 40.6707 86.8694 40.9863 86.8748Z" fill="white"/>
<path d="M10.0925 63.2594C10.2401 63.1412 10.357 62.9891 10.4332 62.8159C10.5094 62.6428 10.5426 62.4538 10.53 62.2651C10.5226 61.95 10.3986 61.6488 10.1819 61.4199L9.9433 61.2807C9.76423 61.1695 9.55749 61.1109 9.3467 61.1116C9.11615 61.1028 8.88804 61.1616 8.69044 61.2807C8.5753 61.351 8.47417 61.442 8.39214 61.5492C8.16788 61.7779 8.03978 62.084 8.03418 62.4043C8.03378 62.5635 8.06525 62.7212 8.12672 62.868C8.1882 63.0149 8.27844 63.148 8.39214 63.2594C8.50217 63.375 8.63497 63.4665 8.78216 63.5281C8.92935 63.5897 9.08773 63.6201 9.24727 63.6174H9.56546C9.77048 63.5631 9.95638 63.453 10.1024 63.2992L10.0925 63.2594Z" fill="white"/>
<path d="M19.29 48.0759C19.6094 48.0477 19.9067 47.9009 20.1232 47.6644C20.3397 47.4279 20.4598 47.1189 20.4598 46.7982C20.4598 46.4776 20.3397 46.1685 20.1232 45.932C19.9067 45.6955 19.6094 45.5487 19.29 45.5205C18.9706 45.5487 18.6733 45.6955 18.4568 45.932C18.2402 46.1685 18.1201 46.4776 18.1201 46.7982C18.1201 47.1189 18.2402 47.4279 18.4568 47.6644C18.6733 47.9009 18.9706 48.0477 19.29 48.0759Z" fill="white"/>
<path d="M14.05 30.1183C14.3984 30.1165 14.7329 29.9813 14.9846 29.7405C15.1061 29.6173 15.202 29.4713 15.2669 29.3109C15.3317 29.1505 15.3642 28.9788 15.3625 28.8058C15.3651 28.6342 15.333 28.4637 15.2681 28.3048C15.2031 28.1459 15.1067 28.0018 14.9846 27.8811C14.7339 27.6375 14.3996 27.4988 14.05 27.4933C13.8755 27.4946 13.7029 27.5304 13.5423 27.5987C13.3817 27.667 13.2362 27.7664 13.1142 27.8912C12.9922 28.0159 12.8961 28.1636 12.8314 28.3257C12.7668 28.4878 12.7348 28.6611 12.7375 28.8356C12.7361 29.0084 12.7692 29.1796 12.8347 29.3395C12.9002 29.4993 12.9968 29.6445 13.1189 29.7667C13.2411 29.8888 13.3863 29.9854 13.5461 30.0509C13.706 30.1164 13.8772 30.1495 14.05 30.1482V30.1183Z" fill="white"/>
<path d="M36.4822 18.1466C36.8112 18.1406 37.1265 18.0131 37.3671 17.7886C37.6169 17.5597 37.7669 17.242 37.7848 16.9036C37.7796 16.5739 37.6456 16.2593 37.4115 16.027C37.1774 15.7947 36.8617 15.6633 36.5319 15.6607C36.3645 15.654 36.1975 15.6812 36.041 15.7407C35.8844 15.8001 35.7414 15.8906 35.6207 16.0067C35.5 16.1228 35.4039 16.2621 35.3384 16.4162C35.2728 16.5704 35.2391 16.7361 35.2393 16.9036C35.2444 17.2317 35.377 17.5449 35.609 17.7768C35.841 18.0088 36.1541 18.1414 36.4822 18.1466Z" fill="white"/>
<path d="M23.3371 17.6991C23.4712 17.6143 23.5977 17.5178 23.7149 17.4107C23.7921 17.3382 23.862 17.2582 23.9237 17.1721C24.092 16.9618 24.191 16.7045 24.2071 16.4356C24.2231 16.1667 24.1554 15.8995 24.0132 15.6707L24.1226 15.9192C24.0763 15.7558 23.989 15.6069 23.8689 15.4868C23.7488 15.3667 23.5999 15.2794 23.4365 15.2332L23.6751 15.3326C23.4658 15.1989 23.2225 15.1279 22.9741 15.1279C22.7257 15.1279 22.4825 15.1989 22.2731 15.3326C22.1464 15.4111 22.0295 15.5046 21.9251 15.611C21.8257 15.7204 21.7262 15.8695 21.6367 15.9888L21.5075 16.2871C21.4637 16.4533 21.4637 16.6281 21.5075 16.7943C21.5317 17.0704 21.6553 17.3283 21.8555 17.5201C22.0151 17.6686 22.2051 17.7806 22.4123 17.8482C22.5783 17.8946 22.7518 17.907 22.9226 17.8848C23.0935 17.8626 23.2581 17.8062 23.4067 17.719L23.3371 17.6991Z" fill="#F7B9E7"/>
<path d="M10.8284 51.924C11.0915 51.8985 11.3358 51.7759 11.5135 51.5801C11.6912 51.3844 11.7896 51.1294 11.7896 50.8651C11.7896 50.6007 11.6912 50.3458 11.5135 50.15C11.3358 49.9542 11.0915 49.8316 10.8284 49.8061C10.5652 49.8316 10.321 49.9542 10.1433 50.15C9.96563 50.3458 9.86719 50.6007 9.86719 50.8651C9.86719 51.1294 9.96563 51.3844 10.1433 51.5801C10.321 51.7759 10.5652 51.8985 10.8284 51.924Z" fill="#F7B9E7"/>
<path d="M28.5476 87.1035V87.3123L28.6768 87.6305C28.7592 87.7811 28.879 87.9079 29.0249 87.9984C29.2512 88.186 29.5363 88.2881 29.8303 88.2868C30.0661 88.278 30.2971 88.2168 30.5064 88.1078C30.8052 87.9303 31.0256 87.646 31.1229 87.3123V87.1035C31.1922 86.8665 31.1922 86.6146 31.1229 86.3776C31.0437 86.0889 30.8708 85.8346 30.6315 85.6546C30.3922 85.4747 30.0999 85.3792 29.8004 85.3833C29.4294 85.3791 29.0719 85.5221 28.8061 85.781C28.6388 85.9508 28.5159 86.1591 28.4482 86.3876C28.3884 86.6258 28.3884 86.8752 28.4482 87.1134L28.5476 87.1035Z" fill="#F7B9E7"/>
<path d="M93.7953 59.2125C93.7131 58.9524 93.5535 58.7234 93.3379 58.5563C93.1276 58.3769 92.8586 58.2813 92.5822 58.2878C92.3068 58.2928 92.04 58.385 91.8202 58.5511C91.6005 58.7173 91.4391 58.9488 91.3592 59.2125C91.3078 59.4013 91.3006 59.5994 91.3381 59.7914C91.3757 59.9835 91.4571 60.1642 91.5759 60.3197C91.6946 60.4752 91.8477 60.6012 92.0231 60.6879C92.1985 60.7747 92.3915 60.8198 92.5872 60.8198C92.7829 60.8198 92.9759 60.7747 93.1513 60.6879C93.3267 60.6012 93.4797 60.4752 93.5985 60.3197C93.7173 60.1642 93.7987 59.9835 93.8363 59.7914C93.8738 59.5994 93.8666 59.4013 93.8152 59.2125H93.7953Z" fill="#F7B9E7"/>
<path d="M76.0662 29.1637C76.3974 29.159 76.7142 29.0273 76.9511 28.7958C77.1226 28.6201 77.2387 28.3979 77.2849 28.1568C77.3312 27.9157 77.3056 27.6664 77.2113 27.4397C77.117 27.213 76.9582 27.019 76.7546 26.8818C76.5511 26.7446 76.3117 26.6703 76.0662 26.668C75.7349 26.6727 75.4182 26.8044 75.1812 27.0359C74.9513 27.269 74.8226 27.5834 74.8232 27.9109C74.8283 28.2399 74.9606 28.5541 75.1923 28.7877C75.424 29.0213 75.7372 29.1561 76.0662 29.1637Z" fill="#F7B9E7"/>
</g>
<defs>
<clipPath id="clip0_1972_5025">
<rect width="100" height="100" fill="white"/>
</clipPath>
</defs>
</svg>
