<svg width="180" height="180" viewBox="0 0 180 180" fill="none" xmlns="http://www.w3.org/2000/svg">
<g clip-path="url(#clip0_2288_5179)">
<path d="M90.2487 2.51721C138.568 2.66058 177.623 41.9477 177.48 90.2675C177.336 138.587 138.049 177.642 89.7295 177.499C41.4097 177.355 2.35507 138.068 2.49844 89.7483C2.64181 41.4285 41.9289 2.37384 90.2487 2.51721Z" stroke="white" stroke-width="5"/>
<path d="M144.222 70.2854C142.939 68.1315 141.271 66.2324 139.3 64.6833C137.143 62.4984 134.741 60.5705 132.141 58.9381C126.61 55.6448 120.113 55.2332 113.831 55.3585C106.563 55.5171 99.3449 56.6058 92.3533 58.598C92.3099 58.5991 92.2678 58.6134 92.2326 58.639C92.1975 58.6646 92.1709 58.7002 92.1565 58.7412L91.2795 60.6384C91.2592 60.6827 91.2499 60.7312 91.2523 60.7799C91.2548 60.8286 91.2688 60.876 91.2934 60.9181C91.318 60.9602 91.3523 60.9958 91.3934 61.0218C91.4346 61.0479 91.4815 61.0637 91.53 61.0679C98.206 61.5512 104.846 61.4259 111.54 61.5154C118.234 61.6049 124.874 63.0904 128.615 69.1936C130.566 72.3615 133.053 78.6258 137.707 78.5542C141.286 78.5542 139.353 74.2766 137.975 71.8783C139.604 73.0775 141.805 74.5809 143.47 74.0082C145.134 73.4354 144.777 71.5919 144.222 70.2854Z" fill="white"/>
<path d="M87.8255 58.7412C87.81 58.6973 87.7807 58.6595 87.742 58.6337C87.7033 58.6079 87.6572 58.5954 87.6107 58.598C80.6195 56.6043 73.4014 55.5156 66.1331 55.3585C59.8509 55.2332 53.3361 55.6448 47.8235 58.9381C45.224 60.5713 42.8217 62.4991 40.6643 64.6833C38.7158 66.2405 37.0663 68.1387 35.796 70.2854C35.2949 71.4129 34.9727 73.2027 36.2972 73.865C37.9259 74.742 40.3958 73.0775 42.0961 71.8246C40.718 74.205 38.8208 78.4827 42.3288 78.5005C47.0181 78.5005 49.488 72.3615 51.4389 69.1399C55.0185 63.1799 61.4796 61.6049 68.0661 61.4617C74.6526 61.3185 81.7044 61.4617 88.5414 61.0142C88.5904 61.0116 88.6378 60.9965 88.6793 60.9703C88.7207 60.9441 88.7548 60.9078 88.7781 60.8646C88.8015 60.8215 88.8133 60.7732 88.8126 60.7241C88.8119 60.6751 88.7987 60.6271 88.7741 60.5847C88.4519 59.994 88.1297 59.3676 87.8255 58.7412Z" fill="white"/>
<path d="M95.5036 30.7666C95.4576 30.7487 95.4065 30.7487 95.3604 30.7666C94.0829 31.3124 93.0421 32.2961 92.4251 33.5408C93.1232 30.9993 93.6243 27.6882 91.566 27.1512C90.1163 26.7754 88.9708 28.941 88.4339 29.9433C87.8692 30.9737 87.4648 32.0842 87.2347 33.2365C86.9663 31.4467 86.4114 29.5138 84.9259 29.2811C82.456 28.8694 82.4918 33.1292 82.3844 34.6505C81.8672 41.7014 83.7605 48.7189 87.7538 54.553C88.9887 56.3428 89.9194 56.3428 91.3334 54.553C93.0849 52.1366 94.3772 49.4186 95.1456 46.5347C96.0726 43.0849 96.6718 39.5553 96.9354 35.9928C96.9891 34.4178 97.7051 31.1425 95.5036 30.7666Z" fill="white"/>
<path d="M158.666 104.793C158.629 104.705 158.567 104.631 158.487 104.579C158.407 104.528 158.313 104.503 158.218 104.506H122.297C122.237 104.523 122.183 104.554 122.139 104.598C122.095 104.642 122.063 104.697 122.047 104.757C119.559 112.56 133.233 116.122 140.356 116.122C147.48 116.122 161.082 112.596 158.666 104.793Z" fill="#FA8D61"/>
<path d="M122.028 104.148C121.945 104.174 121.87 104.223 121.813 104.29C121.756 104.356 121.719 104.438 121.706 104.524C120.704 109.697 134.557 108.981 138.065 109.052C142.7 109.251 147.344 109.017 151.936 108.354C153.994 108.014 158.486 107.567 159.095 105.437C160.419 100.551 126.807 100.229 122.028 104.148Z" fill="#96CBEB"/>
<path d="M159.078 104.99C156.234 99.8559 152.92 94.9967 149.18 90.4743C145.403 85.4449 141.394 80.5409 137.439 75.6011C137.35 75.4986 137.24 75.4165 137.116 75.3602C136.993 75.3039 136.859 75.2748 136.723 75.2748C136.587 75.2748 136.453 75.3039 136.33 75.3602C136.206 75.4165 136.096 75.4986 136.007 75.6011C130.388 84.9271 125.632 94.746 121.796 104.936C121.492 105.759 123.049 106.081 123.371 105.294C127.358 95.2979 132.059 85.6019 137.439 76.2812H136.025C139.891 81.0241 143.721 85.785 147.39 90.5996C151.059 95.4141 154.084 100.658 157.986 105.33C158.344 105.741 159.364 105.491 159.095 104.954L159.078 104.99Z" fill="white"/>
<path d="M141.949 108.909C141.143 97.8841 138.477 86.9663 137.528 75.9411C137.528 75.1178 135.846 75.0999 135.917 75.9411C136.866 86.9484 138.727 97.9735 140.553 108.909C140.66 109.607 142.003 109.643 141.949 108.909Z" fill="white"/>
<path d="M101.41 35.0084C99.6203 35.9928 99.2802 38.3733 99.2444 40.2347C99.3796 43.8271 98.1883 47.3437 95.8975 50.1143C94.1138 52.0977 92.135 53.8965 89.9911 55.4837C87.8674 53.8854 85.9016 52.0874 84.1206 50.1143C81.8635 47.479 80.6701 44.0967 80.7737 40.6284C80.7737 38.6954 80.6663 36.3687 78.8765 35.1695C74.76 32.4311 72.6659 39.6619 72.6301 42.4182C72.6181 44.6422 73.1055 46.8405 74.0565 48.8509C75.0075 50.8614 76.3978 52.6326 78.1248 54.034C81.506 56.3732 85.5217 57.6223 89.6332 57.6136H90.4386C94.4368 57.6187 98.3473 56.4419 101.679 54.2309C103.469 52.8323 104.914 51.0418 105.904 48.997C106.894 46.9523 107.402 44.7078 107.388 42.4361C107.388 39.7156 105.598 32.8607 101.41 35.0084Z" fill="#96CBEB"/>
<path d="M104.506 53.2465C103.701 51.5462 101.875 51.4567 100.229 51.6715H100.014H99.7814C97.3651 52.4232 95.5217 54.5709 93.4992 56.0207C92.2642 56.9156 91.1366 58.0431 89.9196 59.0454C88.7741 58.0431 87.6644 56.8977 86.34 56.0207C84.2996 54.5709 82.474 52.4411 80.0399 51.6715H79.8072H79.5924C78.8246 51.4226 77.9965 51.4313 77.2341 51.6962C76.4717 51.9611 75.8166 52.4677 75.3685 53.1391C75.0309 53.9969 74.9884 54.9427 75.2476 55.8274C75.5069 56.712 76.0532 57.4853 76.8004 58.0252C80.1115 60.9605 85.3735 61.6048 89.5795 60.7457C89.6699 60.7288 89.7555 60.6921 89.8301 60.6383C89.9111 60.6925 90.0026 60.7291 90.0986 60.7457C94.2867 61.5332 99.5666 60.9784 102.878 58.0252C103.634 57.5163 104.203 56.7734 104.497 55.9103C104.792 55.0472 104.795 54.1115 104.506 53.2465Z" fill="#FA8D61"/>
<path d="M21.316 104.793C21.3556 104.704 21.4212 104.629 21.5043 104.577C21.5873 104.526 21.6839 104.501 21.7813 104.506H57.7026C57.761 104.526 57.8141 104.558 57.8576 104.602C57.9011 104.645 57.9339 104.698 57.9531 104.757C60.4231 112.56 46.7669 116.122 39.6435 116.122C32.5201 116.122 18.8461 112.596 21.316 104.793Z" fill="#FA8D61"/>
<path d="M57.9711 104.148C58.0547 104.174 58.1293 104.223 58.1863 104.29C58.2433 104.356 58.2803 104.438 58.2932 104.524C59.2955 109.697 45.4425 108.981 41.9345 109.052C37.2992 109.251 32.6555 109.017 28.0636 108.354C25.9874 108.014 21.495 107.567 20.9044 105.437C19.562 100.551 53.1744 100.229 57.9711 104.148Z" fill="#96CBEB"/>
<path d="M20.923 104.99C23.767 99.8559 27.0803 94.9967 30.8206 90.4743C34.5971 85.4449 38.5347 80.5051 42.5438 75.6011C42.6345 75.4982 42.7461 75.4158 42.871 75.3594C42.996 75.303 43.1316 75.2738 43.2687 75.2738C43.4058 75.2738 43.5414 75.303 43.6663 75.3594C43.7913 75.4158 43.9029 75.4982 43.9935 75.6011C49.605 84.931 54.3614 94.7492 58.2045 104.936C58.5088 105.759 56.9517 106.081 56.6295 105.294C52.6438 95.2943 47.9361 85.5978 42.5438 76.2812H43.9935C40.1097 81.0241 36.2974 85.785 32.6283 90.5996C28.9592 95.4141 25.9345 100.658 22.0148 105.33C21.6569 105.741 20.6546 105.491 20.923 104.954V104.99Z" fill="white"/>
<path d="M38.0507 108.909C38.8382 97.8841 41.5229 86.9663 42.4536 75.9411C42.4536 75.1178 44.2434 75.0999 44.0823 75.9411C43.1337 86.9484 41.2544 97.9735 39.3752 108.909C39.2678 109.607 37.9254 109.643 37.9791 108.909H38.0507Z" fill="white"/>
<path d="M87.6997 52.6916C87.6112 53.3321 87.5694 53.9781 87.5744 54.6246V57.4883C87.5744 59.7792 87.5744 62.0881 87.5744 64.3969C87.5744 70.6135 87.5744 76.8241 87.5744 83.0287C87.5744 96.5954 87.5744 110.162 87.5744 123.729C87.5744 128.49 87.3059 133.322 87.5744 138.047C87.5744 138.731 87.8459 139.386 88.3293 139.87C88.8126 140.353 89.4682 140.624 90.1517 140.624C90.8352 140.624 91.4908 140.353 91.9741 139.87C92.4575 139.386 92.729 138.731 92.729 138.047C93.087 133.984 92.8901 129.796 92.908 125.698C92.908 119.374 92.908 113.05 92.908 106.726C92.908 93.2485 92.908 79.8787 92.7648 66.312C92.7648 63.6273 92.7648 60.9426 92.7648 58.2579C92.7648 57.2198 92.7648 56.1638 92.7648 55.1079C92.7648 54.6962 92.7648 54.2846 92.7648 53.8908V53.1212C92.7648 52.3516 92.7648 53.4255 92.7648 52.6558C92.7648 52.0293 92.5159 51.4283 92.0728 50.9853C91.6298 50.5422 91.0289 50.2933 90.4023 50.2933C89.7757 50.2933 89.1748 50.5422 88.7317 50.9853C88.2887 51.4283 88.0397 52.0293 88.0397 52.6558L87.6997 52.6916Z" fill="white"/>
<path d="M104.775 142.844C103.469 141.972 102.055 141.274 100.569 140.768C97.2759 139.389 98.3677 137.188 97.9202 134.432C97.4728 131.675 94.8776 130.44 92.3718 130.029C89.5798 129.563 85.8928 129.742 83.6913 131.819C82.9437 132.516 82.4468 133.441 82.2774 134.45C82.1967 135.217 82.1967 135.991 82.2774 136.758C82.3122 137.363 82.2395 137.969 82.0626 138.548C81.8244 139.122 81.4564 139.632 80.9874 140.039C80.5184 140.446 79.9613 140.738 79.36 140.893C77.0512 141.806 73.9906 142.969 73.5074 145.779C72.9883 148.249 75.5119 149.466 77.3912 150.343C83.1442 152.82 89.4945 153.567 95.6651 152.491C99.7995 151.757 111.147 148.553 104.775 142.844Z" fill="white"/>
<path d="M83.3508 140.947C86.3827 142.079 89.7103 142.142 92.783 141.126C92.8394 141.109 92.892 141.082 92.9378 141.045C92.9837 141.008 93.0218 140.963 93.05 140.911C93.0783 140.86 93.0961 140.803 93.1025 140.745C93.1089 140.686 93.1037 140.627 93.0873 140.571C93.0708 140.514 93.0434 140.462 93.0066 140.416C92.9698 140.37 92.9244 140.332 92.8729 140.304C92.8213 140.275 92.7648 140.258 92.7063 140.251C92.6479 140.245 92.5888 140.25 92.5324 140.266C89.58 140.926 86.5132 140.877 83.5834 140.123C83.0465 139.962 82.8496 140.768 83.3508 140.947Z" fill="#35208A"/>
<path d="M75.2971 146.477C77.9818 151.095 86.0359 151.506 90.6893 151.417C93.7319 151.432 96.7559 150.942 99.6383 149.967C102.17 149.273 104.434 147.832 106.135 145.833C106.314 145.546 105.956 145.278 105.706 145.403C103.567 146.788 101.336 148.026 99.0298 149.108C96.4521 149.952 93.7595 150.393 91.0473 150.415C85.8569 150.558 79.5031 149.967 75.6192 146.155C75.5765 146.103 75.5148 146.07 75.4477 146.063C75.3805 146.056 75.3135 146.076 75.2613 146.119C75.2091 146.162 75.1759 146.224 75.1692 146.291C75.1625 146.358 75.1827 146.425 75.2255 146.477H75.2971Z" fill="#35208A"/>
<path d="M94.4658 54.2667C94.4658 54.2667 94.4658 54.2667 94.4658 54.1593C94.4732 54.1178 94.4732 54.0754 94.4658 54.034C94.0005 51.4746 91.638 48.8257 88.7922 49.8817C85.9464 50.9376 85.32 54.1951 85.66 56.7008C85.7386 57.9907 86.3213 59.198 87.2824 60.062C88.2435 60.9259 89.5058 61.3772 90.7968 61.3185C93.9826 60.9426 94.7343 56.9156 94.4658 54.2667Z" fill="#96CBEB"/>
<path d="M86.9126 35.8855C86.5227 40.2112 87.0159 44.5711 88.3624 48.7004C88.4877 49.0584 89.0962 49.0405 89.0783 48.6109C88.953 46.4811 88.3982 44.387 88.1476 42.275C87.897 40.1631 87.897 38.0153 87.7002 35.8855C87.7002 35.781 87.6587 35.6809 87.5848 35.607C87.511 35.5332 87.4108 35.4917 87.3064 35.4917C87.202 35.4917 87.1018 35.5332 87.028 35.607C86.9541 35.6809 86.9126 35.781 86.9126 35.8855Z" fill="#35208A"/>
<path d="M91.9062 35.4917C91.6309 37.4718 91.5172 39.4711 91.5661 41.4696C91.5661 43.7248 91.1902 46.0157 91.226 48.2709C91.226 48.7183 91.942 48.8436 92.0314 48.3782C92.3657 46.2405 92.5392 44.0807 92.5505 41.9171C92.7627 39.7774 92.7146 37.6198 92.4073 35.4917C92.3878 35.441 92.3534 35.3975 92.3087 35.3668C92.264 35.3361 92.211 35.3196 92.1567 35.3196C92.1025 35.3196 92.0495 35.3361 92.0047 35.3668C91.96 35.3975 91.9256 35.441 91.9062 35.4917Z" fill="#35208A"/>
<path d="M85.6774 52.5664C85.3975 52.9108 85.2179 53.3257 85.1583 53.7655C85.1583 54.1235 84.9614 54.7141 85.391 54.911C85.8205 55.1079 86.0353 54.5888 86.0711 54.2488C86.1487 53.8164 86.2624 53.3913 86.4112 52.978C86.5365 52.5843 85.9637 52.2084 85.6774 52.5664Z" fill="#35208A"/>
<path d="M93.4449 53.0496C93.6854 53.4725 93.8547 53.9321 93.9461 54.4099C93.9461 54.9289 94.8946 54.8215 94.8768 54.2846C94.8588 53.9351 94.7646 53.5938 94.6007 53.2846C94.4368 52.9754 94.2073 52.7058 93.9282 52.4948C93.6418 52.2621 93.2659 52.6917 93.4449 52.9959V53.0496Z" fill="#35208A"/>
<path d="M66.7592 57.542C60.9593 57.1694 55.1543 58.188 49.8277 60.5131C46.6419 61.8733 40.8787 64.8802 41.7557 69.2294C42.3464 72.1647 46.8388 74.0261 48.2527 70.5896C48.4882 70.0435 48.5407 69.4358 48.4024 68.8574C48.264 68.2789 47.9423 67.7607 47.4853 67.3802C47.0282 66.9996 46.4603 66.7771 45.8664 66.7459C45.2724 66.7147 44.6843 66.8764 44.1899 67.2069C43.6529 67.6007 44.1899 68.5135 44.7089 68.1197C45.1033 67.8807 45.5747 67.8032 46.0248 67.9032C46.4749 68.0032 46.8691 68.2731 47.1251 68.6567C48.5212 70.4465 45.6933 71.6277 44.2973 71.1445C41.7915 70.2496 42.8296 66.8669 44.0467 65.4708C46.1411 63.3628 48.7048 61.7804 51.528 60.8531C56.4858 59.0633 61.8015 59.2065 66.7771 57.7031C66.8004 57.6938 66.8203 57.6778 66.8344 57.657C66.8484 57.6363 66.8559 57.6118 66.8559 57.5868C66.8559 57.5617 66.8484 57.5373 66.8344 57.5165C66.8203 57.4958 66.8004 57.4797 66.7771 57.4704L66.7592 57.542Z" fill="#35208A"/>
<path d="M113.294 57.7747C116.283 58.6696 119.505 58.7054 122.548 59.296C125.658 59.8486 128.673 60.8493 131.497 62.2671C132.932 62.9665 134.259 63.8709 135.434 64.9518C137.027 66.5447 138.566 70.4465 135.237 71.3414C131.031 72.4689 132.91 66.1867 135.237 68.0302C135.756 68.4598 136.508 67.7081 135.989 67.2964C134.038 65.7214 131.765 67.2964 131.711 69.6768C131.711 72.7732 135.649 73.149 137.349 71.1803C141.144 66.8132 134.378 62.4282 131.049 60.8889C125.518 58.2818 119.413 57.1298 113.312 57.542C113.289 57.5513 113.269 57.5673 113.255 57.5881C113.241 57.6088 113.233 57.6333 113.233 57.6583C113.233 57.6834 113.241 57.7079 113.255 57.7286C113.269 57.7493 113.289 57.7654 113.312 57.7747H113.294Z" fill="#35208A"/>
<path d="M87.8966 130.655C88.6111 131.042 89.4108 131.245 90.2233 131.245C91.0359 131.245 91.8356 131.042 92.5501 130.655C92.6247 130.612 92.6829 130.545 92.7157 130.465C92.7486 130.385 92.7543 130.297 92.7319 130.213C92.7095 130.13 92.6603 130.056 92.5919 130.003C92.5234 129.951 92.4396 129.922 92.3532 129.921C91.6373 129.921 90.9392 130.19 90.2054 130.208C89.4914 130.155 88.7805 130.065 88.0756 129.939C87.6997 129.939 87.6281 130.405 87.8966 130.584V130.655Z" fill="#35208A"/>
<path d="M61.6944 32.986C61.7104 32.9524 61.7186 32.9157 61.7186 32.8786C61.7186 32.8414 61.7104 32.8048 61.6944 32.7712C61.1575 31.7689 59.2245 31.572 58.258 31.3752C56.683 31.0709 55.0901 30.874 53.4793 30.6592L52.7096 30.5519C52.6023 30.5519 52.4054 30.4624 52.4412 30.5519C52.2251 30.2084 52.0622 29.8343 51.9579 29.4422C51.2957 27.903 50.6514 26.3637 49.9713 24.8245C49.6312 24.037 49.2911 23.2674 48.9153 22.4978C48.7005 22.0324 48.432 21.1375 47.913 20.9048C46.7496 20.4037 45.9263 23.2853 45.622 23.9654C44.8882 25.6299 44.1902 27.3123 43.4743 28.9768C43.3132 29.3348 43.0626 30.3371 42.7405 30.5697C42.2434 30.648 41.7399 30.678 41.237 30.6592L39.1072 30.8382C37.8975 30.9061 36.698 31.098 35.5276 31.411C34.8296 31.6078 33.5767 31.9479 33.7378 32.9323C33.8989 33.9167 35.0443 34.4894 35.5276 34.919C36.4742 35.6724 37.4797 36.3487 38.5344 36.9414C38.9998 37.2278 39.6083 37.4247 40.0379 37.7468C40.4674 38.069 40.3421 38.6238 40.1811 39.1966C39.8589 40.4136 39.5367 41.6307 39.2504 42.7762C38.9867 43.7662 38.7776 44.77 38.6239 45.783C38.4275 46.4672 38.4275 47.1929 38.6239 47.8771C39.3577 49.4342 42.2035 46.7137 42.83 46.1947C43.4564 45.6756 44.5124 44.8523 45.3357 44.1543L46.5169 43.1162C46.7317 42.9194 47.2866 42.1497 47.5729 42.096C47.8593 42.0424 49.2553 43.51 49.6312 43.8858C50.4724 44.6197 51.3315 45.2998 52.2085 45.9978C53.2927 47.1073 54.6512 47.9101 56.1461 48.3245C57.5242 48.4498 56.862 46.3558 56.683 45.5325C56.2534 43.5637 55.6091 41.6486 55.0185 39.7156C54.8932 39.304 54.7321 38.8744 54.6426 38.4628C54.5531 38.0511 54.6426 38.0332 54.9648 37.7826C55.7165 37.3352 56.6472 37.0488 57.4526 36.6372C58.7234 35.9928 61.3007 34.8474 61.6586 33.2186C61.6807 33.1846 61.6954 33.1463 61.7015 33.1062C61.7077 33.066 61.7053 33.0251 61.6944 32.986Z" fill="#FFF896"/>
<path d="M136.401 139.085C134.209 138.921 132.011 138.873 129.814 138.942C130.441 138.316 131.067 137.707 131.604 137.152C132.653 136.258 133.559 135.207 134.289 134.038C134.35 133.923 134.373 133.791 134.354 133.662C134.334 133.533 134.274 133.414 134.182 133.321C134.09 133.229 133.97 133.169 133.841 133.15C133.712 133.131 133.58 133.153 133.465 133.215C132.281 133.924 131.212 134.812 130.297 135.846L128.382 137.635C128.382 136.741 128.382 135.846 128.382 134.951C128.498 133.571 128.395 132.182 128.078 130.834C128.04 130.71 127.963 130.601 127.858 130.524C127.753 130.446 127.627 130.404 127.496 130.404C127.366 130.404 127.239 130.446 127.135 130.524C127.03 130.601 126.953 130.71 126.915 130.834C126.574 132.178 126.447 133.567 126.539 134.951V137.618L124.749 135.72C123.848 134.666 122.792 133.755 121.617 133.018C121.5 132.951 121.364 132.925 121.231 132.944C121.098 132.963 120.975 133.025 120.881 133.121C120.787 133.217 120.727 133.342 120.712 133.475C120.696 133.609 120.725 133.744 120.794 133.859C121.51 135.044 122.403 136.112 123.443 137.027L125.232 138.942H122.548C121.161 138.833 119.766 138.942 118.413 139.264C118.289 139.302 118.18 139.38 118.102 139.484C118.025 139.589 117.983 139.716 117.983 139.846C117.983 139.976 118.025 140.103 118.102 140.208C118.18 140.312 118.289 140.389 118.413 140.428C119.763 140.768 121.158 140.895 122.548 140.803H125.143C123.532 142.325 121.921 143.846 120.489 145.493C120.387 145.664 120.344 145.865 120.367 146.063C120.389 146.261 120.476 146.447 120.614 146.591C120.752 146.735 120.934 146.83 121.131 146.861C121.329 146.893 121.531 146.858 121.706 146.763C123.353 145.385 124.892 143.81 126.414 142.253C126.414 144.437 126.288 146.638 126.414 148.786C126.455 148.993 126.567 149.179 126.73 149.312C126.893 149.446 127.098 149.519 127.308 149.519C127.519 149.519 127.724 149.446 127.887 149.312C128.05 149.179 128.162 148.993 128.203 148.786C128.4 146.638 128.364 144.455 128.347 142.271C129.85 143.864 131.353 145.457 132.982 146.871C133.157 147.007 133.375 147.074 133.596 147.061C133.817 147.048 134.026 146.956 134.183 146.8C134.341 146.645 134.437 146.437 134.453 146.217C134.469 145.996 134.404 145.777 134.271 145.6C132.875 143.953 131.318 142.414 129.76 140.893C131.944 140.893 134.128 141.018 136.293 140.893C136.533 140.907 136.769 140.826 136.948 140.666C137.128 140.507 137.237 140.282 137.251 140.043C137.265 139.803 137.183 139.567 137.024 139.388C136.865 139.208 136.64 139.099 136.401 139.085Z" fill="white"/>
<path d="M105.956 90.3848C106.547 90.3792 107.113 90.1414 107.531 89.7226C107.735 89.5181 107.897 89.2753 108.008 89.0081C108.118 88.7409 108.175 88.4546 108.175 88.1655C108.176 87.5761 107.945 87.0101 107.531 86.5904C107.115 86.1762 106.552 85.9436 105.965 85.9436C105.378 85.9436 104.815 86.1762 104.399 86.5904C103.983 87.0104 103.746 87.5747 103.736 88.1655C103.739 88.4558 103.798 88.7429 103.912 89.0102C104.026 89.2774 104.191 89.5195 104.399 89.7226C104.811 90.1387 105.37 90.3764 105.956 90.3848Z" fill="white"/>
<path d="M130.208 22.8915C130.785 23.1053 131.42 23.1053 131.997 22.8915C132.48 22.7433 132.894 22.4255 133.161 21.9966C133.294 21.7691 133.38 21.5172 133.413 21.2559C133.447 20.9946 133.428 20.7291 133.358 20.4753C133.265 20.1265 133.107 19.7985 132.892 19.5088C132.638 19.2006 132.335 18.9348 131.997 18.7213C131.729 18.5673 131.432 18.4689 131.124 18.432C130.817 18.3951 130.505 18.4204 130.208 18.5065C129.877 18.5918 129.571 18.7549 129.316 18.9821C129.06 19.2093 128.863 19.4942 128.74 19.8131C128.608 20.0929 128.539 20.3985 128.539 20.708C128.539 21.0174 128.608 21.3231 128.74 21.6029C128.832 21.882 128.992 22.134 129.205 22.3367C129.484 22.6113 129.829 22.8087 130.208 22.9094V22.8915Z" fill="white"/>
<path d="M160.921 52.5664V52.3874C161.008 52.0886 161.025 51.7736 160.969 51.4672C160.914 51.1609 160.788 50.8718 160.601 50.6227C160.414 50.3735 160.172 50.1714 159.894 50.0321C159.615 49.8928 159.308 49.8203 158.997 49.8203C158.685 49.8203 158.378 49.8928 158.1 50.0321C157.822 50.1714 157.579 50.3735 157.393 50.6227C157.206 50.8718 157.08 51.1609 157.024 51.4672C156.969 51.7736 156.985 52.0886 157.073 52.3874V52.5664C157.192 52.9696 157.439 53.3234 157.776 53.575C158.113 53.8266 158.522 53.9625 158.943 53.9625C159.364 53.9625 159.773 53.8266 160.11 53.575C160.447 53.3234 160.694 52.9696 160.813 52.5664H160.921Z" fill="white"/>
<path d="M160.67 76.9613H160.956C163.319 77.1403 163.319 73.1133 160.956 73.2922H160.67C160.195 73.2922 159.74 73.4808 159.404 73.8165C159.068 74.1521 158.88 74.6073 158.88 75.082C158.88 75.5567 159.068 76.012 159.404 76.3476C159.74 76.6833 160.195 76.8718 160.67 76.8718V76.9613Z" fill="white"/>
<path d="M50.3651 133.089V132.893C50.3566 132.296 50.1196 131.726 49.7029 131.3C49.2807 130.876 48.7077 130.638 48.11 130.637C47.5116 130.642 46.9388 130.88 46.5141 131.302C46.0893 131.723 45.8462 132.294 45.8369 132.893V133.089C45.8454 133.686 46.0824 134.256 46.4991 134.682C46.7103 134.894 46.9615 135.062 47.238 135.175C47.5146 135.289 47.811 135.346 48.11 135.345C48.7052 135.335 49.2734 135.095 49.6944 134.674C50.1153 134.253 50.3559 133.685 50.3651 133.089Z" fill="white"/>
<path d="M15.553 77.7488C16.1641 77.7448 16.7492 77.5005 17.1817 77.0687C17.6072 76.632 17.8504 76.0496 17.8618 75.44C17.8603 74.9845 17.7241 74.5396 17.4703 74.1613C17.2165 73.7831 16.8564 73.4883 16.4355 73.3142C16.0146 73.1401 15.5515 73.0944 15.1047 73.1828C14.6578 73.2713 14.2471 73.4899 13.9243 73.8113C13.5018 74.25 13.2591 74.8311 13.2441 75.44C13.2578 76.048 13.5054 76.6274 13.9355 77.0575C14.3656 77.4875 14.9449 77.7352 15.553 77.7488Z" fill="white"/>
<path d="M101.446 22.1756H101.571C102.152 22.0198 102.648 21.6401 102.949 21.1196L102.591 21.5671L102.144 21.9071L102.573 21.5671C102.786 21.3822 102.942 21.1399 103.021 20.869C103.231 20.4344 103.275 19.9381 103.146 19.473C103.028 19.0982 102.826 18.7554 102.555 18.4707C102.202 18.106 101.735 17.8725 101.231 17.8085C100.767 17.7538 100.298 17.8366 99.881 18.0467C99.4642 18.2567 99.1182 18.5846 98.8863 18.9897C98.686 19.3317 98.581 19.721 98.582 20.1173C98.591 20.6028 98.7539 21.0728 99.0474 21.4597C99.2871 21.7546 99.594 21.9878 99.9423 22.1398C100.398 22.3445 100.911 22.3825 101.392 22.2472L101.446 22.1756Z" fill="white"/>
<path d="M110.359 168.85L109.876 169.225L109.303 169.476C109.653 169.403 109.984 169.255 110.271 169.042C110.559 168.828 110.796 168.555 110.968 168.241C111.129 167.967 111.235 167.664 111.279 167.35C111.323 167.035 111.305 166.715 111.225 166.407C111.145 166.1 111.005 165.811 110.814 165.557C110.622 165.304 110.383 165.091 110.109 164.93C109.563 164.628 108.923 164.544 108.319 164.697C107.855 164.831 107.431 165.077 107.084 165.413C106.851 165.649 106.668 165.929 106.545 166.236C106.422 166.543 106.362 166.872 106.368 167.203C106.36 167.534 106.42 167.864 106.543 168.171C106.666 168.479 106.85 168.758 107.084 168.993C107.316 169.229 107.595 169.413 107.904 169.533C108.212 169.654 108.543 169.707 108.874 169.691H109.518C109.919 169.579 110.284 169.363 110.574 169.064L110.359 168.85Z" fill="white"/>
<path d="M153.672 132.946L153.959 133.25C154.306 133.595 154.761 133.81 155.247 133.859C155.741 133.95 156.252 133.855 156.679 133.591C157.014 133.399 157.296 133.129 157.503 132.803L157.735 132.266C157.816 131.973 157.816 131.664 157.735 131.371C157.686 130.884 157.472 130.429 157.127 130.083L156.822 129.796C156.397 129.392 155.835 129.162 155.247 129.152C154.807 129.15 154.375 129.278 154.008 129.522C153.641 129.766 153.355 130.113 153.186 130.52C153.017 130.927 152.973 131.375 153.06 131.807C153.146 132.239 153.36 132.636 153.672 132.946Z" fill="white"/>
<path d="M63.1979 75.8337C63.3783 75.5143 63.473 75.1536 63.473 74.7867C63.473 74.4198 63.3783 74.0592 63.1979 73.7397C63.0164 73.4253 62.7556 73.164 62.4415 72.9818C62.1275 72.7997 61.7712 72.703 61.4081 72.7016C61.0438 72.7066 60.6872 72.8065 60.3734 72.9915C60.0596 73.1766 59.7994 73.4402 59.6187 73.7565C59.4379 74.0728 59.3428 74.4308 59.3428 74.7951C59.3427 75.1594 59.4377 75.5174 59.6183 75.8337C59.798 76.1501 60.0582 76.4132 60.3726 76.5962C60.687 76.7792 61.0443 76.8756 61.4081 76.8756C61.7719 76.8756 62.1292 76.7792 62.4436 76.5962C62.758 76.4132 63.0183 76.1501 63.1979 75.8337Z" fill="white"/>
<path d="M128.436 43.2952V43.5458C127.631 47.1254 133.465 47.1254 132.66 43.5458V43.2952C132.528 42.8519 132.256 42.4632 131.885 42.1867C131.514 41.9103 131.064 41.761 130.602 41.761C130.139 41.761 129.689 41.9103 129.318 42.1867C128.947 42.4632 128.675 42.8519 128.543 43.2952H128.436Z" fill="#F7B9E7"/>
<path d="M74.7775 101.41C75.2224 101.663 75.7378 101.764 76.2452 101.696C76.7471 101.639 77.2144 101.411 77.5696 101.052C77.9791 100.628 78.2153 100.066 78.2318 99.477C78.2066 98.8844 77.9719 98.3199 77.5696 97.884L77.1043 97.5261C76.8472 97.3586 76.5513 97.26 76.2452 97.2397C75.7379 97.1738 75.2228 97.2743 74.7775 97.5261C74.4399 97.7255 74.16 98.0094 73.9656 98.35C73.7712 98.6905 73.6689 99.0759 73.6689 99.468C73.6689 99.8602 73.7712 100.246 73.9656 100.586C74.16 100.927 74.4399 101.211 74.7775 101.41Z" fill="#F7B9E7"/>
<path d="M30.4267 132.839C30.4525 132.789 30.4824 132.741 30.5162 132.696L30.1404 133.179C30.3194 132.964 30.4983 132.731 30.6594 132.499C30.552 132.66 30.4268 132.803 30.3015 132.964L30.4089 132.857L29.9614 133.197H30.0867L29.6034 133.394C29.8911 133.313 30.1566 133.168 30.3798 132.969C30.6031 132.771 30.7783 132.524 30.8921 132.248C31.0104 131.961 31.0621 131.651 31.0435 131.341C31.0249 131.031 30.9365 130.729 30.7847 130.458C30.5042 129.947 30.0551 129.549 29.514 129.331C28.9871 129.111 28.4033 129.067 27.8494 129.206C27.5649 129.267 27.2927 129.376 27.044 129.528C26.7204 129.717 26.4444 129.977 26.2372 130.289C26.03 130.602 25.8971 130.957 25.8487 131.329C25.8003 131.7 25.8377 132.078 25.958 132.433C26.0784 132.788 26.2784 133.11 26.5429 133.376C27.0194 133.847 27.6627 134.11 28.3327 134.11C28.7629 134.102 29.1834 133.98 29.5512 133.757C29.9191 133.534 30.2212 133.217 30.4267 132.839Z" fill="#F7B9E7"/>
<path d="M70.8755 165.324C71.5281 165.315 72.1524 165.055 72.6188 164.599C73.0853 164.142 73.3583 163.524 73.3812 162.872C73.3867 162.539 73.3244 162.209 73.1983 161.901C73.0721 161.594 72.8847 161.315 72.6474 161.082C72.1716 160.608 71.5294 160.338 70.8576 160.33C70.1866 160.342 69.5458 160.611 69.0678 161.082C68.8338 161.317 68.6485 161.597 68.5226 161.904C68.3967 162.211 68.3326 162.54 68.334 162.872C68.3387 163.54 68.6061 164.179 69.0783 164.651C69.5506 165.123 70.1898 165.391 70.8576 165.395L70.8755 165.324Z" fill="#F7B9E7"/>
<path d="M122.44 125.286V125.178C122.438 124.512 122.182 123.872 121.724 123.389C121.49 123.153 121.211 122.968 120.903 122.845C120.595 122.721 120.265 122.663 119.934 122.673C119.602 122.658 119.271 122.715 118.962 122.838C118.653 122.962 118.375 123.149 118.144 123.389C117.686 123.872 117.43 124.512 117.428 125.178V125.286C117.422 125.617 117.483 125.946 117.606 126.253C117.729 126.56 117.912 126.84 118.144 127.076C118.377 127.311 118.657 127.497 118.964 127.62C119.272 127.743 119.602 127.801 119.934 127.792C120.265 127.799 120.594 127.739 120.901 127.616C121.209 127.492 121.488 127.308 121.722 127.074C121.956 126.84 122.14 126.561 122.264 126.253C122.387 125.946 122.447 125.617 122.44 125.286Z" fill="#F7B9E7"/>
<path d="M29.5317 46.5347C30.2024 46.5215 30.8426 46.2526 31.3215 45.783C31.7937 45.307 32.0586 44.6637 32.0586 43.9932C32.0586 43.3228 31.7937 42.6795 31.3215 42.2034C30.8426 41.7339 30.2024 41.465 29.5317 41.4517C28.8615 41.4668 28.2219 41.7354 27.7419 42.2034C27.2693 42.6803 26.9998 43.3219 26.9902 43.9932C27.0035 44.6638 27.2724 45.3041 27.7419 45.783C28.2267 46.2438 28.8634 46.5111 29.5317 46.5347Z" fill="#F7B9E7"/>
<path d="M71.4847 18.5244V18.0412C71.487 17.7208 71.4257 17.4032 71.3042 17.1068C71.1827 16.8105 71.0035 16.5412 70.777 16.3147C70.5505 16.0882 70.2812 15.909 69.9848 15.7875C69.6884 15.666 69.3709 15.6047 69.0505 15.607C68.7196 15.6013 68.3908 15.6617 68.0835 15.7846C67.7761 15.9075 67.4964 16.0906 67.2607 16.323C66.8045 16.8063 66.5542 17.4481 66.5627 18.1127V18.596C66.5542 19.2606 66.8045 19.9025 67.2607 20.3858C67.7443 20.8438 68.3845 21.0999 69.0505 21.1017C69.3814 21.1065 69.7098 21.0456 70.017 20.9228C70.3242 20.7999 70.604 20.6174 70.8403 20.3858C71.2966 19.9025 71.5469 19.2606 71.5384 18.596L71.4847 18.5244Z" fill="#F7B9E7"/>
</g>
<defs>
<clipPath id="clip0_2288_5179">
<rect width="180" height="180" fill="white"/>
</clipPath>
</defs>
</svg>
