<svg width="100" height="100" viewBox="0 0 100 100" fill="none" xmlns="http://www.w3.org/2000/svg">
<g clip-path="url(#clip0_1972_5027)">
<path d="M99.9885 50.1527C100.07 22.5413 77.7534 0.0914827 50.1421 0.00955785C22.5307 -0.072367 0.0808488 22.2447 -0.00107605 49.856C-0.0830009 77.4674 22.234 99.9172 49.8454 99.9992C77.4568 100.081 99.9066 77.7641 99.9885 50.1527Z" fill="#35208A"/>
<path d="M80.1229 39.0474C79.4104 37.8508 78.4834 36.7958 77.3885 35.9351C76.1903 34.7213 74.8557 33.6503 73.4112 32.7433C70.3387 30.9138 66.7293 30.6851 63.2392 30.7547C59.2013 30.8428 55.1914 31.4476 51.3072 32.5544C51.2831 32.555 51.2597 32.563 51.2401 32.5772C51.2206 32.5914 51.2059 32.6112 51.1978 32.634L50.7106 33.6879C50.6993 33.7126 50.6942 33.7395 50.6955 33.7666C50.6969 33.7936 50.7047 33.82 50.7183 33.8433C50.732 33.8667 50.751 33.8865 50.7739 33.901C50.7968 33.9155 50.8228 33.9243 50.8498 33.9266C54.5587 34.1951 58.2476 34.1254 61.9664 34.1752C65.6852 34.2249 69.3742 35.0502 71.4524 38.4409C72.5362 40.2008 73.9183 43.681 76.5036 43.6412C78.4922 43.6412 77.4184 41.2648 76.6527 39.9324C77.5576 40.5986 78.7806 41.4338 79.7053 41.1156C80.6301 40.7974 80.4312 39.7733 80.1229 39.0474Z" fill="white"/>
<path d="M48.7918 32.634C48.7832 32.6096 48.767 32.5886 48.7454 32.5743C48.7239 32.5599 48.6983 32.5529 48.6725 32.5544C44.7885 31.4468 40.7784 30.8419 36.7405 30.7547C33.2504 30.6851 29.631 30.9138 26.5685 32.7433C25.1243 33.6507 23.7897 34.7217 22.5912 35.9351C21.5087 36.8003 20.5923 37.8548 19.8866 39.0474C19.6082 39.6738 19.4292 40.6682 20.165 41.0361C21.0698 41.5233 22.442 40.5986 23.3866 39.9025C22.621 41.225 21.567 43.6014 23.5159 43.6114C26.121 43.6114 27.4932 40.2008 28.577 38.411C30.5657 35.0999 34.1552 34.2249 37.8144 34.1453C41.4735 34.0658 45.3912 34.1453 49.1896 33.8968C49.2168 33.8953 49.2431 33.8869 49.2662 33.8724C49.2892 33.8578 49.3081 33.8376 49.3211 33.8137C49.334 33.7897 49.3406 33.7628 49.3402 33.7356C49.3399 33.7084 49.3325 33.6817 49.3188 33.6581C49.1398 33.33 48.9609 32.982 48.7918 32.634Z" fill="white"/>
<path d="M53.0576 17.0926C53.032 17.0826 53.0036 17.0826 52.978 17.0926C52.2683 17.3958 51.6901 17.9423 51.3473 18.6338C51.7351 17.2218 52.0135 15.3823 50.87 15.084C50.0646 14.8752 49.4282 16.0783 49.1299 16.6352C48.8162 17.2076 48.5916 17.8246 48.4637 18.4647C48.3146 17.4704 48.0064 16.3965 47.1811 16.2673C45.8089 16.0386 45.8288 18.4051 45.7691 19.2503C45.4818 23.1675 46.5336 27.0661 48.7521 30.3072C49.4382 31.3016 49.9552 31.3016 50.7408 30.3072C51.7139 28.9648 52.4318 27.4548 52.8587 25.8526C53.3737 23.936 53.7066 21.9751 53.853 19.996C53.8829 19.121 54.2806 17.3014 53.0576 17.0926Z" fill="white"/>
<path d="M88.1476 58.2181C88.1273 58.1694 88.0926 58.1281 88.0482 58.0996C88.0038 58.0712 87.9517 58.057 87.899 58.059H67.9427C67.9095 58.0682 67.8791 58.0858 67.8547 58.1102C67.8303 58.1346 67.8127 58.1649 67.8035 58.1982C66.4214 62.5335 74.0181 64.5122 77.9756 64.5122C81.933 64.5122 89.4899 62.5534 88.1476 58.2181Z" fill="#FA8D61"/>
<path d="M67.7937 57.8602C67.7472 57.8746 67.7058 57.9019 67.6741 57.9388C67.6424 57.9757 67.6218 58.0209 67.6147 58.069C67.0579 60.9426 74.754 60.5449 76.7029 60.5846C79.278 60.6949 81.8579 60.5651 84.4089 60.1969C85.5524 60.0079 88.0482 59.7593 88.3863 58.5761C89.1221 55.8616 70.4485 55.6826 67.7937 57.8602Z" fill="#96CBEB"/>
<path d="M88.3763 58.3275C86.7963 55.4755 84.9556 52.776 82.8776 50.2635C80.7796 47.4694 78.5523 44.745 76.3548 42.0006C76.3053 41.9437 76.2442 41.8981 76.1756 41.8668C76.107 41.8355 76.0325 41.8193 75.9571 41.8193C75.8817 41.8193 75.8072 41.8355 75.7385 41.8668C75.6699 41.8981 75.6088 41.9437 75.5593 42.0006C72.4379 47.1818 69.7953 52.6367 67.6644 58.2977C67.4953 58.7551 68.3604 58.9341 68.5394 58.4966C70.7543 52.9433 73.3662 47.5566 76.3548 42.3784H75.5693C77.717 45.0134 79.8449 47.6583 81.8833 50.3331C83.9217 53.0079 85.6021 55.9212 87.7697 58.5165C87.9686 58.7452 88.5354 58.6059 88.3862 58.3076L88.3763 58.3275Z" fill="white"/>
<path d="M78.8599 60.5051C78.4125 54.38 76.9309 48.3146 76.4039 42.1895C76.4039 41.7321 75.4693 41.7222 75.509 42.1895C76.036 48.3046 77.0701 54.4297 78.0844 60.5051C78.144 60.8929 78.8898 60.9128 78.8599 60.5051Z" fill="white"/>
<path d="M56.3386 19.4491C55.3443 19.996 55.1553 21.3185 55.1355 22.3526C55.2106 24.3484 54.5487 26.3021 53.2761 27.8413C52.2851 28.9432 51.1858 29.9425 49.9948 30.8243C48.8149 29.9364 47.7228 28.9375 46.7333 27.8413C45.4794 26.3772 44.8164 24.4982 44.8739 22.5713C44.8739 21.4975 44.8143 20.2048 43.8199 19.5386C41.533 18.0173 40.3696 22.0344 40.3497 23.5657C40.343 24.8012 40.6138 26.0225 41.1422 27.1394C41.6705 28.2563 42.4429 29.2403 43.4023 30.0189C45.2808 31.3184 47.5117 32.0124 49.7959 32.0075H50.2433C52.4646 32.0104 54.6371 31.3566 56.4877 30.1283C57.4823 29.3513 58.2854 28.3565 58.8353 27.2206C59.3851 26.0846 59.6672 24.8376 59.6597 23.5756C59.6597 22.0642 58.6653 18.2559 56.3386 19.4491Z" fill="#96CBEB"/>
<path d="M58.0589 29.5814C57.6115 28.6368 56.5972 28.587 55.6825 28.7064H55.5631H55.4339C54.0915 29.124 53.0674 30.3172 51.9438 31.1226C51.2577 31.6198 50.6313 32.2462 49.9551 32.803C49.3187 32.2462 48.7022 31.6098 47.9664 31.1226C46.8329 30.3172 45.8187 29.1339 44.4664 28.7064H44.3371H44.2178C43.7912 28.5681 43.3312 28.5729 42.9076 28.7201C42.484 28.8673 42.1201 29.1487 41.8712 29.5217C41.6836 29.9983 41.66 30.5237 41.804 31.0152C41.9481 31.5067 42.2515 31.9363 42.6666 32.2362C44.5062 33.8669 47.4295 34.2249 49.7662 33.7476C49.8164 33.7382 49.8639 33.7178 49.9054 33.688C49.9504 33.7181 50.0012 33.7384 50.0545 33.7476C52.3813 34.1851 55.3146 33.8769 57.1541 32.2362C57.5744 31.9535 57.8905 31.5408 58.0539 31.0613C58.2173 30.5818 58.2191 30.062 58.0589 29.5814Z" fill="#FA8D61"/>
<path d="M11.8423 58.2181C11.8643 58.1686 11.9008 58.1269 11.9469 58.0985C11.9931 58.0701 12.0467 58.0564 12.1008 58.059H32.0571C32.0896 58.0698 32.1191 58.0879 32.1432 58.1121C32.1674 58.1363 32.1856 58.1658 32.1963 58.1982C33.5685 62.5335 25.9817 64.5123 22.0243 64.5123C18.0668 64.5123 10.4701 62.5534 11.8423 58.2181Z" fill="#FA8D61"/>
<path d="M32.2062 57.8602C32.2526 57.8746 32.2941 57.9019 32.3257 57.9388C32.3574 57.9757 32.378 58.0209 32.3851 58.069C32.942 60.9426 25.2458 60.5449 23.2969 60.5846C20.7218 60.6949 18.1419 60.5651 15.5909 60.1969C14.4374 60.0079 11.9417 59.7593 11.6135 58.5761C10.8678 55.8616 29.5413 55.6826 32.2062 57.8602Z" fill="#96CBEB"/>
<path d="M11.6237 58.3275C13.2037 55.4755 15.0444 52.7759 17.1224 50.2635C19.2204 47.4694 21.4079 44.725 23.6352 42.0006C23.6856 41.9434 23.7476 41.8977 23.817 41.8663C23.8865 41.835 23.9618 41.8188 24.0379 41.8188C24.1141 41.8188 24.1894 41.835 24.2589 41.8663C24.3283 41.8977 24.3903 41.9434 24.4406 42.0006C27.5581 47.1839 30.2006 52.6385 32.3356 58.2977C32.5047 58.7551 31.6396 58.9341 31.4606 58.4966C29.2463 52.9413 26.631 47.5543 23.6352 42.3784H24.4406C22.2829 45.0134 20.165 47.6583 18.1266 50.3331C16.0883 53.0078 14.4078 55.9212 12.2302 58.5164C12.0314 58.7451 11.4745 58.6059 11.6237 58.3076V58.3275Z" fill="white"/>
<path d="M21.1393 60.5051C21.5768 54.38 23.0683 48.3146 23.5853 42.1895C23.5853 41.7321 24.5797 41.7222 24.4902 42.1895C23.9632 48.3046 22.9191 54.4297 21.8751 60.5051C21.8154 60.8929 21.0697 60.9128 21.0995 60.5051H21.1393Z" fill="white"/>
<path d="M48.7218 29.2731C48.6727 29.6289 48.6494 29.9878 48.6522 30.347V31.9379C48.6522 33.2107 48.6522 34.4934 48.6522 35.7761C48.6522 39.2297 48.6522 42.6801 48.6522 46.1271C48.6522 53.6641 48.6522 61.2011 48.6522 68.7382C48.6522 71.3831 48.5031 74.0678 48.6522 76.6928C48.6522 77.0726 48.8031 77.4368 49.0716 77.7053C49.3401 77.9738 49.7043 78.1247 50.0841 78.1247C50.4638 78.1247 50.828 77.9738 51.0965 77.7053C51.365 77.4368 51.5159 77.0726 51.5159 76.6928C51.7148 74.4357 51.6054 72.109 51.6153 69.832C51.6153 66.3187 51.6153 62.8053 51.6153 59.292C51.6153 51.8047 51.6153 44.377 51.5358 36.84C51.5358 35.3485 51.5358 33.857 51.5358 32.3655C51.5358 31.7888 51.5358 31.2021 51.5358 30.6155C51.5358 30.3868 51.5358 30.1581 51.5358 29.9393V29.5118C51.5358 29.0842 51.5358 29.6808 51.5358 29.2533C51.5358 28.9052 51.3975 28.5713 51.1514 28.3252C50.9052 28.079 50.5714 27.9407 50.2233 27.9407C49.8752 27.9407 49.5413 28.079 49.2952 28.3252C49.049 28.5713 48.9108 28.9052 48.9108 29.2533L48.7218 29.2731Z" fill="white"/>
<path d="M58.2081 79.3576C57.4827 78.8731 56.6972 78.4853 55.8714 78.2042C54.0418 77.4385 54.6484 76.2155 54.3998 74.6842C54.1512 73.153 52.7094 72.4669 51.3174 72.2382C49.7662 71.9797 47.7179 72.0791 46.4949 73.2325C46.0795 73.6202 45.8034 74.1339 45.7093 74.6942C45.6645 75.1206 45.6645 75.5505 45.7093 75.9769C45.7287 76.3128 45.6883 76.6494 45.59 76.9712C45.4577 77.2898 45.2532 77.5732 44.9927 77.7993C44.7321 78.0253 44.4226 78.1878 44.0886 78.2738C42.8059 78.7809 41.1056 79.4272 40.8371 80.9883C40.5487 82.3605 41.9508 83.0366 42.9948 83.5239C46.1909 84.9 49.7189 85.3147 53.1469 84.7171C55.4438 84.3094 61.7479 82.5295 58.2081 79.3576Z" fill="white"/>
<path d="M46.3062 78.3036C47.9906 78.9325 49.8392 78.9676 51.5463 78.4031C51.5777 78.3939 51.6069 78.3787 51.6323 78.3583C51.6578 78.3378 51.679 78.3126 51.6947 78.2839C51.7104 78.2553 51.7203 78.2239 51.7238 78.1914C51.7274 78.159 51.7245 78.1262 51.7154 78.0948C51.7062 78.0635 51.691 78.0342 51.6706 78.0088C51.6501 77.9833 51.6249 77.9622 51.5962 77.9465C51.5676 77.9308 51.5362 77.9209 51.5037 77.9173C51.4713 77.9138 51.4385 77.9166 51.4071 77.9258C49.7669 78.2923 48.0631 78.2651 46.4355 77.8462C46.1372 77.7567 46.0278 78.2042 46.3062 78.3036Z" fill="#35208A"/>
<path d="M41.8315 81.3761C43.323 83.9415 47.7975 84.1702 50.3827 84.1205C52.0731 84.1286 53.7531 83.8565 55.3544 83.3151C56.761 82.9295 58.0188 82.129 58.9638 81.0182C59.0633 80.8591 58.8644 80.7099 58.7252 80.7795C57.537 81.5488 56.2978 82.2365 55.0163 82.8378C53.5843 83.3066 52.0884 83.5514 50.5816 83.5637C47.698 83.6432 44.1682 83.3151 42.0105 81.1972C41.9867 81.1681 41.9524 81.1498 41.9151 81.146C41.8779 81.1423 41.8406 81.1535 41.8116 81.1773C41.7826 81.201 41.7642 81.2353 41.7605 81.2726C41.7567 81.3099 41.768 81.3471 41.7917 81.3761H41.8315Z" fill="#35208A"/>
<path d="M52.4807 30.1481C52.4807 30.1481 52.4807 30.1481 52.4807 30.0885C52.4848 30.0654 52.4848 30.0419 52.4807 30.0189C52.2222 28.597 50.9097 27.1254 49.3287 27.712C47.7477 28.2987 47.3997 30.1083 47.5886 31.5004C47.6322 32.217 47.956 32.8878 48.4899 33.3677C49.0238 33.8477 49.7251 34.0984 50.4423 34.0658C52.2122 33.857 52.6299 31.6197 52.4807 30.1481Z" fill="#96CBEB"/>
<path d="M48.2848 19.9363C48.0682 22.3395 48.3422 24.7617 49.0902 27.0558C49.1598 27.2546 49.4979 27.2447 49.4879 27.006C49.4183 25.8228 49.1101 24.6594 48.9709 23.4861C48.8317 22.3128 48.8317 21.1196 48.7223 19.9363C48.7223 19.8783 48.6993 19.8227 48.6582 19.7817C48.6172 19.7406 48.5616 19.7176 48.5036 19.7176C48.4455 19.7176 48.3899 19.7406 48.3489 19.7817C48.3078 19.8227 48.2848 19.8783 48.2848 19.9363Z" fill="#35208A"/>
<path d="M51.0589 19.7176C50.906 20.8176 50.8428 21.9283 50.8699 23.0386C50.8699 24.2915 50.6611 25.5642 50.681 26.8171C50.681 27.0657 51.0788 27.1353 51.1285 26.8767C51.3141 25.6891 51.4105 24.4892 51.4168 23.2872C51.5347 22.0985 51.508 20.8998 51.3373 19.7176C51.3265 19.6894 51.3074 19.6652 51.2825 19.6482C51.2577 19.6311 51.2282 19.6219 51.1981 19.6219C51.1679 19.6219 51.1385 19.6311 51.1136 19.6482C51.0888 19.6652 51.0697 19.6894 51.0589 19.7176Z" fill="#35208A"/>
<path d="M47.5985 29.2035C47.443 29.3949 47.3433 29.6254 47.3102 29.8697C47.3102 30.0686 47.2008 30.3967 47.4394 30.5061C47.6781 30.6154 47.7974 30.3271 47.8173 30.1382C47.8604 29.898 47.9236 29.6618 48.0062 29.4322C48.0758 29.2134 47.7576 29.0046 47.5985 29.2035Z" fill="#35208A"/>
<path d="M51.9135 29.472C52.0471 29.7069 52.1412 29.9622 52.1919 30.2277C52.1919 30.516 52.7189 30.4564 52.709 30.1581C52.699 29.9639 52.6467 29.7743 52.5556 29.6025C52.4646 29.4308 52.337 29.281 52.182 29.1637C52.0229 29.0345 51.8141 29.2731 51.9135 29.4422V29.472Z" fill="#35208A"/>
<path d="M37.0881 31.9677C33.8659 31.7607 30.6409 32.3266 27.6817 33.6183C25.9118 34.374 22.7101 36.0445 23.1973 38.4607C23.5254 40.0914 26.0212 41.1255 26.8067 39.2164C26.9376 38.913 26.9667 38.5754 26.8899 38.254C26.813 37.9327 26.6343 37.6448 26.3804 37.4334C26.1264 37.222 25.8109 37.0983 25.481 37.081C25.151 37.0636 24.8243 37.1535 24.5496 37.3371C24.2513 37.5559 24.5496 38.063 24.838 37.8442C25.057 37.7115 25.3189 37.6684 25.569 37.7239C25.8191 37.7795 26.0381 37.9295 26.1803 38.1425C26.9559 39.1369 25.3848 39.7931 24.6093 39.5247C23.2172 39.0275 23.7939 37.1482 24.4701 36.3726C25.6336 35.2015 27.0579 34.3224 28.6264 33.8072C31.3807 32.8129 34.3338 32.8925 37.0981 32.0572C37.111 32.0521 37.1221 32.0431 37.1299 32.0316C37.1377 32.0201 37.1418 32.0065 37.1418 31.9926C37.1418 31.9787 37.1377 31.9651 37.1299 31.9536C37.1221 31.942 37.111 31.9331 37.0981 31.928L37.0881 31.9677Z" fill="#35208A"/>
<path d="M62.9411 32.097C64.6016 32.5942 66.3914 32.6141 68.0818 32.9422C69.81 33.2492 71.4847 33.8052 73.0534 34.5928C73.851 34.9814 74.5879 35.4838 75.2409 36.0843C76.1259 36.9692 76.981 39.1369 75.1316 39.6341C72.7949 40.2605 73.8389 36.7704 75.1316 37.7945C75.4199 38.0332 75.8375 37.6156 75.5492 37.3869C74.4654 36.5119 73.2026 37.3869 73.1727 38.7093C73.1727 40.4295 75.3603 40.6383 76.3049 39.5446C78.4129 37.1184 74.6543 34.6823 72.8048 33.8272C69.732 32.3788 66.3403 31.7388 62.951 31.9678C62.9381 31.9729 62.927 31.9818 62.9192 31.9934C62.9114 32.0049 62.9072 32.0185 62.9072 32.0324C62.9072 32.0463 62.9114 32.0599 62.9192 32.0714C62.927 32.0829 62.9381 32.0919 62.951 32.097H62.9411Z" fill="#35208A"/>
<path d="M48.8318 72.5862C49.2287 72.8012 49.673 72.9137 50.1244 72.9137C50.5758 72.9137 51.0201 72.8012 51.417 72.5862C51.4585 72.562 51.4908 72.5249 51.5091 72.4805C51.5273 72.4361 51.5305 72.3869 51.518 72.3406C51.5056 72.2942 51.4783 72.2533 51.4403 72.224C51.4022 72.1947 51.3556 72.1787 51.3076 72.1785C50.9099 72.1785 50.5221 72.3277 50.1145 72.3376C49.7177 72.3081 49.3228 72.2584 48.9312 72.1885C48.7224 72.1885 48.6826 72.447 48.8318 72.5464V72.5862Z" fill="#35208A"/>
<path d="M34.2747 18.3255C34.2835 18.3068 34.2881 18.2865 34.2881 18.2658C34.2881 18.2452 34.2835 18.2248 34.2747 18.2062C33.9764 17.6493 32.9025 17.54 32.3656 17.4306C31.4906 17.2616 30.6056 17.1522 29.7107 17.0329L29.2831 16.9732C29.2235 16.9732 29.1141 16.9235 29.134 16.9732C29.0139 16.7824 28.9234 16.5746 28.8655 16.3567C28.4976 15.5016 28.1397 14.6465 27.7618 13.7913C27.5729 13.3538 27.384 12.9263 27.1751 12.4987C27.0558 12.2402 26.9067 11.743 26.6183 11.6137C25.972 11.3353 25.5146 12.9362 25.3456 13.3141C24.9379 14.2388 24.5501 15.1735 24.1524 16.0982C24.0629 16.2971 23.9237 16.8539 23.7447 16.9831C23.4685 17.0266 23.1888 17.0433 22.9095 17.0329L21.7262 17.1323C21.0542 17.17 20.3878 17.2766 19.7375 17.4505C19.3498 17.5599 18.6537 17.7488 18.7432 18.2957C18.8327 18.8425 19.4691 19.1607 19.7375 19.3994C20.2635 19.8179 20.8221 20.1937 21.408 20.523C21.6666 20.6821 22.0046 20.7914 22.2433 20.9704C22.4819 21.1494 22.4123 21.4576 22.3228 21.7758C22.1438 22.452 21.9648 23.1281 21.8058 23.7645C21.6593 24.3145 21.5431 24.8722 21.4577 25.435C21.3486 25.8151 21.3486 26.2182 21.4577 26.5983C21.8654 27.4634 23.4464 25.952 23.7944 25.6637C24.1424 25.3753 24.7291 24.9179 25.1865 24.5301L25.8427 23.9534C25.9621 23.844 26.2703 23.4165 26.4294 23.3866C26.5885 23.3568 27.3641 24.1722 27.5729 24.381C28.0402 24.7887 28.5175 25.1665 29.0047 25.5543C29.607 26.1707 30.3618 26.6167 31.1923 26.8469C31.9579 26.9165 31.59 25.7532 31.4906 25.2958C31.2519 24.202 30.894 23.1381 30.5658 22.0642C30.4962 21.8355 30.4067 21.5968 30.357 21.3681C30.3073 21.1395 30.357 21.1295 30.536 20.9903C30.9536 20.7417 31.4707 20.5826 31.9181 20.3539C32.6241 19.996 34.0559 19.3596 34.2548 18.4548C34.2671 18.4358 34.2752 18.4145 34.2786 18.3923C34.2821 18.37 34.2807 18.3472 34.2747 18.3255Z" fill="#FFF896"/>
<path d="M75.7777 77.2695C74.5603 77.1782 73.3388 77.1517 72.1186 77.19C72.4666 76.842 72.8146 76.5039 73.1129 76.1957C73.6957 75.6987 74.1988 75.1152 74.6044 74.4655C74.6385 74.4016 74.6512 74.3283 74.6405 74.2567C74.6298 74.185 74.5964 74.1186 74.5451 74.0674C74.4939 74.0161 74.4275 73.9827 74.3559 73.972C74.2842 73.9614 74.2109 73.974 74.147 74.0081C73.4889 74.4023 72.8953 74.8953 72.387 75.4698L71.3231 76.4641C71.3231 75.967 71.3231 75.4698 71.3231 74.9726C71.3873 74.2062 71.3302 73.4344 71.1541 72.6857C71.1328 72.6165 71.09 72.556 71.0318 72.5131C70.9736 72.4701 70.9032 72.4469 70.8309 72.4469C70.7586 72.4469 70.6882 72.4701 70.63 72.5131C70.5718 72.556 70.529 72.6165 70.5077 72.6857C70.3184 73.4323 70.2479 74.2041 70.2989 74.9726V76.4542L69.3046 75.4002C68.804 74.8145 68.2172 74.3082 67.5645 73.8987C67.4996 73.8618 67.4243 73.8474 67.3503 73.8577C67.2763 73.8681 67.2079 73.9027 67.1557 73.9561C67.1034 74.0095 67.0703 74.0786 67.0615 74.1528C67.0527 74.227 67.0688 74.302 67.1071 74.3661C67.505 75.0244 68.0013 75.6179 68.5787 76.126L69.5731 77.19H68.0816C67.3113 77.1295 66.5363 77.1899 65.7847 77.369C65.7155 77.3902 65.655 77.4331 65.6121 77.4912C65.5691 77.5494 65.5459 77.6198 65.5459 77.6921C65.5459 77.7644 65.5691 77.8349 65.6121 77.893C65.655 77.9512 65.7155 77.994 65.7847 78.0153C66.5347 78.2045 67.3097 78.275 68.0816 78.2241H69.5233C68.6285 79.0693 67.7336 79.9145 66.9381 80.8292C66.8813 80.9246 66.8574 81.0359 66.8699 81.1461C66.8825 81.2563 66.9308 81.3594 67.0075 81.4395C67.0843 81.5196 67.1852 81.5724 67.2947 81.5897C67.4043 81.607 67.5166 81.5878 67.6142 81.5352C68.529 80.7696 69.3841 79.8946 70.2293 79.0295C70.2293 80.2426 70.1597 81.4656 70.2293 82.6588C70.2524 82.7737 70.3145 82.877 70.4052 82.9512C70.4958 83.0254 70.6093 83.066 70.7265 83.066C70.8436 83.066 70.9572 83.0254 71.0478 82.9512C71.1384 82.877 71.2006 82.7737 71.2237 82.6588C71.333 81.4656 71.3131 80.2525 71.3032 79.0394C72.1384 79.9244 72.9737 80.8094 73.8785 81.5949C73.9756 81.6704 74.0968 81.708 74.2196 81.7008C74.3423 81.6935 74.4583 81.642 74.5458 81.5556C74.6334 81.4693 74.6866 81.354 74.6956 81.2314C74.7045 81.1087 74.6686 80.987 74.5944 80.8889C73.8189 79.9741 72.9538 79.119 72.0887 78.2738C73.3018 78.2738 74.5149 78.3434 75.718 78.2738C75.8512 78.2817 75.9821 78.2364 76.0818 78.1478C76.1816 78.0593 76.2421 77.9347 76.25 77.8015C76.2579 77.6683 76.2126 77.5375 76.124 77.4377C76.0355 77.3379 75.9109 77.2774 75.7777 77.2695Z" fill="white"/>
<path d="M58.8638 50.2138C59.1925 50.2107 59.5067 50.0785 59.7388 49.8459C59.8524 49.7323 59.9425 49.5974 60.0039 49.4489C60.0653 49.3005 60.0969 49.1414 60.0968 48.9808C60.0974 48.6534 59.9688 48.3389 59.7388 48.1058C59.5078 47.8757 59.1949 47.7465 58.8688 47.7465C58.5427 47.7465 58.2298 47.8757 57.9988 48.1058C57.7679 48.3391 57.6361 48.6526 57.6309 48.9808C57.6321 49.1421 57.6652 49.3016 57.7284 49.4501C57.7915 49.5986 57.8834 49.7331 57.9988 49.8459C58.2278 50.077 58.5384 50.2091 58.8638 50.2138Z" fill="white"/>
<path d="M72.3371 12.7175C72.6579 12.8363 73.0106 12.8363 73.3314 12.7175C73.5998 12.6352 73.8293 12.4586 73.9777 12.2203C74.0516 12.0939 74.0993 11.954 74.1181 11.8088C74.1369 11.6636 74.1264 11.5162 74.0871 11.3751C74.0358 11.1814 73.948 10.9992 73.8286 10.8382C73.6871 10.667 73.5193 10.5193 73.3314 10.4007C73.1822 10.3151 73.0172 10.2605 72.8464 10.24C72.6756 10.2195 72.5024 10.2335 72.3371 10.2814C72.1532 10.3288 71.9834 10.4193 71.8415 10.5456C71.6997 10.6718 71.5901 10.8301 71.5217 11.0072C71.4483 11.1627 71.4102 11.3325 71.4102 11.5044C71.4102 11.6763 71.4483 11.8461 71.5217 12.0016C71.5731 12.1566 71.6619 12.2966 71.7803 12.4092C71.9351 12.5618 72.127 12.6715 72.3371 12.7274V12.7175Z" fill="white"/>
<path d="M89.4003 29.2035V29.1041C89.4489 28.9381 89.4581 28.7631 89.4272 28.5929C89.3963 28.4227 89.3263 28.2621 89.2226 28.1237C89.1188 27.9853 88.9843 27.8729 88.8296 27.7956C88.6749 27.7182 88.5044 27.6779 88.3314 27.6779C88.1585 27.6779 87.9879 27.7182 87.8332 27.7956C87.6785 27.8729 87.544 27.9853 87.4403 28.1237C87.3366 28.2621 87.2665 28.4227 87.2356 28.5929C87.2048 28.7631 87.214 28.9381 87.2625 29.1041V29.2035C87.329 29.4275 87.466 29.6241 87.6533 29.7638C87.8405 29.9036 88.0679 29.9791 88.3016 29.9791C88.5353 29.9791 88.7627 29.9036 88.9499 29.7638C89.1372 29.6241 89.2742 29.4275 89.3407 29.2035H89.4003Z" fill="white"/>
<path d="M89.2609 42.7563H89.42C90.7325 42.8557 90.7325 40.6184 89.42 40.7179H89.2609C88.9972 40.7179 88.7443 40.8226 88.5578 41.0091C88.3714 41.1956 88.2666 41.4485 88.2666 41.7122C88.2666 41.9759 88.3714 42.2288 88.5578 42.4153C88.7443 42.6018 88.9972 42.7065 89.2609 42.7065V42.7563Z" fill="white"/>
<path d="M27.9805 73.9385V73.8292C27.9758 73.4979 27.8441 73.1811 27.6126 72.9442C27.378 72.7091 27.0597 72.5768 26.7276 72.5763C26.3952 72.5789 26.077 72.7114 25.841 72.9455C25.605 73.1796 25.47 73.4968 25.4648 73.8292V73.9385C25.4696 74.2698 25.6012 74.5865 25.8327 74.8235C25.9501 74.9411 26.0896 75.0342 26.2432 75.0973C26.3969 75.1605 26.5615 75.1925 26.7276 75.1914C27.0583 75.1863 27.374 75.0526 27.6079 74.8188C27.8417 74.5849 27.9754 74.2692 27.9805 73.9385Z" fill="white"/>
<path d="M8.64011 43.1938C8.97964 43.1915 9.30467 43.0558 9.54495 42.8159C9.78134 42.5733 9.91645 42.2498 9.9228 41.9111C9.92195 41.658 9.84626 41.4109 9.70526 41.2007C9.56426 40.9906 9.36425 40.8268 9.1304 40.7301C8.89655 40.6334 8.63931 40.608 8.39106 40.6571C8.1428 40.7062 7.91464 40.8277 7.73527 41.0062C7.50055 41.25 7.36573 41.5728 7.35742 41.9111C7.36502 42.2489 7.50259 42.5707 7.74152 42.8097C7.98044 43.0486 8.30231 43.1862 8.64011 43.1938Z" fill="white"/>
<path d="M56.3585 12.3197H56.4281C56.7509 12.2332 57.0262 12.0222 57.1938 11.7331L56.9949 11.9817L56.7463 12.1706L56.9849 11.9817C57.1034 11.879 57.1897 11.7443 57.2335 11.5939C57.3502 11.3524 57.3749 11.0767 57.3031 10.8183C57.2376 10.6101 57.1254 10.4196 56.975 10.2615C56.7786 10.0589 56.5191 9.92912 56.2392 9.89357C55.9816 9.86319 55.7209 9.9092 55.4893 10.0259C55.2577 10.1426 55.0655 10.3248 54.9366 10.5498C54.8254 10.7398 54.767 10.9561 54.7676 11.1763C54.7726 11.446 54.8631 11.7071 55.0261 11.922C55.1593 12.0858 55.3298 12.2154 55.5233 12.2999C55.7764 12.4136 56.0615 12.4347 56.3287 12.3595L56.3585 12.3197Z" fill="white"/>
<path d="M61.3105 93.8053L61.042 94.0141L60.7239 94.1533C60.9185 94.1128 61.102 94.0304 61.2617 93.912C61.4213 93.7935 61.5534 93.6418 61.6486 93.4672C61.7382 93.3152 61.797 93.1469 61.8215 92.9721C61.846 92.7973 61.8358 92.6193 61.7915 92.4485C61.7472 92.2776 61.6696 92.1172 61.5631 91.9763C61.4567 91.8355 61.3236 91.717 61.1713 91.6277C60.8683 91.4598 60.5128 91.4136 60.177 91.4985C59.9192 91.5729 59.6836 91.7095 59.4909 91.8962C59.3618 92.0271 59.2601 92.1825 59.1918 92.3533C59.1235 92.524 59.09 92.7067 59.0931 92.8905C59.0888 93.0745 59.1218 93.2575 59.1902 93.4284C59.2586 93.5993 59.3608 93.7546 59.4909 93.8849C59.6198 94.016 59.7751 94.1184 59.9465 94.1853C60.1179 94.2521 60.3015 94.2819 60.4852 94.2726H60.8432C61.0662 94.2108 61.2687 94.0907 61.4298 93.9246L61.3105 93.8053Z" fill="white"/>
<path d="M85.3731 73.859L85.5322 74.028C85.7249 74.2196 85.9777 74.3389 86.2481 74.3661C86.5226 74.4169 86.8062 74.3637 87.0436 74.2169C87.2295 74.1106 87.3865 73.9604 87.501 73.7794L87.6302 73.4811C87.6751 73.3184 87.6751 73.1466 87.6302 72.984C87.6031 72.7136 87.4837 72.4608 87.2922 72.268L87.1231 72.1089C86.8866 71.8843 86.5743 71.7565 86.2481 71.751C86.0033 71.7497 85.7637 71.8214 85.5598 71.9567C85.3559 72.0921 85.1968 72.2852 85.103 72.5113C85.0092 72.7373 84.9847 72.9862 85.0328 73.2262C85.0809 73.4663 85.1994 73.6865 85.3731 73.859Z" fill="white"/>
<path d="M35.1095 42.1299C35.2097 41.9524 35.2624 41.752 35.2624 41.5482C35.2624 41.3443 35.2097 41.144 35.1095 40.9665C35.0087 40.7918 34.8638 40.6466 34.6893 40.5454C34.5148 40.4442 34.3169 40.3906 34.1152 40.3898C33.9128 40.3925 33.7147 40.4481 33.5403 40.5509C33.366 40.6536 33.2215 40.8001 33.1211 40.9758C33.0206 41.1516 32.9678 41.3504 32.9678 41.5528C32.9677 41.7552 33.0205 41.9541 33.1208 42.1299C33.2206 42.3056 33.3652 42.4517 33.5399 42.5534C33.7146 42.6551 33.9131 42.7087 34.1152 42.7087C34.3173 42.7087 34.5158 42.6551 34.6904 42.5534C34.8651 42.4517 35.0097 42.3056 35.1095 42.1299Z" fill="white"/>
<path d="M71.3531 24.0529V24.1921C70.9056 26.1807 74.1471 26.1807 73.6997 24.1921V24.0529C73.6263 23.8066 73.4753 23.5906 73.2693 23.437C73.0633 23.2835 72.8132 23.2005 72.5562 23.2005C72.2992 23.2005 72.0491 23.2835 71.8431 23.437C71.6371 23.5906 71.4861 23.8066 71.4127 24.0529H71.3531Z" fill="#F7B9E7"/>
<path d="M41.5426 56.3389C41.7898 56.4795 42.0761 56.5353 42.358 56.498C42.6369 56.4659 42.8964 56.3396 43.0938 56.14C43.3213 55.9044 43.4525 55.5923 43.4617 55.265C43.4477 54.9357 43.3173 54.6222 43.0938 54.38L42.8353 54.1812C42.6924 54.0881 42.5281 54.0333 42.358 54.0221C42.0762 53.9854 41.79 54.0412 41.5426 54.1812C41.355 54.2919 41.1996 54.4497 41.0916 54.6389C40.9836 54.8281 40.9268 55.0422 40.9268 55.26C40.9268 55.4779 40.9836 55.6919 41.0916 55.8811C41.1996 56.0703 41.355 56.2281 41.5426 56.3389Z" fill="#F7B9E7"/>
<path d="M16.9034 73.7993C16.9177 73.7715 16.9344 73.7449 16.9531 73.7198L16.7443 73.9883C16.8438 73.8689 16.9432 73.7397 17.0327 73.6104C16.973 73.6999 16.9034 73.7795 16.8338 73.8689L16.8935 73.8093L16.6449 73.9982H16.7145L16.446 74.1076C16.6058 74.0628 16.7533 73.9822 16.8774 73.8719C17.0014 73.7617 17.0987 73.6246 17.162 73.4712C17.2277 73.3117 17.2564 73.1394 17.2461 72.9672C17.2358 72.795 17.1866 72.6274 17.1023 72.4769C16.9464 72.1928 16.697 71.9714 16.3963 71.8505C16.1036 71.7282 15.7793 71.7038 15.4716 71.7808C15.3135 71.8152 15.1623 71.8757 15.0241 71.9598C14.8443 72.0648 14.691 72.2095 14.5759 72.383C14.4608 72.5564 14.3869 72.7539 14.36 72.9604C14.3332 73.1668 14.3539 73.3767 14.4208 73.5738C14.4877 73.7709 14.5988 73.9501 14.7457 74.0976C15.0105 74.3593 15.3678 74.5058 15.7401 74.5053C15.9791 74.501 16.2127 74.4333 16.417 74.3093C16.6214 74.1853 16.7892 74.0093 16.9034 73.7993Z" fill="#F7B9E7"/>
<path d="M39.3749 91.8465C39.7374 91.8416 40.0842 91.6974 40.3434 91.4438C40.6025 91.1902 40.7542 90.8466 40.7669 90.4842C40.7699 90.2995 40.7354 90.1161 40.6653 89.9452C40.5952 89.7742 40.4911 89.6193 40.3592 89.4899C40.0949 89.2264 39.7381 89.0766 39.3649 89.0723C38.9921 89.0786 38.6361 89.2282 38.3706 89.4899C38.2406 89.6207 38.1376 89.7758 38.0677 89.9464C37.9977 90.1171 37.9621 90.2998 37.9629 90.4842C37.9655 90.8552 38.1141 91.2103 38.3764 91.4727C38.6388 91.7351 38.9939 91.8836 39.3649 91.8862L39.3749 91.8465Z" fill="#F7B9E7"/>
<path d="M68.0216 69.6032V69.5435C68.0206 69.1735 67.8784 68.8179 67.6239 68.5492C67.4943 68.4182 67.3392 68.3153 67.1681 68.2469C66.9971 68.1785 66.8137 68.146 66.6296 68.1515C66.4451 68.1435 66.2611 68.1749 66.0896 68.2434C65.9182 68.312 65.7633 68.4162 65.6352 68.5492C65.3808 68.8179 65.2385 69.1735 65.2375 69.5435V69.6032C65.2343 69.7871 65.2679 69.9697 65.3362 70.1405C65.4045 70.3112 65.5061 70.4666 65.6352 70.5975C65.7648 70.7285 65.92 70.8314 66.091 70.8999C66.2621 70.9683 66.4454 71.0008 66.6296 70.9953C66.8135 70.9993 66.9963 70.9661 67.1671 70.8976C67.3378 70.8291 67.4929 70.7267 67.623 70.5966C67.7531 70.4665 67.8555 70.3114 67.924 70.1407C67.9925 69.97 68.0257 69.7871 68.0216 69.6032Z" fill="#F7B9E7"/>
<path d="M16.4061 25.8526C16.7787 25.8452 17.1343 25.6958 17.4004 25.435C17.6627 25.1705 17.8099 24.8131 17.8099 24.4406C17.8099 24.0682 17.6627 23.7108 17.4004 23.4463C17.1343 23.1854 16.7787 23.0361 16.4061 23.0287C16.0337 23.0371 15.6784 23.1863 15.4118 23.4463C15.1492 23.7112 14.9995 24.0676 14.9941 24.4406C15.0015 24.8132 15.1509 25.1689 15.4118 25.435C15.6811 25.6909 16.0348 25.8395 16.4061 25.8526Z" fill="#F7B9E7"/>
<path d="M39.713 10.2913V10.0228C39.7144 9.84489 39.6803 9.66845 39.6128 9.50379C39.5453 9.33912 39.4458 9.18952 39.3199 9.06368C39.1941 8.93785 39.0445 8.83829 38.8798 8.7708C38.7152 8.70331 38.5387 8.66923 38.3608 8.67056C38.1769 8.66737 37.9942 8.70091 37.8235 8.7692C37.6528 8.8375 37.4974 8.93918 37.3664 9.06829C37.113 9.33681 36.9739 9.6934 36.9786 10.0626V10.3311C36.9739 10.7003 37.113 11.0569 37.3664 11.3254C37.6351 11.5799 37.9907 11.7221 38.3608 11.7232C38.5445 11.7258 38.727 11.692 38.8977 11.6237C39.0684 11.5555 39.2238 11.4541 39.3551 11.3254C39.6086 11.0569 39.7476 10.7003 39.7429 10.3311L39.713 10.2913Z" fill="#F7B9E7"/>
</g>
<defs>
<clipPath id="clip0_1972_5027">
<rect width="100" height="100" fill="white"/>
</clipPath>
</defs>
</svg>
