<svg width="180" height="180" viewBox="0 0 180 180" fill="none" xmlns="http://www.w3.org/2000/svg">
<g clip-path="url(#clip0_2028_15558)">
<path d="M90.2487 2.51616C138.568 2.65953 177.623 41.9467 177.48 90.2664C177.336 138.586 138.049 177.641 89.7295 177.497C41.4097 177.354 2.35507 138.067 2.49844 89.7472C2.64181 41.4275 41.9289 2.37279 90.2487 2.51616Z" stroke="white" stroke-width="5"/>
<path d="M144.222 70.2859C142.939 68.1321 141.271 66.233 139.3 64.6839C137.143 62.499 134.741 60.5711 132.141 58.9386C126.61 55.6454 120.113 55.2337 113.831 55.359C106.563 55.5177 99.3449 56.6064 92.3533 58.5985C92.3099 58.5997 92.2678 58.614 92.2326 58.6395C92.1975 58.6651 92.1709 58.7007 92.1565 58.7417L91.2795 60.6389C91.2592 60.6832 91.2499 60.7318 91.2523 60.7805C91.2548 60.8292 91.2688 60.8765 91.2934 60.9186C91.318 60.9607 91.3523 60.9963 91.3934 61.0224C91.4346 61.0485 91.4815 61.0643 91.53 61.0685C98.206 61.5517 104.846 61.4264 111.54 61.5159C118.234 61.6054 124.874 63.0909 128.615 69.1941C130.566 72.3621 133.053 78.6264 137.707 78.5548C141.286 78.5548 139.353 74.2772 137.975 71.8788C139.604 73.078 141.805 74.5814 143.47 74.0087C145.134 73.436 144.777 71.5925 144.222 70.2859Z" fill="white"/>
<path d="M87.8255 58.7417C87.81 58.6978 87.7807 58.6601 87.742 58.6343C87.7033 58.6084 87.6572 58.5959 87.6107 58.5985C80.6195 56.6048 73.4014 55.5161 66.1331 55.359C59.8509 55.2337 53.3361 55.6454 47.8235 58.9386C45.224 60.5718 42.8217 62.4997 40.6643 64.6839C38.7158 66.2411 37.0663 68.1392 35.796 70.2859C35.2949 71.4135 34.9727 73.2033 36.2972 73.8655C37.9259 74.7425 40.3958 73.078 42.0961 71.8252C40.718 74.2056 38.8208 78.4832 42.3288 78.5011C47.0181 78.5011 49.488 72.3621 51.4389 69.1405C55.0185 63.1804 61.4796 61.6054 68.0661 61.4622C74.6526 61.319 81.7044 61.4622 88.5414 61.0148C88.5904 61.0122 88.6378 60.9971 88.6793 60.9709C88.7207 60.9447 88.7547 60.9083 88.7781 60.8652C88.8015 60.8221 88.8133 60.7737 88.8126 60.7247C88.8119 60.6757 88.7986 60.6276 88.7741 60.5852C88.4519 59.9946 88.1297 59.3682 87.8255 58.7417Z" fill="white"/>
<path d="M95.5036 30.7661C95.4576 30.7482 95.4065 30.7482 95.3604 30.7661C94.0829 31.312 93.0421 32.2957 92.4251 33.5403C93.1232 30.9988 93.6243 27.6877 91.566 27.1507C90.1163 26.7749 88.9708 28.9405 88.4339 29.9428C87.8692 30.9733 87.4648 32.0838 87.2347 33.2361C86.9663 31.4463 86.4114 29.5133 84.9259 29.2806C82.456 28.869 82.4918 33.1287 82.3844 34.65C81.8672 41.7009 83.7605 48.7185 87.7538 54.5526C88.9887 56.3424 89.9194 56.3424 91.3334 54.5526C93.0849 52.1361 94.3772 49.4181 95.1456 46.5343C96.0726 43.0844 96.6718 39.5548 96.9354 35.9923C96.9891 34.4173 97.7051 31.142 95.5036 30.7661Z" fill="white"/>
<path d="M158.666 104.793C158.629 104.705 158.567 104.63 158.487 104.579C158.407 104.528 158.313 104.503 158.218 104.506H122.297C122.237 104.523 122.183 104.554 122.139 104.598C122.095 104.642 122.063 104.697 122.047 104.757C119.559 112.56 133.233 116.122 140.356 116.122C147.48 116.122 161.082 112.596 158.666 104.793Z" fill="#FA8D61"/>
<path d="M122.028 104.148C121.945 104.174 121.87 104.223 121.813 104.29C121.756 104.356 121.719 104.438 121.706 104.524C120.704 109.697 134.557 108.981 138.065 109.052C142.7 109.251 147.344 109.017 151.936 108.354C153.994 108.014 158.486 107.567 159.095 105.437C160.419 100.551 126.807 100.229 122.028 104.148Z" fill="#96CBEB"/>
<path d="M159.078 104.99C156.234 99.8565 152.92 94.9973 149.18 90.4749C145.403 85.4455 141.394 80.5415 137.439 75.6017C137.35 75.4992 137.24 75.4171 137.116 75.3608C136.993 75.3045 136.859 75.2754 136.723 75.2754C136.587 75.2754 136.453 75.3045 136.33 75.3608C136.206 75.4171 136.096 75.4992 136.007 75.6017C130.388 84.9278 125.632 94.7467 121.796 104.936C121.492 105.76 123.049 106.082 123.371 105.294C127.358 95.2985 132.059 85.6025 137.439 76.2818H136.025C139.891 81.0247 143.721 85.7856 147.39 90.6002C151.059 95.4147 154.084 100.659 157.986 105.33C158.344 105.742 159.364 105.491 159.095 104.954L159.078 104.99Z" fill="white"/>
<path d="M141.949 108.909C141.143 97.8835 138.477 86.9658 137.528 75.9406C137.528 75.1173 135.846 75.0994 135.917 75.9406C136.866 86.9479 138.727 97.973 140.553 108.909C140.66 109.607 142.003 109.643 141.949 108.909Z" fill="white"/>
<path d="M101.41 35.0081C99.6203 35.9925 99.2802 38.3729 99.2444 40.2343C99.3796 43.8267 98.1883 47.3434 95.8975 50.114C94.1138 52.0973 92.135 53.8962 89.9911 55.4834C87.8674 53.8851 85.9016 52.0871 84.1206 50.114C81.8635 47.4786 80.6701 44.0963 80.7737 40.628C80.7737 38.6951 80.6663 36.3683 78.8765 35.1692C74.76 32.4308 72.6659 39.6616 72.6301 42.4178C72.6181 44.6418 73.1055 46.8401 74.0565 48.8506C75.0075 50.861 76.3978 52.6323 78.1248 54.0336C81.506 56.3728 85.5217 57.6219 89.6332 57.6132H90.4386C94.4368 57.6184 98.3473 56.4415 101.679 54.2305C103.469 52.8319 104.914 51.0414 105.904 48.9967C106.894 46.9519 107.402 44.7074 107.388 42.4357C107.388 39.7152 105.598 32.8603 101.41 35.0081Z" fill="#96CBEB"/>
<path d="M104.506 53.2458C103.701 51.5455 101.875 51.456 100.229 51.6708H100.014H99.7814C97.3651 52.4225 95.5217 54.5702 93.4992 56.02C92.2642 56.9149 91.1366 58.0424 89.9196 59.0447C88.7741 58.0424 87.6644 56.897 86.34 56.02C84.2996 54.5702 82.474 52.4404 80.0399 51.6708H79.8072H79.5924C78.8246 51.4219 77.9965 51.4306 77.2341 51.6955C76.4717 51.9604 75.8166 52.467 75.3685 53.1384C75.0309 53.9962 74.9884 54.942 75.2476 55.8267C75.5069 56.7113 76.0532 57.4846 76.8004 58.0245C80.1115 60.9598 85.3735 61.6041 89.5795 60.745C89.6699 60.7281 89.7555 60.6914 89.8301 60.6376C89.9111 60.6918 90.0026 60.7284 90.0986 60.745C94.2867 61.5325 99.5666 60.9777 102.878 58.0245C103.634 57.5156 104.203 56.7727 104.497 55.9096C104.792 55.0465 104.795 54.1108 104.506 53.2458Z" fill="#FA8D61"/>
<path d="M21.316 104.793C21.3556 104.704 21.4212 104.629 21.5043 104.578C21.5873 104.526 21.6839 104.502 21.7813 104.506H57.7026C57.761 104.526 57.8141 104.558 57.8576 104.602C57.9011 104.645 57.9339 104.699 57.9531 104.757C60.4231 112.561 46.7669 116.122 39.6435 116.122C32.5201 116.122 18.8461 112.596 21.316 104.793Z" fill="#FA8D61"/>
<path d="M57.9711 104.148C58.0547 104.174 58.1293 104.223 58.1863 104.29C58.2433 104.356 58.2803 104.438 58.2932 104.524C59.2955 109.697 45.4425 108.981 41.9345 109.052C37.2992 109.251 32.6555 109.017 28.0636 108.354C25.9874 108.014 21.495 107.567 20.9044 105.437C19.562 100.551 53.1744 100.229 57.9711 104.148Z" fill="#96CBEB"/>
<path d="M20.923 104.989C23.767 99.8555 27.0803 94.9963 30.8206 90.4739C34.5971 85.4445 38.5347 80.5047 42.5438 75.6007C42.6345 75.4978 42.7461 75.4155 42.871 75.359C42.996 75.3026 43.1316 75.2734 43.2687 75.2734C43.4058 75.2734 43.5414 75.3026 43.6663 75.359C43.7913 75.4155 43.9029 75.4978 43.9935 75.6007C49.605 84.9306 54.3614 94.7488 58.2045 104.935C58.5088 105.759 56.9517 106.081 56.6295 105.293C52.6438 95.2939 47.9361 85.5974 42.5438 76.2808H43.9935C40.1097 81.0237 36.2974 85.7846 32.6283 90.5992C28.9592 95.4137 25.9345 100.658 22.0148 105.329C21.6569 105.741 20.6546 105.49 20.923 104.953V104.989Z" fill="white"/>
<path d="M38.0507 108.909C38.8382 97.8835 41.5229 86.9658 42.4536 75.9406C42.4536 75.1173 44.2434 75.0994 44.0823 75.9406C43.1337 86.9479 41.2544 97.973 39.3752 108.909C39.2678 109.607 37.9254 109.643 37.9791 108.909H38.0507Z" fill="white"/>
<path d="M87.6997 52.6913C87.6112 53.3317 87.5694 53.9778 87.5744 54.6243V57.488C87.5744 59.7789 87.5744 62.0877 87.5744 64.3966C87.5744 70.6131 87.5744 76.8237 87.5744 83.0284C87.5744 96.595 87.5744 110.162 87.5744 123.728C87.5744 128.489 87.3059 133.322 87.5744 138.047C87.5744 138.73 87.8459 139.386 88.3293 139.869C88.8126 140.353 89.4682 140.624 90.1517 140.624C90.8353 140.624 91.4908 140.353 91.9741 139.869C92.4575 139.386 92.729 138.73 92.729 138.047C93.087 133.984 92.8901 129.796 92.908 125.697C92.908 119.373 92.908 113.049 92.908 106.725C92.908 93.2481 92.908 79.8783 92.7648 66.3117C92.7648 63.627 92.7648 60.9423 92.7648 58.2576C92.7648 57.2195 92.7648 56.1635 92.7648 55.1075C92.7648 54.6959 92.7648 54.2842 92.7648 53.8905V53.1208C92.7648 52.3512 92.7648 53.4251 92.7648 52.6555C92.7648 52.0289 92.5159 51.428 92.0728 50.9849C91.6298 50.5419 91.0289 50.293 90.4023 50.293C89.7757 50.293 89.1748 50.5419 88.7317 50.9849C88.2887 51.428 88.0397 52.0289 88.0397 52.6555L87.6997 52.6913Z" fill="white"/>
<path d="M104.775 142.843C103.469 141.971 102.055 141.273 100.569 140.767C97.2759 139.389 98.3677 137.187 97.9202 134.431C97.4728 131.675 94.8776 130.44 92.3718 130.028C89.5798 129.563 85.8928 129.742 83.6913 131.818C82.9437 132.516 82.4468 133.441 82.2774 134.449C82.1967 135.217 82.1967 135.99 82.2774 136.758C82.3122 137.363 82.2395 137.969 82.0626 138.548C81.8244 139.121 81.4564 139.631 80.9874 140.038C80.5184 140.445 79.9613 140.738 79.36 140.892C77.0512 141.805 73.9906 142.969 73.5074 145.778C72.9883 148.248 75.5119 149.465 77.3912 150.342C83.1442 152.82 89.4945 153.566 95.6651 152.49C99.7995 151.756 111.147 148.553 104.775 142.843Z" fill="white"/>
<path d="M83.3508 140.946C86.3827 142.078 89.7103 142.141 92.783 141.125C92.8394 141.109 92.892 141.081 92.9378 141.044C92.9837 141.008 93.0218 140.962 93.05 140.911C93.0783 140.859 93.0961 140.803 93.1025 140.744C93.1089 140.686 93.1037 140.627 93.0873 140.57C93.0708 140.514 93.0434 140.461 93.0066 140.415C92.9698 140.37 92.9244 140.331 92.8729 140.303C92.8213 140.275 92.7648 140.257 92.7063 140.251C92.6479 140.244 92.5888 140.249 92.5324 140.266C89.58 140.926 86.5132 140.877 83.5834 140.123C83.0465 139.962 82.8496 140.767 83.3508 140.946Z" fill="#35208A"/>
<path d="M75.2971 146.477C77.9818 151.094 86.0358 151.506 90.6893 151.416C93.7319 151.431 96.7559 150.941 99.6383 149.967C102.17 149.273 104.434 147.832 106.135 145.832C106.314 145.546 105.956 145.277 105.706 145.403C103.567 146.787 101.336 148.025 99.0298 149.108C96.4521 149.951 93.7595 150.392 91.0473 150.414C85.8569 150.557 79.5031 149.967 75.6192 146.154C75.5765 146.102 75.5148 146.069 75.4477 146.062C75.3805 146.056 75.3135 146.076 75.2613 146.119C75.2091 146.161 75.1759 146.223 75.1692 146.29C75.1625 146.357 75.1827 146.424 75.2255 146.477H75.2971Z" fill="#35208A"/>
<path d="M94.4659 54.2657C94.4659 54.2657 94.4659 54.2657 94.4659 54.1583C94.4732 54.1169 94.4732 54.0745 94.4659 54.033C94.0005 51.4736 91.638 48.8247 88.7922 49.8807C85.9464 50.9367 85.32 54.1941 85.66 56.6998C85.7386 57.9898 86.3213 59.1971 87.2824 60.061C88.2435 60.925 89.5058 61.3763 90.7968 61.3175C93.9826 60.9417 94.7343 56.9146 94.4659 54.2657Z" fill="#96CBEB"/>
<path d="M86.9126 35.8859C86.5227 40.2117 87.0159 44.5716 88.3624 48.7009C88.4877 49.0589 89.0962 49.041 89.0783 48.6114C88.953 46.4815 88.3982 44.3875 88.1476 42.2755C87.897 40.1636 87.897 38.0158 87.7002 35.8859C87.7002 35.7815 87.6587 35.6814 87.5848 35.6075C87.511 35.5337 87.4108 35.4922 87.3064 35.4922C87.202 35.4922 87.1018 35.5337 87.028 35.6075C86.9541 35.6814 86.9126 35.7815 86.9126 35.8859Z" fill="#35208A"/>
<path d="M91.9062 35.4924C91.6309 37.4725 91.5172 39.4718 91.5661 41.4703C91.5661 43.7255 91.1902 46.0164 91.226 48.2716C91.226 48.719 91.9419 48.8443 92.0314 48.3789C92.3657 46.2412 92.5392 44.0814 92.5505 41.9178C92.7627 39.7781 92.7146 37.6205 92.4073 35.4924C92.3878 35.4418 92.3534 35.3982 92.3087 35.3675C92.264 35.3368 92.211 35.3203 92.1567 35.3203C92.1025 35.3203 92.0495 35.3368 92.0047 35.3675C91.96 35.3982 91.9256 35.4418 91.9062 35.4924Z" fill="#35208A"/>
<path d="M85.6774 52.5657C85.3975 52.9102 85.2179 53.3251 85.1583 53.7649C85.1583 54.1228 84.9614 54.7135 85.391 54.9103C85.8205 55.1072 86.0353 54.5882 86.0711 54.2481C86.1487 53.8157 86.2624 53.3907 86.4112 52.9773C86.5365 52.5836 85.9637 52.2077 85.6774 52.5657Z" fill="#35208A"/>
<path d="M93.4449 53.049C93.6854 53.4719 93.8547 53.9314 93.9461 54.4093C93.9461 54.9283 94.8947 54.8209 94.8768 54.284C94.8588 53.9345 94.7646 53.5932 94.6007 53.284C94.4368 52.9748 94.2073 52.7052 93.9282 52.4942C93.6418 52.2615 93.2659 52.6911 93.4449 52.9953V53.049Z" fill="#35208A"/>
<path d="M66.7592 57.5419C60.9593 57.1692 55.1543 58.1878 49.8277 60.5129C46.6419 61.8732 40.8787 64.88 41.7557 69.2292C42.3464 72.1645 46.8388 74.0259 48.2527 70.5895C48.4882 70.0433 48.5407 69.4357 48.4024 68.8572C48.264 68.2788 47.9423 67.7606 47.4853 67.38C47.0282 66.9995 46.4603 66.777 45.8664 66.7457C45.2724 66.7145 44.6843 66.8762 44.1899 67.2068C43.6529 67.6005 44.1899 68.5133 44.7089 68.1196C45.1033 67.8806 45.5747 67.803 46.0248 67.903C46.4749 68.0031 46.8691 68.273 47.1251 68.6565C48.5212 70.4463 45.6933 71.6276 44.2973 71.1443C41.7915 70.2494 42.8296 66.8667 44.0467 65.4707C46.1411 63.3626 48.7048 61.7803 51.528 60.853C56.4858 59.0632 61.8015 59.2064 66.7771 57.703C66.8004 57.6937 66.8203 57.6776 66.8344 57.6569C66.8484 57.6361 66.8559 57.6117 66.8559 57.5866C66.8559 57.5616 66.8484 57.5371 66.8344 57.5164C66.8203 57.4956 66.8004 57.4796 66.7771 57.4703L66.7592 57.5419Z" fill="#35208A"/>
<path d="M113.294 57.7753C116.283 58.6702 119.505 58.706 122.548 59.2966C125.658 59.8492 128.673 60.85 131.497 62.2677C132.932 62.9672 134.259 63.8715 135.434 64.9524C137.027 66.5453 138.566 70.4471 135.237 71.342C131.031 72.4696 132.91 66.1874 135.237 68.0309C135.756 68.4604 136.508 67.7087 135.989 67.297C134.038 65.722 131.765 67.297 131.711 69.6775C131.711 72.7738 135.649 73.1497 137.349 71.1809C141.144 66.8138 134.378 62.4288 131.049 60.8896C125.518 58.2825 119.413 57.1305 113.312 57.5426C113.289 57.5519 113.269 57.568 113.255 57.5887C113.241 57.6095 113.233 57.6339 113.233 57.659C113.233 57.684 113.241 57.7085 113.255 57.7292C113.269 57.75 113.289 57.766 113.312 57.7753H113.294Z" fill="#35208A"/>
<path d="M87.8966 130.656C88.6111 131.043 89.4108 131.245 90.2233 131.245C91.0359 131.245 91.8356 131.043 92.5501 130.656C92.6247 130.612 92.6829 130.545 92.7157 130.465C92.7486 130.386 92.7543 130.297 92.7319 130.214C92.7095 130.13 92.6603 130.056 92.5919 130.004C92.5234 129.951 92.4396 129.922 92.3532 129.922C91.6373 129.922 90.9392 130.19 90.2054 130.208C89.4914 130.155 88.7805 130.066 88.0756 129.94C87.6997 129.94 87.6281 130.405 87.8966 130.584V130.656Z" fill="#35208A"/>
<path d="M61.6944 32.985C61.7104 32.9515 61.7186 32.9148 61.7186 32.8776C61.7186 32.8405 61.7104 32.8038 61.6944 32.7703C61.1575 31.768 59.2245 31.5711 58.258 31.3742C56.683 31.0699 55.0901 30.8731 53.4793 30.6583L52.7096 30.5509C52.6023 30.5509 52.4054 30.4614 52.4412 30.5509C52.2251 30.2075 52.0622 29.8334 51.9579 29.4412C51.2957 27.902 50.6514 26.3628 49.9713 24.8236C49.6312 24.036 49.2911 23.2664 48.9153 22.4968C48.7005 22.0315 48.432 21.1366 47.913 20.9039C46.7496 20.4027 45.9263 23.2843 45.622 23.9644C44.8882 25.629 44.1902 27.3114 43.4743 28.9759C43.3132 29.3338 43.0626 30.3361 42.7405 30.5688C42.2434 30.647 41.7399 30.677 41.237 30.6583L39.1072 30.8373C37.8975 30.9052 36.698 31.0971 35.5276 31.41C34.8296 31.6069 33.5767 31.9469 33.7378 32.9313C33.8989 33.9157 35.0443 34.4885 35.5276 34.918C36.4742 35.6714 37.4797 36.3477 38.5344 36.9405C38.9998 37.2269 39.6083 37.4237 40.0379 37.7459C40.4674 38.0681 40.3421 38.6229 40.1811 39.1956C39.8589 40.4127 39.5367 41.6298 39.2504 42.7752C38.9867 43.7653 38.7776 44.7691 38.6239 45.7821C38.4275 46.4663 38.4275 47.1919 38.6239 47.8762C39.3577 49.4333 42.2035 46.7128 42.83 46.1937C43.4564 45.6747 44.5124 44.8514 45.3357 44.1534L46.5169 43.1153C46.7317 42.9184 47.2866 42.1488 47.5729 42.0951C47.8593 42.0414 49.2553 43.509 49.6312 43.8849C50.4724 44.6187 51.3315 45.2988 52.2085 45.9969C53.2927 47.1064 54.6512 47.9091 56.1461 48.3236C57.5242 48.4489 56.862 46.3548 56.683 45.5315C56.2534 43.5627 55.6091 41.6477 55.0185 39.7147C54.8932 39.303 54.7321 38.8735 54.6426 38.4618C54.5531 38.0502 54.6426 38.0323 54.9648 37.7817C55.7165 37.3342 56.6472 37.0479 57.4526 36.6362C58.7234 35.9919 61.3007 34.8464 61.6586 33.2177C61.6807 33.1837 61.6954 33.1453 61.7015 33.1052C61.7077 33.0651 61.7053 33.0241 61.6944 32.985Z" fill="#FFF896"/>
<path d="M136.401 139.085C134.209 138.921 132.011 138.873 129.814 138.942C130.441 138.315 131.067 137.707 131.604 137.152C132.653 136.258 133.559 135.207 134.289 134.038C134.35 133.923 134.373 133.791 134.354 133.662C134.334 133.533 134.274 133.413 134.182 133.321C134.09 133.229 133.97 133.169 133.841 133.15C133.712 133.13 133.58 133.153 133.465 133.214C132.281 133.924 131.212 134.811 130.297 135.846L128.382 137.635C128.382 136.74 128.382 135.846 128.382 134.951C128.498 133.571 128.395 132.182 128.078 130.834C128.04 130.71 127.963 130.601 127.858 130.523C127.753 130.446 127.627 130.404 127.496 130.404C127.366 130.404 127.239 130.446 127.135 130.523C127.03 130.601 126.953 130.71 126.915 130.834C126.574 132.178 126.447 133.567 126.539 134.951V137.617L124.749 135.72C123.848 134.666 122.792 133.755 121.617 133.018C121.5 132.951 121.364 132.925 121.231 132.944C121.098 132.962 120.975 133.025 120.881 133.121C120.787 133.217 120.727 133.341 120.712 133.475C120.696 133.608 120.725 133.743 120.794 133.859C121.51 135.044 122.403 136.112 123.443 137.027L125.232 138.942H122.548C121.161 138.833 119.766 138.942 118.413 139.264C118.289 139.302 118.18 139.379 118.102 139.484C118.025 139.589 117.983 139.716 117.983 139.846C117.983 139.976 118.025 140.103 118.102 140.207C118.18 140.312 118.289 140.389 118.413 140.427C119.763 140.768 121.158 140.895 122.548 140.803H125.143C123.532 142.325 121.921 143.846 120.489 145.493C120.387 145.664 120.344 145.864 120.367 146.063C120.389 146.261 120.476 146.447 120.614 146.591C120.752 146.735 120.934 146.83 121.131 146.861C121.329 146.892 121.531 146.858 121.706 146.763C123.353 145.385 124.892 143.81 126.414 142.253C126.414 144.437 126.288 146.638 126.414 148.786C126.455 148.992 126.567 149.178 126.73 149.312C126.893 149.446 127.098 149.519 127.308 149.519C127.519 149.519 127.724 149.446 127.887 149.312C128.05 149.178 128.162 148.992 128.203 148.786C128.4 146.638 128.364 144.454 128.347 142.271C129.85 143.864 131.353 145.457 132.982 146.871C133.157 147.007 133.375 147.074 133.596 147.061C133.817 147.048 134.026 146.955 134.183 146.8C134.341 146.645 134.437 146.437 134.453 146.216C134.469 145.996 134.404 145.777 134.271 145.6C132.875 143.953 131.318 142.414 129.76 140.893C131.944 140.893 134.128 141.018 136.293 140.893C136.533 140.907 136.769 140.825 136.948 140.666C137.128 140.507 137.237 140.282 137.251 140.043C137.265 139.803 137.183 139.567 137.024 139.388C136.865 139.208 136.64 139.099 136.401 139.085Z" fill="white"/>
<path d="M105.956 90.3845C106.547 90.3789 107.113 90.1411 107.531 89.7223C107.735 89.5178 107.897 89.275 108.008 89.0078C108.118 88.7407 108.175 88.4543 108.175 88.1652C108.176 87.5758 107.945 87.0098 107.531 86.5902C107.115 86.1759 106.552 85.9434 105.965 85.9434C105.378 85.9434 104.815 86.1759 104.399 86.5902C103.983 87.0101 103.746 87.5744 103.736 88.1652C103.739 88.4556 103.798 88.7427 103.912 89.0099C104.026 89.2771 104.191 89.5193 104.399 89.7223C104.811 90.1384 105.37 90.3762 105.956 90.3845Z" fill="white"/>
<path d="M130.208 22.892C130.785 23.1058 131.42 23.1058 131.997 22.892C132.48 22.7438 132.894 22.426 133.161 21.9971C133.294 21.7696 133.38 21.5177 133.413 21.2564C133.447 20.995 133.428 20.7296 133.358 20.4757C133.265 20.127 133.107 19.799 132.892 19.5093C132.638 19.201 132.335 18.9352 131.997 18.7217C131.729 18.5677 131.432 18.4694 131.124 18.4325C130.817 18.3956 130.505 18.4209 130.208 18.507C129.877 18.5923 129.571 18.7553 129.316 18.9826C129.06 19.2098 128.863 19.4947 128.74 19.8135C128.608 20.0933 128.539 20.3989 128.539 20.7084C128.539 21.0179 128.608 21.3235 128.74 21.6033C128.832 21.8824 128.992 22.1345 129.205 22.3371C129.484 22.6118 129.829 22.8091 130.208 22.9099V22.892Z" fill="white"/>
<path d="M160.921 52.5664V52.3874C161.008 52.0886 161.025 51.7736 160.969 51.4672C160.914 51.1609 160.788 50.8718 160.601 50.6227C160.414 50.3735 160.172 50.1714 159.894 50.0321C159.615 49.8928 159.308 49.8203 158.997 49.8203C158.685 49.8203 158.378 49.8928 158.1 50.0321C157.822 50.1714 157.579 50.3735 157.393 50.6227C157.206 50.8718 157.08 51.1609 157.024 51.4672C156.969 51.7736 156.985 52.0886 157.073 52.3874V52.5664C157.192 52.9696 157.439 53.3234 157.776 53.575C158.113 53.8266 158.522 53.9625 158.943 53.9625C159.364 53.9625 159.773 53.8266 160.11 53.575C160.447 53.3234 160.694 52.9696 160.813 52.5664H160.921Z" fill="white"/>
<path d="M160.67 76.962H160.956C163.319 77.141 163.319 73.1139 160.956 73.2929H160.67C160.195 73.2929 159.74 73.4815 159.404 73.8171C159.068 74.1528 158.88 74.608 158.88 75.0827C158.88 75.5574 159.068 76.0126 159.404 76.3483C159.74 76.6839 160.195 76.8725 160.67 76.8725V76.962Z" fill="white"/>
<path d="M50.3651 133.089V132.892C50.3566 132.296 50.1196 131.725 49.7029 131.299C49.2807 130.876 48.7077 130.638 48.11 130.637C47.5116 130.641 46.9388 130.88 46.5141 131.301C46.0893 131.723 45.8462 132.294 45.8369 132.892V133.089C45.8454 133.685 46.0824 134.255 46.4991 134.682C46.7103 134.893 46.9615 135.061 47.238 135.175C47.5146 135.288 47.811 135.346 48.11 135.344C48.7052 135.335 49.2734 135.094 49.6944 134.673C50.1153 134.252 50.3559 133.684 50.3651 133.089Z" fill="white"/>
<path d="M15.553 77.7486C16.1641 77.7446 16.7492 77.5003 17.1817 77.0685C17.6072 76.6318 17.8504 76.0494 17.8618 75.4398C17.8603 74.9843 17.7241 74.5394 17.4703 74.1611C17.2165 73.7828 16.8564 73.4881 16.4355 73.314C16.0146 73.1399 15.5515 73.0942 15.1047 73.1826C14.6578 73.2711 14.2471 73.4897 13.9243 73.8111C13.5018 74.2498 13.2591 74.8309 13.2441 75.4398C13.2578 76.0478 13.5054 76.6272 13.9355 77.0572C14.3656 77.4873 14.9449 77.735 15.553 77.7486Z" fill="white"/>
<path d="M101.446 22.1745H101.571C102.152 22.0187 102.648 21.639 102.949 21.1185L102.591 21.566L102.144 21.906L102.573 21.566C102.786 21.3812 102.942 21.1388 103.021 20.868C103.231 20.4333 103.275 19.937 103.146 19.4719C103.028 19.0972 102.826 18.7543 102.555 18.4696C102.202 18.1049 101.735 17.8714 101.231 17.8074C100.767 17.7527 100.298 17.8356 99.881 18.0456C99.4642 18.2556 99.1182 18.5836 98.8863 18.9887C98.686 19.3306 98.581 19.72 98.582 20.1162C98.591 20.6017 98.7539 21.0718 99.0474 21.4586C99.2871 21.7535 99.594 21.9867 99.9423 22.1387C100.398 22.3434 100.911 22.3814 101.392 22.2461L101.446 22.1745Z" fill="white"/>
<path d="M110.359 168.85L109.876 169.226L109.303 169.477C109.653 169.404 109.984 169.255 110.271 169.042C110.559 168.829 110.796 168.556 110.968 168.242C111.129 167.968 111.235 167.665 111.279 167.35C111.323 167.036 111.305 166.715 111.225 166.408C111.145 166.1 111.005 165.812 110.814 165.558C110.622 165.305 110.383 165.091 110.109 164.931C109.563 164.628 108.923 164.545 108.319 164.698C107.855 164.832 107.431 165.078 107.084 165.414C106.851 165.649 106.668 165.929 106.545 166.237C106.422 166.544 106.362 166.873 106.368 167.204C106.36 167.535 106.42 167.864 106.543 168.172C106.666 168.479 106.85 168.759 107.084 168.993C107.316 169.229 107.595 169.414 107.904 169.534C108.212 169.654 108.543 169.708 108.874 169.691H109.518C109.919 169.58 110.284 169.364 110.574 169.065L110.359 168.85Z" fill="white"/>
<path d="M153.672 132.947L153.959 133.251C154.306 133.596 154.761 133.811 155.247 133.86C155.741 133.951 156.252 133.855 156.679 133.591C157.014 133.4 157.296 133.129 157.503 132.804L157.735 132.267C157.816 131.974 157.816 131.665 157.735 131.372C157.686 130.885 157.472 130.43 157.127 130.083L156.822 129.797C156.397 129.392 155.835 129.162 155.247 129.152C154.807 129.15 154.375 129.279 154.008 129.523C153.641 129.766 153.355 130.114 153.186 130.521C153.017 130.928 152.973 131.376 153.06 131.808C153.146 132.24 153.36 132.636 153.672 132.947Z" fill="white"/>
<path d="M63.1979 75.8333C63.3783 75.5138 63.473 75.1532 63.473 74.7863C63.473 74.4194 63.3783 74.0587 63.1979 73.7393C63.0164 73.4248 62.7556 73.1635 62.4415 72.9814C62.1275 72.7992 61.7712 72.7026 61.4081 72.7012C61.0438 72.7062 60.6872 72.8061 60.3734 72.9911C60.0596 73.1761 59.7994 73.4398 59.6187 73.7561C59.4379 74.0724 59.3428 74.4304 59.3428 74.7947C59.3427 75.159 59.4377 75.517 59.6183 75.8333C59.798 76.1497 60.0582 76.4127 60.3726 76.5957C60.687 76.7788 61.0443 76.8752 61.4081 76.8752C61.7719 76.8752 62.1292 76.7788 62.4436 76.5957C62.758 76.4127 63.0183 76.1497 63.1979 75.8333Z" fill="white"/>
<path d="M128.436 43.296V43.5465C127.631 47.1261 133.465 47.1261 132.66 43.5465V43.296C132.528 42.8527 132.256 42.4639 131.885 42.1875C131.514 41.911 131.064 41.7617 130.602 41.7617C130.139 41.7617 129.689 41.911 129.318 42.1875C128.947 42.4639 128.675 42.8527 128.543 43.296H128.436Z" fill="#F7B9E7"/>
<path d="M74.7775 101.411C75.2224 101.664 75.7378 101.764 76.2452 101.697C76.7471 101.639 77.2144 101.412 77.5696 101.053C77.9791 100.629 78.2153 100.067 78.2318 99.4777C78.2066 98.8851 77.9719 98.3206 77.5696 97.8847L77.1043 97.5268C76.8472 97.3593 76.5513 97.2607 76.2452 97.2404C75.7379 97.1745 75.2228 97.275 74.7775 97.5268C74.4399 97.7262 74.16 98.0101 73.9656 98.3507C73.7712 98.6912 73.6689 99.0766 73.6689 99.4687C73.6689 99.8609 73.7712 100.246 73.9656 100.587C74.16 100.927 74.4399 101.211 74.7775 101.411Z" fill="#F7B9E7"/>
<path d="M30.4268 132.838C30.4525 132.787 30.4824 132.74 30.5162 132.694L30.1404 133.178C30.3194 132.963 30.4983 132.73 30.6594 132.498C30.552 132.659 30.4268 132.802 30.3015 132.963L30.4089 132.856L29.9614 133.196H30.0867L29.6034 133.392C29.8911 133.312 30.1566 133.167 30.3798 132.968C30.6031 132.77 30.7783 132.523 30.8921 132.247C31.0104 131.96 31.0621 131.65 31.0435 131.34C31.0249 131.03 30.9365 130.728 30.7847 130.457C30.5042 129.946 30.0551 129.547 29.514 129.33C28.9871 129.11 28.4033 129.066 27.8494 129.204C27.5649 129.266 27.2927 129.375 27.044 129.527C26.7204 129.715 26.4444 129.976 26.2372 130.288C26.03 130.6 25.8971 130.956 25.8487 131.328C25.8003 131.699 25.8377 132.077 25.958 132.432C26.0784 132.787 26.2784 133.109 26.5429 133.375C27.0194 133.846 27.6627 134.109 28.3327 134.108C28.7629 134.101 29.1834 133.979 29.5512 133.756C29.9191 133.532 30.2212 133.216 30.4268 132.838Z" fill="#F7B9E7"/>
<path d="M70.8755 165.324C71.5281 165.315 72.1524 165.055 72.6188 164.599C73.0853 164.142 73.3583 163.524 73.3812 162.872C73.3867 162.539 73.3244 162.209 73.1983 161.901C73.0721 161.594 72.8847 161.315 72.6474 161.082C72.1716 160.608 71.5294 160.338 70.8576 160.33C70.1866 160.342 69.5458 160.611 69.0678 161.082C68.8338 161.317 68.6485 161.596 68.5226 161.904C68.3967 162.211 68.3326 162.54 68.334 162.872C68.3387 163.539 68.6061 164.179 69.0783 164.651C69.5506 165.123 70.1898 165.391 70.8576 165.395L70.8755 165.324Z" fill="#F7B9E7"/>
<path d="M122.44 125.285V125.178C122.438 124.512 122.182 123.872 121.724 123.388C121.49 123.152 121.211 122.967 120.903 122.844C120.595 122.721 120.265 122.662 119.934 122.672C119.602 122.658 119.271 122.714 118.962 122.838C118.653 122.961 118.375 123.149 118.144 123.388C117.686 123.872 117.43 124.512 117.428 125.178V125.285C117.422 125.616 117.483 125.945 117.606 126.252C117.729 126.56 117.912 126.839 118.144 127.075C118.377 127.311 118.657 127.496 118.964 127.619C119.272 127.742 119.602 127.801 119.934 127.791C120.265 127.798 120.594 127.738 120.901 127.615C121.209 127.492 121.488 127.307 121.722 127.073C121.956 126.839 122.14 126.56 122.264 126.253C122.387 125.945 122.447 125.616 122.44 125.285Z" fill="#F7B9E7"/>
<path d="M29.5317 46.5342C30.2024 46.5209 30.8426 46.252 31.3215 45.7825C31.7937 45.3065 32.0586 44.6632 32.0586 43.9927C32.0586 43.3222 31.7937 42.6789 31.3215 42.2029C30.8426 41.7333 30.2024 41.4644 29.5317 41.4512C28.8615 41.4662 28.2219 41.7349 27.7419 42.2029C27.2693 42.6798 26.9998 43.3213 26.9902 43.9927C27.0035 44.6633 27.2724 45.3035 27.7419 45.7825C28.2267 46.2432 28.8634 46.5106 29.5317 46.5342Z" fill="#F7B9E7"/>
<path d="M71.4847 18.5232V18.04C71.487 17.7196 71.4257 17.4021 71.3042 17.1057C71.1827 16.8093 71.0035 16.54 70.777 16.3135C70.5505 16.087 70.2812 15.9078 69.9848 15.7863C69.6884 15.6648 69.3709 15.6035 69.0505 15.6058C68.7196 15.6001 68.3908 15.6605 68.0835 15.7834C67.7761 15.9063 67.4964 16.0894 67.2607 16.3218C66.8045 16.8051 66.5542 17.447 66.5627 18.1116V18.5948C66.5542 19.2594 66.8045 19.9013 67.2607 20.3846C67.7443 20.8426 68.3845 21.0987 69.0505 21.1005C69.3814 21.1053 69.7098 21.0444 70.017 20.9216C70.3242 20.7987 70.604 20.6162 70.8403 20.3846C71.2966 19.9013 71.5469 19.2594 71.5384 18.5948L71.4847 18.5232Z" fill="#F7B9E7"/>
</g>
<defs>
<clipPath id="clip0_2028_15558">
<rect width="180" height="180" fill="white"/>
</clipPath>
</defs>
</svg>
