<svg width="158" height="158" viewBox="0 0 158 158" fill="none" xmlns="http://www.w3.org/2000/svg">
<g filter="url(#filter0_d_1633_28388)">
<rect x="4" width="150" height="150" rx="30" fill="white"/>
<g clip-path="url(#clip0_1633_28388)">
<path d="M103.717 98.7212L95.4159 100.942L76.2371 105.318L67.2547 107.368L64.2587 108.053C60.9208 108.813 57.9141 110.625 55.6807 113.224C53.4473 115.824 52.1051 119.072 51.8514 122.493C51.8527 122.501 51.8527 122.51 51.8514 122.519C51.7862 123.121 51.7784 123.727 51.8282 124.331C51.901 125.306 52.0365 126.276 52.2339 127.234C52.3063 127.615 52.3903 128.015 52.4859 128.439C52.4859 128.439 52.8974 127.783 55.2937 126.863L63.6038 124.639L79.7866 120.948L91.7766 118.213L94.7727 117.528C98.1075 116.766 101.111 114.952 103.341 112.354C105.572 109.756 106.912 106.509 107.165 103.091C107.165 103.091 107.165 103.074 107.165 103.065C107.231 102.463 107.238 101.856 107.189 101.253C107.116 100.277 106.98 99.3076 106.783 98.3495C106.711 97.9691 106.627 97.5685 106.531 97.1445C106.525 97.1445 106.114 97.8007 103.717 98.7212Z" fill="url(#paint0_linear_1633_28388)"/>
<path d="M108.704 36.2748C109.458 35.8611 110.176 35.3863 110.851 34.855C111.367 34.4536 111.857 34.0201 112.318 33.5571C114.165 31.7077 115.532 29.4327 116.299 26.9311C116.299 26.9311 116.299 26.9137 116.299 26.9021C116.496 26.3307 116.638 25.7414 116.722 25.1425C116.866 24.1809 116.948 23.2111 116.968 22.2389C116.968 21.8528 116.988 21.4433 116.988 21.0078C116.988 21.0078 115.76 22.2389 108.383 22.2389H79.5C78.8374 22.2389 78.1778 22.2564 77.521 22.2912C75.2628 22.4066 73.0197 22.7263 70.819 23.2465C69.8145 23.4904 68.8245 23.772 67.849 24.0914C66.8146 24.4282 65.8004 24.8144 64.8095 25.2383C64.4357 25.398 64.0648 25.5606 63.6997 25.7319C59.4837 27.7065 55.6691 30.4462 52.4486 33.8126C47.472 39.0091 44.0906 45.5294 42.7071 52.5971C41.3236 59.6647 41.9963 66.9819 44.645 73.6774C47.2937 80.3728 51.8069 86.1643 57.6471 90.3623C63.4873 94.5604 70.4085 96.988 77.5865 97.3561C84.7645 97.7242 91.8968 96.0173 98.1342 92.4387C104.372 88.86 109.451 83.5605 112.768 77.171C116.085 70.7815 117.5 63.5713 116.843 56.3991C116.187 49.2268 113.488 42.3947 109.067 36.7162C108.951 36.5681 108.826 36.4229 108.704 36.2748ZM79.5 40.3689C83.3403 40.366 87.0951 41.5045 90.2895 43.6404C93.484 45.7763 95.9745 48.8136 97.4461 52.3681C98.9177 55.9226 99.3042 59.8346 98.5568 63.6092C97.8093 67.3839 95.9615 70.8516 93.2471 73.5738C90.5326 76.2959 87.0735 78.1502 83.3072 78.902C79.541 79.6538 75.6368 79.2694 72.0886 77.7974C68.5404 76.3254 65.5076 73.8319 63.3737 70.6324C61.2399 67.4329 60.101 63.6711 60.101 59.8229C60.101 54.6659 62.1443 49.7199 65.7819 46.072C69.4196 42.424 74.3537 40.3727 79.5 40.3689Z" fill="url(#paint1_linear_1633_28388)"/>
</g>
<rect x="4.5" y="0.5" width="149" height="149" rx="29.5" stroke="#D6D6D6"/>
</g>
<defs>
<filter id="filter0_d_1633_28388" x="0" y="0" width="158" height="158" filterUnits="userSpaceOnUse" color-interpolation-filters="sRGB">
<feFlood flood-opacity="0" result="BackgroundImageFix"/>
<feColorMatrix in="SourceAlpha" type="matrix" values="0 0 0 0 0 0 0 0 0 0 0 0 0 0 0 0 0 0 127 0" result="hardAlpha"/>
<feOffset dy="4"/>
<feGaussianBlur stdDeviation="2"/>
<feComposite in2="hardAlpha" operator="out"/>
<feColorMatrix type="matrix" values="0 0 0 0 0 0 0 0 0 0 0 0 0 0 0 0 0 0 0.1 0"/>
<feBlend mode="normal" in2="BackgroundImageFix" result="effect1_dropShadow_1633_28388"/>
<feBlend mode="normal" in="SourceGraphic" in2="effect1_dropShadow_1633_28388" result="shape"/>
</filter>
<linearGradient id="paint0_linear_1633_28388" x1="51.7916" y1="112.786" x2="107.221" y2="112.786" gradientUnits="userSpaceOnUse">
<stop stop-color="#E46125"/>
<stop offset="1" stop-color="#A12FA3"/>
</linearGradient>
<linearGradient id="paint1_linear_1633_28388" x1="42" y1="59.1928" x2="117" y2="59.1928" gradientUnits="userSpaceOnUse">
<stop stop-color="#E46125"/>
<stop offset="1" stop-color="#A12FA3"/>
</linearGradient>
<clipPath id="clip0_1633_28388">
<rect width="75" height="107.432" fill="white" transform="translate(42 21)"/>
</clipPath>
</defs>
</svg>
