<svg width="485" height="241" viewBox="0 0 485 241" fill="none" xmlns="http://www.w3.org/2000/svg">
<rect width="14.6418" height="14.6418" rx="7.3209" transform="matrix(-0.967116 -0.254335 -0.254335 0.967116 72.6943 78.6504)" fill="#FFE9E0"/>
<rect width="11.3881" height="11.3881" rx="5.69403" transform="matrix(-0.967116 -0.254335 -0.254335 0.967116 75.5957 99.5996)" fill="#FFE9E0"/>
<rect width="9" height="9" rx="4.5" transform="matrix(-0.967116 -0.254335 -0.254335 0.967116 78.8145 119.459)" fill="#FFE9E0"/>
<rect width="148.045" height="69.9552" rx="19.5224" fill="#FFE9E0"/>
<path d="M30.1032 28.9768C30.9804 27.815 32.0082 26.7846 33.1573 25.915C34.1469 25.1273 35.3122 24.6121 36.545 24.417C37.6831 24.2607 38.8377 24.5286 39.8033 25.1731C40.838 25.8388 41.7259 27.0816 42.4672 28.9014C42.8571 29.8875 43.1786 30.9013 43.4292 31.935C43.7015 33.0341 43.9284 34.1333 44.1099 35.2324C44.2915 36.3315 44.4427 37.3882 44.5638 38.4026C44.6742 39.4153 44.7665 40.3056 44.8406 41.0734C44.905 41.5416 44.8069 42.0183 44.5638 42.4183C44.3347 42.7703 44.0221 43.055 43.6561 43.245C43.276 43.4393 42.8591 43.5438 42.4354 43.5512C42.0135 43.5722 41.5928 43.4891 41.2078 43.3086C40.8299 43.1219 40.5048 42.8371 40.2639 42.4819C39.9933 42.07 39.8573 41.5787 39.8759 41.0805C39.8258 39.9748 39.7083 38.8735 39.5242 37.7831C39.3404 36.6832 39.1112 35.5668 38.8435 34.441C38.3988 32.5144 37.8913 31.2379 37.321 30.6114C36.7507 29.9849 36.07 30.0037 35.2788 30.6679C34.7962 31.0683 34.3666 31.5331 34.0014 32.0504C33.6163 32.5949 33.2581 33.1593 32.9281 33.7415C32.5875 34.3448 32.2785 34.9667 32.0023 35.6045C31.7187 36.2593 31.4305 36.8928 31.1333 37.5076C30.8361 38.1223 30.566 38.7299 30.2461 39.3329C29.929 39.9279 29.6589 40.5486 29.4383 41.1888C29.2337 41.8592 28.8192 42.4395 28.2607 42.8375C27.7731 43.1922 27.1881 43.374 26.5929 43.3557C26.0258 43.3312 25.4867 43.0925 25.0772 42.6844C24.628 42.2573 24.4033 41.5947 24.4033 40.6966C24.429 40.1078 24.4479 39.5182 24.46 38.9278C24.4721 38.3374 24.5024 37.7486 24.5508 37.1613C24.6764 35.0605 24.8186 32.9729 24.9774 30.8987C25.1362 28.8245 25.3397 26.7495 25.5878 24.6738C25.6853 23.7764 26.0143 23.1311 26.568 22.733C27.0836 22.3483 27.7107 22.1588 28.3446 22.196C28.9564 22.2247 29.5392 22.4747 29.992 22.9026C30.225 23.1222 30.4014 23.3989 30.5048 23.7075C30.6083 24.0161 30.6356 24.3467 30.5842 24.669C30.5116 25.283 30.4443 25.8851 30.3822 26.4755C30.3187 27.0643 30.2529 27.6532 30.178 28.242C30.1543 28.3621 30.1421 28.4844 30.1417 28.607C30.1409 28.7313 30.128 28.8552 30.1032 28.9768Z" fill="#FF9565"/>
<path d="M60.2038 24.5218C60.3591 24.2114 60.5782 23.9402 60.8456 23.7273C61.113 23.5144 61.4222 23.3652 61.7513 23.29C62.3389 23.1566 62.952 23.2167 63.5052 23.4619C64.0367 23.7046 64.4795 24.1172 64.7691 24.6396C64.9209 24.9043 65.0086 25.2033 65.0248 25.5109C65.041 25.8185 64.9852 26.1257 64.8621 26.406C64.7373 27.1997 64.6352 27.9958 64.5467 28.7895C64.4582 29.5833 64.3788 30.3888 64.3062 31.2084C64.0095 34.8545 64.0468 38.5216 64.4174 42.1603C64.458 42.6303 64.3531 43.1014 64.1179 43.5052C63.8986 43.8601 63.5893 44.1454 63.2239 44.3295C62.8406 44.5246 62.4208 44.6299 61.9941 44.6381C61.5702 44.6556 61.1483 44.5701 60.762 44.3884C60.3816 44.2027 60.0541 43.9179 59.8112 43.5617C59.5358 43.1476 59.3979 42.6514 59.4187 42.1486C59.3694 41.8566 59.339 41.5615 59.3279 41.2654C59.3143 40.9568 59.2962 40.6506 59.2712 40.3421C58.9837 40.6187 58.674 40.8692 58.3454 41.0911C58.0244 41.3102 57.691 41.5091 57.3471 41.6869C56.7371 42.0013 56.0987 42.2522 55.4411 42.4359C54.7708 42.6269 54.0802 42.7305 53.3853 42.7445C52.6957 42.7551 52.0081 42.6639 51.3432 42.4736C50.6533 42.2766 50.0063 41.944 49.4372 41.4938C48.7949 41.0343 48.2472 40.4466 47.8262 39.765C47.3935 39.0725 47.0517 38.3232 46.8096 37.537C46.5579 36.7382 46.4165 35.9063 46.3899 35.0663C46.3624 34.2075 46.4463 33.3488 46.6395 32.5132C46.9446 31.1597 47.4637 29.868 48.1756 28.6906C48.8807 27.501 49.7869 26.4533 50.8508 25.5982C51.8915 24.7563 53.082 24.136 54.3542 23.7728C55.6734 23.4035 57.0628 23.3994 58.384 23.7611C59.0284 23.9036 59.6441 24.161 60.2038 24.5218ZM54.1636 37.6571C54.853 37.4156 55.4795 37.0127 55.9947 36.4795C56.5097 35.9406 56.9503 35.3303 57.304 34.6659C57.6747 33.9727 57.9838 33.2458 58.2275 32.4944C58.4755 31.7391 58.6979 31.0027 58.8945 30.2851C57.8357 29.0557 56.7624 28.5689 55.6748 28.8249C54.5872 29.0808 53.6024 29.8266 52.7205 31.0624C52.3132 31.6594 52.0176 32.3305 51.8492 33.0408C51.6224 33.845 51.5168 34.6808 51.536 35.5185C51.524 36.2098 51.7465 36.8834 52.1646 37.4216C52.5654 37.8926 53.2318 37.9711 54.1636 37.6571Z" fill="#FF9565"/>
<path d="M71.8268 28.9754C72.704 27.8135 73.7318 26.7832 74.8809 25.9135C75.8707 25.1262 77.0359 24.611 78.2686 24.4156C79.4044 24.261 80.5563 24.5288 81.5201 25.1716C82.5548 25.8374 83.4427 27.0802 84.184 28.9C84.5749 29.8857 84.8965 30.8996 85.146 31.9336C85.4183 33.0327 85.6452 34.1318 85.8267 35.231C86.0083 36.3301 86.1595 37.3868 86.2806 38.4011C86.3925 39.4139 86.4848 40.3042 86.5574 41.072C86.6218 41.5402 86.5237 42.0169 86.2806 42.4169C86.0515 42.7688 85.7389 43.0535 85.3729 43.2436C84.9928 43.4378 84.5759 43.5424 84.1522 43.5497C83.732 43.5681 83.3136 43.4825 82.9314 43.3001C82.5527 43.1147 82.2273 42.8297 81.9875 42.4734C81.7118 42.0659 81.5701 41.5769 81.5836 41.0791C81.5335 39.9733 81.416 38.872 81.2319 37.7817C81.0481 36.6818 80.819 35.5654 80.5512 34.4396C80.1095 32.5177 79.6043 31.2435 79.0355 30.617C78.4667 29.9905 77.786 30.0093 76.9934 30.6735C76.5108 31.0733 76.082 31.5383 75.7182 32.0561C74.9323 33.1638 74.2621 34.3552 73.7191 35.6102C73.4332 36.2649 73.1451 36.8985 72.8478 37.5132C72.5506 38.1279 72.2806 38.7356 71.9606 39.3385C71.6416 39.931 71.3692 40.5493 71.146 41.1874C70.942 41.8575 70.5284 42.4377 69.9707 42.8361C69.4838 43.1905 68.8996 43.3722 68.3052 43.3542C67.7374 43.3297 67.1976 43.0911 66.7872 42.683C66.3425 42.2606 66.1201 41.6011 66.1201 40.7046C66.1458 40.1158 66.1647 39.5262 66.1768 38.9358C66.1882 38.347 66.22 37.7581 66.2676 37.1693C66.3932 35.0684 66.5354 32.9809 66.6942 30.9067C66.853 28.8325 67.0565 26.7575 67.3046 24.6817C67.4044 23.7852 67.7319 23.1383 68.287 22.741C68.8023 22.3556 69.4297 22.166 70.0637 22.204C70.6752 22.2337 71.2577 22.4835 71.711 22.9106C71.9433 23.1308 72.119 23.4077 72.2224 23.716C72.3258 24.0244 72.3536 24.3547 72.3033 24.677C72.2291 25.291 72.1611 25.8931 72.099 26.4835C72.037 27.0739 71.9689 27.6627 71.8948 28.25C71.8711 28.3701 71.8589 28.4924 71.8585 28.615C71.8594 28.7359 71.8487 28.8566 71.8268 28.9754Z" fill="#FF9565"/>
<path d="M100.618 28.5136C100.029 28.056 99.4111 27.6391 98.7691 27.2653C98.1893 26.9163 97.5468 26.6943 96.8812 26.6129C96.2768 26.5479 95.6704 26.7156 95.1772 27.084C94.6598 27.4545 94.228 28.1525 93.8815 29.1778C93.432 30.357 93.2122 31.617 93.2349 32.885C93.2381 34.1667 93.5213 35.431 94.0631 36.5827C94.3305 37.1684 94.6936 37.7015 95.1363 38.1584C95.327 38.3748 95.5631 38.5428 95.8263 38.6494C96.0895 38.756 96.3728 38.7983 96.6543 38.7731C97.2142 38.6929 97.7439 38.4614 98.1905 38.1019C98.7873 37.6402 99.3391 37.1187 99.8378 36.5451C100.146 36.128 100.597 35.8505 101.097 35.7702C101.572 35.691 102.059 35.7505 102.504 35.9421C102.955 36.1379 103.348 36.4569 103.638 36.8654C103.945 37.2919 104.105 37.8126 104.092 38.3445C104.089 39.0172 103.837 39.6629 103.389 40.1486C102.462 41.3222 101.319 42.2919 100.026 43.0008C98.7809 43.7026 97.369 44.022 95.9554 43.9217C94.9045 43.8895 93.879 43.5789 92.9762 43.0197C92.0967 42.4664 91.3341 41.7342 90.7344 40.867C90.1041 39.9548 89.6057 38.9518 89.255 37.8899C88.8834 36.7818 88.6285 35.6352 88.4948 34.4701C88.3613 33.3163 88.3431 32.1513 88.4404 30.9937C88.5248 29.9264 88.7367 28.8742 89.0712 27.8612C89.394 26.8349 89.862 25.8642 90.4598 24.9807C91.0461 24.1037 91.7719 23.3366 92.6063 22.7126C93.4444 22.093 94.3945 21.6556 95.3995 21.4266C96.4892 21.1838 97.6191 21.2161 98.6942 21.5208C99.8308 21.8044 100.917 22.2717 101.914 22.9057C102.926 23.5464 103.641 24.238 104.06 24.9807C104.104 25.0672 104.141 25.157 104.172 25.2492C104.203 25.3413 104.24 25.431 104.283 25.5177C104.457 26.0491 104.444 26.6275 104.247 27.1499C104.066 27.6265 103.766 28.0444 103.377 28.3605C102.992 28.6696 102.529 28.8568 102.043 28.8999C101.539 28.9506 101.034 28.8137 100.618 28.5136Z" fill="#FF9565"/>
<path d="M119.683 22.3868C120.17 22.0984 120.736 21.9842 121.292 22.0618C121.847 22.138 122.365 22.3934 122.773 22.7919C123.224 23.2466 123.484 23.8681 123.495 24.5207C123.543 25.9339 123.58 27.3235 123.606 28.6895C123.632 30.0556 123.644 31.4452 123.642 32.8583C123.617 33.7031 123.611 34.5612 123.624 35.4326C123.638 36.3041 123.632 37.1873 123.606 38.0823C123.58 38.9804 123.518 39.8707 123.42 40.7532C123.321 41.6418 123.16 42.5218 122.939 43.3863C122.813 43.9345 122.652 44.4735 122.458 44.9997C122.271 45.5164 122.022 46.0069 121.718 46.46C121.304 47.1444 120.792 47.7599 120.2 48.2853C119.008 49.3437 117.562 50.0469 116.016 50.3202C115.221 50.4618 114.409 50.4689 113.611 50.3414C111.676 50.1296 109.821 49.4302 108.206 48.3041C107.663 47.9541 107.267 47.4052 107.097 46.7661C106.975 46.436 106.943 46.0776 107.004 45.7298C107.062 45.4069 107.168 45.0955 107.319 44.8066C107.479 44.511 107.7 44.2554 107.966 44.0576C108.231 43.8546 108.525 43.6957 108.837 43.5865C109.146 43.5086 109.466 43.4895 109.781 43.53C110.116 43.5598 110.44 43.672 110.725 43.8574C111.207 44.1726 111.704 44.4611 112.216 44.7218C112.746 44.99 113.316 45.1651 113.901 45.2399C115.036 45.342 115.918 45.1112 116.547 44.5475C117.161 44.0012 117.63 43.3005 117.909 42.5125C118.19 41.7291 118.358 40.9069 118.408 40.0725C118.458 39.2387 118.494 38.5934 118.519 38.1318C118.542 37.5429 118.566 36.9471 118.592 36.3441C118.617 35.7435 118.63 35.1335 118.63 34.5188C117.815 35.6545 116.817 36.636 115.68 37.4205C114.803 38.0272 113.802 38.4149 112.756 38.5533C111.836 38.6599 110.906 38.4967 110.071 38.0823C109.224 37.6589 108.489 37.0276 107.929 36.2428C107.278 35.3237 106.801 34.2848 106.523 33.181C106.176 31.8352 106.045 30.4397 106.135 29.0499C106.185 27.737 106.322 26.4292 106.543 25.1354C106.765 23.8418 107.089 22.5695 107.514 21.3317C107.582 20.8539 107.813 20.4175 108.165 20.1022C108.488 19.8263 108.873 19.6406 109.284 19.5629C109.707 19.4882 110.141 19.5148 110.552 19.6406C110.965 19.7578 111.351 19.9605 111.687 20.2365C112.006 20.5029 112.238 20.8647 112.352 21.2728C112.477 21.7395 112.451 22.2357 112.279 22.686C111.906 23.8742 111.609 25.0867 111.39 26.3154C111.166 27.5764 111.079 28.8593 111.131 30.1404C111.131 32.1376 111.524 33.1747 112.311 33.2517C113.097 33.3286 114.055 32.5349 115.183 30.8705C115.756 30.0363 116.273 29.1629 116.731 28.2561C117.2 27.3297 117.629 26.3806 118.02 25.4086L118.646 23.833C118.711 23.5298 118.837 23.2443 119.016 22.9951C119.195 22.7459 119.422 22.5387 119.683 22.3868Z" fill="#FF9565"/>
<rect width="13.3548" height="13.3548" rx="6.67742" transform="matrix(-1 0 0 1 193.741 198.807)" fill="#FFE9E0"/>
<rect width="8" height="8" rx="4" transform="matrix(-1 0 0 1 210 233)" fill="#FFE9E0"/>
<rect width="10.3871" height="10.3871" rx="5.19355" transform="matrix(-1 0 0 1 201.161 216.613)" fill="#FFE9E0"/>
<rect x="124" y="135" width="210.837" height="59.4652" rx="17.8065" fill="#FFE9E0"/>
<path d="M144.521 147.439C145.653 147.002 146.866 146.814 148.078 146.886C149.112 146.954 150.121 147.24 151.038 147.724C151.875 148.179 152.594 148.824 153.137 149.608C153.686 150.401 154.057 151.303 154.224 152.253C154.398 153.29 154.353 154.353 154.091 155.371C153.784 156.561 153.247 157.679 152.512 158.662C151.946 159.432 151.323 160.157 150.646 160.831C149.96 161.517 149.26 162.151 148.547 162.734C148.606 162.77 148.671 162.796 148.738 162.811C149.81 163.346 150.778 164.067 151.597 164.941C152.425 165.815 153.095 166.826 153.577 167.929C154.057 169.027 154.316 170.21 154.338 171.408C154.36 172.643 154.1 173.867 153.577 174.986C153.021 176.173 152.141 177.178 151.038 177.885C149.897 178.61 148.643 179.138 147.327 179.446C145.912 179.78 144.464 179.952 143.01 179.959C141.553 179.974 140.098 179.891 138.653 179.712C138.204 179.654 137.774 179.495 137.396 179.245C137.086 179.038 136.827 178.765 136.635 178.445C136.459 178.145 136.337 177.817 136.274 177.475C136.211 177.143 136.193 176.804 136.218 176.467C136.547 172.691 136.674 168.899 136.598 165.109C136.528 161.295 136.288 157.281 135.877 153.069C135.852 152.744 135.904 152.418 136.03 152.117C136.156 151.816 136.351 151.549 136.6 151.339C137.099 150.857 137.752 150.567 138.443 150.52C138.753 150.517 139.062 150.568 139.355 150.672C140.096 149.988 140.895 149.371 141.743 148.827C142.616 148.265 143.547 147.799 144.521 147.439ZM148.099 156.153C148.589 155.615 148.947 154.969 149.144 154.268C149.295 153.781 149.247 153.255 149.011 152.803C148.782 152.422 148.376 152.189 147.793 152.104C147.21 152.018 146.487 152.164 145.624 152.542C144.794 152.908 144.019 153.389 143.322 153.97C142.588 154.575 141.907 155.241 141.286 155.961C141.362 156.747 141.426 157.546 141.477 158.359C141.529 159.171 141.578 160.02 141.629 160.908C142.81 160.321 143.954 159.66 145.053 158.93C146.193 158.151 147.218 157.216 148.099 156.153ZM144.104 174.986C145.447 174.986 146.544 174.669 147.394 174.035C148.245 173.4 148.765 172.652 148.955 171.791C149.144 170.928 148.96 170.053 148.402 169.165C147.844 168.277 146.829 167.566 145.358 167.033C144.798 166.83 144.218 166.684 143.628 166.597C143.031 166.508 142.402 166.438 141.743 166.387V167.338C141.718 168.632 141.686 169.906 141.648 171.161C141.609 172.416 141.551 173.679 141.475 174.949C141.911 174.999 142.349 175.024 142.788 175.024C143.234 175.024 143.672 175.012 144.104 174.986Z" fill="#FF9565"/>
<path d="M170.927 158.294C171.785 159.38 172.36 160.662 172.599 162.026C172.879 163.487 172.911 164.985 172.695 166.457C172.482 167.959 172.033 169.417 171.363 170.777C170.75 172.07 169.876 173.223 168.797 174.163C167.988 174.833 167.059 175.343 166.059 175.665C165.103 175.979 164.093 176.095 163.09 176.008C162.097 175.919 161.133 175.627 160.256 175.152C159.318 174.637 158.505 173.92 157.877 173.053C157.04 172.015 156.46 170.794 156.182 169.489C155.889 168.152 155.832 166.774 156.012 165.417C156.195 164.022 156.588 162.662 157.178 161.384C157.744 160.118 158.534 158.965 159.51 157.979C160.276 157.118 161.207 156.42 162.248 155.924C163.191 155.479 164.222 155.252 165.264 155.262C166.305 155.282 167.328 155.543 168.252 156.025C169.296 156.581 170.208 157.355 170.927 158.294ZM162.479 170.546C162.764 170.767 163.108 170.9 163.468 170.926C163.822 170.952 164.178 170.907 164.515 170.793C164.867 170.673 165.195 170.493 165.485 170.261C165.781 170.03 166.037 169.754 166.246 169.443C166.591 168.932 166.878 168.384 167.102 167.81C167.343 167.201 167.521 166.57 167.636 165.925C167.749 165.285 167.786 164.634 167.748 163.985C167.714 163.353 167.579 162.73 167.349 162.14C166.918 161.151 166.335 160.612 165.6 160.524C165.237 160.477 164.868 160.504 164.515 160.601C164.162 160.699 163.832 160.866 163.545 161.093C163.051 161.486 162.626 161.959 162.288 162.492C161.93 163.055 161.65 163.663 161.453 164.3C161.244 164.959 161.114 165.64 161.066 166.329C161.014 166.985 161.052 167.645 161.18 168.29C161.257 168.721 161.399 169.138 161.6 169.527C161.809 169.927 162.11 170.273 162.479 170.534V170.546Z" fill="#FF9565"/>
<path d="M180.326 162.276C181.224 161.119 182.278 160.092 183.459 159.225C184.481 158.445 185.685 157.937 186.957 157.749C188.129 157.597 189.316 157.867 190.307 158.509C191.372 159.169 192.285 160.398 193.047 162.199C193.448 163.176 193.778 164.181 194.036 165.205C194.313 166.294 194.546 167.382 194.736 168.471C194.925 169.559 195.081 170.606 195.202 171.61C195.316 172.613 195.411 173.495 195.489 174.255C195.554 174.719 195.453 175.191 195.202 175.587C194.968 175.936 194.646 176.218 194.269 176.405C193.878 176.598 193.448 176.701 193.012 176.709C192.58 176.725 192.15 176.641 191.757 176.461C191.368 176.277 191.034 175.995 190.787 175.643C190.506 175.231 190.366 174.741 190.388 174.243C190.335 173.148 190.215 172.058 190.027 170.978C189.835 169.89 189.602 168.786 189.327 167.668C188.856 165.771 188.329 164.512 187.746 163.89C187.163 163.268 186.463 163.287 185.647 163.948C185.149 164.344 184.708 164.804 184.333 165.317C183.53 166.416 182.846 167.596 182.293 168.839C182.002 169.488 181.704 170.116 181.399 170.724C181.119 171.333 180.815 171.936 180.485 172.531C180.157 173.123 179.877 173.74 179.648 174.376C179.432 175.035 179.004 175.604 178.43 175.992C177.93 176.344 177.329 176.524 176.718 176.506C176.135 176.481 175.58 176.245 175.158 175.841C174.703 175.421 174.475 174.77 174.475 173.882C174.498 173.299 174.519 172.716 174.531 172.13C174.542 171.545 174.575 170.964 174.626 170.381C174.752 168.3 174.898 166.233 175.065 164.179C175.231 162.125 175.44 160.07 175.692 158.015C175.793 157.125 176.129 156.485 176.7 156.093C177.23 155.712 177.874 155.524 178.526 155.561C179.154 155.591 179.753 155.838 180.219 156.261C180.458 156.479 180.639 156.753 180.746 157.058C180.852 157.364 180.88 157.691 180.828 158.01C180.752 158.618 180.682 159.214 180.618 159.799C180.554 160.384 180.483 160.97 180.403 161.558C180.378 161.677 180.365 161.798 180.364 161.919C180.363 162.039 180.351 162.159 180.326 162.276Z" fill="#FF9565"/>
<path d="M214.683 156.428C215.062 158.483 215.385 160.569 215.653 162.685C215.92 164.801 216.091 166.964 216.166 169.174C216.217 170.418 216.204 171.663 216.129 172.906C216.038 174.198 215.795 175.474 215.406 176.71C214.871 178.485 213.977 179.861 212.723 180.838C211.524 181.791 210.079 182.385 208.556 182.55C206.988 182.701 205.408 182.428 203.982 181.759C202.394 181.031 201.033 179.886 200.043 178.447C199.806 178.172 199.63 177.851 199.525 177.504C199.42 177.157 199.389 176.792 199.434 176.432C199.509 175.801 199.79 175.212 200.234 174.757C200.667 174.325 201.24 174.062 201.85 174.016C202.495 173.952 203.11 174.212 203.695 174.795C203.898 174.998 204.108 175.201 204.322 175.404C204.537 175.606 204.761 175.809 204.989 176.012C205.563 176.568 206.261 176.979 207.026 177.211C207.597 177.382 208.212 177.342 208.756 177.097C209.317 176.805 209.78 176.356 210.088 175.805C210.501 175.093 210.785 174.314 210.925 173.503C211.077 172.47 211.128 171.425 211.077 170.382C211.026 169.342 210.948 168.225 210.844 167.033C210.242 167.636 209.593 168.19 208.903 168.689C208.208 169.19 207.455 169.605 206.659 169.925C205.575 170.404 204.4 170.643 203.215 170.625C202.23 170.616 201.26 170.387 200.376 169.955C199.569 169.541 198.876 168.933 198.359 168.187C197.822 167.415 197.471 166.529 197.332 165.598C197.184 164.57 197.242 163.523 197.503 162.517C197.814 161.331 198.336 160.209 199.044 159.208C199.499 158.544 200.008 157.92 200.567 157.342C201.152 156.732 201.788 156.172 202.468 155.67C203.153 155.162 203.886 154.722 204.656 154.356C205.412 153.995 206.212 153.732 207.035 153.575C207.831 153.418 208.64 153.34 209.451 153.342C210.262 153.337 211.069 153.447 211.849 153.666C212.546 153.857 213.194 154.194 213.75 154.655C214.273 155.107 214.606 155.74 214.683 156.428ZM206.349 164.264C206.925 163.817 207.438 163.292 207.872 162.706C208.304 162.119 208.662 161.479 208.936 160.803C209.167 160.338 209.316 159.836 209.374 159.32C209.397 159.183 209.386 159.042 209.34 158.911C209.294 158.779 209.216 158.662 209.113 158.569C208.875 158.42 208.587 158.371 208.313 158.433C207.937 158.496 207.572 158.611 207.228 158.776C206.445 159.148 205.709 159.612 205.036 160.159C204.332 160.724 203.688 161.361 203.117 162.06C202.482 162.923 202.171 163.628 202.184 164.173C202.196 164.719 202.407 165.091 202.816 165.291C203.222 165.494 203.748 165.513 204.395 165.346C205.121 165.136 205.789 164.763 206.349 164.255V164.264Z" fill="#FF9565"/>
<path d="M223.963 159.347C225.088 158.926 226.256 158.626 227.445 158.454C228.523 158.288 229.619 158.281 230.699 158.433C231.673 158.572 232.611 158.902 233.458 159.403C234.305 159.923 235.005 160.65 235.492 161.516C236.048 162.478 236.417 163.537 236.576 164.637C236.742 165.735 236.723 166.854 236.52 167.946C236.312 169.054 235.926 170.12 235.377 171.104C234.828 172.11 234.107 173.011 233.248 173.768C232.046 174.863 230.586 175.638 229.005 176.019C227.318 176.376 225.575 176.376 223.888 176.019C223.936 176.309 223.968 176.602 223.982 176.896C223.996 177.173 224.014 177.453 224.04 177.731C224.059 178.065 224.002 178.4 223.874 178.71C223.746 179.02 223.549 179.297 223.298 179.52C222.811 179.988 222.166 180.259 221.491 180.28C221.169 180.307 220.846 180.259 220.545 180.14C220.245 180.022 219.977 179.836 219.76 179.596C219.268 179.095 218.977 178.432 218.941 177.731C218.839 176.667 218.769 175.621 218.731 174.594C218.694 173.566 218.65 172.532 218.598 171.492C218.547 169.665 218.541 167.826 218.58 165.976C218.619 164.125 218.689 162.286 218.79 160.457C219.023 156.547 219.441 152.676 220.045 148.845C220.092 148.525 220.223 148.223 220.425 147.97C220.627 147.718 220.879 147.51 221.166 147.361C221.464 147.208 221.786 147.105 222.118 147.058C222.452 147.007 222.792 147.007 223.126 147.058C223.451 147.107 223.76 147.238 224.021 147.438C224.288 147.643 224.508 147.902 224.667 148.199C224.831 148.5 224.941 148.829 224.991 149.169C225.041 149.506 225.014 149.85 224.914 150.176C224.84 151.243 224.726 152.315 224.572 153.393C224.418 154.47 224.279 155.694 224.154 157.064C224.102 157.443 224.071 157.824 224.058 158.207C224.037 158.587 224.014 158.967 223.963 159.347ZM223.697 170.188C224.356 170.7 225.136 171.034 225.962 171.158C226.73 171.275 227.516 171.194 228.245 170.925C228.974 170.654 229.626 170.211 230.146 169.633C230.707 169.005 231.082 168.234 231.23 167.405C231.357 166.728 231.37 166.035 231.27 165.353C231.197 164.737 230.96 164.151 230.584 163.657C230.409 163.438 230.19 163.257 229.941 163.125C229.692 162.994 229.419 162.916 229.138 162.895C228.529 162.832 227.793 163.066 226.932 163.594C226.523 163.815 226.133 164.069 225.766 164.355C225.393 164.65 225.049 164.98 224.737 165.339C224.447 165.661 224.192 166.012 223.975 166.386C223.789 166.684 223.685 167.025 223.671 167.375V168.802C223.66 169.271 223.671 169.735 223.697 170.188Z" fill="#FF9565"/>
<path d="M253.149 158.294C254.007 159.38 254.582 160.663 254.823 162.026C255.102 163.487 255.134 164.985 254.917 166.457C254.704 167.958 254.255 169.416 253.585 170.777C252.971 172.07 252.098 173.223 251.019 174.163C250.21 174.833 249.281 175.343 248.281 175.665C247.325 175.979 246.315 176.095 245.312 176.008C244.283 175.919 243.285 175.609 242.385 175.101C241.486 174.592 240.706 173.896 240.099 173.06C239.261 172.02 238.68 170.796 238.404 169.489C238.112 168.152 238.055 166.774 238.233 165.417C238.417 164.022 238.81 162.662 239.4 161.384C239.966 160.118 240.756 158.965 241.732 157.979C242.498 157.118 243.429 156.42 244.47 155.924C245.41 155.48 246.439 155.254 247.479 155.262C248.52 155.282 249.543 155.543 250.466 156.025C251.513 156.579 252.428 157.353 253.149 158.294ZM244.701 170.546C244.986 170.767 245.33 170.9 245.69 170.926C246.044 170.952 246.4 170.907 246.737 170.793C247.089 170.673 247.417 170.493 247.707 170.261C248.002 170.03 248.259 169.754 248.468 169.443C248.813 168.932 249.1 168.384 249.324 167.81C249.564 167.201 249.743 166.57 249.858 165.925C249.971 165.285 250.01 164.634 249.972 163.985C249.936 163.353 249.8 162.73 249.571 162.14C249.139 161.151 248.556 160.612 247.822 160.524C247.458 160.477 247.09 160.503 246.737 160.601C246.384 160.699 246.054 160.866 245.767 161.093C245.273 161.486 244.849 161.959 244.512 162.492C244.154 163.055 243.872 163.663 243.675 164.3C243.47 164.954 243.342 165.631 243.295 166.315C243.24 166.971 243.279 167.631 243.409 168.276C243.484 168.707 243.625 169.124 243.826 169.513C244.033 169.918 244.332 170.268 244.701 170.534V170.546Z" fill="#FF9565"/>
<path d="M262.547 162.278C263.448 161.127 264.505 160.107 265.687 159.246C266.704 158.466 267.902 157.956 269.169 157.763C270.339 157.612 271.526 157.881 272.516 158.523C273.581 159.183 274.494 160.412 275.256 162.213C275.657 163.19 275.987 164.195 276.245 165.219C276.522 166.308 276.755 167.396 276.945 168.485C277.135 169.573 277.286 170.62 277.4 171.624C277.515 172.627 277.61 173.509 277.687 174.269C277.752 174.733 277.651 175.205 277.4 175.601C277.165 175.95 276.844 176.232 276.467 176.419C276.075 176.612 275.646 176.715 275.21 176.723C274.778 176.739 274.348 176.655 273.955 176.475C273.566 176.291 273.232 176.009 272.985 175.657C272.704 175.245 272.564 174.755 272.586 174.257C272.533 173.162 272.412 172.072 272.224 170.992C272.033 169.904 271.8 168.8 271.525 167.682C271.069 165.778 270.55 164.514 269.967 163.892C269.384 163.27 268.684 163.29 267.868 163.951C267.371 164.346 266.929 164.807 266.554 165.32C265.747 166.417 265.058 167.596 264.5 168.839C264.209 169.488 263.911 170.116 263.606 170.724C263.326 171.333 263.022 171.936 262.692 172.531C262.364 173.123 262.084 173.74 261.855 174.376C261.64 175.036 261.212 175.604 260.637 175.992C260.137 176.344 259.536 176.524 258.925 176.506C258.342 176.481 257.787 176.245 257.365 175.841C256.91 175.421 256.682 174.77 256.682 173.882C256.705 173.299 256.726 172.716 256.738 172.13C256.749 171.545 256.782 170.964 256.833 170.381C256.959 168.3 257.105 166.233 257.272 164.179C257.438 162.125 257.647 160.07 257.899 158.015C257.999 157.125 258.334 156.485 258.907 156.093C259.437 155.712 260.081 155.524 260.733 155.561C261.361 155.591 261.96 155.838 262.426 156.261C262.666 156.478 262.847 156.752 262.953 157.058C263.06 157.364 263.088 157.691 263.035 158.01C262.96 158.619 262.888 159.216 262.825 159.799C262.762 160.382 262.692 160.965 262.617 161.548C262.592 161.667 262.579 161.788 262.578 161.91C262.58 162.033 262.57 162.157 262.547 162.278Z" fill="#FF9565"/>
<path d="M296.904 156.43C297.285 158.485 297.609 160.571 297.875 162.687C298.14 164.803 298.312 166.966 298.388 169.176C298.44 170.419 298.427 171.665 298.35 172.907C298.26 174.2 298.017 175.476 297.627 176.712C297.096 178.487 296.202 179.863 294.945 180.84C293.746 181.792 292.302 182.386 290.78 182.552C289.209 182.709 287.625 182.44 286.194 181.773C284.606 181.044 283.245 179.9 282.255 178.461C282.02 178.185 281.844 177.864 281.739 177.517C281.634 177.17 281.603 176.805 281.646 176.446C281.722 175.815 282.003 175.226 282.446 174.771C282.879 174.339 283.452 174.076 284.062 174.029C284.708 173.966 285.323 174.225 285.907 174.808C286.11 175.011 286.32 175.214 286.535 175.417C286.749 175.62 286.973 175.823 287.202 176.026C287.775 176.582 288.473 176.993 289.238 177.225C289.81 177.396 290.424 177.355 290.969 177.11C291.529 176.819 291.992 176.37 292.3 175.818C292.714 175.107 292.997 174.327 293.138 173.516C293.289 172.483 293.34 171.438 293.289 170.396C293.238 169.355 293.16 168.239 293.056 167.046C292.455 167.65 291.806 168.203 291.115 168.702C290.42 169.203 289.667 169.619 288.872 169.938C287.788 170.418 286.612 170.657 285.427 170.638C284.445 170.625 283.478 170.392 282.598 169.957C281.79 169.542 281.097 168.935 280.58 168.189C280.044 167.417 279.693 166.531 279.554 165.6C279.405 164.572 279.463 163.525 279.724 162.519C280.036 161.333 280.558 160.212 281.266 159.21C281.72 158.546 282.23 157.922 282.789 157.344C283.371 156.73 284.003 156.167 284.681 155.66C285.365 155.152 286.098 154.712 286.868 154.347C287.624 153.985 288.424 153.722 289.247 153.565C290.043 153.408 290.852 153.33 291.664 153.332C292.474 153.328 293.281 153.437 294.061 153.656C294.758 153.847 295.406 154.184 295.962 154.645C296.492 155.099 296.829 155.737 296.904 156.43ZM288.571 164.266C289.147 163.818 289.659 163.294 290.094 162.708C290.527 162.121 290.885 161.481 291.16 160.805C291.391 160.34 291.539 159.838 291.596 159.322C291.618 159.186 291.605 159.046 291.559 158.916C291.512 158.787 291.434 158.671 291.33 158.58C291.092 158.431 290.804 158.383 290.53 158.445C290.155 158.507 289.79 158.622 289.448 158.788C288.665 159.156 287.93 159.617 287.258 160.161C286.553 160.726 285.91 161.363 285.338 162.062C284.704 162.925 284.393 163.629 284.405 164.175C284.418 164.721 284.627 165.093 285.033 165.292C285.439 165.496 285.965 165.515 286.612 165.348C287.34 165.139 288.01 164.766 288.571 164.257V164.266Z" fill="#FF9565"/>
<path d="M304.059 172.703C304.896 172.703 305.518 172.97 305.925 173.503C306.319 174.001 306.534 174.617 306.534 175.252C306.534 175.887 306.319 176.504 305.925 177.002C305.519 177.535 304.897 177.802 304.059 177.802C303.273 177.802 302.66 177.554 302.252 177.06C301.846 176.603 301.617 176.015 301.606 175.404C301.597 174.78 301.797 174.171 302.175 173.673C302.57 173.128 303.198 172.804 304.059 172.703Z" fill="#FF9565"/>
<path d="M312.272 172.703C313.109 172.703 313.731 172.97 314.138 173.503C314.532 174.001 314.747 174.617 314.747 175.252C314.747 175.887 314.532 176.504 314.138 177.002C313.732 177.535 313.11 177.802 312.272 177.802C311.487 177.802 310.884 177.554 310.465 177.06C310.061 176.601 309.833 176.015 309.819 175.404C309.811 174.78 310.012 174.17 310.39 173.673C310.782 173.128 311.409 172.804 312.272 172.703Z" fill="#FF9565"/>
<path d="M320.492 172.703C321.328 172.703 321.95 172.97 322.358 173.503C322.752 174.001 322.967 174.617 322.967 175.252C322.967 175.887 322.752 176.504 322.358 177.002C321.952 177.535 321.33 177.802 320.492 177.802C319.705 177.802 319.103 177.554 318.684 177.06C318.28 176.601 318.051 176.015 318.038 175.404C318.03 174.78 318.232 174.17 318.61 173.673C319.002 173.128 319.629 172.804 320.492 172.703Z" fill="#FF9565"/>
<rect x="390.659" y="172.588" width="8" height="8" rx="4" transform="rotate(-6.13508 390.659 172.588)" fill="#FFE9E0"/>
<rect x="402.948" y="133.676" width="14.9294" height="14.9294" rx="7.46471" transform="rotate(-6.13508 402.948 133.676)" fill="#FFE9E0"/>
<rect x="396.828" y="154.354" width="11.6118" height="11.6118" rx="5.80588" transform="rotate(-6.13508 396.828 154.354)" fill="#FFE9E0"/>
<rect x="344" y="54" width="140.732" height="69.7931" rx="19.9059" fill="#FFE9E0"/>
<path d="M385.47 77.9111C385.66 79.5657 385.813 81.2073 385.93 82.8358C386.048 84.4644 386.12 86.0937 386.148 87.7236C386.148 88.6226 386.136 89.6207 386.113 90.718C386.086 91.8369 386.002 92.9538 385.861 94.0641C385.723 95.1885 385.505 96.3016 385.21 97.3951C384.932 98.4381 384.503 99.4347 383.935 100.353C383.382 101.235 382.659 102 381.809 102.602C380.863 103.249 379.776 103.662 378.639 103.807C377.307 103.998 375.948 103.848 374.689 103.373C373.365 102.881 372.189 102.059 371.271 100.984C370.605 100.19 370.083 99.2843 369.73 98.3092C369.382 97.3435 369.143 96.3421 369.017 95.3235C368.887 94.2721 368.851 93.2111 368.911 92.1533C368.97 91.0647 369.07 89.9899 369.211 88.9288C369.22 88.4798 369.372 88.0455 369.645 87.6889C369.895 87.3657 370.221 87.1091 370.594 86.9419C370.973 86.7767 371.383 86.6923 371.797 86.6944C372.195 86.6884 372.589 86.7731 372.95 86.9419C373.288 87.106 373.571 87.3648 373.764 87.6867C373.973 88.0643 374.054 88.4993 373.994 88.9266C373.947 89.2328 373.899 89.6128 373.853 90.0601C373.808 90.5074 373.764 90.9981 373.727 91.5301C373.69 92.0621 373.675 92.6158 373.675 93.1782C373.674 93.7344 373.71 94.29 373.781 94.8415C373.926 95.9532 374.257 96.8276 374.774 97.4645C375.214 98.047 375.827 98.4744 376.526 98.6849C377.182 98.8631 377.878 98.8258 378.511 98.5785C379.202 98.3161 379.8 97.8543 380.228 97.2517C380.542 96.8115 380.775 96.3199 380.919 95.7991C381.073 95.2542 381.18 94.697 381.238 94.1336C381.297 93.563 381.327 92.9897 381.327 92.416C381.327 91.8384 381.327 91.2761 381.362 90.7332C381.41 88.8224 381.38 86.9072 381.273 84.9877C381.166 83.0682 381.017 81.1349 380.825 79.1879C379.479 79.4485 378.121 79.6728 376.752 79.861C375.383 80.0492 374.015 80.2026 372.648 80.3214C372.207 80.3596 371.766 80.2537 371.391 80.0195C371.055 79.7991 370.788 79.4892 370.62 79.1249C370.441 78.7547 370.344 78.3503 370.335 77.9393C370.32 77.5269 370.395 77.1161 370.557 76.7364C370.721 76.3601 370.984 76.0357 371.319 75.7983C371.712 75.5387 372.178 75.4109 372.648 75.4335L374.207 75.2924C374.726 75.2468 375.256 75.1751 375.801 75.0753C376.839 74.9305 377.866 74.7655 378.882 74.5802C379.898 74.3949 380.912 74.1944 381.922 73.9787C382.286 73.8905 382.665 73.8827 383.032 73.9559C383.399 74.029 383.746 74.1813 384.048 74.4021C384.645 74.8259 385.062 75.4581 385.216 76.174C385.264 76.4635 385.305 76.7588 385.34 77.0599C385.385 77.3683 385.425 77.6527 385.47 77.9111Z" fill="#FF9565"/>
<path d="M401.554 83.9343C402.353 84.9454 402.888 86.1393 403.11 87.4086C403.372 88.769 403.402 90.1638 403.2 91.5342C403.001 92.9317 402.583 94.289 401.96 95.5556C401.389 96.7596 400.576 97.8329 399.571 98.7085C398.817 99.3312 397.952 99.8057 397.022 100.107C396.131 100.399 395.191 100.507 394.258 100.426C393.333 100.342 392.436 100.071 391.619 99.6292C390.746 99.1487 389.99 98.4814 389.405 97.6749C388.626 96.7103 388.086 95.5759 387.828 94.3635C387.557 93.1191 387.503 91.8372 387.67 90.5745C387.841 89.2748 388.207 88.0084 388.755 86.8179C389.283 85.6394 390.019 84.5655 390.927 83.6477C391.64 82.8453 392.507 82.1935 393.476 81.7303C394.351 81.3161 395.307 81.1045 396.275 81.1115C397.248 81.1296 398.203 81.3742 399.065 81.8259C400.036 82.343 400.884 83.0619 401.554 83.9343ZM393.689 95.3407C393.954 95.5461 394.275 95.6692 394.609 95.6946C394.939 95.7186 395.271 95.6765 395.584 95.5708C395.912 95.4596 396.218 95.2912 396.488 95.0736C396.762 94.8587 397.001 94.6023 397.196 94.3136C397.517 93.838 397.784 93.3282 397.992 92.7936C398.217 92.2277 398.383 91.6406 398.49 91.0413C398.595 90.4452 398.63 89.8389 398.594 89.2347C398.562 88.6454 398.437 88.0649 398.223 87.5149C397.822 86.5943 397.279 86.0927 396.594 86.0102C396.255 85.9696 395.911 85.9973 395.582 86.0917C395.254 86.186 394.947 86.3451 394.681 86.5595C394.221 86.9249 393.826 87.3654 393.513 87.8624C393.179 88.3868 392.917 88.9535 392.733 89.5474C392.542 90.1574 392.422 90.7878 392.377 91.4256C392.329 92.0356 392.365 92.6494 392.484 93.2496C392.555 93.6508 392.687 94.0388 392.875 94.4005C393.069 94.7732 393.348 95.0952 393.689 95.3407Z" fill="#FF9565"/>
<path d="M410.302 87.6543C411.14 86.5788 412.124 85.6251 413.225 84.8206C414.172 84.0952 415.286 83.6195 416.465 83.4375C417.555 83.297 418.661 83.5487 419.583 84.1475C420.574 84.7613 421.425 85.9063 422.134 87.5827C422.507 88.4925 422.815 89.4279 423.055 90.3816C423.313 91.3949 423.53 92.4082 423.706 93.4216C423.883 94.4349 424.024 95.4091 424.13 96.3443C424.237 97.2765 424.326 98.0966 424.397 98.8045C424.458 99.2363 424.363 99.6759 424.13 100.044C423.913 100.371 423.613 100.634 423.261 100.806C422.897 100.986 422.497 101.083 422.091 101.091C421.689 101.107 421.289 101.028 420.923 100.861C420.561 100.689 420.249 100.427 420.019 100.099C419.759 99.7156 419.628 99.2587 419.648 98.7958C419.599 97.7764 419.487 96.7612 419.311 95.7558C419.133 94.7425 418.916 93.7147 418.66 92.6724C418.234 90.9035 417.75 89.7287 417.207 89.1482C416.665 88.5678 416.013 88.5851 415.253 89.2004C414.795 89.5736 414.39 90.0067 414.048 90.488C413.296 91.5093 412.655 92.6077 412.135 93.7646C411.864 94.3654 411.587 94.9495 411.303 95.517C411.043 96.0837 410.758 96.6461 410.452 97.1998C410.148 97.7511 409.887 98.3254 409.673 98.9174C409.472 99.5314 409.074 100.062 408.539 100.424C408.073 100.751 407.514 100.919 406.945 100.902C406.402 100.878 405.886 100.658 405.493 100.283C405.07 99.8923 404.858 99.2836 404.856 98.457C404.878 97.9142 404.898 97.3713 404.909 96.8285C404.919 96.2856 404.95 95.7428 404.998 95.1999C405.115 93.263 405.251 91.3377 405.406 89.424C405.561 87.5103 405.753 85.5973 405.981 83.685C406.075 82.8584 406.388 82.262 406.919 81.8958C407.413 81.5412 408.013 81.3665 408.619 81.4007C409.204 81.4291 409.762 81.6593 410.196 82.0521C410.419 82.2554 410.588 82.5113 410.687 82.7965C410.786 83.0817 410.812 83.3872 410.763 83.685C410.69 84.251 410.625 84.8054 410.567 85.3483C410.509 85.8911 410.445 86.4347 410.374 86.979C410.35 87.0897 410.338 87.2024 410.337 87.3156C410.337 87.4294 410.325 87.5429 410.302 87.6543Z" fill="#FF9565"/>
<path d="M439.109 83.5424C439.258 83.2569 439.468 83.0075 439.724 82.8117C439.98 82.6159 440.275 82.4784 440.59 82.4089C441.152 82.2865 441.738 82.3427 442.266 82.5696C442.776 82.7923 443.2 83.1729 443.476 83.6553C443.622 83.8996 443.706 84.1756 443.721 84.4597C443.737 84.7438 443.683 85.0273 443.565 85.286C443.448 86.0185 443.348 86.7503 443.265 87.4813C443.183 88.2124 443.106 88.9564 443.035 89.7135C442.75 93.0742 442.785 96.4543 443.139 99.8083C443.178 100.241 443.078 100.675 442.855 101.048C442.644 101.375 442.348 101.638 441.999 101.81C441.632 101.99 441.229 102.087 440.82 102.093C440.416 102.109 440.013 102.031 439.643 101.865C439.28 101.693 438.967 101.43 438.734 101.103C438.469 100.721 438.338 100.263 438.358 99.7997C438.31 99.5306 438.28 99.2585 438.269 98.9854C438.258 98.7031 438.241 98.4187 438.217 98.1364C437.94 98.389 437.643 98.6199 437.331 98.8269C437.023 99.0281 436.704 99.2115 436.375 99.3762C435.791 99.6651 435.179 99.8964 434.549 100.067C433.908 100.242 433.248 100.337 432.584 100.349C431.921 100.362 431.259 100.278 430.619 100.101C429.958 99.9194 429.338 99.6128 428.793 99.1982C428.18 98.7734 427.657 98.2318 427.253 97.6044C426.839 96.9657 426.511 96.275 426.278 95.5502C426.04 94.8106 425.909 94.0406 425.89 93.2638C425.866 92.4716 425.949 91.6798 426.137 90.91C426.428 89.6611 426.925 88.4694 427.607 87.3836C428.281 86.2885 429.145 85.3229 430.159 84.5326C431.153 83.758 432.29 83.1862 433.505 82.8497C434.768 82.5081 436.099 82.5021 437.366 82.8324C437.984 82.966 438.574 83.2063 439.109 83.5424ZM433.329 95.6588C433.989 95.4362 434.588 95.0647 435.081 94.5731C435.577 94.0738 436 93.5073 436.338 92.8903C436.693 92.251 436.99 91.5809 437.224 90.8882C437.46 90.1934 437.673 89.5145 437.863 88.8515C436.849 87.718 435.822 87.2692 434.779 87.5052C433.737 87.7412 432.793 88.4266 431.946 89.5615C431.556 90.1118 431.274 90.7306 431.114 91.3855C430.895 92.1272 430.793 92.8987 430.812 93.672C430.804 94.3105 431.019 94.9319 431.42 95.4286C431.795 95.8644 432.431 95.9411 433.329 95.6588Z" fill="#FF9565"/>
<path d="M452.279 84.2531C451.76 84.2531 451.377 84.3529 451.128 84.5527C451.013 84.6408 450.919 84.7533 450.853 84.8821C450.787 85.0109 450.75 85.1528 450.746 85.2975C450.742 85.6236 450.848 85.9414 451.045 86.2008C451.294 86.537 451.623 86.8052 452.003 86.9803C452.615 87.3104 453.235 87.6231 453.862 87.9184C454.495 88.2193 455.105 88.5685 455.686 88.9628C456.397 89.3911 457.037 89.929 457.581 90.5566C458.132 91.1887 458.586 91.8993 458.927 92.6651C459.27 93.4323 459.474 94.2543 459.529 95.0927C459.585 95.9591 459.459 96.8276 459.158 97.6419C458.637 99.1446 457.627 100.429 456.289 101.29C455.618 101.721 454.886 102.049 454.118 102.265C453.318 102.49 452.487 102.579 451.658 102.53C450.586 102.481 449.528 102.266 448.522 101.894C447.424 101.469 446.428 100.817 445.599 99.9805C445.057 99.4377 444.826 98.8412 444.909 98.1913C444.973 97.5822 445.234 97.0106 445.652 96.5627C446.057 96.129 446.603 95.8528 447.193 95.7832C447.807 95.7007 448.386 95.9663 448.93 96.5801C449.179 96.9693 449.52 97.2914 449.923 97.5181C450.342 97.7643 450.805 97.9266 451.286 97.9958C451.766 98.0674 452.255 98.0371 452.722 97.9068C453.184 97.7835 453.601 97.5321 453.927 97.1816C454.184 96.9023 454.388 96.5786 454.528 96.2262C454.668 95.882 454.728 95.5111 454.706 95.1405C454.677 94.7552 454.554 94.3828 454.35 94.0548C454.107 93.6686 453.781 93.3421 453.395 93.0993C452.776 92.6726 452.122 92.2992 451.44 91.9832C450.754 91.6648 450.07 91.3029 449.386 90.8975C448.267 90.4073 447.331 89.5769 446.711 88.5242C446.131 87.5199 445.886 86.3572 446.01 85.2041C446.101 83.8271 446.664 82.5235 447.604 81.5128C448.515 80.5502 449.704 79.8947 451.004 79.6367C451.727 79.4941 452.466 79.4582 453.199 79.5303C453.957 79.6017 454.702 79.774 455.414 80.0427C456.136 80.3183 456.82 80.683 457.451 81.1284C458.083 81.5719 458.655 82.096 459.151 82.6875C459.544 83.1605 459.784 83.741 459.842 84.3529C459.901 84.9667 459.671 85.5458 459.151 86.0901C458.936 86.3206 458.669 86.4963 458.372 86.6025C458.08 86.725 457.767 86.7913 457.451 86.7979C457.146 86.7885 456.846 86.7223 456.565 86.6025C456.268 86.4963 456.001 86.3206 455.785 86.0901C455.322 85.6087 454.796 85.193 454.22 84.8545C453.63 84.5016 452.965 84.2954 452.279 84.2531Z" fill="#FF9565"/>
</svg>
