<svg width="140" height="159" viewBox="0 0 140 159" fill="none" xmlns="http://www.w3.org/2000/svg">
<g filter="url(#filter0_d_3094_5849)">
<path d="M85.4766 22.8086C88.781 26.1226 92.0331 29.2748 95.6732 32.9364C96.4847 30.1526 95.6051 27.6631 94.1578 25.949C89.8156 20.807 85.3369 15.7029 80.5532 11.0366C77.8257 8.35581 75.2517 9.60156 74.8908 13.3184C74.2124 19.5052 73.8594 25.7778 73.3699 32.0885C73.338 32.4502 73.264 32.9118 73.4108 33.1355C73.8614 34.0686 74.4906 34.8637 75.0778 35.7587C75.6559 35.2449 76.6117 34.9789 76.7699 34.3174C77.3708 32.0332 77.7407 29.7251 78.2051 27.4789C78.4794 26.2559 78.6171 25.0709 79.7631 23.7816C80.4332 25.6238 81.1978 27.5279 81.868 29.3701C94.3247 67.8882 84.0148 106.658 56.3454 126.267C52.7619 128.764 48.9271 130.714 45.1969 132.987C43.8939 133.791 42.6854 134.657 41.3824 135.46C41.445 135.884 41.6441 136.27 41.7067 136.693C42.683 136.951 43.8585 137.594 44.7199 137.266C47.6296 136.367 50.5393 135.469 53.292 134.086C80.7348 120.449 95.9228 86.4074 90.9207 49.0778C89.9514 41.9384 87.8795 34.8413 86.2696 27.792C85.9351 26.2974 85.4219 24.9408 84.9509 23.4842C84.9406 23.2224 85.1614 22.9846 85.4766 22.8086Z" fill="#FF9565"/>
</g>
<defs>
<filter id="filter0_d_3094_5849" x="0.115234" y="0.740234" width="139.533" height="161.562" filterUnits="userSpaceOnUse" color-interpolation-filters="sRGB">
<feFlood flood-opacity="0" result="BackgroundImageFix"/>
<feColorMatrix in="SourceAlpha" type="matrix" values="0 0 0 0 0 0 0 0 0 0 0 0 0 0 0 0 0 0 127 0" result="hardAlpha"/>
<feOffset dy="4"/>
<feComposite in2="hardAlpha" operator="out"/>
<feColorMatrix type="matrix" values="0 0 0 0 0.662745 0 0 0 0 0.662745 0 0 0 0 0.662745 0 0 0 1 0"/>
<feBlend mode="normal" in2="BackgroundImageFix" result="effect1_dropShadow_3094_5849"/>
<feBlend mode="normal" in="SourceGraphic" in2="effect1_dropShadow_3094_5849" result="shape"/>
</filter>
</defs>
</svg>
