<svg xmlns="http://www.w3.org/2000/svg" viewBox="0 0 124.3 392.11"><defs><style>.cls-1{fill:#fe9465;}.cls-2{fill:#fe9466;}</style></defs><g id="Layer_2" data-name="Layer 2"><g id="Layer_1-2" data-name="Layer 1"><path class="cls-1" d="M124.3,84.74c-1.73,62.94-10.72,124.75-29,185.12-1.55,5.13-4.46,8.4-9.54,9.84a83.71,83.71,0,0,1-46.7,0c-4.85-1.39-7.76-4.45-9.35-9.4-10.25-31.9-16.77-64.61-21.83-97.66C2.76,139.18-.63,105.61.1,71.75A264.5,264.5,0,0,1,4.7,29.67c2.37-13,9.59-20.53,21.52-24.13C51.12-2,76-2.07,100.69,6.65c10.22,3.62,16,10.59,18.46,21.54C123.29,46.88,124.31,65.71,124.3,84.74Z"/><path class="cls-2" d="M61.33,322.65c10.46.41,20.94-.86,31.39.69,10.87,1.61,16.8,8.05,17.16,19.11.89,27.18-20.84,49.88-47.56,49.66A47.76,47.76,0,0,1,15,341.75c.5-11,5.51-16.67,16.44-18.48C41.37,321.63,51.37,323.1,61.33,322.65Z"/></g></g></svg>