<svg width="317" height="125" viewBox="0 0 317 125" fill="none" xmlns="http://www.w3.org/2000/svg">
<g opacity="0.021464">
<path d="M193.608 5.03636C194.355 4.8681 195.103 5.31508 195.31 6.05278L196.668 10.8157C196.694 10.8922 196.756 10.9516 196.833 10.9749L201.608 12.2794C202.379 12.498 202.826 13.3006 202.608 14.0713C202.471 14.5556 202.092 14.9338 201.608 15.0709L196.869 16.4294C196.791 16.4569 196.732 16.5212 196.71 16.6008L195.406 21.3695C195.268 21.8849 194.851 22.2785 194.328 22.3856C193.581 22.5538 192.833 22.1069 192.626 21.3692L191.268 16.6063C191.246 16.5273 191.182 16.4661 191.103 16.4471L186.328 15.1426C185.719 14.9845 185.287 14.4433 185.269 13.814C185.245 13.1706 185.649 12.5891 186.261 12.3877L191.054 11.0232C191.13 10.9926 191.189 10.9295 191.214 10.8518L192.518 6.08306C192.651 5.55783 193.076 5.1569 193.608 5.05473L193.608 5.03636Z" fill="#FABF2B"/>
</g>
<path d="M10.3226 49.2949H253.864C259.564 49.2949 264.186 53.9194 264.186 59.62V114.677C264.186 120.378 259.564 125 253.864 125H10.3226C4.62204 125 0 120.378 0 114.677V59.62C0 53.9194 4.62204 49.2949 10.3226 49.2949Z" fill="#FCFCFC"/>
<path d="M21.8133 67.8777H53.3217C55.9999 67.8777 58.1692 70.0469 58.1692 72.7251V104.234C58.1692 106.912 55.9999 109.081 53.3217 109.081H21.8133C19.1351 109.081 16.9658 106.912 16.9658 104.234V72.7251C16.9658 70.0469 19.1351 67.8777 21.8133 67.8777Z" fill="#F6F6F6"/>
<path d="M75.373 93.9982H215.52C219.667 93.9982 223.029 97.3599 223.029 101.507C223.029 105.654 219.667 109.016 215.52 109.016H75.373C71.226 109.016 67.8643 105.654 67.8643 101.507C67.8643 97.3599 71.226 93.9982 75.373 93.9982Z" fill="#F7F7F7"/>
<path d="M67.8643 75.3864C67.8643 71.2394 71.226 67.8777 75.373 67.8777H189.712C193.859 67.8777 197.221 71.2394 197.221 75.3864C197.221 79.5334 193.859 82.8927 189.712 82.8927H75.373C71.226 82.8927 67.8643 79.5334 67.8643 75.3864Z" fill="#F7F7F7"/>
<path d="M256.263 6.77757C270.976 6.77764 282.922 18.7242 282.922 33.4371C282.922 48.15 270.976 60.0965 256.263 60.0964C241.55 60.0963 229.603 48.1498 229.604 33.4369C229.604 18.7239 241.55 6.77751 256.263 6.77757Z" fill="#FCFCFC" stroke="#FF8E3A" stroke-width="2.01"/>
<path d="M256.263 5.77257C271.531 5.77264 283.927 18.1691 283.927 33.4371C283.927 48.7051 271.531 61.1015 256.263 61.1014C240.995 61.1013 228.598 48.7049 228.599 33.4369C228.599 18.1689 240.995 5.77251 256.263 5.77257Z" stroke="#FF8E3A" stroke-width="10.05"/>
<path d="M273.575 50.7491L290.887 68.0638" stroke="#FF8E3A" stroke-width="10.05"/>
<path d="M290.813 58.9518L290.813 58.9522L281.881 67.7835C280.292 69.3566 280.292 71.9218 281.879 73.4948L300.102 91.5397C300.102 91.5397 300.102 91.5398 300.102 91.5399C301.666 93.0882 304.187 93.0882 305.752 91.5397L305.752 91.5394L314.684 82.708L290.813 58.9518ZM290.813 58.9518C292.377 57.404 294.898 57.4052 296.463 58.9542M290.813 58.9518L296.463 58.9542M296.463 58.9542C296.463 58.9543 296.463 58.9543 296.463 58.9543M296.463 58.9542L296.463 58.9543M296.463 58.9543L314.686 76.9967M296.463 58.9543L314.686 76.9967M314.686 76.9967C314.686 76.9969 314.686 76.997 314.686 76.9971C316.273 78.57 316.273 81.1346 314.684 82.7076L314.686 76.9967Z" fill="#FF8E3A" stroke="#FF8E3A" stroke-width="2.01"/>
</svg>
