<svg width="180" height="180" viewBox="0 0 180 180" fill="none" xmlns="http://www.w3.org/2000/svg">
<g clip-path="url(#clip0_2288_5048)">
<path d="M177.482 89.991C177.482 138.311 138.311 177.482 89.991 177.482C41.6711 177.482 2.5 138.311 2.5 89.991C2.5 41.6711 41.6711 2.5 89.991 2.5C138.311 2.5 177.482 41.6711 177.482 89.991Z" stroke="white" stroke-width="5"/>
<path d="M110.788 61.0679L110.681 60.9426C109.177 59.0633 107.656 57.1124 106.135 55.2153C106.061 55.1306 105.964 55.0689 105.857 55.0372C105.749 55.0055 105.634 55.0051 105.526 55.0363L95.9508 57.7926C95.7944 57.8294 95.6573 57.9234 95.5666 58.056C95.4759 58.1887 95.438 58.3505 95.4604 58.5096C95.4828 58.6688 95.5639 58.8138 95.6878 58.9163C95.8116 59.0187 95.9693 59.0712 96.1298 59.0633C98.8682 59.0633 100.032 61.6227 102.197 62.7682C103.591 63.4248 105.148 63.6552 106.672 63.4304C107.674 63.323 111.952 63.0546 110.788 61.0679Z" fill="#FA8D61"/>
<path d="M104.381 35.796C103.206 35.5347 102.108 35.002 101.176 34.2406C100.244 33.4792 99.5025 32.5101 99.0118 31.411C98.942 31.2419 98.8179 31.1008 98.6591 31.0101C98.5003 30.9194 98.3158 30.8841 98.1348 30.9098H97.9379C96.5469 31.3338 95.0453 31.1966 93.7542 30.5276C92.4631 29.8587 91.4851 28.7111 91.0293 27.3302C90.9964 27.1689 90.925 27.0179 90.8211 26.8902C90.7172 26.7625 90.584 26.6618 90.4328 26.5967C90.2815 26.5316 90.1168 26.5041 89.9526 26.5165C89.7885 26.529 89.6298 26.5809 89.49 26.668C86.3758 28.8337 81.0243 32.2164 77.91 28.0998C77.8222 27.9393 77.6927 27.8053 77.5353 27.712C77.3778 27.6187 77.1982 27.5695 77.0151 27.5695C76.8321 27.5695 76.6525 27.6187 76.495 27.712C76.3376 27.8053 76.2081 27.9393 76.1202 28.0998C75.4228 29.3859 74.4945 30.5326 73.3818 31.4826C71.9679 32.5385 69.2653 33.1113 68.5494 30.7845C68.4996 30.617 68.4077 30.4651 68.2824 30.3433C68.157 30.2216 68.0025 30.134 67.8336 30.0891C67.6648 30.0442 67.4872 30.0434 67.3179 30.0868C67.1487 30.1302 66.9934 30.2164 66.867 30.3371C64.5115 33.1485 62.854 36.4769 62.0298 40.0508C61.2055 43.6247 61.2378 47.3428 62.124 50.9019C62.1952 51.1543 62.3625 51.3688 62.59 51.4993C62.8176 51.6298 63.0872 51.6659 63.3411 51.5999L101.428 45.1387C101.597 45.0976 101.752 45.0108 101.875 44.8877C101.998 44.7645 102.085 44.6099 102.126 44.4407C102.82 41.9789 103.731 39.5832 104.846 37.2815C104.926 37.1563 104.977 37.0154 104.996 36.8685C105.015 36.7216 105.002 36.5723 104.958 36.4309C104.914 36.2895 104.839 36.1595 104.74 36.0499C104.64 35.9402 104.518 35.8536 104.381 35.796Z" fill="#FA8D61"/>
<path d="M136.454 63.3768C133.366 60.0435 129.585 57.4286 125.376 55.7164C124.432 55.51 123.575 55.016 122.924 54.3025C122.297 53.5687 121.778 52.7454 121.134 51.9936C119.321 49.7453 117.295 47.6774 115.084 45.8188C111.008 42.4476 106.285 39.9467 101.205 38.4701C96.1257 36.9936 90.7976 36.5727 85.5493 37.2333C80.301 37.894 75.2435 39.6222 70.6885 42.3115C66.1334 45.0009 62.1772 48.5944 59.0636 52.8706C55.8275 57.2415 53.4026 62.1579 51.9044 67.3859C51.2168 70.1261 50.7854 72.9242 50.6157 75.7443C50.4725 77.5341 50.6157 79.9503 49.4881 81.3463C47.9668 83.1361 45.0494 82.5634 43.3491 84.1384C42.7397 84.751 42.3661 85.5591 42.294 86.4202C42.222 87.2813 42.4562 88.1402 42.9554 88.8456C45.9264 93.3738 54.0163 91.8524 58.3834 90.0984C58.1687 92.9442 52.4055 94.0897 53.7121 97.6156C54.6965 100.264 58.9562 98.2241 60.7102 97.7767C64.034 97.1209 67.1888 95.7932 69.9813 93.8749C73.0627 91.4148 75.3939 88.1413 76.711 84.4248C78.1607 80.6662 78.3218 76.6571 79.5925 72.8985C80.8618 69.4847 83.1325 66.5339 86.1074 64.4327C94.0109 59.1883 103.56 57.0174 112.954 58.3295C113.761 58.3561 114.549 58.5786 115.251 58.9777C115.952 59.3768 116.546 59.9406 116.981 60.6205C117.401 61.9741 117.553 63.3967 117.429 64.8086C117.771 69.3882 119.493 73.7564 122.369 77.3372C122.422 77.3886 122.486 77.4277 122.556 77.4514C122.626 77.4751 122.701 77.483 122.775 77.4744C122.848 77.4659 122.919 77.4411 122.982 77.4019C123.045 77.3627 123.098 77.31 123.138 77.2477L124.928 73.9187C125.307 74.2563 125.775 74.478 126.276 74.5574C126.778 74.6367 127.291 74.5703 127.756 74.3661C129.546 73.7397 130.262 72.1647 131.228 70.6254C131.649 69.9302 132.232 69.3473 132.927 68.9265C133.622 68.5057 134.409 68.2596 135.219 68.2092C135.897 68.1518 136.532 67.8533 137.009 67.368C138.262 66.0257 137.278 64.4327 136.454 63.3768Z" fill="#96CBEB"/>
<path d="M76.514 71.1087C74.42 67.2427 70.0708 65.3992 65.9184 64.8802C59.4036 64.0569 54.3205 67.3143 50.9736 72.2005C50.8304 73.3817 50.723 74.563 50.6157 75.78C50.4725 77.5698 50.6157 79.9861 49.4881 81.3821C47.9668 83.1719 45.0494 82.5992 43.3491 84.1742C42.7488 84.7846 42.3808 85.5857 42.3089 86.4388C42.237 87.2919 42.4656 88.1433 42.9553 88.8456C45.9264 93.3738 54.0163 91.8524 58.3834 90.0984C58.1686 92.9442 52.4055 94.0897 53.712 97.6156C54.6964 100.264 58.9561 98.2241 60.7101 97.7767C64.0339 97.1209 67.1888 95.7932 69.9813 93.8749C73.0627 91.4148 75.3938 88.1413 76.7109 84.4248C77.5088 82.136 78.1076 79.7826 78.5007 77.3909C78.3282 75.1723 77.6485 73.023 76.514 71.1087Z" fill="white"/>
<path d="M58.5982 83.2614C57.9347 83.265 57.2852 83.0712 56.732 82.7048C56.1789 82.3384 55.7471 81.8159 55.4916 81.2036C55.2361 80.5913 55.1683 79.9169 55.2968 79.266C55.4254 78.6151 55.7445 78.0171 56.2137 77.5479C56.6828 77.0788 57.2808 76.7596 57.9317 76.6311C58.5826 76.5025 59.2571 76.5703 59.8694 76.8258C60.4817 77.0814 61.0042 77.5131 61.3706 78.0662C61.737 78.6194 61.9307 79.2689 61.9272 79.9324C61.9134 80.811 61.5582 81.6497 60.9368 82.2711C60.3155 82.8924 59.4768 83.2476 58.5982 83.2614Z" fill="#35208A"/>
<path d="M69.176 86.6083C68.1141 86.6083 67.076 86.2934 66.193 85.7034C65.31 85.1134 64.6218 84.2748 64.2154 83.2937C63.809 82.3126 63.7026 81.233 63.9098 80.1914C64.117 79.1499 64.6284 78.1931 65.3793 77.4422C66.1302 76.6913 67.087 76.1799 68.1285 75.9727C69.1701 75.7655 70.2497 75.8719 71.2308 76.2783C72.2119 76.6847 73.0505 77.3729 73.6405 78.2559C74.2305 79.1389 74.5454 80.177 74.5454 81.2389C74.5454 82.663 73.9797 84.0287 72.9728 85.0357C71.9658 86.0426 70.6001 86.6083 69.176 86.6083Z" fill="#96CBEB"/>
<path d="M86.6258 65.4708C85.7667 64.2538 84.5317 61.3364 82.724 61.408C80.9163 61.4796 78.8581 64.1285 77.9632 65.3813C76.406 67.5291 74.3836 72.9343 77.1399 74.903C79.6456 76.6928 81.0416 72.4152 82.1692 70.9834C83.2968 69.5516 85.1403 70.4465 86.6795 69.5158C88.2187 68.5851 87.3775 66.6342 86.6258 65.4708Z" fill="#FA8D61"/>
<path d="M120.472 62.6429C120.516 65.0661 121.058 67.4541 122.065 69.6589C122.423 70.9307 122.979 72.1385 123.711 73.2385C124.008 73.635 124.421 73.929 124.892 74.0797C123.282 70.9834 122.44 65.4171 121.098 62.4997C120.955 62.1239 120.49 62.3029 120.472 62.6429Z" fill="#35208A"/>
<path d="M123.281 61.7659C123.621 63.2515 125.787 64.4327 126.861 65.435C128.194 66.8442 129.624 68.1599 131.138 69.3726C131.514 69.641 132.015 69.122 131.765 68.7461C130.505 67.1345 129.05 65.6856 127.433 64.4327C126.377 63.5199 124.874 61.6406 123.371 61.6227C123.356 61.6249 123.343 61.6299 123.33 61.6374C123.318 61.6449 123.308 61.6548 123.299 61.6665C123.291 61.6782 123.285 61.6914 123.282 61.7054C123.279 61.7194 123.278 61.7339 123.281 61.748V61.7659Z" fill="#35208A"/>
<path d="M78.7511 70.8939C79.6818 70.1422 80.0756 68.6388 80.7736 67.6365C81.6959 66.3123 82.8261 65.1458 84.1205 64.1822C84.6575 63.7884 84.1205 62.8756 83.6015 63.2694C82.2034 64.2384 80.9909 65.4509 80.0219 66.849C79.2881 67.887 78.0889 69.5695 78.3932 70.8939C78.403 70.9087 78.4163 70.9208 78.4319 70.9292C78.4475 70.9375 78.465 70.9419 78.4827 70.9419C78.5004 70.9419 78.5178 70.9375 78.5335 70.9292C78.5491 70.9208 78.5624 70.9087 78.5722 70.8939H78.7511Z" fill="#35208A"/>
<path d="M80.4152 71.055C81.3372 70.3975 82.205 69.6673 83.0105 68.8714C83.9948 68.1197 85.1582 67.6544 86.1426 66.9206C86.5364 66.6163 86.3216 65.9183 85.7846 66.0614C84.5781 66.4962 83.4662 67.1585 82.5093 68.0123C81.4544 68.6914 80.5965 69.6357 80.0215 70.7507C80.0215 70.9834 80.2184 71.1445 80.4152 71.055Z" fill="#35208A"/>
<path d="M102.806 60.0835C103.044 60.7966 103.494 61.4206 104.094 61.8733C104.591 62.3965 105.257 62.7263 105.973 62.804C106.055 62.8057 106.135 62.7832 106.204 62.7392C106.273 62.6952 106.327 62.6318 106.359 62.557C106.392 62.4822 106.402 62.3993 106.387 62.3191C106.373 62.2388 106.335 62.1646 106.278 62.106C105.812 61.7223 105.322 61.3696 104.81 61.05C104.327 60.6563 103.987 60.1372 103.521 59.7435C103.454 59.6786 103.368 59.6372 103.276 59.6257C103.183 59.6141 103.089 59.6331 103.008 59.6795C102.928 59.726 102.864 59.7976 102.827 59.8834C102.791 59.9692 102.783 60.0646 102.806 60.1551V60.0835Z" fill="#35208A"/>
<path d="M105.347 59.5108C105.98 60.1285 106.669 60.6858 107.406 61.1753C108.014 61.6227 108.694 62.3924 109.482 62.3745C109.537 62.3762 109.593 62.365 109.643 62.3417C109.694 62.3185 109.738 62.2837 109.773 62.2403C109.807 62.1969 109.832 62.146 109.843 62.0916C109.855 62.0372 109.854 61.9808 109.84 61.927C109.607 61.1932 108.784 60.8352 108.193 60.4057C107.46 59.8174 106.675 59.2963 105.848 58.8486C105.805 58.8157 105.755 58.7916 105.703 58.7779C105.65 58.7641 105.595 58.7609 105.541 58.7684C105.487 58.7758 105.435 58.7939 105.388 58.8215C105.341 58.849 105.3 58.8856 105.267 58.9291C105.234 58.9726 105.21 59.0221 105.196 59.0749C105.182 59.1277 105.179 59.1826 105.187 59.2366C105.194 59.2906 105.212 59.3427 105.24 59.3897C105.267 59.4367 105.304 59.4779 105.347 59.5108Z" fill="#35208A"/>
<path d="M69.3186 33.6482C68.1615 35.0856 67.3132 36.7461 66.8266 38.526C66.3401 40.306 66.2257 42.1671 66.4907 43.9932C66.5164 44.0776 66.5686 44.1515 66.6395 44.204C66.7104 44.2565 66.7962 44.2848 66.8844 44.2848C66.9727 44.2848 67.0585 44.2565 67.1294 44.204C67.2003 44.1515 67.2525 44.0776 67.2782 43.9932C67.6362 42.2034 67.5646 40.521 67.9762 38.7849C68.3879 37.0488 69.2291 35.5096 69.6049 33.8093C69.6263 33.7713 69.6317 33.7264 69.62 33.6844C69.6082 33.6425 69.5803 33.6069 69.5423 33.5856C69.5043 33.5642 69.4594 33.5588 69.4175 33.5705C69.3755 33.5823 69.3399 33.6102 69.3186 33.6482Z" fill="#35208A"/>
<path d="M73.9185 33.2007C73.0652 34.2511 72.4452 35.471 72.0996 36.7794C71.7539 38.0878 71.6907 39.4548 71.9139 40.7895C71.9335 40.8818 71.9842 40.9646 72.0575 41.024C72.1308 41.0834 72.2223 41.1158 72.3166 41.1158C72.411 41.1158 72.5025 41.0834 72.5758 41.024C72.6491 40.9646 72.6998 40.8818 72.7193 40.7895C73.0057 39.5724 72.9341 38.3017 73.2563 37.0846C73.5784 35.8675 74.1512 34.7579 74.5449 33.505C74.5638 33.426 74.5566 33.3429 74.5243 33.2683C74.492 33.1937 74.4364 33.1316 74.3658 33.0913C74.2953 33.051 74.2135 33.0346 74.1329 33.0447C74.0522 33.0547 73.977 33.0906 73.9185 33.1471V33.2007Z" fill="#35208A"/>
<path d="M81.0961 31.4825H80.9171C80.8373 31.4858 80.7596 31.5087 80.6909 31.5493C80.6222 31.5899 80.5646 31.6469 80.5233 31.7152C80.0244 32.6045 79.6624 33.5638 79.4494 34.561C79.1268 35.4432 79.0586 36.3982 79.2526 37.3173C79.2733 37.3868 79.3137 37.4487 79.3689 37.4958C79.4241 37.5428 79.4918 37.5728 79.5636 37.5823C79.6355 37.5917 79.7086 37.5802 79.7741 37.5491C79.8396 37.5179 79.8947 37.4685 79.9327 37.4068C80.2382 36.5752 80.4425 35.7099 80.5412 34.8295C80.756 33.8809 81.114 33.0397 81.4182 32.0374C81.4434 31.9615 81.4449 31.8798 81.4225 31.8031C81.4001 31.7264 81.3549 31.6583 81.2929 31.6078C81.2635 31.5489 81.2121 31.5039 81.1497 31.4825H81.0961Z" fill="#35208A"/>
<path d="M87.7002 29.6749C86.8313 30.359 86.1115 31.2137 85.5852 32.1863C85.0589 33.159 84.7371 34.229 84.6396 35.3306C84.6396 35.9034 85.463 35.9749 85.624 35.4559C85.8584 34.4635 86.1942 33.4979 86.6263 32.5743C87.0917 31.7331 87.7181 31.0172 88.255 30.2297C88.4698 29.9075 88.0224 29.4601 87.7002 29.6749Z" fill="#35208A"/>
<path d="M92.0493 31.0172C91.4355 31.8004 90.9631 32.6847 90.6533 33.6303C90.4027 34.3999 89.9373 35.5812 90.4027 36.315C90.4363 36.3562 90.4786 36.3894 90.5265 36.4121C90.5745 36.4349 90.627 36.4467 90.6801 36.4467C90.7332 36.4467 90.7857 36.4349 90.8337 36.4121C90.8816 36.3894 90.924 36.3562 90.9575 36.315C91.4766 35.7781 91.405 34.8832 91.6019 34.1672C91.9038 33.2433 92.2933 32.3503 92.7652 31.5004C92.98 31.0888 92.3894 30.5519 92.0493 30.9635V31.0172Z" fill="#35208A"/>
<path d="M96.7561 32.6638C96.0952 33.0462 95.5623 33.6157 95.2247 34.3005C94.8871 34.9853 94.7598 35.7548 94.8589 36.5119C94.8806 36.5853 94.9233 36.6508 94.9817 36.7003C95.0401 36.7498 95.1116 36.7812 95.1876 36.7907C95.2635 36.8002 95.3406 36.7874 95.4094 36.7538C95.4782 36.7201 95.5357 36.6672 95.5748 36.6014C95.8612 36.0286 95.897 35.3485 96.1475 34.8116C96.453 34.2381 96.7999 33.6878 97.1856 33.165C97.3646 32.8786 97.0066 32.5743 96.7382 32.7175L96.7561 32.6638Z" fill="#35208A"/>
<path d="M99.9426 34.1136C99.2533 34.7642 98.7156 35.5586 98.3676 36.4403C98.3106 36.54 98.2956 36.6582 98.3258 36.769C98.356 36.8797 98.429 36.974 98.5287 37.0309C98.6284 37.0879 98.7466 37.1029 98.8573 37.0727C98.9681 37.0425 99.0623 36.9695 99.1193 36.8699C99.6715 36.1013 100.05 35.2219 100.229 34.2925C100.232 34.2559 100.224 34.2193 100.207 34.1868C100.19 34.1543 100.164 34.1272 100.132 34.1085C100.101 34.0899 100.065 34.0805 100.028 34.0814C99.9912 34.0823 99.9554 34.0934 99.9247 34.1136H99.9426Z" fill="#35208A"/>
<path d="M102.341 35.9749C102.044 36.3049 101.792 36.6718 101.589 37.0667C101.307 37.4045 101.143 37.8259 101.124 38.2659C101.127 38.3169 101.143 38.3663 101.17 38.4096C101.197 38.453 101.235 38.4888 101.279 38.5137C101.324 38.5387 101.374 38.552 101.425 38.5525C101.476 38.553 101.526 38.5406 101.571 38.5164C101.927 38.2288 102.178 37.8328 102.287 37.3889C102.491 36.9947 102.636 36.5725 102.717 36.136C102.717 35.9391 102.466 35.8496 102.341 35.9749Z" fill="#35208A"/>
<path d="M62.9114 55.9133C63.2965 55.1076 63.9036 54.4287 64.6614 53.9562C65.4192 53.4838 66.2961 53.2376 67.189 53.2465C68.064 53.3753 68.8881 53.7374 69.5747 54.2949C70.2613 54.8524 70.785 55.5846 71.0908 56.4144C71.3593 56.9335 72.0394 56.5576 71.9678 56.0565C71.1087 51.0808 63.6094 51.0092 62.0702 55.5553C61.8912 56.0565 62.6429 56.3428 62.9114 55.9133Z" fill="#35208A"/>
<path d="M71.5924 57.2735C73.0063 56.8798 74.1518 55.788 75.7089 56.5755C77.266 57.363 77.266 59.2244 76.9081 60.7815C76.8905 60.8772 76.9033 60.9759 76.9447 61.0639C76.9861 61.1519 77.054 61.2247 77.1389 61.2721C77.2239 61.3195 77.3215 61.3391 77.4181 61.3282C77.5148 61.3172 77.6055 61.2763 77.6777 61.2111C79.1811 59.6182 78.143 56.6829 76.4069 55.6985C74.993 54.8931 71.485 55.0363 71.5208 57.2199L71.5924 57.2735Z" fill="#35208A"/>
<path d="M69.8017 47.7697C71.4125 46.5885 72.8802 45.1745 75.0458 45.2461C75.6244 45.2756 76.1885 45.4379 76.6944 45.7203C77.2003 46.0027 77.6344 46.3977 77.9632 46.8748C78.4435 47.7538 78.6137 48.7689 78.4464 49.7564C78.4478 49.8467 78.4789 49.9341 78.5348 50.005C78.5908 50.076 78.6685 50.1265 78.756 50.1489C78.8435 50.1713 78.936 50.1643 79.0191 50.1289C79.1023 50.0936 79.1715 50.0318 79.216 49.9533C80.6121 48.0024 78.5538 45.2998 76.6924 44.5839C75.3491 44.1732 73.9038 44.2517 72.6129 44.8054C71.3219 45.3592 70.2689 46.3523 69.6406 47.6086C69.6406 47.6086 69.6406 47.8413 69.8017 47.7697Z" fill="#35208A"/>
<path d="M78.2854 50.4007C78.9726 49.9253 79.7948 49.6842 80.6299 49.7133C81.465 49.7423 82.2685 50.0399 82.921 50.5618C83.2027 50.8595 83.4209 51.2113 83.5624 51.5959C83.7039 51.9805 83.7658 52.3898 83.7443 52.799C83.7443 53.6224 83.2432 54.1772 83.0821 54.9468C83.0594 55.0263 83.0612 55.1108 83.0872 55.1892C83.1132 55.2677 83.1623 55.3365 83.2279 55.3867C83.2936 55.4369 83.3728 55.4662 83.4554 55.4707C83.5379 55.4753 83.6199 55.4548 83.6906 55.4122C84.6571 54.9647 84.9077 53.4792 84.854 52.5127C84.8004 51.4558 84.3383 50.4612 83.5653 49.7385C83.1692 49.3948 82.7093 49.1326 82.2118 48.9667C81.7143 48.8009 81.189 48.7347 80.6659 48.772C80.1339 48.8046 79.6151 48.9511 79.1446 49.2016C78.6434 49.47 78.4823 49.8459 78.1602 50.2933C78.1602 50.2933 78.1602 50.4544 78.2854 50.4007Z" fill="#35208A"/>
<path d="M83.5123 55.9312C84.7652 55.7164 86.2149 55.1437 87.0919 56.4144C87.2795 56.6922 87.4012 57.009 87.4477 57.3409C87.4942 57.6728 87.4644 58.0109 87.3604 58.3295C87.1456 58.9917 86.6266 59.3139 86.2507 59.8508C86.2089 59.9195 86.1863 59.9982 86.1854 60.0787C86.1845 60.1591 86.2053 60.2383 86.2456 60.3079C86.2859 60.3775 86.3442 60.4349 86.4144 60.4742C86.4846 60.5134 86.5641 60.5331 86.6445 60.531C88.6848 60.2804 88.9712 57.1125 87.9331 55.7701C86.895 54.4278 83.7987 53.8013 83.3691 55.7701V55.8596L83.5123 55.9312Z" fill="#35208A"/>
<path d="M84.1207 41.2548C84.7902 41.1985 85.4544 41.0908 86.1074 40.9327C86.913 40.8486 87.724 41.0309 88.4162 41.4517C88.7218 41.648 88.9841 41.9046 89.187 42.2058C89.3899 42.507 89.5292 42.8465 89.5962 43.2035C89.6632 43.5604 89.6566 43.9273 89.5768 44.2816C89.497 44.6359 89.3457 44.9702 89.1321 45.264C88.6668 45.8188 89.4543 46.6063 89.9196 46.0515C90.5159 45.3151 90.8042 44.3766 90.7241 43.4325C90.644 42.4884 90.2018 41.6118 89.4901 40.9864C88.6707 40.2964 87.6255 39.9332 86.5548 39.9662C85.7136 39.9662 84.3891 40.181 83.9417 40.9685C83.9268 40.9974 83.9193 41.0296 83.92 41.0622C83.9206 41.0947 83.9292 41.1266 83.9452 41.155C83.9612 41.1834 83.9839 41.2073 84.0114 41.2248C84.0389 41.2422 84.0703 41.2525 84.1028 41.2548H84.1207Z" fill="#35208A"/>
<path d="M89.3645 46.1947C90.7069 46.1947 92.2103 45.9441 93.2305 47.0717C93.6471 47.5375 93.8655 48.1476 93.839 48.772C93.7508 49.2981 93.5625 49.8024 93.2842 50.2575C93.1231 50.6692 93.6601 50.9556 94.0001 50.7945C95.4857 50.0249 95.0382 47.6086 94.1612 46.5527C93.561 45.8707 92.7462 45.4139 91.8513 45.2577C90.9564 45.1015 90.035 45.2552 89.2393 45.6936C89.1886 45.7227 89.1488 45.7675 89.1259 45.8213C89.103 45.875 89.0983 45.9348 89.1125 45.9915C89.1267 46.0482 89.159 46.0987 89.2044 46.1354C89.2499 46.172 89.3061 46.1929 89.3645 46.1947Z" fill="#35208A"/>
<path d="M94.2153 51.1882C94.7533 51.0734 95.3144 51.1456 95.8058 51.393C96.2973 51.6403 96.6896 52.0479 96.9179 52.5485C96.9986 52.8247 97.0226 53.1144 96.9883 53.4001C96.954 53.6858 96.8621 53.9616 96.7183 54.2109C96.5744 54.4601 96.3815 54.6776 96.1513 54.8502C95.921 55.0228 95.6582 55.147 95.3787 55.2153C95.2565 55.2698 95.1581 55.3667 95.1017 55.488C95.0452 55.6093 95.0346 55.747 95.0716 55.8756C95.1087 56.0041 95.1909 56.115 95.3033 56.1877C95.4156 56.2604 95.5504 56.2901 95.6829 56.2713C96.0963 56.1675 96.4847 55.9819 96.8251 55.7254C97.1655 55.4689 97.451 55.1467 97.6646 54.7779C97.8782 54.409 98.0157 54.0011 98.0688 53.5782C98.1219 53.1553 98.0896 52.726 97.9739 52.3158C97.8368 51.9348 97.6246 51.5853 97.3499 51.2878C97.0752 50.9904 96.7436 50.7511 96.3747 50.5842C96.0058 50.4173 95.6072 50.3261 95.2025 50.3161C94.7977 50.3061 94.3951 50.3775 94.0184 50.526C93.9516 50.5725 93.9008 50.6386 93.8731 50.7152C93.8454 50.7918 93.8421 50.8751 93.8637 50.9536C93.8853 51.0321 93.9307 51.102 93.9937 51.1536C94.0566 51.2053 94.1341 51.2361 94.2153 51.2419V51.1882Z" fill="#35208A"/>
<path d="M98.135 40.9327C99.4953 41.2727 101.178 41.219 102.144 42.4361C102.336 42.6605 102.478 42.9237 102.559 43.2076C102.64 43.4916 102.659 43.7897 102.615 44.0817C102.571 44.3738 102.465 44.6529 102.303 44.9001C102.141 45.1473 101.929 45.3569 101.679 45.5146C101.622 45.5381 101.571 45.5725 101.528 45.6158C101.485 45.6591 101.451 45.7104 101.427 45.7669C101.404 45.8234 101.392 45.884 101.392 45.9451C101.393 46.0062 101.405 46.0667 101.428 46.1231C101.452 46.1795 101.486 46.2307 101.529 46.2739C101.573 46.317 101.624 46.3511 101.681 46.3744C101.737 46.3977 101.798 46.4096 101.859 46.4095C101.92 46.4093 101.98 46.3972 102.037 46.3737C103.827 46.0515 104.059 43.8322 103.415 42.4719C102.858 41.5959 102.04 40.9161 101.078 40.5277C100.115 40.1394 99.0546 40.0619 98.0455 40.3063C97.984 40.3323 97.9314 40.3759 97.8945 40.4316C97.8576 40.4873 97.8379 40.5526 97.8379 40.6195C97.8379 40.6863 97.8576 40.7517 97.8945 40.8074C97.9314 40.8631 97.984 40.9067 98.0455 40.9327H98.135Z" fill="#35208A"/>
<path d="M101.911 46.4095C102.072 46.7137 102.251 46.6958 102.573 46.8032C103.238 46.9735 103.817 47.3809 104.202 47.9487C104.519 48.4885 104.609 49.1323 104.452 49.7385C104.217 50.2859 103.917 50.8028 103.557 51.2777C103.378 51.6178 103.683 52.0831 104.059 51.9578C105.848 51.3493 105.974 48.6646 104.989 47.3402C104.482 46.6496 103.723 46.1866 102.877 46.0515C102.877 46.0515 101.678 46.0515 101.911 46.4274V46.4095Z" fill="#35208A"/>
<path d="M103.808 52.1189C104.174 52.2313 104.483 52.479 104.673 52.8116C104.863 53.1442 104.918 53.5366 104.828 53.9087C104.506 54.7678 103.719 54.6247 103.039 54.8036C102.949 54.8323 102.868 54.8858 102.808 54.958C102.747 55.0302 102.707 55.1181 102.694 55.2117C102.681 55.3052 102.695 55.4005 102.734 55.4867C102.772 55.5728 102.835 55.6463 102.913 55.6985C104.041 56.5039 105.705 55.1258 105.956 54.0161C106.009 53.6942 105.994 53.3648 105.913 53.0489C105.831 52.733 105.685 52.4376 105.483 52.1816C105.281 51.9255 105.027 51.7145 104.739 51.5619C104.451 51.4094 104.134 51.3187 103.808 51.2956C103.307 51.2956 103.289 51.9579 103.701 52.1189H103.808Z" fill="#35208A"/>
<path d="M109.894 46.1052C110.953 46.4292 111.96 46.9055 112.883 47.5191C113.321 47.8534 113.62 48.3378 113.724 48.8794C113.757 49.0503 113.747 49.2268 113.696 49.3932C113.644 49.5595 113.552 49.7105 113.428 49.8328C113.304 49.955 113.152 50.0447 112.985 50.0938C112.818 50.143 112.641 50.15 112.471 50.1143C112.356 50.1131 112.245 50.1497 112.153 50.2185C112.062 50.2872 111.996 50.3842 111.965 50.4944C111.935 50.6046 111.941 50.7219 111.984 50.8279C112.027 50.934 112.104 51.0229 112.202 51.0808C113.992 51.8325 115.245 49.7743 114.654 48.2708C114.24 47.4052 113.56 46.6949 112.713 46.244C111.866 45.7931 110.897 45.6253 109.947 45.7651C109.918 45.7825 109.893 45.8073 109.876 45.8371C109.859 45.867 109.85 45.9008 109.85 45.9352C109.85 45.9696 109.859 46.0034 109.876 46.0332C109.893 46.063 109.918 46.0878 109.947 46.1052H109.894Z" fill="#35208A"/>
<path d="M112.113 51.4746C113.42 51.4746 113.599 53.3897 112.507 53.9087C111.985 54.1245 111.4 54.1245 110.878 53.9087C110.431 53.7477 109.912 53.7298 109.876 54.3383C109.87 54.4359 109.893 54.5331 109.94 54.6186C109.988 54.7041 110.059 54.7745 110.144 54.8215C110.483 55.0231 110.859 55.1539 111.249 55.2062C111.64 55.2585 112.037 55.2311 112.417 55.1257C112.796 55.0204 113.151 54.8392 113.458 54.5931C113.766 54.347 114.021 54.0412 114.207 53.694C114.341 53.3462 114.39 52.9715 114.351 52.6009C114.311 52.2303 114.183 51.8745 113.979 51.563C113.774 51.2516 113.498 50.9934 113.173 50.81C112.849 50.6265 112.485 50.523 112.113 50.5081C111.98 50.5081 111.853 50.5609 111.759 50.6549C111.665 50.7489 111.612 50.8764 111.612 51.0093C111.612 51.1422 111.665 51.2696 111.759 51.3636C111.853 51.4576 111.98 51.5104 112.113 51.5104V51.4746Z" fill="#35208A"/>
<path d="M69.2116 118.914L69.319 119.057L73.8472 124.785C73.9271 124.866 74.0277 124.924 74.138 124.952C74.2484 124.981 74.3645 124.978 74.4737 124.946L84.1207 122.19C84.2615 122.142 84.3815 122.047 84.4603 121.92C84.539 121.794 84.5717 121.645 84.5527 121.497C84.5338 121.35 84.4643 121.213 84.3562 121.111C84.2481 121.009 84.108 120.947 83.9596 120.937C81.2033 120.937 80.0578 118.377 77.8922 117.232C76.4921 116.554 74.9176 116.323 73.3819 116.57C72.3259 116.659 68.0125 116.928 69.2116 118.914Z" fill="#FA8D61"/>
<path d="M75.6189 144.258C76.7916 144.518 77.8875 145.049 78.8195 145.807C79.7515 146.565 80.4941 147.53 80.9883 148.625C81.0525 148.798 81.1756 148.943 81.3359 149.035C81.4962 149.126 81.6836 149.159 81.8653 149.126H82.0443C83.4376 148.692 84.9458 148.824 86.2423 149.494C87.5387 150.164 88.519 151.318 88.9708 152.706C89.0128 152.852 89.0877 152.987 89.1898 153.101C89.292 153.214 89.4187 153.303 89.5602 153.36C89.7018 153.417 89.8545 153.441 90.0067 153.43C90.1589 153.419 90.3065 153.373 90.4384 153.296C93.5527 151.148 98.9042 147.766 102.001 151.882C102.088 152.043 102.218 152.177 102.375 152.27C102.533 152.363 102.712 152.413 102.895 152.413C103.078 152.413 103.258 152.363 103.416 152.27C103.573 152.177 103.702 152.043 103.79 151.882C104.484 150.624 105.393 149.498 106.475 148.553C107.889 147.497 110.592 146.925 111.325 149.251C111.374 149.417 111.466 149.568 111.59 149.688C111.715 149.808 111.868 149.894 112.036 149.937C112.204 149.981 112.38 149.98 112.547 149.935C112.714 149.89 112.867 149.802 112.99 149.681C115.348 146.871 117.009 143.543 117.837 139.969C118.664 136.395 118.635 132.676 117.751 129.116C117.676 128.866 117.508 128.654 117.281 128.525C117.055 128.395 116.787 128.357 116.534 128.418L78.4468 134.843C78.2793 134.888 78.1265 134.976 78.0039 135.099C77.8814 135.221 77.7933 135.374 77.7488 135.541C77.0535 138.003 76.1432 140.399 75.0283 142.701C74.9372 142.836 74.8799 142.991 74.8612 143.153C74.8425 143.315 74.863 143.479 74.9208 143.632C74.9787 143.784 75.0722 143.921 75.1937 144.03C75.3152 144.139 75.461 144.217 75.6189 144.258Z" fill="#FA8D61"/>
<path d="M43.546 116.623C46.6233 119.956 50.4008 122.566 54.607 124.266C55.5577 124.468 56.4214 124.962 57.0769 125.68C57.6854 126.431 58.2045 127.255 58.8667 128.006C60.6532 130.271 62.6552 132.357 64.8446 134.235C68.9309 137.593 73.6605 140.08 78.7431 141.544C83.8256 143.008 89.1537 143.417 94.4002 142.746C99.6466 142.076 104.701 140.34 109.252 137.645C113.803 134.95 117.755 131.354 120.865 127.076C124.094 122.701 126.519 117.785 128.024 112.56C128.696 109.811 129.127 107.008 129.313 104.184C129.456 102.502 129.313 99.996 130.441 98.6C131.962 96.8102 134.862 97.3829 136.562 95.8079C137.177 95.1957 137.549 94.3808 137.608 93.5149C137.667 92.649 137.41 91.791 136.884 91.1007C133.913 86.5725 125.841 88.076 121.456 89.8479C121.707 87.0558 127.505 85.9103 126.217 82.3307C125.232 79.6639 120.955 81.7222 119.219 82.1696C115.891 82.8224 112.731 84.1437 109.93 86.0535C106.862 88.53 104.539 91.8068 103.218 95.5215C101.768 99.2622 101.607 103.271 100.336 107.03C99.094 110.458 96.8489 113.433 93.893 115.567C87.7786 119.826 80.4934 122.084 73.0419 122.028C71.014 122.091 68.9844 121.983 66.9745 121.706C66.1653 121.689 65.3729 121.473 64.6674 121.076C63.9618 120.68 63.3649 120.115 62.9295 119.433C62.5262 118.07 62.3746 116.645 62.4821 115.227C62.1433 110.647 60.4205 106.278 57.5422 102.699C57.4906 102.644 57.4269 102.602 57.3562 102.576C57.2855 102.55 57.2097 102.542 57.135 102.55C57.0602 102.559 56.9886 102.585 56.9256 102.626C56.8627 102.668 56.8103 102.723 56.7726 102.788L54.9828 106.117C54.6078 105.779 54.1428 105.557 53.6441 105.477C53.1454 105.398 52.6344 105.465 52.1728 105.67C50.383 106.278 49.6492 107.871 48.7006 109.41C48.28 110.106 47.6972 110.689 47.0021 111.109C46.3071 111.53 45.5204 111.776 44.7094 111.827C44.0334 111.892 43.4009 112.189 42.9196 112.668C41.7383 113.974 42.7227 115.549 43.546 116.623Z" fill="#96CBEB"/>
<path d="M103.468 108.891C105.598 112.757 109.929 114.547 114.064 115.12C120.596 115.943 125.68 112.668 129.009 107.782C129.17 106.618 129.277 105.437 129.384 104.202C129.528 102.52 129.384 100.014 130.512 98.6179C132.033 96.8281 134.933 97.4008 136.633 95.8258C137.248 95.2136 137.62 94.3987 137.679 93.5328C137.739 92.6669 137.481 91.8089 136.955 91.1186C133.984 86.5904 125.912 88.0939 121.527 89.8658C121.706 87.0558 127.505 85.9103 126.216 82.3307C125.232 79.6639 120.954 81.7222 119.218 82.1696C115.891 82.8224 112.731 84.1437 109.929 86.0535C106.861 88.53 104.539 91.8068 103.218 95.5215C102.42 97.8104 101.821 100.164 101.428 102.555C101.631 104.792 102.328 106.956 103.468 108.891Z" fill="white"/>
<path d="M121.402 96.6491C122.064 96.6351 122.715 96.8176 123.273 97.1736C123.831 97.5296 124.271 98.043 124.538 98.649C124.804 99.255 124.884 99.9263 124.769 100.578C124.654 101.23 124.348 101.833 123.89 102.311C123.432 102.789 122.843 103.12 122.196 103.263C121.55 103.406 120.876 103.354 120.259 103.114C119.642 102.874 119.111 102.457 118.731 101.914C118.352 101.372 118.141 100.729 118.127 100.068C118.117 99.1826 118.455 98.329 119.067 97.6899C119.679 97.0508 120.518 96.6771 121.402 96.6491Z" fill="#35208A"/>
<path d="M110.806 93.3917C111.868 93.3917 112.906 93.7066 113.789 94.2966C114.672 94.8866 115.36 95.7251 115.767 96.7063C116.173 97.6874 116.279 98.767 116.072 99.8086C115.865 100.85 115.354 101.807 114.603 102.558C113.852 103.309 112.895 103.82 111.853 104.027C110.812 104.234 109.732 104.128 108.751 103.722C107.77 103.315 106.931 102.627 106.341 101.744C105.751 100.861 105.437 99.823 105.437 98.7611C105.437 97.337 106.002 95.9713 107.009 94.9643C108.016 93.9574 109.382 93.3917 110.806 93.3917Z" fill="#96CBEB"/>
<path d="M93.3734 114.547C94.2325 115.746 95.4675 118.664 97.2752 118.592C99.0828 118.52 101.141 115.854 102.018 114.547C103.575 112.381 105.598 106.994 102.841 105.025C100.318 103.236 98.9397 107.513 97.8121 108.945C96.6845 110.377 94.841 109.464 93.3018 110.413C91.7626 111.361 92.6217 113.366 93.3734 114.547Z" fill="#FA8D61"/>
<path d="M59.5291 117.375C58.8765 113.373 57.6213 109.493 55.8063 105.867C55.6094 105.473 54.8219 106.01 55.0904 106.797C55.3588 107.585 58.4373 116.57 58.9026 117.536C59.0458 117.858 59.5112 117.679 59.5291 117.357V117.375Z" fill="#35208A"/>
<path d="M56.7191 118.216C56.379 116.731 54.2133 115.549 53.1395 114.637C51.8057 113.227 50.3765 111.912 48.8618 110.699C48.486 110.431 47.9848 110.95 48.2354 111.325C49.4927 112.935 50.9548 114.373 52.5846 115.603C53.6406 116.534 55.144 118.395 56.6296 118.413C56.6296 118.413 56.737 118.413 56.737 118.288L56.7191 118.216Z" fill="#35208A"/>
<path d="M101.321 109.178C100.39 109.947 100.014 111.451 99.3164 112.435C98.3713 113.776 97.2029 114.944 95.8621 115.889C95.3251 116.301 95.8621 117.196 96.399 116.802C97.7894 115.824 99.0004 114.613 99.9786 113.223C100.712 112.185 101.912 110.502 101.589 109.16C101.589 109.16 101.482 109.16 101.41 109.16L101.321 109.178Z" fill="#35208A"/>
<path d="M99.5848 108.945C98.6594 109.598 97.7912 110.328 96.9896 111.129C95.9873 111.88 94.824 112.346 93.8575 113.079C93.7675 113.14 93.7015 113.23 93.6706 113.333C93.6398 113.437 93.6461 113.548 93.6885 113.648C93.7309 113.748 93.8067 113.829 93.9029 113.879C93.9991 113.929 94.1096 113.944 94.2154 113.921C95.4198 113.493 96.527 112.829 97.4729 111.97C98.5349 111.276 99.3934 110.312 99.9607 109.178C99.9722 109.129 99.9697 109.077 99.9534 109.029C99.937 108.982 99.9075 108.939 99.8683 108.908C99.829 108.876 99.7816 108.856 99.7315 108.85C99.6813 108.844 99.6305 108.852 99.5848 108.873V108.945Z" fill="#35208A"/>
<path d="M77.1762 119.916C76.9362 119.204 76.4872 118.58 75.8875 118.127C75.4098 117.631 74.7796 117.309 74.0977 117.214C74.0177 117.216 73.9399 117.241 73.8739 117.286C73.8079 117.331 73.7565 117.395 73.7261 117.469C73.6957 117.543 73.6876 117.625 73.7027 117.703C73.7179 117.782 73.7556 117.854 73.8113 117.912C74.275 118.298 74.7655 118.651 75.279 118.968C75.7443 119.362 76.0844 119.881 76.5676 120.274C76.6357 120.332 76.7198 120.366 76.8084 120.374C76.8971 120.381 76.9858 120.361 77.0624 120.316C77.139 120.271 77.1997 120.203 77.2361 120.122C77.2725 120.04 77.2828 119.95 77.2657 119.863L77.1762 119.916Z" fill="#35208A"/>
<path d="M74.6526 120.489C74.0246 119.866 73.335 119.309 72.5944 118.825C71.9858 118.377 71.2878 117.608 70.5182 117.608C70.4618 117.609 70.4064 117.622 70.3561 117.648C70.3057 117.673 70.2617 117.71 70.2274 117.754C70.193 117.799 70.1691 117.851 70.1575 117.906C70.1459 117.961 70.1468 118.018 70.1602 118.073C70.3929 118.789 71.2162 119.165 71.8069 119.594C72.531 120.186 73.3101 120.708 74.1336 121.151C74.5631 121.33 74.9927 120.847 74.6526 120.489Z" fill="#35208A"/>
<path d="M110.681 146.352C111.837 144.917 112.683 143.259 113.166 141.482C113.65 139.705 113.76 137.847 113.491 136.025C113.457 135.957 113.404 135.9 113.34 135.86C113.275 135.821 113.2 135.8 113.124 135.8C113.048 135.8 112.974 135.821 112.909 135.86C112.844 135.9 112.792 135.957 112.757 136.025C112.417 137.814 112.471 139.497 112.059 141.233C111.648 142.969 110.824 144.508 110.431 146.209C110.423 146.247 110.427 146.286 110.444 146.322C110.46 146.357 110.488 146.386 110.522 146.404C110.556 146.422 110.596 146.429 110.634 146.423C110.673 146.416 110.708 146.398 110.735 146.37L110.681 146.352Z" fill="#35208A"/>
<path d="M106.064 146.763C106.919 145.714 107.542 144.495 107.891 143.186C108.239 141.878 108.306 140.511 108.086 139.175C108.06 139.086 108.006 139.008 107.931 138.953C107.857 138.898 107.767 138.868 107.675 138.868C107.582 138.868 107.492 138.898 107.418 138.953C107.344 139.008 107.289 139.086 107.263 139.175C106.995 140.392 107.048 141.645 106.744 142.88C106.44 144.115 105.831 145.206 105.455 146.459C105.441 146.535 105.451 146.613 105.483 146.683C105.515 146.753 105.568 146.812 105.635 146.851C105.701 146.89 105.778 146.908 105.855 146.902C105.931 146.896 106.004 146.866 106.064 146.817V146.763Z" fill="#35208A"/>
<path d="M98.9043 148.553H99.0654C99.1444 148.557 99.223 148.539 99.2925 148.501C99.362 148.463 99.4197 148.407 99.4591 148.338C99.9638 147.45 100.332 146.491 100.551 145.493C100.864 144.609 100.932 143.656 100.748 142.736C100.714 142.673 100.664 142.619 100.603 142.582C100.541 142.545 100.471 142.525 100.399 142.525C100.327 142.525 100.256 142.545 100.195 142.582C100.133 142.619 100.083 142.673 100.05 142.736C99.7699 143.565 99.5896 144.424 99.5128 145.296C99.298 146.244 98.9401 147.086 98.6358 148.07C98.6115 148.147 98.6087 148.23 98.6276 148.309C98.6465 148.387 98.6865 148.46 98.7432 148.517C98.7432 148.517 98.7432 148.625 98.9043 148.625V148.553Z" fill="#35208A"/>
<path d="M92.3536 150.343C93.2174 149.658 93.9337 148.806 94.4597 147.837C94.9856 146.868 95.3103 145.803 95.4142 144.705C95.4142 144.132 94.5909 144.043 94.4298 144.58C94.1946 145.574 93.8525 146.541 93.4096 147.461C92.916 148.272 92.3782 149.055 91.7988 149.806C91.7496 149.883 91.7285 149.974 91.7389 150.064C91.7494 150.155 91.7909 150.239 91.8563 150.302C91.9216 150.365 92.0069 150.404 92.0976 150.411C92.1882 150.419 92.2787 150.395 92.3536 150.343Z" fill="#35208A"/>
<path d="M87.9503 148.983C88.5677 148.195 89.0404 147.305 89.3463 146.352C89.5969 145.6 90.0622 144.419 89.579 143.685C89.5472 143.644 89.5065 143.611 89.4599 143.588C89.4134 143.565 89.3623 143.554 89.3105 143.554C89.2587 143.554 89.2076 143.565 89.1611 143.588C89.1145 143.611 89.0738 143.644 89.042 143.685C88.523 144.24 88.5946 145.117 88.3798 145.833C88.0908 146.759 87.707 147.652 87.2343 148.5C87.0196 148.929 87.6102 149.466 87.9503 149.054V148.983Z" fill="#35208A"/>
<path d="M83.244 147.336C83.8851 146.939 84.3961 146.363 84.7141 145.68C85.0321 144.996 85.1432 144.234 85.0338 143.488C85.0024 143.42 84.9519 143.361 84.8885 143.321C84.825 143.28 84.7512 143.258 84.6758 143.258C84.6004 143.258 84.5266 143.28 84.4631 143.321C84.3997 143.361 84.3493 143.42 84.3179 143.488C84.0315 144.061 84.0136 144.723 83.7451 145.278C83.4501 145.859 83.109 146.416 82.7249 146.942C82.546 147.229 82.9039 147.533 83.1724 147.39L83.244 147.336Z" fill="#35208A"/>
<path d="M80.0393 145.869C80.7316 145.224 81.2752 144.436 81.6322 143.56C81.6915 143.46 81.7089 143.341 81.6803 143.228C81.6518 143.116 81.5798 143.019 81.4801 142.96C81.3804 142.901 81.2612 142.883 81.1488 142.912C81.0363 142.941 80.9398 143.013 80.8805 143.112C80.3245 143.887 79.9401 144.772 79.7529 145.707C79.7493 145.742 79.7559 145.777 79.7719 145.808C79.788 145.839 79.8127 145.865 79.8432 145.882C79.8736 145.899 79.9084 145.907 79.9433 145.905C79.9781 145.902 80.0115 145.89 80.0393 145.869Z" fill="#35208A"/>
<path d="M77.6415 144.025C77.9437 143.689 78.2023 143.316 78.4111 142.915C78.6859 142.581 78.8432 142.166 78.8586 141.734C78.859 141.684 78.8461 141.634 78.8211 141.59C78.7962 141.546 78.7601 141.51 78.7165 141.484C78.6729 141.459 78.6233 141.445 78.5728 141.445C78.5223 141.445 78.4727 141.458 78.429 141.484C77.9994 141.734 77.8921 142.164 77.6952 142.611C77.4991 143.009 77.3547 143.43 77.2656 143.864C77.2656 144.061 77.5162 144.132 77.6415 144.025Z" fill="#35208A"/>
<path d="M117.071 124.087C116.682 124.896 116.069 125.576 115.304 126.046C114.539 126.516 113.655 126.755 112.757 126.736C111.882 126.597 111.061 126.222 110.382 125.651C109.704 125.08 109.195 124.335 108.909 123.496C108.641 122.995 107.943 123.371 108.032 123.872C108.891 128.848 116.391 128.919 117.93 124.373C118.091 123.872 117.339 123.586 117.071 124.015V124.087Z" fill="#35208A"/>
<path d="M108.444 122.691C107.03 123.067 105.884 124.176 104.309 123.371C102.734 122.565 102.77 120.74 103.128 119.183C103.151 119.086 103.142 118.984 103.103 118.892C103.063 118.801 102.995 118.724 102.909 118.674C102.823 118.624 102.723 118.603 102.624 118.614C102.525 118.625 102.432 118.667 102.359 118.735C100.837 120.346 101.893 123.263 103.629 124.266C105.025 125.053 108.533 124.91 108.515 122.744L108.444 122.691Z" fill="#35208A"/>
<path d="M110.251 132.23C108.623 133.412 107.173 134.825 105.007 134.754C104.415 134.732 103.836 134.572 103.317 134.286C102.798 134 102.353 133.596 102.018 133.107C101.541 132.234 101.365 131.227 101.517 130.244C101.517 129.814 100.98 129.725 100.748 130.029C99.3695 131.998 101.428 134.682 103.289 135.398C104.634 135.834 106.089 135.775 107.395 135.234C108.7 134.693 109.77 133.704 110.413 132.445C110.413 132.338 110.413 132.194 110.251 132.284V132.23Z" fill="#35208A"/>
<path d="M101.714 129.599C101.026 130.075 100.202 130.315 99.3666 130.282C98.5308 130.25 97.728 129.948 97.0787 129.42C96.7935 129.128 96.5716 128.78 96.4268 128.398C96.2821 128.016 96.2176 127.609 96.2375 127.201C96.3882 126.463 96.6162 125.743 96.9176 125.053C96.9402 124.974 96.9385 124.889 96.9125 124.811C96.8864 124.732 96.8374 124.664 96.7718 124.613C96.7061 124.563 96.6269 124.534 96.5443 124.529C96.4618 124.525 96.3798 124.545 96.3091 124.588C95.3426 125.035 95.0741 126.521 95.1457 127.469C95.1662 127.997 95.2905 128.515 95.5117 128.994C95.7328 129.473 96.0464 129.904 96.4343 130.262C96.8308 130.604 97.2912 130.864 97.7889 131.027C98.2867 131.189 98.8118 131.252 99.3338 131.21C99.8642 131.181 100.383 131.041 100.855 130.798C101.259 130.516 101.59 130.142 101.822 129.707L101.714 129.599Z" fill="#35208A"/>
<path d="M96.4876 124.069C95.2348 124.266 93.7671 124.856 92.908 123.586C92.7133 123.318 92.5829 123.01 92.527 122.684C92.4711 122.358 92.4913 122.023 92.5859 121.706C92.7828 121.044 93.3018 120.704 93.6956 120.185C93.7318 120.115 93.7499 120.038 93.7482 119.96C93.7464 119.881 93.7249 119.804 93.6857 119.737C93.6464 119.669 93.5906 119.612 93.5235 119.571C93.4564 119.531 93.3801 119.508 93.3018 119.505C91.2435 119.755 90.9572 122.923 92.0131 124.266C93.0691 125.608 96.1476 126.234 96.5592 124.266C96.5592 124.266 96.5592 124.158 96.5592 124.176L96.4876 124.069Z" fill="#35208A"/>
<path d="M95.8971 138.745C95.2275 138.801 94.5634 138.909 93.9104 139.067C93.1028 139.145 92.2921 138.956 91.6015 138.53C91.2939 138.336 91.0296 138.08 90.8252 137.779C90.6207 137.478 90.4806 137.138 90.4134 136.78C90.3462 136.422 90.3535 136.055 90.4347 135.7C90.516 135.345 90.6695 135.011 90.8856 134.718C91.3331 134.181 90.5456 133.394 90.0802 133.931C89.4902 134.668 89.2042 135.603 89.2807 136.545C89.3573 137.486 89.7905 138.363 90.4919 138.996C91.3087 139.69 92.3557 140.054 93.4271 140.016C94.2862 140.016 95.5928 139.819 96.0581 139.014C96.0741 138.986 96.0824 138.955 96.0822 138.923C96.0819 138.891 96.0731 138.859 96.0567 138.832C96.0402 138.805 96.0168 138.782 95.9887 138.767C95.9606 138.752 95.929 138.744 95.8971 138.745Z" fill="#35208A"/>
<path d="M90.6355 133.805C89.2752 133.805 87.7897 134.038 86.7695 132.91C86.5523 132.668 86.3852 132.385 86.2777 132.078C86.1702 131.771 86.1244 131.446 86.1431 131.121C86.2443 130.604 86.4319 130.108 86.6979 129.653C86.8769 129.241 86.3221 128.937 85.9999 129.116C84.5144 129.886 84.9618 132.302 85.8209 133.34C86.4236 134.024 87.2403 134.482 88.1376 134.642C89.0348 134.801 89.9596 134.651 90.7608 134.217C90.8114 134.188 90.8512 134.143 90.8741 134.089C90.897 134.035 90.9017 133.976 90.8875 133.919C90.8733 133.862 90.8411 133.812 90.7956 133.775C90.7501 133.738 90.6939 133.718 90.6355 133.716V133.805Z" fill="#35208A"/>
<path d="M85.7672 128.865C85.2336 128.984 84.6755 128.915 84.1866 128.671C83.6977 128.426 83.3079 128.021 83.0825 127.523C83.0015 127.248 82.9768 126.96 83.01 126.675C83.0432 126.39 83.1335 126.115 83.2756 125.866C83.4176 125.617 83.6085 125.399 83.8367 125.226C84.065 125.052 84.3259 124.927 84.6038 124.856C84.7229 124.801 84.8186 124.706 84.8741 124.587C84.9295 124.468 84.9411 124.334 84.9068 124.207C84.8725 124.081 84.7945 123.97 84.6866 123.896C84.5787 123.821 84.4479 123.788 84.3175 123.8C83.9027 123.902 83.5128 124.086 83.1711 124.342C82.8294 124.598 82.5429 124.92 82.3289 125.29C82.115 125.659 81.9779 126.068 81.9259 126.492C81.8739 126.916 81.9082 127.346 82.0265 127.756C82.1638 128.135 82.3753 128.482 82.6487 128.778C82.9221 129.074 83.2519 129.312 83.6187 129.479C83.9855 129.646 84.3819 129.738 84.7847 129.749C85.1874 129.76 85.5884 129.691 85.9641 129.546C86.0387 129.502 86.0969 129.435 86.1297 129.355C86.1626 129.275 86.1683 129.187 86.1459 129.103C86.1235 129.02 86.0743 128.946 86.0059 128.894C85.9374 128.841 85.8536 128.812 85.7672 128.812V128.865Z" fill="#35208A"/>
<path d="M81.8478 139.067C80.4875 138.727 78.823 138.781 77.8565 137.564C77.6614 137.339 77.5173 137.075 77.4342 136.789C77.3511 136.503 77.3309 136.203 77.3752 135.908C77.4194 135.614 77.5269 135.333 77.6904 135.084C77.8538 134.835 78.0693 134.625 78.3219 134.468C78.4118 134.407 78.4779 134.317 78.5087 134.214C78.5395 134.11 78.5332 133.998 78.4908 133.899C78.4484 133.799 78.3726 133.717 78.2764 133.668C78.1802 133.618 78.0697 133.603 77.9639 133.626C76.1741 133.948 75.9414 136.168 76.5858 137.51C77.1386 138.361 77.9415 139.019 78.8839 139.394C79.8263 139.769 80.8618 139.842 81.8478 139.604C81.9109 139.582 81.9657 139.541 82.0045 139.487C82.0432 139.432 82.064 139.367 82.064 139.3C82.064 139.233 82.0432 139.168 82.0045 139.113C81.9657 139.059 81.9109 139.018 81.8478 138.996V139.067Z" fill="#35208A"/>
<path d="M78.0707 133.573C77.9276 133.286 77.7307 133.304 77.4085 133.197C76.7464 133.021 76.1726 132.607 75.7977 132.033C75.6377 131.767 75.5331 131.472 75.49 131.164C75.447 130.857 75.4664 130.543 75.5471 130.244C75.7708 129.685 76.0721 129.161 76.442 128.686C76.621 128.364 76.3167 127.881 75.923 128.024C74.1332 128.633 74.0258 131.317 75.0102 132.624C75.5154 133.32 76.274 133.789 77.1222 133.931C77.1222 133.931 78.3213 133.931 78.0707 133.537V133.573Z" fill="#35208A"/>
<path d="M76.2807 127.881C75.9123 127.773 75.6002 127.525 75.41 127.192C75.2198 126.858 75.1662 126.464 75.2605 126.091C75.5648 125.232 76.3702 125.357 77.0503 125.196C77.1403 125.168 77.2204 125.114 77.2813 125.042C77.3422 124.97 77.3815 124.882 77.3946 124.788C77.4077 124.695 77.3941 124.599 77.3553 124.513C77.3166 124.427 77.2543 124.354 77.1756 124.301C76.0302 123.496 74.3835 124.856 74.1151 125.984C74.0538 126.299 74.0584 126.624 74.1286 126.937C74.1988 127.25 74.3331 127.546 74.5231 127.805C74.7131 128.064 74.9546 128.28 75.2324 128.441C75.5103 128.602 75.8185 128.704 76.1376 128.74C76.6566 128.74 76.6566 128.078 76.2628 127.935L76.2807 127.881Z" fill="#35208A"/>
<path d="M70.089 133.895C69.0345 133.556 68.0341 133.067 67.1179 132.445C66.6832 132.107 66.3846 131.625 66.2767 131.085C66.2435 130.914 66.2531 130.737 66.3046 130.571C66.3561 130.405 66.448 130.254 66.572 130.131C66.696 130.009 66.8483 129.919 67.0154 129.87C67.1825 129.821 67.3591 129.814 67.5295 129.85C68.0128 129.85 68.2455 129.08 67.7801 128.883C66.0798 128.114 64.7375 130.19 65.3281 131.693C65.7352 132.571 66.4156 133.293 67.2675 133.751C68.1193 134.209 69.0967 134.379 70.0532 134.235C70.0834 134.22 70.1089 134.197 70.1268 134.169C70.1447 134.14 70.1541 134.107 70.1541 134.074C70.1541 134.04 70.1447 134.007 70.1268 133.979C70.1089 133.95 70.0834 133.927 70.0532 133.913L70.089 133.895Z" fill="#35208A"/>
<path d="M67.869 128.525C67.5965 128.485 67.3439 128.359 67.1484 128.165C66.9529 127.971 66.8247 127.719 66.7827 127.447C66.7406 127.175 66.7869 126.896 66.9148 126.652C67.0427 126.408 67.2454 126.212 67.4932 126.091C67.7484 125.985 68.0221 125.93 68.2986 125.93C68.5751 125.93 68.8488 125.985 69.104 126.091C69.5693 126.252 70.0705 126.288 70.1242 125.68C70.122 125.581 70.0945 125.485 70.0443 125.401C69.9941 125.316 69.923 125.246 69.8378 125.196C69.4987 124.992 69.1208 124.86 68.7281 124.809C68.3354 124.758 67.9364 124.789 67.5562 124.9C67.1761 125.011 66.8231 125.2 66.5196 125.454C66.2161 125.708 65.9686 126.023 65.7929 126.378C65.6592 126.724 65.6098 127.097 65.6486 127.467C65.6874 127.836 65.8133 128.191 66.0161 128.502C66.2188 128.813 66.4925 129.071 66.8146 129.256C67.1368 129.44 67.4981 129.546 67.869 129.564C68.0019 129.564 68.1294 129.511 68.2234 129.417C68.3174 129.323 68.3702 129.195 68.3702 129.062C68.3702 128.929 68.3174 128.802 68.2234 128.708C68.1294 128.614 68.0019 128.561 67.869 128.561V128.525Z" fill="#35208A"/>
<path d="M38.1765 88.3981C38.1765 88.2907 38.1765 88.2192 38.1765 88.1834C37.6575 87.1811 35.7245 86.9842 34.758 86.7873C33.183 86.4651 31.5721 86.2862 29.9792 86.0714L29.1022 85.9103C28.9948 85.9103 28.8159 85.8029 28.8338 85.9103C28.6323 85.5593 28.4702 85.1872 28.3505 84.8006C27.6883 83.2614 27.0619 81.7222 26.3817 80.183C26.0417 79.3954 25.7016 78.6258 25.3257 77.8562C25.0931 77.3909 24.8425 76.496 24.3056 76.2633C23.1422 75.7622 22.3368 78.6437 22.0325 79.3239C21.2808 80.9884 20.5828 82.6708 19.8669 84.3353C19.7237 84.6932 19.4731 85.6955 19.1509 85.9282C18.6478 86.0064 18.1384 86.0363 17.6296 86.0177L15.4998 86.1967C14.29 86.2633 13.0903 86.4553 11.9202 86.7694C11.2221 86.9663 9.95138 87.3064 10.1304 88.2907C10.3093 89.2751 11.4548 89.83 11.9202 90.2774C12.8636 91.0266 13.8628 91.7027 14.9091 92.2999C15.4327 92.536 15.9408 92.805 16.4305 93.1053C16.9853 93.5348 16.7168 93.9823 16.5736 94.555C16.2515 95.7721 15.9293 96.9892 15.625 98.1346C15.3208 99.2801 15.1597 100.229 14.9986 101.213C14.8197 101.9 14.8197 102.621 14.9986 103.307C15.7324 104.864 18.5782 102.144 19.2225 101.625C19.8669 101.106 20.9049 100.282 21.7104 99.5844L22.9095 98.5463C23.1243 98.3494 23.6791 97.5798 23.9655 97.5261C24.2519 97.4724 25.6479 98.94 26.0238 99.3159C26.865 100.05 27.8136 100.73 28.6011 101.41C29.7237 102.552 31.1433 103.358 32.6997 103.737C34.0779 103.862 33.4156 101.768 33.2367 100.945C32.7892 98.9758 32.1628 97.0608 31.5721 95.1278C31.4469 94.7161 31.2858 94.2866 31.1963 93.8749C31.1068 93.4633 31.1963 93.4454 31.5006 93.1948C32.2702 92.7473 33.2009 92.461 33.9884 92.0493C35.277 91.405 37.8364 90.2595 38.2123 88.6308C38.2232 88.5917 38.2256 88.5507 38.2194 88.5106C38.2132 88.4705 38.1986 88.4322 38.1765 88.3981Z" fill="#FFF896"/>
<path d="M151.614 137.6C149.431 137.403 147.229 137.439 145.028 137.457L146.818 135.667C147.904 134.748 148.835 133.661 149.574 132.445C149.635 132.33 149.658 132.198 149.639 132.069C149.62 131.94 149.559 131.821 149.467 131.728C149.375 131.636 149.256 131.576 149.126 131.557C148.997 131.538 148.866 131.56 148.751 131.622C147.566 132.331 146.492 133.212 145.565 134.235L143.667 136.025V133.483C143.773 132.098 143.671 130.704 143.363 129.349C143.325 129.224 143.248 129.115 143.143 129.038C143.038 128.961 142.912 128.919 142.782 128.919C142.651 128.919 142.525 128.961 142.42 129.038C142.315 129.115 142.238 129.224 142.2 129.349C141.862 130.699 141.729 132.093 141.806 133.483C141.806 134.36 141.806 135.273 141.806 136.132L140.016 134.235C139.12 133.181 138.063 132.275 136.884 131.55C136.766 131.436 136.606 131.374 136.442 131.377C136.277 131.381 136.121 131.449 136.007 131.568C135.893 131.687 135.831 131.846 135.834 132.01C135.838 132.175 135.906 132.331 136.025 132.445C136.739 133.632 137.626 134.706 138.656 135.631L140.446 137.528H137.815C136.435 137.414 135.046 137.517 133.698 137.832C133.574 137.871 133.465 137.948 133.388 138.052C133.31 138.157 133.269 138.284 133.269 138.414C133.269 138.544 133.31 138.671 133.388 138.776C133.465 138.88 133.574 138.957 133.698 138.996C135.043 139.333 136.431 139.465 137.815 139.389H140.428C138.797 140.865 137.244 142.424 135.774 144.061C135.639 144.236 135.571 144.454 135.584 144.675C135.597 144.896 135.69 145.104 135.845 145.262C136.001 145.42 136.208 145.515 136.429 145.532C136.65 145.548 136.869 145.483 137.045 145.35C138.71 143.953 140.231 142.396 141.77 140.839C141.77 143.023 141.645 145.206 141.77 147.372C141.812 147.579 141.924 147.765 142.087 147.898C142.25 148.032 142.454 148.105 142.665 148.105C142.876 148.105 143.08 148.032 143.244 147.898C143.407 147.765 143.519 147.579 143.56 147.372C143.739 145.224 143.721 143.023 143.703 140.857C145.207 142.432 146.71 144.043 148.339 145.457C148.507 145.625 148.736 145.72 148.974 145.72C149.213 145.72 149.441 145.625 149.61 145.457C149.778 145.288 149.873 145.06 149.873 144.822C149.873 144.583 149.778 144.355 149.61 144.186C148.231 142.522 146.656 141 145.099 139.461C147.283 139.461 149.484 139.586 151.65 139.461C151.897 139.456 152.132 139.354 152.303 139.176C152.474 138.998 152.568 138.759 152.563 138.512C152.558 138.266 152.455 138.031 152.278 137.86C152.1 137.688 151.861 137.595 151.614 137.6Z" fill="white"/>
<path d="M33.2009 40.7179C33.379 40.512 33.5462 40.2969 33.702 40.0736L33.3799 40.4852C33.6613 40.199 33.8806 39.8578 34.0242 39.4829C34.1309 39.0712 34.1015 38.6359 33.9401 38.2422C33.7788 37.8486 33.4943 37.5178 33.1293 37.2994C32.7447 37.0617 32.3016 36.9359 31.8496 36.9359C31.3975 36.9359 30.9544 37.0617 30.5699 37.2994C30.3062 37.4559 30.0788 37.6666 29.9027 37.9176C29.7266 38.1686 29.6058 38.4541 29.5482 38.7553C29.4907 39.0565 29.4978 39.3664 29.569 39.6646C29.6402 39.9629 29.7739 40.2426 29.9613 40.4852C30.1242 40.7158 30.3348 40.9087 30.5787 41.0507C30.8227 41.1928 31.0944 41.2807 31.3753 41.3085C31.6991 41.3628 32.0314 41.3374 32.3432 41.2345C32.655 41.1316 32.9371 40.9543 33.1651 40.7179H33.2009Z" fill="white"/>
<path d="M40.0738 68.3524C40.5375 68.3569 40.9942 68.2397 41.3983 68.0123C41.9183 67.6854 42.2956 67.1739 42.4543 66.5805L42.0247 67.3322L42.1142 67.2248C42.3964 66.9314 42.554 66.5401 42.554 66.1331C42.554 65.726 42.3964 65.3347 42.1142 65.0413L42.0247 64.9518L42.4543 65.6856C42.3023 65.089 41.9234 64.5752 41.3983 64.2538C41.1323 64.1088 40.8404 64.0176 40.5392 63.9853C40.3846 63.9677 40.2285 63.9677 40.0738 63.9853C39.4845 63.9842 38.9185 64.2158 38.4988 64.6296C38.0925 65.0469 37.8618 65.6043 37.8545 66.1868C37.8592 66.7739 38.0945 67.3357 38.5097 67.7509C38.9249 68.1661 39.4867 68.4014 40.0738 68.4061V68.3524Z" fill="white"/>
<path d="M64.4329 17.0389L65.113 16.5735C65.3438 16.4181 65.5351 16.2109 65.6718 15.9686C65.8085 15.7263 65.8868 15.4554 65.9005 15.1775C65.8944 14.9004 65.8192 14.6292 65.6816 14.3885C65.5441 14.1478 65.3487 13.9453 65.113 13.7994L64.4329 13.334C64.1076 13.1328 63.7326 13.0262 63.3501 13.0262C62.9676 13.0262 62.5926 13.1328 62.2673 13.334C61.9397 13.5198 61.6673 13.7892 61.4778 14.1146C61.2883 14.44 61.1885 14.8099 61.1885 15.1864C61.1885 15.563 61.2883 15.9329 61.4778 16.2583C61.6673 16.5837 61.9397 16.8531 62.2673 17.0389C62.594 17.2363 62.9684 17.3406 63.3501 17.3406C63.7318 17.3406 64.1062 17.2363 64.4329 17.0389Z" fill="white"/>
<path d="M112.632 13.6204H112.918C115.227 13.7994 115.227 9.8439 112.918 10.0408H112.632C112.157 10.0408 111.702 10.2293 111.366 10.565C111.03 10.9006 110.842 11.3559 110.842 11.8306C110.842 12.3053 111.03 12.7605 111.366 13.0962C111.702 13.4318 112.157 13.6204 112.632 13.6204Z" fill="white"/>
<path d="M118.628 40.3421C119.203 40.2913 119.738 40.027 120.128 39.6013C120.518 39.1756 120.734 38.6194 120.734 38.0422C120.734 37.465 120.518 36.9087 120.128 36.483C119.738 36.0573 119.203 35.793 118.628 35.7423C118.053 35.793 117.518 36.0573 117.128 36.483C116.739 36.9087 116.522 37.465 116.522 38.0422C116.522 38.6194 116.739 39.1756 117.128 39.6013C117.518 40.027 118.053 40.2913 118.628 40.3421Z" fill="white"/>
<path d="M89.3114 21.6565C89.5744 21.6566 89.8349 21.6044 90.0776 21.503C90.3203 21.4017 90.5405 21.2531 90.7253 21.0659C90.9049 20.8847 91.0465 20.6695 91.1418 20.4328C91.2371 20.1962 91.2841 19.9429 91.2802 19.6878C91.285 19.1575 91.0814 18.6465 90.7132 18.2648C90.3449 17.8832 89.8415 17.6615 89.3114 17.6474C88.7754 17.6503 88.2617 17.8622 87.8795 18.238C87.6948 18.4238 87.549 18.6445 87.4507 18.8873C87.3523 19.1301 87.3034 19.39 87.3068 19.652C87.3115 20.1822 87.5242 20.6893 87.8991 21.0643C88.274 21.4392 88.7812 21.6519 89.3114 21.6565Z" fill="white"/>
<path d="M142.289 51.6357H142.415H141.878H142.128H141.609C141.969 51.7159 142.342 51.7159 142.701 51.6357H142.826H142.343C142.718 51.6401 143.084 51.5193 143.382 51.2923C143.68 51.0653 143.894 50.7452 143.99 50.3828C144.1 50.0328 144.119 49.6607 144.047 49.301C143.976 48.9412 143.814 48.6054 143.578 48.3245C143.22 47.9748 142.775 47.7275 142.289 47.6086C141.98 47.5199 141.655 47.5042 141.339 47.5628C141.023 47.6213 140.724 47.7525 140.467 47.946C140.211 48.1395 140.002 48.39 139.859 48.6778C139.715 48.9655 139.641 49.2827 139.641 49.6042C139.641 49.9258 139.715 50.243 139.859 50.5307C140.002 50.8185 140.211 51.069 140.467 51.2625C140.724 51.456 141.023 51.5871 141.339 51.6457C141.655 51.7043 141.98 51.6886 142.289 51.5999V51.6357Z" fill="white"/>
<path d="M163.355 73.5607C163.734 73.8182 164.185 73.9497 164.643 73.9366C164.947 73.9343 165.246 73.8715 165.525 73.7517C165.803 73.632 166.055 73.4578 166.265 73.2393C166.475 73.0208 166.639 72.7625 166.748 72.4796C166.857 72.1967 166.908 71.8949 166.899 71.5919C166.907 71.1367 166.783 70.6889 166.541 70.3033C166.337 69.9557 166.047 69.6661 165.699 69.4621C165.34 69.2558 164.933 69.1449 164.518 69.1399C163.902 69.1604 163.315 69.4092 162.872 69.8379C162.442 70.2791 162.198 70.8687 162.191 71.4845C162.192 71.8999 162.303 72.3075 162.514 72.6658C162.713 73.0121 163.004 73.2968 163.355 73.4891V73.5607Z" fill="white"/>
<path d="M145.403 87.3063C145.932 87.1961 146.395 86.8807 146.692 86.4293C146.993 85.8841 147.083 85.2466 146.942 84.6395C146.834 84.2754 146.636 83.9441 146.367 83.6754C146.099 83.4067 145.767 83.2091 145.403 83.1003C144.984 82.9894 144.541 83.0049 144.13 83.145C143.719 83.2851 143.359 83.5436 143.094 83.8878C142.826 84.2304 142.667 84.6459 142.639 85.08C142.61 85.5142 142.713 85.947 142.933 86.3219C143.178 86.7372 143.552 87.0614 143.998 87.2455C144.443 87.4295 144.937 87.4635 145.403 87.3421V87.3063Z" fill="white"/>
<path d="M157.878 108.301C158.447 108.296 158.992 108.072 159.399 107.674C159.709 107.37 159.92 106.981 160.008 106.557C160.095 106.132 160.054 105.691 159.89 105.29C159.726 104.889 159.446 104.545 159.086 104.304C158.726 104.062 158.303 103.933 157.869 103.933C157.436 103.933 157.012 104.062 156.652 104.304C156.292 104.545 156.012 104.889 155.848 105.29C155.684 105.691 155.643 106.132 155.73 106.557C155.818 106.981 156.03 107.37 156.339 107.674C156.757 108.065 157.305 108.288 157.878 108.301Z" fill="white"/>
<path d="M121.151 157.216C121.021 156.967 120.834 156.753 120.605 156.59C120.377 156.427 120.113 156.32 119.836 156.278C119.558 156.235 119.275 156.259 119.008 156.346C118.741 156.434 118.499 156.583 118.301 156.781C118.102 156.98 117.953 157.222 117.866 157.489C117.778 157.756 117.755 158.039 117.797 158.317C117.839 158.594 117.946 158.858 118.109 159.086C118.272 159.315 118.486 159.502 118.735 159.632C119.081 159.819 119.478 159.887 119.867 159.826C120.255 159.764 120.612 159.577 120.883 159.292C121.148 159.015 121.317 158.661 121.365 158.28C121.414 157.9 121.339 157.514 121.151 157.18V157.216Z" fill="white"/>
<path d="M83.136 170.031C83.7673 170.031 84.3728 169.78 84.8192 169.334C85.2656 168.887 85.5164 168.282 85.5164 167.65C85.5102 167.02 85.26 166.417 84.8184 165.968C84.5416 165.691 84.2008 165.486 83.8261 165.373C83.4514 165.259 83.0544 165.239 82.6704 165.316C82.2863 165.392 81.927 165.562 81.6243 165.81C81.3216 166.059 81.0848 166.378 80.935 166.74C80.7852 167.101 80.7269 167.495 80.7654 167.884C80.8039 168.274 80.9379 168.648 81.1556 168.974C81.3733 169.299 81.6679 169.566 82.0133 169.75C82.3588 169.935 82.7444 170.031 83.136 170.031Z" fill="white"/>
<path d="M68.1733 153.332C68.0838 153.529 68.0122 153.708 67.9406 153.905L67.5648 154.388L67.0815 154.764L66.5088 154.997H65.8824C66.4493 155.005 66.9991 154.803 67.4256 154.429C67.852 154.056 68.1248 153.537 68.1912 152.974C68.2786 152.455 68.177 151.921 67.9048 151.471C67.588 150.949 67.0916 150.561 66.5088 150.379C65.8633 150.21 65.177 150.303 64.6001 150.638C64.0231 150.974 63.6026 151.524 63.4303 152.169C63.2655 152.771 63.3462 153.415 63.6549 153.958C63.9635 154.502 64.4748 154.901 65.077 155.068C65.6811 155.227 66.3232 155.143 66.8668 154.835C67.1348 154.686 67.3697 154.483 67.5574 154.24C67.745 153.997 67.8815 153.719 67.9585 153.422L68.1733 153.332Z" fill="white"/>
<path d="M34.6328 149.412C34.9637 149.418 35.2925 149.358 35.5998 149.235C35.9072 149.112 36.1869 148.929 36.4226 148.696C36.6566 148.462 36.8407 148.182 36.9638 147.875C37.0868 147.567 37.1463 147.238 37.1385 146.907C37.1506 146.575 37.0931 146.244 36.9698 145.936C36.8465 145.628 36.6601 145.349 36.4226 145.117C36.1881 144.883 35.9086 144.699 35.601 144.576C35.2934 144.453 34.964 144.393 34.6328 144.401C33.9649 144.393 33.3213 144.651 32.843 145.117C32.6072 145.35 32.422 145.629 32.2988 145.937C32.1756 146.245 32.1172 146.575 32.1271 146.907C32.1223 147.237 32.1831 147.566 32.306 147.873C32.4289 148.18 32.6114 148.46 32.843 148.696C33.3213 149.163 33.9649 149.42 34.6328 149.412Z" fill="white"/>
<path d="M39.5902 122.315C40.1836 122.263 40.7361 121.991 41.1386 121.552C41.5411 121.113 41.7644 120.539 41.7644 119.943C41.7644 119.348 41.5411 118.774 41.1386 118.335C40.7361 117.896 40.1836 117.623 39.5902 117.572C38.9968 117.623 38.4443 117.896 38.0418 118.335C37.6393 118.774 37.416 119.348 37.416 119.943C37.416 120.539 37.6393 121.113 38.0418 121.552C38.4443 121.991 38.9968 122.263 39.5902 122.315Z" fill="white"/>
<path d="M83.9599 103.629C84.4285 103.371 84.7948 102.961 84.998 102.466C85.0853 102.275 85.1571 102.078 85.2127 101.875C85.2984 101.555 85.2987 101.218 85.2134 100.897C85.1281 100.577 84.9603 100.284 84.7267 100.049C84.4931 99.8133 84.2018 99.6432 83.882 99.5555C83.5622 99.4677 83.2249 99.4653 82.9039 99.5486L82.2954 99.7633C81.7976 99.9639 81.3902 100.339 81.1499 100.819C80.9278 101.213 80.8392 101.668 80.8972 102.117C80.9553 102.565 81.157 102.983 81.4721 103.307C81.802 103.612 82.2188 103.807 82.6646 103.865C83.1104 103.923 83.563 103.84 83.9599 103.629Z" fill="white"/>
<path d="M50.7941 51.1882L50.1319 51.2777H50.2393L50.9015 51.1882C51.112 51.1172 51.3156 51.0273 51.51 50.9198L50.9194 51.1703C51.3248 51.044 51.6975 50.8302 52.0112 50.5439C52.2725 50.2751 52.4697 49.9508 52.588 49.5951C52.7064 49.2394 52.7428 48.8616 52.6946 48.4899C52.6464 48.1181 52.5149 47.7621 52.3097 47.4483C52.1046 47.1345 51.8312 46.8712 51.51 46.6779C51.0054 46.3837 50.4176 46.2645 49.8381 46.339C49.2587 46.4134 48.7202 46.6773 48.3063 47.0896C47.9389 47.4951 47.7112 48.0075 47.6564 48.5519C47.6017 49.0963 47.7228 49.6439 48.002 50.1144C48.2343 50.4721 48.5392 50.777 48.8969 51.0093C49.1798 51.177 49.4938 51.2857 49.8198 51.3288C50.1459 51.3719 50.4773 51.3484 50.7941 51.2598V51.1882Z" fill="#FFF896"/>
<path d="M94.5193 81.7222C94.7712 82.1904 95.1499 82.5781 95.6121 82.8409C96.0743 83.1036 96.6012 83.2308 97.1324 83.2077C97.5009 83.2239 97.868 83.1528 98.2038 83.0005C98.5397 82.8481 98.8349 82.6186 99.0654 82.3307C99.2929 82.076 99.453 81.7683 99.5307 81.4358C99.6196 81.0167 99.5823 80.5807 99.4233 80.1829C99.2743 79.7968 98.996 79.4742 98.6358 79.2701L99.0475 79.5744L99.3875 80.004C99.2265 79.7713 99.0475 79.5565 98.8685 79.3417L99.2444 79.825V79.6818L99.4949 80.2724C99.4869 80.225 99.4869 80.1766 99.4949 80.1292C99.4949 80.344 99.4949 80.5767 99.4949 80.7915C99.4949 80.4872 99.3875 80.2008 99.3517 79.8966C99.2649 79.5776 99.1159 79.279 98.9131 79.0179C98.7104 78.7568 98.458 78.5384 98.1705 78.3752C97.8287 78.1677 97.4417 78.0463 97.0427 78.0214C96.6436 77.9964 96.2445 78.0687 95.8795 78.2321C95.5718 78.3536 95.2922 78.537 95.0582 78.771C94.8242 79.005 94.6408 79.2845 94.5193 79.5923C94.3603 79.8951 94.2861 80.2352 94.3045 80.5767C94.3069 81.0361 94.4304 81.4868 94.6625 81.8832L94.5193 81.7222Z" fill="#FFF896"/>
<path d="M138.154 119.129C138.823 119.124 139.465 118.861 139.944 118.395C140.414 117.918 140.677 117.275 140.678 116.605C140.676 116.191 140.573 115.784 140.376 115.419C140.18 115.054 139.896 114.744 139.551 114.514C139.206 114.285 138.81 114.144 138.398 114.104C137.986 114.064 137.57 114.126 137.187 114.285C136.805 114.444 136.467 114.694 136.204 115.015C135.941 115.335 135.761 115.715 135.68 116.121C135.599 116.527 135.619 116.947 135.738 117.344C135.857 117.74 136.073 118.101 136.365 118.395C136.849 118.854 137.487 119.115 138.154 119.129Z" fill="#FFF896"/>
<path d="M21.012 120.811C21.587 120.761 22.122 120.496 22.5118 120.071C22.9016 119.645 23.1178 119.089 23.1178 118.511C23.1178 117.934 22.9016 117.378 22.5118 116.952C22.122 116.527 21.587 116.262 21.012 116.212C20.4371 116.262 19.902 116.527 19.5122 116.952C19.1224 117.378 18.9063 117.934 18.9062 118.511C18.9063 119.089 19.1224 119.645 19.5122 120.071C19.902 120.496 20.4371 120.761 21.012 120.811Z" fill="#FFF896"/>
<path d="M160.062 48.772C160.734 48.7486 161.373 48.474 161.852 48.0024C162.096 47.758 162.29 47.4679 162.423 47.1485C162.555 46.8291 162.623 46.4867 162.623 46.141C162.623 45.7952 162.555 45.4529 162.423 45.1335C162.29 44.8141 162.096 44.5239 161.852 44.2796C161.607 44.035 161.317 43.8409 160.998 43.7085C160.678 43.5761 160.336 43.508 159.99 43.508C159.645 43.508 159.302 43.5761 158.983 43.7085C158.664 43.8409 158.373 44.035 158.129 44.2796C157.648 44.7525 157.372 45.3951 157.359 46.0694C157.376 46.7429 157.651 47.3841 158.129 47.8592C158.613 48.3237 159.249 48.5971 159.919 48.6288L160.062 48.772Z" fill="#FFF896"/>
</g>
<defs>
<clipPath id="clip0_2288_5048">
<rect width="180" height="180" fill="white"/>
</clipPath>
</defs>
</svg>
