<svg width="100" height="100" viewBox="0 0 100 100" fill="none" xmlns="http://www.w3.org/2000/svg">
<g clip-path="url(#clip0_1972_5032)">
<path d="M49.995 99.9901C77.6065 99.9901 99.9901 77.6065 99.9901 49.995C99.9901 22.3835 77.6065 0 49.995 0C22.3835 0 0 22.3835 0 49.995C0 77.6065 22.3835 99.9901 49.995 99.9901Z" fill="#35208A"/>
<path d="M61.5492 33.9266L61.4896 33.857C60.6543 32.813 59.8092 31.7291 58.964 30.6752C58.9229 30.6281 58.8693 30.5938 58.8094 30.5762C58.7495 30.5586 58.6859 30.5584 58.6259 30.5757L53.3062 32.107C53.2193 32.1274 53.1432 32.1796 53.0928 32.2533C53.0424 32.3271 53.0213 32.4169 53.0338 32.5054C53.0462 32.5938 53.0913 32.6743 53.1601 32.7313C53.2289 32.7882 53.3165 32.8173 53.4057 32.813C54.927 32.813 55.5733 34.2349 56.7765 34.8712C57.5507 35.236 58.4155 35.364 59.2623 35.2391C59.8191 35.1795 62.1956 35.0303 61.5492 33.9266Z" fill="#FA8D61"/>
<path d="M57.9891 19.8866C57.3363 19.7415 56.7265 19.4456 56.2085 19.0226C55.6905 18.5995 55.2788 18.0612 55.0061 17.4505C54.9673 17.3566 54.8984 17.2782 54.8102 17.2278C54.722 17.1774 54.6195 17.1578 54.5189 17.1721H54.4095C53.6368 17.4077 52.8025 17.3314 52.0852 16.9598C51.368 16.5882 50.8246 15.9506 50.5714 15.1835C50.5531 15.0938 50.5134 15.01 50.4557 14.939C50.398 14.868 50.324 14.8121 50.24 14.7759C50.156 14.7398 50.0645 14.7245 49.9733 14.7314C49.8821 14.7383 49.7939 14.7672 49.7162 14.8156C47.9861 16.0187 45.0131 17.898 43.2829 15.611C43.2341 15.5218 43.1622 15.4474 43.0747 15.3956C42.9872 15.3437 42.8874 15.3164 42.7857 15.3164C42.6841 15.3164 42.5843 15.3437 42.4968 15.3956C42.4093 15.4474 42.3374 15.5218 42.2886 15.611C41.9011 16.3255 41.3854 16.9625 40.7673 17.4903C39.9817 18.077 38.4803 18.3952 38.0826 17.1025C38.0549 17.0095 38.0038 16.9251 37.9342 16.8574C37.8646 16.7897 37.7787 16.7411 37.6849 16.7162C37.5911 16.6912 37.4924 16.6908 37.3984 16.7149C37.3044 16.739 37.2181 16.7869 37.1479 16.8539C35.8393 18.4158 34.9185 20.2649 34.4605 22.2504C34.0026 24.2359 34.0206 26.3016 34.5129 28.2788C34.5524 28.4191 34.6454 28.5382 34.7718 28.6107C34.8982 28.6832 35.048 28.7033 35.1891 28.6666L56.3484 25.0771C56.4424 25.0542 56.5284 25.006 56.5968 24.9376C56.6652 24.8692 56.7134 24.7833 56.7362 24.6893C57.122 23.3216 57.6278 21.9907 58.2476 20.7119C58.2916 20.6424 58.32 20.5641 58.3307 20.4825C58.3414 20.4009 58.3342 20.3179 58.3096 20.2394C58.285 20.1609 58.2436 20.0886 58.1882 20.0277C58.1329 19.9668 58.0649 19.9187 57.9891 19.8866Z" fill="#FA8D61"/>
<path d="M75.8077 35.2093C74.0921 33.3575 71.9911 31.9047 69.6528 30.9536C69.1284 30.8389 68.6525 30.5645 68.2905 30.168C67.9425 29.7604 67.6542 29.303 67.2962 28.8853C66.289 27.6363 65.1635 26.4875 63.9354 25.4549C61.6708 23.582 59.0467 22.1926 56.2247 21.3723C53.4028 20.552 50.4428 20.3181 47.5271 20.6852C44.6113 21.0522 41.8016 22.0123 39.271 23.5064C36.7404 25.0005 34.5426 26.9969 32.8128 29.3726C31.015 31.8008 29.6678 34.5322 28.8354 37.4366C28.4535 38.9589 28.2138 40.5135 28.1195 42.0801C28.04 43.0745 28.1195 44.4168 27.4931 45.1924C26.6479 46.1867 25.0271 45.8685 24.0825 46.7435C23.744 47.0839 23.5364 47.5328 23.4964 48.0112C23.4563 48.4896 23.5865 48.9668 23.8638 49.3586C25.5144 51.8743 30.0087 51.0291 32.4349 50.0547C32.3156 51.6357 29.1138 52.272 29.8397 54.2309C30.3866 55.7025 32.7531 54.5689 33.7275 54.3204C35.5741 53.9561 37.3268 53.2184 38.8782 52.1527C40.5901 50.786 41.8852 48.9674 42.6169 46.9026C43.4223 44.8145 43.5118 42.5872 44.2178 40.4991C44.9229 38.6026 46.1844 36.9633 47.8371 35.796C52.228 32.8824 57.5332 31.6763 62.7521 32.4053C63.2003 32.4201 63.6381 32.5436 64.0279 32.7654C64.4177 32.9871 64.7477 33.3003 64.9894 33.678C65.2227 34.4301 65.3071 35.2204 65.2379 36.0048C65.428 38.549 66.3849 40.9758 67.9823 42.9651C68.0119 42.9937 68.0475 43.0154 68.0865 43.0285C68.1255 43.0417 68.1669 43.0461 68.2078 43.0413C68.2487 43.0366 68.2881 43.0228 68.323 43.001C68.3579 42.9793 68.3876 42.95 68.4099 42.9154L69.4042 41.0659C69.6147 41.2535 69.8747 41.3767 70.1532 41.4207C70.4318 41.4648 70.7171 41.4279 70.9752 41.3145C71.9696 40.9665 72.3673 40.0915 72.9042 39.2363C73.1379 38.8501 73.4617 38.5263 73.8478 38.2925C74.234 38.0587 74.6711 37.922 75.1216 37.894C75.4983 37.8621 75.851 37.6963 76.1159 37.4267C76.812 36.6809 76.2651 35.796 75.8077 35.2093Z" fill="#96CBEB"/>
<path d="M42.5081 39.5048C41.3448 37.3571 38.9285 36.3329 36.6217 36.0446C33.0023 35.5872 30.1784 37.3968 28.319 40.1114C28.2395 40.7676 28.1798 41.4239 28.1201 42.1C28.0406 43.0944 28.1201 44.4367 27.4937 45.2123C26.6485 46.2066 25.0278 45.8884 24.0831 46.7635C23.7496 47.1026 23.5452 47.5476 23.5053 48.0216C23.4653 48.4955 23.5923 48.9685 23.8644 49.3587C25.515 51.8743 30.0094 51.0291 32.4355 50.0547C32.3162 51.6357 29.1145 52.2721 29.8403 54.2309C30.3872 55.7025 32.7537 54.569 33.7282 54.3204C35.5747 53.9561 37.3274 53.2185 38.8788 52.1527C40.5907 50.786 41.8858 48.9674 42.6175 46.9027C43.0608 45.6311 43.3935 44.3237 43.6118 42.9949C43.516 41.7624 43.1384 40.5684 42.5081 39.5048Z" fill="white"/>
<path d="M32.5549 46.2563C32.1863 46.2583 31.8254 46.1507 31.5181 45.9471C31.2108 45.7435 30.971 45.4532 30.829 45.1131C30.687 44.7729 30.6494 44.3982 30.7208 44.0366C30.7922 43.675 30.9695 43.3428 31.2302 43.0821C31.4908 42.8215 31.823 42.6442 32.1846 42.5728C32.5462 42.5014 32.9209 42.539 33.2611 42.681C33.6013 42.8229 33.8915 43.0628 34.0951 43.3701C34.2987 43.6774 34.4063 44.0383 34.4043 44.4069C34.3966 44.895 34.1993 45.3609 33.8541 45.7061C33.5089 46.0513 33.043 46.2486 32.5549 46.2563Z" fill="#35208A"/>
<path d="M38.4312 48.1157C37.8413 48.1157 37.2645 47.9408 36.774 47.613C36.2834 47.2852 35.9011 46.8193 35.6753 46.2743C35.4495 45.7292 35.3905 45.1294 35.5056 44.5508C35.6207 43.9721 35.9048 43.4406 36.3219 43.0234C36.7391 42.6062 37.2706 42.3221 37.8493 42.207C38.4279 42.0919 39.0277 42.151 39.5728 42.3768C40.1179 42.6026 40.5837 42.9849 40.9115 43.4755C41.2393 43.966 41.4142 44.5427 41.4142 45.1327C41.4142 45.9239 41.1 46.6826 40.5405 47.242C39.9811 47.8014 39.2224 48.1157 38.4312 48.1157Z" fill="#96CBEB"/>
<path d="M48.1261 36.3727C47.6488 35.6965 46.9627 34.0758 45.9584 34.1155C44.9542 34.1553 43.8107 35.6269 43.3135 36.3229C42.4485 37.5161 41.3249 40.519 42.8561 41.6128C44.2482 42.6071 45.0238 40.2307 45.6502 39.4352C46.2766 38.6397 47.3008 39.1369 48.1559 38.6199C49.011 38.1028 48.5437 37.019 48.1261 36.3727Z" fill="#FA8D61"/>
<path d="M66.9287 34.8017C66.9535 36.1478 67.2547 37.4745 67.8137 38.6994C68.013 39.406 68.3217 40.077 68.7285 40.6881C68.8933 40.9083 69.1227 41.0717 69.3847 41.1554C68.4898 39.4352 68.0225 36.3429 67.2767 34.7221C67.1972 34.5133 66.9387 34.6127 66.9287 34.8017Z" fill="#35208A"/>
<path d="M68.4892 34.3144C68.6782 35.1397 69.8813 35.796 70.4779 36.3528C71.2189 37.1357 72.0129 37.8666 72.8544 38.5403C73.0632 38.6895 73.3416 38.4011 73.2024 38.1923C72.5026 37.297 71.6943 36.492 70.7961 35.796C70.2094 35.2889 69.3742 34.2448 68.539 34.2349C68.5311 34.2361 68.5235 34.2388 68.5167 34.243C68.5099 34.2472 68.504 34.2527 68.4994 34.2592C68.4948 34.2657 68.4915 34.273 68.4897 34.2808C68.488 34.2886 68.4878 34.2966 68.4892 34.3045V34.3144Z" fill="#35208A"/>
<path d="M43.7502 39.3855C44.2673 38.9679 44.486 38.1326 44.8738 37.5758C45.3862 36.8401 46.0141 36.1921 46.7332 35.6567C47.0315 35.438 46.7332 34.9309 46.4448 35.1496C45.6681 35.688 44.9945 36.3616 44.4562 37.1383C44.0485 37.715 43.3823 38.6497 43.5513 39.3855C43.5568 39.3937 43.5642 39.4004 43.5728 39.4051C43.5815 39.4097 43.5912 39.4122 43.6011 39.4122C43.6109 39.4122 43.6206 39.4097 43.6293 39.4051C43.6379 39.4004 43.6453 39.3937 43.6508 39.3855H43.7502Z" fill="#35208A"/>
<path d="M44.6758 39.475C45.188 39.1097 45.6701 38.7041 46.1176 38.2619C46.6645 37.8443 47.3108 37.5858 47.8576 37.1781C48.0764 37.0091 47.9571 36.6213 47.6588 36.7008C46.9885 36.9423 46.3708 37.3103 45.8392 37.7846C45.2531 38.1619 44.7765 38.6865 44.457 39.306C44.457 39.4352 44.5664 39.5247 44.6758 39.475Z" fill="#35208A"/>
<path d="M57.1144 33.3797C57.2471 33.7759 57.4967 34.1225 57.8303 34.3741C58.1061 34.6647 58.4761 34.8479 58.8744 34.8911C58.9197 34.8921 58.9643 34.8795 59.0025 34.8551C59.0406 34.8306 59.0707 34.7954 59.0888 34.7539C59.1069 34.7123 59.1123 34.6663 59.1042 34.6217C59.0961 34.5771 59.075 34.5359 59.0434 34.5033C58.7848 34.2902 58.5124 34.0942 58.2281 33.9167C57.9596 33.6979 57.7707 33.4096 57.5121 33.1908C57.4749 33.1547 57.427 33.1318 57.3756 33.1254C57.3241 33.119 57.272 33.1295 57.2271 33.1553C57.1822 33.1811 57.1469 33.2209 57.1266 33.2685C57.1062 33.3162 57.102 33.3692 57.1144 33.4195V33.3797Z" fill="#35208A"/>
<path d="M58.5261 33.0616C58.8776 33.4047 59.2604 33.7143 59.6695 33.9863C60.0076 34.2349 60.3855 34.6624 60.823 34.6525C60.8538 34.6535 60.8845 34.6472 60.9126 34.6343C60.9406 34.6214 60.9653 34.6021 60.9846 34.5779C61.0039 34.5538 61.0173 34.5255 61.0238 34.4953C61.0302 34.4651 61.0296 34.4338 61.0218 34.4039C60.8926 33.9962 60.4352 33.7974 60.107 33.5587C59.6997 33.2319 59.2637 32.9424 58.8045 32.6936C58.7803 32.6754 58.7528 32.662 58.7235 32.6544C58.6942 32.6467 58.6636 32.6449 58.6336 32.6491C58.6036 32.6532 58.5747 32.6633 58.5486 32.6786C58.5224 32.6939 58.4996 32.7142 58.4813 32.7384C58.463 32.7625 58.4497 32.7901 58.442 32.8194C58.4344 32.8487 58.4326 32.8792 58.4368 32.9092C58.4409 32.9392 58.4509 32.9681 58.4663 32.9943C58.4816 33.0204 58.5019 33.0433 58.5261 33.0616Z" fill="#35208A"/>
<path d="M38.5106 18.6934C37.8678 19.492 37.3965 20.4145 37.1262 21.4033C36.8559 22.3922 36.7924 23.4262 36.9396 24.4407C36.9539 24.4876 36.9829 24.5286 37.0223 24.5578C37.0616 24.5869 37.1093 24.6027 37.1584 24.6027C37.2074 24.6027 37.2551 24.5869 37.2945 24.5578C37.3338 24.5286 37.3628 24.4876 37.3771 24.4407C37.576 23.4463 37.5362 22.5117 37.7649 21.5472C37.9936 20.5827 38.4609 19.7275 38.6697 18.7829C38.6816 18.7618 38.6846 18.7369 38.6781 18.7136C38.6716 18.6903 38.656 18.6705 38.6349 18.6586C38.6138 18.6468 38.5889 18.6438 38.5656 18.6503C38.5423 18.6568 38.5225 18.6723 38.5106 18.6934Z" fill="#35208A"/>
<path d="M41.0661 18.4449C40.5921 19.0284 40.2476 19.7061 40.0556 20.433C39.8636 21.1599 39.8285 21.9193 39.9525 22.6609C39.9634 22.7121 39.9915 22.7581 40.0323 22.7911C40.073 22.8241 40.1238 22.8421 40.1762 22.8421C40.2286 22.8421 40.2795 22.8241 40.3202 22.7911C40.3609 22.7581 40.3891 22.7121 40.3999 22.6609C40.559 21.9847 40.5193 21.2787 40.6982 20.6026C40.8772 19.9264 41.1954 19.31 41.4142 18.6139C41.4247 18.57 41.4206 18.5239 41.4027 18.4824C41.3848 18.441 41.3539 18.4065 41.3147 18.3841C41.2755 18.3617 41.2301 18.3526 41.1853 18.3582C41.1404 18.3638 41.0987 18.3837 41.0661 18.4151V18.4449Z" fill="#35208A"/>
<path d="M45.0529 17.4903H44.9535C44.9092 17.4921 44.866 17.5049 44.8279 17.5274C44.7897 17.55 44.7577 17.5816 44.7347 17.6196C44.4576 18.1136 44.2565 18.6466 44.1381 19.2005C43.9589 19.6906 43.921 20.2212 44.0288 20.7318C44.0403 20.7704 44.0628 20.8048 44.0934 20.831C44.1241 20.8571 44.1617 20.8738 44.2016 20.879C44.2415 20.8843 44.2821 20.8779 44.3185 20.8606C44.3549 20.8433 44.3855 20.8158 44.4066 20.7815C44.5763 20.3195 44.6898 19.8388 44.7447 19.3497C44.864 18.8227 45.0629 18.3554 45.2319 17.7985C45.2459 17.7564 45.2467 17.711 45.2343 17.6684C45.2219 17.6257 45.1968 17.5879 45.1623 17.5599C45.146 17.5271 45.1174 17.5021 45.0828 17.4903H45.0529Z" fill="#35208A"/>
<path d="M48.7228 16.4861C48.24 16.8661 47.8402 17.341 47.5478 17.8813C47.2554 18.4217 47.0766 19.0161 47.0225 19.6282C47.0225 19.9463 47.4799 19.9861 47.5693 19.6978C47.6995 19.1464 47.8861 18.61 48.1262 18.0969C48.3847 17.6295 48.7327 17.2318 49.031 16.7943C49.1503 16.6153 48.9017 16.3667 48.7228 16.4861Z" fill="#35208A"/>
<path d="M51.1384 17.2317C50.7974 17.6669 50.5349 18.1581 50.3628 18.6835C50.2236 19.111 49.9651 19.7673 50.2236 20.175C50.2423 20.1978 50.2658 20.2163 50.2924 20.2289C50.3191 20.2416 50.3482 20.2482 50.3777 20.2482C50.4072 20.2482 50.4364 20.2416 50.463 20.2289C50.4897 20.2163 50.5132 20.1978 50.5318 20.175C50.8202 19.8767 50.7804 19.3795 50.8898 18.9818C51.0575 18.4685 51.274 17.9723 51.5361 17.5002C51.6554 17.2715 51.3273 16.9732 51.1384 17.2019V17.2317Z" fill="#35208A"/>
<path d="M53.7538 18.1465C53.3866 18.359 53.0906 18.6754 52.903 19.0558C52.7155 19.4363 52.6448 19.8638 52.6998 20.2844C52.7119 20.3251 52.7356 20.3615 52.768 20.389C52.8005 20.4165 52.8402 20.434 52.8824 20.4393C52.9246 20.4446 52.9675 20.4374 53.0057 20.4187C53.0439 20.4 53.0758 20.3706 53.0975 20.3341C53.2566 20.0159 53.2765 19.638 53.4157 19.3397C53.5854 19.0212 53.7782 18.7154 53.9924 18.425C54.0919 18.2659 53.893 18.0968 53.7439 18.1764L53.7538 18.1465Z" fill="#35208A"/>
<path d="M55.5239 18.952C55.1409 19.3134 54.8422 19.7548 54.6489 20.2446C54.6172 20.3 54.6089 20.3657 54.6257 20.4272C54.6424 20.4887 54.683 20.5411 54.7384 20.5727C54.7937 20.6044 54.8594 20.6127 54.921 20.5959C54.9825 20.5792 55.0349 20.5386 55.0665 20.4832C55.3733 20.0563 55.5836 19.5677 55.683 19.0514C55.6845 19.0311 55.6802 19.0107 55.6707 18.9926C55.6613 18.9746 55.6469 18.9595 55.6294 18.9492C55.6118 18.9388 55.5916 18.9336 55.5712 18.9341C55.5509 18.9346 55.531 18.9408 55.5139 18.952H55.5239Z" fill="#35208A"/>
<path d="M56.8558 19.9861C56.691 20.1694 56.5506 20.3733 56.4382 20.5926C56.2812 20.7803 56.1903 21.0144 56.1797 21.2588C56.1813 21.2872 56.1901 21.3147 56.2051 21.3387C56.2202 21.3628 56.2411 21.3827 56.2658 21.3965C56.2906 21.4104 56.3185 21.4178 56.3469 21.4181C56.3753 21.4183 56.4032 21.4115 56.4283 21.3981C56.6257 21.2383 56.7654 21.0182 56.826 20.7716C56.9394 20.5526 57.0198 20.3181 57.0646 20.0756C57.0646 19.9662 56.9254 19.9165 56.8558 19.9861Z" fill="#35208A"/>
<path d="M34.9512 31.063C35.1652 30.6154 35.5025 30.2382 35.9234 29.9757C36.3444 29.7133 36.8316 29.5765 37.3277 29.5814C37.8138 29.653 38.2716 29.8542 38.6531 30.1639C39.0345 30.4736 39.3255 30.8803 39.4953 31.3414C39.6445 31.6297 40.0223 31.4209 39.9825 31.1425C39.5053 28.3783 35.339 28.3385 34.4839 30.8641C34.3844 31.1425 34.8021 31.3016 34.9512 31.063Z" fill="#35208A"/>
<path d="M39.7733 31.8187C40.5588 31.5999 41.1952 30.9934 42.0603 31.4309C42.9254 31.8684 42.9254 32.9025 42.7265 33.7675C42.7167 33.8207 42.7238 33.8755 42.7468 33.9244C42.7698 33.9733 42.8076 34.0138 42.8547 34.0401C42.9019 34.0664 42.9562 34.0773 43.0098 34.0712C43.0635 34.0652 43.114 34.0424 43.1541 34.0062C43.9893 33.1212 43.4126 31.4905 42.4481 30.9436C41.6626 30.4962 39.7137 30.5757 39.7335 31.7888L39.7733 31.8187Z" fill="#35208A"/>
<path d="M38.7789 26.5387C39.6738 25.8825 40.4892 25.0969 41.6923 25.1367C42.0138 25.1531 42.3272 25.2432 42.6082 25.4001C42.8893 25.557 43.1305 25.7765 43.3131 26.0415C43.5799 26.5298 43.6745 27.0938 43.5816 27.6424C43.5823 27.6926 43.5996 27.7411 43.6307 27.7805C43.6618 27.8199 43.7049 27.848 43.7536 27.8605C43.8022 27.8729 43.8535 27.869 43.8997 27.8494C43.9459 27.8297 43.9844 27.7954 44.0091 27.7518C44.7847 26.668 43.6412 25.1665 42.6071 24.7688C41.8608 24.5407 41.0579 24.5843 40.3407 24.8919C39.6235 25.1995 39.0385 25.7513 38.6895 26.4492C38.6895 26.4492 38.6895 26.5785 38.7789 26.5387Z" fill="#35208A"/>
<path d="M43.4925 28.0004C43.8742 27.7363 44.331 27.6024 44.7949 27.6185C45.2589 27.6346 45.7053 27.7999 46.0678 28.0899C46.2242 28.2553 46.3455 28.4507 46.4241 28.6644C46.5027 28.8781 46.5371 29.1055 46.5252 29.3328C46.5252 29.7902 46.2468 30.0985 46.1573 30.526C46.1447 30.5702 46.1457 30.6171 46.1601 30.6607C46.1746 30.7043 46.2018 30.7425 46.2383 30.7704C46.2748 30.7983 46.3188 30.8146 46.3646 30.8171C46.4105 30.8196 46.456 30.8083 46.4953 30.7845C47.0323 30.536 47.1715 29.7107 47.1417 29.1737C47.1119 28.5866 46.8552 28.034 46.4257 27.6325C46.2057 27.4416 45.9502 27.2959 45.6738 27.2038C45.3974 27.1116 45.1055 27.0749 44.8149 27.0956C44.5194 27.1137 44.2311 27.1951 43.9697 27.3342C43.6913 27.4834 43.6018 27.6922 43.4229 27.9408C43.4229 27.9408 43.4229 28.0302 43.4925 28.0004Z" fill="#35208A"/>
<path d="M46.396 31.0729C47.092 30.9536 47.8974 30.6354 48.3846 31.3414C48.4888 31.4957 48.5564 31.6717 48.5823 31.8561C48.6081 32.0405 48.5915 32.2283 48.5338 32.4053C48.4144 32.7732 48.1261 32.9522 47.9173 33.2505C47.894 33.2887 47.8815 33.3324 47.881 33.3771C47.8805 33.4217 47.892 33.4657 47.9144 33.5044C47.9368 33.5431 47.9692 33.575 48.0082 33.5968C48.0472 33.6186 48.0914 33.6295 48.136 33.6283C49.2696 33.4891 49.4287 31.7292 48.852 30.9834C48.2752 30.2377 46.555 29.8897 46.3164 30.9834V31.0331L46.396 31.0729Z" fill="#35208A"/>
<path d="M46.7336 22.9193C47.1055 22.8881 47.4745 22.8282 47.8373 22.7404C48.2849 22.6937 48.7355 22.795 49.12 23.0287C49.2898 23.1377 49.4355 23.2803 49.5482 23.4476C49.661 23.615 49.7383 23.8036 49.7756 24.0019C49.8128 24.2002 49.8091 24.404 49.7648 24.6009C49.7205 24.7977 49.6364 24.9834 49.5177 25.1466C49.2592 25.4549 49.6967 25.8924 49.9552 25.5841C50.2865 25.1751 50.4467 24.6537 50.4022 24.1291C50.3577 23.6046 50.112 23.1177 49.7166 22.7702C49.2614 22.3869 48.6807 22.1851 48.0859 22.2034C47.6186 22.2034 46.8827 22.3227 46.6342 22.7602C46.6259 22.7763 46.6217 22.7942 46.6221 22.8123C46.6224 22.8304 46.6272 22.8481 46.6361 22.8639C46.645 22.8796 46.6576 22.8929 46.6729 22.9026C46.6882 22.9123 46.7056 22.918 46.7237 22.9193H46.7336Z" fill="#35208A"/>
<path d="M49.6474 25.6637C50.3932 25.6637 51.2284 25.5245 51.7952 26.1509C52.0266 26.4097 52.1479 26.7486 52.1332 27.0955C52.0842 27.3878 51.9796 27.668 51.825 27.9208C51.7355 28.1495 52.0338 28.3086 52.2227 28.2191C53.048 27.7916 52.7994 26.4492 52.3122 25.8626C51.9788 25.4837 51.5261 25.2299 51.0289 25.1431C50.5318 25.0564 50.0199 25.1418 49.5778 25.3853C49.5496 25.4015 49.5275 25.4264 49.5148 25.4562C49.5021 25.4861 49.4995 25.5193 49.5074 25.5508C49.5153 25.5823 49.5332 25.6104 49.5585 25.6307C49.5837 25.6511 49.615 25.6627 49.6474 25.6637Z" fill="#35208A"/>
<path d="M52.3418 28.4379C52.6407 28.3741 52.9525 28.4142 53.2255 28.5516C53.4985 28.689 53.7164 28.9155 53.8433 29.1936C53.8881 29.347 53.9014 29.508 53.8824 29.6667C53.8633 29.8254 53.8123 29.9787 53.7324 30.1171C53.6524 30.2556 53.5453 30.3764 53.4174 30.4723C53.2895 30.5682 53.1435 30.6372 52.9881 30.6751C52.9203 30.7054 52.8656 30.7592 52.8343 30.8266C52.8029 30.8941 52.797 30.9705 52.8176 31.042C52.8381 31.1134 52.8839 31.175 52.9463 31.2154C53.0087 31.2558 53.0836 31.2723 53.1572 31.2618C53.3869 31.2042 53.6026 31.1011 53.7917 30.9586C53.9809 30.816 54.1394 30.637 54.2581 30.4321C54.3768 30.2272 54.4532 30.0006 54.4827 29.7656C54.5122 29.5307 54.4942 29.2922 54.4299 29.0643C54.3538 28.8527 54.2359 28.6585 54.0833 28.4932C53.9307 28.328 53.7464 28.195 53.5415 28.1023C53.3366 28.0096 53.1151 27.9589 52.8903 27.9534C52.6654 27.9478 52.4417 27.9875 52.2324 28.07C52.1953 28.0958 52.1671 28.1326 52.1517 28.1751C52.1363 28.2176 52.1345 28.2639 52.1465 28.3075C52.1585 28.3511 52.1837 28.39 52.2187 28.4187C52.2537 28.4474 52.2967 28.4645 52.3418 28.4677V28.4379Z" fill="#35208A"/>
<path d="M54.5196 22.7404C55.2753 22.9293 56.2099 22.8994 56.7469 23.5756C56.8535 23.7003 56.9321 23.8465 56.9773 24.0042C57.0224 24.162 57.0331 24.3276 57.0086 24.4898C56.984 24.6521 56.9249 24.8071 56.8351 24.9445C56.7454 25.0818 56.6271 25.1983 56.4883 25.2858C56.457 25.2989 56.4285 25.318 56.4046 25.3421C56.3806 25.3661 56.3616 25.3947 56.3487 25.426C56.3358 25.4574 56.3292 25.4911 56.3292 25.525C56.3293 25.559 56.3361 25.5926 56.3491 25.6239C56.3622 25.6553 56.3813 25.6837 56.4053 25.7077C56.4294 25.7316 56.4579 25.7506 56.4893 25.7635C56.5207 25.7765 56.5544 25.7831 56.5883 25.783C56.6223 25.7829 56.6559 25.7762 56.6872 25.7631C57.6815 25.5841 57.8108 24.3512 57.4528 23.5955C57.1433 23.1088 56.6893 22.7311 56.1544 22.5154C55.6194 22.2996 55.0304 22.2566 54.4698 22.3923C54.4356 22.4068 54.4065 22.431 54.3859 22.462C54.3654 22.4929 54.3545 22.5292 54.3545 22.5663C54.3545 22.6035 54.3654 22.6398 54.3859 22.6707C54.4065 22.7017 54.4356 22.7259 54.4698 22.7404H54.5196Z" fill="#35208A"/>
<path d="M56.6172 25.783C56.7067 25.9521 56.8062 25.9421 56.9851 26.0018C57.3543 26.0964 57.6761 26.3227 57.89 26.6382C58.0663 26.9381 58.1164 27.2957 58.0292 27.6325C57.8987 27.9366 57.7317 28.2238 57.532 28.4876C57.4326 28.6765 57.6016 28.9351 57.8104 28.8655C58.8048 28.5274 58.8744 27.0359 58.3275 26.3001C58.0457 25.9164 57.6242 25.6592 57.1542 25.5842C57.1542 25.5842 56.488 25.5842 56.6172 25.793V25.783Z" fill="#35208A"/>
<path d="M57.6713 28.955C57.8746 29.0174 58.0464 29.155 58.1518 29.3398C58.2571 29.5246 58.2879 29.7425 58.2381 29.9493C58.0591 30.4266 57.6216 30.347 57.2437 30.4465C57.1937 30.4624 57.1493 30.4921 57.1154 30.5322C57.0816 30.5723 57.0598 30.6212 57.0525 30.6731C57.0452 30.7251 57.0528 30.7781 57.0743 30.8259C57.0958 30.8738 57.1304 30.9146 57.1741 30.9436C57.8006 31.3911 58.7253 30.6254 58.8645 30.0089C58.894 29.8301 58.8859 29.6471 58.8406 29.4716C58.7953 29.2961 58.714 29.132 58.6017 28.9897C58.4894 28.8475 58.3486 28.7302 58.1884 28.6455C58.0282 28.5607 57.8521 28.5104 57.6713 28.4976C57.3929 28.4976 57.3829 28.8655 57.6116 28.955H57.6713Z" fill="#35208A"/>
<path d="M61.0518 25.614C61.6404 25.794 62.1997 26.0586 62.7123 26.3995C62.9559 26.5852 63.1223 26.8543 63.1796 27.1552C63.1981 27.2502 63.1927 27.3482 63.1641 27.4407C63.1355 27.5331 63.0845 27.617 63.0156 27.6849C62.9467 27.7528 62.862 27.8026 62.7692 27.8299C62.6764 27.8572 62.5783 27.8611 62.4836 27.8413C62.42 27.8406 62.3581 27.861 62.3073 27.8992C62.2565 27.9373 62.2197 27.9912 62.2027 28.0525C62.1857 28.1137 62.1894 28.1788 62.2132 28.2377C62.237 28.2967 62.2797 28.3461 62.3344 28.3783C63.3288 28.7959 64.0248 27.6524 63.6967 26.8171C63.4666 26.3362 63.0886 25.9416 62.618 25.6911C62.1474 25.4406 61.609 25.3474 61.0816 25.4251C61.0651 25.4347 61.0514 25.4485 61.0419 25.4651C61.0324 25.4817 61.0273 25.5004 61.0273 25.5195C61.0273 25.5387 61.0324 25.5574 61.0419 25.574C61.0514 25.5906 61.0651 25.6044 61.0816 25.614H61.0518Z" fill="#35208A"/>
<path d="M62.2853 28.597C63.0112 28.597 63.1106 29.6609 62.5041 29.9493C62.2144 30.0692 61.889 30.0692 61.5992 29.9493C61.3507 29.8598 61.0623 29.8499 61.0424 30.1879C61.0395 30.2422 61.0519 30.2962 61.0783 30.3437C61.1047 30.3912 61.1439 30.4302 61.1916 30.4564C61.3797 30.5684 61.5885 30.6411 61.8055 30.6701C62.0224 30.6992 62.243 30.6839 62.454 30.6254C62.6649 30.5669 62.8618 30.4662 63.0327 30.3295C63.2037 30.1928 63.3452 30.0229 63.4487 29.83C63.5232 29.6368 63.5505 29.4286 63.5284 29.2227C63.5063 29.0168 63.4355 28.8192 63.3217 28.6461C63.208 28.4731 63.0547 28.3297 62.8744 28.2277C62.6942 28.1258 62.4922 28.0683 62.2853 28.0601C62.2115 28.0601 62.1407 28.0894 62.0885 28.1416C62.0363 28.1938 62.0069 28.2646 62.0069 28.3385C62.0069 28.4123 62.0363 28.4831 62.0885 28.5353C62.1407 28.5876 62.2115 28.6169 62.2853 28.6169V28.597Z" fill="#35208A"/>
<path d="M38.4509 66.0635L38.5106 66.143L41.0262 69.3249C41.0706 69.37 41.1265 69.4022 41.1878 69.418C41.2491 69.4338 41.3136 69.4325 41.3743 69.4144L46.7337 67.8831C46.812 67.8565 46.8786 67.8037 46.9224 67.7336C46.9661 67.6635 46.9843 67.5804 46.9737 67.4985C46.9632 67.4165 46.9246 67.3407 46.8646 67.2839C46.8045 67.2272 46.7266 67.193 46.6442 67.1871C45.1129 67.1871 44.4766 65.7652 43.2734 65.1288C42.4956 64.7523 41.6209 64.6238 40.7677 64.7609C40.1811 64.8106 37.7847 64.9598 38.4509 66.0635Z" fill="#FA8D61"/>
<path d="M42.0106 80.1432C42.6621 80.2881 43.2709 80.5827 43.7887 81.0039C44.3065 81.425 44.7191 81.961 44.9936 82.5694C45.0293 82.6655 45.0976 82.7461 45.1867 82.797C45.2758 82.8479 45.3799 82.8659 45.4808 82.8478H45.5803C46.3543 82.6066 47.1922 82.6801 47.9125 83.0523C48.6327 83.4245 49.1773 84.0655 49.4283 84.8365C49.4516 84.918 49.4933 84.9931 49.55 85.056C49.6068 85.119 49.6771 85.1682 49.7558 85.1998C49.8344 85.2315 49.9193 85.2448 50.0038 85.2387C50.0884 85.2325 50.1704 85.2072 50.2437 85.1646C51.9738 83.9714 54.9469 82.0921 56.6671 84.3791C56.7159 84.4683 56.7878 84.5427 56.8753 84.5945C56.9627 84.6463 57.0626 84.6737 57.1642 84.6737C57.2659 84.6737 57.3657 84.6463 57.4532 84.5945C57.5407 84.5427 57.6126 84.4683 57.6614 84.3791C58.0467 83.6802 58.5515 83.0542 59.1529 82.5296C59.9384 81.9429 61.4399 81.6248 61.8475 82.9174C61.8748 83.0096 61.9255 83.0932 61.9947 83.16C62.0639 83.2268 62.1492 83.2745 62.2423 83.2985C62.3354 83.3226 62.4332 83.3221 62.5261 83.2971C62.6189 83.2721 62.7038 83.2235 62.7723 83.156C64.0826 81.595 65.0052 79.7463 65.4649 77.7608C65.9245 75.7753 65.9082 73.7092 65.4172 71.7312C65.3755 71.5923 65.2821 71.4747 65.1564 71.4026C65.0306 71.3304 64.882 71.3093 64.741 71.3434L43.5817 74.913C43.4886 74.9378 43.4037 74.9867 43.3356 75.0548C43.2675 75.1229 43.2186 75.2078 43.1939 75.3008C42.8076 76.6683 42.3019 77.9992 41.6825 79.2781C41.6319 79.3533 41.6001 79.4395 41.5897 79.5296C41.5793 79.6196 41.5906 79.7108 41.6228 79.7955C41.6549 79.8803 41.7069 79.9561 41.7744 80.0166C41.8419 80.0771 41.9229 80.1205 42.0106 80.1432Z" fill="#FA8D61"/>
<path d="M24.1921 64.7907C25.9017 66.6424 28.0003 68.0924 30.3371 69.0365C30.8653 69.1486 31.3451 69.4233 31.7093 69.822C32.0473 70.2396 32.3357 70.697 32.7036 71.1147C33.6961 72.3728 34.8083 73.5317 36.0247 74.5749C38.2948 76.4406 40.9224 77.8224 43.746 78.6356C46.5697 79.4488 49.5297 79.6761 52.4444 79.3036C55.3591 78.9311 58.1669 77.9667 60.6953 76.4696C63.2237 74.9724 65.4193 72.9742 67.1473 70.5976C68.9412 68.167 70.288 65.4364 71.1246 62.5336C71.4977 61.0061 71.7372 59.4491 71.8405 57.8801C71.9201 56.9454 71.8405 55.5534 72.467 54.7778C73.3121 53.7834 74.923 54.1016 75.8676 53.2266C76.2094 52.8865 76.416 52.4338 76.4489 51.9527C76.4818 51.4717 76.3388 50.995 76.0466 50.6115C74.396 48.0959 69.9115 48.9311 67.4754 49.9155C67.6146 48.3643 70.8363 47.728 70.1203 45.7393C69.5734 44.2577 67.197 45.4012 66.2325 45.6498C64.384 46.0125 62.6284 46.7465 61.0719 47.8075C59.3676 49.1833 58.0771 51.0038 57.3432 53.0675C56.5378 55.1457 56.4483 57.373 55.7423 59.4611C55.0521 61.3655 53.8048 63.0181 52.1627 64.204C48.7658 66.5703 44.7184 67.8244 40.5787 67.7936C39.4521 67.8284 38.3245 67.7685 37.2079 67.6146C36.7584 67.6051 36.3182 67.4849 35.9262 67.2646C35.5342 67.0443 35.2026 66.7308 34.9607 66.3518C34.7367 65.5945 34.6524 64.8026 34.7122 64.0151C34.5239 61.4705 33.5669 59.0432 31.9678 57.0548C31.9391 57.0244 31.9037 57.0011 31.8644 56.9868C31.8252 56.9725 31.7831 56.9676 31.7415 56.9724C31.7 56.9772 31.6602 56.9917 31.6253 57.0146C31.5903 57.0376 31.5612 57.0683 31.5402 57.1045L30.5459 58.954C30.3375 58.7661 30.0792 58.6427 29.8022 58.5986C29.5251 58.5545 29.2412 58.5916 28.9848 58.7054C27.9905 59.0435 27.5828 59.9284 27.0558 60.7835C26.8221 61.1698 26.4984 61.4936 26.1122 61.7274C25.726 61.9612 25.289 62.0979 24.8384 62.1259C24.4629 62.162 24.1115 62.3271 23.8441 62.5932C23.1878 63.3191 23.7347 64.1941 24.1921 64.7907Z" fill="#96CBEB"/>
<path d="M57.4822 60.4952C58.6654 62.6429 61.0717 63.6373 63.3686 63.9555C66.9979 64.4129 69.8218 62.5932 71.6713 59.8787C71.7608 59.2324 71.8204 58.5761 71.8801 57.89C71.9597 56.9554 71.8801 55.5633 72.5065 54.7877C73.3517 53.7934 74.9625 54.1116 75.9071 53.2366C76.2489 52.8964 76.4555 52.4437 76.4885 51.9627C76.5214 51.4816 76.3784 51.005 76.0861 50.6215C74.4355 48.1058 69.9511 48.941 67.515 49.9254C67.6144 48.3643 70.8361 47.728 70.1201 45.7393C69.5732 44.2577 67.1968 45.4012 66.2323 45.6498C64.3838 46.0125 62.6282 46.7465 61.0717 47.8075C59.3674 49.1833 58.0769 51.0038 57.343 53.0675C56.8998 54.3391 56.5672 55.6465 56.3486 56.9752C56.4614 58.218 56.8485 59.4202 57.4822 60.4952Z" fill="white"/>
<path d="M67.4457 53.694C67.8134 53.6862 68.175 53.7876 68.4851 53.9853C68.7951 54.1831 69.0395 54.4683 69.1874 54.805C69.3353 55.1417 69.3801 55.5146 69.3161 55.8767C69.252 56.2388 69.0821 56.5738 68.8277 56.8393C68.5733 57.1048 68.2459 57.289 67.8868 57.3684C67.5278 57.4479 67.1533 57.4191 66.8106 57.2857C66.4679 57.1523 66.1725 56.9203 65.9617 56.6191C65.7508 56.3178 65.634 55.9608 65.6261 55.5931C65.6206 55.1015 65.8081 54.6272 66.1483 54.2722C66.4885 53.9171 66.9543 53.7095 67.4457 53.694Z" fill="#35208A"/>
<path d="M61.5592 51.8843C62.1491 51.8843 62.7259 52.0592 63.2164 52.387C63.707 52.7148 64.0893 53.1807 64.3151 53.7257C64.5409 54.2708 64.5999 54.8706 64.4848 55.4492C64.3697 56.0279 64.0856 56.5594 63.6685 56.9766C63.2513 57.3937 62.7198 57.6779 62.1411 57.793C61.5625 57.9081 60.9627 57.849 60.4176 57.6232C59.8726 57.3974 59.4067 57.0151 59.0789 56.5245C58.7511 56.034 58.5762 55.4573 58.5762 54.8673C58.5762 54.0761 58.8905 53.3174 59.4499 52.758C60.0093 52.1986 60.768 51.8843 61.5592 51.8843Z" fill="#96CBEB"/>
<path d="M51.874 63.6373C52.3513 64.3035 53.0374 65.9242 54.0416 65.8845C55.0459 65.8447 56.1894 64.3631 56.6766 63.6373C57.5417 62.4341 58.6653 59.4412 57.134 58.3474C55.732 57.3531 54.9664 59.7295 54.3399 60.525C53.7135 61.3205 52.6894 60.8134 51.8342 61.3404C50.9791 61.8674 51.4564 62.981 51.874 63.6373Z" fill="#FA8D61"/>
<path d="M33.0718 65.2083C32.7093 62.9849 32.0119 60.8293 31.0036 58.8148C30.8942 58.596 30.4567 58.8943 30.6059 59.3318C30.755 59.7693 32.4653 64.7609 32.7238 65.2978C32.8033 65.4768 33.0619 65.3773 33.0718 65.1984V65.2083Z" fill="#35208A"/>
<path d="M31.5104 65.6756C31.3214 64.8503 30.1183 64.1941 29.5217 63.687C28.7807 62.9041 27.9867 62.1732 27.1453 61.4994C26.9364 61.3503 26.658 61.6386 26.7972 61.8475C27.4957 62.7415 28.308 63.5404 29.2135 64.2239C29.8001 64.741 30.6354 65.7751 31.4607 65.785C31.4607 65.785 31.5203 65.785 31.5203 65.7154L31.5104 65.6756Z" fill="#35208A"/>
<path d="M56.2891 60.6543C55.772 61.0819 55.5632 61.9171 55.1754 62.464C54.6504 63.2089 54.0013 63.858 53.2564 64.383C52.9581 64.6117 53.2564 65.1089 53.5547 64.8901C54.3271 64.3467 54.9999 63.6739 55.5433 62.9015C55.951 62.3248 56.6172 61.3901 56.4382 60.6443C56.4382 60.6443 56.3786 60.6443 56.3388 60.6443L56.2891 60.6543Z" fill="#35208A"/>
<path d="M55.3247 60.525C54.8105 60.8877 54.3282 61.2936 53.8829 61.7381C53.3261 62.1557 52.6798 62.4143 52.1428 62.8219C52.0929 62.8555 52.0562 62.9053 52.039 62.963C52.0219 63.0207 52.0254 63.0825 52.049 63.1379C52.0725 63.1932 52.1146 63.2386 52.1681 63.2663C52.2215 63.2939 52.2829 63.302 52.3417 63.2893C53.0108 63.0515 53.6259 62.683 54.1514 62.2055C54.7414 61.82 55.2184 61.2847 55.5335 60.6543C55.5399 60.627 55.5385 60.5984 55.5294 60.5719C55.5203 60.5453 55.504 60.5219 55.4822 60.5042C55.4603 60.4866 55.434 60.4754 55.4062 60.4721C55.3783 60.4687 55.3501 60.4733 55.3247 60.4853V60.525Z" fill="#35208A"/>
<path d="M42.8752 66.6203C42.7419 66.2244 42.4924 65.8779 42.1593 65.6259C41.8939 65.3505 41.5438 65.1719 41.165 65.1188C41.1205 65.1198 41.0773 65.1338 41.0406 65.159C41.0039 65.1842 40.9754 65.2195 40.9585 65.2607C40.9416 65.3018 40.9371 65.347 40.9455 65.3907C40.9539 65.4344 40.9749 65.4747 41.0059 65.5066C41.2635 65.7212 41.5359 65.9172 41.8212 66.0933C42.0797 66.312 42.2687 66.6004 42.5371 66.8191C42.5749 66.851 42.6217 66.8703 42.6709 66.8744C42.7202 66.8785 42.7695 66.8672 42.812 66.8421C42.8546 66.817 42.8883 66.7793 42.9085 66.7342C42.9287 66.6892 42.9345 66.6389 42.9249 66.5905L42.8752 66.6203Z" fill="#35208A"/>
<path d="M41.4735 66.9385C41.1245 66.5924 40.7414 66.2825 40.33 66.0137C39.9919 65.7651 39.6041 65.3376 39.1766 65.3376C39.1452 65.3382 39.1145 65.3458 39.0865 65.3599C39.0585 65.374 39.0341 65.3942 39.015 65.419C38.9959 65.4439 38.9826 65.4727 38.9762 65.5033C38.9697 65.534 38.9702 65.5657 38.9777 65.5961C39.107 65.9938 39.5643 66.2027 39.8925 66.4413C40.2948 66.7702 40.7276 67.0599 41.1851 67.3064C41.4237 67.4058 41.6624 67.1373 41.4735 66.9385Z" fill="#35208A"/>
<path d="M61.489 81.3066C62.1309 80.5097 62.6009 79.5886 62.8696 78.6012C63.1383 77.6138 63.1997 76.5816 63.0501 75.5693C63.031 75.5317 63.0018 75.5001 62.9659 75.478C62.9299 75.456 62.8885 75.4443 62.8463 75.4443C62.8041 75.4443 62.7627 75.456 62.7267 75.478C62.6908 75.5001 62.6616 75.5317 62.6425 75.5693C62.4535 76.5636 62.4834 77.4983 62.2547 78.4628C62.026 79.4273 61.5686 80.2824 61.3498 81.227C61.3453 81.2482 61.3479 81.2702 61.357 81.2898C61.3662 81.3094 61.3815 81.3255 61.4006 81.3356C61.4197 81.3457 61.4416 81.3493 61.4629 81.3459C61.4843 81.3424 61.5039 81.3321 61.5189 81.3165L61.489 81.3066Z" fill="#35208A"/>
<path d="M58.9245 81.5352C59.3997 80.9522 59.7456 80.2748 59.9393 79.548C60.133 78.8212 60.1701 78.0615 60.0481 77.3193C60.0334 77.27 60.0032 77.2268 59.962 77.1961C59.9208 77.1654 59.8708 77.1488 59.8194 77.1488C59.768 77.1488 59.718 77.1654 59.6768 77.1961C59.6356 77.2268 59.6054 77.27 59.5907 77.3193C59.4416 77.9954 59.4714 78.6915 59.3023 79.3775C59.1333 80.0636 58.7952 80.6702 58.5864 81.3662C58.5787 81.4083 58.5841 81.4518 58.6019 81.4907C58.6197 81.5296 58.6491 81.5621 58.6859 81.5838C58.7228 81.6055 58.7655 81.6154 58.8082 81.612C58.8508 81.6087 58.8915 81.5923 58.9245 81.5651V81.5352Z" fill="#35208A"/>
<path d="M54.9467 82.5296H55.0362C55.0801 82.5318 55.1238 82.5218 55.1624 82.5008C55.201 82.4797 55.233 82.4484 55.255 82.4103C55.5353 81.9167 55.7398 81.3837 55.8615 80.8293C56.0357 80.3381 56.0735 79.8089 55.9709 79.298C55.9524 79.2626 55.9245 79.2329 55.8903 79.2122C55.8562 79.1915 55.817 79.1805 55.777 79.1805C55.737 79.1805 55.6978 79.1915 55.6636 79.2122C55.6295 79.2329 55.6016 79.2626 55.5831 79.298C55.4276 79.7585 55.3275 80.2358 55.2848 80.7199C55.1655 81.2469 54.9666 81.7142 54.7976 82.2611C54.7841 82.3041 54.7825 82.3499 54.793 82.3937C54.8035 82.4375 54.8257 82.4776 54.8572 82.5097C54.8572 82.5097 54.8572 82.5694 54.9467 82.5694V82.5296Z" fill="#35208A"/>
<path d="M51.3078 83.5239C51.7876 83.1434 52.1856 82.6698 52.4778 82.1315C52.77 81.5933 52.9504 81.0015 53.0081 80.3918C53.0081 80.0736 52.5507 80.0239 52.4612 80.3222C52.3305 80.8747 52.1405 81.4114 51.8944 81.9231C51.6202 82.3733 51.3215 82.8082 50.9995 83.2256C50.9722 83.2682 50.9605 83.3188 50.9663 83.3691C50.9721 83.4193 50.9952 83.4659 51.0315 83.5011C51.0678 83.5362 51.1152 83.5577 51.1655 83.5619C51.2159 83.566 51.2662 83.5526 51.3078 83.5239Z" fill="#35208A"/>
<path d="M48.8617 82.7682C49.2047 82.3308 49.4673 81.8358 49.6373 81.3065C49.7765 80.8889 50.035 80.2327 49.7665 79.825C49.7489 79.8023 49.7262 79.7839 49.7004 79.7712C49.6745 79.7586 49.6462 79.752 49.6174 79.752C49.5886 79.752 49.5602 79.7586 49.5344 79.7712C49.5085 79.7839 49.4859 79.8023 49.4682 79.825C49.1799 80.1332 49.2196 80.6204 49.1003 81.0182C48.9398 81.5326 48.7265 82.0291 48.464 82.4997C48.3446 82.7384 48.6728 83.0367 48.8617 82.808V82.7682Z" fill="#35208A"/>
<path d="M46.2468 81.8535C46.6029 81.6329 46.8868 81.313 47.0635 80.9332C47.2402 80.5533 47.3019 80.1301 47.2411 79.7156C47.2236 79.6776 47.1956 79.6453 47.1604 79.6227C47.1251 79.6 47.0841 79.588 47.0422 79.588C47.0003 79.588 46.9593 79.6 46.9241 79.6227C46.8888 79.6453 46.8608 79.6776 46.8434 79.7156C46.6843 80.0338 46.6743 80.4017 46.5252 80.71C46.3613 81.0329 46.1717 81.3421 45.9584 81.6347C45.859 81.7938 46.0578 81.9628 46.207 81.8833L46.2468 81.8535Z" fill="#35208A"/>
<path d="M44.4663 81.0381C44.8509 80.6799 45.1529 80.2422 45.3512 79.7554C45.3842 79.7 45.3938 79.6338 45.378 79.5714C45.3621 79.5089 45.3221 79.4553 45.2667 79.4223C45.2113 79.3893 45.1451 79.3797 45.0827 79.3956C45.0202 79.4114 44.9666 79.4515 44.9336 79.5068C44.6247 79.9374 44.4112 80.429 44.3072 80.9486C44.3052 80.9679 44.3088 80.9874 44.3177 81.0046C44.3267 81.0219 44.3404 81.0361 44.3573 81.0456C44.3742 81.0551 44.3936 81.0595 44.4129 81.0582C44.4323 81.0568 44.4508 81.0499 44.4663 81.0381Z" fill="#35208A"/>
<path d="M43.1346 80.014C43.3025 79.8273 43.4461 79.6201 43.5622 79.3975C43.7149 79.212 43.8022 78.9813 43.8107 78.7412C43.811 78.7132 43.8038 78.6855 43.79 78.6612C43.7761 78.6368 43.756 78.6165 43.7318 78.6024C43.7076 78.5882 43.6801 78.5808 43.652 78.5807C43.624 78.5806 43.5964 78.588 43.5721 78.602C43.3335 78.7412 43.2738 78.9798 43.1644 79.2284C43.0555 79.4493 42.9753 79.6832 42.9258 79.9245C42.9258 80.0338 43.065 80.0736 43.1346 80.014Z" fill="#35208A"/>
<path d="M65.0394 68.9371C64.8236 69.3867 64.4828 69.7646 64.0579 70.0256C63.6329 70.2866 63.1417 70.4196 62.6431 70.4087C62.1567 70.3318 61.7005 70.1235 61.3237 69.8063C60.947 69.4892 60.664 69.0751 60.5053 68.609C60.3561 68.3305 59.9683 68.5393 60.018 68.8178C60.4953 71.582 64.6616 71.6218 65.5167 69.0962C65.6062 68.8178 65.1886 68.6587 65.0394 68.8973V68.9371Z" fill="#35208A"/>
<path d="M60.2467 68.1615C59.4612 68.3703 58.8248 68.9868 57.9498 68.5393C57.0748 68.0919 57.0947 67.0777 57.2935 66.2126C57.3062 66.1587 57.3012 66.1021 57.2793 66.0512C57.2574 66.0003 57.2197 65.9578 57.1718 65.93C57.1239 65.9021 57.0683 65.8904 57.0133 65.8965C56.9582 65.9027 56.9066 65.9263 56.866 65.964C56.0208 66.8589 56.6074 68.4797 57.5719 69.0365C58.3475 69.474 60.2964 69.3945 60.2865 68.1913L60.2467 68.1615Z" fill="#35208A"/>
<path d="M61.2505 73.4613C60.3457 74.1175 59.5402 74.9031 58.3371 74.8633C58.0081 74.8511 57.6866 74.762 57.3982 74.6031C57.1098 74.4442 56.8627 74.2201 56.6766 73.9485C56.4114 73.4632 56.3136 72.9041 56.3982 72.3576C56.3982 72.1189 56.0999 72.0692 55.9706 72.2382C55.205 73.332 56.3484 74.8235 57.3825 75.2212C58.1295 75.4631 58.9382 75.4307 59.6635 75.13C60.3888 74.8294 60.9832 74.28 61.34 73.5806C61.34 73.5209 61.34 73.4414 61.2505 73.4911V73.4613Z" fill="#35208A"/>
<path d="M56.5078 71.9996C56.1256 72.2639 55.6679 72.397 55.2036 72.3791C54.7392 72.3612 54.2932 72.1931 53.9325 71.9002C53.774 71.7378 53.6508 71.5445 53.5703 71.3324C53.4899 71.1203 53.4541 70.8938 53.4651 70.6672C53.5489 70.2573 53.6756 69.8574 53.843 69.474C53.8556 69.4299 53.8546 69.3829 53.8401 69.3394C53.8257 69.2958 53.7985 69.2575 53.762 69.2296C53.7255 69.2018 53.6815 69.1855 53.6356 69.183C53.5898 69.1804 53.5442 69.1918 53.5049 69.2155C52.968 69.4641 52.8188 70.2894 52.8586 70.8164C52.87 71.1093 52.9391 71.3971 53.0619 71.6633C53.1848 71.9295 53.359 72.1688 53.5745 72.3675C53.7948 72.5576 54.0506 72.7021 54.3271 72.7926C54.6036 72.883 54.8953 72.9177 55.1853 72.8945C55.48 72.8786 55.768 72.8007 56.0305 72.6658C56.2547 72.5087 56.4387 72.3009 56.5675 72.0593L56.5078 71.9996Z" fill="#35208A"/>
<path d="M53.6048 68.9271C52.9088 69.0365 52.0934 69.3646 51.6161 68.6586C51.5079 68.5101 51.4355 68.3386 51.4044 68.1575C51.3734 67.9764 51.3846 67.7906 51.4371 67.6146C51.5465 67.2467 51.8349 67.0577 52.0536 66.7694C52.0738 66.7308 52.0838 66.6877 52.0829 66.6442C52.0819 66.6006 52.07 66.558 52.0481 66.5203C52.0263 66.4826 51.9953 66.4511 51.958 66.4286C51.9208 66.406 51.8784 66.3933 51.8349 66.3915C50.6914 66.5307 50.5323 68.2907 51.119 69.0365C51.7056 69.7822 53.4159 70.1302 53.6446 69.0365C53.6446 69.0365 53.6446 68.9768 53.6446 68.9867L53.6048 68.9271Z" fill="#35208A"/>
<path d="M53.2762 77.0807C52.9043 77.1119 52.5353 77.1718 52.1725 77.2596C51.7239 77.3026 51.2735 77.1979 50.8898 76.9613C50.7189 76.8533 50.5721 76.7112 50.4585 76.5439C50.345 76.3766 50.2671 76.1877 50.2298 75.989C50.1925 75.7903 50.1965 75.586 50.2416 75.3889C50.2868 75.1918 50.372 75.0061 50.4921 74.8434C50.7407 74.5451 50.3032 74.1076 50.0447 74.4059C49.7169 74.8157 49.558 75.3352 49.6005 75.8583C49.643 76.3813 49.8837 76.8684 50.2734 77.2199C50.7272 77.6057 51.3088 77.8078 51.9041 77.7866C52.3813 77.7866 53.1072 77.6773 53.3657 77.2298C53.3746 77.2144 53.3792 77.197 53.3791 77.1792C53.3789 77.1615 53.3741 77.1441 53.3649 77.1289C53.3558 77.1137 53.3428 77.1012 53.3272 77.0927C53.3116 77.0842 53.294 77.08 53.2762 77.0807Z" fill="#35208A"/>
<path d="M50.3534 74.3363C49.5977 74.3363 48.7724 74.4656 48.2056 73.8391C48.085 73.7045 47.9921 73.5473 47.9324 73.3767C47.8727 73.2061 47.8472 73.0253 47.8576 72.8448C47.9138 72.5576 48.018 72.282 48.1658 72.0294C48.2653 71.8007 47.957 71.6317 47.778 71.7311C46.9527 72.1587 47.2013 73.5011 47.6786 74.0778C48.0134 74.4575 48.4672 74.7125 48.9656 74.801C49.4641 74.8895 49.9779 74.8063 50.423 74.565C50.4511 74.5488 50.4732 74.5239 50.4859 74.494C50.4986 74.4642 50.5013 74.431 50.4934 74.3995C50.4855 74.368 50.4676 74.3399 50.4423 74.3195C50.417 74.2992 50.3858 74.2876 50.3534 74.2866V74.3363Z" fill="#35208A"/>
<path d="M47.6481 71.5919C47.3517 71.6577 47.0416 71.6195 46.77 71.4837C46.4984 71.3479 46.2818 71.1228 46.1566 70.8462C46.1116 70.6934 46.0979 70.5331 46.1163 70.3749C46.1348 70.2167 46.185 70.0638 46.2639 69.9255C46.3428 69.7872 46.4488 69.6662 46.5756 69.5698C46.7024 69.4734 46.8474 69.4036 47.0018 69.3646C47.0679 69.3341 47.1211 69.2811 47.1519 69.2151C47.1827 69.1491 47.1892 69.0744 47.1701 69.0041C47.1511 68.9338 47.1077 68.8725 47.0478 68.8311C46.9878 68.7897 46.9152 68.7709 46.8427 68.7779C46.6123 68.8343 46.3957 68.9367 46.2058 69.0789C46.016 69.2211 45.8569 69.4002 45.738 69.6054C45.6191 69.8107 45.5429 70.0378 45.5141 70.2733C45.4852 70.5087 45.5042 70.7475 45.57 70.9754C45.6462 71.1859 45.7637 71.379 45.9156 71.5434C46.0675 71.7078 46.2508 71.8402 46.4545 71.9328C46.6583 72.0254 46.8785 72.0764 47.1023 72.0828C47.326 72.0891 47.5488 72.0507 47.7575 71.9698C47.7989 71.9456 47.8313 71.9084 47.8495 71.864C47.8678 71.8196 47.8709 71.7705 47.8585 71.7241C47.8461 71.6778 47.8187 71.6368 47.7807 71.6075C47.7427 71.5782 47.6961 71.5623 47.6481 71.5621V71.5919Z" fill="#35208A"/>
<path d="M45.4712 77.2596C44.7155 77.0707 43.7908 77.1005 43.2538 76.4244C43.1454 76.2995 43.0654 76.1526 43.0192 75.9939C42.973 75.8351 42.9618 75.6682 42.9864 75.5047C43.011 75.3411 43.0707 75.1849 43.1615 75.0467C43.2523 74.9085 43.372 74.7916 43.5124 74.7042C43.5623 74.6707 43.599 74.6208 43.6162 74.5631C43.6333 74.5054 43.6298 74.4436 43.6062 74.3883C43.5827 74.3329 43.5405 74.2875 43.4871 74.2599C43.4337 74.2322 43.3723 74.2241 43.3135 74.2368C42.3192 74.4158 42.1899 75.6488 42.5479 76.3945C42.855 76.867 43.3011 77.2325 43.8246 77.4409C44.3482 77.6492 44.9234 77.6901 45.4712 77.5579C45.5063 77.5457 45.5367 77.5229 45.5583 77.4926C45.5798 77.4623 45.5914 77.426 45.5914 77.3889C45.5914 77.3517 45.5798 77.3155 45.5583 77.2852C45.5367 77.2549 45.5063 77.2321 45.4712 77.2198V77.2596Z" fill="#35208A"/>
<path d="M43.3726 74.207C43.2931 74.0479 43.1837 74.0579 43.0047 73.9982C42.6369 73.9007 42.3181 73.6704 42.1098 73.3519C42.021 73.204 41.9628 73.0398 41.9389 72.8689C41.915 72.6981 41.9258 72.5242 41.9706 72.3576C42.0949 72.0473 42.2623 71.7561 42.4678 71.4925C42.5672 71.3135 42.3982 71.0451 42.1794 71.1246C41.1851 71.4627 41.1254 72.9542 41.6723 73.68C41.953 74.0666 42.3744 74.3273 42.8456 74.4059C42.8456 74.4059 43.5118 74.4059 43.3726 74.1871V74.207Z" fill="#35208A"/>
<path d="M42.3783 71.045C42.1736 70.9847 42.0002 70.8475 41.8945 70.6621C41.7889 70.4767 41.7591 70.2576 41.8115 70.0507C41.9806 69.5734 42.428 69.643 42.8059 69.5535C42.8559 69.5376 42.9003 69.5079 42.9342 69.4678C42.968 69.4277 42.9898 69.3788 42.9971 69.3269C43.0044 69.2749 42.9968 69.2219 42.9753 69.1741C42.9538 69.1262 42.9192 69.0854 42.8755 69.0564C42.2391 68.6089 41.3243 69.3646 41.1752 69.9911C41.1411 70.1662 41.1436 70.3465 41.1827 70.5205C41.2217 70.6946 41.2963 70.8588 41.4018 71.0026C41.5074 71.1464 41.6415 71.2669 41.7959 71.3563C41.9503 71.4458 42.1215 71.5023 42.2987 71.5223C42.5871 71.5223 42.5871 71.1544 42.3684 71.0749L42.3783 71.045Z" fill="#35208A"/>
<path d="M38.9384 74.386C38.3526 74.1976 37.7968 73.9264 37.2878 73.5806C37.0463 73.393 36.8804 73.1248 36.8205 72.8249C36.802 72.7299 36.8074 72.6319 36.836 72.5395C36.8646 72.447 36.9156 72.3631 36.9845 72.2952C37.0534 72.2273 37.1381 72.1775 37.2309 72.1502C37.3237 72.1229 37.4218 72.119 37.5165 72.1388C37.785 72.1388 37.9143 71.7112 37.6557 71.6019C36.7111 71.1743 35.9654 72.3277 36.2935 73.163C36.5196 73.6504 36.8977 74.0515 37.3709 74.306C37.8442 74.5606 38.3872 74.6549 38.9185 74.5749C38.9353 74.5668 38.9495 74.5541 38.9594 74.5382C38.9694 74.5224 38.9746 74.5041 38.9746 74.4854C38.9746 74.4668 38.9694 74.4484 38.9594 74.4326C38.9495 74.4168 38.9353 74.4041 38.9185 74.3959L38.9384 74.386Z" fill="#35208A"/>
<path d="M37.7056 71.403C37.5541 71.3808 37.4138 71.3106 37.3052 71.2028C37.1966 71.095 37.1254 70.9552 37.102 70.8039C37.0787 70.6527 37.1044 70.4979 37.1754 70.3624C37.2465 70.2268 37.3591 70.1176 37.4967 70.0507C37.6385 69.9916 37.7906 69.9612 37.9442 69.9612C38.0978 69.9612 38.2499 69.9916 38.3916 70.0507C38.6502 70.1402 38.9286 70.1601 38.9584 69.822C38.9572 69.7674 38.9419 69.714 38.914 69.6669C38.8862 69.6199 38.8467 69.5809 38.7993 69.5535C38.6109 69.4399 38.401 69.3666 38.1828 69.3383C37.9647 69.3099 37.743 69.3271 37.5318 69.3888C37.3206 69.4505 37.1245 69.5553 36.9559 69.6966C36.7873 69.8379 36.6498 70.0127 36.5521 70.2098C36.4779 70.4023 36.4504 70.6096 36.472 70.8147C36.4935 71.0199 36.5635 71.217 36.6761 71.3898C36.7887 71.5626 36.9408 71.7062 37.1198 71.8088C37.2987 71.9113 37.4995 71.9699 37.7056 71.9797C37.7794 71.9797 37.8502 71.9504 37.9024 71.8982C37.9546 71.846 37.984 71.7751 37.984 71.7013C37.984 71.6275 37.9546 71.5567 37.9024 71.5044C37.8502 71.4522 37.7794 71.4229 37.7056 71.4229V71.403Z" fill="#35208A"/>
<path d="M21.2088 49.1101C21.2088 49.0504 21.2088 49.0106 21.2088 48.9908C20.9205 48.4339 19.8466 48.3246 19.3097 48.2152C18.4347 48.0362 17.5398 47.9368 16.6548 47.8175L16.1676 47.728C16.1079 47.728 16.0085 47.6683 16.0184 47.728C15.9065 47.533 15.8165 47.3262 15.75 47.1115C15.3821 46.2563 15.034 45.4012 14.6562 44.5461C14.4673 44.1086 14.2783 43.681 14.0695 43.2535C13.9403 42.9949 13.8011 42.4978 13.5028 42.3685C12.8565 42.0901 12.409 43.691 12.24 44.0688C11.8223 44.9935 11.4346 45.9282 11.0368 46.8529C10.9573 47.0518 10.8181 47.6086 10.6391 47.7379C10.3596 47.7813 10.0766 47.798 9.79391 47.7876L8.61065 47.8871C7.93854 47.9241 7.27209 48.0307 6.62199 48.2052C6.2342 48.3146 5.52822 48.5035 5.62765 49.0504C5.72709 49.5973 6.36346 49.9055 6.62199 50.1541C7.14611 50.5704 7.70123 50.946 8.28252 51.2777C8.5734 51.4089 8.85569 51.5584 9.1277 51.7252C9.43595 51.9638 9.2868 52.2124 9.20725 52.5306C9.02827 53.2067 8.84929 53.8829 8.68025 54.5193C8.51122 55.1556 8.42173 55.6826 8.33224 56.2295C8.23285 56.6109 8.23285 57.0114 8.33224 57.3929C8.73991 58.2579 10.3209 56.7466 10.6789 56.4582C11.0368 56.1698 11.6135 55.7124 12.061 55.3247L12.7272 54.7479C12.8465 54.6386 13.1547 54.211 13.3138 54.1812C13.4729 54.1513 14.2485 54.9667 14.4573 55.1755C14.9247 55.5832 15.4517 55.961 15.8892 56.3389C16.5128 56.9736 17.3015 57.4213 18.1662 57.6315C18.9318 57.7011 18.5639 56.5377 18.4645 56.0804C18.2159 54.9866 17.8679 53.9227 17.5398 52.8488C17.4702 52.6201 17.3807 52.3814 17.3309 52.1527C17.2812 51.924 17.3309 51.9141 17.5 51.7749C17.9275 51.5263 18.4446 51.3672 18.8821 51.1385C19.598 50.7806 21.0199 50.1442 21.2287 49.2393C21.2348 49.2176 21.2361 49.1949 21.2327 49.1726C21.2293 49.1503 21.2211 49.129 21.2088 49.1101Z" fill="#FFF896"/>
<path d="M84.2301 76.4443C83.017 76.3349 81.794 76.3548 80.571 76.3647L81.5653 75.3704C82.1689 74.8603 82.686 74.2559 83.0966 73.5806C83.1307 73.5167 83.1433 73.4434 83.1327 73.3717C83.122 73.3001 83.0886 73.2337 83.0373 73.1825C82.9861 73.1312 82.9197 73.0978 82.848 73.0871C82.7764 73.0764 82.7031 73.0891 82.6392 73.1232C81.981 73.5174 81.3846 74.0066 80.8693 74.5749L79.8153 75.5693V74.1573C79.874 73.3875 79.817 72.6133 79.6462 71.8604C79.625 71.7913 79.5821 71.7308 79.524 71.6878C79.4658 71.6448 79.3954 71.6216 79.3231 71.6216C79.2508 71.6216 79.1804 71.6448 79.1222 71.6878C79.064 71.7308 79.0212 71.7913 78.9999 71.8604C78.8121 72.6107 78.7384 73.385 78.7812 74.1573C78.7812 74.6445 78.7812 75.1516 78.7812 75.6289L77.7868 74.5749C77.2886 73.9896 76.7014 73.4863 76.0468 73.0834C75.9808 73.0201 75.8925 72.9856 75.8011 72.9875C75.7097 72.9894 75.6228 73.0275 75.5595 73.0934C75.4962 73.1593 75.4617 73.2477 75.4636 73.339C75.4655 73.4304 75.5036 73.5173 75.5695 73.5806C75.9661 74.2399 76.4587 74.8364 77.0311 75.3505L78.0255 76.4045H76.5638C75.7973 76.3411 75.0257 76.3982 74.2768 76.5735C74.2077 76.5948 74.1472 76.6376 74.1043 76.6958C74.0613 76.754 74.0381 76.8244 74.0381 76.8967C74.0381 76.969 74.0613 77.0394 74.1043 77.0976C74.1472 77.1558 74.2077 77.1986 74.2768 77.2199C75.0239 77.4071 75.7948 77.4808 76.5638 77.4386H78.0155C77.1095 78.2584 76.2466 79.1247 75.4303 80.0338C75.3548 80.1309 75.3172 80.2521 75.3244 80.3749C75.3316 80.4976 75.3832 80.6136 75.4695 80.7011C75.5559 80.7887 75.6711 80.8419 75.7938 80.8508C75.9164 80.8598 76.0381 80.8238 76.1362 80.7497C77.061 79.9742 77.9062 79.1091 78.7613 78.244C78.7613 79.4571 78.6917 80.6702 78.7613 81.8733C78.7844 81.9882 78.8465 82.0915 78.9371 82.1657C79.0278 82.24 79.1413 82.2805 79.2585 82.2805C79.3756 82.2805 79.4891 82.24 79.5798 82.1657C79.6704 82.0915 79.7325 81.9882 79.7556 81.8733C79.8551 80.6801 79.8451 79.4571 79.8352 78.254C80.6704 79.129 81.5056 80.0239 82.4105 80.8094C82.5041 80.903 82.6311 80.9556 82.7635 80.9556C82.8959 80.9556 83.0228 80.903 83.1165 80.8094C83.2101 80.7158 83.2627 80.5888 83.2627 80.4564C83.2627 80.324 83.2101 80.197 83.1165 80.1034C82.3508 79.1787 81.4758 78.3335 80.6107 77.4784C81.8238 77.4784 83.0469 77.548 84.25 77.4784C84.3871 77.4757 84.5176 77.4187 84.6127 77.3199C84.7078 77.2211 84.7597 77.0885 84.7571 76.9514C84.7545 76.8143 84.6975 76.6838 84.5986 76.5887C84.4998 76.4936 84.3672 76.4416 84.2301 76.4443Z" fill="white"/>
<path d="M18.4451 22.621C18.5441 22.5066 18.637 22.3871 18.7236 22.2631L18.5446 22.4918C18.7009 22.3328 18.8228 22.1432 18.9025 21.935C18.9619 21.7062 18.9455 21.4643 18.8558 21.2457C18.7662 21.027 18.6082 20.8432 18.4054 20.7219C18.1917 20.5898 17.9456 20.5199 17.6944 20.5199C17.4433 20.5199 17.1971 20.5898 16.9835 20.7219C16.837 20.8088 16.7107 20.9259 16.6128 21.0653C16.515 21.2048 16.4479 21.3634 16.4159 21.5307C16.3839 21.698 16.3879 21.8702 16.4274 22.0359C16.467 22.2016 16.5413 22.357 16.6454 22.4918C16.7359 22.6199 16.8529 22.727 16.9884 22.8059C17.1239 22.8849 17.2749 22.9337 17.4309 22.9492C17.6109 22.9793 17.7954 22.9652 17.9687 22.908C18.1419 22.8508 18.2986 22.7523 18.4253 22.621H18.4451Z" fill="white"/>
<path d="M22.2632 37.9735C22.5208 37.976 22.7745 37.9109 22.9991 37.7846C23.288 37.603 23.4975 37.3188 23.5857 36.9892L23.3471 37.4068L23.3968 37.3471C23.5536 37.1841 23.6411 36.9667 23.6411 36.7406C23.6411 36.5144 23.5536 36.297 23.3968 36.134L23.3471 36.0843L23.5857 36.492C23.5013 36.1605 23.2908 35.8751 22.9991 35.6965C22.8513 35.616 22.6891 35.5653 22.5218 35.5474C22.4359 35.5376 22.3491 35.5376 22.2632 35.5474C21.9358 35.5468 21.6214 35.6754 21.3882 35.9053C21.1625 36.1372 21.0343 36.4468 21.0303 36.7704C21.0329 37.0966 21.1636 37.4087 21.3943 37.6394C21.6249 37.87 21.937 38.0008 22.2632 38.0034V37.9735Z" fill="white"/>
<path d="M35.7956 9.46605L36.1735 9.20753C36.3017 9.12115 36.408 9.00608 36.4839 8.87145C36.5598 8.73682 36.6034 8.58633 36.611 8.43195C36.6076 8.27799 36.5658 8.12732 36.4894 7.99362C36.413 7.85992 36.3044 7.74741 36.1735 7.66631L35.7956 7.40778C35.6149 7.29598 35.4066 7.23676 35.1941 7.23676C34.9815 7.23676 34.7732 7.29598 34.5925 7.40778C34.4105 7.51103 34.2592 7.66067 34.1539 7.84146C34.0486 8.02224 33.9932 8.22771 33.9932 8.43692C33.9932 8.64613 34.0486 8.8516 34.1539 9.03238C34.2592 9.21317 34.4105 9.36281 34.5925 9.46605C34.774 9.5757 34.982 9.63366 35.1941 9.63366C35.4061 9.63366 35.6141 9.5757 35.7956 9.46605Z" fill="white"/>
<path d="M62.5734 7.5669H62.7325C64.0152 7.66633 64.0152 5.46886 62.7325 5.57823H62.5734C62.3097 5.57823 62.0568 5.68299 61.8703 5.86947C61.6839 6.05594 61.5791 6.30885 61.5791 6.57257C61.5791 6.83628 61.6839 7.08919 61.8703 7.27566C62.0568 7.46214 62.3097 7.5669 62.5734 7.5669Z" fill="white"/>
<path d="M65.9042 22.4122C66.2237 22.384 66.5209 22.2372 66.7375 22.0007C66.954 21.7642 67.0741 21.4552 67.0741 21.1345C67.0741 20.8139 66.954 20.5048 66.7375 20.2683C66.5209 20.0318 66.2237 19.885 65.9042 19.8568C65.5848 19.885 65.2876 20.0318 65.071 20.2683C64.8545 20.5048 64.7344 20.8139 64.7344 21.1345C64.7344 21.4552 64.8545 21.7642 65.071 22.0007C65.2876 22.2372 65.5848 22.384 65.9042 22.4122Z" fill="white"/>
<path d="M49.6177 12.0314C49.7638 12.0315 49.9085 12.0025 50.0433 11.9462C50.1782 11.8898 50.3005 11.8073 50.4032 11.7033C50.503 11.6027 50.5816 11.4831 50.6346 11.3516C50.6875 11.2201 50.7136 11.0794 50.7114 10.9377C50.7141 10.6431 50.601 10.3592 50.3964 10.1471C50.1918 9.93513 49.9122 9.81195 49.6177 9.80414C49.3199 9.80577 49.0345 9.92349 48.8222 10.1323C48.7196 10.2354 48.6386 10.3581 48.5839 10.493C48.5293 10.6278 48.5021 10.7723 48.504 10.9178C48.5066 11.2123 48.6248 11.4941 48.833 11.7024C49.0413 11.9107 49.3231 12.0288 49.6177 12.0314Z" fill="white"/>
<path d="M79.0497 28.6865H79.1193H78.821H78.9602H78.6719C78.8716 28.7311 79.0787 28.7311 79.2784 28.6865H79.348H79.0795C79.2878 28.6889 79.4908 28.6218 79.6566 28.4957C79.8223 28.3696 79.9412 28.1918 79.9943 27.9904C80.0553 27.796 80.0663 27.5893 80.0264 27.3894C79.9864 27.1896 79.8967 27.003 79.7656 26.847C79.5669 26.6526 79.3197 26.5153 79.0497 26.4492C78.878 26.4 78.6972 26.3912 78.5215 26.4238C78.3459 26.4563 78.1802 26.5292 78.0375 26.6367C77.8948 26.7442 77.779 26.8833 77.6993 27.0432C77.6196 27.2031 77.5781 27.3793 77.5781 27.5579C77.5781 27.7365 77.6196 27.9127 77.6993 28.0726C77.779 28.2325 77.8948 28.3716 78.0375 28.4791C78.1802 28.5866 78.3459 28.6595 78.5215 28.692C78.6972 28.7246 78.878 28.7159 79.0497 28.6666V28.6865Z" fill="white"/>
<path d="M90.7528 40.8671C90.9636 41.0101 91.214 41.0832 91.4687 41.0759C91.6371 41.0746 91.8035 41.0397 91.9582 40.9732C92.1129 40.9067 92.2528 40.8099 92.3695 40.6885C92.4862 40.5671 92.5775 40.4236 92.638 40.2665C92.6984 40.1093 92.7268 39.9416 92.7215 39.7733C92.7262 39.5204 92.6571 39.2717 92.5227 39.0574C92.4093 38.8643 92.2484 38.7034 92.0553 38.5901C91.8554 38.4754 91.6295 38.4138 91.3991 38.4111C91.0566 38.4225 90.7306 38.5607 90.4843 38.7989C90.2456 39.044 90.1103 39.3715 90.1064 39.7136C90.1069 39.9444 90.1687 40.1709 90.2854 40.3699C90.3964 40.5623 90.558 40.7205 90.7528 40.8273V40.8671Z" fill="white"/>
<path d="M80.7798 48.5035C81.0735 48.4423 81.331 48.2671 81.4957 48.0163C81.6633 47.7134 81.7128 47.3593 81.6349 47.022C81.5745 46.8197 81.4647 46.6356 81.3154 46.4864C81.1661 46.3371 80.9821 46.2273 80.7798 46.1669C80.5467 46.1052 80.3005 46.1139 80.0723 46.1917C79.8441 46.2695 79.644 46.4131 79.4971 46.6044C79.3481 46.7947 79.2598 47.0255 79.2438 47.2667C79.2279 47.5079 79.2849 47.7484 79.4076 47.9567C79.5437 48.1874 79.7513 48.3675 79.9988 48.4697C80.2464 48.572 80.5205 48.5908 80.7798 48.5234V48.5035Z" fill="white"/>
<path d="M87.7102 60.167C88.0264 60.1646 88.3293 60.0399 88.5554 59.819C88.7272 59.6502 88.8449 59.4341 88.8934 59.1982C88.942 58.9623 88.9192 58.7173 88.8281 58.4944C88.7369 58.2715 88.5814 58.0808 88.3815 57.9465C88.1815 57.8123 87.9461 57.7406 87.7053 57.7406C87.4644 57.7406 87.229 57.8123 87.0291 57.9465C86.8291 58.0808 86.6737 58.2715 86.5825 58.4944C86.4913 58.7173 86.4685 58.9623 86.5171 59.1982C86.5656 59.4341 86.6833 59.6502 86.8551 59.819C87.0876 60.0363 87.3921 60.1603 87.7102 60.167Z" fill="white"/>
<path d="M67.3066 87.3422C67.2342 87.2041 67.1303 87.0849 67.0034 86.9944C66.8764 86.9038 66.73 86.8444 66.5758 86.8209C66.4216 86.7974 66.2641 86.8105 66.116 86.8591C65.9678 86.9078 65.8331 86.9905 65.7229 87.1008C65.6126 87.2111 65.5298 87.3457 65.4812 87.4939C65.4326 87.642 65.4195 87.7996 65.443 87.9537C65.4665 88.1079 65.5259 88.2543 65.6165 88.3813C65.707 88.5082 65.8261 88.6121 65.9643 88.6845C66.1563 88.7884 66.3772 88.8262 66.5928 88.7921C66.8085 88.7579 67.0069 88.6537 67.1575 88.4956C67.3047 88.3418 67.3986 88.1448 67.4255 87.9335C67.4523 87.7223 67.4106 87.5081 67.3066 87.3223V87.3422Z" fill="white"/>
<path d="M46.1866 94.4616C46.5374 94.4616 46.8738 94.3222 47.1218 94.0742C47.3698 93.8262 47.5091 93.4898 47.5091 93.1391C47.5057 92.7891 47.3667 92.4541 47.1213 92.2044C46.9676 92.0505 46.7782 91.9369 46.5701 91.8737C46.3619 91.8105 46.1414 91.7996 45.928 91.842C45.7146 91.8844 45.515 91.9788 45.3468 92.1168C45.1787 92.2548 45.0471 92.4322 44.9639 92.6331C44.8807 92.8341 44.8483 93.0526 44.8697 93.2691C44.8911 93.4856 44.9655 93.6934 45.0864 93.8743C45.2074 94.0551 45.371 94.2033 45.563 94.3058C45.7549 94.4082 45.9691 94.4617 46.1866 94.4616Z" fill="white"/>
<path d="M37.8738 85.1845C37.8241 85.2938 37.7844 85.3933 37.7446 85.5026L37.5358 85.7711L37.2673 85.9799L36.9491 86.1092H36.6011C36.916 86.1138 37.2215 86.0015 37.4584 85.794C37.6954 85.5864 37.8469 85.2984 37.8838 84.9856C37.9324 84.6971 37.8759 84.4008 37.7247 84.1504C37.5487 83.8604 37.2729 83.6448 36.9491 83.5438C36.5905 83.4497 36.2092 83.5015 35.8887 83.6879C35.5682 83.8742 35.3345 84.1799 35.2389 84.5381C35.1473 84.873 35.1921 85.2306 35.3636 85.5325C35.535 85.8344 35.8191 86.056 36.1536 86.149C36.4893 86.237 36.846 86.1906 37.148 86.0197C37.2969 85.9365 37.4274 85.824 37.5317 85.689C37.6359 85.554 37.7117 85.3993 37.7545 85.2342L37.8738 85.1845Z" fill="white"/>
<path d="M19.2403 83.0069C19.4242 83.01 19.6068 82.9765 19.7776 82.9082C19.9483 82.8399 20.1037 82.7382 20.2346 82.6091C20.3647 82.4789 20.467 82.3236 20.5353 82.1527C20.6037 81.9818 20.6367 81.7988 20.6324 81.6148C20.6391 81.4305 20.6072 81.2468 20.5387 81.0756C20.4702 80.9043 20.3666 80.7493 20.2346 80.6205C20.1044 80.4904 19.9491 80.3881 19.7782 80.3198C19.6073 80.2514 19.4243 80.2184 19.2403 80.2227C18.8693 80.2185 18.5117 80.3615 18.246 80.6205C18.115 80.75 18.0121 80.9052 17.9437 81.0762C17.8752 81.2473 17.8428 81.4306 17.8483 81.6148C17.8456 81.7986 17.8794 81.9811 17.9477 82.1517C18.0159 82.3224 18.1173 82.4779 18.246 82.6091C18.5117 82.8681 18.8693 83.0111 19.2403 83.0069Z" fill="white"/>
<path d="M21.995 67.9527C22.3247 67.924 22.6316 67.7728 22.8552 67.5289C23.0788 67.285 23.2029 66.9661 23.2029 66.6352C23.2029 66.3043 23.0788 65.9854 22.8552 65.7415C22.6316 65.4976 22.3247 65.3464 21.995 65.3177C21.6653 65.3464 21.3584 65.4976 21.1348 65.7415C20.9112 65.9854 20.7871 66.3043 20.7871 66.6352C20.7871 66.9661 20.9112 67.285 21.1348 67.5289C21.3584 67.7728 21.6653 67.924 21.995 67.9527Z" fill="white"/>
<path d="M46.6437 57.5719C46.9041 57.4285 47.1076 57.2005 47.2204 56.9255C47.2689 56.8195 47.3088 56.7098 47.3398 56.5974C47.3874 56.4194 47.3875 56.2321 47.3401 56.054C47.2927 55.876 47.1995 55.7134 47.0697 55.5826C46.9399 55.4519 46.7781 55.3574 46.6005 55.3086C46.4228 55.2599 46.2354 55.2585 46.0571 55.3048L45.719 55.4241C45.4425 55.5356 45.2162 55.7442 45.0826 56.0108C44.9592 56.2296 44.91 56.4825 44.9423 56.7316C44.9745 56.9807 45.0865 57.2127 45.2616 57.3929C45.4449 57.5625 45.6765 57.6708 45.9241 57.7029C46.1718 57.7349 46.4233 57.6892 46.6437 57.5719Z" fill="white"/>
<path d="M28.2191 28.4379L27.8511 28.4876H27.9108L28.2787 28.4379C28.3956 28.3984 28.5088 28.3485 28.6168 28.2888L28.2887 28.428C28.5139 28.3578 28.7209 28.239 28.8952 28.08C29.0404 27.9306 29.1499 27.7505 29.2157 27.5529C29.2814 27.3553 29.3017 27.1453 29.2749 26.9388C29.2481 26.7323 29.175 26.5345 29.0611 26.3602C28.9471 26.1859 28.7952 26.0396 28.6168 25.9322C28.3364 25.7687 28.0099 25.7025 27.688 25.7439C27.3661 25.7852 27.0669 25.9319 26.8369 26.1609C26.6328 26.3861 26.5063 26.6709 26.4759 26.9733C26.4455 27.2757 26.5128 27.5799 26.6679 27.8413C26.7969 28.0401 26.9663 28.2094 27.1651 28.3385C27.3222 28.4317 27.4966 28.4921 27.6778 28.516C27.859 28.5399 28.0431 28.5269 28.2191 28.4777V28.4379Z" fill="#FFF896"/>
<path d="M52.5105 45.4012C52.6504 45.6613 52.8609 45.8767 53.1176 46.0227C53.3744 46.1687 53.6671 46.2393 53.9622 46.2265C54.1669 46.2355 54.3709 46.196 54.5575 46.1114C54.7441 46.0267 54.908 45.8992 55.0361 45.7393C55.1625 45.5978 55.2514 45.4269 55.2946 45.2421C55.344 45.0093 55.3233 44.7671 55.235 44.5461C55.1522 44.3315 54.9976 44.1523 54.7975 44.039L55.0262 44.208L55.2151 44.4467C55.1256 44.3174 55.0262 44.1981 54.9267 44.0787L55.1355 44.3472V44.2677L55.2747 44.5958C55.2703 44.5695 55.2703 44.5426 55.2747 44.5163C55.2747 44.6356 55.2747 44.7648 55.2747 44.8842C55.2747 44.7151 55.2151 44.556 55.1952 44.387C55.147 44.2098 55.0642 44.0439 54.9515 43.8988C54.8389 43.7538 54.6987 43.6324 54.5389 43.5418C54.3491 43.4265 54.1341 43.3591 53.9124 43.3452C53.6907 43.3313 53.4689 43.3715 53.2662 43.4623C53.0952 43.5298 52.9399 43.6317 52.8099 43.7617C52.6799 43.8917 52.578 44.047 52.5105 44.218C52.4222 44.3862 52.3809 44.5751 52.3912 44.7648C52.3925 45.0201 52.4611 45.2704 52.59 45.4907L52.5105 45.4012Z" fill="#FFF896"/>
<path d="M76.7526 66.1828C77.1242 66.1801 77.4804 66.0341 77.7469 65.7751C78.0077 65.5098 78.154 65.1528 78.1546 64.7808C78.1536 64.5506 78.096 64.3243 77.9868 64.1217C77.8777 63.9191 77.7203 63.7465 77.5287 63.6191C77.337 63.4917 77.117 63.4135 76.8879 63.3912C76.6588 63.369 76.4278 63.4036 76.2153 63.4918C76.0027 63.58 75.8151 63.7191 75.6691 63.897C75.523 64.0748 75.423 64.2859 75.3779 64.5116C75.3327 64.7372 75.3438 64.9705 75.4101 65.1909C75.4764 65.4112 75.596 65.6119 75.7583 65.7751C76.0275 66.0298 76.382 66.1752 76.7526 66.1828Z" fill="#FFF896"/>
<path d="M11.6738 67.1174C11.9932 67.0892 12.2905 66.9424 12.507 66.7059C12.7235 66.4694 12.8436 66.1604 12.8436 65.8397C12.8436 65.5191 12.7235 65.21 12.507 64.9735C12.2905 64.737 11.9932 64.5902 11.6738 64.562C11.3544 64.5902 11.0571 64.737 10.8405 64.9735C10.624 65.21 10.5039 65.5191 10.5039 65.8397C10.5039 66.1604 10.624 66.4694 10.8405 66.7059C11.0571 66.9424 11.3544 67.0892 11.6738 67.1174Z" fill="#FFF896"/>
<path d="M88.9233 27.0956C89.2966 27.0826 89.6514 26.93 89.9177 26.668C90.0535 26.5323 90.1614 26.3711 90.2349 26.1936C90.3085 26.0162 90.3463 25.826 90.3463 25.6339C90.3463 25.4418 90.3085 25.2516 90.2349 25.0742C90.1614 24.8968 90.0535 24.7356 89.9177 24.5998C89.7819 24.4639 89.6207 24.3561 89.4433 24.2826C89.2658 24.209 89.0756 24.1711 88.8835 24.1711C88.6915 24.1711 88.5013 24.209 88.3238 24.2826C88.1464 24.3561 87.9852 24.4639 87.8494 24.5998C87.5823 24.8625 87.4288 25.2195 87.4219 25.5941C87.4309 25.9683 87.5841 26.3245 87.8494 26.5885C88.1183 26.8465 88.4715 26.9984 88.8438 27.016L88.9233 27.0956Z" fill="#FFF896"/>
</g>
<defs>
<clipPath id="clip0_1972_5032">
<rect width="100" height="100" fill="white"/>
</clipPath>
</defs>
</svg>
