<svg width="100" height="100" viewBox="0 0 100 100" fill="none" xmlns="http://www.w3.org/2000/svg">
<g clip-path="url(#clip0_1972_5029)">
<path d="M49.995 99.9901C77.6065 99.9901 99.9901 77.6065 99.9901 49.995C99.9901 22.3835 77.6065 0 49.995 0C22.3835 0 0 22.3835 0 49.995C0 77.6065 22.3835 99.9901 49.995 99.9901Z" fill="#35208A"/>
<path d="M43.2132 16.6153C47.6778 21.7957 51.9435 27.1453 56.1395 32.5843C61.33 39.3755 66.4209 46.2862 71.0545 53.4652C72.7624 55.998 74.2749 58.6573 75.5787 61.4199C76.0063 62.4142 77.0802 64.2935 75.9168 65.0492C75.013 65.5576 74.0375 65.9264 73.0233 66.143C71.4622 66.5705 69.8812 66.9086 68.2903 67.2069C63.8556 68.0521 59.3413 68.6487 54.8867 69.1956C44.2442 70.5519 33.5281 71.2493 22.7996 71.2837C22.372 71.2837 22.3919 71.9399 22.7996 71.9499C32.6197 71.9352 42.4305 71.3475 52.1821 70.1899C56.935 69.6728 61.6879 69.0762 66.411 68.2609C69.5007 67.8862 72.5349 67.1452 75.4495 66.0535C76.9211 65.4171 77.3188 64.6415 76.8813 63.0705C76.0657 60.654 74.9322 58.3568 73.5105 56.2394C68.9968 48.9728 64.0976 41.9527 58.8342 35.2093C54.3199 29.2433 49.7758 23.0486 44.5954 17.6096C44.2042 17.1986 43.8065 16.8009 43.4022 16.4164C43.2729 16.2871 43.0939 16.486 43.2132 16.6153Z" fill="white"/>
<path d="M47.1215 18.8923C46.7668 17.7078 46.1055 16.6381 45.2045 15.7913C44.3036 14.9444 43.1949 14.3506 41.9908 14.0698C41.1702 13.8955 40.3163 13.9688 39.5374 14.2803C38.7586 14.5919 38.0897 15.1277 37.6157 15.8198C37.1668 16.3754 36.9025 17.0573 36.8598 17.7703C36.817 18.4833 36.9978 19.1919 37.3771 19.7972C37.7062 20.3215 38.1766 20.7424 38.7341 21.0115C39.2917 21.2807 39.9138 21.387 40.5291 21.3185C41.0711 21.2231 41.5741 20.9735 41.9779 20.5996C42.3817 20.2258 42.6693 19.7435 42.8061 19.2105C43.5718 20.4037 43.184 22.5813 42.3388 24.043C41.3445 25.7035 39.0774 26.5288 37.0589 27.2646L36.333 27.5231H36.2734C33.5986 28.5175 30.3074 29.7405 29.0645 33.1013C28.5837 34.7118 28.4216 36.4005 28.5872 38.073C28.787 39.5868 28.6129 41.1265 28.0801 42.5574L28.0204 42.6966C27.415 44.0619 26.4868 45.2597 25.3158 46.1867C24.3445 47.0342 23.4827 47.9995 22.7505 49.0604C21.7561 50.6513 20.6325 53.3261 22.8996 58.1585L23.1482 58.6855C23.6851 59.8389 24.242 61.0321 24.7192 62.2154C25.1684 63.1467 25.4093 64.1646 25.4252 65.1984C25.3445 66.0962 25.0542 66.9625 24.5775 67.7276C24.1009 68.4927 23.4512 69.1352 22.6808 69.6033C22.5521 69.6548 22.419 69.6948 22.2831 69.7226C22.4928 69.3806 22.6246 68.9966 22.6693 68.598C22.714 68.1993 22.6704 67.7957 22.5416 67.4157C22.3537 66.9087 22.0314 66.4623 21.6093 66.1243C21.1872 65.7862 20.6812 65.5693 20.1453 65.4967C19.5423 65.3958 18.9233 65.4589 18.353 65.6793C17.7827 65.8997 17.2822 66.2693 16.9038 66.7495C16.5766 67.1907 16.3463 67.696 16.2281 68.2323C16.1099 68.7687 16.1063 69.324 16.2177 69.8618C16.3295 70.4679 16.5635 71.0449 16.9054 71.5577C17.2473 72.0705 17.6899 72.5084 18.2064 72.8448C19.2998 73.508 20.5569 73.8524 21.8357 73.8391C22.6032 73.8405 23.3647 73.7024 24.0829 73.4315C27.5034 72.1189 29.5815 67.9527 29.5517 64.8404C29.5517 62.3049 28.448 60.1571 27.4039 58.069C26.7601 56.8481 26.2405 55.5656 25.8528 54.2408C25.2761 52.0831 26.509 50.7308 28.5574 48.7024C30.0145 47.4645 31.1649 45.9057 31.9182 44.1484C32.6733 42.1972 32.9462 40.0926 32.7137 38.0133C32.654 36.2832 32.5844 34.4835 33.708 33.3797C34.7922 32.4756 36.0617 31.8205 37.4268 31.4607C37.8046 31.3314 38.2024 31.1922 38.5902 31.0431L38.8885 30.9237C40.6112 30.338 42.2468 29.5219 43.7507 28.4976C45.1533 27.3709 46.2124 25.874 46.8082 24.1764C47.4039 22.4789 47.5125 20.6484 47.1215 18.8923Z" fill="#FA8D61"/>
<path d="M19.8168 39.9025C26.8467 43.6014 34.165 46.7336 41.364 49.9652C52.8684 55.2053 64.4126 60.3758 75.9468 65.6259L83.9015 69.2055C85.1046 69.7424 86.0691 67.9328 84.8958 67.3958C77.6041 64.1212 70.3123 60.8697 63.0205 57.6414C51.4366 52.4808 39.8725 47.2904 28.2189 42.2591C25.5541 41.056 22.8694 39.9125 20.1847 38.8983C19.608 38.6894 19.2898 39.6241 19.8168 39.8926V39.9025Z" fill="#96CBEB"/>
<path d="M26.8474 38.7789C26.3409 38.6893 25.8226 38.6893 25.3161 38.7789C24.3217 38.7789 23.407 38.7789 22.4524 38.8287C21.4978 38.8784 20.2251 38.769 19.1413 38.8287C19.0875 38.8363 19.0363 38.8567 18.9921 38.8883C18.9632 38.922 18.9434 38.9626 18.9347 39.0061C18.926 39.0496 18.9287 39.0947 18.9424 39.1369C19.1114 39.7136 19.9367 40.3102 20.3643 40.7179C21.4931 42.0747 22.7122 43.3537 24.0135 44.5461C25.6542 45.8288 26.1513 43.5517 26.6684 42.4977C27.1854 41.4437 28.7266 39.4253 26.8474 38.7789Z" fill="white"/>
<path d="M83.6628 63.6373C81.9525 63.9555 80.2522 64.3234 78.5718 64.7708C78.4062 64.8283 78.2556 64.9221 78.131 65.0454C78.0065 65.1688 77.9111 65.3184 77.852 65.4834C77.7929 65.6484 77.7714 65.8246 77.7893 65.9989C77.8072 66.1733 77.8639 66.3414 77.9553 66.491C78.9496 68.2311 80.0434 69.8817 81.1869 71.4627C81.5548 71.9797 82.4596 71.6118 82.1812 70.9655C81.6741 69.5237 81.1272 68.0919 80.5207 66.6799C81.8034 66.4413 83.0861 66.1828 84.3687 65.9541C85.9696 65.6856 85.2139 63.3191 83.6628 63.6373Z" fill="#FA8D61"/>
<path d="M75.6484 64.4924C76.8217 64.2538 78.0049 64.0251 79.1882 63.8461C80.7493 63.6174 80.6499 61.1315 79.0788 61.3702C77.2513 61.6518 75.4443 62.0538 73.6696 62.5733C73.5029 62.6292 73.3509 62.7222 73.2253 62.8453C73.0996 62.9684 73.0035 63.1183 72.9442 63.2839C72.8848 63.4495 72.8638 63.6264 72.8827 63.8012C72.9016 63.9761 72.9599 64.1444 73.0532 64.2935C74.046 66.0041 75.1245 67.6634 76.2847 69.2652C76.3719 69.3517 76.4839 69.4086 76.6051 69.4281C76.7263 69.4475 76.8506 69.4284 76.9604 69.3735C77.0702 69.3186 77.16 69.2307 77.2171 69.122C77.2743 69.0134 77.296 68.8896 77.2791 68.768C76.8117 67.3461 76.2648 65.9043 75.6484 64.4924Z" fill="#FA8D61"/>
<path d="M39.9825 19.0912C39.8532 18.7432 39.5449 18.5443 39.5648 18.0969C39.597 17.823 39.7081 17.5644 39.8847 17.3525C40.0612 17.1407 40.2956 16.9847 40.5592 16.9037C41.8419 16.4463 42.5478 17.5599 42.9356 18.604C42.9547 18.6479 42.9877 18.6844 43.0296 18.7077C43.0714 18.7311 43.1197 18.7401 43.1672 18.7333C43.2146 18.7265 43.2585 18.7044 43.2921 18.6702C43.3257 18.6361 43.3472 18.5919 43.3532 18.5443C43.3441 18.1622 43.2389 17.7885 43.0473 17.4577C42.8557 17.127 42.584 16.8497 42.2571 16.6516C41.9302 16.4535 41.5587 16.3409 41.1768 16.3241C40.7949 16.3073 40.4149 16.387 40.0719 16.5557C39.7581 16.7135 39.497 16.9592 39.3204 17.2629C39.1438 17.5666 39.0595 17.9151 39.0776 18.2659C39.0776 18.6537 39.4356 19.3796 39.9327 19.1011C39.9327 19.1011 39.9327 19.1011 39.9327 19.0415L39.9825 19.0912Z" fill="#35208A"/>
<path d="M19.7176 67.7836C19.5174 67.6592 19.2796 67.6098 19.0465 67.6444C18.8134 67.679 18.6002 67.7953 18.4448 67.9725C18.2418 68.1744 18.1097 68.4366 18.0685 68.7199C18.0272 69.0032 18.079 69.2922 18.2161 69.5436C18.9022 70.8959 20.8809 70.7268 21.7659 69.6927C21.925 69.5137 21.7659 69.2154 21.5073 69.3546C20.7815 69.7822 19.996 70.349 19.1508 69.8319C18.0968 69.2055 18.594 67.9924 19.6877 67.8433V67.7737L19.7176 67.7836Z" fill="#35208A"/>
<path d="M41.4439 26.0913C41.4609 26.3914 41.4064 26.6913 41.2848 26.9663C41.1754 27.195 40.897 27.374 40.8573 27.6226C40.8497 27.6503 40.8485 27.6794 40.8539 27.7077C40.8593 27.736 40.8711 27.7626 40.8884 27.7857C40.9056 27.8087 40.9279 27.8274 40.9536 27.8405C40.9792 27.8536 41.0075 27.8607 41.0362 27.8612C41.3942 27.8612 41.6229 27.4137 41.7422 27.1254C41.8965 26.7859 41.935 26.4051 41.8516 26.0416C41.8413 25.9952 41.8155 25.9537 41.7784 25.924C41.7413 25.8943 41.6953 25.8781 41.6477 25.8781C41.6002 25.8781 41.5541 25.8943 41.5171 25.924C41.48 25.9537 41.4542 25.9952 41.4439 26.0416V26.0913Z" fill="#35208A"/>
<path d="M42.8462 24.8583C42.8462 25.1864 42.9954 25.4847 42.9954 25.8526C42.9954 26.2205 42.7866 26.4492 42.9357 26.7078C42.9533 26.7353 42.979 26.7568 43.0092 26.7693C43.0395 26.7817 43.0728 26.7845 43.1047 26.7774C43.4826 26.7078 43.5025 26.1012 43.4826 25.783C43.4941 25.5872 43.4531 25.3918 43.364 25.217C43.2749 25.0423 43.1407 24.8944 42.9755 24.7887C42.9755 24.7887 42.8363 24.7887 42.8462 24.8583Z" fill="#35208A"/>
<path d="M26.5886 63.0705C26.509 63.5378 26.7676 64.0648 26.7278 64.5322C26.6484 65.1807 26.4016 65.7975 26.0119 66.3219C25.8926 66.5009 26.1411 66.6501 26.2903 66.5407C26.548 66.3106 26.7566 66.0308 26.9035 65.7182C27.0505 65.4055 27.1328 65.0663 27.1454 64.7211C27.1454 64.214 27.1454 63.3191 26.6383 63.0506H26.5886V63.0705Z" fill="#35208A"/>
<path d="M27.5929 65.099C27.4935 65.5066 27.4935 65.9243 27.3642 66.322C27.1942 66.7448 26.9914 67.1538 26.7577 67.545C26.7407 67.5666 26.7282 67.5912 26.7207 67.6176C26.7133 67.6441 26.7111 67.6717 26.7143 67.6989C26.7176 67.7261 26.7261 67.7525 26.7396 67.7764C26.753 67.8003 26.771 67.8214 26.7925 67.8384C26.814 67.8553 26.8387 67.8679 26.8651 67.8753C26.8915 67.8828 26.9191 67.8849 26.9464 67.8817C26.9736 67.8785 26.9999 67.8699 27.0239 67.8565C27.0478 67.8431 27.0688 67.8251 27.0858 67.8036C27.4241 67.4494 27.67 67.0174 27.8018 66.5457C27.9336 66.0741 27.9473 65.5772 27.8415 65.099C27.8328 65.0799 27.8188 65.0638 27.8012 65.0525C27.7835 65.0412 27.763 65.0352 27.7421 65.0352C27.7211 65.0352 27.7006 65.0412 27.683 65.0525C27.6654 65.0638 27.6514 65.0799 27.6426 65.099H27.5929Z" fill="#35208A"/>
<path d="M81.0881 24.1821C81.1026 24.1437 81.1026 24.1013 81.0881 24.0628C80.7898 23.506 79.7159 23.3966 79.179 23.2872C78.3039 23.1182 77.419 23.0088 76.5241 22.8895L76.0468 22.8696C75.9872 22.8696 75.8778 22.8199 75.8877 22.8696C75.7748 22.6764 75.6879 22.4691 75.6292 22.2531C75.2613 21.398 74.9033 20.5429 74.5255 19.6878C74.3366 19.2502 74.1476 18.8227 73.9388 18.3951C73.8195 18.1366 73.6704 17.6394 73.382 17.5102C72.7357 17.2318 72.2783 18.8326 72.1093 19.2204C71.6916 20.1352 71.3138 21.0699 70.9161 21.9946C70.8266 22.1935 70.6874 22.7503 70.5084 22.8796C70.2276 22.9117 69.944 22.9117 69.6632 22.8796L68.4899 22.979C67.8178 23.0159 67.1513 23.1226 66.5012 23.2972C66.1134 23.4066 65.4174 23.5955 65.5069 24.1424C65.5964 24.6892 66.2327 25.0074 66.5012 25.2461C67.0271 25.6646 67.5857 26.0404 68.1717 26.3697C68.4302 26.5288 68.7683 26.6381 69.0069 26.8171C69.2456 26.9961 69.176 27.3043 69.0865 27.6225C68.9075 28.2987 68.7285 28.9748 68.5694 29.6112C68.4103 30.2476 68.301 30.7149 68.2115 31.2817C68.107 31.6624 68.107 32.0643 68.2115 32.445C68.6191 33.3101 70.2001 31.7987 70.5481 31.5104C70.8962 31.222 71.4828 30.7746 71.9402 30.3768L72.5865 29.8299C72.7059 29.7206 73.0141 29.293 73.1732 29.2632C73.3323 29.2333 74.1079 30.0487 74.3167 30.2575C74.784 30.6652 75.311 31.053 75.7485 31.4308C76.374 32.0611 77.1624 32.5051 78.0255 32.7135C78.7912 32.7831 78.4233 31.6197 78.3238 31.1623C78.0852 30.0686 77.7272 29.0046 77.3991 27.9308C77.3295 27.7021 77.24 27.4734 77.1903 27.2347C77.1406 26.9961 77.1903 26.9961 77.3693 26.8569C77.7869 26.6083 78.3039 26.4492 78.7514 26.2205C79.4574 25.8626 80.8892 25.2262 81.0881 24.3313C81.1074 24.2835 81.1074 24.23 81.0881 24.1821Z" fill="#FFF896"/>
<path d="M36.6913 81.9131C35.4882 81.8037 34.2652 81.8236 33.0421 81.8335L34.0365 80.8392C34.6218 80.341 35.1251 79.7538 35.528 79.0991C35.5621 79.0352 35.5747 78.962 35.564 78.8903C35.5534 78.8186 35.52 78.7522 35.4687 78.701C35.4175 78.6497 35.3511 78.6163 35.2794 78.6056C35.2077 78.595 35.1345 78.6076 35.0706 78.6417C34.4094 79.0357 33.8125 79.5287 33.3007 80.1034L32.2467 81.0977V79.6062C32.3051 78.8398 32.2482 78.0688 32.0776 77.3193C32.0536 77.2514 32.0092 77.1927 31.9504 77.1511C31.8917 77.1095 31.8215 77.0872 31.7495 77.0872C31.6775 77.0872 31.6073 77.1095 31.5485 77.1511C31.4898 77.1927 31.4453 77.2514 31.4214 77.3193C31.2423 78.0676 31.172 78.8378 31.2126 79.6062C31.2126 80.1034 31.2126 80.6006 31.2126 81.0878L30.1884 80.0437C29.6856 79.4629 29.0992 78.9603 28.4483 78.5522C28.3844 78.5181 28.3111 78.5055 28.2395 78.5162C28.1678 78.5268 28.1014 78.5602 28.0502 78.6115C27.9989 78.6627 27.9655 78.7291 27.9548 78.8008C27.9442 78.8725 27.9568 78.9457 27.9909 79.0096C28.3851 79.6677 28.8781 80.2613 29.4526 80.7696C29.7907 81.1276 30.1387 81.4855 30.4469 81.8335H28.9554C28.1884 81.778 27.4175 81.8384 26.6685 82.0125C26.5993 82.0338 26.5388 82.0766 26.4959 82.1348C26.4529 82.193 26.4297 82.2634 26.4297 82.3357C26.4297 82.408 26.4529 82.4784 26.4959 82.5366C26.5388 82.5947 26.5993 82.6376 26.6685 82.6588C27.4151 82.8477 28.1869 82.9182 28.9554 82.8676H30.4071C29.5122 83.7128 28.6173 84.558 27.8219 85.4728C27.7755 85.5192 27.7388 85.5742 27.7137 85.6348C27.6886 85.6953 27.6757 85.7602 27.6757 85.8258C27.6757 85.8913 27.6886 85.9563 27.7137 86.0168C27.7388 86.0774 27.7755 86.1324 27.8219 86.1788C27.8682 86.2251 27.9233 86.2619 27.9838 86.287C28.0444 86.3121 28.1093 86.325 28.1749 86.325C28.2404 86.325 28.3053 86.3121 28.3659 86.287C28.4265 86.2619 28.4815 86.2251 28.5279 86.1788C29.4428 85.3899 30.3157 84.5535 31.1429 83.6731C31.1429 84.8861 31.0733 86.1092 31.1429 87.3123C31.166 87.4272 31.2282 87.5305 31.3188 87.6047C31.4094 87.6789 31.523 87.7195 31.6401 87.7195C31.7573 87.7195 31.8708 87.6789 31.9614 87.6047C32.0521 87.5305 32.1142 87.4272 32.1373 87.3123C32.2367 86.1191 32.2268 84.8961 32.2168 83.683C33.0421 84.568 33.8873 85.4529 34.7921 86.2484C34.8903 86.3225 35.012 86.3584 35.1346 86.3495C35.2573 86.3405 35.3725 86.2873 35.4589 86.1998C35.5452 86.1122 35.5968 85.9963 35.604 85.8735C35.6112 85.7507 35.5736 85.6295 35.4981 85.5325C34.7325 84.6177 33.8575 83.7626 32.9924 82.9174C34.2055 82.9174 35.4285 82.987 36.6217 82.9174C36.7454 82.9108 36.8623 82.8593 36.9506 82.7725C37.0389 82.6857 37.0923 82.5695 37.1009 82.446C37.1094 82.3225 37.0725 82.2001 36.9971 82.102C36.9216 82.0038 36.8129 81.9366 36.6913 81.9131Z" fill="white"/>
<path d="M56.4677 9.94334C56.8 9.94334 57.1187 9.81134 57.3536 9.57639C57.5886 9.34143 57.7206 9.02276 57.7206 8.69048C57.7154 8.3598 57.5818 8.0441 57.3479 7.81025C57.1141 7.57639 56.7984 7.44275 56.4677 7.43762C56.1365 7.44233 55.8197 7.57403 55.5827 7.80552C55.3554 8.04519 55.2244 8.36028 55.2148 8.69048C55.2224 9.02038 55.3569 9.33466 55.5902 9.56799C55.8235 9.80132 56.1378 9.93575 56.4677 9.94334Z" fill="white"/>
<path d="M61.9368 27.6424H61.9865C62.245 27.5678 62.472 27.4107 62.6328 27.195C62.804 26.9839 62.8986 26.721 62.9013 26.4492C62.8929 26.1785 62.8002 25.9171 62.6363 25.7014C62.4723 25.4858 62.2452 25.3266 61.9865 25.2461H61.9368C61.7494 25.1948 61.5528 25.1875 61.3621 25.2247C61.1714 25.2618 60.9919 25.3425 60.8375 25.4603C60.6831 25.5782 60.5579 25.7301 60.4718 25.9042C60.3856 26.0783 60.3408 26.2699 60.3408 26.4642C60.3408 26.6584 60.3856 26.85 60.4718 27.0242C60.5579 27.1983 60.6831 27.3501 60.8375 27.468C60.9919 27.5859 61.1714 27.6665 61.3621 27.7036C61.5528 27.7408 61.7494 27.7335 61.9368 27.6822V27.6424Z" fill="white"/>
<path d="M87.6409 32.6141C87.7831 32.6977 87.9329 32.7676 88.0883 32.8229C88.2966 32.8839 88.5174 32.8874 88.7274 32.8332C88.9375 32.7789 89.1289 32.6689 89.2816 32.5147C89.434 32.3609 89.5428 32.1694 89.5969 31.9597C89.6511 31.7501 89.6486 31.5299 89.5898 31.3215C89.5345 31.1661 89.4646 31.0162 89.381 30.874C89.28 30.7107 89.1439 30.5719 88.9825 30.4677C88.8211 30.3635 88.6386 30.2967 88.4481 30.2719C88.2577 30.2471 88.0641 30.2651 87.8815 30.3246C87.6988 30.384 87.5317 30.4834 87.3923 30.6155C87.1604 30.8602 87.0291 31.1832 87.0244 31.5204C87.0268 31.741 87.0856 31.9573 87.1953 32.1488C87.3049 32.3402 87.4618 32.5004 87.6508 32.6141H87.6409Z" fill="white"/>
<path d="M82.4006 47.5489C82.6752 47.5358 82.945 47.4718 83.1961 47.36C83.376 47.2568 83.5274 47.1106 83.6368 46.9344C83.7462 46.7583 83.8102 46.5577 83.823 46.3508C83.8358 46.1438 83.7971 45.9369 83.7102 45.7486C83.6234 45.5603 83.4911 45.3965 83.3254 45.2719C83.2011 45.1601 83.0506 45.0815 82.8879 45.0432H82.5597H82.4006C82.1467 45.0421 81.8982 45.1164 81.6865 45.2566C81.4749 45.3969 81.3096 45.5968 81.2116 45.831C81.1136 46.0653 81.0874 46.3234 81.1362 46.5725C81.1851 46.8217 81.3067 47.0508 81.4859 47.2308C81.6043 47.353 81.7467 47.4497 81.904 47.5147C82.0614 47.5797 82.2304 47.6116 82.4006 47.6086V47.5489Z" fill="white"/>
<path d="M93.885 66.1629V66.0137C94.3424 64.0251 91.0014 64.0251 91.4688 66.0137V66.1629C91.5433 66.4163 91.6979 66.6387 91.9094 66.797C92.1209 66.9552 92.378 67.0407 92.6421 67.0407C92.9062 67.0407 93.1633 66.9552 93.3748 66.797C93.5863 66.6387 93.7409 66.4163 93.8154 66.1629H93.885Z" fill="white"/>
<path d="M75.8974 74.8235C76.0523 74.9761 76.2442 75.0857 76.4542 75.1417C76.718 75.1417 76.9709 75.0369 77.1573 74.8504C77.3438 74.664 77.4486 74.4111 77.4486 74.1473C77.4486 73.8836 77.3438 73.6307 77.1573 73.4442C76.9709 73.2578 76.718 73.153 76.4542 73.153C76.2468 73.2153 76.0564 73.3241 75.8974 73.4712C75.7297 73.6545 75.6367 73.8939 75.6367 74.1424C75.6367 74.3908 75.7297 74.6302 75.8974 74.8135V74.8235Z" fill="white"/>
<path d="M53.6935 87.5012H53.594C53.3939 87.4484 53.1835 87.4481 52.9831 87.5003C52.7828 87.5526 52.5994 87.6556 52.4506 87.7995C52.2337 88.0243 52.1095 88.3225 52.1025 88.6348C52.1114 88.9466 52.2354 89.2442 52.4506 89.47C52.6009 89.6115 52.7844 89.713 52.9842 89.7651C53.184 89.8172 53.3937 89.8183 53.594 89.7683H53.6935L53.9719 89.649C54.1073 89.5827 54.2211 89.4792 54.3 89.3507C54.4604 89.1542 54.5482 88.9084 54.5486 88.6547C54.5418 88.4494 54.4874 88.2486 54.3895 88.068C54.3182 87.9311 54.2197 87.8103 54.1 87.7128C53.9803 87.6153 53.842 87.5433 53.6935 87.5012Z" fill="white"/>
<path d="M19.439 80.2625C19.6656 80.2543 19.8852 80.1816 20.0719 80.0531C20.2587 79.9246 20.405 79.7455 20.4937 79.5368C20.5824 79.3282 20.6098 79.0985 20.5727 78.8749C20.5356 78.6512 20.4355 78.4427 20.2842 78.2739C20.0569 78.0547 19.7547 77.9303 19.439 77.9258C19.1225 77.9261 18.8188 78.0512 18.5939 78.2739C18.4802 78.3833 18.3897 78.5146 18.328 78.6598C18.2662 78.805 18.2344 78.9612 18.2344 79.119C18.2344 79.2769 18.2662 79.433 18.328 79.5783C18.3897 79.7235 18.4802 79.8548 18.5939 79.9642C18.8188 80.1869 19.1225 80.3119 19.439 80.3122V80.2625Z" fill="white"/>
<path d="M9.277 52.5107L9.36649 52.4013L9.5753 52.1328L9.65484 51.934C9.74702 51.7319 9.78144 51.5082 9.75428 51.2877C9.75097 50.9825 9.62984 50.6903 9.4162 50.4723L9.17756 50.2834C8.99885 50.181 8.79685 50.1262 8.59091 50.1243C8.37378 50.1028 8.15475 50.137 7.95453 50.2237C7.77733 50.2847 7.61716 50.387 7.4872 50.522L7.37782 50.6016C7.24684 50.7311 7.14393 50.8863 7.0755 51.0574C7.00708 51.2284 6.9746 51.4117 6.98009 51.5959C6.9769 51.7798 7.01044 51.9624 7.07874 52.1332C7.14703 52.3039 7.24871 52.4593 7.37782 52.5902C7.50204 52.7138 7.64942 52.8117 7.81151 52.8782C7.9736 52.9448 8.14722 52.9787 8.32244 52.978C8.50623 52.9879 8.69001 52.9584 8.86149 52.8915C9.03297 52.8247 9.18819 52.7219 9.31677 52.5902L9.277 52.5107Z" fill="white"/>
<path d="M19.9657 49.3686C20.297 49.3639 20.6138 49.2322 20.8507 49.0007C21.0255 48.8255 21.1446 48.6025 21.1927 48.3597C21.2409 48.1169 21.2161 47.8653 21.1215 47.6366C21.0268 47.4079 20.8665 47.2124 20.6608 47.0747C20.4551 46.937 20.2133 46.8633 19.9657 46.8629C19.8012 46.8629 19.6383 46.8953 19.4863 46.9583C19.3343 47.0212 19.1962 47.1135 19.0798 47.2299C18.9635 47.3462 18.8712 47.4843 18.8083 47.6363C18.7453 47.7883 18.7129 47.9512 18.7129 48.1158C18.718 48.4465 18.8517 48.7622 19.0855 48.996C19.3194 49.2299 19.6351 49.3635 19.9657 49.3686Z" fill="white"/>
<path d="M29.5817 16.5755C29.5817 16.5755 29.6612 16.7744 29.7109 16.8738L29.7606 17.2019C29.7606 17.3113 29.7606 17.4207 29.7109 17.5301L29.5817 17.8184V17.7588C29.6879 17.5748 29.7439 17.3662 29.7442 17.1539C29.7445 16.9415 29.689 16.7327 29.5833 16.5485C29.4776 16.3643 29.3254 16.211 29.1419 16.1041C28.9584 15.9972 28.75 15.9403 28.5376 15.9391C28.1822 15.9494 27.8443 16.0953 27.593 16.3468C27.4701 16.4891 27.3785 16.6556 27.3241 16.8356C27.2696 17.0156 27.2536 17.2049 27.2771 17.3915C27.3005 17.578 27.3629 17.7576 27.4601 17.9185C27.5574 18.0794 27.6873 18.2181 27.8416 18.3255C28.1442 18.4945 28.5001 18.5407 28.8359 18.4548C29.1521 18.3552 29.4231 18.1475 29.6015 17.8682C29.7122 17.6707 29.7702 17.4482 29.7702 17.2218C29.7702 16.9955 29.7122 16.773 29.6015 16.5755H29.5817Z" fill="white"/>
<path d="M50.1943 41.6327C50.3432 41.3977 50.4225 41.1253 50.423 40.8471C50.4215 40.5201 50.2931 40.2064 50.065 39.9721C49.8295 39.7521 49.5221 39.6249 49.1999 39.6142C48.9169 39.6122 48.6397 39.6953 48.4045 39.8528C48.234 39.9546 48.0891 40.0939 47.9807 40.2602C47.8724 40.4265 47.8035 40.6154 47.7793 40.8125C47.755 41.0095 47.7762 41.2094 47.8411 41.397C47.906 41.5846 48.0129 41.7549 48.1536 41.8949C48.2944 42.0349 48.4653 42.1408 48.6532 42.2047C48.8412 42.2685 49.0412 42.2885 49.2381 42.2632C49.435 42.2379 49.6235 42.168 49.7892 42.0587C49.9549 41.9494 50.0935 41.8037 50.1943 41.6327Z" fill="white"/>
<path d="M39.8531 64.562L39.5647 64.6813C39.6782 64.6452 39.7881 64.5986 39.8929 64.5421C40.0521 64.449 40.1883 64.321 40.2911 64.1678C40.3939 64.0146 40.4608 63.8402 40.4866 63.6575C40.5124 63.4748 40.4966 63.2886 40.4402 63.1129C40.3839 62.9372 40.2886 62.7766 40.1613 62.6429C40.0309 62.5111 39.8717 62.4113 39.6963 62.3512C39.5209 62.2911 39.334 62.2723 39.1501 62.2964C38.9663 62.3204 38.7905 62.3867 38.6364 62.4899C38.4824 62.5931 38.3543 62.7306 38.2622 62.8915C38.1399 63.096 38.0746 63.3294 38.0732 63.5677C38.078 63.7735 38.1364 63.9746 38.2426 64.1509C38.3489 64.3273 38.4993 64.4729 38.6791 64.5733C38.8588 64.6737 39.0617 64.7255 39.2676 64.7235C39.4735 64.7215 39.6753 64.6659 39.8531 64.562Z" fill="white"/>
<path d="M56.2093 64.0052C56.5441 63.9763 56.8559 63.8229 57.0831 63.5753C57.3102 63.3277 57.4363 63.0039 57.4363 62.6678C57.4363 62.3318 57.3102 62.008 57.0831 61.7604C56.8559 61.5127 56.5441 61.3593 56.2093 61.3304C55.8746 61.3593 55.5628 61.5127 55.3356 61.7604C55.1085 62.008 54.9824 62.3318 54.9824 62.6678C54.9824 63.0039 55.1085 63.3277 55.3356 63.5753C55.5628 63.8229 55.8746 63.9763 56.2093 64.0052Z" fill="#F7B9E7"/>
<path d="M16.1981 32.1368C16.5702 32.1275 16.9252 31.9784 17.1924 31.7192C17.4455 31.45 17.5864 31.0944 17.5864 30.7249C17.5864 30.3554 17.4455 29.9998 17.1924 29.7305C16.9252 29.4714 16.5702 29.3223 16.1981 29.3129C15.8268 29.326 15.4731 29.4746 15.2038 29.7305C14.9429 29.9966 14.7935 30.3523 14.7861 30.7249C14.7955 31.097 14.9446 31.452 15.2038 31.7192C15.4731 31.9752 15.8268 32.1237 16.1981 32.1368Z" fill="#F7B9E7"/>
<path d="M72.0994 85.791V85.7214L72.2485 85.3833C72.2978 85.1942 72.2978 84.9957 72.2485 84.8066C72.2093 84.4985 72.0695 84.2119 71.8508 83.9913C71.6708 83.82 71.4527 83.6939 71.2144 83.6234C70.8451 83.5342 70.4559 83.5838 70.1207 83.7626L70.0411 83.8222C69.8249 83.9442 69.6461 84.123 69.5241 84.3393C69.3938 84.559 69.3251 84.8097 69.3252 85.0651C69.3419 85.4376 69.4939 85.7911 69.7528 86.0595C70.0205 86.3178 70.3752 86.4668 70.7471 86.4771C70.9985 86.4756 71.2453 86.4089 71.4631 86.2834C71.681 86.1579 71.8626 85.9779 71.99 85.7612L72.0994 85.791Z" fill="#F7B9E7"/>
<path d="M69.9611 12.2402C70.3189 12.2103 70.6525 12.047 70.8956 11.7827C71.1387 11.5185 71.2737 11.1725 71.2737 10.8133C71.2737 10.4542 71.1387 10.1082 70.8956 9.84394C70.6525 9.57966 70.3189 9.41637 69.9611 9.38647C69.6032 9.41637 69.2696 9.57966 69.0265 9.84394C68.7834 10.1082 68.6484 10.4542 68.6484 10.8133C68.6484 11.1725 68.7834 11.5185 69.0265 11.7827C69.2696 12.047 69.6032 12.2103 69.9611 12.2402Z" fill="#F7B9E7"/>
<path d="M95.2371 53.1769C95.4741 53.1812 95.7085 53.1266 95.9192 53.018C96.1299 52.9094 96.3103 52.7502 96.4443 52.5546C96.5783 52.3591 96.6617 52.1334 96.6869 51.8977C96.7121 51.662 96.6784 51.4237 96.5888 51.2042C96.4993 50.9848 96.3566 50.791 96.1736 50.6402C95.9907 50.4895 95.7732 50.3866 95.5406 50.3406C95.3081 50.2947 95.0678 50.3072 94.8413 50.377C94.6147 50.4469 94.4091 50.5719 94.2428 50.7408C93.9802 51.0057 93.8305 51.3621 93.8252 51.7351C93.8252 52.1122 93.975 52.4739 94.2417 52.7406C94.5083 53.0072 94.87 53.157 95.2471 53.157L95.2371 53.1769Z" fill="#F7B9E7"/>
<path d="M53.5744 79.994C53.9542 79.994 54.3184 79.8432 54.5869 79.5747C54.8554 79.3062 55.0063 78.942 55.0063 78.5622C55.0063 78.1825 54.8554 77.8183 54.5869 77.5497C54.3184 77.2812 53.9542 77.1304 53.5744 77.1304C53.1947 77.1304 52.8305 77.2812 52.562 77.5497C52.2934 77.8183 52.1426 78.1825 52.1426 78.5622C52.1426 78.942 52.2934 79.3062 52.562 79.5747C52.8305 79.8432 53.1947 79.994 53.5744 79.994Z" fill="#F7B9E7"/>
</g>
<defs>
<clipPath id="clip0_1972_5029">
<rect width="100" height="100" fill="white"/>
</clipPath>
</defs>
</svg>
