<svg width="100" height="100" viewBox="0 0 100 100" fill="none" xmlns="http://www.w3.org/2000/svg">
<g clip-path="url(#clip0_1972_5028)">
<path d="M49.995 99.9901C77.6065 99.9901 99.9901 77.6065 99.9901 49.995C99.9901 22.3835 77.6065 0 49.995 0C22.3835 0 0 22.3835 0 49.995C0 77.6065 22.3835 99.9901 49.995 99.9901Z" fill="#35208A"/>
<path d="M80.3121 30.3968C80.0535 26.9365 77.3291 23.6751 75.0719 21.2688C73.1529 19.2801 70.7764 16.7346 67.8034 16.8241C67.2963 16.8241 65.9738 16.8241 65.8147 17.55C65.6556 18.2758 67.2963 18.9918 67.6741 19.3895C68.4767 20.0525 69.0248 20.9731 69.2253 21.9947C69.1529 23.0709 68.9078 24.1285 68.4994 25.1268C68.3168 25.6344 68.2395 26.1738 68.2719 26.7123C68.3044 27.2507 68.4461 27.777 68.6883 28.2589C69.3589 29.4622 70.2183 30.5499 71.2338 31.4806C71.7708 32.0175 72.3375 32.5346 72.9043 33.0417C73.2225 33.33 74.2765 33.9565 74.3759 34.3641C74.5648 35.09 70.6869 35.0204 70.0804 35.0403C69.482 35.0382 68.8852 35.1015 68.3005 35.2292C67.1968 35.5176 66.3715 36.2235 65.1386 35.8358C63.9056 35.448 63.2195 34.4735 62.2948 33.8471C61.3793 33.2188 60.556 32.4658 59.8487 31.6098C58.924 30.4763 57.8601 30.009 56.7365 31.0828C56.2099 31.6169 55.7308 32.1958 55.3046 32.813C53.8818 32.0642 52.3158 31.6269 50.7108 31.5303C48.394 31.2519 46.2164 31.0431 44.2377 32.5246H44.178C43.8514 31.9321 43.4826 31.3639 43.0743 30.8243C42.2291 29.7803 41.2646 29.83 40.2504 30.6453C39.4989 31.3391 38.6717 31.9461 37.7845 32.455C36.9095 32.9124 36.1041 33.4494 35.2489 33.9366C34.682 34.2567 34.033 34.402 33.3837 34.3542C32.7344 34.3064 32.1137 34.0677 31.5997 33.6681C31.1671 33.4048 30.6931 33.2166 30.1977 33.1113C28.915 32.7931 27.5826 32.7633 26.3099 32.3954C25.9794 32.3278 25.6631 32.2033 25.3752 32.0275C24.9874 31.7192 24.9477 31.8584 25.2957 31.5402C25.8755 31.0863 26.4869 30.6743 27.1252 30.3073C28.3271 29.5184 29.4582 28.6268 30.506 27.6425C31.37 26.92 31.9884 25.9472 32.2759 24.8583C32.5543 23.2077 31.381 21.4279 32.0074 19.8171C32.5032 18.8524 33.2526 18.0411 34.1751 17.4704C34.6696 17.2671 35.1454 17.0209 35.597 16.7346C36.1438 16.2375 35.8058 15.8198 35.239 15.5414C32.5642 14.2488 30.0386 15.9491 27.8909 17.4108C25.0173 19.3994 22.0243 21.9748 20.4533 25.1367C19.7314 26.4635 19.5058 28.004 19.8169 29.482C20.3572 31.1066 21.2619 32.5861 22.4618 33.8073C23.7568 35.3616 25.2284 36.7597 26.8468 37.9736C28.3383 39.0673 30.2077 40.2804 32.1367 40.0915C34.0657 39.9026 35.8356 38.7094 37.3271 37.7449C38.1761 37.1885 38.9928 36.5843 39.7731 35.9352C40.2368 35.4892 40.7585 35.1079 41.3243 34.8017C41.5744 34.6809 41.8564 34.6426 42.1297 34.6923C41.0985 36.0948 40.2747 37.6387 39.6837 39.2761C39.0175 39.4154 38.3612 39.5645 37.695 39.7435C35.7229 40.2133 33.9047 41.1823 32.4151 42.5574C30.8142 44.1484 29.9293 46.3061 28.388 47.9467C27.6062 48.7919 26.6251 49.4278 25.5343 49.7962C24.7886 50.0448 24.6891 49.7962 24.1522 49.3189C23.7547 48.8995 23.2642 48.5793 22.7204 48.3842C22.5651 48.3449 22.4022 48.3465 22.2478 48.389C22.0933 48.4315 21.9525 48.5134 21.8393 48.6267C21.726 48.74 21.6441 48.8808 21.6016 49.0352C21.559 49.1897 21.5574 49.3525 21.5968 49.5078C21.9705 50.6065 22.6934 51.5528 23.655 52.2025C24.709 52.8786 26.0414 52.3715 27.0755 51.934C29.5415 50.88 31.0529 48.8913 32.4847 46.7336C33.6583 44.6991 35.5478 43.1748 37.7845 42.458C38.1027 42.3586 38.4308 42.279 38.7788 42.1995C38.3026 44.1005 37.9998 46.0407 37.874 47.9964C34.7319 48.9908 31.8384 51.7152 30.0884 54.2408C29.5302 55.2132 28.9021 56.1437 28.2091 57.025C27.4455 57.7582 26.5607 58.3537 25.594 58.7849C25.2421 59.0396 24.8222 59.1833 24.3881 59.1975C23.954 59.2117 23.5255 59.0957 23.1579 58.8645C22.7841 58.6301 22.3593 58.4895 21.9195 58.4549C21.4797 58.4203 21.038 58.4926 20.6323 58.6656C19.8865 58.9938 20.0555 60.0477 20.6323 60.4256C22.0541 61.3503 23.9036 62.3148 25.6039 61.6586C27.6368 60.9435 29.4282 59.6723 30.7744 57.9895C32.087 56.1997 33.0614 54.39 34.7518 52.9184C35.6646 52.182 36.6669 51.5639 37.7348 51.0789C37.7348 52.5604 37.7348 54.0619 37.8541 55.5136C37.8541 55.961 37.9137 56.4085 37.9535 56.8559C35.8799 58.2054 34.0113 59.8463 32.4051 61.7282C31.0774 63.3686 29.4299 64.7218 27.5627 65.7055C27.1189 65.9528 26.6192 66.0826 26.111 66.0826C25.6029 66.0826 25.1032 65.9528 24.6593 65.7055C23.6289 65.2377 22.5429 64.9035 21.4277 64.7112C20.6919 64.6217 20.324 65.7055 20.8311 66.1529C21.76 66.8949 22.779 67.5163 23.8638 68.0024C24.7052 68.5365 25.6927 68.7938 26.6877 68.7382C28.8156 68.4697 31.0031 66.8589 32.5543 65.447C34.1055 64.035 35.5373 62.0364 37.3171 60.6046C37.6154 60.3659 37.9237 60.1472 38.2319 59.9384C38.5639 62.925 39.1731 65.8744 40.0516 68.7482C41.0459 71.8107 42.6468 74.9428 45.7193 76.2852C46.4314 76.5846 47.1865 76.7692 47.9565 76.8321C47.8751 77.1941 47.8384 77.5648 47.8471 77.9358C47.9267 79.3179 48.6625 80.9188 50.154 81.1574C50.4854 81.2278 50.8299 81.2036 51.1483 81.0878C51.4514 81.6718 51.8734 82.1858 52.3872 82.5968C52.9009 83.0078 53.4951 83.3067 54.1313 83.4742C54.4596 83.5391 54.7974 83.5391 55.1256 83.4742C55.1985 83.6567 55.3029 83.825 55.4339 83.9714C56.0207 84.5139 56.7689 84.8494 57.5644 84.9266C58.3598 85.0038 59.1586 84.8185 59.8388 84.3989C60.1243 84.1728 60.3384 83.8689 60.4553 83.5239C61.1919 83.8824 62.0357 83.9533 62.8218 83.7228C64.1939 83.3052 65.9738 81.7341 65.7252 80.1631C67.1272 80.2426 68.2409 78.6815 68.9369 77.6574C69.4473 76.9981 69.7634 76.2094 69.8494 75.3802C69.9355 74.5509 69.7882 73.7141 69.4241 72.9641C69.2198 72.632 68.9224 72.3673 68.5688 72.2028C68.2152 72.0384 67.8211 71.9816 67.4355 72.0394C65.9049 72.367 64.4073 72.8329 62.961 73.4315C62.9199 73.4474 62.8847 73.4755 62.8598 73.5118C62.8349 73.5482 62.8216 73.5912 62.8216 73.6353C62.8216 73.6794 62.8349 73.7224 62.8598 73.7588C62.8847 73.7951 62.9199 73.8231 62.961 73.8391C63.8289 74.4705 64.8709 74.8178 65.944 74.8335C65.3717 75.1478 64.8682 75.5738 64.4634 76.0862C64.0586 76.5986 63.7608 77.1869 63.5874 77.8165C63.5221 78.0843 63.5221 78.364 63.5874 78.6318C62.0064 78.7909 60.0874 79.2384 59.4908 80.8193C59.0004 80.4888 58.4425 80.2718 57.8577 80.184C57.2728 80.0963 56.6758 80.1401 56.11 80.3122C55.7754 79.7942 55.338 79.3504 54.8249 79.0083C54.3118 78.6663 53.7339 78.4332 53.127 78.3236C52.9351 78.3085 52.7423 78.3085 52.5503 78.3236C52.3912 77.5242 52.113 76.7533 51.725 76.0366C52.5073 75.5879 53.1139 74.8867 53.4452 74.0479C54.9268 70.3888 54.3202 66.3319 54.4395 62.4938C54.4343 62.4376 54.4343 62.381 54.4395 62.3248C54.5887 62.4242 54.7379 62.5236 54.887 62.643C56.7762 64.0748 58.1385 65.9939 59.8587 67.5649C61.4451 69.1299 63.4233 70.2393 65.586 70.7766C66.558 70.8848 67.5382 70.6643 68.3701 70.1502C69.5394 69.615 70.63 68.9225 71.6117 68.0919C72.2978 67.4555 71.5421 66.5706 70.7963 66.6799C69.6909 66.9413 68.6221 67.3388 67.6145 67.8632C67.1811 68.0966 66.6928 68.2088 66.201 68.1878C65.7092 68.1668 65.2323 68.0134 64.8204 67.7439C62.9614 66.7479 61.3162 65.3965 59.978 63.7665C58.4289 62.0247 56.6491 60.5026 54.6881 59.2423C54.8273 57.373 55.0163 55.4937 55.2251 53.6244C56.0243 54.0116 56.7808 54.4815 57.4822 55.0264C59.0694 56.4851 60.4449 58.1585 61.5689 59.998C62.8669 61.638 64.585 62.8957 66.5406 63.6373C68.4099 64.4427 70.2594 63.5776 71.8503 62.5137C72.4171 62.1358 72.6159 61.0719 71.8503 60.7438C71.4727 60.5828 71.0625 60.5133 70.653 60.5409C70.2434 60.5686 69.8462 60.6926 69.4937 60.9029C69.1284 61.1262 68.7334 61.2969 68.3204 61.41C67.751 61.3793 67.2024 61.1861 66.7394 60.8532C65.7741 60.4169 64.8951 59.8106 64.1442 59.0634C63.4681 58.1768 62.8407 57.254 62.2649 56.2991C60.5484 53.8991 58.2488 51.9759 55.583 50.711C55.6825 49.9652 55.772 49.2195 55.8813 48.4737C56.0106 47.4794 56.1697 46.4851 56.3188 45.4907C57.8007 46.3886 59.048 47.6257 59.9581 49.1001C61.38 51.1684 62.8715 53.0775 65.2479 54.0718C66.3019 54.5093 67.6642 55.0661 68.7281 54.3502C69.6603 53.6774 70.3563 52.7274 70.7168 51.6357C70.7554 51.4814 70.7536 51.3198 70.7115 51.1664C70.6694 51.013 70.5885 50.8731 70.4765 50.7601C70.3645 50.6472 70.2253 50.565 70.0723 50.5215C69.9194 50.4781 69.7577 50.4748 69.6031 50.5121C69.1213 50.6716 68.6849 50.9444 68.3304 51.3076C68.052 51.5561 67.6542 52.0732 67.336 52.113C66.4113 52.2422 64.9298 51.1186 64.353 50.5419C62.6428 48.9709 61.7379 46.7336 60.1271 45.0433C59.1568 44.0626 58.0008 43.2851 56.7265 42.7563C56.7265 42.5177 56.7961 42.2691 56.8359 42.0304C57.2046 39.9741 57.3247 37.881 57.1939 35.796C57.1721 35.6085 57.1389 35.4226 57.0944 35.2392C57.5002 35.261 57.8998 35.3483 58.2777 35.4977C58.6045 35.7965 58.8979 36.1299 59.1527 36.492C59.8161 37.2331 60.5233 37.9337 61.2706 38.5901C62.5184 39.7741 63.9402 40.7599 65.4866 41.5134C68.6088 42.8657 72.4469 40.2705 74.7836 38.4508C77.3191 36.4821 80.5905 33.9565 80.3121 30.3968Z" fill="#96CBEB"/>
<path d="M78.0752 33.8073C77.2641 34.1336 76.3731 34.2064 75.5198 34.0161C75.1817 33.9366 75.0326 34.4636 75.3706 34.5332C76.3171 34.7493 77.3074 34.6659 78.2045 34.2945C78.5028 34.1653 78.3835 33.6781 78.0752 33.8073Z" fill="#35208A"/>
<path d="M67.058 41.1057C66.4855 39.6388 66.2477 38.0626 66.3619 36.492C66.3619 36.154 65.8648 36.1639 65.8349 36.492C65.6536 38.1314 65.9253 39.789 66.6205 41.2847C66.6484 41.3334 66.6932 41.3701 66.7464 41.3879C66.7996 41.4057 66.8574 41.4033 66.909 41.3812C66.9606 41.3591 67.0022 41.3189 67.026 41.2681C67.0498 41.2173 67.0541 41.1595 67.0381 41.1057H67.058Z" fill="#35208A"/>
<path d="M67.0474 54.221C67.2563 53.9923 67.0474 53.6045 67.0474 53.3261C67.0411 52.8865 66.9673 52.4506 66.8287 52.0334C66.8122 52.0045 66.7883 51.9804 66.7595 51.9637C66.7307 51.947 66.6979 51.9382 66.6646 51.9382C66.6313 51.9382 66.5986 51.947 66.5698 51.9637C66.541 51.9804 66.5171 52.0045 66.5006 52.0334C66.3766 52.5568 66.4183 53.1058 66.6199 53.6045C66.6199 53.6045 66.8784 54.4496 67.0773 54.221H67.0474Z" fill="#35208A"/>
<path d="M62.1761 51.397C62.4744 51.397 62.6832 50.9893 62.8323 50.7805L63.1803 50.2535C63.2663 50.1069 63.3332 49.9498 63.3792 49.7862L63.2599 49.9453H63.071L62.9715 49.8558L63.1803 49.5873C63.0113 49.5873 62.9119 49.816 63.0411 49.9254C63.0668 49.951 63.0987 49.9695 63.1337 49.9791C63.1687 49.9886 63.2055 49.9889 63.2406 49.9799C63.2758 49.9708 63.3079 49.9528 63.334 49.9276C63.36 49.9023 63.379 49.8707 63.3891 49.8359C63.4087 49.7939 63.4188 49.7481 63.4188 49.7017C63.4188 49.6553 63.4087 49.6095 63.3891 49.5675C63.3698 49.5293 63.3397 49.4977 63.3026 49.4765C63.2655 49.4553 63.223 49.4454 63.1803 49.4481C63.1155 49.4427 63.0507 49.4595 62.9965 49.4956C62.9424 49.5317 62.902 49.585 62.882 49.647C62.7832 49.8694 62.6703 50.0853 62.544 50.2933C62.3849 50.5518 61.9672 51.0391 62.1263 51.3473C62.1357 51.3517 62.1459 51.354 62.1562 51.354C62.1665 51.354 62.1767 51.3517 62.186 51.3473L62.1761 51.397Z" fill="#35208A"/>
<path d="M68.2215 63.5677C68.3209 63.2395 68.3806 62.9114 68.4502 62.5733C68.5503 62.3 68.5777 62.0053 68.5297 61.7182C68.5191 61.6861 68.5005 61.6573 68.4757 61.6344C68.4508 61.6115 68.4206 61.5953 68.3877 61.5873C68.3549 61.5794 68.3206 61.5799 68.288 61.5889C68.2554 61.5979 68.2257 61.615 68.2016 61.6387C68.0359 61.8939 67.943 62.1896 67.9331 62.4938C67.8734 62.8319 67.8038 63.16 67.774 63.4881C67.7442 63.8163 68.1519 63.7864 68.2215 63.5478V63.5677Z" fill="#35208A"/>
<path d="M61.2206 59.113C61.5189 59.113 61.6879 58.6556 61.837 58.4369C62.1254 58.1194 62.3976 57.7875 62.6524 57.4426C62.6747 57.3994 62.6827 57.3503 62.6753 57.3024C62.6679 57.2544 62.6454 57.21 62.611 57.1757C62.5767 57.1414 62.5323 57.1188 62.4844 57.1114C62.4364 57.104 62.3873 57.112 62.3442 57.1343C61.9233 57.4357 61.582 57.835 61.3498 58.2977C61.3001 58.3772 60.8825 59.123 61.2106 59.113H61.2206Z" fill="#35208A"/>
<path d="M66.9481 70.5081C66.9676 70.2234 66.9676 69.9377 66.9481 69.653C66.9364 69.4024 66.8896 69.1547 66.8089 68.9172C66.7094 68.6885 66.4012 68.8376 66.3813 69.0365C66.3767 69.288 66.4068 69.5389 66.4708 69.7822C66.4987 70.0576 66.5486 70.3302 66.62 70.5976C66.62 70.6424 66.6378 70.6854 66.6695 70.7171C66.7012 70.7488 66.7442 70.7666 66.789 70.7666C66.8338 70.7666 66.8768 70.7488 66.9085 70.7171C66.9402 70.6854 66.958 70.6424 66.958 70.5976L66.9481 70.5081Z" fill="#35208A"/>
<path d="M59.9586 67.3561C60.1145 66.8996 60.2114 66.4251 60.247 65.9441C60.4148 65.5348 60.4896 65.0933 60.4657 64.6515C60.4585 64.6242 60.4441 64.5993 60.4241 64.5794C60.4041 64.5595 60.3792 64.5453 60.3518 64.5382C60.3245 64.5311 60.2958 64.5314 60.2686 64.5391C60.2414 64.5468 60.2168 64.5615 60.1972 64.5819C59.8592 64.8603 59.8095 65.4768 59.7299 65.8944C59.5923 66.3558 59.5684 66.8437 59.6603 67.3163C59.6754 67.341 59.6966 67.3614 59.7218 67.3755C59.7471 67.3897 59.7755 67.3971 59.8045 67.3971C59.8334 67.3971 59.8619 67.3897 59.8871 67.3755C59.9124 67.3614 59.9336 67.341 59.9487 67.3163L59.9586 67.3561Z" fill="#35208A"/>
<path d="M44.2679 36.1837C44.1336 36.1763 44.0022 36.1418 43.8817 36.0822C43.7611 36.0226 43.6539 35.9391 43.5665 35.8369C43.4792 35.7346 43.4134 35.6157 43.3733 35.4873C43.3332 35.3589 43.3196 35.2238 43.3333 35.09C43.3406 34.9557 43.3752 34.8243 43.4348 34.7037C43.4944 34.5831 43.5779 34.4759 43.6801 34.3886C43.7824 34.3012 43.9013 34.2355 44.0297 34.1954C44.158 34.1553 44.2932 34.1416 44.427 34.1553C44.6907 34.1764 44.9353 34.3014 45.1068 34.5028C45.2784 34.7042 45.3629 34.9654 45.3418 35.2292C45.3207 35.4929 45.1957 35.7374 44.9943 35.909C44.7929 36.0805 44.5316 36.165 44.2679 36.1439V36.1837Z" fill="#35208A"/>
<path d="M54.579 36.9792C54.3184 36.9516 54.0793 36.8223 53.9136 36.6193C53.7479 36.4164 53.669 36.1562 53.694 35.8954C53.7119 35.7011 53.7865 35.5163 53.9087 35.3641C54.0308 35.2119 54.195 35.099 54.3809 35.0395C54.5667 34.98 54.7659 34.9765 54.9538 35.0294C55.1416 35.0823 55.3097 35.1893 55.4372 35.3371C55.5646 35.4849 55.6457 35.6669 55.6705 35.8604C55.6952 36.054 55.6624 36.2506 55.5762 36.4257C55.49 36.6007 55.3542 36.7466 55.1857 36.845C55.0173 36.9434 54.8235 36.9901 54.6287 36.9792H54.579Z" fill="#35208A"/>
<path d="M47.7279 33.1013C47.7636 33.1182 47.8027 33.1269 47.8422 33.1269C47.8817 33.1269 47.9208 33.1182 47.9566 33.1013C48.3951 32.7219 48.9577 32.5167 49.5375 32.5246C50.1504 32.6283 50.7068 32.9453 51.1086 33.4195C51.15 33.452 51.2011 33.4698 51.2537 33.4702C51.3064 33.4707 51.3577 33.4537 51.3997 33.4219C51.4417 33.3901 51.472 33.3453 51.4859 33.2946C51.4997 33.2438 51.4965 33.1898 51.4765 33.1411C50.8898 31.7391 48.7222 31.7391 47.7279 32.813C47.7009 32.8526 47.6865 32.8993 47.6865 32.9472C47.6865 32.9951 47.7009 33.0419 47.7279 33.0814V33.1013Z" fill="#35208A"/>
<path d="M39.9421 40.1611C41.4535 42.2293 44.7149 42.4779 47.0417 42.7961C48.5717 43.003 50.1119 43.1258 51.6554 43.164C53.2546 43.3178 54.8684 43.1797 56.4182 42.7563C56.7464 42.637 56.6072 42.1 56.2691 42.2293C53.7236 43.1341 50.4224 42.7066 47.7874 42.3884C45.3613 42.1 42.0402 41.8713 40.3101 39.9324C40.141 39.7335 39.7831 40.002 39.9421 40.2108V40.1611Z" fill="#35208A"/>
<path d="M38.3815 48.2848C39.4933 49.0639 40.7572 49.5993 42.0904 49.8558C43.5253 50.24 44.9937 50.4863 46.4754 50.5916C48.0047 50.6978 49.541 50.6445 51.0593 50.4325C52.4968 50.3272 53.9042 49.967 55.2156 49.3686C55.4343 49.2493 55.2752 48.9709 55.0664 49.0007C53.5749 49.2194 52.153 49.7564 50.6416 49.9354C49.3219 50.0906 47.991 50.1305 46.6643 50.0547C45.2274 49.9721 43.802 49.7489 42.4086 49.3885C41.0861 49.0504 39.7835 48.3345 38.4312 48.1257C38.3418 48.1257 38.2523 48.2152 38.3418 48.2848H38.3815Z" fill="#35208A"/>
<path d="M38.322 56.0406C40.4399 57.6116 43.5621 58.1585 46.1275 58.3474C48.6929 58.5364 51.9344 58.4568 54.2015 57.2437C54.4302 57.1244 54.2612 56.836 54.0424 56.8659C52.71 57.0647 51.4273 57.542 50.0651 57.7111C48.7455 57.8707 47.4137 57.904 46.0877 57.8105C44.7428 57.706 43.4109 57.4729 42.1104 57.1145C40.8476 56.7664 39.6644 56.1798 38.4115 55.8119C38.2723 55.8119 38.2126 55.961 38.3121 56.0406H38.322Z" fill="#35208A"/>
<path d="M39.1568 64.0251C39.6142 64.8106 40.708 64.8504 41.5233 65.0194C42.8408 65.2211 44.1688 65.3473 45.5007 65.3973C48.3385 65.4833 51.1763 65.2263 53.9525 64.6316C54.3005 64.562 54.1514 64.0549 53.8133 64.1146C51.2848 64.5796 48.7178 64.8027 46.147 64.7808C43.8181 64.8779 41.4916 64.5407 39.2861 63.7864C39.1867 63.7864 39.1071 63.8759 39.1568 63.9555V64.0251Z" fill="#35208A"/>
<path d="M41.6528 72.2084C43.7332 72.7985 45.8969 73.0404 48.0563 72.9243C49.0371 72.8766 50.0138 72.7637 50.9796 72.5863C51.5563 72.4669 52.133 72.3377 52.6998 72.1686L53.545 71.9101C53.9328 71.9101 54.062 71.7709 53.9328 71.4527C53.7538 71.5422 53.8532 71.7908 54.0223 71.8007H54.1018C54.1453 71.7999 54.1873 71.7849 54.2214 71.758C54.2555 71.7311 54.2799 71.6937 54.2907 71.6516V71.5621C54.3059 71.5015 54.2967 71.4373 54.2651 71.3834C54.2335 71.3295 54.182 71.2901 54.1217 71.2737C53.4555 71.1345 52.7296 71.582 52.133 71.761C50.9474 72.0724 49.736 72.2754 48.5137 72.3675C46.2444 72.5014 43.968 72.2902 41.7622 71.7411C41.7315 71.7326 41.6994 71.7302 41.6678 71.7341C41.6362 71.738 41.6057 71.7481 41.578 71.7638C41.5221 71.7955 41.481 71.8481 41.4639 71.9101C41.4467 71.9721 41.4549 72.0383 41.4866 72.0943C41.5183 72.1502 41.5709 72.1913 41.6329 72.2084H41.6528Z" fill="#35208A"/>
<path d="M51.6452 80.8094C51.8042 80.521 51.8937 80.1929 52.0429 79.9046C52.2177 79.6441 52.3739 79.3717 52.5102 79.0892C52.5186 79.0471 52.515 79.0034 52.4998 78.9633C52.4846 78.9231 52.4583 78.888 52.4241 78.8621C52.3898 78.8361 52.349 78.8204 52.3062 78.8166C52.2634 78.8128 52.2204 78.8211 52.1821 78.8406C51.9151 79.0755 51.7159 79.3776 51.6054 79.7156C51.444 80.0233 51.3523 80.3628 51.3369 80.71C51.3382 80.7455 51.3507 80.7797 51.3726 80.8077C51.3944 80.8357 51.4246 80.8562 51.4587 80.8661C51.4928 80.876 51.5292 80.8749 51.5627 80.8629C51.5962 80.851 51.625 80.8288 51.6452 80.7995V80.8094Z" fill="#35208A"/>
<path d="M55.9611 82.7781C56.0489 82.5511 56.122 82.3186 56.1798 82.0821C56.2722 81.826 56.3958 81.5822 56.5477 81.3563C56.7366 81.0778 56.2793 80.8193 56.1003 81.0977C55.737 81.5634 55.5662 82.1506 55.623 82.7384C55.6387 82.7698 55.6628 82.7962 55.6927 82.8147C55.7225 82.8331 55.7569 82.8429 55.792 82.8429C55.8271 82.8429 55.8616 82.8331 55.8914 82.8147C55.9213 82.7962 55.9454 82.7698 55.9611 82.7384V82.7781Z" fill="#35208A"/>
<path d="M60.4552 82.8776C60.3756 82.4225 60.2626 81.9738 60.1171 81.5353C60.0986 81.4707 60.0553 81.416 59.9965 81.3834C59.9378 81.3508 59.8685 81.3428 59.8039 81.3612C59.7393 81.3797 59.6846 81.4231 59.652 81.4818C59.6194 81.5406 59.6114 81.6099 59.6299 81.6745C59.7195 82.1324 59.8493 82.5816 60.0177 83.0168C60.0391 83.068 60.0784 83.1096 60.1283 83.1339C60.1782 83.1583 60.2352 83.1636 60.2887 83.149C60.3423 83.1344 60.3887 83.1009 60.4193 83.0546C60.4499 83.0083 60.4627 82.9525 60.4552 82.8975V82.8776Z" fill="#35208A"/>
<path d="M64.0749 78.7312C64.3433 78.9699 64.6218 79.1886 64.9002 79.4173C65.1205 79.653 65.3882 79.8394 65.6857 79.9642C65.7254 79.9737 65.7671 79.9712 65.8055 79.9572C65.8439 79.9432 65.8773 79.9183 65.9016 79.8855C65.926 79.8527 65.9402 79.8134 65.9424 79.7726C65.9447 79.7318 65.9349 79.6913 65.9144 79.656C65.7195 79.3786 65.4689 79.1449 65.1786 78.9699C64.9201 78.7611 64.6516 78.5423 64.3831 78.3435C64.1146 78.1446 63.8661 78.5423 64.0749 78.7312Z" fill="#35208A"/>
<path d="M66.3619 75.1914C66.6736 75.1933 66.9825 75.1317 67.2697 75.0103C67.5569 74.8889 67.8164 74.7104 68.0323 74.4855C68.0518 74.4472 68.0602 74.4042 68.0564 74.3614C68.0526 74.3186 68.0368 74.2777 68.0109 74.2435C67.9849 74.2092 67.9499 74.183 67.9097 74.1678C67.8695 74.1525 67.8259 74.1489 67.7838 74.1573C67.5352 74.2369 67.3462 74.4159 67.1076 74.5153C66.8476 74.6235 66.5779 74.7067 66.3022 74.7639C66.2527 74.7793 66.2102 74.8118 66.1825 74.8556C66.1547 74.8994 66.1434 74.9516 66.1505 75.003C66.1577 75.0543 66.1829 75.1015 66.2216 75.136C66.2603 75.1705 66.31 75.1902 66.3619 75.1914Z" fill="#35208A"/>
<path d="M21.3187 31.0231C22.1512 31.5286 23.1221 31.7583 24.0929 31.6794C24.4409 31.6794 24.4409 31.1027 24.0929 31.1325C23.218 31.213 22.3397 31.0221 21.5772 30.5856C21.5205 30.5651 21.4584 30.565 21.4017 30.5853C21.3449 30.6057 21.2971 30.6452 21.2664 30.6971C21.2358 30.749 21.2242 30.81 21.2337 30.8696C21.2433 30.9291 21.2733 30.9834 21.3187 31.0231Z" fill="#35208A"/>
<path d="M31.8781 39.5546C32.7745 38.1684 33.27 36.5613 33.3099 34.911C33.3099 34.573 32.8028 34.573 32.7928 34.911C32.6893 36.4588 32.2408 37.9639 31.4803 39.3159C31.4487 39.3687 31.4393 39.4318 31.4542 39.4915C31.4691 39.5512 31.5071 39.6025 31.5599 39.6341C31.6126 39.6657 31.6758 39.6751 31.7354 39.6602C31.7951 39.6453 31.8464 39.6073 31.8781 39.5546Z" fill="#35208A"/>
<path d="M25.395 52.0831C25.7431 52.0135 25.8027 51.4567 25.8624 51.1584C25.9962 50.7447 25.9962 50.2994 25.8624 49.8857C25.8459 49.8567 25.822 49.8327 25.7932 49.8159C25.7644 49.7992 25.7316 49.7904 25.6983 49.7904C25.665 49.7904 25.6323 49.7992 25.6035 49.8159C25.5747 49.8327 25.5508 49.8567 25.5343 49.8857C25.4409 50.102 25.3967 50.3363 25.405 50.5717C25.3772 50.8754 25.3341 51.1774 25.2757 51.4766C25.2757 51.5362 25.1166 52.1328 25.3652 52.0831H25.395Z" fill="#35208A"/>
<path d="M30.2479 49.1697C30.3971 48.8516 29.9795 48.3643 29.8204 48.1157C29.6613 47.8672 29.6812 47.9069 29.6215 47.7976C29.5618 47.6882 29.542 47.5987 29.4922 47.4993C29.4714 47.4336 29.4304 47.3762 29.375 47.3351C29.3197 47.2941 29.2529 47.2715 29.184 47.2706C29.1406 47.2713 29.098 47.2825 29.0599 47.3033C29.0218 47.3241 28.9894 47.3538 28.9652 47.3899C28.9457 47.4319 28.9355 47.4777 28.9355 47.5241C28.9355 47.5705 28.9457 47.6163 28.9652 47.6584C28.9757 47.694 28.9951 47.7265 29.0216 47.7526C29.0481 47.7787 29.0808 47.7976 29.1166 47.8075C29.1524 47.8175 29.1902 47.8181 29.2263 47.8094C29.2625 47.8007 29.2958 47.783 29.3232 47.7578C29.3541 47.7307 29.3757 47.6946 29.3853 47.6547C29.3948 47.6147 29.3917 47.5728 29.3765 47.5346C29.3612 47.4965 29.3345 47.464 29.3001 47.4416C29.2656 47.4193 29.2251 47.4082 29.184 47.4098L29.3829 47.6782L29.2834 47.7777H29.0945C29.0249 47.7777 29.0945 47.9169 29.0945 47.9268C29.1406 48.0108 29.1938 48.0907 29.2536 48.1655L29.6016 48.6825C29.7508 48.8814 29.9496 49.2592 30.228 49.2493C30.2374 49.2537 30.2476 49.256 30.2579 49.256C30.2682 49.256 30.2784 49.2537 30.2877 49.2493L30.2479 49.1697Z" fill="#35208A"/>
<path d="M24.729 61.3602C24.729 61.0321 24.6196 60.704 24.55 60.3659C24.5414 60.06 24.4447 59.7631 24.2716 59.5108C24.2486 59.4868 24.2196 59.4692 24.1876 59.46C24.1556 59.4508 24.1217 59.4502 24.0894 59.4583C24.0571 59.4664 24.0276 59.4828 24.0037 59.506C23.9798 59.5292 23.9625 59.5583 23.9534 59.5903C23.9042 59.8782 23.9352 60.174 24.0429 60.4455C24.1125 60.7736 24.1722 61.1017 24.2716 61.4398C24.371 61.7779 24.7588 61.6486 24.729 61.3801V61.3602Z" fill="#35208A"/>
<path d="M31.2914 56.8559C31.4803 56.5874 31.0925 56.1002 30.9533 55.8616C30.7398 55.4687 30.4408 55.1289 30.0783 54.8672C30.0342 54.8421 29.983 54.8323 29.9327 54.8395C29.8825 54.8467 29.8361 54.8703 29.8008 54.9068C29.7655 54.9432 29.7433 54.9904 29.7377 55.0408C29.7321 55.0913 29.7435 55.1421 29.77 55.1854C29.913 55.3812 30.0726 55.5642 30.2473 55.7323C30.4227 55.9247 30.5823 56.1308 30.7246 56.3488C30.7743 56.4184 31.1223 57.0349 31.2914 56.7962V56.8559Z" fill="#35208A"/>
<path d="M25.9624 68.4001C26.0419 68.1466 26.1018 67.8873 26.1414 67.6245C26.2021 67.3808 26.2289 67.1298 26.2209 66.8788C26.2248 66.8501 26.223 66.8208 26.2157 66.7928C26.2083 66.7648 26.1955 66.7384 26.1779 66.7154C26.1425 66.6687 26.09 66.6381 26.032 66.6302C25.974 66.6223 25.9152 66.6377 25.8686 66.6732C25.8219 66.7086 25.7913 66.7611 25.7834 66.8191C25.7037 67.0562 25.6633 67.3048 25.6641 67.5549C25.6445 67.8197 25.6445 68.0856 25.6641 68.3504C25.6575 68.3952 25.669 68.4408 25.696 68.4772C25.7231 68.5136 25.7634 68.5377 25.8083 68.5443C25.8531 68.5509 25.8987 68.5394 25.9351 68.5124C25.9714 68.4853 25.9956 68.4449 26.0022 68.4001H25.9624Z" fill="#35208A"/>
<path d="M32.8624 65.089C32.97 64.6088 32.9528 64.109 32.8127 63.6373C32.7232 63.2097 32.6735 62.6429 32.3254 62.3247C32.3059 62.3044 32.2812 62.2896 32.2541 62.2819C32.2269 62.2743 32.1982 62.2739 32.1708 62.281C32.1435 62.2881 32.1186 62.3023 32.0986 62.3223C32.0785 62.3422 32.0642 62.3671 32.057 62.3944C32.0442 62.8373 32.1255 63.2778 32.2956 63.687C32.3369 64.1658 32.4405 64.6371 32.6038 65.089C32.6635 65.2183 32.8425 65.1685 32.8823 65.089H32.8624Z" fill="#35208A"/>
<path d="M57.8105 14.1692C57.8105 14.1195 57.8105 14.0797 57.8105 14.0599C57.5221 13.4931 56.4483 13.3837 55.9113 13.2843C55.0363 13.1053 54.1414 13.0059 53.2565 12.8865L52.8189 12.8269C52.7593 12.8269 52.6599 12.7672 52.6698 12.8269C52.5579 12.6319 52.4678 12.4252 52.4013 12.2104C52.0334 11.3553 51.6854 10.4902 51.3076 9.63508C51.1186 9.20752 50.9297 8.77001 50.7209 8.35239C50.5916 8.08392 50.4524 7.5967 50.1541 7.46744C49.5078 7.18902 49.0604 8.77996 48.8814 9.16775C48.4737 10.0925 48.0859 11.0271 47.6882 11.9519C47.6086 12.1408 47.4694 12.7076 47.2905 12.8368C47.0094 12.8633 46.7264 12.8633 46.4453 12.8368L45.262 12.9363C44.591 12.983 43.9255 13.0894 43.2734 13.2545C42.8856 13.3738 42.1796 13.5627 42.279 14.0996C42.3785 14.6366 43.0148 14.9647 43.2734 15.2133C43.7999 15.6262 44.3548 16.0016 44.9339 16.3369C45.2267 16.4641 45.5093 16.6137 45.7791 16.7843C46.0873 17.013 45.9382 17.2616 45.8586 17.5897C45.6796 18.2559 45.5007 18.9321 45.3316 19.5784C45.1626 20.2247 45.0731 20.6921 44.9836 21.2489C44.8847 21.6337 44.8847 22.0373 44.9836 22.4222C45.3913 23.2873 46.9723 21.7759 47.3302 21.4776C47.6882 21.1793 48.2649 20.7418 48.7124 20.354C48.941 20.1651 49.1598 19.9662 49.3686 19.7673C49.5774 19.5685 49.8061 19.2403 49.9652 19.2105C50.1243 19.1807 50.8999 19.996 51.1087 20.2048C51.5727 20.6026 52.05 20.9904 52.5405 21.3682C53.1648 22.0001 53.9536 22.4445 54.8176 22.6509C55.5832 22.7205 55.2153 21.5671 55.1159 21.0997C54.8673 20.0159 54.5193 18.942 54.1911 17.8781C54.1215 17.6494 54.032 17.4108 53.9823 17.1721C53.9326 16.9335 53.9823 16.9335 54.1513 16.8042C54.5789 16.5457 55.096 16.3866 55.5335 16.1678C56.2494 15.8099 57.6713 15.1735 57.8801 14.2687C57.8678 14.2291 57.8435 14.1943 57.8105 14.1692Z" fill="#F7B9E7"/>
<path d="M38.1825 82.6191C36.9794 82.5296 35.7961 82.5296 34.5333 82.5296L35.5277 81.5352C36.1104 81.0344 36.6134 80.4476 37.0192 79.7952C37.0533 79.7312 37.0659 79.658 37.0553 79.5863C37.0446 79.5146 37.0112 79.4483 36.9599 79.397C36.9087 79.3458 36.8423 79.3123 36.7706 79.3017C36.6989 79.291 36.6257 79.3037 36.5618 79.3378C35.9035 79.7276 35.3098 80.2174 34.8018 80.7895L33.7379 81.7838C33.7379 81.2867 33.7379 80.7895 33.7379 80.3023C33.7984 79.532 33.738 78.757 33.5589 78.0054C33.5376 77.9362 33.4948 77.8757 33.4366 77.8328C33.3785 77.7898 33.308 77.7666 33.2357 77.7666C33.1634 77.7666 33.093 77.7898 33.0348 77.8328C32.9767 77.8757 32.9338 77.9362 32.9126 78.0054C32.7281 78.7562 32.6577 79.5305 32.7038 80.3023C32.7038 80.7895 32.7038 81.2966 32.7038 81.7739L31.6498 80.7199C31.1528 80.137 30.5693 79.634 29.9196 79.2284C29.8555 79.1901 29.7805 79.174 29.7064 79.1828C29.6322 79.1916 29.563 79.2247 29.5096 79.2769C29.4562 79.3292 29.4217 79.3976 29.4113 79.4716C29.4009 79.5456 29.4153 79.6209 29.4523 79.6858C29.852 80.3749 30.3551 80.9986 30.9438 81.5352L31.9381 82.5892H30.4466C29.6801 82.53 28.9091 82.587 28.1597 82.7583C28.0905 82.7795 28.03 82.8224 27.9871 82.8805C27.9441 82.9387 27.9209 83.0091 27.9209 83.0814C27.9209 83.1537 27.9441 83.2242 27.9871 83.2823C28.03 83.3405 28.0905 83.3833 28.1597 83.4046C28.9066 83.5923 29.6776 83.666 30.4466 83.6233H31.8884C31.0035 84.4586 30.1086 85.3038 29.3131 86.2185C29.2376 86.3156 29.2 86.4368 29.2072 86.5596C29.2144 86.6824 29.266 86.7983 29.3524 86.8859C29.4387 86.9734 29.5539 87.0266 29.6766 87.0356C29.7992 87.0445 29.9209 87.0086 30.0191 86.9345C30.9339 86.1589 31.789 85.2938 32.6342 84.4288C32.6342 85.6418 32.5646 86.8549 32.6342 88.0581C32.6572 88.1729 32.7194 88.2762 32.81 88.3505C32.9006 88.4247 33.0142 88.4652 33.1313 88.4652C33.2485 88.4652 33.362 88.4247 33.4526 88.3505C33.5433 88.2762 33.6054 88.1729 33.6285 88.0581C33.7279 86.8649 33.718 85.6418 33.6981 84.4387C34.5333 85.3137 35.3785 86.2086 36.2834 86.9941C36.377 87.0877 36.504 87.1403 36.6363 87.1403C36.7687 87.1403 36.8957 87.0877 36.9893 86.9941C37.083 86.9005 37.1355 86.7735 37.1355 86.6411C37.1355 86.5087 37.083 86.3818 36.9893 86.2882C36.2237 85.3634 35.3487 84.5182 34.4836 83.6631C35.6967 83.6631 36.9197 83.7327 38.1129 83.6631C38.2514 83.6723 38.3878 83.6262 38.4923 83.5348C38.5967 83.4435 38.6605 83.3143 38.6698 83.1759C38.679 83.0374 38.6328 82.901 38.5415 82.7966C38.4501 82.6921 38.321 82.6283 38.1825 82.6191Z" fill="white"/>
<path d="M38.9583 8.31263C39.2639 8.29365 39.5528 8.1668 39.7736 7.95467C39.9951 7.72489 40.1197 7.4187 40.1217 7.09955C40.1167 6.78688 39.9922 6.48799 39.7736 6.26431C39.5468 6.04144 39.2415 5.91656 38.9235 5.91656C38.6055 5.91656 38.3002 6.04144 38.0733 6.26431C37.8505 6.49116 37.7256 6.79645 37.7256 7.11446C37.7256 7.43247 37.8505 7.73777 38.0733 7.96462C38.3058 8.18193 38.6103 8.30585 38.9285 8.31263H38.9583Z" fill="white"/>
<path d="M59.6596 23.5657L59.7888 23.6353C61.2008 24.4705 61.2008 21.4974 59.7888 22.3327L59.6596 22.4023C59.5586 22.4621 59.4749 22.5472 59.4168 22.6492C59.3587 22.7512 59.3281 22.8666 59.3281 22.984C59.3281 23.1014 59.3587 23.2167 59.4168 23.3187C59.4749 23.4207 59.5586 23.5058 59.6596 23.5657Z" fill="white"/>
<path d="M67.7143 12.0812C67.8505 12.0378 67.9807 11.9777 68.102 11.9022C68.292 11.7921 68.4496 11.634 68.5592 11.4438C68.6688 11.2536 68.7264 11.0379 68.7264 10.8184C68.7264 10.5988 68.6688 10.3832 68.5592 10.193C68.4496 10.0027 68.292 9.84466 68.102 9.73454C67.9807 9.659 67.8505 9.59888 67.7143 9.55556C67.4915 9.48937 67.2549 9.48591 67.0303 9.54556C66.8058 9.60521 66.602 9.72565 66.4415 9.89363C66.1998 10.1407 66.0645 10.4727 66.0645 10.8184C66.0645 11.164 66.1998 11.496 66.4415 11.7431C66.6051 11.9066 66.8089 12.0239 67.0324 12.0833C67.2559 12.1427 67.4911 12.1419 67.7143 12.0812Z" fill="white"/>
<path d="M87.7102 31.6397C87.9524 31.5768 88.1747 31.4537 88.3565 31.2817C88.4751 31.1667 88.5697 31.0292 88.6345 30.8773C88.6994 30.7253 88.7333 30.562 88.7343 30.3968C88.7336 30.23 88.6998 30.0651 88.6349 29.9115C88.5701 29.7579 88.4754 29.6187 88.3565 29.5019C88.1767 29.3293 87.9532 29.209 87.7102 29.1538C87.5178 29.0989 87.3153 29.0893 87.1186 29.1259C86.9219 29.1626 86.7364 29.2443 86.5767 29.3648C86.417 29.4853 86.2874 29.6412 86.1982 29.8203C86.1089 29.9994 86.0625 30.1967 86.0625 30.3968C86.0625 30.5968 86.1089 30.7942 86.1982 30.9732C86.2874 31.1523 86.417 31.3082 86.5767 31.4287C86.7364 31.5492 86.9219 31.631 87.1186 31.6676C87.3153 31.7042 87.5178 31.6946 87.7102 31.6397Z" fill="white"/>
<path d="M78.2142 47.2805C78.3788 47.2768 78.5424 47.2535 78.7014 47.2109C78.9598 47.1302 79.1882 46.9745 79.3577 46.7634C79.5296 46.5451 79.624 46.2757 79.6261 45.9978C79.6158 45.7779 79.5545 45.5635 79.4472 45.3714C79.2816 45.0908 79.0146 44.8843 78.7014 44.7946C78.5427 44.7489 78.3792 44.7222 78.2142 44.7151C77.9591 44.714 77.7094 44.7889 77.4971 44.9304C77.2848 45.0719 77.1195 45.2735 77.0224 45.5094C76.9253 45.7453 76.9007 46.0048 76.9518 46.2548C77.0029 46.5047 77.1274 46.7337 77.3093 46.9126C77.4275 47.0318 77.5686 47.1259 77.7241 47.1891C77.8796 47.2524 78.0463 47.2834 78.2142 47.2805Z" fill="white"/>
<path d="M88.9528 58.1386C89.2956 58.1386 89.6244 58.0024 89.8668 57.76C90.1092 57.5176 90.2454 57.1888 90.2454 56.846C90.2454 56.5031 90.1092 56.1744 89.8668 55.932C89.6244 55.6895 89.2956 55.5533 88.9528 55.5533C88.61 55.5533 88.2812 55.6895 88.0388 55.932C87.7963 56.1744 87.6602 56.5031 87.6602 56.846C87.6602 57.1888 87.7963 57.5176 88.0388 57.76C88.2812 58.0024 88.61 58.1386 88.9528 58.1386Z" fill="white"/>
<path d="M82.3303 72.8846C82.4661 72.8854 82.5997 72.851 82.7182 72.7848C82.8367 72.7186 82.936 72.6228 83.0065 72.5067C83.0685 72.4226 83.1155 72.3284 83.1457 72.2283C83.1561 72.1458 83.1561 72.0623 83.1457 71.9797C83.1457 72.109 83.1457 72.1488 83.1457 72.0792C83.1457 72.0096 83.1457 71.8405 83.1457 71.9499C83.1823 71.8185 83.1915 71.6809 83.1727 71.5458C83.1539 71.4106 83.1075 71.2808 83.0363 71.1644C82.9284 70.9531 82.7486 70.7873 82.5292 70.697C82.191 70.6161 81.8345 70.6695 81.5349 70.8462C81.228 71.0424 80.9966 71.3368 80.8786 71.6814C80.7944 71.9704 80.7944 72.2774 80.8786 72.5664C80.9851 72.9415 81.2352 73.2595 81.5746 73.4514C81.8556 73.5988 82.18 73.6411 82.4894 73.5707C82.6633 73.5215 82.8235 73.4333 82.958 73.3126C83.0924 73.192 83.1974 73.0422 83.265 72.8746C83.3292 72.7307 83.3623 72.5748 83.3623 72.4172C83.3623 72.2596 83.3292 72.1038 83.265 71.9599C83.1944 71.7954 83.0882 71.6485 82.9541 71.5299C82.82 71.4113 82.6613 71.3238 82.4894 71.2738L82.7678 71.3931H82.6982L82.9369 71.5721L83.1159 71.8107C83.0856 71.7665 83.059 71.72 83.0363 71.6715L83.1556 71.9499V71.8405V72.1488V72.0096V72.3079V72.1985L83.0463 72.457C83.059 72.4252 83.0757 72.3952 83.096 72.3675L82.9269 72.5863L82.9866 72.5266L82.6286 72.5863H82.6982L82.4497 72.6857C82.6544 72.6291 82.8421 72.5233 82.9965 72.3775L82.1514 72.4869C82.0832 72.4437 82.0255 72.3859 81.9823 72.3178V72.2482C81.9823 72.2482 81.9823 72.3576 81.9823 72.2482C81.9823 72.1388 81.9823 72.2482 81.9823 72.1786C81.9823 72.109 81.9823 72.1786 81.9823 72.1786C81.9842 72.1455 81.9842 72.1123 81.9823 72.0792C81.9823 72.0195 81.9823 72.0792 81.9823 72.0792C81.6641 72.3476 81.9823 72.8349 82.3005 72.8547L82.3303 72.8846Z" fill="white"/>
<path d="M60.4849 91.6078C60.576 91.5233 60.6623 91.4337 60.7434 91.3394C60.9742 91.0971 61.1086 90.7789 61.1212 90.4445C61.1175 90.1082 60.9818 89.7868 60.7434 89.5496C60.626 89.432 60.4865 89.3389 60.3329 89.2757C60.1792 89.2126 60.0146 89.1806 59.8485 89.1817H59.5203C59.3057 89.2389 59.1101 89.3521 58.9536 89.5098C58.86 89.5919 58.7735 89.6817 58.6951 89.7783C58.4621 90.0183 58.3303 90.3387 58.3271 90.6732C58.3272 91.0083 58.4594 91.3298 58.6951 91.5681C58.935 91.801 59.2555 91.9328 59.59 91.936C59.9223 91.9226 60.2392 91.7923 60.4849 91.5681V91.6078Z" fill="white"/>
<path d="M23.2672 74.6545L23.3567 74.5849C23.5669 74.3695 23.6845 74.0804 23.6845 73.7795C23.6845 73.4785 23.5669 73.1895 23.3567 72.9741L23.2672 72.9045C23.0938 72.7295 22.8724 72.6101 22.631 72.5612C22.3896 72.5124 22.1391 72.5364 21.9114 72.6301C21.6836 72.7239 21.4889 72.8832 21.3518 73.0878C21.2148 73.2924 21.1416 73.5332 21.1416 73.7795C21.1416 74.0258 21.2148 74.2665 21.3518 74.4711C21.4889 74.6758 21.6836 74.8351 21.9114 74.9288C22.1391 75.0226 22.3896 75.0465 22.631 74.9977C22.8724 74.9489 23.0938 74.8294 23.2672 74.6545Z" fill="white"/>
<path d="M7.66596 62.991V62.9412L7.79522 63.2495C7.71193 62.9578 7.52643 62.7059 7.27264 62.5397C7.01886 62.3736 6.71375 62.3043 6.4131 62.3446C6.14233 62.3776 5.89034 62.5001 5.69718 62.6927C5.47078 62.9338 5.33694 63.2473 5.31934 63.5776V63.6373C5.324 63.8611 5.38583 64.08 5.49896 64.2732C5.61208 64.4664 5.77274 64.6274 5.96565 64.741C6.20996 64.8806 6.49338 64.9359 6.77225 64.8986C7.05112 64.8612 7.30997 64.7332 7.50892 64.5342C7.70787 64.3353 7.83589 64.0764 7.87325 63.7976C7.91061 63.5187 7.85524 63.2353 7.71568 62.991H7.66596Z" fill="white"/>
<path d="M16.7347 48.255C16.9186 48.2581 17.1013 48.2246 17.272 48.1563C17.4427 48.088 17.5981 47.9863 17.7291 47.8572C17.9853 47.5897 18.1278 47.2333 18.1268 46.8629C18.1311 46.6789 18.0981 46.4959 18.0297 46.325C17.9614 46.1541 17.8591 45.9988 17.7291 45.8686C17.5981 45.7395 17.4427 45.6378 17.272 45.5695C17.1013 45.5012 16.9186 45.4676 16.7347 45.4708C16.5507 45.4665 16.3677 45.4995 16.1968 45.5679C16.0259 45.6363 15.8707 45.7385 15.7404 45.8686C15.6084 45.9974 15.5049 46.1524 15.4364 46.3237C15.3679 46.4949 15.336 46.6786 15.3427 46.8629C15.3372 47.0471 15.3697 47.2304 15.4381 47.4014C15.5065 47.5725 15.6094 47.7277 15.7404 47.8572C16.0068 48.1152 16.3639 48.2581 16.7347 48.255Z" fill="white"/>
<path d="M12.8663 32.1866C13.2008 32.1834 13.5212 32.0516 13.7612 31.8187C13.9386 31.642 14.0595 31.4167 14.1086 31.1712C14.1576 30.9257 14.1326 30.6712 14.0367 30.44C13.9408 30.2087 13.7783 30.0112 13.57 29.8725C13.3616 29.7338 13.1166 29.6602 12.8663 29.661C12.5351 29.6657 12.2183 29.7974 11.9814 30.0289C11.7456 30.2679 11.6104 30.5881 11.6035 30.9238C11.6111 31.2563 11.7466 31.5731 11.9818 31.8083C12.217 32.0435 12.5338 32.179 12.8663 32.1866Z" fill="white"/>
<path d="M39.0874 25.2461V25.1665C39.1431 24.9533 39.1421 24.7292 39.0844 24.5165C39.0268 24.3038 38.9144 24.1099 38.7586 23.9541C38.6028 23.7983 38.4089 23.6859 38.1962 23.6282C37.9835 23.5706 37.7594 23.5696 37.5462 23.6253H37.4666C37.2468 23.6857 37.0466 23.8026 36.8861 23.9646C36.7257 24.1265 36.6105 24.3277 36.5522 24.5481C36.4938 24.7685 36.4943 25.0004 36.5537 25.2205C36.613 25.4406 36.7291 25.6413 36.8903 25.8025C37.0515 25.9637 37.2522 26.0798 37.4723 26.1391C37.6924 26.1985 37.9243 26.199 38.1447 26.1406C38.3651 26.0823 38.5663 25.9671 38.7282 25.8067C38.8902 25.6462 39.0072 25.446 39.0675 25.2262L39.0874 25.2461Z" fill="#FFF896"/>
<path d="M89.3702 46.8032C89.5534 46.8083 89.7358 46.7766 89.9066 46.71C90.0774 46.6433 90.2331 46.5432 90.3645 46.4154C90.4955 46.2859 90.5984 46.1307 90.6669 45.9596C90.7353 45.7886 90.7678 45.6053 90.7623 45.4211C90.7577 45.0664 90.615 44.7276 90.3645 44.4765C90.1764 44.2939 89.9389 44.1704 89.6813 44.1213C89.4238 44.0721 89.1575 44.0995 88.9154 44.1999C88.6732 44.3004 88.4658 44.4696 88.3186 44.6866C88.1715 44.9036 88.0912 45.1589 88.0875 45.4211C88.082 45.6053 88.1145 45.7886 88.1829 45.9596C88.2514 46.1307 88.3543 46.2859 88.4852 46.4154C88.736 46.659 89.0703 46.7977 89.4199 46.8032H89.3702Z" fill="#FFF896"/>
<path d="M74.9724 88.4359L75.042 88.3663C75.2984 88.0981 75.444 87.743 75.4497 87.372C75.451 87.1857 75.4154 87.001 75.3451 86.8286C75.2747 86.6561 75.1709 86.4993 75.0396 86.3671C74.9084 86.235 74.7523 86.1301 74.5803 86.0585C74.4084 85.9869 74.224 85.9501 74.0377 85.9501C73.6674 85.9676 73.3152 86.1155 73.0434 86.3677L72.9837 86.4273C72.7214 86.6918 72.5742 87.0492 72.5742 87.4217C72.5742 87.7942 72.7214 88.1516 72.9837 88.416C73.1133 88.5483 73.2681 88.6533 73.4388 88.725C73.6095 88.7967 73.7929 88.8337 73.9781 88.8336C74.351 88.8283 74.7074 88.6786 74.9724 88.416V88.4359Z" fill="#FFF896"/>
<path d="M35.796 72.5863C36.1539 72.5564 36.4874 72.3931 36.7306 72.1288C36.9737 71.8645 37.1086 71.5185 37.1086 71.1594C37.1086 70.8003 36.9737 70.4543 36.7306 70.19C36.4874 69.9257 36.1539 69.7624 35.796 69.7325C35.4382 69.7624 35.1046 69.9257 34.8615 70.19C34.6183 70.4543 34.4834 70.8003 34.4834 71.1594C34.4834 71.5185 34.6183 71.8645 34.8615 72.1288C35.1046 72.3931 35.4382 72.5564 35.796 72.5863Z" fill="#FFF896"/>
<path d="M6.15514 50.0447C6.50531 50.0152 6.8316 49.8552 7.06941 49.5965C7.30721 49.3377 7.43918 48.9991 7.43918 48.6477C7.43918 48.2963 7.30721 47.9577 7.06941 47.699C6.8316 47.4402 6.50531 47.2802 6.15514 47.2507C5.80497 47.2802 5.47867 47.4402 5.24087 47.699C5.00306 47.9577 4.87109 48.2963 4.87109 48.6477C4.87109 48.9991 5.00306 49.3377 5.24087 49.5965C5.47867 49.8552 5.80497 50.0152 6.15514 50.0447Z" fill="#FFF896"/>
</g>
<defs>
<clipPath id="clip0_1972_5028">
<rect width="100" height="100" fill="white"/>
</clipPath>
</defs>
</svg>
