<svg width="100" height="100" viewBox="0 0 100 100" fill="none" xmlns="http://www.w3.org/2000/svg">
<g clip-path="url(#clip0_2248_3506)">
<path d="M98.6482 61.4837C104.991 34.6106 88.3476 7.68389 61.4745 1.34125C34.6013 -5.00139 7.67465 11.6419 1.33201 38.515C-5.01062 65.3881 11.6326 92.3148 38.5058 98.6575C65.3789 105 92.3056 88.3569 98.6482 61.4837Z" fill="#35208A"/>
<path d="M83.3447 40.4097C83.3535 40.3771 83.3535 40.3428 83.3447 40.3102C82.7481 39.0673 80.9085 38.769 79.7054 38.5304C77.9364 38.1773 76.115 38.1773 74.3459 38.5304C70.9354 39.2364 68.5391 41.3145 66.5305 44.0489C65.8286 44.9574 65.4948 46.0971 65.5958 47.2407C65.7419 47.7965 66.0237 48.3074 66.4159 48.7273C66.8081 49.1473 67.2985 49.4634 67.843 49.647C70.9155 51.0093 74.5548 50.2337 77.4085 48.7124C79.1503 47.8266 80.6984 46.603 81.9625 45.1129C82.9893 43.7701 83.4817 42.0944 83.3447 40.4097V40.4097Z" fill="#96CBEB"/>
<path d="M80.2125 42.6768C80.1243 42.4881 79.9942 42.3221 79.8323 42.1911C79.6704 42.0602 79.4808 41.9678 79.2778 41.9211C77.5316 41.2732 75.6268 41.1863 73.8289 41.6725C72.0246 42.1639 70.477 43.3273 69.5035 44.9239C69.1516 45.2638 68.9025 45.6958 68.7847 46.1706C68.6669 46.6454 68.6851 47.1437 68.8373 47.6086C69.2989 48.2551 69.9881 48.7027 70.7663 48.8615C73.4709 49.5874 76.3744 48.3544 78.4724 46.5049C78.9505 46.1163 79.3547 45.6448 79.6656 45.1129C79.9249 44.5476 80.1023 43.9483 80.1926 43.333C80.2486 43.1185 80.2554 42.8942 80.2125 42.6768V42.6768Z" fill="#647FA0"/>
<path d="M34.0458 44.9239C33.3502 43.5698 32.4057 42.3588 31.2617 41.3543C30.11 40.2993 28.7572 39.4876 27.2844 38.9679C25.3467 38.2999 23.2779 38.1022 21.2488 38.3912C19.8567 38.5702 17.4206 38.8486 16.7146 40.3003C16.7074 40.3364 16.7074 40.3736 16.7146 40.4097C16.2473 43.6611 18.8723 46.2563 21.3283 47.887C24.1323 49.7564 27.6622 50.87 31.0231 50.0547C31.6909 49.9454 32.3286 49.698 32.8953 49.3281C33.4621 48.9583 33.9454 48.4743 34.3143 47.9069C34.4806 47.4186 34.5427 46.9008 34.4964 46.387C34.4502 45.8731 34.2967 45.3747 34.0458 44.9239V44.9239Z" fill="#96CBEB"/>
<path d="M19.7967 42.6768C19.9061 42.279 20.3436 42.0603 20.7314 41.9211C22.4775 41.2732 24.3824 41.1863 26.1803 41.6725C27.9832 42.1667 29.5299 43.3294 30.5056 44.9239C30.8576 45.2638 31.1067 45.6958 31.2245 46.1706C31.3423 46.6454 31.3241 47.1437 31.1718 47.6086C30.6946 48.2663 29.9824 48.7149 29.1832 48.8615C26.4786 49.5874 23.5751 48.3544 21.4771 46.5049C21.0048 46.1132 20.6044 45.6421 20.2939 45.1129C20.0346 44.5476 19.8572 43.9483 19.7669 43.333C19.7272 43.1148 19.7374 42.8905 19.7967 42.6768V42.6768Z" fill="#647FA0"/>
<path d="M70.0808 37.5261C69.4742 35.1894 68.2711 32.9721 65.9841 31.9479C64.1808 31.2731 62.2804 30.8937 60.3562 30.8243C58.5664 30.6553 56.7766 30.536 54.9768 30.4465C55.0464 30.3371 55.126 30.2377 55.1856 30.1283C55.7624 29.134 56.5081 27.4635 55.8618 26.3896C55.8549 26.3598 55.8415 26.3319 55.8226 26.3078C55.8037 26.2838 55.7797 26.2642 55.7524 26.2504C55.2528 26.0767 54.7097 26.0733 54.2079 26.2405C53.7061 26.4078 53.2737 26.7364 52.9782 27.1751C53.3362 25.5544 53.2566 23.6552 51.3276 23.3569C49.3986 23.0586 48.1756 25.3654 47.7282 27.2149C47.4497 26.2206 46.9625 24.918 46.0676 24.7688C44.8844 24.56 44.079 26.0018 43.9696 26.9464C43.8373 28.1453 44.0842 29.3555 44.6756 30.4067C42.3886 30.5161 40.0917 30.705 37.8345 31.0033C35.8459 31.2618 33.7976 31.6894 32.316 33.0815C30.4665 34.8016 29.8302 37.4466 29.5518 39.8628C28.985 46.0177 30.8245 52.0235 33.1413 57.6713C34.3444 60.535 35.8061 63.3092 36.9297 66.2027C37.924 68.7084 38.3317 71.4229 39.6144 73.8093C40.4795 75.4002 41.9014 77.4684 43.7409 77.9756C45.5927 78.469 47.4936 78.7558 49.4086 78.8307C51.4779 78.8443 53.5412 78.6073 55.5536 78.1247C57.1413 77.7379 58.5151 76.7459 59.3817 75.3605C61.3107 72.8249 61.9073 69.7325 62.8619 66.7595C63.9159 63.4981 65.5665 60.4256 66.9088 57.2636C69.504 51.0988 71.5921 44.218 70.0808 37.5261Z" fill="#96CBEB"/>
<path d="M63.2994 55.7423C63.7379 55.7423 64.1666 55.6122 64.5313 55.3686C64.8959 55.1249 65.1801 54.7786 65.348 54.3735C65.5158 53.9683 65.5597 53.5225 65.4741 53.0923C65.3886 52.6622 65.1774 52.2671 64.8673 51.957C64.5572 51.6469 64.1621 51.4357 63.732 51.3502C63.3019 51.2646 62.856 51.3085 62.4508 51.4763C62.0457 51.6442 61.6994 51.9284 61.4557 52.293C61.2121 52.6577 61.082 53.0864 61.082 53.5249C61.0872 54.1114 61.3225 54.6724 61.7372 55.0871C62.1519 55.5018 62.7129 55.7371 63.2994 55.7423V55.7423Z" fill="#35208A"/>
<path d="M36.7107 55.7423C37.1488 55.7403 37.5765 55.6086 37.9399 55.3638C38.3032 55.1189 38.5859 54.7719 38.7522 54.3666C38.9185 53.9613 38.961 53.5157 38.8743 53.0863C38.7876 52.6568 38.5757 52.2626 38.2652 51.9535C37.9547 51.6444 37.5596 51.4342 37.1297 51.3495C36.6998 51.2647 36.2545 51.3092 35.8499 51.4773C35.4453 51.6454 35.0996 51.9296 34.8564 52.2941C34.6132 52.6585 34.4834 53.0868 34.4834 53.5249C34.4912 54.1123 34.7286 54.6733 35.1449 55.0877C35.5613 55.5022 36.1233 55.7371 36.7107 55.7423Z" fill="#35208A"/>
<path d="M39.952 72.7652C41.0458 68.2808 46.6041 66.4313 50.7306 66.4214C54.6085 66.4214 60.137 68.2211 59.9978 72.9641C59.9978 73.0353 60.0261 73.1036 60.0764 73.1539C60.1268 73.2043 60.1951 73.2326 60.2663 73.2326C60.3375 73.2326 60.4057 73.2043 60.4561 73.1539C60.5064 73.1036 60.5347 73.0353 60.5347 72.9641C60.6739 68.0919 55.2548 66.0038 51.1781 65.8944C46.8328 65.7751 40.4592 67.7439 39.5046 72.6459C39.4449 72.9343 39.8824 73.0635 39.952 72.7652V72.7652Z" fill="#35208A"/>
<path d="M44.1684 71.5124C44.727 71.7153 45.2555 71.9929 45.7395 72.3377C45.8787 72.4471 46.1969 72.6758 46.177 72.8647C46.1571 73.0536 45.7395 73.3121 45.5903 73.4314C44.9838 73.9187 45.7892 74.9528 46.4256 74.5153C47.2707 73.9286 47.9668 72.9343 47.2608 71.9598C46.9297 71.5215 46.5114 71.1564 46.0322 70.8877C45.553 70.6191 45.0234 70.4526 44.4767 70.3987C43.9 70.3987 43.6315 71.2638 44.1684 71.5124V71.5124Z" fill="#35208A"/>
<path d="M55.5229 70.3987C54.9692 70.4472 54.4319 70.6112 53.9455 70.8801C53.4591 71.1489 53.0345 71.5168 52.699 71.9598C52.0029 72.9542 52.699 73.9485 53.5342 74.5153C54.1706 74.9528 54.9859 73.9187 54.3695 73.4314C54.2203 73.3221 53.8723 73.1133 53.8126 72.9144C53.753 72.7155 54.0413 72.4868 54.2203 72.3377C54.7043 71.9929 55.2328 71.7153 55.7913 71.5124C55.8984 71.4425 55.9807 71.3406 56.0264 71.2212C56.0721 71.1018 56.0789 70.971 56.0458 70.8474C56.0128 70.7239 55.9415 70.614 55.8422 70.5334C55.7429 70.4529 55.6207 70.4057 55.4931 70.3987H55.5229Z" fill="#35208A"/>
<path d="M84.1405 31.5899C82.8181 27.4635 78.7115 25.1168 76.9217 21.2588C76.9094 21.2336 76.8904 21.2124 76.8666 21.1975C76.8429 21.1826 76.8154 21.1747 76.7874 21.1747C76.7594 21.1747 76.732 21.1826 76.7082 21.1975C76.6845 21.2124 76.6654 21.2336 76.6532 21.2588C76.411 22.2808 76.3172 23.3323 76.3748 24.381C76.5427 25.5051 76.8779 26.5977 77.3691 27.6226C77.6575 28.3087 77.9757 28.9749 78.2242 29.6709C78.4062 30.0939 78.517 30.5441 78.5524 31.0033C78.5524 32.0971 77.3194 32.4252 76.3947 32.5047C75.0597 32.475 73.7294 32.3354 72.4173 32.0871C70.8264 31.938 69.2355 31.7391 67.6346 31.6496C66.0337 31.5601 63.707 31.3513 62.3149 32.3854C59.6302 34.3741 60.9328 39.2264 63.3093 40.9168C64.6019 41.8415 66.4116 41.2549 67.8136 40.9168C70.4287 40.3401 73.0935 40.0219 75.7185 39.4452C78.3436 38.8685 80.5609 38.3216 82.5993 36.661C83.3568 36.0852 83.9135 35.2852 84.1902 34.3748C84.4669 33.4644 84.4495 32.4899 84.1405 31.5899V31.5899Z" fill="white"/>
<path d="M34.2145 31.6198C31.3614 31.6366 28.5133 31.8626 25.6931 32.2959C24.4104 32.465 21.0894 32.9522 21.4473 30.7448C21.6622 29.8465 21.9791 28.9758 22.3919 28.1496C22.9146 27.1029 23.3117 25.9982 23.5752 24.8583C23.7081 23.6807 23.6306 22.4889 23.3465 21.3384C23.3343 21.3132 23.3152 21.2919 23.2915 21.277C23.2677 21.2621 23.2403 21.2542 23.2123 21.2542C23.1842 21.2542 23.1568 21.2621 23.133 21.277C23.1093 21.2919 23.0902 21.3132 23.078 21.3384C21.2882 25.1964 17.1916 27.543 15.8592 31.6695C15.5751 32.4608 15.5177 33.3157 15.6934 34.1379C15.8691 34.9601 16.2709 35.7168 16.8535 36.323C18.4068 37.7566 20.3276 38.7307 22.4019 39.1369C25.1264 39.7832 27.8707 40.3102 30.635 40.7477C32.2557 41.0063 34.1648 41.8117 35.8254 41.3742C37.1379 41.0262 38.162 39.3855 38.6493 38.2321C39.0027 37.4417 39.1628 36.5784 39.1161 35.7138C39.0694 34.8492 38.8173 34.0082 38.3808 33.2604C37.466 31.8186 35.7955 31.6595 34.2145 31.6198Z" fill="white"/>
<path d="M78.0752 33.8073C78.2774 33.7245 78.4606 33.6013 78.6133 33.4451C78.7661 33.2889 78.8853 33.103 78.9635 32.899C79.0418 32.695 79.0774 32.4772 79.0683 32.2589C79.0592 32.0406 79.0055 31.8265 78.9105 31.6297C78.8831 31.6068 78.8505 31.591 78.8156 31.5836C78.7806 31.5762 78.7444 31.5775 78.7101 31.5873C78.6758 31.5971 78.6444 31.6151 78.6187 31.6399C78.5929 31.6646 78.5736 31.6952 78.5624 31.7291C78.5485 32.0622 78.5153 32.3942 78.463 32.7235C78.2997 33.0298 78.1171 33.3254 77.9161 33.6084C77.9037 33.6324 77.8984 33.6594 77.901 33.6863C77.9037 33.7131 77.914 33.7386 77.9309 33.7597C77.9477 33.7808 77.9704 33.7965 77.996 33.8049C78.0216 33.8134 78.0491 33.8142 78.0752 33.8073V33.8073Z" fill="#35208A"/>
<path d="M22.0937 33.5587C21.8895 33.2758 21.7036 32.9802 21.5369 32.6738C21.4175 32.3357 21.5369 32.0076 21.4374 31.6794C21.4286 31.6438 21.4105 31.6112 21.385 31.5848C21.3595 31.5584 21.3275 31.5392 21.2922 31.5291C21.2569 31.519 21.2196 31.5184 21.184 31.5274C21.1484 31.5363 21.1158 31.5545 21.0894 31.58C20.9864 31.7797 20.9265 31.9988 20.9137 32.2232C20.9009 32.4475 20.9355 32.6721 21.0153 32.8822C21.095 33.0922 21.2181 33.2832 21.3764 33.4426C21.5348 33.602 21.725 33.7263 21.9346 33.8073C21.9607 33.8142 21.9882 33.8134 22.0138 33.8049C22.0395 33.7965 22.0621 33.7808 22.0789 33.7597C22.0958 33.7386 22.1061 33.7131 22.1088 33.6863C22.1114 33.6594 22.1062 33.6324 22.0937 33.6084V33.5587Z" fill="#35208A"/>
<path d="M45.1725 75.619C47.2904 78.602 52.978 78.602 55.1158 75.6786C55.245 75.5195 55.0064 75.2909 54.8374 75.4002C53.316 76.3946 52.0333 77.2895 50.1242 77.2895C48.2151 77.2895 46.9225 76.3747 45.4111 75.3803C45.2619 75.2809 45.0631 75.4798 45.1625 75.619H45.1725Z" fill="#35208A"/>
<path d="M70.2987 41.056C70.0004 41.4438 70.1794 41.9409 70.1993 42.4083C70.2639 43.1095 70.2639 43.8151 70.1993 44.5163C70.1993 44.8146 70.6865 44.8344 70.6865 44.5163C70.6865 43.8103 70.7461 43.1143 70.6865 42.4083C70.6865 41.9509 70.6865 41.3543 70.3385 41.056H70.2788H70.2987Z" fill="#35208A"/>
<path d="M29.8298 40.708C29.6338 41.6222 29.5669 42.5593 29.6309 43.4921C29.6309 44.566 29.6309 45.6498 29.6309 46.7237C29.6423 46.7799 29.6728 46.8304 29.7172 46.8667C29.7616 46.903 29.8172 46.9228 29.8745 46.9228C29.9319 46.9228 29.9875 46.903 30.0319 46.8667C30.0762 46.8304 30.1067 46.7799 30.1181 46.7237C30.1181 45.6498 30.1181 44.566 30.1181 43.4921C30.174 42.5574 30.0936 41.6195 29.8795 40.708H29.8198H29.8298Z" fill="#35208A"/>
<path d="M29.8894 47.4098C29.5414 47.728 29.6209 48.4936 29.7005 48.9013C29.78 49.3089 30.2374 49.12 30.2076 48.8317C30.1777 48.5433 30.138 48.3047 30.1181 48.0362C30.1353 47.8269 30.094 47.6169 29.9988 47.4297C29.9922 47.4214 29.9839 47.4147 29.9745 47.4101C29.965 47.4055 29.9546 47.4031 29.9441 47.4031C29.9335 47.4031 29.9231 47.4055 29.9137 47.4101C29.9042 47.4147 29.8959 47.4214 29.8894 47.4297V47.4098Z" fill="#35208A"/>
<path d="M70.0609 45.9382C69.9619 46.5304 69.8988 47.1281 69.8719 47.728C69.8719 48.0859 69.7725 48.4339 69.7029 48.7919C69.7029 48.9709 69.6333 49.1598 69.5836 49.3487C69.5339 49.5376 69.4643 49.6967 69.693 49.5774L69.8023 49.8558C69.8136 49.8339 69.82 49.8098 69.821 49.7852C69.822 49.7606 69.8176 49.7361 69.8081 49.7134C69.7986 49.6907 69.7843 49.6703 69.7661 49.6537C69.748 49.637 69.7264 49.6246 69.7029 49.6172V49.6172C69.6631 49.609 69.6218 49.6132 69.5845 49.6292C69.5471 49.6452 69.5156 49.6722 69.4941 49.7067V49.7067C69.4722 49.7467 69.4623 49.7922 69.4654 49.8377C69.4686 49.8832 69.4847 49.9268 69.5119 49.9635C69.5391 50.0001 69.5763 50.0282 69.6189 50.0443C69.6616 50.0605 69.708 50.0641 69.7526 50.0547C70.2597 49.9553 70.2498 48.8913 70.3095 48.5135C70.4994 47.6819 70.5365 46.8227 70.4188 45.9779C70.4066 45.9428 70.3838 45.9124 70.3535 45.8909C70.3232 45.8693 70.287 45.8578 70.2498 45.8578C70.2126 45.8578 70.1764 45.8693 70.1461 45.8909C70.1158 45.9124 70.093 45.9428 70.0808 45.9779L70.0609 45.9382Z" fill="#35208A"/>
<path d="M40.9961 35.2193C41.3714 35.6517 41.7201 36.1066 42.0401 36.5815C42.3254 37.1425 42.5392 37.7372 42.6765 38.3514C42.6929 38.4065 42.7286 38.4538 42.7771 38.4846C42.8256 38.5154 42.8835 38.5278 42.9404 38.5193C42.9972 38.5108 43.0491 38.4822 43.0864 38.4385C43.1238 38.3949 43.1442 38.3393 43.1439 38.2818C43.0928 37.6266 42.8856 36.9931 42.5397 36.4344C42.1937 35.8756 41.719 35.4078 41.1552 35.0701C41.0756 35.0701 40.9464 35.0701 41.016 35.2193H40.9961Z" fill="#35208A"/>
<path d="M43.5711 36.2832C43.4816 36.9196 43.9887 37.5559 44.1478 38.1923C44.3069 38.8287 44.1478 39.7832 44.4461 40.4196C44.4461 40.5191 44.625 40.4892 44.6847 40.4196C45.1123 39.823 44.8239 38.7193 44.6847 38.0531C44.5455 37.3869 44.3069 36.4721 43.6904 36.2335C43.6733 36.2304 43.6557 36.2337 43.641 36.2429C43.6263 36.2521 43.6155 36.2665 43.6108 36.2832H43.5711Z" fill="#35208A"/>
<path d="M59.6595 40.2406C59.1478 41.0375 58.8489 41.9522 58.7915 42.8975C58.734 43.8427 58.9199 44.7869 59.3314 45.6399C59.4507 45.8487 59.739 45.6995 59.6993 45.4808C59.4879 44.6382 59.3745 43.774 59.3612 42.9054C59.4538 42.0422 59.675 41.1976 60.0175 40.3997C60.1069 40.171 59.7788 40.0716 59.6595 40.2406V40.2406Z" fill="#35208A"/>
<path d="M60.6542 44.0589C60.3618 44.5656 60.2163 45.1438 60.2338 45.7286C60.2514 46.3133 60.4314 46.8817 60.7536 47.37C60.7799 47.3948 60.8128 47.4115 60.8484 47.4181C60.8839 47.4247 60.9206 47.421 60.9542 47.4074C60.9877 47.3938 61.0166 47.3709 61.0374 47.3413C61.0583 47.3118 61.0702 47.2769 61.0718 47.2407C61.0009 46.735 60.9013 46.2337 60.7735 45.7393C60.7735 45.2123 60.9027 44.745 60.853 44.1881C60.853 44.0788 60.6939 43.9694 60.6044 44.0788L60.6542 44.0589Z" fill="#35208A"/>
<path d="M64.1747 63.7168C63.5493 63.7168 62.938 63.5314 62.418 63.1839C61.898 62.8365 61.4927 62.3427 61.2534 61.7649C61.0141 61.1871 60.9514 60.5513 61.0735 59.938C61.1955 59.3246 61.4966 58.7612 61.9388 58.319C62.381 57.8768 62.9444 57.5756 63.5578 57.4536C64.1712 57.3316 64.8069 57.3942 65.3847 57.6336C65.9625 57.8729 66.4563 58.2782 66.8038 58.7981C67.1512 59.3181 67.3367 59.9295 67.3367 60.5548C67.3289 61.391 66.9932 62.1908 66.4019 62.7821C65.8106 63.3734 65.0109 63.709 64.1747 63.7168V63.7168Z" fill="#E0435B"/>
<path d="M35.8854 63.7168C35.2605 63.7149 34.6501 63.5277 34.1315 63.1791C33.6128 62.8305 33.209 62.336 32.9712 61.758C32.7334 61.1801 32.6722 60.5446 32.7954 59.9319C32.9185 59.3192 33.2204 58.7567 33.663 58.3155C34.1056 57.8743 34.6691 57.5741 35.2822 57.4529C35.8952 57.3317 36.5305 57.3949 37.1077 57.6345C37.6849 57.8741 38.1781 58.2794 38.5251 58.7992C38.8722 59.319 39.0573 59.9299 39.0574 60.5548C39.0495 61.3928 38.7125 62.194 38.1191 62.7856C37.5256 63.3772 36.7234 63.7116 35.8854 63.7168Z" fill="#E0435B"/>
<path d="M84.9952 74.4656C85.0068 74.4478 85.0129 74.4271 85.0129 74.4059C85.0129 74.3847 85.0068 74.364 84.9952 74.3462C84.6969 73.7894 83.6231 73.68 83.0861 73.5707C82.2111 73.3917 81.3162 73.2922 80.4313 73.1729L79.9937 73.1133C79.9341 73.1133 79.8347 73.0536 79.8446 73.1133C79.7327 72.9183 79.6426 72.7115 79.5761 72.4968C79.2082 71.6417 78.8602 70.7766 78.4824 69.9314C78.2934 69.4939 78.1045 69.0663 77.8957 68.6388C77.7664 68.3802 77.6272 67.8831 77.3289 67.7538C76.6826 67.4754 76.2352 69.0763 76.0661 69.4541C75.6485 70.3789 75.2607 71.3135 74.863 72.2383C74.7834 72.4371 74.6442 72.9939 74.4653 73.1232C74.1842 73.1504 73.9012 73.1504 73.6201 73.1232L72.4368 73.2226C71.7647 73.2597 71.0983 73.3663 70.4482 73.5408C70.0604 73.6502 69.3544 73.8391 69.4538 74.386C69.5533 74.9329 70.1797 75.2411 70.4482 75.4897C70.9723 75.9059 71.5274 76.2816 72.1087 76.6133C72.3996 76.7445 72.6819 76.8939 72.9539 77.0608C73.2721 77.2994 73.113 77.548 73.0334 77.8662C72.8544 78.5423 72.6755 79.2085 72.5064 79.8548C72.3374 80.5012 72.2479 80.9586 72.1584 81.5154C72.0595 81.9002 72.0595 82.3038 72.1584 82.6887C72.5661 83.5538 74.1471 82.0424 74.505 81.754C74.863 81.4657 75.4397 81.0083 75.8971 80.6205L76.5534 80.0438C76.6727 79.9344 76.9809 79.5068 77.14 79.477C77.2991 79.4472 78.0747 80.2625 78.2835 80.4713C78.7508 80.879 79.2778 81.2568 79.7153 81.6347C80.339 82.2694 81.1277 82.7171 81.9924 82.9273C82.758 82.9969 82.3901 81.8336 82.2907 81.3762C82.0421 80.2824 81.6941 79.2185 81.3659 78.1446C81.2963 77.9159 81.2068 77.6773 81.1571 77.4486C81.1074 77.2199 81.1571 77.2 81.3361 77.0707C81.7537 76.8122 82.2708 76.663 82.7182 76.4343C83.4242 76.0764 84.856 75.44 85.0549 74.5352C85.0423 74.5066 85.0215 74.4824 84.9952 74.4656Z" fill="#F7B9E7"/>
<path d="M40.2005 14.5173C38.9973 14.4079 37.7644 14.4278 36.5513 14.4377L37.5456 13.4434C38.1313 12.9427 38.6376 12.356 39.047 11.7033C39.084 11.6384 39.0984 11.5631 39.088 11.4891C39.0777 11.4151 39.0431 11.3467 38.9897 11.2944C38.9363 11.2422 38.8672 11.2091 38.793 11.2003C38.7188 11.1915 38.6438 11.2076 38.5797 11.2459C37.9216 11.6401 37.3281 12.1331 36.8197 12.7076L35.7558 13.7019C35.7558 13.2047 35.7558 12.7076 35.7558 12.2104C35.8159 11.4434 35.7555 10.6717 35.5768 9.92344C35.5556 9.85431 35.5127 9.79382 35.4546 9.75084C35.3964 9.70787 35.326 9.68468 35.2537 9.68468C35.1813 9.68468 35.1109 9.70787 35.0528 9.75084C34.9946 9.79382 34.9517 9.85431 34.9305 9.92344C34.7416 10.6701 34.6712 11.4419 34.7217 12.2104C34.7217 12.7076 34.7217 13.2047 34.7217 13.692C34.3737 13.3439 34.0257 12.986 33.6677 12.638C33.1708 12.0551 32.5873 11.5521 31.9376 11.1465C31.8735 11.1081 31.7985 11.0921 31.7243 11.1009C31.6501 11.1097 31.5809 11.1428 31.5276 11.195C31.4742 11.2472 31.4396 11.3157 31.4292 11.3897C31.4189 11.4636 31.4333 11.539 31.4702 11.6039C31.8681 12.2622 32.3644 12.8557 32.9418 13.3638C33.2799 13.7218 33.6279 14.0798 33.9362 14.4278H32.4447C31.6777 14.3719 30.9067 14.4323 30.1577 14.6067C30.0886 14.628 30.0281 14.6708 29.9851 14.729C29.9421 14.7872 29.9189 14.8576 29.9189 14.9299C29.9189 15.0022 29.9421 15.0726 29.9851 15.1308C30.0281 15.189 30.0886 15.2318 30.1577 15.2531C30.9043 15.4424 31.6761 15.5129 32.4447 15.4619H33.8865C33.0015 16.3071 32.1066 17.1522 31.3111 18.067C31.2175 18.1606 31.1649 18.2876 31.1649 18.42C31.1649 18.5524 31.2175 18.6794 31.3111 18.773C31.4048 18.8666 31.5317 18.9192 31.6641 18.9192C31.7965 18.9192 31.9235 18.8666 32.0171 18.773C32.9319 18.0074 33.787 17.1324 34.6322 16.2673C34.6322 17.4804 34.5626 18.7034 34.6322 19.9065C34.6322 20.0384 34.6846 20.1649 34.7778 20.2581C34.8711 20.3513 34.9975 20.4037 35.1294 20.4037C35.2612 20.4037 35.3877 20.3513 35.4809 20.2581C35.5742 20.1649 35.6265 20.0384 35.6265 19.9065C35.747 18.7073 35.8034 17.5024 35.7956 16.2971C36.6308 17.1821 37.4661 18.067 38.3808 18.8625C38.479 18.9366 38.6007 18.9725 38.7233 18.9636C38.846 18.9547 38.9612 18.9014 39.0475 18.8139C39.1339 18.7263 39.1855 18.6104 39.1927 18.4876C39.1999 18.3649 39.1623 18.2437 39.0868 18.1466C38.3212 17.2318 37.4462 16.3767 36.5811 15.5315C37.7942 15.5315 39.0172 15.6011 40.2104 15.5315C40.3449 15.5302 40.4734 15.4755 40.5675 15.3794C40.6617 15.2834 40.7139 15.1539 40.7125 15.0194C40.7112 14.8849 40.6565 14.7564 40.5605 14.6623C40.4645 14.5681 40.335 14.5159 40.2005 14.5173Z" fill="white"/>
<path d="M55.623 12.7076H55.8815C56.1795 12.7076 56.4653 12.5892 56.676 12.3785C56.8867 12.1678 57.0051 11.882 57.0051 11.584V11.3155C56.9915 11.076 56.9271 10.8421 56.8162 10.6294C56.6694 10.3765 56.4417 10.1804 56.1699 10.0726C55.9217 9.96586 55.6474 9.93535 55.3818 9.98492C55.1162 10.0345 54.8714 10.1619 54.6784 10.351C54.5113 10.525 54.3909 10.7383 54.3283 10.9712C54.2658 11.2042 54.263 11.4491 54.3204 11.6834C54.4025 11.9677 54.5775 12.2163 54.8176 12.3894C55.0528 12.5749 55.3433 12.6764 55.6429 12.6777L55.623 12.7076Z" fill="white"/>
<path d="M61.9467 22.8697C62.0949 22.5305 62.116 22.1493 62.0063 21.7958C61.9171 21.4932 61.7187 21.2345 61.4495 21.0699C61.1681 20.9127 60.8369 20.8699 60.5248 20.9506C60.2637 21.0311 60.023 21.1668 59.8188 21.3483C59.6886 21.4942 59.5751 21.6543 59.4807 21.8256C59.3899 21.9819 59.3308 22.1546 59.307 22.3337C59.2831 22.5129 59.2948 22.695 59.3415 22.8697C59.3947 23.0669 59.4935 23.2488 59.6299 23.4008C59.7664 23.5528 59.9367 23.6706 60.127 23.7447C60.2912 23.8185 60.4691 23.8566 60.6491 23.8566C60.829 23.8566 61.007 23.8185 61.1711 23.7447C61.3334 23.6865 61.4798 23.5912 61.5987 23.4663C61.7662 23.3023 61.8865 23.0962 61.9467 22.8697V22.8697Z" fill="white"/>
<path d="M77.0502 18.246C77.2333 18.2499 77.4154 18.2177 77.586 18.1512C77.7566 18.0846 77.9124 17.9851 78.0445 17.8582C78.1755 17.7286 78.2784 17.5735 78.3468 17.4024C78.4153 17.2314 78.4477 17.048 78.4423 16.8639C78.4423 16.5079 78.3008 16.1664 78.0491 15.9147C77.7973 15.663 77.4559 15.5215 77.0999 15.5215C76.9153 15.5132 76.7309 15.5431 76.5584 15.6094C76.3858 15.6757 76.2289 15.7768 76.0972 15.9066C75.9656 16.0363 75.8622 16.1919 75.7935 16.3634C75.7248 16.535 75.6922 16.7189 75.6979 16.9036C75.6947 17.0875 75.7283 17.2702 75.7965 17.4409C75.8648 17.6116 75.9665 17.767 76.0956 17.898C76.363 18.1533 76.7204 18.2927 77.09 18.2858L77.0502 18.246Z" fill="white"/>
<path d="M85.0946 48.7223V48.8118C85.176 49.0617 85.3279 49.2827 85.5321 49.4482C85.7417 49.6209 86.0063 49.7126 86.2778 49.7067C86.4926 49.6999 86.7031 49.6456 86.8943 49.5476C87.1623 49.3771 87.3599 49.1159 87.4511 48.8118L87.5009 48.7223C87.5638 48.5064 87.5665 48.2774 87.5087 48.0601C87.4508 47.8427 87.3347 47.6454 87.1727 47.4893C86.9341 47.2603 86.6184 47.1291 86.2878 47.1214C85.9533 47.1246 85.6329 47.2563 85.3929 47.4893C85.2379 47.6497 85.1286 47.8485 85.0761 48.0653C85.0237 48.282 85.0301 48.5088 85.0946 48.7223V48.7223Z" fill="white"/>
<path d="M74.097 62.981C74.4201 62.9749 74.7291 62.8471 74.9621 62.6231C75.0754 62.5103 75.1653 62.3763 75.2267 62.2287C75.2881 62.0811 75.3197 61.9228 75.3197 61.763C75.3197 61.6031 75.2881 61.4448 75.2267 61.2972C75.1653 61.1496 75.0754 61.0156 74.9621 60.9029C74.7291 60.6788 74.4201 60.551 74.097 60.5449C73.7767 60.5505 73.4707 60.6786 73.2419 60.9029C73.1265 61.0151 73.0352 61.1497 72.9737 61.2985C72.9121 61.4472 72.8816 61.607 72.8839 61.7679C72.8853 62.0891 73.014 62.3966 73.2419 62.6231C73.4707 62.8473 73.7767 62.9754 74.097 62.981V62.981Z" fill="white"/>
<path d="M59.8483 84.0609C60.1621 84.0609 60.4631 83.9362 60.685 83.7143C60.9069 83.4924 61.0316 83.1914 61.0316 82.8776C61.0316 82.5638 60.9069 82.2628 60.685 82.0409C60.4631 81.819 60.1621 81.6944 59.8483 81.6944C59.5345 81.6944 59.2335 81.819 59.0116 82.0409C58.7897 82.2628 58.665 82.5638 58.665 82.8776C58.665 83.1914 58.7897 83.4924 59.0116 83.7143C59.2335 83.9362 59.5345 84.0609 59.8483 84.0609V84.0609Z" fill="white"/>
<path d="M46.8921 95.794C47.2323 95.794 47.5585 95.6588 47.7991 95.4183C48.0396 95.1777 48.1748 94.8515 48.1748 94.5113C48.1748 94.1711 48.0396 93.8448 47.7991 93.6043C47.5585 93.3637 47.2323 93.2286 46.8921 93.2286C46.5519 93.2286 46.2256 93.3637 45.9851 93.6043C45.7445 93.8448 45.6094 94.1711 45.6094 94.5113C45.6094 94.8515 45.7445 95.1777 45.9851 95.4183C46.2256 95.6588 46.5519 95.794 46.8921 95.794V95.794Z" fill="white"/>
<path d="M37.6351 84.8961C37.9885 84.8961 38.3274 84.7557 38.5773 84.5058C38.8272 84.256 38.9675 83.9171 38.9675 83.5637C38.9675 83.2103 38.8272 82.8714 38.5773 82.6215C38.3274 82.3717 37.9885 82.2313 37.6351 82.2313C37.2818 82.2313 36.9429 82.3717 36.693 82.6215C36.4431 82.8714 36.3027 83.2103 36.3027 83.5637C36.3027 83.9171 36.4431 84.256 36.693 84.5058C36.9429 84.7557 37.2818 84.8961 37.6351 84.8961V84.8961Z" fill="white"/>
<path d="M18.8923 77.2C19.2374 77.1967 19.5683 77.0615 19.817 76.8221C20.0334 76.6088 20.1691 76.3269 20.2009 76.0246C20.2326 75.7224 20.1585 75.4185 19.9912 75.1648C19.8238 74.9111 19.5736 74.7233 19.2833 74.6335C18.9929 74.5437 18.6804 74.5575 18.3991 74.6725C18.1177 74.7874 17.885 74.9964 17.7406 75.2639C17.5962 75.5313 17.5491 75.8405 17.6073 76.1388C17.6655 76.4371 17.8254 76.706 18.0598 76.8995C18.2941 77.093 18.5883 77.1992 18.8923 77.2V77.2Z" fill="white"/>
<path d="M28.1095 62.8518C28.3076 62.8498 28.5047 62.8231 28.6961 62.7722C28.9403 62.6984 29.1556 62.5507 29.3123 62.3495C29.469 62.1483 29.5594 61.9034 29.5711 61.6486C29.5632 61.3881 29.4748 61.1364 29.3181 60.9282C29.1615 60.7199 28.9442 60.5652 28.6961 60.4852C28.5048 60.4337 28.3076 60.407 28.1095 60.4057C27.9449 60.4048 27.7818 60.437 27.6298 60.5001C27.4778 60.5633 27.34 60.6563 27.2245 60.7736C26.9882 61.0041 26.8524 61.3186 26.8467 61.6486C26.8544 61.9792 26.9856 62.295 27.2146 62.5336C27.3312 62.6486 27.4695 62.7395 27.6213 62.8009C27.7732 62.8623 27.9357 62.8931 28.0995 62.8915L28.1095 62.8518Z" fill="white"/>
<path d="M12.1112 53.3062V53.1471C12.31 51.586 9.47618 51.576 9.67504 53.1471V53.3062C9.70231 53.6051 9.84033 53.8831 10.062 54.0854C10.2837 54.2878 10.573 54.4 10.8732 54.4C11.1734 54.4 11.4627 54.2878 11.6844 54.0854C11.9061 53.8831 12.0441 53.6051 12.0714 53.3062H12.1112Z" fill="white"/>
<path d="M12.4986 31.0132C12.6699 31.0206 12.8405 30.9865 12.9958 30.9138C13.141 30.8489 13.2752 30.7617 13.3935 30.6553C13.5014 30.5472 13.5861 30.4183 13.6426 30.2764C13.699 30.1345 13.7259 29.9826 13.7216 29.83C13.7247 29.6819 13.6972 29.5348 13.6407 29.3979C13.5842 29.261 13.5001 29.1373 13.3935 29.0345C13.2779 28.9247 13.143 28.8371 12.9958 28.776C12.8405 28.7033 12.6699 28.6691 12.4986 28.6765C12.1973 28.6844 11.9098 28.805 11.6932 29.0146C11.5865 29.1209 11.5018 29.2471 11.444 29.3862C11.3862 29.5253 11.3564 29.6744 11.3564 29.825C11.3564 29.9756 11.3862 30.1247 11.444 30.2638C11.5018 30.4028 11.5865 30.5291 11.6932 30.6354C11.9098 30.845 12.1973 30.9656 12.4986 30.9735V31.0132Z" fill="white"/>
<path d="M69.6028 90.9218C69.9404 90.9218 70.2641 90.7877 70.5028 90.549C70.7415 90.3103 70.8756 89.9866 70.8756 89.649C70.8756 89.3115 70.7415 88.9877 70.5028 88.749C70.2641 88.5104 69.9404 88.3763 69.6028 88.3763C69.2653 88.3763 68.9415 88.5104 68.7029 88.749C68.4642 88.9877 68.3301 89.3115 68.3301 89.649C68.3301 89.9866 68.4642 90.3103 68.7029 90.549C68.9415 90.7877 69.2653 90.9218 69.6028 90.9218V90.9218Z" fill="#FFF896"/>
<path d="M88.744 63.0606C89.0404 63.0334 89.3159 62.8965 89.5165 62.6767C89.7171 62.4568 89.8284 62.17 89.8284 61.8723C89.8284 61.5747 89.7171 61.2878 89.5165 61.068C89.3159 60.8482 89.0404 60.7112 88.744 60.6841C88.5873 60.6841 88.4321 60.715 88.2874 60.7749C88.1426 60.8349 88.0111 60.9228 87.9003 61.0336C87.7895 61.1444 87.7016 61.2759 87.6416 61.4207C87.5816 61.5655 87.5508 61.7206 87.5508 61.8773C87.5584 62.1904 87.6869 62.4884 87.9093 62.709C88.1317 62.9295 88.4308 63.0555 88.744 63.0606V63.0606Z" fill="#FFF896"/>
<path d="M66.2023 12.111C66.4661 12.111 66.719 12.0062 66.9054 11.8197C67.0919 11.6333 67.1967 11.3804 67.1967 11.1166C67.1967 10.92 67.1384 10.7277 67.0291 10.5642C66.9198 10.4007 66.7645 10.2733 66.5829 10.198C66.4012 10.1227 66.2012 10.1031 66.0084 10.1414C65.8155 10.1798 65.6383 10.2745 65.4992 10.4135C65.3602 10.5526 65.2655 10.7298 65.2271 10.9227C65.1887 11.1155 65.2084 11.3155 65.2837 11.4972C65.359 11.6789 65.4864 11.8341 65.6499 11.9434C65.8134 12.0527 66.0057 12.111 66.2023 12.111Z" fill="#FFF896"/>
<path d="M25.992 85.3933C26.265 85.3933 26.5267 85.2848 26.7197 85.0918C26.9127 84.8988 27.0212 84.6371 27.0212 84.3641C27.0212 84.0912 26.9127 83.8294 26.7197 83.6364C26.5267 83.4434 26.265 83.335 25.992 83.335C25.7191 83.335 25.4573 83.4434 25.2643 83.6364C25.0713 83.8294 24.9629 84.0912 24.9629 84.3641C24.9629 84.6371 25.0713 84.8988 25.2643 85.0918C25.4573 85.2848 25.7191 85.3933 25.992 85.3933V85.3933Z" fill="#FFF896"/>
<path d="M13.0753 62.5236C13.1392 62.4142 13.1893 62.2973 13.2245 62.1756C13.3003 61.873 13.2576 61.5529 13.1051 61.2807C12.9676 61.0349 12.7524 60.8417 12.4933 60.7313C12.2342 60.6209 11.9458 60.5995 11.6733 60.6706C11.4008 60.7417 11.1595 60.9011 10.9873 61.124C10.8151 61.3468 10.7217 61.6205 10.7217 61.9022C10.7217 62.1838 10.8151 62.4575 10.9873 62.6804C11.1595 62.9032 11.4008 63.0627 11.6733 63.1337C11.9458 63.2048 12.2342 63.1834 12.4933 63.073C12.7524 62.9626 12.9676 62.7694 13.1051 62.5236H13.0753Z" fill="#FFF896"/>
</g>
<defs>
<clipPath id="clip0_2248_3506">
<rect width="100" height="100" fill="white"/>
</clipPath>
</defs>
</svg>
