<svg width="529" height="489" viewBox="0 0 529 489" fill="none" xmlns="http://www.w3.org/2000/svg">
<g clip-path="url(#clip0_2111_3732)">
<path d="M71.1543 436.955C78.5915 436.022 85.9155 435.8 92.7363 439.765C93.7077 440.26 94.7934 440.486 95.8816 440.422C102.358 440.232 108.916 440.785 115.293 440.182C122.195 439.525 129.143 438.877 136.041 437.97C138.497 437.644 140.795 437.708 143.116 438.909C147.376 441.115 152.098 441.659 156.78 441.414C162.98 441.088 169.175 440.708 175.158 438.473C184.222 435.088 193.635 434.517 203.343 435.188C213.364 435.877 223.375 437.096 233.532 436.181C242.016 435.415 250.618 435.877 259.165 435.936C260.619 435.966 262.038 436.383 263.276 437.146C265.506 438.555 267.98 438.727 270.319 438.505C274.398 438.125 278.441 438.356 282.492 438.084C286.018 437.848 289.445 438.99 292.916 439.529C298.069 440.359 303.204 441.374 308.276 442.597C311.077 443.272 313.886 443.005 316.61 442.928C327.044 442.635 337.485 442.949 347.882 443.871C349.926 444.052 352.042 443.685 354.1 443.377C357.235 442.94 360.423 443.077 363.509 443.78C371.703 445.538 379.689 443.812 387.688 442.565C394.722 441.469 401.737 441.414 408.662 442.842C412.125 443.558 415.615 443.413 419.086 443.871L418.561 444.065C415.293 445.425 411.844 445.964 408.341 446.182C407.081 446.259 405.816 446.299 404.556 446.345C400.874 446.663 397.231 447.338 393.679 448.361C392.813 448.649 391.876 448.649 391.01 448.361C388.422 447.373 385.938 447.994 383.464 448.814C380.858 450.527 377.717 450.414 374.875 451.33C374.177 451.533 373.434 451.783 372.754 451.638C367.026 450.369 361.515 452.336 355.904 452.694C355.325 452.768 354.737 452.729 354.173 452.58C352.895 451.615 351.78 452.272 350.669 452.952C349.575 453.267 348.448 453.457 347.311 453.518C344.501 453.799 341.995 455.136 339.275 455.784C336.257 456.486 333.52 457.429 330.143 456.853C326.857 456.296 323.186 457.053 319.928 458.539L316.71 458.861C312.439 460.767 307.853 461.869 303.182 462.11C299.243 462.337 295.35 463.266 291.457 463.995C289.676 464.326 287.922 464.711 286.1 464.399C281.645 465.037 277.299 466.211 272.925 467.226C267.074 468.586 261.232 470.371 255.286 470.956C244.49 472.012 233.731 473.403 222.976 474.753C215.113 475.741 207.336 477.545 199.409 477.925C187.508 478.46 175.665 479.629 163.809 480.712C157.569 481.283 151.391 482.108 145.558 484.591C141.837 486.177 137.736 485.806 133.983 486.68C128.998 487.845 123.967 487.954 118.982 488.674C115.782 489.127 112.546 489.277 109.406 488.139C108.785 487.917 108.186 488.28 107.57 488.411C101.32 489.771 97.5993 488.724 93.3527 483.649C90.7875 480.585 90.2708 476.974 89.4687 473.471C88.0592 467.29 85.7659 461.399 84.0074 455.344C83.101 452.272 82.9378 449.1 81.9861 446.023C81.0797 443.159 79.3393 440.735 78.5689 437.866C78.2788 436.77 77.1639 437.019 76.2484 437.032C74.5307 437.028 72.8357 437.748 71.1543 436.955Z" fill="#FF9565"/>
<path d="M488.524 26.7371C488.565 26.9069 488.592 27.0796 488.606 27.2537C484.527 26.8005 480.421 26.2431 476.31 25.9214C468.529 25.3096 460.747 24.3942 452.92 25.1555C450.871 25.3549 448.841 25.867 446.82 26.2295C440.715 27.3126 434.633 25.9304 428.533 26.0347C415.58 26.2567 402.853 23.3475 389.896 23.2206C379.853 23.1209 369.805 22.7674 359.757 22.7674C355.583 22.7674 351.414 22.1647 347.244 21.8339C349.161 20.0213 352.125 20.7237 354.097 19.0244C357.872 17.0939 361.57 15.0003 365.572 13.5457C368.908 12.0214 372.355 10.752 375.883 9.74826C376.666 9.49901 377.511 9.52137 378.28 9.8117C380.655 10.7996 383.057 10.3192 385.459 10.0836L388.21 10.4008C389.117 10.8268 390.168 10.6455 391.025 11.1984L392.094 11.1304C393.495 11.937 394.668 11.8645 396.327 11.2527C398.506 10.4714 400.747 9.87267 403.026 9.46277C404.716 9.14556 406.384 8.95524 407.852 7.9447C408.133 7.70941 408.479 7.56483 408.844 7.53004C409.209 7.49526 409.576 7.57189 409.896 7.74985C411.057 8.49755 411.709 7.59577 412.511 7.06558C414.442 6.48101 416.255 5.47501 418.335 5.4025C423.815 4.7137 428.94 2.0854 434.633 2.45699C435.546 2.43428 436.426 2.10555 437.13 1.52349L438.712 1.36035C440.18 1.17909 441.649 1.03861 443.108 1.45552C444.603 1.98571 446.153 2.32557 447.699 2.71982C448.605 3.05062 449.58 2.86483 450.527 2.82405C451.12 2.79391 451.713 2.86752 452.281 3.04156C453.912 3.89349 455.453 3.30439 456.985 2.73795C461.313 1.13831 465.66 -0.162249 470.409 0.494827C472.254 0.753125 474.185 0.227465 476.075 0.0416712C480.113 -0.316322 482.107 1.2516 482.728 5.28468C482.905 6.43116 482.755 7.65921 483.58 8.64256C484.269 13.7949 486.299 18.7389 485.941 24.0498C485.941 24.2583 486.444 24.503 486.712 24.7341C486.752 25.9259 486.838 27.0679 488.524 26.7371Z" fill="#FF9565"/>
<path d="M57.2819 305.522C56.3755 304.009 56.448 302.645 57.504 301.249C58.8496 299.505 59.5235 297.335 59.403 295.136C58.9951 287.944 59.6658 280.635 57.2411 273.634C56.3891 271.164 56.3347 268.45 56.4435 265.83C56.5523 262.658 56.4888 259.486 55.3467 256.468C54.8935 255.24 55.247 253.962 55.4374 252.712C56.2894 247.169 57.1641 241.627 57.9074 236.067C58.267 233.637 58.0227 231.157 57.1958 228.844C56.5297 227.106 56.2201 225.252 56.2855 223.392C56.3509 221.532 56.79 219.705 57.5765 218.018C59.1129 214.606 58.7685 210.899 58.8682 207.31C58.9679 203.721 59.199 200.059 59.6568 196.498C60.4069 190.285 60.0091 183.987 58.4829 177.918C58.3153 177.211 57.9799 176.468 58.1521 175.784C59.2761 171.252 58.2609 166.816 57.64 162.348C57.3227 160.082 57.8666 157.943 59.4981 156.321C62.6706 153.185 62.9199 149.442 61.8685 145.495C61.0127 142.241 61.0691 138.813 62.0316 135.589C62.6859 133.397 62.648 131.056 61.9228 128.887C59.4755 121.931 59.5661 114.671 59.0767 107.475C59.0369 106.215 59.293 104.962 59.8245 103.818C62.21 98.2031 63.106 92.0674 62.4259 86.0047C61.4878 78.1198 61.8095 70.2983 62.5528 62.4406C62.6352 61.2653 62.974 60.1222 63.5453 59.0918C58.2713 59.2022 53.0465 60.1333 48.059 61.8515C37.9388 65.4768 27.048 64.2623 16.8598 67.5794C12.3277 69.0612 7.62331 69.46 3.53986 72.6502C0.580373 74.9658 -0.176494 77.363 0.0138562 80.7073C0.661952 92.0362 3.77553 102.912 5.96908 113.928C6.61265 117.15 8.05387 120.136 10.6553 122.271C12.8262 124.052 13.3157 126.104 12.8126 128.774C12.3838 131.07 12.212 133.408 12.3005 135.743C12.4183 139.047 13.293 142.364 13.0891 145.631C12.7356 151.259 13.8913 156.398 16.112 161.523C17.1185 163.62 17.7987 165.859 18.1288 168.162C18.582 172.082 19.1712 176.155 20.49 179.763C21.7409 183.179 22.0446 186.632 22.3437 189.995C22.7969 195.301 23.2003 200.63 23.8121 205.923C24.0296 207.822 24.2653 209.902 25.3485 211.615C30.6692 220.084 30.6874 229.528 30.2613 238.99C30.0936 242.697 29.5906 246.24 31.7479 249.68C33.4112 252.331 34.4944 255.272 35.4053 258.34C36.1486 260.832 35.5141 263.266 36.2438 265.758C37.6759 270.656 38.9993 275.727 39.2622 280.798C39.7834 290.967 43.3864 300.175 46.8897 309.465C47.488 311.051 48.4035 312.514 49.0833 314.069C52.3782 321.623 52.7498 329.984 55.6005 337.66C57.6128 330.241 58.7984 322.623 59.1356 314.943C59.2897 311.613 58.986 308.441 57.2819 305.522Z" fill="#FF9565"/>
<path d="M516.812 158.075C516.957 157.203 516.876 156.309 516.576 155.478C516.037 152.215 514.102 149.392 513.64 146.111C513.58 145.899 513.479 145.7 513.341 145.527C513.203 145.354 513.032 145.211 512.837 145.105C511.795 143.655 511.632 141.933 511.446 140.252C510.957 135.775 510.784 131.248 509.484 126.893C508.958 125.135 509.076 123.336 508.84 121.573C507.816 113.869 509.094 106.166 508.654 98.4621C509.824 96.79 508.523 94.8369 509.23 93.1285C509.75 91.3452 509.785 89.4553 509.33 87.6543C509.22 87.1948 508.934 86.7972 508.532 86.5486C508.358 86.3456 508.22 86.1141 508.124 85.8644C506.175 75.5415 504.544 65.1733 503.438 54.7235C503.664 51.6557 502.985 48.6467 502.889 45.597C502.849 43.8977 503.139 42.1621 502.092 40.6123C501.589 38.419 501.317 36.1442 500.537 34.0597C499.028 30.0175 495.448 28.4904 491.627 27.4119C490.721 26.6823 489.601 26.637 488.527 26.4512C473.195 24.131 457.931 23.3924 442.39 25.4135C434.658 26.424 426.527 25.0419 418.592 24.6657C413.516 24.4256 408.558 23.2564 403.509 22.9211C392.777 22.2142 382.026 21.897 371.267 21.8743C363.327 21.8743 355.382 21.5843 347.451 21.1085C344.84 21.1085 342.23 20.9861 339.624 20.8411C338.532 20.7822 337.444 20.7097 336.578 21.5707C335.59 21.6749 334.602 21.7882 333.614 21.8834C321.568 23.0299 309.476 22.7897 297.398 23.0117C295.689 22.6855 293.917 23.628 292.335 23.1522C288.515 22.0012 284.685 22.6719 280.869 22.699C279.482 22.699 277.964 22.3637 276.704 23.3561C274.294 23.6637 271.848 23.5425 269.48 22.9981C268.465 22.0918 267.264 22.332 266.081 22.4634C259.413 23.4391 252.668 23.7851 245.935 23.4966C241.222 22.4679 236.418 22.5903 231.637 22.0329C227.435 22.196 223.229 21.9242 219.028 22.1689C217.811 22.3458 216.569 22.1778 215.443 21.684C211.473 20.7777 207.444 21.5435 203.456 21.2897C202.817 21.3525 202.223 21.6476 201.788 22.119L200.147 22.2187C198.334 21.8109 196.521 22.7761 194.709 22.2504L189.787 22.1054C188.545 21.1629 186.995 22.9166 185.785 21.616C184.511 21.0496 183.156 21.0677 181.797 21.0133C177.328 20.8185 172.864 20.7233 168.422 21.4212C165.504 21.1039 162.562 21.8245 159.653 21.1946C158.601 20.5058 157.409 21.5163 156.349 20.9181C155.574 20.2928 154.667 20.2973 153.747 20.3925C152.732 20.518 151.705 20.4936 150.697 20.32C149.945 20.2837 149.192 20.1931 148.431 20.1161C150.054 24.6929 150.77 29.4556 151.277 32.8633C153.122 45.239 153.403 57.9092 153.67 70.1671C153.729 72.8226 153.788 75.4735 153.861 78.1154C154.046 84.6499 154.355 90.7766 154.626 96.1782C155.32 109.854 155.868 120.649 153.879 128.352C151.563 137.325 145.898 141.974 136.049 142.989C134.574 143.369 133.073 143.638 131.558 143.791H131.526C131.426 143.791 131.327 143.791 131.222 143.791C129.262 143.827 127.315 143.448 125.511 142.681C123.706 141.913 122.083 140.774 120.749 139.337C112.944 131.18 110.221 111.418 111.911 75.3149C111.943 74.7373 112.129 74.1787 112.449 73.6967C112.769 73.2147 113.212 72.8268 113.732 72.5728C114.252 72.3189 114.83 72.2082 115.407 72.2521C115.984 72.296 116.539 72.4929 117.014 72.8226C117.422 72.2489 118.005 71.8226 118.676 71.6073C119.346 71.3921 120.068 71.3995 120.734 71.6284C121.4 71.8573 121.974 72.2954 122.37 72.8774C122.767 73.4593 122.964 74.1539 122.933 74.8572C121.374 108.105 123.676 127.473 129.976 134.067C130.634 134.791 131.43 135.378 132.317 135.792C133.204 136.206 134.165 136.439 135.143 136.477C144.882 133.364 144.91 122.656 143.622 97.3111C143.35 91.8732 143.038 85.7148 142.852 79.1033C142.779 76.4478 142.716 73.7848 142.662 71.1142C142.394 59.0602 142.122 46.5985 140.337 34.6306C139.553 29.3695 138.524 23.8002 136.353 19.6765L123.495 18.8382C122.629 18.5962 121.734 18.4773 120.835 18.4847C120.722 18.4847 120.613 18.4847 120.499 18.4847C119.276 18.4847 118.048 18.5119 116.824 18.53L113.547 18.5799L109.346 18.6297C105.743 18.666 102.135 18.6614 98.5277 18.5481C96.9867 18.4575 95.4639 18.7158 93.9275 18.7702C92.3911 18.8246 91.0043 19.323 89.5223 18.9424C84.3829 19.024 79.2434 19.0104 74.113 19.2188C70.3151 19.3729 68.466 21.2897 67.3647 24.992C66.4265 28.1641 66.5489 31.3634 66.2316 34.5536C65.4249 42.6923 64.6243 50.8309 63.8296 58.9696C63.2583 60.0001 62.9195 61.1431 62.8371 62.3184C62.0938 70.1671 61.772 77.9885 62.7102 85.8825C63.3836 91.9419 62.4829 98.0726 60.0951 103.682C59.5555 104.832 59.2946 106.093 59.3337 107.362C59.8232 114.558 59.7326 121.818 62.1799 128.774C62.905 130.943 62.943 133.284 62.2887 135.476C61.3262 138.7 61.2697 142.127 62.1255 145.382C63.177 149.329 62.9141 153.085 59.7552 156.208C58.1237 157.83 57.5798 159.982 57.897 162.235C58.518 166.703 59.5331 171.135 58.4092 175.671C58.237 176.355 58.5723 177.098 58.74 177.805C60.2661 183.874 60.664 190.172 59.9139 196.384C59.4606 199.951 59.225 203.572 59.1253 207.197C59.0256 210.822 59.37 214.493 57.8336 217.905C57.0524 219.589 56.6173 221.413 56.5543 223.269C56.4912 225.125 56.8014 226.974 57.4665 228.708C58.2919 231.018 58.5362 233.496 58.178 235.922C57.4348 241.482 56.5601 247.025 55.708 252.567C55.5177 253.817 55.1551 255.095 55.6174 256.323C56.7595 259.364 56.8229 262.491 56.7142 265.686C56.6235 268.305 56.6598 271.019 57.5118 273.489C59.9365 280.508 59.2658 287.799 59.6736 294.991C59.7942 297.191 59.1203 299.36 57.7747 301.104C56.7187 302.5 56.6643 303.864 57.5526 305.377C59.2567 308.296 59.5603 311.468 59.4062 314.808C59.064 322.484 57.8739 330.1 55.8576 337.515C54.4572 343.742 52.9072 349.941 52.1775 356.294C51.7338 359.627 52.5412 363.006 54.4436 365.778C56.0207 368.148 56.5102 371.062 55.1053 373.772C53.0477 377.746 51.8512 381.852 53.4193 386.193C57.1311 396.489 56.1386 407.197 56.415 417.796C56.5419 422.749 56.3788 427.711 56.5782 432.66C56.7278 436.376 57.8653 437.486 61.4457 437.699C65.2255 437.93 69.0144 437.934 72.7761 438.039C76.157 438.161 79.5063 437.667 82.9462 438.324C86.2456 438.959 89.554 439.33 92.577 440.916C94.8478 442.08 97.4097 442.552 99.9462 442.276C101.759 442.117 103.572 442.19 105.385 442.117C109.369 441.958 113.398 442.611 117.313 442.022C124.488 440.934 131.726 440.59 138.918 439.756C140.266 439.535 141.648 439.674 142.924 440.159C154.332 445.031 165.771 443.785 177.151 440.159C184.375 437.866 191.681 436.371 199.295 436.747C207.249 437.137 215.158 437.953 223.134 438.261C233.436 438.659 243.728 437.354 254.043 437.749C257.556 437.889 261.163 437.295 264.467 438.877C267.449 440.318 270.563 440.558 273.745 440.282C281.449 439.607 289.054 440.255 296.659 441.759C303.113 443.037 309.467 444.986 316.193 444.786C320.979 444.646 325.778 444.646 330.573 444.659C339.968 444.659 349.341 446.431 358.763 445.04C360.121 444.874 361.498 444.979 362.815 445.348C370.95 447.482 379.13 446.2 387.08 444.868C395.287 443.416 403.688 443.446 411.884 444.958C414.821 445.516 417.776 445.702 420.681 444.895C426.147 444.56 431.608 444.786 437.065 445.008C438.583 446.127 440.4 445.819 442.014 445.72C444.905 445.538 447.906 446.449 450.688 444.927H451.228C454.201 445.914 457.26 445.167 460.292 445.38C463.464 445.624 466.637 444.36 469.809 445.334C471.513 445.525 473.204 445.212 474.904 445.171C476.263 445.135 477.8 445.724 478.933 444.392C484.729 442.656 490.598 443.322 496.463 443.862C499.288 444.821 502.333 444.928 505.219 444.17C508.115 443.717 511.029 443.912 513.939 443.88C514.006 443.96 514.091 444.022 514.187 444.061C514.284 444.101 514.388 444.116 514.492 444.106C514.596 444.096 514.695 444.06 514.782 444.003C514.869 443.945 514.94 443.867 514.99 443.776C518.475 442.566 522.31 442.475 525.555 440.486C525.776 440.494 525.997 440.456 526.202 440.373C526.407 440.29 526.593 440.165 526.747 440.005C529.584 437.173 528.967 433.48 529.244 430.009C529.344 422.418 528.908 414.833 528.686 407.242C528.523 401.682 528.614 395.94 524.381 391.382C523.889 390.83 523.56 390.153 523.431 389.426C523.301 388.699 523.376 387.95 523.647 387.263C525.677 381.657 526.189 375.902 526.307 369.948C526.42 364.36 526.923 358.886 526.108 353.231C524.266 340.137 523.81 326.886 524.748 313.697C525.033 309.447 525.024 305.06 523.597 300.841C522.881 298.721 521.893 296.428 522.038 294.316C522.269 290.944 522.21 287.451 523.397 284.174C524.086 282.424 524.366 280.539 524.218 278.664C524.494 277.712 524.766 276.761 525.042 275.809C525.556 274.608 525.76 273.298 525.639 271.998C525.517 270.698 525.072 269.448 524.345 268.364C522.804 266.705 522.591 264.566 522.201 262.473C523.23 259.917 522.106 257.397 522.065 254.86C521.403 249.743 522.065 244.555 521.249 239.452C521.168 238.958 521.408 238.41 521.498 237.889C522.264 236.955 522.101 236.076 521.285 235.288C521.81 229.662 521.658 223.993 520.832 218.403C521.007 218.156 521.15 217.888 521.258 217.606C521.393 216.85 521.345 216.073 521.118 215.34C520.744 214.352 520.521 213.313 520.456 212.259C520.257 210.6 520.062 208.928 518.738 207.691C516.925 204.519 516.25 201.115 516.205 197.531C516.862 196.022 516.577 194.599 515.811 193.217C515.561 190.38 514.977 187.521 515.167 184.716C515.321 182.414 514.134 179.903 515.897 177.769C516.709 176.863 517.18 175.703 517.229 174.488C517.569 172.073 517.8 169.608 517.125 167.238C516.302 164.487 516.051 161.597 516.386 158.745C516.552 158.538 516.695 158.313 516.812 158.075Z" fill="#FFE0D2"/>
<path d="M124.072 14.6776C124.813 14.1146 125.621 13.6458 126.478 13.2819C123.986 13.1709 121.536 13.95 119.567 15.4797C118.399 16.3699 117.382 17.4407 116.553 18.6518C117.776 18.6518 119.005 18.6155 120.228 18.6065C120.342 18.6065 120.45 18.6065 120.564 18.6065C121.471 17.0849 122.662 15.7513 124.072 14.6776Z" fill="white"/>
<path d="M143.401 20.3102C145.214 25.1091 145.98 30.2071 146.514 33.8006C148.363 46.1718 148.644 58.8465 148.912 71.1044C148.971 73.7599 149.03 76.4108 149.102 79.0527C149.284 85.5872 149.596 91.7094 149.868 97.1155C150.562 110.792 151.11 121.586 149.12 129.29C147.181 136.794 142.893 141.262 135.782 143.124C145.631 142.109 151.296 137.46 153.612 128.487C155.601 120.784 155.053 109.972 154.36 96.3134C154.088 90.9118 153.779 84.7851 153.594 78.2506C153.521 75.6088 153.462 72.9578 153.403 70.3023C153.136 58.0671 152.855 45.3788 151.01 32.9986C150.503 29.5908 149.787 24.8418 148.164 20.2513C146.297 14.9539 143.215 9.91028 137.776 7.52669C133.858 5.72207 129.407 5.44571 125.295 6.75179C128.041 6.66323 130.77 7.20259 133.276 8.32877C138.447 10.6036 141.502 15.2938 143.401 20.3102Z" fill="white"/>
<path d="M118.163 75.7958C116.604 109.044 118.906 128.412 125.201 135.005C125.909 135.783 126.773 136.402 127.737 136.821C128.701 137.24 129.743 137.451 130.794 137.439C132.178 137.303 133.545 137.025 134.873 136.609C133.895 136.571 132.934 136.338 132.047 135.924C131.16 135.51 130.364 134.923 129.706 134.198C123.406 127.605 121.095 108.237 122.663 74.9892C122.693 74.2862 122.495 73.5924 122.098 73.0112C121.701 72.4301 121.127 71.9927 120.462 71.7644C119.796 71.5361 119.074 71.5291 118.404 71.7444C117.735 71.9597 117.152 72.3857 116.744 72.959C117.203 73.2716 117.574 73.6963 117.823 74.1929C118.071 74.6894 118.188 75.2412 118.163 75.7958Z" fill="white"/>
<path d="M116.552 18.6614C117.382 17.4503 118.399 16.3795 119.566 15.4893C121.536 13.9595 123.986 13.1805 126.478 13.2915C127.921 13.37 129.338 13.7141 130.656 14.3065C133.022 15.3533 134.762 17.32 136.095 19.8214C138.27 23.9406 139.294 29.5099 140.079 34.7756C141.864 46.7434 142.136 59.2052 142.404 71.2591C142.461 73.9297 142.524 76.5927 142.594 79.2482C142.78 85.8598 143.092 92.0227 143.364 97.456C144.651 122.801 144.624 133.509 134.885 136.622C133.557 137.038 132.19 137.316 130.806 137.452C129.755 137.464 128.713 137.253 127.749 136.834C126.785 136.415 125.921 135.796 125.213 135.018C118.918 128.425 116.602 109.057 118.175 75.8088C118.195 74.9569 117.881 74.1309 117.301 73.5073C116.72 72.8837 115.918 72.512 115.067 72.4718C114.215 72.4315 113.382 72.7259 112.745 73.2919C112.108 73.8579 111.718 74.6506 111.658 75.5006C109.967 111.604 112.691 131.348 120.495 139.522C121.832 140.958 123.457 142.096 125.263 142.861C127.069 143.626 129.017 144.002 130.978 143.963C131.082 143.963 131.182 143.963 131.282 143.963H131.313C132.829 143.81 134.33 143.542 135.805 143.161C142.916 141.299 147.203 136.817 149.143 129.326C151.132 121.623 150.584 110.811 149.891 97.1524C149.619 91.7463 149.306 85.6241 149.125 79.0896C149.052 76.4477 148.993 73.7968 148.934 71.1413C148.667 58.9061 148.386 46.2177 146.537 33.8375C146.002 30.244 145.241 25.146 143.423 20.3471C141.524 15.3307 138.47 10.6405 133.312 8.36566C130.806 7.23948 128.077 6.70011 125.331 6.78868C121.823 6.94051 118.448 8.17003 115.664 10.3097C112.767 12.5033 110.495 15.417 109.074 18.761L113.276 18.7112L116.552 18.6614Z" fill="#DEBEB1"/>
<path d="M178.444 283.355L177.538 283.536C174.218 284.39 170.804 284.816 167.376 284.805C158.542 284.805 150.256 281.902 142.518 276.095C144.496 274.062 146.315 271.879 147.956 269.565C154.474 261.005 159.926 251.685 164.195 241.81C168.485 231.895 171.054 222.037 171.9 212.237C172.043 210.731 172.104 209.218 172.081 207.705C172.081 200.21 170.327 194.284 166.819 189.928C162.828 184.729 157.087 182.129 149.597 182.129C147.219 182.101 144.845 182.344 142.522 182.854C135.766 184.236 129.465 187.293 124.199 191.745C118.447 196.548 113.433 202.172 109.32 208.435C101.941 219.443 97.1072 230.268 94.817 240.908C94.6961 241.996 95.1795 243.234 96.2672 244.624C97.214 245.902 98.4586 246.931 99.8929 247.619C97.9381 254.504 96.9607 260.365 96.9607 265.202C96.9607 275.123 100.529 282.5 107.666 287.334C110.608 289.331 114.08 290.406 117.636 290.42C123.32 290.42 129.307 287.82 135.597 282.621C144.187 289.267 153.44 292.59 163.356 292.59C167.282 292.566 171.187 292.017 174.968 290.959C176.378 290.676 177.673 289.983 178.689 288.965C179.835 287.873 180.411 286.726 180.411 285.517C180.429 284.076 179.773 283.355 178.444 283.355ZM129.275 259.94C129.088 259.58 128.798 259.284 128.442 259.09C128.086 258.897 127.68 258.814 127.276 258.853C125.826 258.853 124.315 259.64 122.744 261.214C121.173 262.788 120.689 264.117 121.294 265.202C123.345 269.004 125.774 272.59 128.545 275.905C122.375 280.872 116.932 283.053 112.216 282.449C111.265 282.421 110.334 282.171 109.497 281.719C109 281.453 108.567 281.082 108.228 280.632C106.288 277.855 105.319 273.928 105.322 268.849C105.367 262.206 106.533 255.619 108.771 249.364C111.415 241.957 114.505 234.717 118.026 227.685C118.63 226.476 118.236 225.055 116.843 223.421C115.45 221.786 113.97 220.91 112.402 220.792C118.444 210.27 125.762 202.106 134.355 196.299C137.31 194.4 140.475 192.849 143.787 191.677C146.974 190.465 150.348 189.82 153.757 189.769C156.001 189.712 158.23 190.145 160.288 191.038L161.38 191.944C162.079 192.748 162.632 193.668 163.012 194.663C163.855 196.959 164.278 200.104 164.281 204.098C164.16 212.324 162.498 220.761 159.296 229.407C156.011 238.211 151.783 246.634 146.687 254.53C143.451 259.81 139.746 264.789 135.62 269.407C133.158 266.498 131.03 263.323 129.275 259.94Z" fill="#E46125"/>
<path d="M232.507 233.816C232.879 234.215 233.328 234.534 233.828 234.753C234.327 234.972 234.867 235.086 235.412 235.089L236.137 234.908C236.375 234.848 236.596 234.735 236.784 234.578C236.972 234.421 237.123 234.224 237.225 234.002L238.675 231.464C238.915 230.984 238.798 230.073 238.313 228.745C237.681 227.61 236.816 226.622 235.775 225.845C234.566 225.12 233.598 224.757 232.87 224.757C232.557 224.746 232.247 224.808 231.963 224.938C231.759 225.021 231.574 225.144 231.418 225.3C231.262 225.455 231.139 225.641 231.057 225.845C230.208 227.295 229.724 228.141 229.606 228.382C229.241 228.866 229.362 229.772 229.969 231.101C230.443 232.294 231.349 233.263 232.507 233.816Z" fill="#E46125"/>
<path d="M329.395 243.16C328.859 242.644 328.146 242.353 327.401 242.344C327.008 242.363 326.623 242.47 326.277 242.659C325.931 242.847 325.632 243.111 325.403 243.432C316.453 255.773 308.598 261.942 301.836 261.939C300.006 261.935 298.203 261.498 296.574 260.665C294.065 259.492 292.021 257.512 290.768 255.042C299.832 252.991 306.48 249.241 310.71 243.795C311.314 242.952 311.344 241.925 310.8 240.713C310.221 239.466 309.349 238.378 308.258 237.541C307.106 236.635 306.109 236.182 305.266 236.182C304.983 236.174 304.702 236.237 304.449 236.363C304.195 236.49 303.976 236.676 303.812 236.907C300.548 241.26 295.528 244.465 288.751 246.522L293.107 233.639C299.515 216.468 306.043 202.376 312.69 191.364C313.294 190.156 312.871 188.736 311.421 187.105C309.971 185.473 308.46 184.656 306.889 184.653C306.489 184.642 306.094 184.737 305.743 184.928C305.392 185.119 305.098 185.399 304.89 185.741C301.373 191.432 298.282 197.376 295.64 203.523C288.023 217.552 280.714 229.464 273.714 239.258C267.671 247.606 262.167 253.95 257.203 258.291C252.973 261.798 249.526 263.673 246.861 263.915C246.738 263.915 246.861 263.072 247.223 261.377C248.051 258.753 249.34 256.297 251.03 254.126C252.501 251.952 254.205 249.945 256.111 248.14L258.291 246.509C258.72 246.208 259.219 246.021 259.741 245.965H260.829C261.096 245.982 261.363 245.943 261.614 245.848C261.864 245.754 262.091 245.607 262.281 245.418C262.47 245.229 262.616 245.002 262.711 244.752C262.805 244.501 262.845 244.234 262.827 243.967C262.812 243.071 262.56 242.196 262.098 241.429C261.627 240.594 260.937 239.903 260.104 239.431C258.864 238.614 257.414 238.174 255.93 238.162C252.543 238.162 249.246 240.125 246.04 244.053C244.128 246.359 242.499 248.886 241.187 251.58C238.976 253.558 236.627 255.375 234.157 257.018C232.225 258.521 230.089 259.742 227.812 260.643C227.602 260.711 227.377 260.712 227.166 260.647C226.955 260.583 226.769 260.454 226.634 260.28C226.297 259.806 226.137 259.229 226.181 258.649C226.163 257.655 226.348 256.668 226.724 255.749C228.4 251.429 230.401 247.244 232.711 243.228C233.316 242.02 232.863 240.598 231.352 238.964C229.841 237.329 228.359 236.514 226.906 236.517C226.513 236.535 226.129 236.642 225.783 236.831C225.438 237.019 225.14 237.284 224.912 237.604C222.494 241.834 220.499 245.704 218.925 249.214C218.866 249.341 218.82 249.463 218.766 249.59C216.185 252.282 213.45 254.822 210.576 257.199C208.88 258.664 206.987 259.884 204.952 260.824C204.862 260.931 204.752 261.018 204.627 261.082C204.502 261.145 204.366 261.182 204.227 261.191C204.349 260.462 204.467 259.832 204.59 259.283C204.688 258.824 204.809 258.371 204.952 257.924C205.922 253.694 207.011 249.767 208.22 246.142C208.582 244.933 208.069 243.482 206.679 241.787C205.289 240.092 203.929 239.245 202.6 239.245C202.016 239.276 201.452 239.465 200.968 239.793L194.401 245.974C190.893 249.482 187.931 252.352 185.514 254.584C183.089 256.827 180.478 258.859 177.709 260.661L174.809 262.297C175.171 260.363 176.138 257.702 177.709 254.312C178.34 252.744 179.197 251.277 180.252 249.957C180.583 249.401 181.013 248.91 181.521 248.507L181.702 248.326C182.911 248.447 183.515 247.782 183.515 246.332C183.501 245.651 183.378 244.977 183.153 244.334C182.524 243.222 181.657 242.263 180.615 241.524C179.679 240.794 178.534 240.381 177.347 240.346C175.776 240.346 174.416 241.162 173.268 242.793C171.961 244.709 170.838 246.743 169.914 248.87C167.733 253.471 166.643 257.341 166.646 260.48C166.65 263.619 167.556 266.159 169.366 268.102C170.213 269.036 171.25 269.779 172.408 270.279C173.565 270.779 174.817 271.026 176.078 271.002C177.385 271.031 178.684 270.783 179.889 270.277C182.621 269.025 185.205 267.473 187.594 265.65C190.483 263.424 193.24 261.032 195.852 258.486C195.852 263.567 197.726 267.135 201.476 269.189C202.073 269.56 202.762 269.758 203.466 269.76C206.487 269.76 210.357 267.433 215.077 262.777C215.603 262.256 216.128 261.73 216.645 261.205C216.804 262.666 217.303 264.069 218.102 265.303C218.901 266.537 219.977 267.567 221.245 268.31C222.601 269.164 224.175 269.605 225.777 269.579C229.566 269.579 234.035 267.347 239.183 262.881C239.457 264.061 239.916 265.19 240.543 266.226C241.722 268.121 243.397 269.657 245.388 270.667C246.619 271.306 247.994 271.618 249.381 271.573C253.493 271.573 257.999 268.913 262.9 263.593C267.801 258.273 274.125 249.98 281.872 238.715C281.022 241.131 279.874 244.881 278.427 249.962C278.182 250.932 277.788 252.625 277.244 255.042C276.734 257.184 276.461 259.375 276.428 261.576L276.61 263.57C276.972 265.987 278.364 267.8 280.784 269.008C281.424 269.237 282.098 269.359 282.778 269.371C283.988 269.371 284.591 268.89 284.591 267.921V267.558C284.444 266.78 284.383 265.988 284.41 265.197C284.474 262.611 284.902 260.047 285.679 257.58C288.824 262.174 292.513 265.498 296.746 267.549C298.93 268.699 301.353 269.32 303.821 269.362C307.208 269.362 310.655 268.061 314.163 265.46C317.671 262.859 320.994 259.321 324.134 254.847C327.279 250.376 329.154 247.716 329.758 246.867C330.083 246.382 330.271 245.818 330.302 245.236C330.311 244.845 330.234 244.456 330.078 244.098C329.921 243.739 329.688 243.419 329.395 243.16Z" fill="#E46125"/>
<path d="M411.492 195.085C410.615 193.845 409.467 192.822 408.134 192.094C415.348 191.159 422.614 190.673 429.888 190.639C434.484 190.639 438.412 190.79 441.672 191.092C444.854 191.373 447.975 192.137 450.927 193.358L451.652 193.721L451.108 194.808C450.628 195.886 449.879 196.822 448.932 197.527C448.707 197.736 448.527 197.988 448.402 198.268C448.278 198.549 448.211 198.852 448.207 199.158C448.207 200.367 448.872 201.637 450.201 202.969C451.531 204.302 452.862 204.966 454.194 204.963C454.489 204.986 454.785 204.95 455.065 204.856C455.345 204.763 455.604 204.614 455.826 204.42C458.243 202.003 459.451 199.522 459.451 196.979C459.429 194.991 458.723 193.071 457.453 191.541C454.431 187.677 448.993 185.138 441.137 183.923C435.439 183.042 429.68 182.618 423.915 182.655C411.941 182.655 398.453 184.348 383.452 187.734C370.158 190.879 358.969 194.87 349.887 199.707C349.49 199.86 349.153 200.136 348.924 200.495C348.696 200.854 348.589 201.276 348.618 201.701C348.618 203.154 349.494 204.605 351.247 206.055C352.999 207.506 354.421 207.929 355.511 207.324C368.806 199.95 385.075 195.053 404.318 192.633C396.94 205.213 389.743 221.661 382.727 241.977C379.219 252.137 376.802 260.785 375.476 267.92C375.355 268.524 375.113 269.884 374.75 271.999C374.397 274.005 374.216 276.038 374.206 278.075C374.161 280.746 374.655 283.398 375.657 285.874C376.163 286.989 376.982 287.933 378.013 288.593C378.917 289.265 380.002 289.65 381.127 289.699C382.333 289.699 382.94 289.155 382.94 288.068C382.886 287.373 382.702 286.695 382.396 286.069C382.01 284.963 381.826 283.796 381.852 282.625C381.852 280.208 382.517 276.035 383.846 270.104C385.541 262.488 388.143 253.901 391.651 244.343C395.159 234.675 398.482 226.18 401.621 218.857C404.652 211.76 408.168 204.88 412.145 198.266C412.612 197.414 412.399 196.349 411.492 195.085Z" fill="#E46125"/>
<path d="M422.472 225.837C421.263 225.112 420.295 224.749 419.567 224.749C419.255 224.738 418.944 224.8 418.66 224.931C418.456 225.013 418.271 225.136 418.115 225.292C417.959 225.448 417.837 225.633 417.754 225.837C416.908 227.287 416.423 228.133 416.299 228.375C415.936 228.858 416.059 229.764 416.666 231.094C417.139 232.288 418.045 233.259 419.204 233.812C419.576 234.212 420.025 234.531 420.525 234.75C421.024 234.969 421.564 235.084 422.109 235.086L422.834 234.905C423.072 234.844 423.293 234.732 423.481 234.575C423.669 234.418 423.82 234.221 423.922 233.998L425.372 231.461C425.613 230.98 425.49 230.069 425.01 228.742C424.378 227.605 423.513 226.615 422.472 225.837Z" fill="#E46125"/>
<path d="M457.123 237.989C454.806 237.511 452.393 237.967 450.411 239.258C448.034 240.75 445.84 242.515 443.875 244.519L440.975 247.424L442.425 244.519C442.912 243.311 442.428 241.861 440.975 240.169C439.521 238.477 438.07 237.63 436.619 237.627C436.195 237.597 435.772 237.705 435.413 237.933C435.055 238.161 434.778 238.499 434.625 238.895C432.861 242.584 431.182 246.289 429.59 250.011C426.88 252.602 423.95 254.954 420.834 257.04C418.902 258.543 416.765 259.764 414.489 260.665C414.279 260.733 414.053 260.735 413.843 260.67C413.632 260.605 413.446 260.477 413.311 260.303C412.974 259.828 412.813 259.251 412.857 258.671C412.84 257.678 413.025 256.691 413.401 255.771C415.076 251.452 417.078 247.266 419.388 243.25C419.993 242.042 419.539 240.621 418.029 238.986C416.518 237.352 415.036 236.536 413.583 236.539C413.189 236.557 412.806 236.664 412.46 236.853C412.115 237.041 411.816 237.306 411.588 237.627C409.171 241.856 407.174 245.726 405.597 249.236C404.102 252.419 403.299 255.881 403.24 259.396C403.24 263.39 404.813 266.354 407.958 268.287C409.314 269.141 410.888 269.582 412.49 269.556C415.738 269.556 419.488 267.913 423.739 264.626C417.768 280.712 413.214 297.29 410.129 314.169C409.89 315.501 410.555 316.983 412.123 318.615C413.691 320.246 415.083 321.063 416.297 321.066C416.478 321.084 416.659 321.064 416.832 321.008C417.004 320.953 417.163 320.863 417.3 320.744C417.436 320.624 417.546 320.478 417.624 320.315C417.702 320.151 417.746 319.974 417.752 319.793C422.828 298.63 429.661 281.216 438.251 267.548C438.739 268.523 439.384 269.411 440.159 270.177C440.754 270.855 441.546 271.331 442.425 271.536C443.195 271.752 443.987 271.875 444.786 271.903C447.808 271.903 450.8 270.603 453.765 268.002C456.81 265.287 459.276 261.985 461.016 258.295C462.886 254.425 463.823 250.857 463.826 247.592C463.832 242.404 461.598 239.204 457.123 237.989ZM449.137 259.287C446.478 263.1 443.637 264.703 440.612 264.095C441.543 262.522 442.573 261.008 443.694 259.564C447.565 254.126 451.316 250.199 454.947 247.782C453.612 251.898 451.653 255.784 449.137 259.306V259.287Z" fill="#E46125"/>
<path d="M509.291 246.699C509.057 246.419 508.766 246.192 508.436 246.036C508.107 245.879 507.747 245.796 507.383 245.793H506.839L503.39 246.88L494.865 249.781C490.106 251.394 485.442 253.272 480.892 255.404C479.684 253.954 479.079 252.504 479.079 251.054C479.128 249.94 479.507 248.866 480.167 247.968C481.084 246.582 482.374 245.483 483.888 244.796C485.439 244.031 487.144 243.628 488.873 243.618C489.927 243.59 490.975 243.775 491.955 244.162C492.803 244.524 493.469 244.497 493.954 244.071C494.207 243.826 494.403 243.529 494.528 243.2C494.653 242.871 494.705 242.519 494.679 242.168V241.443C494.558 240.473 493.984 239.535 492.957 238.628C492.037 237.788 490.958 237.141 489.784 236.725C488.21 236.165 486.556 235.859 484.885 235.819C481.458 235.757 478.108 236.842 475.368 238.9C474.058 239.854 473.002 241.113 472.291 242.568C471.58 244.022 471.236 245.629 471.289 247.248C471.284 248.923 471.69 250.573 472.471 252.055C473.257 253.566 474.435 255.53 476.007 257.947L473.287 259.578C470.928 261.094 468.868 263.031 467.21 265.292C465.656 267.294 464.796 269.746 464.758 272.28C464.774 273.795 465.146 275.285 465.846 276.63C467.658 280.382 470.441 282.257 474.194 282.254C476.369 282.254 478.607 281.468 480.906 279.897C482.745 278.652 484.252 276.977 485.295 275.016C486.338 273.056 486.887 270.871 486.893 268.65C486.893 266.472 486.288 264.055 485.08 261.4C490.518 257.892 498.374 254.324 508.647 250.696C509.078 250.574 509.456 250.31 509.719 249.948C509.983 249.586 510.118 249.145 510.102 248.698C510.096 247.952 509.806 247.238 509.291 246.699ZM476.904 270.463C475.918 271.727 474.684 272.777 473.278 273.549C474.056 271.827 475.096 270.236 476.36 268.831L478.903 266.289C478.779 267.504 478.112 268.895 476.904 270.463Z" fill="#E46125"/>
</g>
<defs>
<clipPath id="clip0_2111_3732">
<rect width="529" height="489" fill="white"/>
</clipPath>
</defs>
</svg>
