<svg width="180" height="180" viewBox="0 0 180 180" fill="none" xmlns="http://www.w3.org/2000/svg">
<g clip-path="url(#clip0_2288_4696)">
<path d="M90.7228 2.50839C139.041 2.91319 177.883 42.411 177.478 90.7293C177.073 139.048 137.575 177.889 89.2569 177.484C40.9386 177.08 2.09706 137.582 2.50186 89.2634C2.90666 40.9451 42.4045 2.10359 90.7228 2.50839Z" stroke="white" stroke-width="5"/>
<path d="M135.774 128.49V128.293L135.649 128.132C130.709 120.776 120.972 122.172 113.419 119.809C113.419 113.962 113.747 108.128 114.404 102.305C114.406 102.169 114.376 102.034 114.317 101.911C114.258 101.788 114.171 101.681 114.064 101.598C113.956 101.514 113.83 101.457 113.697 101.431C113.563 101.405 113.425 101.41 113.294 101.446L90.5277 106.815C90.3433 106.866 90.1805 106.976 90.0642 107.127C89.9479 107.279 89.8844 107.465 89.8834 107.656C89.9638 110.559 89.7901 113.464 89.3644 116.337C88.899 119.648 88.5769 123.496 84.9436 124.677C79.7216 126.176 74.398 127.295 69.0144 128.024C64.862 128.794 60.0654 130.154 57.6313 133.805C55.1971 137.457 56.8795 141.305 60.2086 143.882C64.0398 146.561 68.4264 148.342 73.0414 149.09C78.713 150.178 84.4674 150.776 90.2414 150.88C101.141 151.274 112.972 151.703 123.532 148.535C128.294 147.366 132.441 144.445 135.147 140.356C136.246 138.592 136.88 136.579 136.989 134.503C137.099 132.428 136.681 130.359 135.774 128.49V128.49Z" fill="#FFB07F"/>
<path d="M122.082 68.424C119.54 56.307 114.547 42.4898 102.018 37.7468C90.3667 33.3797 75.744 36.834 65.7927 43.689C60.137 47.5728 55.0539 53.0138 53.2641 59.7971C51.0627 68.066 55.0539 74.7957 59.1705 81.6685C63.8598 89.5257 65.9717 99.4591 72.8624 105.884C78.5719 111.254 86.6439 112.811 94.1431 113.777C96.4032 114.226 98.731 114.208 100.984 113.725C103.237 113.242 105.367 112.304 107.244 110.967C111.136 107.97 114.214 104.044 116.193 99.5486C121.097 89.8658 124.176 79.2702 122.082 68.424Z" fill="#FFB07F"/>
<path d="M89.3463 112.256C91.8818 113.315 94.5489 114.025 97.2751 114.368C99.4833 114.473 101.672 113.912 103.557 112.757C107.49 110.902 110.834 107.997 113.222 104.363C113.296 104.254 113.323 104.12 113.298 103.991C113.273 103.862 113.197 103.748 113.088 103.674C112.979 103.6 112.845 103.573 112.716 103.598C112.586 103.624 112.472 103.699 112.399 103.808C110.169 107.088 107.138 109.743 103.593 111.522C101.437 112.932 98.8398 113.505 96.2907 113.133C93.9998 112.739 91.7983 111.952 89.5611 111.343C89.466 111.328 89.3688 111.348 89.2876 111.4C89.2065 111.452 89.1471 111.532 89.1206 111.624C89.0942 111.717 89.1025 111.816 89.1441 111.902C89.1857 111.989 89.2576 112.058 89.3463 112.095V112.256Z" fill="#FA8D61"/>
<path d="M75.5293 127.899C78.8293 129.883 82.4717 131.23 86.2681 131.872C88.2795 132.072 90.2685 132.456 92.2102 133.018C95.0918 134.127 95.1455 136.293 96.1299 138.781C96.2373 139.031 96.6668 139.121 96.7205 138.781C97.2753 135.201 94.7159 132.57 91.3511 131.622C88.7559 130.96 85.9817 130.852 83.476 130.118C80.9703 129.384 78.2319 128.078 75.5114 127.577C75.4881 127.586 75.4682 127.602 75.4542 127.623C75.4401 127.644 75.4326 127.668 75.4326 127.693C75.4326 127.718 75.4401 127.743 75.4542 127.763C75.4682 127.784 75.4881 127.8 75.5114 127.809L75.5293 127.899Z" fill="#FA8D61"/>
<path d="M125.482 127.756C122.923 128.311 120.417 129.402 117.912 130.154C115.406 130.906 112.775 131.55 110.198 132.23C108.748 132.606 106.618 132.767 105.669 134.02C104.698 135.46 104.273 137.199 104.47 138.924C104.47 139.01 104.504 139.092 104.565 139.152C104.625 139.212 104.707 139.246 104.792 139.246C104.878 139.246 104.96 139.212 105.02 139.152C105.081 139.092 105.115 139.01 105.115 138.924C105.49 137.904 105.508 136.776 105.902 135.792C106.618 134.002 107.226 134.002 108.73 133.608C110.734 133.036 112.739 132.535 114.744 131.98C118.323 130.995 122.511 130.065 125.482 127.863C125.482 127.863 125.482 127.702 125.482 127.72V127.756Z" fill="#FA8D61"/>
<path d="M69.9453 78.6437C70.0527 82.2233 74.9388 88.1655 78.8943 86.7157C84.1563 84.8186 81.7759 77.5341 79.8429 74.1871C79.5207 73.5965 78.6079 74.1871 78.948 74.7241C79.8498 76.258 80.5022 77.9254 80.881 79.6639C81.4537 82.2233 80.5409 86.501 76.9613 85.9103C73.3817 85.3197 72.3615 80.9168 70.178 78.6616C70.178 78.6616 69.999 78.6616 70.0169 78.6616L69.9453 78.6437Z" fill="#35208A"/>
<path d="M77.7126 89.3467C78.0871 88.5365 78.2177 87.6347 78.0885 86.7515C77.999 86.143 77.0325 86.0893 77.0862 86.7515C77.1164 87.5472 77.0745 88.3439 76.9609 89.132C76.9655 89.2223 76.9986 89.309 77.0553 89.3795C77.112 89.45 77.1896 89.5007 77.2769 89.5245C77.3642 89.5484 77.4568 89.544 77.5415 89.5121C77.6262 89.4801 77.6986 89.4223 77.7484 89.3467H77.7126Z" fill="#35208A"/>
<path d="M80.9162 89.1319C80.9044 88.5628 80.8202 87.9974 80.6656 87.4495C80.5403 86.9484 80.4687 86.3041 80.0571 85.9819C80.0081 85.9321 79.9468 85.8963 79.8795 85.878C79.8121 85.8598 79.7411 85.8597 79.6737 85.878C79.6063 85.8962 79.545 85.932 79.496 85.9817C79.447 86.0314 79.4121 86.0932 79.3949 86.1609C79.3691 86.6585 79.4611 87.1552 79.6633 87.6106C79.8065 88.1476 79.8602 88.7203 80.0392 89.2572C80.0694 89.3606 80.1358 89.4497 80.2263 89.508C80.3169 89.5664 80.4254 89.5901 80.532 89.5749C80.6386 89.5597 80.7362 89.5065 80.8068 89.4251C80.8773 89.3437 80.9162 89.2396 80.9162 89.1319V89.1319Z" fill="#35208A"/>
<path d="M101.07 66.7416C101.213 69.9274 103.701 73.686 101.625 76.7823C99.835 79.3238 96.7029 77.9815 95.0921 76.2275C93.6969 74.5817 92.6769 72.6517 92.1031 70.5717C91.9062 69.9274 90.8861 70.1959 91.1008 70.8402C92.2642 74.563 95.9333 81.3463 100.927 78.7869C104.757 76.8181 103.773 69.2294 101.231 66.6879C101.224 66.6727 101.212 66.66 101.198 66.6511C101.184 66.6421 101.167 66.6374 101.151 66.6374C101.134 66.6374 101.117 66.6421 101.103 66.6511C101.089 66.66 101.077 66.6727 101.07 66.6879V66.7416Z" fill="#35208A"/>
<path d="M104.023 78.9122C103.897 78.8227 103.808 78.7153 103.665 78.6258L103.128 78.2858C102.82 78.0285 102.532 77.7472 102.269 77.4446C101.803 76.9792 101.159 77.6593 101.553 78.1605C101.845 78.5009 102.176 78.8071 102.537 79.0733C102.703 79.1969 102.877 79.3105 103.056 79.4134C103.256 79.5306 103.474 79.6151 103.701 79.6639C104.184 79.8071 104.381 79.1628 104.023 78.9122Z" fill="#35208A"/>
<path d="M102.019 81.3105C101.714 80.8452 101.374 80.4156 101.088 79.9503C100.802 79.4849 100.658 78.9122 100.211 78.7153C100.157 78.6862 100.097 78.6697 100.035 78.6669C99.9737 78.6641 99.9123 78.6751 99.8557 78.6991C99.799 78.7232 99.7485 78.7596 99.7077 78.8058C99.667 78.852 99.6372 78.9067 99.6204 78.9659C99.513 79.5028 99.9425 80.0219 100.229 80.4514C100.537 80.9582 100.903 81.4268 101.321 81.8475C101.679 82.1875 102.305 81.7401 102.019 81.3105V81.3105Z" fill="#35208A"/>
<path d="M85.6234 82.5992C86.4113 84.5252 86.8185 86.5856 86.8226 88.6666C86.8226 89.7047 85.9993 91.6556 86.6794 92.6041C87.8607 94.2329 91.9056 93.1411 93.2838 92.3715C93.361 92.3143 93.4169 92.2329 93.4424 92.1402C93.4679 92.0475 93.4616 91.949 93.4244 91.8604C93.3873 91.7717 93.3216 91.6981 93.2377 91.6512C93.1537 91.6043 93.0565 91.587 92.9616 91.6019C91.7187 92.1268 90.3703 92.3536 89.0241 92.2641C87.0016 91.6377 87.8607 89.7047 87.8428 88.3086C87.7928 86.2471 87.3367 84.2157 86.5004 82.3307C86.2857 81.8475 85.4445 82.1875 85.6234 82.6887V82.5992Z" fill="#35208A"/>
<path d="M85.3548 99.3159C88.2721 101.482 94.3038 101.428 97.5075 99.9065C98.9765 99.1112 100.272 98.0301 101.317 96.7269C102.362 95.4236 103.136 93.9245 103.593 92.3178C103.593 91.9956 103.253 91.6914 103.002 91.9598C100.998 94.2687 100.264 97.3292 97.3285 98.8148C93.3731 100.909 89.4534 98.9937 85.4264 99.0474C85.399 99.0576 85.3753 99.0759 85.3586 99.0999C85.342 99.1239 85.333 99.1525 85.333 99.1817C85.333 99.2109 85.342 99.2394 85.3586 99.2634C85.3753 99.2874 85.399 99.3057 85.4264 99.3159H85.3548Z" fill="#35208A"/>
<path d="M111.378 91.2797C112.877 91.2797 114.341 90.8352 115.586 90.0025C116.832 89.1698 117.802 87.9864 118.375 86.6019C118.947 85.2175 119.096 83.6943 118.803 82.2253C118.509 80.7562 117.786 79.4072 116.726 78.3491C115.665 77.291 114.314 76.5714 112.844 76.2813C111.375 75.9912 109.852 76.1437 108.469 76.7195C107.086 77.2952 105.905 78.2684 105.075 79.5157C104.245 80.7631 103.804 82.2286 103.808 83.7267C103.831 85.7258 104.637 87.6361 106.052 89.048C107.467 90.4599 109.379 91.2611 111.378 91.2797V91.2797Z" fill="#E0435B"/>
<path d="M76.424 104.542C77.7389 104.546 79.0251 104.159 80.1198 103.431C81.2145 102.702 82.0684 101.665 82.5732 100.451C83.078 99.2373 83.211 97.9007 82.9553 96.6109C82.6997 95.3212 82.0669 94.1364 81.1372 93.2067C80.2075 92.277 79.0227 91.6442 77.733 91.3886C76.4432 91.1329 75.1066 91.2659 73.8926 91.7707C72.6785 92.2755 71.6417 93.1294 70.9134 94.2241C70.1851 95.3188 69.7982 96.6051 69.8018 97.9199C69.8205 99.6735 70.5266 101.35 71.7684 102.588C73.0101 103.827 74.6883 104.528 76.4419 104.542H76.424Z" fill="#E0435B"/>
<path d="M134.235 88.0044C133.018 85.7313 133.769 84.2458 134.539 81.9728C135.085 80.4766 135.41 78.9091 135.506 77.3193C135.613 74.1693 133.895 71.413 132.248 68.8536C128.669 63.4842 127.111 57.0946 123.442 51.6357C119.695 46.2015 115.082 41.4189 109.786 37.4784C105.276 34.0062 100.622 30.5877 94.9667 29.3527C88.8456 28.0104 81.8653 28.6189 77.0687 32.9323C71.1266 31.5363 62.4818 35.8855 58.2758 38.8386C50.6643 44.1777 45.422 52.2625 43.6531 61.3901C42.896 66.4974 42.531 71.6551 42.5614 76.8181C42.2649 82.1065 42.4807 87.4111 43.2057 92.6579C43.8704 97.3911 45.6225 101.906 48.3245 105.849C49.8068 107.839 51.5257 109.642 53.4433 111.218C54.4814 112.113 55.5553 113.008 56.5576 113.903C57.1913 114.461 57.7891 115.059 58.3474 115.693C59.6181 117.178 58.9738 118.574 58.1326 120.006C56.0028 123.586 55.1258 128.472 57.4883 132.248C58.687 133.993 60.3745 135.344 62.3386 136.132C64.6654 137.17 67.708 137.6 69.6947 139.211C70.2674 139.676 71.3234 139.926 70.8223 141.179C70.6433 141.68 69.7842 142.146 69.4262 142.575C68.973 143.07 68.6906 143.698 68.6208 144.365C68.6208 146.423 70.8402 147.193 72.5226 147.265C75.5253 147.189 78.4584 146.344 81.042 144.813C83.762 143.613 86.2007 141.857 88.2012 139.658C89.0539 138.67 89.6475 137.485 89.9287 136.21C90.2099 134.935 90.1698 133.611 89.812 132.356C89.2995 131.174 88.7013 130.031 88.0222 128.937C87.6197 128.09 87.399 127.169 87.3744 126.232C87.3497 125.295 87.5216 124.363 87.8791 123.496C88.935 120.561 90.6175 117.984 90.2595 114.744C89.889 111.985 88.5506 109.448 86.483 107.585C84.6479 106.034 82.5254 104.861 80.2366 104.13C77.6951 103.289 74.5809 103.271 72.2541 101.84C66.9921 98.6358 75.2789 92.3894 71.932 87.9865C71.216 87.0379 70.1422 86.7515 69.1936 86.1967C68.1256 85.4978 67.3788 84.4034 67.1174 83.154C66.8459 81.6475 66.9487 80.0973 67.4169 78.6399C67.885 77.1824 68.7041 75.8623 69.8021 74.7957C73.4891 70.7507 78.232 68.2092 81.1673 63.4305C83.5863 59.4432 84.902 54.8847 84.9796 50.2218C88.3802 54.3562 93.5527 57.9895 98.8147 57.2199C98.8147 62.7682 99.5128 68.8893 104.363 72.3079C105.979 73.2215 107.466 74.3471 108.784 75.6548C110.169 77.3347 110.94 79.4374 110.967 81.6148C110.967 85.3913 108.426 88.4876 107.388 91.9777C106.35 95.4678 107.209 98.7969 107.979 102.251C108.919 106.782 108.288 111.497 106.189 115.621C105.667 116.622 105.514 117.776 105.759 118.878C106.117 120.131 106.797 120.292 107.746 120.937C110.431 122.726 108.641 124.516 107.746 126.7C107.125 127.924 106.997 129.34 107.388 130.655C107.948 132.034 108.965 133.178 110.269 133.895C111.572 134.612 113.083 134.858 114.547 134.593C118.001 134.127 120.561 131.693 122.798 129.223C124.445 131.013 127.29 129.707 128.865 127.899C131.665 124.371 133.574 120.221 134.432 115.8C136.544 106.94 138.495 96.4522 134.235 88.0044Z" fill="#996666"/>
<path d="M88.2367 39.8588C88.3652 42.2812 89.1162 44.6295 90.4174 46.6769C91.7185 48.7242 93.5257 50.4013 95.6644 51.5462C98.5639 53.1033 102.197 52.8527 104.918 54.732C108.247 57.023 105.813 60.9605 106.403 64.218C107.513 70.3212 113.562 74.2408 115.925 79.8787C117.446 83.4205 117.517 87.4179 116.122 91.0112C114.923 94.0181 113.061 96.7386 112.542 99.9602C111.522 106.744 117.339 116.068 110.86 121.438C110.359 121.849 111.092 122.565 111.576 122.154C116.158 118.413 114.923 112.113 113.974 107.048C113.02 102.816 113.577 98.3835 115.549 94.5192C117.054 91.8839 117.935 88.939 118.126 85.9103C118.126 78.9838 113.509 74.4377 109.768 69.1757C108.73 67.835 107.952 66.3111 107.477 64.6833C107.209 62.8091 107.306 60.9006 107.763 59.0633C107.934 57.9518 107.75 56.8149 107.24 55.813C106.729 54.8111 105.917 53.9947 104.918 53.4792C101.624 51.6894 97.7585 51.9578 94.5189 49.6311C92.9639 48.4371 91.6593 46.9485 90.6797 45.2502C89.7 43.552 89.0645 41.6774 88.8095 39.7335C88.8095 39.4114 88.2188 39.5008 88.2367 39.823V39.8588Z" fill="#35208A"/>
<path d="M109.678 49.2552C113.92 49.9891 116.247 55.9491 116.838 59.7077C117.428 63.4662 115.71 66.8669 116.587 70.4464C117.375 73.6144 119.88 75.9769 121.706 78.59C123.989 81.7289 125.565 85.3255 126.324 89.1319C127.063 93.3047 126.193 97.6024 123.889 101.159C122.019 103.908 121.188 107.232 121.545 110.538C121.974 114.332 122.386 117.697 120.936 121.438C120.191 123.32 119.105 125.05 117.733 126.539C116.48 127.917 113.813 130.584 111.683 130.118C111.563 130.095 111.439 130.119 111.336 130.183C111.232 130.248 111.157 130.35 111.126 130.467C111.094 130.585 111.108 130.711 111.165 130.818C111.222 130.926 111.317 131.009 111.432 131.049C113.706 131.765 116.175 129.563 117.715 128.078C119.725 126.149 121.247 123.768 122.153 121.134C123.06 118.377 123.287 115.442 122.816 112.578C122.359 110.352 122.359 108.057 122.816 105.831C123.556 103.945 124.498 102.145 125.626 100.461C126.949 97.8355 127.638 94.9361 127.638 91.9956C127.638 89.0552 126.949 86.1557 125.626 83.5299C124.183 80.552 122.38 77.7629 120.256 75.2252C119.034 73.7936 118.109 72.1325 117.536 70.3391C117.309 68.2973 117.442 66.2315 117.929 64.2358C118.234 60.8084 117.544 57.3658 115.943 54.3204C114.672 51.922 112.703 49.1299 109.714 49.1657C109.553 49.1657 109.482 49.4521 109.714 49.4879L109.678 49.2552Z" fill="#35208A"/>
<path d="M124.32 70.3928C127.326 74.5988 129.689 78.6437 129.904 83.9952C129.725 86.2707 129.725 88.5568 129.904 90.8322C130.315 93.1411 131.21 95.3246 131.694 97.6514C132.442 102.378 132.191 107.209 130.958 111.833C129.725 116.457 127.537 120.772 124.534 124.498C124.194 124.946 124.91 125.483 125.268 125.089C128.334 121.505 130.605 117.312 131.932 112.786C133.258 108.26 133.61 103.504 132.964 98.8326C132.624 96.2553 131.747 93.857 131.175 91.3334C130.53 88.3802 131.175 85.4271 130.834 82.3844C130.451 77.6308 128.291 73.1961 124.785 69.9632C124.57 69.7842 124.141 69.9632 124.355 70.3033L124.32 70.3928Z" fill="#35208A"/>
<path d="M79.8064 44.3333C82.3479 55.0721 72.9694 61.9449 66.1861 68.3882C61.5863 72.7732 54.3376 81.2747 59.4564 87.8254C60.3903 88.7724 61.4649 89.5693 62.6423 90.1879C63.4387 90.7182 64.0613 91.4715 64.4321 92.3536C64.4263 93.0064 64.3114 93.6537 64.092 94.2687C63.8056 95.6289 63.4298 96.9713 63.1792 98.3494C62.3159 101.664 62.7646 105.184 64.4321 108.175C66.2219 111.039 69.2287 111.63 72.4504 111.755C74.6548 111.65 76.8425 112.185 78.7504 113.294C79.7852 114.021 80.6438 114.971 81.2632 116.074C81.8827 117.177 82.2472 118.404 82.33 119.666C82.4195 122.19 80.8803 123.961 80.2897 126.288C79.9729 127.961 80.3126 129.692 81.2383 131.121C82.4374 133.412 83.4934 135.452 82.8312 138.101C82.522 139.315 81.9453 140.445 81.1432 141.408C80.3412 142.372 79.3341 143.143 78.1956 143.667C77.7661 143.9 78.0703 144.634 78.5357 144.455C80.5818 143.636 82.2437 142.075 83.1893 140.084C84.1349 138.093 84.2947 135.819 83.6366 133.716C82.7596 131.192 80.5223 129.152 81.3635 126.288C82.1792 124.608 82.8267 122.852 83.2965 121.044C83.4426 119.518 83.2026 117.979 82.5985 116.57C81.999 115.102 81.0202 113.819 79.7623 112.854C78.5043 111.888 77.0125 111.274 75.4393 111.075C73.2266 111.01 71.0204 110.801 68.835 110.448C67.5507 110.012 66.4133 109.227 65.5503 108.18C64.6873 107.134 64.1327 105.868 63.9488 104.524C63.5749 101.751 63.807 98.93 64.6289 96.2553C64.9869 94.734 65.8639 92.6757 65.0764 91.1723C64.5216 90.0447 63.2866 89.5973 62.3022 88.9709C60.9761 88.1741 59.9438 86.9693 59.3598 85.5367C58.7758 84.1041 58.6715 82.5209 59.0627 81.0242C59.9755 75.9948 63.9488 71.9141 67.5463 68.4956C74.1328 62.3566 84.084 54.4099 80.5581 44.0827C80.5224 44.0048 80.4598 43.9423 80.3818 43.9066C80.3039 43.8708 80.2156 43.8643 80.1333 43.8882C80.0509 43.912 79.9798 43.9647 79.933 44.0365C79.8861 44.1083 79.8666 44.1946 79.878 44.2796L79.8064 44.3333Z" fill="#35208A"/>
<path d="M57.0588 73.1311C52.9244 77.9278 49.3448 85.0154 52.1369 91.2797C52.7448 92.5353 53.5687 93.6742 54.571 94.6445C55.1833 95.2084 55.6351 95.9247 55.8804 96.7201C56.1256 97.5156 56.1555 98.3619 55.9671 99.1727C55.9671 99.6738 55.8597 100.157 55.8418 100.658C55.6695 103.669 56.3191 106.669 57.7211 109.339C59.1979 112.008 61.5774 114.064 64.4328 115.138C68.1914 116.731 71.9858 118.538 72.1826 123.192C72.2721 125.178 71.3593 127.004 71.5741 129.009C71.7105 130.196 72.0305 131.356 72.5227 132.445C73.8829 135.756 77.3015 141.734 71.8247 143.184C71.3593 143.327 71.4309 144.097 71.9321 144.043C73.0591 143.884 74.0874 143.313 74.8179 142.441C75.5485 141.568 75.9296 140.455 75.8875 139.318C75.8875 136.239 73.8829 133.573 72.988 130.745C71.8784 127.165 73.9903 123.836 72.5764 120.31C71.9582 118.997 71.0744 117.825 69.9808 116.87C68.8872 115.915 67.6076 115.197 66.2226 114.762C62.1598 112.972 59.0634 110.95 57.6674 106.565C57.0726 104.673 56.8122 102.693 56.8978 100.712C56.8978 99.1906 57.6853 97.2755 57.0051 95.8079C56.4682 94.6266 55.2153 94.0181 54.3741 93.0337C52.8839 91.1324 52.0995 88.7729 52.1548 86.3577C52.1548 81.4179 54.9469 77.4088 57.2557 73.2385C57.2557 73.149 57.1662 73.0416 57.1125 73.1311H57.0588Z" fill="#35208A"/>
<path d="M62.3567 123.496C60.5669 124.91 60.7279 127.774 61.3544 129.742C62.2155 132.209 63.9463 134.277 66.2226 135.559C66.7596 135.881 67.2607 135.04 66.7238 134.7C64.7149 133.508 63.1835 131.654 62.3924 129.456C61.8963 127.487 61.9834 125.416 62.643 123.496C62.6439 123.473 62.6382 123.45 62.6267 123.429C62.6152 123.409 62.5983 123.393 62.5778 123.381C62.5574 123.37 62.5342 123.365 62.5109 123.366C62.4877 123.368 62.4652 123.375 62.4461 123.389L62.3567 123.496Z" fill="#35208A"/>
<path d="M106.474 54.4457C106.517 54.2457 106.51 54.0384 106.453 53.8419C106.397 53.6453 106.294 53.4655 106.152 53.3181C105.971 53.057 105.695 52.8771 105.383 52.817C105.213 52.7984 105.041 52.8212 104.882 52.8836C104.723 52.9459 104.582 53.0459 104.47 53.1749C104.078 53.6968 103.837 54.3157 103.772 54.9647C103.843 54.4481 103.843 53.9242 103.772 53.4076C103.772 53.1749 103.772 52.9422 103.647 52.7096C103.619 52.5928 103.552 52.4888 103.458 52.4142C103.364 52.3395 103.248 52.2986 103.128 52.2979C102.889 52.2927 102.651 52.3353 102.429 52.4232C102.221 52.5102 102.046 52.6605 101.928 52.8528C101.624 53.3002 101.928 53.8729 102.233 54.213C102.441 54.4234 102.662 54.6206 102.895 54.8036C102.7 54.6961 102.497 54.6062 102.286 54.5352C101.883 54.346 101.423 54.314 100.998 54.4457C100.821 54.5091 100.666 54.6207 100.55 54.7678C100.46 54.9508 100.423 55.1554 100.443 55.3585C100.464 55.5388 100.541 55.7079 100.663 55.8425C100.785 55.9772 100.946 56.0707 101.123 56.1102C101.564 56.2178 102.029 56.1802 102.447 56.0028L102.823 55.8238C102.665 55.964 102.516 56.1134 102.376 56.2713C102.229 56.4486 102.091 56.6338 101.964 56.8261C101.827 56.9986 101.757 57.2147 101.767 57.4346C101.803 57.6441 101.893 57.8407 102.028 58.0054C102.162 58.1701 102.337 58.2973 102.535 58.3747C102.733 58.4521 102.947 58.4771 103.158 58.4472C103.368 58.4174 103.567 58.3337 103.736 58.2042C103.874 58.0369 103.971 57.8401 104.021 57.6291C104.071 57.4181 104.071 57.1984 104.022 56.9872C104.007 56.6917 103.965 56.3982 103.897 56.1102C103.928 56.1931 103.97 56.2714 104.022 56.3429C104.259 56.8947 104.702 57.3317 105.257 57.5599C106.116 57.8105 106.689 56.4681 106.134 55.8775C105.915 55.6811 105.66 55.5291 105.383 55.4301C105.038 55.2812 104.667 55.2021 104.291 55.1974L105.257 55.0005C105.759 54.9826 106.295 54.8931 106.474 54.4457Z" fill="white"/>
<path d="M92.6751 62.0881C92.7115 61.8908 92.7013 61.6878 92.6454 61.4951C92.5894 61.3025 92.4893 61.1256 92.3529 60.9784C92.2611 60.8472 92.1443 60.7354 92.0091 60.6494C91.874 60.5634 91.7232 60.5049 91.5654 60.4773C91.3973 60.4595 91.2274 60.4809 91.069 60.5399C90.9106 60.5989 90.7681 60.6939 90.6526 60.8174C90.2826 61.3509 90.0435 61.964 89.9546 62.6072C90.0172 62.09 90.0172 61.5672 89.9546 61.05C89.9546 60.8174 89.9546 60.5668 89.8293 60.3341C89.7945 60.2192 89.7233 60.1187 89.6265 60.0477C89.5297 59.9767 89.4124 59.9391 89.2924 59.9404C89.059 59.928 88.8259 59.971 88.6122 60.0656C88.3989 60.1516 88.2175 60.3017 88.0932 60.4952C87.9952 60.7267 87.9735 60.9834 88.0315 61.2281C88.0894 61.4727 88.2239 61.6925 88.4154 61.8554C88.6192 62.0651 88.8407 62.2567 89.0776 62.4282V62.4282L88.4691 62.1418C88.0529 61.9899 87.5965 61.9899 87.1804 62.1418C86.998 62.1932 86.8396 62.3073 86.733 62.464C86.6306 62.6364 86.5866 62.8373 86.6077 63.0367C86.6307 63.2184 86.7079 63.389 86.8292 63.5262C86.9505 63.6635 87.1103 63.7611 87.2878 63.8063C87.7292 63.9153 88.1941 63.8776 88.6122 63.6989L88.9881 63.52C88.8359 63.6602 88.6925 63.8096 88.5586 63.9674C88.4046 64.1375 88.2611 64.3168 88.129 64.5043C88 64.6868 87.9369 64.9077 87.95 65.1308C87.9663 65.3491 88.0513 65.5567 88.1928 65.7239C88.3342 65.8911 88.5249 66.0092 88.7375 66.0615C88.9298 66.1477 89.1424 66.1783 89.3512 66.1498C89.56 66.1213 89.7566 66.0349 89.9188 65.9004C90.0566 65.7331 90.1542 65.5363 90.2038 65.3252C90.2535 65.1142 90.2539 64.8946 90.2052 64.6833C90.181 64.3887 90.1391 64.0959 90.0799 63.8063L90.1873 64.039C90.4342 64.5835 90.8742 65.0171 91.4222 65.2561C92.2992 65.5066 92.872 64.1643 92.2992 63.5736C92.0923 63.3658 91.8416 63.2068 91.5654 63.1083C91.2125 62.9668 90.8359 62.8939 90.4557 62.8935L91.4401 62.6966C91.9592 62.643 92.4782 62.643 92.6751 62.0881Z" fill="white"/>
<path d="M76.3346 65.5782C76.3769 65.3782 76.3697 65.1709 76.3136 64.9744C76.2574 64.7779 76.154 64.598 76.0124 64.4506C75.825 64.196 75.5515 64.0179 75.2428 63.9495C75.0734 63.9353 74.903 63.9601 74.7447 64.0222C74.5864 64.0843 74.4446 64.1819 74.33 64.3075C73.9386 64.8293 73.6972 65.4482 73.632 66.0973C73.7038 65.5807 73.7038 65.0567 73.632 64.5401C73.632 64.3075 73.632 64.0748 73.5067 63.8421C73.4787 63.7253 73.4123 63.6213 73.3182 63.5467C73.2241 63.4721 73.1077 63.4311 72.9876 63.4305C72.7489 63.4252 72.5116 63.4678 72.2896 63.5557C72.0839 63.6549 71.9102 63.81 71.7885 64.0032C71.4842 64.4327 71.7885 65.0055 72.0927 65.3455C72.2916 65.5657 72.5136 65.7637 72.755 65.9362V65.9362C72.5611 65.8228 72.3574 65.727 72.1464 65.6498C71.7318 65.4898 71.2724 65.4898 70.8578 65.6498C70.6779 65.7063 70.521 65.8193 70.4103 65.972C70.3206 66.1487 70.2833 66.3475 70.3029 66.5447C70.3219 66.7259 70.3981 66.8964 70.5203 67.0316C70.6426 67.1667 70.8046 67.2594 70.9831 67.2964C71.4231 67.4215 71.8934 67.3833 72.3075 67.189L72.6834 67.01C72.5252 67.1563 72.3758 67.3116 72.2359 67.4754C72.0846 67.6431 71.947 67.8227 71.8243 68.0123C71.6928 68.1876 71.6235 68.4018 71.6274 68.6209C71.6502 68.8391 71.7371 69.0458 71.8773 69.2146C72.0175 69.3834 72.2046 69.5069 72.4149 69.5695C72.6079 69.6576 72.8224 69.6877 73.0322 69.6559C73.242 69.6241 73.438 69.5319 73.5962 69.3905C73.7337 69.2266 73.8312 69.0328 73.8809 68.8247C73.9306 68.6166 73.9312 68.3997 73.8825 68.1913C73.8684 67.8957 73.8265 67.6021 73.7573 67.3143L73.8825 67.547C74.1194 68.0943 74.5635 68.5254 75.1175 68.7462C75.9766 69.0146 76.5493 67.6544 75.9945 67.0816C75.781 66.8734 75.5244 66.7146 75.2428 66.6163C74.8952 66.4758 74.5257 66.3971 74.151 66.3836L75.1712 66.2225C75.6187 66.1151 76.1556 66.0257 76.3346 65.5782Z" fill="white"/>
<path d="M61.4082 65.2024C61.4491 65.0052 61.4411 64.8009 61.3849 64.6075C61.3288 64.4141 61.2262 64.2374 61.086 64.0927C60.9048 63.8315 60.6286 63.6517 60.3164 63.5915C60.1483 63.5737 59.9784 63.5951 59.82 63.6541C59.6616 63.7132 59.5191 63.8081 59.4036 63.9316C59.0268 64.4614 58.7869 65.0763 58.7056 65.7214C58.7772 65.2048 58.7772 64.6809 58.7056 64.1643C58.7056 63.9316 58.7056 63.681 58.5803 63.4484C58.5518 63.3333 58.4847 63.2315 58.3903 63.1599C58.2959 63.0883 58.1798 63.0511 58.0613 63.0546C57.8221 63.0421 57.5832 63.085 57.3633 63.1799C57.1553 63.2669 56.9799 63.4172 56.8621 63.6094C56.5579 64.0569 56.8621 64.6117 57.1664 64.9697C57.3702 65.1794 57.5918 65.371 57.8286 65.5424V65.5424L57.2738 65.3634C56.8591 65.2034 56.3998 65.2034 55.9851 65.3634C55.8079 65.4158 55.6554 65.5301 55.5556 65.6856C55.479 65.8535 55.4541 66.0404 55.484 66.2226C55.502 66.406 55.5775 66.5792 55.6996 66.7173C55.8217 66.8555 55.9842 66.9517 56.1641 66.9922C56.6056 67.0998 57.0701 67.0621 57.4885 66.8848L57.8644 66.7058C57.7066 66.846 57.5572 66.9954 57.417 67.1532L57.0053 67.6902C56.8712 67.871 56.8019 68.0916 56.8084 68.3166C56.8345 68.5317 56.923 68.7344 57.0629 68.8998C57.2029 69.0652 57.3882 69.186 57.5959 69.2473C57.7914 69.333 58.0066 69.3633 58.2181 69.3349C58.4296 69.3065 58.6292 69.2205 58.7951 69.0862C58.9317 68.9113 59.0268 68.7077 59.0733 68.4906C59.1198 68.2736 59.1165 68.0489 59.0636 67.8334C59.0482 67.5379 59.0062 67.2444 58.9383 66.9564C58.9731 67.0375 59.015 67.1154 59.0636 67.189C59.2999 67.7409 59.7433 68.1779 60.2985 68.4061C61.1576 68.6567 61.7304 67.3143 61.1755 66.7237C60.962 66.5155 60.7054 66.3567 60.4238 66.2583C60.0777 66.1152 59.7066 66.0422 59.332 66.0436L60.2985 65.8467C60.6923 65.7572 61.2292 65.6677 61.4082 65.2024Z" fill="white"/>
<path d="M48.8789 56.8261C48.9197 56.6289 48.9117 56.4247 48.8556 56.2313C48.7994 56.0378 48.6968 55.8611 48.5567 55.7164C48.47 55.5843 48.3568 55.4716 48.2243 55.3853C48.0919 55.2991 47.943 55.2412 47.7871 55.2153C47.619 55.1974 47.4491 55.2189 47.2907 55.2779C47.1323 55.3369 46.9898 55.4319 46.8743 55.5553C46.4974 56.0852 46.2576 56.7001 46.1763 57.3451V57.3451C46.2479 56.8286 46.2479 56.3046 46.1763 55.788C46.1581 55.5471 46.1222 55.3078 46.0689 55.0721C46.0341 54.9572 45.9629 54.8567 45.8661 54.7857C45.7692 54.7147 45.652 54.677 45.532 54.6783C45.2986 54.666 45.0655 54.7089 44.8518 54.8036C44.6385 54.8896 44.4571 55.0397 44.3328 55.2332C44.0285 55.6806 44.3328 56.2355 44.6371 56.5934C44.9413 56.9514 45.0666 56.9872 45.2993 57.1841H45.3888L44.7445 56.9872C44.3268 56.844 43.8734 56.844 43.4558 56.9872C43.2712 57.034 43.1113 57.1492 43.0084 57.3093C42.906 57.4818 42.862 57.6827 42.8831 57.8821C42.9011 58.0656 42.9766 58.2387 43.0987 58.3769C43.2208 58.515 43.3833 58.6112 43.5632 58.6517C44.0047 58.7593 44.4692 58.7217 44.8876 58.5443L45.2635 58.3653L44.816 58.8128L44.4044 59.3497C44.305 59.4841 44.2407 59.6413 44.2175 59.8069C44.1944 59.9724 44.213 60.1412 44.2717 60.2977C44.3304 60.4543 44.4273 60.5937 44.5537 60.7032C44.68 60.8127 44.8317 60.8888 44.995 60.9247C45.1928 61.0041 45.4081 61.0294 45.6189 60.998C45.8297 60.9665 46.0282 60.8794 46.1942 60.7458C46.3275 60.5759 46.4222 60.379 46.4717 60.1688C46.5211 59.9586 46.5241 59.7402 46.4806 59.5287C46.4806 59.2423 46.4806 58.9381 46.3553 58.6517L46.4627 58.8844C46.7096 59.4289 47.1496 59.8625 47.6976 60.1014C48.5567 60.352 49.1295 59.0096 48.5746 58.419C48.3646 58.2151 48.1148 58.0567 47.8408 57.9537C47.4879 57.8122 47.1113 57.7393 46.7311 57.7389L47.7155 57.542C48.163 57.3809 48.6999 57.2735 48.8789 56.8261Z" fill="white"/>
<path d="M119.916 44.7449C119.96 44.5478 119.954 44.3427 119.897 44.1487C119.841 43.9548 119.737 43.7781 119.594 43.6353C119.507 43.5032 119.394 43.3904 119.261 43.3042C119.129 43.2179 118.98 43.16 118.824 43.1341C118.656 43.1163 118.486 43.1377 118.328 43.1967C118.169 43.2557 118.027 43.3507 117.911 43.4742C117.535 44.004 117.295 44.6189 117.213 45.264C117.285 44.7474 117.285 44.2234 117.213 43.7069C117.195 43.4659 117.159 43.2266 117.106 42.9909C117.071 42.8761 117 42.7756 116.903 42.7046C116.806 42.6336 116.689 42.5959 116.569 42.5972C116.336 42.5849 116.103 42.6278 115.889 42.7225C115.676 42.8084 115.494 42.9585 115.37 43.152C115.273 43.3822 115.25 43.637 115.304 43.8809C115.359 44.1248 115.488 44.3455 115.674 44.5123C115.889 44.7271 116.104 44.906 116.336 45.1029L115.728 44.8165C115.351 44.6732 114.939 44.6483 114.547 44.7449C114.364 44.7964 114.206 44.9104 114.099 45.0671C113.997 45.2395 113.953 45.4404 113.974 45.6398C113.995 45.8224 114.071 45.9942 114.193 46.1319C114.314 46.2696 114.475 46.3665 114.654 46.4095C115.095 46.5184 115.56 46.4807 115.978 46.3021L116.354 46.1231C116.197 46.2633 116.047 46.4127 115.907 46.5705L115.495 47.1075C115.366 47.2899 115.303 47.5108 115.316 47.7339C115.334 47.9491 115.417 48.1537 115.555 48.3201C115.692 48.4866 115.878 48.6068 116.086 48.6646C116.281 48.7503 116.497 48.7806 116.708 48.7522C116.92 48.7238 117.119 48.6378 117.285 48.5035C117.418 48.3337 117.513 48.1368 117.562 47.9266C117.612 47.7164 117.615 47.4979 117.571 47.2865C117.571 47.0001 117.571 46.6958 117.446 46.4095L117.553 46.6421C117.8 47.1866 118.24 47.6203 118.788 47.8592C119.648 48.1098 120.238 46.7674 119.665 46.1768C119.459 45.969 119.208 45.81 118.932 45.7114C118.579 45.5699 118.202 45.497 117.822 45.4967L118.806 45.2998C119.164 45.2282 119.683 45.1387 119.916 44.7449Z" fill="white"/>
<path d="M114.547 50.1143C114.601 49.6055 114.475 49.0938 114.19 48.6686C113.905 48.2433 113.481 47.9315 112.989 47.7876C112.747 47.771 112.503 47.8091 112.277 47.8989C112.051 47.9887 111.848 48.128 111.683 48.3066C111.142 49.0703 110.798 49.9555 110.681 50.884V50.884C110.779 50.1474 110.779 49.4011 110.681 48.6646C110.646 48.3266 110.586 47.9916 110.502 47.6623C110.458 47.4969 110.36 47.3507 110.224 47.247C110.088 47.1433 109.921 47.0879 109.75 47.0896C109.419 47.0775 109.089 47.1386 108.783 47.2686C108.479 47.3944 108.222 47.6138 108.05 47.895C107.62 48.5214 108.05 49.3268 108.479 49.8101C108.774 50.114 109.091 50.3952 109.428 50.6513H109.553C109.271 50.4979 108.978 50.3663 108.676 50.2575C108.111 50.0117 107.48 49.9675 106.886 50.1322C106.625 50.2109 106.399 50.3747 106.242 50.5976C106.103 50.8486 106.041 51.1349 106.063 51.4209C106.092 51.6811 106.203 51.9254 106.38 52.1184C106.557 52.3115 106.791 52.4433 107.047 52.4948C107.644 52.6427 108.272 52.5925 108.837 52.3516L109.374 52.101C109.148 52.2979 108.938 52.5134 108.748 52.7453C108.526 52.9817 108.328 53.2395 108.157 53.515C107.967 53.7677 107.867 54.076 107.871 54.392C107.907 54.7015 108.033 54.9936 108.233 55.2322C108.434 55.4708 108.7 55.6454 108.998 55.7343C109.288 55.8739 109.613 55.9246 109.931 55.88C110.25 55.8354 110.548 55.6976 110.788 55.4837C110.99 55.2375 111.131 54.947 111.199 54.636C111.268 54.325 111.262 54.0022 111.182 53.6939C111.15 53.2728 111.09 52.8543 111.003 52.4411L111.164 52.7632C111.506 53.569 112.148 54.2105 112.954 54.553C114.189 54.9289 115.012 52.9959 114.207 52.1547C113.905 51.8665 113.545 51.6467 113.151 51.5104C112.65 51.3061 112.116 51.1968 111.576 51.1882L112.972 50.9198C113.598 50.8482 114.35 50.7229 114.547 50.1143Z" fill="white"/>
<path d="M85.9102 63.3589C85.967 63.0755 85.9543 62.7826 85.8733 62.5052C85.7922 62.2278 85.6452 61.9741 85.4448 61.7659C85.3185 61.5772 85.1549 61.4163 84.964 61.2932C84.7732 61.1701 84.5592 61.0873 84.3352 61.05C84.096 61.0258 83.8546 61.0586 83.6306 61.1457C83.4066 61.2328 83.2064 61.3718 83.0465 61.5512C82.4946 62.3155 82.1494 63.2094 82.0442 64.1464C82.1338 63.4093 82.1338 62.6641 82.0442 61.927C82.002 61.5841 81.9422 61.2436 81.8652 60.9068C81.8215 60.7414 81.7238 60.5952 81.5876 60.4915C81.4515 60.3878 81.2847 60.3324 81.1135 60.3341C80.7769 60.3293 80.4425 60.3901 80.1291 60.5131C79.8303 60.6411 79.5797 60.8603 79.4132 61.1395C78.9837 61.7659 79.4132 62.5713 79.8428 63.0725C80.1381 63.37 80.4552 63.6452 80.7914 63.8958H80.8987C80.6149 63.7464 80.322 63.6149 80.0217 63.502C79.4554 63.2607 78.8231 63.2228 78.2319 63.3946C77.9808 63.4732 77.7613 63.63 77.6055 63.8421C77.4686 64.0939 77.4065 64.3795 77.4265 64.6654C77.4561 64.9246 77.5647 65.1684 77.7376 65.3637C77.9105 65.559 78.1393 65.6964 78.393 65.7572C79.0194 65.9201 79.6828 65.8633 80.2723 65.5961C80.4576 65.5269 80.6372 65.4431 80.8093 65.3455C80.5872 65.547 80.3779 65.7622 80.1828 65.9899C79.9705 66.2342 79.7733 66.4912 79.5922 66.7595C79.4077 67.0138 79.3133 67.3224 79.3237 67.6365C79.3515 67.9461 79.4724 68.2401 79.6704 68.4797C79.8685 68.7193 80.1345 68.8933 80.4334 68.9788C80.7231 69.1184 81.0477 69.1691 81.3662 69.1245C81.6848 69.08 81.9829 68.9421 82.2232 68.7282C82.4282 68.4836 82.5723 68.1938 82.6439 67.8828C82.7154 67.5717 82.7123 67.2481 82.6348 66.9385C82.6015 66.5175 82.5418 66.099 82.4559 65.6856C82.491 65.8068 82.5454 65.9216 82.6169 66.0256C82.7799 66.4288 83.0223 66.7951 83.3298 67.1026C83.6373 67.4101 84.0036 67.6525 84.4067 67.8154C85.6417 68.1913 86.465 66.2762 85.6596 65.435C85.3561 65.145 84.9969 64.9197 84.6036 64.7728C84.1007 64.5769 83.5681 64.468 83.0286 64.4506C83.4939 64.379 83.9593 64.2895 84.4246 64.1822C84.89 64.1285 85.6417 64.0032 85.9102 63.3589Z" fill="white"/>
<path d="M70.1595 64.7907C70.2163 64.5074 70.2037 64.2145 70.1226 63.9371C70.0416 63.6597 69.8946 63.406 69.6942 63.1978C69.5679 63.0091 69.4042 62.8482 69.2134 62.7251C69.0226 62.602 68.8085 62.5192 68.5845 62.4819C68.3454 62.4577 68.104 62.4905 67.88 62.5776C67.656 62.6647 67.4558 62.8036 67.2959 62.983C66.7169 63.7324 66.3464 64.6216 66.222 65.5603V65.5603C66.3203 64.8298 66.3203 64.0894 66.222 63.3589C66.1858 63.0163 66.132 62.6758 66.0609 62.3387C66.0144 62.1748 65.9161 62.0303 65.7805 61.927C65.645 61.8238 65.4796 61.7672 65.3092 61.766C64.9719 61.7524 64.6357 61.8135 64.3248 61.9449C64.026 62.0729 63.7754 62.2922 63.6089 62.5714C63.1793 63.1978 63.6089 64.0032 64.0384 64.4865C64.3291 64.7944 64.6466 65.0759 64.987 65.3277H65.0944C64.8106 65.1783 64.5177 65.0468 64.2174 64.9339C63.6529 64.685 63.0178 64.6469 62.4276 64.8265C62.1699 64.8915 61.9463 65.0513 61.8012 65.274C61.6535 65.5216 61.5907 65.8107 61.6222 66.0973C61.6502 66.3551 61.7586 66.5975 61.932 66.7903C62.1055 66.983 62.3353 67.1163 62.5887 67.1711C63.185 67.3191 63.8133 67.2689 64.3785 67.028C64.5638 66.9588 64.7434 66.875 64.9154 66.7774C64.6933 66.9788 64.4841 67.194 64.289 67.4217C64.0725 67.6626 63.8751 67.9199 63.6984 68.1913C63.5139 68.4457 63.4195 68.7543 63.4299 69.0683C63.4624 69.3764 63.585 69.6681 63.7823 69.9068C63.9797 70.1456 64.2431 70.3209 64.5396 70.4107C64.8182 70.5316 65.125 70.5722 65.4255 70.5279C65.7259 70.4837 66.008 70.3563 66.2399 70.1601C66.44 69.9127 66.5811 69.6229 66.6524 69.3127C66.7237 69.0026 66.7234 68.6803 66.6515 68.3703C66.621 67.9479 66.5551 67.5289 66.4547 67.1175C66.5073 67.2344 66.567 67.348 66.6336 67.4575C66.7992 67.8591 67.0425 68.2241 67.3497 68.5312C67.6569 68.8384 68.0218 69.0818 68.4234 69.2473C69.6584 69.6232 70.4638 67.6902 69.6763 66.849C69.3674 66.5705 69.0093 66.352 68.6203 66.2047C68.1174 66.0088 67.5848 65.8998 67.0453 65.8825C67.5106 65.8109 67.976 65.7214 68.4413 65.614C69.1394 65.5603 69.8911 65.435 70.1595 64.7907Z" fill="white"/>
<path d="M56.3249 60.352C56.384 60.0701 56.3742 59.778 56.2963 59.5007C56.2184 59.2234 56.0747 58.969 55.8774 58.7591C55.6123 58.3877 55.2154 58.1316 54.7678 58.0431C54.5261 58.0203 54.2824 58.0537 54.0558 58.1406C53.8291 58.2276 53.6257 58.3657 53.4612 58.5443C52.915 59.3101 52.5759 60.2041 52.4768 61.1395V61.1395C52.5753 60.403 52.5753 59.6567 52.4768 58.9201C52.4449 58.5817 52.385 58.2465 52.2978 57.9179C52.2611 57.7505 52.1684 57.6008 52.0349 57.4933C51.9015 57.3859 51.7353 57.3273 51.564 57.3272C51.2274 57.3225 50.8931 57.3833 50.5796 57.5062C50.2786 57.638 50.0232 57.856 49.8458 58.1326C49.4163 58.7591 49.8458 59.5645 50.2933 60.0656C50.5865 60.3587 50.8973 60.6337 51.224 60.8889H51.3493C51.0654 60.7396 50.7725 60.6081 50.4723 60.4952C49.9059 60.2539 49.2736 60.2159 48.6825 60.3878C48.4264 60.4664 48.2012 60.6227 48.0381 60.8352C47.9012 61.087 47.8391 61.3727 47.8591 61.6585C47.8924 61.9192 48.0045 62.1634 48.1804 62.3586C48.3563 62.5537 48.5877 62.6904 48.8435 62.7503C49.4529 62.9204 50.1015 62.8826 50.687 62.6429L51.224 62.3924C51.0019 62.5938 50.7926 62.809 50.5975 63.0367C50.3852 63.281 50.188 63.538 50.0069 63.8063C49.8173 64.059 49.7166 64.3674 49.7205 64.6833C49.7543 64.9936 49.8795 65.2868 50.0803 65.5258C50.2811 65.7648 50.5483 65.9388 50.8481 66.0256C51.1267 66.1466 51.4336 66.1872 51.734 66.1429C52.0345 66.0986 52.3165 65.9712 52.5484 65.7751C52.7516 65.5295 52.8933 65.2391 52.9618 64.9278C53.0303 64.6165 53.0235 64.2934 52.9422 63.9853C52.9089 63.5643 52.8491 63.1459 52.7632 62.7324L52.9243 63.0725C53.2636 63.8804 53.9062 64.523 54.7141 64.8623C55.949 65.2381 56.7723 63.3231 55.9848 62.4818C55.6785 62.1955 55.32 61.9707 54.9289 61.8196C54.4259 61.6237 53.8933 61.5148 53.3538 61.4975C53.8192 61.4259 54.2845 61.3364 54.7499 61.229C55.3047 61.1216 56.0564 60.9963 56.3249 60.352Z" fill="white"/>
<path d="M100.479 57.6136C100.539 57.1013 100.414 56.5842 100.124 56.1569C99.8351 55.7297 99.4018 55.4209 98.9036 55.2869C98.6635 55.2704 98.4228 55.3086 98.1997 55.3985C97.9765 55.4884 97.7765 55.6277 97.6149 55.8059C97.0793 56.5691 96.7467 57.456 96.6484 58.3832V58.3832C96.738 57.6461 96.738 56.9009 96.6484 56.1639C96.6078 55.8266 96.5481 55.492 96.4694 55.1616C96.4257 54.9961 96.328 54.85 96.1918 54.7462C96.0557 54.6425 95.8889 54.5871 95.7177 54.5888C95.3804 54.5752 95.0443 54.6364 94.7333 54.7678C94.4358 54.889 94.1849 55.1022 94.0174 55.3763C93.8733 55.6949 93.8356 56.0513 93.9097 56.393C93.9838 56.7346 94.1659 57.0434 94.4291 57.2735C94.7198 57.5814 95.0372 57.8629 95.3777 58.1147H95.485C95.2093 57.9615 94.922 57.8298 94.6259 57.721C94.0603 57.4794 93.4299 57.4353 92.8361 57.5957C92.58 57.6741 92.3587 57.8384 92.2097 58.061C92.0709 58.3121 92.0086 58.5983 92.0307 58.8844C92.0587 59.1422 92.1671 59.3846 92.3406 59.5774C92.514 59.7701 92.7438 59.9034 92.9972 59.9582C93.5935 60.1062 94.2218 60.0559 94.787 59.815C94.9723 59.7458 95.1519 59.6621 95.324 59.5645C95.1019 59.7659 94.8926 59.9811 94.6975 60.2088C94.4811 60.4497 94.2836 60.707 94.1069 60.9784C93.9224 61.2328 93.828 61.5414 93.8384 61.8554C93.8709 62.1635 93.9935 62.4552 94.1908 62.6939C94.3882 62.9327 94.6516 63.1079 94.9481 63.1978C95.2378 63.3374 95.5624 63.3881 95.8809 63.3435C96.1995 63.2989 96.4976 63.161 96.7379 62.9472C96.9416 62.7018 97.085 62.4121 97.1565 62.1012C97.228 61.7904 97.2256 61.4671 97.1495 61.1574C97.1175 60.7363 97.0577 60.3178 96.9706 59.9045C97.0097 60.0186 97.0639 60.1269 97.1317 60.2267C97.4693 61.0357 98.1125 61.6788 98.9215 62.0165C100.156 62.3745 100.98 60.4594 100.174 59.6182C99.8698 59.3338 99.5105 59.1145 99.1183 58.9738C98.6179 58.7695 98.0838 58.6603 97.5433 58.6517L98.9393 58.3832C99.4584 58.3832 100.228 58.2579 100.479 57.6136Z" fill="white"/>
<path d="M160.634 49.8817C160.65 49.8481 160.658 49.8114 160.658 49.7743C160.658 49.7371 160.65 49.7005 160.634 49.6669C160.097 48.6646 158.164 48.4677 157.197 48.2708C155.622 47.9666 154.012 47.7697 152.419 47.5549L151.649 47.4475C151.542 47.4475 151.345 47.3581 151.363 47.4475C151.161 47.0966 150.999 46.7244 150.879 46.3379C150.235 44.7986 149.591 43.2594 148.911 41.7202C148.571 40.9327 148.231 40.1631 147.855 39.3934C147.64 38.9281 147.371 38.0332 146.852 37.8005C145.689 37.2994 144.866 40.181 144.561 40.8611C143.81 42.5256 143.13 44.208 142.396 45.8725C142.253 46.2305 142.002 47.2328 141.68 47.4654C141.177 47.5442 140.667 47.5741 140.159 47.5549L138.047 47.7339C136.837 47.8004 135.637 47.9924 134.467 48.3066C133.769 48.5035 132.516 48.8436 132.677 49.828C132.838 50.8124 133.984 51.3851 134.467 51.8146C135.414 52.5681 136.419 53.2444 137.474 53.8371C137.939 54.1235 138.548 54.3204 138.977 54.6425C139.407 54.9647 139.282 55.5195 139.121 56.0923C138.798 57.3093 138.476 58.5264 138.172 59.6719C137.868 60.8173 137.707 61.6585 137.545 62.6787C137.357 63.3641 137.357 64.0874 137.545 64.7728C138.279 66.3299 141.125 63.6094 141.752 63.0904C142.378 62.5713 143.434 61.748 144.257 61.05L145.439 60.0119C145.653 59.815 146.208 59.0454 146.494 58.9917C146.781 58.938 148.177 60.4057 148.553 60.7815C149.394 61.5154 150.343 62.1955 151.13 62.8935C152.258 64.0249 153.676 64.8238 155.229 65.2023C156.607 65.3276 155.945 63.2336 155.766 62.4103C155.336 60.4415 154.692 58.5264 154.101 56.5934C153.976 56.1818 153.815 55.7522 153.725 55.3405C153.636 54.9289 153.725 54.911 154.047 54.6604C154.799 54.213 155.73 53.9266 156.535 53.515C157.806 52.8706 160.383 51.7252 160.741 50.0964C160.74 50.055 160.73 50.0143 160.711 49.9773C160.693 49.9402 160.666 49.9076 160.634 49.8817Z" fill="#F7B9E7"/>
<path d="M46.9644 131.711C44.7809 131.532 42.5794 131.55 40.378 131.568L42.1678 129.778C43.2169 128.884 44.1223 127.833 44.8525 126.664C44.9215 126.549 44.9503 126.414 44.9345 126.28C44.9187 126.147 44.8592 126.022 44.7651 125.926C44.6711 125.83 44.5479 125.768 44.4147 125.749C44.2816 125.73 44.146 125.756 44.0292 125.823C42.8387 126.539 41.7644 127.432 40.8433 128.472L38.9461 130.262V127.595C39.0528 126.215 38.9502 124.827 38.6419 123.478C38.587 123.386 38.5088 123.31 38.4152 123.258C38.3216 123.206 38.2159 123.179 38.1087 123.181C38.0015 123.183 37.8967 123.213 37.8049 123.268C37.7131 123.324 37.6376 123.402 37.5859 123.496C37.2481 124.841 37.1153 126.228 37.1921 127.613C37.1921 128.49 37.1921 129.402 37.1921 130.279L35.4023 128.364C34.5014 127.315 33.4451 126.409 32.2702 125.68C32.1551 125.618 32.0233 125.595 31.8942 125.615C31.7652 125.634 31.6458 125.694 31.5535 125.786C31.4613 125.879 31.4011 125.998 31.3819 126.127C31.3627 126.256 31.3855 126.388 31.4469 126.503C32.1357 127.682 32.9986 128.75 34.0063 129.671L35.7961 131.568H33.1114C31.7317 131.463 30.3441 131.565 28.9949 131.872C28.8727 131.916 28.7669 131.995 28.6921 132.101C28.6173 132.207 28.5771 132.333 28.5771 132.463C28.5771 132.593 28.6173 132.719 28.6921 132.825C28.7669 132.93 28.8727 133.01 28.9949 133.054C30.3419 133.376 31.7283 133.502 33.1114 133.429H35.7245C34.0935 134.911 32.5403 136.476 31.071 138.119C30.9876 138.202 30.9214 138.301 30.8762 138.41C30.8311 138.519 30.8078 138.636 30.8078 138.754C30.8078 138.872 30.8311 138.989 30.8762 139.098C30.9214 139.207 30.9876 139.306 31.071 139.389C31.1545 139.473 31.2535 139.539 31.3625 139.584C31.4715 139.629 31.5884 139.653 31.7064 139.653C31.8244 139.653 31.9412 139.629 32.0503 139.584C32.1593 139.539 32.2583 139.473 32.3418 139.389C34.0063 137.993 35.5276 136.436 37.0489 134.879C37.0489 137.063 36.9237 139.264 37.0489 141.412C37.0905 141.619 37.2023 141.805 37.3655 141.938C37.5286 142.072 37.733 142.145 37.9438 142.145C38.1547 142.145 38.3591 142.072 38.5222 141.938C38.6853 141.805 38.7972 141.619 38.8387 141.412C39.0177 139.264 38.9998 137.081 38.9819 134.897C40.4545 136.548 42.0139 138.119 43.6533 139.604C43.8218 139.773 44.0504 139.867 44.2887 139.867C44.527 139.867 44.7555 139.773 44.9241 139.604C45.0926 139.436 45.1872 139.207 45.1872 138.969C45.1872 138.731 45.0926 138.502 44.9241 138.334C43.5041 136.687 41.9986 135.115 40.4138 133.626C42.5973 133.626 44.7988 133.752 46.9644 133.626C47.0902 133.626 47.2147 133.602 47.3309 133.553C47.447 133.505 47.5526 133.435 47.6415 133.346C47.7304 133.257 47.801 133.151 47.8491 133.035C47.8972 132.919 47.922 132.795 47.922 132.669C47.922 132.543 47.8972 132.419 47.8491 132.302C47.801 132.186 47.7304 132.081 47.6415 131.992C47.5526 131.903 47.447 131.832 47.3309 131.784C47.2147 131.736 47.0902 131.711 46.9644 131.711V131.711Z" fill="white"/>
<path d="M66.723 17.2C67.2243 17.1526 67.6899 16.9201 68.0288 16.5477C68.3677 16.1753 68.5555 15.6899 68.5555 15.1864C68.5555 14.6829 68.3677 14.1976 68.0288 13.8252C67.6899 13.4528 67.2243 13.2202 66.723 13.1729C66.2218 13.2202 65.7562 13.4528 65.4173 13.8252C65.0784 14.1976 64.8906 14.6829 64.8906 15.1864C64.8906 15.6899 65.0784 16.1753 65.4173 16.5477C65.7562 16.9201 66.2218 17.1526 66.723 17.2V17.2Z" fill="white"/>
<path d="M91.458 22.9452L91.8339 22.7662C92.0708 22.6205 92.2664 22.4164 92.4021 22.1736C92.5377 21.9308 92.609 21.6573 92.609 21.3792C92.609 21.101 92.5377 20.8275 92.4021 20.5847C92.2664 20.3419 92.0708 20.1378 91.8339 19.9921L91.458 19.8131C91.1856 19.6623 90.8785 19.5853 90.5671 19.5895C90.2557 19.5938 89.9508 19.6792 89.6826 19.8374C89.4143 19.9955 89.192 20.2209 89.0375 20.4913C88.883 20.7617 88.8018 21.0677 88.8018 21.3792C88.8018 21.6906 88.883 21.9966 89.0375 22.267C89.192 22.5374 89.4143 22.7628 89.6826 22.9209C89.9508 23.0791 90.2557 23.1645 90.5671 23.1688C90.8785 23.173 91.1856 23.096 91.458 22.9452Z" fill="white"/>
<path d="M122.422 22.2293L122.637 22.5694C122.857 22.8737 123.153 23.1145 123.496 23.2674C123.825 23.4432 124.2 23.5121 124.57 23.4643C124.936 23.4364 125.279 23.2775 125.537 23.0168C125.734 22.8012 125.88 22.5444 125.966 22.2651C126.08 21.8249 126.023 21.3578 125.805 20.9585C125.648 20.6077 125.393 20.3095 125.071 20.0994L124.731 19.8847C124.409 19.6911 124.032 19.6108 123.659 19.6565C123.287 19.7022 122.94 19.8713 122.674 20.1368C122.409 20.4023 122.24 20.749 122.194 21.1217C122.148 21.4944 122.229 21.8717 122.422 22.1935V22.2293Z" fill="white"/>
<path d="M149.752 85.6776L150.128 85.5166C150.444 85.3385 150.706 85.0779 150.886 84.7627C151.065 84.4475 151.156 84.0895 151.148 83.7268C151.158 83.3637 151.068 83.0048 150.888 82.6893C150.708 82.3737 150.445 82.1135 150.128 81.937L149.752 81.758C149.41 81.5577 149.021 81.4526 148.625 81.4537C148.229 81.4568 147.841 81.5616 147.497 81.758C147.165 81.96 146.89 82.2437 146.699 82.5821C146.508 82.9205 146.407 83.3023 146.405 83.691C146.408 84.0769 146.51 84.4557 146.701 84.791C146.892 85.1263 147.166 85.4069 147.497 85.6061C147.816 85.7981 148.18 85.903 148.553 85.9103C148.95 85.9199 149.342 85.8142 149.681 85.6061L149.752 85.6776Z" fill="white"/>
<path d="M161.082 120.579C161.597 120.531 162.076 120.292 162.424 119.91C162.772 119.527 162.965 119.029 162.965 118.511C162.965 117.994 162.772 117.496 162.424 117.113C162.076 116.731 161.597 116.492 161.082 116.444C160.567 116.492 160.088 116.731 159.74 117.113C159.391 117.496 159.198 117.994 159.198 118.511C159.198 119.029 159.391 119.527 159.74 119.91C160.088 120.292 160.567 120.531 161.082 120.579Z" fill="white"/>
<path d="M141.681 148.267C142.245 148.265 142.786 148.04 143.184 147.64C143.463 147.34 143.65 146.966 143.722 146.562C143.793 146.159 143.747 145.743 143.588 145.365C143.429 144.987 143.165 144.663 142.827 144.432C142.488 144.2 142.09 144.072 141.681 144.061C141.136 144.079 140.618 144.303 140.232 144.689C139.847 145.074 139.622 145.592 139.604 146.137C139.614 146.699 139.841 147.235 140.239 147.633C140.636 148.03 141.172 148.258 141.734 148.267H141.681Z" fill="white"/>
<path d="M88.8453 169.673C89.095 169.414 89.3114 169.126 89.4896 168.814C89.7576 168.388 89.8731 167.884 89.817 167.384C89.7609 166.884 89.5365 166.418 89.1808 166.062C88.825 165.706 88.359 165.482 87.859 165.426C87.359 165.37 86.8548 165.485 86.429 165.753C86.117 165.931 85.8284 166.148 85.5699 166.398C85.3549 166.613 85.1843 166.868 85.0679 167.149C84.9515 167.43 84.8916 167.731 84.8916 168.035C84.8916 168.339 84.9515 168.641 85.0679 168.921C85.1843 169.202 85.3549 169.458 85.5699 169.673C85.785 169.888 86.0403 170.059 86.3213 170.175C86.6023 170.291 86.9035 170.351 87.2076 170.351C87.5117 170.351 87.8129 170.291 88.0939 170.175C88.3749 170.059 88.6302 169.888 88.8453 169.673V169.673Z" fill="white"/>
<path d="M53.3891 150.343C53.7607 150.355 54.1295 150.275 54.4627 150.11C54.796 149.945 55.0832 149.7 55.2989 149.397C55.5146 149.095 55.6521 148.743 55.6991 148.374C55.7462 148.005 55.7013 147.631 55.5684 147.283C55.4356 146.936 55.219 146.627 54.9378 146.384C54.6567 146.14 54.3197 145.97 53.9569 145.889C53.5942 145.807 53.2169 145.817 52.8586 145.916C52.5004 146.016 52.1723 146.202 51.9035 146.459C51.4848 146.877 51.2469 147.443 51.2413 148.034C51.2356 148.621 51.4552 149.187 51.8548 149.617C52.2544 150.047 52.8035 150.306 53.3891 150.343Z" fill="white"/>
<path d="M17.6473 114.046L18.2558 114.135L18.7927 114.35C18.4436 114.152 18.0489 114.047 17.6473 114.046C17.2384 114.053 16.8382 114.164 16.4839 114.368C16.1823 114.552 15.9264 114.801 15.7356 115.098C15.5448 115.395 15.424 115.731 15.3824 116.082C15.3408 116.432 15.3795 116.788 15.4956 117.121C15.6117 117.454 15.802 117.757 16.0523 118.006C16.3026 118.255 16.6062 118.443 16.9402 118.558C17.2742 118.672 17.6297 118.709 17.98 118.665C18.3303 118.621 18.666 118.499 18.9619 118.306C19.2577 118.114 19.5059 117.857 19.6876 117.554C19.9082 117.198 20.0294 116.789 20.0387 116.371C20.0479 115.952 19.9449 115.539 19.7403 115.173C19.5357 114.808 19.237 114.504 18.8752 114.293C18.5134 114.082 18.1018 113.972 17.683 113.974L17.6473 114.046Z" fill="white"/>
<path d="M35.2947 89.6689C35.819 89.6205 36.3063 89.378 36.661 88.9889C37.0158 88.5999 37.2124 88.0924 37.2124 87.5659C37.2124 87.0394 37.0158 86.5319 36.661 86.1428C36.3063 85.7538 35.819 85.5113 35.2947 85.4629C34.7704 85.5113 34.2831 85.7538 33.9284 86.1428C33.5736 86.5319 33.377 87.0394 33.377 87.5659C33.377 88.0924 33.5736 88.5999 33.9284 88.9889C34.2831 89.378 34.7704 89.6205 35.2947 89.6689V89.6689Z" fill="white"/>
<path d="M16.1084 61.9091C16.5012 61.8091 16.8598 61.605 17.1464 61.3184C17.433 61.0318 17.6371 60.6732 17.7371 60.2804V60.2804C17.8406 59.8882 17.8406 59.476 17.737 59.0838C17.6335 58.6917 17.43 58.3331 17.1465 58.0431C16.8606 57.7534 16.5022 57.5457 16.1087 57.4418C15.7151 57.3379 15.3009 57.3416 14.9093 57.4525V57.4525C14.5216 57.5621 14.1697 57.772 13.8891 58.061C13.5944 58.3371 13.3834 58.6907 13.2805 59.0812V59.0812C13.1734 59.4798 13.1734 59.8997 13.2805 60.2983C13.3908 60.6764 13.5938 61.0209 13.8712 61.3006C14.1489 61.5804 14.4941 61.7839 14.8735 61.8912C15.2721 61.9983 15.6919 61.9983 16.0905 61.8912L16.1084 61.9091Z" fill="white"/>
<path d="M47.8943 41.7739H48.1628C48.6374 41.7739 49.0927 41.5853 49.4283 41.2497C49.764 40.914 49.9526 40.4588 49.9526 39.9841C49.9526 39.5094 49.764 39.0542 49.4283 38.7185C49.0927 38.3829 48.6374 38.1943 48.1628 38.1943H47.8943C47.4196 38.1943 46.9644 38.3829 46.6287 38.7185C46.2931 39.0542 46.1045 39.5094 46.1045 39.9841C46.1045 40.4588 46.2931 40.914 46.6287 41.2497C46.9644 41.5853 47.4196 41.7739 47.8943 41.7739Z" fill="white"/>
<path d="M18.6312 88.6666C19.2661 88.6132 19.8578 88.3232 20.289 87.8542C20.7203 87.3851 20.9596 86.7712 20.9596 86.134C20.9596 85.4969 20.7203 84.883 20.289 84.4139C19.8578 83.9449 19.2661 83.6549 18.6312 83.6015C17.9962 83.6549 17.4045 83.9449 16.9733 84.4139C16.5421 84.883 16.3027 85.4969 16.3027 86.134C16.3027 86.7712 16.5421 87.3851 16.9733 87.8542C17.4045 88.3232 17.9962 88.6132 18.6312 88.6666V88.6666Z" fill="#FFF896"/>
<path d="M142.45 110.967C143.118 110.975 143.761 110.718 144.24 110.252C144.472 110.016 144.655 109.736 144.778 109.429C144.901 109.121 144.961 108.793 144.956 108.462C144.966 108.13 144.907 107.8 144.784 107.492C144.661 107.184 144.476 106.905 144.24 106.672C144.012 106.425 143.735 106.227 143.427 106.092C143.119 105.957 142.786 105.888 142.45 105.888C142.114 105.888 141.781 105.957 141.473 106.092C141.165 106.227 140.888 106.425 140.66 106.672C140.42 106.904 140.229 107.182 140.098 107.49C139.968 107.797 139.9 108.128 139.9 108.462C139.9 108.796 139.968 109.126 140.098 109.434C140.229 109.741 140.42 110.02 140.66 110.252C141.145 110.708 141.784 110.964 142.45 110.967Z" fill="#FFF896"/>
<path d="M167.489 63.3589C167.823 63.3686 168.155 63.3106 168.465 63.1886C168.775 63.0666 169.058 62.883 169.295 62.6488C169.533 62.4147 169.72 62.1349 169.847 61.8262C169.973 61.5176 170.036 61.1866 170.031 60.8531C170.03 60.1835 169.766 59.541 169.297 59.0633C168.835 58.6065 168.211 58.3503 167.561 58.3503C166.911 58.3503 166.287 58.6065 165.825 59.0633C165.356 59.541 165.092 60.1835 165.091 60.8531C165.087 61.1855 165.149 61.5153 165.275 61.8229C165.402 62.1304 165.588 62.4093 165.825 62.6429C166.303 63.109 166.947 63.3665 167.615 63.3589H167.489Z" fill="#FFF896"/>
<path d="M102.448 14.5332C103.031 14.5332 103.591 14.3012 104.004 13.8884C104.417 13.4755 104.649 12.9156 104.649 12.3317C104.649 11.7478 104.417 11.1879 104.004 10.775C103.591 10.3622 103.031 10.1302 102.448 10.1302C101.864 10.1302 101.304 10.3622 100.891 10.775C100.478 11.1879 100.246 11.7478 100.246 12.3317C100.246 12.9156 100.478 13.4755 100.891 13.8884C101.304 14.3012 101.864 14.5332 102.448 14.5332Z" fill="#FFF896"/>
<path d="M114.171 167.722C114.795 167.713 115.392 167.463 115.836 167.024C116.058 166.807 116.234 166.548 116.354 166.263C116.475 165.977 116.537 165.67 116.537 165.359C116.537 165.049 116.475 164.742 116.354 164.456C116.234 164.171 116.058 163.912 115.836 163.695C115.392 163.256 114.795 163.006 114.171 162.997C113.542 163.007 112.94 163.256 112.489 163.695C112.055 164.141 111.811 164.737 111.809 165.359C111.807 165.982 112.051 166.58 112.489 167.024C112.94 167.463 113.542 167.712 114.171 167.722V167.722Z" fill="#FFF896"/>
<path d="M61.497 165.682C62.133 165.682 62.7431 165.429 63.1928 164.979C63.6426 164.529 63.8953 163.919 63.8953 163.283C63.8953 162.647 63.6426 162.037 63.1928 161.587C62.7431 161.138 62.133 160.885 61.497 160.885C60.8609 160.885 60.2509 161.138 59.8011 161.587C59.3513 162.037 59.0986 162.647 59.0986 163.283C59.0986 163.919 59.3513 164.529 59.8011 164.979C60.2509 165.429 60.8609 165.682 61.497 165.682V165.682Z" fill="#FFF896"/>
</g>
<defs>
<clipPath id="clip0_2288_4696">
<rect width="180" height="180" fill="white"/>
</clipPath>
</defs>
</svg>
