<svg width="100" height="100" viewBox="0 0 100 100" fill="none" xmlns="http://www.w3.org/2000/svg">
<g clip-path="url(#clip0_1972_5026)">
<path d="M99.9874 50.4168C100.219 22.8063 78.0235 0.235994 50.413 0.00467923C22.8024 -0.226636 0.232178 21.9686 0.000863687 49.5791C-0.230451 77.1896 21.9648 99.7599 49.5753 99.9912C77.1858 100.223 99.7561 78.0273 99.9874 50.4168Z" fill="#35208A"/>
<path d="M75.4295 71.3831V71.2737L75.3599 71.1842C72.6155 67.0975 67.2063 67.8731 63.0103 66.5606C63.0103 63.3124 63.1926 60.0709 63.5571 56.836C63.5583 56.7604 63.5419 56.6855 63.5091 56.6173C63.4763 56.5491 63.4281 56.4895 63.3682 56.4432C63.3084 56.3969 63.2386 56.3652 63.1644 56.3505C63.0902 56.3358 63.0136 56.3386 62.9407 56.3587L50.2928 59.3417C50.1903 59.3699 50.0998 59.4308 50.0352 59.5152C49.9706 59.5996 49.9353 59.7028 49.9348 59.8091C49.9795 61.4219 49.883 63.0355 49.6464 64.6316C49.3879 66.4711 49.2089 68.6089 47.1904 69.2652C44.2894 70.0979 41.3318 70.7193 38.3409 71.1246C36.034 71.5521 33.3692 72.3078 32.0169 74.3363C30.6646 76.3647 31.5993 78.5025 33.4488 79.9343C35.5773 81.4229 38.0142 82.412 40.5781 82.8279C43.729 83.432 46.9259 83.7647 50.1337 83.8222C56.1891 84.0409 62.7617 84.2796 68.6282 82.5196C71.274 81.8698 73.578 80.2474 75.0815 77.9755C75.6918 76.9956 76.0438 75.877 76.1047 74.7241C76.1656 73.5713 75.9333 72.4218 75.4295 71.3831Z" fill="#FFB07F"/>
<path d="M67.8233 38.0133C66.4113 31.2817 63.6371 23.6055 56.6768 20.9705C50.2037 18.5443 42.08 20.4634 36.5515 24.2717C33.4094 26.4294 30.5855 29.4521 29.5912 33.2207C28.3682 37.8145 30.5855 41.5532 32.8725 45.3714C35.4776 49.7365 36.6509 55.2551 40.4791 58.8247C43.651 61.8077 48.1355 62.6728 52.3017 63.2097C53.5573 63.459 54.8506 63.4491 56.1022 63.1807C57.3538 62.9122 58.5374 62.3909 59.5803 61.6486C61.7425 59.9836 63.452 57.8023 64.5519 55.3048C67.2764 49.9254 68.9866 44.039 67.8233 38.0133Z" fill="#FFB07F"/>
<path d="M49.6367 62.3645C51.0453 62.9527 52.5271 63.3474 54.0416 63.5378C55.2684 63.5962 56.4844 63.2844 57.5317 62.6429C59.7166 61.6122 61.5746 59.9985 62.9011 57.9795C62.942 57.9189 62.9571 57.8445 62.9431 57.7727C62.9291 57.7009 62.8872 57.6376 62.8265 57.5967C62.7659 57.5558 62.6915 57.5407 62.6197 57.5547C62.5479 57.5687 62.4846 57.6106 62.4437 57.6713C61.2049 59.4934 59.5209 60.9686 57.5516 61.9569C56.3537 62.74 54.9109 63.0583 53.4947 62.8518C52.222 62.633 50.999 62.1955 49.756 61.8574C49.7033 61.849 49.6492 61.8602 49.6041 61.889C49.559 61.9177 49.526 61.962 49.5113 62.0134C49.4967 62.0648 49.5013 62.1198 49.5244 62.168C49.5475 62.2162 49.5875 62.2543 49.6367 62.275V62.3645Z" fill="#FA8D61"/>
<path d="M41.9609 71.055C43.7943 72.157 45.8178 72.9057 47.9269 73.2624C49.0444 73.3736 50.1494 73.5866 51.2281 73.8987C52.829 74.5152 52.8588 75.7184 53.4057 77.1005C53.4654 77.2397 53.704 77.2894 53.7338 77.1005C54.0421 75.1118 52.6202 73.6502 50.7508 73.1232C49.3091 72.7553 47.7678 72.6956 46.3758 72.2879C44.9837 71.8803 43.4624 71.1544 41.951 70.876C41.9381 70.8811 41.927 70.8901 41.9192 70.9016C41.9114 70.9131 41.9072 70.9267 41.9072 70.9406C41.9072 70.9545 41.9114 70.9681 41.9192 70.9796C41.927 70.9912 41.9381 71.0001 41.951 71.0052L41.9609 71.055Z" fill="#FA8D61"/>
<path d="M69.7125 70.9754C68.2906 71.2837 66.8985 71.8902 65.5064 72.3078C64.1144 72.7255 62.6527 73.0834 61.2209 73.4613C60.4154 73.6701 59.2322 73.7596 58.7052 74.4556C58.1655 75.2553 57.9292 76.2215 58.039 77.1801C58.039 77.2275 58.0579 77.2731 58.0914 77.3066C58.125 77.3402 58.1705 77.359 58.218 77.359C58.2654 77.359 58.311 77.3402 58.3445 77.3066C58.3781 77.2731 58.397 77.2275 58.397 77.1801C58.6058 76.6133 58.6157 75.9869 58.8345 75.44C59.2322 74.4457 59.5703 74.4457 60.4055 74.2269C61.5192 73.9087 62.6328 73.6303 63.7465 73.3221C65.7351 72.7752 68.0619 72.2581 69.7125 71.0351C69.7125 71.0351 69.7125 70.9456 69.7125 70.9555V70.9754Z" fill="#FA8D61"/>
<path d="M38.8584 43.6909C38.9181 45.6796 41.6326 48.9808 43.8301 48.1754C46.7534 47.1214 45.4309 43.0744 44.3571 41.215C44.1781 40.8869 43.671 41.215 43.8599 41.5133C44.3609 42.3655 44.7233 43.2918 44.9338 44.2577C45.252 45.6796 44.7448 48.0561 42.7562 47.7279C40.7675 47.3998 40.2007 44.9537 38.9877 43.7009C38.9877 43.7009 38.8882 43.7009 38.8982 43.7009L38.8584 43.6909Z" fill="#35208A"/>
<path d="M43.1735 49.6371C43.3815 49.1869 43.4541 48.686 43.3823 48.1953C43.3326 47.8572 42.7956 47.8274 42.8255 48.1953C42.8422 48.6373 42.8189 49.0799 42.7559 49.5177C42.7584 49.568 42.7768 49.6161 42.8083 49.6552C42.8398 49.6944 42.8829 49.7226 42.9314 49.7358C42.9799 49.7491 43.0313 49.7466 43.0784 49.7289C43.1254 49.7112 43.1657 49.679 43.1934 49.6371H43.1735Z" fill="#35208A"/>
<path d="M44.953 49.5177C44.9464 49.2015 44.8997 48.8875 44.8138 48.5831C44.7442 48.3047 44.7044 47.9467 44.4757 47.7677C44.4485 47.7401 44.4145 47.7202 44.377 47.71C44.3396 47.6999 44.3002 47.6999 44.2627 47.71C44.2253 47.7201 44.1912 47.74 44.164 47.7676C44.1368 47.7952 44.1174 47.8296 44.1078 47.8671C44.0935 48.1436 44.1446 48.4196 44.257 48.6726C44.3365 48.9709 44.3664 49.289 44.4658 49.5873C44.4825 49.6448 44.5195 49.6943 44.5697 49.7267C44.62 49.7591 44.6803 49.7723 44.7396 49.7638C44.7988 49.7554 44.853 49.7258 44.8922 49.6806C44.9314 49.6354 44.953 49.5776 44.953 49.5177Z" fill="#35208A"/>
<path d="M56.1496 37.0786C56.2291 38.8485 57.6112 40.9366 56.4578 42.6568C55.4635 44.0688 53.7234 43.323 52.8285 42.3486C52.0534 41.4342 51.4867 40.362 51.168 39.2065C51.0586 38.8485 50.4918 38.9977 50.6111 39.3556C51.2575 41.4239 53.2958 45.1924 56.07 43.7705C58.1979 42.6767 57.651 38.4607 56.2391 37.0488C56.235 37.0404 56.2286 37.0333 56.2207 37.0283C56.2128 37.0234 56.2037 37.0208 56.1943 37.0208C56.185 37.0208 56.1758 37.0234 56.1679 37.0283C56.16 37.0333 56.1536 37.0404 56.1496 37.0488V37.0786Z" fill="#35208A"/>
<path d="M57.7906 43.8401C57.721 43.7904 57.6713 43.7307 57.5917 43.681L57.2934 43.4921C57.1223 43.3491 56.9627 43.1929 56.8162 43.0247C56.5576 42.7662 56.1997 43.1441 56.4184 43.4225C56.581 43.6116 56.7645 43.7817 56.9653 43.9296C57.0576 43.9982 57.1539 44.0613 57.2537 44.1185C57.3648 44.1836 57.4857 44.2306 57.6116 44.2577C57.8801 44.3373 57.9895 43.9793 57.7906 43.8401Z" fill="#35208A"/>
<path d="M56.6767 45.1725C56.5077 44.914 56.3188 44.6753 56.1597 44.4168C56.0006 44.1583 55.921 43.8401 55.6725 43.7307C55.6423 43.7145 55.6089 43.7053 55.5748 43.7038C55.5406 43.7022 55.5065 43.7084 55.475 43.7217C55.4436 43.7351 55.4155 43.7553 55.3929 43.781C55.3702 43.8066 55.3537 43.837 55.3443 43.8699C55.2847 44.1682 55.5233 44.4566 55.6824 44.6952C55.8533 44.9768 56.0569 45.2371 56.2889 45.4708C56.4878 45.6597 56.8358 45.4111 56.6767 45.1725Z" fill="#35208A"/>
<path d="M47.5685 45.8884C48.0062 46.9585 48.2324 48.1032 48.2347 49.2592C48.2347 49.8359 47.7773 50.9198 48.1551 51.4468C48.8114 52.3516 51.0586 51.7451 51.8242 51.3175C51.8671 51.2857 51.8981 51.2405 51.9123 51.189C51.9265 51.1375 51.923 51.0828 51.9024 51.0335C51.8817 50.9843 51.8452 50.9434 51.7986 50.9173C51.752 50.8913 51.698 50.8817 51.6452 50.8899C50.9547 51.1816 50.2056 51.3076 49.4577 51.2578C48.3341 50.9098 48.8114 49.8359 48.8014 49.0604C48.7737 47.9151 48.5203 46.7865 48.0557 45.7393C47.9364 45.4708 47.469 45.6597 47.5685 45.9382V45.8884Z" fill="#35208A"/>
<path d="M47.4193 55.1755C49.0401 56.3786 52.391 56.3488 54.1708 55.5036C54.987 55.0618 55.7065 54.4612 56.2871 53.7371C56.8677 53.0131 57.2976 52.1803 57.5516 51.2877C57.5516 51.1087 57.3626 50.9396 57.2234 51.0888C56.1098 52.3715 55.7021 54.0718 54.0714 54.8971C51.8739 56.0604 49.6963 54.9965 47.4591 55.0263C47.4439 55.032 47.4307 55.0422 47.4215 55.0555C47.4122 55.0688 47.4072 55.0847 47.4072 55.1009C47.4072 55.1172 47.4122 55.133 47.4215 55.1463C47.4307 55.1597 47.4439 55.1698 47.4591 55.1755H47.4193Z" fill="#35208A"/>
<path d="M61.8769 50.7109C62.7092 50.7109 63.5228 50.464 64.2147 50.0014C64.9066 49.5388 65.4457 48.8813 65.7637 48.1122C66.0818 47.3431 66.1645 46.4969 66.0014 45.6807C65.8383 44.8645 65.4367 44.1151 64.8475 43.5273C64.2583 42.9395 63.5079 42.5397 62.6914 42.3785C61.8748 42.2173 61.0288 42.302 60.2605 42.6219C59.4921 42.9418 58.8359 43.4824 58.3749 44.1754C57.9139 44.8684 57.6689 45.6826 57.6709 46.5149C57.6839 47.6254 58.1315 48.6867 58.9177 49.4711C59.704 50.2555 60.7663 50.7006 61.8769 50.7109Z" fill="#E0435B"/>
<path d="M42.4574 58.0789C43.1878 58.0809 43.9024 57.866 44.5106 57.4614C45.1187 57.0568 45.5931 56.4807 45.8736 55.8063C46.154 55.1318 46.2279 54.3892 46.0859 53.6727C45.9438 52.9562 45.5923 52.298 45.0758 51.7815C44.5593 51.265 43.9011 50.9134 43.1845 50.7714C42.468 50.6294 41.7255 50.7033 41.051 50.9837C40.3765 51.2641 39.8005 51.7385 39.3959 52.3467C38.9913 52.9548 38.7764 53.6694 38.7783 54.3999C38.7887 55.3741 39.181 56.3054 39.8709 56.9934C40.5607 57.6814 41.493 58.0712 42.4673 58.0789H42.4574Z" fill="#E0435B"/>
<path d="M74.5745 48.8913C73.8983 47.6285 74.3159 46.8032 74.7435 45.5404C75.0467 44.7092 75.2276 43.8384 75.2804 42.9551C75.3401 41.2051 74.3856 39.6738 73.4708 38.252C71.4821 35.269 70.617 31.7192 68.5787 28.6865C66.4969 25.6675 63.9339 23.0105 60.9919 20.8213C58.4862 18.8923 55.9009 16.9931 52.7588 16.307C49.3582 15.5613 45.4803 15.8994 42.8155 18.2957C39.5143 17.5201 34.7117 19.9364 32.375 21.577C28.1464 24.5431 25.234 29.0347 24.2513 34.1056C23.8307 36.943 23.6279 39.8084 23.6448 42.6767C23.4801 45.6147 23.5999 48.5617 24.0027 51.4766C24.372 54.1062 25.3454 56.6145 26.8465 58.8048C27.67 59.9108 28.6249 60.9125 29.6903 61.7878C30.267 62.285 30.8636 62.7821 31.4205 63.2793C31.7725 63.5895 32.1046 63.9216 32.4148 64.2736C33.1208 65.0989 32.7628 65.8745 32.2955 66.67C31.1122 68.6586 30.625 71.3732 31.9375 73.4712C32.6035 74.4403 33.5409 75.1909 34.6321 75.6289C35.9248 76.2056 37.6151 76.4443 38.7189 77.3392C39.037 77.5977 39.6237 77.7369 39.3453 78.4329C39.2458 78.7113 38.7686 78.9699 38.5697 79.2085C38.3179 79.4835 38.161 79.832 38.1223 80.2028C38.1223 81.3463 39.3552 81.7739 40.2899 81.8137C41.9581 81.7715 43.5876 81.3025 45.0229 80.4514C46.534 79.7849 47.8889 78.8094 49.0002 77.5877C49.4739 77.0387 49.8037 76.3804 49.9599 75.6723C50.1161 74.9641 50.0939 74.2283 49.8951 73.5309C49.6104 72.8744 49.2781 72.2397 48.9008 71.6317C48.6772 71.1613 48.5546 70.6494 48.5409 70.1287C48.5272 69.6081 48.6227 69.0904 48.8213 68.6089C49.4079 66.9782 50.3426 65.5464 50.1437 63.7466C49.9379 62.2141 49.1944 60.8045 48.0457 59.7693C47.0262 58.9079 45.847 58.2558 44.5755 57.8502C43.1635 57.3829 41.4334 57.373 40.1407 56.5775C37.2174 54.7976 41.8212 51.3274 39.9618 48.8814C39.564 48.3544 38.9674 48.1953 38.4404 47.887C37.8471 47.4987 37.4322 46.8907 37.287 46.1967C37.1362 45.3597 37.1933 44.4985 37.4534 43.6888C37.7135 42.8791 38.1685 42.1457 38.7785 41.5531C40.8268 39.3059 43.4618 37.894 45.0925 35.2391C46.4364 33.024 47.1673 30.4915 47.2104 27.901C49.0997 30.1979 51.9733 32.2164 54.8966 31.7888C54.8966 34.8712 55.2844 38.2718 57.9791 40.171C58.8769 40.6786 59.7029 41.304 60.4351 42.0304C61.2048 42.9637 61.6328 44.1319 61.6482 45.3415C61.6482 47.4396 60.2362 49.1598 59.6595 51.0987C59.0828 53.0377 59.5601 54.8871 59.9876 56.8062C60.5103 59.3231 60.1595 61.943 58.9933 64.2339C58.7032 64.7902 58.6187 65.431 58.7546 66.0435C58.9535 66.7396 59.3314 66.8291 59.8584 67.187C61.3499 68.1814 60.3555 69.1757 59.8584 70.3888C59.5136 71.0689 59.4425 71.8553 59.6595 72.5862C59.9705 73.3521 60.5356 73.9876 61.2599 74.386C61.9842 74.7843 62.8235 74.9213 63.6368 74.7738C65.5559 74.5152 66.9778 73.163 68.2207 71.7908C69.1355 72.7851 70.7165 72.0592 71.5915 71.055C73.1467 69.095 74.2073 66.7895 74.6839 64.3333C75.8572 59.4113 76.941 53.5846 74.5745 48.8913Z" fill="#996666"/>
<path d="M49.0198 22.1438C49.0911 23.4895 49.5084 24.7942 50.2312 25.9316C50.9541 27.069 51.9581 28.0007 53.1462 28.6367C54.7571 29.5018 56.7755 29.3626 58.2869 30.4067C60.1364 31.6794 58.7841 33.8669 59.1122 35.6766C59.7287 39.0673 63.0896 41.2449 64.4021 44.377C65.2474 46.3447 65.2866 48.5655 64.5114 50.5618C63.8452 52.2322 62.8111 53.7436 62.5228 55.5334C61.956 59.3019 65.1876 64.4824 61.5881 67.4654C61.3097 67.6941 61.7174 68.0919 61.9858 67.8632C64.5313 65.785 63.8452 62.285 63.3183 59.471C62.7883 57.1199 63.0979 54.6575 64.1933 52.5107C65.0293 51.0466 65.519 49.4105 65.6251 47.7279C65.6251 43.8799 63.0597 41.3543 60.9816 38.4309C60.4047 37.6861 59.9729 36.8395 59.7088 35.9351C59.5597 34.8939 59.6137 33.8336 59.8679 32.8129C59.9624 32.1954 59.8607 31.5638 59.577 31.0072C59.2934 30.4506 58.8421 29.9971 58.2869 29.7106C56.4574 28.7163 54.3096 28.8654 52.5099 27.5728C51.646 26.9095 50.9212 26.0825 50.3769 25.139C49.8327 24.1955 49.4796 23.1541 49.3379 22.0742C49.3379 21.8952 49.0098 21.9449 49.0198 22.1239V22.1438Z" fill="#35208A"/>
<path d="M60.932 27.364C63.2885 27.7717 64.5812 31.0828 64.9093 33.1709C65.2374 35.259 64.2829 37.1482 64.7701 39.1369C65.2076 40.8969 66.5996 42.2094 67.6139 43.6611C68.8823 45.4049 69.7575 47.403 70.1792 49.5177C70.5898 51.8359 70.1066 54.2235 68.827 56.1996C67.7877 57.7266 67.326 59.5736 67.5244 61.4099C67.763 63.5179 67.9917 65.3873 67.1863 67.4654C66.7721 68.5113 66.1688 69.472 65.4064 70.2993C64.7104 71.0649 63.2289 72.5464 62.0456 72.2879C61.9791 72.2752 61.9101 72.2881 61.8527 72.3241C61.7953 72.3601 61.7536 72.4164 61.736 72.4818C61.7184 72.5473 61.7261 72.6169 61.7577 72.6769C61.7894 72.7368 61.8425 72.7826 61.9064 72.805C63.1692 73.2027 64.5414 71.9797 65.3965 71.1544C66.5135 70.0827 67.3589 68.7602 67.8625 67.2964C68.3659 65.7648 68.4922 64.1343 68.2304 62.5435C67.9769 61.3068 67.9769 60.0315 68.2304 58.7948C68.6418 57.7472 69.1652 56.7471 69.7915 55.8118C70.5266 54.3531 70.9096 52.7422 70.9096 51.1087C70.9096 49.4751 70.5266 47.8642 69.7915 46.4055C68.99 44.7511 67.9882 43.2016 66.8085 41.7918C66.1292 40.9964 65.6154 40.0736 65.2971 39.0772C65.1711 37.9429 65.2451 36.7953 65.5158 35.6866C65.6851 33.7824 65.3019 31.8699 64.4121 30.178C63.7061 28.8455 62.6124 27.2944 60.9518 27.3143C60.8624 27.3143 60.8226 27.4734 60.9518 27.4933L60.932 27.364Z" fill="#35208A"/>
<path d="M69.0663 39.1071C70.7368 41.4437 72.0493 43.6909 72.1687 46.664C72.0692 47.9282 72.0692 49.1982 72.1687 50.4623C72.3974 51.745 72.8945 52.9581 73.163 54.2507C73.5786 56.8767 73.4394 59.5607 72.7544 62.1296C72.0693 64.6985 70.8536 67.0954 69.1857 69.1657C68.9967 69.4143 69.3945 69.7126 69.5933 69.4939C71.2966 67.5028 72.5583 65.1733 73.2953 62.6589C74.0323 60.1445 74.2278 57.5025 73.869 54.907C73.68 53.4752 73.1928 52.1428 72.8746 50.7408C72.5167 49.1001 72.8746 47.4595 72.6857 45.7691C72.4726 43.1282 71.2727 40.6645 69.3249 38.8684C69.2055 38.769 68.9669 38.8684 69.0862 39.0573L69.0663 39.1071Z" fill="#35208A"/>
<path d="M44.3369 24.6296C45.7489 30.5956 40.5386 34.4138 36.77 37.9934C34.2146 40.4295 30.1876 45.1526 33.0313 48.7919C33.5502 49.318 34.1472 49.7607 34.8013 50.1044C35.2437 50.399 35.5896 50.8175 35.7956 51.3075C35.7924 51.6702 35.7285 52.0298 35.6067 52.3715C35.4476 53.1271 35.2388 53.8729 35.0996 54.6385C34.6199 56.4799 34.8692 58.4353 35.7956 60.0974C36.7899 61.6883 38.4604 62.0165 40.2502 62.0861C41.4749 62.028 42.6903 62.3249 43.7502 62.9412C44.3251 63.3452 44.8021 63.8729 45.1462 64.4855C45.4904 65.098 45.6929 65.7799 45.7389 66.481C45.7886 67.883 44.9335 68.8674 44.6054 70.1601C44.4294 71.0894 44.6181 72.0509 45.1324 72.8448C45.7986 74.1175 46.3852 75.251 46.0173 76.7227C45.8455 77.3974 45.5251 78.0252 45.0796 78.5602C44.634 79.0953 44.0745 79.524 43.442 79.815C43.2034 79.9443 43.3724 80.352 43.6309 80.2525C44.7677 79.7976 45.6909 78.9305 46.2163 77.8245C46.7416 76.7186 46.8304 75.4551 46.4648 74.2865C45.9776 72.8845 44.7346 71.751 45.202 70.1601C45.6551 69.2267 46.0148 68.2508 46.2759 67.2467C46.357 66.3986 46.2237 65.5438 45.8881 64.7608C45.555 63.9453 45.0112 63.2328 44.3124 62.6965C43.6135 62.1601 42.7847 61.819 41.9107 61.7082C40.6814 61.6721 39.4558 61.5559 38.2416 61.3602C37.5282 61.1178 36.8963 60.6816 36.4168 60.1002C35.9374 59.5189 35.6293 58.8156 35.5271 58.069C35.3194 56.5284 35.4483 54.9611 35.905 53.4752C36.1038 52.63 36.5911 51.4865 36.1535 50.6513C35.8453 50.0248 35.1592 49.7762 34.6123 49.4282C33.8756 48.9856 33.3021 48.3162 32.9777 47.5204C32.6532 46.7245 32.5953 45.8449 32.8126 45.0134C33.3197 42.2193 35.5271 39.9522 37.5257 38.0531C41.1849 34.6425 46.7134 30.2277 44.7545 24.4904C44.7346 24.4471 44.6999 24.4123 44.6566 24.3925C44.6133 24.3727 44.5642 24.369 44.5185 24.3823C44.4727 24.3955 44.4332 24.4248 44.4072 24.4647C44.3812 24.5046 44.3703 24.5525 44.3767 24.5998L44.3369 24.6296Z" fill="#35208A"/>
<path d="M31.6987 40.6284C29.4018 43.2932 27.4131 47.2307 28.9643 50.7109C29.302 51.4085 29.7597 52.0412 30.3166 52.5803C30.6567 52.8936 30.9077 53.2914 31.044 53.7334C31.1802 54.1753 31.1969 54.6455 31.0922 55.0959C31.0922 55.3743 31.0325 55.6428 31.0226 55.9212C30.9269 57.5936 31.2877 59.2606 32.0666 60.7437C32.8871 62.2267 34.209 63.3688 35.7953 63.9654C37.8834 64.8503 39.9914 65.8546 40.1008 68.4399C40.1505 69.5436 39.6434 70.5578 39.7627 71.6714C39.8385 72.3313 40.0163 72.9753 40.2897 73.5806C41.0454 75.4201 42.9446 78.7411 39.9019 79.5465C39.6434 79.6261 39.6832 80.0537 39.9616 80.0238C40.5878 79.9357 41.159 79.6185 41.5649 79.1337C41.9708 78.6488 42.1825 78.0307 42.1591 77.3988C42.1591 75.6885 41.0454 74.207 40.5483 72.6359C39.9318 70.6473 41.1051 68.7978 40.3196 66.839C39.9761 66.1092 39.4851 65.4585 38.8776 64.9279C38.27 64.3974 37.5591 63.9986 36.7897 63.7566C34.5325 62.7622 32.8124 61.6386 32.0368 59.2025C31.7064 58.1518 31.5617 57.0515 31.6092 55.951C31.6092 55.1059 32.0467 54.0419 31.6689 53.2266C31.3706 52.5703 30.6745 52.2322 30.2072 51.6854C29.3793 50.6291 28.9435 49.3182 28.9742 47.9765C28.9742 45.2321 30.5254 43.0048 31.8081 40.688C31.8081 40.6383 31.7584 40.5787 31.7285 40.6284H31.6987Z" fill="#35208A"/>
<path d="M34.6424 68.6089C33.648 69.3944 33.7375 70.9854 34.0855 72.0791C34.564 73.4495 35.5255 74.5984 36.7901 75.3107C37.0884 75.4897 37.3668 75.0224 37.0685 74.8334C35.9525 74.1712 35.1017 73.1411 34.6623 71.92C34.3866 70.8262 34.435 69.6758 34.8015 68.6089C34.8019 68.596 34.7988 68.5832 34.7924 68.5719C34.786 68.5607 34.7766 68.5514 34.7652 68.5452C34.7539 68.539 34.741 68.5361 34.7281 68.5368C34.7152 68.5376 34.7027 68.5419 34.6921 68.5493L34.6424 68.6089Z" fill="#35208A"/>
<path d="M59.1527 30.2476C59.1762 30.1365 59.1722 30.0213 59.141 29.9121C59.1098 29.8029 59.0524 29.703 58.9737 29.6211C58.873 29.4761 58.7195 29.3761 58.5461 29.3427C58.4518 29.3324 58.3564 29.3451 58.2681 29.3797C58.1798 29.4144 58.1012 29.4699 58.039 29.5416C57.8216 29.8315 57.6875 30.1753 57.6512 30.5359C57.691 30.2489 57.691 29.9578 57.6512 29.6709C57.6512 29.5416 57.6512 29.4123 57.5816 29.2831C57.5661 29.2182 57.5292 29.1604 57.4769 29.119C57.4247 29.0775 57.36 29.0548 57.2933 29.0544C57.1607 29.0515 57.0288 29.0751 56.9055 29.124C56.7899 29.1723 56.6925 29.2558 56.6271 29.3626C56.458 29.6112 56.6271 29.9294 56.7961 30.1183C56.9118 30.2352 57.0347 30.3448 57.164 30.4464C57.056 30.3867 56.9429 30.3368 56.8259 30.2973C56.6018 30.1922 56.3465 30.1744 56.11 30.2476C56.0121 30.2828 55.9259 30.3448 55.8614 30.4266C55.8113 30.5282 55.7906 30.6419 55.8018 30.7547C55.8138 30.8548 55.8566 30.9488 55.9242 31.0236C55.9919 31.0984 56.0812 31.1504 56.1796 31.1723C56.4249 31.2321 56.683 31.2112 56.9154 31.1126L57.1242 31.0132C57.0366 31.0911 56.9536 31.1741 56.8757 31.2618C56.7939 31.3603 56.7175 31.4632 56.647 31.57C56.5709 31.6658 56.5321 31.7859 56.5376 31.9081C56.5577 32.0245 56.6075 32.1337 56.6822 32.2252C56.7568 32.3167 56.8539 32.3874 56.9639 32.4304C57.0739 32.4734 57.1931 32.4873 57.31 32.4707C57.427 32.4541 57.5377 32.4076 57.6313 32.3357C57.7079 32.2427 57.7621 32.1334 57.7897 32.0161C57.8173 31.8989 57.8175 31.7769 57.7904 31.6595C57.7819 31.4954 57.7586 31.3323 57.7208 31.1723C57.738 31.2184 57.7614 31.2619 57.7904 31.3016C57.9217 31.6081 58.1681 31.8509 58.4765 31.9777C58.9538 32.1169 59.272 31.3712 58.9638 31.043C58.842 30.9339 58.7001 30.8495 58.5461 30.7945C58.3545 30.7117 58.1483 30.6678 57.9396 30.6652L58.4765 30.5558C58.7549 30.5459 59.0532 30.4962 59.1527 30.2476Z" fill="white"/>
<path d="M51.4859 34.4934C51.5062 34.3838 51.5005 34.271 51.4694 34.1639C51.4384 34.0569 51.3827 33.9586 51.307 33.8769C51.2559 33.804 51.191 33.7418 51.116 33.6941C51.0409 33.6463 50.9571 33.6138 50.8695 33.5985C50.7761 33.5885 50.6817 33.6004 50.5937 33.6332C50.5057 33.666 50.4265 33.7188 50.3623 33.7874C50.1568 34.0838 50.024 34.4244 49.9746 34.7817C50.0093 34.4944 50.0093 34.204 49.9746 33.9166C49.9746 33.7874 49.9746 33.6482 49.905 33.5189C49.8856 33.4551 49.8461 33.3993 49.7923 33.3598C49.7385 33.3204 49.6734 33.2994 49.6067 33.3002C49.477 33.2933 49.3475 33.3172 49.2288 33.3698C49.1103 33.4175 49.0095 33.5009 48.9405 33.6084C48.886 33.737 48.874 33.8797 48.9062 34.0156C48.9384 34.1515 49.0131 34.2736 49.1194 34.3641C49.2327 34.4806 49.3557 34.587 49.4873 34.6823L49.1493 34.5232C48.9181 34.4388 48.6645 34.4388 48.4333 34.5232C48.332 34.5517 48.244 34.6151 48.1848 34.7022C48.1279 34.798 48.1035 34.9096 48.1152 35.0204C48.128 35.1213 48.1709 35.2161 48.2382 35.2923C48.3056 35.3686 48.3944 35.4228 48.493 35.4479C48.7382 35.5084 48.9965 35.4875 49.2288 35.3883L49.4376 35.2888C49.3531 35.3667 49.2734 35.4497 49.199 35.5374C49.1134 35.6319 49.0337 35.7315 48.9603 35.8357C48.8887 35.9371 48.8536 36.0598 48.8609 36.1837C48.87 36.305 48.9172 36.4204 48.9958 36.5132C49.0743 36.6061 49.1803 36.6717 49.2984 36.7008C49.4052 36.7487 49.5233 36.7657 49.6393 36.7499C49.7553 36.734 49.8646 36.686 49.9547 36.6113C50.0313 36.5183 50.0854 36.409 50.113 36.2918C50.1406 36.1745 50.1409 36.0525 50.1138 35.9351C50.1003 35.7715 50.0771 35.6088 50.0442 35.4479L50.1038 35.5772C50.241 35.8797 50.4854 36.1206 50.7899 36.2533C51.2771 36.3925 51.5953 35.6468 51.2771 35.3187C51.1622 35.2032 51.0229 35.1149 50.8695 35.0601C50.6734 34.9815 50.4642 34.941 50.253 34.9408L50.7999 34.8314C51.0882 34.8016 51.3766 34.8016 51.4859 34.4934Z" fill="white"/>
<path d="M42.4074 36.4323C42.431 36.3212 42.427 36.2061 42.3958 36.0969C42.3646 35.9877 42.3071 35.8878 42.2285 35.8059C42.1243 35.6644 41.9724 35.5655 41.8009 35.5275C41.7068 35.5196 41.6121 35.5334 41.5242 35.5679C41.4363 35.6024 41.3574 35.6566 41.2938 35.7264C41.0763 36.0163 40.9422 36.3601 40.906 36.7207C40.9459 36.4337 40.9459 36.1426 40.906 35.8556C40.906 35.7264 40.906 35.5971 40.8364 35.4678C40.8208 35.4029 40.784 35.3452 40.7317 35.3037C40.6794 35.2623 40.6148 35.2395 40.548 35.2391C40.4154 35.2362 40.2836 35.2599 40.1603 35.3087C40.046 35.3638 39.9495 35.45 39.8818 35.5573C39.7128 35.796 39.8818 36.1141 40.0509 36.3031C40.1613 36.4254 40.2847 36.5354 40.4188 36.6312C40.311 36.5682 40.1979 36.515 40.0807 36.4721C39.8503 36.3832 39.5951 36.3832 39.3648 36.4721C39.2648 36.5035 39.1777 36.5662 39.1162 36.6511C39.0663 36.7493 39.0456 36.8597 39.0565 36.9693C39.0671 37.07 39.1094 37.1647 39.1773 37.2397C39.2452 37.3148 39.3353 37.3663 39.4344 37.3869C39.6788 37.4564 39.9401 37.4352 40.1702 37.3272L40.379 37.2278C40.2912 37.309 40.2081 37.3953 40.1304 37.4863C40.0464 37.5795 39.9699 37.6793 39.9017 37.7846C39.8287 37.882 39.7902 38.001 39.7924 38.1227C39.805 38.244 39.8533 38.3587 39.9312 38.4525C40.0091 38.5463 40.113 38.615 40.2299 38.6497C40.3371 38.6987 40.4562 38.7154 40.5728 38.6977C40.6893 38.68 40.7982 38.6288 40.8861 38.5503C40.9625 38.4592 41.0167 38.3516 41.0443 38.2359C41.0719 38.1203 41.0722 37.9998 41.0452 37.8841C41.0374 37.7198 41.0141 37.5567 40.9756 37.3968L41.0452 37.5261C41.1768 37.8301 41.4235 38.0697 41.7313 38.1923C42.2086 38.3414 42.5268 37.5858 42.2185 37.2676C42.0999 37.1519 41.9573 37.0637 41.8009 37.009C41.6078 36.931 41.4025 36.8872 41.1944 36.8798L41.7611 36.7903C42.0097 36.7306 42.308 36.6809 42.4074 36.4323Z" fill="white"/>
<path d="M34.1155 36.2235C34.1382 36.1139 34.1337 36.0005 34.1025 35.893C34.0713 35.7856 34.0143 35.6874 33.9365 35.607C33.8358 35.4619 33.6823 35.362 33.5089 35.3286C33.4155 35.3187 33.3211 35.3306 33.2331 35.3634C33.1451 35.3961 33.0659 35.4489 33.0018 35.5175C32.7924 35.8119 32.6592 36.1535 32.614 36.5118C32.6538 36.2249 32.6538 35.9338 32.614 35.6468C32.614 35.5175 32.614 35.3783 32.5444 35.249C32.5285 35.1851 32.4913 35.1286 32.4388 35.0888C32.3864 35.049 32.3219 35.0283 32.2561 35.0303C32.1232 35.0234 31.9905 35.0472 31.8683 35.0999C31.7527 35.1482 31.6553 35.2317 31.5899 35.3385C31.4208 35.5871 31.5899 35.8954 31.7589 36.0942C31.8721 36.2107 31.9952 36.3172 32.1268 36.4124L31.8185 36.313C31.5882 36.2241 31.333 36.2241 31.1026 36.313C31.0042 36.3421 30.9195 36.4056 30.864 36.492C30.8214 36.5852 30.8076 36.6891 30.8242 36.7903C30.8343 36.8922 30.8762 36.9884 30.944 37.0651C31.0118 37.1419 31.1021 37.1953 31.2021 37.2178C31.4474 37.2776 31.7054 37.2567 31.9379 37.1582L32.1467 37.0587C32.059 37.1366 31.976 37.2196 31.8981 37.3073L31.6694 37.6056C31.5949 37.706 31.5564 37.8286 31.56 37.9536C31.5745 38.0731 31.6237 38.1857 31.7014 38.2776C31.7791 38.3695 31.8821 38.4366 31.9975 38.4707C32.1061 38.5183 32.2257 38.5351 32.3432 38.5194C32.4607 38.5036 32.5716 38.4558 32.6637 38.3812C32.7396 38.284 32.7924 38.1709 32.8183 38.0503C32.8441 37.9298 32.8423 37.8049 32.8129 37.6852C32.8043 37.521 32.781 37.3579 32.7433 37.1979C32.7626 37.243 32.7859 37.2863 32.8129 37.3272C32.9442 37.6338 33.1905 37.8766 33.499 38.0033C33.9762 38.1426 34.2944 37.3968 33.9862 37.0687C33.8676 36.953 33.725 36.8648 33.5686 36.8101C33.3763 36.7306 33.1701 36.69 32.962 36.6908L33.499 36.5814C33.7177 36.5317 34.016 36.482 34.1155 36.2235Z" fill="white"/>
<path d="M27.1552 31.57C27.1779 31.4605 27.1734 31.347 27.1422 31.2396C27.111 31.1321 27.054 31.0339 26.9762 30.9535C26.928 30.8801 26.8651 30.8175 26.7915 30.7696C26.7179 30.7217 26.6352 30.6895 26.5486 30.6751C26.4552 30.6652 26.3608 30.6771 26.2728 30.7099C26.1848 30.7427 26.1056 30.7954 26.0415 30.864C25.8321 31.1584 25.6989 31.5 25.6537 31.8584C25.6935 31.5714 25.6935 31.2803 25.6537 30.9933C25.6436 30.8594 25.6236 30.7265 25.5941 30.5956C25.5747 30.5317 25.5352 30.4759 25.4814 30.4365C25.4276 30.397 25.3624 30.3761 25.2958 30.3768C25.1661 30.37 25.0366 30.3938 24.9179 30.4464C24.7994 30.4942 24.6986 30.5776 24.6296 30.6851C24.4605 30.9336 24.6296 31.2419 24.7986 31.4408C24.9676 31.6396 25.0372 31.6595 25.1665 31.7689H25.2162L24.8582 31.6595C24.6262 31.58 24.3743 31.58 24.1423 31.6595C24.0398 31.6855 23.9509 31.7495 23.8937 31.8385C23.8369 31.9343 23.8125 32.0459 23.8241 32.1567C23.8342 32.2586 23.8761 32.3548 23.9439 32.4316C24.0118 32.5083 24.1021 32.5617 24.202 32.5842C24.4473 32.644 24.7053 32.6231 24.9378 32.5246L25.1466 32.4251L24.898 32.6737L24.6693 32.972C24.6141 33.0467 24.5784 33.134 24.5655 33.226C24.5526 33.318 24.563 33.4117 24.5956 33.4987C24.6282 33.5857 24.6821 33.6631 24.7523 33.7239C24.8224 33.7848 24.9067 33.8271 24.9975 33.847C25.1073 33.8912 25.227 33.9052 25.344 33.8877C25.4611 33.8702 25.5715 33.8219 25.6637 33.7476C25.7377 33.6532 25.7903 33.5439 25.8178 33.4271C25.8453 33.3103 25.847 33.189 25.8227 33.0715C25.8227 32.9124 25.8227 32.7433 25.7531 32.5842L25.8128 32.7135C25.95 33.016 26.1944 33.2569 26.4989 33.3896C26.9762 33.5289 27.2944 32.7831 26.9861 32.455C26.8694 32.3417 26.7307 32.2537 26.5784 32.1964C26.3824 32.1178 26.1732 32.0773 25.962 32.0771L26.5088 31.9678C26.7574 31.8783 27.0557 31.8186 27.1552 31.57Z" fill="white"/>
<path d="M66.6195 24.8583C66.644 24.7488 66.6404 24.6348 66.6091 24.5271C66.5778 24.4193 66.5198 24.3212 66.4405 24.2418C66.3923 24.1684 66.3294 24.1058 66.2558 24.0579C66.1822 24.01 66.0995 23.9778 66.0129 23.9634C65.9195 23.9535 65.8251 23.9654 65.7371 23.9982C65.6491 24.0309 65.5699 24.0837 65.5058 24.1523C65.2964 24.4467 65.1632 24.7883 65.118 25.1466C65.1578 24.8597 65.1578 24.5686 65.118 24.2816C65.1079 24.1477 65.088 24.0148 65.0584 23.8838C65.039 23.82 64.9995 23.7642 64.9457 23.7247C64.8919 23.6853 64.8268 23.6644 64.7601 23.6651C64.6304 23.6582 64.5009 23.6821 64.3822 23.7347C64.2637 23.7824 64.1629 23.8658 64.0939 23.9733C64.0398 24.1012 64.027 24.2428 64.0573 24.3783C64.0876 24.5137 64.1595 24.6364 64.2629 24.729C64.3822 24.8483 64.5015 24.9478 64.6308 25.0572L64.2927 24.8981C64.0831 24.8184 63.8542 24.8046 63.6365 24.8583C63.5351 24.8868 63.4471 24.9502 63.3879 25.0373C63.331 25.1331 63.3066 25.2447 63.3183 25.3555C63.3297 25.4569 63.3722 25.5523 63.4398 25.6288C63.5074 25.7053 63.5969 25.7592 63.6961 25.783C63.9414 25.8435 64.1996 25.8226 64.4319 25.7234L64.6407 25.6239C64.5531 25.7018 64.4701 25.7848 64.3922 25.8725L64.1635 26.1708C64.0918 26.2722 64.0567 26.3949 64.064 26.5188C64.0739 26.6384 64.1201 26.7521 64.1966 26.8445C64.273 26.937 64.376 27.0037 64.4916 27.0359C64.6002 27.0835 64.7197 27.1003 64.8372 27.0846C64.9547 27.0688 65.0656 27.021 65.1578 26.9464C65.2319 26.852 65.2845 26.7426 65.3119 26.6259C65.3394 26.5091 65.3411 26.3877 65.3169 26.2702C65.3169 26.1111 65.3169 25.9421 65.2473 25.783L65.3069 25.9123C65.4441 26.2148 65.6886 26.4557 65.993 26.5884C66.4703 26.7276 66.7984 25.9819 66.4803 25.6538C66.3653 25.5383 66.226 25.45 66.0726 25.3952C65.8765 25.3166 65.6673 25.2761 65.4561 25.2759L66.003 25.1665C66.2018 25.1268 66.4902 25.077 66.6195 24.8583Z" fill="white"/>
<path d="M63.6365 27.8413C63.6666 27.5586 63.5965 27.2743 63.4384 27.0381C63.2802 26.8018 63.0442 26.6286 62.7714 26.5487C62.6365 26.5395 62.5013 26.5606 62.3757 26.6105C62.2501 26.6604 62.1373 26.7378 62.0455 26.837C61.745 27.2613 61.5538 27.7531 61.4887 28.2689C61.5434 27.8597 61.5434 27.4451 61.4887 27.0359C61.4692 26.8481 61.436 26.662 61.3893 26.4791C61.3649 26.3871 61.3107 26.3059 61.235 26.2483C61.1594 26.1907 61.0667 26.1599 60.9716 26.1609C60.7875 26.1541 60.6042 26.1881 60.4347 26.2603C60.2654 26.3302 60.1226 26.4521 60.027 26.6083C59.7884 26.9563 60.027 27.4038 60.2657 27.6723C60.4293 27.8411 60.6055 27.9973 60.7927 28.1396H60.8623C60.7057 28.0544 60.5428 27.9812 60.375 27.9208C60.0614 27.7843 59.7103 27.7597 59.3807 27.8512C59.2358 27.8949 59.1098 27.986 59.0228 28.1098C58.9456 28.2492 58.911 28.4083 58.9233 28.5672C58.9395 28.7117 59.0011 28.8474 59.0994 28.9547C59.1977 29.0619 59.3276 29.1351 59.4702 29.1638C59.8015 29.246 60.1505 29.218 60.4645 29.0842L60.7628 28.945C60.637 29.0544 60.5206 29.1741 60.4148 29.303C60.2915 29.4342 60.1816 29.5775 60.0867 29.7305C59.9814 29.8709 59.9254 30.0422 59.9276 30.2177C59.9476 30.3897 60.0176 30.552 60.129 30.6846C60.2403 30.8171 60.3881 30.9141 60.554 30.9635C60.715 31.0411 60.8953 31.0692 61.0723 31.0445C61.2492 31.0197 61.4149 30.9431 61.5484 30.8243C61.6605 30.6875 61.7388 30.5261 61.7768 30.3533C61.8148 30.1805 61.8115 30.0012 61.7671 29.83C61.7493 29.596 61.7161 29.3635 61.6677 29.1339L61.7572 29.3129C61.9474 29.7605 62.3039 30.117 62.7515 30.3072C63.4376 30.516 63.895 29.4422 63.4475 28.9748C63.28 28.8147 63.0799 28.6926 62.8609 28.6169C62.5829 28.5034 62.2861 28.4427 61.9859 28.4379L62.7614 28.2887C63.1095 28.249 63.5271 28.1794 63.6365 27.8413Z" fill="white"/>
<path d="M47.7279 35.1994C47.7594 35.0419 47.7524 34.8792 47.7074 34.7251C47.6624 34.571 47.5807 34.4301 47.4693 34.3144C47.3992 34.2096 47.3083 34.1202 47.2022 34.0518C47.0962 33.9834 46.9773 33.9374 46.8529 33.9167C46.72 33.9032 46.5859 33.9215 46.4614 33.9699C46.337 34.0182 46.2258 34.0954 46.1369 34.1951C45.8303 34.6197 45.6385 35.1164 45.5801 35.6369C45.6299 35.2274 45.6299 34.8134 45.5801 34.4039C45.5566 34.2134 45.5235 34.0242 45.4807 33.8371C45.4564 33.7452 45.4021 33.664 45.3265 33.6064C45.2508 33.5488 45.1581 33.518 45.0631 33.5189C44.876 33.5163 44.6903 33.5501 44.5162 33.6184C44.3502 33.6895 44.211 33.8113 44.1184 33.9664C43.8798 34.3144 44.1184 34.7619 44.3571 35.0403C44.5212 35.2056 44.6973 35.3585 44.8841 35.4977H44.9437C44.786 35.4147 44.6233 35.3416 44.4565 35.2789C44.1419 35.1449 43.7906 35.1238 43.4622 35.2193C43.3227 35.2629 43.2007 35.35 43.1142 35.4678C43.0381 35.6077 43.0036 35.7664 43.0147 35.9252C43.0312 36.0692 43.0915 36.2047 43.1876 36.3132C43.2836 36.4217 43.4107 36.498 43.5517 36.5318C43.8997 36.6223 44.2682 36.5907 44.5957 36.4423C44.6987 36.4038 44.7984 36.3573 44.894 36.3031C44.7706 36.415 44.6544 36.5345 44.546 36.661C44.4281 36.7968 44.3185 36.9396 44.2179 37.0886C44.1154 37.2299 44.0629 37.4014 44.0687 37.5758C44.0842 37.7478 44.1513 37.9112 44.2614 38.0443C44.3714 38.1774 44.5192 38.2741 44.6852 38.3216C44.8462 38.3991 45.0265 38.4273 45.2035 38.4025C45.3804 38.3778 45.5461 38.3011 45.6795 38.1824C45.7934 38.0464 45.8735 37.8855 45.9133 37.7127C45.953 37.5398 45.9513 37.3601 45.9082 37.188C45.8897 36.9542 45.8565 36.7217 45.8088 36.492C45.8284 36.5593 45.8586 36.6231 45.8983 36.6809C45.9888 36.9049 46.1235 37.1084 46.2943 37.2792C46.4652 37.45 46.6686 37.5847 46.8926 37.6753C47.5787 37.8841 48.0361 36.8201 47.5887 36.3528C47.4201 36.1917 47.2205 36.0665 47.002 35.9849C46.7226 35.8761 46.4267 35.8155 46.127 35.8059C46.3855 35.7661 46.6441 35.7164 46.9026 35.6568C47.1611 35.6269 47.5787 35.5573 47.7279 35.1994Z" fill="white"/>
<path d="M38.9779 35.9948C39.0094 35.8374 39.0024 35.6747 38.9574 35.5206C38.9123 35.3664 38.8307 35.2255 38.7193 35.1099C38.6491 35.005 38.5582 34.9156 38.4522 34.8472C38.3462 34.7788 38.2273 34.7329 38.1028 34.7121C37.97 34.6987 37.8359 34.7169 37.7114 34.7653C37.587 34.8137 37.4758 34.8909 37.3869 34.9905C37.0653 35.4069 36.8594 35.9008 36.7903 36.4224C36.845 36.0165 36.845 35.6052 36.7903 35.1993C36.7702 35.009 36.7403 34.8198 36.7008 34.6326C36.675 34.5415 36.6204 34.4612 36.5451 34.4039C36.4698 34.3465 36.3779 34.3151 36.2832 34.3144C36.0958 34.3068 35.9091 34.3408 35.7363 34.4138C35.5703 34.4849 35.4311 34.6067 35.3386 34.7618C35.1 35.1099 35.3386 35.5573 35.5772 35.8258C35.7387 35.9968 35.9151 36.1532 36.1042 36.2931H36.1639C36.0062 36.2101 35.8435 36.1371 35.6767 36.0744C35.363 35.9361 35.0102 35.9149 34.6823 36.0147C34.5392 36.0508 34.4149 36.1396 34.3343 36.2633C34.2523 36.4009 34.2174 36.5615 34.2349 36.7207C34.2504 36.8639 34.3106 36.9986 34.407 37.1057C34.5034 37.2128 34.631 37.2868 34.7718 37.3173C35.1031 37.3995 35.4522 37.3716 35.7662 37.2377C35.8691 37.1993 35.9689 37.1527 36.0645 37.0985C35.9411 37.2104 35.8248 37.33 35.7164 37.4565C35.5962 37.5903 35.4865 37.7333 35.3883 37.884C35.2858 38.0254 35.2334 38.1968 35.2392 38.3713C35.2572 38.5424 35.3253 38.7045 35.435 38.8371C35.5446 38.9697 35.6909 39.0671 35.8557 39.117C36.0104 39.1842 36.1809 39.2067 36.3478 39.1821C36.5147 39.1576 36.6714 39.0868 36.8003 38.9778C36.9114 38.8403 36.9898 38.6793 37.0294 38.507C37.0691 38.3348 37.0689 38.1557 37.029 37.9835C37.012 37.7488 36.9754 37.516 36.9196 37.2874C36.9488 37.3524 36.982 37.4155 37.019 37.4764C37.111 37.6995 37.2462 37.9022 37.4168 38.0729C37.5875 38.2435 37.7902 38.3787 38.0133 38.4707C38.6994 38.6795 39.1469 37.6056 38.7094 37.1383C38.5378 36.9836 38.3388 36.8622 38.1227 36.7803C37.8433 36.6715 37.5474 36.611 37.2477 36.6014C37.5062 36.5616 37.7648 36.5119 38.0233 36.4522C38.4111 36.4224 38.8287 36.3528 38.9779 35.9948Z" fill="white"/>
<path d="M31.2912 33.5289C31.324 33.3723 31.3186 33.21 31.2753 33.056C31.232 32.9019 31.1522 32.7606 31.0426 32.6439C30.8953 32.4376 30.6748 32.2954 30.4261 32.2462C30.2918 32.2335 30.1565 32.2521 30.0306 32.3004C29.9046 32.3487 29.7916 32.4254 29.7002 32.5246C29.3968 32.9501 29.2084 33.4467 29.1534 33.9664C29.208 33.5572 29.208 33.1426 29.1534 32.7334C29.1356 32.5454 29.1023 32.3592 29.0539 32.1766C29.0335 32.0836 28.982 32.0004 28.9079 31.9408C28.8337 31.8811 28.7414 31.8485 28.6462 31.8485C28.4592 31.8458 28.2735 31.8796 28.0994 31.9479C27.9321 32.0211 27.7902 32.1422 27.6917 32.2959C27.453 32.6439 27.6917 33.0914 27.9403 33.3698C28.1032 33.5326 28.2758 33.6854 28.4573 33.8272H28.5269C28.3692 33.7442 28.2065 33.6712 28.0397 33.6084C27.7251 33.4744 27.3738 33.4533 27.0454 33.5488C26.9031 33.5924 26.778 33.6793 26.6874 33.7974C26.6114 33.9372 26.5769 34.0959 26.588 34.2548C26.6064 34.3996 26.6687 34.5352 26.7665 34.6437C26.8642 34.7521 26.9927 34.828 27.1349 34.8613C27.4734 34.9558 27.8338 34.9348 28.159 34.8016L28.4573 34.6624C28.3339 34.7743 28.2177 34.8939 28.1093 35.0204C27.9914 35.1561 27.8818 35.2989 27.7812 35.448C27.6758 35.5884 27.6199 35.7597 27.6221 35.9352C27.6409 36.1076 27.7104 36.2705 27.822 36.4033C27.9335 36.536 28.082 36.6327 28.2485 36.6809C28.4033 36.7481 28.5738 36.7707 28.7407 36.7461C28.9076 36.7215 29.0643 36.6507 29.1931 36.5417C29.306 36.4053 29.3847 36.2439 29.4228 36.071C29.4608 35.8981 29.4571 35.7186 29.4119 35.5474C29.3934 35.3135 29.3602 35.081 29.3125 34.8514L29.4019 35.0403C29.5904 35.4891 29.9474 35.8461 30.3963 36.0346C31.0824 36.2434 31.5398 35.1795 31.1022 34.7121C30.9321 34.5531 30.7329 34.4282 30.5156 34.3442C30.2362 34.2354 29.9403 34.1749 29.6406 34.1653C29.8991 34.1255 30.1576 34.0758 30.4162 34.0161C30.7244 33.9565 31.142 33.8869 31.2912 33.5289Z" fill="white"/>
<path d="M55.8216 32.0076C55.8554 31.7229 55.7855 31.4357 55.6248 31.1983C55.4642 30.961 55.2234 30.7894 54.9466 30.7149C54.8133 30.7058 54.6796 30.727 54.5556 30.777C54.4316 30.8269 54.3205 30.9043 54.2307 31.0033C53.9332 31.4273 53.7484 31.92 53.6938 32.4351C53.7435 32.0256 53.7435 31.6116 53.6938 31.2022C53.6712 31.0148 53.638 30.8289 53.5943 30.6453C53.57 30.5534 53.5158 30.4722 53.4401 30.4146C53.3645 30.357 53.2718 30.3262 53.1767 30.3271C52.9893 30.3196 52.8026 30.3535 52.6298 30.4266C52.4645 30.4939 52.3252 30.6124 52.2321 30.7647C52.1521 30.9416 52.1311 31.1396 52.1723 31.3294C52.2134 31.5193 52.3146 31.6908 52.4608 31.8186C52.6223 31.9897 52.7987 32.1461 52.9878 32.286H53.0475C52.8943 32.2008 52.7347 32.1277 52.5702 32.0672C52.256 31.933 51.9057 31.9085 51.5758 31.9976C51.4335 32.0412 51.3106 32.1325 51.2278 32.2561C51.1507 32.3956 51.1161 32.5546 51.1284 32.7135C51.1439 32.8568 51.2041 32.9915 51.3005 33.0986C51.3969 33.2056 51.5245 33.2797 51.6653 33.3101C51.9966 33.3923 52.3457 33.3644 52.6597 33.2306C52.7626 33.1922 52.8624 33.1456 52.958 33.0914C52.8346 33.2033 52.7183 33.3229 52.61 33.4493C52.4897 33.5832 52.38 33.7261 52.2818 33.8769C52.1794 34.0182 52.1269 34.1897 52.1327 34.3641C52.1507 34.5353 52.2188 34.6973 52.3285 34.83C52.4381 34.9626 52.5845 35.06 52.7492 35.1099C52.9101 35.1874 53.0905 35.2156 53.2674 35.1908C53.4444 35.1661 53.61 35.0895 53.7435 34.9707C53.8567 34.8343 53.9363 34.6734 53.976 34.5007C54.0158 34.328 54.0144 34.1484 53.9722 33.9763C53.9544 33.7424 53.9212 33.5099 53.8728 33.2803C53.8945 33.3437 53.9246 33.4039 53.9622 33.4593C54.1498 33.9087 54.5071 34.266 54.9566 34.4536C55.6427 34.6525 56.1001 33.5886 55.6526 33.1212C55.4835 32.9632 55.2838 32.8414 55.066 32.7633C54.7879 32.6497 54.4912 32.589 54.1909 32.5843L54.9665 32.4351C55.2549 32.4351 55.6824 32.3655 55.8216 32.0076Z" fill="white"/>
<path d="M89.2405 27.712C89.2494 27.6934 89.2539 27.673 89.2539 27.6524C89.2539 27.6317 89.2494 27.6114 89.2405 27.5927C88.9422 27.0359 87.8683 26.9265 87.3314 26.8171C86.4564 26.6481 85.5615 26.5387 84.6765 26.4194L84.249 26.3597C84.1893 26.3597 84.0799 26.31 84.0899 26.3597C83.9779 26.1648 83.8879 25.958 83.8214 25.7432C83.4634 24.8881 83.1055 24.033 82.7276 23.1779C82.5387 22.7404 82.3498 22.3128 82.141 21.8852C82.0217 21.6267 81.8725 21.1295 81.5842 21.0003C80.9378 20.7219 80.4804 22.3227 80.3114 22.7006C79.8938 23.6253 79.5159 24.56 79.1083 25.4847C79.0287 25.6836 78.8895 26.2404 78.7105 26.3697C78.4311 26.4134 78.148 26.4301 77.8653 26.4194L76.692 26.5188C76.0199 26.5558 75.3535 26.6624 74.7034 26.837C74.3156 26.9464 73.6195 27.1353 73.709 27.6822C73.7985 28.2291 74.4349 28.5473 74.7034 28.7859C75.2293 29.2045 75.7879 29.5802 76.3738 29.9095C76.6324 30.0686 76.9704 30.178 77.2091 30.357C77.4477 30.5359 77.3781 30.8442 77.2886 31.1624C77.1097 31.8385 76.9307 32.5147 76.7616 33.151C76.5926 33.7874 76.5031 34.2547 76.4136 34.8215C76.3091 35.2022 76.3091 35.6041 76.4136 35.9849C76.8213 36.8499 78.4023 35.3386 78.7503 35.0502C79.0983 34.7618 79.685 34.3044 80.1424 33.9167L80.7986 33.3399C80.9179 33.2306 81.2262 32.803 81.3853 32.7732C81.5444 32.7433 82.32 33.5587 82.5288 33.7675C82.9961 34.1752 83.5231 34.553 83.9606 34.9408C84.5874 35.5694 85.3752 36.0132 86.2376 36.2235C87.0033 36.2931 86.6354 35.1297 86.5359 34.6724C86.2973 33.5786 85.9393 32.5147 85.6112 31.4408C85.5416 31.2121 85.4521 30.9734 85.4024 30.7447C85.3527 30.516 85.4024 30.5061 85.5814 30.3669C85.999 30.1183 86.516 29.9592 86.9635 29.7305C87.6695 29.3726 89.1013 28.7362 89.3002 27.8313C89.2994 27.8083 89.2937 27.7857 89.2834 27.7651C89.2731 27.7445 89.2585 27.7264 89.2405 27.712Z" fill="#F7B9E7"/>
<path d="M26.0911 73.1729C24.878 73.0734 23.655 73.0834 22.432 73.0933L23.4263 72.099C24.0092 71.6021 24.5122 71.0186 24.9178 70.3689C24.9562 70.3048 24.9722 70.2298 24.9634 70.1556C24.9546 70.0814 24.9215 70.0122 24.8693 69.9589C24.817 69.9055 24.7486 69.8709 24.6746 69.8605C24.6007 69.8502 24.5253 69.8646 24.4604 69.9015C23.799 70.2992 23.2022 70.7954 22.6905 71.3731L21.6365 72.3675V70.8859C21.6958 70.1194 21.6388 69.3484 21.4675 68.599C21.437 68.5478 21.3936 68.5056 21.3416 68.4766C21.2896 68.4476 21.2308 68.4329 21.1713 68.4339C21.1117 68.4349 21.0535 68.4516 21.0025 68.4823C20.9515 68.5131 20.9095 68.5567 20.8808 68.6089C20.6932 69.3559 20.6194 70.1269 20.6621 70.8959C20.6621 71.3831 20.6621 71.8902 20.6621 72.3774L19.6677 71.3135C19.1672 70.7304 18.5804 70.2274 17.9277 69.822C17.8637 69.7879 17.7905 69.7752 17.7188 69.7859C17.6471 69.7966 17.5808 69.83 17.5295 69.8812C17.4783 69.9325 17.4448 69.9988 17.4342 70.0705C17.4235 70.1422 17.4362 70.2154 17.4703 70.2794C17.853 70.9342 18.3323 71.5276 18.8922 72.0393L19.8865 73.0933H18.395C17.6285 73.0349 16.8576 73.0918 16.108 73.2624C16.0402 73.2864 15.9814 73.3308 15.9399 73.3896C15.8983 73.4483 15.876 73.5185 15.876 73.5905C15.876 73.6625 15.8983 73.7327 15.9399 73.7914C15.9814 73.8502 16.0402 73.8946 16.108 73.9186C16.8564 74.0977 17.6266 74.168 18.395 74.1274H19.8467C18.9406 74.9507 18.0777 75.8202 17.2615 76.7326C17.2151 76.7789 17.1783 76.834 17.1532 76.8945C17.1282 76.9551 17.1152 77.02 17.1152 77.0856C17.1152 77.1511 17.1282 77.2161 17.1532 77.2766C17.1783 77.3372 17.2151 77.3922 17.2615 77.4386C17.3078 77.4849 17.3628 77.5217 17.4234 77.5468C17.484 77.5719 17.5489 77.5848 17.6144 77.5848C17.68 77.5848 17.7449 77.5719 17.8055 77.5468C17.8661 77.5217 17.9211 77.4849 17.9674 77.4386C18.8922 76.663 19.7373 75.7979 20.5825 74.9329C20.5825 76.1459 20.5129 77.369 20.5825 78.5622C20.6056 78.677 20.6678 78.7803 20.7584 78.8546C20.849 78.9288 20.9625 78.9693 21.0797 78.9693C21.1968 78.9693 21.3104 78.9288 21.401 78.8546C21.4916 78.7803 21.5538 78.677 21.5769 78.5622C21.6763 77.369 21.6664 76.1559 21.6564 74.9428C22.4745 75.8599 23.3408 76.7328 24.2516 77.5579C24.3452 77.6515 24.4722 77.7041 24.6046 77.7041C24.737 77.7041 24.864 77.6515 24.9576 77.5579C25.0512 77.4643 25.1038 77.3373 25.1038 77.2049C25.1038 77.0725 25.0512 76.9455 24.9576 76.8519C24.1687 75.937 23.3323 75.0641 22.4519 74.2368C23.665 74.2368 24.888 74.3064 26.0911 74.2368C26.161 74.2368 26.2302 74.2231 26.2947 74.1963C26.3592 74.1696 26.4179 74.1304 26.4673 74.081C26.5167 74.0316 26.5559 73.973 26.5826 73.9084C26.6093 73.8439 26.6231 73.7747 26.6231 73.7049C26.6231 73.635 26.6093 73.5658 26.5826 73.5013C26.5559 73.4367 26.5167 73.3781 26.4673 73.3287C26.4179 73.2793 26.3592 73.2401 26.2947 73.2134C26.2302 73.1866 26.161 73.1729 26.0911 73.1729Z" fill="white"/>
<path d="M37.0688 9.55555C37.3473 9.52926 37.6059 9.40005 37.7942 9.19317C37.9825 8.9863 38.0868 8.71664 38.0868 8.43692C38.0868 8.1572 37.9825 7.88754 37.7942 7.68067C37.6059 7.47379 37.3473 7.34458 37.0688 7.3183C36.7903 7.34458 36.5317 7.47379 36.3434 7.68067C36.1551 7.88754 36.0508 8.1572 36.0508 8.43692C36.0508 8.71664 36.1551 8.9863 36.3434 9.19317C36.5317 9.40005 36.7903 9.52926 37.0688 9.55555Z" fill="white"/>
<path d="M50.8097 12.7473L51.0185 12.6479C51.1501 12.5669 51.2588 12.4535 51.3342 12.3186C51.4095 12.1837 51.4491 12.0318 51.4491 11.8773C51.4491 11.7227 51.4095 11.5708 51.3342 11.4359C51.2588 11.301 51.1501 11.1876 51.0185 11.1067L50.8097 11.0072C50.6583 10.9235 50.4877 10.8807 50.3147 10.883C50.1417 10.8854 49.9724 10.9329 49.8233 11.0207C49.6743 11.1086 49.5508 11.2338 49.4649 11.384C49.3791 11.5343 49.334 11.7043 49.334 11.8773C49.334 12.0503 49.3791 12.2203 49.4649 12.3705C49.5508 12.5207 49.6743 12.6459 49.8233 12.7338C49.9724 12.8217 50.1417 12.8691 50.3147 12.8715C50.4877 12.8739 50.6583 12.8311 50.8097 12.7473Z" fill="white"/>
<path d="M68.0116 12.3496L68.1309 12.5385C68.2531 12.7076 68.4177 12.8414 68.6082 12.9263C68.7908 13.024 68.9994 13.0623 69.2048 13.0357C69.4079 13.0202 69.5986 12.932 69.7418 12.7871C69.8513 12.6673 69.9328 12.5247 69.9804 12.3695C70.0439 12.1249 70.0119 11.8654 69.8909 11.6436C69.8036 11.4487 69.6621 11.2831 69.4832 11.1663L69.2943 11.047C69.1155 10.9395 68.9059 10.8949 68.6989 10.9203C68.4918 10.9457 68.2992 11.0396 68.1517 11.1871C68.0042 11.3346 67.9103 11.5272 67.8849 11.7343C67.8595 11.9413 67.9041 12.1509 68.0116 12.3297V12.3496Z" fill="white"/>
<path d="M83.1953 47.5987L83.4041 47.5092C83.5798 47.4103 83.7252 47.2655 83.825 47.0904C83.9249 46.9153 83.9753 46.7164 83.9709 46.5149C83.9764 46.3132 83.9264 46.1138 83.8265 45.9385C83.7266 45.7632 83.5805 45.6186 83.4041 45.5205L83.1953 45.4211C83.0054 45.3099 82.7891 45.2515 82.5689 45.2521C82.3491 45.2538 82.1334 45.312 81.9425 45.4211C81.758 45.5333 81.6054 45.691 81.4992 45.879C81.393 46.067 81.3368 46.2791 81.3359 46.495C81.3375 46.7094 81.3941 46.9198 81.5003 47.1061C81.6065 47.2924 81.7588 47.4483 81.9425 47.5589C82.1199 47.6656 82.3222 47.7239 82.5291 47.728C82.7499 47.7333 82.9675 47.6746 83.1556 47.5589L83.1953 47.5987Z" fill="white"/>
<path d="M89.4898 66.9881C89.776 66.9615 90.0418 66.829 90.2354 66.6165C90.429 66.4041 90.5363 66.1271 90.5363 65.8397C90.5363 65.5523 90.429 65.2753 90.2354 65.0628C90.0418 64.8504 89.776 64.7179 89.4898 64.6912C89.2037 64.7179 88.9378 64.8504 88.7442 65.0628C88.5507 65.2753 88.4434 65.5523 88.4434 65.8397C88.4434 66.1271 88.5507 66.4041 88.7442 66.6165C88.9378 66.829 89.2037 66.9615 89.4898 66.9881Z" fill="white"/>
<path d="M78.711 82.3705C79.0246 82.3697 79.325 82.2446 79.5463 82.0225C79.7014 81.8557 79.805 81.6478 79.8449 81.4236C79.8847 81.1994 79.8589 80.9684 79.7708 80.7585C79.6826 80.5485 79.5357 80.3685 79.3477 80.2399C79.1597 80.1114 78.9387 80.0398 78.711 80.0338C78.4083 80.0437 78.1207 80.1685 77.9065 80.3827C77.6923 80.5968 77.5676 80.8845 77.5576 81.1872C77.5627 81.4995 77.689 81.7975 77.9098 82.0183C78.1307 82.2391 78.4287 82.3654 78.7409 82.3705H78.711Z" fill="white"/>
<path d="M49.3586 94.2627C49.4973 94.1191 49.6176 93.9588 49.7166 93.7854C49.8655 93.5488 49.9296 93.2687 49.8984 92.991C49.8673 92.7132 49.7426 92.4543 49.545 92.2566C49.3473 92.059 49.0884 91.9344 48.8107 91.9032C48.5329 91.872 48.2528 91.9362 48.0162 92.0851C47.8429 92.184 47.6825 92.3043 47.539 92.443C47.4195 92.5625 47.3247 92.7044 47.2601 92.8605C47.1954 93.0166 47.1621 93.1839 47.1621 93.3528C47.1621 93.5218 47.1954 93.6891 47.2601 93.8452C47.3247 94.0013 47.4195 94.1432 47.539 94.2627C47.6584 94.3821 47.8003 94.4769 47.9564 94.5416C48.1125 94.6062 48.2798 94.6395 48.4488 94.6395C48.6177 94.6395 48.7851 94.6062 48.9412 94.5416C49.0973 94.4769 49.2391 94.3821 49.3586 94.2627Z" fill="white"/>
<path d="M29.661 83.5239C29.8675 83.5306 30.0724 83.4861 30.2575 83.3945C30.4426 83.3028 30.6022 83.1668 30.7221 82.9986C30.8419 82.8303 30.9183 82.6351 30.9444 82.4302C30.9705 82.2253 30.9456 82.0171 30.8718 81.8241C30.798 81.6312 30.6776 81.4595 30.5214 81.3243C30.3652 81.1892 30.178 81.0947 29.9765 81.0494C29.775 81.0041 29.5654 81.0093 29.3663 81.0646C29.1673 81.1198 28.985 81.2235 28.8357 81.3662C28.6031 81.5983 28.471 81.9126 28.4678 82.2412C28.4647 82.5672 28.5866 82.8819 28.8086 83.1205C29.0306 83.3592 29.3357 83.5036 29.661 83.5239Z" fill="white"/>
<path d="M9.80338 63.3588L10.1415 63.4085L10.4397 63.5279C10.2458 63.4175 10.0265 63.3593 9.80338 63.3588C9.57627 63.3628 9.35389 63.4244 9.15706 63.5378C8.98953 63.6397 8.84737 63.7784 8.74135 63.9433C8.63533 64.1083 8.56824 64.2952 8.54513 64.4899C8.52203 64.6846 8.54354 64.8821 8.60801 65.0673C8.67249 65.2524 8.77826 65.4205 8.9173 65.5588C9.05634 65.6971 9.22502 65.8019 9.41056 65.8653C9.5961 65.9288 9.79365 65.9492 9.98824 65.925C10.1828 65.9008 10.3694 65.8326 10.5337 65.7257C10.6981 65.6187 10.836 65.4758 10.9369 65.3077C11.0595 65.11 11.1268 64.883 11.1319 64.6504C11.1371 64.4179 11.0799 64.1881 10.9662 63.9852C10.8525 63.7822 10.6866 63.6134 10.4856 63.4962C10.2846 63.3791 10.0559 63.3179 9.82326 63.319L9.80338 63.3588Z" fill="white"/>
<path d="M19.6074 49.816C19.8987 49.7892 20.1694 49.6544 20.3665 49.4383C20.5636 49.2222 20.6728 48.9402 20.6728 48.6477C20.6728 48.3552 20.5636 48.0733 20.3665 47.8571C20.1694 47.641 19.8987 47.5063 19.6074 47.4794C19.3161 47.5063 19.0454 47.641 18.8483 47.8571C18.6512 48.0733 18.542 48.3552 18.542 48.6477C18.542 48.9402 18.6512 49.2222 18.8483 49.4383C19.0454 49.6544 19.3161 49.7892 19.6074 49.816Z" fill="white"/>
<path d="M8.94869 34.3939C9.16691 34.3384 9.36611 34.225 9.52534 34.0658C9.68458 33.9065 9.79795 33.7073 9.85353 33.4891C9.91101 33.2712 9.91099 33.0422 9.85347 32.8243C9.79596 32.6065 9.68292 32.4073 9.5254 32.2462C9.36658 32.0852 9.16746 31.9699 8.94882 31.9121C8.73019 31.8544 8.50006 31.8565 8.28249 31.9181C8.06713 31.979 7.87163 32.0956 7.71572 32.2561C7.55198 32.4095 7.43481 32.6059 7.37764 32.8229C7.31813 33.0444 7.31813 33.2776 7.37764 33.499C7.4389 33.7091 7.55169 33.9005 7.70577 34.0559C7.86006 34.2113 8.05185 34.3244 8.2626 34.384C8.48405 34.4435 8.71729 34.4435 8.93875 34.384L8.94869 34.3939Z" fill="white"/>
<path d="M26.6076 23.2077H26.7568C27.0205 23.2077 27.2734 23.103 27.4599 22.9165C27.6463 22.73 27.7511 22.4771 27.7511 22.2134C27.7511 21.9497 27.6463 21.6968 27.4599 21.5103C27.2734 21.3238 27.0205 21.2191 26.7568 21.2191H26.6076C26.3439 21.2191 26.091 21.3238 25.9045 21.5103C25.718 21.6968 25.6133 21.9497 25.6133 22.2134C25.6133 22.4771 25.718 22.73 25.9045 22.9165C26.091 23.103 26.3439 23.2077 26.6076 23.2077Z" fill="white"/>
<path d="M10.3502 49.2592C10.7029 49.2295 11.0317 49.0684 11.2712 48.8079C11.5108 48.5473 11.6438 48.2062 11.6438 47.8522C11.6438 47.4983 11.5108 47.1572 11.2712 46.8966C11.0317 46.636 10.7029 46.4749 10.3502 46.4453C9.99748 46.4749 9.66876 46.636 9.42918 46.8966C9.1896 47.1572 9.05664 47.4983 9.05664 47.8522C9.05664 48.2062 9.1896 48.5473 9.42918 48.8079C9.66876 49.0684 9.99748 49.2295 10.3502 49.2592Z" fill="#FFF896"/>
<path d="M79.1382 61.6486C79.5092 61.6528 79.8667 61.5098 80.1325 61.2509C80.2616 61.1199 80.3633 60.9645 80.4316 60.7938C80.4999 60.623 80.5334 60.4404 80.5302 60.2565C80.5357 60.0724 80.5032 59.889 80.4348 59.718C80.3664 59.5469 80.2635 59.3918 80.1325 59.2622C80.0058 59.1248 79.8521 59.0151 79.681 58.9401C79.5098 58.8651 79.325 58.8264 79.1382 58.8264C78.9513 58.8264 78.7665 58.8651 78.5953 58.9401C78.4242 59.0151 78.2705 59.1248 78.1438 59.2622C78.0103 59.3911 77.9041 59.5456 77.8316 59.7164C77.7591 59.8872 77.7217 60.0709 77.7217 60.2565C77.7217 60.4421 77.7591 60.6258 77.8316 60.7966C77.9041 60.9675 78.0103 61.1219 78.1438 61.2509C78.413 61.5045 78.7683 61.6466 79.1382 61.6486Z" fill="#FFF896"/>
<path d="M93.0493 35.1994C93.2345 35.2048 93.4189 35.1726 93.5913 35.1048C93.7638 35.037 93.9207 34.935 94.0526 34.8049C94.1846 34.6748 94.2888 34.5194 94.359 34.3479C94.4293 34.1765 94.464 33.9926 94.4613 33.8073C94.4607 33.4353 94.3143 33.0783 94.0536 32.813C93.7967 32.5592 93.4502 32.4168 93.0891 32.4168C92.728 32.4168 92.3814 32.5592 92.1246 32.813C91.8639 33.0783 91.7175 33.4353 91.7169 33.8073C91.7145 33.9919 91.7493 34.1752 91.8194 34.346C91.8894 34.5169 91.9932 34.6719 92.1246 34.8016C92.3904 35.0606 92.7479 35.2036 93.1189 35.1994H93.0493Z" fill="#FFF896"/>
<path d="M56.9154 8.07399C57.2398 8.07399 57.5509 7.94513 57.7802 7.71577C58.0096 7.48641 58.1384 7.17533 58.1384 6.85096C58.1384 6.52659 58.0096 6.21551 57.7802 5.98615C57.5509 5.75678 57.2398 5.62793 56.9154 5.62793C56.591 5.62793 56.28 5.75678 56.0506 5.98615C55.8212 6.21551 55.6924 6.52659 55.6924 6.85096C55.6924 7.17533 55.8212 7.48641 56.0506 7.71577C56.28 7.94513 56.591 8.07399 56.9154 8.07399Z" fill="#FFF896"/>
<path d="M63.4278 93.1789C63.7745 93.1739 64.1059 93.0349 64.3525 92.7911C64.4758 92.6707 64.5737 92.5269 64.6406 92.368C64.7075 92.2092 64.7419 92.0387 64.7419 91.8664C64.7419 91.694 64.7075 91.5235 64.6406 91.3647C64.5737 91.2059 64.4758 91.062 64.3525 90.9416C64.1059 90.6978 63.7745 90.5588 63.4278 90.5538C63.0782 90.5593 62.7439 90.698 62.4931 90.9416C62.252 91.1892 62.1165 91.5208 62.1152 91.8664C62.1144 92.2123 62.2502 92.5447 62.4931 92.7911C62.7439 93.0347 63.0782 93.1734 63.4278 93.1789Z" fill="#FFF896"/>
<path d="M34.1644 92.0453C34.5178 92.0453 34.8567 91.9049 35.1066 91.655C35.3565 91.4052 35.4968 91.0663 35.4968 90.7129C35.4968 90.3595 35.3565 90.0206 35.1066 89.7707C34.8567 89.5209 34.5178 89.3805 34.1644 89.3805C33.8111 89.3805 33.4722 89.5209 33.2223 89.7707C32.9724 90.0206 32.832 90.3595 32.832 90.7129C32.832 91.0663 32.9724 91.4052 33.2223 91.655C33.4722 91.9049 33.8111 92.0453 34.1644 92.0453Z" fill="#FFF896"/>
</g>
<defs>
<clipPath id="clip0_1972_5026">
<rect width="100" height="100" fill="white"/>
</clipPath>
</defs>
</svg>
