<svg width="150" height="150" viewBox="0 0 150 150" fill="none" xmlns="http://www.w3.org/2000/svg">
<path d="M68.75 39.584C68.75 37.9264 69.4085 36.3367 70.5806 35.1646C71.7527 33.9925 73.3424 33.334 75 33.334C76.6576 33.334 78.2473 33.9925 79.4194 35.1646C80.5915 36.3367 81.25 37.9264 81.25 39.584V89.584C81.25 91.2416 80.5915 92.8313 79.4194 94.0034C78.2473 95.1755 76.6576 95.834 75 95.834C73.3424 95.834 71.7527 95.1755 70.5806 94.0034C69.4085 92.8313 68.75 91.2416 68.75 89.584V39.584ZM68.75 110.417C68.75 108.76 69.4085 107.17 70.5806 105.998C71.7527 104.826 73.3424 104.167 75 104.167C76.6576 104.167 78.2473 104.826 79.4194 105.998C80.5915 107.17 81.25 108.76 81.25 110.417C81.25 112.075 80.5915 113.665 79.4194 114.837C78.2473 116.009 76.6576 116.667 75 116.667C73.3424 116.667 71.7527 116.009 70.5806 114.837C69.4085 113.665 68.75 112.075 68.75 110.417Z" fill="#E46125"/>
<rect x="5" y="5" width="140" height="140" rx="70" stroke="url(#paint0_linear_1761_2842)" stroke-width="10"/>
<defs>
<linearGradient id="paint0_linear_1761_2842" x1="-0.0116761" y1="74.9731" x2="150" y2="74.9731" gradientUnits="userSpaceOnUse">
<stop stop-color="#E46125"/>
<stop offset="1" stop-color="#A12FA3"/>
</linearGradient>
</defs>
</svg>
