<svg width="32" height="32" viewBox="0 0 32 32" fill="none" xmlns="http://www.w3.org/2000/svg">
<path d="M15.9993 8.00008V29.3334M15.9993 8.00008H11.2851C10.5904 8.00008 9.92428 7.71913 9.43312 7.21903C8.94195 6.71894 8.66602 6.04066 8.66602 5.33341C8.66602 4.62617 8.94195 3.94789 9.43312 3.4478C9.92428 2.9477 10.5904 2.66675 11.2851 2.66675C14.9517 2.66675 15.9993 8.00008 15.9993 8.00008ZM15.9993 8.00008H20.7136C21.4082 8.00008 22.0744 7.71913 22.5656 7.21903C23.0567 6.71894 23.3327 6.04066 23.3327 5.33341C23.3327 4.62617 23.0567 3.94789 22.5656 3.4478C22.0744 2.9477 21.4082 2.66675 20.7136 2.66675C17.047 2.66675 15.9993 8.00008 15.9993 8.00008ZM26.666 14.6667V25.0667C26.666 26.5602 26.666 27.307 26.3754 27.8774C26.1197 28.3792 25.7118 28.7871 25.21 29.0428C24.6396 29.3334 23.8928 29.3334 22.3993 29.3334L9.59935 29.3334C8.10588 29.3334 7.35914 29.3334 6.78871 29.0428C6.28694 28.7871 5.87899 28.3792 5.62333 27.8774C5.33268 27.307 5.33268 26.5602 5.33268 25.0667V14.6667M2.66602 10.1334L2.66602 12.5334C2.66602 13.2802 2.66602 13.6535 2.81134 13.9387C2.93917 14.1896 3.14315 14.3936 3.39403 14.5214C3.67924 14.6667 4.05261 14.6667 4.79935 14.6667L27.1994 14.6667C27.9461 14.6667 28.3195 14.6667 28.6047 14.5214C28.8556 14.3936 29.0595 14.1896 29.1874 13.9387C29.3327 13.6535 29.3327 13.2802 29.3327 12.5334V10.1334C29.3327 9.38668 29.3327 9.01331 29.1874 8.72809C29.0595 8.47721 28.8556 8.27324 28.6047 8.14541C28.3195 8.00008 27.9461 8.00008 27.1993 8.00008L4.79935 8.00008C4.05261 8.00008 3.67924 8.00008 3.39403 8.14541C3.14315 8.27324 2.93917 8.47721 2.81134 8.72809C2.66602 9.01331 2.66602 9.38668 2.66602 10.1334Z" stroke="#FF9565" stroke-width="2" stroke-linecap="round" stroke-linejoin="round"/>
</svg>
