<svg width="18" height="18" viewBox="0 0 18 18" fill="none" xmlns="http://www.w3.org/2000/svg">
<path d="M7.26767 4.40674H6.79395V5.41169H7.26767V4.40674Z" fill="#7A442C"/>
<path d="M11.6847 4.40674H11.2109V5.41169H11.6847V4.40674Z" fill="#7A442C"/>
<path d="M15.6748 16.5017H2.32191C1.84685 16.5017 1.74559 15.9253 1.74559 15.9253C1.19302 11.9636 1.74559 6.10536 1.74559 6.10536C1.74559 5.62155 2.13814 5.229 2.62195 5.229H15.3723C15.8561 5.229 16.2487 5.62155 16.2487 6.10536C16.2487 6.10536 16.8137 12.8687 16.2487 15.9253C16.2512 15.9253 16.0761 16.5017 15.6748 16.5017Z" fill="#7A442C"/>
<path d="M15.6748 16.5017H2.32191C1.84685 16.5017 1.74559 15.9253 1.74559 15.9253C1.19302 11.9636 1.74559 6.10536 1.74559 6.10536C1.74559 5.62155 2.13814 5.229 2.62195 5.229H15.3723C15.8561 5.229 16.2487 5.62155 16.2487 6.10536C16.2487 6.10536 16.8137 12.8687 16.2487 15.9253C16.2512 15.9253 16.0761 16.5017 15.6748 16.5017Z" fill="#7A442C"/>
<path d="M16.1294 6.87446C16.0656 6.4144 16.1781 5.85433 15.7881 5.51803C15.6368 5.38302 15.438 5.30176 15.2205 5.30176H2.77644C1.90383 5.32426 1.89258 6.18437 1.86133 6.87446H1.90133C1.91008 9.5748 2.30138 11.175 9.01347 11.175C16.1106 11.175 16.1269 9.75357 16.1269 6.87446H16.1294Z" fill="#7A442C"/>
<path d="M2.623 5.229C1.59163 5.3015 1.93917 6.27645 1.90416 6.74017C1.90416 6.74017 2.11794 6.14521 2.5905 6.14521C3.06306 6.14521 15.0021 6.14521 15.4784 6.14521C15.9547 6.14521 16.1184 6.74017 16.1184 6.74017C16.0859 6.27895 16.4472 5.334 15.3733 5.229H2.623Z" fill="#A65F3E"/>
<path d="M16.2433 5.98663C16.2408 5.96413 16.237 5.94288 16.232 5.92039C16.2308 5.91164 16.227 5.90289 16.2258 5.89414C16.2208 5.87289 16.2145 5.85164 16.2083 5.83164C16.2058 5.82414 16.2033 5.81664 16.2008 5.80914C16.1933 5.78789 16.1845 5.76664 16.1758 5.74539C16.1733 5.73914 16.1708 5.73415 16.167 5.72915C16.157 5.70665 16.1458 5.6854 16.1333 5.66415C16.1308 5.6604 16.1283 5.65665 16.1258 5.6529C16.112 5.6304 16.0983 5.60915 16.082 5.5879C16.0808 5.5854 16.0783 5.5829 16.077 5.58165C16.0595 5.55915 16.042 5.53791 16.0233 5.51666C16.022 5.51541 16.022 5.51541 16.0208 5.51416C16.0008 5.49291 15.9795 5.47166 15.957 5.45166C16.012 5.7354 16.047 5.99413 16.047 6.15662V6.73409V6.82159C16.047 6.82909 16.047 6.83534 16.047 6.84159H16.3045C16.3045 6.83159 16.3045 6.82159 16.3045 6.81159C16.3033 6.79284 16.302 6.77534 16.3008 6.75659C16.2983 6.72409 16.2958 6.69035 16.2933 6.6591C16.292 6.6416 16.2908 6.6266 16.2895 6.6091C16.287 6.5791 16.2858 6.5491 16.2833 6.5216C16.282 6.50286 16.2808 6.48536 16.2795 6.46786C16.2783 6.44286 16.2758 6.41786 16.2745 6.39536C16.2733 6.38411 16.2733 6.37536 16.272 6.36536C16.2708 6.34161 16.2683 6.31662 16.267 6.29537C16.2658 6.27537 16.2645 6.25912 16.2633 6.24162C16.262 6.23287 16.262 6.22287 16.2608 6.21412C16.2583 6.17787 16.2558 6.15287 16.2545 6.13537C16.2533 6.11788 16.252 6.10538 16.252 6.10538C16.252 6.07413 16.2508 6.04288 16.247 6.01163C16.2458 6.00413 16.2445 5.99538 16.2433 5.98663Z" fill="#A06841"/>
<path d="M1.74004 6.17793C1.73879 6.19168 1.73754 6.20668 1.73629 6.22418C1.73504 6.23418 1.73379 6.24668 1.73379 6.25917C1.73254 6.27542 1.73129 6.29292 1.72879 6.31167C1.72879 6.31667 1.72754 6.32167 1.72754 6.32667V6.73415C1.72754 6.7704 1.72754 6.8054 1.72754 6.84164H1.98503C1.98503 6.8054 1.98503 6.7704 1.98503 6.73415V6.15668C1.98503 5.98919 2.02377 5.7142 2.08252 5.41797C2.00627 5.47797 1.94128 5.54921 1.88878 5.63046C1.88628 5.63421 1.88503 5.63671 1.88253 5.64046C1.86878 5.66296 1.85503 5.68545 1.84253 5.7092C1.83878 5.7167 1.83503 5.7242 1.83253 5.73045C1.82253 5.75045 1.81378 5.7717 1.80628 5.79295C1.80254 5.8017 1.79879 5.8117 1.79629 5.82045C1.78879 5.84045 1.78379 5.8617 1.77754 5.88169C1.77504 5.89169 1.77129 5.90169 1.77004 5.91294C1.76504 5.93419 1.76129 5.95669 1.75879 5.97919C1.75754 5.98919 1.75504 5.99919 1.75379 6.00794C1.75004 6.04044 1.74754 6.07168 1.74754 6.10543C1.74754 6.10543 1.74629 6.12418 1.74254 6.15918C1.74129 6.16418 1.74129 6.17168 1.74004 6.17793Z" fill="#A06841"/>
<path d="M16.1541 7.53955C16.1528 8.85823 15.9628 9.50945 15.1814 10.1407C14.2876 10.8631 12.3698 11.1856 8.96567 11.1856C5.76027 11.1856 3.82378 10.8244 2.87116 10.0482C2.05981 9.3882 1.88729 8.71824 1.87603 7.53955H1.72852C1.75352 10.2144 2.26358 11.7943 9.01568 11.7943C16.1628 11.7943 16.3016 10.3882 16.3041 7.53955H16.1541Z" fill="#3E2723"/>
<path d="M16.2904 6.81064C16.2592 6.36809 16.2379 6.10556 16.2379 6.10556C16.2379 5.84427 16.1229 5.61174 15.9429 5.45047C15.9979 5.73426 16.0329 5.99304 16.0329 6.15556V6.73313V6.82065C16.0329 8.25208 16.0329 9.2872 15.2178 9.94604C14.3239 10.6686 12.4062 10.9912 9.002 10.9912C5.7966 10.9912 3.86011 10.6299 2.90749 9.85353C2.03988 9.14719 1.97113 8.06955 1.97113 6.73438V6.15681C1.97113 5.98929 2.00988 5.71426 2.06864 5.41797C1.86486 5.57799 1.7336 5.82677 1.7336 6.10681C1.7336 6.10681 1.7261 6.18432 1.71484 6.32683V6.73438C1.71484 9.56599 2.03613 11.2487 9.00325 11.2487C16.2992 11.2487 16.2917 9.78227 16.2904 6.81064Z" fill="#A06841"/>
<path d="M1.59668 14.4893C1.62793 14.8255 1.70294 15.6092 1.7467 15.9254C1.7467 15.9254 1.84671 16.5017 2.32302 16.5017H15.6759C16.0772 16.5017 16.2523 15.9254 16.2523 15.9254C16.3073 15.6292 16.3835 14.898 16.4235 14.5068C16.4235 14.5068 16.2048 14.8217 15.1196 15.0667C14.0357 15.3105 11.883 15.133 9.63519 15.1305C6.64481 15.1267 3.50442 15.223 2.66431 15.0105C1.95297 14.8317 1.59668 14.4893 1.59668 14.4893Z" fill="#603C24"/>
<path d="M9.28196 4.23528C9.79078 4.23903 10.2733 4.32653 10.6571 4.45402C10.7922 4.49902 11.3497 4.84775 11.5472 4.8065C11.6523 4.7815 11.8798 4.69401 11.826 4.40652C11.766 4.08404 11.2972 4.05029 10.9372 3.9178C10.4284 3.73156 9.84203 3.66406 9.28196 3.66406C8.74314 3.66406 8.18432 3.72656 7.69051 3.89405C7.32297 4.01904 6.62413 4.19778 6.69664 4.53527C6.7654 4.859 7.13794 4.829 7.22921 4.784C7.49424 4.65401 7.70552 4.54402 8.0018 4.43652C8.3831 4.29778 8.84941 4.23278 9.28196 4.23528Z" fill="#7A442C"/>
<path d="M9.26667 3.7977C10.4068 3.7977 10.8881 4.14268 11.1507 4.32642C11.7907 4.7739 11.8345 4.51891 11.8257 4.40642C11.792 3.96519 11.3419 3.63646 10.9731 3.45772C10.4531 3.20523 9.85175 3.11523 9.27793 3.11523C8.72661 3.11523 8.15529 3.19898 7.64897 3.42772C7.27267 3.59646 6.60759 4.02019 6.6826 4.48141C6.74261 4.84389 7.21892 4.49141 7.31143 4.43017C7.58396 4.25517 8.08153 3.7977 9.26667 3.7977Z" fill="#A65F3E"/>
<path opacity="0.68" d="M6.833 4.40614C6.733 4.22115 6.95424 3.98616 7.05049 3.90616C7.24298 3.74742 7.46046 3.61118 7.6917 3.51743C7.81045 3.46994 8.15668 3.39744 8.17418 3.58368C8.19168 3.77242 7.71545 3.95991 7.59546 4.01866C7.16798 4.2274 6.92799 4.58363 6.833 4.40614Z" fill="#E6A467"/>
<path d="M9.75882 12.885H8.2439C8.1464 12.885 8.06641 12.8063 8.06641 12.7076V11.7351C8.06641 11.6376 8.14515 11.5576 8.2439 11.5576H9.75757C9.85506 11.5576 9.93506 11.6364 9.93506 11.7351V12.7076C9.93506 12.8063 9.85631 12.885 9.75882 12.885Z" fill="#3E2723"/>
<path d="M9.8717 11.2522H8.13179C8.05804 11.2522 7.99805 11.1922 7.99805 11.1185V10.5922C7.99805 10.5185 8.05804 10.4585 8.13179 10.4585H9.87295C9.94669 10.4585 10.0067 10.5185 10.0067 10.5922V11.1185C10.0054 11.1922 9.94544 11.2522 9.8717 11.2522Z" fill="#E6A467"/>
<path d="M9.76112 12.6324H8.2437C8.17371 12.6324 8.11621 12.5749 8.11621 12.5049V11.6587C8.11621 11.5887 8.17371 11.5312 8.2437 11.5312H9.76237C9.83237 11.5312 9.88987 11.5887 9.88987 11.6587V12.5049C9.88862 12.5749 9.83237 12.6324 9.76112 12.6324Z" fill="#E6A467"/>
<path d="M8.34835 10.8549C8.34835 11.1424 8.3046 11.1736 8.2096 11.1736C8.11461 11.1736 8.09961 11.0811 8.09961 10.8524C8.09961 10.6237 8.11586 10.5449 8.2171 10.5449C8.31835 10.5449 8.34835 10.5674 8.34835 10.8549Z" fill="#FFF59D"/>
<path d="M8.50811 12.0584C8.50811 12.3334 8.51311 12.4959 8.38062 12.4959C8.24687 12.4959 8.23438 12.3409 8.23438 12.0509C8.23438 11.8421 8.23438 11.6709 8.37312 11.6709C8.51061 11.6697 8.50811 11.7822 8.50811 12.0584Z" fill="#FFF59D"/>
</svg>
