<svg width="18" height="18" viewBox="0 0 18 18" fill="none" xmlns="http://www.w3.org/2000/svg">
<path d="M13.6679 9.57617H4.33088C3.32468 9.57617 2.50098 10.3686 2.50098 11.3386C2.50098 12.3073 3.32468 13.101 4.33088 13.101H13.6679C14.6741 13.101 15.4978 12.3085 15.4978 11.3386C15.499 10.3686 14.6753 9.57617 13.6679 9.57617Z" fill="#C48E6A"/>
<path d="M13.9691 5.09544C12.7679 3.26803 11.2192 2.64307 8.96934 2.64307C6.71946 2.64307 5.17079 3.26678 3.9696 5.09544C3.08965 6.43536 2.87716 8.5415 3.1484 10.7114C3.40963 12.7975 3.62587 13.9425 4.9208 15.1112C6.04574 16.1261 7.57316 16.3448 8.88309 16.3448H8.94059H8.96934H8.99809H9.05558C10.3655 16.3448 11.8942 16.1261 13.0179 15.1112C14.3128 13.9425 14.529 12.7975 14.7903 10.7114C15.0615 8.5415 14.849 6.43411 13.9691 5.09544Z" fill="#E0BB95"/>
<path d="M10.8305 5.29401C10.848 5.27526 10.8655 5.25776 10.883 5.23901C10.8955 5.22526 10.908 5.21026 10.9205 5.19651C10.9493 5.16276 10.9768 5.12901 11.003 5.09402C11.0068 5.08902 11.0105 5.08402 11.0143 5.07902C11.0393 5.04527 11.0618 5.01027 11.0843 4.97402C11.0905 4.96402 11.0968 4.95277 11.103 4.94277C11.1243 4.90653 11.1455 4.87028 11.1655 4.83153C11.1693 4.82528 11.1718 4.82028 11.1743 4.81403C11.2218 4.72029 11.263 4.61904 11.2968 4.5128C11.298 4.50905 11.2993 4.5053 11.3005 4.50155C11.3693 4.28031 11.4093 4.03407 11.4093 3.75659C11.4093 3.20162 11.2093 2.76289 10.9043 2.43166C10.9005 2.42791 10.898 2.42541 10.8955 2.42166C10.8718 2.39666 10.8468 2.37166 10.8218 2.34666C10.8168 2.34166 10.8118 2.33666 10.8068 2.33166C10.783 2.30916 10.7593 2.28792 10.7343 2.26667C10.728 2.26167 10.7218 2.25667 10.7168 2.25167C10.6918 2.23042 10.6668 2.21042 10.6418 2.19042C10.6355 2.18542 10.6293 2.18167 10.6243 2.17667C10.5968 2.15667 10.5693 2.13667 10.5418 2.11667C10.5368 2.11417 10.5331 2.11042 10.5281 2.10792C10.4281 2.04043 10.3243 1.98043 10.2168 1.92918C10.2131 1.92668 10.2081 1.92543 10.2043 1.92293C10.1731 1.90794 10.1418 1.89419 10.1106 1.88044C10.0993 1.87544 10.0906 1.87169 10.0818 1.86794C10.0543 1.85669 10.0268 1.84544 9.99933 1.83544C9.98933 1.83169 9.97808 1.82794 9.96808 1.82419C9.94183 1.81419 9.91558 1.80544 9.89058 1.79669C9.87933 1.79294 9.86808 1.78919 9.85684 1.78544C9.83059 1.77669 9.80559 1.76919 9.77934 1.76169C9.76809 1.75794 9.75684 1.75544 9.74434 1.75169C9.71809 1.74419 9.69184 1.73794 9.6656 1.73169C9.65435 1.72919 9.64435 1.7267 9.6331 1.7242C9.60435 1.71795 9.5756 1.7117 9.5481 1.70545C9.53935 1.7042 9.5306 1.7017 9.52185 1.70045C9.44811 1.6842 9.37436 1.67295 9.30062 1.6642C9.29062 1.66295 9.28062 1.66295 9.27062 1.6617C9.24437 1.6592 9.21937 1.6567 9.19312 1.65545C9.17812 1.6542 9.16437 1.6542 9.14937 1.65295C9.12812 1.6517 9.10812 1.65045 9.08813 1.65045C9.07188 1.65045 9.05563 1.6492 9.03813 1.6492C9.02688 1.6492 9.01563 1.64795 9.00563 1.64795C9.00188 1.64795 8.99813 1.64795 8.99313 1.64795C8.93938 1.64795 8.88564 1.65045 8.83314 1.6542C8.82314 1.65545 8.81314 1.65545 8.80314 1.6567C8.74939 1.6617 8.6969 1.6667 8.6469 1.67545C8.03318 1.77544 7.53696 2.09793 7.22697 2.41291C7.04073 2.60165 6.92199 2.78789 6.88574 2.92163H6.88699C7.28447 2.82039 7.79819 2.73164 8.37066 2.70164C9.14562 2.6479 9.79309 3.08912 9.76184 3.76659C9.75809 3.84783 9.74809 3.92408 9.73434 3.99532C9.73309 4.00282 9.73184 4.00907 9.73059 4.01657C9.72434 4.04407 9.71684 4.07157 9.70934 4.09782C9.70559 4.11032 9.70184 4.12282 9.69934 4.13407C9.69184 4.15657 9.68434 4.17906 9.6756 4.20156C9.6706 4.21531 9.66435 4.22906 9.6581 4.24281C9.64935 4.26281 9.6406 4.28156 9.63185 4.29906C9.62435 4.31406 9.61685 4.32781 9.6081 4.34156C9.59935 4.3578 9.58935 4.37405 9.57935 4.38905C9.56935 4.40405 9.5581 4.41905 9.5481 4.43405C9.53935 4.44655 9.5306 4.45905 9.5206 4.47155C9.50435 4.49155 9.48686 4.5103 9.46936 4.5278C9.46436 4.5328 9.45936 4.53904 9.45436 4.54404C9.43061 4.56779 9.40561 4.58904 9.37936 4.61029C9.37436 4.61404 9.36811 4.61779 9.36311 4.62154C9.34186 4.63779 9.31936 4.65404 9.29686 4.66779C9.28937 4.67154 9.28312 4.67654 9.27562 4.68029C9.25312 4.69404 9.23062 4.70654 9.20812 4.71779C9.20062 4.72154 9.19437 4.72529 9.18687 4.72779C9.16312 4.73903 9.13812 4.75028 9.11187 4.76028C9.10687 4.76278 9.10063 4.76528 9.09438 4.76653C9.06563 4.77778 9.03688 4.78778 9.00688 4.79653C9.00438 4.79778 9.00188 4.79778 8.99938 4.79903C8.86439 4.83903 8.7194 4.85653 8.5719 4.85653C8.12693 4.85653 7.6657 4.69154 7.40071 4.4553C7.37697 4.43405 7.34822 4.42405 7.32072 4.42405C7.31447 4.42405 7.30822 4.42655 7.30322 4.4278C7.29822 4.42905 7.29197 4.42905 7.28697 4.43155C7.27947 4.43405 7.27197 4.43655 7.26447 4.4403C7.25197 4.44655 7.24197 4.45405 7.23197 4.4628C7.22947 4.4653 7.22822 4.4678 7.22572 4.4703C7.21697 4.4803 7.20948 4.4928 7.20323 4.5053C7.20198 4.5078 7.20198 4.50905 7.20073 4.51155C7.19448 4.5278 7.19073 4.54654 7.19323 4.56654C7.23072 4.94402 7.46821 5.4165 8.03318 5.77148C8.57065 6.11021 9.70184 6.11396 10.5068 5.56274C10.5143 5.55774 10.5218 5.55274 10.5293 5.54774C10.553 5.53024 10.578 5.51274 10.6018 5.49524C10.6118 5.48775 10.623 5.479 10.633 5.47025C10.668 5.44275 10.7018 5.414 10.7343 5.384C10.7505 5.369 10.7668 5.354 10.783 5.339C10.8005 5.32525 10.8155 5.309 10.8305 5.29401Z" fill="#AB872F"/>
<path d="M10.8305 5.29401C10.848 5.27526 10.8655 5.25776 10.883 5.23901C10.8955 5.22526 10.908 5.21026 10.9205 5.19651C10.9493 5.16276 10.9768 5.12901 11.003 5.09402C11.0068 5.08902 11.0105 5.08402 11.0143 5.07902C11.0393 5.04527 11.0618 5.01027 11.0843 4.97402C11.0905 4.96402 11.0968 4.95277 11.103 4.94277C11.1243 4.90653 11.1455 4.87028 11.1655 4.83153C11.1693 4.82528 11.1718 4.82028 11.1743 4.81403C11.2218 4.72029 11.263 4.61904 11.2968 4.5128C11.298 4.50905 11.2993 4.5053 11.3005 4.50155C11.3693 4.28031 11.4093 4.03407 11.4093 3.75659C11.4093 3.20162 11.2093 2.76289 10.9043 2.43166C10.9005 2.42791 10.898 2.42541 10.8955 2.42166C10.8718 2.39666 10.8468 2.37166 10.8218 2.34666C10.8168 2.34166 10.8118 2.33666 10.8068 2.33166C10.783 2.30916 10.7593 2.28792 10.7343 2.26667C10.728 2.26167 10.7218 2.25667 10.7168 2.25167C10.6918 2.23042 10.6668 2.21042 10.6418 2.19042C10.6355 2.18542 10.6293 2.18167 10.6243 2.17667C10.5968 2.15667 10.5693 2.13667 10.5418 2.11667C10.5368 2.11417 10.5331 2.11042 10.5281 2.10792C10.4281 2.04043 10.3243 1.98043 10.2168 1.92918C10.2131 1.92668 10.2081 1.92543 10.2043 1.92293C10.1731 1.90794 10.1418 1.89419 10.1106 1.88044C10.0993 1.87544 10.0906 1.87169 10.0818 1.86794C10.0543 1.85669 10.0268 1.84544 9.99933 1.83544C9.98933 1.83169 9.97808 1.82794 9.96808 1.82419C9.94183 1.81419 9.91558 1.80544 9.89058 1.79669C9.87933 1.79294 9.86808 1.78919 9.85684 1.78544C9.83059 1.77669 9.80559 1.76919 9.77934 1.76169C9.76809 1.75794 9.75684 1.75544 9.74434 1.75169C9.71809 1.74419 9.69184 1.73794 9.6656 1.73169C9.65435 1.72919 9.64435 1.7267 9.6331 1.7242C9.60435 1.71795 9.5756 1.7117 9.5481 1.70545C9.53935 1.7042 9.5306 1.7017 9.52185 1.70045C9.44811 1.6842 9.37436 1.67295 9.30062 1.6642C9.29062 1.66295 9.28062 1.66295 9.27062 1.6617C9.24437 1.6592 9.21937 1.6567 9.19312 1.65545C9.17812 1.6542 9.16437 1.6542 9.14937 1.65295C9.12812 1.6517 9.10812 1.65045 9.08813 1.65045C9.07188 1.65045 9.05563 1.6492 9.03813 1.6492C9.02688 1.6492 9.01563 1.64795 9.00563 1.64795C9.00188 1.64795 8.99813 1.64795 8.99313 1.64795C8.93938 1.64795 8.88564 1.65045 8.83314 1.6542C8.82314 1.65545 8.81314 1.65545 8.80314 1.6567C8.74939 1.6617 8.6969 1.6667 8.6469 1.67545C8.03318 1.77544 7.53696 2.09793 7.22697 2.41291C7.04073 2.60165 6.92199 2.78789 6.88574 2.92163H6.88699C7.28447 2.82039 7.79819 2.73164 8.37066 2.70164C9.14562 2.6479 9.79309 3.08912 9.76184 3.76659C9.75809 3.84783 9.74809 3.92408 9.73434 3.99532C9.73309 4.00282 9.73184 4.00907 9.73059 4.01657C9.72434 4.04407 9.71684 4.07157 9.70934 4.09782C9.70559 4.11032 9.70184 4.12282 9.69934 4.13407C9.69184 4.15657 9.68434 4.17906 9.6756 4.20156C9.6706 4.21531 9.66435 4.22906 9.6581 4.24281C9.64935 4.26281 9.6406 4.28156 9.63185 4.29906C9.62435 4.31406 9.61685 4.32781 9.6081 4.34156C9.59935 4.3578 9.58935 4.37405 9.57935 4.38905C9.56935 4.40405 9.5581 4.41905 9.5481 4.43405C9.53935 4.44655 9.5306 4.45905 9.5206 4.47155C9.50435 4.49155 9.48686 4.5103 9.46936 4.5278C9.46436 4.5328 9.45936 4.53904 9.45436 4.54404C9.43061 4.56779 9.40561 4.58904 9.37936 4.61029C9.37436 4.61404 9.36811 4.61779 9.36311 4.62154C9.34186 4.63779 9.31936 4.65404 9.29686 4.66779C9.28937 4.67154 9.28312 4.67654 9.27562 4.68029C9.25312 4.69404 9.23062 4.70654 9.20812 4.71779C9.20062 4.72154 9.19437 4.72529 9.18687 4.72779C9.16312 4.73903 9.13812 4.75028 9.11187 4.76028C9.10687 4.76278 9.10063 4.76528 9.09438 4.76653C9.06563 4.77778 9.03688 4.78778 9.00688 4.79653C9.00438 4.79778 9.00188 4.79778 8.99938 4.79903C8.86439 4.83903 8.7194 4.85653 8.5719 4.85653C8.12693 4.85653 7.6657 4.69154 7.40071 4.4553C7.37697 4.43405 7.34822 4.42405 7.32072 4.42405C7.31447 4.42405 7.30822 4.42655 7.30322 4.4278C7.29822 4.42905 7.29197 4.42905 7.28697 4.43155C7.27947 4.43405 7.27197 4.43655 7.26447 4.4403C7.25197 4.44655 7.24197 4.45405 7.23197 4.4628C7.22947 4.4653 7.22822 4.4678 7.22572 4.4703C7.21697 4.4803 7.20948 4.4928 7.20323 4.5053C7.20198 4.5078 7.20198 4.50905 7.20073 4.51155C7.19448 4.5278 7.19073 4.54654 7.19323 4.56654C7.23072 4.94402 7.46821 5.4165 8.03318 5.77148C8.57065 6.11021 9.70184 6.11396 10.5068 5.56274C10.5143 5.55774 10.5218 5.55274 10.5293 5.54774C10.553 5.53024 10.578 5.51274 10.6018 5.49524C10.6118 5.48775 10.623 5.479 10.633 5.47025C10.668 5.44275 10.7018 5.414 10.7343 5.384C10.7505 5.369 10.7668 5.354 10.783 5.339C10.8005 5.32525 10.8155 5.309 10.8305 5.29401Z" fill="url(#paint0_radial_4500_30517)"/>
<path d="M9.65122 11.335C9.63372 11.3275 9.61622 11.3238 9.59872 11.3213H8.43628C8.41878 11.3238 8.40128 11.3275 8.38378 11.335C8.27879 11.3775 8.22004 11.4875 8.27004 11.6025C8.32004 11.7188 8.55127 12.045 9.0175 12.045C9.48373 12.045 9.71496 11.7188 9.76496 11.6025C9.81371 11.4863 9.75621 11.3775 9.65122 11.335Z" fill="#C48E6A"/>
<path d="M6.28359 11.4508C6.73092 11.4508 7.09355 11.0753 7.09355 10.6121C7.09355 10.1489 6.73092 9.77344 6.28359 9.77344C5.83626 9.77344 5.47363 10.1489 5.47363 10.6121C5.47363 11.0753 5.83626 11.4508 6.28359 11.4508Z" fill="#5D4037"/>
<path d="M11.7484 11.4508C12.1958 11.4508 12.5584 11.0753 12.5584 10.6121C12.5584 10.1489 12.1958 9.77344 11.7484 9.77344C11.3011 9.77344 10.9385 10.1489 10.9385 10.6121C10.9385 11.0753 11.3011 11.4508 11.7484 11.4508Z" fill="#5D4037"/>
<path d="M10.1824 13.077C9.7324 13.3445 8.25748 13.3445 7.80875 13.077C7.55002 12.9233 7.28628 13.1582 7.39378 13.3932C7.49877 13.6245 8.30373 14.1594 8.99994 14.1594C9.6949 14.1594 10.4899 13.6245 10.5949 13.3932C10.7011 13.1582 10.4399 12.9233 10.1824 13.077Z" fill="#6D4C41"/>
<defs>
<radialGradient id="paint0_radial_4500_30517" cx="0" cy="0" r="1" gradientUnits="userSpaceOnUse" gradientTransform="translate(8.92785 6.00858) scale(4.44167 4.44166)">
<stop offset="0.6985" stop-color="#BFA055" stop-opacity="0"/>
<stop offset="1" stop-color="#BFA055"/>
</radialGradient>
</defs>
</svg>
