<svg width="18" height="18" viewBox="0 0 18 18" fill="none" xmlns="http://www.w3.org/2000/svg">
<path opacity="0.5" d="M16.4274 7.31711C16.1224 6.12342 15.8574 5.59845 15.3137 5.4972C14.7912 5.39971 14.0488 5.73844 13.8638 5.83844L13.8613 5.82969C13.8613 5.82969 13.9038 5.59845 13.8438 5.36596C13.7838 5.13347 13.5438 5.03973 13.4751 5.05723L4.1968 6.42216L4.13431 6.79089L4.01681 7.3821C3.71433 7.32711 2.91562 7.22086 2.48439 7.53835C1.94567 7.93458 1.72818 8.66329 1.59569 9.61699C1.4632 10.5707 1.54819 11.0694 1.85068 11.3931C2.22191 11.7919 2.80438 11.9044 3.10811 11.9369L2.93312 12.8118C2.93312 12.8118 2.71813 12.8893 2.58939 13.2493C2.46065 13.6093 2.63189 13.953 2.63189 13.953C2.63189 13.953 2.99062 13.3205 5.75797 13.8093C8.56657 14.3055 8.69657 14.9142 8.69657 14.9142C8.69657 14.9142 8.85156 14.7592 8.97155 14.3905C9.09155 14.0218 8.86906 13.6355 8.86906 13.6355L9.40903 11.2507L9.949 12.7256C9.949 12.7256 9.74901 12.9681 9.83776 13.318C9.944 13.7393 10.9427 14.5967 13.4176 13.6643C15.8712 12.7381 15.9487 11.4331 15.8074 11.0282C15.7112 10.7507 15.3875 10.6769 15.3875 10.6769L15.245 10.2232C15.3837 10.1432 15.5975 10.0032 15.9199 9.75823C16.6749 9.18576 16.7361 8.52704 16.4274 7.31711ZM2.3894 10.5894C2.20066 10.0132 2.52189 8.56329 2.79563 8.34955C3.20061 8.03332 3.62933 8.18706 3.83432 8.29331L3.2781 11.0844C3.06186 11.0869 2.53814 11.0444 2.3894 10.5894ZM15.7412 8.4508C15.6787 8.94077 15.13 9.12826 14.9175 9.18326L14.1163 6.63964C14.3075 6.50965 14.6813 6.32091 14.9925 6.35591C15.3175 6.39341 15.8187 7.84208 15.7412 8.4508Z" fill="white"/>
<path opacity="0.7" d="M16.4274 7.31711C16.1224 6.12342 15.8512 5.6272 15.3137 5.4972C14.5675 5.31596 13.8613 5.82969 13.8613 5.82969C13.8613 5.82969 13.9038 5.59845 13.8438 5.36596C13.7838 5.13347 13.5438 5.03973 13.4751 5.05723L4.1968 6.42216L4.13431 6.79089L4.01681 7.3821C3.71433 7.32711 2.91562 7.22086 2.48439 7.53835C1.94567 7.93458 1.72818 8.66329 1.59569 9.61699C1.4632 10.5707 1.54819 11.0694 1.85068 11.3931C2.22191 11.7919 2.80438 11.9044 3.10811 11.9369L2.93312 12.8118C2.93312 12.8118 2.71813 12.8893 2.58939 13.2493C2.46065 13.6093 2.63189 13.953 2.63189 13.953C2.63189 13.953 2.82438 13.6368 3.94057 13.6318C4.38554 13.6293 4.97051 13.668 5.75797 13.8093C8.50408 14.3017 8.69657 14.9142 8.69657 14.9142C8.69657 14.9142 8.85156 14.7592 8.97155 14.3905C9.09155 14.0218 8.86906 13.6355 8.86906 13.6355L9.40903 11.2507L9.949 12.7256C9.949 12.7256 9.74901 12.9681 9.83776 13.318C9.944 13.7393 10.9427 14.5967 13.4176 13.6643C15.8712 12.7381 15.9487 11.4331 15.8074 11.0282C15.7112 10.7507 15.3875 10.6769 15.3875 10.6769L15.245 10.2232C15.3837 10.1432 15.5975 10.0032 15.9199 9.75823C16.6749 9.18576 16.7361 8.52704 16.4274 7.31711ZM2.3894 10.5894C2.20066 10.0132 2.52189 8.56329 2.79563 8.34955C3.20061 8.03332 3.62933 8.18706 3.83432 8.29331L3.2781 11.0844C3.06186 11.0869 2.53814 11.0444 2.3894 10.5894ZM15.7412 8.4508C15.6787 8.94077 15.13 9.12826 14.9175 9.18326L14.1163 6.63964C14.3075 6.50965 14.6813 6.32091 14.9925 6.35591C15.3175 6.39341 15.8187 7.84208 15.7412 8.4508Z" fill="#E0E0E0"/>
<path opacity="0.7" d="M5.53918 15.1644C2.84807 14.762 2.63184 13.9532 2.63184 13.9532C2.63184 13.9532 2.96557 13.3283 5.75792 13.8095C8.48028 14.2782 8.69652 14.9144 8.69652 14.9144C8.69652 14.9144 8.47403 15.6044 5.53918 15.1644Z" fill="#BCBCBC"/>
<path d="M4.64428 7.13864C4.64428 7.13864 3.67433 11.9696 3.64684 12.1871C3.61934 12.4046 3.61934 12.6134 3.86432 12.6771C4.10931 12.7408 5.11551 12.7583 6.1392 12.9496C7.1629 13.1408 7.86161 13.4483 8.0241 13.5021C8.1866 13.5558 8.36909 13.4571 8.46783 13.1308C8.56783 12.8046 9.63652 8.12859 9.63652 8.12859L7.2454 6.51367L4.64428 7.13864Z" fill="url(#paint0_radial_4500_30439)"/>
<path d="M9.66406 10.2622L10.134 7.84354L13.2201 6.00488C13.2201 6.00488 14.6263 10.3584 14.6863 10.5459C14.7613 10.7809 14.4063 11.5733 12.9839 12.1746C11.5615 12.7758 10.604 12.5158 10.484 12.2858C10.3653 12.0571 9.66406 10.2622 9.66406 10.2622Z" fill="url(#paint1_radial_4500_30439)"/>
<path d="M10.3089 6.60232L12.9963 5.31738L13.2825 6.18859C13.2825 6.18859 13.0613 6.77481 11.8164 7.33603C10.7327 7.82475 10.1064 7.70726 10.1064 7.70726L10.3089 6.60232Z" fill="#F4D097"/>
<path d="M4.8185 6.34717L4.44727 8.05708C4.44727 8.05708 4.99974 7.7071 6.41216 7.74959C7.82459 7.79209 9.51575 8.67705 9.51575 8.67705L9.59949 8.29832L9.90698 6.90089L4.8185 6.34717Z" fill="#F4D097"/>
<path d="M3.92355 5.89614C3.82105 6.72235 4.22978 7.29232 5.21973 7.39607C6.09718 7.48731 6.59715 7.04983 7.08713 7.49856C7.70959 8.06978 6.86214 9.92593 6.80089 10.2122C6.73965 10.4984 6.6984 10.8546 6.99463 10.9359C7.29087 11.0171 7.50336 10.6471 7.58585 10.3234C7.78959 9.5272 8.16707 8.30352 8.64705 8.18102C9.31951 8.00978 9.21452 8.51976 9.91198 8.40601C10.5344 8.30352 10.7582 7.7023 10.7994 7.43731C10.8407 7.17233 10.6969 6.78485 10.6969 6.78485C10.6969 6.78485 11.0544 6.66235 11.4519 6.42737C11.8494 6.19238 11.9394 6.00364 12.2481 5.83615C12.6968 5.59116 13.3605 5.65866 13.6768 5.11244C14.023 4.50997 13.993 3.21004 12.7018 3.08129C12.2944 3.04004 12.0744 3.18754 11.7994 3.16379C11.4856 3.13629 11.3744 2.92505 10.8307 3.0263C10.2857 3.12754 10.157 3.53127 9.84073 3.61251C9.49075 3.70251 8.97328 3.62251 8.4733 3.98999C7.97333 4.35748 7.85084 4.8362 7.85084 4.8362C7.85084 4.8362 7.46711 4.67746 6.94339 4.71371C6.37342 4.75245 6.13718 4.98869 5.7297 4.95869C5.32222 4.9287 4.08979 4.54871 3.92355 5.89614Z" fill="#FFEBC9"/>
<path d="M11.9678 8.04717C11.8215 8.01842 11.6915 8.13967 11.6815 8.33341C11.6715 8.52715 11.749 8.63839 11.8465 8.64339C11.944 8.64839 12.0503 8.57589 12.089 8.39215C12.1278 8.20716 12.089 8.07092 11.9678 8.04717Z" fill="#FFE267"/>
<path d="M11.7238 9.68838C11.6639 9.79087 11.7388 9.90087 11.8201 9.95961C11.9013 10.0184 12.0326 10.0034 12.0626 9.93587C12.0913 9.86837 12.1013 9.74213 12.0051 9.66463C11.9088 9.58713 11.7876 9.58213 11.7238 9.68838Z" fill="#FFE267"/>
<path d="M12.4709 10.0273C12.3396 10.0123 12.2334 10.1198 12.2334 10.3422C12.2334 10.5647 12.3159 10.6485 12.4371 10.6572C12.5771 10.6672 12.6546 10.4397 12.6596 10.3035C12.6646 10.1685 12.6359 10.0473 12.4709 10.0273Z" fill="#FFE267"/>
<path d="M12.7165 11.2758C12.6241 11.1746 12.4653 11.2221 12.3916 11.3433C12.3316 11.442 12.3191 11.5945 12.4066 11.6583C12.4941 11.7208 12.6266 11.6833 12.6828 11.5858C12.7553 11.4608 12.7653 11.3296 12.7165 11.2758Z" fill="#FFE267"/>
<path d="M6.51547 8.76357C6.45047 8.81356 6.44297 8.95731 6.51547 9.06355C6.58796 9.16979 6.7142 9.18979 6.75795 9.12105C6.8017 9.05355 6.7817 8.92731 6.74295 8.84981C6.70421 8.77356 6.61671 8.68607 6.51547 8.76357Z" fill="#FFE267"/>
<path d="M6.15203 9.95962C6.26453 10.0671 6.44202 9.97837 6.51951 9.86712C6.59701 9.75588 6.61576 9.62964 6.53826 9.55214C6.46077 9.47464 6.31327 9.48964 6.20453 9.56714C6.07454 9.65963 6.04079 9.85337 6.15203 9.95962Z" fill="#FFE267"/>
<path d="M5.71253 10.177C5.57253 10.1583 5.44629 10.2957 5.44629 10.492C5.44629 10.7095 5.57753 10.8932 5.70753 10.8795C5.84252 10.8645 5.92501 10.6957 5.93001 10.5257C5.93501 10.357 5.85752 10.197 5.71253 10.177Z" fill="#FFE267"/>
<path d="M5.60472 11.7144C5.50473 11.7319 5.44973 11.8407 5.46848 11.9844C5.48598 12.1207 5.56722 12.2344 5.70722 12.2094C5.81221 12.1919 5.84721 12.0482 5.83346 11.9119C5.82096 11.7757 5.71847 11.6944 5.60472 11.7144Z" fill="#FFE267"/>
<path d="M2.37698 8.2297C2.52947 8.34094 2.66821 8.04221 2.8832 7.92472C3.09569 7.80847 3.29193 7.73098 3.20193 7.57723C3.11194 7.42474 2.8132 7.44599 2.60572 7.59098C2.39823 7.73723 2.18449 8.08971 2.37698 8.2297Z" fill="white"/>
<path d="M4.5974 7.35446C4.43116 7.31946 4.35491 7.42446 4.32741 7.5557C4.29992 7.68944 4.34116 7.83318 4.47366 7.86818C4.60615 7.90318 4.74364 7.79819 4.77239 7.65319C4.79864 7.5107 4.74739 7.38571 4.5974 7.35446Z" fill="white"/>
<path d="M4.46991 8.05071C4.22368 8.00321 4.13618 8.34944 4.01994 8.97941C3.91369 9.55188 3.55371 11.498 3.55371 11.6505C3.55371 11.803 3.55371 11.9693 3.7137 12.0105C3.87369 12.0517 4.01119 11.908 4.06993 11.628C4.12243 11.3793 4.60116 8.59693 4.62865 8.40944C4.65615 8.22195 4.60241 8.07571 4.46991 8.05071Z" fill="white"/>
<path d="M2.59215 8.72819C2.59965 8.73944 2.81714 8.37446 3.31961 8.40696C3.61584 8.42571 3.74209 8.52445 3.78458 8.5032C3.82708 8.48195 3.91333 8.16572 3.88583 8.09697C3.85958 8.02698 3.5571 7.92323 3.24086 7.97573C2.69089 8.06948 2.5384 8.6507 2.59215 8.72819Z" fill="#B0B0B0"/>
<path d="M1.6635 11.1045C1.64225 11.1508 1.86474 11.6908 2.31347 11.917C2.71094 12.117 3.07968 12.1132 3.09967 12.0507C3.11592 12.002 3.15342 11.847 3.15842 11.687C3.16217 11.582 2.94843 11.6533 2.46846 11.5045C1.86349 11.3195 1.68475 11.0558 1.6635 11.1045Z" fill="#B0B0B0"/>
<path d="M5.95491 5.41985C5.77742 5.4686 5.42619 5.30611 5.08496 5.33861C4.76748 5.36861 4.45499 5.57985 4.41874 6.02482C4.3575 6.77728 5.07121 6.82603 5.40994 6.81228C5.74992 6.79853 6.72112 6.57479 7.18985 6.92728C7.66232 7.28351 7.69982 7.91222 7.63107 8.25221C7.56233 8.59219 7.17235 9.88962 7.1211 10.0584C7.02611 10.3771 7.1886 10.4121 7.30484 10.2209C7.41983 10.0309 7.82731 8.55719 8.0048 8.23096C8.1823 7.90472 8.37103 7.66099 8.69102 7.62599C9.20099 7.57224 9.19349 7.79598 9.75096 7.79598C10.2397 7.79598 10.4372 7.32475 10.2059 6.85228C9.8997 6.22731 8.956 6.17357 8.84101 6.11232C8.72602 6.05107 8.39228 5.35111 7.58483 5.19487C6.77737 5.03862 6.36864 5.30486 5.95491 5.41985Z" fill="white"/>
<path d="M8.31934 4.96348C8.31934 4.96348 8.52307 5.11223 8.70807 5.30597C8.82556 5.42846 8.9643 5.6797 9.12804 5.72719C9.29178 5.77469 9.50052 5.74969 9.8505 5.90468C10.2005 6.05968 10.3792 6.26967 10.3792 6.26967C10.3792 6.26967 10.753 6.21467 11.0867 5.96593C11.4204 5.71719 11.7392 5.31347 12.1679 5.21972C12.5954 5.12598 13.6116 4.96973 13.3028 4.15478C12.9678 3.27232 12.1204 3.71855 11.8716 3.69605C11.6229 3.67355 11.4504 3.38482 10.8217 3.54856C10.398 3.65855 10.3105 4.05478 9.8905 4.10103C9.47052 4.14728 9.16679 4.06103 8.80181 4.33352C8.43683 4.606 8.31934 4.96348 8.31934 4.96348Z" fill="white"/>
<path d="M8.32034 3.45977C8.31409 3.45977 8.30784 3.45977 8.30034 3.45852C8.1866 3.44727 8.1041 3.34728 8.1141 3.23353L8.2391 1.91235C8.24909 1.79861 8.35034 1.71486 8.46408 1.72611C8.57783 1.73736 8.66032 1.83735 8.65032 1.9511L8.52533 3.27228C8.51533 3.37977 8.42534 3.45977 8.32034 3.45977Z" fill="#FF2A23"/>
<path d="M7.7447 3.7788C7.67845 3.7788 7.6122 3.7463 7.57221 3.68631L6.66225 2.31763C6.59976 2.22263 6.62476 2.09514 6.71975 2.03139C6.81475 1.9689 6.94224 1.9939 7.00599 2.08889L7.91594 3.45757C7.97843 3.55256 7.95344 3.68006 7.85844 3.7438C7.82344 3.76755 7.78469 3.7788 7.7447 3.7788Z" fill="#FF2A23"/>
<path d="M7.22305 4.25988C7.19805 4.25988 7.17305 4.25488 7.14806 4.24613L5.79563 3.71741C5.68938 3.67616 5.63689 3.55617 5.67813 3.44992C5.71938 3.34368 5.83937 3.29118 5.94562 3.33243L7.2993 3.8624C7.40554 3.90365 7.45804 4.02364 7.41679 4.12989C7.38429 4.21113 7.30555 4.25988 7.22305 4.25988Z" fill="#FF2A23"/>
<path d="M10.0935 9.40937C9.89979 9.49061 9.93729 9.82185 10.0935 10.2343C10.2498 10.6468 10.6123 11.703 10.6935 11.878C10.7747 12.053 10.881 12.1842 11.081 12.1217C11.281 12.0592 11.1997 11.8155 11.131 11.5718C11.0622 11.328 10.5998 10.0156 10.5248 9.80935C10.4498 9.60311 10.361 9.29687 10.0935 9.40937Z" fill="#FEFFFF"/>
<path d="M3.29492 13.6755C3.29492 13.6755 3.51116 14.2705 5.6223 14.573C7.73344 14.8755 8.23341 14.533 8.23341 14.533C8.23341 14.533 7.50345 14.088 5.73479 13.7968C3.86989 13.4893 3.29492 13.6755 3.29492 13.6755Z" fill="#BCBCBC"/>
<path d="M3.09209 12.9657C2.9071 12.9419 2.7971 13.1069 2.75336 13.1994C2.71086 13.2919 2.66711 13.5382 2.8271 13.5632C2.98709 13.5882 3.12209 13.4344 3.17208 13.3044C3.22083 13.1744 3.23333 12.9844 3.09209 12.9657Z" fill="white"/>
<path d="M3.32549 13.113C3.3055 13.298 3.52298 13.3167 3.81797 13.3217C4.11295 13.3267 5.12665 13.413 5.78786 13.5367C7.16654 13.7955 8.0415 14.1517 8.32398 14.2942C8.60772 14.4354 8.63521 14.2842 8.63771 14.2454C8.64396 14.1342 8.45272 13.9567 8.20024 13.833C8.00525 13.738 7.32653 13.3405 5.89161 13.1193C4.50168 12.9043 3.78672 12.9655 3.63798 12.9718C3.49174 12.978 3.33799 13.003 3.32549 13.113Z" fill="#D4D4D4"/>
<path d="M10.4954 12.6294C10.4679 12.7194 10.6166 12.8457 10.9554 12.9082C11.4004 12.9894 12.2216 12.9232 13.1078 12.5707C13.989 12.2207 14.5139 11.757 14.8064 11.4032C14.9889 11.182 14.9877 10.9258 14.9177 10.8695C14.8289 10.7983 14.7802 11.0195 14.5789 11.2607C14.3839 11.4945 13.9252 11.9182 13.0128 12.3257C12.1078 12.7294 11.4104 12.7257 11.0066 12.6744C10.7254 12.6394 10.5341 12.5019 10.4954 12.6294Z" fill="#9E9E9E"/>
<path d="M10.1655 13.0296C10.1342 13.2009 10.4167 13.3633 10.5492 13.4221C10.9329 13.5896 11.9429 13.6771 13.2566 13.1684C14.9615 12.5071 15.3215 11.7484 15.4352 11.5347C15.5514 11.3147 15.5014 11.2135 15.4477 11.1847C15.364 11.1397 15.264 11.2022 15.149 11.3535C14.7927 11.8197 14.3003 12.3059 13.1266 12.7859C11.9529 13.2659 11.1417 13.2459 10.598 13.0709C10.448 13.0221 10.198 12.8546 10.1655 13.0296Z" fill="#D5D5D5"/>
<path d="M15.1958 10.0682C15.137 10.2132 15.247 10.3794 15.267 10.3857C15.287 10.3919 15.287 10.3919 15.287 10.3919C15.287 10.3919 15.8983 10.1007 16.2832 9.6382C16.6782 9.16447 16.6657 8.50951 16.607 8.50201C16.562 8.49576 16.4495 9.03448 15.897 9.5557C15.4383 9.98818 15.2708 9.87943 15.1958 10.0682Z" fill="#B0B0B0"/>
<path d="M14.0381 6.42098L14.1581 6.78971C14.1581 6.78971 14.4806 6.45597 14.9055 6.48847C15.3305 6.52097 15.4193 6.9872 15.4368 6.9872C15.5343 6.98845 15.5355 6.34973 15.123 6.18474C14.6218 5.98225 14.0381 6.42098 14.0381 6.42098Z" fill="#B0B0B0"/>
<defs>
<radialGradient id="paint0_radial_4500_30439" cx="0" cy="0" r="1" gradientUnits="userSpaceOnUse" gradientTransform="translate(5.77146 14.3285) scale(7.51099 7.51099)">
<stop offset="0.3312" stop-color="#FDB408"/>
<stop offset="0.5016" stop-color="#F1A20D"/>
<stop offset="0.745" stop-color="#DB8116"/>
</radialGradient>
<radialGradient id="paint1_radial_4500_30439" cx="0" cy="0" r="1" gradientUnits="userSpaceOnUse" gradientTransform="translate(10.58 5.61375) scale(5.62625 5.62625)">
<stop offset="0.6282" stop-color="#DB8116"/>
<stop offset="0.7858" stop-color="#EE9D0E"/>
<stop offset="0.9391" stop-color="#FDB408"/>
</radialGradient>
</defs>
</svg>
