<svg width="18" height="18" viewBox="0 0 18 18" fill="none" xmlns="http://www.w3.org/2000/svg">
<path d="M13.3832 12.4288C13.3832 12.4288 11.4942 14.2015 8.99638 14.2015C6.49856 14.2015 4.61083 12.4288 4.61083 12.4288C4.61083 12.4288 4.25953 10.7424 5.16715 7.83074C5.64596 6.29555 12.4593 6.13928 12.9931 7.48195C13.9007 9.76099 13.3832 12.4288 13.3832 12.4288Z" fill="#424242"/>
<path d="M4.61063 12.4283L5.20945 12.9083C5.20945 12.9083 5.20445 11.9584 5.49824 11.0722C5.60825 10.7409 6.0008 10.6022 6.29584 10.7884L8.58238 12.2221C8.83866 12.3821 9.1612 12.3846 9.41998 12.2283C10.5126 11.5659 13.363 9.83222 13.493 9.72597C13.493 9.72597 13.493 9.51223 13.4392 9.23975L4.57812 9.251L4.61063 12.4283Z" fill="#212121"/>
<path d="M16.3525 7.50455L9.25159 11.7338C9.09657 11.8263 8.9028 11.8263 8.74653 11.7338L1.64814 7.50455C1.45062 7.38704 1.45062 7.10075 1.64814 6.98324L8.74903 2.75395C8.90405 2.66144 9.09782 2.66144 9.25409 2.75395L16.355 6.98324C16.5513 7.10075 16.5513 7.38704 16.3525 7.50455Z" fill="#424242"/>
<path d="M9.00541 11.4231C9.00416 11.4231 9.00166 11.4244 9.00041 11.4244C8.98041 11.4244 8.9604 11.4194 8.9429 11.4081L1.52197 7.13086C1.52197 7.13086 1.48572 7.19961 1.52197 7.32335C1.55948 7.44709 1.61698 7.48709 1.64824 7.50584L8.74913 11.7344C8.82664 11.7806 8.91415 11.8044 9.00166 11.8044C9.00291 11.8044 9.00541 11.8044 9.00666 11.8044V11.4231H9.00541Z" fill="#9E9E9E"/>
<path d="M9.00027 11.4231C9.00152 11.4231 9.00402 11.4244 9.00527 11.4244C9.02528 11.4244 9.04528 11.4194 9.06278 11.4081L16.4837 7.13086C16.4837 7.13086 16.52 7.19961 16.4837 7.32335C16.4462 7.44709 16.3887 7.48709 16.3574 7.50584L9.25656 11.7344C9.17905 11.7806 9.09153 11.8044 9.00402 11.8044C9.00277 11.8044 9.00027 11.8044 8.99902 11.8044V11.4231H9.00027Z" fill="#616161"/>
<path d="M5.43063 9.75807L5.47063 9.40684C5.47063 9.40684 8.53422 7.74067 8.8367 7.56568C9.13919 7.39069 9.45667 7.1957 9.59791 7.03946C9.8479 6.76447 9.66791 6.59198 9.66791 6.59198C9.66791 6.59198 9.47042 6.91197 8.99919 6.85572C8.72921 6.82322 8.37798 6.60448 8.31923 6.50199C8.26048 6.39949 4.86066 8.98936 4.86066 8.98936L4.83691 9.40559L5.43063 9.75807Z" fill="#424242"/>
<path d="M9.66937 6.59325C9.34183 7.05081 8.78676 6.85078 8.78676 6.85078C8.78676 6.85078 7.04779 7.68464 6.98278 7.55837C6.91777 7.43211 8.41921 6.65951 8.41921 6.65951C8.41921 6.65951 8.33545 6.35197 8.3442 6.2207C8.3442 6.2207 5.62886 7.94842 4.60998 8.52974C4.07617 8.83478 3.9624 9.12232 3.96365 9.52737C3.96365 9.70489 3.96615 10.2812 3.96865 10.625C3.96865 10.6888 3.94115 10.7488 3.89239 10.7888C3.74863 10.9075 3.65612 11.0863 3.65612 11.2876C3.65612 11.4789 3.73988 11.6501 3.87239 11.7689C3.94365 11.8327 3.92865 11.9702 3.9349 12.0589C3.9474 12.229 3.9349 12.3065 3.86489 12.464C3.79613 12.6178 3.73237 12.7753 3.68862 12.9378C3.65487 13.0628 3.63236 13.1916 3.60986 13.3191C3.46109 14.173 3.39358 15.0856 2.99978 15.8707C2.96853 15.9319 2.99353 16.0069 3.05604 16.0382C3.07354 16.0469 3.09354 16.0519 3.1123 16.0519C3.15855 16.0519 3.20231 16.0269 3.22481 15.9832C3.42984 15.5744 3.5361 15.1268 3.62361 14.683C3.61861 15.0843 3.61611 15.4894 3.60236 15.9269C3.59986 16.0119 3.59361 16.1832 3.67112 16.2207C3.9624 16.362 3.9624 15.9269 3.9624 15.9269C3.9624 15.9269 3.96615 16.3182 4.36245 16.3182C4.75875 16.3182 4.78751 15.9269 4.78751 15.9269C4.78751 15.9269 4.81626 16.2857 5.02004 16.2682C5.10255 16.2607 5.21131 16.2107 5.17256 15.7819C5.1338 15.3544 5.03754 13.8217 4.99628 13.3366C4.93878 12.6653 4.71875 12.2665 4.67374 12.0289C4.65749 11.9389 4.65624 11.8452 4.7275 11.7864C4.87127 11.6676 4.96378 11.4889 4.96378 11.2876C4.96378 11.0938 4.87877 10.92 4.74375 10.8013C4.6925 10.7563 4.66624 10.6913 4.67124 10.6238C4.695 10.3 4.72125 9.82991 4.7425 9.72114C4.83501 9.23233 5.07629 9.14482 5.32382 8.9998C5.57135 8.85353 9.1568 7.22583 9.36558 7.08706C9.75188 6.82828 9.66937 6.59325 9.66937 6.59325Z" fill="#E2A610"/>
<path d="M4.26382 12.484C4.09883 12.484 3.98759 12.4703 3.88634 12.4465C3.84884 12.4378 3.82384 12.404 3.82634 12.3653L3.85884 11.8878C3.86259 11.8391 3.90884 11.8053 3.95634 11.8191C4.06883 11.8516 4.29382 11.8841 4.6613 11.8066C4.7063 11.7966 4.75129 11.8278 4.75629 11.8741L4.80629 12.349C4.81004 12.3878 4.78504 12.424 4.74755 12.4328C4.55631 12.4765 4.41756 12.484 4.26382 12.484Z" fill="#9E740B"/>
<path d="M13.3839 12.4288C13.3839 12.4288 13.6052 11.2738 13.5164 10.0451C13.5014 9.83765 13.3739 9.65891 13.2752 10.3851C13.2189 10.8013 13.0964 12.0475 12.8877 12.8262C13.2064 12.5963 13.3839 12.4288 13.3839 12.4288Z" fill="#616161"/>
<path d="M9.66938 6.59318C9.36059 7.02941 8.71926 6.83442 8.71926 6.83442C8.71926 6.83442 7.08031 7.56063 7.18907 7.42939C7.29659 7.29815 8.41923 6.65943 8.41923 6.65943C8.41923 6.65943 8.33547 6.35195 8.34422 6.2207C8.34422 6.2207 5.58137 7.81687 4.50999 8.58433C4.2337 8.78307 3.89116 9.10805 4.16995 9.43179C4.29871 9.58053 4.54749 9.61178 4.70626 9.49428C4.80253 9.42429 4.87753 9.32179 4.96255 9.24055C5.06756 9.13805 5.19507 9.07306 5.32009 8.99931C5.56762 8.85307 9.15307 7.22565 9.36185 7.08691C9.75189 6.82817 9.66938 6.59318 9.66938 6.59318Z" fill="#FFCA28"/>
<path d="M9.21716 5.59932C9.3084 5.62807 9.39215 5.69806 9.41589 5.79181C9.44714 5.9168 9.3684 6.04179 9.2834 6.13929C9.11716 6.33053 8.88842 6.49802 8.63469 6.48927C8.55094 6.48677 8.46094 6.45927 8.4097 6.39303C8.37345 6.34678 8.36095 6.28678 8.3572 6.22803C8.3347 5.79931 8.81968 5.47432 9.21716 5.59932Z" fill="#616161"/>
</svg>
