<svg width="18" height="18" viewBox="0 0 18 18" fill="none" xmlns="http://www.w3.org/2000/svg">
<path d="M1.50026 15.1014C1.48651 15.8464 2.01523 16.3889 3.38391 16.4426C4.75259 16.4964 14.0333 16.4839 14.8196 16.4701C15.6058 16.4564 16.5132 16.2126 16.527 15.1552C16.5407 14.0977 15.1045 13.854 15.1045 13.854C15.1045 13.854 3.56015 13.8678 3.08643 13.8953C2.6127 13.9228 1.51651 14.1665 1.50026 15.1014Z" fill="#B7D118"/>
<path d="M4.23192 12.4969C4.23192 12.4969 3.84819 12.3207 3.53571 12.4482C3.06198 12.6419 3.08198 12.9694 2.95574 13.0956C2.83075 13.2206 2.15078 13.1756 1.96954 13.7618C1.89205 14.0131 1.95954 14.2456 2.17203 14.2456C2.38452 14.2456 3.95944 14.1968 3.95944 14.1968L4.23192 12.4969Z" fill="#5A9821"/>
<path d="M3.96217 12.1494C3.96217 12.1494 3.97217 12.9031 3.96217 13.0581C3.95217 13.2131 3.82718 13.7443 3.72968 13.9368C3.63344 14.1306 3.61344 14.3043 3.74843 14.333C3.88343 14.3618 4.77213 14.333 4.77213 14.333L4.62839 12.1494H3.96217Z" fill="#875B50"/>
<path d="M12.8076 14.2991C12.8076 14.2991 15.7862 14.3191 15.93 14.2891C16.0737 14.2579 16.1887 14.0817 16.2087 13.9067C16.1987 13.2779 15.4762 13.2379 15.4762 13.2379C15.4762 13.2379 15.5962 12.8392 15.2662 12.5092C14.8338 12.0355 14.1975 12.228 14.1975 12.228C14.1975 12.228 14.095 11.888 13.7951 11.7018C13.4963 11.5168 12.8364 11.568 12.8364 11.568L12.8076 14.2991Z" fill="#5A9821"/>
<path d="M4.58932 12.3394C3.44938 12.3782 2.21319 11.6119 1.67072 9.50456C1.12825 7.39717 1.71197 4.91355 2.38068 3.84861C3.0494 2.78366 3.63312 2.28869 4.34308 2.30869C5.21428 2.33494 6.12424 3.54362 6.51297 4.55732C6.89045 5.53977 6.8792 6.36097 6.8792 6.36097L4.93805 12.1294L4.58932 12.3394Z" fill="#B7D118"/>
<path d="M9.10097 6.01074L4.52246 10.6105L4.55871 14.2578L7.96103 14.7953L13.6007 14.3741L13.6145 10.243L9.10097 6.01074Z" fill="#FFF3E1"/>
<path d="M13.4414 10.6943V13.9204L13.7576 14.0954V10.8143L13.4414 10.6943Z" fill="#5F4E47"/>
<path d="M10.6152 15.2391C10.6152 15.2391 11.7014 15.2441 12.4939 15.2466C13.3076 15.2479 13.7863 15.2279 13.9326 15.1479C14.0426 15.0879 14.0738 14.0755 13.5776 13.7955C13.0876 13.5192 12.7351 13.7192 12.5626 13.7367C12.3339 13.7592 12.2239 13.5955 11.8364 13.5855C10.9727 13.563 10.7152 14.2792 10.7152 14.2792L10.6152 15.2391Z" fill="#728037"/>
<path d="M4.35059 14.1166L4.66682 13.9416V10.5093L4.37308 10.7055C4.37308 10.7055 4.40558 14.1166 4.35059 14.1166Z" fill="#5F4E47"/>
<path d="M4.26473 15.179C4.36597 15.2753 4.98594 15.2403 5.8309 15.234C6.67585 15.2278 7.36456 15.2328 7.36456 15.2328L7.6983 14.4166L7.35581 14.2678C7.35581 14.2678 7.34457 13.8128 6.80584 13.6678C6.43336 13.5678 6.10838 13.7328 5.7959 13.7391C5.48216 13.7453 5.32467 13.6153 4.97594 13.6978C4.65096 13.7753 4.33847 14.0003 4.23598 14.4278C4.16473 14.724 4.18223 15.1015 4.26473 15.179Z" fill="#728037"/>
<path d="M9.13155 6.50199L4.37305 10.9555V9.83306L9.13655 5.3208L13.7576 10.1055V11.0542L9.13155 6.50199Z" fill="#BCAA93"/>
<path d="M12.0615 12.1294V13.2243H12.8052C12.9652 13.2243 13.094 13.0943 13.094 12.9356V12.1294H12.0615Z" fill="#A6CFD5"/>
<path d="M11.7502 12.1294H10.6553V12.9356C10.6553 13.0956 10.7853 13.2243 10.944 13.2243H11.7502V12.1294Z" fill="#A6CFD5"/>
<path d="M12.0615 11.8045H13.094V10.9445C13.094 10.7845 12.964 10.6558 12.8052 10.6558H12.0615V11.8045Z" fill="#A6CFD5"/>
<path d="M11.7502 11.8045V10.6558H10.944C10.784 10.6558 10.6553 10.7858 10.6553 10.9445V11.8045H11.7502Z" fill="#A6CFD5"/>
<path d="M6.34473 12.1294V13.2243H7.08844C7.24843 13.2243 7.37717 13.0943 7.37717 12.9356V12.1294H6.34473Z" fill="#A6CFD5"/>
<path d="M6.03342 12.1294H4.93848V12.9356C4.93848 13.0956 5.06847 13.2243 5.22721 13.2243H6.03342V12.1294Z" fill="#A6CFD5"/>
<path d="M6.34473 11.8045H7.37717V10.9445C7.37717 10.7845 7.24718 10.6558 7.08844 10.6558H6.34473V11.8045Z" fill="#A6CFD5"/>
<path d="M6.03342 11.8045V10.6558H5.22721C5.06722 10.6558 4.93848 10.7858 4.93848 10.9445V11.8045H6.03342Z" fill="#A6CFD5"/>
<path d="M3.90569 9.63955L3.62695 10.1545L4.37566 10.1433C4.37566 10.1433 9.04417 5.60226 9.14541 5.59726C9.26665 5.59226 13.7552 10.222 13.7552 10.222L14.4189 10.212L9.43915 4.8473L8.70793 4.7998L3.90569 9.63955Z" fill="#AB5832"/>
<path d="M3.04444 10.0267C2.96695 10.1217 3.04319 10.173 3.10694 10.173C3.17069 10.173 3.9019 10.1517 3.9019 10.1517L8.94288 5.24698C8.94288 5.24698 9.05913 5.12824 9.14162 5.13199C9.23162 5.13698 9.34786 5.24948 9.34786 5.24948L14.4126 10.2142C14.4126 10.2142 14.9901 10.2155 15.0826 10.193C15.1826 10.168 15.1313 10.0742 15.0088 9.94173C14.9188 9.84424 9.79659 4.77825 9.71284 4.69076C9.46161 4.43077 9.33786 4.27953 9.10037 4.28953C8.86164 4.29953 8.72039 4.47577 8.48166 4.69576C8.41041 4.76325 3.07819 9.98548 3.04444 10.0267Z" fill="#ED6C31"/>
<path d="M7.71272 14.4131C7.71272 14.4131 7.69772 11.9207 7.71272 11.292C7.72772 10.6633 8.31894 10.1196 9.0014 10.1433C9.84761 10.1721 10.2826 10.6483 10.3138 11.262C10.3451 11.8757 10.3451 14.4531 10.3451 14.4531L7.71272 14.4131Z" fill="#D27857"/>
<path d="M8.02899 14.5481C8.02899 14.5481 8.01649 11.892 8.02899 11.4008C8.04399 10.7908 8.50397 10.4708 9.03769 10.5021C9.65891 10.5371 9.96639 10.8683 9.99014 11.3483C10.0139 11.8283 10.0139 14.5506 10.0139 14.5506L8.02899 14.5481Z" fill="#AB5932"/>
<path d="M7.28418 16.1028L7.29043 15.2329H7.35418L7.35293 14.2642H10.7252L10.714 15.2329H10.789V16.0803C10.789 16.0791 7.28418 16.1078 7.28418 16.1028Z" fill="#B0B0B0"/>
<path d="M10.7905 15.723V16.0792L7.2832 16.103L7.28695 15.7192L10.7905 15.723Z" fill="#9B9B9B"/>
<path d="M7.35352 14.8555L10.7221 14.858V15.2317L7.35352 15.2329V14.8555Z" fill="#9B9B9B"/>
<path d="M4.76329 14.5441C4.62455 14.5553 4.5558 14.6653 4.5608 14.7641C4.56705 14.8628 4.6358 14.9778 4.76329 14.9666C4.89078 14.9553 4.97703 14.8803 4.97078 14.7641C4.96703 14.6766 4.90703 14.5328 4.76329 14.5441Z" fill="#FEB800"/>
<path d="M5.99322 14.6605C5.98322 14.7579 6.04571 14.9029 6.2007 14.8967C6.35695 14.8904 6.40819 14.7642 6.40319 14.6655C6.39694 14.5667 6.29945 14.4805 6.2007 14.4755C6.10321 14.4692 6.00446 14.5442 5.99322 14.6605Z" fill="#FEB800"/>
<path d="M13.0169 14.6304C13.0244 14.7629 13.0856 14.8503 13.2369 14.8503C13.3869 14.8503 13.4506 14.7416 13.4506 14.6429C13.4506 14.4979 13.3756 14.4116 13.2256 14.4116C13.0756 14.4116 13.0119 14.5216 13.0169 14.6304Z" fill="#FDB900"/>
<path d="M11.0239 14.5041C11.0289 14.6079 11.0989 14.7066 11.2439 14.7066C11.3889 14.7066 11.4576 14.5916 11.4639 14.4991C11.4701 14.4066 11.4001 14.2679 11.2389 14.2741C11.0764 14.2791 11.0176 14.3879 11.0239 14.5041Z" fill="#FDB900"/>
<path d="M6.59409 14.3129C6.59909 14.3941 6.64659 14.5091 6.78408 14.4916C6.92283 14.4741 6.93908 14.3929 6.93408 14.3066C6.92783 14.2029 6.85283 14.1504 6.76033 14.1504C6.66784 14.1504 6.58784 14.2266 6.59409 14.3129Z" fill="#FEB800"/>
<path d="M5.73374 13.9316C5.62125 13.9316 5.53125 14.0466 5.53125 14.1216C5.53125 14.1966 5.58875 14.3354 5.73374 14.3291C5.87873 14.3229 5.92373 14.2191 5.92998 14.1154C5.93623 14.0116 5.82623 13.9316 5.73374 13.9316Z" fill="#FEB800"/>
<path d="M11.7868 14.0781C11.7768 14.1768 11.8731 14.3143 12.0118 14.298C12.1506 14.2818 12.2193 14.1831 12.2081 14.0668C12.1968 13.9518 12.0806 13.8931 11.9881 13.8931C11.8968 13.8931 11.7981 13.9681 11.7868 14.0781Z" fill="#FDB900"/>
<path d="M9.69854 12.6079C9.69354 12.7492 9.75104 12.8654 9.91853 12.8654C10.086 12.8654 10.1485 12.7867 10.1598 12.6342C10.1698 12.4979 10.076 12.3767 9.91853 12.3879C9.76104 12.3979 9.70229 12.5079 9.69854 12.6079Z" fill="#FFBA02"/>
<path d="M8.35156 12.873C8.35531 13.458 8.36031 13.9967 8.36031 13.9967L9.69649 14.0005C9.69649 14.0005 9.69649 13.4643 9.69399 12.878L8.35156 12.873Z" fill="#D27857"/>
<path d="M9.69278 12.3829C9.69028 11.9454 9.68653 11.5604 9.68028 11.4417C9.66403 11.1242 9.43904 10.8767 9.00032 10.8617C8.64659 10.8492 8.35535 11.1255 8.3466 11.4517C8.3441 11.5717 8.3441 11.9492 8.3466 12.3767L9.69278 12.3829Z" fill="#D27857"/>
</svg>
