<svg width="18" height="18" viewBox="0 0 18 18" fill="none" xmlns="http://www.w3.org/2000/svg">
<path d="M13.2102 12.9052C12.469 12.884 11.7328 12.7315 11.0441 12.4553C10.8203 12.3653 10.5966 12.2715 10.3841 12.159C10.3016 12.1153 10.1979 12.0728 10.1379 11.9978C10.0841 11.9303 10.0741 11.8391 10.0466 11.7591C9.93787 11.4416 9.67288 11.4153 9.61288 11.3853C9.45039 11.3028 9.13791 11.0716 9.22915 10.8579C9.2879 10.7216 10.2004 10.2954 10.0141 9.51293C9.92287 9.1317 9.64163 9.30044 8.73418 8.97046C8.34545 8.82921 8.02672 8.53798 7.78048 8.2055C6.96177 7.1043 6.88428 5.99561 7.26551 4.70568C7.56799 3.68073 8.13171 2.73953 8.88917 1.98582C9.08041 1.79583 8.92792 1.47085 8.66043 1.5021C4.80064 1.95083 1.8333 5.3194 2.02329 9.34044C2.20453 13.1602 5.28436 16.2701 9.10166 16.4863C11.9865 16.6488 14.5426 15.1864 15.94 12.929C16.0813 12.7003 15.8538 12.424 15.6013 12.5165C14.8601 12.7903 14.0526 12.929 13.2102 12.9052Z" fill="#FFE558"/>
<path d="M13.2102 12.9052C12.469 12.884 11.7328 12.7315 11.0441 12.4553C10.8203 12.3653 10.5966 12.2715 10.3841 12.159C10.3016 12.1153 10.1979 12.0728 10.1379 11.9978C10.0841 11.9303 10.0741 11.8391 10.0466 11.7591C9.93787 11.4416 9.67288 11.4153 9.61288 11.3853C9.45039 11.3028 9.13791 11.0716 9.22915 10.8579C9.2879 10.7216 10.2004 10.2954 10.0141 9.51293C9.92287 9.1317 9.64163 9.30044 8.73418 8.97046C8.34545 8.82921 8.02672 8.53798 7.78048 8.2055C6.96177 7.1043 6.88428 5.99561 7.26551 4.70568C7.56799 3.68073 8.13171 2.73953 8.88917 1.98582C9.08041 1.79583 8.92792 1.47085 8.66043 1.5021C4.80064 1.95083 1.8333 5.3194 2.02329 9.34044C2.20453 13.1602 5.28436 16.2701 9.10166 16.4863C11.9865 16.6488 14.5426 15.1864 15.94 12.929C16.0813 12.7003 15.8538 12.424 15.6013 12.5165C14.8601 12.7903 14.0526 12.929 13.2102 12.9052Z" fill="#FFE558"/>
<path d="M14.914 13.9476C13.3979 15.2638 11.1442 15.9625 9.35182 15.8613C5.53453 15.6451 2.45469 12.5352 2.27345 8.71542C2.2222 7.62422 2.43594 6.52303 2.85967 5.50684C2.2672 6.64553 1.95722 7.95421 2.02346 9.34038C2.2047 13.1602 5.28454 16.27 9.10184 16.4863C11.9867 16.6487 14.5428 15.1863 15.9402 12.9289C15.984 12.8589 15.9927 12.784 15.9752 12.7165C15.6952 13.1714 15.3328 13.5827 14.914 13.9476Z" fill="#FBC02D"/>
<path d="M8.66094 1.50195C8.66094 1.50195 7.13352 2.77064 6.58105 4.31306C6.12733 5.58049 5.79735 8.16285 8.79719 9.22655L6.64605 11.3177C6.57105 11.2552 6.6523 10.4652 5.29862 9.80027C4.88364 9.59653 3.96494 9.98276 3.52997 9.82901C1.43758 9.08655 2.56627 6.08921 2.70751 5.81673C4.91989 1.57695 8.66094 1.50195 8.66094 1.50195Z" fill="url(#paint0_radial_4500_29115)"/>
<path d="M6.08412 9.63162C6.5216 9.70786 6.87158 9.34538 6.91908 8.9404C6.95658 8.61667 6.82783 8.31918 6.67409 8.18794C6.03163 7.63922 4.78919 8.18919 4.82294 9.27413C4.82544 9.34413 4.85044 9.41788 4.90668 9.46038C4.95418 9.36913 5.04043 8.95415 5.41666 8.78541C5.44416 8.77291 5.4804 8.77291 5.5054 8.79041C5.53915 8.81416 5.45791 9.52287 6.08412 9.63162Z" fill="#5D4037"/>
<path d="M8.76685 12.6478C7.95189 12.6478 7.51066 12.2866 7.31567 12.0378C7.24818 11.9528 7.26818 11.8291 7.35567 11.7653C7.41442 11.7228 7.49316 11.7166 7.55691 11.7516C8.16063 12.0853 8.97809 12.1478 9.6643 11.7903C9.80054 11.7191 9.89554 11.5478 9.98803 11.6378C10.0818 11.7278 10.0518 11.9478 9.95303 12.0866C9.79304 12.3153 9.46931 12.6478 8.76685 12.6478Z" fill="#5D4037"/>
<path d="M9.21776 10.9778C9.21026 10.9378 9.21276 10.8978 9.23026 10.8578C9.28901 10.7216 10.2015 10.2953 10.0152 9.51287C10.0052 9.47287 9.99397 9.44037 9.97897 9.41162L9.97522 9.41412C9.91522 9.75785 9.67149 10.0528 9.369 10.2278C9.27776 10.2803 9.18151 10.3241 9.09902 10.3891C9.01652 10.4541 8.94777 10.5466 8.94277 10.6516C8.93527 10.7853 9.03652 10.909 9.16026 10.9603C9.17901 10.969 9.19776 10.9728 9.21776 10.9778Z" fill="#F2A600"/>
<path d="M6.64609 11.3176C6.45235 11.7864 5.69239 11.9163 4.94868 11.6076C4.20497 11.3001 3.75874 10.6702 3.95248 10.2027C4.14622 9.73396 4.90618 9.60397 5.64989 9.9127C6.3936 10.2202 6.83983 10.8489 6.64609 11.3176Z" fill="url(#paint1_radial_4500_29115)"/>
<defs>
<radialGradient id="paint0_radial_4500_29115" cx="0" cy="0" r="1" gradientUnits="userSpaceOnUse" gradientTransform="translate(6.58069 4.5864) scale(5.11663 5.39958)">
<stop stop-color="#FFF7B3"/>
<stop offset="1" stop-color="#FFF7B2" stop-opacity="0"/>
</radialGradient>
<radialGradient id="paint1_radial_4500_29115" cx="0" cy="0" r="1" gradientUnits="userSpaceOnUse" gradientTransform="translate(5.53689 10.1008) rotate(-156.935) scale(2.01684 1.61194)">
<stop stop-color="#FBC02D"/>
<stop offset="1" stop-color="#FBC02D" stop-opacity="0"/>
</radialGradient>
</defs>
</svg>
