<svg width="18" height="18" viewBox="0 0 18 18" fill="none" xmlns="http://www.w3.org/2000/svg">
<path d="M10.8583 10.0316L3.70996 16.345C3.70996 16.345 5.85735 17.05 9.34091 15.8038C12.9145 14.5251 15.9518 11.1666 16.303 6.93679C16.608 3.26323 15.9356 2.8395 15.7268 2.56827C15.5231 2.30328 15.1794 2.26953 15.1794 2.26953L10.8583 10.0316Z" fill="#6D2A19"/>
<path d="M4.47839 5.08688C1.48105 8.36796 1.6023 12.2565 1.66854 13.7177C1.71229 14.6926 1.88103 15.1876 2.35476 15.7088C2.79723 16.195 3.72093 16.63 5.60208 16.2313C7.56073 15.8163 10.5418 14.4464 13.2417 11.3715C16.1053 8.10922 16.3403 2.96324 15.5653 2.40952C14.7903 1.8558 13.2192 1.43582 11.693 1.52457C10.1668 1.61331 7.2895 2.01079 4.47839 5.08688Z" fill="#9C3C25"/>
<path d="M2.33406 15.6906C2.29782 15.7143 2.00658 15.5256 1.99408 15.1806C1.97158 14.5981 2.36531 12.9245 2.92278 11.6458C3.4465 10.4421 3.82148 9.90339 3.82148 9.90339C3.82148 9.90339 3.46775 9.55841 3.48025 8.91594C3.49275 8.27347 3.71524 7.04604 6.16136 4.68241C8.75122 2.17629 9.62493 2.43753 10.0399 2.44753C10.3811 2.45628 10.9149 2.65877 10.9549 2.67002C10.9549 2.67002 11.7761 2.1338 12.621 1.95631C13.466 1.77882 14.3159 1.87756 14.4547 1.89131C14.5947 1.90506 14.8347 1.9838 15.0259 2.07505C15.2084 2.1613 15.4246 2.31379 15.4246 2.31379C15.4246 2.31379 13.9247 2.12755 12.9485 2.37753C11.9723 2.62752 11.3598 2.9925 11.3598 2.9925C11.3598 2.9925 11.6348 3.47748 11.6098 3.81371C11.5736 4.28993 11.2648 4.68241 10.3836 5.58736C9.61493 6.37732 6.85632 9.48716 6.51509 9.83589C6.07512 10.2884 5.52765 10.5021 5.03892 10.4546C4.55145 10.4071 4.25396 10.2171 4.25396 10.2171C4.25396 10.2171 3.71774 11.1333 3.32526 12.0983C2.93278 13.0632 2.6703 14.0507 2.44406 15.1694C2.38781 15.4518 2.40156 15.6456 2.33406 15.6906Z" fill="#6D291A"/>
<path d="M4.32893 9.76727C4.64766 9.95601 5.50136 10.0548 5.98634 9.66352C6.47131 9.27354 7.11128 8.36484 8.56245 6.75618C9.6624 5.53874 10.9261 4.50505 10.9861 3.91383C11.0648 3.13137 10.3599 2.85013 9.6024 2.90888C8.84619 2.96763 7.41501 4.00882 6.23258 5.23876C5.05014 6.46869 4.12769 7.63863 3.93895 8.46609C3.8227 8.97481 3.9427 9.53728 4.32893 9.76727Z" fill="#9C3C25"/>
<path d="M9.49805 1.87407C9.49805 1.87407 10.4542 2.04656 11.4354 2.69653C12.4166 3.34649 13.4866 4.19395 14.1416 4.91266C14.5128 5.32014 15.5477 6.64632 15.6077 6.64632C15.6677 6.64632 15.7865 5.85386 15.8227 5.55888C15.8577 5.26389 15.9177 4.97891 15.8815 4.87266C15.8465 4.76642 15.1552 3.84272 14.0366 2.85027C12.7654 1.72283 11.5854 1.52284 11.5854 1.52284C11.5854 1.52284 11.2792 1.51159 10.508 1.61159C9.94927 1.68533 9.49805 1.87407 9.49805 1.87407Z" fill="#F2F0EE"/>
<path d="M2.02893 9.62598C2.02893 9.62598 2.66265 9.77847 3.75009 10.5347C4.97503 11.3871 5.73624 12.0596 6.65869 13.0058C7.53489 13.9045 8.47609 15.0994 8.47609 15.1707C8.47609 15.2419 8.10361 15.3907 7.55739 15.6307C7.2899 15.7482 6.78118 15.9681 6.69744 15.9319C6.61494 15.8969 5.94373 14.8782 4.89628 13.8683C4.23382 13.2295 3.5126 12.5446 2.59015 11.9759C2.00018 11.6134 1.7002 11.5434 1.7002 11.5434C1.7002 11.5434 1.6977 11.1134 1.82144 10.4622C1.93269 9.88596 2.02893 9.62598 2.02893 9.62598Z" fill="#F2F0EE"/>
<path d="M7.64181 5.16949C6.06939 6.65942 4.28573 9.01929 4.18699 9.16303C4.01575 9.41052 4.012 9.60676 4.23324 9.74425C4.45447 9.88174 4.61447 9.66176 4.75446 9.48177C4.90945 9.28303 6.31688 7.24688 7.7868 5.83196C9.48671 4.1983 10.6541 3.42834 10.7966 3.28709C10.9016 3.1821 11.1754 3.06211 10.9504 2.84962C10.7791 2.68713 10.4417 2.89711 10.3004 3.00336C10.1579 3.1096 9.30547 3.59333 7.64181 5.16949Z" fill="#FDFFFF"/>
<path d="M9.27227 2.70114C9.04853 2.87488 9.06978 3.19236 9.33727 3.40235C9.54101 3.56234 9.97598 3.90608 10.1835 4.09607C10.436 4.3273 10.6772 4.37105 10.8634 4.22606C11.0584 4.07482 11.1597 3.69859 10.8134 3.3511C10.4697 3.00737 10.271 2.80113 9.90974 2.65739C9.67475 2.56365 9.43226 2.57865 9.27227 2.70114Z" fill="#FDFFFF"/>
<path d="M8.98456 3.55724C8.77832 3.47724 8.43084 3.321 8.15836 3.56849C7.88587 3.81598 8.02961 4.13471 8.2746 4.3122C8.51959 4.48969 8.87207 4.83967 9.22205 5.08841C9.42204 5.22965 9.76702 5.3459 10.012 5.07591C10.2145 4.85217 10.042 4.48219 9.88952 4.29595C9.71202 4.07721 9.34704 3.69723 8.98456 3.55724Z" fill="#FDFFFF"/>
<path d="M8.02874 4.58132C7.76126 4.43008 7.31253 4.28509 7.0088 4.59632C6.67632 4.93755 6.86381 5.18879 7.19004 5.39128C7.46377 5.56127 8.02124 6.04124 8.20248 6.16499C8.49872 6.36748 8.8762 6.27873 9.01994 6.05624C9.25868 5.68751 8.93245 5.25879 8.68746 5.0588C8.44872 4.86381 8.13749 4.64382 8.02874 4.58132Z" fill="#FDFFFF"/>
<path d="M5.96123 5.62255C5.75999 5.85629 5.73 6.10752 6.04123 6.44751C6.35246 6.78749 6.89743 7.18622 7.21242 7.29371C7.57365 7.4162 7.74739 7.27871 7.87738 7.07622C8.00738 6.87373 7.90488 6.41751 7.5724 6.12127C7.36241 5.93378 6.98743 5.6013 6.52495 5.50006C6.27372 5.44506 6.09123 5.47131 5.96123 5.62255Z" fill="#FDFFFF"/>
<path d="M5.46268 6.62855C5.28894 6.5798 5.0652 6.6498 4.93521 6.80979C4.80521 6.96853 4.74272 7.28351 4.89896 7.461C5.0577 7.64225 5.15394 7.70849 5.42018 7.93848C5.68767 8.16972 5.95515 8.4522 6.27388 8.48845C6.49762 8.51345 6.70011 8.40221 6.79511 8.25721C6.88885 8.11222 6.87885 7.78974 6.62137 7.51225C6.43888 7.31476 5.97515 6.77229 5.46268 6.62855Z" fill="#FDFFFF"/>
<path d="M4.01125 7.98675C3.74752 8.33048 3.89251 8.79671 4.54373 9.20794C5.07745 9.54667 5.54742 9.78415 5.86741 9.39543C6.16739 9.03044 5.87491 8.65796 5.20244 8.19549C4.57247 7.76301 4.24999 7.67677 4.01125 7.98675Z" fill="#FDFFFF"/>
</svg>
