<svg width="18" height="18" viewBox="0 0 18 18" fill="none" xmlns="http://www.w3.org/2000/svg">
<path d="M11.208 10.4236V10.1336C11.208 10.1336 10.8505 10.1098 10.6968 10.0511C10.6143 10.0198 10.513 9.84859 10.538 9.6886C10.5618 9.52986 10.668 9.44736 10.8568 9.45236C11.0493 9.45736 11.2768 9.47361 11.4842 9.50986C11.8367 9.57236 12.043 9.6611 12.0967 9.6836C12.1792 9.71735 12.2367 10.0161 12.0867 10.0886C11.9992 10.1311 11.773 10.1411 11.773 10.1411L11.778 10.4311L11.208 10.4236Z" fill="#B50D22"/>
<path d="M1.66384 15.3026C1.66384 15.3026 1.5701 14.8639 1.87758 14.5801C2.23381 14.2514 2.65254 14.1239 3.13751 13.9352C3.56124 13.7702 4.20121 13.5764 4.20121 13.5764L5.50864 12.7402C5.50864 12.7402 6.09236 12.6015 7.12855 12.6215C8.02726 12.639 9.51468 12.7677 9.51468 12.7677C9.51468 12.7677 9.83091 12.4315 10.3096 12.374C10.7884 12.3165 11.0008 12.3602 11.0008 12.3602L11.0446 10.3291C11.0446 10.3291 11.8558 10.3291 12.1158 10.3541C12.507 10.3928 12.9945 10.7978 13.132 10.9378C13.1682 10.9753 13.9007 11.764 13.9007 11.764L14.3644 11.9815C14.3644 11.9815 15.0156 9.42289 15.1081 9.39289C15.1094 9.39289 15.5369 9.35789 15.9218 9.34539C16.4293 9.32915 16.7868 9.34539 16.8293 9.37039C16.8605 9.38914 16.4931 11.1341 16.4931 11.1341L13.0307 15.6638C13.0307 15.6638 8.116 15.5338 8.086 15.4901C8.05725 15.4463 6.66483 14.7801 6.66483 14.7801C6.66483 14.7801 3.24251 15.1713 3.18501 15.2001C3.12751 15.2301 1.66384 15.3026 1.66384 15.3026Z" fill="#FF2A23"/>
<path d="M1.26875 15.1607C1.23 15.1857 1.21375 16.0331 1.24125 16.0519C1.26875 16.0706 2.23745 16.0706 2.23745 16.0706C2.23745 16.0706 2.26245 15.1607 2.14245 15.1607C2.02246 15.1607 1.29625 15.1419 1.26875 15.1607Z" fill="#636866"/>
<path d="M3.24994 15.179C3.24994 15.179 3.28619 16.1215 3.22744 16.149C3.16744 16.1765 2.17125 16.1765 2.13375 16.154C2.0975 16.1315 2.125 15.1703 2.12875 15.1565C2.1325 15.1415 3.27244 15.1465 3.24994 15.179Z" fill="#B50D22"/>
<path d="M7.27441 14.8071C7.27441 14.8071 8.08937 14.8796 8.70809 14.6271C9.21556 14.4196 9.4218 14.1384 9.74803 13.9696C9.91177 13.8846 10.243 13.8971 10.243 13.8971L10.3892 15.3708L7.5944 15.567L7.30191 15.1283L7.27441 14.8071Z" fill="#CF1A35"/>
<path d="M6.80176 15.2701H7.32173C7.32173 15.2701 6.98675 15.8026 6.95175 15.8551C6.91675 15.9076 6.92925 16.0001 7.10174 16.0051C7.27298 16.0101 12.6602 16.0051 12.6602 16.0051L12.0702 15.2277H7.42672C7.42672 15.2277 7.39673 14.9677 7.31048 14.7564C7.22424 14.5452 7.02675 14.3877 7.02675 14.3877L6.80176 15.2701Z" fill="#636866"/>
<path d="M9.99784 13.8526C9.98034 13.8764 9.96409 15.1976 9.99034 15.2238C10.0166 15.2501 10.6103 15.2463 10.6291 15.2313C10.6478 15.2163 10.6516 13.8939 10.6403 13.8714C10.6291 13.8489 10.0166 13.8264 9.99784 13.8526Z" fill="#8C1D0B"/>
<path d="M7.8174 12.4983C7.8149 12.6895 8.17988 12.9545 8.56361 12.9657C9.00358 12.9782 9.13358 12.8945 9.13858 12.7407C9.14358 12.587 9.13358 12.2695 9.13358 12.2695L8.08363 12.0508C8.08238 12.0508 7.82115 12.2283 7.8174 12.4983Z" fill="#B50D22"/>
<path d="M8.05371 12.0755C8.05371 12.0755 8.3012 11.8443 8.59868 11.783C8.86742 11.728 9.12865 11.738 9.12865 11.8255C9.12865 11.9743 9.13365 12.268 9.13365 12.268C9.13365 12.268 8.96866 12.4155 8.52244 12.373C8.23995 12.3468 8.09246 12.1355 8.05371 12.0755Z" fill="#FF2A23"/>
<path d="M14.0771 13.6707L16.1533 13.2458L16.4983 11.1309C16.4983 11.1309 15.5696 11.1221 14.8284 11.9858C14.1209 12.812 14.0771 13.6707 14.0771 13.6707Z" fill="#B50D22"/>
<path d="M15.087 13.2315L16.1519 13.2465C16.1519 13.2465 16.0981 14.0865 16.0194 14.3052C15.8832 14.6827 15.5944 14.6527 15.5944 14.6527C15.5944 14.6527 15.082 13.219 15.087 13.2315Z" fill="#636866"/>
<path d="M7.03945 14.5415C7.03945 15.6127 6.16575 16.4814 5.08956 16.4814C4.01337 16.4814 3.14341 15.7614 3.13966 14.5415C3.13591 13.4703 3.96837 12.6091 5.08956 12.6016C6.20575 12.5941 7.03945 13.4703 7.03945 14.5415Z" fill="#4C4038"/>
<path d="M5.0896 12.9033C4.1734 12.9033 3.42969 13.6395 3.42969 14.547C3.42969 15.4544 4.1734 16.1906 5.0896 16.1906C6.0058 16.1906 6.74951 15.4544 6.74951 14.547C6.74951 13.6395 6.00705 12.9033 5.0896 12.9033ZM5.07835 15.9544C4.31089 15.9544 3.68842 15.3257 3.68842 14.5507C3.68842 13.7758 4.31089 13.1471 5.07835 13.1471C5.84581 13.1471 6.46828 13.7758 6.46828 14.5507C6.46828 15.3269 5.84581 15.9544 5.07835 15.9544Z" fill="#F8A128"/>
<path d="M5.0676 13.5088C4.49763 13.5088 4.03516 13.9613 4.03516 14.52C4.03516 15.0787 4.49763 15.5312 5.0676 15.5312C5.63757 15.5312 6.10005 15.0787 6.10005 14.52C6.10005 13.9613 5.63757 13.5088 5.0676 13.5088ZM5.06385 15.09C4.74262 15.09 4.48138 14.8337 4.48138 14.5187C4.48138 14.2038 4.74262 13.9475 5.06385 13.9475C5.38508 13.9475 5.64632 14.2038 5.64632 14.5187C5.64632 14.8337 5.38508 15.09 5.06385 15.09Z" fill="#858583"/>
<path d="M15.724 14.5464C15.724 15.6176 14.8503 16.4863 13.7741 16.4863C12.6979 16.4863 11.828 15.7663 11.8242 14.5464C11.8205 13.4752 12.6529 12.614 13.7741 12.6065C14.8891 12.599 15.724 13.4752 15.724 14.5464Z" fill="#4C4038"/>
<path d="M13.7742 12.9082C12.858 12.9082 12.1143 13.6444 12.1143 14.5519C12.1143 15.4593 12.858 16.1955 13.7742 16.1955C14.6904 16.1955 15.4341 15.4593 15.4341 14.5519C15.4341 13.6444 14.6904 12.9082 13.7742 12.9082ZM13.7629 15.9593C12.9955 15.9593 12.373 15.3306 12.373 14.5556C12.373 13.7807 12.9955 13.1519 13.7629 13.1519C14.5304 13.1519 15.1528 13.7807 15.1528 14.5556C15.1516 15.3318 14.5304 15.9593 13.7629 15.9593Z" fill="#F8A128"/>
<path d="M13.7522 13.5146C13.1822 13.5146 12.7197 13.9671 12.7197 14.5258C12.7197 15.0846 13.1822 15.537 13.7522 15.537C14.3221 15.537 14.7846 15.0846 14.7846 14.5258C14.7846 13.9671 14.3221 13.5146 13.7522 13.5146ZM13.7484 15.0958C13.4272 15.0958 13.166 14.8396 13.166 14.5246C13.166 14.2096 13.4272 13.9534 13.7484 13.9534C14.0697 13.9534 14.3309 14.2096 14.3309 14.5246C14.3309 14.8396 14.0697 15.0958 13.7484 15.0958Z" fill="#858583"/>
<path d="M15.1076 9.39453L14.6489 12.2206L12.834 11.7969C12.834 11.7969 13.0202 11.5769 13.0815 11.3844C13.1465 11.1782 13.1327 10.9382 13.1327 10.9382L14.1314 11.7382C14.1314 11.7382 14.4614 9.892 14.4914 9.77951C14.5214 9.66702 14.6139 9.54702 14.7864 9.45453C14.8939 9.39828 15.1076 9.39453 15.1076 9.39453Z" fill="#636866"/>
</svg>
