<svg width="18" height="18" viewBox="0 0 18 18" fill="none" xmlns="http://www.w3.org/2000/svg">
<path d="M15.284 2.09157C12.6391 0.496658 9.65925 3.10902 8.87305 5.13391C8.08684 7.15756 9.34927 8.50374 9.34927 8.50374C9.34927 8.50374 5.40948 12.6223 5.13574 12.7285L5.23699 13.1922L9.55926 8.91246C9.55926 8.91246 10.2855 9.60743 11.5117 9.56743C13.6903 9.49618 14.714 8.34374 15.1902 7.81752C15.6802 7.2763 16.3214 6.37635 16.4639 4.98392C16.5701 3.94398 16.3976 2.76279 15.284 2.09157ZM14.3803 7.96751C12.8203 9.34869 11.2254 9.1462 10.6542 8.84872C10.083 8.55123 9.95174 8.34874 9.738 8.11001C9.60926 7.96626 8.96429 7.23505 9.19053 5.78263C9.35052 4.75768 9.88799 4.06522 10.5955 3.36026C11.3954 2.5628 13.6678 1.32786 15.264 2.80154C16.6339 4.06897 15.9389 6.58634 14.3803 7.96751Z" fill="#168DFC"/>
<path d="M15.0104 7.05032C13.7079 8.82023 11.2843 9.57394 9.95063 8.324L9.73689 8.11026C9.73689 8.11026 9.65315 8.18151 9.45066 8.12276C9.24817 8.06277 8.85569 7.50905 8.80819 6.78908C8.7057 5.23292 9.22317 4.22797 10.3319 3.20552C12.0105 1.65686 14.3117 1.43812 15.4516 2.7768C15.9278 3.33552 16.439 5.11042 15.0104 7.05032ZM16.3328 3.60425C16.2928 3.23177 16.0666 2.73305 15.7141 2.39557C13.9042 0.663158 11.3306 1.8181 10.1294 2.92554C8.81944 4.13422 8.53446 5.16917 8.45321 6.27411C8.35197 7.66029 9.06693 8.39275 9.06693 8.39275L4.88965 12.5675L4.96089 13.145L9.5444 8.58524C9.5444 8.58524 10.1606 9.24146 11.5205 9.29895C12.628 9.34645 13.7467 8.79148 14.5441 8.08402C15.5341 7.21156 16.5465 5.63415 16.3328 3.60425Z" fill="#05BEF2"/>
<path d="M8.32731 8.81358C8.31481 8.89483 9.04602 9.60479 9.14851 9.60479C9.25101 9.60479 9.69973 9.13356 9.69973 9.08232C9.69973 9.03107 8.98352 8.24986 8.87103 8.25986C8.75853 8.26861 8.34856 8.67984 8.32731 8.81358Z" fill="#62666A"/>
<path d="M4.49059 12.5797C4.49059 12.5797 4.46559 12.4497 4.59809 12.321C4.75558 12.1672 4.91307 12.2422 5.29305 12.651C5.68053 13.0672 5.79552 13.1984 5.64928 13.3822C5.50679 13.5609 5.34055 13.5184 5.34055 13.5184L2.78068 16.0558C2.78068 16.0558 2.81693 16.2958 2.64694 16.412C2.52195 16.4983 2.32571 16.4658 2.32571 16.4658L1.497 15.6108C1.497 15.6108 1.44325 15.4146 1.577 15.2721C1.71074 15.1296 1.90698 15.1833 1.90698 15.1833L4.49059 12.5797Z" fill="#62666A"/>
<path d="M4.85874 12.8185C4.78125 12.7748 4.63001 12.8123 4.54126 12.926C4.45251 13.0398 4.49626 13.1998 4.40752 13.2685C4.31877 13.3385 4.12753 13.326 3.93754 13.516C3.74755 13.706 3.77255 13.9985 3.63256 14.126C3.49257 14.2535 3.22883 14.2622 3.08634 14.406C2.87635 14.616 2.8576 14.9147 2.74385 15.0097C2.63011 15.1047 2.40762 15.0672 2.29263 15.1747C2.17763 15.2822 2.10264 15.5809 2.32388 15.6571C2.54512 15.7334 2.54012 15.5047 2.69261 15.4597C2.8451 15.4147 2.99134 15.3834 3.11884 15.2059C3.24633 15.0284 3.23258 14.8559 3.37257 14.7234C3.51256 14.5897 3.7413 14.596 3.90629 14.4497C4.07128 14.3035 4.05254 13.986 4.24253 13.821C4.43252 13.656 4.52876 13.751 4.675 13.5735C4.82124 13.396 4.7825 13.2235 4.90374 13.1673C5.02373 13.111 5.01748 12.9073 4.85874 12.8185Z" fill="#858485"/>
<path d="M14.0503 8.03137L9.94176 3.93534C9.89051 3.88409 9.89051 3.8016 9.94176 3.75035C9.993 3.6991 10.0755 3.6991 10.1267 3.75035L14.2653 7.85888C14.2653 7.85888 14.2215 7.89638 14.149 7.95513C14.1015 7.99137 14.0503 8.03137 14.0503 8.03137Z" fill="#B9CED4"/>
<path d="M14.888 7.20782L10.7007 3.06929C10.6495 3.01804 10.6495 2.93554 10.6995 2.8843C10.7507 2.83305 10.8332 2.83305 10.8844 2.88305L15.0492 6.99408C15.0492 6.99408 15.0267 7.03533 14.9717 7.10407C14.948 7.13407 14.888 7.20782 14.888 7.20782Z" fill="#B9CED4"/>
<path d="M12.9865 8.65058L9.34044 4.88578C9.29044 4.83454 9.29169 4.75079 9.34294 4.70079C9.39419 4.6508 9.47668 4.65204 9.52793 4.70329L13.244 8.53434C13.244 8.53434 13.1815 8.56434 13.1177 8.59559C13.0577 8.62434 12.9865 8.65058 12.9865 8.65058Z" fill="#B9CED4"/>
<path d="M11.623 8.94135L9.03561 6.204C8.98561 6.1515 8.98686 6.069 9.03936 6.01901C9.09185 5.96901 9.17435 5.97026 9.22435 6.02276C9.22435 6.02276 11.933 8.8551 11.9255 8.8651C11.9205 8.87135 11.8917 8.9276 11.7855 8.9301C11.7355 8.93135 11.623 8.94135 11.623 8.94135Z" fill="#B9CED4"/>
<path d="M15.5214 6.21106L11.7853 2.55625C11.7341 2.50625 11.7328 2.42251 11.7828 2.37126C11.8341 2.32001 11.9166 2.31876 11.9678 2.36876L15.6326 5.95607C15.6326 5.95607 15.6101 6.00982 15.5851 6.06732C15.5614 6.12481 15.5214 6.21106 15.5214 6.21106Z" fill="#B9CED4"/>
<path d="M15.9012 5.00028L13.1189 2.18667C13.0676 2.13543 13.0689 2.05293 13.1201 2.00168C13.1714 1.95044 13.2539 1.95169 13.3051 2.00293L15.9412 4.64279C15.9412 4.64279 15.925 4.85403 15.9012 5.00028Z" fill="#B9CED4"/>
<path d="M9.12169 5.72955C9.08919 5.72955 9.05544 5.71705 9.03044 5.69205C8.97919 5.64205 8.97794 5.55955 9.02794 5.50706L12.4815 2.09099C12.5315 2.03974 12.614 2.03849 12.6665 2.08849C12.7177 2.13849 12.719 2.22098 12.669 2.27348L9.21543 5.68955C9.19043 5.71705 9.15668 5.72955 9.12169 5.72955Z" fill="#B9CED4"/>
<path d="M9.15925 7.13731C9.1255 7.13731 9.093 7.12481 9.06676 7.09856C9.01551 7.04731 9.01551 6.96482 9.06676 6.91357L13.9552 2.03258C14.0065 1.98133 14.089 1.98133 14.1402 2.03258C14.1915 2.08382 14.1915 2.16632 14.1402 2.21757L9.2505 7.09856C9.2255 7.12356 9.19175 7.13731 9.15925 7.13731Z" fill="#B9CED4"/>
<path d="M9.68695 8.18963C9.6532 8.18963 9.62071 8.17713 9.59571 8.15213C9.54446 8.10088 9.54321 8.01839 9.59446 7.96714L14.9279 2.54493C14.9779 2.49368 15.0604 2.49243 15.1129 2.54368C15.1642 2.59492 15.1654 2.67742 15.1142 2.72867L9.7807 8.15088C9.75445 8.17713 9.7207 8.18963 9.68695 8.18963Z" fill="#B9CED4"/>
<path d="M10.4033 8.65191L15.7005 3.33594C15.7005 3.33594 15.7205 3.33844 15.7593 3.40968C15.7943 3.47343 15.8205 3.58967 15.8205 3.58967L10.6533 8.77065C10.6533 8.77065 10.5933 8.7519 10.5258 8.71815C10.4508 8.68066 10.4033 8.65191 10.4033 8.65191Z" fill="#B9CED4"/>
<path d="M11.6191 8.94226L15.9464 4.4375C15.9502 4.55749 15.9252 4.84873 15.9252 4.84873L12.0391 8.91226C12.0391 8.91226 11.8579 8.94226 11.6191 8.94226Z" fill="#B9CED4"/>
<path d="M5.42682 2.79547C5.33433 2.76797 2.20824 2.73047 2.20824 2.73047C2.20824 2.73047 1.92076 2.74922 1.79077 3.0367C1.66077 3.32419 1.72577 3.56542 1.72577 3.56542C1.72577 3.56542 1.42954 3.72292 1.44703 4.23289C1.45828 4.54912 1.68827 4.78036 1.68827 4.78036C1.68827 4.78036 1.53953 5.04035 1.72577 5.44783C1.87076 5.76656 2.24449 5.80031 2.24449 5.80031C2.24449 5.80031 2.22449 6.11279 2.40198 6.31028C2.64322 6.57902 2.97695 6.48652 2.97695 6.48652C2.97695 6.48652 3.06945 6.774 3.42193 6.8665C3.77441 6.959 4.0619 6.62526 4.0619 6.62526L6.03804 4.48288L5.62056 3.63042L5.42682 2.79547Z" fill="#E1F7FE"/>
<path d="M5.59499 2.68493C5.59499 2.68493 5.95747 2.52368 6.3262 2.55868C6.68494 2.59243 6.86493 2.77617 7.00492 3.0874C7.16116 3.43364 7.19616 3.70237 7.01367 4.00236C6.79868 4.35609 6.31745 4.43733 6.31745 4.43733C6.31745 4.43733 5.91873 4.36109 5.81748 4.22859C5.70499 4.0811 5.44375 3.40489 5.43 3.21115C5.405 2.84117 5.59499 2.68493 5.59499 2.68493Z" fill="#E1E1E1"/>
<path d="M6.59334 2.8551C6.42835 2.66261 6.01087 2.8276 5.91463 3.21133C5.81838 3.59506 6.07212 3.82879 6.26461 3.7938C6.4571 3.76005 6.41585 3.40257 6.51085 3.28007C6.60709 3.15633 6.73084 3.01509 6.59334 2.8551Z" fill="white"/>
<path d="M1.79321 3.63987C1.76947 3.63987 1.75697 3.63987 1.75572 3.63987C1.68322 3.63862 1.62572 3.57987 1.62697 3.50738C1.62822 3.43488 1.69072 3.37988 1.75947 3.37863C1.76697 3.37863 2.46318 3.32864 3.20689 3.26239C4.15059 3.17864 5.32178 3.00115 5.33303 2.99865C5.40302 2.9874 5.47052 3.0374 5.48177 3.10865C5.49177 3.17989 5.44302 3.24614 5.37178 3.25739C5.36053 3.25864 4.17434 3.41488 3.22939 3.51488C2.49693 3.59362 1.95196 3.63987 1.79321 3.63987Z" fill="#AAE2F9"/>
<path d="M1.68999 4.84371C1.68999 4.84371 1.57374 4.87495 1.535 4.75371C1.4975 4.63622 1.60999 4.59497 1.60999 4.59497C1.60999 4.59497 2.94617 4.16999 3.49489 3.9925C4.03611 3.81626 5.3323 3.38003 5.3448 3.37628C5.41354 3.35253 5.48729 3.39003 5.50979 3.45878C5.53229 3.52752 5.49604 3.60127 5.42729 3.62377C5.41479 3.62877 4.11736 4.065 3.57489 4.24124C3.02742 4.41873 1.68999 4.84371 1.68999 4.84371Z" fill="#AAE2F9"/>
<path d="M2.23107 5.86648C2.18732 5.86648 2.14357 5.84398 2.11983 5.80398C2.08233 5.74273 2.10108 5.66149 2.16357 5.62399C2.17232 5.61899 2.99978 5.10902 3.89723 4.60529C4.77094 4.11532 5.47215 3.76284 5.47965 3.75909C5.54464 3.72659 5.62214 3.75284 5.65464 3.81658C5.68714 3.88158 5.66089 3.95908 5.59714 3.99158C5.58964 3.99533 4.89343 4.34531 4.02597 4.83153C3.13352 5.3315 2.30982 5.83898 2.30107 5.84523C2.27857 5.86023 2.25482 5.86648 2.23107 5.86648Z" fill="#AAE2F9"/>
<path d="M3.06618 6.61995C3.02994 6.61995 2.99494 6.60495 2.96869 6.5762C2.92119 6.52245 2.92494 6.43996 2.97869 6.39121C2.98869 6.38246 3.81239 5.67 4.32112 5.24127C4.83484 4.81004 5.6498 4.11133 5.6498 4.11133L5.81979 4.31007C5.81979 4.31007 5.00358 5.01003 4.48861 5.44251C3.98239 5.86874 3.16118 6.5787 3.15118 6.58745C3.12868 6.60995 3.09743 6.61995 3.06618 6.61995Z" fill="#AAE2F9"/>
<path d="M5.62942 2.66895L5.26444 2.77394C5.26444 2.77394 5.11819 3.06892 5.37943 3.75389C5.59942 4.33011 5.94815 4.60384 5.94815 4.60384L6.31813 4.4401C6.31813 4.4401 5.96815 4.08387 5.77691 3.6039C5.58067 3.11017 5.62942 2.66895 5.62942 2.66895Z" fill="#FD1B0D"/>
</svg>
