<svg width="18" height="18" viewBox="0 0 18 18" fill="none" xmlns="http://www.w3.org/2000/svg">
<path d="M10.6262 6.05226L3.47656 13.7031C3.47656 13.7031 5.75644 16.4417 9.3975 16.2767C11.9024 16.163 13.4048 15.2293 14.6347 13.8168C16.1371 12.0907 16.4759 9.55832 16.3884 8.39713C16.2746 6.89471 15.2497 4.93607 14.4522 4.3436C13.6548 3.75113 10.6262 6.05226 10.6262 6.05226Z" fill="#D7CCC6"/>
<path d="M4.13635 3.61582C1.76647 5.72446 0.200303 10.5117 3.47638 13.7028C5.23004 15.4102 10.9672 15.4964 13.6996 11.9216C14.9833 10.243 16.0132 7.61686 15.317 5.52822C15.0433 4.70827 14.3083 4.11955 13.6546 3.56958C10.5123 0.928466 7.02869 1.04221 4.13635 3.61582Z" fill="#F1EDEC"/>
<path d="M9.70856 16.5107L9.22233 16.4707C9.23233 16.4244 10.2448 11.8747 7.28493 8.89234C5.97 7.56741 4.75882 6.95494 3.68387 7.07368C2.56393 7.19618 1.81897 8.23362 1.81397 8.24362L1.58398 7.7774C1.61273 7.7324 2.2727 6.7262 3.63013 6.57746C4.86506 6.44372 6.21374 7.10368 7.64117 8.54111C10.796 11.7222 9.75355 16.3132 9.70856 16.5107Z" fill="#979892"/>
<path d="M16.2488 8.60107C16.215 8.57857 12.9289 6.25244 11.2328 4.80502C9.70786 3.50509 7.68672 1.68893 7.66797 1.67018L8.0192 1.4502C8.03795 1.46769 9.9841 3.19385 11.504 4.49003C13.1852 5.92371 16.3363 8.18234 16.37 8.20484L16.2488 8.60107Z" fill="#979892"/>
<path d="M9.54286 3.03169C9.48036 3.09794 9.31912 3.58041 9.25662 3.84915C9.22037 4.00289 9.24287 4.24163 9.43536 4.27288C9.65035 4.30912 9.7316 4.18538 9.79784 4.00164C9.86409 3.8179 9.98158 3.48542 9.98158 3.48542C9.98158 3.48542 10.3241 3.37167 10.4928 3.32168C10.7178 3.25543 10.784 3.16293 10.789 3.04544C10.794 2.92795 10.6715 2.70796 10.2928 2.79545C10.0591 2.85045 9.6341 2.9342 9.54286 3.03169Z" fill="#ED520A"/>
<path d="M8.43851 2.09829C8.38476 2.14204 8.12727 2.76826 8.08602 2.847C8.04353 2.92575 8.01728 3.12699 8.16477 3.21198C8.31226 3.29698 8.4735 3.15074 8.52975 3.02574C8.58475 2.90075 8.74599 2.52952 8.74599 2.52952C8.74599 2.52952 9.13972 2.50827 9.28096 2.48827C9.45345 2.46452 9.5847 2.41703 9.5747 2.21829C9.5647 2.01955 9.24346 2.03455 8.91223 2.05579C8.70349 2.06829 8.47475 2.06829 8.43851 2.09829Z" fill="#ED520A"/>
<path d="M7.6672 1.37677C7.5772 1.41801 7.22722 1.7755 7.18098 1.83674C7.13473 1.89799 7.09973 2.03048 7.21722 2.12298C7.33472 2.21547 7.49846 2.13798 7.5847 2.07673C7.6722 2.01548 7.83469 1.81549 7.83469 1.81549C7.83469 1.81549 8.17217 1.82049 8.26967 1.82549C8.36716 1.83049 8.49466 1.75425 8.49466 1.6005C8.49466 1.44676 8.31592 1.38552 8.16717 1.38052C8.01968 1.37677 7.72345 1.35052 7.6672 1.37677Z" fill="#ED520A"/>
<path d="M10.9575 4.20748C10.875 4.27248 10.6725 4.99869 10.63 5.14493C10.5875 5.29118 10.5187 5.60366 10.735 5.67116C10.9625 5.7424 11.115 5.64116 11.1825 5.38367C11.2449 5.14618 11.3874 4.64996 11.3874 4.64996C11.3874 4.64996 11.9337 4.44872 12.0537 4.40247C12.1736 4.35622 12.3124 4.20373 12.2286 4.01624C12.1449 3.82875 11.9062 3.8525 11.7887 3.895C11.7899 3.89625 11.0375 4.14499 10.9575 4.20748Z" fill="#ED520A"/>
<path d="M12.3671 5.41726C12.3096 5.49226 12.1171 6.16347 12.0859 6.30222C12.0546 6.43971 12.0559 6.6597 12.2746 6.71595C12.4533 6.76219 12.5971 6.6697 12.6371 6.50096C12.7046 6.22097 12.8521 5.81599 12.8521 5.81599C12.8521 5.81599 13.2408 5.596 13.3883 5.51976C13.537 5.44351 13.6033 5.23352 13.5108 5.08478C13.4183 4.93604 13.2095 4.95729 13.0046 5.02853C12.8008 5.10103 12.4183 5.35102 12.3671 5.41726Z" fill="#ED520A"/>
<path d="M13.7653 6.47249C13.6929 6.58123 13.6729 7.2237 13.6729 7.32119C13.6729 7.41869 13.7441 7.67367 13.9741 7.67367C14.1791 7.67367 14.2653 7.45369 14.2653 7.34119C14.2653 7.2287 14.2903 6.79372 14.2903 6.79372C14.2903 6.79372 14.5541 6.65373 14.6478 6.58873C14.7753 6.50124 14.919 6.33874 14.8265 6.165C14.734 5.99126 14.4891 6.04251 14.3303 6.10876C14.2191 6.1575 13.8166 6.39624 13.7653 6.47249Z" fill="#ED520A"/>
<path d="M15.0452 7.51092C15.0002 7.61967 14.9977 8.22588 15.0077 8.38963C15.0177 8.55337 15.1565 8.69586 15.3352 8.69086C15.514 8.68586 15.5965 8.51712 15.5902 8.38463C15.584 8.25213 15.6002 7.81716 15.6002 7.81716C15.6002 7.81716 15.8377 7.65216 15.9014 7.60717C15.9989 7.54092 16.0189 7.38218 15.9327 7.25969C15.8452 7.13719 15.6665 7.10094 15.4977 7.19844C15.329 7.29593 15.0627 7.46717 15.0452 7.51092Z" fill="#ED520A"/>
<path d="M15.9945 8.18929C15.9132 8.32928 15.9895 8.96675 15.9895 9.028C15.9895 9.08924 16.0095 9.29923 16.2195 9.29923C16.4032 9.29923 16.4645 9.18674 16.4695 9.08424C16.4745 8.98175 16.4595 8.40428 16.4595 8.40428C16.4595 8.40428 16.6382 8.34803 16.562 8.11304C16.4857 7.87931 16.0795 8.0443 15.9945 8.18929Z" fill="#ED520A"/>
<path d="M8.82967 16.1759C8.75968 16.2996 8.77468 16.4621 9.03841 16.5946C9.3034 16.7271 9.35715 16.7346 9.41339 16.7384C9.51214 16.7434 9.73838 16.6671 9.88712 16.5846C10.0059 16.5184 10.1521 16.4196 10.0471 16.2272C9.94961 16.0472 9.41964 16.2596 9.41964 16.2596C9.41964 16.2596 8.95092 15.9622 8.82967 16.1759Z" fill="#ED520A"/>
<path d="M8.79584 15.0471C8.6496 15.182 8.74584 15.3833 9.04333 15.5758C9.30831 15.747 9.45706 15.8733 9.57205 15.8733C9.68704 15.8733 10.1208 15.6545 10.2333 15.592C10.4045 15.4983 10.4595 15.3108 10.327 15.1783C10.1945 15.0458 10.007 15.1833 9.91328 15.2333C9.81954 15.2833 9.60455 15.387 9.60455 15.387C9.60455 15.387 9.32331 15.1833 9.22957 15.1171C9.13582 15.0508 8.93958 14.9146 8.79584 15.0471Z" fill="#ED520A"/>
<path d="M8.65369 13.6619C8.5337 13.8419 8.6037 14.0306 8.88993 14.1906C9.17617 14.3506 9.5349 14.4931 9.64989 14.5106C9.76489 14.5281 10.2174 14.1356 10.3049 14.0531C10.3924 13.9706 10.6348 13.7119 10.4811 13.5356C10.2974 13.3257 10.1011 13.4856 9.92488 13.6069C9.78989 13.6994 9.63239 13.8156 9.63239 13.8156C9.63239 13.8156 9.32991 13.7331 9.15367 13.6506C8.97868 13.5681 8.76369 13.4969 8.65369 13.6619Z" fill="#ED520A"/>
<path d="M9.36728 12.1934C9.36728 12.1934 9.68102 11.8684 9.79726 11.7584C9.9135 11.6484 10.111 11.5385 10.2597 11.7147C10.4085 11.8909 10.2547 12.1559 10.116 12.2822C9.97725 12.4084 9.62602 12.8221 9.52603 12.8384C9.42603 12.8546 8.69482 12.7221 8.48483 12.6121C8.36109 12.5472 8.16485 12.4247 8.27609 12.1772C8.36734 11.9722 8.57358 11.9959 8.72732 12.0284C8.88106 12.0609 9.36728 12.1934 9.36728 12.1934Z" fill="#ED520A"/>
<path d="M8.62008 10.4254C8.62008 10.4254 8.88506 9.88545 8.97256 9.69296C9.0613 9.50047 9.1713 9.32423 9.41878 9.41173C9.66627 9.49922 9.59127 9.73296 9.50753 9.9567C9.40878 10.2217 9.13255 10.9204 9.01131 10.9816C8.86381 11.0554 8.08635 11.0804 7.81637 11.0754C7.69513 11.0729 7.55763 10.9866 7.56263 10.8217C7.56763 10.6567 7.67013 10.5417 7.93761 10.4967C8.1026 10.4692 8.62008 10.4254 8.62008 10.4254Z" fill="#ED520A"/>
<path d="M7.39692 8.64091C7.36943 8.65716 6.80071 8.88589 6.65821 8.92714C6.44947 8.98714 6.37698 9.19713 6.42198 9.34587C6.46697 9.49461 6.66946 9.57211 6.90695 9.49961C7.14319 9.42837 7.8594 9.24588 7.92565 9.14213C7.99189 9.03839 8.10189 8.29968 8.12439 8.10719C8.14688 7.9147 8.15188 7.67221 7.89815 7.63346C7.64441 7.59471 7.54067 7.76595 7.51817 7.94719C7.50442 8.05844 7.39692 8.64091 7.39692 8.64091Z" fill="#ED520A"/>
<path d="M5.86501 7.40486C5.86501 7.40486 5.90876 6.90363 5.92501 6.75489C5.94126 6.60615 5.99626 6.40741 6.25499 6.42491C6.51373 6.44241 6.48623 6.77739 6.48623 6.99238C6.48623 7.20737 6.43623 7.76859 6.40373 7.79609C6.37124 7.82358 6.02375 8.09357 5.84251 8.21481C5.66127 8.33606 5.36879 8.4173 5.25879 8.25231C5.1488 8.08732 5.30879 7.82983 5.48503 7.69734C5.66127 7.56485 5.86501 7.40486 5.86501 7.40486Z" fill="#ED520A"/>
<path d="M4.28139 5.71862C4.0264 5.78236 4.0389 6.0486 4.1164 6.31859C4.19389 6.58857 4.23764 6.80856 4.23764 6.80856C4.23764 6.80856 4.0564 7.08979 3.9789 7.18854C3.90141 7.28728 3.65892 7.57977 3.91266 7.78851C4.16639 7.99725 4.41388 7.62852 4.50763 7.51852C4.59887 7.41228 4.89886 7.0123 4.89886 6.9573C4.89886 6.79731 4.73386 6.20859 4.69512 6.0811C4.65637 5.95361 4.56762 5.64737 4.28139 5.71862Z" fill="#ED520A"/>
<path d="M2.45075 6.14006C2.33701 6.21756 2.27951 6.4538 2.42325 6.65754C2.54075 6.82503 2.62699 6.99877 2.62699 6.99877C2.62699 6.99877 2.47325 7.44499 2.412 7.58874C2.35076 7.73248 2.27951 8.04621 2.53325 8.14496C2.78698 8.2437 2.96322 7.96872 3.02947 7.76498C3.09572 7.56124 3.27196 7.10376 3.27696 6.96627C3.28071 6.87502 3.04072 6.4263 2.93573 6.27256C2.83073 6.11881 2.62199 6.02507 2.45075 6.14006Z" fill="#ED520A"/>
<path d="M2.03275 7.70926C2.0615 7.8405 1.989 8.21048 1.91651 8.52421C1.89526 8.61671 1.86401 8.8242 1.60277 8.76045C1.37654 8.70545 1.47028 8.41922 1.49778 8.27548C1.51403 8.19048 1.58028 7.918 1.58028 7.918C1.58028 7.918 1.46028 7.853 1.46403 7.71426C1.46903 7.53302 1.56278 7.47177 1.71152 7.46052C1.86026 7.44927 2.01025 7.61051 2.03275 7.70926Z" fill="#ED520A"/>
</svg>
