<svg width="18" height="18" viewBox="0 0 18 18" fill="none" xmlns="http://www.w3.org/2000/svg">
<path d="M3.78906 14.527C3.78906 14.527 6.19144 17.0543 10.3125 16.4131C14.4335 15.7731 16.0859 12.1596 16.4259 10.0997C16.8584 7.47608 15.6597 5.67242 15.5959 5.57368C15.5484 5.50118 3.78906 14.527 3.78906 14.527Z" fill="#DC5819"/>
<path d="M3.6008 3.68833C1.13218 6.28694 0.713449 10.083 2.5696 13.0166C3.43331 14.3815 3.96203 14.659 3.96203 14.659C3.96203 14.659 8.00056 17.2489 12.5391 13.3228C16.4264 9.9605 15.6027 5.58198 15.6027 5.58198C15.6027 5.58198 15.1177 4.52204 14.0977 3.51584C11.8341 1.28096 6.77438 0.346007 3.6008 3.68833Z" fill="#EF6C32"/>
<path d="M13.4954 3.00498C13.4591 3.00748 9.84807 3.26746 6.02828 8.40219C3.6159 11.6445 3.73465 13.9332 3.82839 14.5606C3.82839 14.5606 3.64465 14.4094 3.51466 14.2694C3.38467 14.1306 3.28342 14.0069 3.28342 14.0069C3.27342 12.9082 3.60215 10.8258 5.6283 8.10346C8.71188 3.95493 11.6605 2.87374 12.8967 2.59375C12.8967 2.59375 13.0479 2.6825 13.1941 2.77374C13.3016 2.84124 13.4954 3.00498 13.4954 3.00498Z" fill="#2D3130"/>
<path d="M2.94616 4.47266C3.34738 5.13137 4.31608 6.55505 5.99349 8.04122C8.10463 9.91362 10.2995 11.436 12.5144 12.5647C13.5606 13.0985 14.3643 13.4109 14.933 13.5947C14.933 13.5947 14.8505 13.7209 14.773 13.8247C14.6955 13.9284 14.6105 14.0159 14.6105 14.0159C14.0318 13.8197 13.2594 13.5072 12.2857 13.0097C10.0333 11.861 7.8034 10.3148 5.66101 8.41495C4.0736 7.00752 3.11115 5.67509 2.63867 4.92888C2.63867 4.92888 2.70492 4.79764 2.79241 4.6814C2.87991 4.56515 2.94616 4.47266 2.94616 4.47266Z" fill="#2D3130"/>
<path d="M7.64743 1.59668C7.46869 1.80042 7.2137 2.13165 6.91622 2.63288C6.64373 3.09035 6.50374 3.54533 6.34125 4.0728C6.07501 4.93775 5.77378 5.9177 4.78758 7.17014C3.41765 8.91004 2.07147 9.49126 1.44401 9.6775C1.44401 9.6775 1.42651 9.51501 1.42026 9.40127C1.41401 9.28752 1.41651 9.15878 1.41651 9.15878C2.01273 8.95504 3.19267 8.38507 4.39385 6.8614C5.32255 5.68146 5.60879 4.74901 5.86252 3.92656C6.02752 3.39158 6.18251 2.88661 6.48624 2.37789C6.62998 2.13665 6.76498 1.93041 6.88872 1.75792C6.88872 1.75792 7.02746 1.71167 7.21745 1.66918C7.36495 1.63418 7.64743 1.59668 7.64743 1.59668Z" fill="#2D3130"/>
<path d="M9.58933 16.5009C9.1706 16.1222 8.30565 15.2572 7.67443 14.0536C6.97572 12.7224 6.64824 10.72 7.58069 9.46879C8.64563 8.04137 10.6343 7.84763 12.4417 7.84763C12.4442 7.84763 12.4467 7.84763 12.4492 7.84763C14.7503 7.84888 16.4815 8.3301 16.5015 8.33635C16.5015 8.33635 16.4877 8.16761 16.469 8.02387C16.4527 7.90013 16.4352 7.78513 16.4352 7.78513C16.3477 7.76263 14.8178 7.34891 12.4492 7.34766C12.4467 7.34766 12.4442 7.34766 12.4417 7.34766C10.5105 7.34766 8.37565 7.56514 7.17946 9.17006C6.4095 10.2025 6.12701 12.1849 7.23196 14.286C7.75193 15.276 8.40689 16.0397 8.88562 16.5209C8.88562 16.5209 9.02561 16.5259 9.20435 16.5234C9.38059 16.5209 9.58933 16.5009 9.58933 16.5009Z" fill="#2D3130"/>
</svg>
