<svg width="18" height="18" viewBox="0 0 18 18" fill="none" xmlns="http://www.w3.org/2000/svg">
<path d="M11.0359 11.1214L10.8322 10.8289C10.6947 10.6302 10.3347 10.5439 10.3347 10.5439L9.60349 11.0514L9.09602 11.7264C8.97978 11.9001 8.98103 12.1264 9.09977 12.2976L9.19102 12.4301C9.21601 12.4663 9.25601 12.4851 9.29601 12.4851C9.32101 12.4851 9.34601 12.4776 9.36851 12.4626L10.9997 11.3252C11.0659 11.2789 11.0809 11.1877 11.0359 11.1214Z" fill="#4568AD"/>
<path d="M7.4609 2.29381C7.05592 1.87259 6.29471 1.63885 5.74849 1.84884C5.13727 2.08383 4.89229 2.60755 4.92353 3.20002C4.93478 3.41501 4.98478 3.62124 5.05228 3.76124C5.05978 3.77749 5.12227 3.89873 5.13352 3.93873C5.18977 4.08872 4.92103 4.30496 4.92103 4.4837C4.92103 4.61744 5.20977 4.64369 5.23477 4.66244C5.36476 4.75618 5.31351 5.33615 6.06722 5.23991C6.32096 5.20741 6.33346 5.18116 6.4247 5.17616C6.66219 5.16116 7.33216 5.3799 7.33216 5.3799L7.59714 4.82493C7.59714 4.82493 7.37965 4.72494 7.59214 4.05372C7.75463 3.53875 7.71964 2.5638 7.4609 2.29381Z" fill="#E0BB95"/>
<path d="M5.37625 4.9532C5.47999 4.9382 5.57749 4.8932 5.64998 4.8107C5.72998 4.72071 5.64873 4.65696 5.54999 4.72446C5.48999 4.76571 5.4 4.79946 5.3125 4.80071L5.37625 4.9532Z" fill="#6D4C41"/>
<path d="M5.66034 4.1334C5.7347 4.11493 5.77219 4.00816 5.74406 3.89494C5.71593 3.78172 5.63284 3.70491 5.55848 3.72339C5.48411 3.74186 5.44663 3.84862 5.47476 3.96184C5.50289 4.07507 5.58597 4.15187 5.66034 4.1334Z" fill="#5D4037"/>
<path d="M5.45551 3.66695C5.33926 3.74695 5.28176 3.6732 5.30176 3.59071C5.31676 3.53071 5.38051 3.46321 5.5405 3.44196C5.69049 3.42322 5.77674 3.48446 5.83049 3.52071C5.88548 3.55696 5.89673 3.60821 5.86548 3.6232C5.82424 3.64445 5.6005 3.56821 5.45551 3.66695Z" fill="#AB872F"/>
<path d="M7.64107 2.51939C7.58732 2.44689 7.52858 2.3794 7.46108 2.3194C7.36608 2.2344 7.25609 2.16816 7.1411 2.11441C6.83611 1.97317 6.48613 1.92692 6.15615 1.99442C5.82617 2.06191 5.52118 2.2469 5.31494 2.51314C5.1562 2.71938 5.05871 3.00186 5.1587 3.24185C5.28244 3.2056 5.37369 3.09811 5.50868 3.07061C5.68367 3.03311 5.87491 3.03061 6.02365 2.93187C6.08115 2.89437 6.1299 2.84312 6.18365 2.80062C6.1974 2.79687 6.20615 2.79562 6.20615 2.79562C6.44488 2.86437 6.26864 3.42434 6.56988 3.66808C6.62987 3.71682 6.69987 3.75682 6.69987 3.75682C6.69987 3.75682 6.64862 3.36184 6.90111 3.35809C7.16359 3.35434 7.18484 3.62308 7.10985 3.85182C7.03235 4.0893 6.89861 4.00556 6.94611 4.08431C7.0236 4.21305 7.42233 4.25055 7.54732 4.2243C7.71482 4.19055 7.82231 4.00806 7.92231 3.86932C8.03855 3.70932 8.02855 3.51933 8.01105 3.32185C7.99105 3.10436 7.88731 2.90312 7.77231 2.71688C7.73107 2.64813 7.68857 2.58188 7.64107 2.51939Z" fill="#AB872F"/>
<path d="M11.4454 7.20184L10.6692 5.74316L7.66306 7.48182V7.48307C7.32058 7.66431 7.19184 8.08929 7.37308 8.43177C7.39182 8.46802 7.41432 8.50052 7.43932 8.53177L7.44432 8.53802C7.45057 8.54552 7.45682 8.55302 7.46307 8.56177L9.57046 11.0954L10.4554 10.4442L9.03299 8.37552L11.4454 7.20184Z" fill="#BA8F63"/>
<path d="M11.9381 6.00239C11.7631 5.67241 11.4219 5.48242 11.0706 5.48242C10.9144 5.48242 10.7569 5.51992 10.6094 5.59742V5.59617L8.48828 6.8286L9.36823 8.48351L11.5319 7.33232C12.0131 7.07734 12.1943 6.48237 11.9381 6.00239Z" fill="#646464"/>
<path d="M9.91296 9.65723L8.95801 10.3597L9.57048 11.0959L10.4542 10.4447L9.91296 9.65723Z" fill="#E0E0E0"/>
<path d="M13.1908 10.5508C11.5821 10.5508 10.2734 11.8595 10.2734 13.4669C10.2734 15.0755 11.5821 16.383 13.1908 16.383C14.7982 16.383 16.1069 15.0743 16.1069 13.4669C16.1069 11.8582 14.7982 10.5508 13.1908 10.5508ZM13.1908 15.3418C12.1583 15.3418 11.3146 14.5006 11.3146 13.4669C11.3146 12.4332 12.1571 11.592 13.1908 11.592C14.2245 11.592 15.0657 12.4332 15.0657 13.4669C15.0657 14.5006 14.2232 15.3418 13.1908 15.3418Z" fill="url(#paint0_radial_4219_17432)"/>
<path d="M4.8109 10.5508C3.20224 10.5508 1.89355 11.8595 1.89355 13.4669C1.89355 15.0755 3.20224 16.383 4.8109 16.383C6.41832 16.383 7.727 15.0743 7.727 13.4669C7.72575 11.8582 6.41832 10.5508 4.8109 10.5508ZM4.8109 15.3418C3.77846 15.3418 2.93475 14.5006 2.93475 13.4669C2.93475 12.4332 3.77721 11.592 4.8109 11.592C5.8446 11.592 6.6858 12.4332 6.6858 13.4669C6.6858 14.5006 5.8446 15.3418 4.8109 15.3418Z" fill="url(#paint1_radial_4219_17432)"/>
<path d="M13.4894 13.2583C13.4782 13.2283 13.4632 13.2008 13.4432 13.1745L12.297 11.6321L11.0245 9.91471L11.492 8.89851C11.502 8.87726 11.5095 8.85476 11.5145 8.83226C11.5195 8.80977 11.5233 8.78727 11.5233 8.76477C11.5245 8.74227 11.522 8.71977 11.5183 8.69852C11.5108 8.65477 11.4958 8.61353 11.472 8.57603C11.437 8.51978 11.387 8.47228 11.322 8.44354C11.2995 8.43354 11.277 8.42604 11.2533 8.42104C11.2445 8.41979 11.237 8.41854 11.2283 8.41729C11.2133 8.41479 11.1983 8.41229 11.1833 8.41229C11.182 8.41229 11.1808 8.41229 11.1783 8.41229C11.1745 8.41229 11.1708 8.41354 11.1683 8.41354C11.1433 8.41479 11.1183 8.41729 11.0945 8.42354C11.0883 8.42479 11.082 8.42604 11.0758 8.42854C11.0483 8.43729 11.022 8.44853 10.997 8.46353C10.9958 8.46478 10.9933 8.46603 10.992 8.46728C10.9695 8.48228 10.9496 8.49978 10.9308 8.51853C10.9258 8.52353 10.9208 8.52978 10.9158 8.53478C10.8971 8.55728 10.8796 8.58228 10.8671 8.60978L10.8646 8.61478L10.4133 9.59597L6.41729 9.01851L6.55103 8.51228C6.59978 8.32979 6.48979 8.1423 6.30605 8.09355C6.3048 8.09355 6.3023 8.09355 6.30105 8.0923C6.27355 8.0848 6.24605 8.08105 6.21855 8.08105C6.06731 8.08105 5.92856 8.1823 5.88732 8.33604L5.60483 9.40473L4.54239 13.4258C4.49489 13.6083 4.60363 13.7958 4.78613 13.8445C4.81612 13.852 4.84487 13.8557 4.87487 13.8557C4.87487 13.8557 4.87487 13.8557 4.87612 13.8557C5.02736 13.8557 5.16611 13.7545 5.20735 13.6008L6.1598 9.99345L8.77716 13.5795C8.78341 13.5883 8.79216 13.5958 8.79966 13.6033C8.80716 13.6108 8.81341 13.6183 8.82091 13.6258C8.82841 13.6333 8.83591 13.6395 8.84466 13.6458L8.84716 13.6483C8.84841 13.6495 8.85091 13.6508 8.85216 13.652C8.85966 13.6583 8.86716 13.6633 8.87591 13.6683C8.87966 13.6708 8.88216 13.6733 8.88591 13.6745C8.88966 13.6758 8.89341 13.6783 8.89716 13.6808C8.89841 13.6808 8.89966 13.682 8.90091 13.6833C8.90341 13.6845 8.90591 13.6858 8.90841 13.687C8.91216 13.6883 8.91466 13.6895 8.91841 13.6908C8.92216 13.692 8.92716 13.6945 8.93091 13.6958C8.93966 13.6995 8.94966 13.7033 8.95841 13.7058C8.96465 13.7083 8.9709 13.7108 8.9784 13.712C9.00215 13.717 9.0284 13.7208 9.0534 13.7208H13.1682C13.2982 13.7208 13.4169 13.6483 13.4744 13.532C13.5194 13.4483 13.5232 13.347 13.4894 13.2583ZM6.84977 9.77596L8.90841 10.0734L10.1158 10.2484L8.98715 12.7046L6.84977 9.77596ZM9.58962 13.0358L10.6971 10.6272L12.487 13.0358H9.58962Z" fill="url(#paint2_linear_4219_17432)"/>
<path d="M9.88023 13.4347C9.82148 13.3072 9.71399 13.2172 9.599 13.1985C9.4515 13.1735 8.84154 13.3722 8.75154 13.4134C8.5328 13.5109 8.26657 13.7884 8.38781 14.0772C8.46405 14.2547 8.5728 14.3084 8.68904 14.3084C8.78654 14.3084 8.88778 14.2709 8.98028 14.2372L9.05027 14.2122C9.09652 14.1959 9.15027 14.1797 9.20652 14.1634C9.4515 14.0909 9.75649 13.9997 9.88148 13.7897C9.93773 13.6922 9.93773 13.5597 9.88023 13.4347Z" fill="#504F4F"/>
<path d="M6.39588 8.03088L5.32843 7.77465C5.30218 7.76715 5.27469 7.76465 5.24844 7.76465C5.09345 7.76465 4.9522 7.86964 4.9147 8.02713C4.87096 8.21213 4.98345 8.39712 5.16844 8.44086L6.23588 8.6971C6.26213 8.70335 6.28838 8.7071 6.31588 8.7071C6.47087 8.7071 6.61086 8.6021 6.64961 8.44461C6.69211 8.26087 6.57837 8.07588 6.39588 8.03088Z" fill="#405966"/>
<path d="M12.054 8.09628C12.0377 8.08378 12.0202 8.07128 12.0027 8.06128C11.859 7.98004 11.6977 7.99879 11.5327 7.99129C11.3328 7.98129 11.1303 7.97254 10.9303 7.96004C10.8203 7.95254 10.7103 7.95129 10.6003 7.95129C10.4716 7.95129 10.3416 7.95379 10.2141 7.95379C10.1166 7.95379 10.0203 7.95254 9.92408 7.94754C9.91908 7.94629 9.91158 7.94629 9.90408 7.94629C9.72034 7.94629 9.5466 8.08503 9.48285 8.25002C9.39286 8.48376 9.5516 8.63125 9.75034 8.73875C9.99408 8.87124 10.2678 8.93374 10.534 8.99873C10.824 9.06873 11.114 9.16123 11.4115 9.20122C11.449 9.20622 11.4865 9.20872 11.5252 9.20872C11.7827 9.20872 12.049 9.09498 12.1952 8.88124C12.3702 8.62625 12.2977 8.28627 12.054 8.09628Z" fill="#504F4F"/>
<path d="M11.8168 6.83382L10.4119 5.96387L8.6907 8.98121H8.69195C8.59696 9.13495 8.56946 9.30994 8.59946 9.47493L8.94569 12.7048L9.79439 12.6935L9.97938 9.58118L11.8168 6.83382Z" fill="url(#paint3_linear_4219_17432)"/>
<path d="M8.82422 11.7486L8.94671 12.7035L9.79417 12.6923L9.86916 11.7373L8.82422 11.7486Z" fill="#E0E0E0"/>
<path d="M11.6423 5.54761C11.4811 5.44886 11.3023 5.40137 11.1261 5.40137C10.7974 5.40137 10.4749 5.56636 10.2886 5.86759L9.02246 8.04373L10.6161 9.02993C10.6161 9.02993 11.8111 7.18002 11.9611 6.90129C12.201 6.45131 12.1035 5.83384 11.6423 5.54761Z" fill="#7C7C7C"/>
<path d="M10.2628 13.1891L10.1665 12.8454C10.1028 12.6104 9.79154 12.4092 9.79154 12.4092L8.93409 12.6467L8.23287 13.1154C8.06663 13.2404 7.99289 13.4541 8.04663 13.6566L8.08913 13.8129C8.10413 13.8691 8.15663 13.9066 8.21162 13.9066C8.22287 13.9066 8.23412 13.9054 8.24537 13.9016L10.1615 13.3691C10.2403 13.3479 10.2853 13.2666 10.2628 13.1891Z" fill="#4568AD"/>
<path d="M8.63661 3.94258C8.48911 3.91133 8.34162 3.89258 8.20288 3.89258C7.8879 3.89258 7.62416 3.99007 7.51167 4.24506C7.42042 4.44755 7.32543 4.65379 7.22668 4.86003C7.05044 5.23376 7.19418 5.80748 7.63166 5.94497C8.76785 6.3062 8.7366 6.64368 9.39657 6.94992C9.58781 7.03866 9.76905 7.07741 9.93904 7.07741C10.7715 7.07741 11.3602 6.15246 11.7077 5.56249C10.9452 4.78378 9.92779 4.22631 8.63661 3.94258Z" fill="url(#paint4_radial_4219_17432)"/>
<path d="M8.1819 4.91346L7.20945 4.62598L6.63073 6.77836L5.59079 7.65457C5.4108 7.59332 5.17331 7.56082 5.00457 7.56082C5.00457 7.56082 5.00457 7.56082 5.00332 7.56082C5.00207 7.56082 5.00207 7.56082 5.00082 7.56082C4.98332 7.56082 4.96707 7.56082 4.95207 7.56207C4.94457 7.56207 4.93832 7.56332 4.93207 7.56332C4.92332 7.56457 4.91457 7.56457 4.90707 7.56582C4.89832 7.56707 4.88832 7.56832 4.88082 7.56957C4.87832 7.56957 4.87582 7.57082 4.87207 7.57082C4.84958 7.57457 4.82958 7.58082 4.81708 7.58832C4.77083 7.61582 4.69958 7.67831 4.63209 7.73956C4.52834 7.83581 4.4746 7.97455 4.48585 8.11579L4.49334 8.21829C4.4846 8.24953 4.53209 8.32203 4.60334 8.36453C4.60709 8.36703 4.61209 8.36953 4.61584 8.37203C4.61959 8.37453 4.62459 8.37578 4.62959 8.37828C4.68458 8.40453 4.75083 8.41078 4.81583 8.36578C4.90082 8.30953 4.80958 8.15329 4.84958 8.08704C4.89582 8.0083 4.97582 7.9283 4.97582 7.9283C4.97582 7.9283 5.22331 7.90955 5.27705 7.9483C5.37205 8.02705 5.39955 8.09704 5.3458 8.24704C5.30705 8.35453 5.21831 8.46577 5.2633 8.50202C5.27955 8.51577 5.2958 8.52702 5.3108 8.53702C5.31205 8.53827 5.3133 8.53827 5.31455 8.53952C5.3258 8.54702 5.33705 8.55452 5.3483 8.55952C5.35455 8.56327 5.36205 8.56452 5.3683 8.56827C5.3733 8.57077 5.3783 8.57202 5.38455 8.57327C5.39455 8.57577 5.40455 8.57702 5.41455 8.57702C5.4158 8.57702 5.41705 8.57702 5.4183 8.57702H5.41955C5.47704 8.57827 5.53954 8.54202 5.63078 8.45077C5.75953 8.32078 5.88202 8.36453 5.98077 8.26578L7.2182 7.43458L7.2332 7.42458C7.25695 7.41208 7.2807 7.39708 7.30195 7.38083L7.30695 7.37833C7.37819 7.32208 7.43069 7.24459 7.45694 7.15584H7.45819L8.18565 4.91221L8.1819 4.91346Z" fill="url(#paint5_linear_4219_17432)"/>
<path d="M5.11768 7.71289C4.92144 7.71289 4.7627 7.87163 4.7627 8.06787C4.7627 8.26411 4.92144 8.42285 5.11768 8.42285C5.31392 8.42285 5.47266 8.26411 5.47266 8.06787C5.47266 7.87163 5.31392 7.71289 5.11768 7.71289Z" fill="url(#paint6_radial_4219_17432)"/>
<path d="M7.88935 4.27848C7.82561 4.25973 7.76186 4.25098 7.69936 4.25098C7.41188 4.25098 7.14689 4.43847 7.0619 4.7272L6.74316 5.91339L7.95935 6.27337L8.33808 5.10468C8.44057 4.7522 8.24183 4.38222 7.88935 4.27848Z" fill="#04A287"/>
<path d="M6.74216 4.47513C6.75591 4.68262 6.39218 5.1526 6.38218 5.18134C6.36218 5.22884 6.56092 5.23634 6.60466 5.19134C6.64841 5.14635 7.05089 4.75012 7.30963 4.25514C7.42587 4.03265 7.68836 3.44144 7.68836 3.44144L7.32213 3.2627C7.32213 3.2627 7.21463 4.29014 6.9559 4.28639C6.69591 4.28264 6.70091 3.28769 6.70091 3.28769L6.11719 3.53018C6.11594 3.53018 6.73466 4.34639 6.74216 4.47513Z" fill="url(#paint7_linear_4219_17432)"/>
<path d="M7.70634 1.954C7.38135 1.64902 6.94637 1.49902 6.5089 1.49902C6.30391 1.49902 6.09642 1.53152 5.90018 1.59777C5.72019 1.65777 5.15397 1.9365 4.91148 2.41897C4.81024 2.62146 4.73024 2.8427 4.71024 3.06769C4.69899 3.19018 4.69774 3.40892 4.79649 3.51642C4.84024 3.56391 4.89273 3.57891 4.94273 3.57891C4.96898 3.57891 4.99523 3.57516 5.02023 3.57016C5.15147 3.54142 5.4827 3.40142 5.58145 3.39142C5.5952 3.39017 5.6077 3.39017 5.62145 3.39017C5.82893 3.39017 5.98268 3.53892 6.02392 3.56891C6.10767 3.62891 6.19142 3.67641 6.28891 3.67641C6.37266 3.67641 6.46765 3.64266 6.58389 3.55267C6.73514 3.43642 6.76888 3.34643 6.90388 3.32268C6.91888 3.32018 6.93638 3.31768 6.95387 3.31768C7.04512 3.31768 7.17011 3.36518 7.31636 3.59266C7.4401 3.78515 7.58384 3.8664 7.70634 3.8664C7.77758 3.8664 7.84133 3.84015 7.89007 3.79265C8.07507 3.61516 8.4388 2.63396 7.70634 1.954Z" fill="url(#paint8_radial_4219_17432)"/>
<defs>
<radialGradient id="paint0_radial_4219_17432" cx="0" cy="0" r="1" gradientUnits="userSpaceOnUse" gradientTransform="translate(13.1895 13.4669) scale(2.91641)">
<stop stop-color="#78909C"/>
<stop offset="0.5619" stop-color="#617A86"/>
<stop offset="1" stop-color="#546E7A"/>
</radialGradient>
<radialGradient id="paint1_radial_4219_17432" cx="0" cy="0" r="1" gradientUnits="userSpaceOnUse" gradientTransform="translate(4.80965 13.4669) scale(2.91641)">
<stop stop-color="#78909C"/>
<stop offset="0.5619" stop-color="#617A86"/>
<stop offset="1" stop-color="#546E7A"/>
</radialGradient>
<linearGradient id="paint2_linear_4219_17432" x1="5.33562" y1="10.9707" x2="13.3865" y2="10.9707" gradientUnits="userSpaceOnUse">
<stop stop-color="#D8EB21"/>
<stop offset="0.4414" stop-color="#D6E921"/>
<stop offset="0.6058" stop-color="#B8C721"/>
<stop offset="0.8038" stop-color="#ADBA21"/>
</linearGradient>
<linearGradient id="paint3_linear_4219_17432" x1="13.7532" y1="1.4029" x2="5.52518" y2="18.6087" gradientUnits="userSpaceOnUse">
<stop offset="0.1952" stop-color="#CCA47A"/>
<stop offset="0.6908" stop-color="#E0BB95"/>
</linearGradient>
<radialGradient id="paint4_radial_4219_17432" cx="0" cy="0" r="1" gradientUnits="userSpaceOnUse" gradientTransform="translate(9.43114 5.48499) scale(1.96486)">
<stop offset="0.3637" stop-color="#00BFA5"/>
<stop offset="0.8121" stop-color="#00B29A"/>
<stop offset="1" stop-color="#00AB94"/>
</radialGradient>
<linearGradient id="paint5_linear_4219_17432" x1="4.48657" y1="6.60268" x2="8.1854" y2="6.60268" gradientUnits="userSpaceOnUse">
<stop offset="0.5" stop-color="#E0BB95"/>
<stop offset="1" stop-color="#CCA47A"/>
</linearGradient>
<radialGradient id="paint6_radial_4219_17432" cx="0" cy="0" r="1" gradientUnits="userSpaceOnUse" gradientTransform="translate(5.1183 8.06787) scale(0.354981)">
<stop stop-color="#78909C"/>
<stop offset="0.5619" stop-color="#617A86"/>
<stop offset="1" stop-color="#546E7A"/>
</radialGradient>
<linearGradient id="paint7_linear_4219_17432" x1="6.87138" y1="3.8389" x2="6.78623" y2="4.81612" gradientUnits="userSpaceOnUse">
<stop stop-color="#646464"/>
<stop offset="0.9947" stop-color="#262626"/>
</linearGradient>
<radialGradient id="paint8_radial_4219_17432" cx="0" cy="0" r="1" gradientUnits="userSpaceOnUse" gradientTransform="translate(5.86882 2.51107) scale(1.47662)">
<stop stop-color="#81D4FA"/>
<stop offset="0.3601" stop-color="#5EB3E7"/>
<stop offset="0.7751" stop-color="#3C92D3"/>
<stop offset="1" stop-color="#2F85CC"/>
</radialGradient>
</defs>
</svg>
