<svg width="18" height="18" viewBox="0 0 18 18" fill="none" xmlns="http://www.w3.org/2000/svg">
<path d="M15.642 9.05957C15.642 9.05957 14.752 9.57704 13.5221 9.80453C12.5096 9.99202 10.421 10.192 8.96607 10.192C7.51115 10.192 5.19127 10.0545 4.28632 9.89328C3.17513 9.69579 2.29267 9.08957 2.29267 9.08957C2.29267 9.08957 1.86395 10.647 4.19757 11.127C6.28996 11.5569 10.0923 11.9407 13.5308 11.127C16.4169 10.4432 15.642 9.05957 15.642 9.05957Z" fill="#F3AB47"/>
<path d="M16.4877 10.8945C16.3478 10.1883 15.6878 9.09082 15.6878 9.09082C15.6878 9.09082 15.2516 10.1208 13.4554 10.6095C12.7542 10.7995 10.858 11.0207 8.98564 11.0507C7.11324 11.0207 5.31459 10.8782 4.61337 10.6882C2.81597 10.1995 2.2935 9.09082 2.2935 9.09082C2.2935 9.09082 1.61603 10.187 1.48104 10.8945C1.1998 12.3656 1.92977 13.1831 4.24214 13.7543C5.35084 14.0281 7.26698 14.1718 9.17938 14.1756C11.0918 14.1731 13.0079 14.0281 14.1166 13.7543C16.4315 13.1819 16.7752 12.3469 16.4877 10.8945Z" fill="#A65F3E"/>
<path d="M3.03501 10.7958C3.0575 10.8758 3.02501 10.9583 2.99626 11.0358C2.84627 11.4508 2.79127 11.9682 2.90376 12.3957C2.92751 12.4845 2.96876 12.597 3.01126 12.6957C3.04625 12.7782 2.96751 12.8557 2.88126 12.8319C2.71252 12.7845 2.35004 12.5582 2.09755 12.0432C1.90007 11.642 1.93881 11.1783 2.02881 10.7533C2.07006 10.5546 2.2288 10.0896 2.48128 10.2721C2.55003 10.3221 3.01501 10.7283 3.03501 10.7958Z" fill="#F29657"/>
<path d="M10.5052 11.127C10.5052 11.127 10.7489 12.3569 10.5639 13.1943C10.3602 14.1105 10.1689 14.1593 10.1689 14.1593C10.1689 14.1593 11.5389 14.1405 11.8939 14.073L10.9689 11.0957L10.5052 11.127Z" fill="#874D36"/>
<path d="M8.96647 10.4422C5.4654 10.4684 3.88924 10.0297 3.83799 10.0197L3.48926 10.276C3.48926 10.276 4.84419 11.0322 9.00647 11.0322C13.1687 11.0322 14.6899 10.1597 14.6899 10.1597L14.1399 9.90723C14.0649 9.92223 12.0951 10.4184 8.96647 10.4422Z" fill="#874D36"/>
<path d="M13.5397 16.4381L14.6672 15.7969C14.8659 15.6706 14.8359 15.5082 14.7647 15.3582C14.4572 14.7169 13.6035 13.432 13.106 12.7246C12.6048 12.0133 11.2824 10.9521 11.2824 10.9521L10.8799 11.1759C10.8799 11.1759 11.3249 12.8833 11.5386 13.5483C11.8936 14.6482 12.6998 15.7706 13.1148 16.3744C13.2148 16.5206 13.371 16.5331 13.5397 16.4381Z" fill="#F3AB47"/>
<path fill-rule="evenodd" clip-rule="evenodd" d="M13.6104 15.963L8.25195 6.63976L8.68543 6.39062L14.0439 15.7139L13.6104 15.963Z" fill="#F3AB47"/>
<path d="M8.84768 6.67483L8.41895 6.92731C8.27271 6.68983 8.11897 6.61858 7.95023 6.58608C7.85773 6.56858 7.77024 6.48734 7.74649 6.38609C7.72274 6.28485 7.76649 6.1886 7.88023 6.12236L8.3752 5.82737C8.4827 5.76363 8.59894 5.75613 8.68894 5.82487C8.76768 5.88487 8.79893 6.01361 8.76018 6.14236C8.70894 6.3211 8.75768 6.44859 8.84768 6.67483Z" fill="#BDBDBD"/>
<path d="M15.6882 9.09079C15.6532 9.03454 15.6094 9.07954 15.6094 9.07954C15.6057 9.09079 15.2245 10.1645 13.3321 10.5657C12.6171 10.717 10.8497 10.8944 8.98729 10.9257C7.24988 10.8969 5.38248 10.7432 4.64127 10.567C2.94511 10.162 2.31514 9.10204 2.29389 9.09204C2.29389 9.09204 2.21265 9.12329 2.28764 9.31328C2.36264 9.50327 2.97636 10.4282 4.58252 10.8107C5.35123 10.9932 7.20114 11.1469 8.98604 11.1769C10.8684 11.1457 12.6608 10.9844 13.3833 10.8119C15.1332 10.3932 15.5807 9.49202 15.6332 9.39327C15.6857 9.29453 15.7219 9.14704 15.6882 9.09079Z" fill="#F3AB47"/>
<path d="M9.21432 10.95H8.81934L8.88933 10.3926H9.15682L9.21432 10.95Z" fill="#F3AB47"/>
<path d="M6.09989 10.8474L4.80371 10.7224L5.37868 10.2012L6.64486 10.2999L6.09989 10.8474Z" fill="#F3AB47"/>
<path d="M11.987 10.825L13.1957 10.6088L12.6682 10.1025L11.4258 10.225L11.987 10.825Z" fill="#F3AB47"/>
</svg>
