<svg width="18" height="18" viewBox="0 0 18 18" fill="none" xmlns="http://www.w3.org/2000/svg">
<path d="M6.1093 11.9706C6.1093 11.9706 6.05805 15.5154 6.16055 15.6579C6.26429 15.8004 7.19549 16.4603 8.98165 16.4853C10.7678 16.5103 11.7765 15.7604 11.8027 15.5929C11.829 15.4241 11.8927 11.7243 11.8927 11.7243C11.8927 11.7243 12.8502 11.2194 13.5227 10.0807C14.1951 8.94199 14.6613 7.38957 14.6351 6.12088C14.6113 4.98219 14.1826 4.80095 13.9626 4.64596C13.7426 4.49097 13.5227 4.51597 13.5227 4.51597C13.5227 4.51597 13.3977 2.88231 12.7077 2.21234C11.829 1.36114 10.4828 1.41238 8.9954 1.41238C7.48173 1.41238 5.97181 1.31739 4.91936 2.78356C4.00066 4.06474 4.22065 6.06964 4.27189 7.06583C4.32314 8.06203 4.69437 9.68195 4.97061 10.3132C5.51433 11.5568 6.1093 11.9706 6.1093 11.9706Z" fill="#DC0D28"/>
<path d="M6.96639 14.4223C6.95264 15.0148 7.17513 15.4247 9.01128 15.4185C10.8474 15.4122 10.9762 15.0747 10.9962 14.4698C11.0124 13.9973 10.8074 13.6961 10.0812 13.7223C9.56375 13.7411 8.38382 13.7273 7.7326 13.7086C7.37637 13.6986 6.97889 13.8173 6.96639 14.4223Z" fill="#FFC402"/>
<path d="M6.11004 11.9706C6.11004 11.9706 7.30373 12.3631 8.96864 12.3806C10.6698 12.3981 11.8935 11.7256 11.8935 11.7256L11.8697 12.6618C11.8697 12.6618 10.7823 13.188 8.98614 13.188C7.18998 13.188 6.10254 12.758 6.10254 12.758L6.11004 11.9706Z" fill="#950D19"/>
<path d="M10.9145 4.27118C11.1682 4.58241 11.5894 4.32368 11.8607 4.25368C12.1319 4.18368 12.6319 4.19243 12.6494 4.23618C12.6669 4.27993 12.0094 4.41117 11.6594 5.14738C11.3882 5.7161 11.4632 6.41482 11.4894 6.65105C11.5269 6.99229 11.7119 7.48726 12.1594 7.48726C12.7031 7.48726 12.7556 7.00479 12.7731 6.7598C12.7906 6.51481 12.6294 5.38987 12.9381 4.90615C13.2069 4.48367 13.5243 4.51617 13.5243 4.51617C13.5243 4.51617 13.5006 4.27868 13.4743 4.12119C13.4481 3.9637 13.4143 3.79496 13.4143 3.79496C13.4143 3.79496 12.9319 3.54247 12.5719 3.39373C12.2119 3.24498 11.5457 3.18499 11.1245 3.50872C10.7845 3.77121 10.8357 4.17494 10.9145 4.27118Z" fill="#950D19"/>
</svg>
