<svg width="18" height="18" viewBox="0 0 18 18" fill="none" xmlns="http://www.w3.org/2000/svg">
<path d="M11.7455 8.75879L9.52441 15.7134L10.7631 16.0197L13.4205 15.8584L13.2917 11.3674L11.7455 8.75879Z" fill="#2F2F2F"/>
<path d="M5.4675 6.53626C5.30251 6.66001 4.90378 8.08243 3.93758 10.0298C2.97138 11.9772 1.73145 14.5546 1.73145 14.5546C1.73145 14.5546 1.87644 14.7633 3.71134 15.4245C5.54624 16.0858 7.06241 16.3757 7.06241 16.3757C7.06241 16.3757 11.1497 10.0136 11.1822 9.86984C11.2147 9.72484 11.8672 7.07248 11.8672 7.07248C11.8672 7.07248 9.26605 6.89124 8.13861 6.795C7.01117 6.69875 5.65999 6.39127 5.4675 6.53626Z" fill="#F19F40"/>
<path d="M14.7996 15.8443L16.172 15.6105C16.172 15.6105 14.9059 12.9619 14.2134 11.6257C13.5209 10.2896 12.326 7.45347 12.2135 7.24473C12.101 7.03599 11.6335 6.9385 11.4248 7.30973C11.216 7.68096 9.47364 11.5045 9.14616 12.1157C8.77743 12.8032 6.94502 16.1893 6.92877 16.3667C6.91253 16.5442 10.0136 16.2505 10.0136 16.2505L10.8136 13.8944L11.7798 9.70835L11.941 9.74085L12.7135 13.1544L14.7996 15.8443Z" fill="#EC5F32"/>
<path d="M10.9153 16.139C10.8878 16.3015 10.0704 16.4427 9.6054 16.4527C9.13918 16.464 8.30547 16.4965 8.20798 16.3877C8.11048 16.279 9.25792 15.2615 9.99538 13.9291C10.7316 12.5967 11.1653 11.6767 11.2728 11.308C11.3816 10.9393 11.5978 9.83558 11.684 9.65059C11.7703 9.4656 11.944 9.49934 11.9978 9.67184C12.0515 9.84558 12.6152 11.9792 12.8102 12.4879C13.0052 12.9967 13.8064 14.0579 14.0452 14.3941C14.2839 14.7303 15.4638 15.6253 15.4851 15.7115C15.5063 15.7978 14.7551 16.0615 14.2439 16.1202C13.8777 16.1615 13.024 16.0977 12.959 15.989C12.894 15.8803 12.4528 12.9967 12.2903 12.033C12.1278 11.0693 11.8465 9.78058 11.8465 9.78058C11.8465 9.78058 11.2078 12.8779 11.1203 13.7016C11.0341 14.5253 10.9578 15.879 10.9153 16.139Z" fill="#9C2D1B"/>
<path d="M1.52539 13.3139C1.52539 13.3139 1.61664 13.219 1.78913 13.2077C1.96162 13.1977 2.11411 13.3027 2.11411 13.3027L2.22535 14.9051C2.22535 14.9051 2.09286 15.0214 1.93037 15.0214C1.76788 15.0214 1.61539 14.9364 1.61539 14.9364L1.52539 13.3139Z" fill="#9C2D1B"/>
<path d="M6.18262 14.9254C6.18262 14.9254 6.32386 14.8066 6.5401 14.8066C6.75634 14.8066 6.91883 14.9154 6.91883 14.9154L6.93008 16.5403C6.93008 16.5403 6.75634 16.6378 6.62634 16.6378C6.49635 16.6378 6.29011 16.5728 6.29011 16.5728L6.18262 14.9254Z" fill="#9C2D1B"/>
<path d="M15.874 14.2115C15.874 14.2115 15.9903 14.0765 16.1965 14.0865C16.4027 14.0965 16.5152 14.1677 16.5152 14.1677L16.4177 15.8351C16.4177 15.8351 16.3415 15.9439 16.1578 15.9439C15.974 15.9439 15.8115 15.8576 15.8115 15.8576L15.874 14.2115Z" fill="#9C2D1B"/>
</svg>
