<svg width="18" height="18" viewBox="0 0 18 18" fill="none" xmlns="http://www.w3.org/2000/svg">
<path d="M10.8808 2.67383L7.20351 5.10995C7.20351 5.10995 7.3285 5.28744 7.41349 5.36869C7.59099 5.53868 7.70598 5.59492 7.70598 5.59492L7.63348 5.84491L6.71728 6.37613C6.71728 6.37613 6.68478 6.79611 7.15226 7.0386C7.53974 7.23984 7.92597 7.24109 7.92597 7.24109V7.84481C7.92597 7.84481 8.31095 8.59477 9.09341 8.59477C9.87586 8.59477 10.2496 7.74106 10.2496 7.74106L10.2596 7.21984C10.2596 7.21984 10.6121 7.18484 10.9483 6.9886C11.2033 6.83861 11.2933 6.59362 11.2958 6.38488C11.2983 6.20739 11.282 6.17239 11.282 6.17239L10.2171 5.61617C10.2171 5.61617 10.6908 5.32869 10.9458 4.67872C11.4258 3.46004 10.8808 2.67383 10.8808 2.67383Z" fill="#474C50"/>
<path d="M8.91491 10.5645L6.2638 11.1957C6.2638 11.1957 6.1938 11.2932 6.19505 11.3982C6.19755 11.5744 6.27255 11.6156 6.27255 11.6156L5.21385 12.8993C5.21385 12.8993 5.09011 13.1531 5.09636 13.4743C5.10261 13.7818 5.2301 13.9705 5.2476 13.9618L4.90387 14.4205L4.68513 14.5142C4.68513 14.5142 4.56639 14.7067 4.58139 14.9417C4.60014 15.2317 4.78763 15.5404 5.51884 15.8792C6.27505 16.2304 7.09251 16.5454 8.98866 16.5454C10.8848 16.5454 12.3222 16.1704 12.9159 15.7542C13.5097 15.338 13.5572 14.9755 13.5672 14.8192C13.5759 14.683 13.5409 14.5655 13.4984 14.483C13.4934 14.4742 13.4822 14.4567 13.4822 14.4567L13.0134 13.9505C13.0134 13.9505 13.1259 13.6718 13.1122 13.3756C13.0947 13.0018 12.9059 12.7318 12.9059 12.7318L11.801 11.7731L11.811 11.5232C11.811 11.5232 11.8298 11.4432 11.7935 11.3094C11.7623 11.1944 11.7373 11.1307 11.711 11.0907C11.6335 10.9719 11.5385 10.9844 11.5385 10.9844L8.91491 10.5645Z" fill="#474C50"/>
<path d="M7.20003 5.10991C7.20003 5.10991 6.61381 4.3862 6.8638 3.24001C7.11379 2.09382 8.14373 1.35511 9.31117 1.52135C10.4786 1.68759 10.9473 2.79253 10.9473 2.79253C10.9473 2.79253 10.9136 4.16996 9.6524 4.83743C8.39122 5.50489 7.20003 5.10991 7.20003 5.10991Z" fill="#5E6367"/>
<path d="M8.83239 1.88585C9.10863 2.04335 8.95863 2.21959 8.54116 2.48957C8.15368 2.74081 7.68745 3.47952 7.56121 3.66701C7.43497 3.8545 7.35247 3.87575 7.28997 3.83325C7.22748 3.79075 7.02999 3.68701 7.20623 3.09329C7.38247 2.49957 7.85244 2.12459 8.08118 1.98835C8.31117 1.85461 8.61365 1.76086 8.83239 1.88585Z" fill="#FFFFFE"/>
<path d="M7.70634 5.59436C7.70634 5.59436 8.29506 5.98684 8.93002 5.99434C9.82623 6.00309 10.2175 5.61561 10.2175 5.61561C10.2175 5.61561 10.6412 5.57186 10.9437 5.72935C11.2087 5.86684 11.2824 6.17433 11.2824 6.17433C11.2824 6.17433 11.0024 6.90304 8.96252 6.84804C6.92138 6.79305 6.71764 6.37682 6.71764 6.37682C6.71764 6.37682 6.66389 5.94809 7.02762 5.7381C7.33261 5.56061 7.70634 5.59436 7.70634 5.59436Z" fill="#5E6367"/>
<path d="M7.32866 5.81049C7.13367 5.79174 6.83493 5.91174 6.87118 6.17672C6.90743 6.44171 7.5124 6.5617 7.80488 6.5792C8.09736 6.5967 8.56484 6.6342 8.55484 6.35921C8.54609 6.08423 7.84113 6.22172 7.56614 6.07548C7.29116 5.92924 7.61239 5.83799 7.32866 5.81049Z" fill="#AEAEAF"/>
<path d="M7.92483 7.84593C7.92483 7.84593 8.29856 8.00842 9.07602 8.00842C9.85348 8.00842 10.2485 7.74219 10.2485 7.74219C10.2485 7.74219 10.2472 8.62214 10.6134 9.50959C10.9797 10.397 11.2447 10.827 11.2447 10.827C11.2447 10.827 11.4834 10.8108 11.5746 10.8845C11.6659 10.9583 11.7546 11.182 11.7546 11.182C11.7246 11.2233 11.0734 11.827 9.11727 11.7845C7.03113 11.7395 6.26367 11.1945 6.26367 11.1945C6.26367 11.1945 6.38617 10.9908 6.52616 10.9445C6.6949 10.8883 6.80364 10.9033 6.80364 10.9033C6.80364 10.9033 7.42986 10.1496 7.6861 9.40835C7.94108 8.66714 7.92483 7.84593 7.92483 7.84593Z" fill="#5E6367"/>
<path d="M9.03107 11.2106C9.79978 11.2106 10.4685 11.0556 10.7522 10.9731C11.036 10.8906 11.251 10.7518 11.4709 10.8256C11.5947 10.8668 11.6422 10.9606 11.6422 10.9606C11.6422 10.9606 10.8247 11.648 9.02232 11.578C7.10117 11.5043 6.36621 11.0643 6.36621 11.0643C6.36621 11.0643 6.4912 10.8856 6.77244 10.9031C6.84744 10.9081 6.91743 10.9293 7.34741 11.0293C7.77739 11.1293 8.27986 11.2106 9.03107 11.2106Z" fill="#B0B0AF"/>
<path d="M6.27256 11.6147C6.27256 11.6147 7.53874 12.1159 9.03117 12.1359C11.0273 12.1622 11.8123 11.5234 11.8123 11.5234C11.8123 11.5234 12.281 11.9534 12.4722 12.1547C12.6635 12.3559 12.906 12.7321 12.906 12.7321C12.906 12.7321 12.0698 14.1133 9.01367 14.0858C5.95633 14.0583 5.21387 12.8996 5.21387 12.8996C5.21387 12.8996 5.37511 12.4771 5.70884 12.1272C5.91383 11.9109 6.27256 11.6147 6.27256 11.6147Z" fill="#5E6367"/>
<path d="M6.24818 12.1804C6.02069 12.1192 5.57071 12.5741 5.62571 12.8579C5.65321 13.0029 5.73446 13.1641 6.17443 13.3241C6.57691 13.4703 7.19938 13.4628 7.19938 13.2229C7.19938 12.9116 6.65941 12.9404 6.52191 12.6641C6.41317 12.4466 6.48567 12.2454 6.24818 12.1804Z" fill="#B0B0AF"/>
<path d="M5.24704 13.9602C5.24704 13.9602 5.06705 14.0827 4.92706 14.2202C4.75082 14.3939 4.68457 14.5127 4.68457 14.5127C4.68457 14.5127 5.0883 15.9651 8.96809 15.9963C12.7666 16.0276 13.4816 14.4552 13.4816 14.4552C13.4816 14.4552 13.3579 14.2764 13.2279 14.1464C13.0979 14.0164 13.0116 13.9502 13.0116 13.9502C13.0116 13.9502 11.9104 15.1939 8.94185 15.1614C6.112 15.1326 5.24704 13.9602 5.24704 13.9602Z" fill="#5E6367"/>
<path d="M5.05237 14.361C4.94862 14.4772 4.95237 14.7184 5.25861 14.9197C5.58609 15.1347 6.11356 15.4409 6.86977 15.5821C7.63973 15.7259 8.44219 15.6821 8.39219 15.4246C8.35844 15.2484 7.69098 15.4459 6.50729 14.9772C5.81233 14.7022 5.59734 14.5509 5.4561 14.4509C5.36485 14.3847 5.20236 14.1935 5.05237 14.361Z" fill="#B0B0AF"/>
<path d="M5.94851 13.0342C6.18974 13.0342 6.18974 12.6592 5.94851 12.6592C5.70727 12.6592 5.70727 13.0342 5.94851 13.0342Z" fill="#B0B0AF"/>
</svg>
