<svg width="18" height="18" viewBox="0 0 18 18" fill="none" xmlns="http://www.w3.org/2000/svg">
<path d="M9.33052 6.69319L9.98673 5.83199C9.98673 5.83199 10.118 5.6295 10.2417 5.64325C10.3642 5.657 10.5642 6.04698 11.0567 6.00823C11.5766 5.96698 12.0666 5.83199 12.0666 5.83199L12.4766 6.40696L12.4066 6.78444C12.4066 6.78444 12.2516 7.24941 12.3391 7.55815C12.4154 7.82938 12.6816 7.99937 12.6853 8.12312C12.6916 8.28686 4.80451 16.0752 4.72201 16.1302C4.63952 16.1852 3.81956 16.0752 3.73706 16.0339C3.65457 15.9927 2.31464 14.4615 2.31464 14.4615C2.31464 14.4615 2.25839 13.7866 2.32714 13.6641C2.33589 13.6491 2.38588 13.5991 2.42588 13.5678C2.99585 13.1241 5.14824 12.2616 6.80065 10.633C7.51186 9.93052 9.33052 6.69319 9.33052 6.69319Z" fill="#D06F1D"/>
<path d="M14.9697 3.06779V2.48532C14.9697 2.48532 15.2285 1.94285 15.291 1.86285C15.3535 1.78286 15.8622 1.68411 16.2197 2.06784C16.5771 2.45157 16.5121 2.8253 16.4784 2.8803C16.4396 2.94279 15.7947 3.33902 15.7947 3.33902L14.9697 3.06779Z" fill="#AF570C"/>
<path d="M9.98874 5.83104C10.04 5.80604 10.35 6.27851 10.7237 6.29726C11.0974 6.31601 11.7212 6.27851 11.7212 6.27851L12.0374 6.76724L12.0186 7.10222C12.0186 7.10222 11.9424 7.46595 12.0186 7.69594C12.0949 7.92593 12.2299 8.04092 12.2486 8.12716C12.2674 8.21341 4.80027 15.7368 4.73402 15.7568C4.66652 15.7755 3.88157 15.7668 3.82407 15.7193C3.76657 15.6718 2.67788 14.4481 2.63038 14.3618C2.58288 14.2756 2.40539 13.6781 2.42539 13.5719C2.44164 13.4681 9.92375 5.86353 9.98874 5.83104Z" fill="#EB8B34"/>
<path d="M11.521 5.93213C11.521 5.90338 14.912 2.5498 14.912 2.5498L15.737 3.41226L12.3672 6.84333C12.3672 6.84333 11.3172 7.01707 11.3272 6.96957C11.3372 6.92082 11.521 5.93213 11.521 5.93213Z" fill="#474C4F"/>
<path d="M13.3623 4.08627L13.7535 3.69629L14.616 4.55499L14.2148 4.96372L13.3623 4.08627Z" fill="#E0E0E0"/>
<path d="M14.1201 3.33321L14.9713 4.18942L15.8438 3.31071C15.8438 3.31071 15.0038 2.43451 14.9801 2.45951C14.9601 2.47951 14.1201 3.33321 14.1201 3.33321Z" fill="#E0E0E0"/>
<path d="M8.04854 10.2112C8.12228 10.2912 8.33352 10.1149 8.48101 9.99993C8.54226 9.95243 9.60221 9.10747 10.5572 8.29877C11.5121 7.49006 12.3971 6.87009 12.4033 6.79634C12.4096 6.7226 11.6021 5.93764 11.5209 5.93264C11.4384 5.92764 10.7359 6.7251 9.99094 7.63505C9.16223 8.6475 8.30477 9.70619 8.27603 9.74244C8.12853 9.93743 7.99104 10.1487 8.04854 10.2112Z" fill="#AF570C"/>
<path d="M2.09646 5.01745C1.379 5.65617 1.19651 6.9186 2.02147 7.76481C2.72018 8.48227 3.86262 8.56726 4.69383 7.77481C5.45254 7.04984 5.26005 5.75491 4.80757 5.22619C4.14386 4.45123 2.87017 4.32749 2.09646 5.01745Z" fill="#A52415"/>
<path d="M3.09157 4.83508C2.87033 4.80884 2.27161 4.94258 1.99538 5.60004C1.74414 6.19876 1.90663 6.63374 2.02913 6.66749C2.23037 6.72373 2.39161 5.90753 2.83658 5.61379C3.28156 5.32006 3.5553 5.5113 3.61654 5.34631C3.66029 5.23131 3.5503 4.89008 3.09157 4.83508Z" fill="#D26051"/>
<path d="M1.80762 7.50315C1.85511 7.48691 2.92131 7.03443 3.51753 6.5757C4.42498 5.87699 4.69746 5.11328 4.69746 5.11328C4.69746 5.11328 4.86746 5.24577 4.9912 5.49451C5.07994 5.6745 5.15494 5.96074 5.14994 5.99073C5.13994 6.05448 4.49123 6.75819 3.83501 7.26442C3.1788 7.77064 2.38009 8.06188 2.38009 8.06188C2.38009 8.06188 2.1351 7.88313 2.01886 7.76439C1.89511 7.63565 1.80762 7.50315 1.80762 7.50315Z" fill="#8B200B"/>
<path d="M1.68164 7.29636C1.68164 7.29636 2.58534 7.08763 3.41405 6.41516C4.22026 5.7602 4.60024 5.02148 4.60024 5.02148C4.60024 5.02148 4.68898 5.08648 4.75148 5.14898C4.81398 5.21147 4.85897 5.28272 4.85897 5.28272C4.85897 5.28272 4.64273 5.96643 3.58529 6.78014C2.65159 7.5001 1.86788 7.5926 1.86788 7.5926C1.86788 7.5926 1.80163 7.5201 1.75164 7.43136C1.71664 7.36511 1.68164 7.29636 1.68164 7.29636Z" fill="#FDE7C4"/>
<path d="M2.16602 7.9C2.16602 7.9 3.01722 7.70751 3.83593 7.0338C4.86337 6.18884 5.07086 5.68262 5.07086 5.68262C5.07086 5.68262 5.12211 5.82011 5.14086 5.90261C5.16461 6.0051 5.17961 6.12759 5.17961 6.12759C5.17961 6.12759 4.88962 6.72131 4.07591 7.34628C3.26846 7.9675 2.59099 8.16874 2.59099 8.16874C2.59099 8.16874 2.45225 8.10624 2.35976 8.04999C2.28351 8.00499 2.16602 7.9 2.16602 7.9Z" fill="#FDE7C4"/>
</svg>
