<svg width="18" height="18" viewBox="0 0 18 18" fill="none" xmlns="http://www.w3.org/2000/svg">
<path d="M9.56708 3.01758C9.56708 3.01758 8.36214 3.6263 8.0859 4.72124C7.80842 5.81493 8.2384 6.72863 8.03091 7.32485C7.82342 7.92107 7.55968 8.12856 7.46344 8.2798C7.36594 8.43229 6.68848 8.94477 6.68848 8.94477L7.14595 9.24975C7.14595 9.24975 8.32339 8.2248 8.47588 7.32485C8.62213 6.4599 8.28214 5.4837 8.50338 4.80498C8.71962 4.14252 9.23709 3.71129 9.66707 3.43381C10.152 3.11757 9.56708 3.01758 9.56708 3.01758Z" fill="#BBCCD3"/>
<path d="M4.34329 13.192C4.20955 13.1557 3.56458 13.4107 3.01586 13.5819C2.46714 13.7532 2.06591 13.8257 2.07841 13.9469C2.09091 14.0682 2.47964 14.2994 2.96711 14.3606C3.45459 14.4219 3.75832 14.2394 3.75832 14.2394C3.75832 14.2394 3.80707 14.5194 3.94081 14.8244C4.1233 15.2381 4.51328 15.5918 4.65952 15.5306C4.76077 15.4881 4.54953 13.7532 4.53828 13.5707C4.52703 13.3882 4.34329 13.192 4.34329 13.192Z" fill="#1966A4"/>
<path d="M4.42902 9.22289C4.42902 9.22289 4.34402 9.15039 4.18528 9.15039C4.02654 9.15039 2.79785 9.60037 2.79785 9.79536C2.79785 9.99035 2.99284 10.5741 3.22408 11.074C3.45532 11.574 3.94279 12.4615 3.94279 12.4615L4.42902 9.22289Z" fill="#1966A4"/>
<path d="M3.99228 13.8476C3.99228 13.8476 3.33357 11.414 3.84479 9.84909C4.28227 8.51291 5.42096 8.10293 5.90718 8.00544C6.39466 7.90794 7.14337 8.01669 7.14337 8.01669L7.28961 8.11418L7.35086 8.84414L7.97207 8.61291C7.97207 8.61291 8.70454 10.1678 7.72834 11.7665C6.4359 13.8826 3.97978 13.8839 3.99228 13.8476Z" fill="url(#paint0_radial_4219_17448)"/>
<path d="M6.01243 10.6839C5.90493 10.7914 5.78119 11.3414 5.78119 11.9014C5.78119 12.4613 5.74494 12.7901 5.85369 12.8263C5.96243 12.8626 6.5474 12.2301 6.65739 11.4626C6.76739 10.6952 6.15742 10.5377 6.01243 10.6839Z" fill="#1966A4"/>
<path d="M7.10711 8.01589C7.10711 8.01589 7.2071 7.8809 7.31585 7.8934C7.42459 7.90589 7.48834 8.00214 7.48834 8.05964C7.48834 8.11713 7.47584 8.6596 7.47584 8.6596C7.47584 8.6596 7.77082 8.47961 7.82707 8.46212C7.92957 8.42962 8.05081 8.54461 8.03081 8.6596C8.01081 8.7746 7.50709 9.14458 7.2971 9.05583C7.12586 8.98334 7.09961 8.67335 7.09961 8.50086C7.09961 8.32837 7.10711 8.01589 7.10711 8.01589Z" fill="#1966A4"/>
<path d="M6.02556 9.06225C5.91682 9.16474 5.87932 9.41348 6.07056 9.55972C6.2168 9.67221 6.43929 9.60472 6.52428 9.50222C6.64553 9.35598 6.56928 9.09974 6.43429 9.01725C6.2993 8.93475 6.12805 8.966 6.02556 9.06225Z" fill="#292D26"/>
<path d="M14.6578 10.7997L13.5878 10.4572C13.5878 10.4572 16.3302 3.75257 14.0878 2.55014C11.9329 1.39395 10.0243 3.30885 9.8243 3.45259C9.62431 3.59508 9.43432 3.57883 9.37682 3.47884C9.31932 3.37884 9.24808 3.13636 9.69055 2.76513C10.133 2.3939 11.7379 0.748982 14.2003 1.73768C16.5839 2.69388 15.7952 6.26369 15.7277 6.90491C15.6002 8.11734 14.6578 10.7997 14.6578 10.7997Z" fill="#40717B"/>
<path d="M13.5729 10.1293C13.7117 9.95931 13.8316 9.88806 14.3741 10.0881C14.9166 10.288 14.8878 10.568 14.8291 10.7293C14.7928 10.8268 14.3929 12.2254 13.7792 13.7516C13.1654 15.2778 12.7305 16.1102 12.6455 16.224C12.5605 16.3377 12.3317 16.5665 11.7893 16.409C11.2468 16.2515 11.2293 15.6703 11.2893 15.4815C11.418 15.0815 12.388 13.2116 12.8167 12.0417C13.2454 10.8718 13.4342 10.2993 13.5729 10.1293Z" fill="#E3C08C"/>
<path d="M13.7621 10.9836C13.5409 10.9098 13.3984 11.0923 13.2171 11.5648C13.0359 12.0373 12.8534 12.3885 12.8534 12.3885C12.8534 12.3885 12.7321 12.8122 13.0109 12.9085C13.2896 13.0047 13.4159 12.7173 13.5071 12.4848C13.6408 12.146 13.8333 11.6973 13.8946 11.4923C13.9558 11.2861 13.9796 11.0561 13.7621 10.9836Z" fill="#40727B"/>
<path d="M11.8966 11.9629L10.5405 12.1441C10.5405 12.1441 10.4492 12.3529 10.363 12.6079C10.2655 12.6566 10.058 12.7628 9.86299 12.8703C9.59676 13.0153 9.39052 13.1241 9.39052 13.1241H8.91804L8.81055 13.8115C8.81055 13.8115 9.04178 13.9328 9.31052 13.9265C9.52676 13.9215 10.0142 13.5516 10.2167 13.3828C10.2205 13.4003 10.2255 13.4178 10.2292 13.4341C10.283 13.6703 10.473 13.784 10.473 13.784C10.473 13.784 10.1355 14.4403 10.2242 14.674C10.2905 14.8465 10.6792 15.1002 11.0667 15.0852C11.3567 15.0727 11.6479 14.229 11.6479 14.229C11.6479 14.229 12.1441 14.3003 12.4104 13.804C12.6766 13.3078 12.7791 12.9603 12.7791 12.9603L11.8966 11.9629Z" fill="#40727B"/>
<path d="M8.21824 13.1541C8.1095 13.4428 8.21824 13.6953 8.56198 13.8403C8.90571 13.9853 9.17569 13.9203 9.17569 13.9203C9.17569 13.9203 8.9782 13.6203 9.10945 13.3866C9.22694 13.1778 9.39193 13.1241 9.39193 13.1241C9.39193 13.1241 9.1407 12.8078 8.74447 12.7941C8.53198 12.7891 8.30574 12.9203 8.21824 13.1541Z" fill="#F5A055"/>
<path d="M12.2359 11.2693C11.461 10.9756 11.0672 11.2618 10.906 11.4306C10.7448 11.5981 10.541 12.1455 10.541 12.1455C10.541 12.1455 11.0947 12.2093 11.711 12.4543C12.3209 12.6968 12.7621 13.0155 12.7621 13.0155C12.7621 13.0155 13.0596 12.3605 12.9396 11.9605C12.8571 11.6831 12.7184 11.4518 12.2359 11.2693Z" fill="#6AA5AD"/>
<defs>
<radialGradient id="paint0_radial_4219_17448" cx="0" cy="0" r="1" gradientUnits="userSpaceOnUse" gradientTransform="translate(2.36744 8.7538) scale(5.853)">
<stop offset="0.7756" stop-color="#1383BB"/>
<stop offset="0.7983" stop-color="#208BC0"/>
<stop offset="0.8402" stop-color="#42A0CE"/>
<stop offset="0.8963" stop-color="#79C1E3"/>
<stop offset="0.9177" stop-color="#90CFEC"/>
</radialGradient>
</defs>
</svg>
