<svg width="18" height="18" viewBox="0 0 18 18" fill="none" xmlns="http://www.w3.org/2000/svg">
<path d="M6.23311 3.80232L5.89062 3.58983L6.08311 3.27734C6.08311 3.27734 6.57309 3.49733 6.61434 3.57733C6.65308 3.65607 6.56309 3.76482 6.56309 3.76482C6.4431 3.93606 6.3406 3.86856 6.23311 3.80232Z" fill="#875334"/>
<path d="M8.92326 12.1022C8.79202 11.9909 8.70577 11.836 8.68202 11.666L8.48453 10.2685C8.64452 9.80981 8.41329 8.47363 7.32959 8.47363C7.19085 8.47363 7.03711 8.49613 6.86962 8.54488C6.59838 8.62362 6.26465 9.51858 6.26465 9.51858L7.31959 12.7422C7.34709 12.8447 7.39584 12.9421 7.46459 13.0309C7.56333 13.1559 7.69207 13.2446 7.83207 13.2946L10.5519 14.7308L11.0106 13.8558L8.92326 12.1022Z" fill="#616161"/>
<path d="M11.5433 13.8044L11.2408 13.6007C11.1196 13.5182 10.9421 13.502 10.8146 13.502C10.7246 13.502 10.6608 13.5107 10.6608 13.5107L10.1509 14.2632L9.91589 15.0919C9.86964 15.2994 9.95339 15.5143 10.1284 15.6356L10.2646 15.7281C10.2871 15.7431 10.3121 15.7506 10.3384 15.7506C10.3796 15.7506 10.4209 15.7306 10.4459 15.6931L11.5833 14.0119C11.6295 13.9432 11.612 13.8507 11.5433 13.8044Z" fill="#325599"/>
<path d="M6.14987 8.78516L5.5599 11.5675C5.46366 12.0187 5.44616 12.4837 5.50741 12.9424L5.87614 15.7148L6.79234 15.7123C6.79234 15.7123 7.02608 12.6225 7.02858 12.6175L7.81104 10.2451L7.83978 10.2038C8.08102 9.94759 8.17852 9.33763 8.17852 9.33763L6.14987 8.78516Z" fill="#7C7C7C"/>
<path d="M9.5332 4.55276L8.677 2.99284C8.6645 2.97035 8.63825 2.95785 8.61325 2.9616C8.587 2.96535 8.567 2.98535 8.56075 3.01034L8.00828 5.60896C8.00453 5.62521 8.00828 5.6427 8.01703 5.65645C8.02578 5.6702 8.04078 5.6802 8.05703 5.68395L9.18697 5.91394C9.19072 5.91519 9.19572 5.91519 9.19947 5.91519C9.22822 5.91519 9.25447 5.89519 9.26072 5.86644L9.53945 4.59776C9.5432 4.58151 9.5407 4.56651 9.5332 4.55276Z" fill="#875334"/>
<path opacity="0.4" d="M9.50553 6.36211L7.70312 5.18467C7.70312 5.18467 7.89811 5.05843 8.01436 5.06468C8.13185 5.07093 9.52553 6.18837 9.52553 6.18837L9.50553 6.36211Z" fill="#212121"/>
<path d="M6.61503 4.31602L6.83127 4.00229L4.93512 2.70111C4.84887 2.64236 4.73013 2.66361 4.67138 2.74986C4.61139 2.8361 4.63389 2.9561 4.72013 3.01484L6.61503 4.31602Z" fill="#2E2F2F"/>
<path d="M13.0841 8.34277C13.0841 8.34277 13.6666 8.66776 13.7316 8.80775C13.7791 8.91149 13.7878 9.27897 13.7616 9.51396C13.7366 9.7502 13.6241 9.8002 13.6241 9.8002C13.6241 9.8002 13.4266 9.93144 13.2141 9.96519C13.0003 9.99894 12.9903 9.80645 12.9903 9.80645C12.9903 9.80645 12.9466 9.45521 12.9678 9.34022C12.9891 9.22523 13.0716 9.01399 13.1878 8.8715C13.2403 8.80775 13.1553 8.75275 13.1553 8.75275L12.9229 8.57526L13.0841 8.34277Z" fill="#2E2F2F"/>
<path d="M6.88004 15.3711H5.90009L5.01764 15.6623C4.8039 15.7461 4.66266 15.9523 4.66141 16.1811L4.66016 16.3585C4.66016 16.436 4.72265 16.4998 4.80015 16.4998L6.98878 16.4973C7.07753 16.4973 7.15002 16.4248 7.15002 16.336V15.9423C7.15127 15.6748 6.88004 15.3711 6.88004 15.3711Z" fill="#4568AD"/>
<path d="M13.0841 8.34277C13.0841 8.34277 13.6666 8.66776 13.7316 8.80775C13.7791 8.91149 13.7878 9.27897 13.7616 9.51396C13.7366 9.7502 13.6241 9.8002 13.6241 9.8002C13.6241 9.8002 13.4266 9.93144 13.2141 9.96519C13.0003 9.99894 12.9903 9.80645 12.9903 9.80645C12.9903 9.80645 12.9466 9.45521 12.9678 9.34022C12.9891 9.22523 13.0716 9.01399 13.1878 8.8715C13.2403 8.80775 13.1553 8.75275 13.1553 8.75275L12.9229 8.57526L13.0841 8.34277Z" fill="#504F4F"/>
<path d="M11.2603 2.74238C11.2603 2.74238 11.1728 2.80612 11.0615 2.80612C10.9965 2.80612 10.9228 2.78487 10.854 2.71488C10.764 2.62363 10.6828 2.52614 10.6178 2.41614C10.5528 2.30615 10.4803 2.19365 10.3703 2.12866C10.3241 2.10116 10.2853 2.09241 10.2478 2.09241C10.1916 2.09241 10.1378 2.11241 10.0691 2.11866H10.0578C9.97032 2.11866 9.89158 2.03241 9.81283 1.99116C9.61534 1.89492 9.39535 1.85742 9.17662 1.85742C9.15787 1.85742 9.13787 1.85742 9.11912 1.85867C8.70289 1.87117 8.5729 2.19615 8.20292 2.30365C7.91668 2.38739 7.4867 2.57113 7.45796 3.1311C7.43921 3.48859 7.71169 3.86857 7.71419 4.01606C7.71669 4.17355 7.55045 4.18855 7.48421 4.18855C7.46796 4.18855 7.45796 4.1873 7.45796 4.1873C7.5642 4.47478 7.74419 4.52228 7.87043 4.52228C7.91793 4.52228 7.95668 4.51603 7.98293 4.51228C7.98293 4.51228 8.02418 4.68352 8.18792 4.80852C8.34541 4.92851 8.4879 4.95226 8.5729 4.95226C8.62414 4.95226 8.65539 4.94351 8.65539 4.94351C8.65539 4.94351 8.74539 5.16225 9.15537 5.20849C9.18537 5.21224 9.21536 5.21349 9.24411 5.21349C9.49535 5.21349 9.65909 5.091 9.65909 5.091C9.72784 5.1885 9.82783 5.23724 9.93533 5.23724C10.0103 5.23724 10.0891 5.21349 10.1628 5.16475C10.1628 5.16475 9.94033 4.85976 10.2841 4.66102C10.6765 4.43354 10.8553 4.27104 10.944 4.1273C11.1428 3.80482 11.0678 3.56233 10.9203 3.27735C11.0903 3.1811 11.3103 3.07861 11.2603 2.74238Z" fill="#3C2C23"/>
<path d="M10.4613 4.55431C10.4226 4.57806 9.72763 3.8981 9.72388 3.44937C9.72263 3.35938 9.72513 3.26688 9.75263 3.18064C9.77263 3.11564 9.80263 3.03314 9.86513 3.0019C10.5926 2.64441 10.9201 3.27813 10.9201 3.27813C11.3101 3.93435 10.8276 4.32683 10.4613 4.55431Z" fill="url(#paint0_radial_4219_17439)"/>
<path d="M8.6652 4.14774C8.67395 4.10899 9.47141 4.05024 9.75015 4.32523C9.80639 4.38023 9.86139 4.43897 9.89889 4.50897C9.92639 4.56147 9.96264 4.62896 9.94264 4.68646C9.71515 5.35517 9.07643 5.19768 9.07643 5.19768C8.42272 5.08269 8.58021 4.51397 8.6652 4.14774Z" fill="url(#paint1_radial_4219_17439)"/>
<path d="M9.26536 4.13425C8.96912 4.093 8.67039 4.12425 8.66539 4.148C8.60914 4.38799 8.5229 4.71547 8.65539 4.94421C8.54414 4.96421 8.47915 4.94171 8.47915 4.94171C8.43665 4.93046 8.39915 4.92421 8.3629 4.90921C7.83418 4.69547 7.93418 4.1555 8.01542 3.80677C8.02417 3.76677 8.89038 3.75802 9.17536 4.03801C9.20661 4.068 9.23786 4.1005 9.26536 4.13425Z" fill="url(#paint2_radial_4219_17439)"/>
<path d="M8.17249 4.36046C8.21124 4.38421 8.83246 3.32551 8.83746 2.87679C8.83871 2.78679 8.83621 2.6943 8.80871 2.60805C8.78871 2.54305 8.75746 2.46181 8.69621 2.42931C8.01875 2.06808 7.59127 2.6968 7.59127 2.6968C7.18879 3.33801 7.80626 4.13297 8.17249 4.36046Z" fill="url(#paint3_radial_4219_17439)"/>
<path d="M10.9204 3.27828C11.3591 3.07579 11.2579 2.77205 11.2604 2.74331C11.1379 2.82455 11.0154 2.81455 10.9617 2.7883C10.7929 2.70706 10.6542 2.46582 10.6542 2.46582C10.6542 2.46582 10.3654 3.27828 10.9204 3.27828Z" fill="url(#paint4_radial_4219_17439)"/>
<path d="M7.74924 4.37317C7.48551 4.37442 7.46551 4.20068 7.45801 4.18818C7.53675 4.19943 7.61675 4.16818 7.658 4.14193C7.79549 4.05569 7.6355 3.7832 7.6355 3.7832C7.6355 3.7832 8.23172 4.25318 7.74924 4.37317Z" fill="url(#paint5_radial_4219_17439)"/>
<path d="M9.82278 5.10868C10.0178 5.28492 10.149 5.16993 10.1628 5.16493C10.089 5.04994 10.0778 4.95244 10.1078 4.8537C10.1553 4.6987 10.4115 4.58496 10.4115 4.58496C10.4115 4.58496 9.54405 4.69745 9.82278 5.10868Z" fill="url(#paint6_radial_4219_17439)"/>
<path d="M10.6885 2.67371C10.7293 2.07727 10.1683 1.55315 9.43545 1.50306C8.70264 1.45297 8.07553 1.89587 8.03476 2.49231C7.99399 3.08875 8.555 3.61287 9.28781 3.66297C10.0206 3.71306 10.6477 3.27016 10.6885 2.67371Z" fill="#1976D2"/>
<path d="M10.3095 2.35359C10.9157 3.04356 10.7582 3.78602 10.2995 4.37724C9.81075 5.00845 8.56581 4.76472 8.03334 4.14475C7.50087 3.52478 7.62086 2.72357 8.19333 2.23235C8.7658 1.74113 9.7695 1.73863 10.3095 2.35359Z" fill="url(#paint7_radial_4219_17439)"/>
<path d="M9.51984 2.69221C9.5348 2.61003 9.46985 2.52939 9.37477 2.51208C9.27969 2.49477 9.19048 2.54735 9.17552 2.62953C9.16056 2.7117 9.22551 2.79235 9.32059 2.80966C9.41567 2.82697 9.50488 2.77439 9.51984 2.69221Z" fill="#0665B2"/>
<path d="M5.67205 5.73285L6.23827 4.64041L5.38332 4.19043L4.65211 5.60161C4.55086 5.79659 4.55086 6.02908 4.65211 6.22407C4.7821 6.47531 5.02084 6.6528 5.29832 6.7053L7.87569 7.19152L8.04818 5.96909L5.67205 5.73285Z" fill="#ED6D23"/>
<path d="M9.40293 5.67369C9.32543 5.5012 9.21794 5.38621 9.09169 5.34121L8.34923 5.10122C7.83926 4.91748 7.30929 5.42495 7.14055 5.83868C6.71057 6.61364 6.30684 7.70358 5.94311 9.07726C5.89436 9.2385 5.91186 9.40974 5.99186 9.55849C6.07185 9.70848 6.20559 9.81722 6.36809 9.86597C6.36934 9.86597 6.36934 9.86597 6.37059 9.86597C6.59932 9.92597 7.28429 10.066 7.86051 10.066C8.15674 10.066 8.42548 10.0285 8.58672 9.92472C8.68046 9.86472 8.73671 9.78597 8.75296 9.68473C8.8717 8.55354 9.0342 7.60359 9.44042 6.64614C9.55167 6.37115 9.53667 5.97118 9.40293 5.67369Z" fill="url(#paint8_radial_4219_17439)"/>
<path opacity="0.4" d="M9.48502 6.49712L7.55762 5.28593C7.55762 5.28593 7.90135 5.05344 8.01759 5.05969C8.13509 5.06594 9.48627 5.95465 9.52376 6.00464C9.56251 6.05339 9.48502 6.49712 9.48502 6.49712Z" fill="#212121"/>
<path d="M12.9227 8.57519L13.0839 8.3427L6.8305 4.00293L6.61426 4.31666L12.9227 8.57519Z" fill="#7C7D7D"/>
<path d="M6.61503 4.31602L6.83127 4.00229L4.93512 2.70111C4.84887 2.64236 4.73013 2.66361 4.67138 2.74986C4.61139 2.8361 4.63389 2.9561 4.72013 3.01484L6.61503 4.31602Z" fill="#504F4F"/>
<path d="M6.8412 3.72746C6.79995 3.66621 6.72745 3.63497 6.65496 3.64871C6.57996 3.66246 6.52996 3.72621 6.50247 3.76996C6.49872 3.77496 6.47122 3.81121 6.44997 3.85745C6.38372 3.86745 6.31622 3.8837 6.27623 3.8962L5.89125 4.06869C5.86875 4.07869 5.855 4.09994 5.85375 4.12369L5.84375 4.38868C5.84375 4.39617 5.845 4.40242 5.84625 4.40867C5.86875 4.48867 6.02874 4.59616 6.10874 4.62866C6.12873 4.63616 6.15373 4.64491 6.17873 4.64491C6.19373 4.64491 6.20873 4.64241 6.22373 4.63366C6.24998 4.61991 6.25998 4.59741 6.30998 4.47992C6.33497 4.42242 6.37997 4.31618 6.38872 4.30243C6.50747 4.23618 6.63871 4.21243 6.64746 4.20993C6.65996 4.20618 6.67246 4.19994 6.68371 4.19119C6.7112 4.17744 6.7212 4.15119 6.7212 4.14869C6.73245 4.12869 6.73995 4.10494 6.74245 4.08619L6.7537 4.05244C6.7862 3.9562 6.8487 3.8787 6.8537 3.87245C6.8787 3.8337 6.8737 3.77621 6.8412 3.72746Z" fill="#875334"/>
<path d="M6.50805 3.21529C6.39305 3.11654 6.35805 3.22404 6.28306 3.18779C6.20806 3.15154 6.24431 3.10154 6.17556 3.07404C6.06182 3.02905 6.01932 3.10154 5.95933 3.07904C5.89683 3.05655 5.92808 3.01155 5.84183 2.9928C5.74434 2.97155 5.72059 3.0428 5.65309 3.0128C5.58684 2.98155 5.59684 2.95655 5.5256 2.9403C5.44935 2.9228 5.39185 2.94155 5.31811 3.0503C5.12312 3.33653 5.01562 3.92775 5.01562 3.92775L5.86183 4.35898C5.86183 4.35898 6.40555 3.68151 6.47555 3.56902C6.54304 3.45777 6.62304 3.31528 6.50805 3.21529Z" fill="url(#paint9_linear_4219_17439)"/>
<path d="M8.4087 6.07247C8.4087 6.42245 8.14622 6.68118 7.88373 6.73868C7.87373 6.74618 7.73374 6.74868 7.71249 6.74618L4.80764 6.64619C4.66515 6.65619 4.52141 6.60869 4.41017 6.50994C4.24142 6.36245 4.18018 6.12871 4.25267 5.91623L4.93514 3.80634C4.94014 3.78884 4.95264 3.77509 4.96889 3.76884C4.98513 3.76259 5.00388 3.76134 5.02013 3.76884L5.97383 4.20882C6.00383 4.22256 6.01758 4.25631 6.00633 4.28631L5.56885 5.51125L7.71124 5.39875C7.71499 5.3975 7.72374 5.3975 7.73374 5.3975C7.77749 5.395 7.86248 5.39625 7.86998 5.4025C8.05872 5.4375 8.24871 5.57499 8.34371 5.77998C8.38496 5.86623 8.4087 5.96497 8.4087 6.07247Z" fill="#F78C1F"/>
<path opacity="0.4" d="M8.34337 5.78017L7.7334 5.39769C7.77715 5.39519 7.86214 5.39644 7.86964 5.40269C8.05838 5.43769 8.24837 5.57518 8.34337 5.78017Z" fill="#212121"/>
<defs>
<radialGradient id="paint0_radial_4219_17439" cx="0" cy="0" r="1" gradientUnits="userSpaceOnUse" gradientTransform="translate(10.299 3.88826) rotate(-74.763) scale(0.950704 0.79237)">
<stop offset="0.7247" stop-color="#554138" stop-opacity="0"/>
<stop offset="1" stop-color="#554138"/>
</radialGradient>
<radialGradient id="paint1_radial_4219_17439" cx="0" cy="0" r="1" gradientUnits="userSpaceOnUse" gradientTransform="translate(9.18562 3.93547) rotate(60.2381) scale(1.46853 1.22391)">
<stop offset="0.7247" stop-color="#554138" stop-opacity="0"/>
<stop offset="1" stop-color="#554138"/>
</radialGradient>
<radialGradient id="paint2_radial_4219_17439" cx="0" cy="0" r="1" gradientUnits="userSpaceOnUse" gradientTransform="translate(9.00189 3.76946) rotate(-85.7217) scale(1.45747 1.2147)">
<stop offset="0.7969" stop-color="#554138" stop-opacity="0"/>
<stop offset="1" stop-color="#554138"/>
</radialGradient>
<radialGradient id="paint3_radial_4219_17439" cx="0" cy="0" r="1" gradientUnits="userSpaceOnUse" gradientTransform="translate(8.46232 3.55838) rotate(-105.237) scale(1.35424 1.1287)">
<stop offset="0.7247" stop-color="#554138" stop-opacity="0"/>
<stop offset="1" stop-color="#554138"/>
</radialGradient>
<radialGradient id="paint4_radial_4219_17439" cx="0" cy="0" r="1" gradientUnits="userSpaceOnUse" gradientTransform="translate(10.9303 2.73041) rotate(119.603) scale(0.431266 0.319926)">
<stop offset="0.3031" stop-color="#554138"/>
<stop offset="1" stop-color="#554138" stop-opacity="0"/>
</radialGradient>
<radialGradient id="paint5_radial_4219_17439" cx="0" cy="0" r="1" gradientUnits="userSpaceOnUse" gradientTransform="translate(7.60224 4.07959) rotate(35.3525) scale(0.308956 0.229205)">
<stop offset="0.3031" stop-color="#554138"/>
<stop offset="1" stop-color="#554138" stop-opacity="0"/>
</radialGradient>
<radialGradient id="paint6_radial_4219_17439" cx="0" cy="0" r="1" gradientUnits="userSpaceOnUse" gradientTransform="translate(10.2082 4.93358) rotate(-173.471) scale(0.376162 0.279043)">
<stop offset="0.3031" stop-color="#554138"/>
<stop offset="1" stop-color="#554138" stop-opacity="0"/>
</radialGradient>
<radialGradient id="paint7_radial_4219_17439" cx="0" cy="0" r="1" gradientUnits="userSpaceOnUse" gradientTransform="translate(9.41889 2.49971) scale(1.92502)">
<stop offset="0.1701" stop-color="#42A5F5"/>
<stop offset="0.4571" stop-color="#3798EB"/>
<stop offset="0.9831" stop-color="#1976D2"/>
</radialGradient>
<radialGradient id="paint8_radial_4219_17439" cx="0" cy="0" r="1" gradientUnits="userSpaceOnUse" gradientTransform="translate(7.83631 7.86481) scale(2.17885)">
<stop offset="0.3637" stop-color="#F78C1F"/>
<stop offset="0.6778" stop-color="#F37F20"/>
<stop offset="1" stop-color="#ED6D23"/>
</radialGradient>
<linearGradient id="paint9_linear_4219_17439" x1="5.98559" y1="3.05025" x2="5.63677" y2="3.99206" gradientUnits="userSpaceOnUse">
<stop offset="0.35" stop-color="#A56C43"/>
<stop offset="1" stop-color="#8D5738"/>
</linearGradient>
</defs>
</svg>
