<svg width="18" height="18" viewBox="0 0 18 18" fill="none" xmlns="http://www.w3.org/2000/svg">
<path d="M2.96582 5.64593C2.98082 5.62468 3.03082 5.2397 3.51829 4.75972C4.00577 4.27975 4.43324 4.38974 4.67323 4.43224C4.91322 4.47474 5.2757 4.42474 5.51569 4.43974C5.75567 4.45474 6.30064 4.92596 6.51063 5.06471C6.72187 5.2022 7.1431 5.44219 7.28809 5.69717C7.43308 5.95091 7.60808 6.85211 7.60808 6.85211C7.60808 6.85211 6.2644 7.12835 6.2494 7.0771C6.2344 7.02585 2.96582 5.64593 2.96582 5.64593Z" fill="#523730"/>
<path d="M8.69291 12.3461C8.69291 12.3461 9.05914 12.3786 9.51036 12.3573C9.96284 12.3361 10.8553 12.0236 10.8553 12.0236C10.8553 12.0236 10.834 12.8948 10.8228 13.0673C10.8115 13.2398 10.8015 13.5198 10.5866 13.8098C10.3716 14.0997 10.1241 14.3797 9.94034 14.5197C9.75785 14.6597 9.53161 14.7022 9.32663 14.896C9.12164 15.0897 9.00914 15.4484 9.00914 15.4484L9.97159 15.6109C9.97159 15.6109 10.1553 15.4834 10.3166 15.3334C10.4778 15.1834 10.6716 14.7122 10.9615 14.3685C11.2515 14.0248 11.704 13.5298 11.8227 13.1523C11.9415 12.7761 12.059 12.3773 12.2427 12.1086C12.4252 11.8399 13.8464 10.5912 13.8464 10.5912L11.7165 9.3125L8.28418 11.0774L8.69291 12.3461Z" fill="#A95531"/>
<path d="M6.10198 9.60059L5.7445 10.1268L5.71575 11.1318C5.71575 11.1318 5.48201 11.1543 5.16578 11.2205C4.8483 11.288 4.57456 11.378 4.44582 11.393C4.24708 11.4167 4.07459 11.3042 3.86335 11.463C3.65211 11.6217 3.64586 11.7805 3.68711 12.0792C3.73085 12.3992 3.7646 12.5142 3.7446 12.7567C3.72336 13.0054 3.45212 13.3716 3.53836 13.8466C3.62461 14.3216 3.78335 14.4566 3.78335 14.4566L4.43582 14.0966L4.48332 13.7604C4.48332 13.7604 4.55706 13.6541 4.49206 13.3641C4.43082 13.0942 4.48207 12.3367 4.51956 12.3129C4.55706 12.2892 5.33327 12.3304 5.92824 12.3254C6.52321 12.3204 6.6057 12.3154 6.67695 12.2629C6.74945 12.2104 6.84944 11.9655 6.84944 11.9655C6.84944 11.9655 7.08443 12.2292 7.21442 12.2629C7.34441 12.2967 7.92688 11.9167 7.92688 11.9167L7.17317 9.82557L6.10198 9.60059Z" fill="#A95531"/>
<path d="M9.19048 15.0742L10.0054 15.5792C10.0054 15.5792 10.0117 15.6617 10.0054 15.7379C9.99669 15.8367 9.96794 15.9379 9.96794 15.9379C9.96794 15.9379 9.86294 16.0667 9.39922 16.1792C8.97924 16.2817 8.76175 16.2079 8.73925 16.1317C8.7005 16.0042 8.763 15.6979 8.85175 15.5129C8.98799 15.228 9.19048 15.0742 9.19048 15.0742Z" fill="#523730"/>
<path d="M3.65234 14.2672C3.65234 14.2672 3.95358 14.211 4.11232 14.091C4.30606 13.946 4.49355 13.751 4.49355 13.751C4.49355 13.751 4.59479 13.8072 4.64604 13.8522C4.69729 13.8972 4.75354 13.9322 4.75354 14.1185C4.75354 14.3059 4.66854 14.5897 4.56605 14.7997C4.46355 15.0097 4.35606 15.1522 4.25981 15.1409C4.16357 15.1297 4.03232 14.9534 3.90733 14.8059C3.69984 14.5609 3.65234 14.2672 3.65234 14.2672Z" fill="#523730"/>
<path d="M13.6914 8.06138C13.6914 8.06138 14.0664 7.87764 14.4651 8.11763C14.8638 8.35761 15.3188 9.23382 15.6613 9.26632C16.0038 9.29881 16.245 8.65885 16.6025 9.00258C16.8262 9.21757 16.5225 9.95878 16.0838 10.4538C15.7138 10.8712 15.3426 11.14 14.8876 10.8925C14.4326 10.645 14.4014 9.49756 14.4014 9.49756L13.6914 8.06138Z" fill="#523730"/>
<path d="M10.7735 14.2189C10.7735 14.2189 10.8598 13.9026 11.2147 13.6914C11.5697 13.4802 11.6185 13.5664 11.8672 13.4039C12.1172 13.2402 12.3659 13.0589 12.4147 12.9527C12.4622 12.8477 12.4534 12.3577 12.2997 11.974C12.1459 11.5903 12.1747 10.1316 12.1747 10.1316C12.1747 10.1316 11.4447 11.2165 10.831 11.5803C10.2173 11.944 9.81357 11.9065 9.45859 11.7727C9.1036 11.6377 8.90237 11.0715 8.82487 11.139C8.74862 11.2065 8.87237 11.7152 8.88237 11.9927C8.89237 12.2715 8.93986 12.4915 8.55613 12.6739C8.1724 12.8564 7.92242 12.9814 7.73993 13.0864C7.55744 13.1914 7.11621 13.5089 7.11621 13.5089C7.11621 13.5089 7.40369 13.6139 7.60618 13.5851C7.80742 13.5564 8.02866 13.5089 8.02866 13.5089L8.65238 13.7389L8.51739 14.3526C8.51739 14.3526 8.37364 14.5738 8.01866 14.5826C7.66368 14.5926 7.57744 14.4289 7.2412 14.3526C6.90497 14.2764 6.435 14.3239 6.32 14.2851C6.20501 14.2464 6.03877 14.0401 6.02252 13.9114C5.96377 13.4414 5.95502 13.2489 6.05127 13.1339C6.14751 13.0189 6.435 12.8939 6.50249 12.8264C6.56999 12.7589 6.83872 12.4227 7.00122 12.2702C7.16496 12.1165 7.32745 11.954 7.31745 11.8477C7.30745 11.7427 6.26125 9.92784 6.02127 9.94784C5.78128 9.96659 6.08876 10.754 6.19376 10.994C6.29875 11.234 6.61624 11.579 6.53874 11.6852C6.46249 11.7902 6.08751 11.6465 5.77128 11.2728C5.45505 10.899 5.52129 10.4853 5.52129 10.0341C5.52129 9.58286 5.50254 9.49661 5.43505 9.30412C5.36755 9.11163 5.29131 8.97789 5.17631 8.7854C5.06132 8.59291 4.60009 7.75795 4.60009 7.75795L3.40016 8.48791L3.26516 8.7954C3.26516 8.7954 3.07267 9.14038 2.90018 9.24662C2.72769 9.35162 1.40526 8.7854 1.46276 8.47666C1.50276 8.26168 1.66275 7.96919 1.79649 7.76795C1.93023 7.56671 2.02648 7.40297 2.08398 7.30673C2.14147 7.21048 2.37896 6.58301 2.5827 6.16429C2.81644 5.68556 2.84144 5.62681 3.12017 5.48307C3.39891 5.33933 3.60015 5.29058 3.60015 5.29058L3.83013 5.14684C3.83013 5.14684 4.00262 5.07059 4.18511 5.02185C4.3676 4.9731 4.71259 4.81061 4.90508 4.70561C5.09757 4.60062 5.10882 4.48438 5.19506 4.48438C5.28131 4.48438 5.36505 4.58062 5.24131 4.82061C5.11632 5.06059 4.83008 5.30308 4.83008 5.30308L4.89133 5.41808L5.21256 5.40558C5.21256 5.40558 5.60629 5.56932 5.88503 5.78931C6.16376 6.01054 6.38375 6.19303 6.38375 6.19303L7.11371 7.18173L8.71613 7.44047L9.67607 8.34292L11.7585 8.10293L11.931 7.56546C11.931 7.56546 12.6959 7.39797 13.0921 7.46047C13.6409 7.54546 14.5408 8.36292 14.5508 9.57161C14.5608 10.7815 14.0521 11.3853 13.9558 11.549C13.8596 11.7127 13.4946 12.1627 13.4371 12.5277C13.3796 12.8927 13.4084 13.2089 13.3796 13.3627C13.3509 13.5164 13.2746 13.6601 13.0346 13.7464C12.7947 13.8326 12.4634 13.8889 12.2384 14.0251C11.9022 14.2264 11.9422 14.3376 11.7972 14.4663C11.6335 14.6101 11.5097 14.6588 11.5097 14.6588L10.7735 14.2189Z" fill="#D17858"/>
<path d="M5.17898 8.78691C5.17898 8.78691 5.19148 8.18445 5.12648 7.59323C5.08273 7.19325 4.87524 6.55078 4.87524 6.55078C4.87524 6.55078 4.60776 7.40074 4.33527 7.56073C4.06279 7.72072 3.32533 8.25069 3.32533 8.25069C3.32533 8.25069 3.24033 8.44318 3.24533 8.56567C3.25033 8.68817 3.24533 8.83316 3.24533 8.83316L3.57156 8.54943C3.57156 8.54943 4.45652 8.07445 4.56526 8.11695C4.77275 8.19694 5.17898 8.78691 5.17898 8.78691Z" fill="#A95531"/>
<path d="M4.47852 5.38571C4.47852 5.38571 4.89599 5.14573 4.96974 5.09198C5.04474 5.03823 5.24473 4.82324 5.24473 4.82324C5.24473 4.82324 5.14598 5.08698 5.10348 5.15572C5.06099 5.22572 5.02349 5.33696 5.09848 5.36946C5.17348 5.40196 5.21598 5.40821 5.21598 5.40821C5.21598 5.40821 5.12473 5.49196 4.88474 5.48696C4.64476 5.48196 4.47852 5.38571 4.47852 5.38571Z" fill="#A95531"/>
<path d="M10.7735 14.2197C10.7735 14.2197 10.6285 14.3785 10.551 14.7809C10.4785 15.1534 10.501 15.3797 10.5772 15.4097C10.746 15.4747 11.0772 15.2997 11.2447 15.1972C11.4134 15.0947 11.6147 14.9147 11.6447 14.8659C11.6747 14.8172 11.6684 14.6885 11.6684 14.6885L11.6547 14.5485C11.6547 14.5485 11.3934 14.5035 11.2197 14.436C10.9672 14.3372 10.7735 14.2197 10.7735 14.2197Z" fill="#523730"/>
<path d="M8.02832 13.5092C8.02832 13.5092 8.21331 13.7404 8.31206 13.9254C8.4108 14.1104 8.51829 14.3541 8.51829 14.3541C8.51829 14.3541 8.78203 14.3004 9.01952 14.1241C9.16201 14.0179 9.32075 13.8791 9.32575 13.8054C9.3295 13.7316 9.06327 13.5342 8.83453 13.3967C8.60579 13.2592 8.4858 13.1767 8.4033 13.1729C8.32205 13.1692 8.19206 13.3017 8.14456 13.3492C8.09707 13.3954 8.02832 13.5092 8.02832 13.5092Z" fill="#523730"/>
<path d="M11.9941 7.51948C11.9191 7.47573 11.5854 7.60822 11.1317 7.65322C10.6779 7.69697 8.32432 7.59947 8.32432 7.59947C8.32432 7.59947 8.26182 8.31069 8.41306 9.0569C8.56431 9.80311 8.73305 10.2918 9.03553 10.3193C9.33802 10.3456 10.0305 10.4256 10.7867 10.3643C11.5416 10.3018 12.1191 10.0706 12.3066 9.72436C12.4941 9.37813 12.4728 8.82816 12.3779 8.45318C12.2154 7.82196 12.1004 7.58197 11.9941 7.51948Z" fill="#37B5E1"/>
<path d="M10.074 8.18614C10.074 8.18614 10.589 8.21239 10.8915 8.07115C11.194 7.92866 11.4777 7.72492 11.5227 7.59992C11.5677 7.47493 11.5402 7.30619 11.309 7.35119C11.0777 7.39619 10.669 7.58243 10.3853 7.61742C10.1015 7.65242 9.51408 7.66242 9.51408 7.66242L9.08785 9.0661L9.0791 12.4434C9.0791 12.4434 9.39034 12.4522 9.60282 12.4172C9.81656 12.3822 10.1265 12.3109 10.1265 12.3109L10.074 8.18614Z" fill="#0468A6"/>
<path d="M2.08723 7.3099L1.84849 7.69988C1.84849 7.69988 1.42101 8.3061 1.45726 8.57608C1.50351 8.92481 1.67975 9.04606 1.81724 9.15605C2.03598 9.32979 2.32596 9.2723 2.32596 9.2723C2.32596 9.2723 2.33846 9.39479 2.52595 9.40104C2.71219 9.40729 2.91843 9.27855 3.03468 9.14355C3.15092 9.00856 3.26716 8.79857 3.26716 8.79857L3.56965 8.55108C3.56965 8.55108 4.01962 7.67613 3.34341 7.23115C2.6672 6.78618 2.23597 6.94117 2.23597 6.94117C2.23597 6.94117 2.13097 7.2274 2.08723 7.3099Z" fill="url(#paint0_radial_4219_17447)"/>
<path d="M2.01826 8.19254C1.86327 8.18629 1.80452 8.37003 1.79827 8.55002C1.79202 8.73001 1.85577 8.89125 1.96576 8.90375C2.07576 8.91625 2.19075 8.79126 2.1845 8.52377C2.1795 8.33128 2.12575 8.19754 2.01826 8.19254Z" fill="#523730"/>
<path d="M2.16992 9.28118C2.16992 9.28118 2.42366 9.12493 2.5524 8.82495C2.63365 8.63621 2.68614 8.48747 2.77739 8.42247C2.84239 8.37622 2.95988 8.37372 2.95113 8.54371C2.94238 8.70496 2.78364 8.96244 2.71739 9.08244C2.59615 9.29867 2.45366 9.37242 2.41616 9.37742C2.37866 9.38242 2.32991 9.31242 2.30241 9.29867C2.27492 9.28493 2.16992 9.28118 2.16992 9.28118Z" fill="#523730"/>
<path d="M3.34273 6.33576C3.24523 6.44075 3.27023 6.64449 3.39772 6.75324C3.52522 6.86323 3.70396 6.83323 3.7902 6.76074C3.87645 6.68824 3.8827 6.472 3.75271 6.35451C3.63021 6.24201 3.41772 6.25451 3.34273 6.33576Z" fill="#2A2725"/>
<path d="M3.55078 5.28987C3.55078 5.28987 3.65453 5.18613 3.69952 5.16988C3.74452 5.15363 3.82327 5.12988 3.82327 5.12988L4.86321 5.8336L4.69072 6.07858L3.55078 5.28987Z" fill="#2A2725"/>
<path d="M2.08789 7.30954C2.08789 7.30954 2.09289 7.24205 2.11789 7.18205C2.14289 7.12205 2.18414 7.06206 2.18414 7.06206C2.18414 7.06206 2.49037 7.02206 3.17908 7.63453C3.62156 8.02826 3.7228 8.50198 3.7228 8.50198C3.7228 8.50198 3.70531 8.58323 3.63031 8.62947C3.58781 8.65572 3.49157 8.64072 3.49157 8.64072C3.49157 8.64072 3.33407 8.24824 2.99409 7.89451C2.57162 7.45329 2.08789 7.30954 2.08789 7.30954Z" fill="#2A2725"/>
<path d="M6.83923 6.63396C6.84298 6.60647 6.12177 6.32398 5.98053 6.30648C5.84429 6.30023 5.75054 6.31023 5.70429 6.33773C5.66055 6.36148 5.6293 6.40273 5.6168 6.45147C5.60555 6.49522 5.6118 6.54147 5.6318 6.57397C5.6368 6.58147 5.6318 6.60772 5.6168 6.62021C5.5643 6.66271 5.5343 6.71896 5.5293 6.77771C5.5243 6.8477 5.5518 6.8902 5.5968 6.93395C5.5443 6.98145 5.5193 7.00894 5.52055 7.08394C5.52555 7.17769 5.59555 7.22643 5.5968 7.22268C5.59555 7.22768 5.5593 7.27268 5.57305 7.34518C5.58305 7.40642 5.66929 7.46017 5.74429 7.49267C5.79304 7.51267 5.81179 7.50892 5.88428 7.52017C6.11927 7.58641 6.68424 7.47017 6.70924 7.46517C6.73549 7.46017 6.75674 7.43767 6.75799 7.41017L6.83923 6.63396Z" fill="url(#paint1_linear_4219_17447)"/>
<path d="M7.51946 2.51478C7.20448 2.1323 6.57577 1.88857 6.10329 2.03356C5.57332 2.19605 5.33458 2.62603 5.32458 3.13225C5.32083 3.31474 5.34958 3.49348 5.39833 3.61598C5.40458 3.62972 5.44832 3.73722 5.45582 3.77097C5.49457 3.90221 5.25458 4.0697 5.24334 4.22094C5.23584 4.33469 5.47707 4.37469 5.49832 4.39093C5.60332 4.47843 5.54957 5.01465 6.19204 4.9759C6.43827 4.9609 6.47702 4.89591 6.55452 4.88716C6.96199 4.84216 7.28073 5.0959 7.28073 5.0959L7.92694 4.33219C7.92694 4.33219 7.51197 4.02595 7.52821 3.98096C7.67946 3.54973 7.7232 2.76102 7.51946 2.51478Z" fill="#BA8D68"/>
<path d="M5.59969 4.64702C5.68843 4.64077 5.77218 4.60702 5.83842 4.54203C5.91217 4.47078 5.84717 4.41078 5.75968 4.46328C5.70718 4.49578 5.62843 4.51828 5.55469 4.51453L5.59969 4.64702Z" fill="#613E31"/>
<path d="M5.88935 3.97032C5.95335 3.95958 5.99188 3.87139 5.97542 3.77336C5.95896 3.67532 5.89373 3.60456 5.82974 3.61531C5.76575 3.62605 5.72721 3.71424 5.74367 3.81227C5.76014 3.91031 5.82536 3.98107 5.88935 3.97032Z" fill="#49362E"/>
<path d="M5.7476 3.56087C5.64511 3.62086 5.60011 3.55587 5.62136 3.48837C5.63761 3.43837 5.69511 3.38463 5.83135 3.37588C5.96009 3.36713 6.02759 3.42588 6.07134 3.45962C6.11508 3.49337 6.12258 3.53837 6.09508 3.54837C6.05884 3.56212 5.87385 3.48587 5.7476 3.56087Z" fill="#613E31"/>
<path d="M6.84699 3.72904L6.91949 3.5653C6.96699 3.47156 7.01073 3.38781 7.09198 3.39156C7.33072 3.40031 7.36322 3.81779 7.10698 3.95778C7.10698 3.95778 7.20697 4.25777 7.51196 4.28401C7.54446 4.28651 7.57195 4.28651 7.59695 4.28526C7.67695 4.28026 7.7282 4.20902 7.7357 4.13027C7.77944 3.63405 7.95568 3.70029 7.96693 3.12907C7.98193 2.34537 7.22197 1.96164 6.56701 2.02538C6.31202 2.05038 6.05828 2.13288 5.84455 2.27662C5.7533 2.33662 5.44207 2.57285 5.39582 2.74909C5.33582 2.97283 5.48831 3.12907 5.48831 3.12907C5.48831 3.12907 6.15453 2.96658 6.47451 2.98158C6.51701 2.98408 6.56576 2.98908 6.58951 3.02408C6.60076 3.03908 6.622 3.14157 6.627 3.16032C6.68075 3.39281 6.6845 3.5453 6.7795 3.68155C6.7945 3.70404 6.84699 3.72904 6.84699 3.72904Z" fill="#543930"/>
<path d="M12.1428 5.94241C12.0991 5.63368 11.9441 5.2012 11.6441 4.95997C11.3991 4.91122 11.2304 5.13246 10.9541 5.32245C10.9416 5.32245 10.9291 5.3262 10.9179 5.3337C10.9179 5.3337 9.56047 6.11991 8.61302 6.93736C8.50678 7.02861 8.36304 7.16485 8.29929 7.28859C8.23054 7.41859 8.14805 7.58233 8.25679 7.79232C8.36554 8.00231 9.00925 8.79976 9.00925 8.79976C9.01425 8.82976 10.0992 8.78101 10.1017 8.74977C10.1079 8.67227 10.0992 8.49353 9.86421 7.76232C10.2617 7.57108 11.5929 7.1386 12.0303 6.57363C12.1528 6.37864 12.1853 6.1524 12.1428 5.94241Z" fill="#C8C8C8"/>
<path d="M10.6688 9.05365L9.93755 7.78621C9.92755 7.77246 9.9138 7.76121 9.89755 7.75871C9.8813 7.75621 9.86255 7.75871 9.85005 7.76871L8.74136 8.58367C8.72761 8.59367 8.71886 8.60742 8.71511 8.62492C8.71136 8.64242 8.71636 8.65867 8.72636 8.67242L9.63631 9.73361L9.34508 10.1461C9.22883 10.3211 9.23133 10.5461 9.35008 10.7186C9.35008 10.7186 9.45507 10.8923 9.54382 10.9073C9.58132 10.9135 9.62506 10.9173 9.67381 10.8773L11.1062 9.87485C11.19 9.81611 11.1875 9.68111 11.0975 9.49737C11.0287 9.35488 10.73 9.10364 10.6688 9.05365Z" fill="#444444"/>
<path d="M6.61921 3.99005C6.62296 4.43377 6.55171 4.70251 6.48047 4.9125C6.74046 4.89375 6.8192 4.46127 6.8792 4.11504C6.93794 3.77006 6.9317 3.43132 6.9317 3.43132L6.51797 3.36133C6.51922 3.36258 6.61921 3.75631 6.61921 3.99005Z" fill="#2A2725"/>
<path d="M6.67567 1.73657C6.63317 1.73532 6.52318 1.73907 6.48318 1.74407C6.25319 1.77282 5.95196 1.88281 5.76572 2.02281C5.49948 2.22404 5.27949 2.47653 5.09575 2.74027C5.00326 2.87276 4.51703 2.95901 4.58453 3.1615C4.72202 3.56897 5.55448 3.19274 5.84571 3.23149C6.06445 3.26024 6.26944 3.35024 6.48443 3.39523C6.87191 3.47648 7.26064 3.53148 7.65437 3.57147C7.71061 3.57772 7.76561 3.57772 7.82311 3.57647C7.9106 3.57397 8.0131 3.58897 8.0356 3.49273C8.0606 3.38773 8.09809 3.26024 8.10309 3.154C8.13559 2.44403 7.57062 1.75782 6.67567 1.73657Z" fill="#5D6266"/>
<path d="M6.83549 6.63341C6.83924 6.60591 6.78674 6.50092 6.7005 6.34343C6.62175 6.19968 6.58801 6.14719 6.36302 6.09969C6.26677 6.07969 6.02928 6.06969 6.01929 6.10844C5.98054 6.25468 6.13553 6.30218 6.12803 6.30718C5.90054 6.30468 5.85179 6.35718 5.84054 6.44342C5.82305 6.57341 5.89804 6.57466 5.88929 6.61591C5.88054 6.65841 5.7718 6.64591 5.77805 6.8059C5.77555 6.9084 5.85929 6.9109 5.85679 6.97714C5.85429 7.04339 5.7393 7.01589 5.7318 7.12713C5.7243 7.23838 5.83804 7.23963 5.83929 7.28588C5.84179 7.33212 5.71055 7.37837 5.7593 7.48712C5.7718 7.51211 5.85054 7.51211 5.88429 7.51711C6.13428 7.59086 6.68425 7.46712 6.70925 7.46212C6.7355 7.45712 6.75675 7.43462 6.758 7.40712L6.83549 6.63341Z" fill="#BA8D68"/>
<path d="M11.652 4.95559C11.652 4.95559 10.4534 3.97564 9.32092 3.8669C8.18848 3.75815 7.84974 3.8219 7.72975 3.97439C7.60976 4.12688 7.60976 4.48686 7.44602 4.7256C7.28227 4.96559 7.08603 4.98684 7.08603 4.98684C7.08603 4.98684 7.10728 5.40057 7.15103 5.7818C7.19478 6.16303 7.30352 6.48926 7.30352 6.48926L6.83355 6.64175C6.83355 6.64175 6.75855 6.77174 6.7373 7.01173C6.71605 7.25172 6.70605 7.47171 6.70605 7.47171C6.70605 7.47171 6.7373 7.56795 7.14103 7.56795C7.54351 7.56795 8.21098 7.5217 8.31972 7.33671C8.60345 6.85424 8.51346 5.90054 8.51346 5.90054C8.51346 5.90054 8.99218 6.02053 9.26467 6.05303C9.53716 6.08553 9.73839 6.13678 9.98338 5.94429C10.1284 5.82929 10.8546 5.36682 11.0621 5.25807C11.2708 5.15183 11.652 4.95559 11.652 4.95559Z" fill="#FF8E00"/>
<path d="M4.99128 5.33888C4.91503 5.40387 4.45755 6.20633 4.11257 6.70506C3.80384 7.15253 3.24512 7.89249 3.24512 7.89249L3.53635 8.16873C3.53635 8.16873 6.13746 6.60881 6.19871 6.56631C6.25996 6.52507 6.35745 6.42257 6.27121 6.30883C6.18996 6.20133 6.06872 6.25258 5.98247 6.30508C5.90623 6.35132 3.82759 7.64751 3.82759 7.64751C3.82759 7.64751 4.23007 7.12003 4.63004 6.49757C5.00377 5.91635 5.24751 5.51012 5.28251 5.44137C5.29376 5.42012 5.24876 5.33763 5.17252 5.31638C5.11627 5.30138 5.01627 5.31763 4.99128 5.33888Z" fill="#2A2725"/>
<defs>
<radialGradient id="paint0_radial_4219_17447" cx="0" cy="0" r="1" gradientUnits="userSpaceOnUse" gradientTransform="translate(2.08764 8.80635) rotate(-59.3035) scale(1.18789 1.32503)">
<stop offset="0.6708" stop-color="#FFB169"/>
<stop offset="1" stop-color="#FFB169" stop-opacity="0"/>
</radialGradient>
<linearGradient id="paint1_linear_4219_17447" x1="6.80364" y1="7.00112" x2="5.51959" y2="6.87638" gradientUnits="userSpaceOnUse">
<stop stop-color="#A47B62"/>
<stop offset="0.9792" stop-color="#A47B62"/>
</linearGradient>
</defs>
</svg>
