<svg width="18" height="18" viewBox="0 0 18 18" fill="none" xmlns="http://www.w3.org/2000/svg">
<path d="M1.53823 2.43368C1.32449 2.80741 1.65947 3.60237 3.29689 3.92735C5.33553 4.33233 7.53166 3.51237 9.18783 3.8011C10.1303 3.9661 10.7277 4.17983 11.0702 4.33483C11.3365 4.45607 11.3365 4.46607 11.3365 4.46607L11.7589 3.12614C11.7589 3.12614 10.5828 2.48867 9.00534 2.41868C7.42792 2.34868 6.25548 2.8649 4.69181 2.82366C2.33444 2.76116 1.87321 1.84746 1.53823 2.43368Z" fill="#966738"/>
<path d="M13.7793 6.7165L15.0767 6.18652C15.0767 6.18652 15.7492 7.12522 15.9867 8.96763C16.2704 11.1688 15.5817 12.6249 15.8054 13.8674C16.0292 15.1098 16.5179 15.7798 16.4754 16.0735C16.4329 16.3672 16.2242 16.6872 15.9454 16.5347C15.6667 16.381 14.7967 15.2635 14.7592 13.7149C14.7167 11.9975 15.193 10.565 14.8017 9.03887C14.3668 7.34771 13.7793 6.7165 13.7793 6.7165Z" fill="#966738"/>
<path d="M11.6599 3.07617L11.0986 4.3486C11.0986 4.3486 11.8498 4.67984 12.6785 5.4348C13.4023 6.09476 13.921 6.90097 13.921 6.90097L15.0797 6.18851C15.0797 6.18851 14.4785 5.12356 13.5998 4.35985C12.5536 3.4499 11.6599 3.07617 11.6599 3.07617Z" fill="#D29F6C"/>
<path d="M13.8369 3.62793L5.21484 12.455L5.25234 12.8649L5.62482 12.9212L14.3406 4.1129L13.8369 3.62793Z" fill="#F3C976"/>
<path d="M14.2163 3.20248L13.7676 3.7037L14.2601 4.19618L14.78 3.7212C14.78 3.7212 15.6075 3.87994 15.6962 3.82745C15.8175 3.75495 16.5437 1.50882 16.5062 1.45007C16.4449 1.35383 15.6862 1.65756 15.2038 1.8288C14.6313 2.03129 14.1476 2.22628 14.1038 2.28628C14.0051 2.41877 14.2163 3.20248 14.2163 3.20248Z" fill="#858585"/>
<path d="M15.4192 16.2529C15.398 16.2529 15.3755 16.2504 15.3542 16.2442L4.93854 13.4218C4.85355 13.3981 4.78605 13.3318 4.76355 13.2468L2.10869 3.61732C2.09619 3.57107 2.09619 3.52357 2.11119 3.47733L2.43368 2.41113L2.91115 2.56612L2.66366 3.72981L5.18728 12.9143L15.3192 15.7454L16.0742 14.8742L16.2642 15.3654L15.613 16.1642C15.563 16.2217 15.493 16.2529 15.4192 16.2529Z" fill="#B8CED4"/>
<path d="M5.22567 12.5244L5.6244 12.9206C5.6244 12.9206 5.20317 13.4319 5.13567 13.4381C5.09568 13.4419 4.74945 13.1581 4.77694 13.0956C4.80444 13.0344 5.22567 12.5244 5.22567 12.5244Z" fill="#5D6265"/>
<path d="M7.46196 10.2205C7.45821 10.2305 6.797 10.9267 6.18703 11.5704C5.71455 12.0692 5.26708 12.5529 5.23333 12.5529C5.15708 12.5529 4.46837 11.9029 4.45712 11.7517C4.44587 11.6004 5.49957 10.6917 5.99954 10.338C7.03199 9.60679 7.46196 10.2205 7.46196 10.2205Z" fill="#DB0D2A"/>
<path d="M7.85423 10.625C7.82798 10.6487 7.07052 11.4212 6.4418 12.0624C6.01058 12.5024 5.6281 12.8786 5.6231 12.9149C5.61685 12.9661 6.20057 13.6411 6.26181 13.6411C6.37431 13.6411 7.478 12.4637 7.82048 11.8699C8.32545 10.995 7.85423 10.625 7.85423 10.625Z" fill="#DB0D2A"/>
</svg>
