<svg width="18" height="18" viewBox="0 0 18 18" fill="none" xmlns="http://www.w3.org/2000/svg">
<path d="M9.42482 5.52345C9.42482 5.52345 9.56481 6.06342 8.96484 6.20341C8.43987 6.32715 8.32988 5.79718 8.32988 5.79718C8.32988 5.79718 8.21363 5.26221 7.97365 5.20971C7.8824 5.18971 7.8624 5.21221 7.60117 5.17346C7.15494 5.10597 7.03745 4.88973 6.99995 4.69349C6.98745 4.63349 6.98245 4.57475 6.9787 4.5235C6.97245 4.45225 6.9662 4.39476 6.9412 4.36226C6.9212 4.33601 6.64372 4.22976 6.68121 4.09602C6.73121 3.91853 7.05869 3.77729 7.04494 3.6123C7.04619 3.5698 7.0187 3.43106 7.01495 3.41231C6.9887 3.25482 6.99745 3.03483 7.04744 2.81734C7.18494 2.21737 7.57617 1.76364 8.24738 1.6999C8.8486 1.6449 9.53606 2.09238 9.8173 2.6261C9.99729 2.96858 9.73605 3.85228 9.42857 4.31976C9.02859 4.92973 9.42482 5.52345 9.42482 5.52345Z" fill="#BA8D68"/>
<path d="M7.30975 4.62649C7.21475 4.68774 7.10726 4.70524 6.99976 4.69274C6.98726 4.63274 6.98227 4.57399 6.97852 4.52275C7.06351 4.54024 7.17101 4.53524 7.23475 4.514C7.35225 4.474 7.41474 4.56149 7.30975 4.62649Z" fill="#5D4037"/>
<path d="M7.66335 3.74228C7.66802 3.62087 7.60805 3.52 7.5294 3.51697C7.45076 3.51395 7.38323 3.60993 7.37856 3.73134C7.3739 3.85275 7.43387 3.95362 7.51251 3.95664C7.59115 3.95967 7.65868 3.86369 7.66335 3.74228Z" fill="#49362E"/>
<path d="M7.44195 3.43066C7.30446 3.47566 7.26821 3.38566 7.31321 3.30942C7.34571 3.25442 7.4282 3.20567 7.59194 3.23192C7.74569 3.25692 7.81193 3.34317 7.85443 3.39566C7.89693 3.44816 7.89443 3.50191 7.85943 3.50691C7.81068 3.51691 7.61194 3.37566 7.44195 3.43066Z" fill="#613E31"/>
<path d="M13.3569 11.3285L11.0358 11.7922L10.3896 9.55859L8.83594 10.5998L9.96838 12.8747L9.97338 12.8709C10.0634 13.0322 10.2159 13.1609 10.4096 13.2209C10.4659 13.2384 10.5221 13.2484 10.5796 13.2521V13.2546L10.5983 13.2534C10.6683 13.2571 10.7371 13.2521 10.8033 13.2384L13.6682 12.1497L13.3569 11.3285Z" fill="#616161"/>
<path d="M13.8546 10.8531C13.8146 10.7856 13.7284 10.7643 13.6609 10.8043L13.3647 10.9818C13.1634 11.1018 13.0547 11.443 13.0547 11.443L13.4947 12.1818L14.1109 12.7167C14.2696 12.8405 14.4884 12.8542 14.6621 12.753L14.7958 12.6742C14.8546 12.6392 14.8746 12.563 14.8396 12.5042L13.8546 10.8531Z" fill="#325599"/>
<path d="M6.60695 15.2238L8.03312 12.499C8.03312 12.499 9.80928 11.029 9.96427 10.9253C10.543 10.5378 10.658 9.99908 10.6005 9.60785C10.5555 9.30412 10.3542 8.90039 10.3542 8.90039L8.02312 9.59535L8.13312 10.0228C8.13312 10.0228 7.4194 10.9453 7.25316 11.1378C7.08692 11.3303 6.80194 11.599 6.5807 12.3577C6.34696 13.1577 5.76074 15.0863 5.76074 15.0863L6.60695 15.2238Z" fill="#7C7C7C"/>
<path d="M6.60584 16.0726C6.68333 16.0851 6.75583 16.0326 6.76833 15.9564L6.82332 15.6151C6.86207 15.3839 6.67083 15.0814 6.67083 15.0814L5.82213 14.9414L5.01592 15.0676C4.81843 15.1101 4.66719 15.2676 4.63344 15.4664L4.60719 15.6201C4.59594 15.6876 4.64094 15.7514 4.70844 15.7626L6.60584 16.0726Z" fill="#4568AD"/>
<path d="M7.25671 7.12666L6.13677 6.27421L5.5918 6.85668L6.72174 7.95162L6.72299 7.95037C6.94423 8.18161 7.46295 8.3391 7.89418 7.94662C8.30415 7.57289 8.81038 6.77668 8.81038 6.77668L7.93417 6.07422L7.25671 7.12666Z" fill="url(#paint0_linear_4219_17438)"/>
<path d="M7.2832 6.61671C7.60444 7.51541 8.39189 7.54291 8.39189 7.54291L9.01936 6.46797C9.1881 6.17924 9.09061 5.80676 8.80187 5.63801L8.69813 5.57677C8.40939 5.40803 8.16441 5.49052 7.77568 6.05799C7.42695 6.56922 7.2832 6.61671 7.2832 6.61671Z" fill="#ED6D23"/>
<path d="M8.02335 9.59445C7.71337 8.36451 7.65587 7.50081 7.72587 6.80834C7.81586 5.93589 8.23209 5.41467 8.69957 5.24967C9.27704 5.04594 9.67702 5.33967 9.83826 5.86214C9.94825 6.21837 9.927 6.49211 9.91825 6.6621C9.91825 6.6621 9.83826 7.5958 10.5807 8.76449C10.5807 8.76449 10.5095 9.27196 9.32453 9.5507C8.79706 9.67444 8.02335 9.59445 8.02335 9.59445Z" fill="url(#paint1_linear_4219_17438)"/>
<path d="M9.93234 8.45019C9.93234 8.45019 9.38986 8.18021 9.38361 8.17771C9.31487 8.14146 9.22987 8.16646 9.19362 8.2352L9.07738 8.45269C9.05863 8.48894 9.05738 8.52894 9.06988 8.56519C9.00738 8.60143 8.85364 8.69643 8.82114 8.76018C8.78365 8.83267 8.82614 8.90892 8.86614 8.92642C8.91239 8.94642 8.93364 9.01141 8.91989 9.06016C8.90489 9.11016 8.90614 9.16141 8.92989 9.20265C8.95364 9.2439 8.98364 9.26015 9.04113 9.2714C9.06863 9.2764 9.09738 9.3114 9.09738 9.3389C9.09613 9.38139 9.09613 9.45514 9.11738 9.48264C9.15988 9.53889 9.22987 9.52139 9.26612 9.56263C9.27987 9.57888 9.28112 9.65013 9.30987 9.67638C9.39486 9.75637 9.6711 9.60888 9.6711 9.60888L10.1986 9.12016L9.93234 8.45019Z" fill="#91674D"/>
<path d="M9.75688 8.36523L10.0906 8.45898L10.3194 9.0902C10.3194 9.0902 9.60564 9.79266 9.4844 9.59642C9.44565 9.53517 9.51689 9.46893 9.41315 9.43018C9.3394 9.40268 9.28441 9.36768 9.30565 9.25394C9.3144 9.21144 9.28066 9.15894 9.25066 9.15519C9.11567 9.13894 9.08067 9.06395 9.12066 8.96895C9.14316 8.91646 9.13816 8.82771 9.06192 8.78771C9.03442 8.77271 8.99567 8.71147 9.01317 8.62397C9.04192 8.48773 9.75688 8.36523 9.75688 8.36523Z" fill="url(#paint2_linear_4219_17438)"/>
<path d="M10.2155 9.16925L11.4517 8.33554V8.33429C11.6004 8.1868 11.6529 8.08431 11.6829 7.96056C11.7779 7.57308 11.5254 7.3031 11.5254 7.3031L10.3817 6.02441L9.67676 6.75313L10.6817 7.75807L9.93049 8.45179L10.2155 9.16925Z" fill="url(#paint3_linear_4219_17438)"/>
<path d="M10.2403 7.50025C10.2403 7.50025 10.9978 6.75154 10.9778 6.17532C10.9778 6.17532 10.6165 6.17407 10.0791 5.76784C9.74033 5.51285 9.29035 5.49161 9.10911 5.78909C8.94787 6.05158 8.97412 6.37531 9.2841 6.74654C9.51659 7.02277 10.2403 7.50025 10.2403 7.50025Z" fill="#ED6D23"/>
<path d="M5.53543 6.42244L5.53168 6.42494C5.47793 6.49243 5.38543 6.51118 5.32544 6.46494L5.0817 6.28119C5.0217 6.2362 5.0167 6.1437 5.07045 6.07621C5.1242 6.00871 5.21669 5.98996 5.27669 6.03621L5.52043 6.21995C5.58167 6.2662 5.59042 6.35494 5.53543 6.42244Z" fill="url(#paint4_linear_4219_17438)"/>
<path d="M5.7404 5.65381C5.74415 5.65631 5.7454 5.65881 5.7454 5.65881C5.85664 5.77756 5.95539 5.8763 5.99789 5.90255C6.11038 5.9738 6.21537 6.06379 6.28037 6.19003C6.40161 6.42627 6.24662 6.65876 6.06538 6.83C5.88539 7.00249 5.77165 7.03999 5.57541 7.00749C5.41542 6.98124 5.07668 6.62251 5.07668 6.62251C5.04169 6.58126 5.00169 6.53877 4.96169 6.49877C4.94669 6.48377 4.93044 6.46877 4.91544 6.45252L4.91419 6.45127C4.86795 6.40627 4.8617 6.34628 4.91294 6.28378C4.98044 6.20128 5.04669 6.24378 5.05419 6.25003L5.05544 6.25128C5.08668 6.28003 5.12043 6.31878 5.14543 6.33753C5.21793 6.39127 5.25792 6.40127 5.25792 6.40127L5.60041 5.9663L5.48416 5.8113C5.48416 5.8113 5.48291 5.8088 5.47916 5.80506C5.46666 5.78506 5.41792 5.71381 5.51041 5.63006C5.61291 5.54257 5.71915 5.63381 5.7404 5.65381Z" fill="url(#paint5_linear_4219_17438)"/>
<path d="M5.72898 6.24361C5.66898 6.30735 5.57524 6.31735 5.51899 6.26736L5.26025 6.03612C5.20401 5.98612 5.20651 5.89363 5.2665 5.82988C5.3265 5.76613 5.42025 5.75613 5.47649 5.80613L5.73523 6.03737C5.79023 6.08862 5.78773 6.17986 5.72898 6.24361Z" fill="url(#paint6_linear_4219_17438)"/>
<path d="M5.39289 6.28133C5.44913 6.20008 5.51788 6.10009 5.59413 6.01384C5.60537 6.00134 5.61537 5.99009 5.62662 5.97884C5.73162 5.8701 5.86911 5.85135 6.0416 5.94509C6.04785 5.94884 6.05285 5.95134 6.0591 5.95509C6.0691 5.96134 6.0791 5.96759 6.09035 5.97384L6.0916 5.97509C6.1066 5.98509 6.1216 5.99509 6.1366 6.00634C6.18784 6.04384 6.22659 6.09009 6.25034 6.13508C6.34534 6.28633 6.31784 6.43007 6.31784 6.43007C6.31784 6.43007 6.20784 6.76505 6.04535 6.7063C5.88286 6.64756 5.79911 6.41632 5.79911 6.41632L5.84161 6.24883C5.79287 6.24383 5.75037 6.26508 5.69287 6.33007C5.67412 6.35132 5.65287 6.37757 5.62787 6.40882C5.62537 6.41257 5.59413 6.45132 5.59163 6.45382C5.55413 6.49507 5.51163 6.51506 5.46038 6.51131C5.39414 6.50757 5.33789 6.44382 5.30664 6.41882C5.33039 6.38882 5.36164 6.32507 5.39289 6.28133Z" fill="url(#paint7_linear_4219_17438)"/>
<path d="M5.31934 6.66709L5.52183 6.50085L5.62932 6.37835L5.76931 6.25586L5.81806 6.27711L5.78806 6.4371L5.89306 6.59459L5.9593 6.65084L5.61557 6.89458L5.31934 6.66709Z" fill="url(#paint8_radial_4219_17438)"/>
<path d="M5.33278 6.57602C5.32903 6.65351 5.25404 6.69601 5.25904 6.69726C5.28029 6.70601 5.38528 6.67976 5.50152 6.54977C5.59152 6.44852 5.67776 6.31728 5.78276 6.28603C5.74651 6.46352 5.82526 6.59976 5.97025 6.65351C5.859 6.54977 5.76901 6.37478 5.87025 6.23478C5.78776 6.18479 5.69151 6.26728 5.64277 6.32728C5.58652 6.39478 5.53652 6.49977 5.43278 6.48602C5.36153 6.47727 5.33528 6.43227 5.36028 6.36478C5.42278 6.19979 5.56902 6.03104 5.71901 5.9373C5.77401 5.90355 5.8865 5.8948 6.0315 5.92355C5.92525 5.84105 5.74401 5.8673 5.67526 5.8998C5.61652 5.9273 5.63152 5.91605 5.57902 5.8823C5.55277 5.8648 5.52652 5.8473 5.50152 5.83105C5.52277 5.86605 5.56027 5.90855 5.56652 5.9498C5.57402 6.00105 5.52527 6.04479 5.49527 6.08104C5.41778 6.17354 5.35028 6.09354 5.27029 6.04354C5.32403 6.10729 5.33653 6.12729 5.36403 6.17229C5.40028 6.23353 5.34528 6.28353 5.30528 6.33103C5.22404 6.42852 5.05655 6.22978 5.0453 6.24228C5.0328 6.25728 5.33653 6.49102 5.33278 6.57602Z" fill="#91674D"/>
<path d="M10.1983 2.6019C10.0409 2.18442 9.70712 2.05318 9.59838 2.02068C9.54963 1.86944 9.3009 1.29572 8.35719 1.43321C8.12721 1.46696 7.95847 1.5732 7.80847 1.66695C7.74473 1.70694 7.68348 1.74569 7.62723 1.77069C7.58099 1.79194 7.49974 1.81069 7.43349 1.78694C7.28225 1.73444 7.336 1.50571 7.336 1.50571C7.336 1.50571 6.77853 1.6057 7.00852 2.14692C6.82103 2.22567 6.73103 2.42191 6.69478 2.6069C6.64479 2.85938 6.76478 3.10437 7.00602 3.21686C7.00602 3.21686 6.96477 2.80814 7.55349 2.84313C7.73598 2.85438 7.92597 2.88563 8.09721 2.82064C8.1622 2.79564 8.22345 2.75564 8.2872 2.72564C8.3022 2.72564 8.3097 2.72564 8.3097 2.72564C8.53094 2.84938 8.2272 3.36936 8.46969 3.68184C8.51719 3.74309 8.55968 3.72184 8.55968 3.72184L8.66218 3.5781C8.73967 3.47935 8.80967 3.39311 8.90342 3.4156C9.17965 3.48185 9.1209 3.97557 8.78967 4.07932C8.75717 4.08932 8.82342 4.64304 9.50588 4.65554C9.85837 4.66179 9.98836 4.3718 9.98836 4.3718C9.98836 4.3718 9.83712 4.4068 9.80712 4.27806C9.79087 4.21181 9.85337 4.12307 9.96586 4.02682C10.2883 3.74934 10.1796 3.4231 10.1346 3.32061C10.1821 3.22811 10.3208 2.92813 10.1983 2.6019Z" fill="#543930"/>
<path d="M10.1325 3.32164C10.1388 3.31039 10.03 3.57038 9.58006 3.51913C9.39507 3.51538 9.12884 3.95786 9.39382 4.25784C9.62881 4.52283 9.98629 4.37284 9.98629 4.37284C9.98629 4.37284 9.93755 4.38659 9.8663 4.36034C9.82005 4.34284 9.80505 4.28284 9.80505 4.28034C9.7888 4.2141 9.8513 4.12535 9.96379 4.02911C10.2863 3.74912 10.1775 3.42289 10.1325 3.32164Z" fill="url(#paint9_radial_4219_17438)"/>
<path d="M10.198 2.60145C10.1155 2.38147 9.95931 2.19523 9.75182 2.08523C9.72182 2.06898 9.64807 2.03148 9.59682 2.02148C9.61932 2.11898 9.61557 2.22272 9.57183 2.32772C9.57058 2.33147 9.52058 2.48896 9.38184 2.61395C9.47808 2.7527 9.52558 2.92019 9.56933 3.08518C9.60807 3.22892 9.64432 3.38641 9.57933 3.52016C9.66557 3.51641 9.80306 3.54265 9.95556 3.47766C10.1018 3.41516 10.1805 3.24892 10.2193 3.10018C10.2605 2.93519 10.258 2.76145 10.198 2.60145Z" fill="url(#paint10_radial_4219_17438)"/>
<path d="M9.57088 2.328C9.68463 2.05052 9.53588 1.79053 9.30714 1.61429C9.03841 1.40805 8.68093 1.38555 8.3572 1.43305C8.12721 1.4668 7.95847 1.57304 7.80847 1.66679C7.74473 1.70679 7.68348 1.74553 7.62723 1.77053C7.58099 1.79178 7.49974 1.81053 7.43349 1.78678C7.28225 1.73428 7.336 1.50555 7.336 1.50555C7.336 1.50555 6.77853 1.60554 7.00852 2.14676C6.82103 2.22551 6.73103 2.42175 6.69478 2.60674C6.64479 2.85922 6.76478 3.10421 7.00602 3.21671C7.00602 3.21671 6.96477 2.80798 7.55349 2.84298C7.73598 2.85422 7.92597 2.88547 8.09721 2.82048C8.24845 2.76298 8.30095 2.68298 8.46844 2.69548C8.64968 2.70923 8.88967 2.78173 9.07591 2.75673C9.45339 2.70548 9.56963 2.333 9.57088 2.328Z" fill="url(#paint11_radial_4219_17438)"/>
<path d="M9.39374 4.2581C9.275 4.12686 9.24625 3.91437 9.05876 3.79688C9.02126 3.91937 8.93002 4.03561 8.78877 4.07936C8.75628 4.08936 8.82252 4.64308 9.50499 4.65558C9.85747 4.66183 9.98746 4.37184 9.98746 4.37184C9.98746 4.37184 9.63373 4.52184 9.39374 4.2581Z" fill="url(#paint12_radial_4219_17438)"/>
<defs>
<linearGradient id="paint0_linear_4219_17438" x1="5.61713" y1="7.01968" x2="7.71005" y2="7.13596" gradientUnits="userSpaceOnUse">
<stop offset="0.5979" stop-color="#BA8D68"/>
<stop offset="1" stop-color="#A47B62"/>
</linearGradient>
<linearGradient id="paint1_linear_4219_17438" x1="7.5969" y1="7.10989" x2="10.795" y2="8.01168" gradientUnits="userSpaceOnUse">
<stop stop-color="#F78C1F"/>
<stop offset="0.482" stop-color="#F47F12"/>
<stop offset="1" stop-color="#EF6C00"/>
</linearGradient>
<linearGradient id="paint2_linear_4219_17438" x1="10.1803" y1="8.68568" x2="9.36635" y2="9.081" gradientUnits="userSpaceOnUse">
<stop offset="0.5979" stop-color="#BA8D68"/>
<stop offset="1" stop-color="#A47B62"/>
</linearGradient>
<linearGradient id="paint3_linear_4219_17438" x1="11.1626" y1="8.53866" x2="10.1394" y2="7.42244" gradientUnits="userSpaceOnUse">
<stop offset="0.5979" stop-color="#BA8D68"/>
<stop offset="1" stop-color="#A47B62"/>
</linearGradient>
<linearGradient id="paint4_linear_4219_17438" x1="5.42497" y1="6.12653" x2="5.17428" y2="6.37964" gradientUnits="userSpaceOnUse">
<stop offset="0.5" stop-color="#BA8D68"/>
<stop offset="1" stop-color="#A47B62"/>
</linearGradient>
<linearGradient id="paint5_linear_4219_17438" x1="5.26869" y1="6.81212" x2="6.05029" y2="5.93413" gradientUnits="userSpaceOnUse">
<stop stop-color="#A47B62"/>
<stop offset="0.1375" stop-color="#BA8D68"/>
<stop offset="0.831" stop-color="#BA8D68"/>
</linearGradient>
<linearGradient id="paint6_linear_4219_17438" x1="5.61797" y1="5.91995" x2="5.37353" y2="6.15589" gradientUnits="userSpaceOnUse">
<stop offset="0.5" stop-color="#BA8D68"/>
<stop offset="1" stop-color="#A47B62"/>
</linearGradient>
<linearGradient id="paint7_linear_4219_17438" x1="5.62004" y1="6.13764" x2="6.23976" y2="6.61013" gradientUnits="userSpaceOnUse">
<stop offset="0.5" stop-color="#BA8D68"/>
<stop offset="1" stop-color="#A47B62"/>
</linearGradient>
<radialGradient id="paint8_radial_4219_17438" cx="0" cy="0" r="1" gradientUnits="userSpaceOnUse" gradientTransform="translate(5.66621 6.44082) scale(0.388317)">
<stop stop-color="#A47B62"/>
<stop offset="1" stop-color="#BA8D68"/>
</radialGradient>
<radialGradient id="paint9_radial_4219_17438" cx="0" cy="0" r="1" gradientUnits="userSpaceOnUse" gradientTransform="translate(9.27885 3.95576) rotate(21.3098) scale(0.891075 1.28331)">
<stop offset="0.45" stop-color="#6D4C41" stop-opacity="0"/>
<stop offset="1" stop-color="#6D4C41"/>
</radialGradient>
<radialGradient id="paint10_radial_4219_17438" cx="0" cy="0" r="1" gradientUnits="userSpaceOnUse" gradientTransform="translate(9.39653 3.06307) rotate(-6.6787) scale(0.90324 1.13977)">
<stop offset="0.45" stop-color="#6D4C41" stop-opacity="0"/>
<stop offset="1" stop-color="#6D4C41"/>
</radialGradient>
<radialGradient id="paint11_radial_4219_17438" cx="0" cy="0" r="1" gradientUnits="userSpaceOnUse" gradientTransform="translate(8.38995 2.72083) rotate(-7.776) scale(1.85906 1.3973)">
<stop offset="0.45" stop-color="#6D4C41" stop-opacity="0"/>
<stop offset="1" stop-color="#6D4C41"/>
</radialGradient>
<radialGradient id="paint12_radial_4219_17438" cx="0" cy="0" r="1" gradientUnits="userSpaceOnUse" gradientTransform="translate(9.48775 4.07429) rotate(15.3024) scale(1.00076 0.643422)">
<stop offset="0.45" stop-color="#6D4C41" stop-opacity="0"/>
<stop offset="1" stop-color="#6D4C41"/>
</radialGradient>
</defs>
</svg>
