<svg width="18" height="18" viewBox="0 0 18 18" fill="none" xmlns="http://www.w3.org/2000/svg">
<path d="M12.3761 3.38086C11.7723 3.38086 11.1661 3.57085 10.6874 3.93958C10.3937 4.16582 9.16999 5.59199 8.80001 6.02447C8.30128 6.60569 7.70506 7.23566 6.93885 7.24441H6.92135C5.93141 7.24441 5.11395 6.22946 4.164 6.22821C4.084 6.22821 4.00401 6.23571 3.92151 6.25071C2.93906 6.4382 2.03036 8.03561 1.49414 9.1868V9.3393V9.48929V16.4989H16.4933V7.17316V7.06192V6.94067C15.6634 5.67824 13.9385 3.38086 12.3761 3.38086Z" fill="url(#paint0_linear_4219_17445)"/>
<path d="M11.0359 11.1224L10.8322 10.8299C10.6947 10.6312 10.3347 10.5449 10.3347 10.5449L9.60349 11.0524L9.09602 11.7274C8.97978 11.9011 8.98103 12.1273 9.09977 12.2986L9.19102 12.4311C9.21601 12.4673 9.25601 12.4861 9.29601 12.4861C9.32101 12.4861 9.34601 12.4786 9.36851 12.4636L10.9997 11.3261C11.0659 11.2799 11.0809 11.1886 11.0359 11.1224Z" fill="#4568AD"/>
<path d="M7.4609 2.29381C7.05592 1.87259 6.29471 1.63885 5.74849 1.84884C5.13727 2.08383 4.89229 2.60755 4.92353 3.20002C4.93478 3.41501 4.98478 3.62124 5.05228 3.76124C5.05978 3.77749 5.12227 3.89873 5.13352 3.93873C5.18977 4.08872 4.92103 4.30496 4.92103 4.4837C4.92103 4.61744 5.20977 4.64369 5.23477 4.66244C5.36476 4.75618 5.31351 5.33615 6.06722 5.23991C6.32096 5.20741 6.33346 5.18116 6.4247 5.17616C6.66219 5.16116 7.33216 5.3799 7.33216 5.3799L7.59714 4.82493C7.59714 4.82493 7.37965 4.72494 7.59214 4.05372C7.75463 3.53875 7.71964 2.5638 7.4609 2.29381Z" fill="#BA8D68"/>
<path d="M5.37625 4.9532C5.47999 4.9382 5.57749 4.8932 5.64998 4.8107C5.72998 4.72071 5.64873 4.65696 5.54999 4.72446C5.48999 4.76571 5.4 4.79946 5.3125 4.80071L5.37625 4.9532Z" fill="#5D4037"/>
<path d="M5.66034 4.1334C5.7347 4.11493 5.77219 4.00816 5.74406 3.89494C5.71593 3.78172 5.63284 3.70491 5.55848 3.72339C5.48411 3.74186 5.44663 3.84862 5.47476 3.96184C5.50289 4.07507 5.58597 4.15187 5.66034 4.1334Z" fill="#49362E"/>
<path d="M5.45648 3.66793C5.34024 3.74792 5.28274 3.67418 5.30274 3.59168C5.31774 3.53169 5.38149 3.46419 5.54148 3.44294C5.69147 3.42419 5.77772 3.48544 5.83146 3.52169C5.88646 3.55793 5.89771 3.60918 5.86646 3.62418C5.82521 3.64543 5.60147 3.56918 5.45648 3.66793Z" fill="#613E31"/>
<path d="M7.64107 2.52036C7.58732 2.44787 7.52858 2.38037 7.46108 2.32037C7.36608 2.23538 7.25609 2.16913 7.1411 2.11539C6.83611 1.97414 6.48613 1.9279 6.15615 1.99539C5.82617 2.06289 5.52118 2.24788 5.31494 2.51411C5.1562 2.72035 5.05871 3.00284 5.1587 3.24283C5.28244 3.20658 5.37369 3.09908 5.50868 3.07159C5.68367 3.03409 5.87491 3.03159 6.02365 2.93284C6.08115 2.89534 6.1299 2.8441 6.18365 2.8016C6.1974 2.79785 6.20615 2.7966 6.20615 2.7966C6.44488 2.86535 6.26864 3.42532 6.56988 3.66905C6.62987 3.7178 6.69987 3.7578 6.69987 3.7578C6.69987 3.7578 6.64862 3.36282 6.90111 3.35907C7.16359 3.35532 7.18484 3.62406 7.10985 3.85279C7.03235 4.09028 6.89861 4.00654 6.94611 4.08528C7.0236 4.21402 7.42233 4.25152 7.54732 4.22527C7.71482 4.19153 7.82231 4.00904 7.92231 3.87029C8.03855 3.7103 8.02855 3.52031 8.01105 3.32282C7.99105 3.10533 7.88731 2.90409 7.77231 2.71785C7.73107 2.64911 7.68857 2.58286 7.64107 2.52036Z" fill="#543930"/>
<path d="M11.4454 7.20184L10.6692 5.74316L7.66306 7.48182V7.48307C7.32058 7.66431 7.19184 8.08929 7.37308 8.43177C7.39182 8.46802 7.41432 8.50052 7.43932 8.53177L7.44432 8.53802C7.45057 8.54552 7.45682 8.55302 7.46307 8.56177L9.57046 11.0954L10.4554 10.4442L9.03299 8.37552L11.4454 7.20184Z" fill="#91674D"/>
<path d="M11.9381 6.00239C11.7631 5.67241 11.4219 5.48242 11.0706 5.48242C10.9144 5.48242 10.7569 5.51992 10.6094 5.59742V5.59617L8.48828 6.8286L9.36823 8.48351L11.5319 7.33232C12.0131 7.07734 12.1943 6.48237 11.9381 6.00239Z" fill="#646464"/>
<path d="M9.91296 9.65723L8.95801 10.3597L9.57048 11.0959L10.4542 10.4447L9.91296 9.65723Z" fill="#E0E0E0"/>
<path d="M13.1908 10.5508C11.5821 10.5508 10.2734 11.8595 10.2734 13.4669C10.2734 15.0755 11.5821 16.383 13.1908 16.383C14.7982 16.383 16.1069 15.0743 16.1069 13.4669C16.1069 11.8582 14.7982 10.5508 13.1908 10.5508ZM13.1908 15.3418C12.1583 15.3418 11.3146 14.5006 11.3146 13.4669C11.3146 12.4332 12.1571 11.592 13.1908 11.592C14.2245 11.592 15.0657 12.4332 15.0657 13.4669C15.0657 14.5006 14.2232 15.3418 13.1908 15.3418Z" fill="url(#paint1_radial_4219_17445)"/>
<path d="M4.8109 10.5508C3.20224 10.5508 1.89355 11.8595 1.89355 13.4669C1.89355 15.0755 3.20224 16.383 4.8109 16.383C6.41832 16.383 7.727 15.0743 7.727 13.4669C7.72575 11.8582 6.41832 10.5508 4.8109 10.5508ZM4.8109 15.3418C3.77846 15.3418 2.93475 14.5006 2.93475 13.4669C2.93475 12.4332 3.77721 11.592 4.8109 11.592C5.8446 11.592 6.6858 12.4332 6.6858 13.4669C6.6858 14.5006 5.8446 15.3418 4.8109 15.3418Z" fill="url(#paint2_radial_4219_17445)"/>
<path d="M13.4894 13.2583C13.4782 13.2283 13.4632 13.2008 13.4432 13.1745L12.297 11.6321L11.0245 9.91471L11.492 8.89851C11.502 8.87726 11.5095 8.85476 11.5145 8.83226C11.5195 8.80977 11.5233 8.78727 11.5233 8.76477C11.5245 8.74227 11.522 8.71977 11.5183 8.69852C11.5108 8.65477 11.4958 8.61353 11.472 8.57603C11.437 8.51978 11.387 8.47228 11.322 8.44354C11.2995 8.43354 11.277 8.42604 11.2533 8.42104C11.2445 8.41979 11.237 8.41854 11.2283 8.41729C11.2133 8.41479 11.1983 8.41229 11.1833 8.41229C11.182 8.41229 11.1808 8.41229 11.1783 8.41229C11.1745 8.41229 11.1708 8.41354 11.1683 8.41354C11.1433 8.41479 11.1183 8.41729 11.0945 8.42354C11.0883 8.42479 11.082 8.42604 11.0758 8.42854C11.0483 8.43729 11.022 8.44853 10.997 8.46353C10.9958 8.46478 10.9933 8.46603 10.992 8.46728C10.9695 8.48228 10.9496 8.49978 10.9308 8.51853C10.9258 8.52353 10.9208 8.52978 10.9158 8.53478C10.8971 8.55728 10.8796 8.58228 10.8671 8.60978L10.8646 8.61478L10.4133 9.59597L6.41729 9.01851L6.55103 8.51228C6.59978 8.32979 6.48979 8.1423 6.30605 8.09355C6.3048 8.09355 6.3023 8.09355 6.30105 8.0923C6.27355 8.0848 6.24605 8.08105 6.21855 8.08105C6.06731 8.08105 5.92856 8.1823 5.88732 8.33604L5.60483 9.40473L4.54239 13.4258C4.49489 13.6083 4.60363 13.7958 4.78613 13.8445C4.81612 13.852 4.84487 13.8557 4.87487 13.8557C4.87487 13.8557 4.87487 13.8557 4.87612 13.8557C5.02736 13.8557 5.16611 13.7545 5.20735 13.6008L6.1598 9.99345L8.77716 13.5795C8.78341 13.5883 8.79216 13.5958 8.79966 13.6033C8.80716 13.6108 8.81341 13.6183 8.82091 13.6258C8.82841 13.6333 8.83591 13.6395 8.84466 13.6458L8.84716 13.6483C8.84841 13.6495 8.85091 13.6508 8.85216 13.652C8.85966 13.6583 8.86716 13.6633 8.87591 13.6683C8.87966 13.6708 8.88216 13.6733 8.88591 13.6745C8.88966 13.6758 8.89341 13.6783 8.89716 13.6808C8.89841 13.6808 8.89966 13.682 8.90091 13.6833C8.90341 13.6845 8.90591 13.6858 8.90841 13.687C8.91216 13.6883 8.91466 13.6895 8.91841 13.6908C8.92216 13.692 8.92716 13.6945 8.93091 13.6958C8.93966 13.6995 8.94966 13.7033 8.95841 13.7058C8.96465 13.7083 8.9709 13.7108 8.9784 13.712C9.00215 13.717 9.0284 13.7208 9.0534 13.7208H13.1682C13.2982 13.7208 13.4169 13.6483 13.4744 13.532C13.5194 13.4483 13.5232 13.347 13.4894 13.2583ZM6.84977 9.77596L8.90841 10.0734L10.1158 10.2484L8.98715 12.7046L6.84977 9.77596ZM9.58962 13.0358L10.6971 10.6272L12.487 13.0358H9.58962Z" fill="url(#paint3_linear_4219_17445)"/>
<path d="M9.88023 13.4347C9.82148 13.3072 9.71399 13.2172 9.599 13.1985C9.4515 13.1735 8.84154 13.3722 8.75154 13.4134C8.5328 13.5109 8.26657 13.7884 8.38781 14.0772C8.46405 14.2547 8.5728 14.3084 8.68904 14.3084C8.78654 14.3084 8.88778 14.2709 8.98028 14.2372L9.05027 14.2122C9.09652 14.1959 9.15027 14.1797 9.20652 14.1634C9.4515 14.0909 9.75649 13.9997 9.88148 13.7897C9.93773 13.6922 9.93773 13.5597 9.88023 13.4347Z" fill="#504F4F"/>
<path d="M6.39588 8.03088L5.32843 7.77465C5.30218 7.76715 5.27469 7.76465 5.24844 7.76465C5.09345 7.76465 4.9522 7.86964 4.9147 8.02713C4.87096 8.21213 4.98345 8.39712 5.16844 8.44086L6.23588 8.6971C6.26213 8.70335 6.28838 8.7071 6.31588 8.7071C6.47087 8.7071 6.61086 8.6021 6.64961 8.44461C6.69211 8.26087 6.57837 8.07588 6.39588 8.03088Z" fill="#405966"/>
<path d="M12.054 8.09628C12.0377 8.08378 12.0202 8.07128 12.0027 8.06128C11.859 7.98004 11.6977 7.99879 11.5327 7.99129C11.3328 7.98129 11.1303 7.97254 10.9303 7.96004C10.8203 7.95254 10.7103 7.95129 10.6003 7.95129C10.4716 7.95129 10.3416 7.95379 10.2141 7.95379C10.1166 7.95379 10.0203 7.95254 9.92408 7.94754C9.91908 7.94629 9.91158 7.94629 9.90408 7.94629C9.72034 7.94629 9.5466 8.08503 9.48285 8.25002C9.39286 8.48376 9.5516 8.63125 9.75034 8.73875C9.99408 8.87124 10.2678 8.93374 10.534 8.99873C10.824 9.06873 11.114 9.16123 11.4115 9.20122C11.449 9.20622 11.4865 9.20872 11.5252 9.20872C11.7827 9.20872 12.049 9.09498 12.1952 8.88124C12.3702 8.62625 12.2977 8.28627 12.054 8.09628Z" fill="#504F4F"/>
<path d="M11.8168 6.83382L10.4119 5.96387L8.6907 8.98121H8.69195C8.59696 9.13495 8.56946 9.30994 8.59946 9.47493L8.94569 12.7048L9.79439 12.6935L9.97938 9.58118L11.8168 6.83382Z" fill="url(#paint4_linear_4219_17445)"/>
<path d="M8.82422 11.7486L8.94671 12.7035L9.79417 12.6923L9.86916 11.7373L8.82422 11.7486Z" fill="#E0E0E0"/>
<path d="M11.6423 5.54761C11.4811 5.44886 11.3023 5.40137 11.1261 5.40137C10.7974 5.40137 10.4749 5.56636 10.2886 5.86759L9.02246 8.04373L10.6161 9.02993C10.6161 9.02993 11.8111 7.18002 11.9611 6.90129C12.201 6.45131 12.1035 5.83384 11.6423 5.54761Z" fill="#7C7C7C"/>
<path d="M10.0549 3.4904C10.5511 2.74794 10.1399 2.26172 10.1399 2.26172C10.1399 2.26172 10.1724 3.00668 9.27995 3.19542C9.1462 3.22417 8.99746 3.21042 8.84372 3.19542C8.48749 3.15667 8.11126 3.10292 7.87002 3.56415C7.76628 3.75914 7.96377 4.15537 8.37749 4.27536C8.53749 4.32161 8.73373 4.32411 8.95496 4.25536C9.39244 4.11912 9.80117 3.87038 10.0549 3.4904Z" fill="#543930"/>
<path d="M10.0562 3.48747C10.5524 2.74501 10.1412 2.25879 10.1412 2.25879C10.1412 2.25879 10.1412 2.25879 10.1412 2.26129C10.1562 2.30879 10.4336 3.29123 9.04371 3.81371C8.42624 4.04619 8.09626 3.81496 7.91752 3.47872C7.90127 3.50372 7.88502 3.53122 7.87002 3.56122C7.76628 3.75621 7.96377 4.15244 8.37749 4.27243C8.53749 4.31868 8.73373 4.32118 8.95496 4.25243C9.39244 4.11619 9.80117 3.86745 10.0562 3.48747Z" fill="url(#paint5_radial_4219_17445)"/>
<path d="M10.1396 2.25977C10.1409 2.29101 10.1521 3.00598 9.27969 3.19097C9.14595 3.21972 8.99721 3.20597 8.84347 3.19097C8.50973 3.15347 8.1585 3.10597 7.91602 3.4772C8.09476 3.81343 8.42474 4.04467 9.04221 3.81218C10.4321 3.28971 10.1546 2.30851 10.1396 2.25977Z" fill="url(#paint6_radial_4219_17445)"/>
<path d="M10.2637 13.1891L10.1675 12.8454C10.1038 12.6104 9.79252 12.4092 9.79252 12.4092L8.93506 12.6467L8.23385 13.1154C8.06761 13.2404 7.99386 13.4541 8.04761 13.6566L8.09011 13.8129C8.10511 13.8691 8.1576 13.9066 8.2126 13.9066C8.22385 13.9066 8.2351 13.9054 8.24635 13.9016L10.1625 13.3691C10.2412 13.3479 10.2862 13.2666 10.2637 13.1891Z" fill="#4568AD"/>
<path d="M8.63758 3.94258C8.49009 3.91133 8.3426 3.89258 8.20386 3.89258C7.88887 3.89258 7.62514 3.99007 7.51264 4.24506C7.4214 4.44755 7.3264 4.65379 7.22766 4.86003C7.05142 5.23376 7.19516 5.80748 7.63264 5.94497C8.76883 6.3062 8.73758 6.64368 9.39754 6.94992C9.58878 7.03866 9.77002 7.07741 9.94001 7.07741C10.7725 7.07741 11.3612 6.15246 11.7087 5.56249C10.9462 4.78378 9.92876 4.22631 8.63758 3.94258Z" fill="url(#paint7_linear_4219_17445)"/>
<path d="M8.1819 4.91346L7.20945 4.62598L6.63073 6.77836L5.59079 7.65457C5.4108 7.59332 5.17331 7.56082 5.00457 7.56082C5.00457 7.56082 5.00457 7.56082 5.00332 7.56082C5.00207 7.56082 5.00207 7.56082 5.00082 7.56082C4.98332 7.56082 4.96707 7.56082 4.95207 7.56207C4.94457 7.56207 4.93832 7.56332 4.93207 7.56332C4.92332 7.56457 4.91457 7.56457 4.90707 7.56582C4.89832 7.56707 4.88832 7.56832 4.88082 7.56957C4.87832 7.56957 4.87582 7.57082 4.87207 7.57082C4.84958 7.57457 4.82958 7.58082 4.81708 7.58832C4.77083 7.61582 4.69958 7.67831 4.63209 7.73956C4.52834 7.83581 4.4746 7.97455 4.48585 8.11579L4.49334 8.21829C4.4846 8.24953 4.53209 8.32203 4.60334 8.36453C4.60709 8.36703 4.61209 8.36953 4.61584 8.37203C4.61959 8.37453 4.62459 8.37578 4.62959 8.37828C4.68458 8.40453 4.75083 8.41078 4.81583 8.36578C4.90082 8.30953 4.80958 8.15329 4.84958 8.08704C4.89582 8.0083 4.97582 7.9283 4.97582 7.9283C4.97582 7.9283 5.22331 7.90955 5.27705 7.9483C5.37205 8.02705 5.39955 8.09704 5.3458 8.24704C5.30705 8.35453 5.21831 8.46577 5.2633 8.50202C5.27955 8.51577 5.2958 8.52702 5.3108 8.53702C5.31205 8.53827 5.3133 8.53827 5.31455 8.53952C5.3258 8.54702 5.33705 8.55452 5.3483 8.55952C5.35455 8.56327 5.36205 8.56452 5.3683 8.56827C5.3733 8.57077 5.3783 8.57202 5.38455 8.57327C5.39455 8.57577 5.40455 8.57702 5.41455 8.57702C5.4158 8.57702 5.41705 8.57702 5.4183 8.57702H5.41955C5.47704 8.57827 5.53954 8.54202 5.63078 8.45077C5.75953 8.32078 5.88202 8.36453 5.98077 8.26578L7.2182 7.43458L7.2332 7.42458C7.25695 7.41208 7.2807 7.39708 7.30195 7.38083L7.30695 7.37833C7.37819 7.32208 7.43069 7.24459 7.45694 7.15584H7.45819L8.18565 4.91221L8.1819 4.91346Z" fill="url(#paint8_linear_4219_17445)"/>
<path d="M5.11768 7.71387C4.92144 7.71387 4.7627 7.87261 4.7627 8.06885C4.7627 8.26509 4.92144 8.42383 5.11768 8.42383C5.31392 8.42383 5.47266 8.26509 5.47266 8.06885C5.47266 7.87261 5.31392 7.71387 5.11768 7.71387Z" fill="url(#paint9_radial_4219_17445)"/>
<path d="M7.88935 4.27848C7.82561 4.25973 7.76186 4.25098 7.69936 4.25098C7.41188 4.25098 7.14689 4.43847 7.0619 4.7272L6.74316 5.91339L7.95935 6.27337L8.33808 5.10468C8.44057 4.7522 8.24183 4.38222 7.88935 4.27848Z" fill="#4300D9"/>
<path d="M6.74216 4.47513C6.75591 4.68262 6.39218 5.1526 6.38218 5.18134C6.36218 5.22884 6.56092 5.23634 6.60466 5.19134C6.64841 5.14635 7.05089 4.75012 7.30963 4.25514C7.42587 4.03265 7.68836 3.44144 7.68836 3.44144L7.32213 3.2627C7.32213 3.2627 7.21463 4.29014 6.9559 4.28639C6.69591 4.28264 6.70091 3.28769 6.70091 3.28769L6.11719 3.53018C6.11594 3.53018 6.73466 4.34639 6.74216 4.47513Z" fill="url(#paint10_linear_4219_17445)"/>
<path d="M7.70634 1.954C7.38135 1.64902 6.94637 1.49902 6.5089 1.49902C6.30391 1.49902 6.09642 1.53152 5.90018 1.59777C5.72019 1.65777 5.15397 1.9365 4.91148 2.41897C4.81024 2.62146 4.73024 2.8427 4.71024 3.06769C4.69899 3.19018 4.69774 3.40892 4.79649 3.51642C4.84024 3.56391 4.89273 3.57891 4.94273 3.57891C4.96898 3.57891 4.99523 3.57516 5.02023 3.57016C5.15147 3.54142 5.4827 3.40142 5.58145 3.39142C5.5952 3.39017 5.6077 3.39017 5.62145 3.39017C5.82893 3.39017 5.98268 3.53892 6.02392 3.56891C6.10767 3.62891 6.19142 3.67641 6.28891 3.67641C6.37266 3.67641 6.46765 3.64266 6.58389 3.55267C6.73514 3.43642 6.76888 3.34643 6.90388 3.32268C6.91888 3.32018 6.93638 3.31768 6.95387 3.31768C7.04512 3.31768 7.17011 3.36518 7.31636 3.59266C7.4401 3.78515 7.58384 3.8664 7.70634 3.8664C7.77758 3.8664 7.84133 3.84015 7.89007 3.79265C8.07507 3.61516 8.4388 2.63396 7.70634 1.954Z" fill="url(#paint11_radial_4219_17445)"/>
<path d="M15.5372 16.4994H2.39035C2.3841 16.4569 2.38285 16.4256 2.38785 16.4081C2.4716 16.3594 2.58784 16.2569 2.71033 16.1481C2.82533 16.0456 2.94532 15.9406 3.01782 15.9006L3.08656 15.8619C3.24281 15.7744 3.4028 15.6844 3.57154 15.6844C3.59154 15.6844 3.61154 15.6857 3.63278 15.6882C3.74653 15.7032 3.86527 15.7457 3.98027 15.7857C4.04651 15.8094 4.11276 15.8319 4.17776 15.8507C4.24275 15.8694 4.30775 15.8881 4.37275 15.9081C4.51649 15.9519 4.66398 15.9956 4.81272 16.0269C4.86147 16.0369 4.91397 16.0419 4.96896 16.0419C5.17145 16.0419 5.38894 15.9756 5.58018 15.9169C5.62768 15.9019 5.67393 15.8881 5.71768 15.8756C5.80142 15.8519 5.88392 15.8269 5.96766 15.8019C6.2064 15.7294 6.45389 15.6557 6.70387 15.6207C6.72762 15.6169 6.75012 15.6157 6.77262 15.6157C6.87261 15.6157 6.95761 15.6469 7.05635 15.6844C7.0951 15.6994 7.1351 15.7144 7.17885 15.7282C7.36884 15.7894 7.56383 15.8357 7.75132 15.8794C7.87381 15.9081 7.99756 15.9369 8.1188 15.9706C8.27254 16.0119 8.42253 16.0319 8.57877 16.0319C8.89376 16.0319 9.19749 15.9444 9.45373 15.8582L9.50498 15.8407C9.64372 15.7944 9.79996 15.7419 9.92745 15.7182C9.95995 15.7119 9.99495 15.7094 10.0324 15.7094C10.1799 15.7094 10.3387 15.7569 10.4924 15.8032C10.5562 15.8219 10.6187 15.8407 10.6787 15.8557C10.8687 15.9019 11.0486 15.9344 11.2286 15.9531C11.2711 15.9581 11.3136 15.9644 11.3561 15.9719C11.4124 15.9819 11.4711 15.9919 11.5299 15.9956C11.5399 15.9956 11.5486 15.9969 11.5586 15.9969C11.6424 15.9969 11.7161 15.9719 11.7886 15.9494L11.8261 15.9369C12.0411 15.8681 12.2498 15.7719 12.4523 15.6794L12.5823 15.6194C12.6311 15.5969 12.6736 15.5869 12.7161 15.5869C12.7861 15.5869 12.8535 15.6157 12.9348 15.6532C13.0485 15.7057 13.1673 15.7469 13.2823 15.7857C13.3423 15.8069 13.4035 15.8269 13.4635 15.8494C13.5148 15.8681 13.566 15.8919 13.6173 15.9169C13.7273 15.9681 13.8422 16.0206 13.966 16.0369C13.9822 16.0394 13.9985 16.0406 14.0147 16.0406C14.126 16.0406 14.2235 15.9919 14.3172 15.9431C14.3722 15.9156 14.4247 15.8894 14.476 15.8744C14.506 15.8656 14.536 15.8619 14.5672 15.8619C14.6972 15.8619 14.8259 15.9369 14.9459 16.0144C15.0059 16.0519 15.0697 16.0844 15.1297 16.1156C15.2197 16.1619 15.3059 16.2056 15.3784 16.2656C15.4409 16.3169 15.4959 16.4044 15.5372 16.4994Z" fill="#6D4C41"/>
<defs>
<linearGradient id="paint0_linear_4219_17445" x1="8.99424" y1="3.48593" x2="8.99424" y2="16.2862" gradientUnits="userSpaceOnUse">
<stop offset="0.2149" stop-color="#BCAAA4"/>
<stop offset="1" stop-color="#8D6E63"/>
</linearGradient>
<radialGradient id="paint1_radial_4219_17445" cx="0" cy="0" r="1" gradientUnits="userSpaceOnUse" gradientTransform="translate(13.1895 13.4669) scale(2.91641)">
<stop stop-color="#78909C"/>
<stop offset="0.5619" stop-color="#617A86"/>
<stop offset="1" stop-color="#546E7A"/>
</radialGradient>
<radialGradient id="paint2_radial_4219_17445" cx="0" cy="0" r="1" gradientUnits="userSpaceOnUse" gradientTransform="translate(4.80965 13.4669) scale(2.91641)">
<stop stop-color="#78909C"/>
<stop offset="0.5619" stop-color="#617A86"/>
<stop offset="1" stop-color="#546E7A"/>
</radialGradient>
<linearGradient id="paint3_linear_4219_17445" x1="5.33562" y1="10.9707" x2="13.3865" y2="10.9707" gradientUnits="userSpaceOnUse">
<stop stop-color="#D8EB21"/>
<stop offset="0.4414" stop-color="#D6E921"/>
<stop offset="0.6058" stop-color="#B8C721"/>
<stop offset="0.8038" stop-color="#ADBA21"/>
</linearGradient>
<linearGradient id="paint4_linear_4219_17445" x1="13.7532" y1="1.4029" x2="5.52518" y2="18.6087" gradientUnits="userSpaceOnUse">
<stop offset="0.1952" stop-color="#A47B62"/>
<stop offset="0.6908" stop-color="#BA8D68"/>
</linearGradient>
<radialGradient id="paint5_radial_4219_17445" cx="0" cy="0" r="1" gradientUnits="userSpaceOnUse" gradientTransform="translate(8.95919 3.24409) rotate(49.8188) scale(1.10944 1.79021)">
<stop offset="0.6443" stop-color="#6D4C41" stop-opacity="0"/>
<stop offset="1" stop-color="#6D4C41"/>
</radialGradient>
<radialGradient id="paint6_radial_4219_17445" cx="0" cy="0" r="1" gradientUnits="userSpaceOnUse" gradientTransform="translate(8.83931 1.82762) rotate(49.8188) scale(4.18259)">
<stop offset="0.2839" stop-color="#6D4C41"/>
<stop offset="0.4091" stop-color="#6D4C41" stop-opacity="0"/>
</radialGradient>
<linearGradient id="paint7_linear_4219_17445" x1="7.15492" y1="5.48499" x2="11.7093" y2="5.48499" gradientUnits="userSpaceOnUse">
<stop stop-color="#651FFF"/>
<stop offset="0.7047" stop-color="#5914F2"/>
<stop offset="1" stop-color="#530EEB"/>
</linearGradient>
<linearGradient id="paint8_linear_4219_17445" x1="4.48657" y1="6.60268" x2="8.1854" y2="6.60268" gradientUnits="userSpaceOnUse">
<stop offset="0.5" stop-color="#BA8D68"/>
<stop offset="1" stop-color="#A47B62"/>
</linearGradient>
<radialGradient id="paint9_radial_4219_17445" cx="0" cy="0" r="1" gradientUnits="userSpaceOnUse" gradientTransform="translate(5.1183 8.06885) scale(0.354981)">
<stop stop-color="#78909C"/>
<stop offset="0.5619" stop-color="#617A86"/>
<stop offset="1" stop-color="#546E7A"/>
</radialGradient>
<linearGradient id="paint10_linear_4219_17445" x1="6.87138" y1="3.8389" x2="6.78623" y2="4.81612" gradientUnits="userSpaceOnUse">
<stop stop-color="#646464"/>
<stop offset="0.9947" stop-color="#262626"/>
</linearGradient>
<radialGradient id="paint11_radial_4219_17445" cx="0" cy="0" r="1" gradientUnits="userSpaceOnUse" gradientTransform="translate(5.54735 2.30051) scale(1.47662)">
<stop stop-color="#81D4FA"/>
<stop offset="0.3601" stop-color="#5EB3E7"/>
<stop offset="0.7751" stop-color="#3C92D3"/>
<stop offset="1" stop-color="#2F85CC"/>
</radialGradient>
</defs>
</svg>
