<svg width="18" height="18" viewBox="0 0 18 18" fill="none" xmlns="http://www.w3.org/2000/svg">
<path d="M5.00198 10.8734L1.7334 5.26745L1.95214 5.14746L5.11197 10.7759L5.00198 10.8734Z" fill="url(#paint0_linear_4219_17428)"/>
<path d="M6.69141 11.6501L6.7439 11.5151L12.7223 10.6377L12.7573 10.8852L6.69141 11.6501Z" fill="url(#paint1_linear_4219_17428)"/>
<path d="M5.66015 10.5246L5.53516 10.5221L5.73765 2.75879L5.86264 2.76129L5.66015 10.5246Z" fill="url(#paint2_linear_4219_17428)"/>
<path d="M6.88199 11.1569L6.82324 11.0457L15.0741 6.76465L15.1316 6.87589L6.88199 11.1569Z" fill="url(#paint3_linear_4219_17428)"/>
<path d="M3.09776 5.00699L2.98145 5.05273L5.22719 10.7628L5.34351 10.7171L3.09776 5.00699Z" fill="#B0BEC5"/>
<path d="M4.6741 5.75205L4.55078 5.77246L5.34887 10.5942L5.47219 10.5738L4.6741 5.75205Z" fill="#B0BEC5"/>
<path d="M11.3922 9.69185L6.78613 11.1611L6.82412 11.2802L11.4302 9.81094L11.3922 9.69185Z" fill="#B0BEC5"/>
<path d="M12.647 10.071L6.74512 11.3008L6.77062 11.4231L12.6725 10.1933L12.647 10.071Z" fill="#B0BEC5"/>
<path d="M6.64146 11.6084C6.59521 11.9371 6.51396 12.2559 6.42272 12.5708C6.32772 12.8858 6.22523 13.1971 6.08398 13.4983C6.12898 13.1696 6.21148 12.8508 6.30272 12.5358C6.39772 12.2209 6.50146 11.9096 6.64146 11.6084Z" fill="#78909C"/>
<path d="M5.00321 10.8359C4.95196 11.1072 4.86447 11.3659 4.76822 11.6209C4.66823 11.8746 4.56073 12.1246 4.41699 12.3609C4.46824 12.0896 4.55573 11.8309 4.65198 11.5759C4.75072 11.3222 4.85947 11.0722 5.00321 10.8359Z" fill="#78909C"/>
<path d="M6.20984 13.2459L6.21859 13.2572C6.26859 13.3147 6.26109 13.4034 6.20359 13.4534L6.19234 13.4622C6.13484 13.5122 6.0461 13.5047 5.9961 13.4472L5.98735 13.4359C5.93736 13.3784 5.94485 13.2897 6.00235 13.2397L6.0136 13.2309C6.07235 13.1809 6.15984 13.1872 6.20984 13.2459Z" fill="#504F4F"/>
<path d="M4.64343 12.0028L4.65218 12.014C4.70218 12.0715 4.69468 12.1603 4.63719 12.2103L4.62594 12.219C4.56844 12.269 4.47969 12.2615 4.4297 12.204L4.42095 12.1928C4.37095 12.1353 4.37845 12.0465 4.43595 11.9965L4.4472 11.9878C4.50469 11.9378 4.59344 11.944 4.64343 12.0028Z" fill="#504F4F"/>
<path d="M5.57812 14.2617C5.58062 14.2567 5.58187 14.2529 5.58187 14.2529C5.58187 14.2529 5.57812 14.2629 5.57812 14.2617Z" fill="url(#paint4_linear_4219_17428)"/>
<path d="M5.58187 14.2529C5.58187 14.2529 5.58062 14.2567 5.57812 14.2617C5.57937 14.2617 5.58187 14.2529 5.58187 14.2529Z" fill="#EDA600"/>
<path d="M5.47357 12.7968C5.6855 12.7968 5.8573 12.625 5.8573 12.413C5.8573 12.2011 5.6855 12.0293 5.47357 12.0293C5.26165 12.0293 5.08984 12.2011 5.08984 12.413C5.08984 12.625 5.26165 12.7968 5.47357 12.7968Z" fill="url(#paint5_linear_4219_17428)"/>
<g opacity="0.22">
<path opacity="0.22" d="M5.47393 12.0918C5.55893 12.0918 5.63892 12.1243 5.69892 12.1843C5.82516 12.308 5.82641 12.5118 5.70142 12.638C5.64017 12.6993 5.56018 12.733 5.47268 12.733C5.38769 12.733 5.30769 12.7005 5.24769 12.6405C5.12145 12.5168 5.1202 12.313 5.24519 12.1868C5.30644 12.1268 5.38769 12.0918 5.47393 12.0918ZM5.47393 12.0293C5.37519 12.0293 5.27644 12.0668 5.20145 12.143C5.05271 12.2943 5.05395 12.5368 5.2052 12.6855C5.28019 12.7593 5.37769 12.7968 5.47518 12.7968C5.57393 12.7968 5.67267 12.7593 5.74767 12.683C5.89641 12.5318 5.89516 12.2893 5.74392 12.1405C5.66892 12.0668 5.57143 12.0293 5.47393 12.0293Z" fill="#212121"/>
</g>
<path d="M6.01828 13.3089C5.91828 13.3114 5.71079 13.3851 5.71079 13.3851C5.71079 13.3851 5.68955 13.3164 5.68205 13.1964C5.66955 13.0039 5.6533 12.8327 5.5308 12.7177C5.46831 12.6589 5.29082 12.5652 5.14082 12.5252C5.12583 12.5214 5.11208 12.5189 5.09708 12.5164C4.88834 12.4377 4.45086 12.5052 4.45086 12.5052L4.5846 12.2152C4.56336 12.1465 4.45086 12.0902 4.40336 12.1427C4.35462 12.1965 4.28212 12.3552 4.20837 12.5214C4.13838 12.6814 4.21587 12.7714 4.30837 12.8064C4.40086 12.8427 4.56211 12.8427 4.56211 12.8427C4.45836 12.9989 4.33337 13.2714 4.33087 13.2764C4.33087 13.2764 4.27087 13.3889 4.26587 13.3989C4.26337 13.4039 3.96339 13.8889 3.96339 13.8889C3.96339 13.8889 3.6909 14.0451 3.49216 14.2201C3.38467 14.3151 3.6409 14.3488 3.6409 14.3488C3.6409 14.3488 3.89589 14.3076 4.13088 14.2239C4.29087 14.1676 4.47836 13.8739 4.51461 13.8701C4.55086 13.8664 4.5721 13.8801 4.5721 13.8801L4.40086 14.2201C4.40086 14.2201 4.24587 14.3538 4.03713 14.5501C3.95214 14.6301 4.20087 14.7176 4.20087 14.7176C4.20087 14.7176 4.46211 14.6763 4.64085 14.5013C4.78209 14.3626 5.15457 13.7039 5.15457 13.7039C5.15457 13.7039 5.18957 13.6501 5.22082 13.6026C5.27082 13.5276 5.36956 13.3789 5.36956 13.3789C5.36956 13.3789 5.43706 13.4901 5.50081 13.5876C5.5583 13.6776 5.65205 13.6851 5.6958 13.6701C5.85204 13.6139 6.02953 13.5276 6.08453 13.4976C6.13952 13.4676 6.11827 13.3051 6.01828 13.3089Z" fill="url(#paint6_linear_4219_17428)"/>
<g opacity="0.22">
<path opacity="0.22" d="M4.45363 12.1855C4.47238 12.1855 4.49988 12.2005 4.51488 12.218L4.39364 12.4793L4.34489 12.5855L4.45988 12.568C4.46113 12.568 4.63237 12.5418 4.80737 12.5418C4.92361 12.5418 5.0161 12.553 5.07485 12.5755L5.08485 12.578C5.09735 12.5805 5.1111 12.583 5.12485 12.5868C5.27234 12.6243 5.43858 12.7168 5.48858 12.7643C5.59107 12.8605 5.60857 13.0055 5.62107 13.2017C5.62982 13.328 5.65107 13.4017 5.65232 13.4042L5.67107 13.4667L5.73232 13.4455C5.78731 13.4255 5.94606 13.3755 6.02105 13.373C6.0248 13.373 6.03355 13.373 6.0423 13.388C6.0548 13.4092 6.0548 13.4367 6.05105 13.4467C5.9898 13.4792 5.82106 13.5605 5.67607 13.6117C5.67482 13.6117 5.66732 13.6142 5.65607 13.6142C5.63732 13.6142 5.58982 13.608 5.55483 13.5542C5.49233 13.458 5.42483 13.348 5.42483 13.348L5.37359 13.2642L5.31984 13.3455L5.1711 13.5692C5.1311 13.628 5.11235 13.658 5.10235 13.6742H5.1011C4.99861 13.8555 4.70987 14.3492 4.59863 14.4579C4.45988 14.5929 4.26364 14.6429 4.2074 14.6542C4.15865 14.6354 4.1099 14.6079 4.0899 14.5892C4.29114 14.4004 4.44238 14.2704 4.44363 14.2692L4.45363 14.2617L4.45863 14.2504L4.62988 13.9105L4.65487 13.8605L4.60738 13.8305C4.59988 13.8255 4.57238 13.8092 4.52738 13.8092C4.52238 13.8092 4.51613 13.8092 4.51113 13.8105C4.47238 13.8142 4.44738 13.843 4.38114 13.9217C4.31364 14.0017 4.19865 14.1367 4.11115 14.1667C3.90866 14.2392 3.68742 14.2792 3.64118 14.2867C3.60493 14.2817 3.56743 14.2704 3.54368 14.2604C3.73367 14.0942 3.99241 13.9455 3.99491 13.9442L4.00866 13.9367L4.01741 13.923C4.31864 13.4355 4.32114 13.4305 4.32239 13.428C4.32864 13.4155 4.38489 13.3105 4.38614 13.3092C4.38614 13.308 4.38864 13.303 4.39364 13.2942C4.47863 13.1142 4.55738 12.9668 4.61488 12.8793L4.67987 12.783H4.56363C4.52238 12.783 4.39989 12.7768 4.33239 12.7505C4.30489 12.7393 4.26864 12.7193 4.25239 12.6818C4.23865 12.6468 4.2424 12.603 4.26614 12.5493C4.30989 12.4493 4.40239 12.2405 4.44988 12.188C4.44863 12.1855 4.44988 12.1855 4.45363 12.1855ZM4.45363 12.123C4.43364 12.123 4.41614 12.1293 4.40239 12.1443C4.35364 12.198 4.28114 12.3568 4.2074 12.523C4.1374 12.683 4.2149 12.773 4.30739 12.808C4.39989 12.8443 4.56113 12.8443 4.56113 12.8443C4.45738 13.0005 4.33239 13.273 4.32989 13.278C4.32989 13.278 4.26989 13.3905 4.26489 13.4005C4.26239 13.4055 3.96241 13.8905 3.96241 13.8905C3.96241 13.8905 3.68992 14.0467 3.49119 14.2217C3.38369 14.3167 3.63993 14.3504 3.63993 14.3504C3.63993 14.3504 3.89491 14.3092 4.1299 14.2254C4.28989 14.1692 4.47738 13.8755 4.51363 13.8717H4.52488C4.55488 13.8717 4.57113 13.883 4.57113 13.883L4.39989 14.2229C4.39989 14.2229 4.2449 14.3567 4.03616 14.5529C3.95116 14.6329 4.1999 14.7204 4.1999 14.7204C4.1999 14.7204 4.46113 14.6792 4.63987 14.5042C4.78112 14.3654 5.1536 13.7067 5.1536 13.7067C5.1536 13.7067 5.1886 13.653 5.21984 13.6055C5.26984 13.5305 5.36859 13.3817 5.36859 13.3817C5.36859 13.3817 5.43608 13.493 5.49983 13.5905C5.54358 13.658 5.60732 13.6792 5.65357 13.6792C5.66982 13.6792 5.68357 13.6767 5.69482 13.673C5.85106 13.6167 6.02855 13.5305 6.08355 13.5005C6.13855 13.4705 6.1173 13.3117 6.0198 13.3117H6.0173C5.91731 13.3142 5.70982 13.388 5.70982 13.388C5.70982 13.388 5.68857 13.3192 5.68107 13.1992C5.66857 13.0068 5.65232 12.8355 5.52983 12.7205C5.46733 12.6618 5.28984 12.568 5.13985 12.528C5.12485 12.5243 5.1111 12.5218 5.0961 12.5193C5.01985 12.4905 4.91236 12.4818 4.80737 12.4818C4.62613 12.4818 4.44988 12.5093 4.44988 12.5093L4.58363 12.2193C4.56863 12.1668 4.50613 12.123 4.45363 12.123Z" fill="#212121"/>
</g>
<path d="M3.39773 14.4552C3.40148 14.559 3.42023 14.604 3.47898 14.6152C3.55397 14.6289 3.63522 14.4377 3.63522 14.4377C3.67147 14.3777 3.70897 14.369 3.70897 14.369L4.0102 14.2827C4.0252 14.029 3.85521 13.9677 3.80896 13.959C3.80896 13.959 3.56522 14.1315 3.51023 14.1677C3.46523 14.1977 3.44898 14.2265 3.43898 14.2452C3.43023 14.2627 3.39398 14.3365 3.39773 14.4552Z" fill="#424242"/>
<path d="M3.86621 14.8417C3.85246 14.9441 3.87496 14.9879 3.93495 14.9966C4.00995 15.0066 4.12119 14.8204 4.12119 14.8204C4.15369 14.7592 4.19119 14.7492 4.19119 14.7492L4.49242 14.6279C4.49617 14.3742 4.30618 14.3217 4.25869 14.3154C4.25869 14.3154 4.03745 14.5192 3.9837 14.5579C3.93995 14.5892 3.92495 14.6192 3.91495 14.6379C3.90746 14.6529 3.88121 14.7292 3.86621 14.8417Z" fill="#424242"/>
<path d="M5.53152 12.8153L5.49902 12.7691L6.80645 11.2217L6.56647 11.7429L5.53152 12.8153Z" fill="#4E342E"/>
<path d="M5.04492 12.5629L5.4999 10.583L5.67364 10.6555L5.07867 12.6579L5.04492 12.5629Z" fill="#553A30"/>
<g opacity="0.47">
<path opacity="0.47" d="M5.58187 14.2529C5.58187 14.2529 5.58062 14.2567 5.57812 14.2617C5.57937 14.2617 5.58187 14.2529 5.58187 14.2529Z" fill="#2B2D2D"/>
</g>
<path d="M4.91699 12.6514L4.96324 10.8115L5.24447 10.8615L5.04324 12.6689L4.91699 12.6514Z" fill="#795548"/>
<path d="M5.5639 12.7971L5.50391 12.7108L6.46761 11.5146L6.69009 11.5984L5.5639 12.7971Z" fill="#795548"/>
<path d="M5.02324 10.8915L5.17448 10.9315L4.98949 12.5977L4.98074 12.5964L5.02324 10.8915ZM4.96324 10.8115L4.91699 12.6514L5.04449 12.6689L5.24323 10.8853L4.96324 10.8115Z" fill="#553A30"/>
<path d="M6.48233 11.5402L6.62107 11.6589L5.64988 12.6226L6.48233 11.5402ZM6.47358 11.4502L5.50488 12.7114L5.56488 12.7976L6.71482 11.6564L6.47358 11.4502Z" fill="#553A30"/>
<path d="M4.51611 13.8705C4.44987 13.8268 4.38112 13.7793 4.33237 13.7093C4.28238 13.6405 4.25238 13.5518 4.25738 13.463C4.26238 13.2918 4.36487 13.1205 4.52111 13.0605C4.46862 13.123 4.43112 13.1893 4.40237 13.2568C4.37362 13.3243 4.35612 13.3955 4.34862 13.4668C4.34362 13.5368 4.35737 13.6068 4.38987 13.673C4.41987 13.743 4.46987 13.803 4.51611 13.8705Z" fill="#504F4F"/>
<path d="M5.05753 13.3896C5.16002 13.2434 5.38501 12.8384 5.48501 12.8159C5.6025 12.7884 5.63125 12.8909 5.64375 12.9647C5.65 12.9997 5.66 13.0347 5.66 13.0347C5.68125 13.0259 5.71124 12.9259 5.71749 12.8397C5.72749 12.7059 5.6775 12.6322 5.5825 12.5759C5.48751 12.5197 5.07003 12.3285 5.07003 12.3285C4.94378 12.2547 4.79504 12.3847 4.74255 12.4697L4.33507 13.0947C4.28257 13.1797 4.30757 13.2909 4.39131 13.3434C4.39131 13.3434 4.6263 13.5021 4.75629 13.5721C4.90379 13.6484 4.95503 13.5359 5.05753 13.3896Z" fill="url(#paint7_linear_4219_17428)"/>
<path d="M4.75478 12.4985C4.83103 12.4085 4.89852 12.3097 5.02602 12.371C5.15226 12.431 5.356 12.5372 5.50474 12.6147C5.62224 12.676 5.70348 12.7247 5.71598 12.8647C5.73223 12.6735 5.65473 12.616 5.58349 12.5735C5.48849 12.5172 5.07102 12.326 5.07102 12.326C5.05352 12.316 5.03602 12.3122 5.01977 12.3072C4.90602 12.2747 4.78978 12.3947 4.74353 12.4672L4.33605 13.0922C4.33355 13.0959 4.3323 13.0997 4.33105 13.1034C4.4073 13.0434 4.75478 12.4985 4.75478 12.4985Z" fill="#757575"/>
<path d="M4.57273 13.8809C4.55148 13.8059 4.55148 13.7209 4.59148 13.6421C4.61023 13.6021 4.64398 13.5684 4.68273 13.5434C4.72148 13.5159 4.76647 13.5059 4.80897 13.4971H4.81522C4.86397 13.4934 4.91522 13.4996 4.96646 13.5196C5.01646 13.5409 5.06646 13.5834 5.08771 13.6371C5.11021 13.6896 5.10896 13.7446 5.09646 13.7921C5.08396 13.8384 5.06271 13.8859 5.02146 13.9121C5.03271 13.8684 5.02771 13.8246 5.02271 13.7859C5.01646 13.7471 5.00521 13.7121 4.98771 13.6871C4.95521 13.6384 4.89272 13.6184 4.81397 13.6109H4.82022C4.75647 13.6159 4.69898 13.6346 4.65648 13.6846C4.61523 13.7346 4.58773 13.8059 4.57273 13.8809Z" fill="#504F4F"/>
<path d="M4.39076 13.3401C4.39076 13.3401 4.62825 13.4951 4.75949 13.5651C4.90698 13.6438 4.96948 13.6176 5.07072 13.4713C5.17322 13.3251 5.41946 12.8714 5.51945 12.8426C5.64944 12.8051 5.64694 12.9789 5.64694 12.9789C5.64694 12.9789 5.71194 12.8826 5.62694 12.7464C5.6032 12.7076 5.47195 12.6476 5.35071 12.7976C5.27696 12.8889 5.01073 13.3026 4.90823 13.4601C4.88573 13.4938 4.84199 13.5038 4.80699 13.4826L4.30701 13.1763C4.30201 13.2401 4.30701 13.2876 4.39076 13.3401Z" fill="#504F4F"/>
<g opacity="0.24">
<path opacity="0.24" d="M5.57953 14.2588C5.57953 14.2588 5.57812 14.2602 5.57812 14.2616C5.57953 14.2602 5.57953 14.2588 5.57953 14.2588Z" fill="black"/>
</g>
<path d="M5.29593 13.4743C5.29593 13.4743 5.23718 13.248 5.14844 13.1643L5.26343 13.0293C5.34968 13.1255 5.39967 13.3143 5.39592 13.3855C5.39217 13.4368 5.29593 13.4743 5.29593 13.4743Z" fill="#504F4F"/>
<path d="M3.57684 14.425C3.59563 14.3204 3.57285 14.2287 3.52596 14.2203C3.47908 14.2119 3.42584 14.2899 3.40706 14.3945C3.38828 14.4992 3.41105 14.5908 3.45794 14.5992C3.50482 14.6076 3.55806 14.5296 3.57684 14.425Z" fill="#504F4F"/>
<path d="M4.05587 14.8105C4.07966 14.7069 4.05693 14.6133 4.00512 14.6014C3.95331 14.5895 3.89204 14.6638 3.86826 14.7675C3.84447 14.8711 3.8672 14.9647 3.919 14.9766C3.97081 14.9885 4.03209 14.9141 4.05587 14.8105Z" fill="#504F4F"/>
<path d="M5.03027 10.7968L5.83523 11.0531C5.91773 11.0581 6.07147 11.178 6.13522 11.2318L6.68019 11.648L7.09891 10.9893L6.10022 10.9718C6.01397 10.9606 6.01022 10.9281 5.93773 10.8818L5.59149 10.4131L5.03027 10.7968Z" fill="#F4C20D"/>
<path d="M5.58383 10.4544L5.88632 10.8456C5.96131 10.9431 6.07506 10.9981 6.1938 10.9994L6.99751 11.0456L6.69128 11.6018L6.02506 11.1094C5.95881 11.0556 5.87882 11.0194 5.79507 11.0031L5.10511 10.7906L5.58383 10.4544ZM5.59633 10.3682L4.96387 10.8119L5.77882 11.0631C5.85382 11.0769 5.92507 11.1094 5.98506 11.1581L6.71127 11.6943L7.1 10.9881L6.19755 10.9356C6.09506 10.9356 5.99881 10.8869 5.93632 10.8056L5.59633 10.3682Z" fill="#795548"/>
<path d="M6.67817 6.57937C9.52177 7.7893 12.2816 10.9141 12.2816 10.9141C12.2816 10.9141 13.0103 11.0204 13.5928 10.6979C14.2928 10.3104 15.6614 8.683 15.9814 8.41427C16.5551 7.93054 16.3239 6.8331 15.9564 6.41062C15.6489 6.05564 13.8515 4.35198 10.4767 3.21204C7.66062 2.26084 6.07945 2.40959 5.25449 2.52958C4.49953 2.63957 4.1883 2.69332 3.13585 3.19204C1.11471 4.14949 1.74843 5.39068 1.74843 5.39068C1.74843 5.39068 3.33584 5.15694 6.67817 6.57937Z" fill="url(#paint8_linear_4219_17428)"/>
<path d="M9.20824 2.8324C8.24829 2.58491 7.46958 2.48117 6.84087 2.45117C6.78212 2.46992 6.72212 2.49117 6.65963 2.51242C4.74723 3.16613 3.55979 4.02484 3.17231 4.49106C3.01357 4.6823 2.85358 5.26477 2.88608 5.44226C3.47229 5.52351 4.28725 5.6985 5.34095 6.06348L6.33964 5.68975L9.36823 3.19988L9.20824 2.8324Z" fill="url(#paint9_linear_4219_17428)"/>
<path d="M10.4766 3.21099C9.90668 3.0185 9.38795 2.87101 8.91548 2.75977C8.56675 2.86476 8.03177 3.04975 7.37556 3.36098C6.18687 3.92345 5.10318 4.64842 4.91069 5.0059C4.71945 5.36338 4.6582 5.84085 4.6582 5.84085C5.24067 6.01584 5.91314 6.25333 6.67685 6.57831C6.76559 6.61581 6.85559 6.65581 6.94433 6.69831L8.57425 4.95465L10.8216 3.33099C10.7091 3.29099 10.5941 3.25099 10.4766 3.21099Z" fill="url(#paint10_linear_4219_17428)"/>
<path d="M11.2821 9.88327C11.2821 9.88327 11.5558 9.46579 11.8708 9.08456C12.5433 8.27085 15.5119 5.97847 15.5119 5.97847C14.8194 5.37351 14.3407 5.03102 13.3057 4.45605L9.80592 6.4022L8.81348 7.46715L8.81973 7.81588C9.63218 8.3921 10.6984 9.3383 11.2821 9.88327Z" fill="url(#paint11_linear_4219_17428)"/>
<path d="M11.6582 3.65723L8.1196 5.48713L7.26465 6.85581C8.1196 7.29578 9.01331 7.94075 9.74452 8.52822C9.74452 8.52822 9.86826 8.00575 10.2757 7.56077C10.7307 7.0633 12.5331 5.34339 13.8481 4.77217C13.2456 4.40344 12.5169 4.01721 11.6582 3.65723Z" fill="url(#paint12_linear_4219_17428)"/>
<path d="M10.5857 3.24902C10.0969 3.37902 9.11949 3.6765 8.35328 4.14023C7.28709 4.78394 6.52463 5.32891 6.34089 5.68889C6.15715 6.04888 6.1084 6.34636 6.1084 6.34636L6.10965 6.34761C6.29339 6.42011 6.48213 6.4976 6.67837 6.5801C7.16709 6.78759 7.65207 7.05382 8.12329 7.34881C8.12329 7.34881 8.35203 6.87508 8.66326 6.5051C9.09199 5.99638 10.8844 4.40521 12.2831 3.93524C11.7706 3.69525 11.2056 3.46276 10.5857 3.24902Z" fill="url(#paint13_linear_4219_17428)"/>
<path d="M9.72346 4.45456C7.38609 3.20588 5.34869 2.86464 4.06251 2.7959C3.73878 2.90964 3.42504 3.05089 3.11506 3.19963C2.60509 3.44461 2.07762 3.78585 1.80888 4.30457C1.67139 4.5708 1.61764 4.87704 1.67764 5.17202C1.68764 5.22077 1.70014 5.33451 1.73888 5.37201C1.77138 5.40451 1.83388 5.38076 1.88638 5.37826C2.53384 5.34826 3.19381 5.46951 3.82127 5.61575C4.55748 5.78699 5.2787 6.02448 5.98366 6.29696C6.69737 6.57195 7.38484 6.89068 8.03355 7.29691C8.72851 7.73189 9.38598 8.22561 10.0122 8.75558C10.5909 9.24431 11.1571 9.74803 11.6896 10.288C11.8658 10.4667 12.0396 10.648 12.2083 10.833C12.2871 10.9192 12.3008 10.918 12.4233 10.9255C12.977 10.9567 13.4883 10.8142 13.9207 10.4667C14.3382 10.1318 14.7119 9.73928 15.0794 9.35055C15.1732 9.25181 15.2644 9.15181 15.3569 9.05057C14.4195 7.94438 12.4758 5.92448 9.72346 4.45456Z" fill="url(#paint14_radial_4219_17428)"/>
<path opacity="0.8" d="M9.72363 3.85399C11.9935 4.90268 13.6072 5.82638 14.7696 6.76508C15.5733 7.4138 15.5108 8.79122 15.5108 8.79122C16.4145 8.17251 16.392 7.54254 16.2608 7.04007C16.202 6.81633 16.1095 6.58634 15.9558 6.4101C15.5671 5.96137 15.0621 5.57764 14.5784 5.23641C14.0072 4.83393 13.3909 4.48645 12.7685 4.17147C11.4873 3.5215 10.1136 3.02403 8.70994 2.71405C7.97997 2.5528 7.23501 2.44781 6.48755 2.44156C5.90508 2.43781 5.32386 2.50281 4.75139 2.60905C4.17518 2.71655 3.07273 3.22277 3.05273 3.23277C3.05273 3.23277 4.02143 2.91154 4.91514 2.98028C6.82379 3.12527 8.29496 3.19402 9.72363 3.85399Z" fill="url(#paint15_radial_4219_17428)"/>
<defs>
<linearGradient id="paint0_linear_4219_17428" x1="2.75231" y1="6.8009" x2="4.96288" y2="10.8264" gradientUnits="userSpaceOnUse">
<stop stop-color="#78909C"/>
<stop offset="1" stop-color="#B0BEC5"/>
</linearGradient>
<linearGradient id="paint1_linear_4219_17428" x1="13.0544" y1="10.7086" x2="7.13456" y2="11.5894" gradientUnits="userSpaceOnUse">
<stop stop-color="#78909C"/>
<stop offset="1" stop-color="#B0BEC5"/>
</linearGradient>
<linearGradient id="paint2_linear_4219_17428" x1="5.68488" y1="7.1078" x2="5.64929" y2="8.29097" gradientUnits="userSpaceOnUse">
<stop stop-color="#546E7A"/>
<stop offset="1" stop-color="#90A4AE"/>
</linearGradient>
<linearGradient id="paint3_linear_4219_17428" x1="10.035" y1="9.45038" x2="8.51547" y2="10.2397" gradientUnits="userSpaceOnUse">
<stop stop-color="#546E7A"/>
<stop offset="1" stop-color="#90A4AE"/>
</linearGradient>
<linearGradient id="paint4_linear_4219_17428" x1="5.57333" y1="14.2538" x2="5.57332" y2="14.2538" gradientUnits="userSpaceOnUse">
<stop stop-color="#FFB300"/>
<stop offset="0.4007" stop-color="#FFCA28"/>
</linearGradient>
<linearGradient id="paint5_linear_4219_17428" x1="5.31385" y1="12.7448" x2="5.56856" y2="12.2157" gradientUnits="userSpaceOnUse">
<stop stop-color="#1A237E" stop-opacity="0.9713"/>
<stop offset="1" stop-color="#4885ED" stop-opacity="0.9713"/>
</linearGradient>
<linearGradient id="paint6_linear_4219_17428" x1="5.38484" y1="12.6928" x2="4.02885" y2="13.9241" gradientUnits="userSpaceOnUse">
<stop stop-color="#A11919"/>
<stop offset="0.4963" stop-color="#DB3236"/>
</linearGradient>
<linearGradient id="paint7_linear_4219_17428" x1="4.8403" y1="13.3088" x2="5.73102" y2="11.9422" gradientUnits="userSpaceOnUse">
<stop stop-color="#616161"/>
<stop offset="0.3978" stop-color="#2B2D2D"/>
<stop offset="0.9505"/>
</linearGradient>
<linearGradient id="paint8_linear_4219_17428" x1="7.84244" y1="8.4641" x2="9.23203" y2="5.78279" gradientUnits="userSpaceOnUse">
<stop offset="0.2498" stop-color="#FFA000"/>
<stop offset="0.3571" stop-color="#FDA703"/>
<stop offset="0.7403" stop-color="#F6BB0A"/>
<stop offset="1" stop-color="#F4C20D"/>
</linearGradient>
<linearGradient id="paint9_linear_4219_17428" x1="6.3117" y1="3.79843" x2="4.0395" y2="6.05801" gradientUnits="userSpaceOnUse">
<stop stop-color="#DB3236"/>
<stop offset="1" stop-color="#B71C1C"/>
</linearGradient>
<linearGradient id="paint10_linear_4219_17428" x1="8.28823" y1="3.76398" x2="5.4269" y2="6.28412" gradientUnits="userSpaceOnUse">
<stop stop-color="#3CBA54"/>
<stop offset="1" stop-color="#388E3C"/>
</linearGradient>
<linearGradient id="paint11_linear_4219_17428" x1="13.9952" y1="5.2297" x2="10.0233" y2="8.58228" gradientUnits="userSpaceOnUse">
<stop stop-color="#DB3236"/>
<stop offset="1" stop-color="#B71C1C"/>
</linearGradient>
<linearGradient id="paint12_linear_4219_17428" x1="11.6962" y1="4.60554" x2="8.46498" y2="7.41357" gradientUnits="userSpaceOnUse">
<stop stop-color="#3CBA54"/>
<stop offset="1" stop-color="#388E3C"/>
</linearGradient>
<linearGradient id="paint13_linear_4219_17428" x1="9.91072" y1="4.22809" x2="7.08205" y2="6.77803" gradientUnits="userSpaceOnUse">
<stop stop-color="#4885ED"/>
<stop offset="1" stop-color="#1565C0"/>
</linearGradient>
<radialGradient id="paint14_radial_4219_17428" cx="0" cy="0" r="1" gradientUnits="userSpaceOnUse" gradientTransform="translate(6.42509 8.01167) rotate(24.6967) scale(13.6213 5.25337)">
<stop offset="0.1663" stop-color="#212121" stop-opacity="0.9566"/>
<stop offset="0.5535" stop-color="#212121" stop-opacity="0"/>
</radialGradient>
<radialGradient id="paint15_radial_4219_17428" cx="0" cy="0" r="1" gradientUnits="userSpaceOnUse" gradientTransform="translate(8.31689 6.07273) rotate(17.77) scale(12.4621 3.78462)">
<stop offset="0.6567" stop-color="#FFECB4" stop-opacity="0.0338"/>
<stop offset="1" stop-color="#FFF9C4"/>
</radialGradient>
</defs>
</svg>
