<svg width="18" height="18" viewBox="0 0 18 18" fill="none" xmlns="http://www.w3.org/2000/svg">
<path d="M6.09577 8.74609C6.09577 8.74609 4.94083 9.23107 4.97333 9.36731C5.00583 9.5048 5.20707 9.82729 5.32831 10.1023C5.41456 10.2985 5.5783 10.6347 5.5458 10.926C5.5133 11.2172 5.35206 11.7334 5.35206 11.7334L7.08072 13.1946C7.08072 13.1946 7.39695 12.8546 7.89443 12.7021C8.37815 12.5534 8.74438 12.6471 8.92937 12.6621C9.24435 12.6859 9.70433 12.7271 9.76933 12.6946C9.90557 12.6271 7.96817 10.1273 7.96817 10.1273L6.09577 8.74609Z" fill="#FDD083"/>
<path d="M6.25518 10.126C6.25518 10.126 5.22524 11.7984 4.55402 12.7433C3.88281 13.6883 3.31034 14.3833 3.22909 14.472C3.14785 14.5607 2.72037 14.9082 2.74412 15.102C2.76787 15.2957 3.24534 15.6107 3.72157 15.9494C4.19779 16.2882 4.59402 16.6444 4.77151 16.5794C4.949 16.5144 5.43772 15.6269 5.74021 15.1907C6.30268 14.3808 8.38132 11.4547 8.38132 11.4547L6.25518 10.126Z" fill="#F3A25A"/>
<path d="M6.12561 11.2969C6.17436 11.2969 6.14436 11.7094 6.52309 11.9431C6.90307 12.1768 7.1993 12.1206 7.24055 12.1693C7.25805 12.1893 6.82057 12.8243 6.31185 13.5505C5.66063 14.4805 4.93817 15.4617 4.87443 15.5617C4.78568 15.6991 4.51944 15.9254 4.23571 15.7479C3.95697 15.5729 3.65699 15.3429 3.552 15.1729C3.447 15.0029 3.557 14.8429 3.71824 14.6329C3.80698 14.518 4.44445 13.6418 5.06692 12.7668C5.57939 12.0493 6.08561 11.2969 6.12561 11.2969Z" fill="#FDD083"/>
<path d="M4.97397 9.36881L9.55873 12.7174C9.55873 12.7174 10.8387 12.8736 11.6911 12.4399C12.5436 12.0062 13.5035 11.3562 14.4297 9.6413C15.3872 7.86764 16.2696 4.61407 13.1135 2.60042C9.95746 0.586778 7.1426 3.09415 6.32015 4.06659C5.49769 5.03904 4.74023 6.19148 4.67398 7.56766C4.61274 8.81009 4.97397 9.36881 4.97397 9.36881Z" fill="#FF4F28"/>
<path d="M7.71454 6.96146C9.11072 6.96021 9.96567 5.72902 9.80318 4.33285C9.64069 2.93667 7.90828 2.78418 7.90828 2.78418L5.66715 4.91282L5.51466 5.14655C5.51341 5.1478 5.6309 6.96396 7.71454 6.96146Z" fill="#EE3E23"/>
<path d="M6.0232 1.8766C5.22699 2.46282 4.86201 3.72025 5.52447 4.71895C6.11069 5.60265 7.61686 6.02263 8.67306 5.11643C9.78175 4.16523 9.39552 2.66031 8.81555 2.08034C8.04059 1.30663 6.79691 1.30663 6.0232 1.8766Z" fill="#D8CDC9"/>
<path d="M6.20718 2.24409C5.6872 2.75281 5.55471 3.75151 6.21717 4.25023C6.83214 4.71396 7.6746 4.65771 8.15332 4.08774C8.65205 3.49402 8.42831 2.47783 7.95958 2.16159C7.5796 1.90661 6.77839 1.68287 6.20718 2.24409Z" fill="#EAEBEB"/>
<path d="M6.08314 3.9213C6.31563 3.89755 6.34563 3.69131 6.39688 3.29383C6.44438 2.92635 6.80311 2.49263 7.11684 2.42263C7.45557 2.34763 7.65431 2.34388 7.65306 2.13015C7.65056 1.87641 7.15184 1.67892 6.58312 1.93516C6.00565 2.19514 5.71191 2.88761 5.71191 3.34008C5.71191 3.80131 5.86066 3.9438 6.08314 3.9213Z" fill="#FEFFFF"/>
</svg>
