<svg width="18" height="18" viewBox="0 0 18 18" fill="none" xmlns="http://www.w3.org/2000/svg">
<path d="M11.9257 3.68045C11.362 2.95299 11.4182 2.18303 10.5108 2.01304C9.91205 1.90054 9.44207 2.54676 9.45332 2.773C9.47332 3.20922 9.87705 3.18673 10.067 3.25422C10.067 3.25422 10.2308 4.04418 11.177 4.47416C12.6607 5.14787 13.2944 4.43666 13.2944 4.43666C13.2944 4.43666 12.4682 4.38041 11.9257 3.68045Z" fill="#543930"/>
<path d="M11.9257 3.6807C11.362 2.95324 11.4395 2.19328 10.5108 2.01329C9.92079 1.89954 9.44207 2.54701 9.45332 2.77325C9.47332 3.20948 9.87705 3.18698 10.067 3.25447C10.067 3.25447 10.2308 4.04443 11.177 4.47441C12.6607 5.14812 13.2944 4.43691 13.2944 4.43691C13.2944 4.43691 12.4682 4.38066 11.9257 3.6807Z" fill="url(#paint0_radial_4219_17453)"/>
<path d="M11.6995 3.30204C11.3632 2.69707 11.2682 2.1546 10.5108 2.01335C9.91205 1.90086 9.45207 2.52958 9.46207 2.75582C9.46207 2.75582 9.77831 2.34834 10.512 2.52333C11.2445 2.69832 11.6995 3.30204 11.6995 3.30204Z" fill="url(#paint1_radial_4219_17453)"/>
<path d="M11.926 3.68121C11.7847 3.49996 11.6735 3.29873 11.5722 3.09249C11.4822 2.91 11.4135 2.7475 11.1997 2.69001C10.861 2.59876 10.391 3.03249 10.4635 3.45372C10.5085 3.7137 10.8398 4.22118 11.776 4.59116C12.7884 4.99114 13.2934 4.43617 13.2934 4.43617C13.2934 4.43617 12.4684 4.38117 11.926 3.68121Z" fill="url(#paint2_radial_4219_17453)"/>
<path d="M13.3569 11.3295L11.0358 11.7932L10.3896 9.55957L8.83594 10.6008L9.96838 12.8756L9.97338 12.8719C10.0634 13.0331 10.2159 13.1619 10.4096 13.2219C10.4659 13.2394 10.5221 13.2494 10.5796 13.2531V13.2556L10.5983 13.2544C10.6683 13.2581 10.7371 13.2531 10.8033 13.2394L13.6682 12.1507L13.3569 11.3295Z" fill="#616161"/>
<path d="M13.8546 10.8531C13.8146 10.7856 13.7284 10.7643 13.6609 10.8043L13.3647 10.9818C13.1634 11.1018 13.0547 11.443 13.0547 11.443L13.4947 12.1818L14.1109 12.7167C14.2696 12.8405 14.4884 12.8542 14.6621 12.753L14.7958 12.6742C14.8546 12.6392 14.8746 12.563 14.8396 12.5042L13.8546 10.8531Z" fill="#325599"/>
<path d="M6.60695 15.2248L8.03312 12.4999C8.03312 12.4999 9.80928 11.03 9.96427 10.9263C10.543 10.5388 10.658 10.0001 10.6005 9.60883C10.5555 9.3051 10.3542 8.90137 10.3542 8.90137L8.02312 9.59633L8.13312 10.0238C8.13312 10.0238 7.4194 10.9463 7.25316 11.1387C7.08692 11.3312 6.80194 11.6 6.5807 12.3587C6.34696 13.1586 5.76074 15.0873 5.76074 15.0873L6.60695 15.2248Z" fill="#7C7C7C"/>
<path d="M6.60584 16.0726C6.68333 16.0851 6.75583 16.0326 6.76833 15.9564L6.82332 15.6151C6.86207 15.3839 6.67083 15.0814 6.67083 15.0814L5.82213 14.9414L5.01592 15.0676C4.81843 15.1101 4.66719 15.2676 4.63344 15.4664L4.60719 15.6201C4.59594 15.6876 4.64094 15.7514 4.70844 15.7626L6.60584 16.0726Z" fill="#4568AD"/>
<path d="M9.81757 2.62603C9.53634 2.0923 8.84887 1.64483 8.24766 1.70107C7.57519 1.76357 7.18396 2.2173 7.04772 2.81727C6.99772 3.03475 6.98897 3.25474 7.01522 3.41223C7.01897 3.43098 7.04522 3.56848 7.04522 3.61222C7.05897 3.77722 6.73023 3.91846 6.68024 4.09595C6.64274 4.22969 6.92023 4.33594 6.94022 4.36218C7.04272 4.49218 6.82648 5.0559 7.60019 5.17339C7.86143 5.21214 7.88142 5.18964 7.97267 5.20964C8.21141 5.26214 8.3289 5.79586 8.3289 5.79586C8.3289 5.79586 8.43889 6.32583 8.96387 6.20334C9.56384 6.06334 9.42384 5.52337 9.42384 5.52337C9.42384 5.52337 9.02636 4.92965 9.42759 4.31844C9.73633 3.85221 9.99881 2.96976 9.81757 2.62603Z" fill="#FFCA28"/>
<path d="M6.99879 4.69318C7.10628 4.70693 7.21503 4.68943 7.31002 4.62818C7.41502 4.56193 7.35252 4.47319 7.23503 4.51444C7.16378 4.53944 7.06503 4.54694 6.97754 4.52444L6.99879 4.69318Z" fill="#795548"/>
<path d="M7.66433 3.74326C7.66899 3.62185 7.60902 3.52097 7.53038 3.51795C7.45174 3.51493 7.38421 3.6109 7.37954 3.73231C7.37488 3.85373 7.43485 3.9546 7.51349 3.95762C7.59213 3.96064 7.65966 3.86467 7.66433 3.74326Z" fill="#404040"/>
<path d="M7.25769 7.12764L6.13774 6.27519L5.59277 6.85765L6.72271 7.9526L6.72396 7.95135C6.9452 8.18258 7.46392 8.34008 7.89515 7.9476C8.30513 7.57387 8.81135 6.77766 8.81135 6.77766L7.93515 6.0752L7.25769 7.12764Z" fill="url(#paint3_linear_4219_17453)"/>
<path d="M7.44195 3.43164C7.30446 3.47663 7.26821 3.38664 7.31321 3.31039C7.34571 3.2554 7.4282 3.20665 7.59194 3.2329C7.74569 3.2579 7.81193 3.34414 7.85443 3.39664C7.89693 3.44914 7.89443 3.50288 7.85943 3.50788C7.81193 3.51788 7.61319 3.37664 7.44195 3.43164Z" fill="#6D4C41"/>
<path d="M9.89041 2.1654C9.61417 1.79042 9.1467 1.53418 8.63798 1.48293C8.1955 1.43669 7.58303 1.51293 7.1893 1.86166C6.95306 2.07165 6.80307 2.35664 6.82307 2.68287C6.83432 2.87911 6.98931 2.98785 6.98931 2.98785C6.98931 2.98785 7.19805 2.55413 7.64428 2.69037C8.113 2.83411 8.32549 2.74912 8.32549 2.74912C8.1455 3.11785 8.27424 3.33283 8.39174 3.45783C8.45923 3.52907 8.52048 3.61282 8.55548 3.66157C8.57298 3.68657 8.59048 3.68657 8.59923 3.66157C8.62048 3.60157 8.66172 3.49408 8.69047 3.44283C8.78797 3.27409 8.92546 3.34283 8.92671 3.34408C9.11545 3.42158 9.1617 3.82031 8.83421 4.03405C8.82672 4.03905 8.80422 4.0528 8.81422 4.09279C8.91671 4.49902 9.38919 4.54027 9.41918 4.52652H9.42043C9.42293 4.52527 9.42543 4.52402 9.42793 4.52277C9.49293 4.49777 9.53293 4.44653 9.54793 4.37403C9.60167 4.11029 9.72167 4.0403 9.81166 3.92905C9.91541 3.80156 10.0329 3.65657 10.1179 3.24159C10.1991 2.84911 10.1204 2.47788 9.89041 2.1654Z" fill="#543930"/>
<path d="M9.89041 2.1654C9.61417 1.79042 9.1467 1.53418 8.63798 1.48293C8.1955 1.43669 7.58303 1.51293 7.1893 1.86166C6.95306 2.07165 6.80307 2.35664 6.82307 2.68287C6.83432 2.87911 6.98931 2.98785 6.98931 2.98785C6.98931 2.98785 7.19805 2.55413 7.64428 2.69037C8.113 2.83411 8.32549 2.74912 8.32549 2.74912C8.1455 3.11785 8.27424 3.33283 8.39174 3.45783C8.45923 3.52907 8.52048 3.61282 8.55548 3.66157C8.57298 3.68657 8.59048 3.68657 8.59923 3.66157C8.62048 3.60157 8.66172 3.49408 8.69047 3.44283C8.78797 3.27409 8.92546 3.34283 8.92671 3.34408C9.11545 3.42158 9.1617 3.82031 8.83421 4.03405C8.82672 4.03905 8.80422 4.0528 8.81422 4.09279C8.91671 4.49902 9.38919 4.54027 9.41918 4.52652H9.42043C9.42293 4.52527 9.42543 4.52402 9.42793 4.52277C9.49293 4.49777 9.53293 4.44653 9.54793 4.37403C9.60167 4.11029 9.72167 4.0403 9.81166 3.92905C9.91541 3.80156 10.0329 3.65657 10.1179 3.24159C10.1991 2.84911 10.1204 2.47788 9.89041 2.1654Z" fill="url(#paint4_radial_4219_17453)"/>
<path d="M7.2832 6.61769C7.60444 7.51639 8.39189 7.54389 8.39189 7.54389L9.01936 6.46895C9.1881 6.18021 9.09061 5.80773 8.80187 5.63899L8.69813 5.57774C8.40939 5.409 8.16441 5.4915 7.77568 6.05897C7.42695 6.57019 7.2832 6.61769 7.2832 6.61769Z" fill="#3615AF"/>
<path d="M8.02335 9.59445C7.71337 8.36451 7.65587 7.50081 7.72587 6.80834C7.81586 5.93589 8.23209 5.41467 8.69957 5.24967C9.27704 5.04594 9.67702 5.33967 9.83826 5.86214C9.94825 6.21837 9.927 6.49211 9.91825 6.6621C9.91825 6.6621 9.83826 7.5958 10.5807 8.76449C10.5807 8.76449 10.5095 9.27196 9.32453 9.5507C8.79706 9.67444 8.02335 9.59445 8.02335 9.59445Z" fill="url(#paint5_linear_4219_17453)"/>
<path d="M9.93234 8.45117C9.93234 8.45117 9.38986 8.18118 9.38361 8.17868C9.31487 8.14244 9.22987 8.16743 9.19362 8.23618L9.07738 8.45367C9.05863 8.48992 9.05738 8.52992 9.06988 8.56616C9.00738 8.60241 8.85364 8.69741 8.82114 8.76115C8.78365 8.83365 8.82614 8.9099 8.86614 8.92739C8.91239 8.94739 8.93364 9.01239 8.91989 9.06114C8.90489 9.11113 8.90614 9.16238 8.92989 9.20363C8.95364 9.24488 8.98364 9.26113 9.04113 9.27238C9.06863 9.27738 9.09738 9.31237 9.09738 9.33987C9.09613 9.38237 9.09613 9.45612 9.11738 9.48362C9.15988 9.53986 9.22987 9.52236 9.26612 9.56361C9.27987 9.57986 9.28112 9.65111 9.30987 9.67735C9.39486 9.75735 9.6711 9.60986 9.6711 9.60986L10.1986 9.12113L9.93234 8.45117Z" fill="#EDA600"/>
<path d="M9.75688 8.36621L10.0906 8.45996L10.3194 9.09117C10.3194 9.09117 9.60564 9.79364 9.4844 9.5974C9.44565 9.53615 9.51689 9.4699 9.41315 9.43115C9.3394 9.40366 9.28441 9.36866 9.30565 9.25491C9.3144 9.21242 9.28066 9.15992 9.25066 9.15617C9.11567 9.13992 9.08067 9.06492 9.12066 8.96993C9.14316 8.91743 9.13816 8.82869 9.06192 8.78869C9.03442 8.77369 8.99567 8.71244 9.01317 8.62495C9.04192 8.4887 9.75688 8.36621 9.75688 8.36621Z" fill="url(#paint6_linear_4219_17453)"/>
<path d="M10.2155 9.16925L11.4517 8.33554V8.33429C11.6004 8.1868 11.6529 8.08431 11.6829 7.96056C11.7779 7.57308 11.5254 7.3031 11.5254 7.3031L10.3817 6.02441L9.67676 6.75313L10.6817 7.75807L9.93049 8.45179L10.2155 9.16925Z" fill="url(#paint7_linear_4219_17453)"/>
<path d="M10.2413 7.50123C10.2413 7.50123 10.9987 6.75252 10.9787 6.1763C10.9787 6.1763 10.6175 6.17505 10.08 5.76882C9.7413 5.51383 9.29133 5.49258 9.11009 5.79007C8.94885 6.05255 8.97509 6.37629 9.28508 6.74752C9.51757 7.02375 10.2413 7.50123 10.2413 7.50123Z" fill="#3615AF"/>
<path d="M5.5364 6.42341L5.53265 6.42591C5.4789 6.49341 5.38641 6.51216 5.32641 6.46591L5.08268 6.28217C5.02268 6.23717 5.01768 6.14468 5.07143 6.07718C5.12517 6.00969 5.21767 5.99094 5.27767 6.03718L5.5214 6.22092C5.58265 6.26717 5.5914 6.35592 5.5364 6.42341Z" fill="url(#paint8_linear_4219_17453)"/>
<path d="M5.74138 5.65479C5.74513 5.65729 5.74638 5.65979 5.74638 5.65979C5.85762 5.77853 5.95636 5.87728 5.99886 5.90353C6.11136 5.97477 6.21635 6.06477 6.28135 6.19101C6.40259 6.42725 6.2476 6.65974 6.06636 6.83098C5.88637 7.00347 5.77262 7.04097 5.57638 7.00847C5.41639 6.98222 5.07766 6.62349 5.07766 6.62349C5.04266 6.58224 5.00266 6.53974 4.96267 6.49974C4.94767 6.48475 4.93142 6.46975 4.91642 6.4535L4.91517 6.45225C4.86892 6.40725 4.86267 6.34725 4.91392 6.28476C4.98142 6.20226 5.04766 6.24476 5.05516 6.25101L5.05641 6.25226C5.08766 6.28101 5.12141 6.31975 5.14641 6.3385C5.2189 6.39225 5.2589 6.40225 5.2589 6.40225L5.60138 5.96727L5.48514 5.81228C5.48514 5.81228 5.48389 5.80978 5.48014 5.80603C5.46764 5.78603 5.41889 5.71479 5.51139 5.63104C5.61388 5.54355 5.72013 5.63479 5.74138 5.65479Z" fill="url(#paint9_linear_4219_17453)"/>
<path d="M5.72996 6.24458C5.66996 6.30833 5.57621 6.31833 5.51997 6.26833L5.26123 6.03709C5.20498 5.9871 5.20748 5.8946 5.26748 5.83086C5.32748 5.76711 5.42122 5.75711 5.47747 5.80711L5.73621 6.03834C5.7912 6.08959 5.7887 6.18084 5.72996 6.24458Z" fill="url(#paint10_linear_4219_17453)"/>
<path d="M5.39386 6.2823C5.45011 6.20106 5.51886 6.10106 5.5951 6.01482C5.60635 6.00232 5.61635 5.99107 5.6276 5.97982C5.73259 5.87108 5.87009 5.85233 6.04258 5.94607C6.04883 5.94982 6.05383 5.95232 6.06008 5.95607C6.07008 5.96232 6.08008 5.96857 6.09133 5.97482L6.09258 5.97607C6.10758 5.98607 6.12257 5.99607 6.13757 6.00732C6.18882 6.04482 6.22757 6.09106 6.25132 6.13606C6.34631 6.2873 6.31881 6.43105 6.31881 6.43105C6.31881 6.43105 6.20882 6.76603 6.04633 6.70728C5.88384 6.64853 5.80009 6.4173 5.80009 6.4173L5.84259 6.24981C5.79384 6.24481 5.75134 6.26605 5.69385 6.33105C5.6751 6.3523 5.65385 6.37855 5.62885 6.4098C5.62635 6.41355 5.5951 6.45229 5.5926 6.45479C5.5551 6.49604 5.51261 6.51604 5.46136 6.51229C5.39511 6.50854 5.33887 6.4448 5.30762 6.4198C5.33137 6.3898 5.36261 6.32605 5.39386 6.2823Z" fill="url(#paint11_linear_4219_17453)"/>
<path d="M5.32031 6.66806L5.5228 6.50182L5.6303 6.37933L5.77029 6.25684L5.81904 6.27808L5.78904 6.43808L5.89403 6.59557L5.96028 6.65182L5.61655 6.89555L5.32031 6.66806Z" fill="url(#paint12_radial_4219_17453)"/>
<path d="M5.33376 6.57699C5.33001 6.65449 5.25501 6.69699 5.26001 6.69824C5.28126 6.70699 5.38626 6.68074 5.5025 6.55074C5.5925 6.4495 5.67874 6.31826 5.78374 6.28701C5.74749 6.4645 5.82623 6.60074 5.97123 6.65449C5.85998 6.55074 5.76999 6.37575 5.87123 6.23576C5.78874 6.18576 5.69249 6.26826 5.64374 6.32826C5.5875 6.39575 5.5375 6.50075 5.43375 6.487C5.36251 6.47825 5.33626 6.43325 5.36126 6.36575C5.42375 6.20076 5.57 6.03202 5.71999 5.93828C5.77499 5.90453 5.88748 5.89578 6.03247 5.92453C5.92623 5.84203 5.74499 5.86828 5.67624 5.90078C5.61749 5.92828 5.63249 5.91703 5.58 5.88328C5.55375 5.86578 5.5275 5.84828 5.5025 5.83203C5.52375 5.86703 5.56125 5.90953 5.5675 5.95078C5.575 6.00202 5.52625 6.04577 5.49625 6.08202C5.41875 6.17451 5.35126 6.09452 5.27126 6.04452C5.32501 6.10827 5.33751 6.12827 5.36501 6.17326C5.40126 6.23451 5.34626 6.28451 5.30626 6.332C5.22501 6.4295 5.05752 6.23076 5.04627 6.24326C5.03377 6.25826 5.33751 6.492 5.33376 6.57699Z" fill="#EDA600"/>
<defs>
<radialGradient id="paint0_radial_4219_17453" cx="0" cy="0" r="1" gradientUnits="userSpaceOnUse" gradientTransform="translate(12.4323 3.362) rotate(20.1456) scale(3.13242 1.80276)">
<stop offset="0.5617" stop-color="#6D4C41" stop-opacity="0"/>
<stop offset="1" stop-color="#6D4C41"/>
</radialGradient>
<radialGradient id="paint1_radial_4219_17453" cx="0" cy="0" r="1" gradientUnits="userSpaceOnUse" gradientTransform="translate(10.6386 3.38188) rotate(-43.5738) scale(1.65019 2.12688)">
<stop offset="0.5795" stop-color="#6D4C41" stop-opacity="0"/>
<stop offset="1" stop-color="#6D4C41"/>
</radialGradient>
<radialGradient id="paint2_radial_4219_17453" cx="0" cy="0" r="1" gradientUnits="userSpaceOnUse" gradientTransform="translate(12.5967 3.6691) rotate(128.557) scale(1.58246 2.42421)">
<stop stop-color="#6D4C41"/>
<stop offset="0.5264" stop-color="#6D4C41" stop-opacity="0"/>
</radialGradient>
<linearGradient id="paint3_linear_4219_17453" x1="6.05036" y1="7.13133" x2="7.51913" y2="7.13133" gradientUnits="userSpaceOnUse">
<stop offset="0.5979" stop-color="#FFCA28"/>
<stop offset="1" stop-color="#FFB300"/>
</linearGradient>
<radialGradient id="paint4_radial_4219_17453" cx="0" cy="0" r="1" gradientUnits="userSpaceOnUse" gradientTransform="translate(8.47534 2.97459) rotate(3.11277) scale(1.58866)">
<stop offset="0.5264" stop-color="#6D4C41" stop-opacity="0"/>
<stop offset="1" stop-color="#6D4C41"/>
</radialGradient>
<linearGradient id="paint5_linear_4219_17453" x1="7.5969" y1="7.10989" x2="10.795" y2="8.01168" gradientUnits="userSpaceOnUse">
<stop stop-color="#651FFF"/>
<stop offset="0.7047" stop-color="#5914F2"/>
<stop offset="1" stop-color="#530EEB"/>
</linearGradient>
<linearGradient id="paint6_linear_4219_17453" x1="9.49926" y1="9.36201" x2="10.319" y2="6.90285" gradientUnits="userSpaceOnUse">
<stop offset="0.5979" stop-color="#FFCA28"/>
<stop offset="1" stop-color="#FFB300"/>
</linearGradient>
<linearGradient id="paint7_linear_4219_17453" x1="9.96231" y1="9.51573" x2="10.782" y2="7.05657" gradientUnits="userSpaceOnUse">
<stop offset="0.5979" stop-color="#FFCA28"/>
<stop offset="1" stop-color="#FFB300"/>
</linearGradient>
<linearGradient id="paint8_linear_4219_17453" x1="5.42594" y1="6.12751" x2="5.17526" y2="6.38062" gradientUnits="userSpaceOnUse">
<stop offset="0.5" stop-color="#FFCA28"/>
<stop offset="1" stop-color="#FFB300"/>
</linearGradient>
<linearGradient id="paint9_linear_4219_17453" x1="5.26967" y1="6.81309" x2="6.05127" y2="5.9351" gradientUnits="userSpaceOnUse">
<stop stop-color="#FFB300"/>
<stop offset="0.1375" stop-color="#FFCA28"/>
<stop offset="0.831" stop-color="#FFCA28"/>
</linearGradient>
<linearGradient id="paint10_linear_4219_17453" x1="5.61894" y1="5.92092" x2="5.37451" y2="6.15687" gradientUnits="userSpaceOnUse">
<stop offset="0.5" stop-color="#FFCA28"/>
<stop offset="1" stop-color="#FFB300"/>
</linearGradient>
<linearGradient id="paint11_linear_4219_17453" x1="5.62102" y1="6.13862" x2="6.24074" y2="6.6111" gradientUnits="userSpaceOnUse">
<stop offset="0.5" stop-color="#FFCA28"/>
<stop offset="1" stop-color="#FFB300"/>
</linearGradient>
<radialGradient id="paint12_radial_4219_17453" cx="0" cy="0" r="1" gradientUnits="userSpaceOnUse" gradientTransform="translate(5.66718 6.4418) scale(0.388317)">
<stop stop-color="#FFB300"/>
<stop offset="1" stop-color="#FFCA28"/>
</radialGradient>
</defs>
</svg>
