<svg width="18" height="18" viewBox="0 0 18 18" fill="none" xmlns="http://www.w3.org/2000/svg">
<path fill-rule="evenodd" clip-rule="evenodd" d="M11.731 8.0293L15.1983 9.9367L14.7163 10.8128L11.249 8.90543L11.731 8.0293Z" fill="#82AEC0"/>
<path fill-rule="evenodd" clip-rule="evenodd" d="M4.94142 11.6074L8.25499 13.4861L7.76182 14.3559L4.44824 12.4773L4.94142 11.6074Z" fill="#82AEC0"/>
<path d="M6.41285 12.8633C6.78408 12.3021 7.37404 12.1458 7.82652 12.3383C8.51898 12.632 8.62773 12.8758 8.62773 12.8758C8.44274 13.1558 7.26405 14.8494 7.26405 14.8494C7.26405 14.8494 6.77283 14.6319 6.48159 14.3695C6.11786 14.0407 6.04161 13.4245 6.41285 12.8633Z" fill="#F44336"/>
<path d="M6.26797 13.1342C6.26797 13.1342 6.21547 13.4629 6.44171 13.5729C6.80919 13.7517 7.01043 13.3942 7.01043 13.3942C7.01043 13.3942 7.28417 12.9554 7.77414 12.7792C8.46285 12.5305 8.71534 13.0054 8.71534 13.0054C8.71534 13.0054 8.53285 12.4392 7.72039 12.3017C7.49166 12.263 6.99168 12.4267 6.84044 12.5142C6.35297 12.7955 6.26797 13.1342 6.26797 13.1342Z" fill="#C62828"/>
<path d="M8.56206 14.2644C8.93339 13.7031 8.90211 13.0282 8.49219 12.757C8.08227 12.4859 7.44895 12.7211 7.07762 13.2824C6.70629 13.8438 6.73758 14.5187 7.14749 14.7898C7.55741 15.061 8.19074 14.8258 8.56206 14.2644Z" fill="#FF7555"/>
<path d="M7.63735 13.9932C7.73609 13.8657 7.81609 13.7782 7.90733 13.9057C7.94608 13.9669 7.98358 14.0582 8.05858 14.0732C8.28607 14.1207 8.35606 13.8132 8.33481 13.6557C8.27982 13.2832 7.83359 13.322 7.6311 13.6469C7.51361 13.8244 7.52611 14.0544 7.57235 14.1619C7.57235 14.1632 7.61735 14.0232 7.63735 13.9932Z" fill="#C62828"/>
<path d="M3.17359 11.3457C3.54482 10.7845 4.13479 10.6282 4.58726 10.8207C5.27973 11.1145 5.38847 11.3582 5.38847 11.3582C5.20348 11.6382 4.02479 13.3318 4.02479 13.3318C4.02479 13.3318 3.53357 13.1144 3.24233 12.8519C2.8786 12.5231 2.80236 11.9069 3.17359 11.3457Z" fill="#F44336"/>
<path d="M5.32476 12.7468C5.69609 12.1855 5.6648 11.5106 5.25489 11.2395C4.84497 10.9683 4.21165 11.2035 3.84032 11.7649C3.46899 12.3262 3.50027 13.0011 3.91019 13.2722C4.32011 13.5434 4.95343 13.3082 5.32476 12.7468Z" fill="#C62828"/>
<path d="M13.5527 9.3439C13.9251 8.78393 14.5164 8.63019 14.9688 8.82393C15.66 9.12016 15.7688 9.36515 15.7688 9.36515C15.5825 9.64513 14.3989 11.3338 14.3989 11.3338C14.3989 11.3338 13.9076 11.1151 13.6177 10.8513C13.2539 10.5201 13.1802 9.90387 13.5527 9.3439Z" fill="#F44336"/>
<path d="M13.4069 9.61496C13.4069 9.61496 13.3532 9.94369 13.5794 10.0537C13.9469 10.2337 14.1494 9.8762 14.1494 9.8762C14.1494 9.8762 14.4619 9.39372 14.9581 9.23248C15.5918 9.02624 15.8568 9.49247 15.8568 9.49247C15.8568 9.49247 15.6718 9.02499 14.9106 8.8175C14.4306 8.68626 13.9919 8.91875 13.8707 9.01624C13.4282 9.36747 13.4069 9.61496 13.4069 9.61496Z" fill="#C62828"/>
<path d="M15.697 10.7501C16.0703 10.19 16.0412 9.51498 15.6322 9.24244C15.2231 8.9699 14.589 9.20303 14.2158 9.76315C13.8426 10.3233 13.8716 10.9983 14.2807 11.2708C14.6897 11.5434 15.3238 11.3102 15.697 10.7501Z" fill="#FF7555"/>
<path d="M14.7763 10.5018C14.8426 10.4255 14.9426 10.298 15.0338 10.4268C15.0726 10.488 15.1201 10.5493 15.1951 10.5593C15.4313 10.5918 15.4938 10.3005 15.4725 10.1418C15.4188 9.76932 14.9726 9.80682 14.7688 10.1305C14.6513 10.3068 14.6626 10.5305 14.7076 10.6455C14.7076 10.6455 14.7338 10.5518 14.7763 10.5018Z" fill="#C62828"/>
<path d="M16.5008 5.98562C16.0609 4.71069 15.2646 4.5507 14.9522 4.43945C14.9522 4.43945 15.5121 4.91693 15.7684 5.4969C16.0984 6.24686 16.0796 7.18681 15.3634 7.69428L5.93389 12.1065C3.73651 12.6453 1.41038 10.4404 1.41038 10.4404C1.33413 10.9466 1.15289 11.8878 3.02654 12.5853C4.7102 13.2115 6.38137 13.0715 7.09258 12.7153L15.6184 8.64173C16.4608 8.16051 16.8608 7.02682 16.5008 5.98562Z" fill="#DDB98C"/>
<path d="M16.1859 5.55738C15.7459 4.28244 14.2797 4.2312 13.446 4.44244C12.7536 4.61868 11.9711 5.26364 11.3949 5.74737C11.0849 6.00735 10.5949 6.23109 10.5949 6.23109L3.52282 9.61466C3.52282 9.61466 3.31783 9.70091 2.97285 9.70966C2.62036 9.71841 1.60792 9.66466 1.44293 10.2671C1.29543 10.8083 1.52417 11.5271 3.16659 12.147C4.84775 12.782 6.06643 12.6433 6.77889 12.2883L15.3047 8.21474C16.1459 7.73351 16.5459 6.59982 16.1859 5.55738Z" fill="#424242"/>
<path d="M6.00519 11.2063C6.02061 11.0691 5.88408 10.9411 5.70024 10.9205C5.5164 10.8998 5.35487 10.9943 5.33945 11.1315C5.32403 11.2687 5.46056 11.3966 5.6444 11.4173C5.82824 11.438 5.98977 11.3435 6.00519 11.2063Z" fill="#757575"/>
<path d="M4.84601 10.5139C4.86143 10.3767 4.7249 10.2488 4.54106 10.2281C4.35722 10.2074 4.19569 10.3019 4.18027 10.4391C4.16485 10.5763 4.30138 10.7043 4.48522 10.7249C4.66906 10.7456 4.83059 10.6511 4.84601 10.5139Z" fill="#757575"/>
<path d="M7.18976 10.6497C7.20518 10.5125 7.06865 10.3845 6.88481 10.3638C6.70097 10.3432 6.53944 10.4376 6.52402 10.5748C6.5086 10.712 6.64513 10.84 6.82897 10.8607C7.01281 10.8813 7.17434 10.7869 7.18976 10.6497Z" fill="#757575"/>
<path d="M6.03156 9.95826C6.04698 9.82107 5.91045 9.69309 5.72661 9.67243C5.54277 9.65176 5.38124 9.74623 5.36581 9.88342C5.35039 10.0206 5.48692 10.1486 5.67076 10.1693C5.8546 10.1899 6.01614 10.0955 6.03156 9.95826Z" fill="#757575"/>
<path d="M12.4349 8.06861C12.4503 7.93142 12.3138 7.80345 12.1299 7.78278C11.9461 7.76212 11.7846 7.85658 11.7691 7.99378C11.7537 8.13097 11.8902 8.25894 12.0741 8.27961C12.2579 8.30027 12.4195 8.2058 12.4349 8.06861Z" fill="#757575"/>
<path d="M11.2757 7.37818C11.2911 7.24099 11.1546 7.11302 10.9708 7.09235C10.7869 7.07169 10.6254 7.16615 10.61 7.30335C10.5945 7.44054 10.7311 7.56851 10.9149 7.58918C11.0987 7.60984 11.2603 7.51538 11.2757 7.37818Z" fill="#757575"/>
<path d="M13.639 7.52271C13.6544 7.38552 13.5179 7.25755 13.334 7.23688C13.1502 7.21622 12.9887 7.31068 12.9732 7.44788C12.9578 7.58507 13.0943 7.71304 13.2782 7.73371C13.462 7.75437 13.6236 7.65991 13.639 7.52271Z" fill="#757575"/>
<path d="M12.4808 6.83131C12.4962 6.69411 12.3597 6.56614 12.1758 6.54548C11.992 6.52481 11.8305 6.61928 11.815 6.75647C11.7996 6.89367 11.9361 7.02164 12.12 7.0423C12.3038 7.06297 12.4654 6.9685 12.4808 6.83131Z" fill="#757575"/>
</svg>
