<svg width="18" height="18" viewBox="0 0 18 18" fill="none" xmlns="http://www.w3.org/2000/svg">
<path d="M6.41714 4.68359L6.2959 5.10107L6.89712 5.20107L6.64838 4.68359H6.41714Z" fill="#616161"/>
<path d="M13.7645 7.41042C12.0733 9.17657 11.4021 9.6053 6.92733 11.7689C4.69745 12.8464 2.39382 12.9214 1.65011 13.4038C1.59636 13.4388 1.54511 13.4738 1.49512 13.5076V15.7275C1.52262 15.7325 1.53886 15.735 1.53886 15.735H7.33606L16.4943 12.1177V4.19434C15.8356 5.06679 14.8994 6.22548 13.7645 7.41042Z" fill="url(#paint0_radial_4219_17436)"/>
<path d="M14.2844 7.90457C10.4571 11.6581 7.00108 11.8806 4.65995 13.2555C3.34752 14.0267 2.14258 14.7592 1.49512 15.1554V16.4766H16.4943V6.3584C15.7531 6.75338 14.9257 7.2771 14.2844 7.90457Z" fill="url(#paint1_radial_4219_17436)"/>
<path d="M6.22405 16.4767H6.32029C6.72152 16.4642 7.04775 16.2992 7.25024 16.1255C7.25024 16.1255 7.84021 15.6517 8.29894 15.4443L12.6412 13.6281C12.9137 13.5144 13.3762 13.4419 13.8061 13.3481C15.4586 12.9856 15.0011 11.9819 14.7698 11.6445C14.5424 11.2257 13.9349 11.117 13.4474 11.2895C12.7737 11.5282 12.1762 12.0607 11.8975 12.1782L7.92521 13.8393C7.37648 13.9993 6.64527 13.9993 6.0628 14.1668C5.35659 14.3681 5.15535 14.753 5.1466 15.3368C5.13785 15.9492 5.61908 16.4517 6.22405 16.4767Z" fill="#B3E5FC"/>
<path d="M14.3233 11.2371C14.0721 10.7783 13.4159 10.6833 12.9272 10.8558C12.4909 11.0108 12.0822 11.2883 11.7835 11.4921C11.616 11.6071 11.4697 11.7058 11.3748 11.7458L7.40746 13.4045C7.13997 13.482 6.83249 13.5207 6.50751 13.5619C6.18127 13.6032 5.84379 13.6457 5.54631 13.7319C4.87384 13.9232 4.59511 14.2794 4.58511 14.9606C4.58011 15.2819 4.7026 15.5843 4.92759 15.8131C5.15258 16.0406 5.45256 16.1668 5.77255 16.1668C6.30502 16.1668 6.6625 15.9093 6.78999 15.7993C6.79624 15.7943 7.37871 15.3281 7.82369 15.1269L12.166 13.3107C12.3622 13.2282 12.6634 13.1682 12.9822 13.1045C13.0947 13.082 13.2084 13.0595 13.3196 13.0345C13.9671 12.892 14.3696 12.637 14.5121 12.2745C14.6883 11.8295 14.4146 11.3708 14.3233 11.2371Z" fill="url(#paint2_linear_4219_17436)"/>
<path d="M11.8313 9.26456H11.8301C11.8276 9.25206 11.8263 9.23831 11.8226 9.22581C11.7613 8.96458 11.5838 8.76209 11.3588 8.65709L11.3601 8.65459L9.1602 7.67215L9.15395 7.68589C9.1502 7.68464 9.14645 7.68214 9.1427 7.67964C9.03396 7.6309 8.91772 7.6084 8.80397 7.6084C8.48399 7.6084 8.179 7.79339 8.04026 8.10337C8.02026 8.14712 8.00651 8.19212 7.99526 8.23587C7.72403 8.00338 7.3303 7.82339 7.00407 7.82339C6.88907 7.82339 6.78283 7.84589 6.69283 7.89588C6.24286 8.14587 6.3766 8.99208 6.62534 9.4408C6.62784 9.44455 6.63034 9.44955 6.63284 9.4533L6.63159 9.45455L7.47779 10.9807C7.55529 11.1207 7.57154 11.2857 7.52279 11.4369L6.89532 13.3993L7.01657 13.7081L8.60398 13.6956L9.37019 11.2232C9.38019 11.1982 9.39019 11.1732 9.39769 11.147C9.40519 11.1207 9.41144 11.0945 9.41769 11.0682L9.42144 11.0557C9.47894 10.777 9.38144 10.537 9.23895 10.2833L8.70148 9.31581L10.0702 9.92703C10.1989 9.98452 10.2939 10.0983 10.3251 10.2358L10.7676 12.1307L12.41 11.7469L11.8313 9.26456Z" fill="#7C7C7C"/>
<path d="M12.7382 5.80987C12.727 5.79237 12.7082 5.78113 12.6882 5.78113L11.1083 5.70363C10.9508 5.64113 9.28339 4.99117 8.9809 4.98117C8.94716 4.97617 8.92591 4.99867 8.91841 5.02742L8.53718 6.41859C8.52968 6.44859 8.54343 6.47984 8.57218 6.49234C8.63467 6.52109 10.1233 7.18355 10.6396 7.29605C10.7133 7.31229 10.8033 7.31979 10.9046 7.31979C11.5333 7.31979 12.5645 7.04356 12.6145 7.02981C12.6257 7.02731 12.6357 7.02106 12.6445 7.01231C13.1444 6.47234 12.7432 5.81737 12.7382 5.80987Z" fill="url(#paint3_linear_4219_17436)"/>
<path d="M9.61781 6.36732C9.56781 6.07733 9.51781 5.7786 9.48532 5.48736C9.47532 5.21863 9.37407 5.00364 9.19158 4.86614C9.01784 4.7349 8.78035 4.67365 8.48537 4.6849L7.37418 4.72615C6.85795 4.7299 6.33798 5.21488 6.35798 5.76735L6.37173 8.11097C6.38923 8.5647 6.51922 8.88718 6.75921 9.07217C6.90795 9.18717 7.09669 9.24341 7.32418 9.24341C7.44292 9.24341 7.57292 9.22716 7.71166 9.19592C9.03909 8.89343 9.7778 8.4797 9.7903 8.03098C9.8053 7.46101 9.7103 6.90479 9.61781 6.36732Z" fill="url(#paint4_linear_4219_17436)"/>
<path d="M13.4307 5.82702C13.4232 5.82452 12.6032 5.56953 12.302 6.2395C12.3008 6.24325 12.2983 6.24825 12.2983 6.252L12.292 6.28075C12.2095 6.64698 12.4358 6.86446 12.582 6.93446C12.7245 7.00321 13.0795 6.99196 13.1507 6.98821C13.2045 7.00071 13.257 7.01571 13.3057 7.02946C13.402 7.05695 13.5007 7.08445 13.5919 7.08445C13.7207 7.08445 13.8382 7.02946 13.9194 6.83822C13.9207 6.83447 13.9219 6.83072 13.9232 6.82697L13.9294 6.79822C14.0094 6.44574 13.8644 5.99951 13.4307 5.82702Z" fill="#26A69A"/>
<path d="M5.22646 8.78847L5.12022 8.68473C4.87273 8.43724 4.28151 8.75972 4.15652 8.83222C3.99778 8.82722 3.71404 8.89721 3.64279 9.19595C3.58905 9.42094 3.63154 9.61843 3.76279 9.76592C3.90528 9.92466 4.14402 10.0159 4.4065 10.0159C4.45275 10.0159 4.499 10.0134 4.5465 10.0072C5.3577 9.90591 5.27771 9.1497 5.24396 8.82597C5.24271 8.81222 5.23646 8.79847 5.22646 8.78847Z" fill="#26A69A"/>
<path d="M7.45227 6.09199C7.45227 6.07199 7.45227 6.05324 7.45102 6.03324C7.42352 5.68201 7.16728 5.38578 6.8198 5.32828C6.70231 5.30828 6.58981 5.31703 6.48482 5.34453C6.47482 5.34453 6.46357 5.34203 6.45232 5.34203C6.35358 5.34203 6.25858 5.36203 6.17608 5.40703C5.46362 5.67201 4.20244 6.15699 4.12119 6.8607C4.0537 7.45442 4.10119 8.93559 4.10119 8.93559C4.29118 9.07933 4.48117 9.12808 4.65242 9.12808C5.01615 9.12808 5.29238 8.90809 5.29238 8.90809L5.31863 8.79185L5.31988 8.7906C5.31988 8.7906 5.32238 8.7806 5.32488 8.76435L5.66486 7.26818C5.66486 7.26818 6.68481 6.9157 6.95854 6.8182C7.18603 6.73446 7.47852 6.41447 7.45227 6.09199Z" fill="url(#paint5_linear_4219_17436)"/>
<path d="M9.71121 2.27375C9.31498 1.86002 8.67502 1.57129 8.0288 1.57129C7.85131 1.57129 7.67257 1.59254 7.50008 1.64004C6.58638 1.88877 6.33014 2.32875 6.23139 2.54624C6.18265 2.65248 6.1639 2.77498 6.09265 2.86372C5.99641 2.98371 5.83142 3.06746 5.72767 3.1912C5.68767 3.2387 5.64893 3.3012 5.67392 3.35744C5.69642 3.40869 5.76017 3.42369 5.81642 3.43244C6.44263 3.52244 8.15004 3.38994 8.46003 3.63868C8.63127 3.77617 8.53752 4.51113 8.54252 4.76612C8.54752 5.00361 8.55502 4.97486 8.76876 5.0786C8.84001 5.11235 8.90375 5.1286 8.96125 5.1286C9.23874 5.1286 9.38873 4.78112 9.60372 4.51613C10.1062 3.89617 10.4249 3.01246 9.71121 2.27375Z" fill="url(#paint6_linear_4219_17436)"/>
<path d="M8.69533 13.1094L7.03167 13.3356C6.94293 13.3494 6.87793 13.4256 6.87793 13.5156V13.7343C6.87793 13.8793 6.96542 14.0093 7.10042 14.0631C7.33041 14.1543 7.68914 14.2881 7.93287 14.3406C8.01787 14.3593 8.10162 14.3668 8.18411 14.3668C8.54784 14.3668 8.87907 14.2156 9.02532 14.1368C9.07531 14.1093 9.11031 14.0606 9.11656 14.0043C9.16281 13.5794 9.12156 13.1669 8.69533 13.1094Z" fill="#4568AD"/>
<path d="M12.3021 11.5146L10.6797 11.7834L10.7034 12.2496C10.7097 12.3696 10.7997 12.4671 10.9184 12.4821C11.2434 12.5208 11.8709 12.5933 12.1559 12.6083C12.1896 12.6096 12.2234 12.6108 12.2559 12.6108C12.6796 12.6108 12.9646 12.4733 13.0883 12.3971C13.1371 12.3671 13.1658 12.3134 13.1646 12.2559C13.1558 11.8509 12.7258 11.5721 12.3021 11.5146Z" fill="#4568AD"/>
<path d="M8.62855 3.9215L8.50731 3.66401C8.45731 3.50152 7.80859 3.49902 7.80859 3.49902L7.87734 5.00269L7.88359 5.12894L7.88859 5.25143C7.88859 5.25143 8.36231 5.17394 8.5498 5.07019C8.5748 5.05519 8.5948 5.04144 8.6073 5.02644L8.6298 4.9252L8.7123 4.55772L9.66225 4.35273C9.68849 4.32523 9.71474 4.29648 9.74474 4.26648C9.75974 4.24898 9.77724 4.23148 9.79474 4.21399C9.89473 4.11274 9.95723 4.029 10.006 3.95275C10.021 3.93025 10.0347 3.909 10.0472 3.88775L8.62855 3.9215Z" fill="#616161"/>
<path d="M10.9365 4.34127C10.1928 4.79375 10.289 5.11748 9.6103 5.69995C9.00408 6.21992 8.31662 6.47616 7.41042 6.08868C5.92925 5.45371 6.14923 4.73 6.14923 4.73C6.14923 4.73 6.50546 5.21498 7.96039 5.14998C8.99408 5.10373 9.22157 4.79375 9.6428 4.37377C10.064 3.95379 9.77279 3.66256 10.6777 3.20883C11.5839 2.75635 12.5539 2.8851 12.5539 2.8851L13.7501 3.88755C13.7501 3.88755 11.6802 3.88755 10.9365 4.34127Z" fill="#039BE5"/>
<path d="M14.3054 10.368C14.3067 10.3668 14.3079 10.3668 14.3092 10.3643C14.4629 10.2293 14.3579 9.96431 14.1455 9.99806C14.1392 9.99806 14.1342 9.99931 14.1292 10.0006C14.0067 10.0306 13.9255 10.1356 13.8905 10.2518C13.873 10.3118 13.858 10.3718 13.8455 10.433C13.8392 10.463 13.8317 10.4943 13.8292 10.5243C13.828 10.5418 13.8367 10.573 13.8567 10.5768C13.8855 10.583 13.938 10.5593 13.9655 10.5493C14.0867 10.5105 14.2067 10.4543 14.3054 10.368Z" fill="white"/>
<path d="M15.8083 8.87975C15.8096 8.8785 15.8096 8.87725 15.8121 8.876C15.9496 8.7235 16.2133 8.83225 16.1758 9.04474C16.1758 9.04974 16.1733 9.05599 16.1721 9.06099C16.1408 9.18348 16.0346 9.26348 15.9171 9.29722C15.8571 9.31472 15.7958 9.32847 15.7346 9.33972C15.7046 9.34597 15.6733 9.35222 15.6433 9.35472C15.6258 9.35597 15.5946 9.34597 15.5908 9.32597C15.5846 9.29722 15.6096 9.24473 15.6196 9.21848C15.6633 9.09723 15.7208 8.97724 15.8083 8.87975Z" fill="white"/>
<path d="M13.5621 8.78518C13.5634 8.78393 13.5634 8.78268 13.5634 8.78018C13.6484 8.56894 13.4109 8.3577 13.2172 8.49895L13.2022 8.5102C13.0959 8.60019 13.0659 8.74643 13.0897 8.88018C13.1022 8.94892 13.1172 9.01642 13.1359 9.08267C13.1459 9.11516 13.1534 9.15016 13.1659 9.18141C13.1734 9.19891 13.1984 9.22516 13.2197 9.22016C13.2522 9.21266 13.2909 9.16266 13.3134 9.13891C13.4172 9.03642 13.5084 8.92017 13.5621 8.78518Z" fill="white"/>
<path d="M15.2305 7.62431C15.2318 7.62306 15.2318 7.62181 15.233 7.62056C15.3705 7.47557 15.2455 7.22809 15.0418 7.27933C15.0368 7.28058 15.0305 7.28183 15.0255 7.28433C14.9093 7.32308 14.8393 7.43307 14.8155 7.54807C14.803 7.60806 14.7943 7.66806 14.7868 7.72806C14.7843 7.75806 14.7793 7.78806 14.7793 7.81805C14.7793 7.8343 14.7918 7.8643 14.8105 7.8668C14.8393 7.87055 14.8868 7.84305 14.913 7.8318C15.0305 7.78056 15.143 7.71556 15.2305 7.62431Z" fill="white"/>
<path d="M15.0732 8.76592L15.077 8.76217C15.2482 8.57718 15.0857 8.2672 14.8307 8.33595C14.8245 8.3372 14.817 8.3397 14.8107 8.3422C14.6657 8.39344 14.5782 8.53344 14.5507 8.67968C14.537 8.75467 14.5257 8.83092 14.5195 8.90717C14.5157 8.94466 14.5107 8.98341 14.5107 9.02091C14.512 9.04091 14.527 9.07841 14.5507 9.08091C14.587 9.08591 14.6482 9.04966 14.6795 9.03466C14.8245 8.96716 14.9645 8.88342 15.0732 8.76592Z" fill="white"/>
<path d="M6.73332 5.11112C6.69958 5.05362 6.65208 4.97488 6.59333 4.87363L6.42584 4.86114C6.40709 4.93238 6.3221 5.16612 6.25835 5.20237C6.21835 5.22487 6.13336 5.11112 6.07211 5.01738C6.02586 4.94488 6.01711 4.85614 6.04836 4.77489C6.06211 4.73864 6.07711 4.70114 6.08711 4.67614C6.11461 4.60365 6.15586 4.53865 6.18085 4.46616C6.2071 4.38991 6.16085 4.30491 6.13961 4.22867C6.11461 4.14367 6.08961 4.05993 6.06336 3.97368C6.05711 3.95118 5.98461 3.6537 5.96836 3.6537C5.96836 3.6537 5.90087 3.65245 5.89087 3.56995C5.88462 3.51996 5.88212 3.42996 6.02336 3.42871L7.54078 3.46496C7.74327 3.46996 7.95951 3.47371 8.12575 3.77119C8.25199 3.99868 8.19575 4.89238 8.13575 5.00988C8.107 5.06737 8.06575 5.18487 7.88826 5.24861C7.75577 5.29486 7.2258 5.26611 6.96206 5.24736C6.86707 5.24486 6.78332 5.19362 6.73332 5.11112Z" fill="#E3F2FD"/>
<path d="M7.22826 4.92264C7.04827 4.90014 6.89328 4.7839 6.82204 4.61765C6.75079 4.45391 6.66579 4.26517 6.63329 4.23767C6.57455 4.18643 6.34581 4.19518 6.31831 4.24767C6.29081 4.30142 6.21082 4.66765 6.13957 4.79139C5.85709 4.16643 5.94583 3.67145 5.94583 3.67145C5.94583 3.67145 6.25831 3.6702 6.36956 3.67145C6.5683 3.67395 6.76704 3.6777 6.96578 3.68145C7.28201 3.6877 7.59824 3.62646 7.73199 3.99144C7.83823 4.28267 7.76698 4.87514 7.65324 4.91139C7.54575 4.95014 7.37576 4.94139 7.22826 4.92264Z" fill="url(#paint7_linear_4219_17436)"/>
<defs>
<radialGradient id="paint0_radial_4219_17436" cx="0" cy="0" r="1" gradientUnits="userSpaceOnUse" gradientTransform="translate(4.21458 10.8155) rotate(-24.6199) scale(15.3293 2.31505)">
<stop offset="0.3342" stop-color="#E1F5FE"/>
<stop offset="1" stop-color="#B3E5FC"/>
</radialGradient>
<radialGradient id="paint1_radial_4219_17436" cx="0" cy="0" r="1" gradientUnits="userSpaceOnUse" gradientTransform="translate(7.59163 12.3879) rotate(-27.5491) scale(19.7374 9.57074)">
<stop offset="0.2141" stop-color="white"/>
<stop offset="1" stop-color="#B3E5FC"/>
</radialGradient>
<linearGradient id="paint2_linear_4219_17436" x1="4.58373" y1="13.4709" x2="14.57" y2="13.4709" gradientUnits="userSpaceOnUse">
<stop offset="0.1705" stop-color="#EF5350"/>
<stop offset="0.6201" stop-color="#EA4643"/>
<stop offset="0.9845" stop-color="#E53935"/>
</linearGradient>
<linearGradient id="paint3_linear_4219_17436" x1="8.53591" y1="6.14984" x2="12.8951" y2="6.14984" gradientUnits="userSpaceOnUse">
<stop offset="0.0343" stop-color="#ED6D23"/>
<stop offset="0.326" stop-color="#F37F21"/>
<stop offset="0.46" stop-color="#F78C1F"/>
</linearGradient>
<linearGradient id="paint4_linear_4219_17436" x1="8.07463" y1="5.60246" x2="8.07463" y2="8.97726" gradientUnits="userSpaceOnUse">
<stop offset="0.1891" stop-color="#ED6D23"/>
<stop offset="0.5689" stop-color="#F37F21"/>
<stop offset="0.7957" stop-color="#F78C1F"/>
</linearGradient>
<linearGradient id="paint5_linear_4219_17436" x1="4.60093" y1="9.05281" x2="6.09213" y2="5.86984" gradientUnits="userSpaceOnUse">
<stop offset="0.1891" stop-color="#ED6D23"/>
<stop offset="0.326" stop-color="#F37F21"/>
<stop offset="0.46" stop-color="#F78C1F"/>
<stop offset="1" stop-color="#ED6D23"/>
</linearGradient>
<linearGradient id="paint6_linear_4219_17436" x1="7.40557" y1="2.25119" x2="8.80085" y2="4.7278" gradientUnits="userSpaceOnUse">
<stop offset="0.176" stop-color="#EF5350"/>
<stop offset="0.6227" stop-color="#EA4643"/>
<stop offset="0.9849" stop-color="#E53935"/>
</linearGradient>
<linearGradient id="paint7_linear_4219_17436" x1="5.89139" y1="4.15618" x2="7.79418" y2="4.36071" gradientUnits="userSpaceOnUse">
<stop offset="0.3652" stop-color="#90CAF9"/>
<stop offset="0.9874" stop-color="#42A5F5"/>
</linearGradient>
</defs>
</svg>
