<svg width="18" height="18" viewBox="0 0 18 18" fill="none" xmlns="http://www.w3.org/2000/svg">
<path d="M8.99316 1.5076C4.55339 1.4451 1.25607 5.2474 1.47731 9.31343C1.73854 14.1019 5.16211 16.5081 9.1669 16.4806C13.3742 16.4518 16.5665 13.4695 16.479 8.9647C16.3928 4.46744 13.0854 1.56634 8.99316 1.5076Z" fill="#C8C8C8"/>
<path d="M5.48272 2.90084C2.37538 4.682 0.402987 9.73048 3.71281 13.5503C4.11779 14.0178 4.76151 14.344 5.25023 14.5665C8.58756 16.0751 12.6261 13.7553 14.1885 11.9866C15.4284 10.5829 15.8847 9.65174 15.7372 7.73559C15.6234 6.24567 14.986 4.80699 13.6648 3.7433C10.6774 1.33343 7.45637 1.7684 5.48272 2.90084Z" fill="white"/>
<path d="M8.61234 5.97372C8.60109 5.96747 7.44491 5.30376 6.54745 4.97127C5.6125 4.62504 4.92254 4.4388 4.91504 4.43755L5.04378 3.95508C5.07253 3.96258 5.76249 4.14757 6.72119 4.5038C7.65864 4.85128 8.81358 5.51375 8.86233 5.54249L8.61234 5.97372Z" fill="#171717"/>
<path d="M11.3257 2.24136L10.6455 4.66895L11.1269 4.80384L11.8071 2.37625L11.3257 2.24136Z" fill="#171717"/>
<path d="M15.6989 7.81466C15.6926 7.81216 15.0277 7.55967 14.2852 7.35843C13.7265 7.20719 13.0065 7.05345 12.999 7.0522L13.1028 6.56348C13.1328 6.56973 13.8427 6.72097 14.4152 6.87596C15.1839 7.08345 15.8489 7.33719 15.8776 7.34719L15.6989 7.81466Z" fill="#171717"/>
<path d="M11.7656 12.7192C11.7656 12.7117 11.7031 11.9492 11.5531 11.1693C11.4044 10.3993 11.1207 9.67437 11.1182 9.66812L11.5831 9.48438C11.5956 9.51562 11.8869 10.2581 12.0444 11.0755C12.1994 11.8842 12.2619 12.648 12.2644 12.6805L11.7656 12.7192Z" fill="#171717"/>
<path d="M14.2519 13.4149L13.9219 13.0387C13.9269 13.0349 14.4068 12.6099 14.9993 11.81C15.5468 11.07 15.7993 10.4225 15.8018 10.415L16.268 10.5938C16.2568 10.6225 15.988 11.3125 15.4005 12.1062C14.7743 12.9537 14.2731 13.3961 14.2519 13.4149Z" fill="#171717"/>
<path d="M7.99793 8.27748L5.10547 10.8594L5.4384 11.2324L8.33086 8.65046L7.99793 8.27748Z" fill="#171717"/>
<path d="M2.6139 10.1688C2.6064 10.12 2.44141 8.96382 2.44141 7.90638C2.44141 6.85143 2.5614 5.87523 2.56765 5.83398L3.06387 5.89648C3.06262 5.90648 2.94263 6.88393 2.94263 7.90638C2.94263 8.92632 3.10887 10.0863 3.11012 10.0975L2.6139 10.1688Z" fill="#171717"/>
<path d="M9.91253 15.2059C9.88128 15.2021 9.11882 15.1059 7.80014 14.7184C6.96018 14.4709 6.00023 13.9635 5.95898 13.9422L6.19397 13.501C6.20397 13.506 7.15017 14.0072 7.94138 14.2397C9.21631 14.6147 9.96627 14.7097 9.97377 14.7109L9.91253 15.2059Z" fill="#171717"/>
<path d="M7.67045 5.08981C7.6317 5.1873 7.68294 8.66837 7.76169 8.77211C7.84044 8.87586 11.3403 10.0645 11.4965 10.0258C11.6527 9.98705 13.5201 7.04845 13.5201 6.93096C13.5201 6.81347 11.2228 3.97987 11.1053 3.95362C10.9878 3.92737 7.72294 4.95856 7.67045 5.08981Z" fill="#474C4F"/>
<path d="M15.6693 5.51758C15.6693 5.51758 15.1543 7.23124 15.1543 7.36248C15.1543 7.49247 15.468 8.21119 15.6118 9.09864C15.7555 9.98609 15.5468 11.3185 15.638 11.371C15.7293 11.4235 16.1817 11.3973 16.1817 11.3973C16.1817 11.3973 16.618 10.0261 16.4342 8.26368C16.2505 6.50003 15.6693 5.51758 15.6693 5.51758Z" fill="#474C4F"/>
<path d="M11.9548 12.3372C11.8498 12.3472 9.09496 14.7133 9.10746 14.7795C9.11996 14.8445 10.1862 16.4157 10.1862 16.4157C10.1862 16.4157 11.5261 16.3095 12.7535 15.6445C13.981 14.9795 14.4472 14.3883 14.4472 14.3883C14.4472 14.3883 14.6172 12.8084 14.5522 12.7959C14.4884 12.7809 12.0861 12.3247 11.9548 12.3372Z" fill="#474C4F"/>
<path d="M2.76125 9.38632C2.69 9.44507 2.27752 10.3525 2.16003 10.8625C2.04254 11.3712 1.97754 11.8549 1.97754 11.8549C1.97754 11.8549 2.29127 12.7624 2.76125 13.4349C3.34372 14.2673 4.10118 14.8548 4.10118 14.8548C4.10118 14.8548 6.57355 14.1011 6.5873 13.9961C6.60105 13.8911 6.29981 12.9774 6.09107 12.2199C5.88233 11.4625 5.84359 10.6138 5.76484 10.5613C5.68609 10.5088 4.88989 10.2613 4.26367 10.0125C3.63745 9.7638 2.83999 9.32133 2.76125 9.38632Z" fill="#474C4F"/>
<path d="M1.98633 6.23466C1.98633 6.23466 2.67004 6.82588 2.77504 6.82588C2.88003 6.82588 3.5425 5.94843 4.21121 5.41596C5.11241 4.69725 5.55614 4.46226 5.56989 4.37101C5.58239 4.27977 5.97487 2.09863 5.97487 2.09863C5.97487 2.09863 4.52494 2.64735 3.4675 3.86104C2.41006 5.07473 1.98633 6.23466 1.98633 6.23466Z" fill="#474C4F"/>
<path d="M9.38086 1.5166C9.38086 1.5166 10.2146 1.94533 10.5183 2.15657C10.822 2.36781 11.2695 2.81528 11.402 2.82903C11.5332 2.84278 13.3469 2.84403 13.3469 2.84403C13.3469 2.84403 12.5244 2.28156 11.6132 1.95908C10.517 1.57035 9.38086 1.5166 9.38086 1.5166Z" fill="#474C4F"/>
</svg>
