<svg width="18" height="18" viewBox="0 0 18 18" fill="none" xmlns="http://www.w3.org/2000/svg">
<path d="M9.43708 8.02091C6.09351 10.0395 1.5 11.3457 1.5 11.3457V11.3582V16.4992H16.4992V2.42745V1.5C16.103 2.06247 13.6456 5.47854 9.43708 8.02091Z" fill="url(#paint0_linear_4219_17444)"/>
<path opacity="0.65" d="M15.7368 9.34302C16.0143 9.03429 16.023 8.77555 15.9268 8.7143C15.8743 8.6818 15.6893 8.58806 15.4468 8.6718C15.0681 8.8018 14.4706 9.05928 14.4706 9.05928C14.4706 9.05928 14.9306 8.33557 15.2256 7.68311C15.5093 7.05439 14.9718 6.94065 14.0531 7.82435C13.8294 8.04059 13.0869 8.7743 13.0869 8.7743C13.0869 8.7743 13.4182 8.08934 13.4669 7.86935C13.5032 7.70186 13.3882 7.58311 13.1507 7.75685C12.607 8.15558 11.3633 9.6205 11.212 9.57676C11.0608 9.53301 11.2658 8.91304 11.0408 8.94054C10.8233 8.96679 10.6083 9.35552 10.5108 9.50051C10.3483 9.7405 10.2421 9.87924 9.99084 10.0217C9.86835 10.0905 9.73336 10.1292 9.59336 10.1455C9.13089 10.1955 8.9684 9.95174 8.73466 10.043C8.32843 10.2005 8.41843 10.6417 8.11594 10.608C8.04345 10.5992 7.90595 10.5567 7.83221 10.5567C7.52972 10.5567 6.83476 11.3504 6.24729 12.0254C3.97366 13.4378 3.08996 14.764 3.61618 15.5289C4.31239 16.5401 6.51603 15.9664 8.51342 14.759C9.22088 14.3315 9.99584 13.7515 10.7221 13.1541C11.092 13.0341 11.4633 12.9191 11.832 12.8016C12.5645 12.5653 12.297 12.4591 12.4345 12.3304C12.7382 12.0454 13.4269 12.4141 13.6469 11.9079C13.6994 11.7866 13.4907 11.7579 13.5819 11.6366C13.6931 11.4917 14.3331 11.3329 14.6069 11.2454C15.888 10.8329 15.6868 10.4842 15.1468 10.4505C14.9943 10.4405 14.4131 10.488 14.4131 10.488C14.4131 10.488 15.3056 9.82174 15.7368 9.34302Z" fill="url(#paint1_linear_4219_17444)"/>
<path opacity="0.65" d="M14.9316 8.01863C14.9316 8.01863 15.4629 6.89244 15.9516 6.93994C16.9253 7.03618 14.9316 8.01863 14.9316 8.01863Z" fill="url(#paint2_linear_4219_17444)"/>
<path opacity="0.65" d="M13.9268 11.6232C13.9268 11.6232 15.2304 11.3419 15.6054 11.4907C15.9804 11.6382 15.7467 11.9432 15.1879 11.9257C14.6292 11.9082 13.9268 11.6232 13.9268 11.6232Z" fill="url(#paint3_linear_4219_17444)"/>
<path d="M5.24219 12.8874C5.24219 12.8874 7.01334 10.5675 7.46082 10.5538C7.53332 10.5513 7.69956 10.5913 7.77205 10.5963C8.07704 10.62 8.09704 10.135 8.49702 9.96379C8.72825 9.86505 8.77325 10.15 9.23323 10.0838C9.37197 10.0638 9.50571 10.02 9.62571 9.94754C9.87194 9.7963 9.97444 9.65381 10.1282 9.40882C10.2207 9.26133 10.4219 8.8651 10.6382 8.83135C10.8619 8.79636 10.6782 9.42257 10.8306 9.46132C10.9831 9.50007 12.1756 7.9939 12.7055 7.57642C12.9368 7.39518 13.0568 7.50892 13.0255 7.67766C12.9843 7.8989 12.6768 8.59512 12.6768 8.59512C12.6768 8.59512 13.3943 7.83516 13.6105 7.61267C14.4979 6.69772 15.0404 6.79396 14.7767 7.43143C14.5042 8.09389 14.0692 8.8326 14.0692 8.8326C14.0692 8.8326 14.6567 8.55512 15.0317 8.41263C15.2717 8.32138 15.4604 8.40888 15.5129 8.43887C15.6116 8.49637 15.6116 8.75636 15.3442 9.07384C14.9279 9.56756 14.0605 10.2613 14.0605 10.2613C14.0605 10.2613 14.6392 10.1938 14.7917 10.1988C15.3329 10.2138 15.5454 10.5563 14.2792 11.0112C14.0092 11.1087 13.3743 11.2887 13.268 11.4375C13.1805 11.5612 13.3905 11.5825 13.3418 11.7062C13.1393 12.2187 12.4381 11.8737 12.1443 12.1687C12.0106 12.3024 12.2831 12.3999 11.5581 12.6612C10.7044 12.9686 9.82695 13.2474 9.01824 13.6573L5.24219 12.8874Z" fill="url(#paint4_linear_4219_17444)"/>
<path d="M14.9756 7.92364C14.9756 7.92364 15.3406 6.7337 15.8318 6.7112C16.808 6.66496 14.9756 7.92364 14.9756 7.92364Z" fill="#E3F2FD"/>
<path d="M13.9385 11.6235C13.9385 11.6235 15.1897 11.166 15.5821 11.2597C15.9746 11.3535 15.7846 11.6885 15.2297 11.7485C14.6734 11.8085 13.9385 11.6235 13.9385 11.6235Z" fill="#E3F2FD"/>
<path d="M3.1947 15.1459C3.85091 16.1834 6.11579 15.6784 8.20068 14.5297C10.3768 13.331 13.2054 10.8249 13.5317 10.3762C13.8754 9.90246 13.9391 9.41499 13.8179 9.2625C13.6354 9.03376 12.9492 8.92127 12.2617 9.14875C11.5968 9.36874 8.11194 10.6187 6.60452 11.4024C3.81342 12.8561 2.65973 14.301 3.1947 15.1459Z" fill="url(#paint5_linear_4219_17444)"/>
<path d="M13.8742 9.5313C13.8805 9.41131 13.8617 9.31631 13.8192 9.26257C13.738 9.16132 13.5518 9.08508 13.3168 9.04883C11.9393 9.73254 6.05466 12.6074 3.61228 13.7361C3.43979 13.8161 3.29605 13.9073 3.2173 14.1323C3.03981 14.5523 3.00232 14.8423 3.19481 15.146C3.44229 15.536 3.98226 15.7622 4.73097 15.7035C4.73097 15.7035 4.78722 15.536 4.93221 15.4397C5.07721 15.3447 13.8742 9.5313 13.8742 9.5313Z" fill="url(#paint6_linear_4219_17444)"/>
<path d="M13.557 9.10547C12.5495 9.63794 5.67737 13.2015 3.39499 14.3902C3.25625 14.4627 3.06751 14.6614 3.06751 14.6614C3.06751 14.6614 3.03876 14.9002 3.195 15.1464C3.2975 15.3064 3.47874 15.4676 3.68873 15.5589C3.68873 15.5589 3.78747 15.3776 3.87872 15.3226C3.96871 15.2676 13.8194 9.26296 13.8194 9.26296C13.7682 9.19796 13.6757 9.14547 13.557 9.10547Z" fill="url(#paint7_linear_4219_17444)"/>
<path opacity="0.53" d="M11.7003 10.5272C11.4428 10.0635 10.0816 10.3285 8.66046 11.1172C7.23929 11.9072 6.29559 12.9234 6.55308 13.3871C6.81056 13.8508 8.17174 13.5858 9.59292 12.7971C11.0141 12.0084 11.959 10.991 11.7003 10.5272Z" fill="url(#paint8_linear_4219_17444)"/>
<path d="M7.25372 11.957C7.21872 12.0508 7.06623 12.2308 7.07998 12.4833C7.09622 12.7895 7.12997 13.3895 7.14622 13.4345C7.18497 13.5419 7.24997 13.5407 7.28871 13.5282C7.36621 13.5044 7.33621 13.3657 7.33621 13.3657C7.33621 13.3657 7.34496 13.5494 7.44871 13.5257C7.5837 13.4932 7.5037 13.3307 7.49995 13.3107C7.5062 13.3332 7.56995 13.5432 7.64245 13.5244C7.76994 13.4907 7.69744 13.2832 7.69744 13.2832C7.69744 13.2832 7.72994 13.5382 7.85618 13.497C7.99493 13.4507 7.92243 13.2557 7.92243 13.2557C7.92243 13.2557 7.98493 13.4445 8.00993 13.477C8.07617 13.5632 8.23241 13.4732 8.23366 13.3757C8.23491 13.297 8.13867 13.1557 8.09867 13.0032C7.99493 12.6057 7.92618 12.3358 7.97743 12.1633" fill="url(#paint9_linear_4219_17444)"/>
<path d="M7.95683 12.2737C7.99183 11.9062 8.86929 10.945 8.86929 10.945C9.12552 10.6137 9.14677 10.3713 9.12177 10.0725L8.94803 8.24512L7.51936 8.34886L7.81184 10.43C7.34937 11.125 7.49936 11.5037 7.17188 12.1087" fill="url(#paint10_linear_4219_17444)"/>
<path d="M11.634 9.02854C11.7465 8.80105 11.7703 8.58231 11.704 8.39357C11.6478 8.23483 11.5303 8.10358 11.3791 8.03359C11.2041 7.95234 9.91038 7.53611 9.85539 7.51862C9.83539 7.51237 9.81289 7.52111 9.80164 7.53861L9.20792 8.55606C9.20042 8.56856 9.19917 8.58231 9.20417 8.59481C9.20917 8.60731 9.21917 8.61731 9.23167 8.62231L10.5728 9.07478L10.0529 10.3685C10.0041 10.4922 10.0091 10.6285 10.0654 10.7309C10.1016 10.7984 10.1566 10.8422 10.2191 10.8559C10.4041 10.8922 10.5803 10.9084 10.7503 10.9234C10.8941 10.9359 11.0303 10.9484 11.1703 10.9722C11.3003 10.9947 11.3891 11.0022 11.4503 11.0022C11.5328 11.0022 11.5665 10.9884 11.5865 10.9722C11.599 10.9634 11.614 10.9459 11.6165 10.9184C11.6215 10.8622 11.6028 10.8222 11.5765 10.7947C11.5878 10.7784 11.599 10.7534 11.5928 10.7184C11.584 10.6597 11.549 10.6247 11.5141 10.606C11.5166 10.5947 11.5166 10.5835 11.5141 10.5697C11.5091 10.531 11.5016 10.4835 10.8253 10.2247C10.9066 10.0922 11.0253 9.92724 11.1516 9.7535C11.3428 9.49726 11.5353 9.23102 11.634 9.02854Z" fill="#BA8F63"/>
<path d="M7.6368 7.2427C7.6368 7.2427 7.25182 7.79142 7.37181 8.67137C7.41931 9.01635 7.71804 10.1725 7.71804 10.1725C7.71804 10.1725 9.05422 10.1325 9.4517 9.55507C9.4517 9.55507 9.08922 9.0251 9.12672 8.67887L10.2692 8.96136C10.2692 8.96136 10.9754 8.25139 10.8029 7.60643C10.8029 7.60643 10.1154 7.56268 9.74919 7.1427C9.61669 6.99021 7.6368 7.2427 7.6368 7.2427Z" fill="#7C7C7C"/>
<path d="M8.18228 5.93644C8.17603 5.95269 8.16354 5.96394 8.14854 5.97019L6.48862 6.66391C6.41363 6.8139 6.26364 7.05764 6.11739 7.29387C5.97865 7.51886 5.84741 7.73135 5.81366 7.81135C5.79616 7.85259 5.80991 7.94759 5.82366 8.03758C5.83241 8.08883 5.83991 8.14258 5.84491 8.19758C5.85991 8.35007 5.74241 8.6513 5.65867 8.6788C5.62492 8.69005 5.58492 8.6813 5.54742 8.65755C5.50118 8.6288 5.47118 8.58256 5.46493 8.53506C5.45993 8.48631 5.46743 8.43006 5.47368 8.37757C5.47743 8.35507 5.47993 8.33257 5.48243 8.31007C5.36368 8.43006 5.29244 8.52506 5.22994 8.6113C5.19494 8.6588 5.16994 8.7463 5.14745 8.82504C5.1112 8.95504 5.0787 9.06878 5.0062 9.10253C4.9712 9.12003 4.93746 9.12753 4.90621 9.12753C4.89996 9.12753 4.89371 9.12753 4.88746 9.12628C4.87121 9.12503 4.85621 9.12128 4.84246 9.11503C4.82871 9.10878 4.81121 9.09878 4.79496 9.08378C4.77746 9.06753 4.75997 9.04378 4.74622 9.01128C4.74247 9.00878 4.73872 9.00628 4.73497 9.00378C4.70997 8.98753 4.67622 8.95879 4.64997 8.91379C4.63122 8.88379 4.61622 8.84504 4.60872 8.79879C4.59997 8.74005 4.61122 8.64505 4.61497 8.61755C4.61247 8.57756 4.60997 8.40131 4.72872 8.17133C4.78996 8.05258 4.86746 7.94509 4.94371 7.84259C5.0212 7.7376 5.09995 7.62886 5.15994 7.51011C5.20744 7.41387 5.33743 7.08138 5.46368 6.76015C5.52243 6.61016 5.57992 6.46267 5.62867 6.34017C5.75491 6.02519 5.9774 5.8852 5.9874 5.87895C6.0199 5.85645 6.84361 5.28398 7.08734 5.13274C7.29233 5.00649 7.96855 4.814 8.24478 4.854C8.29228 4.8615 8.33103 4.88775 8.35603 4.93025C8.47977 5.14399 8.23228 5.80645 8.18228 5.93644Z" fill="url(#paint11_linear_4219_17444)"/>
<path d="M5.1149 8.27951C4.95366 8.487 4.90242 8.86823 4.88742 9.12572C4.87117 9.12447 4.85617 9.12072 4.84242 9.11447C4.82867 9.10822 4.81117 9.09822 4.79492 9.08322C4.81367 8.81699 4.87117 8.43951 5.04116 8.22202C5.05741 8.20202 5.08616 8.19827 5.10741 8.21327C5.1274 8.22952 5.13115 8.25952 5.1149 8.27951Z" fill="#BA8F63"/>
<path d="M4.9419 8.21559C4.81941 8.33683 4.75566 8.78556 4.73441 9.00304C4.70941 8.98679 4.67566 8.95805 4.64941 8.91305C4.67441 8.69556 4.73691 8.28558 4.8769 8.14934C4.89565 8.13059 4.92565 8.13184 4.94315 8.14934C4.96065 8.16809 4.96065 8.19809 4.9419 8.21559Z" fill="#BA8F63"/>
<path d="M13.7243 5.87491C13.593 5.82241 13.3743 5.77367 13.2393 5.75742C13.173 5.74867 13.038 5.76617 12.8818 5.78617C12.7093 5.80866 12.5131 5.83366 12.4343 5.81866C12.4231 5.81616 12.3793 5.80991 12.3168 5.79992C12.0993 5.76742 11.5306 5.67992 11.4294 5.63992C11.3681 5.58493 10.9019 5.1637 10.6794 5.02121C10.5232 4.92121 10.3244 4.81997 9.95946 4.89996C9.93321 4.90621 9.91696 4.93121 9.92321 4.95746C9.92821 4.98121 9.95071 4.99621 9.97446 4.99496L10.0357 5.78867C10.0195 5.78992 10.0045 5.79867 9.99696 5.81241C9.98446 5.83616 9.99321 5.86491 10.0157 5.87741C10.0207 5.87991 10.5307 6.15615 10.9144 6.32489C11.1944 6.44863 11.3469 6.44363 11.5944 6.42613C11.7206 6.41613 12.1468 6.38238 12.4806 6.33239C12.5143 6.36739 12.5918 6.42488 12.7568 6.44488C12.7618 6.44613 12.7693 6.44613 12.7793 6.44613C12.8856 6.44613 13.2218 6.40238 13.2705 6.39363C13.3405 6.37988 13.393 6.31864 13.3905 6.25239C13.3893 6.20614 13.358 6.1524 13.2743 6.1424C13.2518 6.1399 13.2305 6.13615 13.2105 6.1324L13.3118 6.10615C13.3143 6.10615 13.5368 6.10115 13.603 6.1049C13.683 6.10865 13.758 6.0999 13.7855 6.00865C13.8043 5.94116 13.7618 5.88991 13.7243 5.87491Z" fill="#BA8F63"/>
<path d="M11.1779 5.22973C11.1779 5.22973 10.6592 4.76225 10.1142 4.69101C9.95174 4.66976 9.60926 4.58851 9.49552 4.57976C9.49552 4.57976 9.66801 4.77975 9.57301 4.97974C9.48552 5.16348 9.26178 5.39972 8.91555 5.19473C8.56807 4.98974 9.09054 4.54102 9.09054 4.54102C8.8743 4.55851 8.19934 4.71101 7.91685 4.7735C7.44937 4.876 6.73441 5.09599 6.73441 5.09599C6.61317 5.73595 7.23564 6.34717 7.23564 6.34717L7.65811 6.23968C7.69186 6.71465 7.48687 7.48961 7.34938 7.90084C7.34938 7.90084 7.70686 8.26957 8.8493 7.80959C9.39677 7.5896 9.79425 7.17713 9.96424 6.91714C10.1455 6.63965 10.2992 6.39092 10.4105 5.97094C11.0167 5.8472 11.1779 5.22973 11.1779 5.22973Z" fill="url(#paint12_linear_4219_17444)"/>
<path d="M10.2928 2.57006C9.99036 2.13134 9.34039 1.8126 8.81917 1.9251C8.2367 2.05134 7.94171 2.49007 7.88547 3.03004C7.86547 3.22628 7.88047 3.42002 7.92047 3.55501C7.92546 3.57126 7.96421 3.68875 7.96796 3.7275C7.99671 3.87125 7.72423 4.02874 7.69923 4.18998C7.68048 4.31122 7.93546 4.37497 7.95546 4.39622C8.05921 4.49871 7.89422 4.97994 8.57918 5.06743C8.63793 5.07493 8.69792 5.07868 8.75917 5.07743C8.75917 5.07743 8.88916 5.41991 9.32414 5.27617C9.57913 5.19243 9.65287 4.93244 9.67537 4.7712C9.70787 4.54246 9.83911 4.37747 9.93411 4.24373C10.2178 3.8425 10.4866 2.8513 10.2928 2.57006Z" fill="#E0BB95"/>
<path d="M8.04086 4.67892C8.13585 4.67892 8.2296 4.65267 8.30709 4.58893C8.39209 4.51893 8.32834 4.44894 8.2296 4.49768C8.1696 4.52643 8.08461 4.54393 8.00586 4.53268L8.04086 4.67892Z" fill="#6D4C41"/>
<path d="M8.41416 3.97945C8.48366 3.97378 8.53294 3.88274 8.52424 3.77609C8.51554 3.66944 8.45215 3.58758 8.38266 3.59325C8.31317 3.59892 8.26389 3.68997 8.27259 3.79662C8.28129 3.90326 8.34467 3.98512 8.41416 3.97945Z" fill="#5D4037"/>
<path d="M8.29857 3.5304C8.18357 3.5879 8.14107 3.5129 8.16982 3.44166C8.19107 3.38916 8.25732 3.33666 8.40356 3.33791C8.54105 3.34041 8.6098 3.40666 8.6548 3.44666C8.69855 3.48665 8.70354 3.53415 8.67355 3.54415C8.6323 3.55665 8.44106 3.45916 8.29857 3.5304Z" fill="#AB872F"/>
<path d="M9.24967 3.70475L9.34092 3.52726C9.39967 3.42602 9.45341 3.33727 9.54216 3.34602C9.80714 3.37102 9.81714 3.836 9.52466 3.97474C9.52466 3.97474 9.55966 4.28347 9.76465 4.34472C9.94464 4.39847 10.0246 4.22348 10.0571 4.13973C10.2271 3.70475 10.4809 3.741 10.5271 3.10729C10.5921 2.23858 9.7734 1.76611 9.04219 1.79736C8.7572 1.80985 8.57596 1.86735 8.33097 2.01484C8.22598 2.07484 7.86725 2.31983 7.8035 2.51107C7.72226 2.75481 7.851 2.91855 7.9085 2.92605C7.96599 2.93355 8.52721 2.81605 8.88219 2.85355C8.92844 2.85855 8.98219 2.8673 9.00719 2.9073C9.01844 2.9248 9.03719 3.04104 9.03969 3.06104C9.08468 3.32228 9.07968 3.49102 9.17593 3.64851C9.19218 3.67476 9.24967 3.70475 9.24967 3.70475Z" fill="#AB872F"/>
<path d="M9.24967 3.70475L9.34092 3.52726C9.39967 3.42602 9.45341 3.33727 9.54216 3.34602C9.80714 3.37102 9.81714 3.836 9.52466 3.97474C9.52466 3.97474 9.55966 4.28347 9.76465 4.34472C9.94464 4.39847 10.0246 4.22348 10.0571 4.13973C10.2271 3.70475 10.4809 3.741 10.5271 3.10729C10.5921 2.23858 9.7734 1.76611 9.04219 1.79736C8.7572 1.80985 8.57596 1.86735 8.33097 2.01484C8.22598 2.07484 7.86725 2.31983 7.8035 2.51107C7.72226 2.75481 7.851 2.91855 7.9085 2.92605C7.96599 2.93355 8.52721 2.81605 8.88219 2.85355C8.92844 2.85855 8.98219 2.8673 9.00719 2.9073C9.01844 2.9248 9.03719 3.04104 9.03969 3.06104C9.08468 3.32228 9.07968 3.49102 9.17593 3.64851C9.19218 3.67476 9.24967 3.70475 9.24967 3.70475Z" fill="url(#paint13_radial_4219_17444)"/>
<path d="M8.06429 4.67892C8.15929 4.67892 8.25304 4.65267 8.33053 4.58893C8.41553 4.51893 8.35178 4.44894 8.25303 4.49768C8.19304 4.52643 8.10804 4.54393 8.0293 4.53268L8.06429 4.67892Z" fill="#6D4C41"/>
<path d="M8.4376 3.97945C8.50709 3.97378 8.55638 3.88274 8.54768 3.77609C8.53898 3.66944 8.47559 3.58758 8.4061 3.59325C8.33661 3.59892 8.28733 3.68997 8.29602 3.79662C8.30472 3.90326 8.36811 3.98512 8.4376 3.97945Z" fill="#5D4037"/>
<path d="M8.32298 3.5304C8.20799 3.5879 8.16549 3.5129 8.19424 3.44166C8.21549 3.38916 8.28173 3.33666 8.42797 3.33791C8.56547 3.34041 8.63421 3.40666 8.67921 3.44666C8.72296 3.48665 8.72796 3.53415 8.69796 3.54415C8.65671 3.55665 8.46422 3.45916 8.32298 3.5304Z" fill="#AB872F"/>
<path opacity="0.28" d="M13.8191 9.26245C13.7429 9.16745 13.5792 9.09246 13.3654 9.05371C13.3654 9.05371 13.6229 9.15496 13.6691 9.39119C13.7154 9.62743 13.6779 9.78742 13.3304 10.2286C13.0229 10.6186 10.2243 13.1297 8.08069 14.3097C6.77451 15.0284 5.44833 15.4584 4.53213 15.4584C3.97341 15.4584 3.54218 15.2671 3.35344 14.9721C3.21345 14.7547 3.1747 14.4397 3.21595 14.1359C3.02846 14.5234 3.01971 14.8672 3.19595 15.1446C3.44469 15.5371 3.92216 15.7084 4.53338 15.7084C5.53957 15.7084 6.90575 15.2434 8.20318 14.5284C10.3793 13.3297 13.2079 10.8236 13.5342 10.3749C13.8766 9.90242 13.9404 9.41494 13.8191 9.26245Z" fill="#0D47A1"/>
<defs>
<linearGradient id="paint0_linear_4219_17444" x1="17.5649" y1="8.57858" x2="3.37963" y2="14.1829" gradientUnits="userSpaceOnUse">
<stop offset="0.0174" stop-color="#0288D1"/>
<stop offset="1" stop-color="#29B6F6"/>
</linearGradient>
<linearGradient id="paint1_linear_4219_17444" x1="3.82106" y1="16.1388" x2="16.121" y2="7.53632" gradientUnits="userSpaceOnUse">
<stop offset="0.0125" stop-color="#1C3AA9" stop-opacity="0"/>
<stop offset="0.2582" stop-color="#1C3AA9" stop-opacity="0.9998"/>
<stop offset="0.7244" stop-color="#1C3AA9" stop-opacity="0.9998"/>
<stop offset="0.7638" stop-color="#1C3AA9" stop-opacity="0.9998"/>
<stop offset="1" stop-color="#1C3AA9" stop-opacity="0"/>
</linearGradient>
<linearGradient id="paint2_linear_4219_17444" x1="14.9314" y1="7.47942" x2="16.2195" y2="7.47942" gradientUnits="userSpaceOnUse">
<stop stop-color="#1C3AA9"/>
<stop offset="0.9111" stop-color="#1C3AA9" stop-opacity="0.0889"/>
<stop offset="1" stop-color="#1C3AA9" stop-opacity="0"/>
</linearGradient>
<linearGradient id="paint3_linear_4219_17444" x1="13.9264" y1="11.6866" x2="15.787" y2="11.6866" gradientUnits="userSpaceOnUse">
<stop stop-color="#1C3AA9"/>
<stop offset="0.9111" stop-color="#1C3AA9" stop-opacity="0.0889"/>
<stop offset="1" stop-color="#1C3AA9" stop-opacity="0"/>
</linearGradient>
<linearGradient id="paint4_linear_4219_17444" x1="10.4186" y1="11.2612" x2="14.8539" y2="7.49502" gradientUnits="userSpaceOnUse">
<stop stop-color="#E3F2FD"/>
<stop offset="1" stop-color="#90CAF9"/>
</linearGradient>
<linearGradient id="paint5_linear_4219_17444" x1="4.6321" y1="14.3585" x2="12.5668" y2="10.387" gradientUnits="userSpaceOnUse">
<stop stop-color="#FFF176"/>
<stop offset="1" stop-color="#FFEB3B"/>
</linearGradient>
<linearGradient id="paint6_linear_4219_17444" x1="7.74548" y1="12.9887" x2="3.38863" y2="15.0997" gradientUnits="userSpaceOnUse">
<stop stop-color="#00BFA5"/>
<stop offset="0.4567" stop-color="#65EEAE"/>
<stop offset="1" stop-color="#B9F6CA"/>
</linearGradient>
<linearGradient id="paint7_linear_4219_17444" x1="12.6564" y1="9.35581" x2="4.7807" y2="14.2091" gradientUnits="userSpaceOnUse">
<stop stop-color="#B9F6CA"/>
<stop offset="1" stop-color="#FFFDE7"/>
</linearGradient>
<linearGradient id="paint8_linear_4219_17444" x1="6.56705" y1="13.4815" x2="12.9876" y2="9.50464" gradientUnits="userSpaceOnUse">
<stop stop-color="#1C3AA9" stop-opacity="0.1"/>
<stop offset="1" stop-color="#1C3AA9"/>
</linearGradient>
<linearGradient id="paint9_linear_4219_17444" x1="7.67311" y1="13.2586" x2="7.5431" y2="12.1078" gradientUnits="userSpaceOnUse">
<stop offset="0.5995" stop-color="#E0BB95"/>
<stop offset="1" stop-color="#CCA47A"/>
</linearGradient>
<linearGradient id="paint10_linear_4219_17444" x1="8.10436" y1="10.0969" x2="8.16093" y2="11.3999" gradientUnits="userSpaceOnUse">
<stop offset="0.6015" stop-color="#E0BB95"/>
<stop offset="1" stop-color="#CCA47A"/>
</linearGradient>
<linearGradient id="paint11_linear_4219_17444" x1="4.60547" y1="6.98808" x2="8.39029" y2="6.98808" gradientUnits="userSpaceOnUse">
<stop offset="0.5982" stop-color="#E0BB95"/>
<stop offset="1" stop-color="#CCA47A"/>
</linearGradient>
<linearGradient id="paint12_linear_4219_17444" x1="7.92003" y1="6.39677" x2="9.4795" y2="5.69784" gradientUnits="userSpaceOnUse">
<stop stop-color="#00BFA5"/>
<stop offset="0.4701" stop-color="#00B29A"/>
<stop offset="1" stop-color="#009E89"/>
</linearGradient>
<radialGradient id="paint13_radial_4219_17444" cx="0" cy="0" r="1" gradientUnits="userSpaceOnUse" gradientTransform="translate(9.12172 3.12601) rotate(-7.22424) scale(1.51883 1.46272)">
<stop offset="0.6681" stop-color="#BFA055" stop-opacity="0"/>
<stop offset="1" stop-color="#BFA055"/>
</radialGradient>
</defs>
</svg>
