<svg width="18" height="18" viewBox="0 0 18 18" fill="none" xmlns="http://www.w3.org/2000/svg">
<path d="M3.64762 6.32591L5.11254 6.06467C5.30878 6.02092 5.43377 5.82718 5.39003 5.63094C5.34628 5.4347 5.15254 5.30971 4.9563 5.35346L3.50512 5.75719C3.30889 5.80093 3.17639 5.92968 3.21889 6.12592C3.26264 6.32216 3.45138 6.36965 3.64762 6.32591Z" fill="#EDA600"/>
<path d="M12.1948 9.85044C11.4724 9.41922 11.0011 9.11548 10.5487 8.53551L8.45503 5.85565C8.32878 5.64817 8.13005 5.50442 7.89381 5.44818C7.88381 5.44568 7.87381 5.44443 7.86381 5.44193L7.86506 5.43318L3.58029 5.05945C3.44654 5.0482 3.3128 5.06195 3.18406 5.10194L2.51909 5.30943C2.4316 5.33693 2.34785 5.37568 2.2691 5.42568C2.11411 5.52442 1.83538 5.70816 1.70663 5.82066C1.63539 5.88315 1.58789 5.9469 1.58789 6.06064C1.58789 6.15314 1.62539 6.23563 1.69538 6.29313C1.77163 6.35688 1.87913 6.38188 1.98912 6.36188C2.12786 6.33688 2.2816 6.20314 2.3866 6.09564C2.41535 6.06564 2.45284 6.04689 2.49409 6.04189L3.19781 5.9494C3.25155 5.9419 3.30405 5.9444 3.35405 5.95565C3.44779 5.9769 3.55779 5.99565 3.68653 6.0194C3.85277 6.04939 4.06026 6.08564 4.30275 6.13939C4.60273 6.20564 6.83386 6.9256 6.85511 6.93185C7.00635 6.98434 7.13885 7.08559 7.22759 7.21933L8.06755 8.48177C8.38378 8.95674 8.38003 9.58296 8.06005 10.0404L8.04755 10.0579C7.70882 10.5467 7.30509 11.4116 7.14885 11.9866C6.81261 13.2203 7.01635 14.0227 7.75757 14.3727L10.5874 15.7089L13.9097 13.7252L15.1459 11.5404L12.1948 9.85044Z" fill="url(#paint0_linear_4219_17435)"/>
<path d="M8.64195 11.9892C8.87818 11.633 8.78069 11.153 8.42446 10.9167L7.87324 10.5518L7.01953 11.8417L7.57075 12.2067C7.92573 12.4429 8.40571 12.3454 8.64195 11.9892Z" fill="#E59600"/>
<path d="M3.49403 8.61936C3.49403 8.61936 3.51028 8.59312 3.51778 8.58187C3.52528 8.57062 3.54278 8.54437 3.54278 8.54437C4.54273 7.22194 5.51518 7.43818 6.10765 7.70816C6.75011 7.9994 7.19634 8.26063 7.19634 8.26063C7.19634 8.26063 7.15759 8.26813 7.09509 8.28813C7.0301 8.31063 6.97635 8.34688 6.97635 8.34688L7.41883 8.74561L6.0889 8.56062C6.08015 8.55937 6.07265 8.56312 6.0689 8.57062L5.91141 8.8781C5.75267 9.18684 5.57642 9.48682 5.38643 9.7768H5.38768C5.37893 9.7893 5.37144 9.8018 5.36269 9.8143C5.35394 9.8268 5.34644 9.8393 5.33769 9.8518H5.33644C5.14395 10.1405 4.93646 10.4193 4.71397 10.6868L4.49273 10.9517C4.48773 10.958 4.48648 10.9667 4.49148 10.9742L5.18145 12.1267L4.64147 11.8742C4.64147 11.8742 4.62772 11.9379 4.63272 12.0067C4.63772 12.0717 4.64647 12.1104 4.64647 12.1104C4.64647 12.1104 4.1865 11.8167 3.69402 11.3117C3.2278 10.833 2.68783 10.0168 3.49403 8.61936Z" fill="#543930"/>
<path d="M7.51228 8.3386C7.17604 8.11611 6.91606 8.39234 6.91606 8.39234L6.82106 8.53609L4.75742 11.6522L4.66243 11.7959C4.66243 11.7959 4.50994 12.1434 4.84617 12.3659C5.1424 12.5621 5.40989 12.4121 5.56113 12.1846L7.62477 9.06731C7.77476 8.83982 7.80851 8.53484 7.51228 8.3386Z" fill="#E59600"/>
<path d="M3.58892 8.63694C4.47887 7.29201 5.75505 7.63075 7.21872 8.6007C8.73739 9.60564 8.48366 10.8418 8.00618 11.563C7.53621 12.273 6.50126 13.0067 4.97259 11.9943C3.50767 11.0231 2.69896 9.98187 3.58892 8.63694Z" fill="#FFCA28"/>
<path d="M4.88324 11.2505C4.88324 11.2505 4.87824 11.2367 4.87074 11.2142C4.86949 11.208 4.86699 11.203 4.86449 11.1942C4.86324 11.1855 4.86199 11.1755 4.85949 11.1642C4.85824 11.153 4.85699 11.1418 4.85574 11.1293C4.85449 11.1168 4.85449 11.1055 4.85449 11.093C4.85449 11.0805 4.85449 11.068 4.85449 11.0543C4.85574 11.0405 4.85699 11.0268 4.85824 11.013C4.85949 10.9993 4.86199 10.9843 4.86574 10.9693C4.86824 10.9543 4.87199 10.9393 4.87574 10.9243C4.88574 10.8943 4.89449 10.8643 4.90949 10.8343C4.92199 10.8043 4.94074 10.7768 4.95824 10.748C4.97824 10.7218 4.99698 10.6943 5.02073 10.6705C5.04198 10.6455 5.06698 10.6255 5.09073 10.6055C5.10323 10.5968 5.11573 10.5868 5.12823 10.5793C5.14073 10.5705 5.15323 10.563 5.16573 10.5568C5.17823 10.5505 5.19072 10.543 5.20197 10.538C5.21447 10.533 5.22572 10.528 5.23822 10.523C5.24947 10.5193 5.26072 10.5143 5.27197 10.5105C5.28322 10.508 5.29322 10.5055 5.30322 10.503C5.31322 10.5005 5.32197 10.498 5.33072 10.4968C5.33947 10.4955 5.34697 10.4943 5.35447 10.493C5.38321 10.4893 5.39946 10.4893 5.39946 10.4893C5.45196 10.488 5.49571 10.5293 5.49821 10.5818C5.49946 10.6143 5.48446 10.643 5.46071 10.6605L5.44571 10.6718C5.44571 10.6718 5.43571 10.6793 5.41946 10.6893C5.41571 10.6918 5.41071 10.6943 5.40571 10.698C5.40071 10.7018 5.39571 10.7055 5.39071 10.7093C5.37946 10.7168 5.36697 10.7255 5.35447 10.7368C5.34822 10.7418 5.34072 10.7468 5.33447 10.7518C5.32822 10.758 5.32072 10.7643 5.31447 10.7693C5.31072 10.7718 5.30697 10.7755 5.30447 10.778C5.30072 10.7818 5.29822 10.7843 5.29447 10.788C5.28822 10.7955 5.28072 10.8018 5.27322 10.808C5.26072 10.823 5.24572 10.838 5.23322 10.8543C5.21947 10.8693 5.20822 10.888 5.19572 10.9043C5.18447 10.9218 5.17198 10.9393 5.16323 10.958C5.15198 10.9755 5.14448 10.9943 5.13573 11.013C5.13198 11.0218 5.12823 11.0318 5.12448 11.0405C5.12323 11.0455 5.12073 11.0493 5.11823 11.0543C5.11698 11.0593 5.11573 11.063 5.11448 11.068C5.11073 11.0768 5.10823 11.0855 5.10573 11.093C5.10323 11.1018 5.10198 11.1093 5.09823 11.1168C5.09573 11.1243 5.09323 11.1318 5.09198 11.1393C5.09073 11.1455 5.08823 11.1518 5.08698 11.158C5.08573 11.1642 5.08448 11.1692 5.08198 11.1742C5.08073 11.1805 5.08073 11.188 5.07948 11.193C5.07698 11.2167 5.07323 11.2305 5.07323 11.2305C5.06198 11.2842 5.01073 11.318 4.95824 11.3067C4.92199 11.303 4.89574 11.2792 4.88324 11.2505Z" fill="#6D4C41"/>
<path d="M6.5654 9.01468C6.5654 9.01468 6.55415 9.02218 6.5329 9.03468C6.5279 9.03718 6.52165 9.04093 6.5154 9.04468C6.51165 9.04843 6.50665 9.05218 6.50165 9.05593C6.49665 9.05968 6.49165 9.06343 6.48665 9.06718C6.4804 9.07218 6.47415 9.07718 6.4679 9.08218C6.46165 9.08717 6.45415 9.09217 6.4479 9.09717C6.44166 9.10342 6.43416 9.10842 6.42791 9.11467C6.42416 9.11717 6.42041 9.12092 6.41791 9.12342C6.41416 9.12717 6.41166 9.12967 6.40791 9.13342C6.40166 9.14092 6.39416 9.14717 6.38666 9.15342C6.37416 9.16842 6.35916 9.18342 6.34666 9.19967C6.33291 9.21467 6.32166 9.23342 6.30916 9.24967C6.29791 9.26716 6.28541 9.28466 6.27666 9.30341C6.26541 9.32091 6.25791 9.33966 6.24917 9.35841C6.24542 9.36716 6.24167 9.37716 6.23792 9.38591C6.23667 9.39091 6.23417 9.39466 6.23167 9.39966C6.23042 9.40466 6.22917 9.40841 6.22792 9.41341C6.22542 9.42216 6.22167 9.43091 6.21917 9.43841C6.21667 9.44716 6.21542 9.45465 6.21167 9.46215C6.20667 9.47715 6.20292 9.49215 6.20042 9.5059C6.19917 9.51215 6.19792 9.5184 6.19542 9.52465C6.19417 9.5309 6.19417 9.5359 6.19292 9.5409C6.18917 9.5609 6.18667 9.57215 6.18667 9.57215L6.18167 9.58965C6.16792 9.6409 6.11667 9.67089 6.06542 9.65714C6.03418 9.64839 6.01043 9.6259 6.00043 9.5984C6.00043 9.5984 5.99543 9.5834 5.98668 9.5559C5.98543 9.5484 5.98293 9.5409 5.98043 9.5334C5.97918 9.52465 5.97793 9.5159 5.97668 9.5059C5.97543 9.4959 5.97418 9.48465 5.97293 9.47465C5.97168 9.4634 5.97168 9.45215 5.97168 9.43966C5.97168 9.42716 5.97168 9.41466 5.97168 9.40091C5.97293 9.38716 5.97418 9.37341 5.97543 9.35966C5.97668 9.34591 5.97918 9.33091 5.98293 9.31591C5.98668 9.30091 5.98918 9.28591 5.99293 9.27091C6.00293 9.24092 6.01168 9.21092 6.02668 9.18092C6.03918 9.15092 6.05793 9.12342 6.07417 9.09467C6.09417 9.06843 6.11292 9.04093 6.13667 9.01718C6.15792 8.99218 6.18292 8.97218 6.20667 8.95218C6.21917 8.94218 6.23167 8.93343 6.24417 8.92593C6.25666 8.91718 6.26916 8.90968 6.28166 8.90343C6.29416 8.89718 6.30666 8.89093 6.31791 8.88469C6.33041 8.87969 6.34166 8.87469 6.35416 8.86969C6.36666 8.86594 6.37666 8.86094 6.38791 8.85719C6.40041 8.85344 6.41041 8.85094 6.42166 8.84844C6.43166 8.84594 6.44166 8.84344 6.4504 8.84094C6.45915 8.83969 6.46415 8.83969 6.4704 8.83844C6.49415 8.83594 6.50915 8.83594 6.50915 8.83594C6.5629 8.83594 6.6079 8.87969 6.6079 8.93343C6.60915 8.96593 6.59165 8.99593 6.5654 9.01468Z" fill="#6D4C41"/>
<path d="M6.02617 10.5212C6.25616 10.6762 6.31365 10.9936 6.04742 11.3874C5.78493 11.7761 5.46495 11.8474 5.23496 11.6924C5.00497 11.5374 4.88873 11.2024 5.16496 10.7949C5.43245 10.3974 5.79618 10.3662 6.02617 10.5212Z" fill="#01579B"/>
<path d="M5.93658 11.3142C6.08954 11.0893 6.07704 10.8141 5.90864 10.6996C5.74025 10.585 5.47974 10.6745 5.32677 10.8994C5.17381 11.1243 5.18631 11.3995 5.35471 11.514C5.5231 11.6285 5.78361 11.5391 5.93658 11.3142Z" fill="#B3E5FC"/>
<path d="M5.99649 11.7126L5.40527 10.6989L5.47777 10.3164L6.06899 11.3301L5.99649 11.7126Z" fill="white"/>
<path d="M7.05492 8.99986C7.28491 9.15485 7.34241 9.47233 7.07617 9.86606C6.81368 10.2548 6.4937 10.326 6.26371 10.171C6.03372 10.0161 5.90498 9.68732 6.17997 9.27984C6.4487 8.88237 6.82493 8.84487 7.05492 8.99986Z" fill="#01579B"/>
<path d="M6.9649 9.79268C7.11786 9.56777 7.10536 9.29261 6.93696 9.17808C6.76857 9.06355 6.50806 9.15302 6.35509 9.37793C6.20213 9.60283 6.21464 9.878 6.38303 9.99253C6.55142 10.1071 6.81193 10.0176 6.9649 9.79268Z" fill="#B3E5FC"/>
<path d="M7.02481 10.1914L6.43359 9.17768L6.50609 8.79395L7.09731 9.80764L7.02481 10.1914Z" fill="white"/>
<path d="M6.43556 10.1988L6.11682 10.67L5.88184 10.5113L6.20057 10.04L6.43556 10.1988Z" fill="#01579B"/>
<path d="M7.02796 8.48171C7.18545 8.6692 7.19795 8.90419 7.14795 9.14418L6.91296 8.98668C7.00171 8.79169 6.98421 8.57046 6.79297 8.32422L7.02796 8.48171Z" fill="#01579B"/>
<path d="M4.74475 11.8626C4.97849 11.9376 5.20098 11.8614 5.40472 11.7239L5.16973 11.5664C5.02224 11.7226 4.80975 11.7889 4.50977 11.7051L4.74475 11.8626Z" fill="#01579B"/>
<path d="M3.26267 8.38706C3.26267 8.38706 3.24392 8.4133 3.23642 8.42455C3.22892 8.4358 3.21267 8.46205 3.21267 8.46205C2.33647 9.92322 3.03518 10.9619 3.54891 11.3931C4.11888 11.8719 4.6301 12.1019 4.6301 12.1019C4.6301 12.1019 4.6201 12.0619 4.61385 11.9969C4.60635 11.9269 4.61885 11.8631 4.61885 11.8631C4.61885 11.8631 4.43886 11.1707 4.52886 10.6019C4.62135 10.0207 5.25257 9.07577 5.69129 8.79828C6.15627 8.50455 6.42501 8.37581 6.97123 8.34456C6.97123 8.34456 7.02622 8.30831 7.09372 8.28706C7.15747 8.26706 7.19746 8.26081 7.19746 8.26081C7.19746 8.26081 6.77249 7.90708 6.11752 7.55085C5.62005 7.28086 4.32637 6.99713 3.26267 8.38706Z" fill="url(#paint1_linear_4219_17435)"/>
<path d="M6.8259 10.511C6.8209 10.5148 6.8159 10.5198 6.8109 10.5248L6.58091 10.8873C6.57841 10.8935 6.57591 10.8998 6.57466 10.906C6.56716 10.9473 6.58966 10.9873 6.63591 10.9948C6.68216 11.0023 6.82965 10.9948 6.92214 10.8485C7.01464 10.7035 6.95839 10.566 6.93214 10.5273C6.90589 10.4898 6.85965 10.486 6.8259 10.511Z" fill="#E59600"/>
<path d="M7.50215 11.2656C7.63432 11.0895 7.65509 10.8819 7.54853 10.8019C7.44197 10.7219 7.24844 10.7999 7.11627 10.976C6.9841 11.1521 6.96334 11.3597 7.06989 11.4397C7.17645 11.5197 7.36998 11.4417 7.50215 11.2656Z" fill="#795548"/>
<path d="M14.999 11.2471C14.1778 11.2471 13.7578 12.1458 12.9991 12.1458C12.2416 12.1458 11.8204 11.2471 10.9992 11.2471C10.178 11.2471 9.758 12.1458 8.99929 12.1458C8.24058 12.1458 7.8206 11.2471 6.9994 11.2471C6.17819 11.2471 5.75696 12.1458 4.9995 12.1458C4.24204 12.1458 3.82081 11.2471 2.99961 11.2471C2.37339 11.2471 1.97966 11.7695 1.49219 12.017V16.4705H16.4914V12.0095C16.0127 11.7595 15.6202 11.2471 14.999 11.2471Z" fill="#039BE5"/>
<path d="M14.9952 14.2102C14.174 14.2102 13.754 13.3115 12.9953 13.3115C12.2379 13.3115 11.8166 14.2102 10.9954 14.2102C10.1742 14.2102 9.75425 13.3115 8.99554 13.3115C8.23683 13.3115 7.81685 14.2102 6.99565 14.2102C6.17444 14.2102 5.75321 13.3115 4.99575 13.3115C4.23829 13.3115 3.81707 14.2102 2.99586 14.2102C2.37089 14.2102 1.97841 13.6903 1.49219 13.4415V16.4689H16.4914V13.444C16.0114 13.694 15.6177 14.2102 14.9952 14.2102Z" fill="#29B6F6"/>
<defs>
<linearGradient id="paint0_linear_4219_17435" x1="1.58877" y1="10.3816" x2="15.1437" y2="10.3816" gradientUnits="userSpaceOnUse">
<stop stop-color="#FFCA28"/>
<stop offset="1" stop-color="#FFB300"/>
</linearGradient>
<linearGradient id="paint1_linear_4219_17435" x1="3.56598" y1="8.82843" x2="5.29243" y2="9.78542" gradientUnits="userSpaceOnUse">
<stop stop-color="#00BFA5"/>
<stop offset="1" stop-color="#00AB94"/>
</linearGradient>
</defs>
</svg>
