<svg width="18" height="18" viewBox="0 0 18 18" fill="none" xmlns="http://www.w3.org/2000/svg">
<path d="M5.03223 12.856C5.03223 12.856 5.73969 11.8485 5.76594 11.8085C5.79219 11.7685 6.85213 9.38615 6.85213 9.38615L7.32336 9.56989L7.23586 9.76738C7.23586 9.76738 7.11962 9.84988 7.01462 10.0861C6.90963 10.3224 6.31841 11.8935 6.31841 11.8935L8.72328 11.1148L11.6031 10.6961C11.6031 10.6961 13.0306 9.88488 13.2918 9.72738C13.553 9.56989 15.0454 7.93373 15.0454 7.93373L15.8179 6.38881L15.9879 4.64765L15.7492 3.08398C15.7492 3.08398 16.7479 4.00269 16.4279 5.99383C16.0229 8.5112 14.1767 10.5673 11.2506 11.3036C9.88197 11.6485 8.24081 11.7598 6.82838 12.341C6.09592 12.6422 5.21972 13.6147 5.21972 13.6147L5.03223 12.856Z" fill="#024AB1"/>
<path d="M7.39978 6.08709L7.13354 7.92199L6.9248 9.25567L8.36848 9.84439C8.36848 9.84439 7.35228 8.14073 7.9485 6.50081C8.69471 4.44967 10.7209 2.68227 12.382 2.55977C13.5307 2.47478 13.8407 2.73226 14.4107 3.00725C15.1494 3.36223 15.5743 4.20719 15.5743 4.20719C15.5743 4.20719 15.4069 3.09349 15.3656 3.04225C15.3244 2.991 13.5195 1.95605 13.5195 1.95605C13.5195 1.95605 11.6033 2.00605 11.5521 2.0373C11.5008 2.06855 9.8809 2.82726 9.84965 2.9085C9.8184 2.991 8.30098 4.59967 8.13724 4.8359C7.9735 5.07214 7.39978 6.08709 7.39978 6.08709Z" fill="#024AB1"/>
<path d="M14.2093 9.0651C14.1618 9.0651 14.1143 9.0476 14.078 9.01135L9.25205 4.3066C9.17831 4.2341 9.17581 4.11536 9.2483 4.04161C9.3208 3.96787 9.43954 3.96662 9.51329 4.03786L14.3393 8.74387C14.413 8.81636 14.4155 8.93511 14.343 9.00885C14.3068 9.04635 14.258 9.0651 14.2093 9.0651Z" fill="#B7CDD2"/>
<path d="M14.9721 8.1693C14.9246 8.1693 14.8759 8.15055 14.8396 8.11431L10.1461 3.43455C10.0724 3.36206 10.0724 3.24331 10.1461 3.16957C10.2199 3.09582 10.3374 3.09582 10.4111 3.16957L15.1034 7.84932C15.1771 7.92182 15.1771 8.04056 15.1034 8.11431C15.0684 8.15055 15.0196 8.1693 14.9721 8.1693Z" fill="#B7CDD2"/>
<path d="M15.4795 7.05966C15.4308 7.05966 15.382 7.04091 15.3458 7.00341L11.281 2.83113C11.2085 2.75739 11.2097 2.63864 11.2847 2.56615C11.3585 2.49365 11.4772 2.4949 11.5497 2.5699L15.6145 6.74093C15.687 6.81467 15.6858 6.93342 15.6108 7.00591C15.5745 7.04216 15.527 7.05966 15.4795 7.05966Z" fill="#B7CDD2"/>
<path d="M15.7603 5.61584C15.7128 5.61584 15.6653 5.59835 15.6291 5.5621L12.6468 2.61975C12.573 2.54726 12.5718 2.42851 12.6455 2.35477C12.718 2.28102 12.8367 2.27977 12.9105 2.35352L15.8916 5.29461C15.9653 5.36711 15.9666 5.48585 15.8928 5.5596C15.8566 5.5971 15.8091 5.61584 15.7603 5.61584Z" fill="#B7CDD2"/>
<path d="M13.3058 9.92463C13.2583 9.92463 13.2108 9.90713 13.1745 9.87088L8.47602 5.26737C8.40228 5.19488 8.40103 5.07613 8.47352 5.00239C8.54602 4.92864 8.66476 4.92739 8.73851 4.99989L13.437 9.6034C13.5108 9.67589 13.512 9.79464 13.4395 9.86838C13.4033 9.90588 13.3545 9.92463 13.3058 9.92463Z" fill="#B7CDD2"/>
<path d="M12.0569 10.5616C12.0081 10.5616 11.9594 10.5429 11.9231 10.5054L7.89833 6.40062C7.82583 6.32687 7.82708 6.20813 7.90083 6.13563C7.97457 6.06313 8.09332 6.06438 8.16581 6.13813L12.1906 10.2429C12.2631 10.3167 12.2618 10.4354 12.1881 10.5079C12.1519 10.5441 12.1044 10.5616 12.0569 10.5616Z" fill="#B7CDD2"/>
<path d="M10.7735 10.8575C10.726 10.8575 10.6797 10.84 10.6422 10.8038L7.58116 7.8227C7.50741 7.75021 7.50491 7.63146 7.5774 7.55772C7.6499 7.48397 7.76865 7.48147 7.84239 7.55397L10.9047 10.5351C10.9785 10.6076 10.981 10.7263 10.9085 10.8C10.871 10.8388 10.8222 10.8575 10.7735 10.8575Z" fill="#B7CDD2"/>
<path d="M8.07211 9.38591C8.02336 9.38591 7.97461 9.36716 7.93837 9.32967C7.86587 9.25592 7.86712 9.13718 7.94087 9.06468L14.2118 2.90126C14.2855 2.82876 14.4043 2.83001 14.4768 2.90376C14.5493 2.9775 14.548 3.09625 14.4743 3.16874L8.20335 9.33217C8.1671 9.36842 8.11961 9.38591 8.07211 9.38591Z" fill="#B7CDD2"/>
<path d="M7.75165 8.27575C7.70415 8.27575 7.6579 8.25825 7.62165 8.22325C7.54666 8.15075 7.54541 8.03201 7.6179 7.95826C9.68904 5.81963 12.8151 2.5798 12.9851 2.36856C13.0364 2.29106 13.1389 2.26231 13.2251 2.30481C13.3176 2.35106 13.3551 2.46355 13.3089 2.55605C13.2926 2.58855 13.2426 2.68854 7.88789 8.21825C7.84914 8.257 7.80039 8.27575 7.75165 8.27575Z" fill="#B7CDD2"/>
<path d="M8.03214 6.44511C7.98589 6.44511 7.93965 6.42762 7.9034 6.39387C7.8284 6.32262 7.82465 6.20388 7.8959 6.12888L11.2707 2.56657C11.342 2.49157 11.472 2.49532 11.547 2.56657C11.622 2.63781 11.622 2.74156 11.5507 2.81656L8.16838 6.38637C8.13214 6.42511 8.08214 6.44511 8.03214 6.44511Z" fill="#B7CDD2"/>
<path d="M8.68734 10.4563C8.63985 10.4563 8.59235 10.4388 8.5561 10.4025C8.48235 10.33 8.4811 10.2113 8.5536 10.1375L14.982 3.54289C15.0545 3.46914 15.1895 3.44789 15.2632 3.52039C15.337 3.59288 15.322 3.73163 15.2495 3.80537L8.82234 10.4C8.78484 10.4375 8.73609 10.4563 8.68734 10.4563Z" fill="#B7CDD2"/>
<path d="M9.91667 10.9235C9.86918 10.9235 9.82168 10.906 9.78543 10.8697C9.71168 10.7972 9.71043 10.6785 9.78418 10.6047L15.6939 4.61504C15.7664 4.54129 15.8851 4.54129 15.9589 4.61379C16.0326 4.68628 16.0339 4.80503 15.9601 4.87877L10.0504 10.8685C10.0142 10.9047 9.96542 10.9235 9.91667 10.9235Z" fill="#B7CDD2"/>
<path d="M11.6429 10.7345C11.5992 10.7345 11.5555 10.7195 11.5205 10.6895C11.443 10.622 11.433 10.507 11.498 10.4295C11.5655 10.3495 14.594 7.31967 15.5202 6.39222C15.594 6.31848 15.7127 6.31848 15.7852 6.39222C15.859 6.46597 15.859 6.58471 15.7852 6.65721C14.7053 7.73715 11.8817 10.5633 11.7829 10.672C11.7454 10.7132 11.6942 10.7345 11.6429 10.7345Z" fill="#B7CDD2"/>
<path d="M6.01059 11.8335C6.01059 11.8335 6.74305 9.75613 6.94179 9.68989C7.03554 9.65864 7.15178 9.90863 7.51676 10.2649C7.91424 10.6523 8.14423 10.7873 8.11298 10.9448C8.06298 11.1948 6.01059 11.8335 6.01059 11.8335ZM15.6951 5.21512C15.6088 7.28752 14.0389 9.4849 11.949 10.2886C10.6591 10.7848 9.15793 10.6736 8.27672 9.74239C7.42552 8.84368 7.32302 7.92373 7.54426 6.86379C7.92924 5.02763 9.6154 2.99274 11.1666 2.44777C12.7177 1.9028 13.7664 2.16029 14.7051 2.86025C15.4363 3.40772 15.7288 4.40892 15.6951 5.21512ZM15.7113 3.02899C15.2151 2.43652 14.1314 1.34658 12.0365 1.65281C10.1479 1.92905 8.58421 3.43522 7.66675 5.04388C6.93679 6.32632 6.8643 7.33626 6.64681 8.38371C6.43557 9.3999 5.65436 11.3436 5.49062 11.6685C5.09439 12.4522 4.70191 12.5822 4.64941 12.696L4.9519 13.6734C4.9519 13.6734 5.21938 13.1947 5.85435 12.561C6.48807 11.9273 7.91549 11.6198 8.52296 11.496C9.21792 11.3536 10.3216 11.3623 12.114 10.7136C14.1802 9.96612 16.1326 7.55375 16.2151 5.48511C16.2626 4.26517 16.2251 3.64271 15.7113 3.02899Z" fill="#1F87FF"/>
<path d="M4.79257 12.4347C4.60633 12.4659 2.70643 14.5158 2.70643 14.5158C2.70643 14.5158 1.99021 14.8683 1.85647 14.9608C1.72273 15.0533 1.70898 15.2945 1.84272 15.442C1.97646 15.5895 2.77892 16.3782 2.88517 16.472C2.99141 16.5657 3.28264 16.5595 3.35264 16.352C3.41264 16.1758 3.69262 15.6795 3.69262 15.6795C3.69262 15.6795 5.77376 13.5246 5.77376 13.4171C5.77376 13.3097 4.87256 12.4222 4.79257 12.4347Z" fill="#5F6369"/>
<path d="M2.47154 15.134C2.53654 15.479 3.00151 15.4828 3.2715 15.289C3.47899 15.139 3.37774 14.9428 3.52274 14.7878C3.69523 14.6028 3.85397 14.7078 4.01396 14.5216C4.17395 14.3353 4.1202 14.2116 4.22145 14.0953C4.36519 13.9303 4.51518 14.0366 4.66392 13.8603C4.81392 13.6841 4.72767 13.5404 4.84017 13.4279C4.95266 13.3154 5.2139 13.3691 5.15015 13.0816C5.0864 12.7942 4.69642 12.8304 4.52018 12.9691C4.38144 13.0791 4.38144 13.2679 4.2377 13.3954C4.1102 13.5079 3.96521 13.4704 3.79522 13.6254C3.62398 13.7804 3.67273 13.9778 3.55523 14.1053C3.43774 14.2328 3.27775 14.1378 3.09651 14.3403C2.90777 14.5516 3.00526 14.6653 2.82402 14.799C2.70153 14.8878 2.41779 14.8515 2.47154 15.134Z" fill="#858686"/>
<path d="M2.56584 2.16836L1.51465 3.85827C1.51465 3.85827 1.51465 5.1082 2.65084 5.74692C3.81953 6.40439 5.38069 5.94066 5.94566 4.76697C6.49939 3.61703 5.97441 2.2671 5.40569 1.82713C4.76198 1.3284 2.56584 2.16836 2.56584 2.16836Z" fill="#B6D401"/>
<path d="M2.89032 1.41998C2.04162 1.82495 1.54664 2.58491 1.4754 3.35112C1.45165 3.60986 1.4754 3.8361 1.4754 3.8361C1.4754 3.8361 1.82538 5.04728 3.36655 5.14853C5.02396 5.25852 5.79517 4.22608 5.84392 3.09364C5.88267 2.19494 5.38269 1.78121 5.38269 1.78121C5.38269 1.78121 5.15645 1.47622 4.65523 1.31998C4.44149 1.25123 3.69528 1.0375 2.89032 1.41998Z" fill="#D5F100"/>
<path d="M1.94369 3.3658C2.49241 4.02451 3.46111 4.59698 3.63235 5.2332C3.7811 5.78817 3.54611 6.04566 3.54611 6.04566C3.54611 6.04566 3.6161 6.08441 3.69485 6.09316C3.7736 6.10065 3.85859 6.06191 3.85859 6.06191C3.85859 6.06191 4.03108 5.85067 3.96859 5.24945C3.90609 4.64823 3.32737 4.17076 2.93739 3.86577C2.61366 3.61329 2.22743 3.3058 2.08494 3.06082C1.8587 2.67084 1.8662 2.22461 1.8662 2.22461C1.8662 2.22461 1.7562 2.26336 1.70246 2.4196C1.64996 2.56709 1.59246 2.94457 1.94369 3.3658Z" fill="white"/>
<path d="M4.30469 1.20912C4.30469 1.20912 4.37468 1.36536 4.67217 1.70909C4.9509 2.03157 5.36338 2.4853 5.64962 3.00652C5.86836 3.40525 6.11084 4.3427 6.11084 4.3427C6.11084 4.3427 6.20459 4.01397 6.20459 3.79523C6.20459 3.67774 6.0096 3.14652 5.83711 2.81778C5.63462 2.4303 5.24339 1.97408 5.0784 1.76284C4.97715 1.6316 4.67217 1.27037 4.67217 1.27037C4.67217 1.27037 4.31969 1.17037 4.30469 1.20912Z" fill="white"/>
</svg>
