<svg width="18" height="18" viewBox="0 0 18 18" fill="none" xmlns="http://www.w3.org/2000/svg">
<path d="M13.2282 12.7899L10.2684 14.926L6.15235 15.0823L4.70117 15.2985C4.70117 15.2985 5.50488 15.7885 6.28859 16.0822C7.0723 16.3759 7.77851 16.2785 7.77851 16.2785C7.77851 16.2785 8.30723 16.5534 9.8759 16.4347C11.4446 16.3172 12.1308 15.7097 12.1308 15.7097L12.327 15.8072C12.327 15.8072 12.8757 15.6897 13.5232 15.2385C14.1707 14.7873 15.4906 13.5161 16.0131 12.0824C16.583 10.515 16.5818 9.00509 16.4243 7.94639C16.4118 7.8639 16.4206 7.58516 16.3768 7.58141C15.8568 7.53141 13.282 12.7536 13.2282 12.7899Z" fill="#C5B3AF"/>
<path d="M5.22941 2.98798L3.40575 3.96793L2.87703 4.5554L1.73959 7.00527C1.73959 7.00527 1.66084 7.16151 1.66084 7.339C1.66084 7.51524 1.66084 7.79023 1.66084 7.79023C1.66084 7.79023 1.5346 9.2464 1.48585 9.45764C1.42711 9.71263 1.42711 9.98636 1.5446 10.2026C1.66209 10.4188 2.4658 12.32 2.4658 12.32L3.23076 13.8299C3.23076 13.8299 3.5245 14.2999 3.89698 14.6724C4.26946 15.0448 4.93567 15.2998 4.93567 15.2998C4.93567 15.2998 5.3169 15.5686 5.93562 15.5748C6.45809 15.5798 6.86932 15.4298 6.86932 15.4298C6.86932 15.4298 7.48179 15.8661 8.71422 15.8498C10.2416 15.8298 10.3266 15.3586 10.3266 15.3586C10.3266 15.3586 11.2241 15.5173 12.5178 14.6736C13.8115 13.8312 14.4827 12.1825 14.4827 12.1825C14.4827 12.1825 15.0514 11.9863 15.4239 11.2225C15.7963 10.4588 16.4238 8.57644 16.4238 7.94897C16.4238 7.50774 16.2988 6.62779 15.8526 5.68159C15.6839 5.32411 15.4751 5.04412 15.2276 4.75414C15.0439 4.53915 14.7402 4.19292 14.7402 4.19292C14.7402 4.19292 14.4827 3.75419 14.3452 3.5967C14.2077 3.43921 13.7765 3.10672 13.7765 3.10672L11.6791 1.96928C11.6791 1.96928 11.1503 1.67555 10.8554 1.5968C10.5616 1.51806 5.22941 2.98798 5.22941 2.98798Z" fill="#D8CDC9"/>
<path d="M13.4247 4.92849C12.9485 5.12973 11.8136 5.73095 11.8536 6.6134C11.8936 7.49586 12.2885 7.73209 12.4448 9.5545C12.601 11.3782 12.2685 12.5143 12.386 12.6718C12.5035 12.8281 13.3497 12.5068 13.8735 11.7856C14.3634 11.1094 14.7197 9.67324 14.7197 9.67324C14.7197 9.67324 15.3071 9.477 15.7996 8.55705C16.1796 7.84584 16.2758 7.33461 16.2533 6.85089C16.2383 6.51841 15.8709 5.37347 15.3209 4.89974C14.8522 4.49726 13.9822 4.6935 13.4247 4.92849Z" fill="#F2EEEC"/>
<path d="M1.74121 7.00749C1.74121 7.00749 3.21113 7.6737 5.23103 8.16368C7.25092 8.65365 9.32831 9.02613 9.75954 9.10488C10.1908 9.18362 10.5045 9.02613 10.602 8.81114C10.6995 8.5949 10.7157 7.38997 10.387 6.95749C10.1595 6.65751 9.66954 6.27003 9.66954 6.27003L6.13098 5.63506L3.05364 4.73386L2.8774 4.55762C2.8774 4.55762 2.40743 5.00884 2.11244 5.61631C1.81746 6.22378 1.74121 7.00749 1.74121 7.00749Z" fill="#F1EDEC"/>
<path d="M1.65763 7.79004C1.76513 7.87003 5.99115 9.05747 5.99115 9.05747C5.99115 9.05747 10.8059 9.89243 10.8059 9.98867C10.8059 10.0849 10.5972 11.2411 10.0509 11.5773C9.50472 11.9148 6.80361 11.6448 5.86241 11.4486C3.1663 10.8886 1.48139 9.57245 1.48139 9.57245C1.48139 9.57245 1.3689 9.13872 1.43264 8.545C1.46639 8.23752 1.65763 7.79004 1.65763 7.79004Z" fill="#F1EDEC"/>
<path d="M1.75402 10.5352L3.40768 11.5464L6.79375 12.4288L10.4536 12.4613C10.4536 12.4613 10.6785 12.7663 10.6298 12.9913C10.5811 13.2163 10.3086 13.97 9.53861 14.2912C8.8399 14.5824 6.41002 14.8874 4.41888 14.1625C2.65397 13.52 2.31649 12.605 1.99526 11.8838C1.66527 11.1414 1.75402 10.5352 1.75402 10.5352Z" fill="#F1EDEC"/>
<path d="M7.65625 4.71779L9.25117 3.10413L11.5035 2.12793C11.5035 2.12793 12.0848 2.14668 12.236 2.18418C12.3873 2.22167 12.7797 2.33417 13.3622 2.6904C13.9447 3.04663 14.3459 3.59535 14.3459 3.59535C14.3459 3.59535 13.7372 3.04663 12.0485 3.91034C10.3599 4.77404 10.3399 5.24277 10.0211 5.31776C9.70239 5.39276 9.03118 5.33651 8.55745 5.22402C7.76874 5.03653 7.65625 4.71779 7.65625 4.71779Z" fill="#F1EDEC"/>
<path d="M3.58691 3.94141C3.58691 3.94141 3.79065 4.20015 4.36312 4.33639C4.93434 4.47263 5.49306 4.36389 5.49306 4.36389C5.49306 4.36389 5.65681 4.56763 6.17428 4.67637C6.69175 4.78512 6.89549 4.66262 7.00423 4.52638C7.11298 4.39014 7.88919 3.17895 9.00538 2.49774C10.1216 1.81652 11.1353 1.69278 11.1353 1.69278C11.1353 1.69278 10.4778 1.3653 9.5391 1.41905C8.6004 1.47279 7.80669 1.77778 7.80669 1.77778L7.35796 1.81902C7.35796 1.81902 6.66425 1.73778 5.80555 2.10526C4.94684 2.47274 4.02189 3.31645 4.02189 3.31645L3.58691 3.94141Z" fill="#F1EDEC"/>
<path d="M9.35547 6.16447C9.35547 6.16447 10.1904 5.92823 10.5254 5.75324C10.8604 5.57825 11.9603 5.01953 11.9603 5.01953C11.9603 5.01953 11.5304 5.78574 11.4979 6.24697C11.4629 6.74694 11.5816 7.76189 11.5816 7.76189L11.3429 7.62689C11.3429 7.62689 10.7591 7.07067 10.5367 6.89443C10.3142 6.71819 9.35547 6.16447 9.35547 6.16447Z" fill="#C5B3AF"/>
<path d="M11.8107 10.3122C11.7845 10.3097 9.1846 10.0809 4.83733 9.01472C2.29121 8.38975 1.635 7.97227 1.59375 7.94603C1.59375 7.94603 1.62625 7.87228 1.64375 7.71354C1.66 7.5548 1.6625 7.39355 1.6625 7.39355C1.6725 7.3998 2.5112 7.91728 4.95982 8.51725C9.2646 9.57344 11.8295 9.79968 11.8545 9.80218L11.8107 10.3122Z" fill="#9B8D8B"/>
<path d="M8.7156 12.7841C7.44442 12.7841 5.882 12.6291 4.24583 12.1016C2.65467 11.5891 1.81221 10.9679 1.74972 10.9242C1.74972 10.9242 1.76347 10.8067 1.71847 10.6254C1.67347 10.4442 1.56348 10.2305 1.56348 10.2305C1.57848 10.2405 2.88591 11.1242 4.40333 11.6129C8.14063 12.8178 11.5854 11.9804 11.6192 11.9716L11.7442 12.4691C11.6592 12.4916 10.4618 12.7841 8.7156 12.7841Z" fill="#9B8D8B"/>
<path d="M10.968 15.4472C10.5593 15.2135 10.2431 14.871 10.2393 14.8672L10.1618 14.7835L10.0481 14.7985C10.0293 14.801 8.1257 15.046 5.44959 14.3097C4.17341 13.9585 3.05972 13.3848 2.84473 13.2373C2.84473 13.2373 2.93472 13.7323 3.29345 13.921C3.57344 14.0685 3.91342 14.2273 4.2834 14.376C4.31215 14.4822 4.40714 14.821 4.59088 15.141C4.87587 15.6359 5.60083 15.7847 5.60083 15.7847C5.59708 15.7797 5.17085 15.2447 4.99461 14.8635C4.94962 14.7647 4.91712 14.6772 4.89212 14.5997C5.03711 14.6472 5.18335 14.6922 5.33085 14.7335C5.62583 14.8147 5.91081 14.8835 6.18455 14.9435C6.28454 15.1372 6.49203 15.4884 6.83827 15.8309C6.98076 15.9722 7.177 16.1534 7.40449 16.2521C7.91321 16.4721 8.37194 16.4221 8.37194 16.4221C8.36444 16.4159 7.67322 15.9747 7.30449 15.6084C7.16575 15.4709 6.93951 15.1972 6.84952 15.071C8.48568 15.3534 9.63937 15.2784 9.9931 15.2434C10.1231 15.3722 10.4031 15.6284 10.7481 15.8259C10.9493 15.9409 11.1305 16.0447 11.3305 16.0884C11.728 16.1746 11.9917 15.8909 11.9917 15.8909C11.9892 15.8884 11.4193 15.7034 10.968 15.4472Z" fill="#9B8D8B"/>
<path d="M10.2241 15.2182L9.93289 14.812L10.0779 15.0157L9.93164 14.8133C9.94664 14.802 11.4616 13.6646 11.5978 10.6685C11.7328 7.67113 10.5866 6.51994 10.5741 6.50869L10.9191 6.14746C10.9728 6.19871 12.244 7.44239 12.0965 10.6922C11.9503 13.9458 10.2954 15.167 10.2241 15.2182Z" fill="#9B8D8B"/>
<path d="M11.5274 16.1029L11.3574 15.6742C11.4562 15.6579 13.8923 15.1942 14.4285 10.7395C14.8397 7.32339 12.8798 4.49104 12.8598 4.46354L13.2686 4.1748C13.3536 4.29605 15.361 7.1859 14.9247 10.7995C14.3398 15.6554 11.6524 16.1067 11.5274 16.1029Z" fill="#9B8D8B"/>
<path d="M12.8086 4.17491C11.6336 4.63239 10.8624 5.68108 10.6137 6.05981C10.1875 6.02731 8.90252 5.91232 7.3926 5.61484C7.67758 5.10736 8.3863 3.99617 9.48499 3.26996C10.9449 2.30626 12.1686 2.17877 12.1973 2.17127C12.2261 2.16377 11.8349 1.78879 11.4774 1.86253C10.8374 1.99503 10.0137 2.32376 9.21 2.85373C7.90007 3.71994 7.12511 5.04487 6.88138 5.50984C6.51515 5.42985 6.14017 5.3386 5.76393 5.23611C5.64519 5.20361 5.5302 5.17111 5.4177 5.13986C5.59394 4.70363 5.98642 3.81743 6.4714 3.22121C7.42385 2.05377 8.55379 1.5663 8.56629 1.5613C8.56629 1.5613 7.84258 1.35756 7.21011 1.82004C6.84513 2.08752 6.4539 2.4525 6.08517 2.90498C5.5352 3.57994 5.11022 4.55864 4.93523 5.00112C4.39026 4.84238 3.94778 4.70613 3.5978 4.59114C3.69154 4.37865 3.82404 4.09492 3.96653 3.84743C4.23027 3.3862 4.519 2.92998 4.5215 2.92623C4.5215 2.92623 3.87778 3.15247 3.5078 3.76243C3.33906 4.03867 3.28032 4.22741 3.18157 4.45365C3.12157 4.43365 3.07283 4.4099 3.01783 4.41365C2.7216 4.4299 2.61035 4.86238 2.61035 4.86238C2.6466 4.87862 3.20907 5.06486 5.63019 5.73108C8.17756 6.43104 10.7112 6.58354 10.7362 6.58478L10.8937 6.59353L10.9724 6.45729C10.9799 6.44479 11.7499 5.13986 12.9961 4.65489C14.046 4.24616 14.921 4.40615 14.9297 4.4074C14.9297 4.4074 14.8972 4.28366 14.8147 4.14741C14.7535 4.04742 14.5797 3.94617 14.5797 3.94617C14.5385 3.93492 14.0185 3.70494 12.8086 4.17491Z" fill="#9B8D8B"/>
</svg>
