<svg width="18" height="18" viewBox="0 0 18 18" fill="none" xmlns="http://www.w3.org/2000/svg">
<path d="M11.9305 11.8499C11.708 11.6099 11.4168 11.2974 11.1618 11.0274C10.6668 10.5062 10.0619 10.1162 10.0619 10.1162L9.05566 11.1962C9.05566 11.1962 9.44689 11.9161 9.94562 12.3448C10.1894 12.5548 10.4943 12.7686 10.7431 12.9336C10.7056 13.0573 10.6681 13.2185 10.6518 13.411C10.6043 14.0085 10.6968 14.796 10.7006 14.8835C10.7156 15.3409 10.7206 15.6797 10.7206 15.6797L11.513 15.6772L12.173 12.7498C12.2455 12.4286 12.1555 12.0911 11.9305 11.8499Z" fill="url(#paint0_linear_4219_17452)"/>
<path d="M7.93622 10.1162C7.93622 10.1162 7.33125 10.5062 6.83753 11.0287C6.58254 11.2986 6.29131 11.6111 6.06882 11.8511C5.84383 12.0924 5.75383 12.4298 5.82633 12.7511L6.4863 15.6784L7.27875 15.6809C7.27875 15.6809 7.28375 15.3422 7.29875 14.8847C7.30125 14.7972 7.395 14.0098 7.3475 13.4123C7.3325 13.2198 7.29375 13.0586 7.25625 12.9348C7.50499 12.7698 7.80998 12.5561 8.05371 12.3461C8.55244 11.9174 8.94367 11.1974 8.94367 11.1974L7.93622 10.1162Z" fill="url(#paint1_linear_4219_17452)"/>
<path d="M6.28613 14.8828L6.48737 15.6765L7.27983 15.679L7.29733 14.8828H6.28613Z" fill="#E0E0E0"/>
<path d="M7.55222 15.992C7.55097 15.752 7.34474 15.4795 7.34474 15.4795H6.37604L5.62858 15.7432C5.43609 15.8195 5.30859 16.0045 5.30859 16.212V16.3719C5.30859 16.4419 5.36484 16.4994 5.43484 16.4994L7.40848 16.4932C7.48848 16.4932 7.55348 16.4282 7.55348 16.3469L7.55222 15.992Z" fill="#4568AD"/>
<path d="M10.7012 14.8828L10.7224 15.679L11.5136 15.6765L11.7136 14.8828H10.7012Z" fill="#E0E0E0"/>
<path d="M12.3709 15.7432L11.6247 15.4795H10.656C10.656 15.4795 10.4485 15.752 10.4485 15.9932L10.4473 16.3482C10.4473 16.4282 10.5123 16.4932 10.5923 16.4944L12.5647 16.4994C12.6346 16.4994 12.6909 16.4432 12.6909 16.3719V16.212C12.6909 16.0045 12.5634 15.8195 12.3709 15.7432Z" fill="#4568AD"/>
<path d="M10.3575 6.13864C10.3087 6.05114 10.3712 5.96115 10.4749 5.85115C10.6412 5.67616 10.8224 5.26868 10.6549 4.85496C10.6562 4.85246 10.6224 4.78246 10.6224 4.78121L10.5524 4.77746C10.5299 4.77371 9.76873 4.77246 9.00752 4.77246C8.24631 4.77246 7.48511 4.77371 7.46261 4.77746C7.46261 4.77746 7.36011 4.85246 7.36136 4.85496C7.19262 5.26868 7.37386 5.67491 7.54135 5.85115C7.64635 5.96115 7.70759 6.05114 7.65885 6.13864C7.6126 6.22363 7.47261 6.23613 7.47261 6.23613C7.47261 6.23613 7.5051 6.32363 7.5826 6.37113C7.65385 6.41487 7.74259 6.42487 7.80259 6.42612C7.80259 6.42612 8.04008 6.75486 8.66129 6.75486H9.00752H9.35376C9.97497 6.75486 10.2125 6.42612 10.2125 6.42612C10.2737 6.42487 10.3612 6.41487 10.4324 6.37113C10.5099 6.32363 10.5424 6.23613 10.5424 6.23613C10.5424 6.23613 10.4037 6.22488 10.3575 6.13864Z" fill="#543930"/>
<path d="M9.00684 6.75423V6.38925L10.1118 6.30176L10.2118 6.4255C10.2118 6.4255 9.97429 6.75423 9.35307 6.75423H9.00684Z" fill="url(#paint2_radial_4219_17452)"/>
<path d="M10.2097 6.26686C10.0447 6.01562 10.4109 5.92188 10.4109 5.92188C10.3472 6.00062 10.3184 6.07062 10.3559 6.13811C10.4022 6.22311 10.5422 6.23561 10.5422 6.23561C10.5422 6.23561 10.3522 6.40435 10.2097 6.26686Z" fill="url(#paint3_radial_4219_17452)"/>
<path d="M10.6549 4.85573C10.8186 5.25571 10.6461 5.66819 10.4849 5.84193C10.4624 5.86567 10.3687 5.95817 10.3474 6.03192C10.3474 6.03192 9.97868 5.51694 9.86869 5.21571C9.84619 5.15446 9.82619 5.09197 9.82369 5.02697C9.82119 4.97822 9.82869 4.92072 9.85744 4.87948C9.89244 4.82823 10.6374 4.81448 10.6374 4.81448C10.6361 4.81323 10.6549 4.85573 10.6549 4.85573Z" fill="url(#paint4_radial_4219_17452)"/>
<path d="M7.36103 4.85597C7.19729 5.25595 7.36978 5.66843 7.53102 5.84217C7.55352 5.86592 7.64727 5.95842 7.66852 6.03216C7.66852 6.03216 8.03725 5.51719 8.14724 5.21596C8.16974 5.15471 8.18974 5.09221 8.19224 5.02722C8.19474 4.97847 8.18724 4.92097 8.15849 4.87972C8.12349 4.82848 8.0835 4.84222 8.026 4.84222C7.91475 4.84222 7.42728 4.81348 7.38978 4.81348C7.39103 4.81348 7.36103 4.85597 7.36103 4.85597Z" fill="url(#paint5_radial_4219_17452)"/>
<path d="M9.00865 6.75423V6.38925L7.90371 6.30176L7.80371 6.4255C7.80371 6.4255 8.0412 6.75423 8.66242 6.75423H9.00865Z" fill="url(#paint6_radial_4219_17452)"/>
<path d="M7.80709 6.26686C7.97333 6.01562 7.60585 5.92188 7.60585 5.92188C7.6696 6.00062 7.69835 6.07062 7.66085 6.13811C7.6146 6.22311 7.47461 6.23561 7.47461 6.23561C7.47461 6.23561 7.66335 6.40435 7.80709 6.26686Z" fill="url(#paint7_radial_4219_17452)"/>
<path d="M13.0315 3.88975L12.464 3.60352C12.0103 4.04849 11.7953 4.42972 11.5928 5.09344C11.1641 5.29718 10.7941 5.67091 10.5541 6.05714C10.2991 6.40837 10.1391 6.60336 9.95539 6.95209C9.81665 7.21707 9.91664 7.51206 10.1679 7.6958C10.2866 7.78329 10.3829 7.82079 10.4766 7.82079C10.5816 7.82079 10.6816 7.77205 10.8041 7.68955C11.0628 7.54206 11.4141 7.15208 11.6391 6.86209L11.6328 6.85834C11.919 6.50211 12.2078 5.99964 12.3515 5.52466C12.754 5.10469 13.0315 4.55347 13.0315 3.88975Z" fill="url(#paint8_linear_4219_17452)"/>
<path d="M8.04288 6.95334C7.85914 6.60461 7.69915 6.40962 7.44417 6.05839C7.20418 5.67216 6.8342 5.29843 6.40547 5.09469C6.20173 4.42847 5.98674 4.04849 5.53302 3.60352L4.9668 3.891C4.9668 4.55472 5.24428 5.10469 5.64676 5.52591C5.7905 5.99964 6.07799 6.50336 6.36547 6.85959L6.35922 6.86334C6.58421 7.15333 6.93544 7.54331 7.19418 7.6908C7.31667 7.77329 7.41667 7.82204 7.52166 7.82204C7.61541 7.82204 7.71165 7.78329 7.8304 7.69705C8.08038 7.51331 8.18163 7.21708 8.04288 6.95334Z" fill="url(#paint9_linear_4219_17452)"/>
<path d="M10.5542 6.05691C10.3304 6.3644 10.1804 6.55314 10.0229 6.82937C9.86919 6.78938 9.69545 6.76688 9.50296 6.76688H8.48176C8.29302 6.76688 8.12428 6.78938 7.97429 6.82812C7.8168 6.55189 7.66681 6.36315 7.44307 6.05566L6.35938 6.86187C6.58436 7.15186 7.06934 7.68933 7.06934 7.68933C7.17308 8.1968 7.77055 10.2142 7.77055 10.2142H10.3042L10.9504 7.67933C10.9504 7.67933 11.4191 7.14436 11.6391 6.86312L10.5542 6.05691Z" fill="url(#paint10_linear_4219_17452)"/>
<path d="M8.56543 6.85423C8.56543 7.06172 8.74167 7.23046 8.95916 7.23046H9.0379C9.25539 7.23046 9.43163 7.06172 9.43163 6.85423V6.39551H8.56543V6.85423Z" fill="#99674F"/>
<path d="M7.94233 5.82484C7.74859 5.82484 7.58984 5.65485 7.58984 5.44611C7.58984 5.23737 7.74734 5.06738 7.94233 5.06738H10.0572C10.251 5.06738 10.4097 5.23737 10.4097 5.44611C10.4097 5.65485 10.2522 5.82484 10.0572 5.82484H7.94233Z" fill="#99674F"/>
<path d="M8.99989 3.49316C8.32993 3.49316 7.70996 4.20938 7.70996 5.23932C7.70996 6.26427 8.34868 6.77049 8.99989 6.77049C9.65111 6.77049 10.2898 6.26427 10.2898 5.23932C10.2898 4.20938 9.66986 3.49316 8.99989 3.49316Z" fill="#BA8D68"/>
<path d="M9.14803 5.68637C9.14428 5.68512 9.13928 5.68387 9.13553 5.68262H8.8618C8.85805 5.68262 8.85305 5.68387 8.8493 5.68637C8.8243 5.69637 8.81055 5.72262 8.82305 5.75011C8.8343 5.77761 8.8893 5.85386 8.99929 5.85386C9.10928 5.85386 9.16303 5.77761 9.17553 5.75011C9.18678 5.72262 9.17303 5.69637 9.14803 5.68637Z" fill="#99674F"/>
<path d="M9.32437 5.99602C9.20063 6.06977 8.7969 6.06977 8.67441 5.99602C8.60316 5.95352 8.53067 6.01852 8.56066 6.08227C8.58941 6.14601 8.81065 6.29226 9.00064 6.29226C9.19063 6.29226 9.40937 6.14601 9.43812 6.08227C9.46687 6.01852 9.39562 5.95352 9.32437 5.99602Z" fill="#5D4037"/>
<path d="M8.37206 5.52182C8.47561 5.52182 8.55955 5.43452 8.55955 5.32683C8.55955 5.21914 8.47561 5.13184 8.37206 5.13184C8.26851 5.13184 8.18457 5.21914 8.18457 5.32683C8.18457 5.43452 8.26851 5.52182 8.37206 5.52182Z" fill="#49362E"/>
<path d="M9.62694 5.52182C9.73049 5.52182 9.81443 5.43452 9.81443 5.32683C9.81443 5.21914 9.73049 5.13184 9.62694 5.13184C9.5234 5.13184 9.43945 5.21914 9.43945 5.32683C9.43945 5.43452 9.5234 5.52182 9.62694 5.52182Z" fill="#49362E"/>
<path d="M8.651 4.97757C8.61475 4.93007 8.53225 4.86133 8.37226 4.86133C8.21102 4.86133 8.12852 4.93007 8.09353 4.97757C8.07728 4.99882 8.08228 5.02257 8.09228 5.03757C8.10228 5.05132 8.13227 5.06382 8.16602 5.05257C8.19977 5.04132 8.26352 5.00757 8.37226 5.00632C8.481 5.00757 8.546 5.04007 8.5785 5.05257C8.61225 5.06382 8.64225 5.05132 8.65225 5.03757C8.6635 5.02257 8.66725 4.99882 8.651 4.97757Z" fill="#613E31"/>
<path d="M9.90588 4.97757C9.86963 4.93007 9.78713 4.86133 9.62714 4.86133C9.4659 4.86133 9.38341 4.93007 9.34841 4.97757C9.33216 4.99882 9.33716 5.02257 9.34716 5.03757C9.35716 5.05132 9.38716 5.06382 9.4209 5.05257C9.45465 5.04132 9.5184 5.00757 9.62714 5.00632C9.73589 5.00757 9.80088 5.04007 9.83338 5.05257C9.86713 5.06382 9.89713 5.05132 9.90713 5.03757C9.91838 5.02257 9.92213 4.99882 9.90588 4.97757Z" fill="#613E31"/>
<path d="M10.557 4.0231C10.4633 3.88061 10.2508 3.68937 10.0621 3.67687C10.0321 3.49438 9.83583 3.33939 9.64709 3.28064C9.13587 3.11815 8.80338 3.30064 8.62339 3.39814C8.58589 3.41814 8.34591 3.55188 8.17842 3.45563C8.07342 3.39564 8.07467 3.23439 8.07467 3.23439C8.07467 3.23439 7.74469 3.35939 7.85718 3.70937C7.74469 3.71437 7.59595 3.76187 7.5172 3.92061C7.42346 4.10935 7.4572 4.26809 7.48345 4.34434C7.38596 4.42683 7.26346 4.60307 7.34721 4.83181C7.41096 5.0043 7.66344 5.08305 7.66344 5.08305C7.64594 5.39303 7.70344 5.58302 7.73344 5.66052C7.73844 5.67427 7.75844 5.67302 7.76094 5.65927C7.79969 5.50552 7.92968 4.9718 7.91718 4.87806C7.91718 4.87806 8.35591 4.79056 8.77338 4.48308C8.85838 4.42058 8.95088 4.36684 9.04837 4.32809C9.57334 4.11935 9.68334 4.47558 9.68334 4.47558C9.68334 4.47558 10.0471 4.40558 10.1571 4.91181C10.1983 5.1018 10.2271 5.40428 10.2496 5.61677C10.2508 5.63177 10.2721 5.63552 10.2771 5.62052C10.3133 5.53677 10.387 5.36928 10.4045 5.19929C10.4108 5.13929 10.572 5.06055 10.642 4.80306C10.7395 4.45558 10.6245 4.1256 10.557 4.0231Z" fill="#543930"/>
<path d="M10.4084 5.19695C10.4147 5.13695 10.5759 5.05821 10.6459 4.80072C10.6534 4.77322 10.6597 4.74572 10.6647 4.71698C10.7209 4.40449 10.6197 4.11701 10.5572 4.02201C10.4697 3.88952 10.2822 3.71703 10.1047 3.68078C10.0897 3.67828 10.0747 3.67703 10.0597 3.67578C10.0597 3.67578 10.0722 3.75828 10.0385 3.82452C9.99472 3.91077 9.90723 3.93077 9.90723 3.93077C10.3697 4.39574 10.3372 4.78322 10.4084 5.19695Z" fill="url(#paint11_radial_4219_17452)"/>
<path d="M8.73636 3.33839C8.69386 3.35839 8.65637 3.37964 8.62387 3.39714C8.58637 3.41714 8.34638 3.55088 8.17889 3.45464C8.07515 3.39589 8.07515 3.2384 8.07515 3.2334C8.02765 3.29465 7.88391 3.72712 8.30389 3.75587C8.48513 3.76837 8.59762 3.60963 8.66387 3.47589C8.68762 3.42839 8.72636 3.35714 8.73636 3.33839Z" fill="url(#paint12_radial_4219_17452)"/>
<path d="M9.59307 3.26314C9.87555 3.33938 10.0143 3.48313 10.0605 3.67562C10.0743 3.73186 10.0905 4.25809 9.0856 3.66062C8.71186 3.43813 8.81436 3.29814 8.85811 3.28314C9.0281 3.22189 9.27683 3.17814 9.59307 3.26314Z" fill="url(#paint13_radial_4219_17452)"/>
<path d="M8.07348 3.23298C8.07223 3.23298 8.07223 3.23298 8.07098 3.23423C8.03473 3.24923 7.75224 3.38047 7.85724 3.70795L8.15847 3.7567C7.89349 3.48671 8.07473 3.23173 8.07348 3.23298C8.07473 3.23298 8.07473 3.23173 8.07348 3.23298Z" fill="url(#paint14_radial_4219_17452)"/>
<path d="M8.04506 3.73801L7.85882 3.70801C7.85132 3.70801 7.82632 3.71051 7.81382 3.71176C7.70882 3.72676 7.58633 3.7805 7.51883 3.91925C7.44759 4.06799 7.44884 4.19673 7.46884 4.28173C7.47384 4.31048 7.48634 4.34297 7.48634 4.34297C7.48634 4.34297 7.57883 4.25548 7.79757 4.25048L8.04506 3.73801Z" fill="url(#paint15_radial_4219_17452)"/>
<path d="M7.47605 4.35027C7.3848 4.43151 7.26106 4.61275 7.35231 4.83774C7.42105 5.00773 7.66479 5.08148 7.66479 5.08148C7.66479 5.08273 7.71354 5.09648 7.73854 5.09648L7.79603 4.24902C7.67854 4.24902 7.56604 4.28402 7.49355 4.33402C7.4948 4.33652 7.47605 4.34902 7.47605 4.35027Z" fill="url(#paint16_radial_4219_17452)"/>
<path d="M6.03204 3.14511C5.91955 3.07886 5.38583 2.99512 5.01709 2.99512C4.81461 2.99512 4.66336 3.02137 4.66336 3.09011L4.66211 3.51884C4.66086 3.95007 4.9421 4.30255 5.40707 4.3038H5.40832C6.25078 4.3038 6.31703 3.31135 6.03204 3.14511Z" fill="url(#paint17_radial_4219_17452)"/>
<path d="M6.00266 3.60251C5.99766 3.61876 5.95391 3.63501 5.90641 3.64751H5.90516C5.85016 3.66126 5.78517 3.68875 5.66392 3.7225C5.49518 3.77 5.48143 3.99624 5.48143 3.99624C5.45018 3.87874 5.53018 3.6725 5.64142 3.62501V3.62376C5.69392 3.59876 5.75267 3.58501 5.81517 3.57501C5.82517 3.57376 5.85016 3.57251 5.88141 3.57376H5.88266C5.93891 3.57501 6.00891 3.58251 6.00266 3.60251Z" fill="#91674D"/>
<path d="M16.4992 3.31248C16.4992 3.48497 16.408 3.62497 16.2942 3.62497H1.70499C1.5925 3.62497 1.5 3.48497 1.5 3.31248C1.5 3.13999 1.5925 3 1.70499 3H16.293C16.4067 3 16.4992 3.13999 16.4992 3.31248Z" fill="url(#paint18_linear_4219_17452)"/>
<path d="M3.61519 5.12364C4.02892 5.12364 4.36516 4.78741 4.36516 4.37368V2.26754C4.36516 1.85381 4.02892 1.51758 3.61519 1.51758C3.20147 1.51758 2.86523 1.85381 2.86523 2.26754V4.37368C2.86523 4.78741 3.20022 5.12364 3.61519 5.12364Z" fill="url(#paint19_radial_4219_17452)"/>
<path d="M14.3847 5.12364C13.971 5.12364 13.6348 4.78741 13.6348 4.37368V2.26754C13.6348 1.85381 13.971 1.51758 14.3847 1.51758C14.7985 1.51758 15.1347 1.85381 15.1347 2.26754V4.37368C15.1347 4.78741 14.7997 5.12364 14.3847 5.12364Z" fill="url(#paint20_radial_4219_17452)"/>
<path d="M2.24997 4.40289C2.52621 4.40289 2.74995 4.17916 2.74995 3.90292V2.73923C2.74995 2.463 2.52621 2.23926 2.24997 2.23926C1.97374 2.23926 1.75 2.463 1.75 2.73923V3.90292C1.75 4.17916 1.97374 4.40289 2.24997 4.40289Z" fill="url(#paint21_radial_4219_17452)"/>
<path d="M15.749 4.40289C15.4728 4.40289 15.249 4.17916 15.249 3.90292V2.73923C15.249 2.463 15.4728 2.23926 15.749 2.23926C16.0252 2.23926 16.249 2.463 16.249 2.73923V3.90292C16.249 4.17916 16.0252 4.40289 15.749 4.40289Z" fill="url(#paint22_radial_4219_17452)"/>
<path d="M5.82575 3.62497H4.65957L4.55957 3H5.82575V3.62497Z" fill="#646464"/>
<path d="M6.15262 2.87957L6.11638 3.07331L6.10888 3.11581L6.09138 3.20955L6.08138 3.26455C6.06013 3.37704 5.96138 3.45579 5.85139 3.45579C5.83764 3.45579 5.82264 3.45454 5.80889 3.45204C5.75139 3.44204 5.70265 3.41204 5.6689 3.36705C5.62765 3.40454 5.5739 3.42579 5.51516 3.42579C5.48016 3.42579 5.37017 3.37704 5.35142 3.3583C5.34642 3.3533 5.34142 3.3483 5.33767 3.34205C5.33267 3.3458 5.32767 3.3508 5.32267 3.35455C5.32017 3.3558 5.24892 3.39829 5.17643 3.39704C5.10893 3.39579 5.04143 3.35455 5.02143 3.33455C5.00143 3.3633 4.97394 3.38829 4.94144 3.40579C4.91894 3.41954 4.89394 3.42829 4.86644 3.43204C4.85394 3.43454 4.84144 3.43579 4.82894 3.43579C4.77895 3.43579 4.7302 3.41954 4.6902 3.38954C4.6377 3.35205 4.60396 3.29705 4.59521 3.23455L4.57896 3.12831V3.12706L4.55771 2.99081C4.54771 2.92832 4.56271 2.86582 4.60021 2.81457C4.6377 2.76208 4.6927 2.72833 4.7552 2.71958C4.7702 2.71708 4.7852 2.71583 4.80019 2.71708C4.80394 2.71708 4.80894 2.71708 4.81269 2.71833C4.85269 2.72083 4.89269 2.73458 4.92769 2.75958C4.93269 2.76333 4.93644 2.76708 4.94019 2.76958C4.94769 2.74083 4.96269 2.71333 4.98144 2.69083C4.98644 2.68333 4.99143 2.67708 4.99768 2.67083C5.00518 2.66208 5.01143 2.65833 5.01393 2.65583C5.01518 2.65583 5.01518 2.65458 5.01518 2.65458C5.05268 2.62208 5.10143 2.60209 5.15518 2.59959C5.17268 2.59834 5.19017 2.59959 5.20642 2.60209C5.21892 2.60459 5.23017 2.60834 5.24142 2.61208C5.27392 2.62208 5.30267 2.63833 5.32767 2.66083C5.33517 2.65083 5.34392 2.64083 5.35267 2.63208C5.36517 2.61958 5.37891 2.60834 5.39266 2.59959C5.40016 2.59459 5.40891 2.59084 5.41641 2.58584C5.44766 2.57084 5.48266 2.56334 5.51891 2.56459C5.55891 2.56459 5.59765 2.57459 5.63265 2.59459C5.6389 2.59709 5.6439 2.60084 5.6489 2.60459C5.6614 2.61333 5.67265 2.62333 5.6839 2.63458C5.7039 2.65458 5.72015 2.67833 5.7314 2.70333C5.74639 2.68083 5.76639 2.65958 5.79014 2.64333C5.79514 2.63958 5.80139 2.63583 5.80764 2.63333C5.83264 2.61958 5.85889 2.60959 5.88639 2.60584C5.91264 2.60209 5.93888 2.60209 5.96513 2.60709C6.02763 2.61833 6.08013 2.65333 6.11638 2.70458C6.15137 2.75708 6.16387 2.81832 6.15262 2.87957Z" fill="url(#paint23_linear_4219_17452)"/>
<path d="M10.4308 10.2645L10.3434 10.0195H7.72224L7.67475 10.2695L6.5498 11.2582L7.80474 12.5619C7.80474 12.5619 8.65344 11.8532 8.72969 11.7857C8.81344 11.7107 8.91468 11.7019 8.97593 11.7007C9.03717 11.7019 9.13842 11.7107 9.22216 11.7857C9.29841 11.8544 10.1471 12.5619 10.1471 12.5619L11.4495 11.2582L10.4308 10.2645Z" fill="#7C7C7C"/>
<path d="M6.12832 3.01448C6.08457 3.12697 5.84708 3.01948 5.75709 2.97323C5.74334 2.86324 5.72959 2.79074 5.72959 2.79074C5.72959 2.79074 5.72959 2.79074 5.72959 2.79199C5.73334 2.85449 5.67084 2.89948 5.61209 2.87699C5.54585 2.85074 5.4696 2.82949 5.4146 2.83199C5.39336 2.83324 5.37586 2.83699 5.35961 2.84199C5.34461 2.79324 5.33586 2.76074 5.33586 2.76074C5.33586 2.76074 5.33586 2.76574 5.33586 2.77449C5.33336 2.81699 5.31336 2.85699 5.27836 2.88074C5.14212 2.96948 5.10712 3.13697 5.26836 3.31571C5.21337 3.35321 5.12712 3.35071 5.07837 3.30071C5.01588 3.23822 4.98963 3.03948 4.95338 2.89199C4.96463 2.99698 4.99588 3.18447 4.98088 3.25697C4.96213 3.34446 4.87463 3.39946 4.78714 3.37821C4.71089 3.35946 4.6209 3.29821 4.57715 3.12947L4.5934 3.23572C4.60215 3.29821 4.6359 3.35321 4.68839 3.39071C4.72839 3.42071 4.77714 3.43696 4.82714 3.43696C4.83963 3.43696 4.85213 3.43571 4.86463 3.43321C4.88838 3.42946 4.90963 3.42196 4.92963 3.41196C4.93088 3.41071 4.93338 3.41071 4.93463 3.40946C4.93588 3.40821 4.93838 3.40821 4.93963 3.40696C4.99213 3.37821 5.01838 3.33821 5.01963 3.33571C5.02587 3.34571 5.09087 3.39946 5.16962 3.39946C5.27836 3.39946 5.32086 3.35571 5.32086 3.35571C5.33086 3.36196 5.34086 3.36696 5.35086 3.37071C5.35836 3.37321 5.65084 3.47195 5.63959 3.5832C5.63834 3.59695 5.63959 3.6107 5.64084 3.62445V3.62945C5.64084 3.62945 5.64084 3.62945 5.64084 3.6307C5.64459 3.66319 5.65209 3.69444 5.66334 3.72319L5.66459 3.72194C5.69459 3.69819 5.76709 3.71819 5.77334 3.67569C5.79708 3.51445 5.79083 3.32196 5.77584 3.15697L6.09082 3.20947L6.12832 3.01448Z" fill="#91674D"/>
<path d="M6.18834 3.4225C6.12709 3.08627 5.72087 2.94628 5.56837 2.89253C5.54962 2.88628 5.27089 2.82004 5.23714 3.06752C5.22214 3.17502 5.30339 3.29251 5.40713 3.33251C5.69087 3.44125 5.68962 3.50125 5.68962 3.54125C5.68837 3.64499 5.74586 3.84123 5.83586 3.89998C5.85461 3.91248 5.87586 3.91998 5.89586 3.91998C5.90836 3.91998 5.92086 3.91748 5.93335 3.91248C6.1096 3.83873 6.22334 3.61874 6.18834 3.4225Z" fill="url(#paint24_linear_4219_17452)"/>
<path d="M11.9818 3.14511C12.0943 3.07886 12.6281 2.99512 12.9968 2.99512C13.1993 2.99512 13.3505 3.02137 13.3505 3.09011L13.3518 3.51884C13.353 3.95007 13.0718 4.30255 12.6068 4.3038H12.6056C11.7631 4.3038 11.6956 3.31135 11.9818 3.14511Z" fill="url(#paint25_radial_4219_17452)"/>
<path d="M12.0121 3.60251C12.0171 3.61876 12.0609 3.63501 12.1084 3.64751H12.1096C12.1646 3.66126 12.2296 3.68875 12.3508 3.7225C12.5196 3.77 12.5333 3.99624 12.5333 3.99624C12.5646 3.87874 12.4846 3.6725 12.3733 3.62501V3.62376C12.3208 3.59876 12.2621 3.58501 12.1996 3.57501C12.1896 3.57376 12.1646 3.57251 12.1334 3.57376H12.1321C12.0759 3.57501 12.0059 3.58251 12.0121 3.60251Z" fill="#91674D"/>
<path d="M12.1885 3H13.4547L13.3547 3.62497H12.1885V3Z" fill="#646464"/>
<path d="M11.8614 2.87957L11.8977 3.07331L11.9052 3.11581L11.9227 3.20955L11.9327 3.26455C11.9539 3.37704 12.0527 3.45579 12.1627 3.45579C12.1764 3.45579 12.1914 3.45454 12.2052 3.45204C12.2627 3.44204 12.3114 3.41204 12.3452 3.36705C12.3864 3.40454 12.4402 3.42579 12.4989 3.42579C12.5339 3.42579 12.6439 3.37704 12.6626 3.3583C12.6676 3.3533 12.6726 3.3483 12.6764 3.34205C12.6814 3.3458 12.6864 3.3508 12.6914 3.35455C12.6939 3.3558 12.7651 3.39829 12.8376 3.39704C12.9051 3.39579 12.9714 3.35455 12.9926 3.33455C13.0126 3.3633 13.0401 3.38829 13.0726 3.40579C13.0951 3.41954 13.1201 3.42829 13.1476 3.43204C13.1601 3.43454 13.1726 3.43579 13.1851 3.43579C13.2351 3.43579 13.2839 3.41954 13.3239 3.38954C13.3764 3.35205 13.4101 3.29705 13.4189 3.23455L13.4351 3.12831V3.12706L13.4564 2.99081C13.4664 2.92832 13.4514 2.86582 13.4139 2.81457C13.3764 2.76208 13.3214 2.72833 13.2589 2.71958C13.2439 2.71708 13.2289 2.71583 13.2139 2.71708C13.2101 2.71708 13.2051 2.71708 13.2014 2.71833C13.1614 2.72083 13.1214 2.73458 13.0864 2.75958C13.0814 2.76333 13.0776 2.76708 13.0739 2.76958C13.0664 2.74083 13.0514 2.71333 13.0326 2.69083C13.0276 2.68333 13.0226 2.67708 13.0164 2.67083C13.0089 2.66208 13.0026 2.65833 13.0001 2.65583C12.9989 2.65583 12.9989 2.65458 12.9989 2.65458C12.9614 2.62208 12.9126 2.60209 12.8589 2.59959C12.8414 2.59834 12.8239 2.59959 12.8076 2.60209C12.7951 2.60459 12.7839 2.60834 12.7726 2.61208C12.7401 2.62208 12.7114 2.63833 12.6864 2.66083C12.6789 2.65083 12.6701 2.64083 12.6614 2.63208C12.6489 2.61958 12.6351 2.60834 12.6214 2.59959C12.6139 2.59459 12.6051 2.59084 12.5976 2.58584C12.5664 2.57084 12.5314 2.56334 12.4952 2.56459C12.4552 2.56459 12.4164 2.57459 12.3814 2.59459C12.3752 2.59709 12.3702 2.60084 12.3652 2.60459C12.3527 2.61333 12.3414 2.62333 12.3302 2.63458C12.3102 2.65458 12.2939 2.67833 12.2827 2.70333C12.2677 2.68083 12.2477 2.65958 12.2239 2.64333C12.2189 2.63958 12.2127 2.63583 12.2064 2.63333C12.1814 2.61958 12.1552 2.60959 12.1277 2.60584C12.1014 2.60209 12.0752 2.60209 12.0489 2.60709C11.9864 2.61833 11.9339 2.65333 11.8977 2.70458C11.8627 2.75708 11.8502 2.81832 11.8614 2.87957Z" fill="url(#paint26_linear_4219_17452)"/>
<path d="M11.8857 3.01448C11.9295 3.12697 12.167 3.01948 12.257 2.97323C12.2707 2.86324 12.2845 2.79074 12.2845 2.79074C12.2845 2.79074 12.2845 2.79074 12.2845 2.79199C12.2807 2.85449 12.3432 2.89948 12.402 2.87699C12.4682 2.85074 12.5445 2.82949 12.5995 2.83199C12.6207 2.83324 12.6382 2.83699 12.6545 2.84199C12.6695 2.79324 12.6782 2.76074 12.6782 2.76074C12.6782 2.76074 12.6782 2.76574 12.6782 2.77449C12.6807 2.81699 12.7007 2.85699 12.7357 2.88074C12.8719 2.96948 12.9069 3.13697 12.7457 3.31571C12.8007 3.35321 12.8869 3.35071 12.9357 3.30071C12.9982 3.23822 13.0244 3.03948 13.0607 2.89199C13.0494 2.99698 13.0182 3.18447 13.0332 3.25697C13.0507 3.34446 13.1394 3.39946 13.2269 3.37821C13.3032 3.35946 13.3932 3.29821 13.4369 3.12947L13.4207 3.23572C13.4119 3.29821 13.3782 3.35321 13.3257 3.39071C13.2857 3.42071 13.2369 3.43696 13.1869 3.43696C13.1744 3.43696 13.1619 3.43571 13.1494 3.43321C13.1257 3.42946 13.1044 3.42196 13.0844 3.41196C13.0832 3.41071 13.0807 3.41071 13.0794 3.40946C13.0782 3.40821 13.0757 3.40821 13.0744 3.40696C13.0219 3.37821 12.9957 3.33821 12.9944 3.33571C12.9882 3.34571 12.9232 3.39946 12.8444 3.39946C12.7357 3.39946 12.6932 3.35571 12.6932 3.35571C12.6832 3.36196 12.6732 3.36696 12.6632 3.37071C12.6545 3.37321 12.3645 3.47195 12.3745 3.5832C12.3757 3.59695 12.3745 3.6107 12.3732 3.62445V3.62945C12.3732 3.62945 12.3732 3.62945 12.3732 3.6307C12.3695 3.66319 12.362 3.69444 12.3507 3.72319L12.3495 3.72194C12.3195 3.69819 12.247 3.71819 12.2407 3.67569C12.217 3.51445 12.2232 3.32196 12.2382 3.15697L11.9232 3.20947L11.8857 3.01448Z" fill="#91674D"/>
<path d="M11.8257 3.4225C11.8869 3.08627 12.2931 2.94628 12.4456 2.89253C12.4644 2.88628 12.7431 2.82004 12.7769 3.06752C12.7919 3.17502 12.7106 3.29251 12.6069 3.33251C12.3231 3.44125 12.3244 3.50125 12.3244 3.54125C12.3256 3.64499 12.2681 3.84123 12.1781 3.89998C12.1594 3.91248 12.1381 3.91998 12.1181 3.91998C12.1056 3.91998 12.0931 3.91748 12.0806 3.91248C11.9044 3.83873 11.7907 3.61874 11.8257 3.4225Z" fill="url(#paint27_linear_4219_17452)"/>
<defs>
<linearGradient id="paint0_linear_4219_17452" x1="10.6266" y1="10.1723" x2="10.6266" y2="14.963" gradientUnits="userSpaceOnUse">
<stop stop-color="#A47B62"/>
<stop offset="0.5" stop-color="#BA8D68"/>
</linearGradient>
<linearGradient id="paint1_linear_4219_17452" x1="7.37271" y1="10.1723" x2="7.37271" y2="14.963" gradientUnits="userSpaceOnUse">
<stop stop-color="#A47B62"/>
<stop offset="0.5" stop-color="#BA8D68"/>
</linearGradient>
<radialGradient id="paint2_radial_4219_17452" cx="0" cy="0" r="1" gradientUnits="userSpaceOnUse" gradientTransform="translate(9.57113 6.22743) scale(0.905215 0.444642)">
<stop offset="0.7275" stop-color="#6D4C41" stop-opacity="0"/>
<stop offset="1" stop-color="#6D4C41"/>
</radialGradient>
<radialGradient id="paint3_radial_4219_17452" cx="0" cy="0" r="1" gradientUnits="userSpaceOnUse" gradientTransform="translate(10.4637 6.09263) rotate(154.924) scale(0.267497 0.198445)">
<stop offset="0.6628" stop-color="#6D4C41"/>
<stop offset="1" stop-color="#6D4C41" stop-opacity="0"/>
</radialGradient>
<radialGradient id="paint4_radial_4219_17452" cx="0" cy="0" r="1" gradientUnits="userSpaceOnUse" gradientTransform="translate(9.77039 5.33643) rotate(-94.2783) scale(1.17501 0.979295)">
<stop offset="0.7247" stop-color="#6D4C41" stop-opacity="0"/>
<stop offset="1" stop-color="#6D4C41"/>
</radialGradient>
<radialGradient id="paint5_radial_4219_17452" cx="0" cy="0" r="1" gradientUnits="userSpaceOnUse" gradientTransform="translate(8.24653 5.3366) rotate(-85.7217) scale(1.17501 0.979295)">
<stop offset="0.7247" stop-color="#6D4C41" stop-opacity="0"/>
<stop offset="1" stop-color="#6D4C41"/>
</radialGradient>
<radialGradient id="paint6_radial_4219_17452" cx="0" cy="0" r="1" gradientUnits="userSpaceOnUse" gradientTransform="translate(8.4452 6.22743) rotate(180) scale(0.905215 0.444642)">
<stop offset="0.7275" stop-color="#6D4C41" stop-opacity="0"/>
<stop offset="1" stop-color="#6D4C41"/>
</radialGradient>
<radialGradient id="paint7_radial_4219_17452" cx="0" cy="0" r="1" gradientUnits="userSpaceOnUse" gradientTransform="translate(7.55302 6.09273) rotate(25.0761) scale(0.267497 0.198445)">
<stop offset="0.6628" stop-color="#6D4C41"/>
<stop offset="1" stop-color="#6D4C41" stop-opacity="0"/>
</radialGradient>
<linearGradient id="paint8_linear_4219_17452" x1="11.083" y1="6.45661" x2="12.6875" y2="3.82884" gradientUnits="userSpaceOnUse">
<stop stop-color="#A47B62"/>
<stop offset="0.5" stop-color="#BA8D68"/>
</linearGradient>
<linearGradient id="paint9_linear_4219_17452" x1="6.89888" y1="6.43422" x2="5.28269" y2="3.84134" gradientUnits="userSpaceOnUse">
<stop stop-color="#A47B62"/>
<stop offset="0.5" stop-color="#BA8D68"/>
</linearGradient>
<linearGradient id="paint10_linear_4219_17452" x1="8.99924" y1="6.76476" x2="8.99924" y2="9.95167" gradientUnits="userSpaceOnUse">
<stop stop-color="#F78C1F"/>
<stop offset="0.4936" stop-color="#F37F20"/>
<stop offset="1" stop-color="#ED6D23"/>
</linearGradient>
<radialGradient id="paint11_radial_4219_17452" cx="0" cy="0" r="1" gradientUnits="userSpaceOnUse" gradientTransform="translate(9.70426 4.71619) rotate(72.0851) scale(1.37729 1.02192)">
<stop offset="0.6985" stop-color="#6D4C41" stop-opacity="0"/>
<stop offset="1" stop-color="#6D4C41"/>
</radialGradient>
<radialGradient id="paint12_radial_4219_17452" cx="0" cy="0" r="1" gradientUnits="userSpaceOnUse" gradientTransform="translate(8.36213 3.21494) rotate(28.2026) scale(0.361126 0.42819)">
<stop offset="0.58" stop-color="#6D4C41"/>
<stop offset="1" stop-color="#6D4C41" stop-opacity="0"/>
</radialGradient>
<radialGradient id="paint13_radial_4219_17452" cx="0" cy="0" r="1" gradientUnits="userSpaceOnUse" gradientTransform="translate(9.16867 3.86993) rotate(-157.19) scale(1.12943 0.634742)">
<stop offset="0.6985" stop-color="#6D4C41" stop-opacity="0"/>
<stop offset="1" stop-color="#6D4C41"/>
</radialGradient>
<radialGradient id="paint14_radial_4219_17452" cx="0" cy="0" r="1" gradientUnits="userSpaceOnUse" gradientTransform="translate(8.21653 3.54381) scale(0.33147 0.405487)">
<stop offset="0.7016" stop-color="#6D4C41" stop-opacity="0"/>
<stop offset="1" stop-color="#6D4C41"/>
</radialGradient>
<radialGradient id="paint15_radial_4219_17452" cx="0" cy="0" r="1" gradientUnits="userSpaceOnUse" gradientTransform="translate(8.17105 4.12906) rotate(-164.942) scale(0.62169 0.581789)">
<stop offset="0.6605" stop-color="#6D4C41" stop-opacity="0"/>
<stop offset="1" stop-color="#6D4C41"/>
</radialGradient>
<radialGradient id="paint16_radial_4219_17452" cx="0" cy="0" r="1" gradientUnits="userSpaceOnUse" gradientTransform="translate(8.02384 4.72889) rotate(7.83355) scale(0.652699 0.917149)">
<stop offset="0.5981" stop-color="#6D4C41" stop-opacity="0"/>
<stop offset="1" stop-color="#6D4C41"/>
</radialGradient>
<radialGradient id="paint17_radial_4219_17452" cx="0" cy="0" r="1" gradientUnits="userSpaceOnUse" gradientTransform="translate(5.42336 3.64983) scale(0.709625)">
<stop stop-color="#A47B62"/>
<stop offset="0.5" stop-color="#BA8D68"/>
</radialGradient>
<linearGradient id="paint18_linear_4219_17452" x1="8.9996" y1="2.92237" x2="8.9996" y2="3.6796" gradientUnits="userSpaceOnUse">
<stop stop-color="#BDBDBD"/>
<stop offset="1" stop-color="#757575"/>
</linearGradient>
<radialGradient id="paint19_radial_4219_17452" cx="0" cy="0" r="1" gradientUnits="userSpaceOnUse" gradientTransform="translate(3.60861 2.08515) rotate(90) scale(2.74387 1.54297)">
<stop offset="0.3956" stop-color="#9E9E9E"/>
<stop offset="0.7899" stop-color="#646464"/>
</radialGradient>
<radialGradient id="paint20_radial_4219_17452" cx="0" cy="0" r="1" gradientUnits="userSpaceOnUse" gradientTransform="translate(14.3916 2.09597) rotate(90) scale(2.74387 1.54297)">
<stop offset="0.3956" stop-color="#9E9E9E"/>
<stop offset="0.7899" stop-color="#646464"/>
</radialGradient>
<radialGradient id="paint21_radial_4219_17452" cx="0" cy="0" r="1" gradientUnits="userSpaceOnUse" gradientTransform="translate(2.27778 2.60704) scale(0.590404 1.02122)">
<stop offset="0.4406" stop-color="#9E9E9E"/>
<stop offset="0.9854" stop-color="#646464"/>
</radialGradient>
<radialGradient id="paint22_radial_4219_17452" cx="0" cy="0" r="1" gradientUnits="userSpaceOnUse" gradientTransform="translate(15.7106 2.60704) rotate(180) scale(0.590404 1.02122)">
<stop offset="0.4406" stop-color="#9E9E9E"/>
<stop offset="0.9854" stop-color="#646464"/>
</radialGradient>
<linearGradient id="paint23_linear_4219_17452" x1="5.34993" y1="3.07784" x2="5.36302" y2="2.66362" gradientUnits="userSpaceOnUse">
<stop stop-color="#A47B62"/>
<stop offset="0.5" stop-color="#BA8D68"/>
</linearGradient>
<linearGradient id="paint24_linear_4219_17452" x1="5.37558" y1="3.54149" x2="6.03801" y2="3.20984" gradientUnits="userSpaceOnUse">
<stop stop-color="#A47B62"/>
<stop offset="0.4693" stop-color="#BA8D68"/>
</linearGradient>
<radialGradient id="paint25_radial_4219_17452" cx="0" cy="0" r="1" gradientUnits="userSpaceOnUse" gradientTransform="translate(12.5905 3.64983) rotate(180) scale(0.709625)">
<stop stop-color="#A47B62"/>
<stop offset="0.5" stop-color="#BA8D68"/>
</radialGradient>
<linearGradient id="paint26_linear_4219_17452" x1="12.6641" y1="3.07784" x2="12.651" y2="2.66362" gradientUnits="userSpaceOnUse">
<stop stop-color="#A47B62"/>
<stop offset="0.5" stop-color="#BA8D68"/>
</linearGradient>
<linearGradient id="paint27_linear_4219_17452" x1="12.6384" y1="3.54149" x2="11.976" y2="3.20984" gradientUnits="userSpaceOnUse">
<stop stop-color="#A47B62"/>
<stop offset="0.4693" stop-color="#BA8D68"/>
</linearGradient>
</defs>
</svg>
