<svg width="18" height="18" viewBox="0 0 18 18" fill="none" xmlns="http://www.w3.org/2000/svg">
<path d="M6.94576 10.3755C6.65452 10.2305 4.56963 9.38184 4.56963 9.38184L4.2334 10.8043C4.2334 10.8043 5.72457 11.313 6.24829 11.5217C6.33829 11.558 6.40453 11.6367 6.42328 11.7317L6.82826 13.7829L7.61322 13.7841C7.61322 13.7841 7.65072 12.2492 7.65072 11.6242C7.65072 10.8118 7.31449 10.558 6.94576 10.3755Z" fill="url(#paint0_linear_4219_17430)"/>
<path d="M4.69282 9.28086C4.58657 9.24211 4.47908 9.22461 4.37284 9.22461C3.99661 9.22461 3.64287 9.45585 3.50538 9.82958C3.32914 10.3083 3.57413 10.8395 4.0541 11.0158L5.20654 11.4395L5.84526 9.70458L4.69282 9.28086Z" fill="#E65100"/>
<path d="M5.44382 11.4124L4.82885 9.90625L3.47017 10.4525L3.99764 11.5437C4.05389 11.6374 4.02139 11.7574 3.9264 11.8099L2.30273 12.6661L2.68896 13.4548L4.95759 12.5536C5.40882 12.3749 5.62756 11.8624 5.44382 11.4124Z" fill="url(#paint1_linear_4219_17430)"/>
<path d="M10.3818 7.08402L9.99687 7.06152C9.89937 7.07402 9.4069 7.14152 9.31065 7.30901C9.28691 7.34901 9.28441 7.39401 9.29941 7.42525C9.3219 7.5265 9.4044 7.5965 9.49439 7.5965C9.50689 7.5965 9.51814 7.59525 9.53064 7.59275C9.53064 7.59275 9.53064 7.59275 9.53189 7.59275L10.3993 7.39276C10.5456 7.34151 10.5731 7.25276 10.5756 7.24151C10.5781 7.23401 10.5781 7.22526 10.5768 7.21777C10.5656 7.12527 10.4606 7.10152 10.3818 7.08402Z" fill="#E59600"/>
<path d="M11.8493 7.36361C11.3793 7.61735 11.0544 6.95239 11.0544 6.95239C11.0544 6.95239 10.9144 6.6699 10.7294 6.68865C10.6369 6.6974 10.6106 6.7124 10.3156 6.7474C9.86817 6.80114 9.70068 6.62115 9.61443 6.44116C9.58818 6.38742 9.56944 6.33492 9.55319 6.28742C9.52819 6.22117 9.50819 6.16743 9.47569 6.14368C9.44944 6.12368 9.15696 6.09368 9.15821 5.95619C9.16071 5.7737 9.43694 5.55496 9.38195 5.39997C9.37195 5.35872 9.30945 5.23373 9.30195 5.21623C9.23695 5.07123 9.18821 4.85875 9.17946 4.63876C9.15571 4.03004 9.41194 3.49507 10.0382 3.26133C10.5969 3.05259 11.3706 3.30258 11.7768 3.74006C12.0368 4.02129 12.153 5.09748 11.9893 5.62871C11.8181 6.18493 12.1505 6.65865 12.1505 6.65865C12.1505 6.65865 12.3868 7.07488 11.8493 7.36361Z" fill="#FFCA28"/>
<path d="M9.89869 6.30132C9.8262 6.38007 9.71745 6.42506 9.61496 6.44131C9.58871 6.38757 9.56996 6.33507 9.55371 6.28757C9.63996 6.28382 9.73995 6.25132 9.79745 6.21258C9.89869 6.14258 9.98119 6.21008 9.89869 6.30132Z" fill="#795548"/>
<path d="M9.91848 5.60725C9.99451 5.58981 10.0344 5.48077 10.0075 5.36369C9.98069 5.24662 9.8973 5.16584 9.82126 5.18328C9.74523 5.20071 9.70536 5.30975 9.7322 5.42683C9.75905 5.54391 9.84245 5.62468 9.91848 5.60725Z" fill="#404040"/>
<path d="M9.72067 5.1299C9.60443 5.21365 9.54318 5.1399 9.56193 5.05491C9.57568 4.99241 9.63943 4.92242 9.80192 4.89742C9.95441 4.87492 10.0432 4.93617 10.0994 4.97241C10.1556 5.00866 10.1694 5.05991 10.1382 5.07616C10.0944 5.09866 9.86441 5.02491 9.72067 5.1299Z" fill="#6D4C41"/>
<path d="M11.8243 3.38012C11.4744 3.08389 10.9094 2.95265 10.4082 3.02389C10.0719 3.07139 9.76196 3.19513 9.51197 3.37887C9.50697 3.38262 9.03325 3.73886 8.9645 4.01384C8.892 4.30883 9.03575 4.44382 9.06949 4.46632C9.12199 4.50132 9.21824 4.46882 9.21824 4.46882C9.41073 4.41507 10.0257 4.25258 10.3544 4.25383C10.4057 4.25383 10.4657 4.25883 10.4969 4.29883C10.5107 4.31632 10.5444 4.44132 10.5494 4.46382C10.6269 4.74505 10.6407 4.93004 10.7632 5.09253C10.7832 5.11878 10.8482 5.14503 10.8482 5.14503L10.9281 4.94129C10.9806 4.8238 11.0306 4.7213 11.1294 4.7213C11.4219 4.72005 11.4831 5.22753 11.1781 5.41127C11.1781 5.41127 11.3156 5.79125 11.6881 5.7875C12.0143 5.78375 12.0431 5.70625 12.0481 5.58126C12.0606 5.31127 12.1093 5.18503 12.1618 5.05254C12.2231 4.89504 12.2868 4.73255 12.2781 4.34382C12.2693 3.95884 12.1118 3.62511 11.8243 3.38012Z" fill="#543930"/>
<path d="M11.8243 3.38012C11.4744 3.08389 10.9094 2.95265 10.4082 3.02389C10.0719 3.07139 9.76196 3.19513 9.51197 3.37887C9.50697 3.38262 9.03325 3.73886 8.9645 4.01384C8.892 4.30883 9.03575 4.44382 9.06949 4.46632C9.12199 4.50132 9.21824 4.46882 9.21824 4.46882C9.41073 4.41507 10.0257 4.25258 10.3544 4.25383C10.4057 4.25383 10.4657 4.25883 10.4969 4.29883C10.5107 4.31632 10.5444 4.44132 10.5494 4.46382C10.6269 4.74505 10.6407 4.93004 10.7632 5.09253C10.7832 5.11878 10.8482 5.14503 10.8482 5.14503L10.9281 4.94129C10.9806 4.8238 11.0306 4.7213 11.1294 4.7213C11.4219 4.72005 11.4831 5.22753 11.1781 5.41127C11.1781 5.41127 11.3156 5.79125 11.6881 5.7875C12.0143 5.78375 12.0431 5.70625 12.0481 5.58126C12.0606 5.31127 12.1093 5.18503 12.1618 5.05254C12.2231 4.89504 12.2868 4.73255 12.2781 4.34382C12.2693 3.95884 12.1118 3.62511 11.8243 3.38012Z" fill="url(#paint2_radial_4219_17430)"/>
<path d="M7.03587 5.49623C6.97213 5.64747 7.23711 5.88121 7.23086 6.06245C7.22461 6.19995 6.93088 6.21494 6.90338 6.23369C6.87088 6.25619 6.84713 6.30744 6.82088 6.37244C6.80089 6.41868 6.77964 6.46993 6.75089 6.52243C6.65589 6.69742 6.4809 6.87116 6.03468 6.79366C5.74094 6.74367 5.71594 6.72742 5.62345 6.71367C5.43971 6.68617 5.28597 6.96115 5.28597 6.96115C5.28597 6.96115 4.92723 7.60862 4.47101 7.33114C3.94854 7.0149 4.20602 6.61117 4.20602 6.61117C4.20602 6.61117 4.56225 6.15495 4.41976 5.59123C4.28352 5.05251 4.45476 3.98381 4.72849 3.71633C5.15722 3.3001 5.94218 3.09011 6.48965 3.32635C7.10337 3.59258 7.33211 4.14005 7.27711 4.74627C7.25711 4.96501 7.19711 5.175 7.12462 5.31624C7.11587 5.33374 7.04712 5.45498 7.03587 5.49623Z" fill="#FFCA28"/>
<path d="M6.8208 6.37213C6.80081 6.41838 6.77956 6.46962 6.75081 6.52212C6.64956 6.50087 6.54207 6.45212 6.47332 6.36963C6.39583 6.27463 6.48207 6.21089 6.57957 6.28588C6.63456 6.32838 6.73456 6.36463 6.8208 6.37213Z" fill="#795548"/>
<path d="M6.68564 5.50464C6.71844 5.38909 6.6842 5.27815 6.60916 5.25684C6.53412 5.23554 6.44669 5.31194 6.41389 5.42749C6.38108 5.54305 6.41533 5.65399 6.49037 5.67529C6.56541 5.6966 6.65284 5.62019 6.68564 5.50464Z" fill="#404040"/>
<path d="M6.297 5.13461C6.267 5.11711 6.28325 5.06586 6.34074 5.03336C6.39824 4.99961 6.49074 4.94337 6.64198 4.97336C6.80322 5.00711 6.86322 5.07961 6.87322 5.14335C6.88821 5.2296 6.82322 5.2996 6.71072 5.2096C6.57323 5.09711 6.33949 5.15835 6.297 5.13461Z" fill="#6D4C41"/>
<path d="M4.70015 3.35534C5.06513 3.07661 5.6351 2.97536 6.13257 3.07161C6.4663 3.1366 6.77004 3.27535 7.00877 3.47283C7.01377 3.47658 7.46875 3.85656 7.5225 4.1353C7.57999 4.43278 7.43 4.56153 7.395 4.58278C7.34001 4.61527 7.24626 4.57778 7.24626 4.57778C7.05627 4.51528 6.4513 4.32029 6.12257 4.30529C6.07132 4.30279 6.01133 4.30404 5.97758 4.34404C5.96258 4.36154 5.92383 4.48403 5.91633 4.50528C5.82384 4.78277 5.80134 4.96526 5.67134 5.1215C5.6501 5.1465 5.58385 5.17024 5.58385 5.17024L5.51385 4.96276C5.46636 4.84276 5.42386 4.73777 5.32511 4.73277C5.03388 4.71652 4.94638 5.22024 5.24137 5.41898C5.24137 5.41898 5.08388 5.79146 4.71265 5.76896C4.38641 5.74896 4.36266 5.66897 4.36391 5.54523C4.36516 5.27524 4.32267 5.1465 4.27767 5.0115C4.22392 4.85151 4.16892 4.68652 4.19892 4.29779C4.22642 3.90906 4.40016 3.58408 4.70015 3.35534Z" fill="#543930"/>
<path d="M4.70015 3.35534C5.06513 3.07661 5.6351 2.97536 6.13257 3.07161C6.4663 3.1366 6.77004 3.27535 7.00877 3.47283C7.01377 3.47658 7.46875 3.85656 7.5225 4.1353C7.57999 4.43278 7.43 4.56153 7.395 4.58278C7.34001 4.61527 7.24626 4.57778 7.24626 4.57778C7.05627 4.51528 6.4513 4.32029 6.12257 4.30529C6.07132 4.30279 6.01133 4.30404 5.97758 4.34404C5.96258 4.36154 5.92383 4.48403 5.91633 4.50528C5.82384 4.78277 5.80134 4.96526 5.67134 5.1215C5.6501 5.1465 5.58385 5.17024 5.58385 5.17024L5.51385 4.96276C5.46636 4.84276 5.42386 4.73777 5.32511 4.73277C5.03388 4.71652 4.94638 5.22024 5.24137 5.41898C5.24137 5.41898 5.08388 5.79146 4.71265 5.76896C4.38641 5.74896 4.36266 5.66897 4.36391 5.54523C4.36516 5.27524 4.32267 5.1465 4.27767 5.0115C4.22392 4.85151 4.16892 4.68652 4.19892 4.29779C4.22642 3.90906 4.40016 3.58408 4.70015 3.35534Z" fill="url(#paint3_radial_4219_17430)"/>
<path d="M8.0556 7.45966C8.05935 7.41216 8.0431 7.37091 8.00935 7.33967C7.86561 7.20967 7.37688 7.29842 7.26939 7.32217L6.91316 7.46466C6.86316 7.49341 6.75692 7.5534 6.77816 7.6509C6.77941 7.6584 6.78316 7.6659 6.78691 7.67215C6.79191 7.6809 6.84691 7.75714 7.0069 7.76089L7.88686 7.6809C7.88811 7.6809 7.88811 7.6809 7.88811 7.6809C7.99435 7.6659 8.0681 7.56465 8.0556 7.45966Z" fill="#EDA600"/>
<path d="M9.57823 7.51501C9.53948 7.62001 9.2795 7.76375 8.92827 7.90749C8.90952 7.91499 8.89077 7.92249 8.87202 7.92999C8.77077 7.96999 8.66203 8.01124 8.55079 8.04999C8.51204 8.06374 8.47204 8.07748 8.43329 8.09123C7.83582 8.29122 7.16336 8.45496 6.82463 8.45996H6.82338C6.81338 8.45996 6.80338 8.45621 6.79463 8.45371C6.77463 8.45371 6.75588 8.45371 6.73588 8.45121C6.71713 8.44871 6.69963 8.44247 6.68088 8.43747V8.43871L6.63214 8.42872L5.85718 8.27372L4.93848 8.08998L5.26971 7.06379L5.27721 7.04004L6.3109 7.40752L6.84588 7.59751C7.11336 7.56126 8.45329 7.37752 8.66328 7.33127C8.75953 7.31127 8.95201 7.28628 9.13575 7.28628C9.39824 7.28628 9.64323 7.33627 9.57823 7.51501Z" fill="url(#paint4_linear_4219_17430)"/>
<path d="M8.87201 7.92962C8.77076 7.96962 8.25954 8.14586 8.21954 8.15961C7.98956 8.04212 7.71582 7.74963 7.71582 7.74963L8.1533 7.4834L8.87201 7.92962Z" fill="url(#paint5_linear_4219_17430)"/>
<path d="M6.63196 8.42872L5.857 8.27372L5.26953 7.06379L5.27703 7.04004L6.31073 7.40752L6.63196 8.42872Z" fill="url(#paint6_linear_4219_17430)"/>
<path d="M11.7015 6.98135C11.5478 6.81636 11.319 6.75012 11.1003 6.80511C11.094 6.80511 11.0878 6.80636 11.0815 6.80886L11.0728 6.81261C11.0653 6.81386 11.0578 6.81761 11.0428 6.82261L9.53037 7.36009C9.29913 7.32259 8.60292 7.21384 8.23919 7.22634C8.10295 7.23134 7.70672 7.27634 7.69047 7.27884C7.67797 7.28009 7.66547 7.28634 7.65547 7.29509L7.23299 7.68632C7.1505 7.75381 7.1305 7.86006 7.18424 7.9338C7.21924 7.98255 7.26799 8.0488 7.9517 7.69757C8.0092 7.66882 8.07795 7.66757 8.13669 7.69632L9.15289 8.19254C9.30038 8.26504 9.45912 8.30129 9.61912 8.30129C9.68286 8.30129 9.74786 8.29629 9.81286 8.28504L11.294 8.0113C11.3503 8.00755 11.404 7.9963 11.4515 7.98005C11.459 7.9788 11.4665 7.97505 11.4728 7.9713C11.614 7.91631 11.7253 7.81756 11.7953 7.68382C11.9152 7.45633 11.8765 7.1676 11.7015 6.98135Z" fill="url(#paint7_linear_4219_17430)"/>
<path d="M10.0879 7.27369C10.0879 7.27369 9.29921 7.04371 9.04297 7.28869L9.78293 7.55243C9.78293 7.55243 10.1379 7.71742 10.2467 7.46743C10.2929 7.36244 10.1504 7.29994 10.0879 7.27369Z" fill="#EDA600"/>
<path d="M12.7711 10.9074L12.1836 9.53125L9.64876 10.9074C9.25878 11.1162 9.06004 11.5736 9.26128 12.0649C9.47752 12.5936 10.1537 13.9473 10.1537 13.9473L10.9837 13.7898L10.4337 11.9399L12.7711 10.9074Z" fill="url(#paint8_linear_4219_17430)"/>
<path d="M12.6722 10.1023C12.521 9.81105 12.2247 9.64355 11.9173 9.64355C11.786 9.64355 11.6523 9.6748 11.526 9.7398L10.3711 10.3385L11.1536 11.8472L12.3085 11.2485C12.7247 11.0322 12.8885 10.5198 12.6722 10.1023Z" fill="#04846C"/>
<path d="M13.5098 11.6649L12.8086 9.08008L11.2861 9.6288L12.3523 12.2987L12.3586 12.3112C12.3911 12.3912 12.4386 12.4674 12.5023 12.5336C12.5861 12.6199 12.6873 12.6774 12.7948 12.7111L12.7936 12.7136L12.8198 12.7186C12.8523 12.7274 12.886 12.7336 12.9198 12.7374L15.4634 13.0886L15.7321 12.4399L13.5098 11.6649Z" fill="url(#paint9_linear_4219_17430)"/>
<path d="M13.1828 9.97142C13.2178 9.86768 13.2328 9.75143 13.2378 9.61769C13.264 8.88273 13.109 8.11902 12.7728 7.39406C12.6615 7.14032 12.3828 6.54785 11.7453 6.54785C11.7141 6.54785 11.6816 6.5491 11.6491 6.5516C10.8266 6.62535 10.7116 7.35656 10.8366 7.94403C11.0154 8.78148 11.1366 9.23271 11.1791 10.0189C11.1941 10.2852 11.2891 10.5764 11.4904 10.6914C11.5766 11.0026 11.7728 11.4413 11.9778 11.7351C12.4866 11.5501 12.9903 11.3476 13.484 11.1276C13.3815 10.7651 13.1828 9.97142 13.1828 9.97142Z" fill="url(#paint10_radial_4219_17430)"/>
<path d="M5.50558 7.892C5.74431 7.34078 5.63932 6.94455 5.48808 6.80205C5.23559 6.56332 4.9906 6.54332 4.86811 6.50832C4.81686 6.49957 4.76936 6.49707 4.72312 6.49707C4.25564 6.49707 3.89816 6.8508 3.63942 7.39452C3.29444 8.11573 3.0957 8.99319 3.0957 9.72815C3.0957 10.4056 3.74442 11.3406 3.90941 11.6643C4.40938 11.4581 4.90311 11.2331 5.38808 10.9906C5.33683 10.8556 5.25184 10.6481 5.15559 10.4394C5.19309 10.3444 5.21559 10.2331 5.22434 10.1181C5.27934 9.43317 5.22809 8.63321 5.50558 7.892Z" fill="url(#paint11_radial_4219_17430)"/>
<path d="M9.39163 9.43223C9.36538 9.40473 9.32163 9.39348 9.24914 9.39223C9.26914 9.37848 9.28414 9.36098 9.29539 9.34223C9.31414 9.31098 9.31788 9.27598 9.30539 9.23974C9.27039 9.13349 9.08915 9.15599 8.86166 9.18599C8.77166 9.19724 8.68042 9.20974 8.62917 9.20474C8.58917 9.20724 8.49168 9.20724 8.40543 9.18974C8.40918 9.18849 8.41418 9.18599 8.41793 9.18474C8.51418 9.14224 8.62417 9.09349 8.67042 9.02225C8.71792 8.95225 8.68792 8.9035 8.67292 8.886C8.59417 8.79351 8.32669 8.85601 8.1642 8.931C8.0717 8.97225 7.82546 9.0035 7.73547 8.9985C7.72672 8.99725 7.71672 8.9985 7.70047 8.9985L6.46803 8.58102C6.32304 8.53227 6.2043 8.43103 6.13305 8.29479L5.52558 7.1361C5.52183 7.1286 5.51809 7.1211 5.51684 7.11985L5.51059 7.1086C5.50809 7.1036 5.50434 7.0986 5.49934 7.09485C5.37684 6.90736 5.1631 6.79986 4.93812 6.81486C4.68438 6.83236 4.45939 7.0186 4.39064 7.26734C4.35065 7.41358 4.3669 7.56482 4.43564 7.70357C4.43689 7.70732 4.43814 7.71232 4.44064 7.71607C4.46314 7.75981 4.49439 7.80356 4.52939 7.83981L5.2706 8.99475C5.41059 9.21349 5.62683 9.37348 5.87682 9.44348L7.69922 9.9547C7.70672 9.9572 7.71422 9.9572 7.72172 9.9547C7.80546 9.99095 7.90796 10.0184 8.02545 10.0484L8.09795 10.0672C8.30419 10.1234 8.56542 10.1634 8.78041 10.1634C8.98665 10.1634 9.14789 10.1259 9.17664 10.0309C9.18164 10.0134 9.17789 9.9847 9.16789 9.9697C9.14914 9.9397 9.1129 9.9222 9.0354 9.9072C9.17039 9.89095 9.28039 9.85095 9.29289 9.74971C9.29539 9.72596 9.28914 9.70346 9.27289 9.68471C9.26164 9.67096 9.24664 9.66096 9.22539 9.65346C9.32288 9.62722 9.39538 9.58222 9.40913 9.50222C9.41663 9.47597 9.40913 9.45097 9.39163 9.43223Z" fill="url(#paint12_linear_4219_17430)"/>
<path d="M12.1686 7.38955C12.1549 7.22581 12.0786 7.07706 11.9524 6.97082C11.8274 6.86457 11.6687 6.81458 11.5049 6.82708C11.3174 6.84333 11.1462 6.94582 11.0424 7.10456C11.0387 7.10831 11.0349 7.11331 11.0312 7.11831L11.0274 7.12581C11.0237 7.13206 11.0199 7.13956 11.0112 7.15706L10.2987 8.51574L8.84006 9.00946C8.82881 9.00821 8.81756 9.00696 8.80882 9.00821C8.71882 9.01446 8.47133 8.98321 8.37884 8.94197C8.2151 8.86697 7.94886 8.80322 7.86886 8.89572C7.85387 8.91447 7.82512 8.96196 7.87136 9.03321C7.91886 9.10446 8.02886 9.1532 8.1251 9.1957C8.12885 9.19695 8.1326 9.19945 8.13635 9.2007C8.0501 9.2182 7.95136 9.2182 7.90261 9.2157C7.86261 9.2207 7.77012 9.20945 7.68137 9.19695C7.45264 9.1682 7.27265 9.14445 7.2364 9.25195C7.22515 9.28695 7.2289 9.32195 7.24765 9.35319C7.2589 9.37194 7.2739 9.38819 7.29389 9.40319C7.2689 9.40319 7.24765 9.40444 7.23015 9.40694C7.1939 9.41319 7.1689 9.42319 7.1514 9.44194C7.1339 9.46069 7.1264 9.48569 7.1314 9.51068V9.51193C7.14515 9.59068 7.21765 9.63568 7.31264 9.66193C7.31264 9.66193 7.31389 9.66318 7.31514 9.66318C7.30639 9.66693 7.29764 9.67068 7.29015 9.67443C7.28015 9.68193 7.27265 9.68818 7.26515 9.69568C7.25015 9.71442 7.24265 9.73817 7.24515 9.76067C7.2589 9.85817 7.35764 9.89816 7.48513 9.91566C7.49138 9.91691 7.49763 9.91691 7.50388 9.91816C7.49263 9.92066 7.48139 9.92316 7.47139 9.92566C7.41639 9.93941 7.38764 9.95566 7.37139 9.98191C7.36139 9.99691 7.35764 10.0257 7.36264 10.0419C7.39139 10.1382 7.55388 10.1757 7.76012 10.1757C7.97511 10.1757 8.2351 10.1357 8.44133 10.0794L8.51383 10.0607C8.62882 10.0307 8.73007 10.0044 8.81381 9.96816C8.82256 9.96941 8.83131 9.96941 8.84006 9.96691L10.7387 9.39569C10.75 9.39319 10.76 9.39069 10.7737 9.38569L10.8187 9.37194C10.8225 9.37069 10.8275 9.36819 10.8312 9.36569C10.835 9.36444 10.8412 9.36194 10.8425 9.36194C10.9437 9.31695 11.0287 9.2357 11.0762 9.1407L12.0036 7.86077C12.0449 7.81577 12.0761 7.77203 12.1011 7.72578C12.1036 7.71953 12.1061 7.71453 12.1074 7.70828C12.1561 7.60704 12.1774 7.49829 12.1686 7.38955Z" fill="url(#paint13_linear_4219_17430)"/>
<path d="M7.92946 9.45832C7.92946 9.47582 7.91571 9.48957 7.89821 9.49082C7.89821 9.49082 7.42573 9.46082 7.22949 9.40707C7.24699 9.40457 7.26824 9.40332 7.29324 9.40332C7.48323 9.43207 7.71947 9.42957 7.89821 9.42832C7.91446 9.42707 7.92946 9.44082 7.92946 9.45832Z" fill="#EDA600"/>
<path d="M7.29004 9.67461C7.48628 9.71961 7.71877 9.73711 7.91751 9.74585C7.91751 9.74585 7.91876 9.74585 7.92001 9.74585C7.93751 9.74585 7.95 9.73086 7.95 9.71336C7.94875 9.69586 7.93501 9.68336 7.91751 9.68336C7.72877 9.69086 7.50628 9.68836 7.31504 9.66336C7.31379 9.66336 7.31254 9.66211 7.31254 9.66211L7.29004 9.67461Z" fill="#EDA600"/>
<path d="M7.98068 9.94481C7.98318 9.96106 7.97068 9.97731 7.95318 9.97981H7.94943C7.80444 9.98231 7.6132 9.96106 7.4707 9.92606C7.4807 9.92356 7.49195 9.92106 7.5032 9.91856C7.64444 9.93231 7.81694 9.93481 7.94443 9.91731C7.96193 9.91481 7.97818 9.92731 7.98068 9.94481Z" fill="#EDA600"/>
<path d="M6.6377 13.1103L6.80144 13.9765H7.66639L7.71514 13.0078L6.6377 13.1103Z" fill="#E0E0E0"/>
<path d="M8.45334 14.0494L7.65588 13.7845L6.77092 13.7832C6.77092 13.7832 6.52594 14.0582 6.52469 14.2994L6.52344 14.6557C6.52344 14.7357 6.58843 14.8019 6.66843 14.8019L8.64708 14.8081C8.71707 14.8081 8.77457 14.7507 8.77457 14.6807V14.5194C8.77332 14.3119 8.64583 14.1257 8.45334 14.0494Z" fill="#FB8C00"/>
<path d="M10.8345 13.0869L9.74707 13.3232L10.1595 14.0581L11.0832 13.9744L10.8345 13.0869Z" fill="#E0E0E0"/>
<path d="M11.2792 14.3053C11.2804 14.064 11.0342 13.7891 11.0342 13.7891L10.148 13.7903L9.35053 14.0553C9.15804 14.1315 9.03055 14.3178 9.0293 14.5253V14.6865C9.0293 14.7565 9.08554 14.814 9.15679 14.814L11.1354 14.8078C11.2154 14.8078 11.2804 14.7415 11.2804 14.6615L11.2792 14.3053Z" fill="url(#paint14_radial_4219_17430)"/>
<path d="M3.09014 12.1299L2.1377 12.6486L2.45518 13.6436L3.52762 13.2198L3.09014 12.1299Z" fill="#E0E0E0"/>
<path d="M2.47048 12.4994C2.47048 12.4994 2.40673 12.4932 2.31549 12.4932C2.20924 12.4932 2.0655 12.5019 1.94301 12.5407L1.60302 12.6469C1.52678 12.6707 1.48303 12.7532 1.50803 12.8294L2.09925 14.718C2.11675 14.7718 2.16674 14.8068 2.22049 14.8068C2.23299 14.8068 2.24674 14.8043 2.25924 14.8005L2.41173 14.7518C2.60922 14.688 2.74796 14.5106 2.76296 14.3031L2.77546 13.4631L2.47048 12.4994Z" fill="#FB8C00"/>
<path d="M14.849 12.0137L14.4365 13.0411L15.5915 13.2849L15.8627 12.4212L14.849 12.0137Z" fill="#E0E0E0"/>
<path d="M16.4742 12.3405L16.1342 12.2343C16.0117 12.1943 15.868 12.1855 15.7617 12.1855C15.6705 12.1855 15.6055 12.1918 15.6055 12.1918L15.3018 13.1567L15.3143 13.9967C15.3293 14.2042 15.468 14.3817 15.6655 14.4454L15.818 14.4942C15.8305 14.4979 15.8442 14.5004 15.8567 14.5004C15.9105 14.5004 15.9605 14.4654 15.978 14.4117L16.5692 12.523C16.5929 12.4468 16.5504 12.3643 16.4742 12.3405Z" fill="url(#paint15_radial_4219_17430)"/>
<defs>
<linearGradient id="paint0_linear_4219_17430" x1="4.2334" y1="11.583" x2="7.65072" y2="11.583" gradientUnits="userSpaceOnUse">
<stop stop-color="#FFB300"/>
<stop offset="1" stop-color="#FFCA28"/>
</linearGradient>
<linearGradient id="paint1_linear_4219_17430" x1="2.30273" y1="11.6805" x2="5.50891" y2="11.6805" gradientUnits="userSpaceOnUse">
<stop stop-color="#FFB300"/>
<stop offset="1" stop-color="#FFCA28"/>
</linearGradient>
<radialGradient id="paint2_radial_4219_17430" cx="0" cy="0" r="1" gradientUnits="userSpaceOnUse" gradientTransform="translate(10.6608 4.89562) rotate(-3.88191) scale(2.04647 2.01837)">
<stop offset="0.5264" stop-color="#6D4C41" stop-opacity="0"/>
<stop offset="1" stop-color="#6D4C41"/>
</radialGradient>
<radialGradient id="paint3_radial_4219_17430" cx="0" cy="0" r="1" gradientUnits="userSpaceOnUse" gradientTransform="translate(5.78502 4.92734) rotate(-173.183) scale(2.04642 2.01839)">
<stop offset="0.5264" stop-color="#6D4C41" stop-opacity="0"/>
<stop offset="1" stop-color="#6D4C41"/>
</radialGradient>
<linearGradient id="paint4_linear_4219_17430" x1="4.93848" y1="7.75" x2="9.58882" y2="7.75" gradientUnits="userSpaceOnUse">
<stop offset="0.5993" stop-color="#FFCA28"/>
<stop offset="1" stop-color="#FFB300"/>
</linearGradient>
<linearGradient id="paint5_linear_4219_17430" x1="8.06456" y1="8.06898" x2="8.30873" y2="7.82481" gradientUnits="userSpaceOnUse">
<stop stop-color="#FFCA28" stop-opacity="0"/>
<stop offset="1" stop-color="#FFB300"/>
</linearGradient>
<linearGradient id="paint6_linear_4219_17430" x1="6.48794" y1="7.53253" x2="5.84263" y2="7.7767" gradientUnits="userSpaceOnUse">
<stop stop-color="#FFCA28" stop-opacity="0"/>
<stop offset="1" stop-color="#FFB300"/>
</linearGradient>
<linearGradient id="paint7_linear_4219_17430" x1="11.8225" y1="7.54371" x2="7.49492" y2="7.54371" gradientUnits="userSpaceOnUse">
<stop stop-color="#FFB300"/>
<stop offset="0.5993" stop-color="#FFCA28"/>
<stop offset="1" stop-color="#FFB300"/>
</linearGradient>
<linearGradient id="paint8_linear_4219_17430" x1="9.18164" y1="11.7393" x2="12.7711" y2="11.7393" gradientUnits="userSpaceOnUse">
<stop stop-color="#FFB300"/>
<stop offset="1" stop-color="#FFCA28"/>
</linearGradient>
<linearGradient id="paint9_linear_4219_17430" x1="14.4625" y1="12.7046" x2="12.2039" y2="10.3326" gradientUnits="userSpaceOnUse">
<stop stop-color="#FFB300"/>
<stop offset="1" stop-color="#FFCA28"/>
</linearGradient>
<radialGradient id="paint10_radial_4219_17430" cx="0" cy="0" r="1" gradientUnits="userSpaceOnUse" gradientTransform="translate(12.3152 8.15102) scale(2.0659)">
<stop stop-color="#00BFA5"/>
<stop offset="0.7047" stop-color="#00B29A"/>
<stop offset="1" stop-color="#00AB94"/>
</radialGradient>
<radialGradient id="paint11_radial_4219_17430" cx="0" cy="0" r="1" gradientUnits="userSpaceOnUse" gradientTransform="translate(4.11477 8.28368) scale(2.03737)">
<stop offset="0.1712" stop-color="#FB8C00"/>
<stop offset="0.5625" stop-color="#F67F00"/>
<stop offset="0.9831" stop-color="#EF6C00"/>
</radialGradient>
<linearGradient id="paint12_linear_4219_17430" x1="4.96051" y1="6.65572" x2="7.46038" y2="9.30674" gradientUnits="userSpaceOnUse">
<stop offset="0.5993" stop-color="#FFCA28"/>
<stop offset="1" stop-color="#FFB300"/>
</linearGradient>
<linearGradient id="paint13_linear_4219_17430" x1="8.65625" y1="9.60079" x2="11.5047" y2="7.40342" gradientUnits="userSpaceOnUse">
<stop offset="0.5993" stop-color="#FFCA28"/>
<stop offset="1" stop-color="#FFB300"/>
</linearGradient>
<radialGradient id="paint14_radial_4219_17430" cx="0" cy="0" r="1" gradientUnits="userSpaceOnUse" gradientTransform="translate(10.1549 14.3015) scale(0.874504)">
<stop stop-color="#00AB94"/>
<stop offset="1" stop-color="#00AB94"/>
</radialGradient>
<radialGradient id="paint15_radial_4219_17430" cx="0" cy="0" r="1" gradientUnits="userSpaceOnUse" gradientTransform="translate(15.9388 13.343) scale(0.934201)">
<stop stop-color="#00AB94"/>
<stop offset="1" stop-color="#00AB94"/>
</radialGradient>
</defs>
</svg>
