<svg width="18" height="18" viewBox="0 0 18 18" fill="none" xmlns="http://www.w3.org/2000/svg">
<path d="M10.6621 9.11976L11.867 8.94727C11.867 8.94727 12.0583 11.4396 12.2033 11.7334C12.3483 12.0271 13.9269 13.8345 13.9269 13.8345L13.5945 14.5545L11.4521 12.5258C11.2221 12.3083 11.0733 12.0196 11.0283 11.7059L10.6621 9.11976Z" fill="url(#paint0_linear_4219_17451)"/>
<path d="M7.27948 9.11976L6.07454 8.94727C6.07454 8.94727 5.8833 11.4396 5.73831 11.7334C5.59331 12.0284 4.01465 13.8345 4.01465 13.8345L4.34713 14.5545L6.48827 12.5258C6.71826 12.3083 6.867 12.0196 6.912 11.7059L7.27948 9.11976Z" fill="url(#paint1_linear_4219_17451)"/>
<path d="M12.0721 9.68974L11.9684 8.50981C11.9546 8.34856 11.6659 7.03613 9.02855 7.03613C6.39119 7.03613 6.0487 8.32106 6.03246 8.50855L5.92871 9.68849L7.07115 9.78974V13.2708H10.9684V9.78724L12.0721 9.68974Z" fill="url(#paint2_linear_4219_17451)"/>
<path d="M11.9166 14.9588C11.0841 15.1026 10.3629 15.3213 9.55171 15.5625C9.18673 15.6713 8.803 15.7838 8.38177 15.8963C7.56181 16.115 6.59936 16.3338 5.35693 16.5162C4.62072 16.625 3.84826 16.5162 3.45703 16.275C3.1658 16.095 2.90956 15.7388 3.0108 15.4363C3.12205 15.1013 3.45453 14.7288 3.92326 14.5051C4.117 14.4126 4.32698 14.3251 4.54322 14.2451C5.08194 14.0439 5.65441 13.8801 6.08314 13.7676C6.49187 13.6614 6.77185 13.6026 6.77185 13.6026C7.28433 13.4902 7.7568 13.4877 8.13178 13.6489C8.78425 13.9276 12.1453 14.9201 11.9166 14.9588Z" fill="url(#paint3_linear_4219_17451)"/>
<path d="M5.27623 14.0178L4.66751 14.609L4.13879 14.9715C4.12629 14.9815 4.11004 14.9865 4.09379 14.9853L3.96005 14.9728C3.8838 15.014 3.80005 15.0365 3.71506 15.0365C3.67631 15.0365 3.63506 15.0315 3.59632 15.024C3.50757 15.004 3.42757 14.9615 3.36133 14.9003C3.50632 14.7578 3.68506 14.6303 3.89005 14.5303C4.30128 14.3303 4.7875 14.1516 5.24123 14.0078L5.27623 14.0178Z" fill="url(#paint4_linear_4219_17451)"/>
<path d="M14.5308 16.275C14.1396 16.5163 13.3696 16.615 12.6309 16.5163C11.2222 16.3288 9.48733 15.7563 8.24365 15.1501C7.53743 14.8064 6.92497 14.3951 6.57124 14.1914C6.3225 14.0477 6.12501 13.9677 5.81253 14.0014C5.69003 14.0152 5.65003 14.0239 5.56379 14.0202C5.3888 14.0127 5.54379 13.7339 5.54379 13.7339C5.62879 13.5364 5.91252 13.3102 6.19126 13.4102C6.46999 13.5102 6.80497 13.7114 6.80497 13.7114C7.44119 13.9089 7.46994 13.5139 7.84242 13.6452C8.02866 13.7102 8.07116 13.9327 8.07616 14.0577C8.08241 14.1927 8.2874 14.3177 8.42239 14.3364L9.29609 14.4401L9.41609 14.4539L9.72857 14.4914L10.6785 13.8164L10.8098 13.7227L11.1535 13.4789C11.1535 13.4789 11.2472 13.5102 11.4047 13.5652C11.4535 13.5814 11.5085 13.6014 11.5697 13.6227C11.8272 13.7127 12.1797 13.8377 12.5572 13.9777C12.5997 13.9939 12.6434 14.0102 12.6872 14.0264C13.1759 14.2102 13.6934 14.4151 14.0908 14.5989C14.5621 14.8164 14.8658 15.1014 14.9783 15.4363C15.0783 15.7388 14.8221 16.0951 14.5308 16.275Z" fill="url(#paint5_linear_4219_17451)"/>
<path d="M10.9835 13.3281L10.9647 12.8994C10.9647 12.8994 10.451 13.1344 9.05231 13.1344C7.65363 13.1344 7.06866 12.8994 7.06866 12.8994V13.3281L6.14746 13.8781L9.01231 15.1843L12.0359 13.8669L10.9835 13.3281Z" fill="#7C7C7C"/>
<path d="M9.55243 15.5635C9.18745 15.6722 8.80372 15.7847 8.38249 15.8972C8.21375 15.8222 8.05126 15.7459 7.89377 15.6697C7.2788 15.3685 6.71508 15.0247 6.3051 14.7735L6.27385 14.756C6.11636 14.6585 5.98012 14.5748 5.86638 14.5085C5.63764 14.376 5.54639 14.3535 5.4264 14.3535C5.39515 14.3535 5.3639 14.356 5.33015 14.361L5.24141 14.3698C5.17766 14.3773 5.10392 14.3873 5.01142 14.3873C4.98767 14.3873 4.96517 14.386 4.93892 14.3848C4.79018 14.3785 4.65394 14.331 4.54395 14.246C5.08267 14.0448 5.65514 13.881 6.08386 13.7686C6.13636 13.7936 6.18886 13.8236 6.24386 13.8548C6.35885 13.9223 6.50134 14.0085 6.66133 14.1073C7.06756 14.356 7.62253 14.6973 8.225 14.991C8.62123 15.1847 9.05746 15.3735 9.51993 15.551L9.55243 15.5635Z" fill="url(#paint6_linear_4219_17451)"/>
<path d="M5.04395 15.1231C5.05394 14.9956 5.13269 14.8831 5.22644 14.8044C5.32018 14.7219 5.43017 14.6657 5.54642 14.6232C5.60267 14.6032 5.67141 14.5869 5.72766 14.5807L5.9014 14.5569C6.01764 14.5432 6.13389 14.5282 6.25013 14.5169C6.48262 14.4919 6.71636 14.4782 6.95009 14.4707C7.18383 14.4632 7.41757 14.4632 7.65381 14.4794C7.68881 14.4819 7.71505 14.5119 7.71255 14.5469C7.71005 14.5807 7.68256 14.6069 7.64881 14.6057H7.64631C7.41757 14.6019 7.18508 14.6094 6.95509 14.6182C6.72386 14.6282 6.49387 14.6457 6.26388 14.6632C6.14889 14.6732 6.03389 14.6844 5.9189 14.6969L5.74641 14.7181C5.68641 14.7244 5.64141 14.7319 5.58642 14.7469C5.48267 14.7769 5.38018 14.8244 5.29018 14.8844C5.20019 14.9456 5.12394 15.0256 5.09019 15.1294V15.1306C5.08644 15.1431 5.07269 15.1494 5.06019 15.1456C5.0502 15.1431 5.04395 15.1331 5.04395 15.1231Z" fill="#BA8F63"/>
<path d="M14.5308 16.275C14.1396 16.5163 13.3696 16.615 12.6309 16.5163C11.5972 16.3788 10.3885 16.0338 9.32609 15.6201C8.94111 15.4701 8.57488 15.3113 8.24365 15.1501C7.53743 14.8064 6.92497 14.3951 6.57124 14.1914C6.3225 14.0477 6.12501 13.9677 5.81253 14.0014C5.69003 14.0152 5.65003 14.0239 5.56379 14.0202C5.3888 14.0127 5.54379 13.7339 5.54379 13.7339C5.62879 13.5364 5.91252 13.3102 6.19126 13.4102C6.46999 13.5102 6.80497 13.7114 6.80497 13.7114C7.44119 13.9089 7.46994 13.5139 7.84242 13.6452C8.02866 13.7102 8.07116 13.9327 8.07616 14.0577C8.08241 14.1927 8.2874 14.3177 8.42239 14.3364C8.42239 14.3364 8.77862 14.4001 9.1661 14.4514H9.16735L9.2311 14.4589C9.25859 14.4626 9.28609 14.4664 9.31359 14.4689C9.40609 14.4801 9.49733 14.4889 9.58358 14.4964L9.60733 14.4989H9.61358C9.61483 14.5001 9.61608 14.5001 9.61733 14.4989C9.61733 14.4989 9.61732 14.4989 9.61857 14.4989C9.71232 14.5064 9.79982 14.5101 9.87481 14.5101C9.99356 14.5101 10.1085 14.5064 10.221 14.4989C10.6085 14.4751 10.966 14.4164 11.3122 14.3664C11.4097 14.3514 11.506 14.3377 11.6022 14.3252C11.6035 14.3252 11.6035 14.3252 11.6035 14.3252C11.9472 14.2814 12.2847 14.2577 12.6372 14.2977C13.3021 14.3739 14.1183 14.6001 14.9108 15.2851C14.937 15.3338 14.9608 15.3851 14.9783 15.4363C15.0783 15.7388 14.8221 16.0951 14.5308 16.275Z" fill="url(#paint7_linear_4219_17451)"/>
<path d="M12.9028 14.5567C12.6816 14.4767 12.0404 14.3905 11.6704 14.3467C11.6704 14.3467 11.9679 14.1655 12.4416 14.2205C12.7366 14.2555 12.4516 13.7393 12.4516 13.7393C12.4516 13.7393 11.7204 14.138 11.4717 14.2817C11.4604 14.288 11.4354 14.3017 11.4029 14.318C11.3979 14.3205 11.3929 14.323 11.3879 14.3255C11.3642 14.338 11.3379 14.3517 11.3117 14.3667C11.2404 14.403 11.1654 14.4417 11.1279 14.463C11.2117 14.4655 11.2942 14.4692 11.3779 14.473C12.2029 14.5142 13.0041 14.6242 13.3791 14.9429C13.3903 14.9517 13.4091 14.9479 13.4053 14.9354C13.3678 14.8205 13.2153 14.6705 12.9028 14.5567Z" fill="#BA8F63"/>
<path d="M12.4783 14.1101C12.3933 14.1139 12.3533 14.1051 12.2296 14.0901C11.9183 14.0576 11.7208 14.1376 11.4721 14.2813C11.4609 14.2876 11.4359 14.3013 11.4034 14.3176C11.3984 14.3201 11.3934 14.3226 11.3884 14.3251C11.3646 14.3376 11.3384 14.3513 11.3121 14.3663C11.2409 14.4026 11.1659 14.4413 11.1284 14.4626C11.1209 14.4663 11.1134 14.4701 11.1096 14.4726C11.1096 14.4726 10.6497 14.4713 10.4572 14.4888C10.4184 14.4926 10.3822 14.4951 10.3497 14.4976C10.1834 14.5101 10.0809 14.5101 9.8747 14.5101C9.7997 14.5101 9.7122 14.5063 9.61846 14.4988C9.61721 14.4988 9.61721 14.4988 9.61721 14.4988H9.60721L9.58346 14.4963C9.49722 14.4888 9.40597 14.4801 9.31348 14.4688L9.32098 14.4676H9.32223L9.57971 14.4313L9.62096 14.4251C9.70721 14.4138 9.82095 14.3588 9.8947 14.2851C9.89595 14.2838 9.8972 14.2826 9.8972 14.2813C9.9072 14.2726 9.91469 14.2638 9.92219 14.2538C9.94719 14.2214 9.96344 14.1851 9.96594 14.1464C9.96594 14.1401 9.96719 14.1339 9.96844 14.1276C9.97719 14.0001 10.0234 13.7951 10.2009 13.7339C10.5734 13.6039 10.6009 13.9976 11.2371 13.8014C11.2371 13.8014 11.5721 13.6001 11.8508 13.5001C12.1296 13.4001 12.4146 13.6251 12.4983 13.8226C12.4983 13.8226 12.5196 13.8601 12.5371 13.9064C12.5671 13.9889 12.5908 14.1051 12.4783 14.1101Z" fill="url(#paint8_linear_4219_17451)"/>
<path d="M15.549 13.5199C15.549 13.4999 15.539 13.4799 15.5215 13.4687C15.504 13.4574 15.484 13.4537 15.464 13.4612C15.4565 13.4637 15.2953 13.5212 15.2215 13.6774C15.2178 13.6849 15.2153 13.6936 15.2153 13.7024L15.204 14.0061C15.189 14.0274 15.1665 14.0574 15.1415 14.0924L15.099 13.7124L15.109 13.1999C15.109 13.1824 15.1028 13.1649 15.0903 13.1524C15.0778 13.1399 15.059 13.1337 15.0428 13.1349C15.039 13.1349 14.9928 13.1387 14.9365 13.1574C14.9315 13.1574 14.9278 13.1574 14.9228 13.1574C14.919 13.1574 14.9153 13.1587 14.9103 13.1587C14.9015 13.1587 14.894 13.1599 14.8853 13.1612C14.8765 13.1624 14.8665 13.1637 14.8578 13.1662C14.8503 13.1674 14.844 13.1699 14.8365 13.1712C14.8278 13.1737 14.8203 13.1762 14.8115 13.1799C14.8053 13.1824 14.799 13.1849 14.7928 13.1887C14.7853 13.1924 14.779 13.1962 14.7715 13.2012C14.7653 13.2049 14.7603 13.2087 14.754 13.2124C14.7478 13.2174 14.7415 13.2224 14.7365 13.2274C14.7315 13.2324 14.7253 13.2374 14.7203 13.2424C14.7153 13.2474 14.7103 13.2524 14.7053 13.2574C14.7003 13.2637 14.694 13.2699 14.689 13.2762C14.6853 13.2812 14.6815 13.2862 14.6778 13.2899C14.6715 13.2974 14.6653 13.3062 14.6603 13.3137C14.6578 13.3162 14.6565 13.3199 14.654 13.3224C14.5778 13.4337 14.5203 13.5674 14.4053 13.6111C14.3853 13.6186 14.3641 13.6249 14.3416 13.6299C14.1328 13.6736 13.8603 13.5924 13.7028 13.7736L13.7041 13.7761C13.6991 13.7811 13.6928 13.7861 13.6878 13.7924C13.6454 13.8436 13.4766 13.7474 13.4766 13.7474L13.1604 13.9686L13.1241 13.9349L13.0141 13.8311L12.8691 13.8661L13.4829 14.4524L14.0153 14.8111C14.0278 14.8211 14.0441 14.8261 14.0603 14.8236L14.1928 14.8098C14.2691 14.8511 14.3541 14.8723 14.4391 14.8723C14.4791 14.8723 14.5191 14.8673 14.5578 14.8586C14.6615 14.8348 14.754 14.7786 14.8228 14.6973L14.839 14.6786L14.8653 14.6886C14.8715 14.6911 14.8778 14.6923 14.884 14.6936C15.0078 14.7023 15.1528 14.6361 15.239 14.5311L15.5403 14.1524C15.549 14.1411 15.554 14.1261 15.554 14.1124L15.549 13.5199Z" fill="url(#paint9_linear_4219_17451)"/>
<path d="M15.1087 13.157C15.1087 13.157 15.1087 13.1782 15.1087 13.1795L15.1062 13.2619C15.0387 13.2594 14.96 13.2719 14.9075 13.3069C14.8512 13.3407 14.8287 13.3957 14.8287 13.4757L14.8137 13.9632L14.805 14.2081C14.81 14.2519 14.7837 14.3044 14.7562 14.3306L14.68 14.4256L14.375 14.8081L14.6537 14.4069L14.725 14.3056C14.7512 14.2719 14.7612 14.2469 14.7575 14.2069L14.75 13.9619L14.7337 13.4719C14.7312 13.4332 14.7337 13.3782 14.7512 13.3319C14.7675 13.2869 14.8362 13.1457 15.075 13.127C15.0925 13.1282 15.1062 13.1382 15.1087 13.157Z" fill="#BA8F63"/>
<path d="M15.5513 13.4693V13.478L15.55 13.5605C15.505 13.5593 15.4513 13.5705 15.4088 13.593C15.3663 13.6155 15.3338 13.6505 15.3163 13.6955C15.3088 13.718 15.3038 13.7443 15.3013 13.7705L15.2926 13.8618C15.2838 13.923 15.2763 13.9805 15.2551 14.0468L15.2538 14.0518L15.2501 14.0568L15.1763 14.1443L14.8926 14.588L15.1288 14.113L15.1301 14.1105L15.1913 14.0218C15.2013 13.9718 15.2051 13.9118 15.2076 13.8543V13.7668C15.2088 13.733 15.2126 13.698 15.2213 13.6643C15.2413 13.5943 15.2913 13.5318 15.3513 13.4943C15.4001 13.4668 15.4488 13.4468 15.5025 13.438C15.5063 13.4368 15.5113 13.4355 15.5163 13.4355H15.5175C15.535 13.4368 15.5488 13.4505 15.5513 13.4693Z" fill="#BA8F63"/>
<path d="M13.6504 14.1167C13.6504 14.1167 14.1166 13.658 14.7428 13.7068C14.7428 13.7068 14.4778 13.6943 14.5241 14.1542C14.5241 14.1542 14.3391 13.968 14.0804 14.453C14.0791 14.4542 13.9304 14.058 13.6504 14.1167Z" fill="url(#paint10_linear_4219_17451)"/>
<path d="M14.7628 13.7934C14.7253 13.7859 14.6753 13.7909 14.644 13.8096C14.6115 13.8284 14.5915 13.8646 14.584 13.9121C14.5765 13.9609 14.574 14.0208 14.569 14.0746L14.5628 14.1571C14.559 14.1846 14.5615 14.2108 14.5528 14.2471C14.5428 14.2821 14.519 14.3083 14.5028 14.3271L14.4503 14.3921L14.3441 14.5208L14.1328 14.7796L14.3191 14.5021L14.4128 14.3633L14.459 14.2933C14.4753 14.2683 14.489 14.2508 14.4915 14.2308C14.4953 14.2133 14.4915 14.1833 14.4915 14.1546L14.4903 14.0708C14.4903 14.0133 14.4865 13.9609 14.489 13.8996C14.4915 13.8371 14.519 13.7621 14.5803 13.7171C14.6428 13.6734 14.709 13.6621 14.7815 13.6671L14.7628 13.7934Z" fill="#BA8F63"/>
<path d="M14.4939 14.2169C14.4652 14.2032 14.4202 14.1944 14.3864 14.2019C14.3502 14.2069 14.3177 14.2294 14.2914 14.2607L14.1014 14.4957L14.0564 14.5519L14.0339 14.4844C13.9889 14.3469 13.8927 14.2107 13.754 14.1494C13.614 14.0857 13.4465 14.1107 13.3027 14.1719C13.4415 14.1007 13.609 14.0582 13.7677 14.1144C13.8452 14.1419 13.9152 14.1907 13.9714 14.2507C14.0277 14.3119 14.0727 14.3807 14.1052 14.4607L14.0377 14.4494L14.2089 14.1994C14.2427 14.1519 14.2952 14.1069 14.3589 14.0919C14.4227 14.0757 14.4827 14.0794 14.5464 14.1032L14.4939 14.2169Z" fill="#BA8F63"/>
<path d="M2.45031 13.473C2.45031 13.453 2.46031 13.433 2.47781 13.4218C2.49406 13.4105 2.51531 13.4068 2.53531 13.4143C2.54281 13.4168 2.70405 13.4743 2.77779 13.6305C2.78154 13.638 2.78404 13.6468 2.78404 13.6555L2.79529 13.9593C2.81029 13.9805 2.83279 14.0105 2.85779 14.0455L2.90029 13.6655L2.89029 13.153C2.89029 13.1355 2.89654 13.118 2.91029 13.1055C2.92279 13.093 2.94154 13.0868 2.95779 13.088C2.96154 13.088 3.00778 13.0918 3.06403 13.1105C3.06903 13.1105 3.07278 13.1105 3.07778 13.1105C3.08153 13.1105 3.08528 13.1118 3.09028 13.1118C3.09903 13.1118 3.10653 13.113 3.11528 13.1143C3.12528 13.1155 3.13403 13.1168 3.14278 13.1193C3.15028 13.1205 3.15652 13.123 3.16402 13.1243C3.17277 13.1268 3.18027 13.1293 3.18902 13.133C3.19527 13.1355 3.20152 13.138 3.20777 13.1418C3.21527 13.1455 3.22152 13.1493 3.22902 13.1543C3.23527 13.158 3.24027 13.1618 3.24652 13.1655C3.25277 13.1705 3.25902 13.1755 3.26527 13.1805C3.27152 13.1855 3.27652 13.1905 3.28152 13.1955C3.28652 13.2005 3.29152 13.2055 3.29652 13.2105C3.30277 13.2168 3.30777 13.223 3.31277 13.2293C3.31652 13.2343 3.32027 13.2393 3.32402 13.243C3.33027 13.2505 3.33652 13.2593 3.34152 13.2668C3.34402 13.2693 3.34527 13.273 3.34776 13.2755C3.42401 13.3868 3.48151 13.5205 3.5965 13.5643C3.6165 13.5718 3.63775 13.578 3.66025 13.583C3.86899 13.6268 4.14147 13.5455 4.29896 13.7268L4.29771 13.7293C4.30271 13.7343 4.30896 13.7393 4.31396 13.7455C4.35646 13.7968 4.5252 13.7005 4.5252 13.7005L4.84019 13.9218L4.87518 13.888L4.98518 13.7843L5.13017 13.8193L4.51645 14.4055L3.98398 14.7642C3.97148 14.7742 3.95523 14.7792 3.93898 14.7767L3.80649 14.763C3.73024 14.8042 3.64525 14.8255 3.56025 14.8255C3.52026 14.8255 3.48026 14.8205 3.44151 14.8117C3.33777 14.788 3.24527 14.7317 3.17652 14.6505L3.16027 14.6317L3.13403 14.6417C3.12778 14.6442 3.12153 14.6455 3.11528 14.6467C2.99278 14.6555 2.84654 14.5892 2.7603 14.4842L2.45906 14.1055C2.45031 14.0942 2.44531 14.0792 2.44531 14.0655L2.45031 13.473Z" fill="url(#paint11_linear_4219_17451)"/>
<path d="M2.44922 13.4234V13.4321L2.45047 13.5146C2.49547 13.5134 2.54921 13.5246 2.59171 13.5471C2.63421 13.5696 2.66671 13.6046 2.68421 13.6496C2.69171 13.6721 2.69671 13.6984 2.69921 13.7246L2.70796 13.8159C2.7167 13.8771 2.7242 13.9346 2.74545 14.0009L2.7467 14.0059L2.75045 14.0109L2.8242 14.0984L3.10793 14.5421L2.8717 14.0671L2.87045 14.0646L2.8092 13.9759C2.7992 13.9259 2.79545 13.8659 2.79295 13.8084V13.7209C2.7917 13.6871 2.78795 13.6521 2.7792 13.6184C2.7592 13.5484 2.70921 13.4859 2.64796 13.4484C2.59921 13.4209 2.55046 13.4009 2.49672 13.3921C2.49297 13.3909 2.48797 13.3896 2.48297 13.3896H2.48172C2.46422 13.3909 2.45047 13.4046 2.44922 13.4234Z" fill="#BA8F63"/>
<path d="M4.34928 14.0708C4.34928 14.0708 3.88305 13.6121 3.25684 13.6609C3.25684 13.6609 3.52182 13.6484 3.47557 14.1083C3.47557 14.1083 3.66056 13.9221 3.9193 14.4071C3.9193 14.4083 4.06929 14.0121 4.34928 14.0708Z" fill="url(#paint12_linear_4219_17451)"/>
<path d="M3.23652 13.7455C3.27402 13.738 3.32402 13.743 3.35527 13.7618C3.38776 13.7805 3.40776 13.8168 3.41526 13.8643C3.42276 13.913 3.42526 13.973 3.43026 14.0267L3.43651 14.1092C3.44026 14.1367 3.43776 14.163 3.44651 14.1992C3.45651 14.2342 3.48026 14.2605 3.49651 14.2792L3.54901 14.3442L3.65525 14.473L3.86649 14.7317L3.68025 14.4542L3.5865 14.3155L3.54026 14.2455C3.52401 14.2205 3.51026 14.203 3.50776 14.183C3.50401 14.1655 3.50776 14.1355 3.50776 14.1067L3.50901 14.023C3.50901 13.9655 3.51276 13.913 3.51026 13.8518C3.50776 13.7893 3.48026 13.7143 3.41901 13.6693C3.35652 13.6255 3.29027 13.6143 3.21777 13.6193L3.23652 13.7455Z" fill="#BA8F63"/>
<path d="M3.50394 14.1701C3.53269 14.1563 3.57769 14.1476 3.61144 14.1551C3.64768 14.1601 3.68018 14.1826 3.70643 14.2138L3.89642 14.4488L3.94142 14.505L3.96392 14.4375C4.00892 14.3 4.10516 14.1638 4.2439 14.1026C4.3839 14.0388 4.55139 14.0638 4.69513 14.1251C4.55639 14.0538 4.3889 14.0113 4.23015 14.0676C4.15266 14.0951 4.08266 14.1438 4.02641 14.2038C3.97017 14.265 3.92517 14.3338 3.89142 14.4138L3.95892 14.4025L3.78768 14.1526C3.75393 14.1051 3.70143 14.0601 3.63769 14.0451C3.57394 14.0288 3.51394 14.0326 3.4502 14.0563L3.50394 14.1701Z" fill="#BA8F63"/>
<path d="M2.89062 13.1159C2.89062 13.1159 2.89062 13.1372 2.89062 13.1384L2.89312 13.2209C2.96062 13.2184 3.03937 13.2309 3.09186 13.2659C3.14811 13.2997 3.17061 13.3547 3.17061 13.4347L3.18561 13.9221L3.19436 14.1671C3.18936 14.2109 3.21561 14.2634 3.24311 14.2896L3.31935 14.3846L3.62434 14.7671L3.3456 14.3659L3.27435 14.2646C3.24811 14.2309 3.23811 14.2059 3.24186 14.1659L3.24936 13.9209L3.26561 13.4309C3.26811 13.3922 3.26561 13.3372 3.24811 13.2909C3.23186 13.2459 3.16311 13.1047 2.92437 13.0859C2.90687 13.0872 2.89312 13.0984 2.89062 13.1159Z" fill="#BA8F63"/>
<path d="M8.99954 6.58691H8.40332V7.21813C8.40332 7.50312 8.64581 7.7356 8.94454 7.7356H9.05329C9.35202 7.7356 9.59451 7.50437 9.59451 7.21813V6.58691H8.99954Z" fill="#C48E6A"/>
<path d="M10.6378 4.22363H10.1954H7.80174H7.35926C7.00553 4.22363 6.7168 4.53237 6.7168 4.9086C6.7168 5.28483 7.00553 5.59356 7.35926 5.59356H7.80174H10.1966H10.6391C10.9928 5.59356 11.2816 5.28483 11.2816 4.9086C11.2816 4.53237 10.9916 4.22363 10.6378 4.22363Z" fill="#C48E6A"/>
<path d="M8.99943 1.8623C7.95573 1.8623 6.98828 2.9785 6.98828 4.58591C6.98828 6.18333 7.98448 6.97328 8.99943 6.97328C10.0144 6.97328 11.0106 6.18333 11.0106 4.58591C11.0106 2.9785 10.0431 1.8623 8.99943 1.8623Z" fill="#E0BB95"/>
<path d="M8.467 4.24483C8.40825 4.15609 8.27451 4.02734 8.01327 4.02734C7.75203 4.02734 7.61704 4.15609 7.55954 4.24483C7.53329 4.28358 7.53954 4.32983 7.55829 4.35733C7.57454 4.38233 7.62329 4.40607 7.67704 4.38607C7.73078 4.36608 7.83703 4.30233 8.01327 4.30108C8.18951 4.30233 8.29575 4.36483 8.3495 4.38607C8.40325 4.40732 8.452 4.38358 8.46824 4.35733C8.48699 4.32983 8.49324 4.28358 8.467 4.24483Z" fill="#AB872F"/>
<path d="M10.4397 4.24483C10.3809 4.15609 10.2472 4.02734 9.98593 4.02734C9.72469 4.02734 9.5897 4.15609 9.5322 4.24483C9.50595 4.28358 9.5122 4.32983 9.53095 4.35733C9.5472 4.38233 9.59595 4.40607 9.64969 4.38607C9.70344 4.36608 9.80968 4.30233 9.98593 4.30108C10.1622 4.30233 10.2672 4.36483 10.3222 4.38607C10.3772 4.40732 10.4247 4.38358 10.4409 4.35733C10.4596 4.32983 10.4646 4.28358 10.4397 4.24483Z" fill="#AB872F"/>
<path d="M9.23036 5.28137C9.22411 5.27887 9.21786 5.27762 9.21161 5.27637H8.78664C8.78039 5.27762 8.77414 5.27887 8.76789 5.28137C8.72914 5.29637 8.70789 5.33636 8.72664 5.37886C8.74539 5.42136 8.82914 5.5401 8.99913 5.5401C9.16912 5.5401 9.25411 5.42136 9.27161 5.37886C9.29036 5.33636 9.26911 5.29637 9.23036 5.28137Z" fill="#C48E6A"/>
<path d="M9.49863 5.76599C9.30989 5.87848 8.69118 5.87848 8.50244 5.76599C8.39369 5.70099 8.2837 5.79974 8.3287 5.89848C8.37244 5.99598 8.71118 6.21971 9.00241 6.21971C9.2949 6.21971 9.62738 5.99473 9.67238 5.89848C9.71612 5.79974 9.60738 5.70099 9.49863 5.76599Z" fill="#6D4C41"/>
<path d="M8.02073 4.81629C7.89699 4.81629 7.78699 4.78629 7.7095 4.7388C7.677 4.7188 7.657 4.73005 7.66325 4.7688C7.68575 4.91754 7.83699 5.03253 8.02073 5.03253C8.20447 5.03253 8.35571 4.91754 8.37821 4.7688C8.38446 4.73005 8.36446 4.71755 8.33196 4.7388C8.25572 4.78629 8.14447 4.81629 8.02073 4.81629Z" fill="#5D4037"/>
<path d="M9.97776 4.81629C9.85402 4.81629 9.74402 4.78629 9.66653 4.7388C9.63403 4.7188 9.61403 4.73005 9.62028 4.7688C9.64278 4.91754 9.79402 5.03253 9.97776 5.03253C10.1615 5.03253 10.3127 4.91754 10.3352 4.7688C10.3415 4.73005 10.3215 4.71755 10.289 4.7388C10.2115 4.78629 10.1003 4.81629 9.97776 4.81629Z" fill="#5D4037"/>
<path d="M9.00132 1.44043C9.00007 1.44043 9.00132 1.44043 9.00132 1.44043C9.00007 1.44043 9.00007 1.44043 8.99882 1.44043C6.28271 1.45543 6.84018 4.55652 6.84018 4.55652C6.84018 4.55652 6.96143 4.8765 7.01768 5.01774C7.02517 5.03774 7.05517 5.03649 7.06017 5.01399C7.11767 4.754 7.32641 3.8353 7.43265 3.55532C7.49515 3.39033 7.66514 3.29408 7.83888 3.32658C8.10512 3.37533 8.52885 3.43407 8.99632 3.43407C8.99757 3.43407 9.00007 3.43407 9.00132 3.43407C9.00257 3.43407 9.00507 3.43407 9.00632 3.43407C9.4738 3.43407 9.89752 3.37408 10.1638 3.32658C10.3375 3.29533 10.5075 3.39033 10.57 3.55532C10.675 3.83405 10.8825 4.74776 10.9412 5.01149C10.9462 5.03274 10.9762 5.03524 10.9837 5.01399L11.1625 4.55527C11.1612 4.55652 11.7174 1.45543 9.00132 1.44043Z" fill="#AB872F"/>
<path d="M11.1611 4.55652C11.1611 4.55652 11.7173 1.45418 9.00123 1.44043C9.00123 1.44043 9.00123 1.44043 8.99998 1.44043H8.99873C8.95623 1.44043 8.91498 1.44168 8.87499 1.44293C8.79374 1.44668 8.71625 1.45293 8.64125 1.46168C8.64 1.46168 8.64 1.46168 8.63875 1.46168C8.63375 1.46293 8.62875 1.46293 8.6225 1.46418C6.33637 1.75166 6.83884 4.55652 6.83884 4.55652L7.01633 5.01524C7.02383 5.03524 7.05383 5.03399 7.05883 5.01274C7.11758 4.75025 7.32507 3.8353 7.43006 3.55657C7.49256 3.39158 7.66255 3.29658 7.83629 3.32783C8.10253 3.37658 8.52626 3.43532 8.99373 3.43532C8.99498 3.43532 8.99748 3.43532 8.99873 3.43532C8.99998 3.43532 9.00248 3.43532 9.00373 3.43532C9.4712 3.43532 9.89493 3.37533 10.1612 3.32783C10.3349 3.29658 10.5049 3.39158 10.5674 3.55657C10.6724 3.83655 10.8811 4.75775 10.9386 5.01649C10.9436 5.03774 10.9724 5.04024 10.9799 5.02024C11.0374 4.87775 11.1611 4.55652 11.1611 4.55652Z" fill="url(#paint13_radial_4219_17451)"/>
<defs>
<linearGradient id="paint0_linear_4219_17451" x1="12.294" y1="8.94802" x2="12.294" y2="14.5555" gradientUnits="userSpaceOnUse">
<stop stop-color="#CCA47A"/>
<stop offset="0.5" stop-color="#E0BB95"/>
</linearGradient>
<linearGradient id="paint1_linear_4219_17451" x1="5.64812" y1="8.94802" x2="5.64812" y2="14.5555" gradientUnits="userSpaceOnUse">
<stop stop-color="#CCA47A"/>
<stop offset="0.5" stop-color="#E0BB95"/>
</linearGradient>
<linearGradient id="paint2_linear_4219_17451" x1="8.99986" y1="7.00803" x2="8.99986" y2="13.0642" gradientUnits="userSpaceOnUse">
<stop stop-color="#00BFA5"/>
<stop offset="0.7047" stop-color="#00B29A"/>
<stop offset="1" stop-color="#00AB94"/>
</linearGradient>
<linearGradient id="paint3_linear_4219_17451" x1="7.45801" y1="16.1764" x2="7.45801" y2="13.1404" gradientUnits="userSpaceOnUse">
<stop stop-color="#CCA47A"/>
<stop offset="0.3773" stop-color="#E0BB95"/>
</linearGradient>
<linearGradient id="paint4_linear_4219_17451" x1="4.30645" y1="14.4454" x2="4.93443" y2="15.2204" gradientUnits="userSpaceOnUse">
<stop stop-color="#CCA47A"/>
<stop offset="0.5" stop-color="#E0BB95" stop-opacity="0"/>
</linearGradient>
<linearGradient id="paint5_linear_4219_17451" x1="5.48047" y1="14.97" x2="15.0003" y2="14.97" gradientUnits="userSpaceOnUse">
<stop offset="0.7779" stop-color="#E0BB95"/>
<stop offset="1" stop-color="#CCA47A"/>
</linearGradient>
<linearGradient id="paint6_linear_4219_17451" x1="7.06332" y1="14.8763" x2="6.6819" y2="15.5919" gradientUnits="userSpaceOnUse">
<stop stop-color="#CCA47A"/>
<stop offset="0.5" stop-color="#E0BB95" stop-opacity="0"/>
</linearGradient>
<linearGradient id="paint7_linear_4219_17451" x1="14.8028" y1="15.873" x2="5.99408" y2="13.998" gradientUnits="userSpaceOnUse">
<stop stop-color="#CCA47A"/>
<stop offset="0.3379" stop-color="#E0BB95"/>
</linearGradient>
<linearGradient id="paint8_linear_4219_17451" x1="10.9772" y1="14.4969" x2="10.7478" y2="12.9905" gradientUnits="userSpaceOnUse">
<stop offset="0.078" stop-color="#CCA47A"/>
<stop offset="0.6927" stop-color="#E0BB95"/>
</linearGradient>
<linearGradient id="paint9_linear_4219_17451" x1="15.1664" y1="14.4065" x2="13.881" y2="13.522" gradientUnits="userSpaceOnUse">
<stop stop-color="#CCA47A"/>
<stop offset="0.5" stop-color="#E0BB95"/>
</linearGradient>
<linearGradient id="paint10_linear_4219_17451" x1="14.3673" y1="14.1873" x2="14.1639" y2="13.8601" gradientUnits="userSpaceOnUse">
<stop stop-color="#CCA47A"/>
<stop offset="1" stop-color="#E0BB95" stop-opacity="0"/>
</linearGradient>
<linearGradient id="paint11_linear_4219_17451" x1="2.74826" y1="14.2059" x2="4.5879" y2="13.4865" gradientUnits="userSpaceOnUse">
<stop stop-color="#CCA47A"/>
<stop offset="0.5" stop-color="#E0BB95"/>
</linearGradient>
<linearGradient id="paint12_linear_4219_17451" x1="3.61245" y1="14.1026" x2="3.89104" y2="13.7576" gradientUnits="userSpaceOnUse">
<stop stop-color="#CCA47A"/>
<stop offset="1" stop-color="#E0BB95" stop-opacity="0"/>
</linearGradient>
<radialGradient id="paint13_radial_4219_17451" cx="0" cy="0" r="1" gradientUnits="userSpaceOnUse" gradientTransform="translate(9.00001 4.01458) scale(2.27681 2.56869)">
<stop offset="0.7945" stop-color="#BFA055" stop-opacity="0"/>
<stop offset="1" stop-color="#BFA055"/>
</radialGradient>
</defs>
</svg>
