<svg width="180" height="180" viewBox="0 0 180 180" fill="none" xmlns="http://www.w3.org/2000/svg">
<g clip-path="url(#clip0_2288_5519)">
<path d="M177.5 90C177.5 138.325 138.325 177.5 90 177.5C41.6751 177.5 2.5 138.325 2.5 90C2.5 41.6751 41.6751 2.5 90 2.5C138.325 2.5 177.5 41.6751 177.5 90Z" stroke="white" stroke-width="5"/>
<path d="M127.84 48.0967C127.379 45.5725 126.316 43.1965 124.743 41.1695C123.143 39.0701 120.862 37.5931 118.291 36.9922C115.721 36.3912 113.021 36.7036 110.656 37.8759C106.545 40.2731 103.28 43.8884 101.312 48.222C97.1776 56.4917 96.6764 65.9427 96.4795 75.0716C96.4882 75.2634 96.5683 75.4451 96.7041 75.5809C96.8399 75.7166 97.0216 75.7968 97.2134 75.8055L111.694 76.8258C111.889 76.8258 112.076 76.7485 112.213 76.6108C112.351 76.4732 112.428 76.2865 112.428 76.0919C112.428 76.0919 112.428 75.9487 112.428 75.895C111.39 68.7351 111.121 61.0919 113.806 54.1647C115.793 49.0812 121.933 43.9081 126.748 49.0275C127.088 49.3855 127.947 48.7769 127.84 48.0967Z" fill="white"/>
<path d="M97.9114 64.8508C98.9329 64.549 99.9222 64.1473 100.865 63.6516C102.018 63.2438 103.224 63.0027 104.445 62.9356C106.706 62.957 108.935 63.4701 110.978 64.4391C111.39 64.5823 111.569 64.0095 111.265 63.7948C109.045 62.4413 106.435 61.8739 103.854 62.1838C101.921 62.3986 99.0033 63.0251 97.8398 64.7255C97.8398 64.8329 97.8398 64.9224 97.983 64.9045L97.9114 64.8508Z" fill="#35208A"/>
<path d="M99.165 55.1134C100.087 54.9676 100.984 54.6966 101.832 54.3079C103.068 53.9698 104.373 53.9698 105.609 54.3079C106.943 54.6668 108.171 55.3422 109.189 56.2768C109.833 57.0313 110.566 57.7046 111.373 58.2816C111.623 58.4248 111.963 58.1384 111.784 57.8699C110.304 55.5861 107.993 53.9682 105.34 53.3592C103.55 53.0191 99.9705 53.0728 99.165 55.006V55.1134Z" fill="#35208A"/>
<path d="M103.138 45.5728C103.657 46.1277 104.284 46.0203 105.017 46.1993C106.058 46.4899 107.044 46.9495 107.935 47.5597C110.047 48.9917 110.96 51.1396 112.643 52.9296C112.666 52.9563 112.695 52.9776 112.728 52.9923C112.76 53.0069 112.795 53.0145 112.831 53.0145C112.866 53.0145 112.901 53.0069 112.934 52.9923C112.966 52.9776 112.995 52.9563 113.019 52.9296C113.041 52.8949 113.053 52.8545 113.053 52.8133C113.053 52.772 113.041 52.7316 113.019 52.6969C112.158 50.2728 110.489 48.2187 108.293 46.8795C107.183 46.1456 104.284 44.4451 103.066 45.5549L103.138 45.5728Z" fill="#35208A"/>
<path d="M109.188 38.8962C110.111 39.172 110.969 39.6313 111.71 40.2464C112.451 40.8616 113.061 41.6199 113.502 42.4761C114.238 44.3617 114.755 46.3257 115.042 48.3294C115.066 48.3954 115.115 48.4493 115.179 48.4795C115.242 48.5096 115.315 48.5135 115.382 48.4905C115.452 48.4557 115.508 48.3992 115.543 48.3294C116.545 44.8389 113.287 38.2876 109.206 38.3592C109.13 38.3592 109.058 38.3894 109.004 38.4431C108.95 38.4968 108.92 38.5696 108.92 38.6456C108.92 38.7215 108.95 38.7944 109.004 38.8481C109.058 38.9018 109.13 38.932 109.206 38.932L109.188 38.8962Z" fill="#35208A"/>
<path d="M117.244 37.0346C119.588 39.6659 119.177 42.9236 118.872 46.1814C118.872 46.2906 118.916 46.3953 118.993 46.4725C119.07 46.5497 119.175 46.5931 119.284 46.5931C119.393 46.5931 119.498 46.5497 119.575 46.4725C119.652 46.3953 119.696 46.2906 119.696 46.1814C120.054 43.4964 120.752 37.9654 117.494 36.5871C117.226 36.4797 117.082 36.8556 117.244 37.0346Z" fill="#35208A"/>
<path d="M123.723 41.3127C123.508 42.1181 123.598 42.9773 123.365 43.8007C123.111 44.5635 122.71 45.269 122.184 45.8771C121.951 46.1814 122.399 46.5931 122.703 46.3962C123.438 45.7937 123.965 44.975 124.21 44.0562C124.454 43.1373 124.403 42.165 124.063 41.2769C124.027 41.2429 123.979 41.224 123.929 41.224C123.879 41.224 123.831 41.2429 123.795 41.2769L123.723 41.3127Z" fill="#35208A"/>
<path d="M78.5621 48.043C76.5948 43.7094 73.3297 40.0941 69.2184 37.6969C66.8532 36.5246 64.1537 36.2122 61.5832 36.8131C59.0127 37.4141 56.7316 38.891 55.1313 40.9904C53.4833 43.0748 52.3764 45.5345 51.9093 48.1504C51.8019 48.8126 52.5895 49.457 53.1444 48.8663C57.9595 43.747 64.0991 48.8663 66.0681 54.0036C68.753 60.9308 68.5024 68.5203 67.4463 75.7339C67.4463 76.1635 67.6253 76.7005 68.1623 76.6647L82.6253 75.6444C82.8172 75.6356 82.9988 75.5555 83.1346 75.4197C83.2704 75.284 83.3505 75.1023 83.3592 74.9105C83.1802 65.7637 82.679 56.3126 78.5621 48.043Z" fill="white"/>
<path d="M81.9993 64.6718C80.8358 62.8819 77.9181 62.327 75.9849 62.1301C73.4036 61.8116 70.7906 62.3797 68.5744 63.7411C68.2522 63.9559 68.4491 64.5286 68.8429 64.3855C70.8897 63.4526 73.1092 62.9587 75.3584 62.9356C76.4615 62.9988 77.5512 63.2095 78.5983 63.5621C79.6456 64.0835 80.7355 64.5147 81.8561 64.8508C81.9456 64.8508 82.053 64.8508 81.9993 64.6718Z" fill="#35208A"/>
<path d="M80.6387 55.0418C79.8153 53.1086 76.1817 53.0549 74.4454 53.395C71.8002 54.01 69.4967 55.627 68.0194 57.9057C67.9858 57.9777 67.9801 58.0596 68.0032 58.1356C68.0263 58.2115 68.0767 58.2763 68.1447 58.3174C68.1875 58.3445 68.2372 58.3588 68.2879 58.3588C68.3386 58.3588 68.3882 58.3445 68.4311 58.3174C69.2377 57.7404 69.9711 57.0671 70.6148 56.3126C71.6325 55.378 72.8605 54.7026 74.1948 54.3437C75.4392 54.0216 76.7451 54.0216 77.9895 54.3437C78.9382 54.5585 79.6542 55.2029 80.6387 55.1492V55.0418Z" fill="#35208A"/>
<path d="M76.6111 45.5012C75.4118 44.3914 72.5121 46.0919 71.4023 46.8258C69.1942 48.1513 67.5217 50.2103 66.6768 52.6432C66.6768 52.8759 66.9274 53.0907 67.1064 52.8938C68.8068 51.1038 69.7018 49.0096 71.8319 47.5239C72.7274 46.9207 73.7119 46.4617 74.7495 46.1635C75.4834 45.9666 76.1099 46.1635 76.5395 45.537L76.6111 45.5012Z" fill="#35208A"/>
<path d="M70.5427 38.3234C66.4615 38.3234 63.2217 44.8031 64.2062 48.2936C64.2304 48.3596 64.2797 48.4135 64.3433 48.4437C64.4069 48.4738 64.4798 48.4777 64.5463 48.4547C64.6161 48.4199 64.6726 48.3634 64.7074 48.2936C65.01 46.2796 65.5508 44.3088 66.3183 42.4224C66.7596 41.5662 67.3691 40.8079 68.1103 40.1927C68.8516 39.5776 69.7093 39.1184 70.6322 38.8425C70.7099 38.8293 70.7794 38.7864 70.8261 38.723C70.8729 38.6596 70.8932 38.5805 70.8828 38.5024C70.8622 38.43 70.8169 38.3671 70.7548 38.3246C70.6927 38.2821 70.6176 38.2626 70.5427 38.2697V38.3234Z" fill="#35208A"/>
<path d="M62.2558 36.5871C59.016 37.9654 59.7141 43.4964 60.0542 46.1814C60.0542 46.7005 60.9492 46.7184 60.8955 46.1814C60.5733 42.9236 60.1795 39.6659 62.5243 37.0346C62.6496 36.8556 62.5243 36.4797 62.2558 36.5871Z" fill="#35208A"/>
<path d="M55.7039 41.2769C55.3626 42.1632 55.3086 43.1344 55.5495 44.053C55.7904 44.9717 56.3141 45.7914 57.0464 46.3962C57.3507 46.5931 57.7982 46.1814 57.5655 45.8771C57.0494 45.2621 56.6491 44.5586 56.3841 43.8007C56.1514 42.9773 56.2588 42.1181 56.044 41.3127C56.0075 41.2787 55.9596 41.2598 55.9097 41.2598C55.8599 41.2598 55.8119 41.2787 55.7755 41.3127L55.7039 41.2769Z" fill="#35208A"/>
<path d="M145.149 59.6599V59.463C144.769 58.5723 144.128 57.8181 143.309 57.3003C142.491 56.7825 141.535 56.5254 140.567 56.5632C138.031 56.9497 135.711 58.2172 134.016 60.1432C129.488 64.5156 124.238 68.0706 118.497 70.6504C116.122 71.4971 114.019 72.9689 112.411 74.9105C111.373 76.2709 109.421 79.4212 110.102 81.1933C110.746 82.3342 111.528 83.3921 112.429 84.3437L114.774 87.4761C114.874 87.6411 115.034 87.7611 115.221 87.8111C115.408 87.8611 115.606 87.8373 115.776 87.7446C119.571 86.08 123.186 83.2697 127.268 82.3747C130.848 81.5692 134.427 81.3544 138.007 79.5465C141.09 78.0076 143.461 75.3411 144.63 72.1002C145.758 68.5024 146.778 63.1862 145.149 59.6599Z" fill="#996666"/>
<path d="M140.997 64.9761C140.68 64.4272 140.223 63.9722 139.673 63.6577C139.122 63.3432 138.498 63.1805 137.864 63.1861C136.775 63.3835 135.788 63.9529 135.072 64.7971C133.175 66.7303 131.725 69.29 129.469 70.7935C126.48 72.7804 122.793 72.9952 119.75 74.6957C119.034 75.0895 111.963 79.7971 113.181 81.0143L116.349 84.2721C119.159 84.2721 121.969 81.9093 124.296 80.6921C127.178 79.0632 129.666 79.1885 132.799 78.6336C135.148 78.1725 137.282 76.9555 138.876 75.1683C140.469 73.3811 141.434 71.1218 141.623 68.7351C141.813 67.4474 141.594 66.1325 140.997 64.9761Z" fill="#FFC9A8"/>
<path d="M67.6612 74.8568C66.0476 72.9287 63.9548 71.4594 61.5932 70.5966C55.8521 68.0169 50.6015 64.4619 46.0741 60.0895C44.374 58.1695 42.0569 56.9033 39.5228 56.5095C38.5552 56.4717 37.5989 56.7288 36.7806 57.2466C35.9623 57.7644 35.3206 58.5186 34.9405 59.4093C34.9001 59.4696 34.8698 59.5361 34.851 59.6062C33.1863 63.1861 34.2603 68.4487 35.5491 71.957C36.7104 75.1966 39.0762 77.8637 42.1541 79.4033C45.555 81.1933 49.1529 81.4081 52.8044 82.2315C56.9035 83.1623 60.5013 85.9725 64.314 87.6014C64.4836 87.6941 64.6823 87.7179 64.8689 87.6679C65.0556 87.6179 65.2158 87.4979 65.3164 87.3329L67.6433 84.1289C68.5444 83.1731 69.3313 82.1159 69.9882 80.9785C70.6684 79.3675 68.6994 76.1993 67.6612 74.8568Z" fill="#996666"/>
<path d="M39.0035 64.9761C39.3219 64.4245 39.7817 63.9678 40.3355 63.6531C40.8893 63.3385 41.517 63.1773 42.1539 63.1861C43.2362 63.3888 44.2158 63.9576 44.9283 64.7971C46.8436 66.7303 48.2935 69.29 50.5489 70.7935C53.5202 72.7804 57.2076 72.9952 60.2684 74.6957C60.9844 75.0895 68.0548 79.7971 66.8198 81.0143L63.5978 84.2721C60.7696 84.2721 57.9773 81.9093 55.6324 80.6921C52.7505 79.0632 50.2625 79.1885 47.13 78.6336C44.7832 78.1669 42.6523 76.9483 41.06 75.1622C39.4677 73.3761 38.5007 71.1199 38.3054 68.7351C38.1479 67.4402 38.3916 66.1281 39.0035 64.9761Z" fill="#FFC9A8"/>
<path d="M114.648 75.179C112.894 72.3953 110.42 70.1378 107.488 68.6456C104.034 67.1778 100.328 68.2876 96.7484 68.6456C92.2979 69.3078 87.774 69.3078 83.3236 68.6456C79.8868 68.0907 76.1637 67.1778 72.8164 68.6456C66.4799 71.3663 62.5598 78.9737 60.9489 85.3282C59.2999 92.7292 60.3141 100.475 63.8128 107.202C67.1168 113.787 70.7983 120.176 74.8391 126.337C78.0073 131.474 78.419 140.101 84.9345 142.446C87.0589 143.335 89.3786 143.654 91.664 143.372C93.9495 143.089 96.1217 142.215 97.9656 140.835C100.668 138.526 101.671 135.125 102.816 131.885C104.125 128.535 105.845 125.361 107.936 122.434C110.298 118.854 112.303 114.988 114.344 111.211C116.443 107.535 118.085 103.616 119.23 99.5406C120.232 95.3867 120.341 91.0677 119.551 86.8685C118.761 82.6693 117.09 78.6853 114.648 75.179Z" fill="#996666"/>
<path d="M100.918 136.611C100.849 136.067 100.717 135.532 100.525 135.018C98.3051 129.308 89.3552 129.236 84.8087 130.99C82.2726 132.098 80.2378 134.107 79.0986 136.629C80.1386 139.201 82.106 141.29 84.6118 142.482C86.755 143.398 89.1009 143.736 91.4155 143.463C93.7302 143.19 95.9328 142.315 97.8039 140.925C99.1419 139.729 100.205 138.257 100.918 136.611Z" fill="#FFC9A8"/>
<path d="M69.6126 103.138C68.9753 103.138 68.3524 102.949 67.8226 102.595C67.2927 102.241 66.8797 101.738 66.6359 101.149C66.392 100.561 66.3282 99.9129 66.4525 99.2879C66.5769 98.6629 66.8837 98.0888 67.3343 97.6382C67.7849 97.1876 68.359 96.8808 68.984 96.7564C69.609 96.6321 70.2568 96.6959 70.8456 96.9398C71.4343 97.1836 71.9375 97.5966 72.2915 98.1265C72.6456 98.6563 72.8345 99.2792 72.8345 99.9165C72.8252 100.768 72.4828 101.582 71.8806 102.184C71.2783 102.787 70.4642 103.129 69.6126 103.138Z" fill="#35208A"/>
<path d="M110.406 103.138C109.768 103.138 109.145 102.949 108.616 102.595C108.086 102.241 107.673 101.738 107.429 101.149C107.185 100.561 107.121 99.9129 107.246 99.2879C107.37 98.6629 107.677 98.0888 108.127 97.6382C108.578 97.1876 109.152 96.8808 109.777 96.7564C110.402 96.6321 111.05 96.6959 111.639 96.9398C112.227 97.1836 112.73 97.5966 113.085 98.1265C113.439 98.6563 113.628 99.2792 113.628 99.9165C113.614 100.767 113.27 101.578 112.669 102.179C112.067 102.781 111.256 103.125 110.406 103.138Z" fill="#35208A"/>
<path d="M85.1847 133.998C87.1537 132.977 86.205 129.702 86.0618 127.93C85.847 125.155 85.6322 122.363 85.3995 119.588C84.9878 114.218 84.8804 108.652 84.057 103.3C83.3231 98.5024 79.5105 94.4928 77.0582 90.4475C75.7547 88.3413 74.5888 86.1529 73.5678 83.8962C72.4938 81.426 71.9389 78.7948 70.9723 76.3067C70.8513 75.9533 70.6113 75.653 70.2934 75.4571C69.9755 75.2611 69.5993 75.1817 69.2293 75.2325C68.8593 75.2832 68.5184 75.4609 68.2649 75.7353C68.0115 76.0096 67.8612 76.3634 67.8398 76.7363C67.4103 81.6766 70.5248 87.0286 72.9771 91.1814C74.2838 93.3831 75.6978 95.5131 77.1119 97.6253C78.8347 99.6847 80.005 102.149 80.5129 104.785C81.1752 110.424 81.5332 116.134 82.0344 121.808C82.3029 124.582 82.5356 127.375 82.7861 130.167C82.8935 131.169 83.1799 135 85.1847 133.944V133.998Z" fill="#FFC9A8"/>
<path d="M95.4593 134.087C97.5178 133.425 97.2493 130.507 97.3567 128.717L98.1085 120.358L98.8603 112.017C98.9821 109.211 99.2569 106.415 99.6837 103.64C100.444 101.24 101.659 99.0097 103.264 97.0704C104.696 94.9582 106.11 92.8103 107.398 90.5907C109.708 86.5812 112.571 81.4976 112.178 76.7542C112.156 76.3813 112.006 76.0275 111.753 75.7532C111.499 75.4789 111.158 75.3011 110.788 75.2504C110.418 75.1996 110.042 75.279 109.724 75.475C109.406 75.6709 109.166 75.9713 109.045 76.3246C108.061 78.8127 107.524 81.4439 106.432 83.9141C105.326 86.3883 104.046 88.781 102.601 91.074C100.006 95.2625 96.4438 99.1289 95.8352 104.177C95.1729 109.797 94.9223 115.489 94.4927 121.128C94.26 123.92 94.0452 126.712 93.8304 129.487C93.8304 130.364 93.2218 134.857 95.4593 134.123V134.087Z" fill="#FFC9A8"/>
<path d="M83.2155 134.033C83.8957 134.714 85.1129 134.552 85.99 134.946C86.8671 135.34 87.5652 136.271 88.5318 136.736C89.4983 137.202 89.8205 136.199 89.6952 135.573C89.4446 134.356 87.9053 133.496 86.8313 133.067C85.7573 132.637 84.0389 132.1 83.2513 133.067C83.1142 133.216 83.0381 133.41 83.0381 133.613C83.0381 133.815 83.1142 134.01 83.2513 134.159L83.2155 134.033Z" fill="#35208A"/>
<path d="M96.8019 132.942C95.9606 132.011 94.1707 132.566 93.222 132.942C92.2733 133.317 90.6086 134.23 90.358 135.447C90.2148 136.074 90.7876 136.915 91.5215 136.611C92.2554 136.307 93.0788 135.322 94.0454 134.821C95.0119 134.32 96.1396 134.588 96.8377 133.908C96.9676 133.756 97.0389 133.562 97.0389 133.362C97.0389 133.162 96.9676 132.968 96.8377 132.816L96.8019 132.942Z" fill="#35208A"/>
<path d="M81.7128 136.181C83.0911 143.735 96.0326 142.554 98.3954 136.181C98.5923 135.644 97.751 135.412 97.5541 135.949C96.4801 138.938 93.1328 140.155 90.1973 140.37C88.5899 140.651 86.9346 140.375 85.5056 139.588C84.0765 138.8 82.9594 137.548 82.3393 136.038C82.2974 135.961 82.2286 135.902 82.1462 135.873C82.0637 135.843 81.9732 135.844 81.8918 135.877C81.8294 135.908 81.7775 135.957 81.7425 136.018C81.7075 136.078 81.691 136.147 81.6949 136.217L81.7128 136.181Z" fill="#35208A"/>
<path d="M112.983 116.348C111.979 116.334 111.002 116.023 110.174 115.455C109.347 114.886 108.707 114.085 108.334 113.153C107.961 112.221 107.873 111.199 108.08 110.217C108.287 109.234 108.78 108.335 109.498 107.633C110.215 106.931 111.124 106.457 112.111 106.27C113.097 106.084 114.117 106.194 115.041 106.586C115.965 106.978 116.752 107.635 117.303 108.474C117.854 109.313 118.145 110.297 118.138 111.301C118.114 112.651 117.56 113.937 116.595 114.882C115.631 115.826 114.333 116.353 112.983 116.348Z" fill="#E0435B"/>
<path d="M68.3231 116.348C67.3177 116.352 66.3338 116.057 65.4958 115.502C64.6579 114.946 64.0035 114.154 63.6155 113.227C63.2275 112.299 63.1232 111.278 63.3159 110.291C63.5086 109.304 63.9895 108.396 64.698 107.683C65.4064 106.97 66.3105 106.482 67.2959 106.283C68.2813 106.083 69.3038 106.18 70.234 106.562C71.1643 106.943 71.9605 107.592 72.522 108.426C73.0836 109.26 73.3852 110.242 73.3887 111.247C73.3795 112.591 72.8439 113.878 71.8969 114.831C70.95 115.785 69.6669 116.33 68.3231 116.348Z" fill="#E0435B"/>
<path d="M85.4 74.4093C84.7377 75.3401 85.4 76.969 85.6864 77.9893C86.15 79.2769 86.8683 80.458 87.7985 81.4618C88.1565 81.8735 88.7472 81.2828 88.3892 80.8711C87.4303 79.7959 86.7159 78.5257 86.295 77.148C86.0265 76.2888 86.116 75.1611 85.5432 74.4451H85.4179L85.4 74.4093Z" fill="#35208A"/>
<path d="M90.1786 75.7518C89.5342 77.3449 91.1273 79.815 92.0759 81.1217C93.4147 82.8825 95.3056 84.1431 97.4459 84.7017C97.5384 84.7278 97.6376 84.7161 97.7215 84.6691C97.8054 84.6221 97.8673 84.5437 97.8934 84.4511C97.9195 84.3585 97.9077 84.2594 97.8607 84.1754C97.8138 84.0915 97.7353 84.0297 97.6428 84.0036C95.6063 83.3502 93.8112 82.1036 92.4876 80.4236C91.8451 79.5827 91.3378 78.6466 90.9841 77.6492C90.8586 77.016 90.6223 76.4101 90.286 75.8592H90.107L90.1786 75.7518Z" fill="#35208A"/>
<path d="M93.8302 72.5298C93.6705 73.3734 93.7445 74.2446 94.0442 75.0491C94.344 75.8536 94.858 76.5609 95.5307 77.0943C95.8887 77.3628 96.372 76.9332 96.0498 76.5752C95.5581 76.0447 95.1768 75.4219 94.9279 74.7428C94.679 74.0637 94.5675 73.3419 94.5999 72.6193C94.5784 72.5174 94.5173 72.4281 94.4301 72.371C94.3429 72.314 94.2366 72.2939 94.1345 72.3151C94.0607 72.3328 93.9932 72.3706 93.9394 72.4243C93.8857 72.478 93.8479 72.5455 93.8302 72.6193V72.5298Z" fill="#35208A"/>
<path d="M104.642 113.914C105.2 115.832 105.067 117.884 104.266 119.714C104.123 120.107 104.731 120.34 104.946 120C105.499 119.045 105.817 117.973 105.873 116.871C105.929 115.769 105.722 114.669 105.268 113.663C105.107 113.305 104.534 113.556 104.642 113.914Z" fill="#35208A"/>
<path d="M107.793 117.494C107.775 117.921 107.721 118.347 107.631 118.765C107.467 119.112 107.347 119.479 107.273 119.857C107.273 119.902 107.283 119.947 107.301 119.989C107.319 120.031 107.346 120.068 107.38 120.098C107.414 120.129 107.454 120.152 107.497 120.166C107.54 120.179 107.586 120.184 107.631 120.179H107.775C108.204 119.964 108.347 119.373 108.455 118.944C108.58 118.451 108.58 117.934 108.455 117.44C108.455 117.355 108.421 117.273 108.36 117.212C108.3 117.152 108.218 117.118 108.133 117.118C108.047 117.118 107.965 117.152 107.905 117.212C107.844 117.273 107.81 117.355 107.81 117.44L107.793 117.494Z" fill="#35208A"/>
<path d="M76.325 117.458C75.962 118.335 75.962 119.32 76.325 120.197C76.5569 121.236 77.0428 122.202 77.7391 123.007C77.7968 123.068 77.8753 123.106 77.9592 123.113C78.0431 123.12 78.1266 123.095 78.1934 123.044C78.2602 122.992 78.3056 122.918 78.3209 122.836C78.3362 122.753 78.3202 122.667 78.276 122.595C77.71 121.777 77.2696 120.878 76.9694 119.928C76.899 119.123 76.7552 118.327 76.5398 117.548H76.3966L76.325 117.458Z" fill="#35208A"/>
<path d="M78.7587 120.465C78.9499 121.22 79.2841 121.931 79.7432 122.56C80.1012 123.097 80.5128 123.777 81.1572 123.974C81.3362 123.974 81.551 123.831 81.4794 123.652C81.1612 123.083 80.7767 122.554 80.3339 122.076C79.9536 121.5 79.6069 120.903 79.2957 120.286C79.1346 119.982 78.6871 120.286 78.7587 120.519V120.465Z" fill="#35208A"/>
<path d="M36.7308 65.0657C36.8561 64.3318 36.8203 63.58 37.0172 62.8461C37.2719 61.9886 37.7258 61.2036 38.3417 60.5549C38.4153 60.479 38.4557 60.3769 38.454 60.2711C38.4524 60.1654 38.4087 60.0647 38.3328 59.9911C38.2568 59.9175 38.1548 59.8771 38.049 59.8788C37.9433 59.8805 37.8425 59.9241 37.7689 60C37.0622 60.6247 36.5498 61.4393 36.2927 62.3469C36.0357 63.2545 36.0448 64.2168 36.3191 65.1194C36.3272 65.1464 36.3407 65.1716 36.3586 65.1934C36.3766 65.2153 36.3986 65.2334 36.4236 65.2467C36.4485 65.26 36.4759 65.2682 36.504 65.271C36.5321 65.2737 36.5605 65.2708 36.5876 65.2625C36.6222 65.2539 36.6538 65.236 36.679 65.2108C36.7042 65.1856 36.7221 65.154 36.7308 65.1194V65.0657Z" fill="#35208A"/>
<path d="M38.9678 62.7387L39.1647 62.5239C39.2157 62.4413 39.2521 62.3504 39.2721 62.2554C39.3639 62.0595 39.4846 61.8785 39.6301 61.7184C39.9344 61.4141 40.3461 61.3246 40.6683 61.0561C40.7263 60.996 40.7586 60.9158 40.7586 60.8324C40.7586 60.7489 40.7263 60.6687 40.6683 60.6086C40.6216 60.5947 40.5718 60.5947 40.5251 60.6086C40.2319 60.5744 39.9349 60.6214 39.6666 60.7445C39.3982 60.8676 39.1689 61.0621 39.0036 61.3067C38.8217 61.5301 38.6822 61.7849 38.5919 62.0585C38.5566 62.1813 38.5566 62.3116 38.5919 62.4344C38.5919 62.5776 38.6814 62.6671 38.7172 62.7924C38.7319 62.8226 38.7548 62.8482 38.7832 62.866C38.8117 62.8839 38.8447 62.8933 38.8783 62.8933C38.9119 62.8933 38.9449 62.8839 38.9734 62.866C39.0019 62.8482 39.0247 62.8226 39.0394 62.7924L38.9678 62.7387Z" fill="#35208A"/>
<path d="M138.508 60.0537C138.974 60.2864 139.493 60.3043 139.958 60.5907C140.472 60.9077 140.849 61.4059 141.014 61.9869C141.033 62.0333 141.062 62.0752 141.098 62.1099C141.134 62.1445 141.178 62.1711 141.225 62.188C141.272 62.2049 141.322 62.2116 141.372 62.2078C141.422 62.204 141.471 62.1897 141.515 62.1659C141.587 62.1353 141.647 62.082 141.686 62.0141C141.725 61.9462 141.74 61.8675 141.73 61.79C141.643 61.4148 141.478 61.0619 141.247 60.7537C141.016 60.4455 140.723 60.1888 140.388 60C140.112 59.8086 139.787 59.6987 139.452 59.6828C139.116 59.667 138.783 59.7459 138.49 59.9105C138.473 59.9302 138.463 59.9557 138.463 59.9821C138.463 60.0085 138.473 60.034 138.49 60.0537H138.508Z" fill="#35208A"/>
<path d="M142.5 59.6599C142.5 60.2327 143.234 60.6623 143.467 61.1993C143.779 61.9811 143.816 62.8455 143.574 63.6516C143.564 63.7391 143.588 63.8272 143.641 63.8974C143.695 63.9675 143.773 64.0141 143.86 64.0275C143.92 64.0355 143.981 64.0282 144.038 64.0063C144.094 63.9844 144.144 63.9485 144.183 63.9022C144.395 63.4673 144.505 62.9898 144.505 62.506C144.505 62.0222 144.395 61.5447 144.183 61.1098C143.95 60.5549 143.252 59.3198 142.5 59.5883V59.6599Z" fill="#35208A"/>
<path d="M67.1598 138.186C67.1596 138.106 67.1274 138.028 67.0703 137.971C66.5333 136.969 64.6001 136.772 63.6335 136.575C62.0583 136.271 60.4652 136.074 58.8543 135.859L58.0846 135.752H57.7982C57.596 135.403 57.4396 135.03 57.3328 134.642C56.6705 133.103 56.0261 131.563 55.3459 130.024C55.0058 129.236 54.6657 128.467 54.2898 127.697C54.075 127.232 53.8065 126.337 53.2874 126.104C52.124 125.603 51.3006 128.484 50.9963 129.165C50.2445 130.829 49.5643 132.512 48.8483 134.177C48.6872 134.535 48.4366 135.537 48.1144 135.77C47.6128 135.862 47.1018 135.892 46.5929 135.859L44.4808 136.038C43.2715 136.111 42.0724 136.303 40.9008 136.611C40.2027 136.808 38.9497 137.148 39.1108 138.132C39.2719 139.117 40.4175 139.69 40.9008 140.119C41.8475 140.873 42.8531 141.549 43.908 142.142C44.3734 142.428 44.982 142.625 45.4115 142.948C45.8411 143.27 45.7158 143.825 45.5547 144.397C45.2326 145.615 44.9104 146.832 44.624 147.977C44.3376 149.123 44.1407 149.964 43.9796 150.984C43.7831 151.669 43.7831 152.394 43.9796 153.079C44.7135 154.636 47.5595 151.915 48.186 151.396C48.8125 150.877 49.8686 150.054 50.692 149.356L51.8734 148.317C52.0882 148.121 52.6431 147.351 52.9294 147.297C53.2158 147.243 54.612 148.711 54.9879 149.087C55.8292 149.821 56.7779 150.519 57.5655 151.199C58.6933 152.332 60.1117 153.131 61.6645 153.508C63.0428 153.634 62.3805 151.539 62.2015 150.716C61.7719 148.747 61.1275 146.832 60.5368 144.899C60.4115 144.487 60.2505 144.075 60.161 143.646C60.0715 143.216 60.161 143.216 60.4831 142.965C61.2349 142.518 62.1657 142.232 62.9712 141.82C64.2421 141.175 66.8197 140.03 67.1777 138.401C67.1981 138.33 67.1917 138.253 67.1598 138.186Z" fill="#F7B9E7"/>
<path d="M166.468 86.9749C164.284 86.778 162.083 86.8138 159.881 86.8317L161.671 85.0418C162.724 84.1442 163.63 83.0873 164.356 81.9093C164.396 81.8394 164.421 81.7619 164.43 81.6818C164.439 81.6017 164.432 81.5206 164.409 81.4434C164.385 81.3663 164.346 81.2948 164.294 81.2333C164.242 81.1718 164.178 81.1216 164.105 81.0859C164.016 81.0417 163.918 81.0188 163.819 81.0188C163.719 81.0188 163.621 81.0417 163.532 81.0859C162.346 81.801 161.273 82.6877 160.346 83.7172L158.449 85.5072V82.8222C158.554 81.4424 158.452 80.0546 158.145 78.7052C158.095 78.5539 157.99 78.4272 157.85 78.3507C157.71 78.2742 157.547 78.2538 157.393 78.2936C157.296 78.3237 157.208 78.377 157.136 78.4487C157.065 78.5204 157.011 78.6084 156.981 78.7052C156.645 80.0502 156.512 81.4379 156.587 82.8222V85.4892L154.797 83.5919C153.9 82.5388 152.843 81.6328 151.665 80.9069C151.595 80.8668 151.518 80.8414 151.437 80.8324C151.357 80.8233 151.276 80.8307 151.199 80.8542C151.122 80.8777 151.05 80.9167 150.989 80.9689C150.927 81.021 150.877 81.0852 150.841 81.1575C150.797 81.2465 150.774 81.3445 150.774 81.4439C150.774 81.5433 150.797 81.6413 150.841 81.7303C151.552 82.9141 152.44 83.9825 153.473 84.8986C154.099 85.543 154.708 86.1873 155.263 86.8138H152.578C151.197 86.7147 149.809 86.8233 148.461 87.136C148.31 87.1856 148.183 87.2909 148.106 87.4305C148.03 87.5701 148.009 87.7337 148.049 87.8878C148.079 87.9846 148.133 88.0727 148.204 88.1444C148.276 88.2161 148.364 88.2693 148.461 88.2995C149.805 88.6386 151.194 88.7655 152.578 88.6754H155.191C153.58 90.1969 151.969 91.7184 150.537 93.3651C150.369 93.5337 150.274 93.7623 150.274 94.0006C150.274 94.2389 150.369 94.4675 150.537 94.636C150.706 94.8046 150.934 94.8992 151.173 94.8992C151.411 94.8992 151.64 94.8046 151.808 94.636C153.473 93.2577 154.994 91.6826 156.534 90.1253C156.534 92.3091 156.408 94.5107 156.534 96.6766C156.555 96.7953 156.6 96.9084 156.666 97.0092C156.732 97.11 156.818 97.1965 156.918 97.2633C157.018 97.3302 157.131 97.3761 157.25 97.3983C157.368 97.4205 157.49 97.4186 157.608 97.3926C157.784 97.3572 157.947 97.2704 158.074 97.143C158.201 97.0156 158.288 96.8533 158.324 96.6766C158.503 94.5286 158.485 92.327 158.467 90.1432C159.97 91.7363 161.474 93.3293 163.103 94.7613C163.197 94.8347 163.306 94.8883 163.421 94.919C163.537 94.9498 163.658 94.957 163.776 94.9403C163.895 94.9236 164.009 94.8833 164.111 94.8219C164.214 94.7604 164.303 94.6789 164.374 94.5823C164.496 94.423 164.562 94.228 164.562 94.0274C164.562 93.8268 164.496 93.6318 164.374 93.4725C162.995 91.8258 161.42 90.2864 159.863 88.7649C162.047 88.7649 164.248 88.8902 166.414 88.7649C166.533 88.7454 166.647 88.7025 166.749 88.6388C166.852 88.575 166.94 88.4917 167.01 88.3935C167.08 88.2953 167.13 88.1842 167.157 88.0667C167.183 87.9492 167.187 87.8276 167.166 87.7088C167.131 87.533 167.047 87.3708 166.923 87.2409C166.8 87.111 166.642 87.0188 166.468 86.9749Z" fill="white"/>
<path d="M92.5422 13.8186C92.2407 13.3066 91.7547 12.9292 91.1839 12.764C90.6131 12.5988 90.0008 12.6582 89.4724 12.93C88.944 13.2019 88.5396 13.6656 88.3422 14.226C88.1447 14.7865 88.1692 15.4013 88.4105 15.9443C88.6519 16.4873 89.0918 16.9174 89.6401 17.1464C90.1884 17.3754 90.8036 17.386 91.3595 17.176C91.9153 16.9659 92.3698 16.5512 92.6296 16.0168C92.8895 15.4824 92.935 14.8688 92.757 14.3019C92.7039 14.1275 92.6319 13.9594 92.5422 13.8007V13.8186Z" fill="white"/>
<path d="M124.153 29.4809C124.533 29.575 124.933 29.5422 125.292 29.3874C125.651 29.2327 125.95 28.9645 126.142 28.6239C126.335 28.2833 126.41 27.8891 126.357 27.5016C126.305 27.114 126.126 26.7544 125.85 26.4778C125.573 26.2012 125.213 26.0229 124.826 25.97C124.438 25.9171 124.044 25.9926 123.704 26.185C123.363 26.3774 123.095 26.6761 122.94 27.0353C122.785 27.3945 122.752 27.7946 122.847 28.1742C122.925 28.4903 123.088 28.779 123.318 29.0092C123.548 29.2395 123.837 29.4026 124.153 29.4809Z" fill="white"/>
<path d="M95.6387 48.6336C95.5343 48.2293 95.317 47.8631 95.0122 47.5776C94.7904 47.3599 94.5222 47.1953 94.2277 47.0961C93.9332 46.9969 93.62 46.9657 93.3118 47.0048C92.8032 47.0979 92.3441 47.3686 92.0163 47.7684C91.6886 48.1683 91.5133 48.6716 91.5218 49.1885C91.5208 49.4914 91.5854 49.7909 91.7114 50.0663C91.8373 50.3418 92.0215 50.5866 92.2512 50.784C92.4809 50.9814 92.7507 51.1266 93.0419 51.2096C93.3332 51.2926 93.639 51.3115 93.9382 51.2649C94.4836 51.1849 94.976 50.8948 95.3104 50.4567C95.6448 50.0186 95.7948 49.4672 95.7282 48.92V48.6336H95.6387Z" fill="white"/>
<path d="M140.352 47.0585C140.08 46.9014 139.771 46.8187 139.457 46.8187C139.142 46.8187 138.834 46.9014 138.562 47.0585C138.209 47.2844 137.936 47.614 137.779 48.0019C137.622 48.3899 137.589 48.817 137.685 49.2243C137.791 49.6043 138.013 49.9417 138.32 50.1895C138.627 50.4373 139.004 50.5831 139.398 50.6068C139.792 50.6304 140.183 50.5306 140.518 50.3213C140.853 50.1121 141.113 49.8037 141.265 49.4391C141.446 49.0534 141.484 48.6154 141.372 48.2041C141.22 47.7325 140.911 47.3278 140.495 47.0585H140.352Z" fill="white"/>
<path d="M129.863 107.399H130.31C130.548 107.477 130.799 107.505 131.048 107.481C131.296 107.456 131.537 107.38 131.755 107.257C131.972 107.134 132.162 106.967 132.311 106.766C132.459 106.565 132.565 106.336 132.62 106.092C132.646 105.932 132.646 105.769 132.62 105.609C132.603 105.114 132.405 104.643 132.065 104.284C131.835 104.057 131.552 103.89 131.241 103.801C130.913 103.711 130.567 103.711 130.239 103.801H129.791L129.362 103.98C129.155 104.085 128.981 104.247 128.861 104.445C128.608 104.746 128.469 105.126 128.467 105.519C128.486 105.837 128.572 106.148 128.717 106.432C128.954 106.836 129.339 107.132 129.791 107.255L129.863 107.399Z" fill="white"/>
<path d="M157.017 130.185C157.58 130.18 158.12 129.955 158.52 129.558C158.908 129.152 159.131 128.616 159.147 128.055C159.138 127.493 158.91 126.956 158.513 126.559C158.115 126.161 157.579 125.934 157.017 125.925C156.452 125.925 155.91 126.149 155.511 126.549C155.111 126.948 154.887 127.49 154.887 128.055C154.887 128.62 155.111 129.162 155.511 129.561C155.91 129.961 156.452 130.185 157.017 130.185Z" fill="white"/>
<path d="M127.715 136.038C128.264 136.032 128.79 135.814 129.183 135.43C129.376 135.237 129.53 135.009 129.634 134.757C129.739 134.505 129.792 134.235 129.791 133.962C129.774 133.417 129.549 132.899 129.163 132.513C128.778 132.128 128.26 131.903 127.715 131.885C127.167 131.9 126.645 132.117 126.247 132.494C125.863 132.886 125.645 133.412 125.639 133.962C125.643 134.511 125.864 135.036 126.252 135.425C126.64 135.813 127.166 136.034 127.715 136.038Z" fill="white"/>
<path d="M103.818 166.468C103.52 166.38 103.207 166.356 102.899 166.396C102.591 166.436 102.294 166.54 102.028 166.7C101.76 166.853 101.525 167.057 101.336 167.301C101.147 167.545 101.008 167.823 100.926 168.121C100.845 168.418 100.823 168.729 100.861 169.035C100.9 169.341 100.998 169.637 101.151 169.905C101.304 170.173 101.508 170.408 101.752 170.597C101.995 170.786 102.274 170.925 102.572 171.007C102.869 171.088 103.18 171.11 103.486 171.072C103.792 171.033 104.087 170.934 104.355 170.782C104.806 170.515 105.159 170.109 105.359 169.625C105.559 169.14 105.596 168.604 105.465 168.097C105.36 167.703 105.152 167.345 104.863 167.059C104.573 166.773 104.213 166.569 103.818 166.468Z" fill="white"/>
<path d="M75.34 147.673C75.9334 147.673 76.5025 147.437 76.9221 147.018C77.3417 146.598 77.5775 146.029 77.5775 145.436C77.5775 144.842 77.3417 144.273 76.9221 143.853C76.5025 143.434 75.9334 143.198 75.34 143.198C74.7476 143.209 74.1801 143.438 73.7469 143.842C73.3352 144.271 73.1044 144.841 73.1025 145.436C73.1072 146.028 73.3445 146.594 73.7631 147.013C74.1816 147.431 74.748 147.668 75.34 147.673Z" fill="white"/>
<path d="M55.2386 108.902C55.0054 108.957 54.782 109.048 54.5763 109.171C54.3786 109.282 54.1978 109.42 54.0393 109.582C53.7013 109.95 53.4828 110.412 53.4128 110.907C53.3284 111.407 53.4235 111.92 53.6813 112.357C53.9442 112.782 54.336 113.112 54.7997 113.299C55.2634 113.486 55.7747 113.519 56.2589 113.395H55.1312C55.5465 113.528 55.9911 113.54 56.4128 113.429C56.8345 113.318 57.2158 113.089 57.5118 112.768C57.9382 112.318 58.1808 111.724 58.192 111.104C58.1921 110.795 58.1307 110.49 58.0115 110.205C57.8924 109.92 57.7178 109.662 57.4979 109.446C57.278 109.229 57.0172 109.058 56.7307 108.944C56.4443 108.829 56.1378 108.772 55.8293 108.777C55.6332 108.751 55.4346 108.751 55.2386 108.777V108.902Z" fill="white"/>
<path d="M19.7788 115.525V116.08C19.8236 115.88 19.8236 115.672 19.7788 115.471C19.7644 115.097 19.6665 114.73 19.4924 114.397C19.2313 113.975 18.8273 113.659 18.3536 113.509C17.88 113.359 17.3682 113.384 16.9111 113.579C16.4541 113.773 16.0821 114.126 15.8627 114.572C15.6434 115.018 15.5911 115.527 15.7156 116.008C15.7743 116.224 15.8522 116.433 15.9483 116.635L16.2705 117.047C16.4489 117.242 16.6782 117.385 16.9328 117.458C17.3441 117.663 17.8184 117.701 18.2573 117.566C18.6848 117.44 19.0611 117.181 19.3315 116.827C19.6019 116.473 19.7523 116.042 19.7609 115.597L19.7788 115.525Z" fill="white"/>
<path d="M32.2193 89.7673C32.7959 89.7572 33.3468 89.5266 33.7587 89.1229C34.0597 88.8152 34.2639 88.426 34.3461 88.0035C34.4282 87.5809 34.3847 87.1435 34.2209 86.7455C34.0571 86.3474 33.7802 86.0061 33.4245 85.7637C33.0687 85.5213 32.6497 85.3886 32.2193 85.3819C31.6427 85.3919 31.0918 85.6225 30.6799 86.0263C30.4759 86.2292 30.314 86.4705 30.2035 86.7362C30.093 87.0019 30.0361 87.2868 30.0361 87.5746C30.0361 87.8624 30.093 88.1473 30.2035 88.413C30.314 88.6787 30.4759 88.92 30.6799 89.1229C31.0918 89.5266 31.6427 89.7572 32.2193 89.7673Z" fill="white"/>
<path d="M30.5187 41.6528C30.9506 41.6528 31.3729 41.5247 31.732 41.2847C32.0911 41.0448 32.371 40.7037 32.5363 40.3047C32.7016 39.9057 32.7448 39.4666 32.6605 39.043C32.5763 38.6193 32.3683 38.2302 32.0629 37.9248C31.7575 37.6194 31.3684 37.4114 30.9448 37.3272C30.5212 37.2429 30.0821 37.2862 29.683 37.4514C29.284 37.6167 28.9429 37.8966 28.703 38.2558C28.463 38.6149 28.335 39.0371 28.335 39.469C28.335 40.0482 28.565 40.6036 28.9746 41.0131C29.3841 41.4227 29.9396 41.6528 30.5187 41.6528Z" fill="white"/>
<path d="M19.439 69.5764L19.6 69.29C19.8627 68.8095 19.9632 68.257 19.8864 67.7148C19.8292 67.1844 19.5886 66.6906 19.2063 66.3186C18.8953 66.0337 18.53 65.8145 18.1323 65.6742C17.8155 65.5856 17.484 65.5622 17.1579 65.6052C16.8318 65.6483 16.5178 65.757 16.2349 65.9248L15.9485 66.0859C15.3575 66.4206 14.9236 66.9764 14.7423 67.631C14.561 68.2855 14.6472 68.9853 14.9819 69.5764C15.3166 70.1674 15.8724 70.6013 16.5269 70.7826C17.1815 70.9638 17.8813 70.8777 18.4724 70.543C18.8741 70.3115 19.2075 69.9781 19.439 69.5764Z" fill="#FFF896"/>
<path d="M111.623 145.078C111.852 144.696 111.973 144.26 111.973 143.816C111.973 143.371 111.852 142.935 111.623 142.554C111.411 142.194 111.114 141.893 110.758 141.674C110.402 141.456 109.998 141.328 109.582 141.302C109.165 141.275 108.749 141.351 108.368 141.522C107.988 141.694 107.655 141.956 107.399 142.285C107.19 142.547 107.035 142.847 106.942 143.169C106.85 143.491 106.822 143.828 106.86 144.161C106.899 144.493 107.002 144.815 107.165 145.108C107.328 145.4 107.547 145.658 107.81 145.865C108.002 146.012 108.213 146.132 108.437 146.223C109.013 146.468 109.659 146.495 110.254 146.301C110.85 146.107 111.355 145.704 111.677 145.167L111.623 145.078Z" fill="#FFF896"/>
<path d="M158.431 111.462C158.934 111.504 159.439 111.391 159.876 111.138C160.313 110.885 160.663 110.503 160.876 110.045C161.09 109.587 161.158 109.075 161.072 108.577C160.985 108.079 160.748 107.619 160.392 107.261C160.036 106.902 159.578 106.661 159.081 106.57C158.584 106.48 158.071 106.544 157.611 106.754C157.151 106.964 156.767 107.31 156.51 107.746C156.254 108.181 156.137 108.685 156.175 109.189C156.22 109.774 156.471 110.324 156.885 110.74C157.298 111.157 157.846 111.412 158.431 111.462Z" fill="#FFF896"/>
<path d="M69.0391 21.963C69.2516 22.0767 69.4731 22.1725 69.7014 22.2494C70.2069 22.3793 70.7407 22.3432 71.2241 22.1466C71.7075 21.95 72.115 21.6033 72.3864 21.1575C72.5805 20.8183 72.6881 20.4365 72.6997 20.0459C72.7114 19.6552 72.6266 19.2677 72.453 18.9175C72.2794 18.5674 72.0222 18.2654 71.7042 18.0381C71.3862 17.8109 71.0172 17.6655 70.6297 17.6146C70.2422 17.5638 69.8481 17.6092 69.4823 17.7467C69.1165 17.8843 68.7901 18.1098 68.5321 18.4033C68.274 18.6969 68.0922 19.0494 68.0027 19.4299C67.9132 19.8103 67.9188 20.2069 68.0188 20.5847C68.1598 21.1576 68.5197 21.6524 69.0212 21.963H69.0391Z" fill="#FFF896"/>
<path d="M70.8117 164.338C71.4785 164.34 72.1201 164.083 72.6016 163.622C73.0613 163.139 73.3176 162.498 73.3176 161.832C73.3176 161.165 73.0613 160.524 72.6016 160.042C72.1256 159.57 71.4822 159.305 70.8117 159.305C70.1411 159.305 69.4978 159.57 69.0217 160.042C68.7835 160.275 68.5944 160.554 68.4652 160.861C68.3361 161.168 68.2695 161.498 68.2695 161.832C68.2695 162.165 68.3361 162.495 68.4652 162.802C68.5944 163.11 68.7835 163.388 69.0217 163.622C69.5033 164.083 70.1449 164.34 70.8117 164.338Z" fill="#FFF896"/>
</g>
<defs>
<clipPath id="clip0_2288_5519">
<rect width="180" height="180" fill="white"/>
</clipPath>
</defs>
</svg>
