<svg width="180" height="180" viewBox="0 0 180 180" fill="none" xmlns="http://www.w3.org/2000/svg">
<g clip-path="url(#clip0_2288_5321)">
<path d="M177.482 89.991C177.482 138.311 138.311 177.482 89.991 177.482C41.6711 177.482 2.5 138.311 2.5 89.991C2.5 41.6711 41.6711 2.5 89.991 2.5C138.311 2.5 177.482 41.6711 177.482 89.991Z" stroke="white" stroke-width="5"/>
<path d="M136.973 72.7374C136.472 71.1087 135.792 69.5694 135.38 67.9049C134.968 66.2404 134.664 64.0211 134.36 62.0702C133.996 58.707 132.902 55.4637 131.156 52.5664C129.507 50.1021 127.264 48.0934 124.633 46.7263C122.002 45.3592 119.068 44.6777 116.104 44.7449C114.207 44.7449 113.383 44.7449 112.399 42.9551C111.851 41.8735 111.172 40.8636 110.377 39.9483C108.23 37.7494 105.418 36.3212 102.376 35.8854C99.0301 35.5964 95.6757 36.3397 92.765 38.0153C91.5791 38.8698 90.2342 39.4784 88.8095 39.8051C86.73 39.7131 84.6906 39.2017 82.8137 38.3017C77.1758 36.3687 71.7528 35.9033 67.0277 39.9841C65.8663 41.1675 64.6287 42.2736 63.3228 43.2952C61.7498 44.2073 60.0482 44.877 58.2756 45.2819C55.3339 46.0665 52.5655 47.3961 50.1141 49.2015C47.6059 50.9744 45.6189 53.3872 44.3598 56.1887C43.1007 58.9903 42.6155 62.0781 42.9549 65.1307C43.1631 66.6107 43.6041 68.0483 44.2615 69.3905C44.6552 70.1959 45.2279 70.8581 45.6754 71.6277C46.4987 73.0596 45.926 73.9187 45.4248 75.2073C43.8178 79.1462 42.7405 83.2809 42.2211 87.5032C41.6126 94.1613 43.7245 101.338 49.3803 105.151C48.5312 109.023 48.8992 113.063 50.4337 116.719C51.9683 120.374 54.5946 123.466 57.9534 125.572C59.7153 126.572 61.6063 127.325 63.5734 127.809C65.3275 128.142 66.9032 129.095 68.0121 130.494C68.8175 131.55 69.4976 132.714 70.3567 133.734C71.3398 135.04 72.6395 136.075 74.1332 136.741C76.2988 137.6 78.733 136.562 80.6838 137.958C82.2052 139.067 83.1896 140.75 84.6035 141.985C86.1267 143.241 88.0034 143.992 89.9729 144.132C91.7214 144.335 93.4924 144.076 95.1096 143.381C95.6645 143.13 96.1477 142.719 96.7025 142.504C98.367 141.824 98.3492 142.199 99.602 142.504C100.711 142.788 101.881 142.72 102.949 142.307C107.638 140.517 108.658 134.772 112.65 132.123C114.26 131.049 116.05 130.333 117.572 129.027C119.648 127.362 120.059 124.821 121.849 123.013C123.639 121.205 126.234 120.239 128.042 118.288C129.711 116.394 130.935 114.149 131.621 111.719C132.369 109.067 132.594 106.295 132.284 103.558C131.64 100.023 132.045 96.3773 133.447 93.0695C135.349 89.9693 136.728 86.577 137.528 83.0287C138.128 79.6007 137.938 76.081 136.973 72.7374Z" fill="#FA8D61"/>
<path d="M121.814 64.6296V64.4327C121.822 64.3674 121.822 64.3012 121.814 64.2359C121.636 62.2478 120.689 60.4077 119.175 59.1073C117.66 57.807 115.698 57.149 113.706 57.2735C111.78 57.5668 110.029 58.5592 108.788 60.0613C107.546 61.5634 106.902 63.47 106.977 65.4171C106.948 66.3819 107.13 67.3412 107.511 68.2284C107.891 69.1155 108.46 69.9091 109.178 70.5538C110.681 72.1289 112.113 73.7218 114.547 73.6323C118.95 73.3817 121.921 68.7283 121.814 64.6296Z" fill="#FFB07F"/>
<path d="M66.5625 57.3809C65.5608 57.2822 64.5495 57.3824 63.5866 57.6756C62.6237 57.9688 61.7282 58.4494 60.9516 59.0896C60.175 59.7299 59.5324 60.5173 59.061 61.4066C58.5895 62.2959 58.2983 63.2695 58.2041 64.2716C58.2041 64.2716 58.2041 64.379 58.2041 64.4506V64.6296C58.0967 68.6388 60.9246 73.2564 65.3633 73.5786C67.708 73.7576 69.1577 72.3973 70.7327 70.8044C71.5146 70.1478 72.1404 69.3251 72.5645 68.3964C72.9887 67.4676 73.2005 66.4559 73.1847 65.435C73.2335 63.5207 72.591 61.6528 71.3748 60.1737C70.1586 58.6945 68.4502 57.703 66.5625 57.3809Z" fill="#FFB07F"/>
<path d="M118.932 64.7728C118.851 63.8923 118.531 63.0506 118.008 62.338C117.485 61.6253 116.777 61.0687 115.961 60.7279C115.139 60.4077 114.238 60.3476 113.38 60.5557C112.522 60.7637 111.749 61.2299 111.164 61.8912C109.929 63.3589 109.249 66.491 110.681 67.9944L112.095 69.48C112.407 69.8059 112.783 70.0652 113.198 70.2424C113.613 70.4196 114.06 70.5109 114.511 70.5109C114.963 70.5109 115.41 70.4196 115.825 70.2424C116.24 70.0652 116.615 69.8059 116.928 69.48C117.609 68.909 118.146 68.1849 118.494 67.3669C118.843 66.5488 118.993 65.6599 118.932 64.7728Z" fill="#FF9F63"/>
<path d="M61.068 64.7728C61.1438 63.8931 61.4591 63.051 61.9797 62.3379C62.5003 61.6248 63.2064 61.068 64.0212 60.7279C64.8437 60.4077 65.7446 60.3476 66.6024 60.5557C67.4601 60.7637 68.2334 61.2299 68.8179 61.8912C70.0528 63.3589 70.7329 66.491 69.3011 67.9944L67.8872 69.48C67.5763 69.8054 67.2027 70.0644 66.789 70.2414C66.3752 70.4183 65.9299 70.5096 65.4799 70.5096C65.0299 70.5096 64.5845 70.4183 64.1708 70.2414C63.757 70.0644 63.3834 69.8054 63.0726 69.48C62.3853 68.9138 61.8443 68.1905 61.4954 67.3712C61.1465 66.5519 60.9999 65.6607 61.068 64.7728Z" fill="#FF9F63"/>
<path d="M121.008 77.4983C120.635 74.5739 119.658 71.7591 118.139 69.2325C116.62 66.706 114.592 64.5229 112.185 62.8219C106.565 58.8844 99.5307 58.0969 92.8369 58.1684C86.143 58.24 78.9481 58.0253 72.6301 60.3341C69.8523 61.3529 67.3193 62.9435 65.1951 65.003C63.0708 67.0625 61.4026 69.545 60.2984 72.2899C57.4884 79.2523 59.4035 86.7336 61.3543 93.7675C63.286 100.862 66.1254 107.678 69.8022 114.046C71.3068 116.981 73.3463 119.609 75.8159 121.796C78.4414 123.576 81.4928 124.626 84.6575 124.838C90.5817 125.608 98.4211 125.715 103.594 122.279C106.489 119.978 108.837 117.062 110.466 113.742C112.489 110.234 114.23 106.571 115.675 102.788C117.153 98.9092 118.402 94.947 119.415 90.9217C120.736 86.5767 121.275 82.0318 121.008 77.4983Z" fill="#FFB07F"/>
<path d="M105.079 121.08C105.868 119.04 106.438 116.922 106.779 114.762C107.352 111.182 107.549 106.815 105.777 103.576C104.958 102.281 103.832 101.21 102.498 100.457C101.164 99.7047 99.6652 99.2941 98.1342 99.2622C95.1593 98.9937 92.1709 98.9041 89.1852 98.9937C83.0283 98.9937 75.7975 100.229 73.3992 106.744C72.1642 110.073 73.1665 112.883 73.6318 115.585C73.8758 117.79 74.6096 119.912 75.7796 121.796C77.999 124.105 81.507 124.445 84.6212 124.838C90.5275 125.608 98.3848 125.715 103.539 122.279C104.087 121.925 104.602 121.524 105.079 121.08Z" fill="#FFC9A8"/>
<path d="M69.1936 91.584C68.5423 91.584 67.9056 91.3908 67.364 91.029C66.8224 90.6671 66.4003 90.1528 66.1511 89.551C65.9018 88.9493 65.8366 88.2871 65.9637 87.6483C66.0907 87.0095 66.4044 86.4227 66.865 85.9621C67.3255 85.5015 67.9123 85.1879 68.5511 85.0608C69.19 84.9337 69.8521 84.999 70.4539 85.2482C71.0556 85.4975 71.57 85.9196 71.9318 86.4611C72.2937 87.0027 72.4869 87.6394 72.4869 88.2908C72.4822 89.1627 72.1337 89.9976 71.5171 90.6142C70.9005 91.2308 70.0656 91.5793 69.1936 91.584Z" fill="#35208A"/>
<path d="M110.788 91.584C110.137 91.584 109.5 91.3908 108.959 91.029C108.417 90.6671 107.995 90.1528 107.746 89.551C107.497 88.9493 107.431 88.2871 107.558 87.6483C107.685 87.0095 107.999 86.4227 108.46 85.9621C108.92 85.5015 109.507 85.1879 110.146 85.0608C110.785 84.9337 111.447 84.999 112.049 85.2482C112.65 85.4975 113.165 85.9196 113.527 86.4611C113.888 87.0027 114.082 87.6394 114.082 88.2908C114.068 89.1599 113.716 89.9895 113.102 90.6041C112.487 91.2187 111.657 91.5701 110.788 91.584Z" fill="#35208A"/>
<path d="M94.7516 109.697C96.0795 109.253 97.3669 108.696 98.5997 108.032C98.9602 107.857 99.2682 107.591 99.4923 107.259C99.7165 106.926 99.8489 106.541 99.8762 106.141C99.9034 105.742 99.8246 105.342 99.6475 104.982C99.4705 104.623 99.2016 104.317 98.8681 104.095C98.6587 103.974 98.415 103.925 98.1753 103.958C97.9356 103.99 97.7134 104.101 97.5437 104.274L97.3468 104.435C97.2327 104.554 97.1592 104.707 97.1367 104.871C97.1143 105.035 97.1439 105.201 97.2215 105.348C97.5974 106.028 98.1343 105.884 97.0425 106.368L96.613 106.547C95.8314 106.085 94.9038 105.938 94.0178 106.135C92.9081 106.332 90.993 107.191 91.0825 108.533C91.0725 108.593 91.0725 108.653 91.0825 108.712C90.5906 108.793 90.0889 108.793 89.597 108.712C89.6056 108.641 89.6056 108.569 89.597 108.498C89.597 107.155 87.8072 106.296 86.6617 106.099C86.1977 105.998 85.7182 105.99 85.2511 106.076C84.784 106.162 84.3388 106.341 83.9412 106.6C83.486 106.446 83.0872 106.159 82.7958 105.777C82.8402 105.522 82.8402 105.262 82.7958 105.007C82.7958 104.882 82.6705 104.649 82.5273 104.578C82.3431 104.478 82.1275 104.451 81.9246 104.505C81.7217 104.558 81.5468 104.686 81.4355 104.864C80.2184 106.654 81.8114 108.14 83.4222 108.677C85.552 109.392 87.7177 110.878 90.0265 111.021C90.0265 111.773 90.1876 112.525 90.2055 113.294C90.1067 114.067 90.1067 114.849 90.2055 115.621H89.776C86.6482 115.325 83.6869 114.075 81.2923 112.041C80.9165 111.755 80.4153 112.399 80.7733 112.704C85.8384 116.945 94.5905 118.485 98.8681 112.22C99.1187 111.844 98.5639 111.433 98.2417 111.737C96.3493 113.93 93.6803 115.303 90.7962 115.567C91.035 114.742 91.096 113.876 90.9751 113.026C90.971 112.337 90.9231 111.65 90.8319 110.967H91.0109C92.3121 110.725 93.5717 110.297 94.7516 109.697Z" fill="#35208A"/>
<path d="M108.551 64.4327C109.245 65.2381 109.762 66.1796 110.071 67.1967C110.379 68.2138 110.471 69.2842 110.341 70.3391C110.341 70.8044 110.986 70.8581 111.111 70.4464C111.394 69.278 111.345 68.0537 110.968 66.9118C110.592 65.77 109.903 64.7563 108.981 63.9853C108.922 63.9283 108.842 63.8973 108.76 63.8989C108.678 63.9006 108.599 63.9349 108.542 63.9942C108.485 64.0536 108.454 64.1331 108.456 64.2153C108.458 64.2976 108.492 64.3758 108.551 64.4327Z" fill="#35208A"/>
<path d="M112.489 67.4038C112.768 68.2298 112.966 69.081 113.08 69.9453C113.08 70.7507 112.829 71.5561 112.919 72.3436C112.919 72.5584 113.241 72.7732 113.42 72.5405C114.548 71.2519 113.975 68.3524 112.955 67.1711C112.758 66.9384 112.418 67.1711 112.489 67.4396V67.4038Z" fill="#35208A"/>
<path d="M74.7601 61.7122C72.9703 61.8196 72.5229 64.737 73.3641 65.9183C73.418 65.9865 73.493 66.0349 73.5773 66.056C73.6617 66.0771 73.7506 66.0697 73.8303 66.035C73.91 66.0003 73.976 65.9401 74.0179 65.864C74.0598 65.7878 74.0754 65.6999 74.0621 65.614C73.8299 64.9714 73.7864 64.2759 73.9368 63.6094C74.1962 63.0184 74.5139 62.4548 74.8854 61.927C74.898 61.9051 74.9047 61.8803 74.9046 61.8551C74.9045 61.8298 74.8978 61.8051 74.8851 61.7833C74.8724 61.7615 74.8541 61.7434 74.8322 61.7309C74.8102 61.7185 74.7854 61.712 74.7601 61.7122Z" fill="#35208A"/>
<path d="M76.3712 63.6989C75.53 64.0211 75.6015 65.4887 75.7089 66.2225C75.7872 66.7922 75.9877 67.3382 76.2966 67.8232C76.6055 68.3082 77.0156 68.7207 77.4987 69.0325C77.5719 69.0611 77.6525 69.0649 77.728 69.0432C77.8035 69.0215 77.8698 68.9756 77.9167 68.9125C77.9635 68.8493 77.9882 68.7726 77.9871 68.694C77.986 68.6154 77.959 68.5394 77.9104 68.4777C77.1895 67.8175 76.6948 66.9471 76.4964 65.9899C76.3533 65.2739 76.7291 64.3969 76.4964 63.7526C76.4964 63.7526 76.4964 63.7526 76.3891 63.7526L76.3712 63.6989Z" fill="#35208A"/>
<path d="M128.078 74.9567C128.31 76.7465 129.277 78.2679 129.366 80.1293C129.445 82.2838 128.951 84.4207 127.934 86.322C127.88 86.4121 127.863 86.5203 127.888 86.6227C127.914 86.7251 127.978 86.8133 128.069 86.8678C128.159 86.9224 128.267 86.939 128.369 86.9138C128.472 86.8886 128.56 86.8238 128.615 86.7336C129.766 84.8407 130.327 82.6471 130.225 80.4335C130.225 78.6437 129.796 76.0306 128.292 74.8672C128.292 74.8672 128.06 74.8672 128.078 74.9567Z" fill="#35208A"/>
<path d="M132.732 81.9727C132.219 83.4093 131.864 84.8978 131.676 86.4114C131.025 88.1905 130.121 89.8663 128.991 91.3871C128.74 91.745 129.295 92.1746 129.599 91.8524C130.893 90.4368 131.864 88.7576 132.445 86.9305C132.929 85.5344 133.644 83.3509 132.893 81.9727C132.893 81.9727 132.785 81.9727 132.75 81.9727H132.732Z" fill="#35208A"/>
<path d="M49.9887 76.3886C45.6395 79.2523 45.1921 86.4651 47.2503 90.707C47.4472 91.1186 48.1631 90.8322 48.0021 90.4027C46.9776 88.0503 46.6664 85.449 47.1072 82.9213C47.7109 80.6258 48.73 78.4602 50.114 76.5318C50.114 76.5318 50.114 76.3349 49.9708 76.3886H49.9887Z" fill="#35208A"/>
<path d="M51.7971 83.5299C51.0992 85.3379 50.9289 87.3069 51.306 89.2079C51.683 91.1089 52.5919 92.8638 53.9269 94.2687C54.2312 94.5729 54.8039 94.1792 54.5355 93.8033C53.4288 92.3835 52.6628 90.7286 52.2966 88.966C51.9305 87.2035 51.9739 85.3804 52.4235 83.6373C52.4472 83.5542 52.437 83.4651 52.395 83.3896C52.3531 83.3141 52.2828 83.2583 52.1998 83.2346C52.1167 83.2108 52.0276 83.2211 51.9521 83.263C51.8766 83.305 51.8208 83.3752 51.7971 83.4583V83.5299Z" fill="#35208A"/>
<path d="M87.5567 52.459C88.0526 51.9046 88.496 51.3054 88.8812 50.6692C89.5685 49.7368 90.4245 48.9416 91.4048 48.3245C93.1723 47.2407 95.2214 46.7051 97.2932 46.7853C97.7228 46.7853 97.866 46.0873 97.4006 46.0157C95.1394 45.7559 92.86 46.3146 90.9753 47.5907C89.5076 48.5393 87.2704 50.4365 87.3957 52.3516C87.3972 52.38 87.4062 52.4075 87.4218 52.4314C87.4374 52.4552 87.459 52.4744 87.4845 52.4872C87.51 52.4999 87.5383 52.5056 87.5667 52.5038C87.5952 52.502 87.6226 52.4927 87.6462 52.4769L87.5567 52.459Z" fill="#35208A"/>
<path d="M94.9845 51.1703C96.4521 50.9018 97.6513 49.9354 99.2084 49.7743C100.721 49.6721 102.236 49.9297 103.629 50.526C104.059 50.705 104.363 49.9891 103.951 49.7743C102.448 49.037 100.762 48.757 99.101 48.9689C97.705 49.1478 95.5214 49.649 94.8413 50.9913C94.8301 51.0129 94.8254 51.0372 94.8277 51.0614C94.8301 51.0855 94.8394 51.1085 94.8546 51.1275C94.8698 51.1464 94.8901 51.1606 94.9132 51.1682C94.9362 51.1758 94.961 51.1765 94.9845 51.1703Z" fill="#35208A"/>
<path d="M64.6292 52.1368C65.7031 48.6825 68.0657 46.9822 71.7884 47.8055C72.1822 47.895 72.5044 47.2865 72.0748 47.0896C68.71 45.5504 64.0028 48.1456 64.1102 52.0473C64.1131 52.1179 64.1405 52.1853 64.1877 52.2378C64.2348 52.2904 64.2988 52.325 64.3686 52.3356C64.4385 52.3461 64.5098 52.3321 64.5704 52.2958C64.631 52.2596 64.6771 52.2034 64.7008 52.1368H64.6292Z" fill="#35208A"/>
<path d="M86.1073 131.389C86.5905 133.036 89.2394 133.752 90.7429 133.984C92.7882 134.336 94.8922 133.956 96.685 132.91C96.7582 132.847 96.8069 132.761 96.8227 132.665C96.8384 132.57 96.8202 132.472 96.7711 132.389C96.7221 132.306 96.6453 132.243 96.5543 132.21C96.4633 132.178 96.3639 132.179 96.2734 132.212C94.4622 133.131 92.3989 133.426 90.4028 133.054C88.8815 132.731 87.6823 131.496 86.2326 131.264C86.2154 131.261 86.1978 131.262 86.1811 131.267C86.1644 131.272 86.1493 131.281 86.1369 131.293C86.1246 131.306 86.1154 131.321 86.1103 131.338C86.1051 131.354 86.1041 131.372 86.1073 131.389Z" fill="#35208A"/>
<path d="M96.2199 136.776C99.7995 136.884 104.793 134.324 105.169 130.369C105.169 130.029 104.739 129.975 104.578 130.208C103.789 131.725 102.734 133.089 101.464 134.235C99.9547 135.381 98.1152 136.009 96.2199 136.025C96.1155 136.025 96.0153 136.066 95.9415 136.14C95.8677 136.214 95.8262 136.314 95.8262 136.418C95.8262 136.523 95.8677 136.623 95.9415 136.697C96.0153 136.771 96.1155 136.812 96.2199 136.812V136.776Z" fill="#35208A"/>
<path d="M116.23 118.252C116.802 118.843 118.163 118.091 118.717 117.769C119.664 117.283 120.416 116.487 120.847 115.514C120.863 115.439 120.855 115.362 120.824 115.293C120.793 115.224 120.742 115.166 120.676 115.128C120.61 115.09 120.534 115.075 120.459 115.083C120.384 115.091 120.313 115.123 120.257 115.174C119.668 115.923 118.982 116.591 118.216 117.16C117.807 117.389 117.375 117.575 116.928 117.715C116.623 117.822 116.373 117.84 116.212 118.145C116.202 118.161 116.197 118.179 116.197 118.198C116.197 118.217 116.202 118.236 116.212 118.252H116.23Z" fill="#35208A"/>
<path d="M63.1979 116.104C62.8926 116.823 62.7354 117.596 62.7354 118.377C62.7354 119.158 62.8926 119.931 63.1979 120.65C63.4716 121.257 63.891 121.787 64.4186 122.193C64.9462 122.599 65.5659 122.868 66.2226 122.977C66.2731 122.991 66.326 122.995 66.378 122.989C66.4301 122.983 66.4805 122.966 66.5262 122.94C66.5719 122.915 66.6121 122.88 66.6444 122.839C66.6768 122.797 66.7007 122.75 66.7148 122.7C66.7289 122.649 66.7329 122.596 66.7266 122.544C66.7203 122.492 66.7038 122.442 66.678 122.396C66.6523 122.35 66.6178 122.31 66.5765 122.278C66.5352 122.245 66.4879 122.222 66.4374 122.207C65.7531 122.035 65.1348 121.665 64.6603 121.143C64.1859 120.621 63.8763 119.97 63.7706 119.272C63.8031 118.206 63.6886 117.14 63.4305 116.104H63.2694H63.1979Z" fill="#35208A"/>
<path d="M115.156 103.486C114.128 103.49 113.123 103.188 112.267 102.62C111.411 102.052 110.743 101.243 110.348 100.294C109.952 99.3463 109.847 98.3021 110.045 97.2941C110.243 96.2861 110.736 95.3596 111.461 94.6319C112.186 93.9042 113.111 93.4081 114.118 93.2064C115.126 93.0046 116.17 93.1064 117.12 93.4987C118.069 93.891 118.881 94.5563 119.452 95.4102C120.023 96.2642 120.328 97.2684 120.328 98.2957C120.314 99.6649 119.765 100.974 118.799 101.944C117.832 102.914 116.525 103.467 115.156 103.486Z" fill="#E0435B"/>
<path d="M64.4326 103.486C63.406 103.486 62.4025 103.182 61.549 102.611C60.6954 102.041 60.0301 101.23 59.6373 100.282C59.2444 99.3336 59.1416 98.2899 59.3419 97.2831C59.5422 96.2763 60.0365 95.3514 60.7624 94.6255C61.4883 93.8996 62.4132 93.4053 63.42 93.205C64.4268 93.0047 65.4705 93.1075 66.4189 93.5004C67.3673 93.8932 68.1779 94.5585 68.7483 95.4121C69.3186 96.2656 69.623 97.2691 69.623 98.2957C69.609 99.668 69.0577 100.98 68.0873 101.95C67.1169 102.921 65.8049 103.472 64.4326 103.486Z" fill="#E0435B"/>
<path d="M52.6381 125.805C52.6589 125.773 52.67 125.736 52.67 125.698C52.67 125.659 52.6589 125.622 52.6381 125.59C52.1012 124.588 50.1682 124.391 49.2017 124.194C47.6267 123.872 46.0159 123.693 44.4229 123.478L43.6354 123.371C43.5459 123.371 43.3491 123.263 43.367 123.371C43.1655 123.02 43.0034 122.648 42.8837 122.261C42.2215 120.722 41.5951 119.165 40.9149 117.643C40.5749 116.856 40.2348 116.086 39.859 115.317C39.6263 114.833 39.3757 113.956 38.8567 113.724C37.6933 113.223 36.87 116.086 36.5657 116.784C35.814 118.449 35.1339 120.131 34.4001 121.796C34.2569 122.154 34.0063 123.156 33.6841 123.389C33.1782 123.438 32.6688 123.438 32.1628 123.389L30.033 123.568C28.8232 123.634 27.6236 123.826 26.4534 124.14C25.7553 124.337 24.5025 124.677 24.6636 125.662C24.8246 126.646 25.9701 127.201 26.4534 127.648C27.3968 128.398 28.396 129.074 29.4423 129.671C29.9659 129.907 30.474 130.176 30.9637 130.476C31.5364 130.906 31.25 131.353 31.1068 131.926C30.7847 133.143 30.4625 134.342 30.1582 135.506C29.854 136.669 29.6929 137.492 29.5318 138.495C29.3439 139.186 29.3439 139.915 29.5318 140.607C30.2477 142.164 33.1114 139.443 33.7378 138.924C34.3643 138.405 35.4203 137.582 36.2436 136.884L37.4248 135.846C37.6396 135.649 38.1944 134.879 38.4808 134.826C38.7672 134.772 40.1632 136.239 40.5391 136.615C41.3803 137.349 42.2394 138.029 43.1164 138.709C44.239 139.852 45.6586 140.658 47.215 141.036C48.5932 141.161 47.9309 139.067 47.752 138.244C47.3045 136.275 46.6781 134.36 46.0874 132.427C45.9622 132.016 45.8011 131.586 45.7116 131.174C45.6221 130.763 45.7116 130.727 46.0338 130.494C46.7855 130.029 47.7162 129.76 48.5216 129.349C49.7923 128.704 52.3696 127.559 52.7276 125.93C52.7219 125.904 52.711 125.88 52.6956 125.858C52.6802 125.837 52.6607 125.819 52.6381 125.805Z" fill="#FFF896"/>
<path d="M162.138 76.1022C159.947 75.9379 157.748 75.8901 155.552 75.959L157.342 74.1692C158.391 73.2748 159.296 72.2244 160.026 71.055C160.096 70.9468 160.129 70.8195 160.121 70.6912C160.114 70.563 160.066 70.4404 159.984 70.3411C159.903 70.2418 159.792 70.1708 159.668 70.1383C159.544 70.1057 159.412 70.1134 159.293 70.1601C158.108 70.8696 157.04 71.757 156.125 72.7911L154.21 74.5809V71.8962C154.325 70.5165 154.222 69.1273 153.905 67.7797C153.867 67.6552 153.79 67.5463 153.685 67.469C153.58 67.3916 153.454 67.3499 153.324 67.3499C153.193 67.3499 153.067 67.3916 152.962 67.469C152.857 67.5463 152.78 67.6552 152.742 67.7797C152.401 69.1236 152.274 70.5128 152.366 71.8962C152.366 72.7911 152.366 73.686 152.366 74.563L150.576 72.6658C149.675 71.6115 148.619 70.7002 147.444 69.9632C147.327 69.8967 147.192 69.8707 147.058 69.8894C146.925 69.9081 146.802 69.9703 146.708 70.0664C146.614 70.1625 146.554 70.287 146.539 70.4205C146.523 70.554 146.552 70.689 146.621 70.8044C147.336 71.985 148.223 73.0526 149.252 73.9724L151.042 75.8874H148.357C146.976 75.7793 145.587 75.888 144.24 76.2096C144.116 76.2479 144.007 76.325 143.93 76.4297C143.852 76.5344 143.811 76.6611 143.811 76.7913C143.811 76.9215 143.852 77.0482 143.93 77.1529C144.007 77.2576 144.116 77.3347 144.24 77.373C145.584 77.7129 146.973 77.8398 148.357 77.7488H150.97C149.359 79.2702 147.748 80.7915 146.316 82.4381C146.183 82.6147 146.118 82.8338 146.135 83.0546C146.151 83.2754 146.246 83.4828 146.404 83.6382C146.562 83.7936 146.77 83.8864 146.991 83.8995C147.212 83.9125 147.43 83.8447 147.605 83.7089C149.252 82.3307 150.791 80.7557 152.312 79.1986C152.312 81.3821 152.187 83.5836 152.312 85.7313C152.354 85.9381 152.466 86.124 152.629 86.2576C152.792 86.3913 152.996 86.4643 153.207 86.4643C153.418 86.4643 153.622 86.3913 153.786 86.2576C153.949 86.124 154.061 85.9381 154.102 85.7313C154.299 83.5836 154.263 81.4 154.245 79.2165C155.749 80.8094 157.252 82.4023 158.881 83.8163C159.056 83.9521 159.274 84.0198 159.495 84.0068C159.716 83.9938 159.924 83.901 160.082 83.7456C160.24 83.5901 160.335 83.3827 160.352 83.162C160.368 82.9412 160.303 82.7221 160.17 82.5455C158.773 80.8989 157.216 79.3597 155.659 77.8383C157.843 77.8383 160.026 77.9636 162.192 77.8383C162.384 77.7842 162.553 77.6672 162.671 77.5061C162.789 77.345 162.85 77.149 162.844 76.9493C162.838 76.7496 162.765 76.5577 162.637 76.4042C162.509 76.2507 162.334 76.1444 162.138 76.1022Z" fill="white"/>
<path d="M97.3655 12.9582V12.815C97.2067 12.5243 96.9703 12.2835 96.6828 12.1191C96.3953 11.9548 96.0678 11.8735 95.7367 11.8843C95.4087 11.8769 95.085 11.9598 94.8009 12.1239C94.5168 12.288 94.2833 12.5271 94.1259 12.815V12.9582C93.9499 13.2563 93.8572 13.5963 93.8575 13.9425C93.8554 14.289 93.9482 14.6295 94.1259 14.9269C94.2969 15.2244 94.5433 15.4715 94.8402 15.6433C95.1372 15.8151 95.4742 15.9056 95.8173 15.9056C96.1604 15.9056 96.4974 15.8151 96.7943 15.6433C97.0913 15.4715 97.3377 15.2244 97.5086 14.9269C97.6731 14.6249 97.7592 14.2865 97.7592 13.9425C97.757 13.5989 97.671 13.261 97.5086 12.9582H97.3655Z" fill="white"/>
<path d="M122.78 32.9144L123.012 33.4871C123.012 33.4871 123.012 33.4871 123.012 33.3976L123.102 34.0241C123.096 33.3941 122.846 32.791 122.404 32.3417C122.029 31.9906 121.553 31.7654 121.044 31.6973C120.527 31.6137 119.996 31.7084 119.54 31.9658L119.021 32.2164C118.729 32.502 118.519 32.8604 118.413 33.2544C118.27 33.7393 118.27 34.2551 118.413 34.74C118.574 35.3467 118.966 35.8667 119.504 36.1897C119.826 36.3805 120.189 36.4914 120.563 36.5132C120.937 36.535 121.31 36.4671 121.652 36.315C121.94 36.1969 122.201 36.0218 122.419 35.8004C122.637 35.5789 122.809 35.3157 122.923 35.0263C123.08 34.6886 123.15 34.3173 123.128 33.9457C123.106 33.574 122.993 33.2136 122.798 32.8965L122.78 32.9144Z" fill="white"/>
<path d="M153.296 45.4967C153.734 45.4931 154.161 45.36 154.524 45.114C154.887 44.868 155.168 44.5201 155.333 44.1143C155.499 43.7085 155.54 43.2628 155.452 42.8335C155.365 42.4042 155.152 42.0104 154.841 41.7018C154.53 41.3932 154.134 41.1836 153.704 41.0994C153.274 41.0152 152.829 41.0602 152.425 41.2287C152.02 41.3972 151.675 41.6816 151.431 42.0462C151.188 42.4108 151.059 42.8391 151.059 43.2773C151.064 43.8689 151.302 44.4345 151.721 44.8523C152.145 45.2598 152.708 45.4903 153.296 45.4967Z" fill="white"/>
<path d="M147.283 108.426C147.89 108.421 148.473 108.184 148.912 107.764C149.239 107.442 149.463 107.03 149.555 106.58C149.647 106.13 149.603 105.663 149.428 105.238C149.253 104.813 148.956 104.451 148.574 104.196C148.191 103.941 147.742 103.806 147.283 103.808C146.677 103.815 146.099 104.059 145.672 104.488C145.346 104.805 145.123 105.213 145.031 105.657C144.939 106.102 144.983 106.565 145.156 106.985C145.33 107.405 145.625 107.763 146.004 108.014C146.383 108.264 146.829 108.395 147.283 108.39V108.426Z" fill="white"/>
<path d="M151.865 139.282C152.3 139.287 152.728 139.162 153.092 138.923C153.455 138.683 153.739 138.34 153.907 137.938C154.074 137.536 154.118 137.092 154.031 136.665C153.945 136.238 153.732 135.847 153.422 135.541C153.008 135.13 152.448 134.899 151.865 134.897C151.575 134.897 151.289 134.954 151.022 135.064C150.755 135.175 150.512 135.337 150.307 135.541C149.904 135.953 149.673 136.504 149.663 137.081C149.663 137.37 149.72 137.656 149.83 137.923C149.941 138.19 150.103 138.433 150.307 138.638C150.725 139.044 151.282 139.275 151.865 139.282Z" fill="white"/>
<path d="M122.511 144.651H121.957H122.261C122.548 144.649 122.828 144.561 123.066 144.401L122.565 144.616H122.028C122.39 144.592 122.743 144.495 123.066 144.329C123.333 144.169 123.559 143.951 123.729 143.691C123.899 143.431 124.008 143.135 124.048 142.827C124.088 142.519 124.057 142.206 123.958 141.911C123.859 141.616 123.695 141.348 123.478 141.126C123.126 140.752 122.657 140.511 122.148 140.443C121.64 140.375 121.124 140.483 120.686 140.75C120.208 141.029 119.861 141.486 119.719 142.02C119.598 142.471 119.627 142.949 119.801 143.381C119.976 143.814 120.286 144.178 120.686 144.419C120.93 144.561 121.2 144.651 121.48 144.685C121.76 144.719 122.044 144.695 122.314 144.616L122.511 144.651Z" fill="white"/>
<path d="M105.187 167.221V167.042C105.039 166.539 104.707 166.111 104.256 165.843C103.863 165.627 103.413 165.539 102.968 165.592C102.482 165.656 102.034 165.891 101.706 166.255C101.378 166.619 101.191 167.089 101.178 167.579V167.776C101.183 168.066 101.249 168.351 101.372 168.614C101.495 168.876 101.673 169.11 101.892 169.299C102.112 169.488 102.369 169.629 102.647 169.712C102.925 169.795 103.217 169.818 103.504 169.78C103.77 169.753 104.026 169.671 104.258 169.538C104.489 169.406 104.69 169.226 104.847 169.011C105.054 168.767 105.197 168.476 105.262 168.163C105.328 167.851 105.314 167.527 105.223 167.221H105.187Z" fill="white"/>
<path d="M73.7758 156.375C74.339 156.368 74.8777 156.143 75.2793 155.748C75.4793 155.549 75.6378 155.312 75.7453 155.051C75.8529 154.789 75.9074 154.509 75.9057 154.227C75.9091 153.947 75.8552 153.669 75.7475 153.411C75.6398 153.152 75.4805 152.918 75.2793 152.723C74.8805 152.322 74.3415 152.091 73.7758 152.079C73.2047 152.09 72.6598 152.321 72.2545 152.723C72.0533 152.918 71.894 153.152 71.7863 153.411C71.6785 153.669 71.6247 153.947 71.6281 154.227C71.6264 154.509 71.6809 154.789 71.7885 155.051C71.896 155.312 72.0544 155.549 72.2545 155.748C72.6646 156.141 73.2079 156.365 73.7758 156.375Z" fill="white"/>
<path d="M18.1668 113.867C18.4326 113.654 18.6431 113.38 18.7802 113.069C18.9173 112.757 18.977 112.417 18.9543 112.077C18.9411 111.51 18.7179 110.968 18.3279 110.556L17.8983 110.305C17.576 110.105 17.2039 110 16.8245 110.001C16.4095 109.985 15.9989 110.091 15.6432 110.305C15.4359 110.432 15.2539 110.596 15.1062 110.789C14.7026 111.2 14.472 111.751 14.4619 112.328C14.4612 112.614 14.5178 112.898 14.6285 113.162C14.7392 113.427 14.9016 113.666 15.1062 113.867C15.3043 114.075 15.5433 114.24 15.8083 114.351C16.0732 114.461 16.3583 114.516 16.6455 114.511H17.2182C17.5873 114.414 17.9219 114.215 18.1847 113.939L18.1668 113.867Z" fill="white"/>
<path d="M34.722 86.5367C35.2969 86.486 35.832 86.2217 36.2218 85.796C36.6115 85.3703 36.8277 84.814 36.8277 84.2368C36.8277 83.6597 36.6115 83.1034 36.2218 82.6777C35.832 82.252 35.2969 81.9877 34.722 81.937C34.147 81.9877 33.6119 82.252 33.2222 82.6777C32.8324 83.1034 32.6162 83.6597 32.6162 84.2368C32.6162 84.814 32.8324 85.3703 33.2222 85.796C33.6119 86.2217 34.147 86.486 34.722 86.5367Z" fill="white"/>
<path d="M25.2896 54.213C25.9167 54.2098 26.5188 53.9664 26.972 53.5329C27.1906 53.3111 27.3633 53.0483 27.48 52.7596C27.5967 52.4708 27.6552 52.1619 27.6521 51.8504C27.6568 51.5415 27.599 51.2347 27.4822 50.9487C27.3653 50.6626 27.1917 50.4032 26.972 50.1859C26.5206 49.7474 25.9188 49.4978 25.2896 49.4879C24.9754 49.4902 24.6649 49.5547 24.3758 49.6776C24.0867 49.8006 23.8248 49.9795 23.6052 50.2041C23.3855 50.4287 23.2126 50.6946 23.0962 50.9863C22.9798 51.2781 22.9223 51.59 22.927 51.9041C22.9246 52.2151 22.9841 52.5233 23.102 52.8111C23.2199 53.0988 23.3938 53.3602 23.6137 53.58C23.8335 53.7999 24.0949 53.9738 24.3826 54.0917C24.6704 54.2096 24.9786 54.2691 25.2896 54.2667V54.213Z" fill="white"/>
<path d="M65.6679 32.6638C66.2602 32.6532 66.8277 32.4236 67.2608 32.0195C67.7105 31.6075 67.9804 31.0355 68.0126 30.4266C68.0032 29.833 67.7621 29.2667 67.3407 28.8486C66.9192 28.4306 66.351 28.1939 65.7574 28.1893C65.4562 28.1773 65.1556 28.2262 64.8737 28.3332C64.5919 28.4403 64.3346 28.6031 64.1173 28.8121C63.8999 29.0211 63.7271 29.2718 63.6091 29.5492C63.4911 29.8267 63.4304 30.1251 63.4307 30.4266C63.4399 31.017 63.6786 31.5808 64.0962 31.9983C64.5137 32.4159 65.0774 32.6546 65.6679 32.6638Z" fill="white"/>
<path d="M42.0067 31.8584C42.2482 31.7057 42.4758 31.532 42.6868 31.3394C42.8258 31.2087 42.9516 31.0649 43.0627 30.9098C43.3657 30.5313 43.5439 30.0681 43.5727 29.5841C43.6016 29.1001 43.4796 28.6191 43.2238 28.2072L43.4206 28.6547C43.3374 28.3605 43.1802 28.0925 42.964 27.8763C42.7478 27.6601 42.4799 27.5029 42.1857 27.4197L42.6152 27.5987C42.2384 27.358 41.8006 27.2302 41.3534 27.2302C40.9063 27.2302 40.4685 27.358 40.0916 27.5987C39.8635 27.74 39.6531 27.9083 39.4652 28.0998C39.2862 28.2967 39.1072 28.5652 38.9461 28.7799L38.7135 29.3169C38.6346 29.616 38.6346 29.9305 38.7135 30.2297C38.757 30.7267 38.9796 31.191 39.3399 31.5362C39.6272 31.8035 39.9692 32.0051 40.3422 32.1269C40.6409 32.2103 40.9533 32.2326 41.2608 32.1927C41.5683 32.1527 41.8646 32.0512 42.132 31.8942L42.0067 31.8584Z" fill="#F7B9E7"/>
<path d="M19.4909 93.4633C19.9646 93.4173 20.4042 93.1967 20.724 92.8443C21.0439 92.4919 21.2211 92.033 21.2211 91.5571C21.2211 91.0812 21.0439 90.6224 20.724 90.27C20.4042 89.9176 19.9646 89.697 19.4909 89.651C19.0172 89.697 18.5776 89.9176 18.2578 90.27C17.9379 90.6224 17.7607 91.0812 17.7607 91.5571C17.7607 92.033 17.9379 92.4919 18.2578 92.8443C18.5776 93.1967 19.0172 93.4173 19.4909 93.4633Z" fill="#F7B9E7"/>
<path d="M51.3847 156.786V157.162L51.6173 157.735C51.7655 158.006 51.9813 158.234 52.2438 158.397C52.6512 158.735 53.1643 158.919 53.6935 158.916C54.1181 158.9 54.5338 158.79 54.9106 158.594C55.4485 158.275 55.845 157.763 56.0202 157.162V156.786C56.145 156.36 56.145 155.906 56.0202 155.48C55.8776 154.96 55.5665 154.502 55.1357 154.178C54.7049 153.854 54.1788 153.683 53.6398 153.69C52.972 153.682 52.3284 153.94 51.85 154.406C51.5489 154.711 51.3276 155.086 51.2057 155.498C51.0981 155.927 51.0981 156.375 51.2057 156.804L51.3847 156.786Z" fill="#F7B9E7"/>
<path d="M168.832 106.582C168.684 106.114 168.397 105.702 168.008 105.401C167.63 105.078 167.146 104.906 166.648 104.918C166.152 104.927 165.672 105.093 165.277 105.392C164.881 105.691 164.591 106.108 164.447 106.582C164.354 106.922 164.341 107.279 164.409 107.625C164.476 107.97 164.623 108.296 164.837 108.575C165.051 108.855 165.326 109.082 165.642 109.238C165.957 109.394 166.305 109.476 166.657 109.476C167.009 109.476 167.357 109.394 167.673 109.238C167.988 109.082 168.264 108.855 168.478 108.575C168.691 108.296 168.838 107.97 168.905 107.625C168.973 107.279 168.96 106.922 168.868 106.582H168.832Z" fill="#F7B9E7"/>
<path d="M136.92 52.4948C137.516 52.4863 138.086 52.2492 138.513 51.8325C138.821 51.5163 139.03 51.1163 139.114 50.6823C139.197 50.2484 139.151 49.7995 138.981 49.3914C138.811 48.9834 138.526 48.6342 138.159 48.3873C137.793 48.1403 137.362 48.0065 136.92 48.0024C136.324 48.0109 135.753 48.2479 135.327 48.6646C134.913 49.0842 134.682 49.6502 134.683 50.2396C134.692 50.8318 134.93 51.3975 135.347 51.8179C135.764 52.2384 136.328 52.481 136.92 52.4948Z" fill="#F7B9E7"/>
</g>
<defs>
<clipPath id="clip0_2288_5321">
<rect width="180" height="180" fill="white"/>
</clipPath>
</defs>
</svg>
