<svg width="180" height="180" viewBox="0 0 180 180" fill="none" xmlns="http://www.w3.org/2000/svg">
<g clip-path="url(#clip0_2288_4959)">
<path d="M177.482 89.991C177.482 138.311 138.311 177.482 89.991 177.482C41.6711 177.482 2.5 138.311 2.5 89.991C2.5 41.6711 41.6711 2.5 89.991 2.5C138.311 2.5 177.482 41.6711 177.482 89.991Z" stroke="white" stroke-width="5"/>
<path d="M77.785 29.9075C85.8212 39.2324 93.4994 48.8615 101.052 58.6517C110.395 70.876 119.559 83.3151 127.899 96.2374C130.974 100.797 133.696 105.583 136.043 110.556C136.813 112.346 138.746 115.728 136.651 117.089C135.025 118.004 133.269 118.668 131.443 119.057C128.633 119.827 125.787 120.435 122.924 120.972C114.941 122.494 106.816 123.568 98.7972 124.552C79.6408 126.994 60.3517 128.249 41.0404 128.311C40.2708 128.311 40.3066 129.492 41.0404 129.51C58.7166 129.483 76.3761 128.426 93.929 126.342C102.484 125.411 111.039 124.337 119.541 122.87C125.102 122.195 130.564 120.861 135.81 118.896C138.459 117.751 139.175 116.355 138.388 113.527C136.919 109.177 134.879 105.042 132.32 101.231C124.195 88.1511 115.377 75.5149 105.903 63.3767C97.777 52.638 89.5976 41.4875 80.2728 31.6973C79.5688 30.9575 78.8529 30.2416 78.125 29.5496C77.8924 29.3169 77.5702 29.6748 77.785 29.9075Z" fill="white"/>
<path d="M84.8186 34.0062C84.18 31.8741 82.9897 29.9485 81.368 28.4242C79.7462 26.8999 77.7507 25.831 75.5832 25.3256C74.1062 25.0119 72.5692 25.1437 71.1672 25.7045C69.7652 26.2653 68.5613 27.2298 67.7081 28.4757C66.9001 29.4758 66.4244 30.7031 66.3474 31.9865C66.2704 33.2699 66.5959 34.5454 67.2785 35.6349C67.871 36.5787 68.7176 37.3364 69.7212 37.8208C70.7248 38.3051 71.8447 38.4966 72.9522 38.3733C73.9277 38.2015 74.8331 37.7522 75.56 37.0793C76.2869 36.4064 76.8045 35.5383 77.0508 34.5789C78.429 36.7266 77.731 40.6463 76.2096 43.2773C74.4198 46.2663 70.3391 47.7518 66.7058 49.0763L65.3993 49.5416H65.2919C60.4773 51.3314 54.5531 53.5329 52.3158 59.5824C51.4504 62.4812 51.1586 65.5209 51.4567 68.5314C51.8164 71.2562 51.503 74.0276 50.5439 76.6034L50.4366 76.8539C49.3467 79.3115 47.676 81.4674 45.5683 83.1361C43.8199 84.6615 42.2686 86.3991 40.9506 88.3086C39.1608 91.1723 37.1383 95.9869 41.2191 104.685L41.6665 105.634C42.633 107.71 43.6353 109.858 44.4944 111.988C45.3029 113.664 45.7365 115.496 45.7652 117.357C45.62 118.973 45.0974 120.533 44.2394 121.91C43.3814 123.287 42.212 124.443 40.8253 125.286C40.5936 125.379 40.354 125.451 40.1094 125.501C40.4868 124.885 40.7242 124.194 40.8046 123.476C40.885 122.759 40.8065 122.032 40.5748 121.348C40.2364 120.436 39.6563 119.632 38.8966 119.024C38.1368 118.415 37.2259 118.025 36.2613 117.894C35.1759 117.712 34.0617 117.826 33.0352 118.223C32.0087 118.619 31.1077 119.285 30.4266 120.149C29.8377 120.943 29.4232 121.853 29.2104 122.818C28.9976 123.784 28.9912 124.783 29.1916 125.751C29.393 126.842 29.8142 127.881 30.4295 128.804C31.0449 129.727 31.8416 130.515 32.7712 131.121C34.7395 132.314 37.0022 132.934 39.304 132.91C40.6856 132.913 42.0562 132.664 43.3489 132.177C49.5059 129.814 53.2465 122.315 53.1928 116.713C53.1928 112.149 51.2062 108.283 49.3269 104.524C48.168 102.326 47.2326 100.018 46.5348 97.6335C45.4967 93.7496 47.7161 91.3155 51.403 87.6643C54.026 85.4362 56.0967 82.6303 57.4526 79.467C58.8118 75.9549 59.303 72.1666 58.8844 68.424C58.777 65.3097 58.6517 62.0702 60.6742 60.0835C62.6258 58.4561 64.9108 57.2769 67.368 56.6292C68.0482 56.3965 68.7641 56.146 69.4621 55.8775L69.999 55.6627C73.1 54.6084 76.0441 53.1393 78.7512 51.2956C81.2758 49.2676 83.1822 46.5732 84.2545 43.5176C85.3268 40.4619 85.5222 37.1671 84.8186 34.0062Z" fill="#FA8D61"/>
<path d="M35.6708 71.8246C48.3247 78.4826 61.4976 84.1205 74.4557 89.9373C95.1637 99.3696 115.943 108.677 136.705 118.127L151.023 124.57C153.189 125.536 154.925 122.279 152.813 121.312C139.688 115.418 126.563 109.565 113.438 103.755C92.5864 94.4655 71.771 85.1228 50.7946 76.0664C45.9979 73.9008 41.1655 71.8425 36.333 70.0169C35.2949 69.641 34.7222 71.3234 35.6708 71.8067V71.8246Z" fill="#96CBEB"/>
<path d="M48.3241 69.8021C47.4124 69.6408 46.4795 69.6408 45.5678 69.8021C43.778 69.8021 42.1314 69.8021 40.4132 69.8916C38.6949 69.9811 36.404 69.7842 34.4531 69.8916C34.3563 69.9053 34.2642 69.9422 34.1847 69.999C34.1326 70.0596 34.097 70.1326 34.0813 70.211C34.0656 70.2894 34.0704 70.3705 34.0952 70.4464C34.3994 71.4845 35.885 72.5584 36.6546 73.2922C38.6863 75.7345 40.8809 78.0367 43.2231 80.1829C46.1763 82.4918 47.0712 78.3932 48.0019 76.496C48.9326 74.5988 51.7068 70.9655 48.3241 69.8021Z" fill="white"/>
<path d="M150.594 114.547C147.516 115.12 144.455 115.782 141.43 116.587C141.132 116.691 140.861 116.86 140.637 117.082C140.413 117.304 140.241 117.573 140.135 117.87C140.028 118.167 139.99 118.484 140.022 118.798C140.054 119.112 140.156 119.415 140.321 119.684C142.11 122.816 144.079 125.787 146.137 128.633C146.8 129.564 148.428 128.901 147.927 127.738C147.014 125.143 146.03 122.565 144.938 120.024C147.247 119.594 149.556 119.129 151.865 118.717C154.746 118.234 153.386 113.974 150.594 114.547Z" fill="#FA8D61"/>
<path d="M136.168 116.086C138.28 115.657 140.41 115.245 142.54 114.923C145.35 114.511 145.171 110.037 142.343 110.466C139.053 110.973 135.801 111.697 132.606 112.632C132.306 112.733 132.033 112.9 131.806 113.122C131.58 113.343 131.407 113.613 131.301 113.911C131.194 114.209 131.156 114.527 131.19 114.842C131.224 115.157 131.329 115.46 131.497 115.728C133.284 118.807 135.225 121.794 137.314 124.677C137.47 124.833 137.672 124.936 137.89 124.97C138.108 125.005 138.332 124.971 138.53 124.872C138.727 124.774 138.889 124.615 138.992 124.42C139.095 124.224 139.134 124.001 139.103 123.782C138.262 121.223 137.278 118.628 136.168 116.086Z" fill="#FA8D61"/>
<path d="M71.968 34.3641C71.7353 33.7377 71.1805 33.3798 71.2163 32.5743C71.2742 32.0813 71.4743 31.6158 71.792 31.2345C72.1098 30.8532 72.5316 30.5725 73.0061 30.4266C75.3149 29.6033 76.5857 31.6078 77.2837 33.4871C77.3181 33.5662 77.3775 33.6318 77.4528 33.6739C77.5281 33.716 77.6151 33.7321 77.7005 33.7199C77.7859 33.7077 77.8649 33.6678 77.9254 33.6064C77.9859 33.5449 78.0246 33.4653 78.0354 33.3797C78.0189 32.6919 77.8296 32.0193 77.4847 31.4239C77.1399 30.8285 76.6507 30.3295 76.0623 29.9729C75.4739 29.6163 74.8052 29.4135 74.1178 29.3833C73.4304 29.3532 72.7465 29.4965 72.1291 29.8002C71.5642 30.0842 71.0941 30.5265 70.7763 31.0732C70.4585 31.6198 70.3067 32.2471 70.3393 32.8786C70.3393 33.5766 70.9836 34.8832 71.8785 34.382C71.8785 34.382 71.8785 34.382 71.8785 34.2746L71.968 34.3641Z" fill="#35208A"/>
<path d="M35.4922 122.011C35.132 121.787 34.7039 121.698 34.2843 121.76C33.8647 121.822 33.4809 122.032 33.2012 122.351C32.8358 122.714 32.5981 123.186 32.5239 123.696C32.4496 124.206 32.5429 124.726 32.7896 125.178C34.0245 127.613 37.5862 127.308 39.1792 125.447C39.4655 125.125 39.1792 124.588 38.7138 124.838C37.4073 125.608 35.9933 126.628 34.472 125.698C32.5748 124.57 33.4697 122.386 35.4385 122.118V121.993L35.4922 122.011Z" fill="#35208A"/>
<path d="M74.5992 46.9643C74.6298 47.5046 74.5316 48.0444 74.3129 48.5393C74.116 48.951 73.6148 49.2731 73.5432 49.7206C73.5296 49.7706 73.5276 49.823 73.5373 49.8739C73.547 49.9247 73.5682 49.9727 73.5993 50.0142C73.6303 50.0556 73.6705 50.0894 73.7166 50.113C73.7627 50.1365 73.8136 50.1492 73.8654 50.1501C74.5097 50.1501 74.9214 49.3447 75.1362 48.8257C75.414 48.2146 75.4831 47.5291 75.333 46.8748C75.3145 46.7913 75.268 46.7167 75.2013 46.6631C75.1346 46.6096 75.0517 46.5805 74.9661 46.5805C74.8806 46.5805 74.7977 46.6096 74.731 46.6631C74.6642 46.7167 74.6178 46.7913 74.5992 46.8748V46.9643Z" fill="#35208A"/>
<path d="M77.122 44.7449C77.122 45.3356 77.3905 45.8725 77.3905 46.5347C77.3905 47.197 77.0146 47.6086 77.2831 48.074C77.3148 48.1236 77.361 48.1623 77.4154 48.1847C77.4699 48.2071 77.5299 48.2122 77.5874 48.1993C78.2675 48.074 78.3033 46.9822 78.2675 46.4095C78.2881 46.0569 78.2144 45.7053 78.054 45.3907C77.8936 45.0761 77.6522 44.8099 77.3547 44.6197C77.3547 44.6197 77.1041 44.6197 77.122 44.7449Z" fill="#35208A"/>
<path d="M47.8593 113.527C47.7161 114.368 48.1814 115.317 48.1098 116.158C47.9669 117.325 47.5228 118.436 46.8212 119.38C46.6064 119.702 47.0539 119.97 47.3223 119.773C47.7862 119.359 48.1617 118.856 48.4262 118.293C48.6907 117.73 48.8388 117.119 48.8616 116.498C48.8616 115.585 48.8616 113.974 47.9488 113.491H47.8593V113.527Z" fill="#35208A"/>
<path d="M49.6671 117.178C49.4881 117.912 49.4881 118.664 49.2554 119.38C48.9494 120.141 48.5844 120.877 48.1637 121.581C48.1331 121.62 48.1105 121.664 48.0971 121.712C48.0837 121.759 48.0798 121.809 48.0856 121.858C48.0914 121.907 48.1069 121.954 48.131 121.997C48.1551 122.041 48.1875 122.078 48.2263 122.109C48.2651 122.14 48.3095 122.162 48.357 122.176C48.4045 122.189 48.4542 122.193 48.5033 122.187C48.5523 122.181 48.5997 122.166 48.6428 122.142C48.6858 122.118 48.7237 122.085 48.7543 122.046C49.3632 121.409 49.8059 120.631 50.0431 119.782C50.2803 118.933 50.3049 118.039 50.1145 117.178C50.0988 117.144 50.0736 117.115 50.0419 117.094C50.0102 117.074 49.9733 117.063 49.9356 117.063C49.8979 117.063 49.861 117.074 49.8292 117.094C49.7975 117.115 49.7723 117.144 49.7566 117.178H49.6671Z" fill="#35208A"/>
<path d="M145.958 43.5279C145.984 43.4587 145.984 43.3823 145.958 43.3131C145.421 42.3108 143.488 42.114 142.521 41.9171C140.946 41.6128 139.353 41.4159 137.743 41.2012L136.883 41.1654C136.776 41.1654 136.579 41.0759 136.597 41.1654C136.394 40.8175 136.237 40.4444 136.132 40.0557C135.47 38.5165 134.825 36.9772 134.145 35.438C133.805 34.6505 133.465 33.8809 133.089 33.1113C132.874 32.6459 132.606 31.751 132.087 31.5184C130.923 31.0172 130.1 33.8988 129.796 34.5968C129.044 36.2434 128.364 37.9258 127.648 39.5903C127.487 39.9483 127.236 40.9506 126.914 41.1833C126.409 41.2411 125.898 41.2411 125.393 41.1833L123.281 41.3622C122.071 41.4288 120.872 41.6207 119.701 41.935C119.003 42.1319 117.751 42.4719 117.912 43.4563C118.073 44.4407 119.218 45.0134 119.701 45.443C120.648 46.1964 121.654 46.8727 122.708 47.4655C123.174 47.7518 123.782 47.9487 124.212 48.2709C124.641 48.593 124.516 49.1479 124.355 49.7206C124.033 50.9377 123.711 52.1547 123.424 53.3002C123.138 54.4457 122.941 55.2869 122.78 56.3071C122.592 56.9924 122.592 57.7158 122.78 58.4011C123.514 59.9582 126.359 57.2378 126.986 56.7187C127.612 56.1997 128.668 55.3943 129.492 54.6783L130.655 53.694C130.87 53.4971 131.425 52.7275 131.711 52.6738C131.997 52.6201 133.393 54.0877 133.769 54.4636C134.61 55.1974 135.559 55.8954 136.347 56.5755C137.472 57.71 138.891 58.5093 140.445 58.8844C141.823 59.0097 141.161 56.9156 140.982 56.0923C140.553 54.1235 139.908 52.2084 139.318 50.2754C139.192 49.8638 139.031 49.4521 138.942 49.0226C138.852 48.593 138.942 48.593 139.264 48.3425C140.016 47.895 140.946 47.6086 141.752 47.197C143.022 46.5527 145.6 45.4072 145.958 43.7964C145.993 43.7103 145.993 43.614 145.958 43.5279Z" fill="#FFF896"/>
<path d="M66.0432 147.444C63.8776 147.247 61.6761 147.282 59.4746 147.3L61.2644 145.511C62.3181 144.614 63.2241 143.557 63.9491 142.378C64.0105 142.263 64.0333 142.132 64.0141 142.002C63.9949 141.873 63.9347 141.754 63.8425 141.662C63.7503 141.57 63.6308 141.509 63.5018 141.49C63.3727 141.471 63.2409 141.494 63.1258 141.555C61.9358 142.264 60.8614 143.152 59.94 144.186L58.0428 145.976V143.291C58.1481 141.912 58.0455 140.524 57.7385 139.175C57.6954 139.053 57.6154 138.947 57.5096 138.872C57.4038 138.797 57.2775 138.757 57.1479 138.757C57.0184 138.757 56.892 138.797 56.7862 138.872C56.6804 138.947 56.6004 139.053 56.5573 139.175C56.235 140.522 56.1084 141.908 56.1814 143.291C56.1814 144.186 56.1814 145.081 56.1814 145.958L54.3379 144.079C53.433 143.033 52.3773 142.128 51.2058 141.394C51.0907 141.333 50.9589 141.31 50.8298 141.329C50.7008 141.348 50.5814 141.408 50.4891 141.501C50.3969 141.593 50.3367 141.712 50.3175 141.841C50.2983 141.97 50.3211 142.102 50.3825 142.217C51.092 143.402 51.9794 144.47 53.0135 145.385C53.622 146.03 54.2484 146.674 54.8033 147.3H52.1186C50.738 147.2 49.3503 147.309 48.002 147.623C47.8776 147.661 47.7687 147.738 47.6914 147.843C47.614 147.947 47.5723 148.074 47.5723 148.204C47.5723 148.334 47.614 148.461 47.6914 148.566C47.7687 148.671 47.8776 148.748 48.002 148.786C49.3461 149.126 50.7352 149.253 52.1186 149.162H54.7317C53.1209 150.683 51.51 152.204 50.0782 153.851C49.9948 153.934 49.9286 154.034 49.8834 154.143C49.8383 154.252 49.815 154.368 49.815 154.486C49.815 154.604 49.8383 154.721 49.8834 154.83C49.9286 154.939 49.9948 155.038 50.0782 155.122C50.1616 155.205 50.2607 155.271 50.3697 155.317C50.4787 155.362 50.5956 155.385 50.7136 155.385C50.8316 155.385 50.9484 155.362 51.0575 155.317C51.1665 155.271 51.2655 155.205 51.349 155.122C52.9959 153.702 54.5671 152.196 56.0561 150.612C56.0561 152.795 55.9308 154.997 56.0561 157.162C56.0977 157.369 56.2095 157.555 56.3727 157.688C56.5358 157.822 56.7402 157.895 56.951 157.895C57.1619 157.895 57.3663 157.822 57.5294 157.688C57.6925 157.555 57.8044 157.369 57.8459 157.162C58.0249 155.014 58.007 152.813 57.9891 150.629C59.4747 152.222 60.996 153.815 62.6247 155.247C62.8013 155.38 63.0204 155.445 63.2412 155.429C63.4619 155.413 63.6693 155.317 63.8248 155.16C63.9802 155.002 64.073 154.793 64.086 154.572C64.099 154.351 64.0313 154.133 63.8955 153.958C62.5173 152.312 60.9423 150.773 59.3852 149.251C61.5687 149.251 63.7702 149.377 65.9179 149.251C66.1405 149.24 66.351 149.147 66.5099 148.99C66.6688 148.834 66.765 148.625 66.7804 148.403C66.7958 148.181 66.7293 147.96 66.5935 147.784C66.4578 147.607 66.262 147.486 66.0432 147.444Z" fill="white"/>
<path d="M101.643 17.898C102.241 17.898 102.815 17.6604 103.237 17.2375C103.66 16.8145 103.898 16.2409 103.898 15.6428C103.889 15.0476 103.648 14.4794 103.227 14.0584C102.806 13.6375 102.238 13.3969 101.643 13.3877C101.047 13.3962 100.476 13.6332 100.05 14.0499C99.6407 14.4813 99.4049 15.0485 99.3877 15.6428C99.4014 16.2367 99.6433 16.8024 100.063 17.2224C100.483 17.6424 101.049 17.8843 101.643 17.898Z" fill="white"/>
<path d="M111.486 49.7564H111.576C112.041 49.622 112.449 49.3392 112.739 48.951C113.047 48.5709 113.217 48.0978 113.222 47.6086C113.207 47.1212 113.04 46.6507 112.745 46.2626C112.45 45.8744 112.041 45.5879 111.576 45.443H111.486C111.149 45.3507 110.795 45.3375 110.452 45.4044C110.108 45.4713 109.785 45.6164 109.507 45.8286C109.229 46.0407 109.004 46.3141 108.849 46.6275C108.694 46.9409 108.613 47.2858 108.613 47.6355C108.613 47.9851 108.694 48.3301 108.849 48.6435C109.004 48.9569 109.229 49.2303 109.507 49.4424C109.785 49.6545 110.108 49.7997 110.452 49.8665C110.795 49.9334 111.149 49.9202 111.486 49.828V49.7564Z" fill="white"/>
<path d="M157.753 58.7054C158.009 58.8559 158.279 58.9817 158.559 59.0812C158.933 59.191 159.331 59.1974 159.709 59.0997C160.087 59.002 160.432 58.8039 160.706 58.5264C160.981 58.2496 161.177 57.9049 161.274 57.5275C161.372 57.1502 161.367 56.7537 161.261 56.3786C161.162 56.0989 161.036 55.8292 160.885 55.5732C160.704 55.2792 160.459 55.0293 160.168 54.8418C159.878 54.6544 159.549 54.534 159.206 54.4894C158.863 54.4448 158.515 54.4772 158.186 54.5842C157.857 54.6912 157.557 54.8701 157.306 55.1079C156.888 55.5484 156.652 56.1298 156.644 56.7366C156.648 57.1337 156.754 57.5231 156.951 57.8677C157.148 58.2124 157.431 58.5007 157.771 58.7054H157.753Z" fill="white"/>
<path d="M148.321 85.5881C148.815 85.5645 149.301 85.4492 149.753 85.2481C150.077 85.0623 150.349 84.7991 150.546 84.482C150.743 84.165 150.858 83.804 150.881 83.4314C150.904 83.0589 150.835 82.6865 150.678 82.3475C150.522 82.0086 150.284 81.7138 149.985 81.4895C149.762 81.2883 149.491 81.1467 149.198 81.0778H148.607H148.321C147.864 81.0758 147.417 81.2095 147.036 81.462C146.655 81.7144 146.357 82.0742 146.181 82.4959C146.004 82.9176 145.957 83.3821 146.045 83.8306C146.133 84.2791 146.352 84.6915 146.674 85.0154C146.888 85.2355 147.144 85.4094 147.427 85.5264C147.71 85.6434 148.015 85.701 148.321 85.6955V85.5881Z" fill="white"/>
<path d="M168.993 119.093V118.825C169.816 115.245 163.802 115.245 164.643 118.825V119.093C164.778 119.549 165.056 119.95 165.437 120.235C165.817 120.519 166.28 120.673 166.755 120.673C167.231 120.673 167.694 120.519 168.074 120.235C168.455 119.95 168.733 119.549 168.867 119.093H168.993Z" fill="white"/>
<path d="M136.616 134.682C136.894 134.957 137.24 135.154 137.618 135.255C138.093 135.255 138.548 135.067 138.884 134.731C139.219 134.395 139.408 133.94 139.408 133.465C139.408 132.991 139.219 132.535 138.884 132.2C138.548 131.864 138.093 131.675 137.618 131.675C137.245 131.788 136.902 131.983 136.616 132.248C136.314 132.578 136.146 133.009 136.146 133.456C136.146 133.904 136.314 134.334 136.616 134.664V134.682Z" fill="white"/>
<path d="M96.6488 157.502H96.4699C96.1096 157.407 95.7308 157.406 95.3703 157.501C95.0097 157.595 94.6795 157.78 94.4116 158.039C94.0213 158.444 93.7977 158.981 93.7852 159.543C93.8011 160.104 94.0242 160.639 94.4116 161.046C94.6823 161.301 95.0126 161.483 95.3722 161.577C95.7318 161.671 96.1093 161.673 96.4699 161.583H96.6488L97.15 161.368C97.3938 161.249 97.5986 161.063 97.7406 160.831C98.0293 160.477 98.1873 160.035 98.1881 159.578C98.1759 159.209 98.0778 158.847 97.9017 158.522C97.7733 158.276 97.596 158.058 97.3805 157.883C97.1651 157.708 96.9161 157.578 96.6488 157.502Z" fill="white"/>
<path d="M34.9907 144.473C35.3985 144.458 35.7937 144.327 36.1299 144.096C36.4661 143.864 36.7294 143.542 36.8891 143.166C37.0487 142.791 37.098 142.377 37.0312 141.975C36.9644 141.572 36.7843 141.197 36.512 140.893C36.1028 140.498 35.5589 140.274 34.9907 140.266C34.4209 140.267 33.8743 140.492 33.4693 140.893C33.2647 141.09 33.1019 141.326 32.9908 141.588C32.8796 141.849 32.8223 142.13 32.8223 142.414C32.8223 142.698 32.8796 142.979 32.9908 143.241C33.1019 143.502 33.2647 143.739 33.4693 143.936C33.8743 144.336 34.4209 144.561 34.9907 144.562V144.473Z" fill="white"/>
<path d="M16.699 94.5192L16.8601 94.3224L17.2359 93.8391L17.3791 93.4812C17.545 93.1173 17.607 92.7147 17.5581 92.3178C17.5521 91.7684 17.3341 91.2426 16.9496 90.8501L16.52 90.5101C16.1983 90.3258 15.8347 90.2272 15.464 90.2237C15.0732 90.185 14.6789 90.2466 14.3186 90.4027C13.9996 90.5125 13.7113 90.6966 13.4773 90.9396L13.2805 91.0828C13.0447 91.3161 12.8595 91.5953 12.7363 91.9032C12.6131 92.2112 12.5547 92.5411 12.5646 92.8726C12.5588 93.2036 12.6192 93.5324 12.7421 93.8397C12.865 94.147 13.0481 94.4267 13.2805 94.6624C13.5041 94.8849 13.7693 95.061 14.0611 95.1808C14.3529 95.3006 14.6654 95.3616 14.9808 95.3604C15.3116 95.3782 15.6424 95.3252 15.9511 95.2048C16.2597 95.0844 16.5391 94.8995 16.7706 94.6624L16.699 94.5192Z" fill="white"/>
<path d="M35.9387 88.8635C36.535 88.855 37.1052 88.618 37.5317 88.2013C37.8464 87.8859 38.0606 87.4844 38.1473 87.0474C38.2341 86.6104 38.1894 86.1575 38.019 85.7458C37.8486 85.3342 37.5601 84.9822 37.1898 84.7344C36.8196 84.4865 36.3843 84.3539 35.9387 84.3532C35.6426 84.3532 35.3493 84.4115 35.0757 84.5249C34.8021 84.6382 34.5535 84.8043 34.3441 85.0137C34.1347 85.2231 33.9686 85.4717 33.8553 85.7453C33.7419 86.019 33.6836 86.3122 33.6836 86.6084C33.6928 87.2036 33.9334 87.7718 34.3543 88.1928C34.7753 88.6137 35.3435 88.8543 35.9387 88.8635Z" fill="white"/>
<path d="M53.2462 29.8359C53.2462 29.8359 53.3894 30.1939 53.4789 30.3729L53.5684 30.9635C53.5684 31.1604 53.5684 31.3573 53.4789 31.5541L53.2462 32.0732V31.9658C53.4374 31.6347 53.5382 31.2592 53.5388 30.8769C53.5393 30.4946 53.4394 30.1189 53.2491 29.7873C53.0589 29.4557 52.7849 29.1799 52.4546 28.9874C52.1243 28.7949 51.7492 28.6925 51.3669 28.6905C50.7272 28.709 50.1189 28.9715 49.6666 29.4243C49.4454 29.6804 49.2805 29.9801 49.1825 30.3041C49.0846 30.628 49.0558 30.9689 49.0979 31.3047C49.1401 31.6404 49.2524 31.9636 49.4274 32.2533C49.6025 32.5429 49.8364 32.7925 50.1141 32.986C50.6588 33.29 51.2995 33.3733 51.9039 33.2186C52.4729 33.0393 52.9608 32.6655 53.282 32.1627C53.4811 31.8072 53.5856 31.4067 53.5856 30.9993C53.5856 30.5919 53.4811 30.1913 53.282 29.8359H53.2462Z" fill="white"/>
<path d="M90.3489 74.9388C90.617 74.5159 90.7598 74.0256 90.7606 73.5249C90.7578 72.9363 90.5269 72.3716 90.1162 71.9499C89.6922 71.5538 89.139 71.3249 88.5591 71.3055C88.0496 71.302 87.5507 71.4516 87.1273 71.7351C86.8205 71.9182 86.5596 72.1691 86.3645 72.4684C86.1695 72.7678 86.0454 73.1078 86.0019 73.4625C85.9583 73.8171 85.9964 74.177 86.1132 74.5147C86.2299 74.8524 86.4224 75.1589 86.6757 75.4109C86.9291 75.6628 87.2367 75.8535 87.575 75.9684C87.9133 76.0833 88.2735 76.1194 88.6279 76.0739C88.9822 76.0283 89.3216 75.9024 89.6198 75.7057C89.9181 75.5089 90.1675 75.2467 90.3489 74.9388Z" fill="white"/>
<path d="M71.735 116.212L71.2159 116.426C71.4202 116.361 71.6179 116.278 71.8066 116.176C72.0933 116.008 72.3383 115.778 72.5234 115.502C72.7085 115.226 72.8288 114.912 72.8753 114.583C72.9217 114.255 72.8932 113.92 72.7918 113.603C72.6905 113.287 72.5188 112.998 72.2898 112.757C72.055 112.52 71.7686 112.34 71.4528 112.232C71.1371 112.124 70.8006 112.09 70.4696 112.133C70.1387 112.177 69.8222 112.296 69.545 112.482C69.2677 112.668 69.0372 112.915 68.8713 113.205C68.6512 113.573 68.5338 113.993 68.5312 114.422C68.5398 114.792 68.6449 115.154 68.8362 115.472C69.0274 115.789 69.2982 116.051 69.6218 116.232C69.9453 116.413 70.3105 116.506 70.6811 116.502C71.0517 116.499 71.415 116.399 71.735 116.212Z" fill="white"/>
<path d="M101.177 115.209C101.78 115.157 102.341 114.881 102.75 114.435C103.159 113.99 103.386 113.407 103.386 112.802C103.386 112.197 103.159 111.614 102.75 111.169C102.341 110.723 101.78 110.447 101.177 110.395C100.575 110.447 100.013 110.723 99.6045 111.169C99.1956 111.614 98.9688 112.197 98.9688 112.802C98.9688 113.407 99.1956 113.99 99.6045 114.435C100.013 114.881 100.575 115.157 101.177 115.209Z" fill="#F7B9E7"/>
<path d="M29.1558 57.8463C29.8256 57.8295 30.4646 57.5611 30.9456 57.0946C31.4011 56.61 31.6547 55.9699 31.6547 55.3048C31.6547 54.6396 31.4011 53.9996 30.9456 53.515C30.4646 53.0484 29.8256 52.7801 29.1558 52.7632C28.4874 52.7868 27.8508 53.0542 27.366 53.515C26.8964 53.9939 26.6275 54.6341 26.6143 55.3048C26.6311 55.9746 26.8994 56.6136 27.366 57.0946C27.8508 57.5553 28.4874 57.8227 29.1558 57.8463Z" fill="#F7B9E7"/>
<path d="M129.779 154.424V154.298L130.047 153.69C130.136 153.35 130.136 152.992 130.047 152.652C129.976 152.097 129.725 151.581 129.331 151.184C129.007 150.876 128.615 150.649 128.186 150.522C127.521 150.362 126.82 150.451 126.217 150.773L126.074 150.88C125.685 151.1 125.363 151.421 125.143 151.811C124.909 152.206 124.785 152.657 124.785 153.117C124.815 153.788 125.089 154.424 125.555 154.907C126.037 155.372 126.675 155.64 127.345 155.659C127.797 155.656 128.241 155.536 128.633 155.31C129.026 155.084 129.352 154.76 129.582 154.37L129.779 154.424Z" fill="#F7B9E7"/>
<path d="M125.93 22.0324C126.574 21.9786 127.175 21.6847 127.612 21.209C128.05 20.7332 128.293 20.1104 128.293 19.4641C128.293 18.8177 128.05 18.1949 127.612 17.7191C127.175 17.2434 126.574 16.9495 125.93 16.8957C125.286 16.9495 124.686 17.2434 124.248 17.7191C123.81 18.1949 123.567 18.8177 123.567 19.4641C123.567 20.1104 123.81 20.7332 124.248 21.209C124.686 21.6847 125.286 21.9786 125.93 22.0324Z" fill="#F7B9E7"/>
<path d="M171.427 95.7184C171.854 95.7262 172.276 95.6279 172.655 95.4324C173.034 95.2369 173.359 94.9503 173.6 94.5983C173.841 94.2463 173.991 93.84 174.037 93.4157C174.082 92.9915 174.022 92.5626 173.86 92.1676C173.699 91.7725 173.442 91.4237 173.113 91.1524C172.784 90.8811 172.392 90.6958 171.974 90.6131C171.555 90.5304 171.122 90.5529 170.715 90.6786C170.307 90.8044 169.937 91.0293 169.637 91.3334C169.165 91.8103 168.895 92.4518 168.886 93.1232C168.886 93.802 169.155 94.453 169.635 94.933C170.115 95.413 170.766 95.6826 171.445 95.6826L171.427 95.7184Z" fill="#F7B9E7"/>
<path d="M96.4347 143.989C97.1183 143.989 97.7738 143.718 98.2572 143.234C98.7405 142.751 99.012 142.096 99.012 141.412C99.012 140.728 98.7405 140.073 98.2572 139.59C97.7738 139.106 97.1183 138.835 96.4347 138.835C95.7512 138.835 95.0956 139.106 94.6123 139.59C94.129 140.073 93.8574 140.728 93.8574 141.412C93.8574 142.096 94.129 142.751 94.6123 143.234C95.0956 143.718 95.7512 143.989 96.4347 143.989Z" fill="#F7B9E7"/>
</g>
<defs>
<clipPath id="clip0_2288_4959">
<rect width="180" height="180" fill="white"/>
</clipPath>
</defs>
</svg>
