<svg width="180" height="180" viewBox="0 0 180 180" fill="none" xmlns="http://www.w3.org/2000/svg">
<g clip-path="url(#clip0_2288_4858)">
<path d="M177.482 89.991C177.482 138.311 138.311 177.482 89.991 177.482C41.6711 177.482 2.5 138.311 2.5 89.991C2.5 41.6711 41.6711 2.5 89.991 2.5C138.311 2.5 177.482 41.6711 177.482 89.991Z" stroke="white" stroke-width="5"/>
<path d="M144.562 54.7141C144.097 48.4856 139.193 42.6151 135.13 38.2838C131.676 34.7042 127.398 30.1223 122.047 30.2834C121.134 30.2834 118.753 30.2834 118.467 31.5899C118.181 32.8965 121.134 34.1851 121.814 34.9011C123.259 36.0945 124.245 37.7516 124.606 39.5903C124.476 41.5275 124.035 43.4312 123.3 45.2282C122.971 46.1419 122.832 47.1129 122.89 48.0821C122.949 49.0513 123.204 49.9985 123.64 50.8661C124.847 53.0318 126.394 54.9897 128.221 56.665C129.188 57.6315 130.208 58.5622 131.228 59.475C131.801 59.994 133.698 61.1216 133.877 61.8554C134.217 63.162 127.237 63.0367 126.145 63.0725C125.068 63.0686 123.994 63.1827 122.942 63.4125C120.955 63.9316 119.469 65.2023 117.25 64.5043C115.031 63.8063 113.796 62.0523 112.131 60.9247C110.483 59.7938 109.001 58.4383 107.728 56.8977C106.064 54.8573 104.149 54.0161 102.126 55.9491C101.178 56.9104 100.316 57.9524 99.5489 59.0633C96.9878 57.7155 94.169 56.9284 91.28 56.7545C87.1098 56.2533 83.1901 55.8775 79.6285 58.5443H79.5211C78.9331 57.4778 78.2692 56.4549 77.5344 55.4837C76.0131 53.6044 74.277 53.6939 72.4514 55.1616C71.0986 56.4103 69.6097 57.503 68.0127 58.419C66.4376 59.2423 64.9879 60.2088 63.4487 61.0858C62.4282 61.662 61.2601 61.9235 60.0913 61.8375C58.9226 61.7515 57.8053 61.3219 56.8801 60.6026C56.1014 60.1287 55.2482 59.7898 54.3565 59.6003C52.0477 59.0275 49.6493 58.9738 47.3584 58.3116C46.7635 58.1899 46.1942 57.9659 45.676 57.6494C44.978 57.0946 44.9064 57.3451 45.5328 56.7724C46.5764 55.9553 47.6769 55.2136 48.826 54.553C50.9893 53.1331 53.0254 51.5282 54.9113 49.7564C56.4665 48.456 57.5797 46.705 58.0972 44.7449C58.5983 41.7739 56.4864 38.5701 57.6139 35.6707C58.5064 33.9342 59.8553 32.4739 61.5157 31.4467C62.4059 31.0808 63.2623 30.6377 64.0751 30.1223C65.0595 29.2274 64.451 28.4757 63.4308 27.9745C58.6162 25.6478 54.0701 28.7084 50.2042 31.3394C45.0316 34.919 39.6444 39.5545 36.8165 45.2461C35.5172 47.6342 35.1111 50.4071 35.671 53.0675C36.6435 55.9918 38.272 58.6549 40.4319 60.8531C42.7629 63.6508 45.4117 66.1675 48.3249 68.3524C51.0096 70.3212 54.3744 72.5047 57.8466 72.1647C61.3188 71.8246 64.5047 69.6768 67.1894 67.9407C68.7176 66.9393 70.1876 65.8517 71.5923 64.6833C72.4268 63.8805 73.366 63.1941 74.3843 62.6429C74.8346 62.4256 75.3422 62.3566 75.8341 62.446C73.9778 64.9707 72.495 67.7495 71.4312 70.697C70.232 70.9476 69.0507 71.2161 67.8516 71.5382C64.3018 72.3838 61.029 74.1281 58.3477 76.6034C55.4662 79.467 53.8733 83.3509 51.0991 86.3041C49.6918 87.8254 47.9258 88.97 45.9623 89.6331C44.62 90.0805 44.441 89.6331 43.4745 88.774C42.759 88.0191 41.8762 87.4428 40.8972 87.0916C40.6177 87.0207 40.3246 87.0237 40.0465 87.1002C39.7685 87.1767 39.5151 87.3242 39.3112 87.5281C39.1073 87.732 38.9599 87.9853 38.8834 88.2634C38.8069 88.5414 38.8039 88.8345 38.8747 89.114C39.5476 91.0917 40.8487 92.795 42.5796 93.9644C44.4768 95.1815 46.8751 94.2687 48.7365 93.4811C53.1752 91.584 55.8957 88.0044 58.473 84.1205C60.5855 80.4583 63.9866 77.7145 68.0127 76.4244C68.5854 76.2454 69.176 76.1022 69.8025 75.959C68.9453 79.3808 68.4002 82.8733 68.1737 86.3935C62.518 88.1833 57.3097 93.0874 54.1596 97.6335C53.155 99.3837 52.0244 101.059 50.7769 102.645C49.4025 103.965 47.8099 105.037 46.0697 105.813C45.4365 106.271 44.6805 106.53 43.8991 106.555C43.1177 106.581 42.3466 106.372 41.6847 105.956C41.012 105.534 40.2473 105.281 39.4556 105.219C38.664 105.156 37.8691 105.287 37.1386 105.598C35.7963 106.189 36.1006 108.086 37.1386 108.766C39.6981 110.431 43.0271 112.167 46.0876 110.985C49.7468 109.698 52.9714 107.41 55.3946 104.381C57.7571 101.159 59.5111 97.9019 62.5538 95.2531C64.1969 93.9276 66.001 92.815 67.9232 91.9419C67.9232 94.6087 67.9232 97.3113 68.1379 99.9244C68.1379 100.73 68.2453 101.535 68.3169 102.341C64.5844 104.77 61.2209 107.723 58.3298 111.111C55.9399 114.063 52.9744 116.499 49.6135 118.27C48.8145 118.715 47.9151 118.949 47.0004 118.949C46.0858 118.949 45.1863 118.715 44.3873 118.27C42.5326 117.428 40.5778 116.826 38.5705 116.48C37.246 116.319 36.5838 118.27 37.4966 119.075C39.1685 120.411 41.0027 121.529 42.9555 122.404C44.47 123.366 46.2474 123.829 48.0385 123.729C51.8687 123.245 55.8062 120.346 58.5983 117.805C61.3904 115.263 63.9677 111.665 67.1714 109.088C67.7084 108.659 68.2632 108.265 68.8181 107.889C69.4156 113.265 70.5121 118.574 72.0934 123.747C73.8832 129.259 76.7648 134.897 82.2952 137.313C83.5771 137.852 84.9364 138.184 86.3223 138.298C86.1758 138.949 86.1097 139.617 86.1254 140.284C86.2686 142.772 87.593 145.654 90.2777 146.083C90.8743 146.21 91.4944 146.167 92.0675 145.958C92.6131 147.009 93.3728 147.934 94.2975 148.674C95.2223 149.414 96.2917 149.952 97.4369 150.254C98.0278 150.37 98.6358 150.37 99.2267 150.254C99.3579 150.582 99.5457 150.885 99.7816 151.148C100.838 152.125 102.185 152.729 103.616 152.868C105.048 153.007 106.486 152.673 107.71 151.918C108.224 151.511 108.61 150.964 108.82 150.343C110.146 150.988 111.665 151.116 113.08 150.701C115.55 149.949 118.753 147.121 118.306 144.294C120.83 144.437 122.834 141.627 124.087 139.783C125.006 138.597 125.575 137.177 125.73 135.684C125.885 134.192 125.619 132.685 124.964 131.335C124.596 130.738 124.061 130.261 123.424 129.965C122.788 129.669 122.079 129.567 121.384 129.671C118.629 130.261 115.934 131.099 113.33 132.177C113.256 132.205 113.193 132.256 113.148 132.321C113.103 132.387 113.079 132.464 113.079 132.543C113.079 132.623 113.103 132.7 113.148 132.766C113.193 132.831 113.256 132.882 113.33 132.91C114.893 134.047 116.768 134.672 118.7 134.7C117.67 135.266 116.763 136.033 116.035 136.955C115.306 137.877 114.77 138.936 114.458 140.07C114.34 140.552 114.34 141.055 114.458 141.537C111.612 141.824 108.158 142.629 107.084 145.475C106.201 144.88 105.197 144.489 104.144 144.331C103.092 144.173 102.017 144.252 100.999 144.562C100.396 143.63 99.609 142.831 98.6854 142.215C97.7618 141.599 96.7216 141.18 95.6292 140.982C95.2837 140.955 94.9367 140.955 94.5912 140.982C94.3048 139.544 93.804 138.156 93.1056 136.866C94.5137 136.058 95.6055 134.796 96.202 133.286C98.8688 126.7 97.777 119.397 97.9918 112.489C97.9823 112.388 97.9823 112.286 97.9918 112.185C98.2602 112.364 98.5287 112.542 98.7972 112.757C102.198 115.335 104.65 118.789 107.746 121.617C110.602 124.434 114.163 126.431 118.055 127.398C119.805 127.593 121.569 127.196 123.067 126.27C125.172 125.307 127.135 124.06 128.902 122.565C130.137 121.42 128.776 119.827 127.434 120.024C125.444 120.494 123.52 121.21 121.707 122.154C120.927 122.574 120.048 122.776 119.162 122.738C118.277 122.7 117.419 122.424 116.677 121.939C113.331 120.146 110.37 117.714 107.961 114.78C105.173 111.644 101.969 108.905 98.4392 106.636C98.6898 103.271 99.0299 99.8886 99.4057 96.5238C100.844 97.2208 102.206 98.0667 103.469 99.0474C106.325 101.673 108.801 104.685 110.825 107.996C113.161 110.948 116.254 113.212 119.774 114.547C123.138 115.997 126.467 114.44 129.331 112.525C130.351 111.844 130.709 109.929 129.331 109.339C128.652 109.049 127.913 108.924 127.176 108.974C126.439 109.023 125.724 109.247 125.089 109.625C124.432 110.027 123.721 110.334 122.977 110.538C121.952 110.483 120.965 110.135 120.132 109.536C118.394 108.75 116.812 107.659 115.46 106.314C114.243 104.718 113.114 103.057 112.077 101.338C108.988 97.0184 104.848 93.5567 100.05 91.2797C100.229 89.9373 100.39 88.595 100.587 87.2527C100.82 85.4629 101.106 83.6731 101.374 81.8833C104.042 83.4995 106.287 85.7263 107.925 88.3802C110.485 92.103 113.169 95.5394 117.447 97.3292C119.344 98.1167 121.796 99.119 123.711 97.8304C125.389 96.6192 126.642 94.9092 127.291 92.9442C127.36 92.6665 127.357 92.3755 127.281 92.0995C127.206 91.8234 127.06 91.5715 126.858 91.3682C126.657 91.1649 126.406 91.0169 126.131 90.9387C125.855 90.8605 125.565 90.8547 125.286 90.9217C124.419 91.2089 123.633 91.6999 122.995 92.3536C122.494 92.801 121.778 93.7317 121.205 93.8033C119.541 94.036 116.874 92.0135 115.836 90.9754C112.758 88.1476 111.129 84.1205 108.229 81.0778C106.483 79.3126 104.402 77.9131 102.108 76.9613C102.108 76.5318 102.234 76.0843 102.305 75.6548C102.969 71.9534 103.185 68.1857 102.95 64.4327C102.91 64.0953 102.851 63.7606 102.771 63.4304C103.501 63.4697 104.22 63.6269 104.9 63.8958C105.489 64.4336 106.017 65.0337 106.475 65.6856C107.669 67.0195 108.943 68.2806 110.288 69.4621C112.534 71.5933 115.093 73.3678 117.876 74.7241C123.496 77.1582 130.405 72.4868 134.611 69.2115C139.175 65.6677 145.063 61.1216 144.562 54.7141Z" fill="#96CBEB"/>
<path d="M140.535 60.8531C139.075 61.4404 137.471 61.5715 135.935 61.229C135.327 61.0858 135.058 62.0344 135.667 62.1597C137.371 62.5487 139.153 62.3986 140.768 61.7301C141.305 61.4975 141.09 60.6204 140.535 60.8531Z" fill="#35208A"/>
<path d="M120.704 73.9903C119.674 71.3498 119.246 68.5126 119.451 65.6856C119.451 65.0771 118.556 65.095 118.503 65.6856C118.176 68.6364 118.665 71.6202 119.917 74.3124C119.967 74.4001 120.047 74.4662 120.143 74.4982C120.239 74.5303 120.343 74.526 120.436 74.4862C120.529 74.4464 120.604 74.3739 120.647 74.2825C120.689 74.191 120.697 74.087 120.668 73.9903H120.704Z" fill="#35208A"/>
<path d="M120.686 97.5977C121.062 97.186 120.686 96.488 120.686 95.9869C120.675 95.1957 120.542 94.411 120.293 93.6601C120.263 93.6081 120.22 93.5648 120.168 93.5346C120.116 93.5045 120.057 93.4887 119.997 93.4887C119.937 93.4887 119.878 93.5045 119.827 93.5346C119.775 93.5648 119.732 93.6081 119.702 93.6601C119.479 94.6022 119.554 95.5904 119.917 96.488C119.917 96.488 120.382 98.0093 120.74 97.5977H120.686Z" fill="#35208A"/>
<path d="M111.916 92.5147C112.453 92.5147 112.829 91.7809 113.097 91.405L113.724 90.4564C113.879 90.1925 113.999 89.9097 114.082 89.6152L113.867 89.9016H113.527L113.348 89.7405L113.724 89.2572C113.42 89.2572 113.241 89.6689 113.473 89.8658C113.519 89.9119 113.577 89.9452 113.64 89.9623C113.703 89.9795 113.769 89.98 113.832 89.9638C113.896 89.9475 113.953 89.9151 114 89.8696C114.047 89.8242 114.081 89.7674 114.1 89.7047C114.135 89.629 114.153 89.5465 114.153 89.4631C114.153 89.3796 114.135 89.2971 114.1 89.2214C114.065 89.1528 114.011 89.0959 113.944 89.0578C113.877 89.0196 113.801 89.0018 113.724 89.0067C113.607 88.997 113.49 89.0271 113.393 89.0921C113.295 89.157 113.223 89.2531 113.187 89.3646C113.009 89.765 112.806 90.1536 112.578 90.528C112.292 90.9933 111.54 91.8703 111.827 92.4252C111.843 92.4331 111.862 92.4373 111.88 92.4373C111.899 92.4373 111.917 92.4331 111.934 92.4252L111.916 92.5147Z" fill="#35208A"/>
<path d="M122.798 114.422C122.977 113.831 123.085 113.241 123.21 112.632C123.39 112.14 123.44 111.61 123.353 111.093C123.334 111.035 123.301 110.983 123.256 110.942C123.211 110.901 123.157 110.872 123.098 110.857C123.039 110.843 122.977 110.844 122.918 110.86C122.86 110.876 122.806 110.907 122.763 110.95C122.464 111.409 122.297 111.941 122.279 112.489C122.172 113.097 122.047 113.688 121.993 114.279C121.939 114.869 122.673 114.816 122.798 114.386V114.422Z" fill="#35208A"/>
<path d="M110.197 106.404C110.734 106.404 111.039 105.58 111.307 105.186C111.826 104.615 112.316 104.018 112.775 103.397C112.815 103.319 112.829 103.231 112.816 103.144C112.803 103.058 112.762 102.978 112.7 102.916C112.638 102.854 112.559 102.814 112.472 102.801C112.386 102.787 112.297 102.802 112.22 102.842C111.462 103.384 110.848 104.103 110.43 104.936C110.341 105.079 109.589 106.421 110.18 106.404H110.197Z" fill="#35208A"/>
<path d="M120.507 126.915C120.542 126.402 120.542 125.888 120.507 125.375C120.486 124.924 120.402 124.478 120.257 124.051C120.078 123.639 119.523 123.908 119.487 124.266C119.479 124.718 119.533 125.17 119.648 125.608C119.698 126.104 119.788 126.594 119.917 127.076C119.917 127.156 119.949 127.234 120.006 127.291C120.063 127.348 120.14 127.38 120.221 127.38C120.302 127.38 120.379 127.348 120.436 127.291C120.493 127.234 120.525 127.156 120.525 127.076L120.507 126.915Z" fill="#35208A"/>
<path d="M107.925 121.241C108.205 120.419 108.38 119.565 108.444 118.699C108.746 117.963 108.88 117.168 108.837 116.373C108.825 116.324 108.799 116.279 108.763 116.243C108.727 116.207 108.682 116.181 108.633 116.169C108.583 116.156 108.532 116.157 108.483 116.17C108.434 116.184 108.389 116.211 108.354 116.247C107.746 116.749 107.656 117.858 107.513 118.61C107.265 119.44 107.222 120.319 107.388 121.169C107.415 121.214 107.453 121.25 107.499 121.276C107.544 121.301 107.595 121.315 107.647 121.315C107.699 121.315 107.751 121.301 107.796 121.276C107.841 121.25 107.88 121.214 107.907 121.169L107.925 121.241Z" fill="#35208A"/>
<path d="M79.6819 65.1307C79.4402 65.1175 79.2036 65.0553 78.9866 64.948C78.7696 64.8407 78.5766 64.6904 78.4194 64.5064C78.2621 64.3223 78.1438 64.1083 78.0716 63.8772C77.9994 63.6461 77.9749 63.4028 77.9995 63.162C78.0128 62.9202 78.0749 62.6837 78.1822 62.4667C78.2896 62.2497 78.4398 62.0567 78.6238 61.8994C78.8079 61.7422 79.0219 61.6239 79.253 61.5517C79.4841 61.4795 79.7274 61.455 79.9683 61.4795C80.4429 61.5175 80.8831 61.7425 81.1919 62.105C81.5007 62.4675 81.6528 62.9379 81.6149 63.4125C81.5769 63.8872 81.3519 64.3274 80.9894 64.6362C80.6269 64.945 80.1566 65.0971 79.6819 65.0591V65.1307Z" fill="#35208A"/>
<path d="M98.2417 66.5626C97.7728 66.5129 97.3423 66.2801 97.0441 65.9147C96.7458 65.5494 96.6037 65.0812 96.6488 64.6117C96.681 64.2619 96.8154 63.9293 97.0352 63.6554C97.255 63.3814 97.5506 63.1782 97.8851 63.0711C98.2197 62.9639 98.5783 62.9576 98.9164 63.0528C99.2545 63.1481 99.5571 63.3407 99.7865 63.6067C100.016 63.8727 100.162 64.2003 100.206 64.5488C100.251 64.8972 100.192 65.251 100.037 65.5661C99.8817 65.8813 99.6372 66.1438 99.334 66.321C99.0307 66.4982 98.6819 66.5822 98.3312 66.5626H98.2417Z" fill="#35208A"/>
<path d="M85.9103 59.5824C85.9747 59.6127 86.045 59.6284 86.1162 59.6284C86.1873 59.6284 86.2576 59.6127 86.322 59.5824C87.1114 58.8993 88.124 58.5299 89.1678 58.5443C90.2709 58.7309 91.2725 59.3014 91.9957 60.1551C92.0703 60.2135 92.1621 60.2456 92.2569 60.2464C92.3517 60.2471 92.444 60.2166 92.5196 60.1594C92.5952 60.1022 92.6497 60.0216 92.6747 59.9302C92.6997 59.8388 92.6938 59.7417 92.6579 59.654C91.6019 57.1303 87.7001 57.1303 85.9103 59.0633C85.8619 59.1346 85.8359 59.2188 85.8359 59.3049C85.8359 59.3911 85.8619 59.4753 85.9103 59.5466V59.5824Z" fill="#35208A"/>
<path d="M71.8959 72.2899C74.6164 76.0127 80.4869 76.4602 84.675 77.0329C87.4291 77.4054 90.2014 77.6264 92.9797 77.6951C95.8583 77.9721 98.7632 77.7235 101.553 76.9613C102.143 76.7465 101.893 75.7801 101.284 76.0127C96.7025 77.6414 90.7603 76.8718 86.0174 76.2991C81.6503 75.7801 75.6723 75.3684 72.5581 71.8783C72.2538 71.5203 71.6095 72.0036 71.8959 72.3794V72.2899Z" fill="#35208A"/>
<path d="M69.0866 86.9126C71.0878 88.315 73.3628 89.2787 75.7625 89.7405C78.3454 90.4319 80.9884 90.8754 83.6555 91.0649C86.4083 91.2561 89.1735 91.1601 91.9065 90.7786C94.4941 90.589 97.0274 89.9405 99.3878 88.8635C99.7816 88.6487 99.4952 88.1475 99.1194 88.2012C96.4347 88.595 93.8753 89.5615 91.1548 89.8837C88.7791 90.1631 86.3837 90.235 83.9956 90.0984C81.4091 89.9497 78.8434 89.5481 76.3352 88.8993C73.9548 88.2907 71.6102 87.0021 69.176 86.6262C69.015 86.6262 68.8539 86.7873 69.015 86.9126H69.0866Z" fill="#35208A"/>
<path d="M68.9788 100.873C72.7911 103.701 78.4111 104.685 83.0288 105.025C87.6464 105.365 93.4812 105.222 97.5619 103.039C97.9736 102.824 97.6693 102.305 97.2756 102.359C94.8772 102.717 92.5684 103.576 90.1164 103.88C87.7411 104.167 85.3438 104.227 82.9572 104.059C80.5362 103.871 78.1389 103.451 75.798 102.806C73.5249 102.18 71.3951 101.124 69.1399 100.461C68.8894 100.461 68.782 100.73 68.9609 100.873H68.9788Z" fill="#35208A"/>
<path d="M70.4825 115.245C71.3058 116.659 73.2746 116.731 74.7422 117.035C77.1137 117.398 79.504 117.625 81.9014 117.715C87.0095 117.87 92.1176 117.407 97.1147 116.337C97.7411 116.212 97.4727 115.299 96.8641 115.406C92.3129 116.243 87.6922 116.645 83.0648 116.605C78.8728 116.78 74.685 116.173 70.7152 114.816C70.5362 114.816 70.393 114.977 70.4825 115.12V115.245Z" fill="#35208A"/>
<path d="M74.975 129.975C78.7197 131.037 82.6144 131.473 86.5013 131.264C88.2669 131.178 90.0248 130.975 91.7633 130.655C92.8014 130.44 93.8395 130.208 94.8597 129.904L96.381 129.438C97.079 129.438 97.3117 129.188 97.079 128.615C96.7568 128.776 96.9358 129.223 97.2401 129.241H97.3833C97.4615 129.24 97.5371 129.213 97.5985 129.164C97.6599 129.116 97.7038 129.049 97.7233 128.973V128.812C97.7507 128.703 97.7341 128.587 97.6772 128.49C97.6204 128.393 97.5276 128.322 97.4191 128.293C96.2199 128.042 94.9133 128.848 93.8395 129.17C91.7054 129.73 89.5248 130.096 87.3246 130.261C83.24 130.502 79.1424 130.122 75.1719 129.134C75.1166 129.119 75.0589 129.114 75.0021 129.121C74.9452 129.128 74.8902 129.147 74.8404 129.175C74.7397 129.232 74.6658 129.327 74.6349 129.438C74.6041 129.55 74.6188 129.669 74.6759 129.77C74.7329 129.87 74.8276 129.944 74.9392 129.975H74.975Z" fill="#35208A"/>
<path d="M92.9621 145.457C93.2484 144.938 93.4095 144.347 93.678 143.828C93.9927 143.359 94.2738 142.869 94.5192 142.361C94.5344 142.285 94.5278 142.206 94.5004 142.134C94.473 142.062 94.4257 141.998 94.3641 141.952C94.3025 141.905 94.2289 141.877 94.1519 141.87C94.0748 141.863 93.9974 141.878 93.9286 141.913C93.4479 142.336 93.0895 142.88 92.8905 143.488C92.5999 144.042 92.435 144.653 92.4072 145.278C92.4096 145.342 92.432 145.403 92.4714 145.454C92.5107 145.504 92.565 145.541 92.6265 145.559C92.6879 145.577 92.7534 145.575 92.8136 145.553C92.8739 145.532 92.9258 145.492 92.9621 145.439V145.457Z" fill="#35208A"/>
<path d="M100.73 149.001C100.888 148.592 101.02 148.173 101.124 147.748C101.29 147.287 101.513 146.848 101.786 146.441C102.126 145.94 101.303 145.475 100.981 145.976C100.327 146.814 100.02 147.871 100.122 148.929C100.15 148.986 100.193 149.033 100.247 149.066C100.301 149.1 100.363 149.117 100.426 149.117C100.489 149.117 100.551 149.1 100.605 149.066C100.659 149.033 100.702 148.986 100.73 148.929V149.001Z" fill="#35208A"/>
<path d="M108.819 149.18C108.676 148.36 108.473 147.553 108.211 146.763C108.178 146.647 108.1 146.549 107.994 146.49C107.888 146.431 107.763 146.417 107.647 146.45C107.531 146.483 107.433 146.562 107.374 146.667C107.315 146.773 107.301 146.898 107.334 147.014C107.495 147.838 107.729 148.647 108.032 149.43C108.071 149.522 108.141 149.597 108.231 149.641C108.321 149.685 108.424 149.694 108.52 149.668C108.616 149.642 108.7 149.582 108.755 149.498C108.81 149.415 108.833 149.314 108.819 149.215V149.18Z" fill="#35208A"/>
<path d="M115.334 141.716C115.818 142.146 116.319 142.54 116.82 142.951C117.217 143.375 117.698 143.711 118.234 143.936C118.305 143.953 118.38 143.948 118.449 143.923C118.519 143.898 118.579 143.853 118.623 143.794C118.666 143.735 118.692 143.664 118.696 143.591C118.7 143.517 118.683 143.444 118.646 143.381C118.295 142.881 117.844 142.461 117.321 142.146C116.856 141.77 116.372 141.376 115.889 141.018C115.406 140.66 114.959 141.376 115.334 141.716Z" fill="#35208A"/>
<path d="M119.452 135.345C120.013 135.348 120.569 135.237 121.086 135.018C121.603 134.8 122.07 134.479 122.458 134.074C122.494 134.005 122.509 133.927 122.502 133.85C122.495 133.773 122.466 133.7 122.42 133.638C122.373 133.577 122.31 133.529 122.238 133.502C122.165 133.474 122.087 133.468 122.011 133.483C121.563 133.626 121.223 133.948 120.794 134.127C120.326 134.322 119.84 134.472 119.344 134.575C119.255 134.603 119.179 134.661 119.129 134.74C119.079 134.819 119.058 134.913 119.071 135.005C119.084 135.098 119.129 135.183 119.199 135.245C119.269 135.307 119.358 135.342 119.452 135.345Z" fill="#35208A"/>
<path d="M38.3736 55.8417C39.8722 56.7516 41.6198 57.165 43.3672 57.023C43.9936 57.023 43.9936 55.9849 43.3672 56.0386C41.7925 56.1835 40.2114 55.8397 38.839 55.0542C38.737 55.0172 38.6252 55.017 38.5231 55.0536C38.4209 55.0903 38.3348 55.1615 38.2796 55.2549C38.2244 55.3483 38.2035 55.4581 38.2207 55.5653C38.2379 55.6724 38.292 55.7702 38.3736 55.8417Z" fill="#35208A"/>
<path d="M57.3809 71.1982C58.9944 68.7031 59.8864 65.8103 59.9582 62.8398C59.9582 62.2313 59.0454 62.2313 59.0275 62.8398C58.8411 65.6259 58.0339 68.3349 56.665 70.7686C56.608 70.8636 56.5911 70.9772 56.6179 71.0846C56.6448 71.1921 56.7132 71.2844 56.8081 71.3414C56.9031 71.3983 57.0168 71.4152 57.1242 71.3884C57.2316 71.3615 57.3239 71.2931 57.3809 71.1982Z" fill="#35208A"/>
<path d="M45.7113 93.7496C46.3377 93.6244 46.4451 92.6221 46.5525 92.0851C46.7933 91.3405 46.7933 90.5389 46.5525 89.7942C46.5228 89.7421 46.4798 89.6988 46.4279 89.6687C46.376 89.6386 46.3171 89.6227 46.2572 89.6227C46.1972 89.6227 46.1383 89.6386 46.0864 89.6687C46.0346 89.6988 45.9916 89.7421 45.9619 89.7942C45.7938 90.1835 45.7143 90.6053 45.7292 91.0292C45.6792 91.5756 45.6016 92.1193 45.4965 92.6579C45.4965 92.7653 45.2101 93.8391 45.6576 93.7496H45.7113Z" fill="#35208A"/>
<path d="M54.4453 88.5055C54.7138 87.9328 53.9621 87.0558 53.6757 86.6083C53.3893 86.1609 53.4251 86.2325 53.3177 86.0356C53.2103 85.8387 53.1746 85.6776 53.0851 85.4987C53.0475 85.3805 52.9737 85.2771 52.8741 85.2032C52.7745 85.1294 52.6542 85.0887 52.5302 85.087C52.4521 85.0883 52.3755 85.1085 52.3069 85.1459C52.2383 85.1833 52.1799 85.2368 52.1365 85.3018C52.1013 85.3775 52.083 85.4599 52.083 85.5434C52.083 85.6269 52.1013 85.7093 52.1365 85.785C52.1553 85.8492 52.1902 85.9076 52.2379 85.9546C52.2856 86.0016 52.3444 86.0356 52.4089 86.0535C52.4734 86.0715 52.5414 86.0726 52.6065 86.057C52.6715 86.0413 52.7315 86.0093 52.7808 85.964C52.8363 85.9152 52.8753 85.8503 52.8925 85.7784C52.9097 85.7065 52.9042 85.631 52.8767 85.5623C52.8492 85.4937 52.8012 85.4352 52.7391 85.3949C52.6771 85.3547 52.6041 85.3347 52.5302 85.3376L52.8882 85.8208L52.7092 85.9998H52.3691C52.2439 85.9998 52.3691 86.2504 52.3691 86.2683C52.452 86.4194 52.5478 86.5632 52.6555 86.6978L53.2819 87.6285C53.5504 87.9865 53.9084 88.6666 54.4095 88.6487C54.4263 88.6567 54.4446 88.6608 54.4632 88.6608C54.4818 88.6608 54.5001 88.6567 54.5169 88.6487L54.4453 88.5055Z" fill="#35208A"/>
<path d="M44.5122 110.448C44.5122 109.858 44.3153 109.267 44.19 108.659C44.1745 108.108 44.0005 107.574 43.6889 107.119C43.6474 107.076 43.5952 107.045 43.5377 107.028C43.4801 107.011 43.4191 107.01 43.361 107.025C43.3029 107.039 43.2496 107.069 43.2066 107.111C43.1636 107.153 43.1324 107.205 43.1162 107.263C43.0276 107.781 43.0833 108.313 43.2772 108.802C43.4025 109.392 43.5099 109.983 43.6889 110.592C43.8679 111.2 44.5659 110.967 44.5122 110.484V110.448Z" fill="#35208A"/>
<path d="M56.3254 102.341C56.6655 101.857 55.9675 100.98 55.7169 100.551C55.3326 99.8438 54.7944 99.2321 54.1419 98.761C54.0625 98.7158 53.9704 98.6983 53.8799 98.7112C53.7895 98.724 53.7059 98.7666 53.6424 98.8323C53.5788 98.8979 53.5389 98.9828 53.5288 99.0736C53.5188 99.1643 53.5393 99.2559 53.587 99.3338C53.8443 99.6862 54.1317 100.016 54.4461 100.318C54.7618 100.664 55.0491 101.036 55.3052 101.428C55.3947 101.553 56.0212 102.663 56.3254 102.233V102.341Z" fill="#35208A"/>
<path d="M46.7313 123.12C46.8745 122.664 46.9822 122.197 47.0535 121.724C47.1629 121.285 47.211 120.834 47.1967 120.382C47.2037 120.33 47.2005 120.278 47.1872 120.227C47.174 120.177 47.1509 120.129 47.1193 120.088C47.0555 120.004 46.961 119.949 46.8566 119.934C46.7522 119.92 46.6464 119.948 46.5624 120.012C46.4785 120.076 46.4234 120.17 46.4092 120.274C46.2656 120.701 46.1931 121.149 46.1944 121.599C46.1592 122.076 46.1592 122.554 46.1944 123.031C46.1825 123.111 46.2032 123.194 46.2519 123.259C46.3005 123.324 46.3732 123.368 46.4539 123.38C46.5346 123.392 46.6167 123.371 46.6822 123.322C46.7476 123.274 46.791 123.201 46.8029 123.12H46.7313Z" fill="#35208A"/>
<path d="M59.1532 117.16C59.3469 116.296 59.3161 115.396 59.0638 114.547C58.9027 113.777 58.8132 112.757 58.1868 112.185C58.1515 112.148 58.1072 112.121 58.0583 112.107C58.0094 112.094 57.9577 112.093 57.9085 112.106C57.8593 112.119 57.8144 112.144 57.7784 112.18C57.7423 112.216 57.7165 112.261 57.7035 112.31C57.6805 113.107 57.8269 113.9 58.1331 114.637C58.2073 115.498 58.3939 116.347 58.6879 117.16C58.7953 117.393 59.1175 117.303 59.189 117.16H59.1532Z" fill="#35208A"/>
<path d="M104.059 25.5046C104.059 25.4151 104.059 25.3435 104.059 25.3077C103.54 24.2876 101.607 24.0907 100.64 23.9117C99.0652 23.5895 97.4543 23.4106 95.8614 23.1958L95.0739 23.0884C94.9665 23.0884 94.7875 22.981 94.8054 23.0884C94.604 22.7374 94.4419 22.3653 94.3222 21.9787C93.66 20.4395 93.0335 18.8824 92.3534 17.3431C92.0133 16.5735 91.6733 15.786 91.2974 15.0343C91.0648 14.551 90.8142 13.674 90.2772 13.4414C89.1139 12.9402 88.3085 15.8039 87.9863 16.5019C87.2525 18.1664 86.5545 19.8489 85.8385 21.5134C85.6954 21.8534 85.4448 22.8736 85.1226 23.1063C84.6166 23.154 84.1073 23.154 83.6013 23.1063L81.4714 23.2853C80.2636 23.3693 79.0656 23.561 77.8918 23.858C77.1938 24.0728 75.9231 24.4128 76.102 25.3793C76.281 26.3458 77.4265 26.9365 77.8918 27.3839C78.8396 28.1271 79.8384 28.8029 80.8808 29.4064C81.4078 29.6354 81.9165 29.9046 82.4021 30.2118C82.957 30.6234 82.6885 31.0709 82.5453 31.6615C82.2231 32.8607 81.901 34.0777 81.5967 35.2411C81.2925 36.4045 81.1314 37.2457 80.9703 38.248C80.7922 38.9407 80.7922 39.6672 80.9703 40.3599C81.7041 41.9171 84.5499 39.1966 85.1942 38.6596C85.8385 38.1227 86.8766 37.3352 87.682 36.6372C88.0937 36.2971 88.4874 35.9391 88.8633 35.5812C89.2392 35.2232 89.6508 34.6326 89.9372 34.5789C90.2235 34.5252 91.6196 35.9928 91.9955 36.3687C92.8307 37.0846 93.6898 37.7826 94.5728 38.4628C95.6964 39.6002 97.1163 40.4001 98.6714 40.7716C100.05 40.8969 99.3873 38.8207 99.2083 37.9795C98.7609 36.0286 98.1345 34.0956 97.5438 32.1806C97.4185 31.7689 97.2575 31.3394 97.168 30.9098C97.0785 30.4803 97.168 30.4803 97.4722 30.2476C98.2418 29.7822 99.1725 29.4959 99.96 29.1021C101.249 28.4578 103.808 27.3123 104.184 25.6836C104.162 25.6123 104.118 25.5498 104.059 25.5046Z" fill="#F7B9E7"/>
<path d="M68.7278 148.714C66.5621 148.553 64.4323 148.553 62.1592 148.553L63.949 146.763C64.9979 145.862 65.9033 144.806 66.6337 143.631C66.6951 143.516 66.7179 143.384 66.6987 143.255C66.6795 143.126 66.6193 143.007 66.5271 142.915C66.4348 142.822 66.3154 142.762 66.1863 142.743C66.0573 142.724 65.9255 142.747 65.8104 142.808C64.6255 143.51 63.5568 144.391 62.6425 145.421L60.7274 147.211C60.7274 146.316 60.7274 145.421 60.7274 144.544C60.8363 143.158 60.7276 141.763 60.4052 140.41C60.367 140.285 60.2898 140.176 60.1851 140.099C60.0804 140.022 59.9537 139.98 59.8235 139.98C59.6934 139.98 59.5666 140.022 59.4619 140.099C59.3572 140.176 59.2801 140.285 59.2418 140.41C58.9099 141.761 58.7832 143.155 58.866 144.544C58.866 145.421 58.866 146.334 58.866 147.193L56.9688 145.296C56.0743 144.247 55.024 143.341 53.8546 142.611C53.7392 142.542 53.6042 142.513 53.4707 142.529C53.3372 142.545 53.2126 142.604 53.1165 142.698C53.0205 142.792 52.9582 142.916 52.9396 143.049C52.9209 143.182 52.9468 143.318 53.0134 143.434C53.7329 144.675 54.6383 145.797 55.698 146.763L57.4878 148.661H54.8031C53.4235 148.554 52.0356 148.657 50.6866 148.965C50.5622 149.003 50.4533 149.08 50.3759 149.185C50.2986 149.29 50.2568 149.416 50.2568 149.547C50.2568 149.677 50.2986 149.803 50.3759 149.908C50.4533 150.013 50.5622 150.09 50.6866 150.128C52.0311 150.466 53.419 150.599 54.8031 150.522H57.3984C55.8054 152.025 54.1946 153.547 52.7628 155.193C52.6269 155.368 52.5592 155.586 52.5722 155.807C52.5852 156.028 52.678 156.237 52.8335 156.395C52.9889 156.552 53.1963 156.648 53.417 156.664C53.6378 156.68 53.8569 156.615 54.0335 156.482C55.6802 155.086 57.2194 153.529 58.7407 151.972C58.7407 154.155 58.6154 156.339 58.7407 158.505C58.7823 158.711 58.8941 158.897 59.0572 159.031C59.2204 159.164 59.4247 159.237 59.6356 159.237C59.8465 159.237 60.0508 159.164 60.214 159.031C60.3771 158.897 60.4889 158.711 60.5305 158.505C60.7095 156.357 60.6916 154.155 60.6558 151.99C62.1592 153.565 63.6805 155.175 65.3093 156.589C65.4778 156.758 65.7063 156.853 65.9446 156.853C66.183 156.853 66.4115 156.758 66.58 156.589C66.7485 156.421 66.8432 156.192 66.8432 155.954C66.8432 155.716 66.7485 155.487 66.58 155.319C65.2019 153.654 63.6269 152.133 62.0697 150.594C64.2533 150.594 66.4547 150.719 68.6025 150.594C68.8517 150.61 69.0973 150.527 69.2853 150.363C69.4732 150.198 69.5882 149.966 69.6048 149.717C69.6214 149.467 69.5383 149.222 69.3739 149.034C69.2094 148.846 68.977 148.731 68.7278 148.714Z" fill="white"/>
<path d="M70.1241 14.9627C70.6742 14.9285 71.1943 14.7002 71.5918 14.3184C71.9905 13.9048 72.2148 13.3536 72.2182 12.7792C72.2093 12.2164 71.9851 11.6784 71.5918 11.2757C71.1834 10.8746 70.6339 10.6498 70.0615 10.6498C69.4891 10.6498 68.9395 10.8746 68.5312 11.2757C68.1301 11.6841 67.9053 12.2336 67.9053 12.806C67.9053 13.3784 68.1301 13.9279 68.5312 14.3363C68.9497 14.7274 69.4977 14.9505 70.0704 14.9627H70.1241Z" fill="white"/>
<path d="M107.388 42.4182L107.62 42.5435C110.162 44.0469 110.162 38.6954 107.62 40.1989L107.388 40.3242C107.206 40.4319 107.055 40.5851 106.951 40.7686C106.846 40.9522 106.791 41.1599 106.791 41.3712C106.791 41.5825 106.846 41.7901 106.951 41.9737C107.055 42.1573 107.206 42.3105 107.388 42.4182Z" fill="white"/>
<path d="M121.886 21.746C122.131 21.6681 122.365 21.5598 122.584 21.4239C122.926 21.2257 123.209 20.9411 123.407 20.5987C123.604 20.2563 123.708 19.8681 123.708 19.473C123.708 19.0779 123.604 18.6897 123.407 18.3473C123.209 18.0049 122.926 17.7203 122.584 17.5221C122.365 17.3862 122.131 17.2779 121.886 17.2C121.485 17.0808 121.059 17.0746 120.655 17.182C120.25 17.2893 119.884 17.5061 119.595 17.8085C119.16 18.2533 118.916 18.8508 118.916 19.473C118.916 20.0952 119.16 20.6927 119.595 21.1375C119.889 21.4318 120.256 21.643 120.658 21.7499C121.061 21.8567 121.484 21.8554 121.886 21.746Z" fill="white"/>
<path d="M157.878 56.9514C158.314 56.8383 158.714 56.6166 159.041 56.307C159.255 56.1001 159.425 55.8526 159.542 55.5791C159.659 55.3056 159.72 55.0115 159.721 54.7141C159.72 54.414 159.659 54.1172 159.542 53.8407C159.426 53.5642 159.255 53.3136 159.041 53.1033C158.718 52.7927 158.315 52.5762 157.878 52.4769C157.532 52.378 157.167 52.3608 156.813 52.4267C156.459 52.4926 156.125 52.6397 155.838 52.8566C155.55 53.0735 155.317 53.3541 155.156 53.6765C154.996 53.9988 154.912 54.354 154.912 54.7141C154.912 55.0743 154.996 55.4295 155.156 55.7518C155.317 56.0741 155.55 56.3548 155.838 56.5716C156.125 56.7885 156.459 56.9357 156.813 57.0016C157.167 57.0675 157.532 57.0503 157.878 56.9514Z" fill="white"/>
<path d="M140.786 85.1049C141.082 85.0984 141.377 85.0563 141.663 84.9796C142.128 84.8345 142.539 84.5541 142.844 84.1742C143.154 83.7812 143.324 83.2963 143.327 82.7961C143.309 82.4003 143.198 82.0144 143.005 81.6685C142.707 81.1634 142.227 80.7919 141.663 80.6304C141.377 80.548 141.083 80.4999 140.786 80.4872C140.327 80.4852 139.877 80.6201 139.495 80.8748C139.113 81.1295 138.816 81.4923 138.641 81.917C138.466 82.3416 138.422 82.8087 138.514 83.2586C138.606 83.7085 138.83 84.1208 139.157 84.4427C139.37 84.6573 139.624 84.8267 139.904 84.9405C140.184 85.0543 140.484 85.1102 140.786 85.1049Z" fill="white"/>
<path d="M160.116 104.65C160.733 104.65 161.325 104.404 161.761 103.968C162.197 103.532 162.443 102.94 162.443 102.323C162.443 101.706 162.197 101.114 161.761 100.678C161.325 100.241 160.733 99.996 160.116 99.996C159.499 99.996 158.907 100.241 158.471 100.678C158.034 101.114 157.789 101.706 157.789 102.323C157.789 102.94 158.034 103.532 158.471 103.968C158.907 104.404 159.499 104.65 160.116 104.65Z" fill="white"/>
<path d="M148.196 131.192C148.44 131.194 148.68 131.132 148.894 131.013C149.107 130.893 149.286 130.721 149.413 130.512C149.524 130.361 149.609 130.191 149.663 130.011C149.682 129.862 149.682 129.712 149.663 129.563C149.663 129.796 149.663 129.868 149.663 129.742C149.663 129.617 149.663 129.313 149.663 129.51C149.729 129.273 149.746 129.026 149.712 128.782C149.678 128.539 149.594 128.305 149.466 128.096C149.272 127.716 148.948 127.417 148.554 127.255C147.945 127.109 147.303 127.205 146.764 127.523C146.211 127.876 145.795 128.406 145.582 129.027C145.431 129.547 145.431 130.099 145.582 130.619C145.774 131.295 146.224 131.867 146.835 132.212C147.341 132.478 147.925 132.554 148.482 132.427C148.795 132.339 149.083 132.18 149.325 131.963C149.567 131.746 149.756 131.476 149.878 131.174C149.993 130.915 150.053 130.635 150.053 130.351C150.053 130.067 149.993 129.787 149.878 129.528C149.751 129.232 149.56 128.967 149.318 128.754C149.077 128.54 148.791 128.383 148.482 128.293L148.983 128.508H148.858L149.287 128.83L149.61 129.259C149.555 129.18 149.507 129.096 149.466 129.009L149.681 129.51V129.313V129.868V129.617V130.154V129.957L149.484 130.423C149.507 130.365 149.537 130.311 149.574 130.262L149.269 130.655L149.377 130.548L148.733 130.655H148.858L148.41 130.834C148.779 130.732 149.117 130.542 149.395 130.279L147.873 130.476C147.751 130.399 147.647 130.295 147.569 130.172V130.047C147.569 130.047 147.569 130.244 147.569 130.047C147.569 129.85 147.569 130.047 147.569 129.921C147.569 129.796 147.569 129.921 147.569 129.921C147.573 129.862 147.573 129.802 147.569 129.742C147.569 129.635 147.569 129.742 147.569 129.742C146.996 130.226 147.569 131.103 148.142 131.138L148.196 131.192Z" fill="white"/>
<path d="M108.873 164.894C109.037 164.742 109.193 164.581 109.338 164.411C109.754 163.975 109.996 163.402 110.019 162.8C110.012 162.195 109.768 161.616 109.338 161.189C109.127 160.978 108.876 160.81 108.6 160.696C108.323 160.583 108.027 160.525 107.728 160.527H107.137C106.751 160.63 106.399 160.834 106.117 161.118C105.948 161.265 105.793 161.427 105.651 161.601C105.232 162.033 104.995 162.61 104.989 163.212C104.989 163.815 105.227 164.394 105.651 164.823C106.083 165.242 106.66 165.479 107.262 165.485C107.86 165.461 108.431 165.226 108.873 164.823V164.894Z" fill="white"/>
<path d="M41.8808 134.378L42.0419 134.253C42.4202 133.865 42.6319 133.345 42.6319 132.803C42.6319 132.261 42.4202 131.741 42.0419 131.353L41.8808 131.228C41.5687 130.913 41.1701 130.698 40.7356 130.61C40.3011 130.522 39.8503 130.565 39.4403 130.734C39.0304 130.903 38.6798 131.19 38.4331 131.558C38.1864 131.926 38.0547 132.36 38.0547 132.803C38.0547 133.246 38.1864 133.68 38.4331 134.048C38.6798 134.416 39.0304 134.703 39.4403 134.872C39.8503 135.041 40.3011 135.084 40.7356 134.996C41.1701 134.908 41.5687 134.693 41.8808 134.378Z" fill="white"/>
<path d="M13.7991 113.384V113.294L14.0318 113.849C13.8819 113.324 13.548 112.871 13.0911 112.571C12.6343 112.272 12.0851 112.148 11.544 112.22C11.0566 112.28 10.603 112.5 10.2553 112.847C9.84779 113.281 9.60689 113.845 9.5752 114.44V114.547C9.58359 114.95 9.69489 115.344 9.89851 115.692C10.1021 116.039 10.3913 116.329 10.7386 116.534C11.1783 116.785 11.6885 116.885 12.1904 116.817C12.6924 116.75 13.1583 116.52 13.5164 116.162C13.8746 115.803 14.105 115.338 14.1722 114.836C14.2395 114.334 14.1398 113.823 13.8886 113.384H13.7991Z" fill="white"/>
<path d="M30.1225 86.8589C30.4535 86.8646 30.7823 86.8043 31.0896 86.6813C31.3969 86.5584 31.6766 86.3754 31.9123 86.143C32.3735 85.6615 32.6301 85.0199 32.6282 84.3532C32.636 84.022 32.5766 83.6926 32.4535 83.385C32.3305 83.0774 32.1464 82.7979 31.9123 82.5634C31.6766 82.331 31.3969 82.148 31.0896 82.025C30.7823 81.9021 30.4535 81.8417 30.1225 81.8475C29.7913 81.8397 29.4619 81.8991 29.1543 82.0222C28.8467 82.1452 28.5672 82.3293 28.3327 82.5634C28.0952 82.7953 27.9088 83.0744 27.7855 83.3826C27.6622 83.6908 27.6047 84.0214 27.6168 84.3532C27.6069 84.6847 27.6654 85.0147 27.7885 85.3226C27.9117 85.6305 28.097 85.9098 28.3327 86.143C28.8122 86.6074 29.4551 86.8646 30.1225 86.8589Z" fill="white"/>
<path d="M23.1598 57.9358C23.7618 57.93 24.3386 57.6929 24.7706 57.2736C25.0899 56.9556 25.3075 56.55 25.3958 56.1081C25.4841 55.6663 25.4391 55.2081 25.2665 54.7919C25.0938 54.3757 24.8014 54.0202 24.4263 53.7705C24.0512 53.5208 23.6104 53.3883 23.1598 53.3897C22.5635 53.3982 21.9933 53.6352 21.5668 54.0519C21.1425 54.4821 20.8991 55.0586 20.8867 55.6627C20.9004 56.2613 21.1442 56.8315 21.5676 57.2549C21.991 57.6782 22.5612 57.9221 23.1598 57.9358Z" fill="white"/>
<path d="M70.3573 45.443V45.2998C70.4576 44.916 70.4558 44.5127 70.352 44.1298C70.2482 43.7469 70.046 43.3979 69.7655 43.1174C69.485 42.8369 69.136 42.6347 68.7531 42.5309C68.3702 42.4271 67.9669 42.4253 67.5831 42.5256H67.4399C67.0442 42.6342 66.6839 42.8448 66.395 43.1363C66.1062 43.4278 65.8989 43.79 65.7939 44.1867C65.6889 44.5834 65.6898 45.0007 65.7966 45.3969C65.9034 45.7931 66.1124 46.1544 66.4026 46.4445C66.6927 46.7347 67.054 46.9437 67.4502 47.0505C67.8464 47.1573 68.2637 47.1582 68.6604 47.0532C69.0571 46.9482 69.4193 46.7409 69.7108 46.4521C70.0023 46.1632 70.2129 45.8029 70.3215 45.4072L70.3573 45.443Z" fill="#FFF896"/>
<path d="M160.867 84.2458C161.196 84.2549 161.525 84.1978 161.832 84.0779C162.14 83.9581 162.42 83.7778 162.656 83.5478C162.892 83.3146 163.077 83.0353 163.201 82.7274C163.324 82.4195 163.382 82.0895 163.372 81.758C163.364 81.1196 163.107 80.5096 162.656 80.0577C162.318 79.729 161.89 79.5068 161.427 79.4183C160.963 79.3299 160.484 79.3791 160.048 79.5599C159.612 79.7407 159.239 80.0453 158.974 80.4359C158.709 80.8265 158.564 81.2861 158.558 81.758C158.548 82.0895 158.606 82.4195 158.729 82.7274C158.853 83.0353 159.038 83.3146 159.274 83.5478C159.725 83.9863 160.327 84.236 160.956 84.2458H160.867Z" fill="#FFF896"/>
<path d="M134.95 159.185L135.076 159.059C135.537 158.577 135.799 157.937 135.81 157.27C135.812 156.934 135.748 156.602 135.621 156.291C135.495 155.981 135.308 155.699 135.072 155.461C134.835 155.223 134.554 155.034 134.245 154.905C133.935 154.776 133.603 154.71 133.268 154.71C132.601 154.742 131.967 155.008 131.478 155.462L131.371 155.569C130.899 156.045 130.634 156.689 130.634 157.359C130.634 158.03 130.899 158.673 131.371 159.149C131.604 159.387 131.883 159.576 132.19 159.705C132.497 159.834 132.827 159.901 133.161 159.901C133.832 159.891 134.474 159.622 134.95 159.149V159.185Z" fill="#FFF896"/>
<path d="M64.433 130.655C65.0772 130.601 65.6776 130.308 66.1152 129.832C66.5529 129.356 66.7957 128.733 66.7957 128.087C66.7957 127.441 66.5529 126.818 66.1152 126.342C65.6776 125.866 65.0772 125.572 64.433 125.519C63.7889 125.572 63.1885 125.866 62.7508 126.342C62.3132 126.818 62.0703 127.441 62.0703 128.087C62.0703 128.733 62.3132 129.356 62.7508 129.832C63.1885 130.308 63.7889 130.601 64.433 130.655Z" fill="#FFF896"/>
<path d="M11.0789 90.0805C11.7092 90.0273 12.2965 89.7393 12.7245 89.2736C13.1526 88.8079 13.3901 88.1984 13.3901 87.5659C13.3901 86.9333 13.1526 86.3238 12.7245 85.8581C12.2965 85.3924 11.7092 85.1044 11.0789 85.0512C10.4486 85.1044 9.86122 85.3924 9.43317 85.8581C9.00512 86.3238 8.76758 86.9333 8.76758 87.5659C8.76758 88.1984 9.00512 88.8079 9.43317 89.2736C9.86122 89.7393 10.4486 90.0273 11.0789 90.0805Z" fill="#FFF896"/>
</g>
<defs>
<clipPath id="clip0_2288_4858">
<rect width="180" height="180" fill="white"/>
</clipPath>
</defs>
</svg>
