<svg width="180" height="180" viewBox="0 0 180 180" fill="none" xmlns="http://www.w3.org/2000/svg">
<g clip-path="url(#clip0_2288_4753)">
<path d="M110.081 4.84741C157.108 15.947 186.234 63.0686 175.134 110.096C164.035 157.124 116.913 186.25 69.8854 175.15C22.8576 164.051 -6.26803 116.929 4.83155 69.9013C15.9311 22.8734 63.0527 -6.25217 110.081 4.84741Z" stroke="white" stroke-width="5"/>
<path d="M150.022 72.7374C150.038 72.6788 150.038 72.617 150.022 72.5584C148.948 70.3212 145.637 69.7843 143.471 69.3547C140.287 68.7192 137.008 68.7192 133.824 69.3547C127.685 70.6255 123.372 74.3661 119.756 79.2881C118.493 80.9234 117.892 82.9748 118.074 85.0333C118.337 86.0338 118.844 86.9533 119.55 87.7092C120.256 88.4652 121.139 89.0341 122.119 89.3647C127.649 91.8167 134.2 90.4206 139.337 87.6822C142.472 86.0878 145.258 83.8853 147.534 81.2032C149.382 78.7862 150.268 75.7699 150.022 72.7374Z" fill="#96CBEB"/>
<path d="M144.384 76.8182C144.225 76.4786 143.991 76.1797 143.7 75.944C143.408 75.7084 143.067 75.5421 142.701 75.4579C139.558 74.2917 136.13 74.1353 132.893 75.0105C129.646 75.895 126.86 77.9892 125.108 80.8631C124.474 81.4748 124.026 82.2524 123.814 83.107C123.602 83.9617 123.635 84.8587 123.909 85.6956C124.739 86.8591 125.98 87.6649 127.381 87.9507C132.249 89.2573 137.475 87.0379 141.252 83.7089C142.112 83.0094 142.84 82.1606 143.399 81.2032C143.866 80.1857 144.186 79.1069 144.348 77.9994C144.449 77.6134 144.461 77.2096 144.384 76.8182Z" fill="#647FA0"/>
<path d="M61.2835 80.8631C60.0313 78.4256 58.3312 76.2458 56.2721 74.4377C54.1991 72.5387 51.764 71.0776 49.1129 70.1422C45.625 68.9398 41.9012 68.5839 38.2488 69.1041C35.7431 69.4263 31.3581 69.9274 30.0873 72.5405C30.0743 72.6055 30.0743 72.6724 30.0873 72.7374C29.2461 78.59 33.9712 83.2614 38.392 86.1967C43.4392 89.5615 49.793 91.5661 55.8425 90.0984C57.0446 89.9018 58.1925 89.4564 59.2126 88.7907C60.2327 88.125 61.1027 87.2537 61.7667 86.2325C62.0661 85.3535 62.1778 84.4214 62.0945 83.4965C62.0113 82.5717 61.735 81.6745 61.2835 80.8631Z" fill="#96CBEB"/>
<path d="M35.6354 76.8182C35.8323 76.1022 36.6198 75.7085 37.3178 75.4579C40.461 74.2917 43.8896 74.1353 47.1259 75.0105C50.3711 75.9 53.1553 77.9929 54.9115 80.8631C55.545 81.4748 55.9934 82.2524 56.2055 83.107C56.4175 83.9617 56.3847 84.8587 56.1107 85.6956C55.2516 86.8793 53.9697 87.6869 52.5311 87.9507C47.6628 89.2573 42.4366 87.0379 38.6602 83.7089C37.81 83.0038 37.0893 82.1558 36.5303 81.2032C36.0637 80.1857 35.7443 79.1069 35.5817 77.9994C35.5104 77.6067 35.5287 77.2028 35.6354 76.8182Z" fill="#647FA0"/>
<path d="M126.145 67.547C125.054 63.341 122.888 59.3497 118.771 57.5062C115.525 56.2916 112.105 55.6086 108.641 55.4838C105.419 55.1795 102.198 54.9647 98.9583 54.8036C99.0836 54.6068 99.2268 54.4278 99.3342 54.2309C100.372 52.4411 101.715 49.4342 100.551 47.5013C100.539 47.4476 100.515 47.3974 100.481 47.3541C100.447 47.3108 100.404 47.2755 100.354 47.2507C99.455 46.9381 98.4775 46.9319 97.5743 47.233C96.671 47.5341 95.8927 48.1255 95.3608 48.9152C96.0051 45.9978 95.862 42.5793 92.3897 42.0424C88.9175 41.5054 86.7161 45.6578 85.9107 48.9868C85.4095 47.197 84.5325 44.8524 82.9217 44.5839C80.7919 44.208 79.3421 46.8032 79.1452 48.5036C78.9071 50.6615 79.3515 52.8399 80.416 54.732C76.2995 54.9289 72.165 55.269 68.1022 55.8059C64.5226 56.2713 60.8356 57.0409 58.1688 59.5466C54.8398 62.643 53.6943 67.4038 53.1932 71.753C52.173 82.8319 55.4841 93.6423 59.6543 103.808C61.82 108.963 64.451 113.956 66.4735 119.165C68.2633 123.675 68.9971 128.561 71.3059 132.857C72.8631 135.72 75.4225 139.443 78.7336 140.356C82.0669 141.244 85.4884 141.76 88.9354 141.895C92.6602 141.92 96.3742 141.493 99.9964 140.624C102.854 139.928 105.327 138.143 106.887 135.649C110.359 131.085 111.433 125.519 113.151 120.167C115.049 114.297 118.02 108.766 120.436 103.075C125.107 91.9778 128.866 79.5924 126.145 67.547Z" fill="#96CBEB"/>
<path d="M113.939 100.336C114.728 100.336 115.5 100.102 116.156 99.6635C116.812 99.2249 117.324 98.6015 117.626 97.8722C117.928 97.1429 118.007 96.3404 117.853 95.5662C117.699 94.792 117.319 94.0808 116.761 93.5226C116.203 92.9644 115.491 92.5843 114.717 92.4303C113.943 92.2763 113.14 92.3553 112.411 92.6574C111.682 92.9595 111.058 93.4711 110.62 94.1274C110.181 94.7838 109.947 95.5555 109.947 96.3449C109.957 97.4005 110.38 98.4103 111.127 99.1568C111.873 99.9033 112.883 100.327 113.939 100.336Z" fill="#35208A"/>
<path d="M66.0795 100.336C66.8681 100.333 67.638 100.095 68.292 99.6548C68.946 99.2141 69.4548 98.5895 69.7541 97.8599C70.0535 97.1303 70.1299 96.3283 69.9739 95.5553C69.8179 94.7822 69.4364 94.0727 68.8775 93.5163C68.3186 92.9599 67.6074 92.5816 66.8337 92.429C66.0599 92.2765 65.2583 92.3565 64.5301 92.6592C63.8018 92.9618 63.1795 93.4733 62.7417 94.1293C62.304 94.7853 62.0703 95.5562 62.0703 96.3449C62.0843 97.4021 62.5118 98.4119 63.2611 99.1579C64.0105 99.9039 65.0221 100.327 66.0795 100.336Z" fill="#35208A"/>
<path d="M71.9141 130.977C73.8829 122.905 83.8878 119.576 91.3155 119.559C98.2957 119.559 108.247 122.798 107.996 131.335C107.996 131.464 108.047 131.586 108.138 131.677C108.229 131.768 108.351 131.819 108.48 131.819C108.608 131.819 108.731 131.768 108.821 131.677C108.912 131.586 108.963 131.464 108.963 131.335C109.213 122.565 99.4591 118.807 92.1209 118.61C84.2995 118.395 72.8269 121.939 71.1087 130.763C71.0013 131.282 71.7888 131.514 71.9141 130.977Z" fill="#35208A"/>
<path d="M79.5034 128.722C80.5087 129.088 81.46 129.587 82.3313 130.208C82.5818 130.405 83.1546 130.816 83.1188 131.156C83.083 131.496 82.3313 131.962 82.0628 132.177C80.971 133.054 82.4207 134.915 83.5662 134.127C85.0875 133.071 86.3404 131.282 85.0696 129.528C84.4737 128.739 83.7207 128.082 82.8582 127.598C81.9957 127.114 81.0423 126.815 80.0582 126.718C79.0201 126.718 78.5369 128.275 79.5034 128.722Z" fill="#35208A"/>
<path d="M99.9425 126.718C98.946 126.805 97.9788 127.1 97.1033 127.584C96.2278 128.068 95.4634 128.73 94.8595 129.528C93.6067 131.317 94.8595 133.107 96.363 134.127C97.5084 134.915 98.9761 133.054 97.8664 132.177C97.5979 131.98 96.9715 131.604 96.8641 131.246C96.7567 130.888 97.2757 130.476 97.5979 130.208C98.4692 129.587 99.4204 129.088 100.426 128.722C100.619 128.597 100.767 128.413 100.849 128.198C100.931 127.983 100.943 127.748 100.884 127.525C100.824 127.303 100.696 127.105 100.517 126.96C100.339 126.815 100.119 126.73 99.8889 126.718H99.9425Z" fill="#35208A"/>
<path d="M151.453 56.8619C149.072 49.4342 141.681 45.2103 138.459 38.2659C138.437 38.2205 138.403 38.1822 138.36 38.1554C138.317 38.1286 138.268 38.1144 138.217 38.1144C138.167 38.1144 138.118 38.1286 138.075 38.1554C138.032 38.1822 137.998 38.2205 137.976 38.2659C137.54 40.1054 137.371 41.9982 137.475 43.8859C137.777 45.9091 138.38 47.8758 139.264 49.7206C139.783 50.9556 140.356 52.1547 140.804 53.4076C141.131 54.1691 141.331 54.9794 141.394 55.8059C141.394 57.7747 139.175 58.3653 137.51 58.5085C135.107 58.455 132.713 58.2036 130.351 57.7568C127.488 57.4883 124.624 57.1304 121.742 56.9693C118.861 56.8082 114.673 56.4323 112.167 58.2937C107.334 61.8733 109.679 70.6075 113.957 73.6502C116.283 75.3147 119.541 74.2587 122.064 73.6502C126.772 72.6121 131.568 72.0394 136.293 71.0013C141.018 69.9632 145.01 68.9788 148.679 65.9899C150.042 64.9534 151.044 63.5134 151.542 61.8746C152.04 60.2359 152.009 58.4818 151.453 56.8619Z" fill="white"/>
<path d="M61.5877 56.9156C56.452 56.9458 51.3254 57.3526 46.2492 58.1327C43.9403 58.4369 37.9624 59.3139 38.6067 55.3406C38.9935 53.7237 39.564 52.1564 40.307 50.6692C41.2478 48.7852 41.9627 46.7967 42.4369 44.745C42.6761 42.6253 42.5367 40.48 42.0253 38.4091C42.0033 38.3637 41.9689 38.3254 41.9262 38.2986C41.8835 38.2718 41.8341 38.2576 41.7836 38.2576C41.7332 38.2576 41.6838 38.2718 41.641 38.2986C41.5983 38.3254 41.564 38.3637 41.542 38.4091C38.3204 45.3535 30.9464 49.5774 28.5481 57.0051C28.0368 58.4294 27.9335 59.9683 28.2497 61.4482C28.5659 62.9281 29.2891 64.2903 30.3379 65.3813C33.1337 67.9618 36.5912 69.7153 40.3249 70.4465C45.229 71.6098 50.1688 72.5584 55.1445 73.3459C58.0618 73.8113 61.4983 75.261 64.4872 74.4735C66.8498 73.8471 68.6932 70.8939 69.5702 68.8177C70.2065 67.395 70.4945 65.8411 70.4105 64.2848C70.3265 62.7286 69.8728 61.2147 69.087 59.8688C67.4404 57.2736 64.4335 56.9872 61.5877 56.9156Z" fill="white"/>
<path d="M140.535 60.8531C140.899 60.7042 141.229 60.4823 141.504 60.2011C141.779 59.9199 141.993 59.5855 142.134 59.2183C142.275 58.8511 142.339 58.4589 142.323 58.066C142.306 57.6731 142.21 57.2877 142.039 56.9335C141.99 56.8923 141.931 56.8638 141.868 56.8505C141.805 56.8372 141.74 56.8394 141.678 56.8571C141.616 56.8747 141.56 56.9072 141.514 56.9517C141.467 56.9963 141.433 57.0514 141.412 57.1125C141.387 57.712 141.328 58.3096 141.233 58.9023C140.94 59.4537 140.611 59.9857 140.249 60.4952C140.227 60.5383 140.217 60.5869 140.222 60.6353C140.227 60.6836 140.245 60.7295 140.276 60.7674C140.306 60.8054 140.347 60.8337 140.393 60.8489C140.439 60.8641 140.488 60.8656 140.535 60.8531Z" fill="#35208A"/>
<path d="M39.7692 60.4057C39.4018 59.8965 39.067 59.3644 38.7669 58.8128C38.5522 58.2042 38.7669 57.6136 38.588 57.023C38.572 56.9589 38.5394 56.9001 38.4935 56.8526C38.4476 56.8051 38.39 56.7705 38.3265 56.7524C38.263 56.7342 38.1958 56.7331 38.1317 56.7492C38.0677 56.7653 38.0089 56.798 37.9615 56.844C37.776 57.2034 37.6683 57.5979 37.6453 58.0017C37.6223 58.4055 37.6846 58.8097 37.8281 59.1879C37.9716 59.566 38.1931 59.9097 38.4782 60.1967C38.7633 60.4836 39.1056 60.7073 39.4829 60.8531C39.5298 60.8656 39.5794 60.8641 39.6255 60.8489C39.6716 60.8337 39.7123 60.8054 39.7427 60.7674C39.773 60.7295 39.7917 60.6836 39.7964 60.6353C39.8011 60.5869 39.7917 60.5383 39.7692 60.4952V60.4057Z" fill="#35208A"/>
<path d="M81.3112 136.114C85.1235 141.484 95.3611 141.484 99.2092 136.222C99.4418 135.935 99.0123 135.524 98.708 135.72C95.9696 137.51 93.6608 139.121 90.2244 139.121C86.788 139.121 84.4612 137.474 81.7407 135.685C81.4723 135.506 81.1143 135.864 81.2933 136.114H81.3112Z" fill="#35208A"/>
<path d="M126.539 73.9008C126.002 74.5988 126.324 75.4937 126.36 76.3349C126.476 77.597 126.476 78.8672 126.36 80.1293C126.36 80.6662 127.237 80.702 127.237 80.1293C127.237 78.8585 127.344 77.6057 127.237 76.3349C127.237 75.5116 127.237 74.4377 126.61 73.9008H126.503H126.539Z" fill="#35208A"/>
<path d="M53.6942 73.2744C53.3415 74.9199 53.221 76.6068 53.3362 78.2858C53.3362 80.2188 53.3362 82.1697 53.3362 84.1026C53.3568 84.2038 53.4117 84.2947 53.4916 84.36C53.5715 84.4254 53.6715 84.461 53.7748 84.461C53.878 84.461 53.978 84.4254 54.0579 84.36C54.1378 84.2947 54.1927 84.2038 54.2133 84.1026C54.2133 82.1697 54.2133 80.2188 54.2133 78.2858C54.3138 76.6033 54.1691 74.9152 53.7837 73.2744H53.6763H53.6942Z" fill="#35208A"/>
<path d="M53.8015 85.3376C53.175 85.9103 53.3182 87.2885 53.4614 88.0223C53.6046 88.7561 54.4279 88.416 54.3742 87.897C54.3205 87.378 54.2489 86.9484 54.2131 86.4652C54.2441 86.0884 54.1697 85.7104 53.9983 85.3734C53.9866 85.3585 53.9717 85.3464 53.9546 85.3382C53.9376 85.3299 53.9189 85.3256 53.8999 85.3256C53.881 85.3256 53.8622 85.3299 53.8452 85.3382C53.8281 85.3464 53.8132 85.3585 53.8015 85.3734V85.3376Z" fill="#35208A"/>
<path d="M126.11 82.6887C125.932 83.7548 125.818 84.8306 125.77 85.9103C125.77 86.5547 125.591 87.1811 125.466 87.8254C125.466 88.1476 125.34 88.4876 125.251 88.8277C125.161 89.1678 125.036 89.4541 125.448 89.2394L125.645 89.7405C125.665 89.7011 125.676 89.6577 125.678 89.6135C125.68 89.5692 125.672 89.525 125.655 89.4841C125.638 89.4432 125.612 89.4065 125.579 89.3766C125.547 89.3467 125.508 89.3243 125.466 89.3109C125.394 89.2962 125.32 89.3037 125.252 89.3325C125.185 89.3613 125.128 89.41 125.09 89.472C125.05 89.5441 125.032 89.6259 125.038 89.7078C125.044 89.7898 125.073 89.8683 125.122 89.9343C125.171 90.0002 125.238 90.0507 125.314 90.0798C125.391 90.1089 125.475 90.1154 125.555 90.0985C126.468 89.9195 126.45 88.0044 126.557 87.3243C126.899 85.8275 126.966 84.281 126.754 82.7603C126.732 82.6971 126.691 82.6423 126.637 82.6036C126.582 82.5648 126.517 82.544 126.45 82.544C126.383 82.544 126.318 82.5648 126.263 82.6036C126.209 82.6423 126.168 82.6971 126.146 82.7603L126.11 82.6887Z" fill="#35208A"/>
<path d="M73.7939 63.3947C74.4696 64.1731 75.0972 64.992 75.6732 65.8467C76.1868 66.8566 76.5716 67.9269 76.8187 69.0326C76.8482 69.1317 76.9125 69.2168 76.9998 69.2723C77.087 69.3278 77.1914 69.35 77.2936 69.3347C77.3959 69.3195 77.4893 69.2679 77.5566 69.1894C77.6238 69.1108 77.6605 69.0107 77.6599 68.9073C77.568 67.7279 77.1951 66.5877 76.5724 65.5819C75.9496 64.5762 75.0951 63.7341 74.0803 63.1262C73.9371 63.1262 73.7045 63.1262 73.8297 63.3947H73.7939Z" fill="#35208A"/>
<path d="M78.4291 65.3097C78.268 66.4552 79.1808 67.6007 79.4672 68.7461C79.7535 69.8916 79.4672 71.6098 80.0041 72.7553C80.0041 72.9343 80.3263 72.8806 80.4336 72.7553C81.2033 71.6814 80.6842 69.6947 80.4336 68.4956C80.1831 67.2964 79.7535 65.6498 78.6438 65.2202C78.6131 65.2146 78.5814 65.2207 78.5549 65.2372C78.5284 65.2538 78.5091 65.2797 78.5007 65.3097H78.4291Z" fill="#35208A"/>
<path d="M107.388 72.4331C106.467 73.8674 105.929 75.514 105.826 77.2154C105.723 78.9169 106.057 80.6165 106.798 82.1517C107.013 82.5276 107.532 82.2591 107.46 81.8654C107.08 80.3487 106.875 78.7932 106.852 77.2298C107.018 75.6759 107.416 74.1557 108.033 72.7195C108.194 72.3079 107.603 72.1289 107.388 72.4331Z" fill="#35208A"/>
<path d="M109.178 79.306C108.652 80.2182 108.39 81.2588 108.422 82.3114C108.453 83.364 108.777 84.387 109.357 85.266C109.404 85.3106 109.464 85.3407 109.528 85.3526C109.592 85.3645 109.658 85.3579 109.718 85.3334C109.778 85.3089 109.83 85.2676 109.868 85.2144C109.905 85.1612 109.927 85.0984 109.93 85.0333C109.802 84.123 109.623 83.2207 109.393 82.3307C109.393 81.3821 109.626 80.5409 109.536 79.5386C109.536 79.3418 109.25 79.1449 109.089 79.3418L109.178 79.306Z" fill="#35208A"/>
<path d="M115.515 114.69C114.389 114.69 113.289 114.356 112.353 113.731C111.417 113.106 110.687 112.217 110.256 111.177C109.826 110.137 109.713 108.992 109.933 107.888C110.152 106.784 110.694 105.77 111.49 104.974C112.286 104.178 113.3 103.636 114.404 103.417C115.508 103.197 116.653 103.31 117.693 103.74C118.733 104.171 119.622 104.901 120.247 105.837C120.873 106.773 121.206 107.873 121.206 108.999C121.192 110.504 120.588 111.943 119.524 113.008C118.46 114.072 117.02 114.676 115.515 114.69Z" fill="#E0435B"/>
<path d="M64.5946 114.69C63.4696 114.687 62.371 114.35 61.4374 113.722C60.5038 113.095 59.7771 112.205 59.349 111.164C58.921 110.124 58.8108 108.98 59.0325 107.877C59.2541 106.775 59.7976 105.762 60.5942 104.968C61.3909 104.174 62.4051 103.633 63.5087 103.415C64.6122 103.197 65.7557 103.311 66.7946 103.742C67.8336 104.173 68.7214 104.903 69.346 105.839C69.9707 106.774 70.304 107.874 70.304 108.999C70.2899 110.507 69.6833 111.949 68.6151 113.014C67.5469 114.079 66.1028 114.681 64.5946 114.69Z" fill="#E0435B"/>
<path d="M152.993 134.038C153.013 134.006 153.024 133.969 153.024 133.931C153.024 133.892 153.013 133.855 152.993 133.823C152.456 132.821 150.523 132.624 149.556 132.427C147.981 132.105 146.37 131.926 144.777 131.711L143.99 131.604C143.883 131.604 143.704 131.496 143.721 131.604C143.52 131.253 143.358 130.881 143.238 130.494C142.576 128.955 141.95 127.398 141.269 125.877C140.929 125.089 140.589 124.319 140.213 123.55C139.981 123.084 139.73 122.19 139.193 121.957C138.03 121.456 137.224 124.337 136.92 125.017C136.169 126.682 135.47 128.364 134.755 130.029C134.611 130.387 134.361 131.389 134.039 131.622C133.533 131.671 133.023 131.671 132.517 131.622L130.387 131.801C129.178 131.867 127.978 132.059 126.808 132.373C126.11 132.57 124.839 132.91 125.018 133.895C125.197 134.879 126.325 135.434 126.808 135.881C127.751 136.631 128.75 137.307 129.797 137.904C130.32 138.14 130.829 138.409 131.318 138.709C131.891 139.139 131.605 139.586 131.461 140.159C131.139 141.376 130.817 142.575 130.513 143.739C130.208 144.902 130.047 145.725 129.886 146.728C129.708 147.42 129.708 148.147 129.886 148.84C130.62 150.397 133.466 147.676 134.11 147.157C134.755 146.638 135.793 145.815 136.616 145.117L137.797 144.079C138.012 143.882 138.567 143.112 138.853 143.059C139.14 143.005 140.536 144.473 140.911 144.848C141.753 145.582 142.701 146.262 143.489 146.942C144.611 148.085 146.031 148.891 147.587 149.269C148.966 149.394 148.303 147.3 148.124 146.477C147.677 144.508 147.05 142.593 146.46 140.66C146.335 140.249 146.173 139.819 146.084 139.407C145.994 138.996 146.084 138.96 146.406 138.727C147.158 138.262 148.089 137.993 148.894 137.582C150.165 136.937 152.742 135.792 153.1 134.163C153.077 134.112 153.04 134.068 152.993 134.038Z" fill="#F7B9E7"/>
<path d="M72.3622 26.1311C70.1966 25.9342 67.9772 25.97 65.7936 25.9879L67.5834 24.1981C68.6377 23.297 69.549 22.2409 70.286 21.0659C70.3526 20.9491 70.3785 20.8135 70.3598 20.6804C70.3412 20.5472 70.2789 20.424 70.1828 20.33C70.0868 20.2359 69.9622 20.1764 69.8287 20.1606C69.6952 20.1448 69.5602 20.1736 69.4448 20.2426C68.2603 20.9522 67.1919 21.8395 66.2769 22.8736L64.3618 24.6634C64.3618 23.7685 64.3618 22.8736 64.3618 21.9787C64.47 20.5982 64.3613 19.2092 64.0396 17.8622C64.0014 17.7378 63.9243 17.6289 63.8196 17.5515C63.7149 17.4742 63.5881 17.4324 63.458 17.4324C63.3278 17.4324 63.201 17.4742 63.0963 17.5515C62.9916 17.6289 62.9145 17.7378 62.8763 17.8622C62.5363 19.2063 62.4095 20.5954 62.5004 21.9787C62.5004 22.8736 62.5004 23.7685 62.5004 24.6455C61.874 24.0191 61.2476 23.3748 60.6032 22.7484C59.7088 21.6992 58.6584 20.7938 57.489 20.0637C57.3736 19.9946 57.2386 19.9658 57.1051 19.9816C56.9716 19.9974 56.8471 20.057 56.751 20.151C56.6549 20.245 56.5927 20.3683 56.574 20.5014C56.5553 20.6346 56.5813 20.7701 56.6478 20.887C57.3639 22.0719 58.2572 23.1403 59.2967 24.0549C59.9052 24.6992 60.5316 25.3436 61.0865 25.97H58.4018C57.0212 25.8695 55.6334 25.9781 54.2852 26.2922C54.1608 26.3304 54.0519 26.4075 53.9746 26.5122C53.8972 26.6169 53.8555 26.7437 53.8555 26.8738C53.8555 27.004 53.8972 27.1308 53.9746 27.2355C54.0519 27.3402 54.1608 27.4173 54.2852 27.4555C55.6291 27.7964 57.0184 27.9232 58.4018 27.8314H60.997C59.4041 29.3527 57.7932 30.874 56.3614 32.5207C56.1929 32.6892 56.0982 32.9177 56.0982 33.156C56.0982 33.3943 56.1929 33.6229 56.3614 33.7914C56.5299 33.9599 56.7585 34.0546 56.9968 34.0546C57.2351 34.0546 57.4637 33.9599 57.6322 33.7914C59.2788 32.4133 60.818 30.8382 62.3393 29.2811C62.3393 31.4647 62.2141 33.6661 62.3393 35.8318C62.3393 36.0691 62.4336 36.2967 62.6014 36.4646C62.7693 36.6324 62.9969 36.7267 63.2342 36.7267C63.4716 36.7267 63.6992 36.6324 63.867 36.4646C64.0348 36.2967 64.1291 36.0691 64.1291 35.8318C64.346 33.6731 64.4476 31.5043 64.4334 29.3348C65.9368 30.9277 67.4403 32.5207 69.0869 33.9525C69.2635 34.0859 69.4826 34.1506 69.7034 34.1345C69.9241 34.1184 70.1315 34.0226 70.2869 33.865C70.4424 33.7074 70.5352 33.4987 70.5482 33.2777C70.5612 33.0568 70.4935 32.8386 70.3576 32.6638C68.9795 31.0172 67.4045 29.478 65.8473 27.9567C68.0309 27.9567 70.2323 28.082 72.3801 27.9567C72.6222 27.9543 72.8534 27.8559 73.0229 27.683C73.1924 27.5101 73.2863 27.277 73.284 27.0349C73.2816 26.7928 73.1831 26.5616 73.0103 26.3921C72.8374 26.2226 72.6043 26.1287 72.3622 26.1311Z" fill="white"/>
<path d="M100.122 22.8736H100.587C101.124 22.8736 101.638 22.6606 102.017 22.2813C102.397 21.902 102.61 21.3876 102.61 20.8512V20.3679C102.585 19.9368 102.469 19.5158 102.27 19.133C102.005 18.6778 101.595 18.3247 101.106 18.1307C100.659 17.9386 100.166 17.8836 99.6876 17.9729C99.2095 18.0621 98.7688 18.2915 98.4215 18.6318C98.1208 18.945 97.904 19.329 97.7914 19.7483C97.6787 20.1675 97.6738 20.6085 97.7771 21.0302C97.9249 21.5419 98.24 21.9894 98.672 22.3009C99.0954 22.6348 99.6183 22.8175 100.158 22.82L100.122 22.8736Z" fill="white"/>
<path d="M111.505 41.1654C111.771 40.5548 111.809 39.8687 111.612 39.2324C111.451 38.6877 111.094 38.2221 110.61 37.9258C110.103 37.6428 109.507 37.5658 108.945 37.7111C108.475 37.856 108.042 38.1002 107.674 38.427C107.44 38.6896 107.236 38.9778 107.066 39.2861C106.902 39.5674 106.796 39.8782 106.753 40.2007C106.71 40.5232 106.731 40.8511 106.815 41.1654C106.911 41.5204 107.089 41.8479 107.334 42.1215C107.58 42.3951 107.887 42.6071 108.229 42.7404C108.525 42.8733 108.845 42.942 109.169 42.942C109.493 42.942 109.813 42.8733 110.109 42.7404C110.401 42.6357 110.664 42.4641 110.878 42.2392C111.18 41.9442 111.396 41.5732 111.505 41.1654Z" fill="white"/>
<path d="M138.692 32.8428C139.022 32.8499 139.349 32.7919 139.657 32.6722C139.964 32.5524 140.244 32.3732 140.482 32.1448C140.718 31.9116 140.903 31.6323 141.026 31.3244C141.149 31.0165 141.208 30.6865 141.198 30.355C141.198 29.7142 140.943 29.0996 140.49 28.6465C140.037 28.1933 139.422 27.9388 138.782 27.9388C138.449 27.9238 138.117 27.9777 137.807 28.097C137.496 28.2162 137.214 28.3983 136.977 28.6319C136.74 28.8654 136.554 29.1454 136.43 29.4542C136.306 29.763 136.248 30.0941 136.258 30.4266C136.252 30.7576 136.313 31.0863 136.436 31.3937C136.558 31.701 136.741 31.9807 136.974 32.2164C137.455 32.6759 138.098 32.9268 138.764 32.9144L138.692 32.8428Z" fill="white"/>
<path d="M153.172 87.7001V87.8612C153.318 88.311 153.592 88.7088 153.959 89.0067C154.336 89.3176 154.813 89.4827 155.301 89.472C155.688 89.4599 156.067 89.362 156.411 89.1857C156.893 88.8788 157.249 88.4087 157.413 87.8612L157.503 87.7001C157.616 87.3115 157.621 86.8993 157.517 86.5081C157.413 86.1169 157.204 85.7617 156.912 85.4808C156.483 85.0686 155.914 84.8324 155.319 84.8185C154.717 84.8243 154.141 85.0614 153.709 85.4808C153.43 85.7694 153.233 86.1273 153.138 86.5175C153.044 86.9076 153.055 87.3159 153.172 87.7001Z" fill="white"/>
<path d="M133.376 113.366C133.958 113.355 134.514 113.125 134.933 112.722C135.137 112.519 135.299 112.277 135.41 112.012C135.52 111.746 135.577 111.461 135.577 111.173C135.577 110.886 135.52 110.601 135.41 110.335C135.299 110.069 135.137 109.828 134.933 109.625C134.514 109.222 133.958 108.992 133.376 108.981C132.8 108.991 132.249 109.221 131.837 109.625C131.629 109.827 131.465 110.07 131.354 110.337C131.243 110.605 131.188 110.893 131.193 111.182C131.195 111.76 131.427 112.314 131.837 112.722C132.249 113.125 132.8 113.356 133.376 113.366Z" fill="white"/>
<path d="M107.728 151.31C108.293 151.31 108.835 151.085 109.235 150.686C109.634 150.286 109.858 149.745 109.858 149.18C109.858 148.615 109.634 148.073 109.235 147.674C108.835 147.274 108.293 147.05 107.728 147.05C107.164 147.05 106.622 147.274 106.222 147.674C105.823 148.073 105.599 148.615 105.599 149.18C105.599 149.745 105.823 150.286 106.222 150.686C106.622 151.085 107.164 151.31 107.728 151.31Z" fill="white"/>
<path d="M84.4075 172.429C85.0198 172.429 85.6071 172.186 86.0401 171.753C86.4731 171.32 86.7163 170.733 86.7163 170.12C86.7163 169.508 86.4731 168.921 86.0401 168.488C85.6071 168.055 85.0198 167.812 84.4075 167.812C83.7951 167.812 83.2079 168.055 82.7749 168.488C82.3419 168.921 82.0986 169.508 82.0986 170.12C82.0986 170.733 82.3419 171.32 82.7749 171.753C83.2079 172.186 83.7951 172.429 84.4075 172.429Z" fill="white"/>
<path d="M67.744 152.813C68.3801 152.813 68.9901 152.56 69.4399 152.111C69.8897 151.661 70.1424 151.051 70.1424 150.415C70.1424 149.779 69.8897 149.169 69.4399 148.719C68.9901 148.269 68.3801 148.016 67.744 148.016C67.108 148.016 66.4979 148.269 66.0482 148.719C65.5984 149.169 65.3457 149.779 65.3457 150.415C65.3457 151.051 65.5984 151.661 66.0482 152.111C66.4979 152.56 67.108 152.813 67.744 152.813Z" fill="white"/>
<path d="M34.0071 138.96C34.6284 138.954 35.2239 138.711 35.6716 138.28C36.0611 137.896 36.3053 137.388 36.3625 136.844C36.4197 136.3 36.2863 135.753 35.9851 135.297C35.6839 134.84 35.2335 134.502 34.7109 134.34C34.1882 134.179 33.6257 134.204 33.1193 134.41C32.6129 134.617 32.194 134.994 31.9341 135.475C31.6742 135.956 31.5894 136.513 31.6941 137.05C31.7989 137.587 32.0868 138.071 32.5086 138.419C32.9304 138.767 33.46 138.959 34.0071 138.96Z" fill="white"/>
<path d="M50.5982 113.133C50.9548 113.13 51.3096 113.082 51.6542 112.99C52.0937 112.857 52.4812 112.591 52.7633 112.229C53.0453 111.867 53.2081 111.426 53.2292 110.968C53.2149 110.499 53.0558 110.046 52.7738 109.671C52.4918 109.296 52.1008 109.017 51.6542 108.873C51.3098 108.781 50.9549 108.733 50.5982 108.73C50.302 108.729 50.0084 108.787 49.7348 108.9C49.4612 109.014 49.2132 109.181 49.0053 109.392C48.58 109.807 48.3356 110.373 48.3252 110.968C48.339 111.563 48.5753 112.131 48.9874 112.56C49.1974 112.768 49.4462 112.931 49.7196 113.042C49.9929 113.152 50.2855 113.208 50.5803 113.205L50.5982 113.133Z" fill="white"/>
<path d="M21.8005 95.9511V95.6647C22.1584 92.8548 17.0575 92.8369 17.4155 95.6647V95.9511C17.4645 96.4892 17.713 96.9895 18.112 97.3538C18.5111 97.7181 19.0319 97.9201 19.5722 97.9201C20.1125 97.9201 20.6333 97.7181 21.0323 97.3538C21.4314 96.9895 21.6798 96.4892 21.7289 95.9511H21.8005Z" fill="white"/>
<path d="M22.4982 55.8238C22.8066 55.8371 23.1136 55.7757 23.3931 55.6448C23.6547 55.5281 23.8962 55.3711 24.1091 55.1795C24.3033 54.985 24.4558 54.753 24.5574 54.4976C24.6589 54.2421 24.7074 53.9687 24.6997 53.6939C24.7053 53.4275 24.6557 53.1627 24.5541 52.9163C24.4524 52.6699 24.3009 52.4472 24.1091 52.2621C23.9009 52.0645 23.6583 51.9068 23.3931 51.7968C23.1136 51.6659 22.8066 51.6045 22.4982 51.6178C21.9558 51.6319 21.4385 51.849 21.0485 52.2263C20.8564 52.4176 20.704 52.6449 20.5999 52.8952C20.4959 53.1455 20.4424 53.4139 20.4424 53.685C20.4424 53.9561 20.4959 54.2245 20.5999 54.4748C20.704 54.7251 20.8564 54.9524 21.0485 55.1437C21.4385 55.521 21.9558 55.7381 22.4982 55.7522V55.8238Z" fill="white"/>
<path d="M125.286 163.659C125.894 163.659 126.476 163.418 126.906 162.988C127.336 162.559 127.577 161.976 127.577 161.368C127.577 160.761 127.336 160.178 126.906 159.748C126.476 159.319 125.894 159.077 125.286 159.077C124.678 159.077 124.096 159.319 123.666 159.748C123.236 160.178 122.995 160.761 122.995 161.368C122.995 161.976 123.236 162.559 123.666 162.988C124.096 163.418 124.678 163.659 125.286 163.659Z" fill="#FFF896"/>
<path d="M159.74 113.509C160.273 113.46 160.769 113.214 161.13 112.818C161.491 112.422 161.691 111.906 161.691 111.37C161.691 110.834 161.491 110.318 161.13 109.922C160.769 109.527 160.273 109.28 159.74 109.231C159.458 109.231 159.178 109.287 158.918 109.395C158.657 109.503 158.42 109.661 158.221 109.86C158.021 110.06 157.863 110.297 157.755 110.557C157.647 110.818 157.592 111.097 157.592 111.379C157.606 111.943 157.837 112.479 158.237 112.876C158.637 113.273 159.176 113.5 159.74 113.509Z" fill="#FFF896"/>
<path d="M119.165 21.7998C119.639 21.7998 120.095 21.6112 120.43 21.2755C120.766 20.9399 120.955 20.4846 120.955 20.01C120.955 19.656 120.85 19.3099 120.653 19.0156C120.456 18.7213 120.177 18.4919 119.85 18.3564C119.523 18.2209 119.163 18.1855 118.816 18.2545C118.468 18.3236 118.15 18.4941 117.899 18.7444C117.649 18.9947 117.478 19.3136 117.409 19.6608C117.34 20.008 117.376 20.3678 117.511 20.6949C117.647 21.0219 117.876 21.3015 118.17 21.4981C118.465 21.6948 118.811 21.7998 119.165 21.7998Z" fill="#FFF896"/>
<path d="M46.786 153.708C47.2773 153.708 47.7485 153.513 48.0959 153.165C48.4433 152.818 48.6385 152.347 48.6385 151.855C48.6385 151.364 48.4433 150.893 48.0959 150.546C47.7485 150.198 47.2773 150.003 46.786 150.003C46.2947 150.003 45.8236 150.198 45.4762 150.546C45.1288 150.893 44.9336 151.364 44.9336 151.855C44.9336 152.347 45.1288 152.818 45.4762 153.165C45.8236 153.513 46.2947 153.708 46.786 153.708Z" fill="#FFF896"/>
<path d="M23.5363 112.543C23.6514 112.346 23.7416 112.135 23.8048 111.916C23.9413 111.371 23.8644 110.795 23.59 110.305C23.3425 109.863 22.9552 109.515 22.4888 109.316C22.0224 109.118 21.5033 109.079 21.0127 109.207C20.5222 109.335 20.0879 109.622 19.7779 110.023C19.468 110.424 19.2998 110.917 19.2998 111.424C19.2998 111.931 19.468 112.424 19.7779 112.825C20.0879 113.226 20.5222 113.513 21.0127 113.641C21.5033 113.769 22.0224 113.73 22.4888 113.531C22.9552 113.333 23.3425 112.985 23.59 112.543H23.5363Z" fill="#FFF896"/>
</g>
<defs>
<clipPath id="clip0_2288_4753">
<rect width="180" height="180" fill="white"/>
</clipPath>
</defs>
</svg>
