<svg width="32" height="32" viewBox="0 0 32 32" fill="none" xmlns="http://www.w3.org/2000/svg">
<path d="M18.667 11.9993H15.3337C14.2291 11.9993 13.3337 12.8948 13.3337 13.9993C13.3337 15.1039 14.2291 15.9993 15.3337 15.9993H16.667C17.7716 15.9993 18.667 16.8948 18.667 17.9993C18.667 19.1039 17.7716 19.9993 16.667 19.9993H13.3337M16.0003 10.666V11.9993M16.0003 19.9993V21.3327M24.0003 15.9993H24.0137M8.00033 15.9993H8.01366M2.66699 10.9327L2.66699 21.066C2.66699 22.5595 2.66699 23.3062 2.95764 23.8767C3.2133 24.3784 3.62125 24.7864 4.12302 25.042C4.69345 25.3327 5.44018 25.3327 6.93366 25.3327L25.067 25.3327C26.5605 25.3327 27.3072 25.3327 27.8776 25.042C28.3794 24.7864 28.7873 24.3784 29.043 23.8767C29.3337 23.3062 29.3337 22.5595 29.3337 21.066V10.9327C29.3337 9.43921 29.3337 8.69247 29.043 8.12204C28.7873 7.62028 28.3794 7.21233 27.8776 6.95667C27.3072 6.66602 26.5605 6.66602 25.067 6.66602L6.93366 6.66602C5.44019 6.66602 4.69345 6.66602 4.12302 6.95666C3.62125 7.21233 3.2133 7.62027 2.95764 8.12204C2.66699 8.69247 2.66699 9.43921 2.66699 10.9327ZM24.667 15.9993C24.667 16.3675 24.3685 16.666 24.0003 16.666C23.6321 16.666 23.3337 16.3675 23.3337 15.9993C23.3337 15.6312 23.6321 15.3327 24.0003 15.3327C24.3685 15.3327 24.667 15.6312 24.667 15.9993ZM8.66699 15.9993C8.66699 16.3675 8.36852 16.666 8.00033 16.666C7.63214 16.666 7.33366 16.3675 7.33366 15.9993C7.33366 15.6312 7.63214 15.3327 8.00033 15.3327C8.36852 15.3327 8.66699 15.6312 8.66699 15.9993Z" stroke="black" stroke-width="2" stroke-linecap="round" stroke-linejoin="round"/>
</svg>
