<svg width="32" height="32" viewBox="0 0 32 32" fill="none" xmlns="http://www.w3.org/2000/svg">
<path d="M27.6308 21.9913C26.887 20.7146 26.0003 18.2919 26.0003 14V13.113C26.0003 7.5774 21.5483 3.04078 16.076 3.00025C16.0503 3.00012 16.0251 3 15.9996 3C13.3475 3.00017 10.8041 4.05382 8.92893 5.92917C7.05372 7.80452 6.00026 10.348 6.00029 13V14C6.00029 18.2914 5.1132 20.7142 4.36906 21.9909C4.19144 22.2947 4.09715 22.64 4.09572 22.992C4.09429 23.3439 4.18576 23.69 4.36089 23.9953C4.53603 24.3006 4.78863 24.5542 5.09318 24.7306C5.39773 24.9071 5.74343 25 6.09539 25H25.9042C26.2561 25 26.6018 24.9071 26.9063 24.7307C27.2108 24.5544 27.4634 24.3008 27.6386 23.9956C27.8137 23.6903 27.9053 23.3443 27.9039 22.9924C27.9025 22.6405 27.8083 22.2952 27.6308 21.9913H27.6308Z" fill="black"/>
<path d="M19.9912 27H11.9912C11.726 27 11.4716 27.1054 11.2841 27.2929C11.0966 27.4804 10.9912 27.7348 10.9912 28C10.9912 28.2652 11.0966 28.5196 11.2841 28.7071C11.4716 28.8946 11.726 29 11.9912 29H19.9912C20.2564 29 20.5108 28.8946 20.6983 28.7071C20.8859 28.5196 20.9912 28.2652 20.9912 28C20.9912 27.7348 20.8859 27.4804 20.6983 27.2929C20.5108 27.1054 20.2564 27 19.9912 27Z" fill="black"/>
</svg>
