<svg width="24" height="24" viewBox="0 0 24 24" fill="none" xmlns="http://www.w3.org/2000/svg">
<g clip-path="url(#clip0_1408_45509)">
<path d="M8.89927 1.30529C9.30302 0.892103 9.7853 0.563784 10.3177 0.339627C10.8502 0.115471 11.4221 0 11.9998 0C12.5775 0 13.1494 0.115471 13.6818 0.339627C14.2142 0.563784 14.6965 0.892103 15.1003 1.30529L16.0333 2.26229L17.3683 2.24579C17.9461 2.23895 18.5196 2.34773 19.0548 2.56573C19.59 2.78372 20.0762 3.10653 20.4849 3.51518C20.8935 3.92383 21.2163 4.41006 21.4343 4.94529C21.6523 5.48051 21.7611 6.05392 21.7543 6.63179L21.7393 7.96679L22.6933 8.89979C23.1065 9.30355 23.4348 9.78582 23.6589 10.3183C23.8831 10.8507 23.9986 11.4226 23.9986 12.0003C23.9986 12.578 23.8831 13.1499 23.6589 13.6823C23.4348 14.2148 23.1065 14.697 22.6933 15.1008L21.7378 16.0338L21.7543 17.3688C21.7611 17.9467 21.6523 18.5201 21.4343 19.0553C21.2163 19.5905 20.8935 20.0768 20.4849 20.4854C20.0762 20.8941 19.59 21.2169 19.0548 21.4349C18.5196 21.6529 17.9461 21.7616 17.3683 21.7548L16.0333 21.7398L15.1003 22.6938C14.6965 23.107 14.2142 23.4353 13.6818 23.6595C13.1494 23.8836 12.5775 23.9991 11.9998 23.9991C11.4221 23.9991 10.8502 23.8836 10.3177 23.6595C9.7853 23.4353 9.30302 23.107 8.89927 22.6938L7.96627 21.7383L6.63127 21.7548C6.05339 21.7616 5.47999 21.6529 4.94476 21.4349C4.40954 21.2169 3.92331 20.8941 3.51466 20.4854C3.10601 20.0768 2.7832 19.5905 2.5652 19.0553C2.34721 18.5201 2.23843 17.9467 2.24527 17.3688L2.26027 16.0338L1.30627 15.1008C0.89308 14.697 0.56476 14.2148 0.340604 13.6823C0.116448 13.1499 0.000976562 12.578 0.000976562 12.0003C0.000976562 11.4226 0.116448 10.8507 0.340604 10.3183C0.56476 9.78582 0.89308 9.30355 1.30627 8.89979L2.26177 7.96679L2.24527 6.63179C2.23843 6.05392 2.34721 5.48051 2.5652 4.94529C2.7832 4.41006 3.10601 3.92383 3.51466 3.51518C3.92331 3.10653 4.40954 2.78372 4.94476 2.56573C5.47999 2.34773 6.05339 2.23895 6.63127 2.24579L7.96627 2.26079L8.89927 1.30679V1.30529Z" fill="#C91A44"/>
<path d="M11 6.33398C11 6.06877 11.1054 5.81441 11.2929 5.62688C11.4804 5.43934 11.7348 5.33398 12 5.33398C12.2652 5.33398 12.5196 5.43934 12.7071 5.62688C12.8946 5.81441 13 6.06877 13 6.33398V14.334C13 14.5992 12.8946 14.8536 12.7071 15.0411C12.5196 15.2286 12.2652 15.334 12 15.334C11.7348 15.334 11.4804 15.2286 11.2929 15.0411C11.1054 14.8536 11 14.5992 11 14.334V6.33398ZM11 17.6673C11 17.4021 11.1054 17.1478 11.2929 16.9602C11.4804 16.7727 11.7348 16.6673 12 16.6673C12.2652 16.6673 12.5196 16.7727 12.7071 16.9602C12.8946 17.1478 13 17.4021 13 17.6673C13 17.9325 12.8946 18.1869 12.7071 18.3744C12.5196 18.562 12.2652 18.6673 12 18.6673C11.7348 18.6673 11.4804 18.562 11.2929 18.3744C11.1054 18.1869 11 17.9325 11 17.6673Z" fill="white"/>
</g>
<defs>
<clipPath id="clip0_1408_45509">
<rect width="24" height="24" fill="white"/>
</clipPath>
</defs>
</svg>
