<svg width="32" height="32" viewBox="0 0 32 32" fill="none" xmlns="http://www.w3.org/2000/svg">
<g clip-path="url(#clip0_901_23034)">
<path d="M11.8663 1.74039C12.4047 1.18947 13.0477 0.751712 13.7576 0.452836C14.4676 0.153961 15.2301 0 16.0003 0C16.7706 0 17.5331 0.153961 18.243 0.452836C18.953 0.751712 19.596 1.18947 20.1343 1.74039L21.3783 3.01639L23.1583 2.99439C23.9288 2.98527 24.6934 3.13031 25.407 3.42097C26.1207 3.71163 26.769 4.14205 27.3138 4.68691C27.8587 5.23177 28.2891 5.88008 28.5798 6.59371C28.8704 7.30734 29.0155 8.07189 29.0063 8.84239L28.9863 10.6224L30.2583 11.8664C30.8093 12.4047 31.247 13.0478 31.5459 13.7577C31.8448 14.4676 31.9987 15.2301 31.9987 16.0004C31.9987 16.7707 31.8448 17.5332 31.5459 18.2431C31.247 18.953 30.8093 19.5961 30.2583 20.1344L28.9843 21.3784L29.0063 23.1584C29.0155 23.9289 28.8704 24.6934 28.5798 25.4071C28.2891 26.1207 27.8587 26.769 27.3138 27.3139C26.769 27.8587 26.1207 28.2892 25.407 28.5798C24.6934 28.8705 23.9288 29.0155 23.1583 29.0064L21.3783 28.9864L20.1343 30.2584C19.596 30.8093 18.953 31.2471 18.243 31.5459C17.5331 31.8448 16.7706 31.9988 16.0003 31.9988C15.2301 31.9988 14.4676 31.8448 13.7576 31.5459C13.0477 31.2471 12.4047 30.8093 11.8663 30.2584L10.6223 28.9844L8.84234 29.0064C8.07184 29.0155 7.3073 28.8705 6.59367 28.5798C5.88004 28.2892 5.23173 27.8587 4.68686 27.3139C4.142 26.769 3.71158 26.1207 3.42092 25.4071C3.13026 24.6934 2.98522 23.9289 2.99434 23.1584L3.01434 21.3784L1.74234 20.1344C1.19142 19.5961 0.753665 18.953 0.45479 18.2431C0.155914 17.5332 0.00195312 16.7707 0.00195312 16.0004C0.00195312 15.2301 0.155914 14.4676 0.45479 13.7577C0.753665 13.0478 1.19142 12.4047 1.74234 11.8664L3.01634 10.6224L2.99434 8.84239C2.98522 8.07189 3.13026 7.30734 3.42092 6.59371C3.71158 5.88008 4.142 5.23177 4.68686 4.68691C5.23173 4.14205 5.88004 3.71163 6.59367 3.42097C7.3073 3.13031 8.07184 2.98527 8.84234 2.99439L10.6223 3.01439L11.8663 1.74239V1.74039ZM14.0043 22.0004C14.0043 22.263 14.0561 22.5231 14.1566 22.7658C14.2571 23.0084 14.4044 23.2289 14.5901 23.4146C14.7758 23.6003 14.9963 23.7476 15.239 23.8482C15.4816 23.9487 15.7417 24.0004 16.0043 24.0004C16.267 24.0004 16.5271 23.9487 16.7697 23.8482C17.0124 23.7476 17.2328 23.6003 17.4186 23.4146C17.6043 23.2289 17.7516 23.0084 17.8521 22.7658C17.9526 22.5231 18.0043 22.263 18.0043 22.0004C18.0043 21.47 17.7936 20.9613 17.4186 20.5862C17.0435 20.2111 16.5348 20.0004 16.0043 20.0004C15.4739 20.0004 14.9652 20.2111 14.5901 20.5862C14.2151 20.9613 14.0043 21.47 14.0043 22.0004ZM17.2083 17.9464C17.2883 16.8784 17.6043 16.3164 18.9003 15.4264C20.2483 14.4764 21.0003 13.2464 21.0003 11.4544C21.0003 8.80439 19.1603 7.00039 16.4763 7.00039C14.4363 7.00039 12.8923 7.98439 12.2763 9.58039C12.0897 10.0163 11.9957 10.4862 12.0003 10.9604C12.0003 11.7464 12.4063 12.2404 13.0903 12.2404C13.6343 12.2404 14.0003 11.9464 14.2183 11.2204C14.5343 10.0364 15.2683 9.39039 16.3663 9.39039C17.5863 9.39039 18.4263 10.2824 18.4263 11.5584C18.4263 12.6844 18.0103 13.3284 16.7823 14.2084C15.5443 15.0744 14.9303 16.0364 14.9303 17.4884V17.7104C14.9303 18.5664 15.3463 19.2004 16.1003 19.2004C16.7723 19.2004 17.1083 18.7204 17.2083 17.9464Z" fill="#C91A44"/>
</g>
<defs>
<clipPath id="clip0_901_23034">
<rect width="32" height="32" fill="white"/>
</clipPath>
</defs>
</svg>
