<svg width="36" height="37" viewBox="0 0 36 37" fill="none" xmlns="http://www.w3.org/2000/svg">
<rect y="0.5" width="36" height="36" rx="4" fill="#FFE0D2"/>
<path d="M27 16.5H9M22 8.5V12.5M14 8.5V12.5M13.8 28.5H22.2C23.8802 28.5 24.7202 28.5 25.362 28.173C25.9265 27.8854 26.3854 27.4265 26.673 26.862C27 26.2202 27 25.3802 27 23.7V15.3C27 13.6198 27 12.7798 26.673 12.138C26.3854 11.5735 25.9265 11.1146 25.362 10.827C24.7202 10.5 23.8802 10.5 22.2 10.5H13.8C12.1198 10.5 11.2798 10.5 10.638 10.827C10.0735 11.1146 9.6146 11.5735 9.32698 12.138C9 12.7798 9 13.6198 9 15.3V23.7C9 25.3802 9 26.2202 9.32698 26.862C9.6146 27.4265 10.0735 27.8854 10.638 28.173C11.2798 28.5 12.1198 28.5 13.8 28.5Z" stroke="#E46125" stroke-width="2" stroke-linecap="round" stroke-linejoin="round"/>
</svg>
