<svg width="60" height="60" viewBox="0 0 60 60" fill="none" xmlns="http://www.w3.org/2000/svg">
<path d="M30 0C13.458 0 0 13.458 0 30C0 46.542 13.458 60 30 60C46.542 60 60 46.542 60 30C60 13.458 46.542 0 30 0ZM19.5 21C20.0911 21.0002 20.6765 21.1168 21.2225 21.3432C21.7686 21.5696 22.2647 21.9014 22.6826 22.3195C23.1005 22.7377 23.4319 23.234 23.6579 23.7802C23.884 24.3265 24.0002 24.9119 24 25.503C23.9998 26.0941 23.8832 26.6795 23.6568 27.2255C23.4304 27.7716 23.0986 28.2677 22.6805 28.6856C22.2623 29.1035 21.766 29.4349 21.2198 29.6609C20.6735 29.887 20.0881 30.0032 19.497 30.003C18.3031 30.0026 17.1583 29.528 16.3144 28.6835C15.4705 27.839 14.9966 26.6939 14.997 25.5C14.9974 24.3061 15.472 23.1613 16.3165 22.3174C17.161 21.4735 18.3061 20.9996 19.5 21ZM42.723 42.732C40.2355 45.2234 37.0702 46.9282 33.621 47.634C30.0552 48.3592 26.3536 47.9944 22.998 46.587C19.7779 45.2272 17.0238 42.9588 15.072 40.059L20.046 36.708C20.475 37.341 20.967 37.938 21.51 38.478C22.6038 39.5774 23.9008 40.4536 25.329 41.058C26.058 41.364 26.814 41.601 27.576 41.754C29.1761 42.075 30.8239 42.075 32.424 41.754C33.183 41.598 33.939 41.361 34.674 41.055C35.376 40.755 36.066 40.383 36.711 39.951C37.335 39.525 37.932 39.033 38.484 38.484C39.033 37.938 39.525 37.341 39.951 36.708L44.925 40.059C44.283 41.019 43.542 41.919 42.723 42.732ZM33 30C33 30 34.5 24 40.5 24C46.497 24 48 30 48 30H33Z" fill="#F3F3F3"/>
</svg>
