<svg width="60" height="61" viewBox="0 0 60 61" fill="none" xmlns="http://www.w3.org/2000/svg">
<path d="M30 0.5C13.458 0.5 0 13.958 0 30.5C0 47.042 13.458 60.5 30 60.5C46.542 60.5 60 47.042 60 30.5C60 13.958 46.542 0.5 30 0.5ZM19.5 21.5C20.0911 21.5002 20.6765 21.6168 21.2225 21.8432C21.7686 22.0696 22.2647 22.4014 22.6826 22.8195C23.1005 23.2377 23.4319 23.734 23.6579 24.2802C23.884 24.8265 24.0002 25.4119 24 26.003C23.9998 26.5941 23.8832 27.1795 23.6568 27.7255C23.4304 28.2716 23.0986 28.7677 22.6805 29.1856C22.2623 29.6035 21.766 29.9349 21.2198 30.1609C20.6735 30.387 20.0881 30.5032 19.497 30.503C18.3031 30.5026 17.1583 30.028 16.3144 29.1835C15.4705 28.339 14.9966 27.1939 14.997 26C14.9974 24.8061 15.472 23.6613 16.3165 22.8174C17.161 21.9735 18.3061 21.4996 19.5 21.5ZM42.723 43.232C40.2355 45.7234 37.0702 47.4282 33.621 48.134C30.0552 48.8592 26.3536 48.4944 22.998 47.087C19.7779 45.7272 17.0238 43.4588 15.072 40.559L20.046 37.208C20.475 37.841 20.967 38.438 21.51 38.978C22.6038 40.0774 23.9008 40.9536 25.329 41.558C26.058 41.864 26.814 42.101 27.576 42.254C29.1761 42.575 30.8239 42.575 32.424 42.254C33.183 42.098 33.939 41.861 34.674 41.555C35.376 41.255 36.066 40.883 36.711 40.451C37.335 40.025 37.932 39.533 38.484 38.984C39.033 38.438 39.525 37.841 39.951 37.208L44.925 40.559C44.283 41.519 43.542 42.419 42.723 43.232ZM33 30.5C33 30.5 34.5 24.5 40.5 24.5C46.497 24.5 48 30.5 48 30.5H33Z" fill="#FFE0D2"/>
</svg>
