<svg width="65" height="65" viewBox="0 0 65 65" fill="none" xmlns="http://www.w3.org/2000/svg">
<path d="M47.8171 18.2207C53.3524 16.676 55.0453 17.1955 55.3278 17.3094C55.562 17.566 55.8819 17.7281 56.2273 17.7652C56.5727 17.8024 56.9197 17.712 57.2031 17.511C57.4865 17.3101 57.6867 17.0125 57.766 16.6743C57.8452 16.3361 57.7981 15.9806 57.6335 15.6746C57.4171 15.2702 56.7985 14.5594 55.0885 14.3441C53.2658 14.1162 50.5568 14.4944 47.0515 15.473C45.9385 15.7829 44.8312 16.1007 43.7478 16.4163C44.6975 15.4774 45.5319 14.4288 46.2336 13.2926L46.2507 13.2641C46.3042 13.1764 46.3555 13.0875 46.4056 12.9987C46.4098 12.9921 46.4136 12.9852 46.417 12.9782C46.5689 12.7055 46.712 12.4298 46.8465 12.1511C46.8465 12.1397 46.8579 12.1283 46.8624 12.1169C46.8977 12.0429 46.9308 11.9677 46.9638 11.8891L47.0082 11.7888C47.0378 11.7193 47.0663 11.6487 47.0937 11.5792L47.1415 11.4653C47.1666 11.3981 47.1928 11.3309 47.2167 11.2625C47.2327 11.2204 47.2475 11.1771 47.2623 11.1338C47.2851 11.0677 47.3078 11.0017 47.3295 10.9356C47.3443 10.8877 47.358 10.841 47.3716 10.7932C47.405 10.6838 47.4358 10.5745 47.4639 10.4651C47.4787 10.4081 47.4947 10.3512 47.5083 10.2942C47.522 10.2373 47.5323 10.1803 47.5448 10.129C47.5573 10.0778 47.5699 10.0151 47.5812 9.95132C47.5926 9.88752 47.6018 9.84423 47.6109 9.79183C47.62 9.73942 47.6314 9.66424 47.6405 9.60044C47.6496 9.53665 47.6553 9.50133 47.661 9.45235C47.6712 9.37374 47.6792 9.29514 47.6861 9.21539C47.6861 9.18122 47.694 9.14704 47.6963 9.11287C47.7054 8.99895 47.7111 8.88503 47.7145 8.77908C47.7145 8.74149 47.7145 8.7039 47.7145 8.66516C47.7145 8.58922 47.7145 8.51327 47.7145 8.43732C47.7145 8.39403 47.7145 8.35075 47.7145 8.30746C47.7145 8.23455 47.7077 8.1605 47.702 8.08645L47.6917 7.96C47.6842 7.88405 47.675 7.80431 47.6644 7.72077L47.6507 7.61596C47.6336 7.50204 47.6131 7.38812 47.5904 7.2742C47.4772 6.71286 47.2501 6.18067 46.9233 5.71044C46.5965 5.24021 46.1768 4.84192 45.6902 4.54013C44.1033 3.53195 42.0448 3.52739 40.647 3.85662C40.1913 3.97054 39.7436 4.09699 39.3118 4.24622L39.2902 4.25534C39.1569 4.3009 39.0259 4.34989 38.896 4.40001L38.8413 4.42166C38.7274 4.46837 38.6044 4.51621 38.4882 4.5652L38.4153 4.59709C38.3014 4.64494 38.1965 4.69393 38.0895 4.74405L38.0063 4.78392C37.9026 4.83405 37.8001 4.88417 37.6987 4.93657L37.6099 4.98214C37.5108 5.03455 37.4128 5.08695 37.3159 5.14163L37.226 5.19175C37.1303 5.24644 37.0346 5.30567 36.9412 5.36036L36.8534 5.4139C36.7589 5.47314 36.6655 5.53351 36.5721 5.59389L36.4912 5.64743C36.3955 5.71237 36.3009 5.77844 36.2064 5.84565L36.1392 5.8935C36.0355 5.96869 35.9341 6.04501 35.8327 6.12134L35.7974 6.14868C35.5696 6.32639 35.3489 6.51246 35.1355 6.70689C35.1207 6.72169 35.1059 6.7365 35.09 6.75017C35.0022 6.83106 34.9145 6.91308 34.8291 6.99738C34.7938 7.03156 34.7596 7.06687 34.7254 7.10105C34.6593 7.16712 34.5944 7.23205 34.5306 7.29927L34.4076 7.43141L34.2424 7.61141C34.1991 7.66153 34.1558 7.7128 34.1114 7.76292L33.9644 7.93608C33.9189 7.99076 33.8744 8.05 33.83 8.1024C33.7856 8.1548 33.74 8.21632 33.6967 8.271C33.6534 8.32568 33.6056 8.38492 33.56 8.45099C33.5145 8.51707 33.4791 8.56491 33.4381 8.61732L33.3014 8.81098C33.2638 8.86452 33.2274 8.91806 33.1875 8.97275C33.1476 9.02743 33.0952 9.11059 33.0508 9.18008C33.0064 9.24957 32.9836 9.28489 32.9506 9.33843C32.9038 9.41134 32.8583 9.48538 32.8127 9.56627L32.725 9.71664C32.6783 9.79638 32.6316 9.87613 32.586 9.95815C32.5609 10.0026 32.537 10.0481 32.512 10.0937C32.4641 10.1826 32.4163 10.2703 32.3696 10.3603C32.3525 10.3945 32.3354 10.4298 32.3172 10.464C32.2659 10.5665 32.2135 10.669 32.1634 10.7738C31.9085 11.3069 31.6826 11.8534 31.4867 12.4108L31.4628 12.4781C31.4218 12.592 31.3819 12.7161 31.3431 12.8358C31.334 12.8631 31.3249 12.8893 31.3158 12.9178C31.3067 12.8847 31.2964 12.8528 31.2862 12.8198C31.2497 12.6934 31.2121 12.5658 31.1723 12.4405C31.1723 12.4256 31.1632 12.4108 31.1575 12.396C30.9776 11.8223 30.7677 11.2583 30.5286 10.7066C30.5161 10.6758 30.5036 10.6451 30.4899 10.6143C30.4477 10.5209 30.4044 10.4286 30.3612 10.3364C30.3372 10.2851 30.3145 10.2327 30.2894 10.1826C30.2507 10.0994 30.2096 10.0197 30.1686 9.93878C30.139 9.87955 30.1094 9.82486 30.0786 9.76107C30.0399 9.68588 30 9.61297 29.9647 9.54007C29.9294 9.46716 29.8975 9.41361 29.8622 9.35096C29.8269 9.2883 29.7836 9.21539 29.7483 9.14818C29.713 9.08097 29.6719 9.01717 29.6344 8.95338C29.5968 8.88958 29.5557 8.82693 29.5204 8.76427C29.4851 8.70162 29.4373 8.63213 29.3951 8.56719C29.353 8.50226 29.3165 8.45327 29.2812 8.38948C29.2459 8.32568 29.1923 8.25733 29.1468 8.1924C29.1012 8.12746 29.067 8.07848 29.0272 8.02607L28.8836 7.82899C28.8438 7.77659 28.8039 7.72533 28.7629 7.67406C28.7219 7.6228 28.6615 7.54306 28.6091 7.47812L28.4895 7.33344C28.4348 7.26851 28.3755 7.20357 28.3243 7.13978L28.2047 7.00422C28.1466 6.93928 28.0907 6.87549 28.0292 6.81283C27.9894 6.76954 27.9495 6.72853 27.9096 6.68638C27.8481 6.62258 27.7854 6.55993 27.7228 6.49727L27.6089 6.38335L27.4118 6.19653L27.2979 6.08944C27.2295 6.02792 27.16 5.96641 27.0894 5.90603L26.9755 5.80806C26.9026 5.74768 26.8285 5.6873 26.7476 5.62807L26.6337 5.53921C26.5578 5.47845 26.4792 5.41921 26.3979 5.36149L26.2897 5.28175C26.2065 5.22251 26.1234 5.16783 26.039 5.10745L25.9354 5.03796C25.8465 4.97872 25.7577 4.92404 25.6677 4.86594C25.6358 4.84544 25.6039 4.82493 25.5708 4.80557C25.4763 4.74747 25.3806 4.69165 25.2838 4.63583L25.1972 4.5857C25.0958 4.52874 24.9921 4.47178 24.8873 4.41824L24.8144 4.37951C24.7005 4.32141 24.5866 4.26559 24.4727 4.21205C24.4544 4.20293 24.4373 4.19382 24.418 4.18584C24.2961 4.12775 24.1719 4.07193 24.0455 4.01724L24.0158 4.00471C23.3108 3.70248 22.5809 3.46197 21.8343 3.28588C20.4365 2.9521 18.378 2.95551 16.7922 3.9694C16.3052 4.27082 15.8853 4.669 15.5585 5.13929C15.2316 5.60958 15.0048 6.14196 14.892 6.70347C14.7656 7.31421 14.7273 7.93989 14.7781 8.5615C15.0447 11.9039 17.6774 15.1779 20.3602 17.3265C20.4741 17.4199 20.596 17.511 20.7156 17.6033C11.9472 15.0777 10.3421 13.1103 10.0527 12.5134C10.0098 12.3994 9.98184 12.2803 9.96955 12.1591C9.96056 12.092 9.97166 12.0239 10.0014 11.9631C10.1518 11.7034 10.7556 11.4801 11.1042 11.4266L10.7169 8.60592C10.489 8.63668 8.47379 8.95452 7.55218 10.5084C7.22392 11.066 7.07554 11.7112 7.12726 12.3562C7.15951 12.771 7.25319 13.1787 7.40522 13.566C7.41433 13.5888 7.42345 13.6127 7.4337 13.6355C8.13431 15.2155 10.2703 17.6523 20.6917 20.5572C22.7958 21.1428 24.8463 21.6372 26.5881 22.0268V61.7244H38.3333V21.03C41.0537 20.1836 44.4097 19.1708 47.8171 18.2207ZM17.6625 7.27762C17.698 7.08881 17.7735 6.90978 17.8839 6.75258C17.9944 6.59538 18.1372 6.46366 18.3028 6.36627C18.7505 6.08147 19.401 5.92995 20.0868 5.92995C20.4469 5.92953 20.8058 5.97081 21.1565 6.05299C25.0092 6.97232 27.5439 9.67905 28.6911 14.1014C28.9675 15.191 29.1523 16.3018 29.2436 17.4222V17.4222C29.2516 17.5213 29.2596 17.6192 29.2664 17.7149C29.3017 18.2048 29.3177 18.6571 29.3234 19.058C26.4002 17.9245 24.0375 16.6213 22.1271 15.0925C20.097 13.4669 17.9189 10.9322 17.6215 8.56264C17.5649 8.13494 17.5787 7.70084 17.6625 7.27762V7.27762ZM44.797 7.84722C44.8319 8.01513 44.8547 8.1853 44.8654 8.35644C45.0272 10.9333 42.587 13.8622 40.3325 15.6678C38.4221 17.1966 36.0594 18.4998 33.1374 19.6333C33.1525 17.9605 33.3647 16.2953 33.7696 14.6721C34.9157 10.2441 37.4504 7.53736 41.3043 6.61689C41.6545 6.53472 42.0131 6.49344 42.3728 6.49386C43.0564 6.49386 43.7103 6.64537 44.158 6.93017C44.3234 7.02756 44.4661 7.15931 44.5764 7.31652C44.6866 7.47374 44.7619 7.65276 44.797 7.84152V7.84722Z" fill="white"/>
<path d="M59.1449 20.0918H51.2013C50.4631 20.2388 49.5768 20.4472 48.5208 20.7423C45.9063 21.4714 43.317 22.2403 41.0272 22.9398H57.7232V29.7419H40.9531V31.1659H54.5096V58.9053H40.9531V61.7214C40.9537 61.7321 40.9537 61.7427 40.9531 61.7533H55.9381C56.3158 61.7533 56.678 61.6033 56.945 61.3363C57.2121 61.0692 57.3621 60.707 57.3621 60.3293V32.5899H59.1449C59.5226 32.5899 59.8848 32.4399 60.1519 32.1728C60.4189 31.9058 60.5689 31.5436 60.5689 31.1659V21.5158C60.5689 21.1381 60.4189 20.7759 60.1519 20.5089C59.8848 20.2418 59.5226 20.0918 59.1449 20.0918V20.0918Z" fill="white"/>
<path d="M23.9677 58.9053H10.4113V31.1602H23.9677V29.7419H7.19761V22.9398H19.4907C16.2132 22.0091 13.5509 21.0669 11.4388 20.0918H5.77362C5.39595 20.0918 5.03375 20.2418 4.7667 20.5089C4.49965 20.7759 4.34962 21.1381 4.34962 21.5158V31.1602C4.34887 31.3477 4.38515 31.5335 4.45638 31.7069C4.5276 31.8803 4.63238 32.038 4.76468 32.1708C4.89698 32.3037 5.05422 32.4091 5.22736 32.481C5.4005 32.5529 5.58613 32.5899 5.77362 32.5899H7.55987V60.3316C7.56048 60.7089 7.71077 61.0705 7.97776 61.3371C8.24474 61.6036 8.6066 61.7533 8.98387 61.7533H23.9689C23.9683 61.7427 23.9683 61.7321 23.9689 61.7214L23.9677 58.9053Z" fill="white"/>
<path d="M52.6847 34.1786C52.8742 34.1786 53.0558 34.1033 53.1898 33.9693C53.3238 33.8354 53.399 33.6537 53.399 33.4643C53.399 33.2748 53.3238 33.0932 53.1898 32.9592C53.0558 32.8253 52.8742 32.75 52.6847 32.75H40.9385V34.1786H52.6847Z" fill="white"/>
<path d="M12.2367 32.75C12.0473 32.75 11.8656 32.8253 11.7317 32.9592C11.5977 33.0932 11.5225 33.2748 11.5225 33.4643C11.5225 33.6537 11.5977 33.8354 11.7317 33.9693C11.8656 34.1033 12.0473 34.1786 12.2367 34.1786H23.983V32.75H12.2367Z" fill="white"/>
</svg>
