<svg width="48" height="48" viewBox="0 0 48 48" fill="none" xmlns="http://www.w3.org/2000/svg">
<path d="M38.999 6H34.499V4.5C34.499 4.10218 34.341 3.72064 34.0597 3.43934C33.7784 3.15804 33.3968 3 32.999 3C32.6012 3 32.2197 3.15804 31.9384 3.43934C31.6571 3.72064 31.499 4.10218 31.499 4.5V6H16.499V4.5C16.499 4.10218 16.341 3.72064 16.0597 3.43934C15.7784 3.15804 15.3968 3 14.999 3C14.6012 3 14.2197 3.15804 13.9384 3.43934C13.6571 3.72064 13.499 4.10218 13.499 4.5V6H8.99902C8.20362 6.00079 7.44101 6.31711 6.87857 6.87955C6.31613 7.44199 5.99981 8.20459 5.99902 9V39C5.99981 39.7954 6.31613 40.558 6.87857 41.1205C7.44101 41.6829 8.20362 41.9992 8.99902 42H38.999C39.7944 41.9992 40.557 41.6829 41.1195 41.1205C41.6819 40.558 41.9982 39.7954 41.999 39V9C41.9982 8.20459 41.6819 7.44199 41.1195 6.87955C40.557 6.31711 39.7944 6.00079 38.999 6ZM31.7781 25.0909L23.0281 33.3409C22.7493 33.6038 22.3805 33.7501 21.9973 33.7496C21.6142 33.7492 21.2457 33.6021 20.9675 33.3386L16.2175 28.8386C16.0741 28.7032 15.9589 28.5409 15.8783 28.3609C15.7978 28.1809 15.7535 27.9868 15.748 27.7897C15.7425 27.5926 15.776 27.3964 15.8464 27.2122C15.9168 27.028 16.0229 26.8596 16.1585 26.7164C16.2941 26.5733 16.4566 26.4583 16.6367 26.378C16.8168 26.2977 17.011 26.2537 17.2081 26.2486C17.4052 26.2434 17.6014 26.2771 17.7854 26.3478C17.9695 26.4186 18.1378 26.5249 18.2807 26.6607L22.0015 30.1857L29.7201 22.9083C29.8635 22.7732 30.032 22.6676 30.2161 22.5976C30.4002 22.5276 30.5963 22.4946 30.7932 22.5004C30.9901 22.5062 31.1839 22.5507 31.3636 22.6314C31.5433 22.7121 31.7053 22.8274 31.8404 22.9707C31.9755 23.114 32.0811 23.2825 32.1511 23.4666C32.2211 23.6507 32.2542 23.8468 32.2484 24.0437C32.2426 24.2406 32.1981 24.4344 32.1174 24.6141C32.0367 24.7938 31.9214 24.9558 31.7781 25.0909H31.7781ZM38.999 15H8.99902V9H13.499V10.5C13.499 10.8978 13.6571 11.2794 13.9384 11.5607C14.2197 11.842 14.6012 12 14.999 12C15.3968 12 15.7784 11.842 16.0597 11.5607C16.341 11.2794 16.499 10.8978 16.499 10.5V9H31.499V10.5C31.499 10.8978 31.6571 11.2794 31.9384 11.5607C32.2197 11.842 32.6012 12 32.999 12C33.3968 12 33.7784 11.842 34.0597 11.5607C34.341 11.2794 34.499 10.8978 34.499 10.5V9H38.999V15Z" fill="#36CA68"/>
</svg>
