<svg width="48" height="48" viewBox="0 0 48 48" fill="none" xmlns="http://www.w3.org/2000/svg">
<path d="M38.999 6H34.499V4.5C34.499 4.10218 34.341 3.72064 34.0597 3.43934C33.7784 3.15804 33.3968 3 32.999 3C32.6012 3 32.2197 3.15804 31.9384 3.43934C31.6571 3.72064 31.499 4.10218 31.499 4.5V6H16.499V4.5C16.499 4.10218 16.341 3.72064 16.0597 3.43934C15.7784 3.15804 15.3968 3 14.999 3C14.6012 3 14.2197 3.15804 13.9384 3.43934C13.6571 3.72064 13.499 4.10218 13.499 4.5V6H8.99902C8.20362 6.00079 7.44101 6.31711 6.87857 6.87955C6.31613 7.44199 5.99981 8.20459 5.99902 9V39C5.99981 39.7954 6.31613 40.558 6.87857 41.1205C7.44101 41.6829 8.20361 41.9992 8.99902 42H38.999C39.7944 41.9992 40.557 41.6829 41.1195 41.1205C41.6819 40.558 41.9982 39.7954 41.999 39V9C41.9982 8.20459 41.6819 7.44199 41.1195 6.87955C40.557 6.31711 39.7944 6.00079 38.999 6ZM29.5596 31.9395C29.6991 32.0787 29.8098 32.244 29.8854 32.4261C29.9609 32.6081 29.9999 32.8032 30 33.0003C30.0001 33.1974 29.9614 33.3926 29.886 33.5747C29.8106 33.7568 29.7001 33.9223 29.5607 34.0617C29.4213 34.201 29.2559 34.3116 29.0737 34.387C28.8916 34.4623 28.6965 34.5011 28.4994 34.501C28.3023 34.5009 28.1071 34.4619 27.9251 34.3863C27.743 34.3108 27.5777 34.2001 27.4385 34.0605L23.999 30.6211L20.5596 34.0605C20.2782 34.3413 19.8969 34.4989 19.4994 34.4987C19.1018 34.4985 18.7207 34.3405 18.4396 34.0594C18.1585 33.7783 18.0005 33.3972 18.0003 32.9997C18.0001 32.6022 18.1577 32.2208 18.4385 31.9395L21.8779 28.5L18.4385 25.0605C18.299 24.9213 18.1883 24.756 18.1127 24.5739C18.0371 24.3919 17.9982 24.1968 17.9981 23.9997C17.9979 23.8026 18.0367 23.6074 18.1121 23.4253C18.1874 23.2432 18.298 23.0777 18.4373 22.9383C18.5767 22.799 18.7422 22.6884 18.9243 22.613C19.1064 22.5377 19.3016 22.4989 19.4987 22.499C19.6958 22.4991 19.8909 22.5381 20.073 22.6137C20.255 22.6892 20.4204 22.7999 20.5596 22.9395L23.999 26.3789L27.4385 22.9395C27.5777 22.7999 27.743 22.6892 27.9251 22.6137C28.1071 22.5381 28.3023 22.4991 28.4994 22.499C28.6965 22.4989 28.8916 22.5377 29.0737 22.613C29.2559 22.6884 29.4213 22.799 29.5607 22.9383C29.7001 23.0777 29.8106 23.2432 29.886 23.4253C29.9614 23.6074 30.0001 23.8026 30 23.9997C29.9999 24.1968 29.9609 24.3919 29.8854 24.5739C29.8098 24.756 29.6991 24.9213 29.5596 25.0605L26.1201 28.5L29.5596 31.9395ZM38.999 15H8.99902V9H13.499V10.5C13.499 10.8978 13.6571 11.2794 13.9384 11.5607C14.2197 11.842 14.6012 12 14.999 12C15.3968 12 15.7784 11.842 16.0597 11.5607C16.341 11.2794 16.499 10.8978 16.499 10.5V9H31.499V10.5C31.499 10.8978 31.6571 11.2794 31.9384 11.5607C32.2197 11.842 32.6012 12 32.999 12C33.3968 12 33.7784 11.842 34.0597 11.5607C34.341 11.2794 34.499 10.8978 34.499 10.5V9H38.999V15Z" fill="#FF0000"/>
</svg>
