<svg width="48" height="48" viewBox="0 0 48 48" fill="none" xmlns="http://www.w3.org/2000/svg">
<path d="M38.999 6H34.499V4.5C34.499 4.10218 34.341 3.72064 34.0597 3.43934C33.7784 3.15804 33.3968 3 32.999 3C32.6012 3 32.2197 3.15804 31.9384 3.43934C31.6571 3.72064 31.499 4.10218 31.499 4.5V6H16.499V4.5C16.499 4.10218 16.341 3.72064 16.0597 3.43934C15.7784 3.15804 15.3968 3 14.999 3C14.6012 3 14.2197 3.15804 13.9384 3.43934C13.6571 3.72064 13.499 4.10218 13.499 4.5V6H8.99902C8.20362 6.00079 7.44101 6.31711 6.87857 6.87955C6.31613 7.44199 5.99981 8.20459 5.99902 9V39C5.99981 39.7954 6.31613 40.558 6.87857 41.1205C7.44101 41.6829 8.20361 41.9992 8.99902 42H38.999C39.7944 41.9992 40.557 41.6829 41.1195 41.1205C41.6819 40.558 41.9982 39.7954 41.999 39V9C41.9982 8.20459 41.6819 7.44199 41.1195 6.87955C40.557 6.31711 39.7944 6.00079 38.999 6ZM38.999 15H8.99902V9H13.499V10.5C13.499 10.8978 13.6571 11.2794 13.9384 11.5607C14.2197 11.842 14.6012 12 14.999 12C15.3968 12 15.7784 11.842 16.0597 11.5607C16.341 11.2794 16.499 10.8978 16.499 10.5V9H31.499V10.5C31.499 10.8978 31.6571 11.2794 31.9384 11.5607C32.2197 11.842 32.6012 12 32.999 12C33.3968 12 33.7784 11.842 34.0597 11.5607C34.341 11.2794 34.499 10.8978 34.499 10.5V9H38.999V15Z" fill="#336CFF"/>
<path d="M20.2761 34.1065C20.4898 34.0482 20.5967 34.0191 20.6964 33.9743C20.7848 33.9346 20.869 33.8858 20.9474 33.8287C21.0356 33.7643 21.114 33.686 21.2706 33.5294L28.504 26.296C28.6426 26.1574 28.7119 26.0881 28.7379 26.0082C28.7607 25.9379 28.7607 25.8621 28.7379 25.7918C28.7119 25.7119 28.6426 25.6426 28.504 25.504L26.496 23.496C26.3574 23.3574 26.2881 23.2881 26.2082 23.2621C26.1379 23.2393 26.0621 23.2393 25.9918 23.2621C25.9119 23.2881 25.8426 23.3574 25.704 23.496L18.4706 30.7294C18.314 30.886 18.2356 30.9643 18.1713 31.0526C18.1142 31.131 18.0654 31.2152 18.0257 31.3036C17.9809 31.4033 17.9518 31.5102 17.8935 31.7239L17 35L20.2761 34.1065Z" fill="white"/>
<path d="M28.2 21L31 23.8M17 35L17.8935 31.7239C17.9518 31.5102 17.9809 31.4033 18.0257 31.3036C18.0654 31.2152 18.1142 31.131 18.1713 31.0526C18.2356 30.9644 18.314 30.886 18.4706 30.7294L25.704 23.496C25.8426 23.3574 25.9119 23.2881 25.9918 23.2621C26.0621 23.2393 26.1379 23.2393 26.2082 23.2621C26.2881 23.2881 26.3574 23.3574 26.496 23.496L28.504 25.504C28.6426 25.6426 28.7119 25.7119 28.7379 25.7918C28.7607 25.8621 28.7607 25.9379 28.7379 26.0082C28.7119 26.0881 28.6426 26.1574 28.504 26.296L21.2706 33.5294C21.114 33.686 21.0356 33.7643 20.9474 33.8287C20.869 33.8858 20.7848 33.9346 20.6964 33.9743C20.5967 34.0191 20.4898 34.0482 20.2761 34.1065L17 35Z" stroke="white" stroke-linecap="round" stroke-linejoin="round"/>
</svg>
