<svg width="32" height="32" viewBox="0 0 32 32" fill="none" xmlns="http://www.w3.org/2000/svg">
<path d="M25.999 4H22.999V3C22.999 2.73478 22.8937 2.48043 22.7061 2.29289C22.5186 2.10536 22.2642 2 21.999 2C21.7338 2 21.4795 2.10536 21.2919 2.29289C21.1044 2.48043 20.999 2.73478 20.999 3V4H10.999V3C10.999 2.73478 10.8937 2.48043 10.7061 2.29289C10.5186 2.10536 10.2642 2 9.99902 2C9.73381 2 9.47945 2.10536 9.29192 2.29289C9.10438 2.48043 8.99902 2.73478 8.99902 3V4H5.99902C5.46875 4.00052 4.96035 4.21141 4.58539 4.58636C4.21043 4.96132 3.99955 5.46973 3.99902 6V26C3.99955 26.5303 4.21043 27.0387 4.58539 27.4136C4.96035 27.7886 5.46875 27.9995 5.99902 28H25.999C26.5293 27.9995 27.0377 27.7886 27.4127 27.4136C27.7876 27.0387 27.9985 26.5303 27.999 26V6C27.9985 5.46973 27.7876 4.96132 27.4127 4.58636C27.0377 4.21141 26.5293 4.00052 25.999 4ZM19.4998 20.0004H16.9998V22.5004C16.9998 22.7656 16.8944 23.0199 16.7069 23.2075C16.5193 23.395 16.265 23.5004 15.9998 23.5004C15.7345 23.5004 15.4802 23.395 15.2926 23.2075C15.1051 23.0199 14.9998 22.7656 14.9998 22.5004V20.0004H12.4998C12.2345 20.0004 11.9802 19.895 11.7926 19.7075C11.6051 19.5199 11.4998 19.2656 11.4998 19.0004C11.4998 18.7351 11.6051 18.4808 11.7926 18.2933C11.9802 18.1057 12.2345 18.0004 12.4998 18.0004H14.9998V15.5004C14.9998 15.2351 15.1051 14.9808 15.2926 14.7933C15.4802 14.6057 15.7345 14.5004 15.9998 14.5004C16.265 14.5004 16.5193 14.6057 16.7069 14.7933C16.8944 14.9808 16.9998 15.2351 16.9998 15.5004V18.0004H19.4998C19.765 18.0004 20.0193 18.1057 20.2069 18.2933C20.3944 18.4808 20.4998 18.7351 20.4998 19.0004C20.4998 19.2656 20.3944 19.5199 20.2069 19.7075C20.0193 19.895 19.765 20.0004 19.4998 20.0004ZM25.999 10H5.99902V6H8.99902V7C8.99902 7.26522 9.10438 7.51957 9.29192 7.70711C9.47945 7.89464 9.73381 8 9.99902 8C10.2642 8 10.5186 7.89464 10.7061 7.70711C10.8937 7.51957 10.999 7.26522 10.999 7V6H20.999V7C20.999 7.26522 21.1044 7.51957 21.2919 7.70711C21.4795 7.89464 21.7338 8 21.999 8C22.2642 8 22.5186 7.89464 22.7061 7.70711C22.8937 7.51957 22.999 7.26522 22.999 7V6H25.999V10Z" fill="black"/>
</svg>
