<svg width="46" height="45" viewBox="0 0 46 45" fill="none" xmlns="http://www.w3.org/2000/svg">
<path d="M41.726 22.2047C41.7245 24.9398 41.0576 27.6335 39.7828 30.0533C38.508 32.4732 36.6635 34.5465 34.4086 36.0945C32.1537 37.6424 29.5559 38.6184 26.8396 38.9384C24.1233 39.2583 21.3699 38.9125 18.817 37.9308C18.6037 37.8398 18.3843 37.7635 18.1605 37.7025C18.0376 37.6834 17.9124 37.6834 17.7895 37.7025C17.5963 37.689 17.4024 37.689 17.2092 37.7025L7.04854 38.7395C6.09717 38.8441 5.59295 38.8917 5.30754 38.7395C5.1797 38.665 5.071 38.5617 4.99008 38.4378C4.90915 38.314 4.85823 38.1729 4.84136 38.026C4.78428 37.693 5.02212 37.2649 5.47878 36.4086L8.72295 30.4055C8.91315 30.108 9.0665 29.7886 9.17961 29.4541C9.24092 29.2443 9.26032 29.0245 9.23669 28.8072C9.16664 28.3963 9.05179 27.9943 8.8942 27.6085C8.1176 25.294 7.85323 22.8384 8.1194 20.4117C8.38556 17.985 9.17589 15.6451 10.4357 13.554C11.6955 11.4629 13.3947 9.67052 15.4156 8.30097C17.4365 6.93142 19.7309 6.0174 22.14 5.62217C24.5491 5.22694 27.0153 5.35995 29.3678 6.01199C31.7204 6.66403 33.9032 7.81952 35.7651 9.39849C37.627 10.9774 39.1236 12.9422 40.1512 15.1566C41.1788 17.3711 41.7128 19.7824 41.7165 22.2237L41.726 22.2047Z" stroke="#BFBFBF" stroke-width="2" stroke-linecap="round" stroke-linejoin="round"/>
<path d="M24.8681 17.1434C24.4623 16.6287 23.9572 16.2006 23.3829 15.8846C22.8086 15.5686 22.1768 15.371 21.5247 15.3036C20.8727 15.2362 20.2138 15.3003 19.5869 15.4921C18.9601 15.6839 18.3782 15.9996 17.8756 16.4204C16.8126 17.2833 16.1334 18.531 15.9855 19.8922C15.8376 21.2533 16.2331 22.6178 17.0859 23.6888C18.8668 25.6829 20.7734 27.5609 22.7942 29.3114C23.2037 29.7705 23.7064 30.137 24.2688 30.3865C24.6404 30.5033 25.0388 30.5033 25.4104 30.3865C25.9774 30.1403 26.4839 29.7734 26.8946 29.3114C28.9107 27.556 30.8171 25.6782 32.6028 23.6888C33.0281 23.1594 33.3449 22.5512 33.535 21.8992C33.7251 21.2471 33.7847 20.564 33.7105 19.8889C33.6362 19.2138 33.4296 18.5599 33.1024 17.9648C32.7752 17.3696 32.3339 16.8448 31.8036 16.4204C31.3019 16.0097 30.7239 15.7025 30.1028 15.5165C29.4818 15.3305 28.83 15.2693 28.1852 15.3365C27.5404 15.4038 26.9153 15.598 26.3459 15.9082C25.7766 16.2183 25.2743 16.6381 24.8681 17.1434Z" stroke="#BFBFBF" stroke-width="2" stroke-linecap="round" stroke-linejoin="round"/>
</svg>
