<svg width="45" height="45" viewBox="0 0 45 45" fill="none" xmlns="http://www.w3.org/2000/svg">
<path d="M41.393 22.2048C41.3915 24.9399 40.7246 27.6336 39.4498 30.0534C38.175 32.4733 36.3305 34.5466 34.0756 36.0946C31.8206 37.6425 29.2229 38.6185 26.5066 38.9385C23.7902 39.2584 21.0369 38.9126 18.484 37.9309C18.2707 37.8399 18.0513 37.7636 17.8275 37.7026C17.7046 37.6835 17.5794 37.6835 17.4565 37.7026C17.2633 37.6891 17.0694 37.6891 16.8762 37.7026L6.71553 38.7396C5.76416 38.8442 5.25994 38.8918 4.97453 38.7396C4.84669 38.6651 4.73799 38.5618 4.65707 38.4379C4.57614 38.3141 4.52522 38.173 4.50836 38.026C4.45127 37.6931 4.68912 37.265 5.14577 36.4087L8.38995 30.4056C8.58015 30.1081 8.73349 29.7887 8.8466 29.4542C8.90791 29.2444 8.92731 29.0246 8.90368 28.8073C8.83363 28.3964 8.71878 27.9944 8.56119 27.6085C7.78459 25.2941 7.52022 22.8385 7.78639 20.4118C8.05255 17.9851 8.84289 15.6452 10.1027 13.5541C11.3625 11.463 13.0617 9.67061 15.0826 8.30106C17.1035 6.93151 19.3979 6.01749 21.807 5.62226C24.2161 5.22703 26.6823 5.36004 29.0348 6.01208C31.3874 6.66412 33.5702 7.81961 35.4321 9.39858C37.294 10.9775 38.7906 12.9423 39.8182 15.1567C40.8457 17.3712 41.3798 19.7825 41.3835 22.2238L41.393 22.2048Z" stroke="url(#paint0_linear_2324_6151)" stroke-width="4" stroke-linecap="round" stroke-linejoin="round"/>
<path d="M24.5351 17.1435C24.1293 16.6287 23.6242 16.2007 23.0499 15.8847C22.4756 15.5686 21.8437 15.3711 21.1917 15.3036C20.5397 15.2362 19.8807 15.3003 19.2539 15.4921C18.6271 15.684 18.0452 15.9996 17.5426 16.4204C16.4796 17.2834 15.8003 18.5311 15.6525 19.8922C15.5046 21.2534 15.9001 22.6178 16.7529 23.6889C18.5338 25.6829 20.4404 27.561 22.4612 29.3115C22.8707 29.7706 23.3734 30.1371 23.9358 30.3865C24.3074 30.5034 24.7058 30.5034 25.0774 30.3865C25.6444 30.1403 26.1509 29.7735 26.5616 29.3115C28.5777 27.5561 30.4841 25.6783 32.2698 23.6889C32.6951 23.1594 33.0119 22.5513 33.202 21.8992C33.392 21.2472 33.4517 20.5641 33.3774 19.889C33.3032 19.2138 33.0966 18.56 32.7694 17.9648C32.4422 17.3697 32.0009 16.8449 31.4706 16.4204C30.9689 16.0098 30.3909 15.7026 29.7698 15.5166C29.1488 15.3305 28.497 15.2694 27.8522 15.3366C27.2074 15.4038 26.5823 15.5981 26.0129 15.9082C25.4436 16.2184 24.9413 16.6382 24.5351 17.1435Z" stroke="url(#paint1_linear_2324_6151)" stroke-width="2.5" stroke-linecap="round" stroke-linejoin="round"/>
<defs>
<linearGradient id="paint0_linear_2324_6151" x1="4.49713" y1="22.2211" x2="41.3929" y2="22.2211" gradientUnits="userSpaceOnUse">
<stop stop-color="#C91A44"/>
<stop offset="1" stop-color="#A12FA3"/>
</linearGradient>
<linearGradient id="paint1_linear_2324_6151" x1="15.6207" y1="22.8732" x2="33.4084" y2="22.8732" gradientUnits="userSpaceOnUse">
<stop stop-color="#C91A44"/>
<stop offset="1" stop-color="#A12FA3"/>
</linearGradient>
</defs>
</svg>
