<svg width="40" height="29" viewBox="0 0 40 29" fill="none" xmlns="http://www.w3.org/2000/svg">
<path fill-rule="evenodd" clip-rule="evenodd" d="M6.30268 12.7586L14.633 21.0943L34.3312 1.39613C34.629 1.09385 34.9837 0.853515 35.3748 0.688989C35.7659 0.524458 36.1857 0.438992 36.61 0.437519C37.0343 0.436049 37.4547 0.518597 37.8469 0.680405C38.2392 0.842211 38.5955 1.08008 38.8953 1.38028C39.1952 1.68049 39.4326 2.03709 39.594 2.42952C39.7553 2.82195 39.8374 3.24244 39.8354 3.66673C39.8334 4.09103 39.7475 4.51074 39.5825 4.90166C39.4175 5.29257 39.1767 5.64694 38.8741 5.94434L16.9098 27.914C16.612 28.2141 16.2578 28.4523 15.8675 28.6149C15.4771 28.7775 15.0585 28.8612 14.6357 28.8612C14.2129 28.8612 13.7943 28.7775 13.404 28.6149C13.0137 28.4523 12.6594 28.2141 12.3616 27.914L1.75446 17.3068C1.15133 16.7037 0.8125 15.8857 0.8125 15.0327C0.8125 14.1798 1.15133 13.3618 1.75446 12.7586C2.0531 12.46 2.40764 12.2231 2.79784 12.0615C3.18803 11.8999 3.60623 11.8167 4.02857 11.8167C4.45091 11.8167 4.86912 11.8999 5.25931 12.0615C5.6495 12.2231 6.00404 12.46 6.30268 12.7586Z" fill="white"/>
</svg>
