<svg width="32" height="33" viewBox="0 0 32 33" fill="none" xmlns="http://www.w3.org/2000/svg">
<rect y="0.5" width="32" height="32" rx="4" fill="#FFE0D2"/>
<path d="M19 13.5H19.01M13 13.5H13.01M26 16.5C26 22.0228 21.5228 26.5 16 26.5C10.4772 26.5 6 22.0228 6 16.5C6 10.9772 10.4772 6.5 16 6.5C21.5228 6.5 26 10.9772 26 16.5ZM19.5 13.5C19.5 13.7761 19.2761 14 19 14C18.7239 14 18.5 13.7761 18.5 13.5C18.5 13.2239 18.7239 13 19 13C19.2761 13 19.5 13.2239 19.5 13.5ZM13.5 13.5C13.5 13.7761 13.2761 14 13 14C12.7239 14 12.5 13.7761 12.5 13.5C12.5 13.2239 12.7239 13 13 13C13.2761 13 13.5 13.2239 13.5 13.5ZM16 22C18.5005 22 20.5 20.167 20.5 18.5H11.5C11.5 20.167 13.4995 22 16 22Z" stroke="#E46125" stroke-width="2" stroke-linecap="round" stroke-linejoin="round"/>
</svg>
