<svg width="32" height="32" viewBox="0 0 32 32" fill="none" xmlns="http://www.w3.org/2000/svg">
<path d="M19 13.5H23" stroke="black" stroke-width="2" stroke-linecap="round" stroke-linejoin="round"/>
<path d="M9 13.5H13" stroke="black" stroke-width="2" stroke-linecap="round" stroke-linejoin="round"/>
<path d="M11 11.5V15.5" stroke="black" stroke-width="2" stroke-linecap="round" stroke-linejoin="round"/>
<path d="M21.5026 6.9668L10.5009 6.99932C8.97269 6.99944 7.49335 7.53785 6.32256 8.52006C5.15178 9.50226 4.36438 10.8655 4.0986 12.3704L4.09966 12.3706L2.05411 22.891C1.92491 23.624 2.03276 24.3792 2.36199 25.0467C2.69123 25.7143 3.22471 26.2596 3.88495 26.6033C4.54519 26.947 5.29781 27.0713 6.0335 26.9581C6.76919 26.8449 7.44964 26.5001 7.97602 25.9738L7.97581 25.9736L13.3803 19.9993L21.5026 19.9668C23.2266 19.9668 24.8799 19.282 26.0988 18.063C27.3178 16.844 28.0026 15.1907 28.0026 13.4668C28.0026 11.7429 27.3178 10.0896 26.0988 8.8706C24.8799 7.65162 23.2266 6.9668 21.5026 6.9668V6.9668Z" stroke="black" stroke-width="2" stroke-linecap="round" stroke-linejoin="round"/>
<path d="M27.9035 12.3379L29.9474 22.8908C30.0766 23.6238 29.9688 24.379 29.6395 25.0466C29.3103 25.7141 28.7768 26.2594 28.1166 26.6031C27.4563 26.9468 26.7037 27.0711 25.968 26.9579C25.2323 26.8447 24.5519 26.4999 24.0255 25.9736L24.0257 25.9734L18.625 19.9781" stroke="black" stroke-width="2" stroke-linecap="round" stroke-linejoin="round"/>
</svg>
