<svg width="32" height="32" viewBox="0 0 32 32" fill="none" xmlns="http://www.w3.org/2000/svg">
<path d="M30.9325 22.7172C30.9315 22.7117 30.9305 22.7062 30.9294 22.7007L28.8856 12.1478C28.8841 12.1399 28.8816 12.1324 28.8799 12.1246C28.5637 10.3978 27.6526 8.83639 26.3049 7.71148C24.9572 6.58658 23.258 5.96928 21.5026 5.9668H21.4996L10.5009 5.99926C8.73636 5.99576 7.02738 6.61585 5.67569 7.75005C4.324 8.88424 3.41655 10.4596 3.11359 12.1979C3.112 12.2069 3.11054 12.2161 3.1092 12.2251L1.07245 22.6999C1.07136 22.7057 1.07032 22.7114 1.06928 22.7172C0.903196 23.6596 1.04184 24.6304 1.46507 25.4886C1.8883 26.3469 2.57409 27.0479 3.42284 27.4898C4.2716 27.9318 5.23914 28.0917 6.18496 27.9463C7.13078 27.8009 8.00564 27.3578 8.6825 26.6814C8.70063 26.6633 8.71796 26.6447 8.7345 26.6255L13.8256 20.9974L18.1818 20.98L23.2658 26.6236C23.2827 26.6434 23.3006 26.6627 23.3193 26.6814C23.9961 27.3579 24.871 27.8011 25.8168 27.9465C26.7627 28.092 27.7303 27.9321 28.5791 27.4901C29.4279 27.0481 30.1137 26.3471 30.5369 25.4888C30.9601 24.6305 31.0987 23.6596 30.9325 22.7172L30.9325 22.7172ZM13.0003 14.4993H12.0003V15.4993C12.0003 15.7645 11.895 16.0188 11.7074 16.2064C11.5199 16.3939 11.2655 16.4993 11.0003 16.4993C10.7351 16.4993 10.4807 16.3939 10.2932 16.2064C10.1057 16.0188 10.0003 15.7645 10.0003 15.4993V14.4993H9.00031C8.73509 14.4993 8.48074 14.3939 8.2932 14.2064C8.10567 14.0188 8.00031 13.7645 8.00031 13.4993C8.00031 13.234 8.10567 12.9797 8.2932 12.7922C8.48074 12.6046 8.73509 12.4993 9.00031 12.4993H10.0003V11.4993C10.0003 11.234 10.1057 10.9797 10.2932 10.7922C10.4807 10.6046 10.7351 10.4993 11.0003 10.4993C11.2655 10.4993 11.5199 10.6046 11.7074 10.7922C11.895 10.9797 12.0003 11.234 12.0003 11.4993V12.4993H13.0003C13.2655 12.4993 13.5199 12.6046 13.7074 12.7922C13.895 12.9797 14.0003 13.234 14.0003 13.4993C14.0003 13.7645 13.895 14.0188 13.7074 14.2064C13.5199 14.3939 13.2655 14.4993 13.0003 14.4993ZM18.0003 13.4993C18.0003 13.234 18.1057 12.9797 18.2932 12.7922C18.4807 12.6046 18.7351 12.4993 19.0003 12.4993H23.0003C23.2655 12.4993 23.5199 12.6046 23.7074 12.7922C23.895 12.9797 24.0003 13.234 24.0003 13.4993C24.0003 13.7645 23.895 14.0188 23.7074 14.2064C23.5199 14.3939 23.2655 14.4993 23.0003 14.4993H19.0003C18.7351 14.4993 18.4807 14.3939 18.2932 14.2064C18.1057 14.0188 18.0003 13.7645 18.0003 13.4993ZM26.935 25.9607C26.5439 26.0293 26.142 26.004 25.7627 25.8868C25.3833 25.7695 25.0372 25.5637 24.753 25.2864L20.864 20.9694L21.5026 20.9668C22.7776 20.966 24.0315 20.6403 25.1456 20.0202C26.2598 19.4001 27.1975 18.5063 27.8702 17.4231L28.9642 23.0721C29.0764 23.7241 28.9259 24.3939 28.5457 24.9351C28.1654 25.4764 27.5863 25.8451 26.935 25.9607Z" fill="black"/>
</svg>
