<svg width="32" height="32" viewBox="0 0 32 32" fill="none" xmlns="http://www.w3.org/2000/svg">
<path d="M15.9993 7.99935V29.3327M15.9993 7.99935H11.2851C10.5904 7.99935 9.92428 7.7184 9.43312 7.2183C8.94195 6.7182 8.66602 6.03993 8.66602 5.33268C8.66602 4.62544 8.94195 3.94716 9.43312 3.44706C9.92428 2.94697 10.5904 2.66602 11.2851 2.66602C14.9517 2.66602 15.9993 7.99935 15.9993 7.99935ZM15.9993 7.99935H20.7136C21.4082 7.99935 22.0744 7.7184 22.5656 7.2183C23.0567 6.7182 23.3327 6.03993 23.3327 5.33268C23.3327 4.62544 23.0567 3.94716 22.5656 3.44706C22.0744 2.94697 21.4082 2.66602 20.7136 2.66602C17.047 2.66602 15.9993 7.99935 15.9993 7.99935ZM26.666 14.666V25.066C26.666 26.5595 26.666 27.3062 26.3754 27.8767C26.1197 28.3784 25.7118 28.7864 25.21 29.042C24.6396 29.3327 23.8928 29.3327 22.3993 29.3327L9.59935 29.3327C8.10588 29.3327 7.35914 29.3327 6.78871 29.042C6.28694 28.7864 5.87899 28.3784 5.62333 27.8767C5.33268 27.3062 5.33268 26.5595 5.33268 25.066V14.666M2.66602 10.1327L2.66602 12.5327C2.66602 13.2794 2.66602 13.6528 2.81134 13.938C2.93917 14.1889 3.14315 14.3929 3.39403 14.5207C3.67924 14.666 4.05261 14.666 4.79935 14.666L27.1994 14.666C27.9461 14.666 28.3195 14.666 28.6047 14.5207C28.8556 14.3929 29.0595 14.1889 29.1874 13.938C29.3327 13.6528 29.3327 13.2794 29.3327 12.5327V10.1327C29.3327 9.38595 29.3327 9.01258 29.1874 8.72736C29.0595 8.47648 28.8556 8.27251 28.6047 8.14467C28.3195 7.99935 27.9461 7.99935 27.1993 7.99935L4.79935 7.99935C4.05261 7.99935 3.67924 7.99935 3.39403 8.14467C3.14315 8.2725 2.93917 8.47648 2.81134 8.72736C2.66602 9.01258 2.66602 9.38595 2.66602 10.1327Z" stroke="#A9A9A9" stroke-width="2" stroke-linecap="round" stroke-linejoin="round"/>
</svg>
