<svg width="32" height="32" viewBox="0 0 32 32" fill="none" xmlns="http://www.w3.org/2000/svg">
<path d="M28.0788 6.488C27.3998 5.7269 26.5716 5.11345 25.6456 4.68575C24.7197 4.25805 23.7157 4.0252 22.696 4.00168C21.6793 3.98031 20.6686 4.16355 19.7241 4.54051C18.7796 4.91747 17.9206 5.48046 17.1979 6.19601L16.0007 7.39328L15.0632 6.45675C12.1472 3.53781 7.40108 3.29269 4.49092 5.91965C3.73239 6.60005 3.12054 7.42794 2.69273 8.35276C2.26492 9.27758 2.03013 10.2799 2.00271 11.2985C1.9753 12.3171 2.15582 13.3306 2.53326 14.2771C2.9107 15.2236 3.47713 16.0832 4.19795 16.8034L14.5866 27.1921C14.9619 27.5667 15.4705 27.7771 16.0007 27.7771C16.5309 27.7771 17.0395 27.5667 17.4147 27.1921L27.5437 17.0632C30.4616 14.1443 30.7019 9.40011 28.0788 6.488Z" fill="black"/>
</svg>
