<svg width="36" height="37" viewBox="0 0 36 37" fill="none" xmlns="http://www.w3.org/2000/svg">
<rect y="0.5" width="36" height="36" rx="4" fill="#FFE0D2"/>
<path d="M21 15.5H21.01M15 15.5H15.01M28 18.5C28 24.0228 23.5228 28.5 18 28.5C12.4772 28.5 8 24.0228 8 18.5C8 12.9772 12.4772 8.5 18 8.5C23.5228 8.5 28 12.9772 28 18.5ZM21.5 15.5C21.5 15.7761 21.2761 16 21 16C20.7239 16 20.5 15.7761 20.5 15.5C20.5 15.2239 20.7239 15 21 15C21.2761 15 21.5 15.2239 21.5 15.5ZM15.5 15.5C15.5 15.7761 15.2761 16 15 16C14.7239 16 14.5 15.7761 14.5 15.5C14.5 15.2239 14.7239 15 15 15C15.2761 15 15.5 15.2239 15.5 15.5ZM18 24C20.5005 24 22.5 22.167 22.5 20.5H13.5C13.5 22.167 15.4995 24 18 24Z" stroke="#E46125" stroke-width="2" stroke-linecap="round" stroke-linejoin="round"/>
</svg>
