<svg width="45" height="45" viewBox="0 0 45 45" fill="none" xmlns="http://www.w3.org/2000/svg">
<path d="M22.3363 10.3056C18.5826 5.92178 12.3354 4.74256 7.63646 8.75733C5.4016 10.6135 3.97705 13.2668 3.66452 16.1551C3.352 19.0435 4.17605 21.94 5.96214 24.2313C8.75267 27.832 16.6652 35.0334 20.3649 38.319C20.7625 38.7585 21.2467 39.111 21.7872 39.3542C22.1404 39.4534 22.5141 39.4534 22.8674 39.3542C23.4111 39.1121 23.8985 38.7595 24.2987 38.319C27.9984 35.0154 35.9199 27.814 38.7014 24.2313C40.5109 21.9499 41.3505 19.0483 41.0389 16.1531C40.7273 13.258 39.2896 10.6015 37.0361 8.75733C32.2562 4.78756 26.099 5.92178 22.3363 10.3056Z" stroke="url(#paint0_linear_2324_6135)" stroke-width="4" stroke-linecap="round" stroke-linejoin="round"/>
<path d="M22.381 10.3056V14.3204C22.381 15.1666 21.913 14.7615 20.9858 14.1944C20.0586 13.6273 16.935 12.277 15.9268 15.1756C15.2067 17.264 15.4317 20.6666 17.7812 20.6936C20.1306 20.7206 22.381 18.8933 22.381 20.6936V23.3041C22.381 23.8172 22.3 24.6454 23.7943 23.8442C25.2886 23.0431 28.2232 21.4768 28.9343 25.0325C29.6454 28.5881 28.0341 30.1364 26.4588 29.8844C24.8835 29.6323 22.381 27.895 22.381 29.2903V39.4262" stroke="url(#paint1_linear_2324_6135)" stroke-width="2.5" stroke-linecap="round" stroke-linejoin="round"/>
<defs>
<linearGradient id="paint0_linear_2324_6135" x1="3.59669" y1="22.8583" x2="41.1026" y2="22.8583" gradientUnits="userSpaceOnUse">
<stop stop-color="#C91A44"/>
<stop offset="1" stop-color="#A12FA3"/>
</linearGradient>
<linearGradient id="paint1_linear_2324_6135" x1="15.5634" y1="24.8607" x2="29.1072" y2="24.8607" gradientUnits="userSpaceOnUse">
<stop stop-color="#C91A44"/>
<stop offset="1" stop-color="#A12FA3"/>
</linearGradient>
</defs>
</svg>
