<svg width="46" height="45" viewBox="0 0 46 45" fill="none" xmlns="http://www.w3.org/2000/svg">
<path d="M23.0023 10.3057C19.2486 5.92184 13.0014 4.74262 8.30247 8.75739C6.06761 10.6136 4.64306 13.2669 4.33054 16.1552C4.01801 19.0435 4.84206 21.9401 6.62815 24.2314C9.41869 27.8321 17.3312 35.0334 21.0309 38.3191C21.4285 38.7586 21.9127 39.1111 22.4532 39.3543C22.8064 39.4534 23.1802 39.4534 23.5334 39.3543C24.0771 39.1121 24.5645 38.7596 24.9647 38.3191C28.6644 35.0154 36.5859 27.814 39.3674 24.2314C41.1769 21.9499 42.0165 19.0484 41.7049 16.1532C41.3933 13.258 39.9556 10.6016 37.7021 8.75739C32.9222 4.78763 26.765 5.92184 23.0023 10.3057Z" stroke="url(#paint0_linear_2996_2505)" stroke-width="4" stroke-linecap="round" stroke-linejoin="round"/>
<path d="M23.0471 10.3057V14.3204C23.0471 15.1666 22.579 14.7615 21.6518 14.1944C20.7246 13.6273 17.601 12.277 16.5928 15.1756C15.8727 17.264 16.0977 20.6667 18.4472 20.6937C20.7966 20.7207 23.0471 18.8933 23.0471 20.6937V23.3042C23.0471 23.8173 22.966 24.6454 24.4603 23.8443C25.9546 23.0431 28.8892 21.4768 29.6003 25.0325C30.3115 28.5882 28.7001 30.1365 27.1248 29.8844C25.5495 29.6324 23.0471 27.895 23.0471 29.2903V39.4263" stroke="url(#paint1_linear_2996_2505)" stroke-width="2.5" stroke-linecap="round" stroke-linejoin="round"/>
<defs>
<linearGradient id="paint0_linear_2996_2505" x1="4.26271" y1="22.8584" x2="41.7686" y2="22.8584" gradientUnits="userSpaceOnUse">
<stop stop-color="#E46125"/>
<stop offset="1" stop-color="#C91A44"/>
</linearGradient>
<linearGradient id="paint1_linear_2996_2505" x1="16.2294" y1="24.8607" x2="29.7733" y2="24.8607" gradientUnits="userSpaceOnUse">
<stop stop-color="#E46125"/>
<stop offset="1" stop-color="#C91A44"/>
</linearGradient>
</defs>
</svg>
