<svg width="46" height="45" viewBox="0 0 46 45" fill="none" xmlns="http://www.w3.org/2000/svg">
<path d="M23.0033 10.3057C19.2496 5.92184 13.0024 4.74262 8.30345 8.75739C6.06859 10.6136 4.64404 13.2669 4.33151 16.1552C4.01899 19.0435 4.84304 21.9401 6.62913 24.2314C9.41967 27.8321 17.3322 35.0334 21.0319 38.3191C21.4295 38.7586 21.9137 39.1111 22.4542 39.3543C22.8074 39.4534 23.1811 39.4534 23.5344 39.3543C24.0781 39.1121 24.5655 38.7596 24.9657 38.3191C28.6654 35.0154 36.5869 27.814 39.3684 24.2314C41.1779 21.9499 42.0175 19.0484 41.7059 16.1532C41.3943 13.258 39.9566 10.6016 37.7031 8.75739C32.9232 4.78763 26.766 5.92184 23.0033 10.3057Z" stroke="#BFBFBF" stroke-width="2" stroke-linecap="round" stroke-linejoin="round"/>
<path d="M23.048 10.3057V14.3204C23.048 15.1666 22.5799 14.7615 21.6528 14.1944C20.7256 13.6273 17.602 12.277 16.5938 15.1756C15.8737 17.264 16.0987 20.6667 18.4482 20.6937C20.7976 20.7207 23.048 18.8933 23.048 20.6937V23.3042C23.048 23.8173 22.967 24.6454 24.4613 23.8443C25.9556 23.0431 28.8902 21.4768 29.6013 25.0325C30.3124 28.5882 28.7011 30.1365 27.1258 29.8844C25.5505 29.6324 23.048 27.895 23.048 29.2903V39.4263" stroke="#BFBFBF" stroke-width="2" stroke-linecap="round" stroke-linejoin="round"/>
</svg>
