<svg width="32" height="32" viewBox="0 0 32 32" fill="none" xmlns="http://www.w3.org/2000/svg">
<path d="M16.0023 6.50702V15.0204H25.5296L23.3251 12.8133C23.1621 12.6507 23.0631 12.4349 23.0459 12.2053C23.0288 11.9757 23.0947 11.7476 23.2316 11.5626L23.3251 11.455C23.4878 11.2926 23.7034 11.194 23.9327 11.1771C24.162 11.1601 24.3898 11.2261 24.5746 11.3629L24.6821 11.455L28.5189 15.2931C28.6815 15.4557 28.7804 15.6712 28.7975 15.9005C28.8147 16.1298 28.749 16.3576 28.6123 16.5426L28.5189 16.6501L24.6834 20.4946C24.512 20.6652 24.2826 20.7649 24.041 20.7738C23.7993 20.7826 23.5632 20.7 23.3799 20.5423C23.1965 20.3847 23.0794 20.1636 23.0519 19.9234C23.0244 19.6831 23.0886 19.4414 23.2316 19.2464L23.3238 19.1388L25.5168 16.9407H16.0036L16.0023 25.577C16.0022 25.7171 15.9714 25.8555 15.9121 25.9825C15.8528 26.1094 15.7665 26.2218 15.6591 26.3119C15.5518 26.4019 15.426 26.4674 15.2907 26.5036C15.1553 26.5399 15.0137 26.5461 14.8757 26.5218L3.99392 24.6002C3.77148 24.5611 3.56995 24.4447 3.42478 24.2717C3.27961 24.0987 3.20009 23.88 3.2002 23.6541V8.29419C3.2002 8.06662 3.28103 7.84645 3.42828 7.67293C3.57553 7.49942 3.77963 7.38385 4.00417 7.34684L14.8859 5.55966C15.0234 5.537 15.1641 5.54452 15.2984 5.5817C15.4326 5.61888 15.5572 5.68482 15.6634 5.77495C15.7696 5.86509 15.8549 5.97725 15.9135 6.10367C15.972 6.23008 16.0023 6.36772 16.0023 6.50702ZM11.5241 15.6541C11.1837 15.6541 10.8573 15.7893 10.6166 16.03C10.3759 16.2707 10.2407 16.5971 10.2407 16.9375C10.2407 17.2779 10.3759 17.6043 10.6166 17.845C10.8573 18.0857 11.1837 18.2209 11.5241 18.2209C11.8645 18.2209 12.1909 18.0857 12.4316 17.845C12.6723 17.6043 12.8075 17.2779 12.8075 16.9375C12.8075 16.5971 12.6723 16.2707 12.4316 16.03C12.1909 15.7893 11.8645 15.6541 11.5241 15.6541ZM17.2825 24.6194H18.2619L18.3924 24.6105C18.6225 24.5789 18.8334 24.465 18.9859 24.2898C19.1384 24.1147 19.2223 23.8902 19.222 23.658L19.2131 18.2171H17.2825V24.6181V24.6194ZM17.2851 13.7351L17.2825 12.1028V7.33403H18.2363C18.4681 7.334 18.6921 7.41785 18.8669 7.57009C19.0418 7.72234 19.1556 7.93269 19.1874 8.16233L19.1964 8.29163L19.2054 13.7351H17.2851Z" fill="#C91A44"/>
</svg>
