<svg width="27" height="24" viewBox="0 0 27 24" fill="none" xmlns="http://www.w3.org/2000/svg">
<g clip-path="url(#clip0_1289_42701)">
<path d="M26.9483 12C26.9483 5.37262 20.9874 0 13.6343 0C6.28124 0 0.320312 5.37253 0.320312 12C0.320312 17.9895 5.18908 22.954 11.554 23.8542V15.4688H8.1735V12H11.554V9.35625C11.554 6.34875 13.5417 4.6875 16.5829 4.6875C18.0396 4.6875 19.5632 4.92188 19.5632 4.92188V7.875H17.8844C16.2303 7.875 15.7146 8.80003 15.7146 9.74906V12H19.4072L18.8169 15.4688H15.7146V23.8542C22.0796 22.954 26.9483 17.9896 26.9483 12Z" fill="#108EE9"/>
<path d="M18.8172 15.4688L19.4075 12H15.715V9.74906C15.715 8.79994 16.2308 7.875 17.8847 7.875H19.5635V4.92188C19.5635 4.92188 18.0399 4.6875 16.5832 4.6875C13.5421 4.6875 11.5543 6.34875 11.5543 9.35625V12H8.17383V15.4688H11.5543V23.8542C12.2425 23.9514 12.9381 24.0002 13.6347 24C14.3312 24.0002 15.0268 23.9514 15.715 23.8542V15.4688H18.8172Z" fill="white"/>
</g>
<defs>
<clipPath id="clip0_1289_42701">
<rect width="26.628" height="24" fill="white" transform="translate(0.320312)"/>
</clipPath>
</defs>
</svg>
