<svg width="18" height="18" viewBox="0 0 18 18" fill="none" xmlns="http://www.w3.org/2000/svg">
<path d="M9 1.125C7.35957 1.12695 5.78689 1.77947 4.62693 2.93943C3.46697 4.09939 2.81445 5.67207 2.8125 7.3125C2.8125 12.6068 8.4375 16.6058 8.677 16.7734C8.77172 16.8395 8.88447 16.875 9 16.875C9.11553 16.875 9.22828 16.8395 9.323 16.7734C9.5625 16.6058 15.1875 12.6068 15.1875 7.3125C15.1856 5.67207 14.533 4.09939 13.3731 2.93943C12.2131 1.77947 10.6404 1.12695 9 1.125ZM9.00041 5.0627C9.44542 5.0627 9.88043 5.19466 10.2504 5.4419C10.6205 5.68913 10.9088 6.04053 11.0791 6.45167C11.2494 6.8628 11.294 7.3152 11.2072 7.75166C11.1204 8.18811 10.9061 8.58903 10.5914 8.90369C10.2767 9.21836 9.87582 9.43265 9.43937 9.51947C9.00291 9.60629 8.55051 9.56173 8.13937 9.39143C7.72824 9.22114 7.37684 8.93275 7.12961 8.56274C6.88237 8.19273 6.75041 7.75771 6.75041 7.3127C6.7504 7.01723 6.8086 6.72464 6.92167 6.45166C7.03474 6.17867 7.20047 5.93063 7.4094 5.72169C7.61834 5.51276 7.86638 5.34703 8.13936 5.23396C8.41235 5.12089 8.70494 5.0627 9.00041 5.0627Z" fill="black"/>
</svg>
