<svg width="24" height="24" viewBox="0 0 24 24" fill="none" xmlns="http://www.w3.org/2000/svg">
<g clip-path="url(#clip0_1768_2295)">
<path d="M12 0C5.24006 0 0 4.95169 0 11.64C0 15.1385 1.43372 18.1614 3.76875 20.2495C3.96469 20.4249 4.083 20.6707 4.09106 20.9337L4.15641 23.0684C4.17731 23.7492 4.88053 24.1923 5.50359 23.9172L7.88541 22.8656C8.08728 22.7766 8.31368 22.76 8.52637 22.8187C9.62091 23.1196 10.7858 23.2799 12 23.2799C18.7599 23.2799 24 18.3282 24 11.6399C24 4.95159 18.7599 0 12 0Z" fill="url(#paint0_radial_1768_2295)"/>
<path d="M4.79384 15.0431L8.31884 9.45067C8.87947 8.56099 10.0802 8.33945 10.9215 8.97039L13.7251 11.0732C13.8503 11.1671 14.0027 11.2177 14.1592 11.2172C14.3157 11.2168 14.4678 11.1653 14.5925 11.0707L18.3789 8.19705C18.8842 7.81352 19.544 8.4183 19.2057 8.95502L15.6807 14.5476C15.12 15.4372 13.9192 15.6587 13.078 15.0278L10.2743 12.925C10.1491 12.8311 9.99673 12.7806 9.84026 12.781C9.68379 12.7815 9.53173 12.8329 9.40709 12.9275L5.62053 15.8011C5.11522 16.1845 4.4555 15.5799 4.79384 15.0431Z" fill="white"/>
</g>
<defs>
<radialGradient id="paint0_radial_1768_2295" cx="0" cy="0" r="1" gradientUnits="userSpaceOnUse" gradientTransform="translate(4.61928 23.8716) scale(26.1504 26.1504)">
<stop stop-color="#0099FF"/>
<stop offset="0.60975" stop-color="#A033FF"/>
<stop offset="0.93482" stop-color="#FF5280"/>
<stop offset="1" stop-color="#FF7061"/>
</radialGradient>
<clipPath id="clip0_1768_2295">
<rect width="24" height="24" fill="white"/>
</clipPath>
</defs>
</svg>
