<svg width="32" height="32" viewBox="0 0 32 32" fill="none" xmlns="http://www.w3.org/2000/svg">
<path d="M28 13.3327H4M21.3333 2.66602V7.99935M10.6667 2.66602V7.99935M12 21.3327L14.6667 23.9993L20.6667 17.9993M10.4 29.3327H21.6C23.8402 29.3327 24.9603 29.3327 25.816 28.8967C26.5686 28.5132 27.1805 27.9013 27.564 27.1486C28 26.293 28 25.1729 28 22.9327V11.7327C28 9.49247 28 8.37237 27.564 7.51672C27.1805 6.76407 26.5686 6.15215 25.816 5.76866C24.9603 5.33268 23.8402 5.33268 21.6 5.33268H10.4C8.15979 5.33268 7.03969 5.33268 6.18404 5.76866C5.43139 6.15215 4.81947 6.76407 4.43597 7.51672C4 8.37237 4 9.49247 4 11.7327V22.9327C4 25.1729 4 26.293 4.43597 27.1486C4.81947 27.9013 5.43139 28.5132 6.18404 28.8967C7.03969 29.3327 8.15979 29.3327 10.4 29.3327Z" stroke="black" stroke-width="3" stroke-linecap="round" stroke-linejoin="round"/>
</svg>
