<svg width="32" height="32" viewBox="0 0 32 32" fill="none" xmlns="http://www.w3.org/2000/svg">
<path d="M10.6667 4H8.26667C6.77319 4 6.02646 4 5.45603 4.29065C4.95426 4.54631 4.54631 4.95426 4.29065 5.45603C4 6.02646 4 6.77319 4 8.26667V10.6667M10.6667 28H8.26667C6.77319 28 6.02646 28 5.45603 27.7094C4.95426 27.4537 4.54631 27.0457 4.29065 26.544C4 25.9735 4 25.2268 4 23.7333V21.3333M28 10.6667V8.26667C28 6.77319 28 6.02646 27.7094 5.45603C27.4537 4.95426 27.0457 4.54631 26.544 4.29065C25.9735 4 25.2268 4 23.7333 4H21.3333M28 21.3333V23.7333C28 25.2268 28 25.9735 27.7094 26.544C27.4537 27.0457 27.0457 27.4537 26.544 27.7094C25.9735 28 25.2268 28 23.7333 28H21.3333M16 22.6667L16 9.33333M9.33333 16H22.6667" stroke="black" stroke-width="3" stroke-linecap="round" stroke-linejoin="round"/>
</svg>
