<svg width="45" height="45" viewBox="0 0 45 45" fill="none" xmlns="http://www.w3.org/2000/svg">
<circle cx="22.3496" cy="22.35" r="18.75" stroke="url(#paint0_linear_2324_6121)" stroke-width="4"/>
<path d="M16.174 31.1736L19.2622 28.9677M16.174 31.1736L19.2622 33.3794M16.174 31.1736H21.1924H27.0643M14.6299 24.5559H30.0711M30.0711 24.5559L26.9828 22.35M30.0711 24.5559L26.9828 26.7618M22.3468 12.3676C21.2662 11.2218 19.4644 10.9136 18.1105 11.9628C16.7567 13.012 16.5661 14.7662 17.6293 16.0071C18.6925 17.248 22.3468 20.1441 22.3468 20.1441C22.3468 20.1441 26.0011 17.248 27.0643 16.0071C28.1274 14.7662 27.9601 13.0009 26.583 11.9628C25.2059 10.9246 23.4273 11.2218 22.3468 12.3676Z" stroke="url(#paint1_linear_2324_6121)" stroke-width="2.5" stroke-linecap="round" stroke-linejoin="round"/>
<defs>
<linearGradient id="paint0_linear_2324_6121" x1="3.59669" y1="22.3433" x2="41.0996" y2="22.3433" gradientUnits="userSpaceOnUse">
<stop stop-color="#C91A44"/>
<stop offset="1" stop-color="#A12FA3"/>
</linearGradient>
<linearGradient id="paint1_linear_2324_6121" x1="14.6287" y1="22.3461" x2="30.071" y2="22.3461" gradientUnits="userSpaceOnUse">
<stop stop-color="#C91A44"/>
<stop offset="1" stop-color="#A12FA3"/>
</linearGradient>
</defs>
</svg>
