<svg width="45" height="45" viewBox="0 0 45 45" fill="none" xmlns="http://www.w3.org/2000/svg">
<circle cx="22.3496" cy="22.3501" r="18.75" stroke="#BFBFBF" stroke-width="2"/>
<path d="M16.173 31.1737L19.2613 28.9679M16.173 31.1737L19.2613 33.3796M16.173 31.1737H21.1914H27.0633M14.6289 24.5561H30.0701M30.0701 24.5561L26.9818 22.3502M30.0701 24.5561L26.9818 26.762M22.3458 12.3678C21.2653 11.222 19.4634 10.9138 18.1096 11.963C16.7557 13.0122 16.5651 14.7664 17.6283 16.0073C18.6915 17.2482 22.3458 20.1443 22.3458 20.1443C22.3458 20.1443 26.0001 17.2482 27.0633 16.0073C28.1264 14.7664 27.9591 13.0011 26.582 11.963C25.2049 10.9248 23.4263 11.222 22.3458 12.3678Z" stroke="#BFBFBF" stroke-width="2" stroke-linecap="round" stroke-linejoin="round"/>
</svg>
