<svg width="32" height="32" viewBox="0 0 32 32" fill="none" xmlns="http://www.w3.org/2000/svg">
<path d="M28.001 6H4.00098C3.86965 6 3.73962 6.02586 3.61829 6.07611C3.49696 6.12637 3.38672 6.20003 3.29386 6.29288C3.201 6.38574 3.12734 6.49598 3.07709 6.61731C3.02684 6.73864 3.00097 6.86868 3.00098 7V24C3.00158 24.5302 3.21249 25.0386 3.58743 25.4135C3.96237 25.7885 4.47073 25.9994 5.00098 26H27.001C27.5312 25.9994 28.0396 25.7885 28.4145 25.4135C28.7895 25.0386 29.0004 24.5302 29.001 24V7C29.001 6.86868 28.9751 6.73864 28.9249 6.61731C28.8746 6.49598 28.801 6.38574 28.7081 6.29288C28.6152 6.20003 28.505 6.12637 28.3837 6.07611C28.2623 6.02586 28.1323 6 28.001 6ZM5.00098 14H10.001V18H5.00098V14ZM12.001 14H27.0015L27.0018 18H12.001V14ZM5.00098 20H10.001V24H5.00098V20ZM27.001 24H12.001V20H27.002L27.0023 23.9999L27.001 24Z" fill="black"/>
</svg>
