<svg width="45" height="45" viewBox="0 0 45 45" fill="none" xmlns="http://www.w3.org/2000/svg">
<path d="M10.7715 34.923C11.2957 33.686 12.1725 32.6308 13.2926 31.8889C14.4127 31.147 15.7264 30.7514 17.0699 30.7515H27.3346C28.6792 30.7509 29.9943 31.1462 31.1158 31.888C32.2373 32.6298 33.1156 33.6854 33.6412 34.923" stroke="#BFBFBF" stroke-width="2" stroke-linecap="round" stroke-linejoin="round"/>
<path d="M26.9956 22.8094C29.692 20.1633 29.7329 15.8324 27.0868 13.136C24.4408 10.4396 20.1099 10.3988 17.4135 13.0449C14.7171 15.6909 14.6763 20.0218 17.3223 22.7182C19.9684 25.4146 24.2993 25.4554 26.9956 22.8094Z" stroke="#BFBFBF" stroke-width="2" stroke-linecap="round" stroke-linejoin="round"/>
<path d="M38.8979 25.8938C40.9394 16.6701 35.1171 7.53798 25.8934 5.49652C16.6698 3.45507 7.53764 9.27738 5.49619 18.501C3.45473 27.7247 9.27704 36.8568 18.5007 38.8983C27.7243 40.9397 36.8565 35.1174 38.8979 25.8938Z" stroke="#BFBFBF" stroke-width="2" stroke-linecap="round" stroke-linejoin="round"/>
</svg>
