<svg width="45" height="45" viewBox="0 0 45 45" fill="none" xmlns="http://www.w3.org/2000/svg">
<path d="M10.7715 34.923C11.2957 33.686 12.1725 32.6307 13.2926 31.8889C14.4127 31.147 15.7264 30.7514 17.0699 30.7514H27.3346C28.6792 30.7509 29.9943 31.1461 31.1158 31.888C32.2373 32.6298 33.1156 33.6853 33.6412 34.923" stroke="url(#paint0_linear_2324_6168)" stroke-width="2.5" stroke-linecap="round" stroke-linejoin="round"/>
<path d="M26.9956 22.8093C29.692 20.1633 29.7329 15.8324 27.0868 13.136C24.4408 10.4396 20.1099 10.3988 17.4135 13.0448C14.7171 15.6908 14.6763 20.0217 17.3223 22.7181C19.9684 25.4145 24.2993 25.4553 26.9956 22.8093Z" stroke="url(#paint1_linear_2324_6168)" stroke-width="2.5" stroke-linecap="round" stroke-linejoin="round"/>
<path d="M38.8979 25.8936C40.9394 16.67 35.1171 7.53782 25.8934 5.49637C16.6698 3.45492 7.53764 9.27723 5.49619 18.5009C3.45473 27.7245 9.27704 36.8567 18.5007 38.8981C27.7243 40.9396 36.8565 35.1173 38.8979 25.8936Z" stroke="url(#paint2_linear_2324_6168)" stroke-width="4" stroke-linecap="round" stroke-linejoin="round"/>
<defs>
<linearGradient id="paint0_linear_2324_6168" x1="10.7697" y1="32.8365" x2="33.6411" y2="32.8365" gradientUnits="userSpaceOnUse">
<stop stop-color="#C91A44"/>
<stop offset="1" stop-color="#A12FA3"/>
</linearGradient>
<linearGradient id="paint1_linear_2324_6168" x1="17.3198" y1="22.7171" x2="27.0851" y2="13.1342" gradientUnits="userSpaceOnUse">
<stop stop-color="#C91A44"/>
<stop offset="1" stop-color="#A12FA3"/>
</linearGradient>
<linearGradient id="paint2_linear_2324_6168" x1="18.4941" y1="38.8994" x2="25.8874" y2="5.49508" gradientUnits="userSpaceOnUse">
<stop stop-color="#C91A44"/>
<stop offset="1" stop-color="#A12FA3"/>
</linearGradient>
</defs>
</svg>
