<svg width="95" height="81" viewBox="0 0 95 81" fill="none" xmlns="http://www.w3.org/2000/svg">
<path d="M77.821 78.9433C69.25 80.5 69.8981 80.5 62.75 80.5C55.6019 80.5 55.8981 80.5 48.75 80.5C41.6015 80.5 39.8985 80.5 32.75 80.5C25.6015 80.5 27.7831 78.8336 20.6345 78.8336C16.3295 78.8336 14.2504 79.6337 8.7501 73.5C5.24998 67.5 4.25051 68.648 4.25051 61.5C4.25051 54.3519 3.24921 57.2972 0.75 43C1.75 27 4.25059 31.6485 4.25059 24.5C7.25078 17.5 4.25051 18 8.7501 12.5C12.25 7.5 16.3295 5.5 20.6345 5.5C27.7824 5.5 27.7834 1 34.9315 1C42.0797 1 41.1018 0 48.25 0C55.3985 0 56.3764 1 63.5249 1C70.6736 1 70.6726 6.10519 77.821 6.10519C81.75 8 84.25 9.5 85.9475 13.9736C88.4239 20.5 92.25 19.852 92.25 27C92.25 34.1481 94.25 34.3519 94.25 41.5C94.25 48.6485 93.25 49.8513 93.25 57C93.25 64.1485 89.25 66 86.75 71C85.75 77.5 83.25 77 77.821 78.9433Z" fill="#FF9565"/>
<path d="M40.839 35.8814C40.839 39.941 37.548 43.232 33.4883 43.232C29.4287 43.232 26.1377 39.941 26.1377 35.8814C26.1377 31.8218 29.4287 28.5308 33.4883 28.5308C37.548 28.5308 40.839 31.8218 40.839 35.8814Z" fill="white"/>
<path d="M38.9685 39.3329C38.9685 41.3026 37.3718 42.8992 35.4022 42.8992C33.4327 42.8992 31.8359 41.3026 31.8359 39.3329C31.8359 37.3633 33.4327 35.7666 35.4022 35.7666C37.3718 35.7666 38.9685 37.3633 38.9685 39.3329Z" fill="black"/>
<path fill-rule="evenodd" clip-rule="evenodd" d="M35.4023 36.4015C33.7833 36.4015 32.4708 37.714 32.4708 39.3329C32.4708 40.952 33.7833 42.2644 35.4023 42.2644C37.0212 42.2644 38.3337 40.952 38.3337 39.3329C38.3337 37.714 37.0212 36.4015 35.4023 36.4015ZM31.2012 39.3329C31.2012 37.0128 33.0821 35.1318 35.4023 35.1318C37.7224 35.1318 39.6034 37.0128 39.6034 39.3329C39.6034 41.6532 37.7224 43.534 35.4023 43.534C33.0821 43.534 31.2012 41.6532 31.2012 39.3329Z" fill="black"/>
<path d="M22.8087 34.1082C23.8775 33.976 24.9131 33.7482 25.9146 33.3462C26.8938 32.9531 27.827 32.4771 28.6882 31.8649C30.4193 30.6344 31.8946 29.0366 32.8883 27.1514C33.4368 26.111 33.8598 24.9905 34.09 23.836C34.1574 23.4983 34.1403 23.1624 33.9621 22.8576C33.808 22.5942 33.5059 22.3431 33.2031 22.2741C32.8781 22.2001 32.5134 22.2162 32.2249 22.4021C31.9583 22.574 31.7056 22.8387 31.6413 23.161C31.4956 23.8913 31.2748 24.6035 30.9863 25.29C31.0291 25.1889 31.0716 25.0878 31.1142 24.9866C30.7161 25.9235 30.1958 26.8028 29.5747 27.609C29.6408 27.5233 29.7071 27.4377 29.7732 27.352C29.1288 28.1819 28.3823 28.9273 27.5525 29.5718C27.6382 29.5056 27.724 29.4394 27.8095 29.3732C26.9789 30.0137 26.0712 30.5484 25.1046 30.9563C25.2057 30.9137 25.3068 30.871 25.4079 30.8284C24.5107 31.2031 23.5707 31.4649 22.6071 31.5967C22.7196 31.5817 22.8322 31.5665 22.9447 31.5514C22.8993 31.5574 22.854 31.5632 22.8087 31.5688C22.4596 31.6119 22.1695 31.6819 21.9107 31.9407C21.6906 32.161 21.5248 32.5223 21.5389 32.8385C21.5536 33.1668 21.6615 33.5074 21.9107 33.7362C22.1411 33.9478 22.483 34.1484 22.8087 34.1082Z" fill="black"/>
<path d="M57.6172 35.8814C57.6172 39.941 60.9081 43.232 64.9677 43.232C69.0275 43.232 72.3185 39.941 72.3185 35.8814C72.3185 31.8218 69.0275 28.5308 64.9677 28.5308C60.9081 28.5308 57.6172 31.8218 57.6172 35.8814Z" fill="white"/>
<path d="M59.4873 39.3329C59.4873 41.3026 61.0839 42.8992 63.0535 42.8992C65.023 42.8992 66.6196 41.3026 66.6196 39.3329C66.6196 37.3633 65.023 35.7666 63.0535 35.7666C61.0839 35.7666 59.4873 37.3633 59.4873 39.3329Z" fill="black"/>
<path fill-rule="evenodd" clip-rule="evenodd" d="M58.8525 39.3329C58.8525 37.0128 60.7333 35.1318 63.0535 35.1318C65.3737 35.1318 67.2545 37.0128 67.2545 39.3329C67.2545 41.6532 65.3737 43.534 63.0535 43.534C60.7333 43.534 58.8525 41.6532 58.8525 39.3329ZM63.0535 36.4015C61.4346 36.4015 60.1222 37.7139 60.1222 39.3329C60.1222 40.952 61.4346 42.2644 63.0535 42.2644C64.6724 42.2644 65.9849 40.952 65.9849 39.3329C65.9849 37.7139 64.6724 36.4015 63.0535 36.4015Z" fill="black"/>
<path d="M75.7819 31.5688C75.7366 31.5632 75.6913 31.5575 75.646 31.5515C75.7584 31.5665 75.8709 31.5817 75.9834 31.5968C75.0198 31.4649 74.0799 31.203 73.1827 30.8284C73.2838 30.8711 73.3849 30.9137 73.4859 30.9564C72.5193 30.5483 71.6117 30.0136 70.7809 29.3733C70.8666 29.4394 70.9523 29.5056 71.038 29.5717C70.2082 28.9273 69.4616 28.1819 68.8173 27.352C68.8835 27.4377 68.9495 27.5232 69.0158 27.6089C68.3946 26.8028 67.8742 25.9236 67.4761 24.9867C67.5188 25.0877 67.5616 25.1888 67.6042 25.2899C67.3156 24.6034 67.0949 23.8913 66.9491 23.1609C66.8895 22.8616 66.6219 22.552 66.3656 22.4021C66.0935 22.2429 65.6925 22.1755 65.3873 22.2742C65.0801 22.3735 64.7837 22.564 64.6286 22.8577C64.4624 23.172 64.4308 23.4862 64.5006 23.8361C64.9166 25.9218 65.9283 27.8385 67.2781 29.4679C67.9627 30.2944 68.7537 31.0028 69.6081 31.649C70.3768 32.2307 71.2144 32.7225 72.0996 33.1045C72.6819 33.3558 73.2695 33.5846 73.8813 33.7533C74.5055 33.9255 75.1398 34.0288 75.7819 34.1082C76.0816 34.1452 76.4762 33.9395 76.6796 33.7363C76.8999 33.516 77.0657 33.1547 77.0516 32.8385C77.0369 32.5102 76.929 32.1696 76.6796 31.9408C76.594 31.8745 76.5083 31.8084 76.4227 31.7421C76.2247 31.6273 76.0111 31.5695 75.7819 31.5688Z" fill="black"/>
<g style="mix-blend-mode:overlay">
<path d="M38.1186 48.8211C38.1186 49.7445 34.7905 50.4932 30.6852 50.4932C26.58 50.4932 23.252 49.7445 23.252 48.8211C23.252 47.8979 26.58 47.1494 30.6852 47.1494C34.7905 47.1494 38.1186 47.8979 38.1186 48.8211Z" fill="#28B1FA"/>
</g>
<g style="mix-blend-mode:overlay">
<path d="M75.5872 48.8211C75.5872 49.7445 72.2593 50.4932 68.1539 50.4932C64.0487 50.4932 60.7207 49.7445 60.7207 48.8211C60.7207 47.8979 64.0487 47.1494 68.1539 47.1494C72.2593 47.1494 75.5872 47.8979 75.5872 48.8211Z" fill="#28B2FA"/>
</g>
<path fill-rule="evenodd" clip-rule="evenodd" d="M46.3244 52.3997C45.492 53.5255 44.8476 55.2715 44.4951 57.6085C44.3719 58.4255 43.6097 58.988 42.7927 58.8648C41.9757 58.7416 41.4133 57.9794 41.5365 57.1623C41.9269 54.5734 42.6832 52.2915 43.9184 50.6208C45.1945 48.8949 46.9846 47.8335 49.2273 47.8335C51.439 47.8335 53.1671 48.7908 54.4173 50.5162C55.5991 52.1471 56.3306 54.4246 56.8349 57.1092C56.9875 57.9212 56.4529 58.7032 55.6408 58.8558C54.8288 59.0083 54.0468 58.4737 53.8943 57.6617C53.4149 55.1105 52.7829 53.36 51.9944 52.2719C51.2745 51.2783 50.4258 50.8256 49.2273 50.8256C48.0601 50.8256 47.1159 51.3291 46.3244 52.3997Z" fill="black"/>
</svg>
