<svg width={width} height={height} viewBox="0 0 72 72" fill="none" xmlns="http://www.w3.org/2000/svg">
<path d="M36 6C19.458 6 6 19.458 6 36C6 52.542 19.458 66 36 66C52.542 66 66 52.542 66 36C66 19.458 52.542 6 36 6ZM25.5 27C26.0911 27.0002 26.6765 27.1168 27.2225 27.3432C27.7686 27.5696 28.2647 27.9014 28.6826 28.3195C29.1005 28.7377 29.4319 29.234 29.6579 29.7802C29.884 30.3265 30.0002 30.9119 30 31.503C29.9998 32.0941 29.8832 32.6795 29.6568 33.2255C29.4304 33.7716 29.0986 34.2677 28.6805 34.6856C28.2623 35.1035 27.766 35.4349 27.2198 35.6609C26.6735 35.887 26.0881 36.0032 25.497 36.003C24.3031 36.0026 23.1583 35.528 22.3144 34.6835C21.4705 33.839 20.9966 32.6939 20.997 31.5C20.9974 30.3061 21.472 29.1613 22.3165 28.3174C23.161 27.4735 24.3061 26.9996 25.5 27ZM48.723 48.732C46.2355 51.2234 43.0702 52.9282 39.621 53.634C36.0552 54.3592 32.3536 53.9944 28.998 52.587C25.7779 51.2272 23.0238 48.9588 21.072 46.059L26.046 42.708C26.475 43.341 26.967 43.938 27.51 44.478C28.6038 45.5774 29.9008 46.4536 31.329 47.058C32.058 47.364 32.814 47.601 33.576 47.754C35.1761 48.075 36.8239 48.075 38.424 47.754C39.183 47.598 39.939 47.361 40.674 47.055C41.376 46.755 42.066 46.383 42.711 45.951C43.335 45.525 43.932 45.033 44.484 44.484C45.033 43.938 45.525 43.341 45.951 42.708L50.925 46.059C50.283 47.019 49.542 47.919 48.723 48.732ZM39 36C39 36 40.5 30 46.5 30C52.497 30 54 36 54 36H39Z" fill="currentColor"/>
</svg>
