<svg width="180" height="180" viewBox="0 0 180 180" fill="none" xmlns="http://www.w3.org/2000/svg">
<g clip-path="url(#clip0_2288_5321)">
<path d="M177.482 89.991C177.482 138.311 138.311 177.482 89.991 177.482C41.6711 177.482 2.5 138.311 2.5 89.991C2.5 41.6711 41.6711 2.5 89.991 2.5C138.311 2.5 177.482 41.6711 177.482 89.991Z" stroke="white" stroke-width="5"/>
<path d="M136.974 72.7374C136.473 71.1087 135.793 69.5694 135.381 67.9049C134.969 66.2404 134.665 64.0211 134.361 62.0702C133.997 58.707 132.903 55.4637 131.157 52.5664C129.508 50.1021 127.265 48.0934 124.634 46.7263C122.003 45.3592 119.069 44.6777 116.105 44.7449C114.208 44.7449 113.384 44.7449 112.4 42.9551C111.852 41.8735 111.173 40.8636 110.378 39.9483C108.231 37.7494 105.419 36.3212 102.377 35.8854C99.031 35.5964 95.6767 36.3397 92.766 38.0153C91.5801 38.8698 90.2352 39.4784 88.8105 39.8051C86.731 39.7131 84.6916 39.2017 82.8147 38.3017C77.1768 36.3687 71.7537 35.9033 67.0287 39.9841C65.8673 41.1675 64.6297 42.2736 63.3238 43.2952C61.7507 44.2073 60.0492 44.877 58.2766 45.2819C55.3349 46.0665 52.5665 47.3961 50.1151 49.2015C47.6069 50.9744 45.6199 53.3872 44.3608 56.1887C43.1016 58.9903 42.6165 62.0781 42.9559 65.1307C43.1641 66.6107 43.6051 68.0483 44.2624 69.3905C44.6562 70.1959 45.2289 70.8581 45.6764 71.6277C46.4997 73.0596 45.9269 73.9187 45.4258 75.2073C43.8187 79.1462 42.7414 83.2809 42.2221 87.5032C41.6135 94.1613 43.7255 101.338 49.3813 105.151C48.5322 109.023 48.9002 113.063 50.4347 116.719C51.9693 120.374 54.5956 123.466 57.9544 125.572C59.7162 126.572 61.6073 127.325 63.5744 127.809C65.3285 128.142 66.9042 129.095 68.013 130.494C68.8185 131.55 69.4986 132.714 70.3577 133.734C71.3408 135.04 72.6404 136.075 74.1342 136.741C76.2998 137.6 78.7339 136.562 80.6848 137.958C82.2062 139.067 83.1905 140.75 84.6045 141.985C86.1277 143.241 88.0044 143.992 89.9739 144.132C91.7224 144.335 93.4934 144.076 95.1106 143.381C95.6654 143.13 96.1487 142.719 96.7035 142.504C98.368 141.824 98.3501 142.199 99.603 142.504C100.712 142.788 101.882 142.72 102.95 142.307C107.639 140.517 108.659 134.772 112.651 132.123C114.261 131.049 116.051 130.333 117.573 129.027C119.649 127.362 120.06 124.821 121.85 123.013C123.64 121.205 126.235 120.239 128.043 118.288C129.712 116.394 130.936 114.149 131.622 111.719C132.37 109.067 132.595 106.295 132.285 103.558C131.641 100.023 132.046 96.3773 133.448 93.0695C135.35 89.9693 136.729 86.577 137.529 83.0287C138.129 79.6007 137.939 76.081 136.974 72.7374Z" fill="#FA8D61"/>
<path d="M121.812 64.6296V64.4327C121.82 64.3673 121.82 64.3012 121.812 64.2358C121.634 62.2477 120.687 60.4076 119.173 59.1073C117.658 57.8069 115.696 57.1489 113.704 57.2735C111.778 57.5667 110.027 58.5591 108.786 60.0612C107.544 61.5633 106.9 63.4699 106.975 65.4171C106.946 66.3818 107.128 67.3412 107.509 68.2283C107.889 69.1154 108.458 69.909 109.176 70.5538C110.68 72.1288 112.111 73.7217 114.545 73.6322C118.948 73.3817 121.919 68.7282 121.812 64.6296Z" fill="#FFB07F"/>
<path d="M66.5644 57.381C65.5627 57.2822 64.5514 57.3824 63.5885 57.6756C62.6257 57.9689 61.7302 58.4494 60.9536 59.0897C60.1769 59.73 59.5344 60.5173 59.0629 61.4066C58.5914 62.2959 58.3002 63.2695 58.2061 64.2717C58.2061 64.2717 58.2061 64.3791 58.2061 64.4506V64.6296C58.0987 68.6388 60.9266 73.2565 65.3653 73.5786C67.7099 73.7576 69.1596 72.3974 70.7347 70.8044C71.5166 70.1478 72.1423 69.3252 72.5665 68.3964C72.9906 67.4676 73.2025 66.456 73.1867 65.435C73.2355 63.5207 72.5929 61.6529 71.3767 60.1737C70.1605 58.6945 68.4521 57.7031 66.5644 57.381Z" fill="#FFB07F"/>
<path d="M118.934 64.7727C118.853 63.8923 118.533 63.0505 118.01 62.3379C117.486 61.6253 116.779 61.0687 115.963 60.7278C115.14 60.4077 114.24 60.3476 113.382 60.5556C112.524 60.7636 111.751 61.2298 111.166 61.8912C109.931 63.3588 109.251 66.491 110.683 67.9944L112.097 69.4799C112.409 69.8058 112.785 70.0652 113.2 70.2424C113.615 70.4195 114.062 70.5109 114.513 70.5109C114.965 70.5109 115.411 70.4195 115.827 70.2424C116.242 70.0652 116.617 69.8058 116.929 69.4799C117.611 68.909 118.148 68.1849 118.496 67.3668C118.845 66.5487 118.995 65.6598 118.934 64.7727Z" fill="#FF9F63"/>
<path d="M61.067 64.7727C61.1428 63.8931 61.4581 63.051 61.9787 62.3379C62.4994 61.6248 63.2054 61.0679 64.0202 60.7278C64.8427 60.4077 65.7436 60.3476 66.6014 60.5556C67.4591 60.7636 68.2324 61.2298 68.8169 61.8912C70.0518 63.3588 70.732 66.491 69.3001 67.9944L67.8862 69.4799C67.5753 69.8053 67.2018 70.0643 66.788 70.2413C66.3742 70.4183 65.9289 70.5095 65.4789 70.5095C65.0289 70.5095 64.5836 70.4183 64.1698 70.2413C63.756 70.0643 63.3825 69.8053 63.0716 69.4799C62.3843 68.9138 61.8433 68.1905 61.4944 67.3712C61.1455 66.5519 60.9989 65.6606 61.067 64.7727Z" fill="#FF9F63"/>
<path d="M121.009 77.4982C120.636 74.5739 119.659 71.759 118.14 69.2325C116.621 66.7059 114.593 64.5228 112.186 62.8219C106.566 58.8843 99.5317 58.0968 92.8379 58.1684C86.144 58.24 78.949 58.0252 72.631 60.334C69.8533 61.3528 67.3203 62.9434 65.1961 65.0029C63.0718 67.0625 61.4036 69.545 60.2993 72.2899C57.4893 79.2522 59.4044 86.7336 61.3553 93.7675C63.287 100.862 66.1264 107.678 69.8032 114.046C71.3078 116.981 73.3473 119.609 75.8169 121.796C78.4424 123.575 81.4937 124.626 84.6585 124.838C90.5827 125.608 98.422 125.715 103.595 122.279C106.49 119.978 108.838 117.062 110.467 113.742C112.49 110.234 114.231 106.571 115.676 102.788C117.154 98.9092 118.403 94.9469 119.416 90.9217C120.737 86.5766 121.276 82.0317 121.009 77.4982Z" fill="#FFB07F"/>
<path d="M105.078 121.08C105.867 119.04 106.437 116.922 106.778 114.762C107.351 111.182 107.548 106.815 105.776 103.576C104.957 102.281 103.831 101.21 102.497 100.457C101.164 99.7047 99.6642 99.2941 98.1332 99.2622C95.1583 98.9937 92.1699 98.9041 89.1842 98.9937C83.0273 98.9937 75.7965 100.229 73.3982 106.744C72.1632 110.073 73.1655 112.883 73.6309 115.585C73.8748 117.79 74.6086 119.912 75.7786 121.796C77.998 124.105 81.506 124.445 84.6202 124.838C90.5266 125.608 98.3838 125.715 103.538 122.279C104.086 121.925 104.601 121.524 105.078 121.08Z" fill="#FFC9A8"/>
<path d="M69.1917 91.584C68.5403 91.584 67.9036 91.3909 67.3621 91.029C66.8205 90.6671 66.3984 90.1528 66.1491 89.5511C65.8999 88.9493 65.8346 88.2871 65.9617 87.6483C66.0888 87.0095 66.4024 86.4227 66.863 85.9621C67.3236 85.5016 67.9104 85.1879 68.5492 85.0608C69.188 84.9338 69.8502 84.999 70.4519 85.2482C71.0537 85.4975 71.568 85.9196 71.9299 86.4612C72.2918 87.0027 72.4849 87.6395 72.4849 88.2908C72.4802 89.1628 72.1317 89.9977 71.5151 90.6143C70.8986 91.2308 70.0636 91.5793 69.1917 91.584Z" fill="#35208A"/>
<path d="M110.789 91.584C110.138 91.584 109.501 91.3909 108.96 91.029C108.418 90.6671 107.996 90.1528 107.747 89.5511C107.498 88.9493 107.432 88.2871 107.559 87.6483C107.686 87.0095 108 86.4227 108.461 85.9621C108.921 85.5016 109.508 85.1879 110.147 85.0608C110.786 84.9338 111.448 84.999 112.05 85.2482C112.651 85.4975 113.166 85.9196 113.528 86.4612C113.889 87.0027 114.083 87.6395 114.083 88.2908C114.069 89.1599 113.717 89.9895 113.103 90.6042C112.488 91.2188 111.658 91.5702 110.789 91.584Z" fill="#35208A"/>
<path d="M94.7536 109.697C96.0815 109.253 97.3689 108.696 98.6016 108.032C98.9622 107.858 99.2701 107.591 99.4943 107.259C99.7185 106.926 99.8509 106.541 99.8781 106.141C99.9054 105.742 99.8265 105.342 99.6495 104.982C99.4725 104.623 99.2036 104.317 98.8701 104.095C98.6607 103.974 98.417 103.925 98.1773 103.958C97.9376 103.99 97.7154 104.101 97.5456 104.274L97.3488 104.435C97.2347 104.554 97.1612 104.707 97.1387 104.871C97.1162 105.035 97.1459 105.202 97.2235 105.348C97.5993 106.028 98.1363 105.884 97.0445 106.368L96.6149 106.547C95.8333 106.085 94.9057 105.938 94.0197 106.135C92.9101 106.332 90.995 107.191 91.0845 108.533C91.0745 108.593 91.0745 108.653 91.0845 108.712C90.5926 108.793 90.0908 108.793 89.5989 108.712C89.6076 108.641 89.6076 108.569 89.5989 108.498C89.5989 107.155 87.8091 106.296 86.6637 106.099C86.1996 105.998 85.7201 105.99 85.2531 106.076C84.786 106.162 84.3407 106.341 83.9432 106.6C83.488 106.446 83.0891 106.159 82.7977 105.777C82.8422 105.522 82.8422 105.262 82.7977 105.007C82.7977 104.882 82.6724 104.65 82.5292 104.578C82.345 104.478 82.1295 104.451 81.9266 104.505C81.7236 104.558 81.5487 104.686 81.4375 104.864C80.2204 106.654 81.8133 108.14 83.4241 108.677C85.554 109.392 87.7196 110.878 90.0285 111.021C90.0285 111.773 90.1896 112.525 90.2075 113.294C90.1086 114.067 90.1086 114.849 90.2075 115.621H89.7779C86.6502 115.325 83.6888 114.075 81.2943 112.041C80.9184 111.755 80.4173 112.399 80.7752 112.704C85.8404 116.945 94.5925 118.485 98.8701 112.22C99.1207 111.845 98.5658 111.433 98.2437 111.737C96.3512 113.93 93.6822 115.303 90.7981 115.567C91.037 114.742 91.098 113.876 90.9771 113.026C90.9729 112.337 90.9251 111.65 90.8339 110.968H91.0129C92.314 110.725 93.5737 110.297 94.7536 109.697Z" fill="#35208A"/>
<path d="M108.552 64.4328C109.246 65.2382 109.763 66.1796 110.072 67.1968C110.38 68.2139 110.472 69.2843 110.342 70.3391C110.342 70.8045 110.987 70.8582 111.112 70.4465C111.395 69.2781 111.346 68.0537 110.969 66.9119C110.593 65.7701 109.904 64.7564 108.982 63.9853C108.923 63.9284 108.843 63.8973 108.761 63.899C108.679 63.9007 108.6 63.9349 108.543 63.9943C108.486 64.0536 108.455 64.1332 108.457 64.2154C108.459 64.2976 108.493 64.3758 108.552 64.4328Z" fill="#35208A"/>
<path d="M112.49 67.4039C112.769 68.2299 112.967 69.0811 113.081 69.9454C113.081 70.7508 112.83 71.5562 112.92 72.3437C112.92 72.5585 113.242 72.7732 113.421 72.5406C114.548 71.2519 113.976 68.3524 112.956 67.1712C112.759 66.9385 112.419 67.1712 112.49 67.4397V67.4039Z" fill="#35208A"/>
<path d="M74.7592 61.7123C72.9694 61.8197 72.5219 64.737 73.3631 65.9183C73.417 65.9865 73.492 66.0349 73.5763 66.0561C73.6607 66.0772 73.7496 66.0698 73.8293 66.0351C73.909 66.0003 73.975 65.9402 74.0169 65.864C74.0588 65.7879 74.0744 65.7 74.0611 65.614C73.8289 64.9715 73.7855 64.2759 73.9359 63.6095C74.1952 63.0185 74.513 62.4548 74.8844 61.9271C74.8971 61.9052 74.9037 61.8804 74.9036 61.8551C74.9036 61.8299 74.8968 61.8051 74.8841 61.7833C74.8714 61.7615 74.8531 61.7435 74.8312 61.731C74.8093 61.7185 74.7844 61.7121 74.7592 61.7123Z" fill="#35208A"/>
<path d="M76.3702 63.699C75.529 64.0211 75.6006 65.4888 75.708 66.2226C75.7863 66.7922 75.9867 67.3383 76.2956 67.8233C76.6046 68.3083 77.0146 68.7208 77.4978 69.0326C77.5709 69.0612 77.6515 69.065 77.727 69.0433C77.8026 69.0216 77.8689 68.9756 77.9157 68.9125C77.9625 68.8494 77.9873 68.7726 77.9861 68.6941C77.985 68.6155 77.958 68.5395 77.9094 68.4777C77.1885 67.8176 76.6938 66.9471 76.4955 65.9899C76.3523 65.274 76.7281 64.397 76.4955 63.7527C76.4955 63.7527 76.4955 63.7527 76.3881 63.7527L76.3702 63.699Z" fill="#35208A"/>
<path d="M128.08 74.9568C128.312 76.7466 129.279 78.2679 129.368 80.1293C129.447 82.2839 128.953 84.4207 127.936 86.322C127.882 86.4122 127.865 86.5204 127.89 86.6228C127.916 86.7251 127.98 86.8133 128.071 86.8679C128.161 86.9225 128.269 86.939 128.371 86.9138C128.474 86.8887 128.562 86.8239 128.616 86.7337C129.768 84.8408 130.329 82.6471 130.227 80.4336C130.227 78.6438 129.798 76.0307 128.294 74.8673C128.294 74.8673 128.062 74.8673 128.08 74.9568Z" fill="#35208A"/>
<path d="M132.73 81.9728C132.217 83.4093 131.863 84.8978 131.674 86.4115C131.023 88.1905 130.119 89.8664 128.989 91.3871C128.738 91.7451 129.293 92.1746 129.598 91.8525C130.891 90.4368 131.862 88.7576 132.443 86.9305C132.927 85.5345 133.642 83.3509 132.891 81.9728C132.891 81.9728 132.783 81.9728 132.748 81.9728H132.73Z" fill="#35208A"/>
<path d="M49.9897 76.3886C45.6405 79.2522 45.193 86.4651 47.2513 90.7069C47.4482 91.1186 48.1641 90.8322 48.003 90.4027C46.9786 88.0503 46.6674 85.4489 47.1081 82.9213C47.7119 80.6257 48.731 78.4601 50.115 76.5317C50.115 76.5317 50.115 76.3349 49.9718 76.3886H49.9897Z" fill="#35208A"/>
<path d="M51.7961 83.5299C51.0983 85.3379 50.9279 87.3069 51.305 89.2079C51.682 91.1089 52.5909 92.8638 53.9259 94.2687C54.2302 94.5729 54.803 94.1792 54.5345 93.8033C53.4278 92.3835 52.6618 90.7286 52.2957 88.966C51.9295 87.2035 51.9729 85.3804 52.4225 83.6373C52.4463 83.5542 52.436 83.4651 52.3941 83.3896C52.3521 83.3141 52.2819 83.2583 52.1988 83.2346C52.1157 83.2108 52.0266 83.2211 51.9511 83.263C51.8756 83.305 51.8198 83.3752 51.7961 83.4583V83.5299Z" fill="#35208A"/>
<path d="M87.5567 52.459C88.0526 51.9047 88.496 51.3055 88.8812 50.6692C89.5685 49.7369 90.4245 48.9416 91.4048 48.3246C93.1723 47.2408 95.2214 46.7051 97.2932 46.7854C97.7228 46.7854 97.866 46.0873 97.4006 46.0158C95.1394 45.7559 92.86 46.3147 90.9753 47.5908C89.5076 48.5394 87.2704 50.4366 87.3957 52.3516C87.3972 52.3801 87.4062 52.4076 87.4218 52.4314C87.4374 52.4552 87.459 52.4745 87.4845 52.4872C87.51 52.5 87.5383 52.5057 87.5667 52.5039C87.5952 52.5021 87.6226 52.4928 87.6462 52.4769L87.5567 52.459Z" fill="#35208A"/>
<path d="M94.9855 51.1703C96.4531 50.9018 97.6523 49.9353 99.2094 49.7742C100.722 49.6721 102.237 49.9297 103.63 50.526C104.06 50.7049 104.364 49.989 103.952 49.7742C102.449 49.037 100.763 48.7569 99.102 48.9688C97.706 49.1478 95.5224 49.649 94.8423 50.9913C94.8311 51.0128 94.8264 51.0372 94.8287 51.0613C94.8311 51.0855 94.8404 51.1085 94.8556 51.1274C94.8707 51.1464 94.8911 51.1605 94.9142 51.1682C94.9372 51.1758 94.962 51.1765 94.9855 51.1703Z" fill="#35208A"/>
<path d="M64.6302 52.1368C65.7041 48.6825 68.0666 46.9822 71.7894 47.8055C72.1832 47.895 72.5053 47.2864 72.0758 47.0896C68.711 45.5503 64.0038 48.1455 64.1112 52.0473C64.1141 52.1179 64.1415 52.1852 64.1886 52.2378C64.2358 52.2904 64.2998 52.3249 64.3696 52.3355C64.4394 52.3461 64.5108 52.3321 64.5714 52.2958C64.632 52.2595 64.6781 52.2033 64.7018 52.1368H64.6302Z" fill="#35208A"/>
<path d="M86.1073 131.389C86.5905 133.036 89.2394 133.752 90.7429 133.984C92.7882 134.336 94.8922 133.956 96.685 132.91C96.7582 132.847 96.8069 132.761 96.8227 132.665C96.8384 132.57 96.8202 132.472 96.7711 132.389C96.7221 132.306 96.6453 132.243 96.5543 132.21C96.4633 132.178 96.3639 132.179 96.2734 132.212C94.4622 133.131 92.3989 133.426 90.4028 133.054C88.8815 132.731 87.6823 131.496 86.2326 131.264C86.2154 131.261 86.1978 131.262 86.1811 131.267C86.1644 131.272 86.1493 131.281 86.1369 131.293C86.1246 131.306 86.1154 131.321 86.1103 131.338C86.1051 131.354 86.1041 131.372 86.1073 131.389Z" fill="#35208A"/>
<path d="M96.218 136.776C99.7976 136.884 104.791 134.324 105.167 130.369C105.167 130.029 104.737 129.975 104.576 130.208C103.787 131.725 102.732 133.089 101.462 134.235C99.9528 135.381 98.1133 136.009 96.218 136.025C96.1135 136.025 96.0134 136.066 95.9395 136.14C95.8657 136.214 95.8242 136.314 95.8242 136.418C95.8242 136.523 95.8657 136.623 95.9395 136.697C96.0134 136.771 96.1135 136.812 96.218 136.812V136.776Z" fill="#35208A"/>
<path d="M116.228 118.252C116.8 118.843 118.161 118.091 118.715 117.769C119.662 117.283 120.414 116.487 120.845 115.514C120.861 115.439 120.853 115.362 120.822 115.293C120.792 115.224 120.74 115.166 120.674 115.128C120.608 115.09 120.532 115.075 120.457 115.083C120.382 115.091 120.311 115.123 120.255 115.174C119.666 115.923 118.98 116.591 118.214 117.16C117.805 117.389 117.373 117.575 116.926 117.715C116.621 117.822 116.371 117.84 116.21 118.145C116.2 118.161 116.195 118.179 116.195 118.198C116.195 118.217 116.2 118.236 116.21 118.252H116.228Z" fill="#35208A"/>
<path d="M63.1969 116.104C62.8917 116.823 62.7344 117.596 62.7344 118.377C62.7344 119.158 62.8917 119.931 63.1969 120.65C63.4707 121.257 63.89 121.787 64.4176 122.193C64.9453 122.599 65.5649 122.868 66.2216 122.977C66.2722 122.991 66.325 122.995 66.3771 122.989C66.4292 122.983 66.4795 122.966 66.5252 122.94C66.5709 122.915 66.6111 122.88 66.6434 122.839C66.6758 122.797 66.6997 122.75 66.7138 122.7C66.7279 122.649 66.7319 122.596 66.7256 122.544C66.7193 122.492 66.7028 122.442 66.6771 122.396C66.6513 122.35 66.6168 122.31 66.5755 122.278C66.5342 122.245 66.4869 122.222 66.4364 122.207C65.7521 122.035 65.1338 121.665 64.6594 121.143C64.1849 120.621 63.8753 119.97 63.7696 119.272C63.8021 118.206 63.6877 117.14 63.4295 116.104H63.2685H63.1969Z" fill="#35208A"/>
<path d="M115.154 103.486C114.126 103.49 113.121 103.188 112.265 102.62C111.409 102.052 110.741 101.243 110.346 100.294C109.95 99.3463 109.845 98.3022 110.043 97.2941C110.241 96.2861 110.734 95.3596 111.459 94.6319C112.184 93.9042 113.109 93.4081 114.117 93.2064C115.124 93.0047 116.168 93.1064 117.118 93.4987C118.067 93.891 118.879 94.5563 119.45 95.4102C120.021 96.2642 120.326 97.2684 120.326 98.2957C120.312 99.6649 119.763 100.974 118.797 101.944C117.83 102.914 116.523 103.468 115.154 103.486Z" fill="#E0435B"/>
<path d="M64.4326 103.486C63.406 103.486 62.4025 103.182 61.549 102.611C60.6954 102.041 60.0301 101.23 59.6373 100.282C59.2444 99.3336 59.1416 98.29 59.3419 97.2832C59.5422 96.2763 60.0365 95.3515 60.7624 94.6256C61.4883 93.8997 62.4132 93.4054 63.42 93.2051C64.4268 93.0048 65.4705 93.1076 66.4189 93.5004C67.3673 93.8933 68.1779 94.5586 68.7483 95.4121C69.3186 96.2657 69.623 97.2692 69.623 98.2958C69.609 99.668 69.0577 100.98 68.0873 101.95C67.1169 102.921 65.8049 103.472 64.4326 103.486Z" fill="#E0435B"/>
<path d="M52.6371 125.805C52.6579 125.773 52.669 125.736 52.669 125.698C52.669 125.659 52.6579 125.622 52.6371 125.59C52.1002 124.588 50.1672 124.391 49.2007 124.194C47.6257 123.872 46.0149 123.693 44.422 123.478L43.6344 123.371C43.545 123.371 43.3481 123.263 43.366 123.371C43.1645 123.02 43.0025 122.648 42.8827 122.261C42.2205 120.722 41.5941 119.165 40.914 117.643C40.5739 116.856 40.2338 116.086 39.858 115.317C39.6253 114.833 39.3747 113.956 38.8557 113.724C37.6923 113.223 36.869 116.086 36.5647 116.784C35.813 118.449 35.1329 120.131 34.3991 121.796C34.2559 122.154 34.0053 123.156 33.6832 123.389C33.1772 123.438 32.6678 123.438 32.1618 123.389L30.032 123.568C28.8222 123.634 27.6226 123.826 26.4524 124.14C25.7544 124.337 24.5015 124.677 24.6626 125.662C24.8237 126.646 25.9691 127.201 26.4524 127.648C27.3958 128.398 28.395 129.074 29.4414 129.671C29.9649 129.907 30.4731 130.176 30.9627 130.476C31.5354 130.906 31.249 131.353 31.1059 131.926C30.7837 133.143 30.4615 134.342 30.1573 135.506C29.853 136.669 29.6919 137.492 29.5308 138.495C29.343 139.186 29.343 139.915 29.5308 140.607C30.2468 142.164 33.1104 139.443 33.7369 138.924C34.3633 138.405 35.4193 137.582 36.2426 136.884L37.4238 135.846C37.6386 135.649 38.1935 134.879 38.4798 134.826C38.7662 134.772 40.1622 136.239 40.5381 136.615C41.3793 137.349 42.2384 138.029 43.1154 138.709C44.238 139.852 45.6576 140.658 47.214 141.036C48.5922 141.161 47.93 139.067 47.751 138.244C47.3035 136.275 46.6771 134.36 46.0865 132.427C45.9612 132.016 45.8001 131.586 45.7106 131.174C45.6211 130.763 45.7106 130.727 46.0328 130.494C46.7845 130.029 47.7152 129.76 48.5206 129.349C49.7914 128.704 52.3687 127.559 52.7266 125.93C52.7209 125.904 52.71 125.88 52.6946 125.858C52.6793 125.837 52.6597 125.819 52.6371 125.805Z" fill="#FFF896"/>
<path d="M162.136 76.1022C159.945 75.9378 157.746 75.89 155.55 75.959L157.34 74.1692C158.389 73.2747 159.294 72.2244 160.024 71.055C160.094 70.9468 160.127 70.8194 160.119 70.6912C160.112 70.563 160.064 70.4404 159.982 70.3411C159.901 70.2418 159.79 70.1707 159.666 70.1382C159.542 70.1057 159.41 70.1134 159.291 70.1601C158.106 70.8696 157.038 71.757 156.123 72.7911L154.208 74.5809V71.8962C154.323 70.5165 154.22 69.1273 153.903 67.7796C153.865 67.6552 153.788 67.5463 153.683 67.469C153.579 67.3916 153.452 67.3499 153.322 67.3499C153.191 67.3499 153.065 67.3916 152.96 67.469C152.855 67.5463 152.778 67.6552 152.74 67.7796C152.399 69.1235 152.272 70.5128 152.364 71.8962C152.364 72.7911 152.364 73.686 152.364 74.563L150.574 72.6658C149.673 71.6115 148.617 70.7002 147.442 69.9632C147.325 69.8967 147.19 69.8707 147.057 69.8894C146.923 69.9081 146.8 69.9703 146.706 70.0664C146.612 70.1625 146.553 70.287 146.537 70.4205C146.521 70.554 146.55 70.689 146.619 70.8044C147.334 71.9849 148.221 73.0526 149.25 73.9723L151.04 75.8874H148.355C146.974 75.7792 145.585 75.8879 144.238 76.2096C144.114 76.2478 144.005 76.3249 143.928 76.4296C143.85 76.5343 143.809 76.6611 143.809 76.7913C143.809 76.9214 143.85 77.0482 143.928 77.1529C144.005 77.2576 144.114 77.3347 144.238 77.3729C145.582 77.7129 146.972 77.8397 148.355 77.7488H150.968C149.357 79.2701 147.746 80.7915 146.315 82.4381C146.181 82.6147 146.116 82.8338 146.133 83.0546C146.149 83.2753 146.244 83.4827 146.402 83.6381C146.56 83.7936 146.768 83.8864 146.989 83.8994C147.21 83.9124 147.428 83.8447 147.603 83.7088C149.25 82.3307 150.789 80.7557 152.31 79.1985C152.31 81.3821 152.185 83.5835 152.31 85.7313C152.352 85.938 152.464 86.124 152.627 86.2576C152.79 86.3912 152.994 86.4642 153.205 86.4642C153.416 86.4642 153.62 86.3912 153.784 86.2576C153.947 86.124 154.059 85.938 154.1 85.7313C154.297 83.5835 154.261 81.4 154.243 79.2164C155.747 80.8094 157.25 82.4023 158.879 83.8162C159.054 83.9521 159.272 84.0198 159.493 84.0068C159.714 83.9938 159.922 83.901 160.08 83.7455C160.238 83.5901 160.333 83.3827 160.35 83.162C160.366 82.9412 160.301 82.7221 160.168 82.5455C158.772 80.8988 157.214 79.3596 155.657 77.8383C157.841 77.8383 160.024 77.9636 162.19 77.8383C162.382 77.7841 162.551 77.6672 162.669 77.5061C162.787 77.3449 162.848 77.1489 162.842 76.9492C162.836 76.7496 162.763 76.5577 162.635 76.4042C162.507 76.2507 162.332 76.1444 162.136 76.1022Z" fill="white"/>
<path d="M97.3635 12.9581V12.8149C97.2047 12.5243 96.9684 12.2834 96.6808 12.1191C96.3933 11.9548 96.0658 11.8735 95.7348 11.8842C95.4068 11.8768 95.083 11.9597 94.799 12.1239C94.5149 12.288 94.2814 12.5271 94.124 12.8149V12.9581C93.9479 13.2563 93.8552 13.5963 93.8555 13.9425C93.8534 14.289 93.9463 14.6294 94.124 14.9269C94.295 15.2243 94.5413 15.4714 94.8383 15.6433C95.1352 15.8151 95.4723 15.9055 95.8153 15.9055C96.1584 15.9055 96.4954 15.8151 96.7924 15.6433C97.0893 15.4714 97.3357 15.2243 97.5067 14.9269C97.6711 14.6249 97.7573 14.2864 97.7573 13.9425C97.7551 13.5989 97.6691 13.261 97.5067 12.9581H97.3635Z" fill="white"/>
<path d="M122.779 32.9144L123.011 33.4872C123.011 33.4872 123.011 33.4872 123.011 33.3977L123.101 34.0241C123.095 33.3941 122.845 32.791 122.403 32.3417C122.028 31.9906 121.552 31.7654 121.043 31.6974C120.526 31.6137 119.995 31.7084 119.539 31.9658L119.02 32.2164C118.729 32.502 118.518 32.8604 118.412 33.2545C118.269 33.7394 118.269 34.2551 118.412 34.74C118.573 35.3468 118.965 35.8667 119.503 36.1897C119.825 36.3805 120.188 36.4915 120.562 36.5133C120.936 36.5351 121.309 36.4671 121.651 36.315C121.939 36.1969 122.2 36.0219 122.418 35.8004C122.637 35.579 122.808 35.3157 122.922 35.0264C123.079 34.6886 123.149 34.3173 123.127 33.9457C123.105 33.5741 122.992 33.2136 122.797 32.8965L122.779 32.9144Z" fill="white"/>
<path d="M153.296 45.4967C153.734 45.4932 154.161 45.36 154.524 45.114C154.887 44.868 155.168 44.5202 155.333 44.1144C155.499 43.7085 155.54 43.2629 155.452 42.8335C155.365 42.4042 155.152 42.0104 154.841 41.7018C154.53 41.3933 154.134 41.1837 153.704 41.0995C153.274 41.0153 152.829 41.0602 152.425 41.2287C152.02 41.3972 151.675 41.6817 151.431 42.0463C151.188 42.4108 151.059 42.8392 151.059 43.2774C151.064 43.8689 151.302 44.4346 151.721 44.8524C152.145 45.2599 152.708 45.4903 153.296 45.4967Z" fill="white"/>
<path d="M147.283 108.426C147.89 108.421 148.473 108.184 148.912 107.764C149.239 107.442 149.463 107.03 149.555 106.58C149.647 106.13 149.603 105.663 149.428 105.238C149.253 104.813 148.956 104.451 148.574 104.196C148.191 103.941 147.742 103.806 147.283 103.808C146.677 103.815 146.099 104.059 145.672 104.488C145.346 104.805 145.123 105.212 145.031 105.657C144.939 106.102 144.983 106.565 145.156 106.985C145.33 107.405 145.625 107.763 146.004 108.013C146.383 108.264 146.829 108.395 147.283 108.39V108.426Z" fill="white"/>
<path d="M151.866 139.282C152.301 139.287 152.729 139.162 153.092 138.923C153.456 138.683 153.74 138.34 153.908 137.938C154.075 137.536 154.119 137.092 154.032 136.665C153.946 136.238 153.733 135.847 153.423 135.541C153.008 135.13 152.449 134.899 151.866 134.897C151.576 134.897 151.29 134.954 151.023 135.064C150.756 135.175 150.513 135.337 150.308 135.541C149.905 135.953 149.674 136.504 149.664 137.081C149.664 137.37 149.721 137.656 149.831 137.923C149.942 138.19 150.104 138.433 150.308 138.638C150.726 139.044 151.283 139.275 151.866 139.282Z" fill="white"/>
<path d="M122.51 144.651H121.956H122.26C122.547 144.649 122.827 144.561 123.065 144.401L122.564 144.616H122.027C122.389 144.592 122.742 144.495 123.065 144.329C123.332 144.169 123.558 143.951 123.728 143.691C123.898 143.431 124.007 143.135 124.047 142.827C124.087 142.519 124.056 142.206 123.957 141.911C123.858 141.616 123.694 141.348 123.477 141.126C123.125 140.752 122.656 140.511 122.147 140.443C121.639 140.375 121.123 140.483 120.685 140.75C120.207 141.029 119.86 141.486 119.718 142.02C119.597 142.471 119.626 142.949 119.8 143.381C119.975 143.814 120.285 144.178 120.685 144.419C120.929 144.561 121.199 144.651 121.479 144.685C121.759 144.719 122.043 144.695 122.314 144.616L122.51 144.651Z" fill="white"/>
<path d="M105.185 167.221V167.042C105.037 166.539 104.705 166.111 104.254 165.843C103.861 165.627 103.411 165.539 102.966 165.592C102.48 165.656 102.032 165.891 101.704 166.255C101.376 166.619 101.189 167.089 101.176 167.579V167.776C101.181 168.066 101.247 168.351 101.37 168.614C101.493 168.876 101.671 169.11 101.89 169.299C102.11 169.488 102.367 169.629 102.645 169.712C102.923 169.795 103.215 169.818 103.503 169.78C103.768 169.753 104.024 169.671 104.256 169.538C104.487 169.406 104.688 169.226 104.845 169.011C105.052 168.767 105.195 168.476 105.26 168.163C105.326 167.851 105.312 167.527 105.221 167.221H105.185Z" fill="white"/>
<path d="M73.7768 156.375C74.34 156.368 74.8786 156.143 75.2802 155.748C75.4803 155.549 75.6387 155.312 75.7463 155.05C75.8538 154.789 75.9083 154.509 75.9067 154.227C75.91 153.947 75.8562 153.669 75.7485 153.411C75.6408 153.152 75.4814 152.918 75.2802 152.723C74.8815 152.322 74.3425 152.091 73.7768 152.079C73.2057 152.09 72.6608 152.321 72.2555 152.723C72.0543 152.918 71.8949 153.152 71.7872 153.411C71.6795 153.669 71.6257 153.947 71.6291 154.227C71.6274 154.509 71.6819 154.789 71.7894 155.05C71.897 155.312 72.0554 155.549 72.2555 155.748C72.6656 156.141 73.2089 156.365 73.7768 156.375Z" fill="white"/>
<path d="M18.1658 113.867C18.4316 113.654 18.6421 113.38 18.7792 113.069C18.9163 112.757 18.9761 112.417 18.9533 112.077C18.9401 111.51 18.7169 110.968 18.3269 110.556L17.8974 110.305C17.575 110.105 17.2029 110 16.8235 110.001C16.4085 109.985 15.9979 110.091 15.6422 110.305C15.435 110.432 15.2529 110.596 15.1053 110.788C14.7016 111.2 14.471 111.751 14.4609 112.328C14.4602 112.614 14.5169 112.898 14.6275 113.162C14.7382 113.427 14.9006 113.666 15.1053 113.867C15.3033 114.075 15.5424 114.24 15.8073 114.351C16.0722 114.461 16.3573 114.516 16.6445 114.511H17.2172C17.5863 114.414 17.9209 114.215 18.1837 113.939L18.1658 113.867Z" fill="white"/>
<path d="M34.7229 86.5368C35.2979 86.486 35.833 86.2217 36.2227 85.796C36.6125 85.3703 36.8287 84.8141 36.8287 84.2369C36.8287 83.6597 36.6125 83.1035 36.2227 82.6778C35.833 82.2521 35.2979 81.9878 34.7229 81.937C34.148 81.9878 33.6129 82.2521 33.2231 82.6778C32.8334 83.1035 32.6172 83.6597 32.6172 84.2369C32.6172 84.8141 32.8334 85.3703 33.2231 85.796C33.6129 86.2217 34.148 86.486 34.7229 86.5368Z" fill="white"/>
<path d="M25.2886 54.213C25.9157 54.2098 26.5178 53.9664 26.971 53.5329C27.1897 53.3111 27.3623 53.0483 27.479 52.7596C27.5958 52.4708 27.6542 52.1619 27.6511 51.8504C27.6559 51.5415 27.5981 51.2347 27.4812 50.9487C27.3643 50.6626 27.1908 50.4032 26.971 50.1859C26.5196 49.7474 25.9178 49.4978 25.2886 49.4879C24.9745 49.4902 24.6639 49.5547 24.3748 49.6776C24.0857 49.8006 23.8238 49.9795 23.6042 50.2041C23.3846 50.4287 23.2116 50.6946 23.0952 50.9863C22.9788 51.2781 22.9213 51.59 22.9261 51.9041C22.9237 52.2151 22.9831 52.5233 23.101 52.8111C23.2189 53.0988 23.3929 53.3602 23.6127 53.58C23.8326 53.7999 24.094 53.9738 24.3817 54.0917C24.6694 54.2096 24.9777 54.2691 25.2886 54.2667V54.213Z" fill="white"/>
<path d="M65.6669 32.6638C66.2593 32.6531 66.8267 32.4236 67.2599 32.0195C67.7095 31.6075 67.9794 31.0355 68.0116 30.4265C68.0022 29.833 67.7611 29.2667 67.3397 28.8486C66.9183 28.4305 66.35 28.1939 65.7564 28.1893C65.4552 28.1772 65.1546 28.2262 64.8728 28.3332C64.5909 28.4402 64.3336 28.6031 64.1163 28.8121C63.899 29.021 63.7261 29.2718 63.6081 29.5492C63.4901 29.8266 63.4294 30.1251 63.4297 30.4265C63.4389 31.017 63.6776 31.5807 64.0952 31.9983C64.5128 32.4159 65.0765 32.6546 65.6669 32.6638Z" fill="white"/>
<path d="M42.0047 31.8584C42.2462 31.7057 42.4738 31.532 42.6849 31.3394C42.8238 31.2088 42.9497 31.0649 43.0607 30.9098C43.3637 30.5313 43.5419 30.0681 43.5708 29.5841C43.5996 29.1001 43.4777 28.6191 43.2218 28.2072L43.4187 28.6547C43.3355 28.3605 43.1782 28.0925 42.9621 27.8764C42.7459 27.6602 42.4779 27.503 42.1837 27.4197L42.6133 27.5987C42.2364 27.3581 41.7986 27.2302 41.3515 27.2302C40.9043 27.2302 40.4665 27.3581 40.0897 27.5987C39.8615 27.74 39.6512 27.9083 39.4632 28.0999C39.2842 28.2967 39.1053 28.5652 38.9442 28.78L38.7115 29.3169C38.6326 29.6161 38.6326 29.9306 38.7115 30.2297C38.7551 30.7268 38.9777 31.1911 39.3379 31.5363C39.6252 31.8036 39.9672 32.0051 40.3402 32.1269C40.6389 32.2103 40.9513 32.2327 41.2588 32.1927C41.5663 32.1527 41.8626 32.0512 42.13 31.8942L42.0047 31.8584Z" fill="#F7B9E7"/>
<path d="M19.4919 93.4633C19.9656 93.4173 20.4052 93.1967 20.725 92.8443C21.0449 92.4919 21.222 92.033 21.222 91.5571C21.222 91.0812 21.0449 90.6224 20.725 90.27C20.4052 89.9176 19.9656 89.697 19.4919 89.651C19.0182 89.697 18.5786 89.9176 18.2588 90.27C17.9389 90.6224 17.7617 91.0812 17.7617 91.5571C17.7617 92.033 17.9389 92.4919 18.2588 92.8443C18.5786 93.1967 19.0182 93.4173 19.4919 93.4633Z" fill="#F7B9E7"/>
<path d="M51.3847 156.786V157.162L51.6173 157.735C51.7655 158.006 51.9813 158.234 52.2438 158.397C52.6512 158.735 53.1643 158.919 53.6935 158.916C54.1181 158.9 54.5338 158.79 54.9106 158.594C55.4485 158.274 55.845 157.763 56.0202 157.162V156.786C56.145 156.36 56.145 155.906 56.0202 155.48C55.8776 154.96 55.5665 154.502 55.1357 154.178C54.7049 153.854 54.1788 153.683 53.6398 153.69C52.972 153.682 52.3284 153.94 51.85 154.406C51.5489 154.711 51.3276 155.086 51.2057 155.498C51.0981 155.926 51.0981 156.375 51.2057 156.804L51.3847 156.786Z" fill="#F7B9E7"/>
<path d="M168.833 106.582C168.685 106.114 168.398 105.702 168.009 105.401C167.631 105.078 167.147 104.906 166.649 104.918C166.153 104.927 165.673 105.093 165.278 105.392C164.882 105.691 164.591 106.108 164.448 106.582C164.355 106.922 164.342 107.279 164.41 107.624C164.477 107.97 164.624 108.296 164.838 108.575C165.052 108.855 165.327 109.082 165.643 109.238C165.958 109.394 166.306 109.475 166.658 109.475C167.01 109.475 167.358 109.394 167.674 109.238C167.989 109.082 168.265 108.855 168.479 108.575C168.692 108.296 168.839 107.97 168.906 107.624C168.974 107.279 168.961 106.922 168.869 106.582H168.833Z" fill="#F7B9E7"/>
<path d="M136.921 52.4948C137.517 52.4864 138.087 52.2493 138.514 51.8326C138.822 51.5164 139.031 51.1164 139.115 50.6824C139.198 50.2484 139.152 49.7995 138.982 49.3915C138.812 48.9835 138.527 48.6343 138.16 48.3874C137.794 48.1404 137.363 48.0066 136.921 48.0024C136.325 48.0109 135.754 48.248 135.328 48.6647C134.914 49.0843 134.683 49.6503 134.684 50.2397C134.693 50.8319 134.931 51.3975 135.348 51.818C135.765 52.2384 136.329 52.481 136.921 52.4948Z" fill="#F7B9E7"/>
</g>
<defs>
<clipPath id="clip0_2288_5321">
<rect width="180" height="180" fill="white"/>
</clipPath>
</defs>
</svg>
