<svg width="180" height="180" viewBox="0 0 180 180" fill="none" xmlns="http://www.w3.org/2000/svg">
<g clip-path="url(#clip0_2288_5048)">
<path d="M177.482 89.991C177.482 138.311 138.311 177.482 89.991 177.482C41.6711 177.482 2.5 138.311 2.5 89.991C2.5 41.6711 41.6711 2.5 89.991 2.5C138.311 2.5 177.482 41.6711 177.482 89.991Z" stroke="white" stroke-width="5"/>
<path d="M110.787 61.0679L110.68 60.9426C109.176 59.0634 107.655 57.1125 106.134 55.2153C106.06 55.1307 105.963 55.0689 105.856 55.0372C105.748 55.0055 105.633 55.0052 105.525 55.0363L95.9499 57.7926C95.7934 57.8294 95.6564 57.9234 95.5656 58.0561C95.4749 58.1887 95.437 58.3505 95.4594 58.5097C95.4818 58.6688 95.5629 58.8138 95.6868 58.9163C95.8106 59.0187 95.9683 59.0712 96.1288 59.0634C98.8672 59.0634 100.031 61.6228 102.196 62.7682C103.59 63.4249 105.147 63.6552 106.671 63.4305C107.673 63.3231 111.951 63.0546 110.787 61.0679Z" fill="#FA8D61"/>
<path d="M104.38 35.796C103.205 35.5347 102.107 35.0021 101.175 34.2406C100.243 33.4792 99.5016 32.5102 99.0108 31.411C98.941 31.2419 98.817 31.1009 98.6582 31.0101C98.4994 30.9194 98.3149 30.8841 98.1338 30.9099H97.9369C96.546 31.3338 95.0443 31.1966 93.7533 30.5277C92.4622 29.8587 91.4841 28.7111 91.0283 27.3303C90.9954 27.1689 90.924 27.018 90.8201 26.8902C90.7163 26.7625 90.583 26.6618 90.4318 26.5967C90.2806 26.5317 90.1158 26.5042 89.9517 26.5166C89.7875 26.529 89.6288 26.581 89.489 26.668C86.3748 28.8337 81.0233 32.2164 77.9091 28.0999C77.8212 27.9393 77.6917 27.8054 77.5343 27.7121C77.3768 27.6188 77.1972 27.5695 77.0142 27.5695C76.8311 27.5695 76.6515 27.6188 76.494 27.7121C76.3366 27.8054 76.2071 27.9393 76.1193 28.0999C75.4218 29.3859 74.4935 30.5326 73.3809 31.4826C71.9669 32.5386 69.2643 33.1113 68.5484 30.7846C68.4987 30.6171 68.4067 30.4651 68.2814 30.3434C68.156 30.2216 68.0015 30.134 67.8327 30.0891C67.6638 30.0442 67.4862 30.0434 67.3169 30.0869C67.1477 30.1303 66.9924 30.2165 66.866 30.3371C64.5105 33.1485 62.853 36.4769 62.0288 40.0508C61.2045 43.6247 61.2368 47.3429 62.123 50.9019C62.1942 51.1544 62.3615 51.3689 62.5891 51.4994C62.8166 51.6299 63.0862 51.666 63.3401 51.5999L101.427 45.1387C101.596 45.0977 101.751 45.0108 101.874 44.8877C101.997 44.7646 102.084 44.6099 102.125 44.4407C102.819 41.9789 103.73 39.5832 104.846 37.2815C104.925 37.1564 104.976 37.0154 104.995 36.8685C105.014 36.7216 105.001 36.5723 104.957 36.431C104.913 36.2896 104.838 36.1595 104.739 36.0499C104.639 35.9402 104.517 35.8536 104.38 35.796Z" fill="#FA8D61"/>
<path d="M136.454 63.3768C133.366 60.0435 129.585 57.4286 125.376 55.7164C124.432 55.5101 123.575 55.0161 122.924 54.3025C122.297 53.5687 121.778 52.7454 121.134 51.9937C119.321 49.7454 117.295 47.6775 115.084 45.8189C111.008 42.4476 106.285 39.9467 101.205 38.4702C96.1257 36.9936 90.7976 36.5727 85.5493 37.2333C80.301 37.894 75.2435 39.6222 70.6885 42.3115C66.1334 45.0009 62.1772 48.5944 59.0636 52.8707C55.8275 57.2415 53.4026 62.158 51.9044 67.3859C51.2168 70.1261 50.7854 72.9243 50.6157 75.7443C50.4725 77.5341 50.6157 79.9503 49.4881 81.3464C47.9668 83.1362 45.0494 82.5634 43.3491 84.1384C42.7397 84.7511 42.3661 85.5591 42.294 86.4202C42.222 87.2813 42.4562 88.1403 42.9554 88.8456C45.9264 93.3738 54.0163 91.8525 58.3834 90.0985C58.1687 92.9442 52.4055 94.0897 53.7121 97.6156C54.6965 100.265 58.9562 98.2242 60.7102 97.7767C64.034 97.121 67.1888 95.7932 69.9813 93.8749C73.0627 91.4149 75.3939 88.1413 76.711 84.4248C78.1607 80.6662 78.3218 76.6571 79.5925 72.8985C80.8618 69.4847 83.1325 66.534 86.1074 64.4328C94.0109 59.1883 103.56 57.0174 112.954 58.3296C113.761 58.3561 114.549 58.5786 115.251 58.9777C115.952 59.3768 116.546 59.9406 116.981 60.6205C117.401 61.9742 117.553 63.3968 117.429 64.8086C117.771 69.3882 119.493 73.7565 122.369 77.3372C122.422 77.3887 122.486 77.4277 122.556 77.4514C122.626 77.4752 122.701 77.483 122.775 77.4745C122.848 77.4659 122.919 77.4411 122.982 77.4019C123.045 77.3627 123.098 77.31 123.138 77.2477L124.928 73.9187C125.307 74.2564 125.775 74.4781 126.276 74.5574C126.778 74.6367 127.291 74.5703 127.756 74.3661C129.546 73.7397 130.262 72.1647 131.228 70.6255C131.649 69.9303 132.232 69.3473 132.927 68.9265C133.622 68.5057 134.409 68.2596 135.219 68.2092C135.897 68.1518 136.532 67.8534 137.009 67.368C138.262 66.0257 137.278 64.4328 136.454 63.3768Z" fill="#96CBEB"/>
<path d="M76.515 71.1086C74.4209 67.2427 70.0717 65.3992 65.9194 64.8801C59.4045 64.0568 54.3215 67.3143 50.9746 72.2004C50.8314 73.3817 50.724 74.563 50.6166 75.78C50.4735 77.5698 50.6166 79.986 49.4891 81.3821C47.9677 83.1719 45.0504 82.5991 43.3501 84.1742C42.7497 84.7846 42.3818 85.5857 42.3098 86.4388C42.2379 87.2919 42.4666 88.1433 42.9563 88.8455C45.9274 93.3737 54.0172 91.8524 58.3844 90.0984C58.1696 92.9442 52.4064 94.0897 53.713 97.6156C54.6974 100.264 58.9571 98.2241 60.7111 97.7766C64.0349 97.1209 67.1898 95.7932 69.9822 93.8749C73.0636 91.4148 75.3948 88.1412 76.7119 84.4247C77.5098 82.136 78.1086 79.7826 78.5017 77.3908C78.3291 75.1723 77.6494 73.023 76.515 71.1086Z" fill="white"/>
<path d="M58.5992 83.2614C57.9357 83.265 57.2861 83.0712 56.733 82.7048C56.1799 82.3384 55.7481 81.8159 55.4926 81.2036C55.237 80.5913 55.1692 79.9169 55.2978 79.266C55.4264 78.6151 55.7455 78.0171 56.2147 77.5479C56.6838 77.0788 57.2818 76.7596 57.9327 76.6311C58.5836 76.5025 59.2581 76.5703 59.8704 76.8258C60.4826 77.0814 61.0052 77.5131 61.3716 78.0662C61.738 78.6194 61.9317 79.2689 61.9282 79.9324C61.9143 80.811 61.5592 81.6497 60.9378 82.2711C60.3165 82.8924 59.4777 83.2476 58.5992 83.2614Z" fill="#35208A"/>
<path d="M69.1741 86.6083C68.1121 86.6083 67.074 86.2934 66.191 85.7034C65.308 85.1134 64.6198 84.2748 64.2134 83.2937C63.807 82.3126 63.7007 81.2329 63.9079 80.1914C64.115 79.1498 64.6264 78.1931 65.3773 77.4422C66.1283 76.6912 67.085 76.1799 68.1266 75.9727C69.1681 75.7655 70.2477 75.8718 71.2289 76.2782C72.21 76.6846 73.0486 77.3728 73.6386 78.2558C74.2286 79.1388 74.5435 80.1769 74.5435 81.2389C74.5435 82.663 73.9778 84.0287 72.9708 85.0356C71.9639 86.0426 70.5981 86.6083 69.1741 86.6083Z" fill="#96CBEB"/>
<path d="M86.6268 65.4709C85.7677 64.2538 84.5327 61.3364 82.725 61.408C80.9173 61.4796 78.859 64.1285 77.9641 65.3814C76.407 67.5291 74.3845 72.9343 77.1408 74.9031C79.6465 76.6929 81.0426 72.4153 82.1702 70.9834C83.2977 69.5516 85.1412 70.4465 86.6805 69.5158C88.2197 68.5851 87.3785 66.6342 86.6268 65.4709Z" fill="#FA8D61"/>
<path d="M120.473 62.6429C120.517 65.0661 121.059 67.4541 122.066 69.6589C122.424 70.9307 122.98 72.1385 123.712 73.2385C124.009 73.635 124.422 73.929 124.893 74.0797C123.283 70.9834 122.441 65.4171 121.099 62.4997C120.956 62.1239 120.491 62.3029 120.473 62.6429Z" fill="#35208A"/>
<path d="M123.283 61.766C123.623 63.2515 125.789 64.4328 126.863 65.4351C128.196 66.8443 129.626 68.1599 131.14 69.3726C131.516 69.6411 132.017 69.1221 131.767 68.7462C130.507 67.1346 129.052 65.6857 127.435 64.4328C126.379 63.52 124.876 61.6407 123.372 61.6228C123.358 61.625 123.345 61.6299 123.332 61.6375C123.32 61.645 123.31 61.6549 123.301 61.6665C123.293 61.6782 123.287 61.6915 123.284 61.7055C123.281 61.7195 123.28 61.734 123.283 61.7481V61.766Z" fill="#35208A"/>
<path d="M78.7502 70.8939C79.6809 70.1422 80.0746 68.6388 80.7726 67.6365C81.695 66.3123 82.8252 65.1458 84.1196 64.1822C84.6565 63.7884 84.1196 62.8756 83.6005 63.2694C82.2025 64.2384 80.99 65.4509 80.0209 66.849C79.2871 67.887 78.0879 69.5695 78.3922 70.8939C78.402 70.9087 78.4153 70.9208 78.4309 70.9292C78.4465 70.9375 78.464 70.9419 78.4817 70.9419C78.4994 70.9419 78.5169 70.9375 78.5325 70.9292C78.5481 70.9208 78.5614 70.9087 78.5712 70.8939H78.7502Z" fill="#35208A"/>
<path d="M80.4172 71.055C81.3391 70.3976 82.207 69.6674 83.0124 68.8715C83.9968 68.1197 85.1602 67.6544 86.1446 66.9206C86.5383 66.6163 86.3235 65.9183 85.7866 66.0615C84.5801 66.4962 83.4682 67.1585 82.5113 68.0124C81.4564 68.6914 80.5985 69.6357 80.0234 70.7507C80.0234 70.9834 80.2203 71.1445 80.4172 71.055Z" fill="#35208A"/>
<path d="M102.806 60.0835C103.044 60.7965 103.494 61.4205 104.094 61.8733C104.591 62.3964 105.257 62.7262 105.973 62.804C106.055 62.8057 106.135 62.7831 106.204 62.7391C106.273 62.6951 106.327 62.6317 106.359 62.5569C106.392 62.4821 106.402 62.3993 106.387 62.319C106.373 62.2387 106.335 62.1645 106.278 62.1059C105.812 61.7222 105.322 61.3695 104.81 61.05C104.327 60.6562 103.987 60.1372 103.521 59.7434C103.454 59.6785 103.368 59.6371 103.276 59.6256C103.183 59.6141 103.089 59.633 103.008 59.6795C102.928 59.726 102.864 59.7975 102.827 59.8833C102.791 59.9691 102.783 60.0645 102.806 60.1551V60.0835Z" fill="#35208A"/>
<path d="M105.348 59.5108C105.981 60.1285 106.67 60.6858 107.407 61.1753C108.015 61.6227 108.695 62.3923 109.483 62.3744C109.538 62.3762 109.594 62.365 109.644 62.3417C109.695 62.3184 109.739 62.2837 109.774 62.2403C109.808 62.1968 109.833 62.1459 109.844 62.0915C109.856 62.0372 109.855 61.9808 109.841 61.927C109.608 61.1932 108.785 60.8352 108.194 60.4057C107.461 59.8174 106.676 59.2962 105.849 58.8485C105.806 58.8156 105.756 58.7916 105.704 58.7778C105.651 58.7641 105.596 58.7608 105.542 58.7683C105.488 58.7758 105.436 58.7939 105.389 58.8214C105.342 58.849 105.301 58.8856 105.268 58.9291C105.235 58.9726 105.211 59.0221 105.197 59.0749C105.183 59.1276 105.18 59.1826 105.188 59.2366C105.195 59.2906 105.213 59.3426 105.241 59.3897C105.268 59.4367 105.305 59.4778 105.348 59.5108Z" fill="#35208A"/>
<path d="M69.3186 33.6482C68.1615 35.0856 67.3132 36.7461 66.8266 38.526C66.3401 40.306 66.2257 42.1671 66.4907 43.9932C66.5164 44.0776 66.5686 44.1515 66.6395 44.204C66.7104 44.2565 66.7962 44.2848 66.8844 44.2848C66.9727 44.2848 67.0585 44.2565 67.1294 44.204C67.2003 44.1515 67.2525 44.0776 67.2782 43.9932C67.6362 42.2034 67.5646 40.521 67.9762 38.7849C68.3879 37.0488 69.2291 35.5096 69.6049 33.8093C69.6263 33.7713 69.6317 33.7264 69.62 33.6844C69.6082 33.6425 69.5803 33.6069 69.5423 33.5856C69.5043 33.5642 69.4594 33.5588 69.4175 33.5705C69.3755 33.5823 69.3399 33.6102 69.3186 33.6482Z" fill="#35208A"/>
<path d="M73.9204 33.2007C73.0672 34.2511 72.4471 35.471 72.1015 36.7794C71.7559 38.0878 71.6926 39.4547 71.9159 40.7895C71.9354 40.8818 71.9861 40.9645 72.0594 41.0239C72.1327 41.0833 72.2242 41.1157 72.3186 41.1157C72.4129 41.1157 72.5044 41.0833 72.5777 41.0239C72.651 40.9645 72.7017 40.8818 72.7213 40.7895C73.0076 39.5724 72.936 38.3016 73.2582 37.0846C73.5804 35.8675 74.1531 34.7578 74.5469 33.505C74.5658 33.4259 74.5585 33.3429 74.5262 33.2683C74.4939 33.1937 74.4384 33.1316 74.3678 33.0913C74.2972 33.0509 74.2155 33.0346 74.1348 33.0446C74.0542 33.0547 73.9789 33.0906 73.9204 33.147V33.2007Z" fill="#35208A"/>
<path d="M81.0961 31.4825H80.9171C80.8373 31.4858 80.7596 31.5087 80.6909 31.5493C80.6222 31.5899 80.5646 31.6469 80.5233 31.7152C80.0244 32.6045 79.6624 33.5638 79.4494 34.561C79.1268 35.4432 79.0586 36.3982 79.2526 37.3173C79.2733 37.3868 79.3137 37.4487 79.3689 37.4958C79.4241 37.5428 79.4918 37.5728 79.5636 37.5823C79.6355 37.5917 79.7086 37.5802 79.7741 37.5491C79.8396 37.5179 79.8947 37.4685 79.9327 37.4068C80.2382 36.5752 80.4425 35.7099 80.5412 34.8295C80.756 33.8809 81.114 33.0397 81.4182 32.0374C81.4434 31.9615 81.4449 31.8798 81.4225 31.8031C81.4001 31.7264 81.3549 31.6583 81.2929 31.6078C81.2635 31.5489 81.2121 31.5039 81.1497 31.4825H81.0961Z" fill="#35208A"/>
<path d="M87.7012 29.6749C86.8323 30.359 86.1125 31.2137 85.5862 32.1863C85.0599 33.159 84.7381 34.229 84.6406 35.3306C84.6406 35.9034 85.4639 35.9749 85.625 35.4559C85.8593 34.4635 86.1952 33.4979 86.6273 32.5743C87.0926 31.7331 87.7191 31.0172 88.256 30.2297C88.4708 29.9075 88.0233 29.4601 87.7012 29.6749Z" fill="#35208A"/>
<path d="M92.0483 31.0172C91.4346 31.8004 90.9621 32.6847 90.6523 33.6303C90.4017 34.3999 89.9364 35.5812 90.4017 36.315C90.4353 36.3561 90.4776 36.3893 90.5256 36.4121C90.5736 36.4349 90.626 36.4467 90.6791 36.4467C90.7322 36.4467 90.7847 36.4349 90.8327 36.4121C90.8807 36.3893 90.923 36.3561 90.9565 36.315C91.4756 35.778 91.404 34.8831 91.6009 34.1672C91.9028 33.2432 92.2923 32.3502 92.7642 31.5004C92.979 31.0888 92.3884 30.5518 92.0483 30.9635V31.0172Z" fill="#35208A"/>
<path d="M96.758 32.6638C96.0971 33.0462 95.5643 33.6157 95.2266 34.3005C94.889 34.9853 94.7617 35.7548 94.8608 36.5119C94.8826 36.5853 94.9253 36.6508 94.9836 36.7003C95.042 36.7498 95.1136 36.7812 95.1895 36.7907C95.2655 36.8002 95.3426 36.7874 95.4114 36.7538C95.4801 36.7201 95.5376 36.6672 95.5768 36.6014C95.8631 36.0286 95.8989 35.3485 96.1495 34.8116C96.4549 34.2381 96.8019 33.6878 97.1876 33.165C97.3666 32.8786 97.0086 32.5743 96.7401 32.7175L96.758 32.6638Z" fill="#35208A"/>
<path d="M99.9407 34.1135C99.2513 34.7642 98.7136 35.5585 98.3656 36.4402C98.3087 36.5399 98.2936 36.6582 98.3238 36.7689C98.3541 36.8797 98.427 36.9739 98.5267 37.0309C98.6264 37.0878 98.7446 37.1029 98.8554 37.0727C98.9662 37.0424 99.0604 36.9695 99.1174 36.8698C99.6696 36.1012 100.048 35.2218 100.227 34.2925C100.23 34.2559 100.222 34.2192 100.205 34.1867C100.188 34.1542 100.162 34.1271 100.13 34.1085C100.099 34.0899 100.063 34.0805 100.026 34.0814C99.9892 34.0822 99.9535 34.0934 99.9228 34.1135H99.9407Z" fill="#35208A"/>
<path d="M102.342 35.9749C102.045 36.3049 101.793 36.6718 101.59 37.0667C101.308 37.4045 101.144 37.8259 101.125 38.2659C101.128 38.3169 101.144 38.3663 101.171 38.4096C101.198 38.453 101.236 38.4888 101.28 38.5137C101.325 38.5387 101.375 38.552 101.426 38.5525C101.477 38.553 101.527 38.5406 101.572 38.5164C101.928 38.2288 102.179 37.8328 102.288 37.3889C102.492 36.9947 102.637 36.5725 102.718 36.136C102.718 35.9391 102.467 35.8496 102.342 35.9749Z" fill="#35208A"/>
<path d="M62.9114 55.9133C63.2965 55.1076 63.9036 54.4287 64.6614 53.9563C65.4192 53.4838 66.2961 53.2376 67.189 53.2465C68.064 53.3753 68.8881 53.7375 69.5747 54.2949C70.2613 54.8524 70.785 55.5846 71.0908 56.4145C71.3593 56.9335 72.0394 56.5576 71.9678 56.0565C71.1087 51.0809 63.6094 51.0093 62.0702 55.5554C61.8912 56.0565 62.6429 56.3429 62.9114 55.9133Z" fill="#35208A"/>
<path d="M71.5914 57.2735C73.0053 56.8797 74.1508 55.788 75.7079 56.5755C77.2651 57.363 77.2651 59.2244 76.9071 60.7815C76.8895 60.8771 76.9023 60.9759 76.9437 61.0639C76.9851 61.1519 77.053 61.2247 77.138 61.2721C77.2229 61.3195 77.3205 61.3391 77.4171 61.3281C77.5138 61.3172 77.6046 61.2762 77.6767 61.211C79.1801 59.6181 78.1421 56.6829 76.406 55.6985C74.992 54.8931 71.484 55.0362 71.5198 57.2198L71.5914 57.2735Z" fill="#35208A"/>
<path d="M69.8017 47.7697C71.4125 46.5884 72.8802 45.1745 75.0458 45.2461C75.6244 45.2756 76.1885 45.4378 76.6944 45.7202C77.2003 46.0026 77.6344 46.3977 77.9632 46.8748C78.4435 47.7537 78.6137 48.7688 78.4464 49.7563C78.4478 49.8467 78.4789 49.934 78.5348 50.005C78.5908 50.0759 78.6685 50.1264 78.756 50.1488C78.8435 50.1712 78.936 50.1642 79.0191 50.1289C79.1023 50.0935 79.1715 50.0318 79.216 49.9532C80.6121 48.0023 78.5538 45.2997 76.6924 44.5838C75.3491 44.1732 73.9038 44.2517 72.6129 44.8054C71.3219 45.3591 70.2689 46.3523 69.6406 47.6086C69.6406 47.6086 69.6406 47.8413 69.8017 47.7697Z" fill="#35208A"/>
<path d="M78.2854 50.4007C78.9726 49.9253 79.7948 49.6842 80.6299 49.7132C81.465 49.7422 82.2685 50.0398 82.921 50.5617C83.2027 50.8594 83.4209 51.2113 83.5624 51.5958C83.7039 51.9804 83.7658 52.3898 83.7443 52.799C83.7443 53.6223 83.2432 54.1771 83.0821 54.9467C83.0594 55.0262 83.0612 55.1107 83.0872 55.1892C83.1132 55.2676 83.1623 55.3364 83.2279 55.3866C83.2936 55.4368 83.3728 55.4661 83.4554 55.4707C83.5379 55.4752 83.6199 55.4548 83.6906 55.4121C84.6571 54.9646 84.9077 53.4791 84.854 52.5126C84.8004 51.4558 84.3383 50.4611 83.5653 49.7384C83.1692 49.3948 82.7093 49.1325 82.2118 48.9667C81.7143 48.8008 81.189 48.7347 80.6659 48.7719C80.1339 48.8046 79.6151 48.9511 79.1446 49.2015C78.6434 49.47 78.4823 49.8458 78.1602 50.2933C78.1602 50.2933 78.1602 50.4544 78.2854 50.4007Z" fill="#35208A"/>
<path d="M83.5104 55.9313C84.7632 55.7165 86.213 55.1437 87.09 56.4145C87.2775 56.6922 87.3992 57.0091 87.4457 57.341C87.4923 57.6729 87.4624 58.011 87.3584 58.3296C87.1437 58.9918 86.6246 59.314 86.2488 59.8509C86.2069 59.9196 86.1843 59.9983 86.1834 60.0787C86.1825 60.1591 86.2033 60.2383 86.2436 60.3079C86.2839 60.3775 86.3422 60.435 86.4124 60.4742C86.4826 60.5135 86.5621 60.5331 86.6425 60.531C88.6829 60.2805 88.9693 57.1125 87.9312 55.7702C86.8931 54.4278 83.7967 53.8014 83.3672 55.7702V55.8597L83.5104 55.9313Z" fill="#35208A"/>
<path d="M84.1187 41.2548C84.7882 41.1985 85.4524 41.0908 86.1054 40.9327C86.9111 40.8486 87.7221 41.0309 88.4142 41.4517C88.7198 41.648 88.9821 41.9046 89.1851 42.2058C89.388 42.507 89.5272 42.8465 89.5942 43.2035C89.6613 43.5604 89.6547 43.9273 89.5749 44.2816C89.4951 44.6359 89.3437 44.9702 89.1302 45.264C88.6648 45.8188 89.4523 46.6063 89.9177 46.0515C90.5139 45.3151 90.8022 44.3766 90.7222 43.4325C90.6421 42.4884 90.1999 41.6118 89.4881 40.9864C88.6687 40.2964 87.6235 39.9332 86.5528 39.9662C85.7116 39.9662 84.3872 40.181 83.9397 40.9685C83.9249 40.9974 83.9174 41.0296 83.918 41.0622C83.9186 41.0947 83.9273 41.1266 83.9433 41.155C83.9592 41.1834 83.982 41.2073 84.0095 41.2248C84.037 41.2422 84.0684 41.2525 84.1008 41.2548H84.1187Z" fill="#35208A"/>
<path d="M89.3655 46.1947C90.7079 46.1947 92.2113 45.9441 93.2315 47.0717C93.6481 47.5375 93.8665 48.1476 93.84 48.772C93.7518 49.2981 93.5634 49.8024 93.2852 50.2575C93.1241 50.6692 93.661 50.9556 94.0011 50.7945C95.4866 50.0249 95.0392 47.6086 94.1622 46.5527C93.562 45.8707 92.7472 45.4139 91.8523 45.2577C90.9573 45.1015 90.0359 45.2552 89.2402 45.6936C89.1896 45.7227 89.1498 45.7675 89.1269 45.8213C89.104 45.875 89.0993 45.9348 89.1135 45.9915C89.1277 46.0482 89.1599 46.0987 89.2054 46.1354C89.2509 46.172 89.3071 46.1929 89.3655 46.1947Z" fill="#35208A"/>
<path d="M94.2133 51.1882C94.7514 51.0734 95.3125 51.1456 95.8039 51.3929C96.2953 51.6403 96.6876 52.0479 96.9159 52.5484C96.9967 52.8246 97.0206 53.1144 96.9863 53.4001C96.952 53.6858 96.8602 53.9616 96.7163 54.2108C96.5724 54.4601 96.3796 54.6776 96.1493 54.8502C95.9191 55.0228 95.6563 55.147 95.3767 55.2152C95.2545 55.2698 95.1561 55.3666 95.0997 55.488C95.0433 55.6093 95.0326 55.7469 95.0697 55.8755C95.1067 56.0041 95.189 56.115 95.3013 56.1877C95.4137 56.2604 95.5485 56.2901 95.681 56.2712C96.0944 56.1675 96.4828 55.9819 96.8232 55.7254C97.1636 55.4689 97.449 55.1467 97.6627 54.7778C97.8763 54.409 98.0137 54.001 98.0668 53.5781C98.12 53.1552 98.0877 52.726 97.9719 52.3158C97.8348 51.9348 97.6226 51.5852 97.3479 51.2878C97.0733 50.9904 96.7416 50.7511 96.3728 50.5842C96.0039 50.4173 95.6053 50.3261 95.2005 50.3161C94.7958 50.3061 94.3931 50.3775 94.0164 50.526C93.9496 50.5725 93.8989 50.6386 93.8711 50.7152C93.8434 50.7917 93.8402 50.875 93.8618 50.9535C93.8833 51.0321 93.9287 51.102 93.9917 51.1536C94.0547 51.2052 94.1321 51.2361 94.2133 51.2419V51.1882Z" fill="#35208A"/>
<path d="M98.1331 40.9327C99.4933 41.2727 101.176 41.219 102.142 42.4361C102.334 42.6605 102.476 42.9237 102.557 43.2076C102.638 43.4916 102.657 43.7897 102.613 44.0817C102.569 44.3738 102.463 44.6529 102.301 44.9001C102.139 45.1473 101.927 45.3569 101.677 45.5146C101.62 45.5381 101.569 45.5725 101.526 45.6158C101.483 45.6591 101.449 45.7104 101.426 45.7669C101.402 45.8234 101.39 45.884 101.39 45.9451C101.391 46.0062 101.403 46.0667 101.426 46.1231C101.45 46.1795 101.484 46.2307 101.527 46.2739C101.571 46.317 101.622 46.3511 101.679 46.3744C101.735 46.3977 101.796 46.4096 101.857 46.4095C101.918 46.4093 101.978 46.3972 102.035 46.3737C103.825 46.0515 104.057 43.8322 103.413 42.4719C102.856 41.5959 102.039 40.9161 101.076 40.5277C100.113 40.1394 99.0526 40.0619 98.0436 40.3063C97.982 40.3323 97.9295 40.3759 97.8926 40.4316C97.8556 40.4873 97.8359 40.5526 97.8359 40.6195C97.8359 40.6863 97.8556 40.7517 97.8926 40.8074C97.9295 40.8631 97.982 40.9067 98.0436 40.9327H98.1331Z" fill="#35208A"/>
<path d="M101.913 46.4095C102.074 46.7137 102.253 46.6958 102.575 46.8032C103.24 46.9735 103.819 47.3809 104.204 47.9487C104.521 48.4885 104.611 49.1323 104.454 49.7385C104.219 50.2859 103.919 50.8028 103.559 51.2777C103.38 51.6178 103.685 52.0831 104.061 51.9578C105.85 51.3493 105.976 48.6646 104.991 47.3402C104.484 46.6496 103.725 46.1866 102.879 46.0515C102.879 46.0515 101.68 46.0515 101.913 46.4274V46.4095Z" fill="#35208A"/>
<path d="M103.81 52.119C104.176 52.2313 104.485 52.4791 104.675 52.8117C104.864 53.1442 104.92 53.5366 104.83 53.9088C104.508 54.7679 103.721 54.6247 103.04 54.8037C102.95 54.8323 102.87 54.8858 102.81 54.958C102.749 55.0302 102.709 55.1181 102.696 55.2117C102.683 55.3052 102.697 55.4006 102.735 55.4867C102.774 55.5728 102.837 55.6463 102.915 55.6986C104.043 56.504 105.707 55.1258 105.958 54.0161C106.011 53.6943 105.996 53.3649 105.915 53.049C105.833 52.7331 105.687 52.4376 105.485 52.1816C105.283 51.9255 105.029 51.7145 104.741 51.5619C104.453 51.4094 104.135 51.3187 103.81 51.2957C103.309 51.2957 103.291 51.9579 103.703 52.119H103.81Z" fill="#35208A"/>
<path d="M109.895 46.1052C110.955 46.4292 111.962 46.9055 112.884 47.5191C113.323 47.8534 113.622 48.3378 113.726 48.8794C113.759 49.0503 113.749 49.2268 113.698 49.3932C113.646 49.5595 113.554 49.7105 113.43 49.8328C113.306 49.955 113.154 50.0447 112.987 50.0938C112.82 50.143 112.643 50.15 112.473 50.1143C112.358 50.1131 112.247 50.1497 112.155 50.2185C112.064 50.2872 111.998 50.3842 111.967 50.4944C111.937 50.6046 111.943 50.7219 111.986 50.8279C112.029 50.934 112.106 51.0229 112.204 51.0808C113.994 51.8325 115.247 49.7743 114.656 48.2708C114.242 47.4052 113.562 46.6949 112.715 46.244C111.868 45.7931 110.899 45.6253 109.949 45.7651C109.919 45.7825 109.895 45.8073 109.878 45.8371C109.861 45.867 109.852 45.9008 109.852 45.9352C109.852 45.9696 109.861 46.0034 109.878 46.0332C109.895 46.063 109.919 46.0878 109.949 46.1052H109.895Z" fill="#35208A"/>
<path d="M112.113 51.4745C113.42 51.4745 113.599 53.3896 112.507 53.9087C111.985 54.1245 111.4 54.1245 110.878 53.9087C110.431 53.7476 109.912 53.7297 109.876 54.3382C109.87 54.4359 109.893 54.5331 109.94 54.6186C109.988 54.7041 110.059 54.7744 110.144 54.8215C110.483 55.023 110.859 55.1539 111.249 55.2061C111.64 55.2584 112.037 55.2311 112.417 55.1257C112.796 55.0203 113.151 54.8391 113.458 54.593C113.766 54.347 114.021 54.0411 114.207 53.6939C114.341 53.3461 114.39 52.9714 114.351 52.6008C114.311 52.2302 114.183 51.8744 113.979 51.563C113.774 51.2515 113.498 50.9934 113.173 50.8099C112.849 50.6264 112.485 50.523 112.113 50.5081C111.98 50.5081 111.853 50.5609 111.759 50.6548C111.665 50.7488 111.612 50.8763 111.612 51.0092C111.612 51.1421 111.665 51.2696 111.759 51.3636C111.853 51.4575 111.98 51.5103 112.113 51.5103V51.4745Z" fill="#35208A"/>
<path d="M69.2126 118.914L69.32 119.057L73.8482 124.785C73.9281 124.866 74.0286 124.924 74.139 124.952C74.2494 124.981 74.3654 124.979 74.4746 124.946L84.1216 122.19C84.2625 122.142 84.3825 122.047 84.4613 121.921C84.54 121.794 84.5727 121.645 84.5537 121.497C84.5347 121.35 84.4653 121.213 84.3572 121.111C84.2491 121.009 84.1089 120.947 83.9606 120.937C81.2043 120.937 80.0588 118.377 77.8931 117.232C76.4931 116.554 74.9186 116.323 73.3829 116.57C72.3269 116.659 68.0135 116.928 69.2126 118.914Z" fill="#FA8D61"/>
<path d="M75.6199 144.258C76.7926 144.518 77.8885 145.049 78.8205 145.807C79.7525 146.565 80.4951 147.53 80.9893 148.625C81.0535 148.798 81.1765 148.943 81.3368 149.035C81.4971 149.126 81.6845 149.159 81.8663 149.126H82.0452C83.4385 148.692 84.9468 148.824 86.2432 149.494C87.5397 150.164 88.52 151.318 88.9718 152.706C89.0137 152.852 89.0887 152.987 89.1908 153.101C89.293 153.214 89.4196 153.303 89.5612 153.36C89.7028 153.417 89.8554 153.441 90.0076 153.43C90.1598 153.419 90.3075 153.373 90.4394 153.296C93.5536 151.148 98.9051 147.766 102.002 151.882C102.089 152.043 102.219 152.177 102.376 152.27C102.534 152.363 102.713 152.413 102.896 152.413C103.079 152.413 103.259 152.363 103.417 152.27C103.574 152.177 103.703 152.043 103.791 151.882C104.485 150.624 105.394 149.498 106.476 148.553C107.89 147.497 110.593 146.925 111.326 149.251C111.375 149.417 111.467 149.568 111.591 149.688C111.716 149.808 111.869 149.894 112.037 149.937C112.205 149.981 112.381 149.98 112.548 149.935C112.715 149.89 112.868 149.802 112.991 149.681C115.349 146.871 117.01 143.543 117.838 139.969C118.665 136.395 118.636 132.676 117.752 129.116C117.677 128.866 117.509 128.654 117.282 128.525C117.056 128.395 116.788 128.357 116.535 128.418L78.4478 134.843C78.2803 134.888 78.1275 134.976 78.0049 135.099C77.8824 135.221 77.7943 135.374 77.7497 135.541C77.0545 138.003 76.1441 140.399 75.0292 142.701C74.9382 142.836 74.8809 142.991 74.8622 143.153C74.8435 143.315 74.8639 143.479 74.9218 143.632C74.9796 143.784 75.0732 143.921 75.1947 144.03C75.3162 144.139 75.462 144.217 75.6199 144.258Z" fill="#FA8D61"/>
<path d="M43.547 116.623C46.6243 119.956 50.4018 122.566 54.6079 124.266C55.5587 124.467 56.4224 124.962 57.0779 125.68C57.6864 126.431 58.2054 127.255 58.8677 128.006C60.6541 130.271 62.6562 132.357 64.8456 134.235C68.9318 137.593 73.6615 140.08 78.744 141.544C83.8266 143.008 89.1547 143.417 94.4011 142.746C99.6476 142.076 104.702 140.34 109.253 137.645C113.804 134.95 117.756 131.354 120.866 127.076C124.095 122.701 126.52 117.785 128.025 112.56C128.697 109.811 129.128 107.008 129.314 104.184C129.457 102.502 129.314 99.996 130.442 98.6C131.963 96.8102 134.863 97.3829 136.563 95.8079C137.178 95.1957 137.55 94.3808 137.609 93.5149C137.668 92.649 137.411 91.791 136.885 91.1007C133.914 86.5725 125.842 88.0759 121.457 89.8478C121.707 87.0558 127.506 85.9103 126.218 82.3307C125.233 79.6639 120.956 81.7222 119.22 82.1696C115.892 82.8224 112.732 84.1437 109.931 86.0535C106.863 88.5299 104.54 91.8068 103.219 95.5215C101.769 99.2622 101.608 103.271 100.337 107.03C99.0949 110.458 96.8498 113.433 93.894 115.567C87.7795 119.826 80.4944 122.084 73.0429 122.028C71.0149 122.091 68.9853 121.983 66.9754 121.706C66.1663 121.689 65.3739 121.473 64.6683 121.076C63.9628 120.68 63.3659 120.115 62.9305 119.433C62.5272 118.07 62.3756 116.645 62.4831 115.227C62.1442 110.647 60.4215 106.278 57.5432 102.699C57.4916 102.644 57.4279 102.602 57.3571 102.576C57.2864 102.55 57.2107 102.542 57.136 102.55C57.0612 102.559 56.9895 102.585 56.9266 102.626C56.8637 102.668 56.8113 102.723 56.7736 102.788L54.9838 106.117C54.6087 105.779 54.1437 105.557 53.6451 105.477C53.1464 105.398 52.6354 105.465 52.1738 105.67C50.384 106.278 49.6502 107.871 48.7016 109.41C48.281 110.106 47.6982 110.688 47.0031 111.109C46.308 111.53 45.5213 111.776 44.7104 111.827C44.0344 111.891 43.4019 112.189 42.9206 112.668C41.7393 113.974 42.7237 115.549 43.547 116.623Z" fill="#96CBEB"/>
<path d="M103.47 108.891C105.6 112.757 109.931 114.547 114.066 115.12C120.598 115.943 125.681 112.668 129.01 107.782C129.172 106.618 129.279 105.437 129.386 104.202C129.53 102.52 129.386 100.014 130.514 98.6178C132.035 96.8281 134.935 97.4008 136.635 95.8258C137.25 95.2136 137.622 94.3987 137.681 93.5328C137.741 92.6669 137.483 91.8089 136.957 91.1186C133.986 86.5904 125.914 88.0938 121.529 89.8657C121.708 87.0558 127.507 85.9103 126.218 82.3307C125.234 79.6639 120.956 81.7222 119.22 82.1696C115.893 82.8224 112.733 84.1437 109.931 86.0535C106.863 88.5299 104.541 91.8068 103.219 95.5215C102.422 97.8103 101.823 100.164 101.43 102.555C101.633 104.792 102.329 106.956 103.47 108.891Z" fill="white"/>
<path d="M121.401 96.6491C122.062 96.6351 122.713 96.8176 123.271 97.1736C123.829 97.5295 124.269 98.043 124.536 98.6489C124.802 99.2549 124.882 99.9262 124.767 100.578C124.652 101.23 124.346 101.833 123.888 102.311C123.43 102.789 122.841 103.12 122.195 103.263C121.548 103.406 120.874 103.354 120.257 103.114C119.64 102.874 119.109 102.457 118.729 101.914C118.35 101.372 118.14 100.729 118.125 100.068C118.115 99.1826 118.453 98.3289 119.065 97.6898C119.677 97.0508 120.516 96.6771 121.401 96.6491Z" fill="#35208A"/>
<path d="M110.807 93.3917C111.869 93.3917 112.907 93.7066 113.79 94.2966C114.673 94.8866 115.361 95.7252 115.768 96.7063C116.174 97.6875 116.28 98.7671 116.073 99.8086C115.866 100.85 115.355 101.807 114.604 102.558C113.853 103.309 112.896 103.82 111.854 104.027C110.813 104.235 109.733 104.128 108.752 103.722C107.771 103.315 106.932 102.627 106.342 101.744C105.752 100.861 105.438 99.8231 105.438 98.7611C105.438 97.3371 106.003 95.9713 107.01 94.9644C108.017 93.9574 109.383 93.3917 110.807 93.3917Z" fill="#96CBEB"/>
<path d="M93.3734 114.547C94.2325 115.746 95.4675 118.664 97.2752 118.592C99.0828 118.52 101.141 115.854 102.018 114.547C103.575 112.381 105.598 106.994 102.841 105.025C100.318 103.236 98.9397 107.513 97.8121 108.945C96.6845 110.377 94.841 109.464 93.3018 110.413C91.7626 111.361 92.6217 113.366 93.3734 114.547Z" fill="#FA8D61"/>
<path d="M59.5291 117.375C58.8765 113.373 57.6213 109.493 55.8063 105.867C55.6094 105.473 54.8219 106.01 55.0904 106.797C55.3588 107.585 58.4373 116.57 58.9026 117.536C59.0458 117.858 59.5112 117.679 59.5291 117.357V117.375Z" fill="#35208A"/>
<path d="M56.7191 118.216C56.379 116.731 54.2133 115.549 53.1395 114.637C51.8057 113.227 50.3765 111.912 48.8618 110.699C48.486 110.431 47.9848 110.95 48.2354 111.325C49.4927 112.935 50.9548 114.373 52.5846 115.603C53.6406 116.534 55.144 118.395 56.6296 118.413C56.6296 118.413 56.737 118.413 56.737 118.288L56.7191 118.216Z" fill="#35208A"/>
<path d="M101.322 109.178C100.391 109.947 100.015 111.451 99.3173 112.435C98.3723 113.776 97.2038 114.944 95.863 115.889C95.3261 116.301 95.863 117.196 96.4 116.802C97.7903 115.824 99.0013 114.613 99.9796 113.223C100.713 112.185 101.913 110.502 101.59 109.16C101.59 109.16 101.483 109.16 101.411 109.16L101.322 109.178Z" fill="#35208A"/>
<path d="M99.5858 108.945C98.6603 109.598 97.7921 110.328 96.9906 111.129C95.9883 111.88 94.8249 112.346 93.8584 113.079C93.7685 113.14 93.7025 113.23 93.6716 113.333C93.6408 113.437 93.6471 113.548 93.6895 113.648C93.7319 113.748 93.8077 113.829 93.9039 113.879C94.0001 113.929 94.1106 113.944 94.2164 113.921C95.4207 113.493 96.528 112.829 97.4738 111.97C98.5358 111.276 99.3944 110.312 99.9617 109.178C99.9732 109.129 99.9707 109.077 99.9543 109.029C99.938 108.982 99.9085 108.939 99.8692 108.908C99.83 108.876 99.7826 108.856 99.7324 108.85C99.6823 108.844 99.6315 108.852 99.5858 108.873V108.945Z" fill="#35208A"/>
<path d="M77.1762 119.916C76.9362 119.204 76.4872 118.58 75.8875 118.127C75.4098 117.631 74.7796 117.309 74.0977 117.214C74.0177 117.216 73.9399 117.241 73.8739 117.286C73.8079 117.331 73.7565 117.395 73.7261 117.469C73.6957 117.543 73.6876 117.625 73.7027 117.703C73.7179 117.782 73.7556 117.854 73.8113 117.912C74.275 118.298 74.7655 118.651 75.279 118.968C75.7443 119.362 76.0844 119.881 76.5676 120.274C76.6357 120.332 76.7198 120.366 76.8084 120.374C76.8971 120.381 76.9858 120.361 77.0624 120.316C77.139 120.271 77.1997 120.203 77.2361 120.122C77.2725 120.04 77.2828 119.95 77.2657 119.863L77.1762 119.916Z" fill="#35208A"/>
<path d="M74.6517 120.489C74.0236 119.866 73.334 119.309 72.5934 118.825C71.9849 118.377 71.2868 117.608 70.5172 117.608C70.4609 117.609 70.4054 117.622 70.3551 117.648C70.3047 117.673 70.2608 117.71 70.2264 117.754C70.192 117.799 70.1681 117.851 70.1565 117.906C70.1449 117.961 70.1458 118.018 70.1593 118.073C70.3919 118.789 71.2152 119.165 71.8059 119.594C72.53 120.186 73.3091 120.708 74.1326 121.151C74.5622 121.33 74.9917 120.847 74.6517 120.489Z" fill="#35208A"/>
<path d="M110.68 146.352C111.836 144.917 112.682 143.259 113.165 141.482C113.649 139.705 113.76 137.847 113.49 136.025C113.456 135.957 113.403 135.9 113.339 135.86C113.274 135.821 113.199 135.8 113.123 135.8C113.047 135.8 112.973 135.821 112.908 135.86C112.843 135.9 112.791 135.957 112.756 136.025C112.416 137.814 112.47 139.497 112.058 141.233C111.647 142.969 110.823 144.508 110.43 146.209C110.422 146.247 110.426 146.286 110.443 146.322C110.459 146.357 110.487 146.386 110.521 146.404C110.555 146.422 110.595 146.429 110.633 146.423C110.672 146.416 110.707 146.398 110.734 146.37L110.68 146.352Z" fill="#35208A"/>
<path d="M106.064 146.763C106.919 145.714 107.542 144.495 107.891 143.186C108.239 141.878 108.306 140.511 108.086 139.175C108.06 139.086 108.006 139.008 107.931 138.953C107.857 138.898 107.767 138.868 107.675 138.868C107.582 138.868 107.492 138.898 107.418 138.953C107.344 139.008 107.289 139.086 107.263 139.175C106.995 140.392 107.048 141.645 106.744 142.88C106.44 144.114 105.831 145.206 105.455 146.459C105.441 146.535 105.451 146.613 105.483 146.683C105.515 146.753 105.568 146.812 105.635 146.851C105.701 146.89 105.778 146.908 105.855 146.902C105.931 146.896 106.004 146.866 106.064 146.817V146.763Z" fill="#35208A"/>
<path d="M98.9023 148.553H99.0634C99.1425 148.557 99.2211 148.539 99.2906 148.501C99.36 148.463 99.4177 148.407 99.4572 148.338C99.9618 147.45 100.33 146.491 100.549 145.493C100.862 144.609 100.93 143.656 100.746 142.736C100.713 142.673 100.662 142.619 100.601 142.582C100.539 142.545 100.469 142.525 100.397 142.525C100.325 142.525 100.254 142.545 100.193 142.582C100.131 142.619 100.081 142.673 100.048 142.736C99.7679 143.565 99.5877 144.424 99.5109 145.296C99.2961 146.244 98.9381 147.086 98.6339 148.07C98.6096 148.147 98.6067 148.23 98.6256 148.309C98.6445 148.387 98.6845 148.46 98.7413 148.517C98.7413 148.517 98.7413 148.625 98.9023 148.625V148.553Z" fill="#35208A"/>
<path d="M92.3517 150.343C93.2154 149.658 93.9318 148.806 94.4577 147.837C94.9837 146.868 95.3083 145.803 95.4122 144.705C95.4122 144.132 94.5889 144.043 94.4278 144.58C94.1926 145.574 93.8506 146.541 93.4076 147.461C92.914 148.272 92.3763 149.055 91.7968 149.806C91.7477 149.883 91.7265 149.974 91.737 150.064C91.7475 150.155 91.7889 150.239 91.8543 150.302C91.9197 150.365 92.005 150.404 92.0956 150.411C92.1863 150.419 92.2768 150.395 92.3517 150.343Z" fill="#35208A"/>
<path d="M87.9493 148.983C88.5668 148.195 89.0395 147.305 89.3453 146.352C89.5959 145.6 90.0612 144.419 89.578 143.685C89.5462 143.644 89.5055 143.611 89.459 143.588C89.4124 143.566 89.3613 143.554 89.3095 143.554C89.2577 143.554 89.2066 143.566 89.1601 143.588C89.1136 143.611 89.0728 143.644 89.0411 143.685C88.522 144.24 88.5936 145.117 88.3788 145.833C88.0899 146.759 87.706 147.652 87.2334 148.5C87.0186 148.929 87.6092 149.466 87.9493 149.054V148.983Z" fill="#35208A"/>
<path d="M83.243 147.336C83.8841 146.939 84.3951 146.363 84.7131 145.68C85.0311 144.996 85.1423 144.234 85.0328 143.488C85.0014 143.42 84.951 143.362 84.8875 143.321C84.824 143.28 84.7502 143.258 84.6748 143.258C84.5994 143.258 84.5256 143.28 84.4622 143.321C84.3987 143.362 84.3483 143.42 84.3169 143.488C84.0305 144.061 84.0126 144.723 83.7441 145.278C83.4491 145.859 83.108 146.416 82.724 146.942C82.545 147.229 82.9029 147.533 83.1714 147.39L83.243 147.336Z" fill="#35208A"/>
<path d="M80.0412 145.869C80.7336 145.224 81.2771 144.436 81.6342 143.56C81.6935 143.46 81.7108 143.341 81.6823 143.228C81.6537 143.116 81.5817 143.019 81.482 142.96C81.3824 142.901 81.2632 142.883 81.1507 142.912C81.0383 142.941 80.9418 143.013 80.8824 143.112C80.3264 143.887 79.942 144.772 79.7549 145.707C79.7512 145.742 79.7578 145.777 79.7739 145.808C79.7899 145.839 79.8147 145.865 79.8451 145.882C79.8756 145.899 79.9104 145.907 79.9452 145.905C79.9801 145.902 80.0134 145.89 80.0412 145.869Z" fill="#35208A"/>
<path d="M77.6415 144.025C77.9437 143.689 78.2023 143.316 78.4111 142.915C78.6859 142.581 78.8432 142.166 78.8586 141.734C78.859 141.684 78.8461 141.634 78.8211 141.59C78.7962 141.546 78.7601 141.51 78.7165 141.484C78.6729 141.459 78.6233 141.445 78.5728 141.445C78.5223 141.445 78.4727 141.458 78.429 141.484C77.9994 141.734 77.8921 142.164 77.6952 142.611C77.4991 143.009 77.3547 143.43 77.2656 143.864C77.2656 144.061 77.5162 144.132 77.6415 144.025Z" fill="#35208A"/>
<path d="M117.07 124.087C116.681 124.896 116.068 125.576 115.303 126.046C114.538 126.516 113.654 126.755 112.756 126.736C111.881 126.597 111.06 126.222 110.382 125.651C109.703 125.08 109.194 124.335 108.908 123.496C108.64 122.995 107.942 123.371 108.031 123.872C108.89 128.848 116.39 128.919 117.929 124.373C118.09 123.872 117.338 123.586 117.07 124.015V124.087Z" fill="#35208A"/>
<path d="M108.443 122.691C107.029 123.067 105.883 124.176 104.308 123.371C102.733 122.565 102.769 120.74 103.127 119.183C103.15 119.086 103.141 118.984 103.102 118.892C103.062 118.801 102.994 118.724 102.908 118.674C102.822 118.624 102.722 118.603 102.623 118.614C102.524 118.625 102.431 118.667 102.358 118.735C100.836 120.346 101.892 123.263 103.628 124.266C105.024 125.053 108.532 124.91 108.514 122.744L108.443 122.691Z" fill="#35208A"/>
<path d="M110.25 132.23C108.622 133.412 107.172 134.825 105.006 134.754C104.414 134.732 103.835 134.571 103.316 134.286C102.797 134 102.352 133.596 102.017 133.107C101.54 132.234 101.364 131.227 101.516 130.244C101.516 129.814 100.979 129.725 100.747 130.029C99.3685 131.998 101.427 134.682 103.288 135.398C104.633 135.833 106.088 135.775 107.394 135.234C108.7 134.693 109.769 133.704 110.412 132.445C110.412 132.338 110.412 132.194 110.25 132.284V132.23Z" fill="#35208A"/>
<path d="M101.712 129.599C101.024 130.075 100.201 130.315 99.3647 130.282C98.5288 130.25 97.726 129.948 97.0767 129.42C96.7915 129.128 96.5696 128.78 96.4249 128.398C96.2801 128.016 96.2157 127.609 96.2355 127.201C96.3863 126.463 96.6142 125.743 96.9156 125.053C96.9383 124.974 96.9365 124.889 96.9105 124.811C96.8845 124.732 96.8355 124.664 96.7698 124.613C96.7042 124.563 96.6249 124.534 96.5424 124.529C96.4599 124.525 96.3779 124.545 96.3071 124.588C95.3406 125.035 95.0721 126.521 95.1437 127.469C95.1642 127.997 95.2886 128.515 95.5097 128.994C95.7309 129.473 96.0444 129.904 96.4324 130.262C96.8288 130.604 97.2893 130.864 97.787 131.027C98.2847 131.189 98.8098 131.252 99.3319 131.21C99.8623 131.181 100.381 131.041 100.853 130.798C101.257 130.516 101.588 130.142 101.82 129.707L101.712 129.599Z" fill="#35208A"/>
<path d="M96.4876 124.069C95.2348 124.266 93.7671 124.856 92.908 123.586C92.7133 123.318 92.5829 123.01 92.527 122.684C92.4711 122.358 92.4913 122.023 92.5859 121.706C92.7828 121.044 93.3018 120.704 93.6956 120.185C93.7318 120.115 93.7499 120.038 93.7482 119.959C93.7464 119.881 93.7249 119.804 93.6857 119.737C93.6464 119.669 93.5906 119.612 93.5235 119.571C93.4564 119.531 93.3801 119.508 93.3018 119.505C91.2435 119.755 90.9572 122.923 92.0131 124.266C93.0691 125.608 96.1476 126.234 96.5592 124.266C96.5592 124.266 96.5592 124.158 96.5592 124.176L96.4876 124.069Z" fill="#35208A"/>
<path d="M95.898 138.745C95.2285 138.801 94.5643 138.909 93.9114 139.067C93.1038 139.145 92.2931 138.956 91.6025 138.53C91.2949 138.336 91.0306 138.08 90.8261 137.779C90.6217 137.478 90.4816 137.138 90.4144 136.78C90.3472 136.422 90.3545 136.055 90.4357 135.7C90.517 135.345 90.6704 135.011 90.8866 134.718C91.334 134.181 90.5465 133.394 90.0812 133.931C89.4912 134.668 89.2052 135.603 89.2817 136.545C89.3582 137.486 89.7915 138.363 90.4928 138.996C91.3097 139.69 92.3567 140.054 93.4281 140.016C94.2872 140.016 95.5938 139.819 96.0591 139.014C96.0751 138.986 96.0834 138.955 96.0831 138.923C96.0829 138.891 96.0741 138.859 96.0576 138.832C96.0412 138.805 96.0177 138.782 95.9897 138.767C95.9616 138.752 95.93 138.744 95.898 138.745Z" fill="#35208A"/>
<path d="M90.6345 133.805C89.2742 133.805 87.7887 134.038 86.7685 132.91C86.5514 132.668 86.3842 132.385 86.2767 132.078C86.1692 131.771 86.1235 131.445 86.1421 131.121C86.2433 130.604 86.4309 130.108 86.6969 129.653C86.8759 129.241 86.3211 128.937 85.9989 129.116C84.5134 129.886 84.9608 132.302 85.8199 133.34C86.4226 134.023 87.2393 134.482 88.1366 134.642C89.0339 134.801 89.9586 134.651 90.7598 134.217C90.8104 134.188 90.8502 134.143 90.8731 134.089C90.896 134.035 90.9007 133.976 90.8865 133.919C90.8724 133.862 90.8401 133.812 90.7946 133.775C90.7491 133.738 90.6929 133.718 90.6345 133.716V133.805Z" fill="#35208A"/>
<path d="M85.7672 128.865C85.2336 128.984 84.6755 128.915 84.1866 128.671C83.6977 128.426 83.3079 128.021 83.0825 127.523C83.0015 127.248 82.9768 126.96 83.01 126.675C83.0432 126.39 83.1335 126.115 83.2756 125.866C83.4176 125.617 83.6085 125.399 83.8367 125.226C84.065 125.052 84.3259 124.927 84.6038 124.856C84.7229 124.801 84.8186 124.706 84.8741 124.587C84.9295 124.468 84.9411 124.334 84.9068 124.207C84.8725 124.081 84.7945 123.971 84.6866 123.896C84.5787 123.822 84.4479 123.788 84.3175 123.8C83.9027 123.902 83.5128 124.086 83.1711 124.342C82.8294 124.598 82.5429 124.92 82.3289 125.29C82.115 125.659 81.9779 126.068 81.9259 126.492C81.8739 126.916 81.9082 127.346 82.0265 127.756C82.1638 128.135 82.3753 128.482 82.6487 128.778C82.9221 129.074 83.2519 129.312 83.6187 129.479C83.9855 129.646 84.3819 129.738 84.7847 129.749C85.1874 129.76 85.5884 129.691 85.9641 129.546C86.0387 129.502 86.0969 129.435 86.1297 129.355C86.1626 129.275 86.1683 129.187 86.1459 129.104C86.1235 129.02 86.0743 128.946 86.0059 128.894C85.9374 128.841 85.8536 128.812 85.7672 128.812V128.865Z" fill="#35208A"/>
<path d="M81.8468 139.067C80.4865 138.727 78.822 138.781 77.8555 137.564C77.6604 137.339 77.5163 137.075 77.4332 136.789C77.3501 136.503 77.33 136.203 77.3742 135.908C77.4184 135.614 77.526 135.333 77.6894 135.084C77.8528 134.835 78.0683 134.625 78.3209 134.468C78.4108 134.407 78.4769 134.317 78.5077 134.214C78.5386 134.11 78.5322 133.998 78.4898 133.899C78.4474 133.799 78.3716 133.717 78.2754 133.668C78.1793 133.618 78.0688 133.603 77.9629 133.626C76.1731 133.948 75.9405 136.168 76.5848 137.51C77.1376 138.361 77.9406 139.019 78.883 139.394C79.8253 139.769 80.8608 139.842 81.8468 139.604C81.91 139.582 81.9647 139.541 82.0035 139.487C82.0422 139.432 82.0631 139.367 82.0631 139.3C82.0631 139.233 82.0422 139.168 82.0035 139.113C81.9647 139.059 81.91 139.018 81.8468 138.996V139.067Z" fill="#35208A"/>
<path d="M78.0707 133.573C77.9276 133.286 77.7307 133.304 77.4085 133.197C76.7464 133.021 76.1726 132.607 75.7977 132.033C75.6377 131.767 75.5331 131.472 75.49 131.164C75.447 130.857 75.4664 130.543 75.5471 130.244C75.7708 129.685 76.0721 129.161 76.442 128.687C76.621 128.364 76.3167 127.881 75.923 128.024C74.1332 128.633 74.0258 131.318 75.0102 132.624C75.5154 133.32 76.274 133.789 77.1222 133.931C77.1222 133.931 78.3213 133.931 78.0707 133.537V133.573Z" fill="#35208A"/>
<path d="M76.2827 127.881C75.9142 127.772 75.6022 127.525 75.4119 127.192C75.2217 126.858 75.1682 126.464 75.2625 126.091C75.5668 125.232 76.3722 125.357 77.0523 125.196C77.1423 125.168 77.2224 125.114 77.2833 125.042C77.3442 124.97 77.3834 124.882 77.3965 124.788C77.4096 124.695 77.396 124.599 77.3573 124.513C77.3185 124.427 77.2562 124.354 77.1776 124.301C76.0321 123.496 74.3855 124.856 74.117 125.984C74.0557 126.299 74.0603 126.624 74.1305 126.937C74.2007 127.25 74.3351 127.546 74.5251 127.805C74.715 128.064 74.9565 128.28 75.2344 128.441C75.5122 128.602 75.8204 128.704 76.1395 128.74C76.6585 128.74 76.6585 128.078 76.2648 127.935L76.2827 127.881Z" fill="#35208A"/>
<path d="M70.0899 133.895C69.0355 133.556 68.035 133.067 67.1189 132.445C66.6842 132.107 66.3856 131.625 66.2777 131.085C66.2445 130.914 66.254 130.737 66.3056 130.571C66.3571 130.405 66.4489 130.254 66.573 130.131C66.697 130.009 66.8493 129.919 67.0164 129.87C67.1834 129.821 67.3601 129.814 67.5305 129.85C68.0138 129.85 68.2464 129.08 67.7811 128.883C66.0808 128.114 64.7384 130.19 65.3291 131.693C65.7361 132.571 66.4166 133.293 67.2684 133.751C68.1203 134.209 69.0977 134.379 70.0541 134.235C70.0844 134.22 70.1099 134.197 70.1278 134.169C70.1456 134.14 70.1551 134.107 70.1551 134.074C70.1551 134.04 70.1456 134.007 70.1278 133.979C70.1099 133.95 70.0844 133.927 70.0541 133.913L70.0899 133.895Z" fill="#35208A"/>
<path d="M67.87 128.525C67.5974 128.485 67.3449 128.359 67.1494 128.165C66.9539 127.971 66.8257 127.719 66.7836 127.447C66.7416 127.175 66.7879 126.896 66.9158 126.652C67.0437 126.408 67.2464 126.212 67.4941 126.091C67.7494 125.985 68.0231 125.93 68.2996 125.93C68.576 125.93 68.8498 125.985 69.105 126.091C69.5703 126.252 70.0715 126.288 70.1252 125.68C70.1229 125.581 70.0954 125.485 70.0453 125.401C69.9951 125.316 69.924 125.246 69.8388 125.196C69.4997 124.992 69.1218 124.86 68.7291 124.809C68.3364 124.758 67.9374 124.789 67.5572 124.9C67.1771 125.011 66.8241 125.2 66.5206 125.454C66.2171 125.708 65.9696 126.023 65.7938 126.378C65.6602 126.724 65.6108 127.097 65.6496 127.467C65.6884 127.836 65.8143 128.191 66.017 128.502C66.2197 128.813 66.4934 129.071 66.8156 129.256C67.1377 129.44 67.4991 129.546 67.87 129.564C68.0029 129.564 68.1304 129.511 68.2244 129.417C68.3183 129.323 68.3712 129.195 68.3712 129.062C68.3712 128.929 68.3183 128.802 68.2244 128.708C68.1304 128.614 68.0029 128.561 67.87 128.561V128.525Z" fill="#35208A"/>
<path d="M38.1765 88.3981C38.1765 88.2907 38.1765 88.2191 38.1765 88.1833C37.6575 87.181 35.7245 86.9842 34.758 86.7873C33.183 86.4651 31.5721 86.2861 29.9792 86.0714L29.1022 85.9103C28.9948 85.9103 28.8159 85.8029 28.8338 85.9103C28.6323 85.5593 28.4702 85.1872 28.3505 84.8006C27.6883 83.2614 27.0619 81.7222 26.3817 80.1829C26.0417 79.3954 25.7016 78.6258 25.3257 77.8562C25.0931 77.3908 24.8425 76.4959 24.3056 76.2633C23.1422 75.7621 22.3368 78.6437 22.0325 79.3238C21.2808 80.9883 20.5828 82.6707 19.8669 84.3353C19.7237 84.6932 19.4731 85.6955 19.1509 85.9282C18.6478 86.0063 18.1384 86.0363 17.6296 86.0177L15.4998 86.1966C14.29 86.2633 13.0903 86.4552 11.9202 86.7694C11.2221 86.9663 9.95138 87.3063 10.1304 88.2907C10.3093 89.2751 11.4548 89.8299 11.9202 90.2774C12.8636 91.0266 13.8628 91.7027 14.9091 92.2999C15.4327 92.536 15.9408 92.805 16.4305 93.1053C16.9853 93.5348 16.7168 93.9823 16.5736 94.555C16.2515 95.7721 15.9293 96.9891 15.625 98.1346C15.3208 99.2801 15.1597 100.229 14.9986 101.213C14.8197 101.9 14.8197 102.621 14.9986 103.307C15.7324 104.864 18.5782 102.144 19.2225 101.625C19.8669 101.106 20.9049 100.282 21.7104 99.5843L22.9095 98.5463C23.1243 98.3494 23.6791 97.5798 23.9655 97.5261C24.2519 97.4724 25.6479 98.94 26.0238 99.3159C26.865 100.05 27.8136 100.73 28.6011 101.41C29.7237 102.552 31.1433 103.358 32.6997 103.737C34.0779 103.862 33.4156 101.768 33.2367 100.945C32.7892 98.9758 32.1628 97.0607 31.5721 95.1277C31.4469 94.7161 31.2858 94.2865 31.1963 93.8749C31.1068 93.4632 31.1963 93.4453 31.5006 93.1948C32.2702 92.7473 33.2009 92.4609 33.9884 92.0493C35.277 91.405 37.8364 90.2595 38.2123 88.6308C38.2232 88.5917 38.2256 88.5507 38.2194 88.5106C38.2132 88.4705 38.1986 88.4321 38.1765 88.3981Z" fill="#FFF896"/>
<path d="M151.615 137.6C149.432 137.403 147.23 137.439 145.029 137.457L146.819 135.667C147.905 134.748 148.836 133.661 149.575 132.445C149.636 132.33 149.659 132.198 149.64 132.069C149.621 131.94 149.56 131.821 149.468 131.728C149.376 131.636 149.256 131.576 149.127 131.557C148.998 131.538 148.867 131.56 148.752 131.622C147.567 132.331 146.493 133.212 145.566 134.235L143.668 136.025V133.483C143.774 132.098 143.672 130.704 143.364 129.349C143.326 129.224 143.249 129.115 143.144 129.038C143.039 128.961 142.913 128.919 142.783 128.919C142.652 128.919 142.526 128.961 142.421 129.038C142.316 129.115 142.239 129.224 142.201 129.349C141.863 130.699 141.73 132.093 141.807 133.483C141.807 134.36 141.807 135.273 141.807 136.132L140.017 134.235C139.121 133.181 138.064 132.275 136.885 131.55C136.766 131.436 136.607 131.374 136.443 131.377C136.278 131.381 136.122 131.449 136.008 131.568C135.894 131.687 135.832 131.846 135.835 132.01C135.839 132.175 135.907 132.331 136.026 132.445C136.74 133.632 137.627 134.706 138.657 135.631L140.447 137.528H137.816C136.436 137.414 135.047 137.517 133.699 137.832C133.575 137.871 133.466 137.948 133.389 138.052C133.311 138.157 133.27 138.284 133.27 138.414C133.27 138.544 133.311 138.671 133.389 138.776C133.466 138.88 133.575 138.957 133.699 138.996C135.044 139.333 136.432 139.465 137.816 139.389H140.429C138.798 140.865 137.245 142.424 135.775 144.061C135.64 144.236 135.572 144.454 135.585 144.675C135.598 144.896 135.691 145.104 135.846 145.262C136.002 145.42 136.209 145.515 136.43 145.532C136.651 145.548 136.87 145.483 137.046 145.35C138.711 143.953 140.232 142.396 141.771 140.839C141.771 143.023 141.646 145.206 141.771 147.372C141.813 147.579 141.925 147.765 142.088 147.898C142.251 148.032 142.455 148.105 142.666 148.105C142.877 148.105 143.081 148.032 143.245 147.898C143.408 147.765 143.52 147.579 143.561 147.372C143.74 145.224 143.722 143.023 143.704 140.857C145.208 142.432 146.711 144.043 148.34 145.457C148.508 145.625 148.737 145.72 148.975 145.72C149.214 145.72 149.442 145.625 149.611 145.457C149.779 145.288 149.874 145.06 149.874 144.822C149.874 144.583 149.779 144.355 149.611 144.186C148.232 142.522 146.657 141 145.1 139.461C147.284 139.461 149.485 139.586 151.651 139.461C151.898 139.456 152.133 139.354 152.304 139.176C152.475 138.998 152.569 138.759 152.564 138.512C152.559 138.266 152.456 138.031 152.279 137.86C152.101 137.688 151.862 137.595 151.615 137.6Z" fill="white"/>
<path d="M33.1989 40.7178C33.377 40.5119 33.5443 40.2968 33.7001 40.0735L33.3779 40.4852C33.6593 40.199 33.8787 39.8578 34.0222 39.4829C34.129 39.0711 34.0995 38.6358 33.9382 38.2422C33.7769 37.8485 33.4924 37.5178 33.1273 37.2993C32.7428 37.0617 32.2997 36.9358 31.8476 36.9358C31.3956 36.9358 30.9525 37.0617 30.5679 37.2993C30.3043 37.4559 30.0769 37.6666 29.9007 37.9176C29.7246 38.1685 29.6038 38.4541 29.5463 38.7552C29.4887 39.0564 29.4958 39.3663 29.567 39.6646C29.6383 39.9628 29.772 40.2425 29.9594 40.4852C30.1223 40.7158 30.3328 40.9086 30.5768 41.0507C30.8207 41.1927 31.0924 41.2806 31.3733 41.3085C31.6972 41.3627 32.0294 41.3373 32.3412 41.2344C32.6531 41.1315 32.9352 40.9542 33.1631 40.7178H33.1989Z" fill="white"/>
<path d="M40.0748 68.3523C40.5385 68.3569 40.9952 68.2396 41.3993 68.0123C41.9193 67.6853 42.2965 67.1739 42.4552 66.5804L42.0257 67.3322L42.1152 67.2248C42.3974 66.9314 42.555 66.5401 42.555 66.133C42.555 65.7259 42.3974 65.3346 42.1152 65.0412L42.0257 64.9517L42.4552 65.6855C42.3033 65.0889 41.9244 64.5752 41.3993 64.2537C41.1333 64.1087 40.8414 64.0175 40.5402 63.9852C40.3855 63.9676 40.2294 63.9676 40.0748 63.9852C39.4854 63.9842 38.9194 64.2157 38.4998 64.6296C38.0934 65.0469 37.8628 65.6043 37.8555 66.1867C37.8601 66.7739 38.0955 67.3356 38.5107 67.7508C38.9259 68.166 39.4877 68.4014 40.0748 68.406V68.3523Z" fill="white"/>
<path d="M64.4319 17.0389L65.1121 16.5735C65.3428 16.418 65.5341 16.2109 65.6708 15.9686C65.8075 15.7262 65.8859 15.4554 65.8996 15.1775C65.8934 14.9003 65.8182 14.6291 65.6807 14.3885C65.5431 14.1478 65.3477 13.9453 65.1121 13.7993L64.4319 13.334C64.1066 13.1327 63.7316 13.0261 63.3491 13.0261C62.9666 13.0261 62.5916 13.1327 62.2663 13.334C61.9388 13.5198 61.6664 13.7892 61.4769 14.1146C61.2873 14.44 61.1875 14.8098 61.1875 15.1864C61.1875 15.563 61.2873 15.9328 61.4769 16.2583C61.6664 16.5837 61.9388 16.853 62.2663 17.0389C62.593 17.2362 62.9674 17.3406 63.3491 17.3406C63.7308 17.3406 64.1052 17.2362 64.4319 17.0389Z" fill="white"/>
<path d="M112.634 13.6204H112.92C115.229 13.7994 115.229 9.84393 112.92 10.0408H112.634C112.159 10.0408 111.704 10.2294 111.368 10.565C111.032 10.9007 110.844 11.3559 110.844 11.8306C110.844 12.3053 111.032 12.7605 111.368 13.0962C111.704 13.4318 112.159 13.6204 112.634 13.6204Z" fill="white"/>
<path d="M118.629 40.3421C119.204 40.2913 119.739 40.027 120.129 39.6013C120.519 39.1756 120.735 38.6194 120.735 38.0422C120.735 37.465 120.519 36.9088 120.129 36.4831C119.739 36.0574 119.204 35.7931 118.629 35.7423C118.054 35.7931 117.519 36.0574 117.129 36.4831C116.74 36.9088 116.523 37.465 116.523 38.0422C116.523 38.6194 116.74 39.1756 117.129 39.6013C117.519 40.027 118.054 40.2913 118.629 40.3421Z" fill="white"/>
<path d="M89.3094 21.6566C89.5725 21.6567 89.8329 21.6045 90.0756 21.5031C90.3184 21.4017 90.5385 21.2531 90.7234 21.066C90.903 20.8848 91.0446 20.6696 91.1399 20.4329C91.2352 20.1962 91.2822 19.9429 91.2782 19.6878C91.2831 19.1575 91.0795 18.6465 90.7112 18.2649C90.343 17.8832 89.8396 17.6615 89.3094 17.6475C88.7735 17.6504 88.2598 17.8623 87.8776 18.2381C87.6929 18.4238 87.5471 18.6445 87.4487 18.8873C87.3504 19.1301 87.3015 19.3901 87.3049 19.652C87.3095 20.1822 87.5222 20.6894 87.8971 21.0643C88.2721 21.4392 88.7792 21.6519 89.3094 21.6566Z" fill="white"/>
<path d="M142.289 51.6357H142.415H141.878H142.128H141.609C141.969 51.7159 142.342 51.7159 142.701 51.6357H142.826H142.343C142.718 51.6401 143.084 51.5193 143.382 51.2923C143.68 51.0653 143.894 50.7452 143.99 50.3828C144.1 50.0328 144.119 49.6607 144.047 49.301C143.976 48.9412 143.814 48.6054 143.578 48.3245C143.22 47.9748 142.775 47.7275 142.289 47.6086C141.98 47.5199 141.655 47.5042 141.339 47.5628C141.023 47.6213 140.724 47.7525 140.467 47.946C140.211 48.1395 140.002 48.39 139.859 48.6778C139.715 48.9655 139.641 49.2827 139.641 49.6042C139.641 49.9258 139.715 50.243 139.859 50.5307C140.002 50.8185 140.211 51.069 140.467 51.2625C140.724 51.456 141.023 51.5871 141.339 51.6457C141.655 51.7043 141.98 51.6886 142.289 51.5999V51.6357Z" fill="white"/>
<path d="M163.355 73.5607C163.734 73.8182 164.185 73.9497 164.643 73.9366C164.947 73.9343 165.246 73.8715 165.525 73.7517C165.803 73.632 166.055 73.4578 166.265 73.2393C166.475 73.0208 166.639 72.7625 166.748 72.4796C166.857 72.1967 166.908 71.8949 166.899 71.5919C166.907 71.1367 166.783 70.6889 166.541 70.3033C166.337 69.9557 166.047 69.6661 165.699 69.4621C165.34 69.2558 164.933 69.1449 164.518 69.1399C163.902 69.1604 163.315 69.4092 162.872 69.8379C162.442 70.2791 162.198 70.8687 162.191 71.4845C162.192 71.8999 162.303 72.3075 162.514 72.6658C162.713 73.0121 163.004 73.2968 163.355 73.4891V73.5607Z" fill="white"/>
<path d="M145.402 87.3064C145.931 87.1961 146.394 86.8808 146.691 86.4294C146.993 85.8842 147.082 85.2467 146.941 84.6396C146.833 84.2755 146.635 83.9442 146.366 83.6755C146.098 83.4068 145.766 83.2092 145.402 83.1004C144.983 82.9894 144.54 83.005 144.129 83.1451C143.718 83.2852 143.358 83.5436 143.093 83.8879C142.825 84.2305 142.666 84.6459 142.638 85.0801C142.609 85.5143 142.712 85.9471 142.932 86.322C143.177 86.7373 143.551 87.0615 143.997 87.2455C144.442 87.4296 144.936 87.4635 145.402 87.3422V87.3064Z" fill="white"/>
<path d="M157.88 108.301C158.449 108.296 158.994 108.072 159.401 107.674C159.711 107.37 159.922 106.981 160.01 106.557C160.097 106.132 160.056 105.691 159.892 105.29C159.728 104.889 159.448 104.545 159.088 104.304C158.728 104.062 158.305 103.933 157.871 103.933C157.438 103.933 157.014 104.062 156.654 104.304C156.294 104.545 156.014 104.889 155.85 105.29C155.686 105.691 155.645 106.132 155.732 106.557C155.82 106.981 156.032 107.37 156.341 107.674C156.759 108.065 157.307 108.288 157.88 108.301Z" fill="white"/>
<path d="M121.152 157.216C121.022 156.967 120.835 156.753 120.606 156.59C120.378 156.427 120.114 156.32 119.837 156.278C119.559 156.235 119.276 156.259 119.009 156.346C118.742 156.434 118.5 156.583 118.302 156.781C118.103 156.98 117.954 157.222 117.867 157.489C117.779 157.756 117.755 158.039 117.798 158.317C117.84 158.594 117.947 158.858 118.11 159.086C118.273 159.315 118.487 159.502 118.736 159.632C119.082 159.819 119.479 159.887 119.867 159.826C120.256 159.764 120.613 159.577 120.884 159.292C121.149 159.015 121.318 158.661 121.366 158.28C121.415 157.9 121.34 157.514 121.152 157.18V157.216Z" fill="white"/>
<path d="M83.136 170.031C83.7673 170.031 84.3728 169.78 84.8192 169.334C85.2656 168.887 85.5164 168.282 85.5164 167.65C85.5102 167.02 85.26 166.417 84.8184 165.968C84.5416 165.691 84.2008 165.487 83.8261 165.373C83.4514 165.259 83.0544 165.239 82.6704 165.316C82.2863 165.392 81.927 165.562 81.6243 165.81C81.3216 166.059 81.0848 166.378 80.935 166.74C80.7852 167.102 80.7269 167.495 80.7654 167.884C80.8039 168.274 80.9379 168.648 81.1556 168.974C81.3733 169.299 81.6679 169.566 82.0133 169.75C82.3588 169.935 82.7444 170.031 83.136 170.031Z" fill="white"/>
<path d="M68.1743 153.332C68.0848 153.529 68.0132 153.708 67.9416 153.905L67.5658 154.388L67.0825 154.764L66.5098 154.997H65.8833C66.4502 155.005 67.0001 154.803 67.4265 154.429C67.853 154.056 68.1258 153.537 68.1922 152.974C68.2796 152.455 68.178 151.921 67.9058 151.471C67.589 150.949 67.0926 150.561 66.5098 150.379C65.8643 150.21 65.178 150.303 64.601 150.638C64.0241 150.974 63.6035 151.524 63.4313 152.169C63.2665 152.771 63.3472 153.415 63.6558 153.958C63.9644 154.502 64.4758 154.901 65.0779 155.068C65.6821 155.227 66.3242 155.143 66.8677 154.835C67.1358 154.686 67.3707 154.483 67.5583 154.24C67.746 153.997 67.8825 153.719 67.9595 153.422L68.1743 153.332Z" fill="white"/>
<path d="M34.6318 149.412C34.9627 149.418 35.2915 149.358 35.5988 149.235C35.9062 149.112 36.1859 148.929 36.4216 148.696C36.6556 148.462 36.8398 148.182 36.9628 147.875C37.0859 147.567 37.1453 147.238 37.1375 146.907C37.1496 146.575 37.0921 146.244 36.9688 145.936C36.8455 145.628 36.6591 145.349 36.4216 145.117C36.1871 144.883 35.9076 144.699 35.6 144.576C35.2924 144.453 34.963 144.393 34.6318 144.401C33.964 144.393 33.3204 144.651 32.842 145.117C32.6062 145.35 32.421 145.629 32.2978 145.937C32.1746 146.245 32.1162 146.575 32.1261 146.907C32.1213 147.237 32.1822 147.566 32.305 147.873C32.4279 148.18 32.6104 148.46 32.842 148.696C33.3204 149.163 33.964 149.42 34.6318 149.412Z" fill="white"/>
<path d="M39.5922 122.315C40.1856 122.263 40.7381 121.991 41.1406 121.552C41.5431 121.113 41.7664 120.539 41.7664 119.943C41.7664 119.348 41.5431 118.774 41.1406 118.335C40.7381 117.896 40.1856 117.623 39.5922 117.572C38.9988 117.623 38.4463 117.896 38.0438 118.335C37.6413 118.774 37.418 119.348 37.418 119.943C37.418 120.539 37.6413 121.113 38.0438 121.552C38.4463 121.991 38.9988 122.263 39.5922 122.315Z" fill="white"/>
<path d="M83.9589 103.629C84.4275 103.371 84.7938 102.961 84.997 102.466C85.0843 102.275 85.1561 102.078 85.2118 101.875C85.2975 101.555 85.2977 101.218 85.2124 100.897C85.1271 100.577 84.9593 100.284 84.7257 100.049C84.4921 99.8134 84.2009 99.6433 83.881 99.5555C83.5612 99.4678 83.224 99.4654 82.9029 99.5486L82.2944 99.7634C81.7966 99.964 81.3893 100.34 81.1489 100.819C80.9268 101.213 80.8382 101.668 80.8962 102.117C80.9543 102.565 81.156 102.983 81.4711 103.307C81.8011 103.612 82.2178 103.807 82.6636 103.865C83.1094 103.923 83.5621 103.84 83.9589 103.629Z" fill="white"/>
<path d="M50.7951 51.1883L50.1328 51.2778H50.2402L50.9025 51.1883C51.1129 51.1172 51.3166 51.0274 51.511 50.9198L50.9204 51.1704C51.3258 51.044 51.6985 50.8302 52.0121 50.5439C52.2734 50.2752 52.4706 49.9508 52.589 49.5951C52.7073 49.2395 52.7438 48.8616 52.6956 48.4899C52.6474 48.1181 52.5158 47.7621 52.3107 47.4483C52.1056 47.1346 51.8322 46.8712 51.511 46.678C51.0063 46.3837 50.4185 46.2645 49.8391 46.339C49.2597 46.4134 48.7211 46.6773 48.3073 47.0896C47.9399 47.4951 47.7121 48.0076 47.6574 48.5519C47.6026 49.0963 47.7237 49.6439 48.003 50.1144C48.2353 50.4721 48.5402 50.777 48.8979 51.0093C49.1808 51.1771 49.4947 51.2858 49.8208 51.3288C50.1469 51.3719 50.4783 51.3484 50.7951 51.2599V51.1883Z" fill="#FFF896"/>
<path d="M94.5183 81.7222C94.7702 82.1904 95.149 82.5782 95.6112 82.8409C96.0733 83.1037 96.6003 83.2308 97.1314 83.2078C97.4999 83.2239 97.867 83.1529 98.2028 83.0005C98.5387 82.8481 98.8339 82.6187 99.0644 82.3308C99.292 82.0761 99.452 81.7684 99.5298 81.4359C99.6187 81.0168 99.5813 80.5808 99.4224 80.183C99.2733 79.7968 98.995 79.4742 98.6349 79.2702L99.0465 79.5745L99.3866 80.004C99.2255 79.7713 99.0465 79.5566 98.8675 79.3418L99.2434 79.825V79.6819L99.494 80.2725C99.4859 80.2251 99.4859 80.1767 99.494 80.1293C99.494 80.3441 99.494 80.5768 99.494 80.7915C99.494 80.4873 99.3866 80.2009 99.3508 79.8966C99.264 79.5777 99.1149 79.279 98.9122 79.0179C98.7094 78.7568 98.457 78.5384 98.1695 78.3753C97.8277 78.1678 97.4407 78.0464 97.0417 78.0214C96.6426 77.9965 96.2435 78.0688 95.8786 78.2321C95.5708 78.3536 95.2912 78.537 95.0572 78.771C94.8233 79.005 94.6398 79.2846 94.5183 79.5924C94.3593 79.8951 94.2851 80.2353 94.3035 80.5768C94.3059 81.0362 94.4294 81.4868 94.6615 81.8833L94.5183 81.7222Z" fill="#FFF896"/>
<path d="M138.156 119.129C138.825 119.124 139.466 118.861 139.946 118.395C140.416 117.917 140.679 117.275 140.68 116.605C140.678 116.191 140.575 115.784 140.378 115.419C140.182 115.054 139.898 114.744 139.553 114.514C139.208 114.285 138.812 114.144 138.4 114.104C137.988 114.064 137.572 114.126 137.189 114.285C136.807 114.444 136.469 114.694 136.206 115.014C135.943 115.335 135.763 115.715 135.682 116.121C135.601 116.527 135.621 116.947 135.74 117.344C135.859 117.74 136.075 118.101 136.367 118.395C136.851 118.854 137.489 119.115 138.156 119.129Z" fill="#FFF896"/>
<path d="M21.012 120.811C21.587 120.761 22.122 120.496 22.5118 120.071C22.9016 119.645 23.1178 119.089 23.1178 118.511C23.1178 117.934 22.9016 117.378 22.5118 116.952C22.122 116.527 21.587 116.262 21.012 116.212C20.4371 116.262 19.902 116.527 19.5122 116.952C19.1224 117.378 18.9063 117.934 18.9062 118.511C18.9063 119.089 19.1224 119.645 19.5122 120.071C19.902 120.496 20.4371 120.761 21.012 120.811Z" fill="#FFF896"/>
<path d="M160.062 48.772C160.734 48.7487 161.373 48.474 161.852 48.0024C162.096 47.7581 162.29 47.4679 162.423 47.1485C162.555 46.8291 162.623 46.4868 162.623 46.141C162.623 45.7953 162.555 45.4529 162.423 45.1336C162.29 44.8142 162.096 44.524 161.852 44.2797C161.607 44.035 161.317 43.841 160.998 43.7086C160.678 43.5762 160.336 43.5081 159.99 43.5081C159.645 43.5081 159.302 43.5762 158.983 43.7086C158.664 43.841 158.373 44.035 158.129 44.2797C157.648 44.7526 157.372 45.3951 157.359 46.0694C157.376 46.743 157.651 47.3842 158.129 47.8592C158.613 48.3237 159.249 48.5971 159.919 48.6289L160.062 48.772Z" fill="#FFF896"/>
</g>
<defs>
<clipPath id="clip0_2288_5048">
<rect width="180" height="180" fill="white"/>
</clipPath>
</defs>
</svg>
