<svg width="180" height="180" viewBox="0 0 180 180" fill="none" xmlns="http://www.w3.org/2000/svg">
<g clip-path="url(#clip0_2288_4696)">
<path d="M90.7247 2.50851C139.043 2.91331 177.885 42.4112 177.48 90.7294C177.075 139.048 137.577 177.889 89.2588 177.484C40.9406 177.08 2.09901 137.582 2.50381 89.2635C2.90861 40.9452 42.4065 2.10371 90.7247 2.50851Z" stroke="white" stroke-width="5"/>
<path d="M135.777 128.49V128.293L135.651 128.132C130.712 120.776 120.975 122.172 113.422 119.809C113.422 113.962 113.75 108.128 114.407 102.305C114.409 102.169 114.379 102.034 114.32 101.911C114.261 101.788 114.174 101.681 114.067 101.598C113.959 101.514 113.833 101.457 113.7 101.431C113.566 101.405 113.428 101.41 113.297 101.446L90.5307 106.815C90.3462 106.866 90.1834 106.976 90.0671 107.127C89.9508 107.279 89.8873 107.465 89.8863 107.656C89.9667 110.559 89.7931 113.464 89.3673 116.337C88.902 119.648 88.5798 123.496 84.9465 124.677C79.7246 126.176 74.4009 127.295 69.0173 128.024C64.865 128.794 60.0683 130.154 57.6342 133.805C55.2001 137.457 56.8825 141.305 60.2115 143.882C64.0428 146.561 68.4294 148.342 73.0443 149.09C78.7159 150.178 84.4703 150.776 90.2443 150.88C101.144 151.274 112.975 151.703 123.535 148.535C128.297 147.366 132.444 144.445 135.15 140.356C136.249 138.592 136.883 136.579 136.992 134.503C137.102 132.428 136.684 130.359 135.777 128.49Z" fill="#FFB07F"/>
<path d="M122.085 68.4241C119.543 56.3071 114.55 42.4899 102.021 37.7469C90.3696 33.3798 75.7469 36.8341 65.7957 43.6891C60.1399 47.5729 55.0569 53.0139 53.2671 59.7972C51.0656 68.0661 55.0569 74.7957 59.1734 81.6686C63.8627 89.5258 65.9746 99.4592 72.8654 105.885C78.5748 111.254 86.6468 112.811 94.1461 113.778C96.4061 114.226 98.734 114.208 100.987 113.725C103.24 113.242 105.37 112.304 107.247 110.968C111.139 107.971 114.216 104.044 116.196 99.5487C121.1 89.8658 124.179 79.2702 122.085 68.4241Z" fill="#FFB07F"/>
<path d="M89.3502 112.256C91.8857 113.315 94.5528 114.025 97.279 114.368C99.4872 114.473 101.676 113.912 103.561 112.757C107.494 110.902 110.838 107.997 113.226 104.363C113.3 104.254 113.327 104.12 113.302 103.991C113.277 103.862 113.201 103.748 113.092 103.674C112.983 103.601 112.849 103.573 112.72 103.599C112.59 103.624 112.476 103.699 112.403 103.808C110.173 107.088 107.142 109.744 103.597 111.522C101.441 112.932 98.8438 113.505 96.2946 113.133C94.0037 112.739 91.8022 111.952 89.565 111.343C89.47 111.328 89.3727 111.348 89.2915 111.4C89.2104 111.452 89.151 111.532 89.1245 111.624C89.0981 111.717 89.1065 111.816 89.148 111.902C89.1896 111.989 89.2615 112.058 89.3502 112.095V112.256Z" fill="#FA8D61"/>
<path d="M75.5303 127.899C78.8303 129.883 82.4727 131.23 86.2691 131.872C88.2805 132.072 90.2695 132.456 92.2112 133.018C95.0928 134.127 95.1465 136.293 96.1309 138.781C96.2382 139.031 96.6678 139.121 96.7215 138.781C97.2763 135.201 94.7169 132.57 91.3521 131.622C88.7569 130.96 85.9827 130.852 83.477 130.118C80.9713 129.384 78.2329 128.078 75.5124 127.577C75.4891 127.586 75.4692 127.602 75.4551 127.623C75.4411 127.644 75.4336 127.668 75.4336 127.693C75.4336 127.718 75.4411 127.743 75.4551 127.763C75.4692 127.784 75.4891 127.8 75.5124 127.809L75.5303 127.899Z" fill="#FA8D61"/>
<path d="M125.485 127.756C122.926 128.311 120.42 129.402 117.914 130.154C115.409 130.906 112.778 131.55 110.2 132.23C108.751 132.606 106.621 132.767 105.672 134.02C104.701 135.46 104.275 137.199 104.473 138.924C104.473 139.01 104.507 139.092 104.567 139.152C104.628 139.212 104.71 139.246 104.795 139.246C104.881 139.246 104.963 139.212 105.023 139.152C105.084 139.092 105.117 139.01 105.117 138.924C105.493 137.904 105.511 136.776 105.905 135.792C106.621 134.002 107.229 134.002 108.733 133.608C110.737 133.036 112.742 132.535 114.747 131.98C118.326 130.995 122.514 130.065 125.485 127.863C125.485 127.863 125.485 127.702 125.485 127.72V127.756Z" fill="#FA8D61"/>
<path d="M69.9453 78.6438C70.0527 82.2234 74.9388 88.1655 78.8943 86.7158C84.1563 84.8186 81.7759 77.5341 79.8429 74.1872C79.5207 73.5965 78.6079 74.1872 78.948 74.7241C79.8498 76.258 80.5022 77.9254 80.881 79.664C81.4537 82.2234 80.5409 86.501 76.9613 85.9104C73.3817 85.3197 72.3615 80.9168 70.178 78.6617C70.178 78.6617 69.999 78.6617 70.0169 78.6617L69.9453 78.6438Z" fill="#35208A"/>
<path d="M77.7166 89.3467C78.091 88.5365 78.2216 87.6347 78.0924 86.7515C78.0029 86.143 77.0364 86.0893 77.0901 86.7515C77.1203 87.5472 77.0784 88.3439 76.9648 89.132C76.9694 89.2223 77.0025 89.309 77.0592 89.3795C77.1159 89.45 77.1935 89.5007 77.2808 89.5245C77.3681 89.5484 77.4607 89.544 77.5454 89.5121C77.6301 89.4801 77.7025 89.4223 77.7524 89.3467H77.7166Z" fill="#35208A"/>
<path d="M80.9201 89.132C80.9083 88.5628 80.8241 87.9975 80.6695 87.4496C80.5442 86.9484 80.4726 86.3041 80.061 85.982C80.012 85.9322 79.9507 85.8964 79.8834 85.8781C79.816 85.8598 79.745 85.8598 79.6776 85.878C79.6102 85.8962 79.5489 85.932 79.4999 85.9817C79.4509 86.0315 79.416 86.0933 79.3988 86.1609C79.373 86.6586 79.465 87.1553 79.6672 87.6107C79.8104 88.1476 79.8641 88.7203 80.0431 89.2573C80.0733 89.3607 80.1397 89.4497 80.2302 89.5081C80.3208 89.5664 80.4293 89.5902 80.5359 89.575C80.6426 89.5597 80.7401 89.5065 80.8107 89.4252C80.8813 89.3438 80.9201 89.2397 80.9201 89.132Z" fill="#35208A"/>
<path d="M101.073 66.7416C101.216 69.9275 103.704 73.686 101.628 76.7824C99.838 79.3239 96.7058 77.9816 95.095 76.2276C93.6998 74.5817 92.6798 72.6517 92.106 70.5718C91.9092 69.9275 90.889 70.1959 91.1038 70.8403C92.2671 74.563 95.9362 81.3464 100.93 78.787C104.76 76.8182 103.776 69.2294 101.234 66.6879C101.227 66.6728 101.215 66.66 101.201 66.6511C101.187 66.6422 101.17 66.6375 101.153 66.6375C101.137 66.6375 101.12 66.6422 101.106 66.6511C101.092 66.66 101.08 66.6728 101.073 66.6879V66.7416Z" fill="#35208A"/>
<path d="M104.026 78.9122C103.9 78.8227 103.811 78.7153 103.668 78.6258L103.131 78.2858C102.823 78.0285 102.535 77.7472 102.272 77.4445C101.806 76.9792 101.162 77.6593 101.556 78.1605C101.848 78.5008 102.179 78.807 102.54 79.0733C102.706 79.1969 102.88 79.3104 103.059 79.4133C103.259 79.5305 103.477 79.6151 103.703 79.6639C104.187 79.8071 104.384 79.1628 104.026 78.9122Z" fill="#35208A"/>
<path d="M102.021 81.3106C101.716 80.8452 101.376 80.4157 101.09 79.9503C100.804 79.485 100.66 78.9123 100.213 78.7154C100.159 78.6863 100.099 78.6697 100.037 78.6669C99.9756 78.6641 99.9143 78.6752 99.8576 78.6992C99.801 78.7232 99.7504 78.7597 99.7097 78.8059C99.669 78.852 99.6391 78.9067 99.6223 78.966C99.5149 79.5029 99.9445 80.0219 100.231 80.4515C100.538 80.9583 100.905 81.4269 101.323 81.8475C101.681 82.1876 102.307 81.7401 102.021 81.3106Z" fill="#35208A"/>
<path d="M85.6264 82.5992C86.4142 84.5252 86.8215 86.5856 86.8255 88.6666C86.8255 89.7047 86.0022 91.6556 86.6823 92.6041C87.8636 94.2329 91.9086 93.1411 93.2867 92.3715C93.3639 92.3143 93.4198 92.2329 93.4453 92.1402C93.4708 92.0475 93.4645 91.949 93.4274 91.8604C93.3903 91.7717 93.3245 91.6981 93.2406 91.6512C93.1567 91.6043 93.0595 91.587 92.9645 91.6019C91.7217 92.1268 90.3732 92.3536 89.027 92.2641C87.0045 91.6377 87.8636 89.7047 87.8457 88.3086C87.7957 86.2471 87.3396 84.2157 86.5034 82.3307C86.2886 81.8475 85.4474 82.1875 85.6264 82.6887V82.5992Z" fill="#35208A"/>
<path d="M85.3577 99.3159C88.2751 101.482 94.3067 101.428 97.5104 99.9065C98.9795 99.1112 100.275 98.0301 101.32 96.7268C102.365 95.4236 103.139 93.9245 103.596 92.3178C103.596 91.9956 103.256 91.6913 103.005 91.9598C101.001 94.2687 100.267 97.3292 97.3315 98.8147C93.376 100.909 89.4563 98.9937 85.4293 99.0474C85.4019 99.0576 85.3783 99.0759 85.3616 99.0999C85.3449 99.1239 85.3359 99.1524 85.3359 99.1816C85.3359 99.2109 85.3449 99.2394 85.3616 99.2634C85.3783 99.2874 85.4019 99.3057 85.4293 99.3159H85.3577Z" fill="#35208A"/>
<path d="M111.379 91.2798C112.878 91.2798 114.342 90.8353 115.587 90.0026C116.833 89.1699 117.803 87.9864 118.376 86.602C118.948 85.2176 119.097 83.6944 118.803 82.2253C118.51 80.7562 117.787 79.4073 116.726 78.3492C115.666 77.2911 114.315 76.5715 112.845 76.2814C111.376 75.9913 109.853 76.1437 108.47 76.7195C107.087 77.2953 105.906 78.2684 105.076 79.5158C104.246 80.7632 103.805 82.2287 103.809 83.7268C103.832 85.7258 104.638 87.6361 106.053 89.0481C107.468 90.46 109.38 91.2612 111.379 91.2798Z" fill="#E0435B"/>
<path d="M76.427 104.542C77.7418 104.546 79.028 104.159 80.1228 103.431C81.2175 102.702 82.0713 101.665 82.5761 100.451C83.0809 99.2373 83.2139 97.9007 82.9583 96.6109C82.7026 95.3212 82.0698 94.1364 81.1401 93.2067C80.2104 92.277 79.0256 91.6442 77.7359 91.3886C76.4462 91.1329 75.1096 91.2659 73.8955 91.7707C72.6814 92.2755 71.6446 93.1294 70.9163 94.2241C70.1881 95.3188 69.8012 96.6051 69.8047 97.9199C69.8234 99.6735 70.5296 101.35 71.7713 102.588C73.013 103.827 74.6912 104.528 76.4449 104.542H76.427Z" fill="#E0435B"/>
<path d="M134.236 88.0044C133.019 85.7313 133.77 84.2458 134.54 81.9728C135.086 80.4766 135.411 78.9091 135.507 77.3193C135.614 74.1693 133.896 71.413 132.249 68.8536C128.67 63.4842 127.112 57.0946 123.443 51.6357C119.696 46.2015 115.083 41.4189 109.787 37.4784C105.277 34.0062 100.623 30.5877 94.9676 29.3527C88.8465 28.0104 81.8663 28.6189 77.0697 32.9323C71.1275 31.5363 62.4828 35.8855 58.2768 38.8386C50.6652 44.1777 45.4229 52.2625 43.6541 61.3901C42.897 66.4974 42.532 71.6551 42.5624 76.8181C42.2659 82.1065 42.4817 87.4111 43.2067 92.6579C43.8714 97.3911 45.6234 101.906 48.3255 105.849C49.8077 107.839 51.5266 109.642 53.4443 111.218C54.4824 112.113 55.5563 113.008 56.5586 113.903C57.1922 114.461 57.79 115.059 58.3484 115.693C59.6191 117.178 58.9748 118.574 58.1336 120.006C56.0037 123.586 55.1267 128.472 57.4893 132.248C58.688 133.993 60.3754 135.344 62.3396 136.132C64.6664 137.17 67.709 137.6 69.6957 139.211C70.2684 139.676 71.3244 139.926 70.8233 141.179C70.6443 141.68 69.7852 142.146 69.4272 142.575C68.9739 143.07 68.6916 143.698 68.6218 144.365C68.6218 146.423 70.8412 147.193 72.5236 147.265C75.5263 147.189 78.4594 146.344 81.043 144.813C83.763 143.613 86.2017 141.857 88.2022 139.658C89.0549 138.67 89.6485 137.485 89.9297 136.21C90.2108 134.935 90.1707 133.611 89.813 132.356C89.3005 131.174 88.7023 130.031 88.0232 128.937C87.6207 128.09 87.4 127.169 87.3753 126.232C87.3507 125.295 87.5226 124.363 87.88 123.496C88.936 120.561 90.6184 117.984 90.2605 114.744C89.89 111.985 88.5516 109.448 86.484 107.585C84.6489 106.034 82.5264 104.861 80.2376 104.13C77.6961 103.289 74.5818 103.271 72.2551 101.84C66.9931 98.6358 75.2799 92.3894 71.9329 87.9865C71.217 87.0379 70.1431 86.7515 69.1945 86.1967C68.1265 85.4978 67.3798 84.4034 67.1184 83.154C66.8469 81.6475 66.9497 80.0973 67.4179 78.6399C67.886 77.1824 68.7051 75.8623 69.8031 74.7957C73.4901 70.7507 78.233 68.2092 81.1683 63.4305C83.5873 59.4432 84.9029 54.8847 84.9806 50.2218C88.3812 54.3562 93.5537 57.9895 98.8157 57.2199C98.8157 62.7682 99.5137 68.8894 104.364 72.3079C105.98 73.2215 107.467 74.3471 108.785 75.6548C110.17 77.3347 110.941 79.4374 110.968 81.6148C110.968 85.3913 108.427 88.4876 107.389 91.9777C106.351 95.4678 107.21 98.7969 107.979 102.251C108.92 106.782 108.289 111.497 106.19 115.621C105.667 116.622 105.515 117.776 105.76 118.878C106.118 120.131 106.798 120.292 107.747 120.937C110.432 122.726 108.642 124.516 107.747 126.7C107.126 127.924 106.998 129.34 107.389 130.655C107.949 132.034 108.966 133.178 110.27 133.895C111.573 134.612 113.084 134.858 114.548 134.593C118.002 134.127 120.562 131.693 122.799 129.223C124.446 131.013 127.291 129.707 128.866 127.899C131.666 124.371 133.575 120.221 134.433 115.8C136.545 106.94 138.496 96.4522 134.236 88.0044Z" fill="#996666"/>
<path d="M88.2387 39.8589C88.3671 42.2813 89.1182 44.6296 90.4193 46.6769C91.7205 48.7243 93.5277 50.4014 95.6663 51.5463C98.5658 53.1034 102.199 52.8528 104.92 54.7321C108.249 57.023 105.815 60.9606 106.405 64.218C107.515 70.3212 113.564 74.2409 115.927 79.8788C117.448 83.4205 117.519 87.418 116.124 91.0113C114.925 94.0182 113.063 96.7387 112.544 99.9603C111.524 106.744 117.341 116.068 110.862 121.438C110.361 121.85 111.094 122.565 111.578 122.154C116.16 118.413 114.925 112.113 113.976 107.048C113.022 102.816 113.579 98.3835 115.551 94.5193C117.056 91.8839 117.937 88.9391 118.128 85.9104C118.128 78.9839 113.511 74.4378 109.77 69.1758C108.732 67.8351 107.954 66.3112 107.479 64.6834C107.211 62.8091 107.308 60.9007 107.765 59.0634C107.936 57.9518 107.752 56.8149 107.242 55.813C106.731 54.8111 105.919 53.9948 104.92 53.4792C101.626 51.6894 97.7604 51.9579 94.5209 49.6312C92.9658 48.4372 91.6612 46.9486 90.6816 45.2503C89.702 43.5521 89.0665 41.6775 88.8114 39.7336C88.8114 39.4114 88.2208 39.5009 88.2387 39.8231V39.8589Z" fill="#35208A"/>
<path d="M109.679 49.2552C113.921 49.9891 116.248 55.9491 116.839 59.7077C117.429 63.4662 115.711 66.8669 116.588 70.4464C117.376 73.6144 119.881 75.9769 121.707 78.59C123.99 81.7289 125.566 85.3255 126.325 89.1319C127.064 93.3046 126.194 97.6024 123.89 101.159C122.02 103.908 121.189 107.232 121.546 110.538C121.975 114.332 122.387 117.697 120.937 121.438C120.192 123.32 119.106 125.05 117.734 126.539C116.481 127.917 113.814 130.584 111.684 130.118C111.564 130.095 111.44 130.119 111.337 130.183C111.233 130.248 111.158 130.35 111.127 130.467C111.095 130.585 111.109 130.711 111.166 130.818C111.223 130.926 111.318 131.009 111.433 131.049C113.707 131.765 116.176 129.563 117.716 128.078C119.726 126.149 121.248 123.768 122.154 121.134C123.061 118.377 123.288 115.442 122.817 112.578C122.36 110.352 122.36 108.057 122.817 105.831C123.557 103.945 124.499 102.145 125.627 100.461C126.95 97.8355 127.639 94.9361 127.639 91.9956C127.639 89.0552 126.95 86.1557 125.627 83.5299C124.184 80.552 122.381 77.7629 120.257 75.2252C119.034 73.7936 118.11 72.1325 117.537 70.3391C117.31 68.2973 117.443 66.2316 117.93 64.2358C118.235 60.8084 117.545 57.3658 115.944 54.3204C114.673 51.922 112.704 49.1299 109.715 49.1657C109.554 49.1657 109.483 49.4521 109.715 49.4879L109.679 49.2552Z" fill="#35208A"/>
<path d="M124.32 70.3928C127.326 74.5988 129.689 78.6438 129.904 83.9953C129.725 86.2708 129.725 88.5568 129.904 90.8323C130.315 93.1411 131.21 95.3247 131.694 97.6514C132.442 102.378 132.191 107.209 130.958 111.833C129.725 116.457 127.537 120.772 124.534 124.498C124.194 124.946 124.91 125.483 125.268 125.089C128.334 121.505 130.605 117.312 131.932 112.786C133.258 108.26 133.61 103.505 132.964 98.8327C132.624 96.2554 131.747 93.8571 131.175 91.3335C130.53 88.3803 131.175 85.4271 130.834 82.3845C130.451 77.6309 128.291 73.1962 124.785 69.9633C124.57 69.7843 124.141 69.9633 124.355 70.3033L124.32 70.3928Z" fill="#35208A"/>
<path d="M79.8094 44.3334C82.3509 55.0722 72.9723 61.945 66.189 68.3883C61.5892 72.7733 54.3405 81.2748 59.4594 87.8255C60.3932 88.7725 61.4678 89.5694 62.6452 90.188C63.4417 90.7183 64.0642 91.4716 64.435 92.3537C64.4292 93.0065 64.3143 93.6538 64.0949 94.2687C63.8086 95.629 63.4327 96.9713 63.1821 98.3495C62.3188 101.664 62.7676 105.184 64.435 108.175C66.2248 111.039 69.2316 111.63 72.4533 111.755C74.6577 111.651 76.8455 112.185 78.7534 113.294C79.7881 114.022 80.6467 114.971 81.2662 116.074C81.8856 117.177 82.2501 118.404 82.333 119.666C82.4225 122.19 80.8832 123.962 80.2926 126.288C79.9758 127.961 80.3155 129.692 81.2412 131.121C82.4404 133.412 83.4963 135.452 82.8341 138.101C82.5249 139.315 81.9482 140.446 81.1462 141.409C80.3441 142.372 79.3371 143.143 78.1985 143.667C77.769 143.9 78.0733 144.634 78.5386 144.455C80.5848 143.636 82.2466 142.075 83.1922 140.084C84.1379 138.094 84.2976 135.819 83.6395 133.716C82.7625 131.192 80.5253 129.152 81.3665 126.288C82.1822 124.608 82.8297 122.852 83.2995 121.044C83.4456 119.518 83.2055 117.979 82.6014 116.57C82.0019 115.102 81.0231 113.819 79.7652 112.854C78.5073 111.888 77.0154 111.274 75.4422 111.075C73.2295 111.01 71.0234 110.801 68.8379 110.449C67.5536 110.012 66.4162 109.227 65.5532 108.181C64.6902 107.134 64.1356 105.868 63.9517 104.524C63.5778 101.751 63.8099 98.9301 64.6319 96.2554C64.9898 94.7341 65.8668 92.6758 65.0793 91.1724C64.5245 90.0448 63.2895 89.5974 62.3051 88.9709C60.979 88.1742 59.9467 86.9694 59.3627 85.5368C58.7787 84.1042 58.6745 82.521 59.0656 81.0242C59.9784 75.9949 63.9517 71.9142 67.5492 68.4957C74.1357 62.3567 84.087 54.4099 80.5611 44.0828C80.5253 44.0049 80.4627 43.9423 80.3848 43.9066C80.3068 43.8709 80.2186 43.8644 80.1362 43.8883C80.0538 43.9121 79.9827 43.9647 79.9359 44.0366C79.889 44.1084 79.8695 44.1947 79.8809 44.2797L79.8094 44.3334Z" fill="#35208A"/>
<path d="M57.0608 73.1312C52.9263 77.9279 49.3468 85.0155 52.1388 91.2798C52.7468 92.5353 53.5707 93.6743 54.573 94.6446C55.1853 95.2085 55.6371 95.9247 55.8823 96.7202C56.1276 97.5157 56.1575 98.362 55.969 99.1728C55.969 99.6739 55.8616 100.157 55.8437 100.658C55.6715 103.669 56.3211 106.669 57.723 109.339C59.1999 112.008 61.5794 114.064 64.4348 115.138C68.1933 116.731 71.9877 118.538 72.1846 123.192C72.2741 125.179 71.3613 127.004 71.5761 129.009C71.7124 130.196 72.0324 131.356 72.5246 132.445C73.8849 135.756 77.3034 141.734 71.8266 143.184C71.3613 143.327 71.4329 144.097 71.934 144.043C73.0611 143.884 74.0893 143.313 74.8199 142.441C75.5505 141.568 75.9316 140.455 75.8895 139.318C75.8895 136.239 73.8849 133.573 72.99 130.745C71.8803 127.165 73.9923 123.836 72.5783 120.31C71.9601 118.997 71.0763 117.825 69.9827 116.87C68.8892 115.915 67.6095 115.198 66.2246 114.762C62.1617 112.972 59.0654 110.95 57.6693 106.565C57.0746 104.673 56.8141 102.693 56.8997 100.712C56.8997 99.1907 57.6872 97.2756 57.0071 95.8079C56.4702 94.6267 55.2173 94.0181 54.3761 93.0338C52.8858 91.1324 52.1014 88.7729 52.1567 86.3578C52.1567 81.418 54.9488 77.4088 57.2577 73.2386C57.2577 73.1491 57.1682 73.0417 57.1145 73.1312H57.0608Z" fill="#35208A"/>
<path d="M62.3576 123.496C60.5678 124.91 60.7289 127.774 61.3553 129.743C62.2165 132.209 63.9473 134.277 66.2236 135.559C66.7605 135.882 67.2617 135.04 66.7247 134.7C64.7158 133.508 63.1845 131.654 62.3934 129.456C61.8973 127.487 61.9843 125.416 62.644 123.496C62.6449 123.473 62.6392 123.45 62.6277 123.43C62.6162 123.409 62.5992 123.393 62.5788 123.382C62.5583 123.37 62.5352 123.365 62.5119 123.366C62.4887 123.368 62.4662 123.375 62.4471 123.389L62.3576 123.496Z" fill="#35208A"/>
<path d="M106.478 54.4457C106.521 54.2457 106.513 54.0384 106.457 53.8419C106.401 53.6453 106.298 53.4655 106.156 53.3181C105.975 53.057 105.699 52.8771 105.387 52.817C105.217 52.7984 105.045 52.8212 104.886 52.8836C104.727 52.9459 104.586 53.0459 104.474 53.1749C104.082 53.6968 103.841 54.3157 103.776 54.9647C103.847 54.4481 103.847 53.9242 103.776 53.4076C103.776 53.1749 103.776 52.9422 103.65 52.7096C103.622 52.5928 103.556 52.4888 103.462 52.4142C103.368 52.3395 103.252 52.2986 103.131 52.2979C102.893 52.2927 102.655 52.3353 102.433 52.4232C102.225 52.5102 102.05 52.6605 101.932 52.8528C101.628 53.3002 101.932 53.8729 102.237 54.213C102.445 54.4234 102.666 54.6206 102.899 54.8036C102.704 54.6961 102.501 54.6062 102.29 54.5352C101.887 54.346 101.427 54.314 101.002 54.4457C100.825 54.5091 100.67 54.6207 100.554 54.7678C100.464 54.9508 100.427 55.1554 100.447 55.3585C100.468 55.5388 100.545 55.7079 100.667 55.8425C100.789 55.9772 100.95 56.0707 101.127 56.1102C101.568 56.2178 102.033 56.1802 102.451 56.0028L102.827 55.8238C102.669 55.964 102.52 56.1134 102.38 56.2713C102.233 56.4486 102.095 56.6338 101.968 56.8261C101.831 56.9986 101.761 57.2147 101.771 57.4346C101.807 57.6441 101.897 57.8407 102.031 58.0054C102.166 58.1701 102.34 58.2973 102.538 58.3747C102.736 58.4521 102.951 58.4771 103.162 58.4472C103.372 58.4174 103.571 58.3337 103.74 58.2042C103.878 58.0369 103.975 57.8401 104.025 57.6291C104.075 57.4181 104.075 57.1984 104.026 56.9872C104.011 56.6917 103.969 56.3982 103.901 56.1102C103.932 56.1931 103.974 56.2714 104.026 56.3429C104.263 56.8947 104.706 57.3317 105.261 57.5599C106.12 57.8105 106.693 56.4681 106.138 55.8775C105.919 55.6811 105.664 55.5291 105.387 55.4301C105.042 55.2812 104.671 55.2021 104.295 55.1974L105.261 55.0005C105.762 54.9826 106.299 54.8931 106.478 54.4457Z" fill="white"/>
<path d="M92.678 62.0882C92.7144 61.8909 92.7042 61.6879 92.6483 61.4952C92.5924 61.3026 92.4922 61.1256 92.3559 60.9785C92.264 60.8473 92.1472 60.7354 92.0121 60.6494C91.8769 60.5634 91.7261 60.505 91.5683 60.4774C91.4003 60.4595 91.2303 60.4809 91.0719 60.5399C90.9135 60.599 90.771 60.6939 90.6555 60.8174C90.2856 61.3509 90.0464 61.9641 89.9575 62.6072C90.0201 62.0901 90.0201 61.5672 89.9575 61.0501C89.9575 60.8174 89.9575 60.5668 89.8322 60.3342C89.7974 60.2193 89.7262 60.1188 89.6294 60.0478C89.5326 59.9768 89.4154 59.9391 89.2953 59.9404C89.0619 59.9281 88.8289 59.971 88.6152 60.0657C88.4018 60.1516 88.2205 60.3017 88.0961 60.4953C87.9981 60.7268 87.9765 60.9835 88.0344 61.2281C88.0924 61.4728 88.2268 61.6926 88.4183 61.8555C88.6221 62.0652 88.8437 62.2568 89.0805 62.4282L88.472 62.1419C88.0559 61.99 87.5995 61.99 87.1833 62.1419C87.0009 62.1933 86.8425 62.3074 86.7359 62.464C86.6335 62.6365 86.5896 62.8373 86.6106 63.0368C86.6337 63.2185 86.7109 63.3891 86.8322 63.5263C86.9535 63.6636 87.1132 63.7612 87.2907 63.8064C87.7322 63.9153 88.1971 63.8776 88.6152 63.699L88.991 63.52C88.8388 63.6603 88.6954 63.8097 88.5615 63.9675C88.4075 64.1375 88.2641 64.3169 88.1319 64.5044C88.0029 64.6868 87.9398 64.9078 87.953 65.1308C87.9693 65.3492 88.0542 65.5568 88.1957 65.724C88.3371 65.8911 88.5278 66.0093 88.7405 66.0615C88.9327 66.1477 89.1453 66.1783 89.3541 66.1499C89.5629 66.1214 89.7596 66.035 89.9217 65.9004C90.0596 65.7331 90.1571 65.5363 90.2067 65.3253C90.2564 65.1143 90.2569 64.8946 90.2081 64.6834C90.1839 64.3888 90.1421 64.096 90.0828 63.8064L90.1902 64.0391C90.4371 64.5836 90.8771 65.0172 91.4252 65.2561C92.3022 65.5067 92.8749 64.1643 92.3022 63.5737C92.0953 63.3659 91.8446 63.2069 91.5683 63.1084C91.2155 62.9668 90.8389 62.894 90.4587 62.8936L91.4431 62.6967C91.9621 62.643 92.4811 62.643 92.678 62.0882Z" fill="white"/>
<path d="M76.3375 65.5782C76.3799 65.3783 76.3726 65.171 76.3165 64.9744C76.2603 64.7779 76.1569 64.5981 76.0153 64.4507C75.8279 64.196 75.5545 64.0179 75.2457 63.9495C75.0763 63.9353 74.9059 63.9602 74.7476 64.0222C74.5894 64.0843 74.4475 64.1819 74.3329 64.3075C73.9415 64.8293 73.7002 65.4482 73.6349 66.0973C73.7067 65.5807 73.7067 65.0567 73.6349 64.5402C73.6349 64.3075 73.6349 64.0748 73.5096 63.8421C73.4816 63.7254 73.4152 63.6214 73.3212 63.5467C73.2271 63.4721 73.1107 63.4312 72.9906 63.4305C72.7519 63.4253 72.5145 63.4679 72.2926 63.5558C72.0868 63.6549 71.9132 63.81 71.7914 64.0032C71.4871 64.4328 71.7914 65.0055 72.0957 65.3456C72.2945 65.5657 72.5165 65.7638 72.7579 65.9362C72.564 65.8228 72.3603 65.727 72.1494 65.6498C71.7347 65.4898 71.2754 65.4898 70.8607 65.6498C70.6808 65.7063 70.5239 65.8193 70.4133 65.972C70.3235 66.1487 70.2863 66.3475 70.3059 66.5447C70.3249 66.726 70.401 66.8965 70.5233 67.0316C70.6455 67.1667 70.8076 67.2595 70.986 67.2964C71.426 67.4215 71.8964 67.3833 72.3105 67.1891L72.6863 67.0101C72.5282 67.1563 72.3788 67.3117 72.2389 67.4754C72.0876 67.6432 71.9499 67.8227 71.8272 68.0124C71.6957 68.1876 71.6264 68.4018 71.6303 68.6209C71.6531 68.8392 71.7401 69.0458 71.8802 69.2146C72.0204 69.3835 72.2075 69.507 72.4178 69.5695C72.6108 69.6577 72.8253 69.6877 73.0351 69.6559C73.2449 69.6241 73.4409 69.5319 73.5991 69.3905C73.7367 69.2266 73.8342 69.0329 73.8839 68.8247C73.9336 68.6166 73.9341 68.3997 73.8855 68.1913C73.8714 67.8957 73.8294 67.6021 73.7602 67.3143L73.8855 67.547C74.1224 68.0943 74.5664 68.5255 75.1204 68.7462C75.9795 69.0147 76.5523 67.6544 75.9974 67.0817C75.7839 66.8735 75.5273 66.7146 75.2457 66.6163C74.8981 66.4758 74.5286 66.3971 74.1539 66.3837L75.1741 66.2226C75.6216 66.1152 76.1585 66.0257 76.3375 65.5782Z" fill="white"/>
<path d="M61.4092 65.2024C61.45 65.0052 61.442 64.8009 61.3859 64.6075C61.3297 64.4141 61.2271 64.2374 61.087 64.0927C60.9058 63.8315 60.6295 63.6517 60.3174 63.5915C60.1493 63.5737 59.9794 63.5951 59.821 63.6541C59.6626 63.7132 59.52 63.8081 59.4046 63.9316C59.0277 64.4614 58.7879 65.0763 58.7066 65.7214C58.7782 65.2048 58.7782 64.6809 58.7066 64.1643C58.7066 63.9316 58.7066 63.681 58.5813 63.4484C58.5527 63.3333 58.4857 63.2315 58.3913 63.1599C58.2968 63.0883 58.1807 63.0511 58.0623 63.0546C57.823 63.0421 57.5842 63.085 57.3642 63.1799C57.1562 63.2669 56.9809 63.4172 56.8631 63.6094C56.5588 64.0569 56.8631 64.6117 57.1674 64.9697C57.3712 65.1794 57.5927 65.371 57.8296 65.5424L57.2748 65.3634C56.8601 65.2034 56.4007 65.2034 55.9861 65.3634C55.8089 65.4158 55.6564 65.5301 55.5565 65.6856C55.48 65.8535 55.4551 66.0404 55.485 66.2226C55.503 66.406 55.5785 66.5792 55.7006 66.7173C55.8227 66.8555 55.9852 66.9517 56.1651 66.9922C56.6066 67.0998 57.0711 67.0621 57.4895 66.8848L57.8654 66.7058C57.7076 66.846 57.5582 66.9954 57.4179 67.1532L57.0063 67.6902C56.8722 67.871 56.8028 68.0916 56.8094 68.3166C56.8355 68.5317 56.924 68.7344 57.0639 68.8998C57.2038 69.0652 57.3891 69.186 57.5969 69.2473C57.7923 69.333 58.0076 69.3633 58.2191 69.3349C58.4306 69.3065 58.6302 69.2205 58.7961 69.0862C58.9326 68.9113 59.0278 68.7077 59.0743 68.4906C59.1208 68.2736 59.1174 68.0489 59.0645 67.8334C59.0491 67.5379 59.0072 67.2444 58.9393 66.9564C58.974 67.0375 59.016 67.1154 59.0645 67.189C59.3009 67.7409 59.7443 68.1779 60.2995 68.4061C61.1586 68.6567 61.7313 67.3143 61.1765 66.7237C60.963 66.5155 60.7064 66.3567 60.4248 66.2583C60.0787 66.1152 59.7076 66.0422 59.333 66.0436L60.2995 65.8467C60.6933 65.7572 61.2302 65.6677 61.4092 65.2024Z" fill="white"/>
<path d="M48.8799 56.8261C48.9207 56.6289 48.9127 56.4247 48.8566 56.2313C48.8004 56.0378 48.6978 55.8611 48.5577 55.7164C48.4709 55.5843 48.3578 55.4716 48.2253 55.3853C48.0929 55.2991 47.944 55.2412 47.7881 55.2153C47.62 55.1974 47.4501 55.2189 47.2917 55.2779C47.1333 55.3369 46.9907 55.4319 46.8753 55.5553C46.4984 56.0852 46.2586 56.7001 46.1773 57.3451C46.2488 56.8286 46.2488 56.3046 46.1773 55.788C46.159 55.5471 46.1231 55.3078 46.0699 55.0721C46.035 54.9572 45.9639 54.8567 45.867 54.7857C45.7702 54.7147 45.653 54.677 45.5329 54.6783C45.2995 54.666 45.0665 54.7089 44.8528 54.8036C44.6395 54.8896 44.4581 55.0397 44.3338 55.2332C44.0295 55.6806 44.3338 56.2355 44.638 56.5934C44.9423 56.9514 45.0676 56.9872 45.3003 57.1841H45.3898L44.7454 56.9872C44.3278 56.844 43.8744 56.844 43.4568 56.9872C43.2722 57.034 43.1123 57.1492 43.0093 57.3093C42.907 57.4818 42.863 57.6827 42.884 57.8821C42.9021 58.0656 42.9776 58.2387 43.0997 58.3769C43.2218 58.515 43.3843 58.6112 43.5642 58.6517C44.0057 58.7593 44.4702 58.7217 44.8886 58.5443L45.2645 58.3653L44.817 58.8128L44.4054 59.3497C44.3059 59.4841 44.2417 59.6413 44.2185 59.8069C44.1953 59.9724 44.214 60.1412 44.2727 60.2977C44.3314 60.4543 44.4283 60.5937 44.5546 60.7032C44.681 60.8127 44.8327 60.8888 44.996 60.9247C45.1938 61.0041 45.4091 61.0294 45.6199 60.998C45.8306 60.9665 46.0292 60.8794 46.1952 60.7458C46.3285 60.5759 46.4232 60.379 46.4726 60.1688C46.5221 59.9586 46.5251 59.7402 46.4815 59.5287C46.4815 59.2423 46.4815 58.9381 46.3562 58.6517L46.4636 58.8844C46.7105 59.4289 47.1505 59.8625 47.6986 60.1014C48.5577 60.352 49.1304 59.0096 48.5756 58.419C48.3656 58.2151 48.1158 58.0567 47.8418 57.9537C47.4889 57.8122 47.1123 57.7393 46.7321 57.7389L47.7165 57.542C48.1639 57.3809 48.7009 57.2735 48.8799 56.8261Z" fill="white"/>
<path d="M119.92 44.745C119.964 44.5479 119.958 44.3428 119.901 44.1488C119.845 43.9548 119.741 43.7782 119.598 43.6354C119.511 43.5033 119.398 43.3905 119.265 43.3043C119.133 43.218 118.984 43.1601 118.828 43.1342C118.66 43.1164 118.49 43.1378 118.332 43.1968C118.173 43.2558 118.031 43.3508 117.915 43.4743C117.538 44.0041 117.299 44.619 117.217 45.2641C117.289 44.7475 117.289 44.2235 117.217 43.707C117.199 43.466 117.163 43.2267 117.11 42.991C117.075 42.8761 117.004 42.7757 116.907 42.7047C116.81 42.6337 116.693 42.596 116.573 42.5973C116.34 42.585 116.107 42.6279 115.893 42.7226C115.68 42.8085 115.498 42.9586 115.374 43.1521C115.276 43.3823 115.253 43.6371 115.308 43.881C115.363 44.1249 115.492 44.3456 115.678 44.5124C115.893 44.7271 116.108 44.9061 116.34 45.103L115.732 44.8166C115.354 44.6733 114.942 44.6484 114.551 44.745C114.368 44.7964 114.21 44.9105 114.103 45.0672C114.001 45.2396 113.957 45.4405 113.978 45.6399C113.998 45.8225 114.075 45.9943 114.196 46.132C114.318 46.2697 114.479 46.3666 114.658 46.4096C115.099 46.5185 115.564 46.4808 115.982 46.3022L116.358 46.1232C116.2 46.2634 116.051 46.4128 115.911 46.5706L115.499 47.1076C115.37 47.29 115.307 47.5109 115.32 47.734C115.338 47.9492 115.421 48.1538 115.559 48.3202C115.696 48.4866 115.882 48.6069 116.09 48.6647C116.285 48.7504 116.5 48.7807 116.712 48.7523C116.923 48.7239 117.123 48.6379 117.289 48.5036C117.422 48.3338 117.517 48.1369 117.566 47.9267C117.616 47.7165 117.619 47.498 117.575 47.2866C117.575 47.0002 117.575 46.6959 117.45 46.4096L117.557 46.6422C117.804 47.1867 118.244 47.6204 118.792 47.8593C119.651 48.1099 120.242 46.7675 119.669 46.1769C119.462 45.969 119.212 45.8101 118.936 45.7115C118.583 45.57 118.206 45.4971 117.826 45.4968L118.81 45.2999C119.168 45.2283 119.687 45.1388 119.92 44.745Z" fill="white"/>
<path d="M114.551 50.1144C114.605 49.6056 114.479 49.0939 114.194 48.6686C113.909 48.2434 113.484 47.9316 112.993 47.7877C112.751 47.7711 112.507 47.8091 112.281 47.899C112.055 47.9888 111.852 48.1281 111.687 48.3067C111.146 49.0703 110.802 49.9556 110.685 50.884C110.783 50.1475 110.783 49.4012 110.685 48.6647C110.649 48.3267 110.59 47.9917 110.506 47.6624C110.462 47.4969 110.364 47.3508 110.228 47.247C110.092 47.1433 109.925 47.0879 109.754 47.0896C109.422 47.0775 109.092 47.1386 108.787 47.2686C108.483 47.3945 108.226 47.6138 108.054 47.8951C107.624 48.5215 108.054 49.3269 108.483 49.8101C108.778 50.1141 109.095 50.3953 109.432 50.6513H109.557C109.275 50.4979 108.982 50.3663 108.68 50.2576C108.115 50.0118 107.483 49.9676 106.89 50.1323C106.629 50.2109 106.402 50.3748 106.246 50.5976C106.107 50.8487 106.045 51.1349 106.067 51.421C106.096 51.6812 106.207 51.9255 106.384 52.1185C106.561 52.3115 106.795 52.4433 107.051 52.4948C107.648 52.6428 108.276 52.5925 108.841 52.3517L109.378 52.1011C109.152 52.298 108.942 52.5135 108.752 52.7454C108.53 52.9817 108.332 53.2395 108.161 53.515C107.971 53.7678 107.871 54.0761 107.875 54.392C107.911 54.7015 108.037 54.9937 108.237 55.2323C108.437 55.4709 108.703 55.6454 109.002 55.7344C109.292 55.874 109.616 55.9247 109.935 55.8801C110.253 55.8355 110.552 55.6976 110.792 55.4838C110.994 55.2375 111.135 54.9471 111.203 54.6361C111.272 54.325 111.266 54.0023 111.186 53.694C111.154 53.2729 111.094 52.8544 111.007 52.4411L111.168 52.7633C111.51 53.569 112.152 54.2106 112.958 54.5531C114.193 54.929 115.016 52.996 114.21 52.1548C113.909 51.8665 113.549 51.6468 113.154 51.5104C112.654 51.3061 112.12 51.1969 111.579 51.1883L112.975 50.9198C113.602 50.8482 114.354 50.7229 114.551 50.1144Z" fill="white"/>
<path d="M85.9131 63.3589C85.9699 63.0755 85.9572 62.7826 85.8762 62.5052C85.7952 62.2278 85.6482 61.9742 85.4478 61.766C85.3214 61.5772 85.1578 61.4164 84.967 61.2932C84.7761 61.1701 84.5621 61.0874 84.3381 61.05C84.099 61.0258 83.8575 61.0587 83.6335 61.1458C83.4095 61.2329 83.2094 61.3718 83.0494 61.5512C82.4975 62.3156 82.1523 63.2095 82.0471 64.1464C82.1367 63.4093 82.1367 62.6641 82.0471 61.927C82.0049 61.5842 81.9451 61.2436 81.8682 60.9069C81.8244 60.7414 81.7267 60.5952 81.5906 60.4915C81.4544 60.3878 81.2876 60.3324 81.1164 60.3341C80.7798 60.3294 80.4455 60.3902 80.1321 60.5131C79.8333 60.6411 79.5826 60.8604 79.4161 61.1395C78.9866 61.766 79.4161 62.5714 79.8457 63.0725C80.1411 63.3701 80.4581 63.6453 80.7943 63.8958H80.9017C80.6178 63.7465 80.3249 63.615 80.0247 63.5021C79.4583 63.2608 78.826 63.2228 78.2349 63.3947C77.9837 63.4733 77.7642 63.63 77.6084 63.8421C77.4715 64.0939 77.4094 64.3796 77.4295 64.6654C77.459 64.9246 77.5676 65.1684 77.7405 65.3637C77.9134 65.5591 78.1423 65.6964 78.396 65.7572C79.0224 65.9202 79.6857 65.8633 80.2752 65.5961C80.4606 65.5269 80.6401 65.4431 80.8122 65.3456C80.5901 65.547 80.3809 65.7622 80.1857 65.9899C79.9734 66.2342 79.7762 66.4912 79.5951 66.7595C79.4107 67.0139 79.3162 67.3225 79.3266 67.6365C79.3544 67.9461 79.4753 68.2401 79.6734 68.4797C79.8714 68.7193 80.1374 68.8933 80.4363 68.9788C80.7261 69.1185 81.0507 69.1692 81.3692 69.1246C81.6877 69.08 81.9859 68.9421 82.2261 68.7283C82.4311 68.4836 82.5753 68.1939 82.6468 67.8828C82.7184 67.5717 82.7153 67.2481 82.6378 66.9385C82.6045 66.5175 82.5447 66.0991 82.4588 65.6856C82.494 65.8069 82.5484 65.9217 82.6199 66.0257C82.7828 66.4289 83.0252 66.7951 83.3327 67.1026C83.6402 67.4101 84.0065 67.6525 84.4097 67.8155C85.6446 68.1913 86.4679 66.2763 85.6625 65.4351C85.3591 65.145 84.9998 64.9197 84.6066 64.7728C84.1036 64.5769 83.571 64.468 83.0315 64.4507C83.4969 64.3791 83.9622 64.2896 84.4276 64.1822C84.8929 64.1285 85.6446 64.0032 85.9131 63.3589Z" fill="white"/>
<path d="M70.1625 64.7908C70.2193 64.5074 70.2066 64.2145 70.1256 63.9371C70.0445 63.6597 69.8975 63.4061 69.6971 63.1979C69.5708 63.0091 69.4072 62.8483 69.2163 62.7251C69.0255 62.602 68.8115 62.5193 68.5875 62.4819C68.3483 62.4577 68.1069 62.4905 67.8829 62.5777C67.6589 62.6648 67.4587 62.8037 67.2988 62.9831C66.7198 63.7325 66.3493 64.6216 66.2249 65.5604C66.3233 64.8299 66.3233 64.0895 66.2249 63.3589C66.1887 63.0163 66.135 62.6758 66.0638 62.3388C66.0174 62.1748 65.919 62.0304 65.7834 61.9271C65.6479 61.8238 65.4825 61.7673 65.3121 61.766C64.9748 61.7524 64.6387 61.8135 64.3277 61.945C64.0289 62.073 63.7783 62.2923 63.6118 62.5714C63.1823 63.1979 63.6118 64.0033 64.0414 64.4865C64.3321 64.7944 64.6495 65.0759 64.99 65.3277H65.0973C64.8135 65.1784 64.5206 65.0469 64.2203 64.934C63.6558 64.6851 63.0208 64.647 62.4306 64.8266C62.1729 64.8916 61.9492 65.0514 61.8041 65.274C61.6564 65.5217 61.5936 65.8107 61.6251 66.0973C61.6531 66.3551 61.7615 66.5976 61.935 66.7903C62.1084 66.9831 62.3382 67.1163 62.5916 67.1712C63.1879 67.3192 63.8162 67.2689 64.3814 67.028C64.5668 66.9588 64.7463 66.875 64.9184 66.7775C64.6963 66.9789 64.487 67.1941 64.2919 67.4218C64.0755 67.6627 63.878 67.92 63.7013 68.1914C63.5169 68.4458 63.4224 68.7544 63.4328 69.0684C63.4653 69.3765 63.5879 69.6681 63.7853 69.9069C63.9826 70.1457 64.246 70.3209 64.5425 70.4107C64.8211 70.5317 65.128 70.5723 65.4284 70.528C65.7289 70.4837 66.0109 70.3563 66.2428 70.1602C66.4429 69.9127 66.584 69.6229 66.6553 69.3128C66.7267 69.0027 66.7264 68.6804 66.6545 68.3704C66.6239 67.948 66.5581 67.5289 66.4576 67.1175C66.5102 67.2344 66.57 67.348 66.6366 67.4576C66.8021 67.8592 67.0455 68.2241 67.3527 68.5313C67.6598 68.8385 68.0247 69.0818 68.4264 69.2474C69.6613 69.6232 70.4667 67.6903 69.6792 66.849C69.3703 66.5705 69.0122 66.352 68.6233 66.2047C68.1203 66.0088 67.5877 65.8999 67.0482 65.8826C67.5136 65.811 67.9789 65.7215 68.4443 65.6141C69.1423 65.5604 69.894 65.4351 70.1625 64.7908Z" fill="white"/>
<path d="M56.3249 60.352C56.384 60.0701 56.3742 59.7781 56.2963 59.5008C56.2184 59.2235 56.0747 58.969 55.8774 58.7591C55.6123 58.3878 55.2154 58.1317 54.7678 58.0432C54.5261 58.0204 54.2824 58.0538 54.0558 58.1407C53.8291 58.2276 53.6257 58.3658 53.4612 58.5443C52.915 59.3102 52.5759 60.2041 52.4768 61.1396C52.5753 60.403 52.5753 59.6567 52.4768 58.9202C52.4449 58.5818 52.385 58.2465 52.2978 57.9179C52.2611 57.7506 52.1684 57.6008 52.0349 57.4934C51.9015 57.386 51.7353 57.3274 51.564 57.3273C51.2274 57.3225 50.8931 57.3833 50.5796 57.5063C50.2786 57.6381 50.0232 57.856 49.8458 58.1327C49.4163 58.7591 49.8458 59.5645 50.2933 60.0657C50.5865 60.3588 50.8973 60.6337 51.224 60.889H51.3493C51.0654 60.7396 50.7725 60.6081 50.4723 60.4952C49.9059 60.2539 49.2736 60.216 48.6825 60.3878C48.4264 60.4664 48.2012 60.6228 48.0381 60.8353C47.9012 61.0871 47.8391 61.3727 47.8591 61.6586C47.8924 61.9192 48.0045 62.1635 48.1804 62.3586C48.3563 62.5538 48.5877 62.6905 48.8435 62.7504C49.4529 62.9205 50.1015 62.8827 50.687 62.643L51.224 62.3924C51.0019 62.5939 50.7926 62.8091 50.5975 63.0367C50.3852 63.2811 50.188 63.5381 50.0069 63.8064C49.8173 64.0591 49.7166 64.3674 49.7205 64.6834C49.7543 64.9937 49.8795 65.2869 50.0803 65.5259C50.2811 65.7649 50.5483 65.9389 50.8481 66.0257C51.1267 66.1466 51.4336 66.1872 51.734 66.1429C52.0345 66.0987 52.3165 65.9713 52.5484 65.7751C52.7516 65.5296 52.8933 65.2391 52.9618 64.9279C53.0303 64.6166 53.0235 64.2935 52.9422 63.9853C52.9089 63.5644 52.8491 63.1459 52.7632 62.7325L52.9243 63.0725C53.2636 63.8804 53.9062 64.523 54.7141 64.8623C55.949 65.2382 56.7723 63.3231 55.9848 62.4819C55.6785 62.1956 55.32 61.9708 54.9289 61.8197C54.4259 61.6238 53.8933 61.5148 53.3538 61.4975C53.8192 61.4259 54.2845 61.3364 54.7499 61.229C55.3047 61.1217 56.0564 60.9964 56.3249 60.352Z" fill="white"/>
<path d="M100.48 57.6137C100.54 57.1013 100.414 56.5842 100.125 56.157C99.8361 55.7298 99.4027 55.4209 98.9045 55.2869C98.6645 55.2705 98.4238 55.3087 98.2006 55.3985C97.9774 55.4884 97.7775 55.6277 97.6159 55.806C97.0803 56.5691 96.7477 57.4561 96.6494 58.3833C96.7389 57.6462 96.7389 56.901 96.6494 56.1639C96.6088 55.8267 96.549 55.4921 96.4704 55.1616C96.4266 54.9962 96.3289 54.85 96.1928 54.7463C96.0567 54.6426 95.8898 54.5872 95.7187 54.5889C95.3814 54.5753 95.0452 54.6364 94.7343 54.7679C94.4368 54.889 94.1859 55.1023 94.0184 55.3764C93.8743 55.6949 93.8365 56.0514 93.9107 56.393C93.9848 56.7347 94.1669 57.0434 94.43 57.2736C94.7207 57.5815 95.0382 57.863 95.3786 58.1148H95.486C95.2103 57.9615 94.923 57.8299 94.6269 57.721C94.0613 57.4795 93.4309 57.4353 92.8371 57.5958C92.581 57.6741 92.3597 57.8385 92.2107 58.0611C92.0718 58.3121 92.0096 58.5984 92.0317 58.8844C92.0597 59.1422 92.1681 59.3847 92.3415 59.5774C92.515 59.7702 92.7447 59.9034 92.9982 59.9583C93.5945 60.1063 94.2228 60.056 94.788 59.8151C94.9733 59.7459 95.1529 59.6621 95.3249 59.5645C95.1028 59.766 94.8936 59.9812 94.6985 60.2089C94.482 60.4497 94.2846 60.7071 94.1079 60.9785C93.9234 61.2329 93.829 61.5414 93.8394 61.8555C93.8719 62.1636 93.9944 62.4552 94.1918 62.694C94.3892 62.9327 94.6526 63.108 94.9491 63.1978C95.2388 63.3374 95.5634 63.3881 95.8819 63.3436C96.2004 63.299 96.4986 63.1611 96.7389 62.9472C96.9426 62.7019 97.086 62.4121 97.1575 62.1013C97.2289 61.7905 97.2266 61.4672 97.1505 61.1575C97.1185 60.7363 97.0587 60.3178 96.9715 59.9046C97.0107 60.0187 97.0649 60.127 97.1326 60.2268C97.4703 61.0357 98.1134 61.6789 98.9224 62.0166C100.157 62.3745 100.981 60.4594 100.175 59.6182C99.8708 59.3338 99.5115 59.1146 99.1193 58.9739C98.6189 58.7696 98.0847 58.6603 97.5443 58.6517L98.9403 58.3833C99.4594 58.3833 100.229 58.258 100.48 57.6137Z" fill="white"/>
<path d="M160.635 49.8818C160.651 49.8482 160.659 49.8115 160.659 49.7744C160.659 49.7372 160.651 49.7005 160.635 49.667C160.098 48.6647 158.165 48.4678 157.198 48.2709C155.623 47.9667 154.013 47.7698 152.42 47.555L151.65 47.4476C151.543 47.4476 151.346 47.3581 151.364 47.4476C151.162 47.0967 151 46.7245 150.88 46.338C150.236 44.7987 149.592 43.2595 148.912 41.7203C148.572 40.9328 148.232 40.1632 147.856 39.3935C147.641 38.9282 147.372 38.0333 146.853 37.8006C145.69 37.2995 144.867 40.1811 144.562 40.8612C143.811 42.5257 143.131 44.2081 142.397 45.8726C142.254 46.2306 142.003 47.2329 141.681 47.4655C141.178 47.5443 140.668 47.5742 140.16 47.555L138.048 47.734C136.838 47.8005 135.638 47.9924 134.468 48.3067C133.77 48.5036 132.517 48.8437 132.678 49.8281C132.839 50.8125 133.985 51.3852 134.468 51.8147C135.415 52.5682 136.42 53.2445 137.475 53.8372C137.94 54.1236 138.549 54.3205 138.978 54.6426C139.408 54.9648 139.283 55.5196 139.121 56.0924C138.799 57.3094 138.477 58.5265 138.173 59.672C137.869 60.8174 137.708 61.6586 137.546 62.6788C137.358 63.3642 137.358 64.0875 137.546 64.7729C138.28 66.33 141.126 63.6095 141.752 63.0905C142.379 62.5714 143.435 61.7481 144.258 61.0501L145.439 60.012C145.654 59.8151 146.209 59.0455 146.495 58.9918C146.782 58.9381 148.178 60.4058 148.554 60.7816C149.395 61.5154 150.344 62.1956 151.131 62.8936C152.259 64.025 153.677 64.8239 155.23 65.2024C156.608 65.3277 155.946 63.2336 155.767 62.4103C155.337 60.4416 154.693 58.5265 154.102 56.5935C153.977 56.1818 153.816 55.7523 153.726 55.3406C153.637 54.929 153.726 54.9111 154.048 54.6605C154.8 54.2131 155.731 53.9267 156.536 53.515C157.807 52.8707 160.384 51.7252 160.742 50.0965C160.741 50.0551 160.731 50.0144 160.712 49.9773C160.694 49.9403 160.667 49.9077 160.635 49.8818Z" fill="#F7B9E7"/>
<path d="M46.9654 131.711C44.7818 131.532 42.5804 131.55 40.3789 131.568L42.1687 129.778C43.2179 128.884 44.1233 127.834 44.8534 126.664C44.9225 126.549 44.9513 126.414 44.9355 126.28C44.9197 126.147 44.8601 126.022 44.7661 125.926C44.6721 125.83 44.5488 125.768 44.4157 125.749C44.2826 125.73 44.147 125.756 44.0301 125.823C42.8396 126.539 41.7653 127.432 40.8443 128.472L38.9471 130.262V127.595C39.0537 126.215 38.9512 124.827 38.6428 123.478C38.588 123.386 38.5098 123.31 38.4162 123.258C38.3226 123.206 38.2168 123.179 38.1097 123.181C38.0025 123.183 37.8977 123.213 37.8059 123.268C37.7141 123.324 37.6385 123.402 37.5869 123.496C37.249 124.841 37.1163 126.229 37.1931 127.613C37.1931 128.49 37.1931 129.402 37.1931 130.279L35.4033 128.364C34.5024 127.315 33.4461 126.409 32.2712 125.68C32.1561 125.618 32.0243 125.596 31.8952 125.615C31.7662 125.634 31.6467 125.694 31.5545 125.786C31.4622 125.879 31.4021 125.998 31.3829 126.127C31.3637 126.256 31.3865 126.388 31.4479 126.503C32.1367 127.682 32.9996 128.75 34.0073 129.671L35.7971 131.568H33.1124C31.7327 131.463 30.345 131.565 28.9958 131.872C28.8737 131.916 28.7679 131.996 28.6931 132.101C28.6183 132.207 28.5781 132.333 28.5781 132.463C28.5781 132.593 28.6183 132.719 28.6931 132.825C28.7679 132.931 28.8737 133.01 28.9958 133.054C30.3429 133.376 31.7293 133.503 33.1124 133.43H35.7255C34.0945 134.911 32.5412 136.476 31.072 138.119C30.9886 138.202 30.9224 138.301 30.8772 138.41C30.8321 138.519 30.8088 138.636 30.8088 138.754C30.8088 138.872 30.8321 138.989 30.8772 139.098C30.9224 139.207 30.9886 139.306 31.072 139.39C31.1554 139.473 31.2545 139.539 31.3635 139.584C31.4725 139.629 31.5894 139.653 31.7074 139.653C31.8254 139.653 31.9422 139.629 32.0512 139.584C32.1603 139.539 32.2593 139.473 32.3428 139.39C34.0073 137.994 35.5286 136.436 37.0499 134.879C37.0499 137.063 36.9246 139.264 37.0499 141.412C37.0915 141.619 37.2033 141.805 37.3665 141.938C37.5296 142.072 37.734 142.145 37.9448 142.145C38.1557 142.145 38.3601 142.072 38.5232 141.938C38.6863 141.805 38.7982 141.619 38.8397 141.412C39.0187 139.264 39.0008 137.081 38.9829 134.897C40.4555 136.548 42.0148 138.119 43.6543 139.604C43.8228 139.773 44.0513 139.868 44.2897 139.868C44.528 139.868 44.7565 139.773 44.925 139.604C45.0935 139.436 45.1882 139.207 45.1882 138.969C45.1882 138.731 45.0935 138.502 44.925 138.334C43.505 136.687 41.9995 135.115 40.4147 133.626C42.5983 133.626 44.7997 133.752 46.9654 133.626C47.0912 133.626 47.2157 133.602 47.3318 133.554C47.448 133.505 47.5536 133.435 47.6425 133.346C47.7314 133.257 47.8019 133.151 47.8501 133.035C47.8982 132.919 47.9229 132.795 47.9229 132.669C47.9229 132.543 47.8982 132.419 47.8501 132.302C47.8019 132.186 47.7314 132.081 47.6425 131.992C47.5536 131.903 47.448 131.832 47.3318 131.784C47.2157 131.736 47.0912 131.711 46.9654 131.711Z" fill="white"/>
<path d="M66.727 17.2C67.2282 17.1527 67.6938 16.9201 68.0327 16.5478C68.3716 16.1754 68.5594 15.69 68.5594 15.1865C68.5594 14.683 68.3716 14.1976 68.0327 13.8252C67.6938 13.4529 67.2282 13.2203 66.727 13.173C66.2257 13.2203 65.7601 13.4529 65.4212 13.8252C65.0823 14.1976 64.8945 14.683 64.8945 15.1865C64.8945 15.69 65.0823 16.1754 65.4212 16.5478C65.7601 16.9201 66.2257 17.1527 66.727 17.2Z" fill="white"/>
<path d="M91.461 22.9452L91.8368 22.7662C92.0737 22.6205 92.2693 22.4164 92.405 22.1736C92.5407 21.9308 92.6119 21.6573 92.6119 21.3792C92.6119 21.101 92.5407 20.8275 92.405 20.5847C92.2693 20.3419 92.0737 20.1378 91.8368 19.9921L91.461 19.8131C91.1885 19.6623 90.8814 19.5853 90.57 19.5895C90.2586 19.5938 89.9538 19.6792 89.6855 19.8374C89.4172 19.9955 89.1949 20.2209 89.0404 20.4913C88.8859 20.7617 88.8047 21.0677 88.8047 21.3792C88.8047 21.6906 88.8859 21.9966 89.0404 22.267C89.1949 22.5374 89.4172 22.7628 89.6855 22.9209C89.9538 23.0791 90.2586 23.1645 90.57 23.1688C90.8814 23.173 91.1885 23.096 91.461 22.9452Z" fill="white"/>
<path d="M122.424 22.2293L122.639 22.5694C122.859 22.8737 123.155 23.1145 123.498 23.2674C123.827 23.4433 124.202 23.5121 124.572 23.4643C124.938 23.4365 125.281 23.2776 125.538 23.0168C125.736 22.8012 125.882 22.5445 125.968 22.2651C126.082 21.825 126.025 21.3578 125.807 20.9586C125.65 20.6078 125.395 20.3096 125.073 20.0995L124.733 19.8847C124.411 19.6912 124.034 19.6109 123.661 19.6565C123.289 19.7022 122.942 19.8713 122.676 20.1368C122.411 20.4023 122.242 20.749 122.196 21.1218C122.15 21.4945 122.231 21.8717 122.424 22.1935V22.2293Z" fill="white"/>
<path d="M149.753 85.6777L150.129 85.5166C150.445 85.3385 150.707 85.078 150.887 84.7628C151.066 84.4476 151.157 84.0895 151.149 83.7268C151.159 83.3637 151.069 83.0049 150.889 82.6893C150.709 82.3738 150.446 82.1136 150.129 81.937L149.753 81.758C149.411 81.5577 149.022 81.4527 148.626 81.4537C148.23 81.4569 147.842 81.5616 147.498 81.758C147.166 81.96 146.891 82.2437 146.7 82.5822C146.509 82.9206 146.408 83.3023 146.406 83.691C146.409 84.077 146.511 84.4557 146.702 84.791C146.893 85.1263 147.167 85.407 147.498 85.6061C147.817 85.7981 148.181 85.903 148.554 85.9103C148.951 85.9199 149.343 85.8142 149.682 85.6061L149.753 85.6777Z" fill="white"/>
<path d="M161.083 120.579C161.598 120.531 162.076 120.292 162.425 119.91C162.773 119.528 162.966 119.029 162.966 118.512C162.966 117.994 162.773 117.496 162.425 117.113C162.076 116.731 161.598 116.492 161.083 116.444C160.568 116.492 160.089 116.731 159.741 117.113C159.392 117.496 159.199 117.994 159.199 118.512C159.199 119.029 159.392 119.528 159.741 119.91C160.089 120.292 160.568 120.531 161.083 120.579Z" fill="white"/>
<path d="M141.682 148.267C142.246 148.266 142.787 148.04 143.185 147.641C143.464 147.34 143.651 146.966 143.722 146.562C143.794 146.159 143.748 145.743 143.589 145.365C143.43 144.987 143.166 144.663 142.828 144.432C142.489 144.201 142.091 144.072 141.682 144.061C141.137 144.079 140.619 144.303 140.233 144.689C139.848 145.074 139.623 145.592 139.605 146.137C139.615 146.699 139.842 147.235 140.239 147.633C140.637 148.03 141.173 148.258 141.735 148.267H141.682Z" fill="white"/>
<path d="M88.8482 169.673C89.0979 169.414 89.3144 169.126 89.4925 168.814C89.7606 168.388 89.876 167.884 89.8199 167.384C89.7638 166.884 89.5395 166.418 89.1837 166.062C88.828 165.706 88.3619 165.482 87.8619 165.426C87.3619 165.37 86.8577 165.485 86.432 165.753C86.1199 165.931 85.8313 166.148 85.5729 166.398C85.3578 166.613 85.1872 166.868 85.0708 167.149C84.9544 167.43 84.8945 167.731 84.8945 168.035C84.8945 168.339 84.9544 168.641 85.0708 168.921C85.1872 169.202 85.3578 169.458 85.5729 169.673C85.7879 169.888 86.0432 170.059 86.3242 170.175C86.6052 170.291 86.9064 170.351 87.2105 170.351C87.5147 170.351 87.8158 170.291 88.0968 170.175C88.3778 170.059 88.6331 169.888 88.8482 169.673Z" fill="white"/>
<path d="M53.3901 150.343C53.7617 150.355 54.1305 150.275 54.4637 150.11C54.7969 149.945 55.0842 149.7 55.2999 149.397C55.5156 149.095 55.6531 148.743 55.7001 148.374C55.7471 148.006 55.7022 147.631 55.5694 147.283C55.4366 146.936 55.2199 146.627 54.9388 146.384C54.6576 146.141 54.3207 145.971 53.9579 145.889C53.5952 145.807 53.2179 145.817 52.8596 145.916C52.5014 146.016 52.1733 146.202 51.9045 146.459C51.4857 146.877 51.2479 147.443 51.2423 148.034C51.2366 148.621 51.4561 149.187 51.8557 149.617C52.2553 150.047 52.8045 150.306 53.3901 150.343Z" fill="white"/>
<path d="M17.6482 114.046L18.2568 114.135L18.7937 114.35C18.4445 114.152 18.0499 114.047 17.6482 114.046C17.2394 114.053 16.8391 114.164 16.4849 114.368C16.1833 114.552 15.9274 114.801 15.7366 115.098C15.5458 115.395 15.425 115.731 15.3834 116.082C15.3418 116.432 15.3805 116.788 15.4966 117.121C15.6126 117.454 15.803 117.757 16.0533 118.006C16.3036 118.255 16.6072 118.443 16.9412 118.558C17.2751 118.672 17.6307 118.709 17.981 118.665C18.3312 118.621 18.667 118.499 18.9629 118.306C19.2587 118.114 19.5069 117.857 19.6886 117.554C19.9092 117.198 20.0304 116.79 20.0396 116.371C20.0489 115.952 19.9459 115.539 19.7413 115.173C19.5367 114.808 19.238 114.504 18.8762 114.293C18.5144 114.082 18.1028 113.972 17.684 113.974L17.6482 114.046Z" fill="white"/>
<path d="M35.2967 89.6689C35.8209 89.6205 36.3082 89.378 36.663 88.989C37.0177 88.5999 37.2144 88.0924 37.2144 87.5659C37.2144 87.0394 37.0177 86.5319 36.663 86.1428C36.3082 85.7538 35.8209 85.5113 35.2967 85.4629C34.7724 85.5113 34.2851 85.7538 33.9303 86.1428C33.5756 86.5319 33.3789 87.0394 33.3789 87.5659C33.3789 88.0924 33.5756 88.5999 33.9303 88.989C34.2851 89.378 34.7724 89.6205 35.2967 89.6689Z" fill="white"/>
<path d="M16.1114 61.9091C16.5041 61.8091 16.8627 61.605 17.1493 61.3184C17.4359 61.0318 17.64 60.6732 17.7401 60.2804C17.8435 59.8883 17.8435 59.476 17.74 59.0839C17.6364 58.6917 17.433 58.3332 17.1494 58.0432C16.8636 57.7534 16.5051 57.5458 16.1116 57.4419C15.718 57.338 15.3038 57.3417 14.9122 57.4525C14.5245 57.5622 14.1726 57.7721 13.892 58.0611C13.5973 58.3372 13.3864 58.6907 13.2835 59.0813C13.1763 59.4799 13.1763 59.8997 13.2835 60.2983C13.3937 60.6764 13.5968 61.021 13.8741 61.3006C14.1518 61.5804 14.497 61.7839 14.8764 61.8912C15.275 61.9984 15.6948 61.9984 16.0935 61.8912L16.1114 61.9091Z" fill="white"/>
<path d="M47.8953 41.7739H48.1637C48.6384 41.7739 49.0937 41.5854 49.4293 41.2497C49.765 40.9141 49.9535 40.4588 49.9535 39.9841C49.9535 39.5095 49.765 39.0542 49.4293 38.7186C49.0937 38.3829 48.6384 38.1943 48.1637 38.1943H47.8953C47.4206 38.1943 46.9653 38.3829 46.6297 38.7186C46.294 39.0542 46.1055 39.5095 46.1055 39.9841C46.1055 40.4588 46.294 40.9141 46.6297 41.2497C46.9653 41.5854 47.4206 41.7739 47.8953 41.7739Z" fill="white"/>
<path d="M18.6331 88.6667C19.268 88.6133 19.8597 88.3233 20.291 87.8543C20.7222 87.3852 20.9615 86.7713 20.9615 86.1341C20.9615 85.497 20.7222 84.883 20.291 84.414C19.8597 83.9449 19.268 83.655 18.6331 83.6016C17.9982 83.655 17.4065 83.9449 16.9753 84.414C16.544 84.883 16.3047 85.497 16.3047 86.1341C16.3047 86.7713 16.544 87.3852 16.9753 87.8543C17.4065 88.3233 17.9982 88.6133 18.6331 88.6667Z" fill="#FFF896"/>
<path d="M142.452 110.967C143.12 110.975 143.763 110.718 144.242 110.252C144.474 110.016 144.657 109.736 144.78 109.429C144.903 109.121 144.963 108.793 144.958 108.462C144.968 108.13 144.909 107.8 144.786 107.492C144.663 107.184 144.478 106.905 144.242 106.672C144.014 106.425 143.737 106.227 143.429 106.092C143.121 105.957 142.788 105.888 142.452 105.888C142.116 105.888 141.783 105.957 141.475 106.092C141.167 106.227 140.89 106.425 140.662 106.672C140.422 106.904 140.231 107.182 140.1 107.49C139.97 107.797 139.902 108.128 139.902 108.462C139.902 108.796 139.97 109.126 140.1 109.434C140.231 109.741 140.422 110.02 140.662 110.252C141.147 110.708 141.786 110.964 142.452 110.967Z" fill="#FFF896"/>
<path d="M167.492 63.3589C167.826 63.3687 168.158 63.3107 168.468 63.1887C168.778 63.0667 169.061 62.8831 169.298 62.6489C169.536 62.4148 169.723 62.1349 169.85 61.8263C169.976 61.5177 170.039 61.1867 170.034 60.8532C170.033 60.1836 169.769 59.5411 169.3 59.0634C168.838 58.6066 168.214 58.3503 167.564 58.3503C166.914 58.3503 166.29 58.6066 165.828 59.0634C165.358 59.5411 165.095 60.1836 165.094 60.8532C165.09 61.1856 165.152 61.5154 165.278 61.823C165.404 62.1305 165.591 62.4094 165.828 62.643C166.306 63.1091 166.95 63.3665 167.618 63.3589H167.492Z" fill="#FFF896"/>
<path d="M102.451 14.5332C103.035 14.5332 103.595 14.3012 104.008 13.8884C104.421 13.4755 104.653 12.9156 104.653 12.3317C104.653 11.7478 104.421 11.1879 104.008 10.775C103.595 10.3622 103.035 10.1302 102.451 10.1302C101.868 10.1302 101.308 10.3622 100.895 10.775C100.482 11.1879 100.25 11.7478 100.25 12.3317C100.25 12.9156 100.482 13.4755 100.895 13.8884C101.308 14.3012 101.868 14.5332 102.451 14.5332Z" fill="#FFF896"/>
<path d="M114.171 167.722C114.795 167.713 115.392 167.463 115.836 167.024C116.058 166.807 116.234 166.548 116.354 166.263C116.475 165.977 116.537 165.67 116.537 165.359C116.537 165.049 116.475 164.742 116.354 164.456C116.234 164.171 116.058 163.912 115.836 163.695C115.392 163.256 114.795 163.006 114.171 162.997C113.542 163.007 112.94 163.256 112.489 163.695C112.055 164.141 111.811 164.737 111.809 165.359C111.807 165.982 112.051 166.58 112.489 167.024C112.94 167.463 113.542 167.712 114.171 167.722Z" fill="#FFF896"/>
<path d="M61.4999 165.682C62.136 165.682 62.746 165.429 63.1958 164.979C63.6455 164.529 63.8982 163.919 63.8982 163.283C63.8982 162.647 63.6455 162.037 63.1958 161.587C62.746 161.138 62.136 160.885 61.4999 160.885C60.8638 160.885 60.2538 161.138 59.804 161.587C59.3542 162.037 59.1016 162.647 59.1016 163.283C59.1016 163.919 59.3542 164.529 59.804 164.979C60.2538 165.429 60.8638 165.682 61.4999 165.682Z" fill="#FFF896"/>
</g>
<defs>
<clipPath id="clip0_2288_4696">
<rect width="180" height="180" fill="white"/>
</clipPath>
</defs>
</svg>
