<svg width="72" height="62" viewBox="0 0 72 62" fill="none" xmlns="http://www.w3.org/2000/svg">
<path d="M65.5529 5.75586C61.8622 2.06268 56.975 0.0442263 51.7591 0.0442263C46.5439 0.0442263 41.6417 2.07796 37.9507 5.77017L36.0231 7.69952L34.0649 5.74057C30.3736 2.04805 25.4574 0 20.2415 0C15.0406 0 10.1394 2.03276 6.46232 5.71066C2.77162 9.40351 0.739358 14.3074 0.753985 19.5254C0.753985 24.7427 2.80152 29.6316 6.49255 33.3245L34.5584 61.4016C34.9468 61.7906 35.4698 62 35.9779 62C36.4863 62 37.0096 61.8052 37.3977 61.4169L65.523 33.3846C69.2147 29.6914 71.247 24.7879 71.247 19.5696C71.2619 14.3526 69.2443 9.44806 65.5529 5.75586Z" fill="url(#paint0_linear_4537_33842)"/>
<defs>
<linearGradient id="paint0_linear_4537_33842" x1="36.0005" y1="62" x2="36.0005" y2="-2.0152e-06" gradientUnits="userSpaceOnUse">
<stop offset="0.322167" stop-color="#F42541"/>
<stop offset="0.697917" stop-color="#ED6F63"/>
<stop offset="1" stop-color="#FFA9A0"/>
</linearGradient>
</defs>
</svg>
