<svg width="55" height="48" viewBox="0 0 55 48" fill="none" xmlns="http://www.w3.org/2000/svg">
<path d="M50.3885 4.45615C47.53 1.59691 43.7448 0.0342397 39.7051 0.0342397C35.6659 0.0342397 31.8691 1.60874 29.0103 4.46723L27.5174 5.96092L26.0008 4.44431C23.1418 1.58558 19.3342 0 15.2945 0C11.2663 0 7.47029 1.57375 4.62238 4.42115C1.7639 7.28014 0.189904 11.0767 0.201233 15.1164C0.201233 19.1556 1.78707 22.9406 4.6458 25.7996L26.383 47.5368C26.6838 47.8379 27.0889 48 27.4824 48C27.8762 48 28.2815 47.8492 28.5821 47.5486L50.3654 25.8462C53.2246 22.9869 54.7986 19.1906 54.7986 15.1506C54.8102 11.1117 53.2475 7.31463 50.3885 4.45615Z" fill="url(#paint0_linear_4500_41684)"/>
<defs>
<linearGradient id="paint0_linear_4500_41684" x1="27.4999" y1="48" x2="27.4999" y2="-1.56016e-06" gradientUnits="userSpaceOnUse">
<stop offset="0.322167" stop-color="#F42541"/>
<stop offset="0.697917" stop-color="#ED6F63"/>
<stop offset="1" stop-color="#FFA9A0"/>
</linearGradient>
</defs>
</svg>
