<svg width="180" height="180" viewBox="0 0 180 180" fill="none" xmlns="http://www.w3.org/2000/svg">
<g clip-path="url(#clip0_2288_5915)">
<path d="M177.482 89.991C177.482 138.311 138.311 177.482 89.991 177.482C41.6711 177.482 2.5 138.311 2.5 89.991C2.5 41.6711 41.6711 2.5 89.991 2.5C138.311 2.5 177.482 41.6711 177.482 89.991Z" stroke="white" stroke-width="5"/>
<path d="M90.3497 96.2017C88.202 92.6221 81.4007 86.4473 75.2259 85.8209C75.8524 76.4602 76.3535 68.8178 77.0157 59.4572L72.5591 60.0299H61.8203L57.2743 59.4572C57.9007 68.8178 58.4197 76.4602 59.0641 85.8209C52.8356 86.4473 46.088 92.6758 43.9224 96.2017C41.5457 99.9236 39.9312 104.08 39.1723 108.43C38.4135 112.781 38.5254 117.238 39.5016 121.545C42.1684 131.854 51.529 140.517 62.1783 140.911H72.058C82.7073 140.517 92.0858 131.854 94.7347 121.545C95.7211 117.241 95.8414 112.784 95.0886 108.433C94.3358 104.082 92.7249 99.9241 90.3497 96.2017Z" fill="#FA8D61"/>
<path d="M76.9612 59.2066C76.4421 57.9716 73.829 57.023 70.2852 56.7545C66.3207 56.2606 62.2958 56.6643 58.5083 57.9358C58.1925 58.0041 57.9029 58.162 57.6744 58.3905C57.4459 58.6191 57.288 58.9086 57.2197 59.2245C57.1686 59.7067 57.273 60.1926 57.5178 60.6112C57.7625 61.0298 58.1347 61.3592 58.5799 61.5512C62.8397 63.7348 67.5289 63.341 71.9497 62.9293C73.553 62.9661 75.1137 62.4119 76.3347 61.3722C76.6215 61.099 76.8306 60.7546 76.9407 60.3741C77.0507 59.9936 77.0578 59.5907 76.9612 59.2066Z" fill="#96CBEB"/>
<path d="M61.2115 73.2027C59.4217 69.9095 53.6765 69.8558 50.4728 70.4464C48.3896 70.9702 46.4407 71.9281 44.7535 73.2575C43.0664 74.5869 41.6791 76.2577 40.6826 78.1605C35.9754 86.2861 40.0919 96.9533 45.8014 103.54C47.1974 105.133 49.6494 103.092 48.6651 101.32C45.4076 95.4141 40.1277 88.1296 43.5641 81.1136C44.219 79.5777 45.1806 78.1917 46.3902 77.0407C47.5997 75.8896 49.0316 74.9978 50.598 74.4198C52.0147 74.0382 53.4928 73.9409 54.9472 74.1334C56.4158 74.5343 57.8567 75.0305 59.2607 75.619C59.5696 75.6797 59.8893 75.6515 60.1829 75.5378C60.4764 75.424 60.7317 75.2294 60.9191 74.9764C61.1065 74.7235 61.2183 74.4225 61.2415 74.1086C61.2648 73.7946 61.1985 73.4805 61.0505 73.2027H61.2115Z" fill="#FA8D61"/>
<path d="M74.975 75.6189C76.3096 75.0663 77.6716 74.5824 79.0557 74.1692C80.5043 73.9475 81.9824 74.0144 83.4049 74.3661C85.0219 74.9177 86.5046 75.8037 87.7566 76.9662C89.0086 78.1288 90.0018 79.5419 90.6715 81.1136C94.1079 88.1296 88.8817 95.432 85.5706 101.32C84.6041 103.11 87.0203 105.151 88.4343 103.54C94.1437 96.9533 98.2424 86.304 93.5352 78.1604C92.5575 76.2961 91.2057 74.6535 89.5642 73.3354C87.9228 72.0174 86.0271 71.0521 83.9956 70.5001C80.8276 69.8021 74.8855 69.8021 73.1136 73.2027C72.9655 73.4805 72.8993 73.7946 72.9225 74.1086C72.9458 74.4225 73.0576 74.7234 73.245 74.9764C73.4323 75.2294 73.6876 75.424 73.9812 75.5378C74.2747 75.6515 74.5945 75.6796 74.9034 75.6189H74.975Z" fill="#FA8D61"/>
<path d="M44.2266 91.6556C44.6919 94.036 45.7121 96.7565 48.0746 97.8125C50.9204 99.0832 53.1219 96.0227 55.8603 96.8997C58.3123 97.6156 59.6546 100.157 62.3214 100.479C65.3283 100.927 66.9749 98.6895 69.6059 97.8483C72.7201 96.8818 75.4406 99.6381 78.5549 99.7633C81.6691 99.8886 82.3493 96.4701 85.2666 96.1838C86.109 96.2259 86.9469 96.0383 87.6909 95.6411C88.4349 95.2439 89.0569 94.652 89.4906 93.9286C89.8998 93.2148 90.0955 92.3985 90.0542 91.5767C90.013 90.7549 89.7366 89.9623 89.2579 89.293C89.0252 88.9888 88.5778 89.293 88.7388 89.7047C89.0178 90.2032 89.1861 90.7559 89.2321 91.3253C89.2781 91.8947 89.2008 92.4673 89.0054 93.0041C88.8101 93.5409 88.5013 94.0293 88.1001 94.4359C87.6989 94.8425 87.2147 95.1579 86.6806 95.3604C85.5888 95.6826 84.4254 95.3604 83.3695 95.8079C82.7614 96.1093 82.2338 96.551 81.8302 97.0965C81.4734 97.6669 80.9812 98.1402 80.3972 98.4744C79.8133 98.8085 79.1558 98.993 78.4833 99.0116C77.2394 98.9209 76.0243 98.5928 74.9037 98.0451C73.9803 97.5125 72.9571 97.1757 71.8979 97.0556C70.8386 96.9355 69.766 97.0348 68.7468 97.3471C66.2232 98.4389 64.4334 100.605 61.4086 99.477C59.6188 98.7969 58.366 97.0608 56.5404 96.309C55.742 96.0752 54.9039 96.0085 54.0786 96.1133C53.2533 96.218 52.4584 96.4918 51.7437 96.9176C47.4661 98.5463 46.0343 94.7698 44.7993 91.5482C44.7674 91.4883 44.7163 91.4408 44.6543 91.4133C44.5923 91.3857 44.5229 91.3797 44.457 91.3962C44.3912 91.4126 44.3328 91.4506 44.291 91.5041C44.2492 91.5576 44.2266 91.6235 44.2266 91.6914V91.6556Z" fill="#35208A"/>
<path d="M34.8308 103.307C33.4705 106.26 35.6541 110.234 37.8913 112.256C40.6655 114.744 43.7798 114.69 47.1088 113.527C48.1827 113.151 48.7912 112.757 49.5429 113.67C50.3152 114.8 51.1707 115.871 52.1023 116.874C53.306 117.935 54.7491 118.688 56.3079 119.068C57.8666 119.448 59.4943 119.445 61.0513 119.057C62.4599 118.628 63.7852 117.962 64.971 117.089C65.8659 116.498 67.1187 115.299 68.2821 115.46C69.4455 115.621 70.6625 116.82 71.6648 117.411C73.6881 118.606 76.0391 119.128 78.3782 118.899C80.7172 118.671 82.923 117.705 84.6766 116.14C85.2172 115.633 85.7086 115.075 86.1443 114.475C86.4128 114.118 86.8065 113.294 87.2003 113.097C87.594 112.9 88.0773 113.33 88.5605 113.455C89.534 113.738 90.5371 113.906 91.5495 113.956C93.3518 113.973 95.1293 113.536 96.7182 112.685C98.3072 111.834 99.6564 110.597 100.642 109.088C102.539 106.135 103.201 101.016 100.391 98.3494C100.019 98.0027 99.5569 97.7687 99.0575 97.6744C98.558 97.5802 98.0421 97.6298 97.5696 97.8172C97.0972 98.0047 96.6877 98.3224 96.3887 98.7335C96.0898 99.1445 95.9136 99.632 95.8808 100.139C95.8808 102.448 96.8294 104.649 94.8964 106.511C92.9634 108.372 90.6904 107.424 88.292 107.03C84.7124 106.439 83.1911 108.48 81.2402 110.896C80.6514 111.613 79.88 112.157 79.0074 112.472C78.1349 112.787 77.1934 112.861 76.2825 112.686C73.8305 112.238 72.0944 109.983 69.5886 109.482C68.2255 109.313 66.8421 109.429 65.5264 109.823C64.2106 110.218 62.9914 110.882 61.9462 111.773C60.1564 112.972 58.2234 113.974 56.2726 112.507C54.3217 111.039 53.8205 108.927 51.7086 107.728C50.1713 107.016 48.4254 106.894 46.8045 107.388C45.6646 107.912 44.4613 108.285 43.2249 108.498C40.2181 108.336 40.1465 103.683 37.766 102.52C37.2903 102.244 36.7253 102.166 36.1928 102.303C35.6603 102.441 35.2033 102.782 34.9203 103.253L34.8308 103.307Z" fill="#996666"/>
<path d="M36.3516 112.095C36.8393 114.701 38.2737 117.034 40.3786 118.646C42.8664 120.239 44.8889 119.022 47.4304 118.377C51.2069 117.393 51.9228 121.259 54.3927 123.049C55.3472 123.74 56.4575 124.185 57.6252 124.344C58.7929 124.503 59.9819 124.372 61.0866 123.961C63.9682 122.87 66.2591 119.576 69.6239 120.829C72.1475 121.76 73.8478 123.782 76.7831 123.961C79.0169 124.105 81.2189 123.373 82.9221 121.921C83.9423 121.044 84.4971 119.809 85.4457 118.878C87.1102 117.268 89.6696 118.878 91.6563 118.878C92.9963 118.903 94.3204 118.586 95.5035 117.956C96.6865 117.327 97.6893 116.406 98.4169 115.28C99.1445 114.155 99.5728 112.862 99.6614 111.525C99.7499 110.188 99.4958 108.85 98.9229 107.638C98.7439 107.28 98.1354 107.531 98.2786 107.907C98.9106 109.308 99.0933 110.871 98.8017 112.38C98.5101 113.89 97.7584 115.272 96.6499 116.337C95.3999 117.428 93.8151 118.059 92.1575 118.127C90.6439 117.98 89.1465 117.698 87.683 117.285C85.4457 117.035 84.5329 118.789 83.3159 120.31C82.4102 121.414 81.2177 122.247 79.8695 122.718C78.5212 123.188 77.0693 123.278 75.6734 122.977C73.2035 122.476 71.5927 120.382 69.1586 119.916C68.1957 119.807 67.2206 119.9 66.2958 120.189C65.3711 120.479 64.5172 120.959 63.7892 121.599C61.2298 123.389 58.4198 124.57 55.4845 122.87C53.462 121.706 52.8177 119.29 50.9026 118.037C48.9875 116.784 46.6429 118.037 44.513 118.628C40.0564 119.737 38.4098 115.156 36.9422 111.97C36.799 111.665 36.3516 111.97 36.4232 112.184L36.3516 112.095Z" fill="white"/>
<path d="M38.3227 123.067C39.2713 126.771 43.4773 129.009 46.8958 129.868C48.7911 130.389 50.7797 130.475 52.7127 130.118C53.2987 129.92 53.8965 129.759 54.5025 129.635C55.1228 129.562 55.7514 129.652 56.326 129.897C56.9006 130.142 57.4011 130.533 57.7778 131.031C58.5891 131.902 59.5616 132.607 60.6415 133.107C62.72 134.021 65.068 134.111 67.2101 133.358C70.1274 132.302 72.5795 129.975 75.819 130.548C78.2531 130.977 80.4546 132.338 82.9782 131.926C85.3854 131.558 87.6861 130.679 89.7257 129.349C93.8423 126.789 98.3883 122.995 98.9969 117.912C98.9969 117.411 98.2989 117.429 98.2273 117.912C97.6008 122.637 93.1442 126.27 89.2783 128.651C87.3573 129.911 85.1924 130.753 82.9245 131.121C80.2398 131.496 77.8952 129.939 75.2821 129.689C73.2659 129.62 71.2778 130.176 69.5905 131.282C67.049 132.642 64.5075 133.644 61.6259 132.66C60.3459 132.203 59.1927 131.448 58.2611 130.458C57.7369 129.768 57.0476 129.22 56.2565 128.865C55.2867 128.688 54.2863 128.794 53.3749 129.17C52.3867 129.461 51.3624 129.611 50.3323 129.617C47.9698 129.651 45.6414 129.051 43.5892 127.88C41.537 126.709 39.8359 125.01 38.6628 122.959C38.5733 122.762 38.269 122.959 38.3227 123.102V123.067Z" fill="#35208A"/>
<path d="M138.335 103.629C137.386 103.468 136.455 103.629 135.507 103.504C133.986 103.343 132.583 102.607 131.587 101.446C129.781 99.132 128.958 96.2001 129.296 93.2843C129.529 88.0223 130.513 82.8139 130.656 77.534C130.943 67.7796 129.028 57.9537 122.083 50.6871C115.139 43.4205 106.065 40.4315 96.6503 39.3755C85.8084 37.9069 74.813 40.6062 65.8837 46.9285C62.3979 49.3568 59.6435 52.693 57.9191 56.5755C57.6043 57.1436 57.4087 57.7699 57.344 58.4161C57.2794 59.0623 57.3472 59.7149 57.5432 60.3341C58.3221 61.2531 59.3875 61.8835 60.568 62.1239C64.5065 63.4174 68.728 63.5848 72.7565 62.6071C74.0324 62.3605 75.2482 61.8681 76.3361 61.1574C76.6128 60.8667 76.8422 60.5346 77.0162 60.173C77.7382 58.9451 78.8101 57.9605 80.0947 57.3451C84.3723 55.43 89.3479 58.1863 92.4264 61.0858C96.0614 64.6272 98.6182 69.1265 99.8004 74.0618C100.65 78.7089 100.795 83.4574 100.23 88.1475C99.8362 94.0539 98.9055 99.8707 98.118 105.723C97.1448 111.281 96.8204 116.933 97.1515 122.565C97.2439 124.657 97.7687 126.707 98.6928 128.587C99.617 130.466 100.92 132.133 102.521 133.483C104.12 134.73 105.997 135.571 107.992 135.932C109.988 136.294 112.041 136.166 113.976 135.559C114.901 135.335 115.767 134.911 116.512 134.317C117.257 133.724 117.863 132.975 118.289 132.123C118.715 131.271 118.95 130.337 118.978 129.384C119.006 128.432 118.826 127.486 118.45 126.61C118.164 125.286 117.842 123.979 117.519 122.673C119.882 126.807 123.963 129.832 129.028 128.15C130.255 127.779 131.347 127.058 132.17 126.076C132.994 125.093 133.513 123.892 133.663 122.619C133.7 121.195 133.453 119.778 132.937 118.451C132.42 117.124 131.645 115.912 130.656 114.887C132.236 115.597 134.008 115.753 135.687 115.331C137.366 114.909 138.854 113.933 139.91 112.56C141.914 109.876 142.201 104.864 138.335 103.629Z" fill="#96CBEB"/>
<path d="M70.5536 61.3722C71.3935 57.9908 73.4942 55.0584 76.4255 53.1752C79.3568 51.2919 82.8971 50.6003 86.3217 51.2419C93.6598 52.3874 99.8704 57.8463 103.647 64.0032C107.33 70.5422 109.103 77.9836 108.766 85.4808C108.766 93.2306 106.743 100.855 106.886 108.587C106.994 114.977 109.303 122.351 115.46 125.357C115.543 125.407 115.642 125.422 115.736 125.399C115.83 125.375 115.911 125.315 115.961 125.232C116.011 125.149 116.025 125.05 116.002 124.956C115.978 124.862 115.919 124.781 115.835 124.731C108.408 120.382 107.191 111.63 107.889 103.755C108.587 95.8795 110.072 87.9328 109.356 79.8608C108.872 72.5632 106.182 65.5849 101.642 59.8509C97.2752 54.5888 90.9036 50.2933 83.7444 50.2933C77.5696 50.2933 70.4999 54.6604 70.0703 61.3185C70.0703 61.3754 70.0929 61.4301 70.1332 61.4704C70.1735 61.5106 70.2281 61.5333 70.2851 61.5333C70.342 61.5333 70.3967 61.5106 70.437 61.4704C70.4772 61.4301 70.4999 61.3754 70.4999 61.3185L70.5536 61.3722Z" fill="white"/>
<path d="M63.9319 60.0477C65.3632 56.6503 67.5215 53.6077 70.255 51.134C72.9884 48.6602 76.2307 46.8154 79.7537 45.7293C83.5613 44.6203 87.557 44.3101 91.4901 44.8183C95.4232 45.3265 99.2088 46.6421 102.609 48.6825C109.355 52.7485 114.512 58.9922 117.232 66.3836C120.328 74.4914 119.988 83.0466 120.311 91.5482C120.561 98.7074 121.062 109.697 128.454 113.402C128.884 113.616 129.277 112.972 128.83 112.739C124.928 110.645 123.246 106.386 122.315 102.251C121.4 97.5343 120.963 92.7373 121.009 87.9328C120.847 79.5207 120.49 71.2698 116.856 63.5199C110.431 49.7743 94.7522 40.2526 79.5389 45.0134C75.8897 46.1431 72.5363 48.0678 69.72 50.6489C66.9037 53.2299 64.6947 56.4032 63.2518 59.9403C63.0728 60.3699 63.7708 60.5668 63.9319 60.1372V60.0477Z" fill="white"/>
<path d="M111.45 67.4574C111.808 69.0146 112.56 70.4822 112.936 72.0572C113.317 73.6135 113.556 75.2009 113.652 76.8002C113.819 80.038 113.699 83.2842 113.294 86.5009C112.596 93.0158 111.826 99.3874 112.847 105.92C113.634 111.003 115.084 116.874 119.075 120.453C122.243 123.299 127.254 124.248 130.709 121.42C130.995 121.187 130.709 120.686 130.315 120.901C125.482 124.48 119.576 121.098 116.981 116.552C114.046 111.504 113.151 105.025 113.061 99.2979C112.972 93.5706 114.243 87.3958 114.475 81.4C114.592 78.904 114.448 76.4027 114.046 73.9365C113.816 71.5622 112.978 69.2873 111.612 67.3322C111.612 67.3322 111.433 67.3322 111.45 67.4395V67.4574Z" fill="white"/>
<path d="M124.892 75.0463C124.379 76.7874 124.168 78.6033 124.265 80.4157C124.265 82.3128 124.265 84.21 124.391 86.1072C124.675 89.9245 125.323 93.7061 126.324 97.4008C127.738 102.627 131.174 109.625 137.778 108.426C138.172 108.426 138.083 107.656 137.671 107.71C130.136 108.515 127.612 100.086 126.342 94.2687C125.644 91.0281 125.213 87.7358 125.053 84.4248C125.053 82.8677 125.053 81.3106 125.053 79.7534C125.205 78.1881 125.205 76.6116 125.053 75.0463C125.053 74.9389 124.892 75.0463 124.856 75.0463H124.892Z" fill="white"/>
<path d="M104.437 93.4095C102.944 97.1621 102.126 101.149 102.02 105.186C101.719 109.302 101.875 113.437 102.486 117.518C103.327 123.049 105.922 132.588 113.529 130.977C113.905 130.888 113.833 130.226 113.529 130.279C105.188 131.335 103.542 120.453 102.969 114.458C102.629 110.934 102.629 107.386 102.969 103.862C103.327 100.282 104.329 96.9533 104.759 93.4632C104.759 93.3558 104.58 93.32 104.526 93.4632L104.437 93.4095Z" fill="white"/>
<path d="M102.859 73.149C102.859 75.6726 103.808 78.1783 104.005 80.702C104.202 83.2256 103.808 85.4807 104.13 87.7001C104.13 87.9327 104.488 87.8791 104.56 87.7001C105.144 85.1547 105.193 82.5155 104.703 79.9502C104.627 77.5557 104.054 75.2031 103.02 73.0416H102.859V73.149Z" fill="white"/>
<path d="M123.495 63.9316C123.709 65.3992 124.067 66.8132 124.211 68.2987C124.354 69.7842 124.211 70.9118 124.336 72.2184C124.336 72.5226 124.855 72.63 124.926 72.2184C125.391 69.3303 125.05 66.3702 123.942 63.6631C123.835 63.3947 123.459 63.6631 123.495 63.86V63.9316Z" fill="white"/>
<path d="M102.502 55.4837C103.611 56.665 104.882 57.6494 105.902 58.938C106.984 60.3155 107.864 61.8403 108.515 63.4662C108.712 63.9137 109.446 63.7168 109.267 63.2694C108.091 59.8952 105.749 57.0518 102.663 55.2511C102.632 55.2361 102.597 55.2327 102.564 55.2414C102.531 55.2501 102.502 55.2703 102.482 55.2984C102.463 55.3265 102.454 55.3606 102.458 55.3946C102.461 55.4286 102.477 55.4602 102.502 55.4837Z" fill="white"/>
<path d="M97.8488 42.9551C100.606 43.2847 103.335 43.8232 106.01 44.566C108.614 45.432 111.066 46.7002 113.277 48.3245C117.675 51.674 120.931 56.2995 122.602 61.569C122.763 62.0523 123.515 61.8554 123.353 61.3722C121.678 56.1228 118.475 51.4926 114.154 48.074C109.876 44.7449 103.415 41.8097 97.9025 42.4719C97.6878 42.4719 97.5804 42.8478 97.9025 42.9015L97.8488 42.9551Z" fill="white"/>
<path d="M157.79 42.2034C157.816 42.1342 157.816 42.0578 157.79 41.9886C157.271 40.9863 155.338 40.7895 154.372 40.6105C152.797 40.2883 151.186 40.1093 149.593 39.8946L148.805 39.7872C148.698 39.7872 148.519 39.6798 148.537 39.7872C148.339 39.4346 148.177 39.0628 148.054 38.6775C147.391 37.1383 146.765 35.5812 146.085 34.0419C145.745 33.2723 145.405 32.4848 145.029 31.7331C144.796 31.2498 144.546 30.3728 144.009 30.1402C142.845 29.6211 142.04 32.5027 141.718 33.2007C140.984 34.8652 140.286 36.5297 139.57 38.2122C139.417 38.7775 139.175 39.3151 138.854 39.8051C138.348 39.8528 137.839 39.8528 137.333 39.8051L135.203 39.9841C133.995 40.0681 132.797 40.2598 131.623 40.5568C130.925 40.7716 129.655 41.1116 129.833 42.0781C130.012 43.0446 131.158 43.6352 131.623 44.0827C132.571 44.8259 133.57 45.5017 134.612 46.1052C135.139 46.3342 135.648 46.6034 136.134 46.9106C136.688 47.3222 136.42 47.7697 136.277 48.3603C135.955 49.5595 135.632 50.7765 135.328 51.9399C135.024 53.1033 134.863 53.9445 134.702 54.9468C134.523 55.6394 134.523 56.3661 134.702 57.0587C135.436 58.6159 138.281 55.8954 138.926 55.2689C139.57 54.6425 140.608 53.9445 141.413 53.2465C141.825 52.9064 142.219 52.5484 142.595 52.1905C142.971 51.8325 143.382 51.224 143.669 51.1882C143.955 51.1524 145.351 52.6021 145.727 52.978C146.562 53.6939 147.421 54.3919 148.304 55.0721C149.423 56.2059 150.837 57.0054 152.385 57.3809C153.781 57.5062 153.119 55.4121 152.94 54.5888C152.492 52.6379 151.848 50.7049 151.275 48.7899C151.15 48.3782 150.989 47.9487 150.899 47.5191C150.81 47.0896 150.899 47.0896 151.204 46.8569C151.973 46.3915 152.904 46.1052 153.691 45.7114C154.98 45.0671 157.54 43.9216 157.915 42.2929C157.881 42.2543 157.838 42.2238 157.79 42.2034Z" fill="#FFF896"/>
<path d="M93.966 156.912C91.7825 156.733 89.581 156.751 87.3796 156.768L89.1694 154.979C90.2185 154.084 91.124 153.034 91.8541 151.864C91.9231 151.749 91.952 151.614 91.9362 151.481C91.9204 151.347 91.8608 151.222 91.7667 151.126C91.6727 151.03 91.5495 150.968 91.4163 150.949C91.2832 150.931 91.1476 150.957 91.0308 151.023C89.8403 151.739 88.766 152.632 87.8449 153.672L85.9477 155.462V152.795C86.0544 151.415 85.9518 150.028 85.6435 148.679C85.6052 148.554 85.5281 148.445 85.4234 148.368C85.3187 148.291 85.192 148.249 85.0618 148.249C84.9316 148.249 84.8049 148.291 84.7002 148.368C84.5955 148.445 84.5184 148.554 84.4801 148.679C84.1423 150.023 84.0095 151.411 84.0864 152.795C84.0864 153.672 84.0864 154.585 84.0864 155.462L82.2966 153.547C81.3957 152.497 80.3394 151.592 79.1644 150.862C79.0493 150.801 78.9175 150.778 78.7885 150.797C78.6594 150.816 78.54 150.877 78.4477 150.969C78.3555 151.061 78.2953 151.18 78.2761 151.309C78.2569 151.439 78.2797 151.57 78.3411 151.685C79.0503 152.875 79.9376 153.95 80.9721 154.871L82.7619 156.768H80.0772C78.6975 156.663 77.3099 156.766 75.9607 157.073C75.8385 157.116 75.7328 157.196 75.6579 157.302C75.5831 157.407 75.543 157.534 75.543 157.663C75.543 157.793 75.5831 157.919 75.6579 158.025C75.7328 158.131 75.8385 158.211 75.9607 158.254C77.3077 158.576 78.6941 158.703 80.0772 158.63H82.6903C81.0795 160.151 79.4687 161.672 78.0368 163.319C77.8683 163.488 77.7737 163.716 77.7737 163.954C77.7737 164.193 77.8683 164.421 78.0368 164.59C78.2053 164.758 78.4339 164.853 78.6722 164.853C78.9105 164.853 79.1391 164.758 79.3076 164.59C80.9721 163.194 82.4934 161.637 84.0148 160.08C84.0148 162.263 83.9074 164.465 84.0148 166.612C84.0563 166.819 84.1682 167.005 84.3313 167.139C84.4944 167.272 84.6988 167.345 84.9097 167.345C85.1205 167.345 85.3249 167.272 85.488 167.139C85.6512 167.005 85.763 166.819 85.8046 166.612C85.9835 164.465 85.9656 162.281 85.9477 160.097C87.4512 161.69 88.9546 163.283 90.5833 164.697C90.7518 164.866 90.9804 164.96 91.2187 164.96C91.457 164.96 91.6856 164.866 91.8541 164.697C92.0226 164.529 92.1173 164.3 92.1173 164.062C92.1173 163.824 92.0226 163.595 91.8541 163.426C90.4341 161.78 88.9286 160.208 87.3438 158.719C89.5273 158.719 91.7288 158.845 93.8944 158.719C94.1143 158.698 94.3192 158.598 94.471 158.438C94.6228 158.278 94.7113 158.067 94.72 157.847C94.7288 157.626 94.6572 157.41 94.5185 157.238C94.3799 157.066 94.1836 156.95 93.966 156.912Z" fill="white"/>
<path d="M54.2496 22.7842C54.5473 22.7842 54.842 22.7253 55.1168 22.6108C55.3915 22.4964 55.641 22.3286 55.8506 22.1173C56.0602 21.906 56.226 21.6553 56.3383 21.3796C56.4505 21.104 56.5071 20.8088 56.5047 20.5111C56.4955 19.9159 56.255 19.3476 55.834 18.9267C55.4131 18.5058 54.8448 18.2652 54.2496 18.256C53.6476 18.2617 53.0708 18.4988 52.6388 18.9182C52.2296 19.3496 51.9938 19.9168 51.9766 20.5111C51.9902 21.1097 52.2341 21.6799 52.6574 22.1033C53.0808 22.5266 53.651 22.7705 54.2496 22.7842Z" fill="white"/>
<path d="M93.2859 33.1112C93.8378 33.0615 94.3511 32.8071 94.725 32.3981C95.0988 31.9891 95.3061 31.455 95.3061 30.9008C95.3061 30.3467 95.0988 29.8126 94.725 29.4036C94.3511 28.9945 93.8378 28.7401 93.2859 28.6904C92.734 28.7401 92.2206 28.9945 91.8468 29.4036C91.4729 29.8126 91.2656 30.3467 91.2656 30.9008C91.2656 31.455 91.4729 31.9891 91.8468 32.3981C92.2206 32.8071 92.734 33.0615 93.2859 33.1112Z" fill="white"/>
<path d="M115.193 22.0325C115.824 22.0325 116.43 21.7817 116.876 21.3353C117.323 20.8888 117.573 20.2834 117.573 19.652C117.573 19.0207 117.323 18.4152 116.876 17.9688C116.43 17.5224 115.824 17.2716 115.193 17.2716C114.562 17.2716 113.956 17.5224 113.51 17.9688C113.063 18.4152 112.812 19.0207 112.813 19.652C112.812 20.2834 113.063 20.8888 113.51 21.3353C113.956 21.7817 114.562 22.0325 115.193 22.0325Z" fill="white"/>
<path d="M145.583 76.496C145.263 76.8221 145.037 77.2291 144.93 77.6736C144.823 78.1181 144.838 78.5833 144.975 79.0196C145.094 79.4467 145.321 79.8359 145.635 80.1494C145.948 80.4629 146.338 80.6903 146.765 80.8094C147.117 80.8981 147.486 80.8981 147.838 80.8094C148.13 80.7782 148.413 80.6875 148.668 80.5428C148.924 80.3981 149.147 80.2025 149.324 79.9682C149.546 79.6937 149.699 79.3702 149.77 79.0247C149.842 78.6792 149.83 78.3216 149.736 77.9816C149.675 77.753 149.569 77.5388 149.424 77.3514C149.28 77.1641 149.1 77.0071 148.894 76.8898C148.686 76.7671 148.455 76.6881 148.215 76.6573C147.975 76.6265 147.731 76.6447 147.498 76.7108H147.982H147.838H148.358L148.841 76.9256C148.59 76.8182 148.34 76.6929 148.089 76.6034L148.608 76.8182C148.555 76.8275 148.5 76.8275 148.447 76.8182L148.894 77.1583L149.235 77.6057L149.449 78.1426C149.449 78.1426 149.449 78.1426 149.449 78.0531V78.6438V79.2344C149.468 79.0021 149.468 78.7687 149.449 78.5364C149.449 78.7512 149.449 78.9481 149.449 79.1449C149.439 79.1038 149.439 79.0607 149.449 79.0196L149.217 79.5566C149.575 79.0819 149.73 78.4843 149.648 77.8952C149.566 77.3061 149.253 76.7739 148.778 76.4155C148.303 76.0571 147.706 75.902 147.117 75.9842C146.528 76.0664 145.995 76.3793 145.637 76.854L145.583 76.496Z" fill="white"/>
<path d="M163.766 107.907C164.12 107.907 164.466 107.802 164.761 107.605C165.055 107.409 165.284 107.129 165.42 106.802C165.555 106.475 165.591 106.115 165.522 105.768C165.453 105.421 165.282 105.102 165.032 104.852C164.782 104.601 164.463 104.431 164.116 104.362C163.768 104.293 163.408 104.328 163.081 104.464C162.754 104.599 162.475 104.828 162.278 105.123C162.082 105.417 161.977 105.763 161.977 106.117C161.977 106.592 162.165 107.047 162.501 107.383C162.836 107.718 163.292 107.907 163.766 107.907Z" fill="white"/>
<path d="M147.746 132.105H148.051C148.589 132.056 149.089 131.808 149.453 131.408C149.818 131.009 150.02 130.489 150.02 129.948C150.02 129.408 149.818 128.887 149.453 128.488C149.089 128.089 148.589 127.841 148.051 127.792H147.746C147.208 127.841 146.708 128.089 146.344 128.488C145.979 128.887 145.777 129.408 145.777 129.948C145.777 130.489 145.979 131.009 146.344 131.408C146.708 131.808 147.208 132.056 147.746 132.105Z" fill="white"/>
<path d="M124.212 164.536V164.375C124.13 164.07 123.979 163.787 123.771 163.548C123.563 163.31 123.304 163.121 123.013 162.997L122.566 162.872C122.203 162.763 121.819 162.741 121.446 162.806C121.073 162.872 120.72 163.024 120.416 163.25C120.112 163.476 119.865 163.769 119.694 164.108C119.524 164.446 119.434 164.819 119.434 165.198C119.439 165.621 119.552 166.034 119.762 166.401C119.972 166.767 120.272 167.074 120.633 167.292C121.05 167.537 121.53 167.652 122.013 167.622C122.496 167.592 122.958 167.419 123.342 167.126C123.726 166.832 124.014 166.43 124.169 165.972C124.324 165.514 124.339 165.021 124.212 164.554V164.536Z" fill="white"/>
<path d="M58.1155 151.471C58.0123 151.099 57.8147 150.76 57.5418 150.487C57.269 150.214 56.9302 150.017 56.5584 149.913C56.0699 149.775 55.5493 149.804 55.0785 149.993C54.6077 150.183 54.2133 150.524 53.9573 150.963C53.7012 151.401 53.598 151.912 53.6639 152.415C53.7298 152.919 53.961 153.386 54.3212 153.744C54.6483 154.057 55.0596 154.267 55.5046 154.35C55.9497 154.433 56.4092 154.384 56.8269 154.209C57.3367 153.994 57.7517 153.602 57.9952 153.106C58.2386 152.609 58.2941 152.041 58.1513 151.506L58.1155 151.471Z" fill="white"/>
<path d="M20.4404 115.209C21.0751 115.2 21.6828 114.951 22.1407 114.511C22.5899 114.056 22.8418 113.442 22.8418 112.802C22.8418 112.162 22.5899 111.548 22.1407 111.093C21.6828 110.653 21.0751 110.404 20.4404 110.395C20.1068 110.366 19.7709 110.407 19.4539 110.515C19.137 110.623 18.8459 110.795 18.5992 111.022C18.3525 111.248 18.1555 111.523 18.0207 111.829C17.886 112.136 17.8164 112.467 17.8164 112.802C17.8164 113.137 17.886 113.468 18.0207 113.774C18.1555 114.081 18.3525 114.356 18.5992 114.582C18.8459 114.809 19.137 114.981 19.4539 115.089C19.7709 115.197 20.1068 115.238 20.4404 115.209Z" fill="white"/>
<path d="M33.4147 90.5995C33.4147 90.0299 33.1884 89.4836 32.7856 89.0809C32.3828 88.6781 31.8365 88.4518 31.2669 88.4518C30.8349 88.4609 30.4146 88.594 30.0561 88.8351C29.6975 89.0763 29.4158 89.4154 29.2444 89.812C29.0741 90.2126 29.0274 90.655 29.1103 91.0824C29.1932 91.5097 29.402 91.9025 29.7098 92.2104C29.9906 92.4732 30.3317 92.6629 30.7031 92.7628C31.0746 92.8627 31.4649 92.8696 31.8396 92.7831C32.3018 92.6466 32.7087 92.3667 33.0015 91.9839C33.2942 91.601 33.4577 91.1351 33.4683 90.6532L33.4147 90.5995Z" fill="white"/>
<path d="M22.141 49.5058C22.4038 49.6546 22.6873 49.7632 22.9822 49.828C23.3728 49.918 23.7816 49.8856 24.1531 49.7351C24.5246 49.5846 24.8407 49.3233 25.0584 48.9868C25.2326 48.7043 25.3249 48.379 25.3249 48.0471C25.3249 47.7153 25.2326 47.3899 25.0584 47.1075L24.772 46.7316C24.6097 46.5464 24.399 46.41 24.1635 46.3379C23.777 46.1823 23.3516 46.151 22.9464 46.2484C22.6515 46.3132 22.368 46.4218 22.1052 46.5706C21.8689 46.7355 21.6759 46.9551 21.5427 47.2106C21.4094 47.4661 21.3398 47.75 21.3398 48.0382C21.3398 48.3264 21.4094 48.6103 21.5427 48.8658C21.6759 49.1213 21.8689 49.3409 22.1052 49.5058H22.141Z" fill="white"/>
<path d="M50.3666 63.1083C50.6805 63.0513 50.9734 62.9114 51.215 62.703C51.4567 62.4947 51.6382 62.2256 51.7409 61.9236C51.8436 61.6215 51.8637 61.2975 51.7992 60.9851C51.7346 60.6727 51.5877 60.3832 51.3736 60.1466C51.1596 59.91 50.8862 59.735 50.5818 59.6396C50.2773 59.5441 49.9529 59.5318 49.6421 59.6039C49.3314 59.6759 49.0455 59.8298 48.8141 60.0494C48.5827 60.2691 48.4143 60.5466 48.3262 60.8532C48.2624 61.1462 48.2731 61.4505 48.3576 61.7382C48.442 62.026 48.5973 62.2879 48.8094 62.4999C49.0214 62.7119 49.2833 62.8673 49.571 62.9517C49.8588 63.0361 50.1631 63.0469 50.4561 62.9831L50.3666 63.1083Z" fill="white"/>
<path d="M59.4769 40.0915C60.1118 40.0381 60.7035 39.7481 61.1347 39.2791C61.566 38.81 61.8053 38.1961 61.8053 37.5589C61.8053 36.9218 61.566 36.3078 61.1347 35.8388C60.7035 35.3697 60.1118 35.0798 59.4769 35.0264C58.8419 35.0798 58.2503 35.3697 57.819 35.8388C57.3878 36.3078 57.1484 36.9218 57.1484 37.5589C57.1484 38.1961 57.3878 38.81 57.819 39.2791C58.2503 39.7481 58.8419 40.0381 59.4769 40.0915Z" fill="#F7B9E7"/>
<path d="M15.1937 78.0889C15.5875 77.9657 15.9659 77.7975 16.3212 77.5877C16.6551 77.3896 16.9316 77.1081 17.1237 76.7707C17.3158 76.4334 17.4168 76.0519 17.4168 75.6637C17.4168 75.2755 17.3158 74.894 17.1237 74.5566C16.9316 74.2193 16.6551 73.9377 16.3212 73.7396C15.9629 73.5307 15.5853 73.3569 15.1937 73.2206C14.763 73.1025 14.3086 73.1016 13.8775 73.218C13.4464 73.3344 13.0543 73.564 12.7416 73.8828C12.2755 74.3626 12.0126 75.0037 12.0078 75.6726C12.0215 76.3397 12.2831 76.9777 12.7416 77.4624C13.0561 77.7782 13.4491 78.0043 13.8801 78.1176C14.3112 78.2308 14.7646 78.2271 15.1937 78.1067V78.0889Z" fill="#F7B9E7"/>
<path d="M121.311 147.73C121.435 147.34 121.435 146.921 121.311 146.531C121.311 146.423 121.185 146.226 121.168 146.155C120.985 145.721 120.679 145.351 120.288 145.09C119.896 144.829 119.437 144.689 118.966 144.687C118.549 144.696 118.141 144.808 117.778 145.015C117.416 145.221 117.11 145.514 116.89 145.869C116.688 146.242 116.582 146.661 116.582 147.086C116.582 147.511 116.688 147.929 116.89 148.303C117.136 148.706 117.493 149.028 117.919 149.232C118.345 149.435 118.82 149.51 119.288 149.448C119.7 149.389 120.089 149.222 120.416 148.965C120.822 148.651 121.122 148.22 121.275 147.73H121.311Z" fill="#F7B9E7"/>
<path d="M36.0274 150.343H36.2959C36.7851 150.192 37.2129 149.887 37.5168 149.475C37.8206 149.063 37.9846 148.564 37.9846 148.052C37.9846 147.54 37.8206 147.041 37.5168 146.629C37.2129 146.217 36.7851 145.913 36.2959 145.761H36.0274C35.6713 145.672 35.2996 145.666 34.9407 145.742C34.5817 145.819 34.2449 145.976 33.9557 146.202C33.6665 146.428 33.4327 146.717 33.2718 147.047C33.1109 147.377 33.0273 147.739 33.0273 148.106C33.0273 148.473 33.1109 148.835 33.2718 149.165C33.4327 149.495 33.6665 149.784 33.9557 150.01C34.2449 150.236 34.5817 150.393 34.9407 150.469C35.2996 150.545 35.6713 150.539 36.0274 150.45V150.343Z" fill="#F7B9E7"/>
<path d="M167.685 73.0058L167.864 72.451C167.965 72.063 167.963 71.6552 167.857 71.2684C167.752 70.8815 167.547 70.5292 167.262 70.2465C166.978 69.9639 166.624 69.7609 166.237 69.6577C165.849 69.5546 165.441 69.555 165.054 69.6589L164.499 69.8379C164.074 69.9617 163.688 70.1906 163.375 70.5034C163.062 70.8162 162.833 71.2029 162.709 71.6277C162.589 72.0666 162.586 72.5296 162.703 72.9696C162.819 73.4096 163.05 73.811 163.372 74.1328C163.694 74.4547 164.095 74.6855 164.535 74.802C164.975 74.9184 165.438 74.9162 165.877 74.7956C166.3 74.6675 166.684 74.4371 166.996 74.1249C167.308 73.8127 167.539 73.4283 167.667 73.0058H167.685Z" fill="#F7B9E7"/>
</g>
<defs>
<clipPath id="clip0_2288_5915">
<rect width="180" height="180" fill="white"/>
</clipPath>
</defs>
</svg>
