<svg width="180" height="180" viewBox="0 0 180 180" fill="none" xmlns="http://www.w3.org/2000/svg">
<g clip-path="url(#clip0_2288_5776)">
<path d="M104.004 3.64068C151.7 11.3828 184.088 56.324 176.346 104.02C168.604 151.715 123.663 184.104 75.9672 176.362C28.2715 168.62 -4.11724 123.679 3.62486 75.9831C11.367 28.2874 56.3082 -4.10142 104.004 3.64068Z" stroke="white" stroke-width="5"/>
<path d="M138.332 76.2454C138.34 76.2162 138.34 76.1852 138.332 76.1559C138.325 76.0241 138.288 75.8954 138.224 75.7801C136.971 73.3817 133.284 72.9701 130.85 72.7553C127.84 72.4546 124.802 72.929 122.027 74.1335C119.323 75.3888 116.991 77.3254 115.261 79.7534C113.955 81.5432 112.594 83.5478 113.185 85.8566C114.617 91.3871 123.637 90.4743 127.503 89.0067C132.658 87.02 138.869 82.5097 138.332 76.2454Z" fill="#FFB07F"/>
<path d="M133.502 79.2165C133.359 78.6795 132.768 78.3932 132.249 78.1963C129.885 77.3258 127.31 77.207 124.875 77.8562C122.431 78.5498 120.344 80.1502 119.041 82.3307C118.567 82.781 118.23 83.3558 118.069 83.989C117.907 84.6223 117.928 85.2882 118.128 85.9103C118.742 86.8154 119.675 87.4548 120.741 87.7001C122.61 88.0493 124.535 87.9403 126.352 87.3823C128.17 86.8243 129.825 85.8341 131.175 84.4964C131.806 83.9963 132.345 83.3907 132.768 82.7066C133.125 81.9408 133.366 81.1266 133.484 80.2903C133.6 79.9427 133.606 79.5678 133.502 79.2165Z" fill="white"/>
<path d="M64.7388 79.7534C63.0875 77.4203 60.8787 75.5375 58.3134 74.2767C55.4514 72.975 52.2969 72.4503 49.1676 72.7553C46.7334 72.988 43.0465 73.3818 41.7757 75.7801C41.7199 75.8988 41.6836 76.0257 41.6683 76.1559C41.6768 76.1852 41.6768 76.2162 41.6683 76.2454C41.1493 82.3844 47.1272 86.841 52.1923 88.774C56.0941 90.349 65.3831 91.4408 66.8329 85.7672C66.9606 84.6717 66.8386 83.5616 66.4759 82.52C66.1132 81.4785 65.5193 80.5326 64.7388 79.7534Z" fill="#FFB07F"/>
<path d="M46.5351 79.2165C46.6511 78.958 46.8267 78.7308 47.0477 78.5534C47.2686 78.3761 47.5284 78.2537 47.8059 78.1963C50.1637 77.3249 52.7338 77.2061 55.1619 77.8563C57.5935 78.5563 59.6671 80.1563 60.9609 82.3308C61.4241 82.7881 61.7539 83.363 61.9147 83.9937C62.0756 84.6244 62.0614 85.2871 61.8737 85.9104C61.253 86.8166 60.3136 87.4557 59.2427 87.7002C57.3767 88.0479 55.4543 87.9381 53.6401 87.3801C51.8259 86.8221 50.1741 85.8326 48.8261 84.4964C48.19 83.9971 47.645 83.3916 47.2152 82.7066C46.8418 81.8805 46.6118 80.9969 46.5351 80.0935C46.4727 79.8045 46.4727 79.5055 46.5351 79.2165Z" fill="white"/>
<path d="M118.59 72.3615C116.996 70.4471 114.955 68.9536 112.648 68.0123C104.827 64.4327 96.0926 64.4327 87.5911 65.0412C80.4319 65.5603 72.0735 65.1844 65.9524 69.7126C58.9722 74.8672 57.4509 84.5321 59.4555 92.4967C60.9776 97.5561 62.9793 102.459 65.4334 107.137C69.9437 116.784 71.6619 131.926 83.224 135.076C86.359 135.804 89.6066 135.907 92.7815 135.38C95.0767 135.176 97.3181 134.57 99.4038 133.591C105.149 130.512 107.01 121.706 109.176 116.337C112.076 108.855 118.125 101.249 119.79 93.4095C121.168 86.9663 122.779 78.0531 118.59 72.3615Z" fill="#FFB07F"/>
<path d="M101.804 131.64C102.958 130.195 103.769 128.506 104.176 126.701C104.582 124.897 104.573 123.024 104.149 121.223C102.77 114.493 95.9155 112.113 89.8302 112.471C84.1207 112.757 77.6774 115.102 75.995 121.151C74.6706 125.93 76.8005 132.588 81.7224 134.503C83.3128 135.058 84.9787 135.365 86.6622 135.416C90.0043 135.738 93.3764 135.521 96.6493 134.772C98.6493 134.284 100.45 133.19 101.804 131.64Z" fill="white"/>
<path d="M112.471 99.5127C113.216 99.5163 113.945 99.2984 114.566 98.8867C115.187 98.4751 115.671 97.8883 115.958 97.2008C116.245 96.5133 116.321 95.7561 116.176 95.0253C116.032 94.2945 115.673 93.6232 115.147 93.0965C114.62 92.5697 113.949 92.2114 113.218 92.067C112.487 91.9225 111.73 91.9984 111.042 92.2851C110.355 92.5718 109.768 93.0563 109.356 93.6772C108.945 94.298 108.727 95.0271 108.731 95.772C108.744 96.7598 109.143 97.7032 109.841 98.4017C110.54 99.1003 111.483 99.4988 112.471 99.5127Z" fill="url(#paint0_linear_2288_5776)"/>
<path d="M67.5125 99.5128C68.2567 99.5127 68.9841 99.2919 69.6025 98.8781C70.221 98.4643 70.7027 97.8762 70.9867 97.1884C71.2706 96.5005 71.344 95.7439 71.1975 95.0143C71.051 94.2847 70.6913 93.6151 70.1638 93.0901C69.6364 92.5652 68.965 92.2087 68.2348 92.0657C67.5045 91.9227 66.7482 91.9996 66.0617 92.2869C65.3753 92.5741 64.7895 93.0586 64.3787 93.6791C63.9678 94.2995 63.7504 95.0279 63.7539 95.7721C63.7769 96.76 64.1808 97.7009 64.8812 98.398C65.5817 99.0952 66.5245 99.4946 67.5125 99.5128Z" fill="url(#paint1_linear_2288_5776)"/>
<path d="M84.3343 124.677C84.8519 124.632 85.3666 124.793 85.7661 125.125C85.9838 125.311 86.1657 125.536 86.3031 125.787C86.3995 126.007 86.5421 126.204 86.7212 126.365C86.9003 126.526 87.1117 126.646 87.3412 126.718C87.5877 126.784 87.8492 126.767 88.0853 126.67C88.3214 126.573 88.519 126.401 88.6477 126.181C89.3994 124.928 88.1108 123.532 87.1264 122.87C86.6195 122.537 86.0513 122.309 85.4551 122.198C84.859 122.087 84.2467 122.097 83.6542 122.225C83.4913 122.269 83.3387 122.344 83.2052 122.447C83.0717 122.55 82.9601 122.679 82.8768 122.825C82.7935 122.972 82.7403 123.134 82.7201 123.301C82.6999 123.468 82.7132 123.638 82.7593 123.8C82.8589 124.121 83.0781 124.391 83.3713 124.554C83.6646 124.717 84.0094 124.761 84.3343 124.677Z" fill="url(#paint2_linear_2288_5776)"/>
<path d="M96.3462 122.225C95.7507 122.097 95.1357 122.088 94.5367 122.199C93.9378 122.309 93.3666 122.537 92.8561 122.87C91.8717 123.532 90.583 124.928 91.3347 126.181C91.4707 126.399 91.672 126.568 91.9098 126.664C92.1477 126.761 92.41 126.779 92.6592 126.718C93.0808 126.57 93.4319 126.27 93.6436 125.877C93.7872 125.593 93.9813 125.338 94.2163 125.125C94.6241 124.795 95.1432 124.635 95.666 124.677C95.827 124.722 95.9953 124.735 96.1611 124.714C96.3269 124.694 96.4871 124.641 96.6326 124.559C96.778 124.476 96.9058 124.366 97.0087 124.235C97.1115 124.103 97.1875 123.952 97.2321 123.791C97.2768 123.63 97.2893 123.462 97.2689 123.296C97.2486 123.131 97.1958 122.97 97.1135 122.825C97.0312 122.679 96.9211 122.552 96.7895 122.449C96.6578 122.346 96.5072 122.27 96.3462 122.225Z" fill="url(#paint3_linear_2288_5776)"/>
<path d="M82.5461 129.241C84.8226 130.673 87.484 131.37 90.1699 131.239C92.8558 131.108 95.4365 130.154 97.5625 128.508C98.01 128.15 97.4193 127.38 96.954 127.72C94.9595 129.191 92.5738 130.037 90.0984 130.152C87.623 130.266 85.1692 129.644 83.0473 128.364C82.4924 128.024 81.9913 128.901 82.5461 129.241Z" fill="url(#paint4_linear_2288_5776)"/>
<path d="M114.333 113.044C113.115 113.044 111.925 112.683 110.912 112.006C109.9 111.33 109.11 110.368 108.644 109.243C108.178 108.118 108.057 106.88 108.294 105.686C108.532 104.491 109.118 103.394 109.979 102.533C110.84 101.672 111.937 101.086 113.132 100.848C114.326 100.611 115.564 100.733 116.689 101.199C117.814 101.665 118.775 102.454 119.452 103.466C120.129 104.479 120.49 105.669 120.49 106.887C120.471 108.514 119.816 110.069 118.666 111.22C117.515 112.37 115.96 113.025 114.333 113.044Z" fill="#E0435B"/>
<path d="M65.542 113.044C64.3235 113.047 63.1314 112.689 62.1165 112.015C61.1017 111.34 60.3098 110.38 59.841 109.255C59.3723 108.131 59.2478 106.892 59.4833 105.697C59.7189 104.501 60.3038 103.402 61.1642 102.54C62.0245 101.677 63.1215 101.088 64.3163 100.849C65.5112 100.61 66.75 100.731 67.8761 101.197C69.0022 101.662 69.9648 102.451 70.6421 103.464C71.3194 104.477 71.681 105.668 71.681 106.887C71.6625 108.511 71.0103 110.063 69.8635 111.214C68.7167 112.364 67.166 113.02 65.542 113.044Z" fill="#E0435B"/>
<path d="M153.279 70.8044C152.434 66.4374 150.703 62.2898 148.193 58.6173C145.684 54.9447 142.449 51.8251 138.688 49.4506C134.926 47.0761 130.719 45.4971 126.324 44.811C121.929 44.1248 117.44 44.3459 113.134 45.4608C108.06 47.2187 103.769 50.7111 101.017 55.3226C98.8263 58.6552 97.5885 62.5235 97.4375 66.5088C97.4375 70.6075 100.677 73.9007 103.899 76.0127C107.12 78.1246 111.792 79.9323 115.855 79.0195C117.931 78.5363 118.682 77.2297 119.899 75.5473C121.976 72.6836 123.98 69.999 127.703 69.3725C132.195 68.6208 135.65 72.3615 137.028 76.2811C137.75 78.3967 138.038 80.6363 137.875 82.8658C137.712 85.0953 137.102 87.2691 136.079 89.2572C132.947 95.1635 124.678 96.8101 118.7 95.0024C118.617 94.982 118.529 94.9863 118.447 95.0147C118.366 95.0431 118.294 95.0944 118.241 95.1625C118.188 95.2306 118.156 95.3125 118.149 95.3984C118.141 95.4843 118.159 95.5706 118.199 95.6468C122.584 103.88 135.739 103.379 142.182 98.0809C146.113 94.7813 149.178 90.5718 151.112 85.8182C153.046 81.0647 153.79 75.9108 153.279 70.8044Z" fill="#96CBEB"/>
<path d="M126.182 96.2912C126.528 96.9507 126.63 97.7117 126.468 98.4389C126.389 98.7521 126.256 99.0489 126.074 99.316C125.86 99.6023 125.627 99.7455 125.573 100.103C125.56 100.158 125.559 100.215 125.571 100.27C125.582 100.326 125.606 100.377 125.64 100.422C125.675 100.467 125.719 100.503 125.769 100.529C125.819 100.554 125.875 100.568 125.931 100.569C126.826 100.569 127.345 99.2444 127.471 98.4926C127.577 98.0212 127.576 97.5319 127.467 97.061C127.359 96.5901 127.146 96.1496 126.844 95.7721C126.504 95.3963 126.021 95.8795 126.182 96.2733V96.2912Z" fill="url(#paint5_linear_2288_5776)"/>
<path d="M130.996 94.6087C130.817 95.3963 131.927 96.1122 132.267 96.7923C132.569 97.4353 132.74 98.1319 132.771 98.8416C132.801 99.5513 132.691 100.26 132.446 100.927C132.231 101.553 133.215 101.822 133.43 101.195C133.863 100.029 133.923 98.7569 133.602 97.5548C133.282 96.3527 132.596 95.2797 131.64 94.4835C131.574 94.4403 131.496 94.4174 131.417 94.4174C131.337 94.4174 131.259 94.4403 131.193 94.4835C131.193 94.4835 131.032 94.4835 131.032 94.6087H130.996Z" fill="url(#paint6_linear_2288_5776)"/>
<path d="M134.755 92.7653C136.026 93.2299 137.172 93.9835 138.102 94.9667C138.872 96.0649 139.475 97.2712 139.891 98.5463C140.106 98.9759 140.643 98.7074 140.679 98.3316C140.611 96.8274 139.97 95.4061 138.889 94.3582C137.909 93.1563 136.554 92.3181 135.041 91.9778C134.612 91.9778 134.236 92.5505 134.719 92.7653H134.755Z" fill="url(#paint7_linear_2288_5776)"/>
<path d="M136.991 89.0425C138.771 89.0948 140.539 89.3653 142.253 89.8479C143.139 90.1666 143.915 90.7316 144.49 91.4766C144.974 92.1388 145.099 92.8905 145.511 93.5707C145.532 93.6296 145.571 93.6807 145.622 93.7167C145.673 93.7528 145.734 93.7721 145.797 93.7721C145.86 93.7721 145.921 93.7528 145.972 93.7167C146.023 93.6807 146.062 93.6296 146.083 93.5707C146.62 91.9419 144.956 90.2237 143.667 89.4541C141.624 88.3625 139.274 87.9845 136.991 88.3803C136.633 88.3803 136.633 89.0425 136.991 89.1141V89.0425Z" fill="url(#paint8_linear_2288_5776)"/>
<path d="M138.493 84.2637C140.437 83.538 142.558 83.4323 144.564 83.9611C146.57 84.4899 148.363 85.6273 149.697 87.2168C149.77 87.2855 149.865 87.3263 149.965 87.3323C150.066 87.3382 150.165 87.3088 150.246 87.2493C150.326 87.1897 150.384 87.1037 150.408 87.0063C150.432 86.9088 150.421 86.806 150.377 86.7157C149.115 84.7531 147.159 83.3387 144.899 82.7548C142.64 82.1709 140.244 82.4604 138.189 83.5656C138.12 83.6196 138.072 83.6945 138.051 83.7789C138.03 83.8632 138.037 83.9522 138.072 84.0319C138.107 84.1116 138.167 84.1775 138.243 84.2194C138.319 84.2614 138.407 84.2769 138.493 84.2637Z" fill="url(#paint9_linear_2288_5776)"/>
<path d="M138.547 80.5409C139.191 80.5396 139.818 80.3327 140.337 79.9502C141.636 79.2494 143.047 78.7772 144.507 78.5542C147.245 78.1247 149.393 79.0196 152.006 79.3954C152.275 79.3954 152.597 79.0733 152.31 78.8585C150.306 77.2119 146.941 77.0687 144.435 77.534C142.646 77.8025 139.191 78.5363 138.547 80.4693V80.5409Z" fill="url(#paint10_linear_2288_5776)"/>
<path d="M137.492 75.0284C138.858 73.0087 140.647 71.3108 142.736 70.0527C144.124 69.3883 145.632 69.0109 147.17 68.9433C148.708 68.8756 150.243 69.119 151.685 69.659C152.311 69.8737 152.58 68.8894 151.953 68.6746C146.763 66.8848 138.673 68.6746 136.973 74.7241C136.973 75.0105 137.277 75.2789 137.492 75.0284Z" fill="url(#paint11_linear_2288_5776)"/>
<path d="M133.734 70.3033C135.792 68.5135 136.758 65.4171 138.691 63.3589C139.701 62.2757 140.865 61.347 142.146 60.6026C143.583 59.9737 145.067 59.459 146.584 59.0634C146.655 59.0464 146.717 59.0063 146.762 58.9495C146.807 58.8927 146.831 58.8225 146.831 58.7501C146.831 58.6778 146.807 58.6076 146.762 58.5508C146.717 58.494 146.655 58.4539 146.584 58.4369C143.703 58.0611 140.571 60.2267 138.62 62.1418C136.669 64.0569 133.877 67.368 133.555 70.2317C133.555 70.357 133.716 70.4107 133.805 70.3391L133.734 70.3033Z" fill="url(#paint12_linear_2288_5776)"/>
<path d="M129.922 68.5672C130.566 67.5503 130.993 66.4106 131.175 65.2203C131.659 63.2076 132.323 61.2427 133.161 59.3497C134.617 56.2424 136.645 53.4372 139.139 51.0809C139.224 50.9862 139.269 50.863 139.266 50.7361C139.264 50.6092 139.213 50.4881 139.124 50.3973C139.036 50.3064 138.916 50.2525 138.789 50.2465C138.662 50.2405 138.538 50.2829 138.441 50.365C135.887 52.7885 133.806 55.6651 132.302 58.8486C131.57 60.3936 130.971 61.9983 130.512 63.6453C129.868 65.184 129.574 66.8471 129.653 68.5135C129.662 68.5327 129.675 68.549 129.693 68.5604C129.71 68.5719 129.731 68.578 129.752 68.578C129.773 68.578 129.793 68.5719 129.81 68.5604C129.828 68.549 129.842 68.5327 129.85 68.5135L129.922 68.5672Z" fill="url(#paint13_linear_2288_5776)"/>
<path d="M126.145 69.1578C126.449 67.5252 126.449 65.8505 126.145 64.2179C125.984 62.2671 125.841 60.2983 125.787 58.3295C125.586 54.2517 126.095 50.17 127.291 46.2663C127.487 45.6577 126.521 45.4072 126.324 45.9978C125.131 49.8472 124.617 53.8744 124.803 57.9C124.803 60.0119 125.017 62.1239 125.196 64.2179C125.188 65.9099 125.485 67.5894 126.073 69.1757H126.217L126.145 69.1578Z" fill="url(#paint14_linear_2288_5776)"/>
<path d="M124.408 69.3009C120.829 66.8668 119.039 63.0903 117.464 59.2065C115.683 55.1469 115.004 50.6898 115.495 46.2841C115.495 45.6577 114.618 45.3713 114.529 46.0157C113.946 50.9104 114.746 55.8704 116.837 60.334C118.054 63.1619 120.417 69.7305 124.265 69.8737C124.329 69.8747 124.391 69.8543 124.442 69.8158C124.493 69.7773 124.53 69.7229 124.546 69.6611C124.563 69.5994 124.558 69.5339 124.533 69.4751C124.508 69.4164 124.464 69.3676 124.408 69.3367V69.3009Z" fill="url(#paint15_linear_2288_5776)"/>
<path d="M122.172 71.592C117.429 71.592 113.223 66.8311 110.556 63.2157C107.995 59.7949 106.484 55.7032 106.207 51.4388C106.207 50.8124 105.205 50.7945 105.223 51.4388C105.472 56.3102 107.294 60.9696 110.413 64.7191C113.044 68.0303 117.572 73.1133 122.28 72.4153C122.763 72.4153 122.62 71.592 122.172 71.592Z" fill="url(#paint16_linear_2288_5776)"/>
<path d="M119.702 74.7778C117.428 75.0858 115.116 74.9705 112.883 74.4377C110.411 73.6231 108.115 72.3478 106.118 70.6791C104.497 69.3657 103.111 67.786 102.019 66.0078C101.07 64.1579 100.221 62.2579 99.4777 60.3162C99.4428 60.2448 99.3841 60.1879 99.3116 60.1553C99.2392 60.1227 99.1576 60.1165 99.0811 60.1378C99.0045 60.159 98.9379 60.2064 98.8926 60.2717C98.8474 60.337 98.8264 60.416 98.8333 60.4952C98.8333 64.9339 102.807 69.4442 106.172 71.9857C109.751 74.7062 115.353 77.3551 119.899 75.3684C119.956 75.331 119.999 75.2767 120.023 75.2132C120.047 75.1497 120.05 75.0802 120.033 75.0148C120.015 74.9493 119.977 74.8911 119.924 74.8485C119.871 74.806 119.806 74.7812 119.738 74.7778H119.702Z" fill="url(#paint17_linear_2288_5776)"/>
<path d="M80.7193 58.7054C78.6523 53.7989 75.0468 49.697 70.4458 47.018C65.4688 44.5207 59.8091 43.7284 54.3376 44.7628C40.5562 46.7137 28.9941 56.6829 26.739 70.697C26.1948 75.8135 26.9137 80.9854 28.8327 85.7596C30.7518 90.5337 33.8123 94.7644 37.7462 98.0809C44.1895 103.45 57.434 103.88 61.7295 95.6468C61.7699 95.5706 61.7874 95.4843 61.7799 95.3984C61.7725 95.3125 61.7403 95.2306 61.6874 95.1625C61.6344 95.0944 61.5629 95.0431 61.4815 95.0147C61.4001 94.9863 61.3122 94.9821 61.2284 95.0025C55.859 96.5954 49.0398 95.5036 45.2097 91.2439C40.2698 85.7313 40.9858 75.1357 46.9995 70.6075C48.5121 69.6014 50.3284 69.1545 52.1352 69.344C53.942 69.5336 55.6261 70.3475 56.8971 71.6456C58.8658 73.5607 59.9576 76.5317 62.1054 78.1963C64.969 80.4156 69.9805 78.9838 72.8442 77.713C76.8097 76.198 80.0484 73.2281 81.9005 69.4083C83.225 66.0435 82.0437 61.8733 80.7193 58.7054Z" fill="#96CBEB"/>
<path d="M53.1567 95.79C52.8621 96.1576 52.6518 96.5853 52.5405 97.043C52.4292 97.5006 52.4196 97.9771 52.5123 98.4389C52.6555 99.1906 53.1566 100.515 54.0694 100.515C54.1258 100.514 54.1812 100.5 54.2316 100.475C54.2819 100.45 54.3259 100.413 54.3603 100.368C54.3947 100.324 54.4185 100.272 54.4302 100.217C54.4418 100.162 54.4408 100.105 54.4274 100.05C54.3571 99.7887 54.2144 99.5529 54.0158 99.3696C53.785 99.0806 53.62 98.7446 53.5325 98.3852C53.3688 97.654 53.4637 96.8887 53.801 96.2196C53.98 95.8258 53.4967 95.3426 53.1567 95.7184V95.79Z" fill="url(#paint18_linear_2288_5776)"/>
<path d="M48.9491 94.5372H48.8238C48.7572 94.494 48.6795 94.4711 48.6001 94.4711C48.5207 94.4711 48.443 94.494 48.3764 94.5372C47.4262 95.3261 46.7403 96.3869 46.4108 97.5772C46.0812 98.7674 46.1238 100.03 46.5329 101.195C46.7477 101.822 47.7321 101.553 47.5173 100.927C47.2526 100.171 47.1603 99.366 47.247 98.5701C47.3337 97.7742 47.5973 97.0078 48.0184 96.327C48.0184 96.327 49.5398 94.8056 48.9849 94.5372H48.9491Z" fill="url(#paint19_linear_2288_5776)"/>
<path d="M44.9074 91.9777C43.398 92.3269 42.0457 93.1635 41.0593 94.3581C39.9855 95.4112 39.3467 96.8294 39.2695 98.3315C39.2695 98.7073 39.8602 98.9758 40.0749 98.5462C40.4951 97.2727 41.098 96.0669 41.8647 94.9666C42.7997 93.9893 43.944 93.2367 45.2117 92.7652C45.6949 92.5683 45.319 91.9061 44.8716 91.9777H44.9074Z" fill="url(#paint20_linear_2288_5776)"/>
<path d="M42.9535 88.3087C40.6649 87.913 38.3097 88.2909 36.2597 89.3826C34.9889 90.1701 33.3244 91.8704 33.8613 93.4991C33.8825 93.5581 33.9214 93.6091 33.9726 93.6452C34.0239 93.6812 34.085 93.7006 34.1477 93.7006C34.2104 93.7006 34.2715 93.6812 34.3228 93.6452C34.374 93.6091 34.4129 93.5581 34.4341 93.4991C34.7741 92.9443 34.8636 92.3179 35.1858 91.7093C35.7807 90.7903 36.6611 90.0923 37.6915 89.7226C39.4112 89.2824 41.1783 89.054 42.9535 89.0425C43.3115 89.0425 43.3115 88.3624 42.9535 88.3087Z" fill="url(#paint21_linear_2288_5776)"/>
<path d="M41.7899 83.5657C39.7374 82.4615 37.3438 82.1725 35.0875 82.7565C32.8312 83.3405 30.8784 84.7544 29.6193 86.7157C29.5864 86.7592 29.5624 86.8087 29.5486 86.8615C29.5348 86.9143 29.5316 86.9692 29.5391 87.0232C29.5466 87.0772 29.5646 87.1293 29.5922 87.1763C29.6198 87.2233 29.6563 87.2645 29.6998 87.2974C29.7433 87.3303 29.7928 87.3543 29.8456 87.3681C29.8984 87.3818 29.9533 87.3851 30.0073 87.3776C30.0614 87.3701 30.1134 87.3521 30.1604 87.3245C30.2075 87.2969 30.2486 87.2603 30.2815 87.2169C31.6163 85.6237 33.4127 84.4839 35.4227 83.955C37.4328 83.426 39.5574 83.5339 41.5035 84.2637C41.5961 84.3017 41.7 84.3013 41.7923 84.2627C41.8846 84.2241 41.9578 84.1504 41.9957 84.0579C42.0337 83.9653 42.0334 83.8614 41.9948 83.7691C41.9562 83.6768 41.8825 83.6036 41.7899 83.5657Z" fill="url(#paint22_linear_2288_5776)"/>
<path d="M41.5046 80.5409C40.8424 78.59 37.406 77.8741 35.5983 77.6056C33.1463 77.2297 29.7277 77.2834 27.7232 78.9301C27.4547 79.1448 27.7232 79.5028 28.0453 79.467C30.6405 79.0911 32.8062 78.1962 35.5267 78.6258C36.8724 78.8211 38.1778 79.2321 39.3927 79.8429C40.1802 80.2366 40.5739 80.6304 41.4509 80.6125L41.5046 80.5409Z" fill="url(#paint23_linear_2288_5776)"/>
<path d="M42.9544 74.7241C41.2541 68.6925 33.1642 66.8848 27.9559 68.6746C27.3474 68.8894 27.6158 69.8738 28.2423 69.659C29.6836 69.1191 31.2192 68.8756 32.7569 68.9433C34.2946 69.0109 35.8029 69.3883 37.1912 70.0528C39.2764 71.3153 41.065 73.0124 42.4354 75.0284C42.6501 75.279 43.026 75.0284 42.9544 74.7241Z" fill="url(#paint24_linear_2288_5776)"/>
<path d="M46.5335 70.1959C46.2292 67.3144 43.4908 64.0569 41.4863 62.106C39.4817 60.1552 36.3853 58.0253 33.5217 58.4012C33.4468 58.4047 33.3756 58.4343 33.3202 58.4847C33.2648 58.5351 33.2287 58.6032 33.2181 58.6774C33.2075 58.7516 33.2231 58.8271 33.2621 58.891C33.3012 58.9549 33.3613 59.0032 33.4322 59.0276C36.4927 60.1731 38.9806 60.8174 41.3431 63.3589C43.2761 65.4172 44.2426 68.4598 46.2829 70.3033C46.3724 70.3033 46.5514 70.3033 46.5335 70.1959Z" fill="url(#paint25_linear_2288_5776)"/>
<path d="M50.2762 68.5135C50.3522 66.9984 50.1019 65.4848 49.5424 64.0748C49.0905 62.2865 48.4919 60.5385 47.7526 58.8486C46.249 55.6651 44.1674 52.7884 41.6136 50.3649C41.1482 49.9175 40.4502 50.6334 40.8977 51.0809C43.3975 53.4364 45.4315 56.2416 46.8935 59.3497C47.6459 61.0838 48.2447 62.8805 48.6833 64.7191C48.8929 66.0861 49.3802 67.3957 50.1151 68.5672C50.1263 68.5857 50.142 68.601 50.1608 68.6117C50.1796 68.6223 50.2009 68.6279 50.2225 68.6279C50.2441 68.6279 50.2654 68.6223 50.2842 68.6117C50.303 68.601 50.3188 68.5857 50.3299 68.5672L50.2762 68.5135Z" fill="url(#paint26_linear_2288_5776)"/>
<path d="M53.9983 69.1757C54.5897 67.5907 54.881 65.9095 54.8574 64.2179C55.0543 62.1239 55.2154 60.0119 55.2691 57.9C55.4374 53.8713 54.9044 49.844 53.6941 45.9978C53.4972 45.4072 52.5486 45.6577 52.7455 46.2663C53.9352 50.171 54.4379 54.2528 54.231 58.3295C54.231 60.2983 54.052 62.2671 53.8731 64.2179C53.5779 65.8513 53.5779 67.5244 53.8731 69.1578H54.0162L53.9983 69.1757Z" fill="url(#paint27_linear_2288_5776)"/>
<path d="M55.7324 69.8021C59.5089 69.659 61.943 63.0904 63.1601 60.2625C65.2431 55.7963 66.0425 50.8387 65.4689 45.9441C65.3615 45.2998 64.4129 45.5862 64.4845 46.2126C64.9831 50.6184 64.3037 55.0776 62.5157 59.1349C60.8512 63.0904 59.0614 66.8669 55.5892 69.301C55.5333 69.3319 55.4893 69.3806 55.4643 69.4394C55.4393 69.4982 55.4346 69.5637 55.4511 69.6254C55.4675 69.6871 55.5042 69.7416 55.5551 69.7801C55.6061 69.8186 55.6685 69.839 55.7324 69.8379V69.8021Z" fill="url(#paint28_linear_2288_5776)"/>
<path d="M57.7195 72.4868C62.4088 73.1848 66.9549 68.1018 69.568 64.7907C72.6998 61.0468 74.528 56.3852 74.7763 51.5104C74.7763 50.866 73.8277 50.8839 73.7919 51.5104C73.5058 55.7728 71.9957 59.862 69.4427 63.2872C66.8117 66.9026 62.6415 71.5919 57.8269 71.5919C57.3795 71.5919 57.2363 72.3436 57.7195 72.4152V72.4868Z" fill="url(#paint29_linear_2288_5776)"/>
<path d="M60.1369 75.3684C64.6651 77.4267 70.2135 74.7062 73.8467 71.9857C77.48 69.2652 81.1133 64.9339 81.2028 60.4952C81.2098 60.416 81.1888 60.337 81.1436 60.2717C81.0983 60.2064 81.0316 60.159 80.9551 60.1378C80.8785 60.1165 80.797 60.1227 80.7245 60.1553C80.6521 60.1879 80.5933 60.2448 80.5585 60.3162C79.6278 62.106 79.1267 64.2001 78.017 66.0078C76.9148 67.7889 75.5165 69.3687 73.8825 70.6791C71.8849 72.3478 69.5893 73.6231 67.1171 74.4377C64.8844 74.9701 62.5726 75.0854 60.298 74.7778C60.2302 74.7812 60.1652 74.806 60.1124 74.8485C60.0595 74.8911 60.0214 74.9493 60.0035 75.0148C59.9857 75.0802 59.989 75.1497 60.0129 75.2132C60.0369 75.2767 60.0802 75.331 60.1369 75.3684Z" fill="url(#paint30_linear_2288_5776)"/>
<path d="M79.8448 75.9053C79.3928 76.7068 79.1719 77.6179 79.2067 78.5373C79.2414 79.4568 79.5305 80.3486 80.0416 81.1136C80.4978 81.9209 81.134 82.6122 81.9007 83.1336C82.6674 83.6551 83.544 83.9928 84.4624 84.1205C85.0173 84.1205 85.0173 83.4046 84.5877 83.2435C83.0817 82.7993 81.7739 81.8516 80.8828 80.5588C80.2479 79.0922 79.9483 77.5024 80.0058 75.9053C80.0058 75.9053 79.8985 75.7621 79.8448 75.9053Z" fill="url(#paint31_linear_2288_5776)"/>
<path d="M84.8169 76.1739C84.4589 78.4469 86.6067 81.06 88.2175 82.4919C89.8283 83.9237 92.173 85.2481 94.446 84.2816C94.9292 84.0669 94.5892 83.2436 94.0701 83.4225C91.6897 84.2459 89.4167 82.5276 87.9132 80.7915C86.6783 79.3955 86.1234 77.5341 84.978 76.2097C84.9706 76.1945 84.9592 76.1818 84.945 76.1728C84.9307 76.1639 84.9142 76.1592 84.8974 76.1592C84.8806 76.1592 84.8641 76.1639 84.8499 76.1728C84.8357 76.1818 84.8242 76.1945 84.8169 76.2097V76.1739Z" fill="url(#paint32_linear_2288_5776)"/>
<path d="M94.4644 79.4492C95.9321 80.7378 99.1537 82.3128 100.836 80.5051C101.105 80.2188 100.836 79.6639 100.424 79.8071C99.5574 80.2065 98.5857 80.3194 97.6503 80.1293C96.6861 79.7763 95.7523 79.3453 94.8582 78.8406C94.4823 78.6616 94.017 79.127 94.3928 79.4492H94.4644Z" fill="url(#paint33_linear_2288_5776)"/>
<path d="M84.6575 21.1733C84.6719 21.1424 84.6794 21.1088 84.6794 21.0748C84.6794 21.0408 84.6719 21.0072 84.6575 20.9764C84.1206 19.9562 82.2055 19.7593 81.239 19.5803C79.6461 19.2582 78.0532 19.0792 76.4603 18.8644L75.6727 18.757C75.5654 18.757 75.3864 18.6496 75.4043 18.757C75.1954 18.4098 75.0329 18.0368 74.921 17.6474C74.2588 16.1081 73.6145 14.551 72.9523 13.0118C72.6122 12.2422 72.2542 11.4547 71.8963 10.7029C71.5383 9.95122 71.3951 9.34269 70.8761 9.11002C69.7127 8.60887 68.9073 11.4725 68.5851 12.1706C67.8513 13.8351 67.1533 15.5175 66.4374 17.182C66.2763 17.5221 66.0257 18.5423 65.7215 18.7749C65.2155 18.8222 64.7061 18.8222 64.2001 18.7749L62.0703 18.9539C60.8624 19.0379 59.6645 19.2296 58.4907 19.5266C57.7748 19.7414 56.5219 20.0815 56.7009 21.048C56.8799 22.0145 58.0253 22.6051 58.5802 23.0525C59.4682 23.7864 60.4072 24.4563 61.3902 25.0571C61.9172 25.2861 62.4258 25.5554 62.9115 25.8625C63.4663 26.2921 63.1979 26.7395 63.0547 27.3123C62.7325 28.5114 62.3924 29.7285 62.1061 30.8919C61.8423 31.9181 61.6332 32.9577 61.4796 34.0061C61.2926 34.6977 61.2926 35.4265 61.4796 36.1181C62.2135 37.6752 65.0592 34.9547 65.7036 34.4357C66.3479 33.9166 67.386 33.0933 68.1914 32.3953L69.3727 31.3572C69.5874 31.1424 70.1602 30.3907 70.4286 30.337C70.6971 30.2833 72.2184 31.751 72.4869 32.1268C73.3281 32.8427 74.2767 33.5408 75.0821 34.2209C76.1967 35.3609 77.6116 36.1615 79.1629 36.5297C80.541 36.655 79.8967 34.5788 79.6998 33.7555C79.2702 31.7868 78.6259 29.8717 78.0532 27.9387C77.9279 27.527 77.7668 27.0975 77.6773 26.6679C77.5878 26.2384 77.6773 26.2384 77.9816 26.0057C78.7512 25.5404 79.7714 25.254 80.4694 24.8602C81.7581 24.2159 84.3175 23.0704 84.6754 21.4417C84.7006 21.4006 84.7124 21.3527 84.7092 21.3046C84.706 21.2565 84.688 21.2106 84.6575 21.1733Z" fill="#FFF896"/>
<path d="M135.327 147.3C133.135 147.136 130.937 147.088 128.74 147.157L130.53 145.367C131.579 144.473 132.485 143.423 133.215 142.253C133.278 142.142 133.304 142.015 133.29 141.888C133.277 141.761 133.224 141.642 133.139 141.547C133.054 141.452 132.941 141.386 132.817 141.359C132.692 141.332 132.562 141.344 132.445 141.394C131.258 142.108 130.185 142.995 129.259 144.025L127.362 145.815V143.184C127.478 141.804 127.375 140.415 127.058 139.067C127.02 138.943 126.943 138.834 126.838 138.757C126.733 138.679 126.606 138.638 126.476 138.638C126.346 138.638 126.219 138.679 126.115 138.757C126.01 138.834 125.933 138.943 125.895 139.067C125.557 140.412 125.424 141.8 125.501 143.184C125.501 144.079 125.501 144.974 125.501 145.851L123.711 143.953C122.81 142.899 121.754 141.988 120.579 141.251C120.462 141.184 120.326 141.158 120.193 141.177C120.06 141.196 119.937 141.258 119.843 141.354C119.749 141.45 119.689 141.575 119.673 141.708C119.658 141.842 119.687 141.977 119.756 142.092C120.465 143.277 121.352 144.345 122.387 145.26L124.176 147.175H121.492C120.111 147.067 118.722 147.176 117.375 147.497C117.251 147.536 117.142 147.613 117.064 147.717C116.987 147.822 116.945 147.949 116.945 148.079C116.945 148.209 116.987 148.336 117.064 148.441C117.142 148.545 117.251 148.622 117.375 148.661C118.719 149.001 120.108 149.127 121.492 149.037H124.105C122.494 150.558 120.883 152.079 119.451 153.726C119.318 153.902 119.253 154.122 119.269 154.342C119.285 154.563 119.381 154.77 119.539 154.926C119.696 155.081 119.905 155.174 120.126 155.187C120.347 155.2 120.565 155.132 120.74 154.997C122.387 153.618 123.926 152.043 125.447 150.486C125.447 152.67 125.322 154.871 125.447 157.019C125.489 157.226 125.6 157.412 125.764 157.545C125.927 157.679 126.131 157.752 126.342 157.752C126.553 157.752 126.757 157.679 126.92 157.545C127.083 157.412 127.195 157.226 127.237 157.019C127.434 154.871 127.398 152.688 127.38 150.504C128.883 152.097 130.387 153.69 132.016 155.104C132.19 155.24 132.409 155.308 132.63 155.295C132.85 155.282 133.059 155.189 133.217 155.033C133.374 154.878 133.47 154.67 133.486 154.45C133.502 154.229 133.438 154.01 133.304 153.833C131.908 152.133 130.351 150.647 128.866 149.126C131.049 149.126 133.233 149.251 135.398 149.126C135.64 149.117 135.869 149.011 136.033 148.833C136.198 148.655 136.285 148.42 136.275 148.177C136.266 147.935 136.161 147.707 135.983 147.542C135.805 147.378 135.569 147.291 135.327 147.3Z" fill="white"/>
<path d="M122.387 29.0305C122.978 29.0211 123.542 28.7839 123.962 28.3683C124.167 28.1638 124.329 27.921 124.439 27.6538C124.55 27.3866 124.607 27.1003 124.607 26.8111C124.608 26.2218 124.376 25.6558 123.962 25.2361C123.539 24.8286 122.975 24.5982 122.387 24.5918C121.799 24.5945 121.234 24.8255 120.812 25.2361C120.405 25.6599 120.174 26.2233 120.168 26.8111C120.175 27.3936 120.406 27.951 120.812 28.3683C121.234 28.7808 121.797 29.0175 122.387 29.0305Z" fill="white"/>
<path d="M94.8607 42.9552C95.4017 42.9513 95.9207 42.7399 96.3104 42.3646C96.5011 42.1749 96.6516 41.9488 96.7531 41.6997C96.8546 41.4507 96.9049 41.1837 96.9011 40.9148C96.8965 40.3735 96.6806 39.8553 96.2994 39.4708C95.9183 39.0863 95.402 38.8659 94.8607 38.8566C94.3195 38.8566 93.8006 39.0715 93.4179 39.4542C93.0353 39.8368 92.8203 40.3558 92.8203 40.8969C92.8249 41.4383 93.0408 41.9565 93.4219 42.341C93.8031 42.7255 94.3194 42.9459 94.8607 42.9552Z" fill="white"/>
<path d="M151.436 51.224C152.024 51.2176 152.588 50.9872 153.011 50.5797C153.33 50.2703 153.549 49.8723 153.639 49.4372C153.73 49.002 153.687 48.5498 153.518 48.1391C153.348 47.7284 153.059 47.3781 152.688 47.1335C152.317 46.889 151.881 46.7614 151.436 46.7674C150.849 46.7774 150.287 47.0073 149.861 47.4117C149.442 47.8361 149.204 48.4077 149.199 49.0047C149.213 49.592 149.454 50.1512 149.871 50.565C150.288 50.9787 150.849 51.2149 151.436 51.224Z" fill="white"/>
<path d="M147.156 109.804C147.746 109.799 148.311 109.562 148.727 109.143C149.142 108.723 149.376 108.157 149.376 107.567C149.371 106.978 149.136 106.414 148.722 105.996C148.307 105.578 147.745 105.339 147.156 105.33C146.572 105.344 146.017 105.585 145.609 106.004C145.201 106.422 144.972 106.983 144.973 107.567C144.986 108.156 145.226 108.717 145.643 109.134C146.06 109.55 146.621 109.79 147.21 109.804H147.156Z" fill="white"/>
<path d="M153.583 136.025C154.1 136.022 154.594 135.816 154.961 135.452C155.148 135.266 155.296 135.046 155.398 134.803C155.499 134.559 155.552 134.299 155.553 134.035C155.554 133.772 155.503 133.511 155.403 133.267C155.303 133.024 155.156 132.802 154.97 132.615C154.784 132.428 154.564 132.28 154.32 132.178C154.077 132.077 153.817 132.024 153.553 132.023C153.29 132.022 153.029 132.073 152.785 132.173C152.541 132.273 152.32 132.42 152.133 132.606C151.832 132.881 151.624 133.242 151.537 133.64C151.451 134.038 151.489 134.453 151.648 134.828C151.807 135.203 152.079 135.52 152.425 135.734C152.772 135.948 153.176 136.05 153.583 136.025Z" fill="white"/>
<path d="M98.0996 146.763C98.6541 146.757 99.1852 146.539 99.5851 146.155C99.9662 145.753 100.183 145.223 100.194 144.669C100.184 144.117 99.9609 143.59 99.5701 143.199C99.1794 142.808 98.6521 142.585 98.0996 142.575C97.5488 142.585 97.0234 142.809 96.6355 143.2C96.2477 143.591 96.028 144.119 96.0234 144.669C96.0325 145.219 96.2536 145.744 96.6405 146.134C97.0274 146.524 97.5502 146.75 98.0996 146.763Z" fill="white"/>
<path d="M85.1247 166.773H85.3216C85.597 166.775 85.87 166.722 86.125 166.617C86.3799 166.513 86.6117 166.359 86.8071 166.165C87.1943 165.767 87.4124 165.235 87.4156 164.679C87.4008 164.132 87.1841 163.609 86.8071 163.212C86.6129 163.016 86.3813 162.861 86.1261 162.757C85.8709 162.652 85.5973 162.6 85.3216 162.603H85.1247C84.852 162.602 84.5826 162.663 84.3372 162.782C84.0845 162.869 83.8571 163.016 83.6749 163.212C83.2946 163.6 83.0769 164.118 83.0664 164.661C83.0655 164.934 83.1189 165.204 83.2234 165.456C83.3278 165.708 83.4813 165.937 83.6749 166.129L84.1224 166.451C84.4351 166.641 84.7946 166.74 85.1605 166.738L85.1247 166.773Z" fill="white"/>
<path d="M59.5277 140.839C60.1435 140.832 60.7331 140.589 61.1743 140.159C61.3919 139.944 61.5642 139.687 61.681 139.405C61.7978 139.122 61.8568 138.818 61.8544 138.512C61.8406 137.901 61.5905 137.319 61.1566 136.889C60.7227 136.458 60.1389 136.213 59.5277 136.204C58.9165 136.208 58.3315 136.452 57.899 136.884C57.6811 137.095 57.5084 137.348 57.3915 137.628C57.2746 137.908 57.2159 138.209 57.2189 138.512C57.228 139.124 57.4736 139.707 57.9041 140.141C58.3347 140.575 58.9166 140.825 59.5277 140.839Z" fill="white"/>
<path d="M22.3915 128.955C23.0117 128.944 23.6054 128.701 24.056 128.275C24.49 127.829 24.7339 127.232 24.7361 126.61C24.7403 126.146 24.6055 125.691 24.349 125.304C24.0925 124.917 23.7261 124.616 23.2969 124.439C22.8676 124.261 22.3953 124.217 21.9405 124.31C21.4857 124.404 21.0693 124.632 20.7449 124.964C20.3038 125.399 20.0529 125.991 20.0469 126.61C20.0561 127.229 20.3061 127.82 20.7438 128.258C21.1815 128.696 21.7726 128.946 22.3915 128.955Z" fill="white"/>
<path d="M45.7285 111.54C46.2791 111.54 46.8072 111.322 47.1966 110.932C47.5859 110.543 47.8047 110.015 47.8047 109.464C47.7955 108.916 47.5738 108.394 47.1864 108.006C46.799 107.619 46.2763 107.397 45.7285 107.388C45.1779 107.388 44.6498 107.607 44.2604 107.996C43.8711 108.385 43.6523 108.913 43.6523 109.464C43.6616 110.012 43.8832 110.535 44.2706 110.922C44.658 111.309 45.1808 111.531 45.7285 111.54Z" fill="white"/>
<path d="M21.2261 88.8634C21.1802 88.3684 20.9503 87.9086 20.5818 87.5748C20.1679 87.1877 19.627 86.9649 19.0605 86.9484H18.4878C18.13 87.0509 17.8038 87.2417 17.5392 87.5032C17.2379 87.774 17.0257 88.1296 16.9306 88.5234V88.7919C16.8408 89.1865 16.8408 89.5963 16.9306 89.991C17.0341 90.372 17.2381 90.7182 17.5213 90.9933C17.944 91.4152 18.5169 91.6521 19.1142 91.6521C19.7114 91.6521 20.2843 91.4152 20.7071 90.9933C20.9852 90.7172 21.1831 90.3708 21.2798 89.991C21.3872 89.5985 21.3872 89.1844 21.2798 88.7919L21.2261 88.8634Z" fill="white"/>
<path d="M38.962 41.3801C39.3407 41.3801 39.711 41.2678 40.0259 41.0573C40.3409 40.8469 40.5863 40.5478 40.7313 40.1979C40.8762 39.8479 40.9141 39.4629 40.8402 39.0914C40.7664 38.7199 40.584 38.3787 40.3161 38.1108C40.0483 37.843 39.7071 37.6606 39.3356 37.5867C38.9641 37.5128 38.579 37.5508 38.2291 37.6957C37.8792 37.8407 37.5801 38.0861 37.3696 38.401C37.1592 38.716 37.0469 39.0862 37.0469 39.465C37.0561 39.9701 37.2608 40.4518 37.618 40.809C37.9751 41.1662 38.4569 41.3709 38.962 41.3801Z" fill="white"/>
<path d="M127.631 123.961C128.192 123.961 128.729 123.739 129.125 123.343C129.521 122.947 129.743 122.41 129.743 121.85C129.743 121.289 129.521 120.752 129.125 120.356C128.729 119.96 128.192 119.738 127.631 119.738C127.071 119.738 126.534 119.96 126.138 120.356C125.742 120.752 125.52 121.289 125.52 121.85C125.52 122.41 125.742 122.947 126.138 123.343C126.534 123.739 127.071 123.961 127.631 123.961Z" fill="#F7B9E7"/>
<path d="M168.579 93.8928C168.966 93.8514 169.323 93.6686 169.583 93.3795C169.843 93.0904 169.987 92.7154 169.987 92.3267C169.987 91.938 169.843 91.563 169.583 91.2739C169.323 90.9848 168.966 90.802 168.579 90.7606C168.193 90.802 167.835 90.9848 167.575 91.2739C167.316 91.563 167.172 91.938 167.172 92.3267C167.172 92.7154 167.316 93.0904 167.575 93.3795C167.835 93.6686 168.193 93.8514 168.579 93.8928Z" fill="#F7B9E7"/>
<path d="M44.2991 151.668H44.8718C45.2016 151.605 45.5209 151.497 45.8204 151.345C46.1279 151.159 46.382 150.896 46.5584 150.582C46.7348 150.269 46.8274 149.915 46.8274 149.556C46.8274 149.196 46.7348 148.842 46.5584 148.529C46.382 148.215 46.1279 147.952 45.8204 147.766C45.5209 147.614 45.2016 147.506 44.8718 147.444H44.2991C43.7155 147.445 43.1561 147.677 42.742 148.088C42.3417 148.509 42.112 149.064 42.0977 149.645C42.105 150.227 42.3356 150.785 42.742 151.202C42.9421 151.412 43.184 151.578 43.4522 151.689C43.7204 151.8 44.0089 151.854 44.2991 151.847V151.668Z" fill="#F7B9E7"/>
<path d="M19.9023 58.6874C20.4797 58.681 21.0318 58.4499 21.4415 58.0431C21.6478 57.8437 21.8114 57.6044 21.9222 57.3398C22.0329 57.0752 22.0886 56.7907 22.0859 56.5039C22.0866 56.2173 22.0299 55.9335 21.9193 55.6691C21.8086 55.4048 21.6462 55.1652 21.4415 54.9646C21.0318 54.5578 20.4797 54.3267 19.9023 54.3203C19.3257 54.3304 18.7749 54.561 18.3631 54.9646C17.9563 55.3744 17.7251 55.9265 17.7188 56.5039C17.7234 57.0815 17.955 57.6342 18.3635 58.0427C18.772 58.4512 19.3246 58.6827 19.9023 58.6874Z" fill="#F7B9E7"/>
</g>
<defs>
<linearGradient id="paint0_linear_2288_5776" x1="108.73" y1="95.7528" x2="116.248" y2="95.7528" gradientUnits="userSpaceOnUse">
<stop stop-color="#E46125"/>
<stop offset="0.5" stop-color="#C91A44"/>
<stop offset="1" stop-color="#A12FA3"/>
</linearGradient>
<linearGradient id="paint1_linear_2288_5776" x1="63.7533" y1="95.7528" x2="71.2711" y2="95.7528" gradientUnits="userSpaceOnUse">
<stop stop-color="#E46125"/>
<stop offset="0.5" stop-color="#C91A44"/>
<stop offset="1" stop-color="#A12FA3"/>
</linearGradient>
<linearGradient id="paint2_linear_2288_5776" x1="82.7105" y1="124.439" x2="88.8731" y2="124.439" gradientUnits="userSpaceOnUse">
<stop stop-color="#E46125"/>
<stop offset="0.5" stop-color="#C91A44"/>
<stop offset="1" stop-color="#A12FA3"/>
</linearGradient>
<linearGradient id="paint3_linear_2288_5776" x1="91.1089" y1="124.437" x2="97.2784" y2="124.437" gradientUnits="userSpaceOnUse">
<stop stop-color="#E46125"/>
<stop offset="0.5" stop-color="#C91A44"/>
<stop offset="1" stop-color="#A12FA3"/>
</linearGradient>
<linearGradient id="paint4_linear_2288_5776" x1="82.3035" y1="129.444" x2="97.7216" y2="129.444" gradientUnits="userSpaceOnUse">
<stop stop-color="#E46125"/>
<stop offset="0.5" stop-color="#C91A44"/>
<stop offset="1" stop-color="#A12FA3"/>
</linearGradient>
<linearGradient id="paint5_linear_2288_5776" x1="125.562" y1="98.1018" x2="127.549" y2="98.1018" gradientUnits="userSpaceOnUse">
<stop stop-color="#E46125"/>
<stop offset="0.5" stop-color="#C91A44"/>
<stop offset="1" stop-color="#A12FA3"/>
</linearGradient>
<linearGradient id="paint6_linear_2288_5776" x1="130.976" y1="97.9833" x2="133.805" y2="97.9833" gradientUnits="userSpaceOnUse">
<stop stop-color="#E46125"/>
<stop offset="0.5" stop-color="#C91A44"/>
<stop offset="1" stop-color="#A12FA3"/>
</linearGradient>
<linearGradient id="paint7_linear_2288_5776" x1="134.492" y1="95.3709" x2="140.679" y2="95.3709" gradientUnits="userSpaceOnUse">
<stop stop-color="#E46125"/>
<stop offset="0.5" stop-color="#C91A44"/>
<stop offset="1" stop-color="#A12FA3"/>
</linearGradient>
<linearGradient id="paint8_linear_2288_5776" x1="136.722" y1="90.9988" x2="146.187" y2="90.9988" gradientUnits="userSpaceOnUse">
<stop stop-color="#E46125"/>
<stop offset="0.5" stop-color="#C91A44"/>
<stop offset="1" stop-color="#A12FA3"/>
</linearGradient>
<linearGradient id="paint9_linear_2288_5776" x1="138.038" y1="84.8955" x2="150.42" y2="84.8955" gradientUnits="userSpaceOnUse">
<stop stop-color="#E46125"/>
<stop offset="0.5" stop-color="#C91A44"/>
<stop offset="1" stop-color="#A12FA3"/>
</linearGradient>
<linearGradient id="paint10_linear_2288_5776" x1="138.546" y1="78.9215" x2="152.422" y2="78.9215" gradientUnits="userSpaceOnUse">
<stop stop-color="#E46125"/>
<stop offset="0.5" stop-color="#C91A44"/>
<stop offset="1" stop-color="#A12FA3"/>
</linearGradient>
<linearGradient id="paint11_linear_2288_5776" x1="136.971" y1="71.5694" x2="152.31" y2="71.5694" gradientUnits="userSpaceOnUse">
<stop stop-color="#E46125"/>
<stop offset="0.5" stop-color="#C91A44"/>
<stop offset="1" stop-color="#A12FA3"/>
</linearGradient>
<linearGradient id="paint12_linear_2288_5776" x1="133.554" y1="64.3804" x2="146.831" y2="64.3804" gradientUnits="userSpaceOnUse">
<stop stop-color="#E46125"/>
<stop offset="0.5" stop-color="#C91A44"/>
<stop offset="1" stop-color="#A12FA3"/>
</linearGradient>
<linearGradient id="paint13_linear_2288_5776" x1="129.64" y1="59.4087" x2="139.266" y2="59.4087" gradientUnits="userSpaceOnUse">
<stop stop-color="#E46125"/>
<stop offset="0.5" stop-color="#C91A44"/>
<stop offset="1" stop-color="#A12FA3"/>
</linearGradient>
<linearGradient id="paint14_linear_2288_5776" x1="124.765" y1="57.4146" x2="127.317" y2="57.4146" gradientUnits="userSpaceOnUse">
<stop stop-color="#E46125"/>
<stop offset="0.5" stop-color="#C91A44"/>
<stop offset="1" stop-color="#A12FA3"/>
</linearGradient>
<linearGradient id="paint15_linear_2288_5776" x1="114.343" y1="57.7582" x2="124.556" y2="57.7582" gradientUnits="userSpaceOnUse">
<stop stop-color="#E46125"/>
<stop offset="0.5" stop-color="#C91A44"/>
<stop offset="1" stop-color="#A12FA3"/>
</linearGradient>
<linearGradient id="paint16_linear_2288_5776" x1="105.221" y1="61.7174" x2="122.581" y2="61.7174" gradientUnits="userSpaceOnUse">
<stop stop-color="#E46125"/>
<stop offset="0.5" stop-color="#C91A44"/>
<stop offset="1" stop-color="#A12FA3"/>
</linearGradient>
<linearGradient id="paint17_linear_2288_5776" x1="98.8304" y1="68.0903" x2="120.044" y2="68.0903" gradientUnits="userSpaceOnUse">
<stop stop-color="#E46125"/>
<stop offset="0.5" stop-color="#C91A44"/>
<stop offset="1" stop-color="#A12FA3"/>
</linearGradient>
<linearGradient id="paint18_linear_2288_5776" x1="52.4491" y1="98.048" x2="54.4382" y2="98.048" gradientUnits="userSpaceOnUse">
<stop stop-color="#E46125"/>
<stop offset="0.5" stop-color="#C91A44"/>
<stop offset="1" stop-color="#A12FA3"/>
</linearGradient>
<linearGradient id="paint19_linear_2288_5776" x1="46.1912" y1="98.0101" x2="49.1067" y2="98.0101" gradientUnits="userSpaceOnUse">
<stop stop-color="#E46125"/>
<stop offset="0.5" stop-color="#C91A44"/>
<stop offset="1" stop-color="#A12FA3"/>
</linearGradient>
<linearGradient id="paint20_linear_2288_5776" x1="39.2691" y1="95.3681" x2="45.4377" y2="95.3681" gradientUnits="userSpaceOnUse">
<stop stop-color="#E46125"/>
<stop offset="0.5" stop-color="#C91A44"/>
<stop offset="1" stop-color="#A12FA3"/>
</linearGradient>
<linearGradient id="paint21_linear_2288_5776" x1="33.7571" y1="90.9272" x2="43.222" y2="90.9272" gradientUnits="userSpaceOnUse">
<stop stop-color="#E46125"/>
<stop offset="0.5" stop-color="#C91A44"/>
<stop offset="1" stop-color="#A12FA3"/>
</linearGradient>
<linearGradient id="paint22_linear_2288_5776" x1="29.5342" y1="84.9205" x2="42.024" y2="84.9205" gradientUnits="userSpaceOnUse">
<stop stop-color="#E46125"/>
<stop offset="0.5" stop-color="#C91A44"/>
<stop offset="1" stop-color="#A12FA3"/>
</linearGradient>
<linearGradient id="paint23_linear_2288_5776" x1="27.6122" y1="79.0132" x2="41.5046" y2="79.0132" gradientUnits="userSpaceOnUse">
<stop stop-color="#E46125"/>
<stop offset="0.5" stop-color="#C91A44"/>
<stop offset="1" stop-color="#A12FA3"/>
</linearGradient>
<linearGradient id="paint24_linear_2288_5776" x1="27.6121" y1="71.5722" x2="42.9633" y2="71.5722" gradientUnits="userSpaceOnUse">
<stop stop-color="#E46125"/>
<stop offset="0.5" stop-color="#C91A44"/>
<stop offset="1" stop-color="#A12FA3"/>
</linearGradient>
<linearGradient id="paint25_linear_2288_5776" x1="33.2138" y1="64.3283" x2="46.5347" y2="64.3283" gradientUnits="userSpaceOnUse">
<stop stop-color="#E46125"/>
<stop offset="0.5" stop-color="#C91A44"/>
<stop offset="1" stop-color="#A12FA3"/>
</linearGradient>
<linearGradient id="paint26_linear_2288_5776" x1="40.7532" y1="59.4223" x2="50.3299" y2="59.4223" gradientUnits="userSpaceOnUse">
<stop stop-color="#E46125"/>
<stop offset="0.5" stop-color="#C91A44"/>
<stop offset="1" stop-color="#A12FA3"/>
</linearGradient>
<linearGradient id="paint27_linear_2288_5776" x1="52.7185" y1="57.4146" x2="55.2994" y2="57.4146" gradientUnits="userSpaceOnUse">
<stop stop-color="#E46125"/>
<stop offset="0.5" stop-color="#C91A44"/>
<stop offset="1" stop-color="#A12FA3"/>
</linearGradient>
<linearGradient id="paint28_linear_2288_5776" x1="55.4406" y1="57.7045" x2="65.6494" y2="57.7045" gradientUnits="userSpaceOnUse">
<stop stop-color="#E46125"/>
<stop offset="0.5" stop-color="#C91A44"/>
<stop offset="1" stop-color="#A12FA3"/>
</linearGradient>
<linearGradient id="paint29_linear_2288_5776" x1="57.4166" y1="61.7889" x2="74.7763" y2="61.7889" gradientUnits="userSpaceOnUse">
<stop stop-color="#E46125"/>
<stop offset="0.5" stop-color="#C91A44"/>
<stop offset="1" stop-color="#A12FA3"/>
</linearGradient>
<linearGradient id="paint30_linear_2288_5776" x1="59.9905" y1="68.1053" x2="81.2041" y2="68.1053" gradientUnits="userSpaceOnUse">
<stop stop-color="#E46125"/>
<stop offset="0.5" stop-color="#C91A44"/>
<stop offset="1" stop-color="#A12FA3"/>
</linearGradient>
<linearGradient id="paint31_linear_2288_5776" x1="79.2027" y1="79.9796" x2="84.8957" y2="79.9796" gradientUnits="userSpaceOnUse">
<stop stop-color="#E46125"/>
<stop offset="0.5" stop-color="#C91A44"/>
<stop offset="1" stop-color="#A12FA3"/>
</linearGradient>
<linearGradient id="paint32_linear_2288_5776" x1="84.7766" y1="80.384" x2="94.6787" y2="80.384" gradientUnits="userSpaceOnUse">
<stop stop-color="#E46125"/>
<stop offset="0.5" stop-color="#C91A44"/>
<stop offset="1" stop-color="#A12FA3"/>
</linearGradient>
<linearGradient id="paint33_linear_2288_5776" x1="94.2534" y1="80.0608" x2="100.944" y2="80.0608" gradientUnits="userSpaceOnUse">
<stop stop-color="#E46125"/>
<stop offset="0.5" stop-color="#C91A44"/>
<stop offset="1" stop-color="#A12FA3"/>
</linearGradient>
<clipPath id="clip0_2288_5776">
<rect width="180" height="180" fill="white"/>
</clipPath>
</defs>
</svg>
