<svg width="180" height="180" viewBox="0 0 180 180" fill="none" xmlns="http://www.w3.org/2000/svg">
<g clip-path="url(#clip0_2288_5635)">
<path d="M105.178 3.838C152.764 12.2287 184.538 57.6066 176.147 105.193C167.756 152.778 122.378 184.552 74.7924 176.162C27.2065 167.771 -4.5675 122.393 3.82318 74.8072C12.2139 27.2213 57.5918 -4.55268 105.178 3.838Z" stroke="white" stroke-width="5"/>
<path d="M133.357 96.9355C130.285 90.0478 125.638 83.9783 119.79 79.2165C113.857 74.5591 106.715 71.6961 99.2076 70.9655C91.0129 69.808 82.6766 70.1354 74.5979 71.932C67.2657 73.8726 60.6363 77.8577 55.4828 83.4225C50.7578 88.4161 45.9253 95.271 44.7441 102.198C43.5091 109.697 50.1135 113.795 56.1451 116.516C59.9215 118.163 63.877 119.397 67.6177 121.134C71.3584 122.87 74.7769 124.856 78.5712 126.252C82.1904 127.486 86.0097 128.026 89.8291 127.845C93.7921 128.007 97.7489 127.399 101.481 126.056C105.973 124.266 110.107 121.796 114.564 119.97C118.502 118.359 122.6 117.089 126.377 115.102C129.509 113.437 133.124 111.129 134.502 107.674C135.881 104.22 134.771 100.229 133.357 96.9355Z" fill="#E0435B"/>
<path d="M75.4027 79.4492C74.8364 79.4492 74.2827 79.2812 73.8118 78.9665C73.3408 78.6519 72.9738 78.2046 72.757 77.6814C72.5403 77.1581 72.4836 76.5823 72.5941 76.0268C72.7046 75.4713 72.9773 74.961 73.3778 74.5606C73.7783 74.1601 74.2886 73.8873 74.8441 73.7768C75.3996 73.6663 75.9754 73.723 76.4986 73.9398C77.0219 74.1565 77.4691 74.5236 77.7838 74.9945C78.0985 75.4654 78.2664 76.0191 78.2664 76.5855C78.2571 77.3421 77.9524 78.0651 77.4174 78.6001C76.8824 79.1352 76.1593 79.4399 75.4027 79.4492Z" fill="#35208A"/>
<path d="M104.684 79.4492C104.118 79.4492 103.564 79.2812 103.093 78.9665C102.622 78.6519 102.255 78.2046 102.038 77.6814C101.822 77.1581 101.765 76.5823 101.875 76.0268C101.986 75.4713 102.259 74.961 102.659 74.5606C103.06 74.1601 103.57 73.8873 104.125 73.7768C104.681 73.6663 105.257 73.723 105.78 73.9398C106.303 74.1565 106.75 74.5236 107.065 74.9945C107.38 75.4654 107.548 76.0191 107.548 76.5855C107.534 77.3407 107.228 78.0611 106.694 78.5952C106.16 79.1293 105.439 79.4354 104.684 79.4492Z" fill="#35208A"/>
<path d="M56.3611 79.467C58.5626 82.1517 61.4083 86.7157 65.3101 86.6262C65.7862 86.5696 66.2342 86.3704 66.5952 86.0549C66.9563 85.7394 67.2136 85.3221 67.3336 84.8579C67.4535 84.3936 67.4304 83.9039 67.2674 83.453C67.1043 83.0021 66.8089 82.6109 66.4198 82.3307C64.1195 80.3377 62.0376 78.1058 60.2092 75.6727C58.4194 73.5428 55.0545 70.0348 55.5915 67.0458C56.1284 64.0569 58.2941 61.408 59.8154 58.9917C60.9825 59.0374 62.1493 58.8923 63.2697 58.5622C66.245 57.6078 68.9464 55.9501 71.1448 53.7297C73.4716 51.5283 76.5142 48.8615 76.2637 45.3893C76.265 45.3327 76.2496 45.277 76.2194 45.2292C76.1891 45.1814 76.1454 45.1437 76.0937 45.1207C76.042 45.0977 75.9846 45.0906 75.9289 45.1001C75.8731 45.1097 75.8215 45.1356 75.7804 45.1745C75.4225 45.6219 73.8474 45.6577 73.3105 45.7651C72.1761 46.0731 71.0121 46.2591 69.8383 46.32C69.2476 46.32 67.9232 46.4274 68.0485 45.264C68.0485 44.7807 69.194 44.0827 69.4982 43.8679C70.4837 43.169 71.5872 42.6536 72.7557 42.3466C74.7872 42.0781 76.8452 42.0781 78.8768 42.3466C78.9527 42.3466 79.0255 42.3164 79.0793 42.2627C79.133 42.209 79.1631 42.1362 79.1631 42.0602C79.1631 34.5073 68.6391 36.4761 64.3436 38.3733C61.3589 39.6017 58.8196 41.7107 57.064 44.4191C55.3085 47.1276 54.4202 50.3067 54.5176 53.5329C54.5231 54.5346 54.7621 55.5212 55.2156 56.4144L54.3923 57.7389C52.3699 61.0679 49.6494 64.8981 50.2221 69.0325C50.7948 73.1669 53.8912 76.5139 56.3611 79.467Z" fill="#E0435B"/>
<path d="M56.3777 91.1365C59.8499 91.2439 59.6709 86.2324 56.3777 85.7671C48.8605 84.8901 40.4127 81.9011 35.7771 75.5115C33.2356 71.9319 33.9873 67.0458 33.9873 62.983C33.9873 61.4616 34.6674 54.034 31.3205 55.5553C29.4233 56.3786 29.6202 58.9022 29.5307 60.6741C29.4233 63.3051 29.2802 65.9182 29.1549 68.5492C28.9382 70.7164 29.1817 72.9049 29.8695 74.9714C30.5573 77.0379 31.6739 78.9359 33.1461 80.5409C39.2096 86.9704 47.5475 90.7732 56.3777 91.1365Z" fill="#E0435B"/>
<path d="M33.8963 103.808C36.7378 103.668 39.5698 103.376 42.3799 102.931C45.081 102.827 47.6957 101.951 49.9149 100.408C51.4721 99.1011 50.0402 97.0428 48.4473 96.828C46.2153 96.8237 43.9933 97.1248 41.843 97.7229C39.4983 98.0988 37.1358 98.3136 34.7733 98.5104C33.9512 98.5807 33.1246 98.4477 32.3661 98.123C31.6077 97.7984 30.9407 97.2922 30.424 96.649C28.8923 95.3412 27.5007 93.8777 26.2717 92.2819C24.6072 90.0805 21.9225 86.5009 22.1552 83.6372C22.3521 81.3821 23.945 78.6079 23.2827 76.3706C23.1677 76.0215 22.9677 75.7064 22.7008 75.4537C22.4338 75.201 22.1083 75.0185 21.7534 74.9227C21.3985 74.8269 21.0254 74.8207 20.6675 74.9047C20.3097 74.9888 19.9783 75.1604 19.7032 75.4042C18.7907 76.6234 18.2165 78.062 18.0386 79.5744C17.5954 80.9436 17.2838 82.352 17.1079 83.7804C16.8395 88.1296 20.437 93.0516 22.9964 96.309C25.5558 99.5664 29.4218 103.916 33.8963 103.808Z" fill="#E0435B"/>
<path d="M55.483 117.966C59.2547 118.33 63.0556 118.264 66.8124 117.769C68.9602 117.375 68.7812 114.189 66.8124 113.581C62.6154 112.772 58.341 112.436 54.0691 112.578C49.5588 112.435 45.1201 112.238 40.5382 112.131C33.1642 111.934 26.2198 113.76 22.2823 120.615C22.0154 121.166 21.9662 121.797 22.1443 122.383C22.3225 122.969 22.7149 123.466 23.2434 123.776C23.7718 124.085 24.3975 124.184 24.9956 124.052C25.5937 123.921 26.1203 123.569 26.4704 123.067C30.6585 116.677 37.4597 117.303 44.261 117.554L55.483 117.966Z" fill="#E0435B"/>
<path d="M82.3286 117.894C76.6521 118.349 71.0205 119.252 65.4866 120.597L57.2714 122.189C54.8373 122.655 51.741 122.547 49.5395 123.765C46.1747 125.554 42.792 130.1 42.7383 134.002C42.7383 137.439 45.7988 143.578 49.7901 143.416C50.2648 143.416 50.72 143.228 51.0557 142.892C51.3913 142.557 51.5799 142.101 51.5799 141.627C51.5799 138.405 47.2307 136.741 48.1077 133.25C48.7114 131.637 49.7526 130.224 51.1145 129.17C52.7254 127.738 54.8552 127.899 56.9314 127.541C61.2269 126.843 65.5045 125.966 69.7821 125.178C74.2702 124.523 78.699 123.512 83.0266 122.154C85.1923 121.42 85.0133 117.804 82.3286 117.894Z" fill="#E0435B"/>
<path d="M67.2405 45.7114C62.9271 45.3356 57.683 48.8615 54.5687 51.5283C54.0676 51.9578 54.7835 52.6558 55.2847 52.2442C57.1169 50.6906 59.1373 49.3737 61.2984 48.3245C63.2493 47.4296 65.4865 47.1075 67.3658 46.1231C67.4125 46.095 67.4488 46.0525 67.4692 46.002C67.4895 45.9515 67.4929 45.8957 67.4787 45.8431C67.4646 45.7905 67.4337 45.744 67.3907 45.7105C67.3477 45.6771 67.295 45.6585 67.2405 45.6577V45.7114Z" fill="#35208A"/>
<path d="M55.4848 57.0051C55.3416 57.5957 56.0038 58.0969 56.4154 58.4011C57.0101 58.8359 57.6765 59.163 58.3842 59.3676C58.5124 59.4032 58.6494 59.3865 58.7652 59.321C58.881 59.2556 58.9661 59.1468 59.0017 59.0186C59.0373 58.8904 59.0205 58.7534 58.9551 58.6376C58.8896 58.5218 58.7809 58.4367 58.6527 58.4011C58.0523 58.2246 57.4843 57.9527 56.9703 57.5957C56.5586 57.3452 56.147 56.8261 55.6279 56.8977C55.5954 56.8967 55.5635 56.9067 55.5375 56.9263C55.5115 56.9458 55.4929 56.9736 55.4848 57.0051Z" fill="#35208A"/>
<path d="M50.6327 67.6007C50.919 68.2809 51.9213 68.5672 52.6015 68.7462C53.4363 69.0375 54.3376 69.081 55.1967 68.8715C55.5725 68.7462 55.6441 68.1377 55.1967 68.0482C54.3734 67.8692 53.55 67.9587 52.7088 67.7618C52.0939 67.4818 51.4325 67.3179 50.758 67.2786C50.5969 67.2786 50.579 67.4754 50.6327 67.6007Z" fill="#35208A"/>
<path d="M55.0898 76.9613C55.8724 77.0301 56.6606 76.9262 57.3987 76.6571C57.9535 76.4602 58.7231 76.2275 58.7768 75.5474C58.7685 75.4759 58.7407 75.4081 58.6965 75.3513C58.6524 75.2945 58.5935 75.2509 58.5263 75.2252C57.9893 75.0642 57.5061 75.5474 57.0228 75.7264C56.4003 75.9332 55.7452 76.0242 55.0898 75.9949C54.4455 75.9949 54.4634 76.9256 55.0898 76.9613Z" fill="#35208A"/>
<path d="M57.917 81.1315C58.5952 80.9604 59.214 80.6077 59.7068 80.1113C60.462 79.7527 61.1662 79.2953 61.8008 78.7511C61.9977 78.5005 61.9082 77.9993 61.5145 78.0351C60.6341 78.26 59.8305 78.7174 59.1877 79.3596C58.6508 79.7713 57.917 80.3261 57.8633 81.0599L57.917 81.1315Z" fill="#35208A"/>
<path d="M30.1927 63.1799C30.7825 63.3066 31.3926 63.3066 31.9825 63.1799C32.2807 63.146 32.5691 63.0526 32.8304 62.905C33.0918 62.7574 33.3208 62.5587 33.5038 62.3208C33.5373 62.2557 33.5537 62.1832 33.5514 62.1101C33.549 62.0369 33.528 61.9656 33.4904 61.9028C33.4527 61.8401 33.3997 61.788 33.3362 61.7515C33.2728 61.715 33.2011 61.6953 33.1279 61.6943C32.669 61.8109 32.2247 61.979 31.8035 62.1955C31.3012 62.3243 30.7817 62.3726 30.2643 62.3387C29.7631 62.3387 29.6199 63.162 30.139 63.2515L30.1927 63.1799Z" fill="#35208A"/>
<path d="M32.8226 79.1091C33.7876 79.279 34.7749 79.279 35.7399 79.1091C36.5095 79.0196 37.5297 79.0017 37.9414 78.3037C37.9605 78.2709 37.9729 78.2346 37.9778 78.1969C37.9827 78.1593 37.9801 78.121 37.9701 78.0843C37.9601 78.0477 37.943 78.0134 37.9196 77.9835C37.8962 77.9535 37.8671 77.9285 37.834 77.91C37.1718 77.6057 36.5811 77.91 35.8831 78.071C34.908 78.1723 33.9281 78.2201 32.9478 78.2142C32.4467 78.2142 32.3035 78.9838 32.8226 79.0912V79.1091Z" fill="#35208A"/>
<path d="M50.3474 90.3848C51.0293 89.6786 51.6745 88.9379 52.2804 88.1654C52.9159 87.5068 53.4854 86.7874 53.9807 86.0177C54.0377 85.9269 54.0587 85.8181 54.0396 85.7127C54.0206 85.6072 53.9627 85.5127 53.8775 85.4477C53.7923 85.3827 53.6859 85.3519 53.5792 85.3613C53.4724 85.3707 53.373 85.4197 53.3005 85.4986C52.5975 86.1736 51.9565 86.9103 51.3855 87.7001C50.7948 88.416 50.2042 89.0961 49.6852 89.8657C49.4167 90.2595 50.0073 90.707 50.3474 90.3669V90.3848Z" fill="#35208A"/>
<path d="M45.3347 102.215C45.6927 101.41 45.7822 100.426 46.1044 99.6918C46.4265 98.958 47.1245 98.1705 46.8561 97.5083C46.8561 97.5083 46.7308 97.3114 46.6234 97.3293C45.8359 97.3293 45.6032 98.3853 45.3347 99.0296C44.8749 99.9588 44.636 100.982 44.6367 102.019C44.6367 102.341 45.1558 102.591 45.3347 102.215Z" fill="#35208A"/>
<path d="M49.7919 112.757C51.0983 114.081 52.7172 115.053 54.499 115.585C56.5931 116.355 58.705 117.142 60.817 117.84C61.2824 117.983 61.4971 117.339 61.1392 117.089C59.6303 116.197 57.9949 115.539 56.2888 115.138C54.1402 114.55 52.1275 113.546 50.3646 112.185C50.2853 112.13 50.1893 112.104 50.0934 112.113C49.9974 112.122 49.9075 112.164 49.8393 112.232C49.7712 112.3 49.7291 112.39 49.7204 112.486C49.7117 112.582 49.737 112.678 49.7919 112.757Z" fill="#35208A"/>
<path d="M66.9721 120.597C67.9936 121.436 69.1111 122.151 70.3012 122.726C71.333 123.372 72.4728 123.827 73.666 124.069C74.0955 124.069 74.1313 123.532 73.8629 123.335C72.818 122.714 71.7293 122.169 70.6054 121.706C69.5315 121.169 68.5293 120.471 67.4554 119.916C67.0795 119.737 66.6142 120.221 66.9721 120.543V120.597Z" fill="#35208A"/>
<path d="M17.8963 85.5702C18.5902 85.7867 19.3221 85.854 20.0439 85.7676C20.7657 85.6813 21.4611 85.4432 22.0844 85.0691C22.675 84.7827 22.0844 83.9057 21.5832 84.1921C21.0138 84.4801 20.4133 84.7023 19.7934 84.8543C19.2028 84.9796 18.5943 84.9438 18.0037 85.1049C17.8068 85.1049 17.7352 85.4807 18.0037 85.5702H17.8963Z" fill="#35208A"/>
<path d="M31.1045 102.341C32.0297 101.454 32.687 100.325 33.0017 99.0832C33.0205 99.0174 33.0262 98.9485 33.0183 98.8805C33.0105 98.8125 32.9894 98.7467 32.9562 98.6869C32.9229 98.6271 32.8782 98.5744 32.8246 98.5318C32.771 98.4893 32.7095 98.4577 32.6437 98.4389C32.5779 98.4201 32.5091 98.4144 32.4411 98.4222C32.3731 98.43 32.3073 98.4512 32.2474 98.4844C32.1876 98.5176 32.1349 98.5623 32.0923 98.616C32.0498 98.6696 32.0182 98.731 31.9994 98.7968C31.6371 99.8763 31.1055 100.891 30.4244 101.804C30.138 102.233 30.7644 102.645 31.1224 102.341H31.1045Z" fill="#35208A"/>
<path d="M34.3096 113.402C34.6676 113.974 35.2761 114.35 35.6699 114.905C35.8643 115.175 36.0321 115.462 36.171 115.764C36.3321 116.068 36.3858 116.391 36.6543 116.605C36.7051 116.654 36.7678 116.689 36.8361 116.707C36.9045 116.725 36.9763 116.725 37.0446 116.707C37.1129 116.689 37.1755 116.654 37.2262 116.605C37.277 116.555 37.3142 116.494 37.3344 116.426C37.5313 115.728 36.8869 114.851 36.4753 114.314C36.0592 113.651 35.4271 113.152 34.6855 112.901C34.417 112.901 34.1306 113.133 34.3096 113.402Z" fill="#35208A"/>
<path d="M38.5855 115.012C38.5496 115.244 38.5496 115.479 38.5855 115.71C38.5855 115.943 38.5856 116.194 38.6929 116.444C38.8003 116.695 39.731 116.874 39.6773 116.301C39.665 115.816 39.5295 115.342 39.2836 114.923C39.2455 114.861 39.1905 114.812 39.125 114.781C39.0595 114.75 38.9864 114.738 38.9145 114.747C38.8426 114.757 38.775 114.787 38.7198 114.834C38.6646 114.881 38.6242 114.943 38.6034 115.012H38.5855Z" fill="#35208A"/>
<path d="M46.3896 139.282C46.585 139.026 46.8369 138.819 47.1256 138.676C47.4143 138.533 47.732 138.459 48.0541 138.459C48.1686 138.437 48.2718 138.376 48.3461 138.286C48.4203 138.196 48.461 138.083 48.461 137.967C48.461 137.85 48.4203 137.737 48.3461 137.647C48.2718 137.557 48.1686 137.496 48.0541 137.474C47.5785 137.454 47.1056 137.556 46.6799 137.769C46.2541 137.981 45.8894 138.299 45.62 138.691C45.2799 139.121 46.0495 139.73 46.3896 139.282Z" fill="#35208A"/>
<path d="M49.7718 125.483C50.5099 125.871 51.1285 126.452 51.5616 127.165C51.9016 127.72 52.7786 127.165 52.4386 126.646C51.9387 125.785 51.1985 125.088 50.3087 124.641C50.2535 124.61 50.1925 124.589 50.1294 124.581C50.0662 124.573 50.002 124.577 49.9405 124.594C49.879 124.61 49.8214 124.639 49.771 124.678C49.7205 124.717 49.6782 124.765 49.6465 124.82C49.6148 124.876 49.5942 124.937 49.586 125C49.5779 125.063 49.5822 125.127 49.5988 125.189C49.6155 125.25 49.644 125.308 49.6829 125.358C49.7218 125.409 49.7702 125.451 49.8255 125.483H49.7718Z" fill="#35208A"/>
<path d="M51.9044 124.982C52.5544 125.651 53.0868 126.426 53.4794 127.273C53.7478 127.774 54.589 127.434 54.4101 126.897C54.0434 125.904 53.4269 125.022 52.6203 124.337C52.1728 123.979 51.5464 124.57 51.9759 124.982H51.9044Z" fill="#35208A"/>
<path d="M123.621 91.1365C128.252 90.96 132.794 89.8181 136.958 87.7839C141.122 85.7497 144.815 82.8682 147.801 79.3238C150.915 75.3326 150.897 71.1444 150.647 66.312C150.647 64.7549 151.201 53.8729 147.532 55.5732C146.047 56.2891 146.029 57.8283 145.957 59.296C145.85 61.4616 145.957 63.6273 145.957 65.7929C145.957 69.8916 146.136 73.5965 143.165 76.7644C137.913 81.9738 130.979 85.1457 123.603 85.7134C120.327 86.2324 120.131 91.2797 123.621 91.1365Z" fill="#E0435B"/>
<path d="M145.224 98.4389C142.862 98.2421 140.499 98.0273 138.065 97.6514C135.915 97.0546 133.693 96.7535 131.461 96.7565C129.868 96.9534 128.436 99.0296 129.975 100.336C132.2 101.882 134.821 102.758 137.528 102.86C140.333 103.303 143.159 103.596 145.994 103.737C150.487 103.898 154.352 99.477 156.93 96.2375C159.507 92.998 163.105 88.0939 162.818 83.7089C162.642 82.2805 162.331 80.8721 161.888 79.5029C161.71 77.9905 161.135 76.5519 160.223 75.3327C159.95 75.0843 159.618 74.9088 159.259 74.8221C158.9 74.7354 158.525 74.7405 158.169 74.8367C157.812 74.933 157.486 75.1174 157.219 75.3729C156.953 75.6285 156.755 75.947 156.643 76.2991C155.892 78.5364 157.556 81.3106 157.753 83.5657C158.004 86.4473 155.337 89.9911 153.654 92.2104C152.431 93.8209 151.052 95.3076 149.538 96.6491C149.013 97.2694 148.348 97.7553 147.598 98.0667C146.848 98.378 146.034 98.5056 145.224 98.4389Z" fill="#E0435B"/>
<path d="M139.495 112.131C135.128 112.238 130.779 112.417 126.412 112.56C121.991 112.405 117.566 112.748 113.221 113.581C112.769 113.714 112.373 113.99 112.091 114.368C111.809 114.745 111.656 115.204 111.656 115.675C111.656 116.146 111.809 116.604 112.091 116.982C112.373 117.359 112.769 117.635 113.221 117.769C116.823 118.243 120.467 118.315 124.085 117.984L135.773 117.554C142.556 117.303 149.357 116.677 153.545 123.067C153.895 123.569 154.422 123.921 155.02 124.052C155.618 124.184 156.244 124.085 156.772 123.776C157.301 123.466 157.693 122.969 157.871 122.383C158.049 121.797 158 121.166 157.733 120.615C153.921 113.76 146.869 111.934 139.495 112.131Z" fill="#E0435B"/>
<path d="M130.456 123.765C128.362 122.601 125.462 122.709 123.153 122.279C120.415 121.778 117.659 121.223 114.92 120.686C109.229 119.295 103.435 118.361 97.5949 117.894C94.9997 117.894 94.785 121.474 97.0222 122.207C101.196 123.527 105.47 124.508 109.801 125.143C114.24 125.966 118.661 126.933 123.117 127.595C124.907 127.899 127.216 127.738 128.666 128.991C130.035 130.035 131.118 131.408 131.816 132.982C133.122 136.562 128.415 138.351 128.469 141.68C128.469 142.155 128.658 142.61 128.993 142.946C129.329 143.282 129.784 143.47 130.259 143.47C134.143 143.613 137.185 137.743 137.293 134.414C137.364 130.297 133.928 125.662 130.456 123.765Z" fill="#E0435B"/>
<path d="M101.141 42.275C103.172 42.0065 105.23 42.0065 107.262 42.275C108.356 42.5582 109.392 43.0307 110.323 43.671C110.698 43.9216 111.916 44.6375 111.969 45.1924C112.077 46.3557 110.752 46.2126 110.179 46.2483C109.085 46.1967 107.999 46.0287 106.94 45.7472C106.385 45.6398 104.613 45.5861 104.219 45.1029C104.058 44.906 103.754 45.1029 103.736 45.3177C103.521 48.7899 106.528 51.4567 108.873 53.6581C111.064 55.8783 113.76 57.5361 116.73 58.4906C117.856 58.8238 119.03 58.963 120.202 58.9022C121.777 61.3542 123.907 64.2716 124.408 66.9742C124.909 69.6768 121.706 73.2206 120.059 75.2789C118.158 77.8599 115.979 80.2246 113.562 82.3307C113.126 82.601 112.789 83.0048 112.601 83.482C112.414 83.9593 112.385 84.4845 112.52 84.9793C112.655 85.4742 112.946 85.9123 113.349 86.2284C113.753 86.5445 114.249 86.7217 114.761 86.7336C118.574 86.7336 121.419 82.1875 123.71 79.5744C126.162 76.6212 129.294 73.0237 129.849 69.0683C130.404 65.1128 127.719 61.1216 125.697 57.7746C125.428 57.3272 125.142 56.8976 124.856 56.4502C125.324 55.5617 125.57 54.5729 125.572 53.5686C125.672 50.342 124.784 47.1617 123.028 44.4528C121.273 41.7439 118.732 39.6354 115.746 38.409C111.45 36.5118 100.855 34.5431 100.926 42.096C100.944 42.1417 100.973 42.1822 101.01 42.2135C101.048 42.2448 101.093 42.266 101.141 42.275Z" fill="#E0435B"/>
<path d="M112.613 46.1768C114.51 47.1612 116.73 47.4833 118.698 48.3782C120.857 49.4106 122.877 50.7094 124.712 52.2442C125.213 52.6558 125.929 51.9578 125.428 51.5283C122.314 48.8615 117.052 45.3356 112.756 45.7114C112.542 45.7114 112.398 46.0515 112.631 46.1768H112.613Z" fill="#35208A"/>
<path d="M124.442 56.8977C123.941 56.8977 123.512 57.3451 123.118 57.5957C122.568 57.9578 121.964 58.2298 121.328 58.4011C120.72 58.5801 120.988 59.5644 121.597 59.3676C122.306 59.1666 122.973 58.8392 123.565 58.4011C123.977 58.0789 124.657 57.5957 124.496 57.005C124.488 56.9735 124.469 56.9457 124.443 56.9262C124.417 56.9067 124.385 56.8966 124.353 56.8977H124.442Z" fill="#35208A"/>
<path d="M129.24 67.2786C128.56 67.3182 127.893 67.482 127.271 67.7618C126.448 67.9587 125.607 67.8692 124.802 68.0482C124.354 68.0482 124.426 68.7462 124.802 68.8715C125.661 69.08 126.562 69.0365 127.397 68.7462C128.077 68.5672 129.079 68.2809 129.365 67.6007C129.365 67.4754 129.365 67.2965 129.24 67.2786Z" fill="#35208A"/>
<path d="M124.91 76.0664C124.254 76.0957 123.599 76.0047 122.977 75.7979C122.476 75.6189 122.01 75.1357 121.473 75.2968C121.402 75.3161 121.339 75.358 121.294 75.4161C121.249 75.4742 121.224 75.5454 121.223 75.6189C121.223 76.2991 122.028 76.5317 122.601 76.7286C123.339 76.9977 124.127 77.1016 124.91 77.0329C125.518 77.0329 125.536 76.0485 124.91 76.0664Z" fill="#35208A"/>
<path d="M122.136 81.0599C122.136 80.3261 121.349 79.7713 120.812 79.3596C120.166 78.7216 119.363 78.2648 118.485 78.0352C118.091 78.0352 117.984 78.5005 118.199 78.7511C118.808 79.2946 119.488 79.7523 120.221 80.1113C120.717 80.6042 121.334 80.9563 122.011 81.1315L122.136 81.0599Z" fill="#35208A"/>
<path d="M149.661 62.2671C149.144 62.2995 148.624 62.2512 148.122 62.1239C147.701 61.9074 147.256 61.7393 146.797 61.6227C146.724 61.6215 146.651 61.6401 146.587 61.6766C146.523 61.7131 146.47 61.7661 146.433 61.8301C146.397 61.8941 146.378 61.9668 146.379 62.0405C146.38 62.1142 146.401 62.1863 146.439 62.2492C146.81 62.7197 147.349 63.0278 147.943 63.1083C148.533 63.2345 149.143 63.2345 149.733 63.1083C150.252 63.1083 150.126 62.1776 149.607 62.1955L149.661 62.2671Z" fill="#35208A"/>
<path d="M147.049 78.2321C146.068 78.238 145.088 78.1902 144.113 78.0889C143.415 77.9636 142.825 77.6235 142.145 77.9278C142.117 77.9529 142.096 77.9834 142.081 78.0173C142.066 78.0511 142.059 78.0877 142.059 78.1247C142.059 78.1616 142.066 78.1982 142.081 78.2321C142.096 78.266 142.117 78.2964 142.145 78.3216C142.574 79.0375 143.558 79.0375 144.328 79.127C145.299 79.2971 146.292 79.2971 147.263 79.127C147.765 79.0196 147.621 78.2679 147.138 78.25L147.049 78.2321Z" fill="#35208A"/>
<path d="M130.316 89.8836C129.797 89.114 129.188 88.4339 128.526 87.7179C127.956 86.922 127.315 86.1792 126.611 85.4986C126.235 85.1943 125.662 85.4986 125.913 86.0176C126.437 86.791 127.037 87.5104 127.703 88.1654C128.309 88.9378 128.954 89.6786 129.636 90.3847C129.958 90.7069 130.566 90.2774 130.298 89.8836H130.316Z" fill="#35208A"/>
<path d="M135.362 102.018C135.365 100.979 135.12 99.9545 134.646 99.0295C134.396 98.3852 134.163 97.4008 133.376 97.3292C133.25 97.3292 133.179 97.3292 133.143 97.5082C132.856 98.1704 133.662 99.0832 133.895 99.6918C134.127 100.3 134.306 101.482 134.664 102.215C134.825 102.591 135.326 102.341 135.362 102.018Z" fill="#35208A"/>
<path d="M129.617 112.167C127.854 113.518 125.849 114.52 123.71 115.12C122.004 115.521 120.369 116.179 118.86 117.071C118.502 117.321 118.699 117.966 119.164 117.822C121.276 117.124 123.406 116.337 125.482 115.567C127.264 115.045 128.884 114.078 130.189 112.757C130.244 112.678 130.27 112.582 130.261 112.486C130.252 112.39 130.21 112.3 130.142 112.232C130.074 112.164 129.984 112.122 129.888 112.113C129.792 112.104 129.696 112.13 129.617 112.185V112.167Z" fill="#35208A"/>
<path d="M112.543 119.916C111.451 120.453 110.449 121.151 109.375 121.706C108.258 122.158 107.175 122.69 106.135 123.299C105.867 123.496 105.903 124.069 106.332 124.033C107.521 123.794 108.655 123.339 109.679 122.691C110.874 122.123 111.993 121.408 113.008 120.561C113.366 120.239 113.008 119.755 112.543 119.934V119.916Z" fill="#35208A"/>
<path d="M162.121 85.1049C161.548 84.9438 160.939 84.9796 160.331 84.8543C159.711 84.7023 159.111 84.4801 158.541 84.1921C157.95 83.9057 157.431 84.7827 158.022 85.0691C158.645 85.4432 159.341 85.6813 160.062 85.7676C160.784 85.854 161.516 85.7867 162.21 85.5702C162.425 85.4807 162.353 85.1765 162.21 85.1049H162.121Z" fill="#35208A"/>
<path d="M149.574 101.804C148.894 100.888 148.356 99.8739 147.981 98.7968C147.928 98.6851 147.837 98.5959 147.725 98.5451C147.612 98.4944 147.485 98.4854 147.366 98.5199C147.248 98.5544 147.145 98.6301 147.077 98.7334C147.01 98.8366 146.981 98.9607 146.996 99.0832C147.311 100.325 147.968 101.454 148.893 102.341C149.234 102.645 149.878 102.233 149.574 101.804Z" fill="#35208A"/>
<path d="M145.315 112.9C144.57 113.146 143.936 113.647 143.525 114.314C143.113 114.851 142.469 115.728 142.648 116.426C142.668 116.494 142.705 116.555 142.756 116.605C142.807 116.654 142.869 116.689 142.938 116.707C143.006 116.725 143.078 116.725 143.146 116.707C143.215 116.689 143.277 116.654 143.328 116.605C143.596 116.408 143.632 116.14 143.775 115.854C143.928 115.52 144.114 115.202 144.33 114.905C144.724 114.35 145.333 113.974 145.691 113.402C145.724 113.344 145.74 113.277 145.736 113.211C145.732 113.144 145.709 113.08 145.669 113.026C145.629 112.973 145.574 112.932 145.511 112.91C145.448 112.888 145.38 112.884 145.315 112.9Z" fill="#35208A"/>
<path d="M140.732 114.923C140.488 115.344 140.347 115.816 140.32 116.301C140.32 116.874 141.162 116.981 141.305 116.444C141.366 116.204 141.402 115.958 141.412 115.711C141.466 115.481 141.466 115.242 141.412 115.012C141.395 114.942 141.358 114.878 141.304 114.83C141.251 114.781 141.183 114.75 141.112 114.74C141.04 114.731 140.967 114.743 140.902 114.775C140.838 114.808 140.785 114.86 140.75 114.923H140.732Z" fill="#35208A"/>
<path d="M134.376 138.691C134.106 138.3 133.741 137.984 133.315 137.771C132.89 137.558 132.417 137.456 131.942 137.474C131.828 137.496 131.724 137.557 131.65 137.647C131.576 137.737 131.535 137.85 131.535 137.967C131.535 138.083 131.576 138.196 131.65 138.286C131.724 138.376 131.828 138.437 131.942 138.459C132.264 138.459 132.582 138.533 132.871 138.676C133.159 138.819 133.411 139.026 133.607 139.282C133.947 139.712 134.716 139.139 134.376 138.691Z" fill="#35208A"/>
<path d="M129.725 124.642C128.839 125.093 128.1 125.789 127.595 126.646C127.255 127.201 128.15 127.72 128.49 127.165C128.914 126.445 129.535 125.861 130.28 125.483C130.817 125.161 130.28 124.373 129.779 124.642H129.725Z" fill="#35208A"/>
<path d="M127.467 124.337C126.656 125.018 126.038 125.901 125.677 126.897C125.481 127.434 126.34 127.774 126.59 127.273C126.989 126.43 127.521 125.656 128.165 124.982C128.595 124.57 127.968 123.979 127.539 124.337H127.467Z" fill="#35208A"/>
<path d="M79.6263 81.8117C79.2504 83.7626 81.4161 86.1788 82.8121 87.3959C84.7614 89.0958 87.1984 90.1358 89.7744 90.3669C92.5593 90.7525 95.3877 90.0821 97.7032 88.4877C99.6362 87.02 101.73 84.4069 101.408 81.8296C101.408 81.7062 101.359 81.5878 101.272 81.5006C101.185 81.4133 101.066 81.3643 100.943 81.3643C100.819 81.3643 100.701 81.4133 100.614 81.5006C100.526 81.5878 100.477 81.7062 100.477 81.8296C99.7257 87.7896 93.5867 90.2954 88.2173 88.9888C86.1767 88.5105 84.3144 87.4614 82.8479 85.964C81.6309 84.7291 81.0581 82.5992 79.68 81.6864H79.5547L79.6263 81.8117Z" fill="#35208A"/>
<path d="M66.6506 92.0136C65.5887 92.0136 64.5506 91.6987 63.6676 91.1087C62.7846 90.5187 62.0964 89.6801 61.69 88.699C61.2836 87.7178 61.1772 86.6382 61.3844 85.5967C61.5916 84.5551 62.103 83.5984 62.8539 82.8474C63.6048 82.0965 64.5616 81.5851 65.6031 81.378C66.6447 81.1708 67.7243 81.2771 68.7054 81.6835C69.6866 82.0899 70.5251 82.7781 71.1151 83.6611C71.7051 84.5441 72.02 85.5822 72.02 86.6442C72.02 88.0682 71.4543 89.434 70.4474 90.4409C69.4404 91.4479 68.0747 92.0136 66.6506 92.0136Z" fill="white"/>
<path d="M114.24 92.0136C113.179 92.0136 112.14 91.6987 111.257 91.1087C110.374 90.5187 109.686 89.6801 109.28 88.699C108.873 87.7178 108.767 86.6382 108.974 85.5967C109.181 84.5551 109.693 83.5984 110.444 82.8474C111.195 82.0965 112.151 81.5851 113.193 81.378C114.235 81.1708 115.314 81.2771 116.295 81.6835C117.276 82.0899 118.115 82.7781 118.705 83.6611C119.295 84.5441 119.61 85.5822 119.61 86.6442C119.61 88.0682 119.044 89.434 118.037 90.4409C117.03 91.4479 115.665 92.0136 114.24 92.0136Z" fill="white"/>
<path d="M113.617 149.681C113.635 149.648 113.645 149.611 113.645 149.573C113.645 149.536 113.635 149.499 113.617 149.466C113.08 148.464 111.147 148.267 110.18 148.07C108.605 147.766 106.994 147.569 105.401 147.354L104.614 147.247C104.507 147.247 104.328 147.247 104.345 147.247C104.144 146.896 103.982 146.524 103.862 146.137C103.2 144.598 102.574 143.059 101.893 141.519C101.553 140.732 101.213 139.962 100.837 139.193C100.605 138.727 100.354 137.832 99.8173 137.6C98.6539 137.099 97.8485 139.98 97.5442 140.66C96.7925 142.325 96.0945 144.007 95.3786 145.672C95.2354 146.03 94.9848 147.032 94.6627 147.265C94.1572 147.322 93.6468 147.322 93.1413 147.265L91.0115 147.444C89.8017 147.51 88.6021 147.702 87.4319 148.016C86.7339 148.213 85.4631 148.553 85.6421 149.538C85.8211 150.522 86.9486 151.095 87.4319 151.524C88.3753 152.274 89.3745 152.95 90.4208 153.547C90.9041 153.833 91.5126 154.03 91.9422 154.352C92.3717 154.674 92.2285 155.229 92.0854 155.802C91.7632 157.019 91.441 158.236 91.1368 159.382C90.8325 160.527 90.6714 161.368 90.5103 162.388C90.3314 163.075 90.3314 163.796 90.5103 164.482C91.2442 166.04 94.0899 163.319 94.7343 162.8C95.3786 162.281 96.4167 161.458 97.24 160.76L98.4212 159.722C98.636 159.525 99.1909 158.755 99.4772 158.701C99.7636 158.648 101.16 160.115 101.535 160.491C102.377 161.225 103.325 161.923 104.113 162.603C105.241 163.735 106.659 164.533 108.211 164.912C109.59 165.037 108.927 162.943 108.748 162.12C108.301 160.151 107.675 158.236 107.084 156.303C106.959 155.891 106.797 155.48 106.708 155.05C106.619 154.621 106.708 154.621 107.03 154.37C107.782 153.923 108.713 153.636 109.518 153.225C110.789 152.58 113.366 151.435 113.724 149.806C113.701 149.755 113.664 149.711 113.617 149.681Z" fill="#F7B9E7"/>
<path d="M66.6321 21.9788C64.4664 21.7819 62.2471 21.8177 60.0456 21.8356C60.6721 21.227 61.2985 20.6185 61.8354 20.0458C62.8891 19.149 63.795 18.092 64.5201 16.9136C64.5631 16.8063 64.5746 16.689 64.5534 16.5754C64.5321 16.4618 64.4789 16.3567 64.4001 16.2722C64.3212 16.1877 64.2199 16.1274 64.1081 16.0984C63.9962 16.0693 63.8784 16.0727 63.7684 16.1082C62.5835 16.8244 61.5151 17.7177 60.6005 18.7571L58.6854 20.5469C58.6854 19.652 58.6854 18.7571 58.6854 17.8801C58.7852 16.4936 58.6766 15.1 58.3632 13.7457C58.325 13.6213 58.2478 13.5124 58.1432 13.435C58.0385 13.3577 57.9117 13.3159 57.7815 13.3159C57.6514 13.3159 57.5246 13.3577 57.4199 13.435C57.3152 13.5124 57.2381 13.6213 57.1999 13.7457C56.8633 15.1024 56.7425 16.5037 56.8419 17.898C56.8419 18.775 56.8419 19.6878 56.8419 20.5469L54.9089 18.6139C54.0121 17.5603 52.9552 16.6543 51.7768 15.9292C51.6617 15.8679 51.5299 15.8451 51.4008 15.8643C51.2718 15.8835 51.1523 15.9436 51.0601 16.0359C50.9679 16.1281 50.9077 16.2476 50.8885 16.3766C50.8693 16.5057 50.8921 16.6374 50.9535 16.7526C51.7012 17.9459 52.6244 19.0199 53.6919 19.9384L55.4816 21.8356H52.7791C51.3935 21.7208 49.9985 21.8235 48.6446 22.1398C48.5202 22.1781 48.4113 22.2552 48.3339 22.3599C48.2566 22.4646 48.2148 22.5914 48.2148 22.7215C48.2148 22.8517 48.2566 22.9784 48.3339 23.0831C48.4113 23.1878 48.5202 23.265 48.6446 23.3032C49.9952 23.6412 51.389 23.7739 52.7791 23.697H55.3743C53.7813 25.2004 52.1526 26.7217 50.7208 28.3683C50.5661 28.5424 50.4838 28.7689 50.4907 29.0016C50.4975 29.2343 50.593 29.4555 50.7576 29.6202C50.9222 29.7848 51.1435 29.8803 51.3762 29.8871C51.6089 29.894 51.8354 29.8116 52.0094 29.657C53.6561 28.261 55.1953 26.7038 56.7166 25.1467C56.7166 27.3303 56.5913 29.5138 56.7166 31.6795C56.7582 31.8862 56.87 32.0722 57.0331 32.2058C57.1963 32.3394 57.4006 32.4124 57.6115 32.4124C57.8224 32.4124 58.0267 32.3394 58.1899 32.2058C58.353 32.0722 58.4649 31.8862 58.5064 31.6795C58.7033 29.5317 58.6675 27.3303 58.6496 25.1646C60.153 26.7396 61.6565 28.3504 63.2852 29.7644C63.4592 29.919 63.6857 30.0013 63.9184 29.9945C64.1511 29.9876 64.3724 29.8921 64.537 29.7275C64.7016 29.5629 64.7971 29.3416 64.8039 29.109C64.8108 28.8763 64.7285 28.6497 64.5738 28.4757C63.1778 26.8291 61.6207 25.2899 60.0635 23.7686C62.2471 23.7686 64.4306 23.8938 66.5963 23.7686C66.804 23.7313 66.9924 23.6233 67.1294 23.4628C67.2665 23.3023 67.3436 23.0993 67.3479 22.8883C67.3521 22.6774 67.2831 22.4714 67.1526 22.3056C67.0221 22.1398 66.8381 22.0243 66.6321 21.9788Z" fill="white"/>
<path d="M89.2028 17.6295C89.799 17.621 90.3692 17.384 90.7957 16.9673C91.2188 16.5451 91.457 15.9721 91.4579 15.3744C91.4533 14.776 91.2148 14.2032 90.7934 13.7785C90.372 13.3537 89.8011 13.1106 89.2028 13.1013C88.6007 13.1071 88.024 13.3442 87.592 13.7635C87.3803 13.9747 87.2128 14.2259 87.0991 14.5024C86.9854 14.779 86.9278 15.0754 86.9297 15.3744C86.9435 15.9712 87.188 16.5395 87.6118 16.96C88.0356 17.3804 88.6058 17.6204 89.2028 17.6295Z" fill="white"/>
<path d="M100.802 60.8532C101.32 60.8532 101.816 60.6476 102.182 60.2818C102.548 59.9159 102.753 59.4197 102.753 58.9023C102.753 58.3849 102.548 57.8887 102.182 57.5228C101.816 57.157 101.32 56.9514 100.802 56.9514C100.285 56.9514 99.7888 57.157 99.423 57.5228C99.0571 57.8887 98.8516 58.3849 98.8516 58.9023C98.8516 59.4197 99.0571 59.9159 99.423 60.2818C99.7888 60.6476 100.285 60.8532 100.802 60.8532Z" fill="white"/>
<path d="M74.0447 65.3276V65.8824C74.0378 65.853 74.0378 65.8224 74.0447 65.7929L73.8299 66.312L73.5077 66.7415L73.0603 67.0816H73.2035L72.6844 67.2964H72.1117H72.2191H71.6464C72.1069 67.4318 72.5995 67.4104 73.0466 67.2355C73.4937 67.0605 73.8699 66.742 74.1163 66.3299C74.2537 66.0876 74.3418 65.8206 74.3756 65.5441C74.4094 65.2677 74.3882 64.9873 74.3132 64.7191C74.2042 64.3522 74.0043 64.0187 73.7321 63.7496C73.4599 63.4805 73.1242 63.2846 72.756 63.1798C72.1568 63.0066 71.5135 63.0774 70.9662 63.3767C70.5464 63.6327 70.2118 64.0073 70.0048 64.4533C69.7977 64.8992 69.7275 65.3966 69.8029 65.8824C69.9575 66.4158 70.3095 66.8702 70.7873 67.1532C71.1937 67.3857 71.6667 67.474 72.1296 67.4038C72.6261 67.3271 73.0791 67.076 73.4071 66.6955C73.7351 66.315 73.9168 65.83 73.9194 65.3276H74.0447Z" fill="white"/>
<path d="M128.865 23.9833L129.026 24.1086C129.281 24.3471 129.6 24.5059 129.944 24.5655C130.288 24.6251 130.641 24.5829 130.962 24.4441C131.282 24.3052 131.554 24.0758 131.746 23.7841C131.937 23.4923 132.039 23.151 132.039 22.802C132.039 22.453 131.937 22.1117 131.746 21.8199C131.554 21.5282 131.282 21.2988 130.962 21.1599C130.641 21.0211 130.288 20.9789 129.944 21.0385C129.6 21.0981 129.281 21.257 129.026 21.4955L128.865 21.6386C128.708 21.7906 128.582 21.9727 128.497 22.1741C128.411 22.3755 128.367 22.5921 128.367 22.811C128.367 23.0298 128.411 23.2464 128.497 23.4478C128.582 23.6492 128.708 23.8314 128.865 23.9833Z" fill="white"/>
<path d="M162.228 68.764C162.797 68.7597 163.342 68.5352 163.749 68.1376C163.949 67.9382 164.108 67.701 164.215 67.4399C164.323 67.1787 164.377 66.8987 164.375 66.6163C164.379 66.3335 164.326 66.053 164.218 65.7915C164.11 65.53 163.951 65.2931 163.749 65.0949C163.344 64.6941 162.797 64.4691 162.228 64.4685C161.659 64.4729 161.113 64.6974 160.706 65.0949C160.306 65.5002 160.082 66.0468 160.082 66.6163C160.082 67.1857 160.306 67.7323 160.706 68.1376C161.116 68.5321 161.659 68.756 162.228 68.764Z" fill="white"/>
<path d="M165.088 110.466C165.571 110.42 166.02 110.195 166.346 109.836C166.672 109.477 166.853 109.01 166.853 108.524C166.853 108.039 166.672 107.572 166.346 107.213C166.02 106.854 165.571 106.629 165.088 106.583C164.606 106.629 164.157 106.854 163.831 107.213C163.505 107.572 163.324 108.039 163.324 108.524C163.324 109.01 163.505 109.477 163.831 109.836C164.157 110.195 164.606 110.42 165.088 110.466Z" fill="white"/>
<path d="M73.7743 143.954C73.9212 143.935 74.0654 143.899 74.2038 143.846C74.6303 143.711 75.0052 143.449 75.2777 143.094C75.569 142.742 75.7274 142.299 75.7252 141.842C75.7102 141.478 75.6123 141.123 75.4388 140.803C75.1616 140.343 74.7205 140.004 74.2038 139.855C74.0654 139.802 73.9212 139.766 73.7743 139.748C73.3939 139.64 72.9913 139.64 72.6109 139.748C72.2431 139.838 71.9083 140.031 71.6444 140.302C71.2407 140.714 71.0102 141.265 71.0001 141.842C70.996 142.322 71.152 142.791 71.4437 143.173C71.7354 143.556 72.146 143.83 72.6109 143.954C72.9913 144.061 73.3939 144.061 73.7743 143.954Z" fill="white"/>
<path d="M53.3186 160.706H53.5871C54.0432 160.572 54.4437 160.294 54.7285 159.913C55.0133 159.532 55.1673 159.069 55.1673 158.594C55.1673 158.119 55.0133 157.656 54.7285 157.275C54.4437 156.895 54.0432 156.616 53.5871 156.482H53.3186C52.9801 156.384 52.6234 156.366 52.2767 156.43C51.9301 156.494 51.6029 156.637 51.3212 156.849C51.0395 157.061 50.8109 157.335 50.6535 157.65C50.496 157.966 50.4141 158.313 50.4141 158.666C50.4141 159.018 50.496 159.366 50.6535 159.681C50.8109 159.996 51.0395 160.271 51.3212 160.483C51.6029 160.694 51.9301 160.838 52.2767 160.901C52.6234 160.965 52.9801 160.947 53.3186 160.849V160.706Z" fill="white"/>
<path d="M27.866 139.926C28.4363 139.876 28.9671 139.614 29.3536 139.191C29.7402 138.769 29.9546 138.217 29.9546 137.644C29.9546 137.072 29.7402 136.52 29.3536 136.098C28.9671 135.675 28.4363 135.413 27.866 135.362C27.2957 135.413 26.7649 135.675 26.3783 136.098C25.9918 136.52 25.7773 137.072 25.7773 137.644C25.7773 138.217 25.9918 138.769 26.3783 139.191C26.7649 139.614 27.2957 139.876 27.866 139.926Z" fill="white"/>
<path d="M34.1312 48.9867C34.7493 48.982 35.3433 48.7457 35.7957 48.3245C36.016 48.105 36.1907 47.8442 36.31 47.557C36.4292 47.2699 36.4906 46.962 36.4906 46.651C36.4906 46.3401 36.4292 46.0322 36.31 45.745C36.1907 45.4579 36.016 45.197 35.7957 44.9776C35.3443 44.539 34.7425 44.2894 34.1133 44.2795C33.8035 44.2802 33.4969 44.3422 33.2112 44.462C32.9255 44.5818 32.6664 44.757 32.4488 44.9776C32.2285 45.197 32.0538 45.4579 31.9345 45.745C31.8153 46.0322 31.7539 46.3401 31.7539 46.651C31.7539 46.962 31.8153 47.2699 31.9345 47.557C32.0538 47.8442 32.2285 48.105 32.4488 48.3245C32.8926 48.7634 33.4891 49.0136 34.1133 49.0225L34.1312 48.9867Z" fill="white"/>
<path d="M9.37659 77.4804C9.98411 77.4756 10.5668 77.2387 11.0053 76.8182C11.3266 76.4953 11.5453 76.0846 11.6337 75.6378C11.7222 75.1909 11.6765 74.7279 11.5024 74.3069C11.3283 73.886 11.0335 73.526 10.6553 73.2722C10.277 73.0184 9.8321 72.8821 9.37659 72.8806C8.76696 72.892 8.18458 73.1352 7.74787 73.5607C7.3514 74.0019 7.1399 74.5787 7.15724 75.1716C7.16647 75.7763 7.4108 76.3536 7.83845 76.7813C8.2661 77.2089 8.84346 77.4533 9.44818 77.4625L9.37659 77.4804Z" fill="white"/>
<path d="M136.687 148.034V148.338C136.737 148.886 136.989 149.395 137.395 149.765C137.801 150.136 138.33 150.342 138.88 150.342C139.429 150.342 139.959 150.136 140.365 149.765C140.77 149.395 141.023 148.886 141.072 148.338V148.034C141.287 145.188 136.437 145.188 136.651 148.034H136.687Z" fill="white"/>
<path d="M16.2326 107.603C16.5636 107.608 16.8924 107.548 17.1997 107.425C17.507 107.302 17.7867 107.119 18.0224 106.887C18.2449 106.663 18.421 106.398 18.5408 106.106C18.6606 105.814 18.7216 105.502 18.7205 105.186C18.7296 104.857 18.6725 104.528 18.5526 104.221C18.4327 103.913 18.2524 103.633 18.0224 103.397C17.5391 102.94 16.8972 102.69 16.2326 102.699C15.5918 102.699 14.9772 102.953 14.5241 103.406C14.071 103.859 13.8164 104.474 13.8164 105.115C13.8257 105.753 14.0832 106.362 14.5343 106.813C14.9855 107.264 15.5947 107.522 16.2326 107.531V107.603Z" fill="#FFF896"/>
<path d="M107.834 23.3568C108.385 23.3568 108.913 23.1381 109.302 22.7487C109.691 22.3593 109.91 21.8313 109.91 21.2806C109.901 20.7329 109.679 20.2101 109.292 19.8227C108.904 19.4354 108.382 19.2137 107.834 19.2045C107.283 19.2045 106.755 19.4232 106.366 19.8126C105.977 20.2019 105.758 20.73 105.758 21.2806C105.767 21.8284 105.989 22.3511 106.376 22.7385C106.763 23.1259 107.286 23.3476 107.834 23.3568Z" fill="#FFF896"/>
<path d="M136.989 55.0542C137.464 55.0542 137.919 54.8656 138.255 54.53C138.59 54.1943 138.779 53.7391 138.779 53.2644C138.779 52.7897 138.59 52.3345 138.255 51.9988C137.919 51.6632 137.464 51.4746 136.989 51.4746C136.514 51.4746 136.059 51.6632 135.723 51.9988C135.388 52.3345 135.199 52.7897 135.199 53.2644C135.199 53.7391 135.388 54.1943 135.723 54.53C136.059 54.8656 136.514 55.0542 136.989 55.0542Z" fill="#FFF896"/>
<path d="M148.552 129.51C148.79 128.971 148.803 128.36 148.59 127.811C148.377 127.262 147.954 126.821 147.416 126.583C146.877 126.346 146.266 126.332 145.717 126.546C145.168 126.759 144.727 127.181 144.489 127.72C144.335 127.989 144.237 128.286 144.2 128.593C144.163 128.9 144.188 129.212 144.275 129.51C144.446 130.059 144.808 130.528 145.295 130.834C145.589 131.002 145.917 131.1 146.255 131.123C146.593 131.145 146.931 131.09 147.245 130.963C147.559 130.835 147.839 130.638 148.066 130.387C148.292 130.135 148.458 129.835 148.552 129.51Z" fill="#FFF896"/>
<path d="M73.1831 167.686C73.8513 167.678 74.4912 167.415 74.9729 166.952C75.439 166.473 75.7019 165.831 75.7067 165.163C75.7067 164.834 75.6419 164.508 75.516 164.204C75.3901 163.9 75.2055 163.623 74.9728 163.391C74.7402 163.158 74.4639 162.974 74.1599 162.848C73.8559 162.722 73.5301 162.657 73.201 162.657C72.872 162.657 72.5461 162.722 72.2421 162.848C71.9381 162.974 71.6619 163.158 71.4292 163.391C71.1965 163.623 71.012 163.9 70.886 164.204C70.7601 164.508 70.6953 164.834 70.6953 165.163C70.7001 165.831 70.963 166.473 71.4291 166.952C71.9109 167.415 72.5508 167.678 73.2189 167.686H73.1831Z" fill="#FFF896"/>
</g>
<defs>
<clipPath id="clip0_2288_5635">
<rect width="180" height="180" fill="white"/>
</clipPath>
</defs>
</svg>
