<svg width="180" height="180" viewBox="0 0 180 180" fill="none" xmlns="http://www.w3.org/2000/svg">
<g clip-path="url(#clip0_2288_5519)">
<path d="M177.5 90C177.5 138.325 138.325 177.5 90 177.5C41.6751 177.5 2.5 138.325 2.5 90C2.5 41.6751 41.6751 2.5 90 2.5C138.325 2.5 177.5 41.6751 177.5 90Z" stroke="white" stroke-width="5"/>
<path d="M127.841 48.0966C127.38 45.5725 126.317 43.1965 124.744 41.1694C123.144 39.07 120.863 37.5931 118.292 36.9921C115.722 36.3911 113.022 36.7036 110.657 37.8758C106.546 40.2731 103.281 43.8884 101.313 48.2219C97.1786 56.4916 96.6774 65.9427 96.4805 75.0715C96.4892 75.2634 96.5693 75.445 96.7051 75.5808C96.8409 75.7166 97.0225 75.7967 97.2144 75.8054L111.695 76.8257C111.89 76.8257 112.077 76.7484 112.214 76.6108C112.352 76.4731 112.429 76.2865 112.429 76.0918C112.429 76.0918 112.429 75.9486 112.429 75.8949C111.391 68.735 111.122 61.0918 113.807 54.1646C115.794 49.0811 121.934 43.9081 126.749 49.0274C127.089 49.3854 127.948 48.7768 127.841 48.0966Z" fill="white"/>
<path d="M97.9114 64.8509C98.9329 64.5491 99.9222 64.1474 100.865 63.6516C102.018 63.2438 103.224 63.0027 104.445 62.9356C106.706 62.9571 108.935 63.4701 110.978 64.4392C111.39 64.5824 111.569 64.0096 111.265 63.7948C109.045 62.4413 106.435 61.8739 103.854 62.1838C101.921 62.3986 99.0033 63.0251 97.8398 64.7256C97.8398 64.833 97.8398 64.9225 97.983 64.9046L97.9114 64.8509Z" fill="#35208A"/>
<path d="M99.1641 55.1134C100.086 54.9676 100.983 54.6966 101.831 54.3079C103.067 53.9698 104.372 53.9698 105.608 54.3079C106.942 54.6668 108.17 55.3422 109.188 56.2768C109.832 57.0313 110.565 57.7046 111.372 58.2816C111.622 58.4248 111.962 58.1384 111.783 57.8699C110.303 55.5861 107.992 53.9682 105.339 53.3592C103.549 53.0191 99.9696 53.0728 99.1641 55.006V55.1134Z" fill="#35208A"/>
<path d="M103.138 45.5728C103.657 46.1277 104.284 46.0203 105.017 46.1993C106.058 46.4899 107.044 46.9495 107.935 47.5597C110.047 48.9917 110.96 51.1396 112.643 52.9296C112.666 52.9563 112.695 52.9776 112.728 52.9923C112.76 53.0069 112.795 53.0145 112.831 53.0145C112.866 53.0145 112.901 53.0069 112.934 52.9923C112.966 52.9776 112.995 52.9563 113.019 52.9296C113.041 52.8949 113.053 52.8545 113.053 52.8133C113.053 52.772 113.041 52.7316 113.019 52.6969C112.158 50.2728 110.489 48.2187 108.293 46.8795C107.183 46.1456 104.284 44.4451 103.066 45.5549L103.138 45.5728Z" fill="#35208A"/>
<path d="M109.19 38.8962C110.113 39.1721 110.971 39.6313 111.712 40.2465C112.453 40.8616 113.063 41.62 113.504 42.4762C114.24 44.3617 114.757 46.3257 115.044 48.3294C115.068 48.3955 115.117 48.4494 115.181 48.4795C115.244 48.5096 115.317 48.5136 115.384 48.4905C115.453 48.4558 115.51 48.3992 115.545 48.3294C116.547 44.8389 113.289 38.2876 109.208 38.3592C109.132 38.3592 109.059 38.3894 109.006 38.4431C108.952 38.4968 108.922 38.5697 108.922 38.6456C108.922 38.7216 108.952 38.7944 109.006 38.8481C109.059 38.9018 109.132 38.932 109.208 38.932L109.19 38.8962Z" fill="#35208A"/>
<path d="M117.244 37.0346C119.588 39.6658 119.177 42.9236 118.872 46.1813C118.872 46.2905 118.916 46.3953 118.993 46.4725C119.07 46.5497 119.175 46.593 119.284 46.593C119.393 46.593 119.498 46.5497 119.575 46.4725C119.652 46.3953 119.696 46.2905 119.696 46.1813C120.054 43.4964 120.752 37.9654 117.494 36.5871C117.226 36.4797 117.082 36.8556 117.244 37.0346Z" fill="#35208A"/>
<path d="M123.725 41.3127C123.51 42.1181 123.6 42.9773 123.367 43.8007C123.113 44.5635 122.712 45.269 122.186 45.8771C121.953 46.1814 122.401 46.5931 122.705 46.3962C123.44 45.7937 123.967 44.975 124.212 44.0562C124.456 43.1373 124.405 42.165 124.065 41.2769C124.029 41.2429 123.981 41.224 123.931 41.224C123.881 41.224 123.833 41.2429 123.797 41.2769L123.725 41.3127Z" fill="#35208A"/>
<path d="M78.5611 48.043C76.5938 43.7094 73.3288 40.0941 69.2174 37.6969C66.8522 36.5246 64.1527 36.2122 61.5822 36.8131C59.0118 37.4141 56.7306 38.891 55.1303 40.9904C53.4823 43.0748 52.3754 45.5345 51.9084 48.1504C51.801 48.8126 52.5886 49.457 53.1434 48.8663C57.9585 43.747 64.0981 48.8663 66.0671 54.0036C68.752 60.9308 68.5014 68.5203 67.4454 75.7339C67.4454 76.1635 67.6244 76.7005 68.1614 76.6647L82.6244 75.6444C82.8162 75.6356 82.9978 75.5555 83.1336 75.4197C83.2694 75.284 83.3495 75.1023 83.3582 74.9105C83.1792 65.7637 82.6781 56.3126 78.5611 48.043Z" fill="white"/>
<path d="M82.0002 64.6718C80.8368 62.8818 77.9191 62.3269 75.9859 62.13C73.4046 61.8116 70.7916 62.3796 68.5754 63.741C68.2532 63.9558 68.4501 64.5286 68.8439 64.3854C70.8907 63.4526 73.1102 62.9587 75.3594 62.9355C76.4625 62.9987 77.5522 63.2094 78.5993 63.562C79.6466 64.0835 80.7364 64.5147 81.857 64.8508C81.9465 64.8508 82.0539 64.8508 82.0002 64.6718Z" fill="#35208A"/>
<path d="M80.6377 55.0417C79.8143 53.1086 76.1807 53.0549 74.4444 53.395C71.7993 54.01 69.4957 55.6269 68.0184 57.9057C67.9849 57.9777 67.9791 58.0595 68.0022 58.1355C68.0254 58.2115 68.0757 58.2763 68.1437 58.3174C68.1866 58.3444 68.2362 58.3588 68.2869 58.3588C68.3376 58.3588 68.3872 58.3444 68.4301 58.3174C69.2368 57.7403 69.9701 57.0671 70.6139 56.3126C71.6315 55.378 72.8595 54.7026 74.1938 54.3436C75.4382 54.0215 76.7442 54.0215 77.9886 54.3436C78.9373 54.5584 79.6532 55.2028 80.6377 55.1491V55.0417Z" fill="#35208A"/>
<path d="M76.6101 45.5012C75.4109 44.3914 72.5111 46.0919 71.4013 46.8258C69.1932 48.1513 67.5207 50.2103 66.6758 52.6432C66.6758 52.8759 66.9264 53.0907 67.1054 52.8938C68.8059 51.1038 69.7008 49.0096 71.8309 47.5239C72.7264 46.9207 73.7109 46.4617 74.7486 46.1635C75.4825 45.9666 76.109 46.1635 76.5385 45.537L76.6101 45.5012Z" fill="#35208A"/>
<path d="M70.5417 38.3234C66.4606 38.3234 63.2207 44.8031 64.2052 48.2936C64.2294 48.3597 64.2787 48.4136 64.3423 48.4437C64.4059 48.4738 64.4788 48.4778 64.5453 48.4547C64.6151 48.42 64.6717 48.3634 64.7064 48.2936C65.0091 46.2797 65.5498 44.3088 66.3174 42.4225C66.7586 41.5663 67.3681 40.8079 68.1094 40.1928C68.8506 39.5776 69.7083 39.1184 70.6312 38.8425C70.7089 38.8293 70.7784 38.7865 70.8251 38.723C70.8719 38.6596 70.8922 38.5805 70.8818 38.5024C70.8612 38.43 70.8159 38.3671 70.7538 38.3246C70.6917 38.2821 70.6166 38.2627 70.5417 38.2697V38.3234Z" fill="#35208A"/>
<path d="M62.2549 36.5871C59.015 37.9654 59.7131 43.4964 60.0532 46.1813C60.0532 46.7004 60.9482 46.7183 60.8945 46.1813C60.5723 42.9236 60.1785 39.6658 62.5234 37.0346C62.6487 36.8556 62.5234 36.4797 62.2549 36.5871Z" fill="#35208A"/>
<path d="M55.7049 41.2768C55.3636 42.1631 55.3095 43.1343 55.5505 44.053C55.7914 44.9717 56.315 45.7914 57.0474 46.3962C57.3517 46.5931 57.7991 46.1814 57.5664 45.8771C57.0504 45.262 56.6501 44.5585 56.3851 43.8007C56.1524 42.9773 56.2598 42.1181 56.045 41.3126C56.0085 41.2787 55.9605 41.2598 55.9107 41.2598C55.8609 41.2598 55.8129 41.2787 55.7765 41.3126L55.7049 41.2768Z" fill="#35208A"/>
<path d="M145.149 59.6599V59.463C144.769 58.5723 144.128 57.8181 143.309 57.3003C142.491 56.7824 141.535 56.5254 140.567 56.5632C138.031 56.9497 135.711 58.2172 134.016 60.1432C129.488 64.5156 124.238 68.0706 118.497 70.6503C116.122 71.4971 114.019 72.9689 112.411 74.9105C111.373 76.2709 109.421 79.4212 110.102 81.1933C110.746 82.3341 111.528 83.3921 112.429 84.3436L114.774 87.4761C114.874 87.6411 115.034 87.761 115.221 87.811C115.408 87.861 115.606 87.8372 115.776 87.7446C119.571 86.0799 123.186 83.2697 127.268 82.3747C130.848 81.5692 134.427 81.3544 138.007 79.5465C141.09 78.0076 143.461 75.3411 144.63 72.1002C145.758 68.5024 146.778 63.1861 145.149 59.6599Z" fill="#996666"/>
<path d="M140.996 64.9762C140.679 64.4272 140.222 63.9722 139.672 63.6577C139.121 63.3432 138.497 63.1805 137.863 63.1862C136.774 63.3836 135.787 63.953 135.071 64.7972C133.174 66.7303 131.724 69.29 129.468 70.7936C126.479 72.7805 122.792 72.9952 119.749 74.6957C119.033 75.0895 111.962 79.7972 113.18 81.0143L116.348 84.2721C119.158 84.2721 121.968 81.9093 124.295 80.6922C127.177 79.0633 129.665 79.1886 132.798 78.6337C135.147 78.1725 137.281 76.9555 138.875 75.1683C140.468 73.3811 141.433 71.1219 141.622 68.7351C141.813 67.4474 141.593 66.1325 140.996 64.9762Z" fill="#FFC9A8"/>
<path d="M67.6612 74.8568C66.0476 72.9286 63.9548 71.4593 61.5932 70.5966C55.8521 68.0169 50.6015 64.4619 46.0741 60.0895C44.374 58.1695 42.0569 56.9033 39.5228 56.5095C38.5552 56.4717 37.5989 56.7287 36.7806 57.2466C35.9623 57.7644 35.3206 58.5186 34.9405 59.4093C34.9001 59.4695 34.8698 59.5361 34.851 59.6062C33.1863 63.1861 34.2603 68.4486 35.5491 71.957C36.7104 75.1966 39.0762 77.8637 42.1541 79.4033C45.555 81.1933 49.1529 81.4081 52.8044 82.2315C56.9035 83.1623 60.5013 85.9725 64.314 87.6014C64.4836 87.694 64.6823 87.7178 64.8689 87.6678C65.0556 87.6178 65.2158 87.4979 65.3164 87.3329L67.6433 84.1288C68.5444 83.1731 69.3313 82.1159 69.9882 80.9785C70.6684 79.3675 68.6994 76.1992 67.6612 74.8568Z" fill="#996666"/>
<path d="M39.0025 64.9761C39.321 64.4245 39.7808 63.9678 40.3345 63.6531C40.8883 63.3385 41.516 63.1773 42.1529 63.1861C43.2352 63.3888 44.2148 63.9576 44.9274 64.7971C46.8426 66.7303 48.2925 69.29 50.5479 70.7935C53.5193 72.7804 57.2066 72.9952 60.2675 74.6957C60.9834 75.0895 68.0539 79.7971 66.8188 81.0143L63.5968 84.2721C60.7687 84.2721 57.9763 81.9093 55.6314 80.6921C52.7496 79.0632 50.2615 79.1885 47.129 78.6336C44.7822 78.1669 42.6513 76.9483 41.059 75.1622C39.4667 73.3761 38.4997 71.1199 38.3045 68.7351C38.1469 67.4402 38.3906 66.1281 39.0025 64.9761Z" fill="#FFC9A8"/>
<path d="M114.646 75.179C112.892 72.3953 110.418 70.1378 107.486 68.6456C104.032 67.1778 100.326 68.2876 96.7464 68.6456C92.296 69.3078 87.772 69.3078 83.3216 68.6456C79.8848 68.0907 76.1617 67.1778 72.8144 68.6456C66.4779 71.3663 62.5579 78.9737 60.9469 85.3282C59.298 92.7292 60.3121 100.475 63.8109 107.202C67.1148 113.787 70.7964 120.176 74.8371 126.337C78.0054 131.474 78.4171 140.101 84.9326 142.446C87.0569 143.335 89.3766 143.654 91.6621 143.372C93.9476 143.089 96.1197 142.215 97.9636 140.835C100.666 138.526 101.669 135.125 102.814 131.885C104.123 128.535 105.843 125.361 107.934 122.434C110.297 118.854 112.301 114.988 114.342 111.211C116.442 107.535 118.083 103.616 119.229 99.5406C120.23 95.3867 120.339 91.0677 119.549 86.8685C118.759 82.6693 117.088 78.6853 114.646 75.179Z" fill="#996666"/>
<path d="M100.917 136.611C100.848 136.067 100.716 135.532 100.524 135.018C98.3041 129.308 89.3542 129.236 84.8077 130.99C82.2716 132.098 80.2368 134.107 79.0977 136.629C80.1376 139.202 82.105 141.29 84.6108 142.482C86.754 143.398 89.0999 143.736 91.4146 143.463C93.7292 143.19 95.9319 142.315 97.8029 140.925C99.1409 139.729 100.204 138.257 100.917 136.611Z" fill="#FFC9A8"/>
<path d="M69.6126 103.138C68.9753 103.138 68.3524 102.949 67.8226 102.595C67.2927 102.241 66.8797 101.738 66.6359 101.149C66.392 100.561 66.3282 99.9128 66.4525 99.2878C66.5769 98.6628 66.8837 98.0887 67.3343 97.6381C67.7849 97.1875 68.359 96.8807 68.984 96.7564C69.609 96.632 70.2568 96.6959 70.8456 96.9397C71.4343 97.1836 71.9375 97.5965 72.2915 98.1264C72.6456 98.6562 72.8345 99.2792 72.8345 99.9164C72.8252 100.768 72.4828 101.582 71.8806 102.184C71.2783 102.787 70.4642 103.129 69.6126 103.138Z" fill="#35208A"/>
<path d="M110.406 103.138C109.768 103.138 109.145 102.949 108.616 102.595C108.086 102.241 107.673 101.738 107.429 101.149C107.185 100.561 107.121 99.9128 107.246 99.2878C107.37 98.6628 107.677 98.0887 108.127 97.6381C108.578 97.1875 109.152 96.8807 109.777 96.7564C110.402 96.632 111.05 96.6959 111.639 96.9397C112.227 97.1836 112.73 97.5965 113.085 98.1264C113.439 98.6562 113.628 99.2792 113.628 99.9164C113.614 100.767 113.27 101.578 112.669 102.179C112.067 102.781 111.256 103.125 110.406 103.138Z" fill="#35208A"/>
<path d="M85.1857 133.998C87.1547 132.977 86.206 129.702 86.0628 127.93C85.848 125.155 85.6332 122.363 85.4005 119.588C84.9888 114.218 84.8814 108.652 84.058 103.3C83.3241 98.5024 79.5115 94.4928 77.0592 90.4475C75.7557 88.3413 74.5898 86.1529 73.5687 83.8962C72.4948 81.426 71.9399 78.7948 70.9733 76.3067C70.8523 75.9533 70.6123 75.653 70.2944 75.4571C69.9764 75.2611 69.6003 75.1817 69.2303 75.2325C68.8603 75.2832 68.5194 75.4609 68.2659 75.7353C68.0125 76.0096 67.8622 76.3634 67.8408 76.7363C67.4112 81.6766 70.5258 87.0286 72.9781 91.1814C74.2847 93.3831 75.6988 95.5131 77.1129 97.6253C78.8357 99.6847 80.006 102.149 80.5139 104.785C81.1761 110.424 81.5341 116.134 82.0353 121.808C82.3038 124.582 82.5365 127.375 82.7871 130.167C82.8945 131.169 83.1809 135 85.1857 133.944V133.998Z" fill="#FFC9A8"/>
<path d="M95.4583 134.087C97.5168 133.425 97.2483 130.507 97.3557 128.717L98.1075 120.358L98.8593 112.017C98.9811 109.211 99.256 106.415 99.6827 103.64C100.443 101.24 101.658 99.0098 103.263 97.0704C104.695 94.9583 106.109 92.8103 107.397 90.5907C109.707 86.5812 112.571 81.4977 112.177 76.7542C112.155 76.3814 112.005 76.0275 111.752 75.7532C111.498 75.4789 111.157 75.3012 110.787 75.2504C110.417 75.1997 110.041 75.2791 109.723 75.475C109.405 75.671 109.165 75.9713 109.044 76.3246C108.06 78.8127 107.523 81.444 106.431 83.9141C105.325 86.3884 104.045 88.781 102.6 91.074C100.005 95.2626 96.4428 99.1289 95.8342 104.177C95.1719 109.797 94.9213 115.489 94.4917 121.128C94.2591 123.92 94.0443 126.712 93.8295 129.487C93.8295 130.364 93.2209 134.857 95.4583 134.123V134.087Z" fill="#FFC9A8"/>
<path d="M83.2165 134.033C83.8967 134.714 85.1139 134.553 85.991 134.946C86.8681 135.34 87.5661 136.271 88.5327 136.736C89.4993 137.202 89.8215 136.199 89.6962 135.573C89.4456 134.356 87.9062 133.496 86.8323 133.067C85.7583 132.637 84.0399 132.1 83.2523 133.067C83.1152 133.216 83.0391 133.41 83.0391 133.613C83.0391 133.815 83.1152 134.01 83.2523 134.159L83.2165 134.033Z" fill="#35208A"/>
<path d="M96.8019 132.942C95.9606 132.011 94.1707 132.566 93.222 132.942C92.2733 133.317 90.6086 134.23 90.358 135.448C90.2148 136.074 90.7876 136.915 91.5215 136.611C92.2554 136.307 93.0788 135.322 94.0454 134.821C95.0119 134.32 96.1396 134.588 96.8377 133.908C96.9676 133.756 97.0389 133.562 97.0389 133.362C97.0389 133.162 96.9676 132.969 96.8377 132.816L96.8019 132.942Z" fill="#35208A"/>
<path d="M81.7138 136.181C83.0921 143.735 96.0336 142.554 98.3964 136.181C98.5933 135.644 97.752 135.412 97.5551 135.949C96.4811 138.938 93.1338 140.155 90.1983 140.37C88.5909 140.651 86.9356 140.375 85.5065 139.588C84.0775 138.8 82.9604 137.548 82.3403 136.038C82.2983 135.961 82.2296 135.902 82.1471 135.873C82.0647 135.843 81.9742 135.844 81.8928 135.877C81.8304 135.908 81.7785 135.957 81.7435 136.018C81.7085 136.078 81.692 136.147 81.6959 136.217L81.7138 136.181Z" fill="#35208A"/>
<path d="M112.984 116.348C111.981 116.334 111.004 116.023 110.176 115.455C109.349 114.886 108.709 114.085 108.336 113.153C107.963 112.221 107.875 111.199 108.082 110.217C108.289 109.235 108.782 108.336 109.5 107.633C110.217 106.931 111.126 106.457 112.113 106.27C113.099 106.084 114.118 106.194 115.043 106.586C115.967 106.978 116.754 107.635 117.305 108.474C117.856 109.313 118.147 110.297 118.14 111.301C118.116 112.651 117.562 113.937 116.597 114.882C115.633 115.827 114.335 116.353 112.984 116.348Z" fill="#E0435B"/>
<path d="M68.3241 116.348C67.3186 116.352 66.3348 116.057 65.4968 115.502C64.6589 114.946 64.0045 114.154 63.6165 113.227C63.2285 112.299 63.1242 111.278 63.3169 110.291C63.5096 109.304 63.9905 108.396 64.699 107.683C65.4074 106.97 66.3115 106.482 67.2969 106.283C68.2823 106.083 69.3048 106.18 70.235 106.562C71.1653 106.943 71.9615 107.592 72.523 108.426C73.0845 109.26 73.3861 110.242 73.3897 111.247C73.3805 112.591 72.8449 113.878 71.8979 114.831C70.9509 115.785 69.6679 116.33 68.3241 116.348Z" fill="#E0435B"/>
<path d="M85.398 74.4093C84.7357 75.3401 85.398 76.969 85.6844 77.9893C86.148 79.2769 86.8664 80.458 87.7966 81.4618C88.1546 81.8735 88.7453 81.2828 88.3873 80.8711C87.4284 79.7959 86.7139 78.5257 86.293 77.148C86.0245 76.2888 86.114 75.1611 85.5412 74.4451H85.4159L85.398 74.4093Z" fill="#35208A"/>
<path d="M90.1805 75.7518C89.5361 77.3449 91.1292 79.8151 92.0779 81.1218C93.4167 82.8825 95.3076 84.1431 97.4478 84.7017C97.5404 84.7278 97.6396 84.7161 97.7235 84.6691C97.8074 84.6221 97.8692 84.5437 97.8953 84.4511C97.9214 84.3585 97.9097 84.2594 97.8627 84.1755C97.8157 84.0915 97.7373 84.0297 97.6447 84.0036C95.6082 83.3502 93.8132 82.1037 92.4896 80.4237C91.8471 79.5827 91.3398 78.6466 90.986 77.6492C90.8606 77.0161 90.6243 76.4101 90.2879 75.8592H90.1089L90.1805 75.7518Z" fill="#35208A"/>
<path d="M93.8322 72.5298C93.6725 73.3733 93.7465 74.2445 94.0462 75.049C94.3459 75.8536 94.8599 76.5608 95.5327 77.0942C95.8907 77.3627 96.3739 76.9331 96.0517 76.5751C95.5601 76.0447 95.1787 75.4218 94.9298 74.7427C94.6809 74.0636 94.5695 73.3418 94.6019 72.6193C94.5804 72.5173 94.5193 72.428 94.4321 72.371C94.3448 72.3139 94.2385 72.2938 94.1365 72.315C94.0626 72.3327 93.9951 72.3705 93.9414 72.4242C93.8877 72.4779 93.8499 72.5454 93.8322 72.6193V72.5298Z" fill="#35208A"/>
<path d="M104.644 113.914C105.202 115.832 105.069 117.884 104.268 119.714C104.124 120.107 104.733 120.34 104.948 120C105.501 119.045 105.819 117.973 105.875 116.871C105.931 115.769 105.724 114.669 105.27 113.664C105.109 113.306 104.536 113.556 104.644 113.914Z" fill="#35208A"/>
<path d="M107.793 117.494C107.775 117.922 107.721 118.347 107.631 118.765C107.467 119.113 107.347 119.479 107.273 119.857C107.273 119.902 107.283 119.947 107.301 119.989C107.319 120.031 107.346 120.068 107.38 120.098C107.414 120.129 107.454 120.152 107.497 120.166C107.54 120.179 107.586 120.184 107.631 120.179H107.775C108.204 119.964 108.347 119.374 108.455 118.944C108.58 118.451 108.58 117.934 108.455 117.44C108.455 117.355 108.421 117.273 108.36 117.213C108.3 117.152 108.218 117.118 108.133 117.118C108.047 117.118 107.965 117.152 107.905 117.213C107.844 117.273 107.81 117.355 107.81 117.44L107.793 117.494Z" fill="#35208A"/>
<path d="M76.323 117.458C75.96 118.335 75.96 119.32 76.323 120.197C76.555 121.236 77.0408 122.202 77.7371 123.007C77.7949 123.068 77.8733 123.106 77.9572 123.113C78.0412 123.12 78.1246 123.095 78.1914 123.044C78.2582 122.992 78.3037 122.918 78.319 122.836C78.3342 122.753 78.3182 122.667 78.2741 122.595C77.7081 121.777 77.2676 120.878 76.9674 119.928C76.897 119.123 76.7532 118.327 76.5378 117.548H76.3946L76.323 117.458Z" fill="#35208A"/>
<path d="M78.7577 120.465C78.9489 121.22 79.2831 121.931 79.7422 122.56C80.1002 123.097 80.5119 123.777 81.1563 123.974C81.3353 123.974 81.5501 123.831 81.4785 123.652C81.1603 123.083 80.7757 122.554 80.3329 122.076C79.9526 121.5 79.6059 120.903 79.2947 120.286C79.1336 119.982 78.6861 120.286 78.7577 120.519V120.465Z" fill="#35208A"/>
<path d="M36.7298 65.0656C36.8551 64.3317 36.8193 63.5799 37.0162 62.846C37.2709 61.9886 37.7248 61.2035 38.3408 60.5549C38.4143 60.4789 38.4547 60.3768 38.4531 60.2711C38.4514 60.1653 38.4078 60.0646 38.3318 59.991C38.2559 59.9174 38.1538 59.877 38.048 59.8787C37.9423 59.8804 37.8416 59.924 37.768 60C37.0612 60.6247 36.5488 61.4393 36.2918 62.3469C36.0347 63.2544 36.0439 64.2168 36.3181 65.1193C36.3263 65.1464 36.3397 65.1715 36.3577 65.1934C36.3756 65.2152 36.3977 65.2333 36.4226 65.2466C36.4475 65.2599 36.4749 65.2682 36.503 65.2709C36.5312 65.2736 36.5596 65.2708 36.5866 65.2625C36.6212 65.2538 36.6528 65.2359 36.678 65.2107C36.7032 65.1855 36.7211 65.1539 36.7298 65.1193V65.0656Z" fill="#35208A"/>
<path d="M38.9688 62.7387L39.1657 62.5239C39.2167 62.4413 39.253 62.3504 39.2731 62.2554C39.3649 62.0595 39.4856 61.8785 39.6311 61.7184C39.9354 61.4141 40.3471 61.3246 40.6693 61.0561C40.7272 60.9961 40.7596 60.9159 40.7596 60.8324C40.7596 60.7489 40.7272 60.6687 40.6693 60.6086C40.6225 60.5947 40.5728 60.5947 40.5261 60.6086C40.2328 60.5744 39.9359 60.6214 39.6675 60.7445C39.3992 60.8677 39.1699 61.0621 39.0046 61.3067C38.8227 61.5301 38.6831 61.7849 38.5929 62.0585C38.5576 62.1813 38.5576 62.3116 38.5929 62.4344C38.5929 62.5776 38.6824 62.6671 38.7182 62.7924C38.7328 62.8227 38.7557 62.8482 38.7842 62.8661C38.8127 62.8839 38.8457 62.8934 38.8793 62.8934C38.9129 62.8934 38.9459 62.8839 38.9743 62.8661C39.0028 62.8482 39.0257 62.8227 39.0404 62.7924L38.9688 62.7387Z" fill="#35208A"/>
<path d="M138.51 60.0537C138.975 60.2864 139.495 60.3043 139.96 60.5906C140.474 60.9077 140.851 61.4058 141.016 61.9868C141.035 62.0333 141.064 62.0751 141.1 62.1098C141.136 62.1444 141.18 62.1711 141.227 62.1879C141.274 62.2048 141.324 62.2116 141.374 62.2078C141.424 62.204 141.473 62.1897 141.517 62.1658C141.589 62.1352 141.649 62.0819 141.688 62.014C141.727 61.9462 141.742 61.8674 141.732 61.7899C141.645 61.4147 141.48 61.0618 141.249 60.7536C141.018 60.4454 140.725 60.1888 140.39 60C140.114 59.8085 139.789 59.6986 139.454 59.6828C139.118 59.6669 138.785 59.7458 138.492 59.9105C138.475 59.9302 138.465 59.9556 138.465 59.9821C138.465 60.0085 138.475 60.034 138.492 60.0537H138.51Z" fill="#35208A"/>
<path d="M142.5 59.6599C142.5 60.2327 143.234 60.6623 143.467 61.1993C143.779 61.9811 143.816 62.8455 143.574 63.6516C143.564 63.7392 143.588 63.8273 143.641 63.8974C143.695 63.9675 143.773 64.0142 143.86 64.0275C143.92 64.0355 143.981 64.0282 144.038 64.0063C144.094 63.9844 144.144 63.9486 144.183 63.9022C144.395 63.4673 144.505 62.9898 144.505 62.506C144.505 62.0222 144.395 61.5447 144.183 61.1098C143.95 60.5549 143.252 59.3199 142.5 59.5883V59.6599Z" fill="#35208A"/>
<path d="M67.1607 138.186C67.1605 138.106 67.1283 138.028 67.0712 137.971C66.5342 136.969 64.6011 136.772 63.6345 136.575C62.0593 136.271 60.4662 136.074 58.8552 135.859L58.0856 135.752H57.7992C57.597 135.403 57.4406 135.03 57.3338 134.642C56.6715 133.103 56.0271 131.563 55.3469 130.024C55.0068 129.236 54.6667 128.467 54.2908 127.697C54.076 127.232 53.8075 126.337 53.2884 126.104C52.1249 125.603 51.3015 128.485 50.9972 129.165C50.2455 130.829 49.5653 132.512 48.8493 134.177C48.6882 134.535 48.4376 135.537 48.1154 135.77C47.6138 135.862 47.1028 135.892 46.5939 135.859L44.4817 136.038C43.2725 136.111 42.0734 136.303 40.9018 136.611C40.2037 136.808 38.9507 137.148 39.1118 138.132C39.2729 139.117 40.4185 139.69 40.9018 140.119C41.8485 140.873 42.8541 141.549 43.9089 142.142C44.3743 142.428 44.9829 142.625 45.4125 142.948C45.8421 143.27 45.7168 143.825 45.5557 144.397C45.2335 145.615 44.9113 146.832 44.6249 147.977C44.3385 149.123 44.1416 149.964 43.9805 150.985C43.7841 151.669 43.7841 152.395 43.9805 153.079C44.7144 154.636 47.5605 151.915 48.187 151.396C48.8135 150.877 49.8696 150.054 50.693 149.356L51.8743 148.317C52.0891 148.121 52.644 147.351 52.9304 147.297C53.2168 147.243 54.613 148.711 54.9889 149.087C55.8302 149.821 56.7789 150.519 57.5665 151.199C58.6942 152.332 60.1127 153.131 61.6655 153.508C63.0438 153.634 62.3815 151.539 62.2025 150.716C61.7729 148.747 61.1285 146.832 60.5378 144.899C60.4125 144.487 60.2514 144.075 60.1619 143.646C60.0724 143.216 60.1619 143.216 60.4841 142.965C61.2359 142.518 62.1667 142.232 62.9722 141.82C64.2431 141.175 66.8206 140.03 67.1786 138.401C67.1991 138.33 67.1927 138.253 67.1607 138.186Z" fill="#F7B9E7"/>
<path d="M166.466 86.9749C164.282 86.778 162.081 86.8138 159.879 86.8317L161.669 85.0417C162.722 84.1442 163.628 83.0872 164.354 81.9093C164.394 81.8393 164.419 81.7619 164.428 81.6818C164.437 81.6017 164.43 81.5205 164.407 81.4434C164.383 81.3663 164.344 81.2947 164.292 81.2333C164.24 81.1718 164.176 81.1216 164.103 81.0859C164.014 81.0417 163.916 81.0187 163.817 81.0187C163.718 81.0187 163.619 81.0417 163.53 81.0859C162.344 81.8009 161.271 82.6876 160.344 83.7171L158.447 85.5071V82.8222C158.552 81.4423 158.45 80.0546 158.143 78.7052C158.093 78.5539 157.988 78.4271 157.848 78.3507C157.709 78.2742 157.545 78.2538 157.391 78.2935C157.294 78.3237 157.206 78.3769 157.134 78.4486C157.063 78.5203 157.009 78.6084 156.979 78.7052C156.643 80.0501 156.51 81.4379 156.585 82.8222V85.4892L154.795 83.5918C153.898 82.5387 152.841 81.6328 151.663 80.9069C151.593 80.8668 151.516 80.8414 151.435 80.8323C151.355 80.8233 151.274 80.8307 151.197 80.8542C151.12 80.8777 151.048 80.9167 150.987 80.9688C150.925 81.021 150.875 81.0852 150.84 81.1575C150.795 81.2465 150.772 81.3445 150.772 81.4439C150.772 81.5432 150.795 81.6413 150.84 81.7303C151.55 82.9141 152.438 83.9825 153.471 84.8985C154.097 85.5429 154.706 86.1873 155.261 86.8138H152.576C151.195 86.7147 149.807 86.8233 148.459 87.136C148.308 87.1855 148.181 87.2908 148.104 87.4305C148.028 87.5701 148.007 87.7336 148.047 87.8878C148.077 87.9846 148.131 88.0727 148.202 88.1444C148.274 88.2161 148.362 88.2693 148.459 88.2995C149.803 88.6386 151.192 88.7654 152.576 88.6754H155.189C153.578 90.1969 151.967 91.7183 150.535 93.3651C150.367 93.5336 150.272 93.7622 150.272 94.0006C150.272 94.2389 150.367 94.4675 150.535 94.636C150.704 94.8045 150.932 94.8992 151.171 94.8992C151.409 94.8992 151.638 94.8045 151.806 94.636C153.471 93.2577 154.992 91.6825 156.532 90.1253C156.532 92.309 156.406 94.5107 156.532 96.6766C156.553 96.7952 156.598 96.9084 156.664 97.0092C156.73 97.11 156.816 97.1965 156.916 97.2633C157.016 97.3302 157.129 97.3761 157.248 97.3983C157.366 97.4205 157.488 97.4186 157.606 97.3926C157.782 97.3572 157.945 97.2703 158.072 97.1429C158.199 97.0155 158.286 96.8533 158.322 96.6766C158.501 94.5286 158.483 92.3269 158.465 90.1432C159.968 91.7362 161.472 93.3293 163.101 94.7613C163.195 94.8346 163.304 94.8882 163.419 94.919C163.535 94.9497 163.656 94.957 163.774 94.9403C163.893 94.9236 164.007 94.8833 164.109 94.8218C164.212 94.7603 164.301 94.6789 164.372 94.5823C164.494 94.423 164.56 94.228 164.56 94.0274C164.56 93.8268 164.494 93.6318 164.372 93.4725C162.993 91.8257 161.418 90.2864 159.861 88.7649C162.045 88.7649 164.246 88.8902 166.412 88.7649C166.531 88.7454 166.645 88.7025 166.747 88.6387C166.85 88.575 166.938 88.4916 167.008 88.3934C167.078 88.2953 167.128 88.1842 167.155 88.0667C167.181 87.9492 167.185 87.8276 167.164 87.7088C167.129 87.533 167.045 87.3708 166.921 87.2409C166.798 87.111 166.64 87.0188 166.466 86.9749Z" fill="white"/>
<path d="M92.5431 13.8186C92.2417 13.3066 91.7557 12.9292 91.1849 12.764C90.6141 12.5988 90.0017 12.6582 89.4733 12.93C88.945 13.2019 88.5406 13.6656 88.3431 14.226C88.1457 14.7865 88.1702 15.4013 88.4115 15.9443C88.6528 16.4873 89.0928 16.9174 89.6411 17.1464C90.1894 17.3754 90.8046 17.386 91.3604 17.176C91.9163 16.9659 92.3707 16.5512 92.6306 16.0168C92.8904 15.4824 92.936 14.8688 92.7579 14.3019C92.7049 14.1275 92.6329 13.9594 92.5431 13.8007V13.8186Z" fill="white"/>
<path d="M124.152 29.4809C124.532 29.575 124.932 29.5421 125.291 29.3874C125.65 29.2326 125.949 28.9644 126.141 28.6238C126.334 28.2833 126.409 27.8891 126.356 27.5015C126.304 27.1139 126.125 26.7544 125.849 26.4778C125.572 26.2012 125.212 26.0228 124.825 25.9699C124.437 25.917 124.043 25.9926 123.703 26.185C123.362 26.3773 123.094 26.676 122.939 27.0352C122.784 27.3945 122.751 27.7945 122.846 28.1742C122.924 28.4902 123.087 28.7789 123.317 29.0092C123.548 29.2394 123.836 29.4025 124.152 29.4809Z" fill="white"/>
<path d="M95.6368 48.6336C95.5323 48.2293 95.315 47.863 95.0103 47.5775C94.7885 47.3599 94.5202 47.1953 94.2257 47.0961C93.9312 46.9969 93.6181 46.9657 93.3098 47.0047C92.8012 47.0979 92.3422 47.3685 92.0144 47.7684C91.6866 48.1683 91.5114 48.6715 91.5198 49.1885C91.5188 49.4914 91.5835 49.7909 91.7094 50.0663C91.8353 50.3417 92.0195 50.5866 92.2492 50.784C92.4789 50.9814 92.7487 51.1266 93.04 51.2096C93.3312 51.2926 93.637 51.3115 93.9363 51.2649C94.4816 51.1848 94.974 50.8948 95.3085 50.4567C95.6429 50.0186 95.7928 49.4671 95.7263 48.92V48.6336H95.6368Z" fill="white"/>
<path d="M140.354 47.0584C140.082 46.9013 139.773 46.8186 139.459 46.8186C139.144 46.8186 138.836 46.9013 138.564 47.0584C138.211 47.2843 137.938 47.614 137.781 48.0019C137.624 48.3898 137.591 48.8169 137.687 49.2243C137.793 49.6043 138.015 49.9416 138.322 50.1894C138.629 50.4372 139.006 50.5831 139.4 50.6067C139.794 50.6303 140.185 50.5306 140.52 50.3213C140.854 50.112 141.115 49.8036 141.267 49.4391C141.448 49.0533 141.486 48.6153 141.374 48.204C141.222 47.7324 140.913 47.3277 140.497 47.0584H140.354Z" fill="white"/>
<path d="M129.861 107.399H130.309C130.546 107.477 130.797 107.505 131.046 107.481C131.294 107.456 131.535 107.38 131.753 107.257C131.97 107.134 132.16 106.967 132.309 106.766C132.458 106.565 132.563 106.336 132.618 106.092C132.644 105.932 132.644 105.769 132.618 105.609C132.601 105.114 132.403 104.643 132.063 104.284C131.833 104.057 131.55 103.89 131.239 103.801C130.911 103.711 130.565 103.711 130.237 103.801H129.789L129.36 103.98C129.153 104.085 128.979 104.246 128.859 104.445C128.606 104.746 128.467 105.126 128.465 105.519C128.484 105.837 128.57 106.148 128.715 106.432C128.952 106.836 129.337 107.132 129.789 107.255L129.861 107.399Z" fill="white"/>
<path d="M157.017 130.185C157.58 130.18 158.12 129.955 158.52 129.558C158.908 129.152 159.131 128.616 159.147 128.055C159.138 127.493 158.91 126.956 158.513 126.559C158.115 126.161 157.579 125.934 157.017 125.925C156.452 125.925 155.91 126.149 155.511 126.549C155.111 126.948 154.887 127.49 154.887 128.055C154.887 128.62 155.111 129.162 155.511 129.561C155.91 129.961 156.452 130.185 157.017 130.185Z" fill="white"/>
<path d="M127.713 136.038C128.263 136.032 128.788 135.814 129.181 135.43C129.374 135.238 129.528 135.009 129.632 134.757C129.737 134.505 129.79 134.235 129.789 133.962C129.772 133.417 129.547 132.899 129.161 132.513C128.776 132.128 128.258 131.903 127.713 131.885C127.165 131.9 126.643 132.117 126.245 132.494C125.861 132.887 125.643 133.412 125.637 133.962C125.641 134.511 125.862 135.037 126.25 135.425C126.638 135.813 127.164 136.034 127.713 136.038Z" fill="white"/>
<path d="M103.819 166.468C103.521 166.38 103.208 166.356 102.9 166.396C102.592 166.436 102.295 166.54 102.029 166.7C101.761 166.853 101.526 167.057 101.337 167.301C101.148 167.545 101.009 167.823 100.927 168.121C100.846 168.418 100.824 168.729 100.862 169.035C100.901 169.341 100.999 169.637 101.152 169.905C101.305 170.173 101.509 170.408 101.753 170.597C101.996 170.786 102.275 170.925 102.573 171.007C102.87 171.088 103.181 171.11 103.487 171.072C103.793 171.033 104.088 170.934 104.356 170.782C104.807 170.515 105.159 170.109 105.36 169.625C105.56 169.14 105.597 168.604 105.466 168.097C105.361 167.703 105.153 167.345 104.864 167.059C104.574 166.773 104.214 166.569 103.819 166.468Z" fill="white"/>
<path d="M75.339 147.673C75.9324 147.673 76.5016 147.437 76.9212 147.018C77.3408 146.598 77.5765 146.029 77.5765 145.436C77.5765 144.842 77.3408 144.273 76.9212 143.853C76.5016 143.434 75.9324 143.198 75.339 143.198C74.7466 143.209 74.1792 143.438 73.746 143.843C73.3342 144.271 73.1034 144.841 73.1016 145.436C73.1062 146.028 73.3435 146.594 73.7621 147.013C74.1807 147.431 74.7471 147.668 75.339 147.673Z" fill="white"/>
<path d="M55.2386 108.902C55.0054 108.957 54.782 109.048 54.5763 109.171C54.3786 109.282 54.1978 109.42 54.0393 109.582C53.7013 109.95 53.4828 110.412 53.4128 110.907C53.3284 111.407 53.4235 111.92 53.6813 112.357C53.9442 112.782 54.336 113.112 54.7997 113.299C55.2634 113.486 55.7747 113.519 56.2589 113.395H55.1312C55.5465 113.528 55.9911 113.54 56.4128 113.429C56.8345 113.318 57.2158 113.089 57.5118 112.768C57.9382 112.318 58.1808 111.724 58.192 111.104C58.1921 110.795 58.1307 110.49 58.0115 110.205C57.8924 109.92 57.7178 109.662 57.4979 109.446C57.278 109.229 57.0172 109.058 56.7307 108.944C56.4443 108.829 56.1378 108.772 55.8293 108.777C55.6332 108.751 55.4346 108.751 55.2386 108.777V108.902Z" fill="white"/>
<path d="M19.7778 115.525V116.08C19.8226 115.88 19.8226 115.672 19.7778 115.471C19.7634 115.097 19.6655 114.73 19.4914 114.397C19.2304 113.975 18.8263 113.659 18.3527 113.509C17.879 113.359 17.3672 113.384 16.9102 113.578C16.4531 113.773 16.0811 114.126 15.8618 114.572C15.6424 115.018 15.5902 115.527 15.7146 116.008C15.7733 116.224 15.8512 116.433 15.9473 116.635L16.2695 117.047C16.4479 117.242 16.6772 117.385 16.9318 117.458C17.3432 117.663 17.8174 117.701 18.2564 117.566C18.6838 117.44 19.0601 117.181 19.3305 116.827C19.6009 116.473 19.7514 116.042 19.7599 115.597L19.7778 115.525Z" fill="white"/>
<path d="M32.2183 89.7673C32.795 89.7572 33.3458 89.5266 33.7577 89.1229C34.0587 88.8152 34.263 88.426 34.3451 88.0034C34.4273 87.5809 34.3838 87.1435 34.2199 86.7454C34.0561 86.3474 33.7792 86.006 33.4235 85.7637C33.0677 85.5213 32.6487 85.3886 32.2183 85.3818C31.6417 85.3919 31.0908 85.6225 30.6789 86.0262C30.4749 86.2292 30.313 86.4704 30.2025 86.7361C30.092 87.0019 30.0352 87.2868 30.0352 87.5746C30.0352 87.8623 30.092 88.1473 30.2025 88.413C30.313 88.6787 30.4749 88.92 30.6789 89.1229C31.0908 89.5266 31.6417 89.7572 32.2183 89.7673Z" fill="white"/>
<path d="M30.5197 41.6527C30.9516 41.6527 31.3738 41.5246 31.7329 41.2847C32.0921 41.0447 32.372 40.7037 32.5373 40.3046C32.7025 39.9056 32.7458 39.4665 32.6615 39.0429C32.5773 38.6193 32.3693 38.2302 32.0639 37.9248C31.7585 37.6194 31.3694 37.4114 30.9457 37.3271C30.5221 37.2429 30.083 37.2861 29.684 37.4514C29.285 37.6167 28.9439 37.8966 28.704 38.2557C28.464 38.6148 28.3359 39.037 28.3359 39.4689C28.3359 40.0481 28.566 40.6036 28.9756 41.0131C29.3851 41.4226 29.9405 41.6527 30.5197 41.6527Z" fill="white"/>
<path d="M19.438 69.5763L19.5991 69.2899C19.8617 68.8094 19.9622 68.2569 19.8855 67.7147C19.8282 67.1844 19.5876 66.6906 19.2053 66.3186C18.8943 66.0337 18.529 65.8145 18.1313 65.6742C17.8145 65.5856 17.4831 65.5621 17.1569 65.6052C16.8308 65.6483 16.5168 65.757 16.2339 65.9248L15.9475 66.0859C15.3565 66.4205 14.9226 66.9763 14.7413 67.6309C14.5601 68.2855 14.6462 68.9853 14.9809 69.5763C15.3156 70.1674 15.8714 70.6012 16.526 70.7825C17.1806 70.9638 17.8803 70.8776 18.4714 70.5429C18.8731 70.3115 19.2066 69.978 19.438 69.5763Z" fill="#FFF896"/>
<path d="M111.623 145.078C111.852 144.696 111.973 144.26 111.973 143.816C111.973 143.371 111.852 142.935 111.623 142.554C111.411 142.194 111.114 141.892 110.758 141.674C110.402 141.456 109.998 141.328 109.582 141.302C109.165 141.275 108.749 141.351 108.368 141.522C107.988 141.694 107.655 141.956 107.399 142.285C107.19 142.547 107.035 142.847 106.942 143.169C106.85 143.491 106.822 143.828 106.86 144.161C106.899 144.493 107.002 144.815 107.165 145.108C107.328 145.4 107.547 145.658 107.81 145.865C108.002 146.012 108.213 146.132 108.437 146.223C109.013 146.468 109.659 146.495 110.254 146.301C110.85 146.107 111.355 145.704 111.677 145.167L111.623 145.078Z" fill="#FFF896"/>
<path d="M158.431 111.462C158.934 111.504 159.439 111.391 159.876 111.138C160.313 110.885 160.663 110.503 160.876 110.045C161.09 109.587 161.158 109.075 161.072 108.577C160.985 108.079 160.748 107.619 160.392 107.261C160.036 106.902 159.578 106.661 159.081 106.57C158.584 106.48 158.071 106.544 157.611 106.754C157.151 106.964 156.767 107.31 156.51 107.746C156.254 108.181 156.137 108.685 156.175 109.189C156.22 109.774 156.471 110.324 156.885 110.74C157.298 111.157 157.846 111.413 158.431 111.462Z" fill="#FFF896"/>
<path d="M69.0411 21.963C69.2535 22.0766 69.4751 22.1724 69.7034 22.2494C70.2088 22.3792 70.7426 22.3432 71.2261 22.1466C71.7095 21.95 72.1169 21.6032 72.3883 21.1575C72.5824 20.8183 72.6901 20.4365 72.7017 20.0458C72.7133 19.6551 72.6286 19.2676 72.455 18.9175C72.2813 18.5673 72.0242 18.2653 71.7062 18.0381C71.3882 17.8108 71.0192 17.6654 70.6316 17.6146C70.2441 17.5638 69.8501 17.6091 69.4842 17.7467C69.1184 17.8842 68.7921 18.1097 68.534 18.4033C68.276 18.6968 68.0942 19.0494 68.0047 19.4298C67.9152 19.8102 67.9207 20.2069 68.0208 20.5847C68.1618 21.1575 68.5216 21.6523 69.0232 21.963H69.0411Z" fill="#FFF896"/>
<path d="M70.8117 164.338C71.4785 164.34 72.1201 164.083 72.6016 163.622C73.0613 163.139 73.3176 162.498 73.3176 161.832C73.3176 161.165 73.0613 160.524 72.6016 160.042C72.1256 159.57 71.4822 159.305 70.8117 159.305C70.1411 159.305 69.4978 159.57 69.0217 160.042C68.7835 160.275 68.5944 160.554 68.4652 160.861C68.3361 161.168 68.2695 161.498 68.2695 161.832C68.2695 162.165 68.3361 162.495 68.4652 162.802C68.5944 163.11 68.7835 163.388 69.0217 163.622C69.5033 164.083 70.1449 164.34 70.8117 164.338Z" fill="#FFF896"/>
</g>
<defs>
<clipPath id="clip0_2288_5519">
<rect width="180" height="180" fill="white"/>
</clipPath>
</defs>
</svg>
