<svg width="180" height="180" viewBox="0 0 180 180" fill="none" xmlns="http://www.w3.org/2000/svg">
<g clip-path="url(#clip0_2288_5179)">
<path d="M90.2477 2.51727C138.567 2.66064 177.622 41.9478 177.479 90.2675C177.335 138.587 138.048 177.642 89.7285 177.499C41.4088 177.355 2.3541 138.068 2.49747 89.7483C2.64083 41.4286 41.928 2.3739 90.2477 2.51727Z" stroke="white" stroke-width="5"/>
<path d="M144.22 70.2854C142.937 68.1316 141.269 66.2325 139.298 64.6834C137.141 62.4985 134.739 60.5706 132.139 58.9381C126.608 55.6449 120.111 55.2332 113.829 55.3585C106.561 55.5172 99.3429 56.6059 92.3514 58.5981C92.3079 58.5992 92.2658 58.6135 92.2307 58.6391C92.1955 58.6646 92.169 58.7003 92.1545 58.7412L91.2775 60.6384C91.2573 60.6828 91.248 60.7313 91.2504 60.78C91.2528 60.8287 91.2669 60.876 91.2914 60.9181C91.316 60.9602 91.3503 60.9958 91.3915 61.0219C91.4327 61.048 91.4795 61.0638 91.5281 61.068C98.204 61.5512 104.844 61.4259 111.538 61.5154C118.232 61.6049 124.872 63.0904 128.613 69.1937C130.564 72.3616 133.051 78.6259 137.705 78.5543C141.284 78.5543 139.351 74.2767 137.973 71.8784C139.602 73.0775 141.804 74.5809 143.468 74.0082C145.133 73.4355 144.775 71.592 144.22 70.2854Z" fill="white"/>
<path d="M87.8245 58.7412C87.8091 58.6973 87.7798 58.6596 87.741 58.6338C87.7023 58.608 87.6562 58.5954 87.6097 58.5981C80.6185 56.6043 73.4004 55.5156 66.1321 55.3585C59.85 55.2332 53.3351 55.6449 47.8225 58.9381C45.223 60.5714 42.8207 62.4992 40.6633 64.6834C38.7148 66.2406 37.0653 68.1388 35.7951 70.2854C35.2939 71.413 34.9718 73.2028 36.2962 73.865C37.9249 74.742 40.3949 73.0775 42.0952 71.8247C40.717 74.2051 38.8198 78.4827 42.3278 78.5006C47.0171 78.5006 49.487 72.3616 51.4379 69.14C55.0175 63.1799 61.4787 61.6049 68.0651 61.4617C74.6516 61.3185 81.7034 61.4617 88.5404 61.0143C88.5894 61.0117 88.6369 60.9966 88.6783 60.9704C88.7197 60.9442 88.7538 60.9078 88.7771 60.8647C88.8005 60.8216 88.8124 60.7732 88.8117 60.7242C88.811 60.6752 88.7977 60.6271 88.7731 60.5847C88.4509 59.9941 88.1288 59.3677 87.8245 58.7412Z" fill="white"/>
<path d="M95.5036 30.7666C95.4576 30.7487 95.4065 30.7487 95.3604 30.7666C94.0829 31.3124 93.0421 32.2961 92.4251 33.5408C93.1232 30.9993 93.6243 27.6882 91.566 27.1512C90.1163 26.7754 88.9708 28.941 88.4339 29.9433C87.8692 30.9737 87.4648 32.0842 87.2347 33.2365C86.9663 31.4467 86.4114 29.5138 84.9259 29.2811C82.456 28.8694 82.4918 33.1292 82.3844 34.6505C81.8672 41.7014 83.7605 48.7189 87.7538 54.553C88.9887 56.3428 89.9194 56.3428 91.3334 54.553C93.0849 52.1366 94.3772 49.4186 95.1456 46.5347C96.0726 43.0849 96.6718 39.5553 96.9354 35.9928C96.9891 34.4178 97.7051 31.1425 95.5036 30.7666Z" fill="white"/>
<path d="M158.664 104.793C158.627 104.705 158.565 104.631 158.485 104.579C158.405 104.528 158.311 104.503 158.216 104.506H122.295C122.235 104.523 122.181 104.554 122.137 104.598C122.093 104.642 122.061 104.697 122.045 104.757C119.557 112.56 133.231 116.122 140.354 116.122C147.478 116.122 161.08 112.596 158.664 104.793Z" fill="#FA8D61"/>
<path d="M122.026 104.148C121.943 104.174 121.868 104.223 121.811 104.29C121.754 104.356 121.717 104.438 121.704 104.524C120.702 109.697 134.555 108.981 138.063 109.052C142.698 109.251 147.342 109.017 151.934 108.354C153.992 108.014 158.484 107.567 159.093 105.437C160.417 100.551 126.805 100.229 122.026 104.148Z" fill="#96CBEB"/>
<path d="M159.075 104.99C156.231 99.8559 152.917 94.9967 149.177 90.4743C145.401 85.4449 141.391 80.5409 137.436 75.6011C137.347 75.4986 137.237 75.4165 137.113 75.3602C136.99 75.3039 136.856 75.2748 136.72 75.2748C136.584 75.2748 136.45 75.3039 136.327 75.3602C136.203 75.4165 136.093 75.4986 136.004 75.6011C130.385 84.9271 125.629 94.746 121.793 104.936C121.489 105.759 123.046 106.081 123.368 105.294C127.355 95.2979 132.057 85.6019 137.436 76.2812H136.022C139.888 81.0241 143.718 85.785 147.387 90.5996C151.056 95.4141 154.081 100.658 157.983 105.33C158.341 105.741 159.361 105.491 159.092 104.954L159.075 104.99Z" fill="white"/>
<path d="M141.948 108.909C141.142 97.884 138.476 86.9663 137.527 75.9411C137.527 75.1178 135.845 75.0999 135.916 75.9411C136.865 86.9484 138.726 97.9735 140.552 108.909C140.659 109.607 142.002 109.643 141.948 108.909Z" fill="white"/>
<path d="M101.409 35.0084C99.6193 35.9928 99.2792 38.3733 99.2434 40.2347C99.3786 43.8271 98.1873 47.3437 95.8965 50.1143C94.1128 52.0977 92.134 53.8965 89.9902 55.4837C87.8664 53.8854 85.9006 52.0874 84.1196 50.1143C81.8625 47.479 80.6691 44.0967 80.7727 40.6284C80.7727 38.6954 80.6653 36.3687 78.8755 35.1695C74.759 32.4311 72.6649 39.6619 72.6291 42.4182C72.6171 44.6422 73.1045 46.8405 74.0555 48.8509C75.0065 50.8614 76.3968 52.6326 78.1238 54.034C81.505 56.3732 85.5207 57.6223 89.6322 57.6136H90.4376C94.4358 57.6187 98.3463 56.4419 101.678 54.2309C103.468 52.8323 104.913 51.0418 105.903 48.997C106.893 46.9523 107.401 44.7078 107.387 42.4361C107.387 39.7156 105.597 32.8607 101.409 35.0084Z" fill="#96CBEB"/>
<path d="M104.504 53.2465C103.699 51.5462 101.873 51.4567 100.227 51.6715H100.012H99.7794C97.3632 52.4232 95.5197 54.571 93.4972 56.0207C92.2623 56.9156 91.1347 58.0432 89.9176 59.0455C88.7722 58.0432 87.6625 56.8977 86.338 56.0207C84.2977 54.571 82.4721 52.4411 80.0379 51.6715H79.8053H79.5905C78.8227 51.4226 77.9946 51.4313 77.2321 51.6962C76.4697 51.9611 75.8146 52.4678 75.3666 53.1391C75.029 53.997 74.9864 54.9427 75.2457 55.8274C75.5049 56.7121 76.0512 57.4853 76.7984 58.0253C80.1095 60.9605 85.3715 61.6049 89.5776 60.7458C89.668 60.7288 89.7535 60.6921 89.8281 60.6384C89.9091 60.6925 90.0006 60.7291 90.0966 60.7458C94.2847 61.5333 99.5646 60.9784 102.876 58.0253C103.632 57.5163 104.201 56.7734 104.495 55.9104C104.79 55.0473 104.793 54.1116 104.504 53.2465Z" fill="#FA8D61"/>
<path d="M21.314 104.793C21.3536 104.704 21.4193 104.629 21.5023 104.577C21.5854 104.526 21.682 104.502 21.7794 104.506H57.7006C57.7591 104.526 57.8122 104.558 57.8557 104.602C57.8992 104.645 57.9319 104.698 57.9512 104.757C60.4211 112.56 46.765 116.122 39.6416 116.122C32.5182 116.122 18.8441 112.596 21.314 104.793Z" fill="#FA8D61"/>
<path d="M57.9691 104.148C58.0527 104.174 58.1273 104.223 58.1843 104.29C58.2413 104.356 58.2784 104.438 58.2913 104.524C59.2936 109.697 45.4405 108.981 41.9325 109.052C37.2972 109.251 32.6535 109.017 28.0616 108.354C25.9854 108.014 21.493 107.567 20.9024 105.437C19.5601 100.551 53.1725 100.229 57.9691 104.148Z" fill="#96CBEB"/>
<path d="M20.9201 104.99C23.7641 99.856 27.0774 94.9968 30.8177 90.4744C34.5942 85.445 38.5317 80.5052 42.5409 75.6011C42.6316 75.4983 42.7431 75.4159 42.8681 75.3595C42.9931 75.3031 43.1286 75.2739 43.2658 75.2739C43.4029 75.2739 43.5384 75.3031 43.6634 75.3595C43.7884 75.4159 43.8999 75.4983 43.9906 75.6011C49.6021 84.9311 54.3585 94.7493 58.2016 104.936C58.5059 105.759 56.9488 106.081 56.6266 105.294C52.6408 95.2944 47.9332 85.5979 42.5409 76.2813H43.9906C40.1068 81.0242 36.2945 85.7851 32.6254 90.5997C28.9563 95.4142 25.9316 100.658 22.0119 105.33C21.6539 105.741 20.6516 105.491 20.9201 104.954V104.99Z" fill="white"/>
<path d="M38.0497 108.909C38.8372 97.884 41.5219 86.9663 42.4526 75.9411C42.4526 75.1178 44.2424 75.0999 44.0813 75.9411C43.1327 86.9484 41.2535 97.9735 39.3742 108.909C39.2668 109.607 37.9244 109.643 37.9781 108.909H38.0497Z" fill="white"/>
<path d="M87.6977 52.6917C87.6093 53.3321 87.5674 53.9781 87.5724 54.6246V57.4883C87.5724 59.7793 87.5724 62.0881 87.5724 64.3969C87.5724 70.6135 87.5724 76.8241 87.5724 83.0287C87.5724 96.5954 87.5724 110.162 87.5724 123.729C87.5724 128.49 87.304 133.322 87.5724 138.047C87.5724 138.731 87.844 139.386 88.3273 139.87C88.8107 140.353 89.4662 140.624 90.1498 140.624C90.8333 140.624 91.4888 140.353 91.9722 139.87C92.4555 139.386 92.7271 138.731 92.7271 138.047C93.085 133.984 92.8881 129.796 92.906 125.698C92.906 119.374 92.906 113.05 92.906 106.726C92.906 93.2485 92.906 79.8787 92.7629 66.312C92.7629 63.6273 92.7629 60.9426 92.7629 58.2579C92.7629 57.2199 92.7629 56.1639 92.7629 55.1079C92.7629 54.6962 92.7629 54.2846 92.7629 53.8908V53.1212C92.7629 52.3516 92.7629 53.4255 92.7629 52.6559C92.7629 52.0293 92.514 51.4284 92.0709 50.9853C91.6278 50.5422 91.0269 50.2933 90.4003 50.2933C89.7737 50.2933 89.1728 50.5422 88.7298 50.9853C88.2867 51.4284 88.0378 52.0293 88.0378 52.6559L87.6977 52.6917Z" fill="white"/>
<path d="M104.774 142.844C103.468 141.972 102.055 141.274 100.568 140.768C97.2749 139.39 98.3667 137.188 97.9192 134.432C97.4718 131.676 94.8766 130.441 92.3709 130.029C89.5788 129.564 85.8918 129.743 83.6903 131.819C82.9427 132.516 82.4458 133.441 82.2764 134.45C82.1957 135.217 82.1957 135.991 82.2764 136.759C82.3113 137.363 82.2385 137.969 82.0616 138.548C81.8235 139.122 81.4554 139.632 80.9864 140.039C80.5174 140.446 79.9603 140.738 79.359 140.893C77.0502 141.806 73.9896 142.969 73.5064 145.779C72.9874 148.249 75.511 149.466 77.3903 150.343C83.1432 152.82 89.4935 153.567 95.6641 152.491C99.7985 151.757 111.146 148.553 104.774 142.844Z" fill="white"/>
<path d="M83.3517 140.947C86.3837 142.079 89.7112 142.142 92.784 141.126C92.8404 141.109 92.893 141.082 92.9388 141.045C92.9846 141.008 93.0228 140.963 93.051 140.911C93.0793 140.86 93.0971 140.803 93.1035 140.745C93.1099 140.686 93.1047 140.627 93.0882 140.571C93.0718 140.514 93.0444 140.462 93.0076 140.416C92.9708 140.37 92.9254 140.332 92.8738 140.304C92.8223 140.275 92.7657 140.258 92.7073 140.251C92.6489 140.245 92.5898 140.25 92.5334 140.267C89.581 140.926 86.5142 140.877 83.5844 140.123C83.0475 139.962 82.8506 140.768 83.3517 140.947Z" fill="#35208A"/>
<path d="M75.2971 146.477C77.9818 151.095 86.0359 151.506 90.6893 151.417C93.7319 151.432 96.7559 150.942 99.6383 149.967C102.17 149.273 104.434 147.832 106.135 145.833C106.314 145.546 105.956 145.278 105.706 145.403C103.567 146.788 101.336 148.026 99.0298 149.108C96.4521 149.952 93.7595 150.393 91.0473 150.415C85.8569 150.558 79.5031 149.967 75.6192 146.155C75.5765 146.103 75.5148 146.07 75.4477 146.063C75.3805 146.056 75.3135 146.076 75.2613 146.119C75.2091 146.162 75.1759 146.224 75.1692 146.291C75.1625 146.358 75.1827 146.425 75.2255 146.477H75.2971Z" fill="#35208A"/>
<path d="M94.4639 54.2667C94.4639 54.2667 94.4639 54.2667 94.4639 54.1593C94.4713 54.1179 94.4713 54.0755 94.4639 54.034C93.9985 51.4746 91.636 48.8257 88.7902 49.8817C85.9445 50.9377 85.318 54.1951 85.6581 56.7008C85.7366 57.9907 86.3194 59.198 87.2804 60.062C88.2415 60.926 89.5038 61.3773 90.7948 61.3185C93.9807 60.9426 94.7324 56.9156 94.4639 54.2667Z" fill="#96CBEB"/>
<path d="M86.9107 35.8855C86.5208 40.2112 87.014 44.5711 88.3604 48.7004C88.4857 49.0584 89.0942 49.0405 89.0763 48.6109C88.9511 46.4811 88.3962 44.387 88.1456 42.275C87.8951 40.1631 87.8951 38.0153 87.6982 35.8855C87.6982 35.781 87.6567 35.6809 87.5829 35.607C87.509 35.5332 87.4089 35.4917 87.3044 35.4917C87.2 35.4917 87.0999 35.5332 87.026 35.607C86.9522 35.6809 86.9107 35.781 86.9107 35.8855Z" fill="#35208A"/>
<path d="M91.9052 35.4917C91.6299 37.4718 91.5162 39.471 91.5651 41.4696C91.5651 43.7247 91.1893 46.0157 91.2251 48.2708C91.2251 48.7183 91.941 48.8436 92.0305 48.3782C92.3647 46.2405 92.5382 44.0807 92.5495 41.917C92.7617 39.7773 92.7136 37.6198 92.4063 35.4917C92.3868 35.441 92.3525 35.3975 92.3077 35.3667C92.263 35.336 92.21 35.3196 92.1558 35.3196C92.1015 35.3196 92.0485 35.336 92.0038 35.3667C91.959 35.3975 91.9247 35.441 91.9052 35.4917Z" fill="#35208A"/>
<path d="M85.6774 52.5664C85.3975 52.9109 85.2179 53.3258 85.1583 53.7656C85.1583 54.1236 84.9614 54.7142 85.391 54.9111C85.8205 55.1079 86.0353 54.5889 86.0711 54.2488C86.1487 53.8165 86.2624 53.3914 86.4112 52.9781C86.5365 52.5843 85.9637 52.2085 85.6774 52.5664Z" fill="#35208A"/>
<path d="M93.4449 53.0496C93.6854 53.4725 93.8547 53.9321 93.9461 54.4099C93.9461 54.9289 94.8946 54.8215 94.8768 54.2846C94.8588 53.9351 94.7646 53.5938 94.6007 53.2846C94.4368 52.9754 94.2073 52.7058 93.9282 52.4948C93.6418 52.2621 93.2659 52.6917 93.4449 52.9959V53.0496Z" fill="#35208A"/>
<path d="M66.7573 57.542C60.9573 57.1693 55.1523 58.188 49.8258 60.5131C46.6399 61.8733 40.8768 64.8802 41.7538 69.2294C42.3444 72.1646 46.8368 74.026 48.2508 70.5896C48.4862 70.0435 48.5387 69.4358 48.4004 68.8573C48.2621 68.2789 47.9404 67.7607 47.4833 67.3802C47.0262 66.9996 46.4583 66.7771 45.8644 66.7459C45.2705 66.7146 44.6824 66.8764 44.1879 67.2069C43.651 67.6007 44.1879 68.5135 44.707 68.1197C45.1013 67.8807 45.5727 67.8031 46.0228 67.9032C46.473 68.0032 46.8672 68.2731 47.1232 68.6566C48.5192 70.4464 45.6913 71.6277 44.2953 71.1445C41.7896 70.2496 42.8277 66.8668 44.0447 65.4708C46.1392 63.3628 48.7029 61.7804 51.5261 60.8531C56.4838 59.0633 61.7995 59.2065 66.7752 57.7031C66.7984 57.6938 66.8184 57.6777 66.8324 57.657C66.8464 57.6362 66.854 57.6118 66.854 57.5867C66.854 57.5617 66.8464 57.5372 66.8324 57.5165C66.8184 57.4957 66.7984 57.4797 66.7752 57.4704L66.7573 57.542Z" fill="#35208A"/>
<path d="M113.291 57.7747C116.28 58.6696 119.502 58.7054 122.545 59.296C125.656 59.8486 128.67 60.8494 131.494 62.2671C132.929 62.9665 134.256 63.8709 135.431 64.9518C137.024 66.5447 138.563 70.4465 135.234 71.3414C131.028 72.469 132.908 66.1868 135.234 68.0303C135.753 68.4598 136.505 67.7081 135.986 67.2964C134.035 65.7214 131.762 67.2964 131.708 69.6769C131.708 72.7732 135.646 73.1491 137.346 71.1803C141.141 66.8132 134.375 62.4282 131.046 60.889C125.515 58.2819 119.41 57.1299 113.309 57.542C113.286 57.5513 113.266 57.5674 113.252 57.5881C113.238 57.6089 113.23 57.6333 113.23 57.6584C113.23 57.6834 113.238 57.7079 113.252 57.7286C113.266 57.7494 113.286 57.7654 113.309 57.7747H113.291Z" fill="#35208A"/>
<path d="M87.8956 130.655C88.6101 131.042 89.4098 131.245 90.2223 131.245C91.0349 131.245 91.8346 131.042 92.5491 130.655C92.6237 130.612 92.6819 130.545 92.7148 130.465C92.7476 130.385 92.7533 130.297 92.7309 130.213C92.7085 130.13 92.6593 130.056 92.5909 130.003C92.5225 129.951 92.4386 129.922 92.3522 129.922C91.6363 129.922 90.9383 130.19 90.2045 130.208C89.4904 130.155 88.7795 130.065 88.0746 129.939C87.6987 129.939 87.6271 130.405 87.8956 130.584V130.655Z" fill="#35208A"/>
<path d="M61.6935 32.986C61.7094 32.9524 61.7176 32.9158 61.7176 32.8786C61.7176 32.8415 61.7094 32.8048 61.6935 32.7712C61.1565 31.7689 59.2235 31.5721 58.257 31.3752C56.682 31.0709 55.0891 30.874 53.4783 30.6593L52.7087 30.5519C52.6013 30.5519 52.4044 30.4624 52.4402 30.5519C52.2241 30.2084 52.0612 29.8343 51.957 29.4422C51.2947 27.903 50.6504 26.3638 49.9703 24.8245C49.6302 24.037 49.2902 23.2674 48.9143 22.4978C48.6995 22.0324 48.4311 21.1375 47.912 20.9049C46.7486 20.4037 45.9253 23.2853 45.6211 23.9654C44.8872 25.6299 44.1892 27.3123 43.4733 28.9769C43.3122 29.3348 43.0617 30.3371 42.7395 30.5698C42.2424 30.648 41.7389 30.678 41.2361 30.6593L39.1062 30.8382C37.8965 30.9062 36.6971 31.0981 35.5266 31.411C34.8286 31.6079 33.5757 31.9479 33.7368 32.9323C33.8979 33.9167 35.0434 34.4894 35.5266 34.919C36.4732 35.6724 37.4788 36.3487 38.5335 36.9415C38.9988 37.2278 39.6073 37.4247 40.0369 37.7469C40.4664 38.069 40.3412 38.6239 40.1801 39.1966C39.8579 40.4137 39.5358 41.6307 39.2494 42.7762C38.9857 43.7663 38.7766 44.7701 38.623 45.7831C38.4265 46.4673 38.4265 47.1929 38.623 47.8771C39.3568 49.4343 42.2026 46.7138 42.829 46.1947C43.4554 45.6757 44.5114 44.8524 45.3347 44.1543L46.516 43.1163C46.7307 42.9194 47.2856 42.1498 47.5719 42.0961C47.8583 42.0424 49.2544 43.51 49.6302 43.8859C50.4714 44.6197 51.3305 45.2998 52.2075 45.9978C53.2917 47.1074 54.6502 47.9101 56.1451 48.3246C57.5232 48.4499 56.861 46.3558 56.682 45.5325C56.2525 43.5637 55.6081 41.6486 55.0175 39.7156C54.8922 39.304 54.7311 38.8744 54.6417 38.4628C54.5522 38.0511 54.6416 38.0332 54.9638 37.7827C55.7155 37.3352 56.6462 37.0488 57.4516 36.6372C58.7224 35.9929 61.2997 34.8474 61.6577 33.2187C61.6798 33.1846 61.6944 33.1463 61.7006 33.1062C61.7067 33.0661 61.7043 33.0251 61.6935 32.986Z" fill="#FFF896"/>
<path d="M136.398 139.085C134.206 138.921 132.008 138.873 129.811 138.942C130.438 138.316 131.064 137.707 131.601 137.152C132.65 136.258 133.556 135.208 134.286 134.038C134.347 133.923 134.37 133.791 134.351 133.662C134.332 133.533 134.271 133.414 134.179 133.321C134.087 133.229 133.967 133.169 133.838 133.15C133.709 133.131 133.578 133.153 133.462 133.215C132.278 133.924 131.209 134.812 130.295 135.846L128.379 137.636C128.379 136.741 128.379 135.846 128.379 134.951C128.495 133.571 128.392 132.182 128.075 130.834C128.037 130.71 127.96 130.601 127.855 130.524C127.75 130.446 127.624 130.405 127.493 130.405C127.363 130.405 127.237 130.446 127.132 130.524C127.027 130.601 126.95 130.71 126.912 130.834C126.571 132.178 126.444 133.567 126.536 134.951V137.618L124.746 135.72C123.845 134.666 122.789 133.755 121.614 133.018C121.497 132.951 121.362 132.925 121.228 132.944C121.095 132.963 120.972 133.025 120.878 133.121C120.784 133.217 120.724 133.342 120.709 133.475C120.693 133.609 120.722 133.744 120.791 133.859C121.507 135.044 122.4 136.112 123.44 137.027L125.229 138.942H122.545C121.158 138.833 119.763 138.942 118.41 139.264C118.286 139.302 118.177 139.38 118.1 139.484C118.022 139.589 117.98 139.716 117.98 139.846C117.98 139.976 118.022 140.103 118.1 140.208C118.177 140.312 118.286 140.389 118.41 140.428C119.76 140.768 121.155 140.895 122.545 140.803H125.14C123.529 142.325 121.918 143.846 120.486 145.493C120.384 145.664 120.341 145.865 120.364 146.063C120.386 146.261 120.473 146.447 120.611 146.591C120.75 146.735 120.931 146.83 121.128 146.862C121.326 146.893 121.528 146.858 121.703 146.764C123.35 145.385 124.889 143.81 126.411 142.253C126.411 144.437 126.285 146.638 126.411 148.786C126.452 148.993 126.564 149.179 126.727 149.312C126.89 149.446 127.095 149.519 127.306 149.519C127.516 149.519 127.721 149.446 127.884 149.312C128.047 149.179 128.159 148.993 128.2 148.786C128.397 146.638 128.362 144.455 128.344 142.271C129.847 143.864 131.35 145.457 132.979 146.871C133.154 147.007 133.372 147.074 133.593 147.061C133.814 147.048 134.023 146.956 134.18 146.8C134.338 146.645 134.434 146.437 134.45 146.217C134.466 145.996 134.401 145.777 134.268 145.6C132.872 143.954 131.315 142.414 129.758 140.893C131.941 140.893 134.125 141.018 136.29 140.893C136.53 140.907 136.766 140.826 136.945 140.666C137.125 140.507 137.234 140.283 137.248 140.043C137.262 139.803 137.181 139.568 137.021 139.388C136.862 139.208 136.637 139.1 136.398 139.085Z" fill="white"/>
<path d="M105.954 90.3848C106.545 90.3792 107.111 90.1413 107.529 89.7226C107.733 89.518 107.895 89.2752 108.006 89.0081C108.116 88.7409 108.173 88.4546 108.173 88.1654C108.174 87.576 107.943 87.01 107.529 86.5904C107.113 86.1762 106.55 85.9436 105.963 85.9436C105.376 85.9436 104.813 86.1762 104.397 86.5904C103.981 87.0104 103.744 87.5747 103.734 88.1654C103.737 88.4558 103.796 88.7429 103.91 89.0102C104.024 89.2774 104.189 89.5195 104.397 89.7226C104.809 90.1386 105.368 90.3764 105.954 90.3848Z" fill="white"/>
<path d="M130.208 22.8915C130.785 23.1053 131.42 23.1053 131.997 22.8915C132.48 22.7433 132.894 22.4255 133.161 21.9966C133.294 21.7691 133.38 21.5172 133.413 21.2559C133.447 20.9946 133.428 20.7291 133.358 20.4753C133.265 20.1265 133.107 19.7985 132.892 19.5088C132.638 19.2005 132.335 18.9347 131.997 18.7213C131.729 18.5672 131.432 18.4689 131.124 18.432C130.817 18.3951 130.505 18.4204 130.208 18.5065C129.877 18.5918 129.571 18.7548 129.316 18.9821C129.06 19.2093 128.863 19.4942 128.74 19.813C128.608 20.0928 128.539 20.3985 128.539 20.7079C128.539 21.0174 128.608 21.323 128.74 21.6028C128.832 21.8819 128.992 22.134 129.205 22.3366C129.484 22.6113 129.829 22.8087 130.208 22.9094V22.8915Z" fill="white"/>
<path d="M160.921 52.5664V52.3874C161.008 52.0886 161.025 51.7736 160.969 51.4672C160.914 51.1609 160.788 50.8718 160.601 50.6227C160.414 50.3735 160.172 50.1714 159.894 50.0321C159.615 49.8928 159.308 49.8203 158.997 49.8203C158.685 49.8203 158.378 49.8928 158.1 50.0321C157.822 50.1714 157.579 50.3735 157.393 50.6227C157.206 50.8718 157.08 51.1609 157.024 51.4672C156.969 51.7736 156.985 52.0886 157.073 52.3874V52.5664C157.192 52.9696 157.439 53.3234 157.776 53.575C158.113 53.8266 158.522 53.9625 158.943 53.9625C159.364 53.9625 159.773 53.8266 160.11 53.575C160.447 53.3234 160.694 52.9696 160.813 52.5664H160.921Z" fill="white"/>
<path d="M160.669 76.9614H160.955C163.318 77.1404 163.318 73.1133 160.955 73.2923H160.669C160.194 73.2923 159.739 73.4809 159.403 73.8165C159.067 74.1522 158.879 74.6074 158.879 75.0821C158.879 75.5568 159.067 76.012 159.403 76.3477C159.739 76.6833 160.194 76.8719 160.669 76.8719V76.9614Z" fill="white"/>
<path d="M50.3641 133.089V132.893C50.3556 132.296 50.1186 131.726 49.7019 131.3C49.2797 130.877 48.7067 130.638 48.109 130.637C47.5106 130.642 46.9378 130.881 46.5131 131.302C46.0883 131.723 45.8453 132.294 45.8359 132.893V133.089C45.8444 133.686 46.0815 134.256 46.4982 134.682C46.7094 134.894 46.9605 135.062 47.2371 135.175C47.5136 135.289 47.81 135.347 48.109 135.345C48.7042 135.335 49.2725 135.095 49.6934 134.674C50.1143 134.253 50.3549 133.685 50.3641 133.089Z" fill="white"/>
<path d="M15.551 77.7489C16.1622 77.7449 16.7472 77.5006 17.1797 77.0687C17.6052 76.632 17.8484 76.0496 17.8599 75.44C17.8583 74.9845 17.7221 74.5396 17.4683 74.1613C17.2145 73.7831 16.8545 73.4883 16.4335 73.3142C16.0126 73.1401 15.5496 73.0944 15.1027 73.1829C14.6559 73.2713 14.2452 73.49 13.9223 73.8113C13.4998 74.25 13.2571 74.8311 13.2422 75.44C13.2559 76.0481 13.5035 76.6274 13.9336 77.0575C14.3636 77.4876 14.943 77.7352 15.551 77.7489Z" fill="white"/>
<path d="M101.446 22.1756H101.571C102.152 22.0198 102.648 21.6401 102.949 21.1196L102.591 21.5671L102.144 21.9071L102.573 21.5671C102.786 21.3822 102.942 21.1399 103.021 20.8691C103.231 20.4344 103.275 19.9381 103.146 19.473C103.028 19.0983 102.826 18.7554 102.555 18.4707C102.202 18.106 101.735 17.8725 101.231 17.8085C100.767 17.7538 100.298 17.8367 99.881 18.0467C99.4642 18.2567 99.1182 18.5847 98.8863 18.9898C98.686 19.3317 98.581 19.7211 98.582 20.1173C98.591 20.6028 98.7539 21.0729 99.0474 21.4597C99.2871 21.7546 99.594 21.9878 99.9423 22.1398C100.398 22.3445 100.911 22.3825 101.392 22.2472L101.446 22.1756Z" fill="white"/>
<path d="M110.359 168.85L109.876 169.225L109.303 169.476C109.653 169.403 109.984 169.255 110.271 169.042C110.559 168.828 110.796 168.555 110.968 168.241C111.129 167.967 111.235 167.664 111.279 167.35C111.323 167.035 111.305 166.715 111.225 166.407C111.145 166.1 111.005 165.811 110.814 165.557C110.622 165.304 110.383 165.091 110.109 164.93C109.563 164.628 108.923 164.544 108.319 164.697C107.855 164.831 107.431 165.077 107.084 165.413C106.851 165.649 106.668 165.929 106.545 166.236C106.422 166.543 106.362 166.872 106.368 167.203C106.36 167.534 106.42 167.864 106.543 168.171C106.666 168.479 106.85 168.758 107.084 168.993C107.316 169.229 107.595 169.413 107.904 169.533C108.212 169.654 108.543 169.707 108.874 169.691H109.518C109.919 169.579 110.284 169.363 110.574 169.064L110.359 168.85Z" fill="white"/>
<path d="M153.671 132.946L153.958 133.251C154.305 133.595 154.76 133.81 155.246 133.859C155.74 133.951 156.251 133.855 156.678 133.591C157.013 133.399 157.295 133.129 157.502 132.803L157.734 132.266C157.815 131.973 157.815 131.664 157.734 131.371C157.685 130.885 157.471 130.43 157.126 130.083L156.821 129.796C156.396 129.392 155.834 129.162 155.246 129.152C154.806 129.15 154.375 129.279 154.007 129.522C153.64 129.766 153.354 130.113 153.185 130.52C153.016 130.927 152.972 131.375 153.059 131.807C153.145 132.239 153.359 132.636 153.671 132.946Z" fill="white"/>
<path d="M63.195 75.8338C63.3753 75.5143 63.4701 75.1537 63.4701 74.7868C63.4701 74.4199 63.3753 74.0592 63.195 73.7397C63.0134 73.4253 62.7526 73.164 62.4386 72.9819C62.1245 72.7997 61.7682 72.7031 61.4052 72.7017C61.0409 72.7067 60.6843 72.8066 60.3704 72.9916C60.0566 73.1766 59.7965 73.4403 59.6158 73.7566C59.435 74.0729 59.3399 74.4309 59.3398 74.7951C59.3398 75.1594 59.4348 75.5174 59.6154 75.8338C59.795 76.1501 60.0553 76.4132 60.3697 76.5962C60.6841 76.7792 61.0414 76.8757 61.4052 76.8757C61.769 76.8757 62.1262 76.7792 62.4406 76.5962C62.755 76.4132 63.0153 76.1501 63.195 75.8338Z" fill="white"/>
<path d="M128.436 43.2952V43.5458C127.631 47.1254 133.465 47.1254 132.66 43.5458V43.2952C132.528 42.852 132.256 42.4632 131.885 42.1867C131.514 41.9103 131.064 41.761 130.602 41.761C130.139 41.761 129.689 41.9103 129.318 42.1867C128.947 42.4632 128.675 42.852 128.543 43.2952H128.436Z" fill="#F7B9E7"/>
<path d="M74.7766 101.41C75.2214 101.663 75.7368 101.764 76.2442 101.696C76.7461 101.639 77.2134 101.411 77.5686 101.052C77.9781 100.628 78.2143 100.066 78.2309 99.4769C78.2056 98.8843 77.971 98.3199 77.5686 97.884L77.1033 97.5261C76.8462 97.3585 76.5504 97.2599 76.2442 97.2397C75.7369 97.1737 75.2219 97.2742 74.7766 97.5261C74.4389 97.7254 74.159 98.0094 73.9646 98.3499C73.7702 98.6905 73.668 99.0759 73.668 99.468C73.668 99.8601 73.7702 100.245 73.9646 100.586C74.159 100.927 74.4389 101.211 74.7766 101.41Z" fill="#F7B9E7"/>
<path d="M30.4267 132.839C30.4525 132.789 30.4824 132.741 30.5162 132.696L30.1404 133.179C30.3194 132.964 30.4983 132.731 30.6594 132.499C30.552 132.66 30.4268 132.803 30.3015 132.964L30.4089 132.857L29.9614 133.197H30.0867L29.6034 133.394C29.8911 133.313 30.1566 133.168 30.3798 132.97C30.6031 132.771 30.7783 132.524 30.8921 132.248C31.0104 131.961 31.0621 131.651 31.0435 131.341C31.0249 131.031 30.9365 130.729 30.7847 130.458C30.5042 129.947 30.0551 129.549 29.514 129.331C28.9871 129.111 28.4033 129.067 27.8494 129.206C27.5649 129.267 27.2927 129.376 27.044 129.528C26.7204 129.717 26.4444 129.977 26.2372 130.289C26.03 130.602 25.8971 130.957 25.8487 131.329C25.8003 131.7 25.8377 132.078 25.958 132.433C26.0784 132.788 26.2784 133.11 26.5429 133.376C27.0194 133.847 27.6627 134.111 28.3327 134.11C28.7629 134.102 29.1834 133.98 29.5512 133.757C29.9191 133.534 30.2212 133.217 30.4267 132.839Z" fill="#F7B9E7"/>
<path d="M70.8736 165.324C71.5262 165.315 72.1504 165.055 72.6169 164.599C73.0834 164.142 73.3564 163.524 73.3793 162.872C73.3847 162.539 73.3225 162.209 73.1963 161.901C73.0702 161.594 72.8828 161.315 72.6455 161.082C72.1696 160.608 71.5274 160.338 70.8557 160.33C70.1847 160.342 69.5438 160.611 69.0659 161.082C68.8319 161.317 68.6466 161.597 68.5207 161.904C68.3947 162.211 68.3307 162.54 68.3321 162.872C68.3367 163.54 68.6041 164.179 69.0764 164.651C69.5486 165.123 70.1878 165.391 70.8557 165.395L70.8736 165.324Z" fill="#F7B9E7"/>
<path d="M122.438 125.286V125.179C122.436 124.513 122.18 123.872 121.722 123.389C121.488 123.153 121.209 122.968 120.901 122.845C120.593 122.721 120.263 122.663 119.932 122.673C119.6 122.659 119.269 122.715 118.96 122.838C118.651 122.962 118.373 123.149 118.142 123.389C117.684 123.872 117.428 124.513 117.426 125.179V125.286C117.42 125.617 117.481 125.946 117.604 126.253C117.727 126.56 117.91 126.84 118.142 127.076C118.375 127.312 118.655 127.497 118.962 127.62C119.27 127.743 119.6 127.802 119.932 127.792C120.263 127.799 120.592 127.739 120.899 127.616C121.207 127.493 121.486 127.308 121.72 127.074C121.954 126.84 122.138 126.561 122.262 126.253C122.385 125.946 122.445 125.617 122.438 125.286Z" fill="#F7B9E7"/>
<path d="M29.5298 46.5348C30.2004 46.5215 30.8406 46.2526 31.3196 45.7831C31.7918 45.3071 32.0567 44.6638 32.0567 43.9933C32.0567 43.3228 31.7918 42.6795 31.3196 42.2035C30.8406 41.7339 30.2004 41.4651 29.5298 41.4518C28.8596 41.4668 28.22 41.7355 27.74 42.2035C27.2673 42.6804 26.9979 43.3219 26.9883 43.9933C27.0015 44.6639 27.2704 45.3041 27.74 45.7831C28.2248 46.2438 28.8614 46.5112 29.5298 46.5348Z" fill="#F7B9E7"/>
<path d="M71.4847 18.5244V18.0412C71.487 17.7209 71.4257 17.4033 71.3042 17.1069C71.1827 16.8105 71.0035 16.5412 70.777 16.3147C70.5505 16.0882 70.2812 15.909 69.9848 15.7875C69.6884 15.666 69.3709 15.6047 69.0505 15.6071C68.7196 15.6013 68.3908 15.6617 68.0835 15.7846C67.7761 15.9076 67.4964 16.0906 67.2607 16.323C66.8045 16.8063 66.5542 17.4482 66.5627 18.1128V18.596C66.5542 19.2606 66.8045 19.9025 67.2607 20.3858C67.7443 20.8438 68.3845 21.0999 69.0505 21.1017C69.3814 21.1065 69.7098 21.0457 70.017 20.9228C70.3242 20.7999 70.604 20.6174 70.8403 20.3858C71.2966 19.9025 71.5469 19.2606 71.5384 18.596L71.4847 18.5244Z" fill="#F7B9E7"/>
</g>
<defs>
<clipPath id="clip0_2288_5179">
<rect width="180" height="180" fill="white"/>
</clipPath>
</defs>
</svg>
