<svg width="180" height="180" viewBox="0 0 180 180" fill="none" xmlns="http://www.w3.org/2000/svg">
<g clip-path="url(#clip0_2288_4959)">
<path d="M177.482 89.991C177.482 138.311 138.311 177.482 89.991 177.482C41.6711 177.482 2.5 138.311 2.5 89.991C2.5 41.6711 41.6711 2.5 89.991 2.5C138.311 2.5 177.482 41.6711 177.482 89.991Z" stroke="white" stroke-width="5"/>
<path d="M77.785 29.9075C85.8212 39.2323 93.4994 48.8614 101.052 58.6516C110.395 70.876 119.559 83.3151 127.899 96.2374C130.974 100.796 133.696 105.583 136.043 110.556C136.813 112.346 138.746 115.728 136.651 117.089C135.025 118.004 133.269 118.667 131.443 119.057C128.633 119.827 125.787 120.435 122.924 120.972C114.941 122.494 106.816 123.568 98.7972 124.552C79.6408 126.993 60.3517 128.249 41.0404 128.311C40.2708 128.311 40.3066 129.492 41.0404 129.51C58.7166 129.483 76.3761 128.426 93.929 126.342C102.484 125.411 111.039 124.337 119.541 122.87C125.102 122.195 130.564 120.861 135.81 118.896C138.459 117.751 139.175 116.355 138.388 113.527C136.919 109.177 134.879 105.042 132.32 101.231C124.195 88.151 115.377 75.5149 105.903 63.3767C97.777 52.6379 89.5976 41.4875 80.2728 31.6973C79.5688 30.9575 78.8529 30.2416 78.125 29.5495C77.8924 29.3168 77.5702 29.6748 77.785 29.9075Z" fill="white"/>
<path d="M84.8195 34.0061C84.181 31.8741 82.9907 29.9485 81.3689 28.4242C79.7472 26.8999 77.7517 25.831 75.5842 25.3256C74.1071 25.0118 72.5702 25.1437 71.1682 25.7045C69.7662 26.2653 68.5623 27.2298 67.7091 28.4756C66.9011 29.4757 66.4254 30.7031 66.3483 31.9865C66.2713 33.2699 66.5969 34.5453 67.2795 35.6348C67.8719 36.5787 68.7186 37.3363 69.7222 37.8207C70.7258 38.3051 71.8456 38.4966 72.9532 38.3732C73.9287 38.2014 74.8341 37.7522 75.561 37.0793C76.2878 36.4064 76.8054 35.5383 77.0518 34.5789C78.43 36.7266 77.7319 40.6463 76.2106 43.2773C74.4208 46.2662 70.3401 47.7518 66.7068 49.0762L65.4002 49.5416H65.2928C60.4783 51.3314 54.5541 53.5328 52.3168 59.5823C51.4514 62.4811 51.1596 65.5209 51.4577 68.5313C51.8174 71.2562 51.504 74.0276 50.5449 76.6033L50.4375 76.8539C49.3477 79.3114 47.677 81.4674 45.5693 83.1361C43.8208 84.6614 42.2696 86.399 40.9516 88.3086C39.1618 91.1723 37.1393 95.9868 41.2201 104.685L41.6675 105.634C42.634 107.71 43.6363 109.858 44.4954 111.988C45.3038 113.664 45.7375 115.496 45.7662 117.357C45.621 118.973 45.0983 120.532 44.2403 121.91C43.3823 123.287 42.2129 124.443 40.8263 125.286C40.5945 125.379 40.355 125.451 40.1104 125.501C40.4878 124.885 40.7251 124.194 40.8056 123.476C40.886 122.759 40.8075 122.032 40.5757 121.348C40.2374 120.436 39.6573 119.632 38.8975 119.024C38.1378 118.415 37.2269 118.025 36.2623 117.894C35.1769 117.712 34.0627 117.826 33.0362 118.223C32.0097 118.619 31.1087 119.285 30.4276 120.149C29.8387 120.943 29.4242 121.853 29.2114 122.818C28.9986 123.784 28.9922 124.783 29.1926 125.751C29.394 126.842 29.8151 127.881 30.4305 128.804C31.0459 129.727 31.8426 130.515 32.7722 131.121C34.7404 132.314 37.0031 132.934 39.305 132.91C40.6866 132.913 42.0572 132.664 43.3499 132.177C49.5068 129.814 53.2475 122.315 53.1938 116.713C53.1938 112.149 51.2071 108.283 49.3279 104.524C48.169 102.326 47.2336 100.018 46.5358 97.6335C45.4977 93.7496 47.717 91.3155 51.404 87.6643C54.027 85.4361 56.0977 82.6302 57.4535 79.467C58.8128 75.9549 59.304 72.1666 58.8854 68.4239C58.778 65.3097 58.6527 62.0702 60.6752 60.0835C62.6268 58.456 64.9118 57.2768 67.369 56.6292C68.0491 56.3965 68.7651 56.1459 69.4631 55.8775L70 55.6627C73.101 54.6083 76.045 53.1393 78.7521 51.2956C81.2768 49.2675 83.1832 46.5732 84.2555 43.5175C85.3278 40.4619 85.5232 37.1671 84.8195 34.0061Z" fill="#FA8D61"/>
<path d="M35.6698 71.8246C48.3237 78.4827 61.4966 84.1205 74.4547 89.9374C95.1627 99.3696 115.942 108.677 136.704 118.127L151.022 124.57C153.188 125.536 154.924 122.279 152.812 121.313C139.687 115.418 126.562 109.565 113.437 103.755C92.5854 94.4656 71.77 85.1228 50.7936 76.0664C45.997 73.9008 41.1645 71.8425 36.332 70.0169C35.294 69.6411 34.7212 71.3235 35.6698 71.8067V71.8246Z" fill="#96CBEB"/>
<path d="M48.326 69.8021C47.4143 69.6408 46.4814 69.6408 45.5697 69.8021C43.7799 69.8021 42.1333 69.8021 40.4151 69.8916C38.6969 69.9811 36.406 69.7842 34.4551 69.8916C34.3583 69.9053 34.2662 69.9422 34.1866 69.999C34.1345 70.0596 34.0989 70.1326 34.0833 70.211C34.0676 70.2894 34.0724 70.3705 34.0971 70.4464C34.4014 71.4845 35.8869 72.5584 36.6565 73.2922C38.6883 75.7345 40.8828 78.0367 43.2251 80.1829C46.1783 82.4918 47.0732 78.3932 48.0039 76.496C48.9345 74.5988 51.7087 70.9655 48.326 69.8021Z" fill="white"/>
<path d="M150.595 114.547C147.516 115.12 144.456 115.782 141.431 116.587C141.133 116.691 140.862 116.86 140.638 117.082C140.414 117.304 140.242 117.573 140.136 117.87C140.029 118.167 139.991 118.484 140.023 118.798C140.055 119.112 140.157 119.415 140.322 119.684C142.111 122.816 144.08 125.787 146.138 128.633C146.801 129.564 148.429 128.901 147.928 127.738C147.015 125.143 146.031 122.565 144.939 120.024C147.248 119.594 149.557 119.129 151.866 118.717C154.747 118.234 153.387 113.974 150.595 114.547Z" fill="#FA8D61"/>
<path d="M136.166 116.086C138.278 115.657 140.408 115.245 142.538 114.923C145.348 114.511 145.169 110.037 142.341 110.466C139.051 110.973 135.799 111.697 132.604 112.632C132.304 112.733 132.031 112.9 131.805 113.122C131.578 113.343 131.405 113.613 131.299 113.911C131.192 114.209 131.154 114.528 131.188 114.842C131.222 115.157 131.327 115.46 131.495 115.728C133.282 118.807 135.223 121.794 137.312 124.677C137.468 124.833 137.67 124.936 137.888 124.971C138.106 125.006 138.33 124.971 138.528 124.872C138.725 124.774 138.887 124.615 138.99 124.42C139.093 124.224 139.132 124.001 139.101 123.783C138.26 121.223 137.276 118.628 136.166 116.086Z" fill="#FA8D61"/>
<path d="M71.969 34.3641C71.7363 33.7377 71.1815 33.3798 71.2173 32.5743C71.2752 32.0813 71.4752 31.6158 71.793 31.2345C72.1108 30.8532 72.5326 30.5725 73.0071 30.4266C75.3159 29.6033 76.5867 31.6078 77.2847 33.4871C77.3191 33.5662 77.3785 33.6318 77.4538 33.6739C77.5291 33.716 77.6161 33.7321 77.7015 33.7199C77.7869 33.7077 77.8659 33.6678 77.9264 33.6064C77.9869 33.5449 78.0255 33.4653 78.0364 33.3797C78.0199 32.6919 77.8305 32.0193 77.4857 31.4239C77.1409 30.8285 76.6517 30.3295 76.0633 29.9729C75.4749 29.6163 74.8062 29.4135 74.1188 29.3833C73.4314 29.3532 72.7475 29.4965 72.1301 29.8002C71.5652 30.0842 71.0951 30.5265 70.7773 31.0732C70.4595 31.6198 70.3076 32.2471 70.3403 32.8786C70.3403 33.5766 70.9846 34.8832 71.8795 34.382C71.8795 34.382 71.8795 34.382 71.8795 34.2746L71.969 34.3641Z" fill="#35208A"/>
<path d="M35.4932 122.01C35.1329 121.786 34.7049 121.698 34.2853 121.76C33.8657 121.822 33.4818 122.032 33.2022 122.351C32.8368 122.714 32.5991 123.186 32.5248 123.696C32.4506 124.206 32.5438 124.726 32.7906 125.178C34.0255 127.613 37.5872 127.308 39.1801 125.447C39.4665 125.125 39.1801 124.588 38.7148 124.838C37.4082 125.608 35.9943 126.628 34.473 125.697C32.5758 124.57 33.4707 122.386 35.4395 122.118V121.993L35.4932 122.01Z" fill="#35208A"/>
<path d="M74.5992 46.9643C74.6298 47.5045 74.5316 48.0443 74.3129 48.5393C74.116 48.9509 73.6148 49.2731 73.5432 49.7206C73.5296 49.7705 73.5276 49.8229 73.5373 49.8738C73.547 49.9247 73.5682 49.9727 73.5993 50.0141C73.6303 50.0556 73.6705 50.0894 73.7166 50.1129C73.7627 50.1365 73.8136 50.1492 73.8654 50.1501C74.5097 50.1501 74.9214 49.3447 75.1362 48.8257C75.414 48.2145 75.4831 47.5291 75.333 46.8748C75.3145 46.7913 75.268 46.7166 75.2013 46.6631C75.1346 46.6096 75.0517 46.5804 74.9661 46.5804C74.8806 46.5804 74.7977 46.6096 74.731 46.6631C74.6642 46.7166 74.6178 46.7913 74.5992 46.8748V46.9643Z" fill="#35208A"/>
<path d="M77.122 44.7449C77.122 45.3355 77.3905 45.8725 77.3905 46.5347C77.3905 47.1969 77.0146 47.6086 77.2831 48.0739C77.3148 48.1236 77.361 48.1622 77.4154 48.1846C77.4699 48.2071 77.5299 48.2122 77.5874 48.1992C78.2675 48.0739 78.3033 46.9822 78.2675 46.4094C78.2881 46.0569 78.2144 45.7052 78.054 45.3906C77.8936 45.076 77.6522 44.8099 77.3547 44.6196C77.3547 44.6196 77.1041 44.6196 77.122 44.7449Z" fill="#35208A"/>
<path d="M47.8602 113.527C47.7171 114.368 48.1824 115.317 48.1108 116.158C47.9678 117.325 47.5237 118.436 46.8222 119.38C46.6074 119.702 47.0548 119.97 47.3233 119.773C47.7872 119.359 48.1627 118.856 48.4272 118.293C48.6916 117.73 48.8397 117.119 48.8625 116.498C48.8625 115.585 48.8625 113.974 47.9497 113.491H47.8602V113.527Z" fill="#35208A"/>
<path d="M49.6661 117.178C49.4871 117.912 49.4871 118.664 49.2545 119.38C48.9484 120.141 48.5834 120.877 48.1627 121.581C48.1321 121.62 48.1095 121.664 48.0961 121.712C48.0827 121.759 48.0788 121.809 48.0847 121.858C48.0905 121.907 48.1059 121.954 48.13 121.997C48.1542 122.041 48.1865 122.078 48.2253 122.109C48.2641 122.14 48.3085 122.162 48.356 122.176C48.4036 122.189 48.4533 122.193 48.5023 122.187C48.5513 122.181 48.5987 122.166 48.6418 122.142C48.6849 122.118 48.7228 122.085 48.7533 122.046C49.3623 121.409 49.8049 120.631 50.0421 119.782C50.2794 118.933 50.3039 118.039 50.1136 117.178C50.0979 117.144 50.0726 117.115 50.0409 117.094C50.0092 117.074 49.9723 117.063 49.9346 117.063C49.8969 117.063 49.86 117.074 49.8282 117.094C49.7965 117.115 49.7713 117.144 49.7556 117.178H49.6661Z" fill="#35208A"/>
<path d="M145.959 43.5279C145.985 43.4587 145.985 43.3824 145.959 43.3132C145.422 42.3109 143.489 42.114 142.522 41.9171C140.947 41.6128 139.354 41.416 137.744 41.2012L136.884 41.1654C136.777 41.1654 136.58 41.0759 136.598 41.1654C136.395 40.8176 136.238 40.4445 136.133 40.0557C135.471 38.5165 134.826 36.9773 134.146 35.438C133.806 34.6505 133.466 33.8809 133.09 33.1113C132.875 32.646 132.607 31.7511 132.088 31.5184C130.924 31.0172 130.101 33.8988 129.797 34.5968C129.045 36.2435 128.365 37.9259 127.649 39.5904C127.488 39.9483 127.237 40.9506 126.915 41.1833C126.41 41.2411 125.899 41.2411 125.394 41.1833L123.282 41.3623C122.072 41.4288 120.873 41.6207 119.702 41.935C119.004 42.1319 117.752 42.472 117.913 43.4563C118.074 44.4407 119.219 45.0135 119.702 45.443C120.649 46.1964 121.655 46.8728 122.709 47.4655C123.175 47.7519 123.783 47.9487 124.213 48.2709C124.642 48.5931 124.517 49.1479 124.356 49.7206C124.034 50.9377 123.712 52.1548 123.425 53.3002C123.139 54.4457 122.942 55.2869 122.781 56.3071C122.593 56.9924 122.593 57.7158 122.781 58.4012C123.515 59.9583 126.36 57.2378 126.987 56.7187C127.613 56.1997 128.669 55.3943 129.493 54.6784L130.656 53.694C130.871 53.4971 131.426 52.7275 131.712 52.6738C131.998 52.6201 133.394 54.0877 133.77 54.4636C134.611 55.1974 135.56 55.8954 136.348 56.5756C137.473 57.71 138.892 58.5093 140.446 58.8844C141.824 59.0097 141.162 56.9156 140.983 56.0923C140.554 54.1235 139.909 52.2085 139.319 50.2755C139.193 49.8638 139.032 49.4522 138.943 49.0226C138.853 48.5931 138.943 48.5931 139.265 48.3425C140.017 47.895 140.947 47.6087 141.753 47.197C143.023 46.5527 145.601 45.4072 145.959 43.7964C145.994 43.7103 145.994 43.614 145.959 43.5279Z" fill="#FFF896"/>
<path d="M66.0452 147.444C63.8795 147.247 61.6781 147.282 59.4766 147.3L61.2664 145.511C62.32 144.614 63.226 143.557 63.9511 142.378C64.0125 142.263 64.0353 142.132 64.0161 142.002C63.9969 141.873 63.9367 141.754 63.8445 141.662C63.7522 141.569 63.6328 141.509 63.5037 141.49C63.3747 141.471 63.2429 141.494 63.1278 141.555C61.9377 142.264 60.8633 143.152 59.942 144.186L58.0448 145.976V143.291C58.15 141.912 58.0475 140.524 57.7405 139.175C57.6973 139.053 57.6173 138.947 57.5116 138.872C57.4058 138.797 57.2794 138.757 57.1499 138.757C57.0203 138.757 56.8939 138.797 56.7882 138.872C56.6824 138.947 56.6024 139.053 56.5592 139.175C56.237 140.522 56.1104 141.908 56.1834 143.291C56.1834 144.186 56.1834 145.081 56.1834 145.958L54.3399 144.079C53.4349 143.033 52.3793 142.128 51.2077 141.394C51.0926 141.333 50.9608 141.31 50.8318 141.329C50.7028 141.348 50.5833 141.408 50.4911 141.501C50.3988 141.593 50.3387 141.712 50.3195 141.841C50.3003 141.97 50.323 142.102 50.3844 142.217C51.094 143.402 51.9813 144.47 53.0154 145.385C53.624 146.03 54.2504 146.674 54.8052 147.3H52.1205C50.74 147.2 49.3522 147.309 48.004 147.623C47.8796 147.661 47.7707 147.738 47.6933 147.843C47.616 147.947 47.5742 148.074 47.5742 148.204C47.5742 148.334 47.616 148.461 47.6933 148.566C47.7707 148.671 47.8796 148.748 48.004 148.786C49.348 149.126 50.7371 149.253 52.1205 149.162H54.7336C53.1228 150.683 51.512 152.204 50.0802 153.851C49.9967 153.934 49.9305 154.034 49.8854 154.143C49.8402 154.252 49.817 154.368 49.817 154.486C49.817 154.604 49.8402 154.721 49.8854 154.83C49.9305 154.939 49.9967 155.038 50.0802 155.122C50.1636 155.205 50.2627 155.271 50.3717 155.317C50.4807 155.362 50.5975 155.385 50.7155 155.385C50.8335 155.385 50.9504 155.362 51.0594 155.317C51.1684 155.271 51.2675 155.205 51.3509 155.122C52.9979 153.702 54.5691 152.196 56.0581 150.611C56.0581 152.795 55.9328 154.996 56.0581 157.162C56.0996 157.369 56.2115 157.555 56.3746 157.688C56.5378 157.822 56.7421 157.895 56.953 157.895C57.1639 157.895 57.3682 157.822 57.5314 157.688C57.6945 157.555 57.8063 157.369 57.8479 157.162C58.0269 155.014 58.009 152.813 57.9911 150.629C59.4766 152.222 60.9979 153.815 62.6266 155.247C62.8033 155.38 63.0224 155.445 63.2431 155.429C63.4639 155.413 63.6713 155.317 63.8267 155.16C63.9821 155.002 64.075 154.793 64.088 154.572C64.101 154.351 64.0333 154.133 63.8974 153.958C62.5193 152.312 60.9442 150.773 59.3871 149.251C61.5707 149.251 63.7721 149.377 65.9199 149.251C66.1424 149.239 66.353 149.147 66.5119 148.99C66.6707 148.834 66.7669 148.625 66.7823 148.403C66.7977 148.18 66.7313 147.96 66.5955 147.783C66.4597 147.607 66.264 147.486 66.0452 147.444Z" fill="white"/>
<path d="M101.642 17.898C102.24 17.898 102.814 17.6604 103.236 17.2375C103.659 16.8145 103.897 16.2409 103.897 15.6428C103.888 15.0476 103.647 14.4794 103.226 14.0584C102.805 13.6375 102.237 13.3969 101.642 13.3877C101.046 13.3962 100.475 13.6332 100.049 14.0499C99.6397 14.4813 99.4039 15.0485 99.3867 15.6428C99.4004 16.2367 99.6424 16.8024 100.062 17.2224C100.482 17.6424 101.048 17.8843 101.642 17.898Z" fill="white"/>
<path d="M111.486 49.7564H111.576C112.041 49.622 112.449 49.3392 112.739 48.951C113.047 48.5709 113.217 48.0978 113.222 47.6086C113.207 47.1212 113.04 46.6507 112.745 46.2626C112.45 45.8744 112.041 45.5879 111.576 45.443H111.486C111.149 45.3507 110.795 45.3375 110.452 45.4044C110.108 45.4713 109.785 45.6164 109.507 45.8286C109.229 46.0407 109.004 46.3141 108.849 46.6275C108.694 46.9409 108.613 47.2858 108.613 47.6355C108.613 47.9851 108.694 48.3301 108.849 48.6435C109.004 48.9569 109.229 49.2303 109.507 49.4424C109.785 49.6545 110.108 49.7997 110.452 49.8665C110.795 49.9334 111.149 49.9202 111.486 49.828V49.7564Z" fill="white"/>
<path d="M157.754 58.7054C158.01 58.8559 158.28 58.9817 158.56 59.0812C158.934 59.191 159.332 59.1974 159.71 59.0997C160.088 59.002 160.433 58.8039 160.707 58.5264C160.982 58.2496 161.178 57.9049 161.275 57.5275C161.373 57.1502 161.368 56.7537 161.262 56.3786C161.163 56.0989 161.037 55.8292 160.886 55.5732C160.705 55.2792 160.46 55.0293 160.169 54.8418C159.879 54.6544 159.55 54.534 159.207 54.4894C158.864 54.4448 158.516 54.4772 158.187 54.5842C157.858 54.6912 157.558 54.8701 157.307 55.1079C156.889 55.5484 156.653 56.1298 156.645 56.7366C156.649 57.1337 156.755 57.5231 156.952 57.8677C157.149 58.2124 157.432 58.5007 157.772 58.7054H157.754Z" fill="white"/>
<path d="M148.319 85.5882C148.813 85.5646 149.299 85.4493 149.751 85.2481C150.075 85.0624 150.347 84.7991 150.544 84.4821C150.741 84.165 150.856 83.804 150.879 83.4315C150.902 83.059 150.833 82.6865 150.676 82.3476C150.52 82.0087 150.282 81.7138 149.984 81.4896C149.76 81.2883 149.489 81.1467 149.196 81.0779H148.605H148.319C147.862 81.0759 147.415 81.2096 147.034 81.462C146.653 81.7145 146.355 82.0743 146.179 82.496C146.002 82.9176 145.955 83.3821 146.043 83.8307C146.131 84.2792 146.35 84.6915 146.672 85.0155C146.886 85.2356 147.142 85.4095 147.425 85.5265C147.708 85.6435 148.013 85.701 148.319 85.6956V85.5882Z" fill="white"/>
<path d="M168.993 119.093V118.825C169.816 115.245 163.802 115.245 164.643 118.825V119.093C164.778 119.549 165.056 119.95 165.437 120.235C165.817 120.519 166.28 120.673 166.755 120.673C167.231 120.673 167.694 120.519 168.074 120.235C168.455 119.95 168.733 119.549 168.867 119.093H168.993Z" fill="white"/>
<path d="M136.614 134.682C136.893 134.957 137.238 135.154 137.616 135.255C138.091 135.255 138.546 135.066 138.882 134.731C139.217 134.395 139.406 133.94 139.406 133.465C139.406 132.991 139.217 132.535 138.882 132.2C138.546 131.864 138.091 131.675 137.616 131.675C137.243 131.788 136.9 131.983 136.614 132.248C136.312 132.578 136.145 133.009 136.145 133.456C136.145 133.903 136.312 134.334 136.614 134.664V134.682Z" fill="white"/>
<path d="M96.6488 157.502H96.4699C96.1096 157.407 95.7308 157.406 95.3703 157.501C95.0097 157.595 94.6795 157.78 94.4116 158.039C94.0213 158.444 93.7977 158.981 93.7852 159.543C93.8011 160.104 94.0242 160.639 94.4116 161.046C94.6823 161.301 95.0126 161.483 95.3722 161.577C95.7318 161.671 96.1093 161.673 96.4699 161.583H96.6488L97.15 161.368C97.3938 161.249 97.5986 161.063 97.7406 160.831C98.0293 160.477 98.1873 160.035 98.1881 159.578C98.1759 159.209 98.0778 158.847 97.9017 158.522C97.7733 158.276 97.596 158.058 97.3805 157.883C97.1651 157.708 96.9161 157.578 96.6488 157.502Z" fill="white"/>
<path d="M34.9887 144.473C35.3965 144.458 35.7917 144.327 36.1279 144.096C36.4641 143.864 36.7275 143.542 36.8871 143.166C37.0467 142.791 37.096 142.377 37.0293 141.975C36.9625 141.572 36.7824 141.197 36.51 140.893C36.1009 140.498 35.557 140.274 34.9887 140.266C34.4189 140.267 33.8723 140.492 33.4674 140.893C33.2628 141.09 33.1 141.326 32.9888 141.588C32.8776 141.849 32.8203 142.13 32.8203 142.414C32.8203 142.698 32.8776 142.979 32.9888 143.241C33.1 143.502 33.2628 143.739 33.4674 143.936C33.8723 144.336 34.4189 144.561 34.9887 144.562V144.473Z" fill="white"/>
<path d="M16.698 94.5193L16.8591 94.3224L17.2349 93.8392L17.3781 93.4812C17.5441 93.1174 17.606 92.7147 17.5571 92.3179C17.5512 91.7685 17.3331 91.2426 16.9486 90.8502L16.519 90.5102C16.1973 90.3259 15.8337 90.2273 15.463 90.2238C15.0722 90.185 14.678 90.2466 14.3176 90.4028C13.9986 90.5126 13.7103 90.6966 13.4764 90.9397L13.2795 91.0829C13.0437 91.3161 12.8585 91.5954 12.7353 91.9033C12.6121 92.2112 12.5537 92.5412 12.5636 92.8727C12.5578 93.2036 12.6182 93.5324 12.7411 93.8397C12.8641 94.1471 13.0471 94.4268 13.2795 94.6625C13.5031 94.8849 13.7684 95.0611 14.0601 95.1808C14.3519 95.3006 14.6644 95.3617 14.9798 95.3605C15.3106 95.3783 15.6414 95.3252 15.9501 95.2048C16.2588 95.0845 16.5382 94.8995 16.7696 94.6625L16.698 94.5193Z" fill="white"/>
<path d="M35.9387 88.8634C36.535 88.855 37.1052 88.6179 37.5317 88.2012C37.8464 87.8858 38.0606 87.4843 38.1473 87.0473C38.2341 86.6103 38.1894 86.1574 38.019 85.7457C37.8486 85.3341 37.5601 84.9821 37.1898 84.7343C36.8196 84.4864 36.3843 84.3538 35.9387 84.3531C35.6426 84.3531 35.3493 84.4115 35.0757 84.5248C34.8021 84.6381 34.5535 84.8043 34.3441 85.0137C34.1347 85.2231 33.9686 85.4717 33.8553 85.7453C33.7419 86.0189 33.6836 86.3121 33.6836 86.6083C33.6928 87.2035 33.9334 87.7718 34.3543 88.1927C34.7753 88.6136 35.3435 88.8542 35.9387 88.8634Z" fill="white"/>
<path d="M53.2452 29.8359C53.2452 29.8359 53.3884 30.1939 53.4779 30.3728L53.5674 30.9635C53.5674 31.1603 53.5674 31.3572 53.4779 31.5541L53.2452 32.0731V31.9658C53.4364 31.6347 53.5373 31.2592 53.5378 30.8769C53.5383 30.4946 53.4384 30.1189 53.2482 29.7873C53.0579 29.4557 52.7839 29.1798 52.4536 28.9873C52.1233 28.7949 51.7482 28.6925 51.3659 28.6904C50.7263 28.7089 50.1179 28.9715 49.6656 29.4242C49.4444 29.6804 49.2795 29.9801 49.1816 30.304C49.0836 30.628 49.0548 30.9689 49.097 31.3046C49.1392 31.6404 49.2514 31.9636 49.4264 32.2532C49.6015 32.5429 49.8354 32.7925 50.1131 32.9859C50.6578 33.29 51.2985 33.3733 51.9029 33.2186C52.472 33.0393 52.9598 32.6655 53.281 32.1626C53.4801 31.8072 53.5847 31.4067 53.5847 30.9993C53.5847 30.5919 53.4801 30.1913 53.281 29.8359H53.2452Z" fill="white"/>
<path d="M90.3489 74.9389C90.617 74.516 90.7598 74.0257 90.7606 73.525C90.7578 72.9363 90.5269 72.3717 90.1162 71.9499C89.6922 71.5539 89.139 71.325 88.5591 71.3056C88.0496 71.302 87.5507 71.4517 87.1273 71.7352C86.8205 71.9183 86.5596 72.1691 86.3645 72.4685C86.1695 72.7679 86.0454 73.1079 86.0019 73.4625C85.9583 73.8172 85.9964 74.1771 86.1132 74.5148C86.2299 74.8525 86.4224 75.159 86.6757 75.4109C86.9291 75.6629 87.2367 75.8536 87.575 75.9685C87.9133 76.0834 88.2735 76.1195 88.6279 76.0739C88.9822 76.0284 89.3216 75.9024 89.6198 75.7057C89.9181 75.509 90.1675 75.2467 90.3489 74.9389Z" fill="white"/>
<path d="M71.735 116.212L71.2159 116.426C71.4202 116.361 71.6179 116.278 71.8066 116.176C72.0933 116.008 72.3383 115.778 72.5234 115.502C72.7085 115.226 72.8288 114.912 72.8753 114.583C72.9217 114.255 72.8932 113.919 72.7918 113.603C72.6905 113.287 72.5188 112.998 72.2898 112.757C72.055 112.52 71.7686 112.34 71.4528 112.232C71.1371 112.124 70.8006 112.09 70.4696 112.133C70.1387 112.177 69.8222 112.296 69.545 112.482C69.2677 112.668 69.0372 112.915 68.8713 113.205C68.6512 113.573 68.5338 113.993 68.5312 114.422C68.5398 114.792 68.6449 115.154 68.8362 115.472C69.0274 115.789 69.2982 116.051 69.6218 116.232C69.9453 116.413 70.3105 116.506 70.6811 116.502C71.0517 116.499 71.415 116.399 71.735 116.212Z" fill="white"/>
<path d="M101.177 115.209C101.78 115.157 102.341 114.881 102.75 114.435C103.159 113.99 103.386 113.407 103.386 112.802C103.386 112.197 103.159 111.614 102.75 111.169C102.341 110.723 101.78 110.447 101.177 110.395C100.575 110.447 100.013 110.723 99.6045 111.169C99.1956 111.614 98.9688 112.197 98.9688 112.802C98.9688 113.407 99.1956 113.99 99.6045 114.435C100.013 114.881 100.575 115.157 101.177 115.209Z" fill="#F7B9E7"/>
<path d="M29.1548 57.8463C29.8246 57.8295 30.4636 57.5611 30.9446 57.0946C31.4002 56.61 31.6538 55.9699 31.6538 55.3048C31.6538 54.6397 31.4002 53.9996 30.9446 53.515C30.4636 53.0485 29.8246 52.7801 29.1548 52.7633C28.4864 52.7869 27.8498 53.0543 27.365 53.515C26.8954 53.994 26.6265 54.6342 26.6133 55.3048C26.6301 55.9747 26.8985 56.6136 27.365 57.0946C27.8498 57.5553 28.4864 57.8227 29.1548 57.8463Z" fill="#F7B9E7"/>
<path d="M129.779 154.424V154.298L130.047 153.69C130.136 153.35 130.136 152.992 130.047 152.652C129.976 152.097 129.725 151.581 129.331 151.184C129.007 150.876 128.615 150.649 128.186 150.522C127.521 150.362 126.82 150.451 126.217 150.773L126.074 150.88C125.685 151.1 125.363 151.421 125.143 151.811C124.909 152.206 124.785 152.657 124.785 153.117C124.815 153.788 125.089 154.424 125.555 154.907C126.037 155.372 126.675 155.64 127.345 155.659C127.797 155.656 128.241 155.536 128.633 155.31C129.026 155.084 129.352 154.76 129.582 154.37L129.779 154.424Z" fill="#F7B9E7"/>
<path d="M125.929 22.0325C126.573 21.9787 127.174 21.6847 127.611 21.209C128.049 20.7333 128.292 20.1105 128.292 19.4641C128.292 18.8177 128.049 18.1949 127.611 17.7192C127.174 17.2435 126.573 16.9496 125.929 16.8958C125.285 16.9496 124.685 17.2435 124.247 17.7192C123.809 18.1949 123.566 18.8177 123.566 19.4641C123.566 20.1105 123.809 20.7333 124.247 21.209C124.685 21.6847 125.285 21.9787 125.929 22.0325Z" fill="#F7B9E7"/>
<path d="M171.428 95.7184C171.855 95.7262 172.277 95.6279 172.656 95.4324C173.035 95.2369 173.36 94.9503 173.601 94.5983C173.842 94.2463 173.992 93.84 174.038 93.4157C174.083 92.9915 174.023 92.5626 173.861 92.1676C173.7 91.7725 173.443 91.4237 173.114 91.1524C172.785 90.8811 172.393 90.6958 171.975 90.6131C171.556 90.5304 171.123 90.5529 170.716 90.6786C170.308 90.8044 169.938 91.0293 169.638 91.3334C169.166 91.8103 168.896 92.4518 168.887 93.1232C168.887 93.802 169.156 94.453 169.636 94.933C170.116 95.413 170.767 95.6826 171.446 95.6826L171.428 95.7184Z" fill="#F7B9E7"/>
<path d="M96.4328 143.989C97.1163 143.989 97.7719 143.718 98.2552 143.234C98.7386 142.751 99.0101 142.095 99.0101 141.412C99.0101 140.728 98.7386 140.073 98.2552 139.589C97.7719 139.106 97.1163 138.835 96.4328 138.835C95.7492 138.835 95.0937 139.106 94.6103 139.589C94.127 140.073 93.8555 140.728 93.8555 141.412C93.8555 142.095 94.127 142.751 94.6103 143.234C95.0937 143.718 95.7492 143.989 96.4328 143.989Z" fill="#F7B9E7"/>
</g>
<defs>
<clipPath id="clip0_2288_4959">
<rect width="180" height="180" fill="white"/>
</clipPath>
</defs>
</svg>
