<svg width="180" height="180" viewBox="0 0 180 180" fill="none" xmlns="http://www.w3.org/2000/svg">
<g clip-path="url(#clip0_2288_4858)">
<path d="M177.482 89.991C177.482 138.311 138.311 177.482 89.991 177.482C41.6711 177.482 2.5 138.311 2.5 89.991C2.5 41.6711 41.6711 2.5 89.991 2.5C138.311 2.5 177.482 41.6711 177.482 89.991Z" stroke="white" stroke-width="5"/>
<path d="M144.562 54.7141C144.097 48.4856 139.193 42.6151 135.13 38.2837C131.676 34.7041 127.398 30.1223 122.047 30.2833C121.134 30.2833 118.753 30.2833 118.467 31.5899C118.181 32.8965 121.134 34.1851 121.814 34.901C123.259 36.0945 124.245 37.7515 124.606 39.5903C124.476 41.5275 124.035 43.4311 123.3 45.2282C122.971 46.1418 122.832 47.1128 122.89 48.082C122.949 49.0513 123.204 49.9985 123.64 50.866C124.847 53.0318 126.394 54.9897 128.221 56.665C129.188 57.6315 130.208 58.5622 131.228 59.475C131.801 59.994 133.698 61.1216 133.877 61.8554C134.217 63.1619 127.237 63.0367 126.145 63.0725C125.068 63.0686 123.994 63.1826 122.942 63.4125C120.955 63.9316 119.469 65.2023 117.25 64.5043C115.031 63.8063 113.796 62.0523 112.131 60.9247C110.483 59.7937 109.001 58.4383 107.728 56.8976C106.064 54.8573 104.149 54.0161 102.126 55.9491C101.178 56.9104 100.316 57.9524 99.5489 59.0633C96.9878 57.7155 94.169 56.9284 91.28 56.7545C87.1098 56.2533 83.1901 55.8775 79.6285 58.5443H79.5211C78.9331 57.4777 78.2692 56.4549 77.5344 55.4837C76.0131 53.6044 74.277 53.6939 72.4514 55.1615C71.0986 56.4103 69.6097 57.503 68.0127 58.419C66.4376 59.2423 64.9879 60.2088 63.4487 61.0858C62.4282 61.6619 61.2601 61.9235 60.0913 61.8375C58.9226 61.7515 57.8053 61.3218 56.8801 60.6025C56.1014 60.1286 55.2482 59.7898 54.3565 59.6002C52.0477 59.0275 49.6493 58.9738 47.3584 58.3116C46.7635 58.1899 46.1942 57.9658 45.676 57.6494C44.978 57.0945 44.9064 57.3451 45.5328 56.7724C46.5764 55.9552 47.6769 55.2136 48.826 54.553C50.9893 53.1331 53.0254 51.5282 54.9113 49.7563C56.4665 48.456 57.5797 46.7049 58.0972 44.7449C58.5983 41.7739 56.4864 38.5701 57.6139 35.6706C58.5064 33.9342 59.8553 32.4738 61.5157 31.4467C62.4059 31.0808 63.2623 30.6376 64.0751 30.1223C65.0595 29.2274 64.451 28.4757 63.4308 27.9745C58.6162 25.6478 54.0701 28.7083 50.2042 31.3393C45.0316 34.9189 39.6444 39.5545 36.8165 45.2461C35.5172 47.6342 35.1111 50.4071 35.671 53.0675C36.6435 55.9918 38.272 58.6549 40.4319 60.8531C42.7629 63.6507 45.4117 66.1674 48.3249 68.3524C51.0096 70.3211 54.3744 72.5047 57.8466 72.1646C61.3188 71.8246 64.5047 69.6768 67.1894 67.9407C68.7176 66.9393 70.1876 65.8517 71.5923 64.6833C72.4268 63.8805 73.366 63.1941 74.3843 62.6429C74.8346 62.4255 75.3422 62.3566 75.8341 62.446C73.9778 64.9706 72.495 67.7495 71.4312 70.697C70.232 70.9476 69.0507 71.216 67.8516 71.5382C64.3018 72.3838 61.029 74.128 58.3477 76.6033C55.4662 79.467 53.8733 83.3509 51.0991 86.304C49.6918 87.8254 47.9258 88.9699 45.9623 89.6331C44.62 90.0805 44.441 89.633 43.4745 88.7739C42.759 88.019 41.8762 87.4427 40.8972 87.0915C40.6177 87.0207 40.3246 87.0237 40.0465 87.1002C39.7685 87.1767 39.5151 87.3241 39.3112 87.528C39.1073 87.7319 38.9599 87.9853 38.8834 88.2633C38.8069 88.5414 38.8039 88.8345 38.8747 89.114C39.5476 91.0916 40.8487 92.795 42.5796 93.9644C44.4768 95.1814 46.8751 94.2686 48.7365 93.4811C53.1752 91.5839 55.8957 88.0043 58.473 84.1205C60.5855 80.4583 63.9866 77.7145 68.0127 76.4243C68.5854 76.2454 69.176 76.1022 69.8025 75.959C68.9453 79.3808 68.4002 82.8733 68.1737 86.3935C62.518 88.1833 57.3097 93.0874 54.1596 97.6334C53.155 99.3837 52.0244 101.059 50.7769 102.645C49.4025 103.965 47.8099 105.037 46.0697 105.813C45.4365 106.271 44.6805 106.53 43.8991 106.555C43.1177 106.581 42.3466 106.372 41.6847 105.956C41.012 105.534 40.2473 105.281 39.4556 105.219C38.664 105.156 37.8691 105.287 37.1386 105.598C35.7963 106.189 36.1006 108.086 37.1386 108.766C39.6981 110.431 43.0271 112.167 46.0876 110.985C49.7468 109.698 52.9714 107.41 55.3946 104.381C57.7571 101.159 59.5111 97.9019 62.5538 95.253C64.1969 93.9275 66.001 92.815 67.9232 91.9419C67.9232 94.6087 67.9232 97.3113 68.1379 99.9244C68.1379 100.73 68.2453 101.535 68.3169 102.341C64.5844 104.77 61.2209 107.723 58.3298 111.111C55.9399 114.063 52.9744 116.499 49.6135 118.27C48.8145 118.715 47.9151 118.949 47.0004 118.949C46.0858 118.949 45.1863 118.715 44.3873 118.27C42.5326 117.428 40.5778 116.826 38.5705 116.48C37.246 116.319 36.5838 118.27 37.4966 119.075C39.1685 120.411 41.0027 121.529 42.9555 122.404C44.47 123.366 46.2474 123.829 48.0385 123.729C51.8687 123.245 55.8062 120.346 58.5983 117.804C61.3904 115.263 63.9677 111.665 67.1714 109.088C67.7084 108.659 68.2632 108.265 68.8181 107.889C69.4156 113.265 70.5121 118.574 72.0934 123.747C73.8832 129.259 76.7648 134.897 82.2952 137.313C83.5771 137.852 84.9364 138.184 86.3223 138.298C86.1758 138.949 86.1097 139.617 86.1254 140.284C86.2686 142.772 87.593 145.654 90.2777 146.083C90.8743 146.21 91.4944 146.166 92.0675 145.958C92.6131 147.009 93.3728 147.934 94.2975 148.674C95.2223 149.414 96.2917 149.952 97.4369 150.254C98.0278 150.37 98.6358 150.37 99.2267 150.254C99.3579 150.582 99.5457 150.885 99.7816 151.148C100.838 152.125 102.185 152.729 103.616 152.868C105.048 153.007 106.486 152.673 107.71 151.918C108.224 151.511 108.61 150.964 108.82 150.343C110.146 150.988 111.665 151.116 113.08 150.701C115.55 149.949 118.753 147.121 118.306 144.293C120.83 144.437 122.834 141.627 124.087 139.783C125.006 138.597 125.575 137.177 125.73 135.684C125.885 134.192 125.619 132.685 124.964 131.335C124.596 130.738 124.061 130.261 123.424 129.965C122.788 129.669 122.079 129.567 121.384 129.671C118.629 130.261 115.934 131.099 113.33 132.177C113.256 132.205 113.193 132.256 113.148 132.321C113.103 132.387 113.079 132.464 113.079 132.543C113.079 132.623 113.103 132.7 113.148 132.766C113.193 132.831 113.256 132.882 113.33 132.91C114.893 134.047 116.768 134.672 118.7 134.7C117.67 135.266 116.763 136.033 116.035 136.955C115.306 137.877 114.77 138.936 114.458 140.07C114.34 140.552 114.34 141.055 114.458 141.537C111.612 141.824 108.158 142.629 107.084 145.475C106.201 144.88 105.197 144.489 104.144 144.331C103.092 144.173 102.017 144.252 100.999 144.562C100.396 143.63 99.609 142.831 98.6854 142.215C97.7618 141.599 96.7216 141.18 95.6292 140.982C95.2837 140.955 94.9367 140.955 94.5912 140.982C94.3048 139.544 93.804 138.156 93.1056 136.866C94.5137 136.058 95.6055 134.796 96.202 133.286C98.8688 126.7 97.777 119.397 97.9918 112.489C97.9823 112.388 97.9823 112.286 97.9918 112.185C98.2602 112.363 98.5287 112.542 98.7972 112.757C102.198 115.335 104.65 118.789 107.746 121.617C110.602 124.434 114.163 126.431 118.055 127.398C119.805 127.593 121.569 127.196 123.067 126.27C125.172 125.307 127.135 124.06 128.902 122.565C130.137 121.42 128.776 119.827 127.434 120.024C125.444 120.494 123.52 121.21 121.707 122.154C120.927 122.574 120.048 122.776 119.162 122.738C118.277 122.7 117.419 122.424 116.677 121.939C113.331 120.146 110.37 117.714 107.961 114.78C105.173 111.644 101.969 108.905 98.4392 106.636C98.6898 103.271 99.0299 99.8886 99.4057 96.5238C100.844 97.2208 102.206 98.0666 103.469 99.0474C106.325 101.673 108.801 104.685 110.825 107.996C113.161 110.948 116.254 113.212 119.774 114.547C123.138 115.997 126.467 114.44 129.331 112.525C130.351 111.844 130.709 109.929 129.331 109.339C128.652 109.049 127.913 108.924 127.176 108.974C126.439 109.023 125.724 109.247 125.089 109.625C124.432 110.027 123.721 110.334 122.977 110.538C121.952 110.483 120.965 110.135 120.132 109.536C118.394 108.75 116.812 107.659 115.46 106.314C114.243 104.718 113.114 103.057 112.077 101.338C108.988 97.0184 104.848 93.5566 100.05 91.2797C100.229 89.9373 100.39 88.595 100.587 87.2526C100.82 85.4628 101.106 83.673 101.374 81.8832C104.042 83.4995 106.287 85.7263 107.925 88.3802C110.485 92.103 113.169 95.5394 117.447 97.3292C119.344 98.1167 121.796 99.119 123.711 97.8303C125.389 96.6192 126.642 94.9092 127.291 92.9442C127.36 92.6665 127.357 92.3755 127.281 92.0994C127.206 91.8234 127.06 91.5715 126.858 91.3682C126.657 91.1648 126.406 91.0169 126.131 90.9387C125.855 90.8605 125.565 90.8546 125.286 90.9217C124.419 91.2088 123.633 91.6999 122.995 92.3535C122.494 92.801 121.778 93.7317 121.205 93.8033C119.541 94.036 116.874 92.0135 115.836 90.9754C112.758 88.1475 111.129 84.1205 108.229 81.0778C106.483 79.3125 104.402 77.9131 102.108 76.9613C102.108 76.5317 102.234 76.0843 102.305 75.6547C102.969 71.9534 103.185 68.1857 102.95 64.4327C102.91 64.0953 102.851 63.7605 102.771 63.4304C103.501 63.4697 104.22 63.6268 104.9 63.8958C105.489 64.4336 106.017 65.0337 106.475 65.6856C107.669 67.0195 108.943 68.2806 110.288 69.462C112.534 71.5932 115.093 73.3678 117.876 74.724C123.496 77.1582 130.405 72.4868 134.611 69.2115C139.175 65.6677 145.063 61.1216 144.562 54.7141Z" fill="#96CBEB"/>
<path d="M140.536 60.8531C139.076 61.4404 137.472 61.5715 135.936 61.229C135.328 61.0858 135.059 62.0344 135.668 62.1597C137.372 62.5487 139.154 62.3986 140.769 61.7301C141.306 61.4975 141.091 60.6204 140.536 60.8531Z" fill="#35208A"/>
<path d="M120.702 73.9902C119.672 71.3497 119.244 68.5125 119.449 65.6856C119.449 65.077 118.554 65.0949 118.501 65.6856C118.174 68.6364 118.663 71.6202 119.915 74.3124C119.965 74.4 120.046 74.4661 120.141 74.4982C120.237 74.5302 120.341 74.5259 120.434 74.4861C120.527 74.4464 120.602 74.3739 120.645 74.2824C120.688 74.191 120.695 74.087 120.666 73.9902H120.702Z" fill="#35208A"/>
<path d="M120.684 97.5977C121.06 97.186 120.684 96.488 120.684 95.9868C120.673 95.1957 120.54 94.411 120.291 93.6601C120.261 93.608 120.218 93.5647 120.166 93.5346C120.114 93.5045 120.055 93.4886 119.995 93.4886C119.935 93.4886 119.876 93.5045 119.825 93.5346C119.773 93.5647 119.73 93.608 119.7 93.6601C119.477 94.6022 119.552 95.5904 119.915 96.488C119.915 96.488 120.38 98.0093 120.738 97.5977H120.684Z" fill="#35208A"/>
<path d="M111.915 92.5147C112.452 92.5147 112.828 91.7809 113.096 91.405L113.723 90.4564C113.878 90.1925 113.998 89.9097 114.081 89.6152L113.866 89.9016H113.526L113.347 89.7405L113.723 89.2572C113.419 89.2572 113.24 89.6689 113.472 89.8658C113.518 89.9119 113.576 89.9452 113.639 89.9623C113.702 89.9795 113.768 89.98 113.831 89.9638C113.895 89.9475 113.953 89.9151 113.999 89.8696C114.046 89.8242 114.08 89.7674 114.099 89.7047C114.134 89.629 114.152 89.5465 114.152 89.4631C114.152 89.3796 114.134 89.2971 114.099 89.2214C114.064 89.1528 114.01 89.0959 113.943 89.0578C113.876 89.0196 113.8 89.0018 113.723 89.0067C113.606 88.997 113.489 89.0271 113.392 89.0921C113.294 89.157 113.222 89.2531 113.186 89.3646C113.008 89.765 112.805 90.1536 112.577 90.528C112.291 90.9933 111.539 91.8703 111.826 92.4252C111.842 92.4331 111.861 92.4373 111.879 92.4373C111.898 92.4373 111.916 92.4331 111.933 92.4252L111.915 92.5147Z" fill="#35208A"/>
<path d="M122.796 114.422C122.975 113.831 123.083 113.24 123.208 112.632C123.388 112.14 123.438 111.61 123.351 111.093C123.332 111.035 123.299 110.983 123.254 110.942C123.209 110.901 123.155 110.871 123.096 110.857C123.037 110.843 122.975 110.844 122.916 110.86C122.858 110.876 122.804 110.907 122.761 110.95C122.462 111.409 122.295 111.941 122.277 112.489C122.17 113.097 122.045 113.688 121.991 114.279C121.937 114.869 122.671 114.816 122.796 114.386V114.422Z" fill="#35208A"/>
<path d="M110.199 106.403C110.736 106.403 111.041 105.58 111.309 105.186C111.828 104.615 112.318 104.018 112.777 103.397C112.817 103.319 112.831 103.231 112.818 103.144C112.805 103.058 112.764 102.978 112.702 102.916C112.64 102.854 112.561 102.814 112.474 102.801C112.388 102.787 112.299 102.802 112.222 102.842C111.464 103.384 110.85 104.103 110.432 104.936C110.343 105.079 109.591 106.421 110.181 106.403H110.199Z" fill="#35208A"/>
<path d="M120.505 126.915C120.541 126.402 120.541 125.888 120.505 125.375C120.484 124.924 120.4 124.479 120.255 124.051C120.076 123.639 119.521 123.908 119.485 124.266C119.477 124.718 119.531 125.17 119.646 125.608C119.697 126.104 119.786 126.594 119.915 127.076C119.915 127.156 119.947 127.234 120.004 127.291C120.061 127.348 120.138 127.38 120.219 127.38C120.3 127.38 120.377 127.348 120.434 127.291C120.491 127.234 120.523 127.156 120.523 127.076L120.505 126.915Z" fill="#35208A"/>
<path d="M107.925 121.241C108.205 120.419 108.38 119.565 108.444 118.699C108.746 117.963 108.88 117.168 108.837 116.373C108.825 116.324 108.799 116.279 108.763 116.243C108.727 116.207 108.682 116.181 108.633 116.169C108.583 116.156 108.532 116.157 108.483 116.17C108.434 116.184 108.389 116.211 108.354 116.247C107.746 116.749 107.656 117.858 107.513 118.61C107.265 119.44 107.222 120.319 107.388 121.169C107.415 121.214 107.453 121.25 107.499 121.276C107.544 121.301 107.595 121.315 107.647 121.315C107.699 121.315 107.751 121.301 107.796 121.276C107.841 121.25 107.88 121.214 107.907 121.169L107.925 121.241Z" fill="#35208A"/>
<path d="M79.6799 65.1308C79.4382 65.1175 79.2017 65.0553 78.9847 64.948C78.7677 64.8407 78.5747 64.6905 78.4174 64.5064C78.2601 64.3224 78.1418 64.1083 78.0697 63.8772C77.9975 63.6462 77.973 63.4028 77.9975 63.162C78.0108 62.9203 78.073 62.6837 78.1803 62.4667C78.2876 62.2497 78.4378 62.0567 78.6219 61.8995C78.8059 61.7422 79.02 61.6239 79.251 61.5517C79.4821 61.4796 79.7255 61.455 79.9663 61.4796C80.441 61.5176 80.8811 61.7425 81.1899 62.1051C81.4987 62.4676 81.6509 62.9379 81.6129 63.4126C81.5749 63.8872 81.35 64.3274 80.9874 64.6362C80.6249 64.945 80.1546 65.0972 79.6799 65.0592V65.1308Z" fill="#35208A"/>
<path d="M98.2417 66.5626C97.7728 66.5129 97.3423 66.2801 97.0441 65.9148C96.7458 65.5495 96.6037 65.0812 96.6488 64.6118C96.681 64.262 96.8154 63.9294 97.0352 63.6554C97.255 63.3815 97.5506 63.1783 97.8851 63.0711C98.2197 62.964 98.5783 62.9577 98.9164 63.0529C99.2545 63.1481 99.5571 63.3408 99.7865 63.6068C100.016 63.8728 100.162 64.2004 100.206 64.5488C100.251 64.8972 100.192 65.2511 100.037 65.5662C99.8817 65.8813 99.6372 66.1438 99.334 66.321C99.0307 66.4982 98.6819 66.5822 98.3312 66.5626H98.2417Z" fill="#35208A"/>
<path d="M85.9103 59.5824C85.9747 59.6127 86.045 59.6284 86.1162 59.6284C86.1873 59.6284 86.2576 59.6127 86.322 59.5824C87.1114 58.8993 88.124 58.5299 89.1678 58.5443C90.2709 58.7309 91.2725 59.3014 91.9957 60.1551C92.0703 60.2135 92.1621 60.2456 92.2569 60.2464C92.3517 60.2471 92.444 60.2166 92.5196 60.1594C92.5952 60.1022 92.6497 60.0216 92.6747 59.9302C92.6997 59.8388 92.6938 59.7417 92.6579 59.654C91.6019 57.1303 87.7001 57.1303 85.9103 59.0633C85.8619 59.1346 85.8359 59.2188 85.8359 59.3049C85.8359 59.3911 85.8619 59.4753 85.9103 59.5466V59.5824Z" fill="#35208A"/>
<path d="M71.8959 72.2899C74.6164 76.0127 80.4869 76.4602 84.675 77.0329C87.4291 77.4053 90.2014 77.6264 92.9797 77.6951C95.8583 77.9721 98.7632 77.7235 101.553 76.9613C102.143 76.7465 101.893 75.78 101.284 76.0127C96.7025 77.6414 90.7603 76.8718 86.0174 76.2991C81.6503 75.78 75.6723 75.3684 72.5581 71.8783C72.2538 71.5203 71.6095 72.0035 71.8959 72.3794V72.2899Z" fill="#35208A"/>
<path d="M69.0875 86.9126C71.0888 88.315 73.3638 89.2787 75.7635 89.7405C78.3464 90.4319 80.9894 90.8754 83.6565 91.0649C86.4093 91.2561 89.1745 91.1601 91.9075 90.7786C94.4951 90.589 97.0284 89.9405 99.3888 88.8635C99.7826 88.6487 99.4962 88.1475 99.1203 88.2012C96.4356 88.595 93.8762 89.5615 91.1557 89.8837C88.7801 90.1631 86.3847 90.235 83.9965 90.0984C81.4101 89.9497 78.8444 89.5481 76.3362 88.8993C73.9558 88.2907 71.6111 87.0021 69.177 86.6262C69.0159 86.6262 68.8549 86.7873 69.0159 86.9126H69.0875Z" fill="#35208A"/>
<path d="M68.9779 100.873C72.7901 103.701 78.4101 104.685 83.0278 105.025C87.6455 105.365 93.4802 105.222 97.5609 103.039C97.9726 102.824 97.6683 102.305 97.2746 102.359C94.8762 102.717 92.5674 103.576 90.1154 103.88C87.7401 104.167 85.3428 104.227 82.9562 104.059C80.5353 103.871 78.1379 103.451 75.797 102.806C73.524 102.18 71.3941 101.124 69.139 100.461C68.8884 100.461 68.781 100.73 68.96 100.873H68.9779Z" fill="#35208A"/>
<path d="M70.4805 115.245C71.3039 116.659 73.2726 116.731 74.7403 117.035C77.1117 117.398 79.502 117.625 81.8995 117.715C87.0075 117.87 92.1157 117.407 97.1127 116.337C97.7392 116.212 97.4707 115.299 96.8622 115.406C92.3109 116.243 87.6903 116.645 83.0628 116.605C78.8709 116.78 74.683 116.173 70.7132 114.816C70.5342 114.816 70.3911 114.977 70.4805 115.12V115.245Z" fill="#35208A"/>
<path d="M74.973 129.975C78.7178 131.037 82.6125 131.473 86.4993 131.264C88.2649 131.178 90.0228 130.975 91.7614 130.655C92.7994 130.44 93.8375 130.208 94.8577 129.904L96.379 129.438C97.077 129.438 97.3097 129.188 97.0771 128.615C96.7549 128.776 96.9339 129.223 97.2381 129.241H97.3813C97.4596 129.24 97.5352 129.213 97.5966 129.164C97.658 129.116 97.7018 129.049 97.7214 128.973V128.812C97.7487 128.703 97.7322 128.587 97.6753 128.49C97.6184 128.393 97.5257 128.322 97.4171 128.293C96.2179 128.042 94.9114 128.848 93.8375 129.17C91.7034 129.73 89.5229 130.096 87.3227 130.261C83.238 130.502 79.1405 130.122 75.1699 129.134C75.1147 129.119 75.057 129.114 75.0001 129.121C74.9432 129.128 74.8883 129.147 74.8384 129.175C74.7377 129.232 74.6638 129.327 74.633 129.438C74.6021 129.55 74.6168 129.669 74.6739 129.77C74.731 129.87 74.8257 129.944 74.9372 129.975H74.973Z" fill="#35208A"/>
<path d="M92.9611 145.457C93.2475 144.938 93.4085 144.347 93.677 143.828C93.9917 143.359 94.2728 142.869 94.5182 142.361C94.5334 142.285 94.5269 142.206 94.4994 142.134C94.472 142.062 94.4248 141.998 94.3631 141.952C94.3015 141.905 94.2279 141.877 94.1509 141.87C94.0739 141.863 93.9965 141.878 93.9276 141.913C93.447 142.336 93.0885 142.88 92.8895 143.488C92.599 144.042 92.434 144.653 92.4062 145.278C92.4086 145.342 92.4311 145.403 92.4704 145.454C92.5098 145.504 92.564 145.541 92.6255 145.559C92.6869 145.577 92.7524 145.575 92.8127 145.553C92.8729 145.532 92.9249 145.492 92.9611 145.439V145.457Z" fill="#35208A"/>
<path d="M100.729 149.001C100.887 148.592 101.019 148.174 101.123 147.748C101.289 147.287 101.512 146.848 101.785 146.441C102.125 145.94 101.302 145.475 100.98 145.976C100.326 146.814 100.019 147.871 100.121 148.929C100.149 148.986 100.192 149.033 100.246 149.066C100.3 149.1 100.362 149.117 100.425 149.117C100.488 149.117 100.55 149.1 100.604 149.066C100.658 149.033 100.701 148.986 100.729 148.929V149.001Z" fill="#35208A"/>
<path d="M108.819 149.18C108.676 148.36 108.473 147.553 108.211 146.763C108.178 146.647 108.1 146.549 107.994 146.49C107.888 146.431 107.763 146.417 107.647 146.45C107.531 146.483 107.433 146.561 107.374 146.667C107.315 146.773 107.301 146.898 107.334 147.014C107.495 147.838 107.729 148.647 108.032 149.43C108.071 149.522 108.141 149.597 108.231 149.641C108.321 149.685 108.424 149.694 108.52 149.668C108.616 149.642 108.7 149.581 108.755 149.498C108.81 149.415 108.833 149.314 108.819 149.215V149.18Z" fill="#35208A"/>
<path d="M115.335 141.716C115.819 142.146 116.32 142.54 116.821 142.951C117.217 143.375 117.699 143.711 118.235 143.936C118.306 143.953 118.381 143.948 118.45 143.923C118.52 143.898 118.58 143.853 118.624 143.794C118.667 143.735 118.693 143.664 118.697 143.591C118.701 143.517 118.683 143.444 118.646 143.381C118.296 142.881 117.845 142.461 117.322 142.146C116.857 141.77 116.373 141.376 115.89 141.018C115.407 140.66 114.96 141.376 115.335 141.716Z" fill="#35208A"/>
<path d="M119.451 135.344C120.012 135.348 120.568 135.237 121.085 135.018C121.602 134.8 122.069 134.479 122.457 134.074C122.493 134.005 122.508 133.927 122.501 133.85C122.494 133.773 122.466 133.7 122.419 133.638C122.372 133.577 122.309 133.529 122.237 133.502C122.164 133.474 122.086 133.468 122.01 133.483C121.563 133.626 121.222 133.948 120.793 134.127C120.325 134.322 119.84 134.472 119.343 134.575C119.254 134.603 119.178 134.661 119.128 134.74C119.078 134.819 119.057 134.913 119.07 135.005C119.083 135.098 119.128 135.183 119.198 135.245C119.268 135.307 119.357 135.342 119.451 135.344Z" fill="#35208A"/>
<path d="M38.3736 55.8417C39.8722 56.7516 41.6198 57.165 43.3672 57.0229C43.9936 57.0229 43.9936 55.9849 43.3672 56.0386C41.7925 56.1834 40.2114 55.8397 38.839 55.0542C38.737 55.0171 38.6252 55.0169 38.5231 55.0536C38.4209 55.0902 38.3348 55.1614 38.2796 55.2549C38.2244 55.3483 38.2035 55.4581 38.2207 55.5652C38.2379 55.6724 38.292 55.7702 38.3736 55.8417Z" fill="#35208A"/>
<path d="M57.3809 71.1982C58.9944 68.7031 59.8864 65.8103 59.9582 62.8398C59.9582 62.2313 59.0454 62.2313 59.0275 62.8398C58.8411 65.6259 58.0339 68.3349 56.665 70.7686C56.608 70.8636 56.5911 70.9772 56.6179 71.0846C56.6448 71.1921 56.7132 71.2844 56.8081 71.3414C56.9031 71.3983 57.0168 71.4152 57.1242 71.3884C57.2316 71.3615 57.3239 71.2931 57.3809 71.1982Z" fill="#35208A"/>
<path d="M45.7113 93.7496C46.3377 93.6243 46.4451 92.622 46.5525 92.0851C46.7933 91.3404 46.7933 90.5388 46.5525 89.7941C46.5228 89.742 46.4798 89.6988 46.4279 89.6687C46.376 89.6385 46.3171 89.6227 46.2572 89.6227C46.1972 89.6227 46.1383 89.6385 46.0864 89.6687C46.0346 89.6988 45.9916 89.742 45.9619 89.7941C45.7938 90.1835 45.7143 90.6053 45.7292 91.0291C45.6792 91.5756 45.6016 92.1192 45.4965 92.6578C45.4965 92.7652 45.2101 93.8391 45.6576 93.7496H45.7113Z" fill="#35208A"/>
<path d="M54.4443 88.5056C54.7128 87.9328 53.9611 87.0558 53.6747 86.6084C53.3884 86.1609 53.4241 86.2325 53.3168 86.0356C53.2094 85.8387 53.1736 85.6777 53.0841 85.4987C53.0465 85.3805 52.9727 85.2772 52.8731 85.2033C52.7735 85.1294 52.6532 85.0887 52.5292 85.087C52.4511 85.0883 52.3745 85.1086 52.3059 85.146C52.2374 85.1834 52.1789 85.2369 52.1355 85.3018C52.1003 85.3775 52.082 85.46 52.082 85.5434C52.082 85.6269 52.1003 85.7094 52.1355 85.7851C52.1543 85.8493 52.1892 85.9076 52.2369 85.9546C52.2846 86.0016 52.3434 86.0357 52.4079 86.0536C52.4724 86.0715 52.5404 86.0727 52.6055 86.057C52.6705 86.0413 52.7305 86.0093 52.7798 85.964C52.8353 85.9152 52.8744 85.8503 52.8915 85.7784C52.9087 85.7065 52.9032 85.631 52.8757 85.5623C52.8483 85.4937 52.8002 85.4352 52.7382 85.395C52.6761 85.3547 52.6031 85.3347 52.5292 85.3376L52.8872 85.8209L52.7082 85.9998H52.3682C52.2429 85.9998 52.3682 86.2504 52.3682 86.2683C52.4511 86.4195 52.5469 86.5632 52.6545 86.6979L53.281 87.6285C53.5494 87.9865 53.9074 88.6666 54.4085 88.6487C54.4253 88.6567 54.4437 88.6608 54.4622 88.6608C54.4808 88.6608 54.4991 88.6567 54.5159 88.6487L54.4443 88.5056Z" fill="#35208A"/>
<path d="M44.5112 110.448C44.5112 109.858 44.3144 109.267 44.1891 108.659C44.1735 108.108 43.9995 107.574 43.6879 107.119C43.6464 107.076 43.5943 107.045 43.5367 107.028C43.4791 107.011 43.4182 107.01 43.36 107.025C43.3019 107.039 43.2486 107.069 43.2056 107.111C43.1626 107.153 43.1314 107.205 43.1152 107.263C43.0266 107.781 43.0823 108.313 43.2763 108.802C43.4016 109.392 43.5089 109.983 43.6879 110.592C43.8669 111.2 44.5649 110.967 44.5112 110.484V110.448Z" fill="#35208A"/>
<path d="M56.3264 102.341C56.6665 101.857 55.9684 100.98 55.7179 100.551C55.3336 99.8438 54.7953 99.2321 54.1428 98.761C54.0635 98.7158 53.9713 98.6983 53.8809 98.7112C53.7905 98.724 53.7069 98.7666 53.6433 98.8323C53.5798 98.8979 53.5398 98.9828 53.5298 99.0736C53.5198 99.1643 53.5403 99.2559 53.588 99.3338C53.8453 99.6862 54.1327 100.016 54.4471 100.318C54.7628 100.664 55.0501 101.036 55.3062 101.428C55.3957 101.553 56.0221 102.663 56.3264 102.233V102.341Z" fill="#35208A"/>
<path d="M46.7313 123.12C46.8745 122.664 46.9822 122.197 47.0535 121.724C47.1629 121.285 47.211 120.834 47.1967 120.382C47.2037 120.33 47.2005 120.277 47.1872 120.227C47.174 120.177 47.1509 120.129 47.1193 120.088C47.0555 120.004 46.961 119.949 46.8566 119.934C46.7522 119.92 46.6464 119.948 46.5624 120.012C46.4785 120.075 46.4234 120.17 46.4092 120.274C46.2656 120.701 46.1931 121.149 46.1944 121.599C46.1592 122.075 46.1592 122.554 46.1944 123.031C46.1825 123.111 46.2032 123.193 46.2519 123.259C46.3005 123.324 46.3732 123.368 46.4539 123.38C46.5346 123.392 46.6167 123.371 46.6822 123.322C46.7476 123.274 46.791 123.201 46.8029 123.12H46.7313Z" fill="#35208A"/>
<path d="M59.1513 117.16C59.3449 116.296 59.3141 115.396 59.0618 114.547C58.9007 113.777 58.8112 112.757 58.1848 112.185C58.1496 112.148 58.1052 112.121 58.0563 112.107C58.0074 112.094 57.9557 112.093 57.9065 112.106C57.8573 112.119 57.8124 112.144 57.7764 112.18C57.7404 112.216 57.7146 112.261 57.7016 112.31C57.6786 113.107 57.825 113.9 58.1311 114.637C58.2054 115.498 58.3919 116.347 58.686 117.16C58.7933 117.393 59.1155 117.303 59.1871 117.16H59.1513Z" fill="#35208A"/>
<path d="M104.06 25.5047C104.06 25.4152 104.06 25.3436 104.06 25.3078C103.541 24.2876 101.608 24.0907 100.641 23.9118C99.0661 23.5896 97.4553 23.4106 95.8624 23.1958L95.0749 23.0884C94.9675 23.0884 94.7885 22.9811 94.8064 23.0884C94.605 22.7375 94.4429 22.3653 94.3232 21.9788C93.6609 20.4395 93.0345 18.8824 92.3544 17.3432C92.0143 16.5736 91.6743 15.7861 91.2984 15.0344C91.0657 14.5511 90.8152 13.6741 90.2782 13.4414C89.1148 12.9403 88.3094 15.804 87.9873 16.502C87.2535 18.1665 86.5554 19.8489 85.8395 21.5134C85.6963 21.8535 85.4458 22.8737 85.1236 23.1063C84.6176 23.154 84.1083 23.154 83.6023 23.1063L81.4724 23.2853C80.2646 23.3694 79.0666 23.561 77.8928 23.8581C77.1948 24.0728 75.924 24.4129 76.103 25.3794C76.282 26.3459 77.4275 26.9365 77.8928 27.384C78.8406 28.1272 79.8394 28.803 80.8818 29.4064C81.4088 29.6354 81.9174 29.9047 82.4031 30.2118C82.9579 30.6235 82.6895 31.0709 82.5463 31.6616C82.2241 32.8607 81.902 34.0778 81.5977 35.2412C81.2934 36.4045 81.1324 37.2458 80.9713 38.248C80.7932 38.9408 80.7932 39.6673 80.9713 40.36C81.7051 41.9171 84.5509 39.1966 85.1952 38.6597C85.8395 38.1228 86.8776 37.3352 87.683 36.6372C88.0947 36.2972 88.4884 35.9392 88.8643 35.5812C89.2401 35.2233 89.6518 34.6326 89.9382 34.579C90.2245 34.5253 91.6206 35.9929 91.9964 36.3687C92.8317 37.0847 93.6908 37.7827 94.5737 38.4628C95.6974 39.6003 97.1173 40.4002 98.6724 40.7717C100.051 40.8969 99.3883 38.8208 99.2093 37.9796C98.7619 36.0287 98.1354 34.0957 97.5448 32.1806C97.4195 31.769 97.2584 31.3394 97.1689 30.9099C97.0795 30.4803 97.1689 30.4803 97.4732 30.2476C98.2428 29.7823 99.1735 29.4959 99.961 29.1022C101.25 28.4578 103.809 27.3124 104.185 25.6837C104.163 25.6124 104.119 25.5498 104.06 25.5047Z" fill="#F7B9E7"/>
<path d="M68.7288 148.714C66.5631 148.553 64.4332 148.553 62.1602 148.553L63.95 146.763C64.9989 145.862 65.9042 144.806 66.6347 143.631C66.6961 143.516 66.7189 143.384 66.6997 143.255C66.6805 143.126 66.6203 143.007 66.528 142.915C66.4358 142.822 66.3163 142.762 66.1873 142.743C66.0583 142.724 65.9265 142.747 65.8114 142.808C64.6265 143.51 63.5577 144.391 62.6434 145.421L60.7284 147.211C60.7284 146.316 60.7284 145.421 60.7284 144.544C60.8372 143.158 60.7285 141.763 60.4062 140.41C60.368 140.285 60.2908 140.176 60.1861 140.099C60.0814 140.022 59.9547 139.98 59.8245 139.98C59.6943 139.98 59.5676 140.022 59.4629 140.099C59.3582 140.176 59.2811 140.285 59.2428 140.41C58.9108 141.761 58.7841 143.155 58.867 144.544C58.867 145.421 58.867 146.334 58.867 147.193L56.9698 145.296C56.0753 144.247 55.025 143.341 53.8555 142.611C53.7401 142.542 53.6052 142.513 53.4716 142.529C53.3381 142.545 53.2136 142.604 53.1175 142.698C53.0214 142.792 52.9592 142.916 52.9405 143.049C52.9219 143.182 52.9478 143.318 53.0143 143.434C53.7339 144.675 54.6393 145.797 55.699 146.763L57.4888 148.661H54.8041C53.4245 148.554 52.0366 148.657 50.6876 148.965C50.5632 149.003 50.4543 149.08 50.3769 149.185C50.2996 149.29 50.2578 149.416 50.2578 149.547C50.2578 149.677 50.2996 149.803 50.3769 149.908C50.4543 150.013 50.5632 150.09 50.6876 150.128C52.0321 150.466 53.4199 150.599 54.8041 150.522H57.3993C55.8064 152.025 54.1956 153.547 52.7638 155.193C52.6279 155.368 52.5602 155.586 52.5732 155.807C52.5862 156.028 52.679 156.237 52.8344 156.395C52.9899 156.552 53.1973 156.648 53.418 156.664C53.6388 156.68 53.8579 156.615 54.0345 156.482C55.6811 155.086 57.2204 153.529 58.7417 151.972C58.7417 154.155 58.6164 156.339 58.7417 158.504C58.7832 158.711 58.8951 158.897 59.0582 159.031C59.2214 159.164 59.4257 159.237 59.6366 159.237C59.8474 159.237 60.0518 159.164 60.2149 159.031C60.3781 158.897 60.4899 158.711 60.5315 158.504C60.7105 156.357 60.6926 154.155 60.6568 151.99C62.1602 153.565 63.6815 155.175 65.3102 156.589C65.4788 156.758 65.7073 156.853 65.9456 156.853C66.1839 156.853 66.4125 156.758 66.581 156.589C66.7495 156.421 66.8442 156.192 66.8442 155.954C66.8442 155.716 66.7495 155.487 66.581 155.319C65.2029 153.654 63.6278 152.133 62.0707 150.594C64.2543 150.594 66.4557 150.719 68.6035 150.594C68.8527 150.61 69.0983 150.527 69.2862 150.363C69.4742 150.198 69.5891 149.966 69.6058 149.717C69.6224 149.467 69.5393 149.222 69.3748 149.034C69.2104 148.846 68.978 148.731 68.7288 148.714Z" fill="white"/>
<path d="M70.1251 14.9627C70.6752 14.9285 71.1953 14.7002 71.5927 14.3184C71.9914 13.9048 72.2157 13.3536 72.2192 12.7792C72.2102 12.2164 71.9861 11.6784 71.5927 11.2757C71.1844 10.8746 70.6349 10.6498 70.0625 10.6498C69.49 10.6498 68.9405 10.8746 68.5322 11.2757C68.131 11.6841 67.9062 12.2336 67.9062 12.806C67.9062 13.3784 68.131 13.9279 68.5322 14.3363C68.9507 14.7274 69.4987 14.9505 70.0714 14.9627H70.1251Z" fill="white"/>
<path d="M107.39 42.4182L107.622 42.5434C110.164 44.0469 110.164 38.6954 107.622 40.1988L107.39 40.3241C107.208 40.4318 107.057 40.585 106.953 40.7686C106.848 40.9522 106.793 41.1598 106.793 41.3711C106.793 41.5824 106.848 41.7901 106.953 41.9737C107.057 42.1573 107.208 42.3104 107.39 42.4182Z" fill="white"/>
<path d="M121.884 21.746C122.129 21.668 122.363 21.5598 122.582 21.4238C122.924 21.2256 123.207 20.9411 123.405 20.5987C123.602 20.2563 123.706 19.8681 123.706 19.4729C123.706 19.0778 123.602 18.6896 123.405 18.3472C123.207 18.0048 122.924 17.7203 122.582 17.5221C122.363 17.3861 122.129 17.2779 121.884 17.1999C121.483 17.0808 121.057 17.0745 120.653 17.1819C120.248 17.2893 119.882 17.5061 119.593 17.8084C119.158 18.2532 118.914 18.8507 118.914 19.4729C118.914 20.0952 119.158 20.6926 119.593 21.1375C119.887 21.4317 120.254 21.643 120.656 21.7498C121.059 21.8567 121.482 21.8554 121.884 21.746Z" fill="white"/>
<path d="M157.88 56.9514C158.316 56.8383 158.716 56.6167 159.043 56.3071C159.257 56.1001 159.427 55.8526 159.544 55.5791C159.661 55.3056 159.722 55.0116 159.723 54.7142C159.722 54.4141 159.661 54.1172 159.544 53.8408C159.428 53.5643 159.257 53.3137 159.043 53.1034C158.72 52.7928 158.317 52.5762 157.88 52.4769C157.534 52.378 157.169 52.3608 156.815 52.4267C156.461 52.4926 156.127 52.6398 155.84 52.8567C155.552 53.0736 155.319 53.3542 155.158 53.6765C154.998 53.9989 154.914 54.3541 154.914 54.7142C154.914 55.0743 154.998 55.4295 155.158 55.7519C155.319 56.0742 155.552 56.3548 155.84 56.5717C156.127 56.7886 156.461 56.9358 156.815 57.0016C157.169 57.0675 157.534 57.0504 157.88 56.9514Z" fill="white"/>
<path d="M140.784 85.1049C141.08 85.0983 141.375 85.0563 141.661 84.9796C142.126 84.8344 142.537 84.554 142.842 84.1742C143.152 83.7811 143.322 83.2963 143.325 82.796C143.307 82.4003 143.197 82.0143 143.003 81.6685C142.705 81.1634 142.225 80.7918 141.661 80.6304C141.375 80.548 141.081 80.4999 140.784 80.4872C140.325 80.4852 139.875 80.6201 139.493 80.8748C139.111 81.1295 138.814 81.4923 138.639 81.9169C138.464 82.3416 138.42 82.8087 138.512 83.2586C138.604 83.7085 138.828 84.1208 139.155 84.4427C139.368 84.6573 139.622 84.8267 139.902 84.9405C140.182 85.0543 140.482 85.1102 140.784 85.1049Z" fill="white"/>
<path d="M160.116 104.649C160.733 104.649 161.325 104.404 161.761 103.968C162.197 103.532 162.443 102.94 162.443 102.323C162.443 101.706 162.197 101.114 161.761 100.677C161.325 100.241 160.733 99.996 160.116 99.996C159.499 99.996 158.907 100.241 158.471 100.677C158.034 101.114 157.789 101.706 157.789 102.323C157.789 102.94 158.034 103.532 158.471 103.968C158.907 104.404 159.499 104.649 160.116 104.649Z" fill="white"/>
<path d="M148.196 131.192C148.44 131.194 148.68 131.132 148.894 131.013C149.107 130.893 149.286 130.721 149.413 130.512C149.524 130.361 149.609 130.191 149.663 130.011C149.682 129.862 149.682 129.712 149.663 129.563C149.663 129.796 149.663 129.868 149.663 129.742C149.663 129.617 149.663 129.313 149.663 129.51C149.729 129.273 149.746 129.026 149.712 128.782C149.678 128.539 149.594 128.305 149.466 128.096C149.272 127.716 148.948 127.417 148.554 127.255C147.945 127.109 147.303 127.205 146.764 127.523C146.211 127.876 145.795 128.406 145.582 129.027C145.431 129.547 145.431 130.099 145.582 130.619C145.774 131.295 146.224 131.867 146.835 132.212C147.341 132.478 147.925 132.554 148.482 132.427C148.795 132.339 149.083 132.18 149.325 131.963C149.567 131.746 149.756 131.476 149.878 131.174C149.993 130.915 150.053 130.635 150.053 130.351C150.053 130.067 149.993 129.787 149.878 129.528C149.751 129.232 149.56 128.967 149.318 128.754C149.077 128.54 148.791 128.383 148.482 128.293L148.983 128.508H148.858L149.287 128.83L149.61 129.259C149.555 129.18 149.507 129.096 149.466 129.009L149.681 129.51V129.313V129.868V129.617V130.154V129.957L149.484 130.423C149.507 130.365 149.537 130.311 149.574 130.262L149.269 130.655L149.377 130.548L148.733 130.655H148.858L148.41 130.834C148.779 130.732 149.117 130.542 149.395 130.279L147.873 130.476C147.751 130.399 147.647 130.295 147.569 130.172V130.047C147.569 130.047 147.569 130.244 147.569 130.047C147.569 129.85 147.569 130.047 147.569 129.921C147.569 129.796 147.569 129.921 147.569 129.921C147.573 129.862 147.573 129.802 147.569 129.742C147.569 129.635 147.569 129.742 147.569 129.742C146.996 130.226 147.569 131.103 148.142 131.138L148.196 131.192Z" fill="white"/>
<path d="M108.872 164.894C109.036 164.742 109.192 164.581 109.337 164.411C109.753 163.975 109.995 163.402 110.018 162.8C110.011 162.195 109.767 161.616 109.337 161.189C109.126 160.978 108.875 160.81 108.599 160.696C108.322 160.583 108.026 160.525 107.727 160.527H107.136C106.75 160.63 106.398 160.834 106.116 161.118C105.947 161.265 105.792 161.427 105.651 161.601C105.231 162.033 104.994 162.61 104.988 163.212C104.988 163.815 105.226 164.394 105.651 164.823C106.083 165.242 106.659 165.479 107.261 165.485C107.86 165.461 108.43 165.226 108.872 164.823V164.894Z" fill="white"/>
<path d="M41.8808 134.378L42.0419 134.253C42.4202 133.865 42.6319 133.345 42.6319 132.803C42.6319 132.261 42.4202 131.741 42.0419 131.353L41.8808 131.228C41.5687 130.913 41.1701 130.698 40.7356 130.61C40.3011 130.522 39.8503 130.565 39.4403 130.734C39.0304 130.903 38.6798 131.19 38.4331 131.558C38.1864 131.926 38.0547 132.36 38.0547 132.803C38.0547 133.246 38.1864 133.68 38.4331 134.048C38.6798 134.416 39.0304 134.703 39.4403 134.872C39.8503 135.041 40.3011 135.084 40.7356 134.996C41.1701 134.908 41.5687 134.693 41.8808 134.378Z" fill="white"/>
<path d="M13.7981 113.384V113.294L14.0308 113.849C13.8809 113.324 13.547 112.871 13.0902 112.571C12.6334 112.272 12.0842 112.148 11.543 112.22C11.0556 112.28 10.602 112.5 10.2543 112.847C9.84682 113.281 9.60591 113.845 9.57422 114.44V114.547C9.58261 114.95 9.69391 115.344 9.89754 115.692C10.1012 116.039 10.3903 116.329 10.7376 116.534C11.1773 116.785 11.6875 116.885 12.1895 116.817C12.6914 116.75 13.1574 116.52 13.5155 116.162C13.8736 115.804 14.104 115.338 14.1713 114.836C14.2385 114.334 14.1389 113.823 13.8876 113.384H13.7981Z" fill="white"/>
<path d="M30.1206 86.8589C30.4515 86.8646 30.7803 86.8043 31.0876 86.6813C31.395 86.5584 31.6747 86.3754 31.9104 86.143C32.3715 85.6615 32.6281 85.0199 32.6263 84.3532C32.6341 84.022 32.5746 83.6926 32.4516 83.385C32.3285 83.0774 32.1444 82.7979 31.9104 82.5634C31.6747 82.331 31.395 82.148 31.0876 82.025C30.7803 81.9021 30.4515 81.8417 30.1206 81.8475C29.7893 81.8397 29.46 81.8991 29.1524 82.0222C28.8448 82.1452 28.5653 82.3293 28.3308 82.5634C28.0932 82.7953 27.9068 83.0744 27.7835 83.3826C27.6602 83.6908 27.6028 84.0214 27.6149 84.3532C27.605 84.6847 27.6634 85.0147 27.7866 85.3226C27.9098 85.6305 28.095 85.9098 28.3308 86.143C28.8102 86.6074 29.4531 86.8646 30.1206 86.8589Z" fill="white"/>
<path d="M23.1598 57.9357C23.7618 57.93 24.3386 57.6929 24.7706 57.2735C25.0899 56.9556 25.3075 56.55 25.3958 56.1081C25.4841 55.6662 25.4391 55.2081 25.2665 54.7919C25.0938 54.3757 24.8014 54.0201 24.4263 53.7705C24.0512 53.5208 23.6104 53.3883 23.1598 53.3897C22.5635 53.3981 21.9933 53.6352 21.5668 54.0519C21.1425 54.4821 20.8991 55.0585 20.8867 55.6627C20.9004 56.2613 21.1442 56.8315 21.5676 57.2549C21.991 57.6782 22.5612 57.9221 23.1598 57.9357Z" fill="white"/>
<path d="M70.3563 45.443V45.2998C70.4567 44.916 70.4548 44.5127 70.351 44.1298C70.2472 43.7469 70.045 43.3979 69.7645 43.1174C69.484 42.8369 69.135 42.6347 68.7521 42.5309C68.3693 42.4271 67.9659 42.4253 67.5821 42.5256H67.4389C67.0432 42.6342 66.6829 42.8448 66.3941 43.1363C66.1052 43.4278 65.8979 43.79 65.7929 44.1867C65.6879 44.5834 65.6888 45.0007 65.7957 45.3969C65.9025 45.7931 66.1114 46.1544 66.4016 46.4445C66.6917 46.7347 67.053 46.9437 67.4492 47.0505C67.8454 47.1573 68.2627 47.1582 68.6594 47.0532C69.0562 46.9482 69.4183 46.7409 69.7098 46.4521C70.0013 46.1632 70.2119 45.8029 70.3205 45.4072L70.3563 45.443Z" fill="#FFF896"/>
<path d="M160.869 84.2458C161.198 84.2549 161.527 84.1978 161.834 84.0779C162.141 83.9581 162.422 83.7778 162.658 83.5478C162.894 83.3146 163.079 83.0353 163.202 82.7274C163.326 82.4195 163.384 82.0895 163.374 81.758C163.366 81.1196 163.109 80.5096 162.658 80.0577C162.32 79.729 161.892 79.5068 161.429 79.4183C160.965 79.3299 160.486 79.3791 160.05 79.5599C159.614 79.7407 159.241 80.0453 158.976 80.4359C158.711 80.8265 158.566 81.2861 158.56 81.758C158.55 82.0895 158.608 82.4195 158.731 82.7274C158.855 83.0353 159.04 83.3146 159.276 83.5478C159.727 83.9863 160.329 84.236 160.958 84.2458H160.869Z" fill="#FFF896"/>
<path d="M134.95 159.185L135.075 159.059C135.536 158.577 135.798 157.937 135.809 157.27C135.811 156.934 135.747 156.602 135.62 156.292C135.494 155.981 135.307 155.699 135.071 155.461C134.834 155.223 134.553 155.034 134.244 154.905C133.934 154.777 133.602 154.71 133.267 154.71C132.6 154.742 131.967 155.008 131.477 155.462L131.37 155.569C130.898 156.045 130.633 156.689 130.633 157.359C130.633 158.03 130.898 158.673 131.37 159.149C131.603 159.387 131.882 159.576 132.189 159.705C132.496 159.834 132.826 159.901 133.16 159.901C133.831 159.891 134.473 159.622 134.95 159.149V159.185Z" fill="#FFF896"/>
<path d="M64.433 130.655C65.0772 130.601 65.6776 130.308 66.1152 129.832C66.5529 129.356 66.7957 128.733 66.7957 128.087C66.7957 127.441 66.5529 126.818 66.1152 126.342C65.6776 125.866 65.0772 125.572 64.433 125.519C63.7889 125.572 63.1885 125.866 62.7508 126.342C62.3132 126.818 62.0703 127.441 62.0703 128.087C62.0703 128.733 62.3132 129.356 62.7508 129.832C63.1885 130.308 63.7889 130.601 64.433 130.655Z" fill="#FFF896"/>
<path d="M11.0769 90.0806C11.7072 90.0274 12.2945 89.7394 12.7226 89.2737C13.1506 88.808 13.3882 88.1985 13.3882 87.5659C13.3882 86.9334 13.1506 86.3239 12.7226 85.8582C12.2945 85.3925 11.7072 85.1045 11.0769 85.0513C10.4466 85.1045 9.85927 85.3925 9.43122 85.8582C9.00317 86.3239 8.76562 86.9334 8.76562 87.5659C8.76562 88.1985 9.00317 88.808 9.43122 89.2737C9.85927 89.7394 10.4466 90.0274 11.0769 90.0806Z" fill="#FFF896"/>
</g>
<defs>
<clipPath id="clip0_2288_4858">
<rect width="180" height="180" fill="white"/>
</clipPath>
</defs>
</svg>
