<svg width="180" height="180" viewBox="0 0 180 180" fill="none" xmlns="http://www.w3.org/2000/svg">
<g clip-path="url(#clip0_2288_4753)">
<path d="M110.081 4.84741C157.108 15.947 186.234 63.0686 175.134 110.096C164.035 157.124 116.913 186.25 69.8854 175.15C22.8576 164.051 -6.26803 116.929 4.83155 69.9013C15.9311 22.8734 63.0527 -6.25217 110.081 4.84741Z" stroke="white" stroke-width="5"/>
<path d="M150.023 72.7374C150.039 72.6788 150.039 72.617 150.023 72.5584C148.949 70.3212 145.638 69.7842 143.472 69.3547C140.288 68.7192 137.009 68.7192 133.825 69.3547C127.686 70.6254 123.373 74.3661 119.757 79.2881C118.494 80.9234 117.893 82.9748 118.075 85.0333C118.338 86.0337 118.845 86.9532 119.551 87.7092C120.257 88.4652 121.14 89.034 122.12 89.3646C127.65 91.8166 134.201 90.4206 139.338 87.6822C142.473 86.0878 145.259 83.8853 147.535 81.2031C149.383 78.7862 150.269 75.7699 150.023 72.7374Z" fill="#96CBEB"/>
<path d="M144.384 76.8182C144.225 76.4787 143.991 76.1798 143.7 75.9441C143.408 75.7084 143.067 75.5422 142.701 75.458C139.558 74.2918 136.13 74.1354 132.893 75.0105C129.646 75.8951 126.86 77.9892 125.108 80.8632C124.474 81.4748 124.026 82.2525 123.814 83.1071C123.602 83.9617 123.635 84.8588 123.909 85.6956C124.739 86.8592 125.98 87.6649 127.381 87.9508C132.249 89.2573 137.475 87.038 141.252 83.7089C142.112 83.0094 142.84 82.1606 143.399 81.2032C143.866 80.1857 144.186 79.107 144.348 77.9995C144.449 77.6135 144.461 77.2096 144.384 76.8182Z" fill="#647FA0"/>
<path d="M61.2825 80.8631C60.0304 78.4256 58.3302 76.2458 56.2711 74.4377C54.1981 72.5387 51.763 71.0777 49.1119 70.1422C45.624 68.9398 41.9003 68.584 38.2478 69.1041C35.7421 69.4263 31.3571 69.9274 30.0863 72.5406C30.0733 72.6055 30.0733 72.6725 30.0863 72.7374C29.2451 78.5901 33.9702 83.2614 38.391 86.1967C43.4382 89.5615 49.792 91.5661 55.8415 90.0985C57.0437 89.9018 58.1915 89.4564 59.2116 88.7907C60.2318 88.125 61.1017 87.2537 61.7657 86.2325C62.0651 85.3535 62.1768 84.4214 62.0936 83.4966C62.0103 82.5717 61.734 81.6746 61.2825 80.8631Z" fill="#96CBEB"/>
<path d="M35.6354 76.8182C35.8323 76.1023 36.6198 75.7086 37.3178 75.458C40.461 74.2918 43.8896 74.1354 47.1259 75.0105C50.3711 75.9 53.1553 77.993 54.9115 80.8632C55.545 81.4748 55.9934 82.2525 56.2055 83.1071C56.4175 83.9617 56.3847 84.8588 56.1107 85.6956C55.2516 86.8794 53.9697 87.6869 52.5311 87.9508C47.6628 89.2573 42.4366 87.038 38.6602 83.7089C37.81 83.0038 37.0893 82.1559 36.5303 81.2032C36.0637 80.1857 35.7443 79.107 35.5817 77.9995C35.5104 77.6067 35.5287 77.2029 35.6354 76.8182Z" fill="#647FA0"/>
<path d="M126.146 67.5471C125.055 63.341 122.889 59.3498 118.772 57.5063C115.526 56.2916 112.106 55.6087 108.642 55.4838C105.42 55.1796 102.199 54.9648 98.9593 54.8037C99.0846 54.6068 99.2278 54.4278 99.3351 54.231C100.373 52.4412 101.716 49.4343 100.552 47.5013C100.54 47.4477 100.516 47.3974 100.482 47.3541C100.448 47.3108 100.404 47.2755 100.355 47.2508C99.456 46.9382 98.4785 46.9319 97.5752 47.233C96.672 47.5341 95.8937 48.1256 95.3618 48.9153C96.0061 45.9979 95.8629 42.5794 92.3907 42.0424C88.9185 41.5055 86.7171 45.6578 85.9117 48.9869C85.4105 47.1971 84.5335 44.8524 82.9227 44.584C80.7928 44.2081 79.3431 46.8033 79.1462 48.5036C78.9081 50.6616 79.3525 52.8399 80.417 54.7321C76.3004 54.929 72.166 55.2691 68.1032 55.806C64.5236 56.2713 60.8366 57.041 58.1698 59.5467C54.8408 62.643 53.6953 67.4039 53.1941 71.7531C52.174 82.8319 55.4851 93.6423 59.6553 103.808C61.821 108.963 64.452 113.957 66.4744 119.165C68.2642 123.675 68.9981 128.561 71.3069 132.857C72.864 135.72 75.4234 139.443 78.7346 140.356C82.0679 141.244 85.4894 141.76 88.9364 141.895C92.6612 141.92 96.3752 141.493 99.9974 140.625C102.855 139.928 105.328 138.143 106.888 135.649C110.36 131.085 111.434 125.519 113.152 120.167C115.05 114.297 118.021 108.766 120.437 103.075C125.108 91.9778 128.867 79.5924 126.146 67.5471Z" fill="#96CBEB"/>
<path d="M113.94 100.336C114.73 100.336 115.502 100.102 116.158 99.6635C116.814 99.2249 117.326 98.6016 117.628 97.8723C117.93 97.143 118.009 96.3405 117.855 95.5662C117.701 94.792 117.321 94.0808 116.763 93.5226C116.205 92.9645 115.493 92.5843 114.719 92.4303C113.945 92.2763 113.142 92.3554 112.413 92.6575C111.684 92.9595 111.06 93.4711 110.622 94.1275C110.183 94.7838 109.949 95.5555 109.949 96.3449C109.959 97.4005 110.382 98.4103 111.129 99.1568C111.875 99.9033 112.885 100.327 113.94 100.336Z" fill="#35208A"/>
<path d="M66.0795 100.336C66.8681 100.333 67.638 100.095 68.292 99.6548C68.946 99.2141 69.4548 98.5895 69.7541 97.8599C70.0535 97.1303 70.1299 96.3283 69.9739 95.5553C69.8179 94.7822 69.4364 94.0727 68.8775 93.5163C68.3186 92.9599 67.6074 92.5816 66.8337 92.429C66.0599 92.2765 65.2583 92.3565 64.5301 92.6592C63.8018 92.9618 63.1795 93.4733 62.7417 94.1293C62.304 94.7853 62.0703 95.5562 62.0703 96.3449C62.0843 97.4021 62.5118 98.4119 63.2611 99.1579C64.0105 99.9039 65.0221 100.327 66.0795 100.336Z" fill="#35208A"/>
<path d="M71.9131 130.978C73.8819 122.906 83.8868 119.577 91.3145 119.559C98.2947 119.559 108.246 122.798 107.995 131.335C107.995 131.464 108.046 131.587 108.137 131.677C108.228 131.768 108.351 131.819 108.479 131.819C108.607 131.819 108.73 131.768 108.82 131.677C108.911 131.587 108.962 131.464 108.962 131.335C109.212 122.565 99.4581 118.807 92.1199 118.61C84.2985 118.395 72.8259 121.939 71.1077 130.763C71.0003 131.282 71.7878 131.514 71.9131 130.978Z" fill="#35208A"/>
<path d="M79.5034 128.722C80.5087 129.088 81.46 129.587 82.3313 130.208C82.5818 130.405 83.1546 130.816 83.1188 131.156C83.083 131.497 82.3313 131.962 82.0628 132.177C80.971 133.054 82.4207 134.915 83.5662 134.128C85.0875 133.072 86.3404 131.282 85.0696 129.528C84.4737 128.739 83.7207 128.082 82.8582 127.598C81.9957 127.114 81.0423 126.815 80.0582 126.718C79.0201 126.718 78.5369 128.275 79.5034 128.722Z" fill="#35208A"/>
<path d="M99.9435 126.718C98.947 126.805 97.9798 127.1 97.1043 127.584C96.2288 128.068 95.4644 128.73 94.8605 129.528C93.6076 131.318 94.8605 133.107 96.3639 134.128C97.5094 134.915 98.977 133.054 97.8674 132.177C97.5989 131.98 96.9725 131.604 96.8651 131.246C96.7577 130.888 97.2767 130.476 97.5989 130.208C98.4701 129.587 99.4214 129.088 100.427 128.722C100.62 128.597 100.768 128.413 100.85 128.198C100.932 127.983 100.944 127.748 100.885 127.525C100.825 127.303 100.697 127.105 100.518 126.96C100.34 126.815 100.12 126.73 99.8898 126.718H99.9435Z" fill="#35208A"/>
<path d="M151.453 56.862C149.072 49.4343 141.681 45.2104 138.459 38.2659C138.437 38.2206 138.403 38.1823 138.36 38.1555C138.317 38.1287 138.268 38.1145 138.217 38.1145C138.167 38.1145 138.118 38.1287 138.075 38.1555C138.032 38.1823 137.998 38.2206 137.976 38.2659C137.54 40.1055 137.371 41.9982 137.475 43.8859C137.777 45.9092 138.38 47.8759 139.264 49.7207C139.783 50.9556 140.356 52.1548 140.804 53.4076C141.131 54.1692 141.331 54.9795 141.394 55.806C141.394 57.7747 139.175 58.3654 137.51 58.5086C135.107 58.4551 132.713 58.2037 130.351 57.7569C127.488 57.4884 124.624 57.1304 121.742 56.9693C118.861 56.8083 114.673 56.4324 112.167 58.2938C107.334 61.8734 109.679 70.6076 113.957 73.6503C116.283 75.3148 119.541 74.2588 122.064 73.6503C126.772 72.6122 131.568 72.0394 136.293 71.0014C141.018 69.9633 145.01 68.9789 148.679 65.9899C150.042 64.9535 151.044 63.5135 151.542 61.8747C152.04 60.236 152.009 58.4819 151.453 56.862Z" fill="white"/>
<path d="M61.5877 56.9156C56.452 56.9459 51.3254 57.3527 46.2492 58.1327C43.9403 58.437 37.9624 59.314 38.6067 55.3406C38.9935 53.7238 39.564 52.1564 40.307 50.6693C41.2478 48.7853 41.9627 46.7967 42.4369 44.745C42.6761 42.6253 42.5367 40.48 42.0253 38.4091C42.0033 38.3637 41.9689 38.3255 41.9262 38.2987C41.8835 38.2719 41.8341 38.2577 41.7836 38.2577C41.7332 38.2577 41.6838 38.2719 41.641 38.2987C41.5983 38.3255 41.564 38.3637 41.542 38.4091C38.3204 45.3536 30.9464 49.5775 28.5481 57.0051C28.0368 58.4295 27.9335 59.9683 28.2497 61.4482C28.5659 62.9282 29.2891 64.2904 30.3379 65.3814C33.1337 67.9619 36.5912 69.7154 40.3249 70.4465C45.229 71.6099 50.1688 72.5585 55.1445 73.346C58.0618 73.8113 61.4983 75.2611 64.4872 74.4736C66.8498 73.8471 68.6932 70.894 69.5702 68.8178C70.2065 67.3951 70.4945 65.8412 70.4105 64.2849C70.3265 62.7286 69.8728 61.2148 69.087 59.8688C67.4404 57.2736 64.4335 56.9872 61.5877 56.9156Z" fill="white"/>
<path d="M140.533 60.8531C140.897 60.7042 141.227 60.4823 141.502 60.2011C141.777 59.9199 141.992 59.5855 142.132 59.2183C142.273 58.8511 142.337 58.4589 142.321 58.066C142.305 57.6731 142.208 57.2877 142.037 56.9335C141.988 56.8923 141.929 56.8638 141.866 56.8505C141.803 56.8372 141.738 56.8394 141.676 56.8571C141.614 56.8747 141.558 56.9072 141.512 56.9517C141.465 56.9963 141.431 57.0514 141.41 57.1125C141.385 57.712 141.326 58.3096 141.231 58.9023C140.938 59.4537 140.609 59.9857 140.247 60.4952C140.225 60.5383 140.215 60.5869 140.22 60.6353C140.225 60.6836 140.243 60.7295 140.274 60.7674C140.304 60.8054 140.345 60.8337 140.391 60.8489C140.437 60.8641 140.486 60.8656 140.533 60.8531Z" fill="#35208A"/>
<path d="M39.7692 60.4057C39.4018 59.8965 39.067 59.3644 38.7669 58.8128C38.5522 58.2042 38.7669 57.6136 38.588 57.023C38.572 56.9589 38.5394 56.9001 38.4935 56.8526C38.4476 56.8051 38.39 56.7705 38.3265 56.7524C38.263 56.7342 38.1958 56.7331 38.1317 56.7492C38.0677 56.7653 38.0089 56.798 37.9615 56.844C37.776 57.2034 37.6683 57.5979 37.6453 58.0017C37.6223 58.4055 37.6846 58.8097 37.8281 59.1879C37.9716 59.566 38.1931 59.9097 38.4782 60.1967C38.7633 60.4836 39.1056 60.7073 39.4829 60.8531C39.5298 60.8656 39.5794 60.8641 39.6255 60.8489C39.6716 60.8337 39.7123 60.8054 39.7427 60.7674C39.773 60.7295 39.7917 60.6836 39.7964 60.6353C39.8011 60.5869 39.7917 60.5383 39.7692 60.4952V60.4057Z" fill="#35208A"/>
<path d="M81.3122 136.114C85.1244 141.484 95.3621 141.484 99.2102 136.222C99.4428 135.935 99.0133 135.524 98.709 135.72C95.9706 137.51 93.6618 139.121 90.2254 139.121C86.789 139.121 84.4622 137.474 81.7417 135.685C81.4732 135.506 81.1153 135.864 81.2943 136.114H81.3122Z" fill="#35208A"/>
<path d="M126.538 73.9008C126.001 74.5988 126.323 75.4937 126.359 76.3349C126.475 77.597 126.475 78.8671 126.359 80.1293C126.359 80.6662 127.236 80.702 127.236 80.1293C127.236 78.8585 127.343 77.6056 127.236 76.3349C127.236 75.5116 127.236 74.4377 126.609 73.9008H126.502H126.538Z" fill="#35208A"/>
<path d="M53.6932 73.2744C53.3405 74.92 53.22 76.6069 53.3353 78.2859C53.3353 80.2188 53.3353 82.1697 53.3353 84.1027C53.3558 84.2038 53.4107 84.2948 53.4906 84.3601C53.5705 84.4254 53.6706 84.4611 53.7738 84.4611C53.877 84.4611 53.977 84.4254 54.0569 84.3601C54.1369 84.2948 54.1917 84.2038 54.2123 84.1027C54.2123 82.1697 54.2123 80.2188 54.2123 78.2859C54.3129 76.6034 54.1682 74.9152 53.7827 73.2744H53.6753H53.6932Z" fill="#35208A"/>
<path d="M53.8034 85.3377C53.177 85.9104 53.3202 87.2886 53.4634 88.0224C53.6065 88.7562 54.4299 88.4161 54.3762 87.8971C54.3225 87.378 54.2509 86.9485 54.2151 86.4652C54.246 86.0885 54.1717 85.7105 54.0003 85.3735C53.9886 85.3586 53.9736 85.3465 53.9566 85.3383C53.9395 85.33 53.9208 85.3257 53.9019 85.3257C53.8829 85.3257 53.8642 85.33 53.8472 85.3383C53.8301 85.3465 53.8151 85.3586 53.8034 85.3735V85.3377Z" fill="#35208A"/>
<path d="M126.108 82.6888C125.93 83.7548 125.816 84.8306 125.768 85.9104C125.768 86.5547 125.589 87.1811 125.464 87.8255C125.464 88.1476 125.338 88.4877 125.249 88.8278C125.159 89.1678 125.034 89.4542 125.446 89.2394L125.643 89.7406C125.663 89.7012 125.674 89.6578 125.676 89.6135C125.678 89.5692 125.67 89.5251 125.653 89.4842C125.636 89.4433 125.61 89.4066 125.578 89.3767C125.545 89.3467 125.506 89.3243 125.464 89.311C125.392 89.2963 125.318 89.3038 125.25 89.3326C125.183 89.3614 125.127 89.4101 125.088 89.4721C125.048 89.5441 125.031 89.626 125.036 89.7079C125.042 89.7898 125.071 89.8684 125.12 89.9343C125.169 90.0002 125.236 90.0508 125.312 90.0799C125.389 90.109 125.473 90.1154 125.553 90.0985C126.466 89.9195 126.448 88.0045 126.555 87.3243C126.897 85.8275 126.964 84.281 126.752 82.7604C126.73 82.6972 126.689 82.6424 126.635 82.6036C126.58 82.5649 126.515 82.5441 126.448 82.5441C126.381 82.5441 126.316 82.5649 126.261 82.6036C126.207 82.6424 126.166 82.6972 126.144 82.7604L126.108 82.6888Z" fill="#35208A"/>
<path d="M73.793 63.3947C74.4686 64.1731 75.0962 64.992 75.6723 65.8467C76.1858 66.8566 76.5706 67.9269 76.8177 69.0326C76.8473 69.1317 76.9116 69.2168 76.9988 69.2723C77.086 69.3278 77.1904 69.35 77.2927 69.3347C77.3949 69.3195 77.4883 69.2679 77.5556 69.1894C77.6229 69.1108 77.6596 69.0107 77.6589 68.9073C77.5671 67.7279 77.1942 66.5877 76.5714 65.5819C75.9486 64.5762 75.0941 63.7341 74.0793 63.1262C73.9362 63.1262 73.7035 63.1262 73.8288 63.3947H73.793Z" fill="#35208A"/>
<path d="M78.4291 65.3098C78.268 66.4553 79.1808 67.6007 79.4672 68.7462C79.7535 69.8917 79.4672 71.6099 80.0041 72.7554C80.0041 72.9343 80.3263 72.8806 80.4336 72.7554C81.2033 71.6815 80.6842 69.6948 80.4336 68.4956C80.1831 67.2965 79.7535 65.6499 78.6438 65.2203C78.6131 65.2147 78.5814 65.2208 78.5549 65.2373C78.5284 65.2539 78.5091 65.2797 78.5007 65.3098H78.4291Z" fill="#35208A"/>
<path d="M107.389 72.4332C106.468 73.8675 105.93 75.514 105.827 77.2155C105.724 78.9169 106.058 80.6165 106.799 82.1518C107.014 82.5276 107.533 82.2592 107.461 81.8654C107.081 80.3488 106.876 78.7933 106.852 77.2298C107.019 75.6759 107.417 74.1557 108.034 72.7195C108.195 72.3079 107.604 72.1289 107.389 72.4332Z" fill="#35208A"/>
<path d="M109.177 79.306C108.651 80.2182 108.389 81.2588 108.421 82.3114C108.452 83.364 108.776 84.3871 109.356 85.266C109.403 85.3106 109.463 85.3407 109.527 85.3526C109.591 85.3646 109.657 85.3579 109.717 85.3334C109.777 85.3089 109.829 85.2676 109.867 85.2144C109.904 85.1612 109.926 85.0984 109.929 85.0334C109.801 84.123 109.622 83.2207 109.392 82.3308C109.392 81.3822 109.625 80.541 109.535 79.5387C109.535 79.3418 109.249 79.1449 109.088 79.3418L109.177 79.306Z" fill="#35208A"/>
<path d="M115.516 114.69C114.39 114.69 113.29 114.356 112.354 113.731C111.418 113.106 110.688 112.217 110.257 111.177C109.827 110.137 109.714 108.992 109.934 107.888C110.153 106.784 110.695 105.77 111.491 104.974C112.287 104.178 113.301 103.636 114.405 103.416C115.509 103.197 116.654 103.31 117.694 103.74C118.734 104.171 119.623 104.901 120.248 105.837C120.874 106.773 121.207 107.873 121.207 108.999C121.193 110.504 120.589 111.943 119.525 113.008C118.46 114.072 117.021 114.676 115.516 114.69Z" fill="#E0435B"/>
<path d="M64.5955 114.69C63.4706 114.687 62.372 114.35 61.4384 113.722C60.5048 113.095 59.778 112.205 59.35 111.164C58.922 110.124 58.8118 108.98 59.0334 107.877C59.2551 106.774 59.7985 105.762 60.5952 104.968C61.3919 104.174 62.4061 103.633 63.5096 103.415C64.6132 103.197 65.7567 103.311 66.7956 103.742C67.8346 104.173 68.7224 104.903 69.347 105.838C69.9716 106.774 70.305 107.874 70.305 108.999C70.2909 110.507 69.6843 111.949 68.6161 113.014C67.5479 114.079 66.1038 114.681 64.5955 114.69Z" fill="#E0435B"/>
<path d="M152.992 134.038C153.012 134.006 153.023 133.969 153.023 133.931C153.023 133.892 153.012 133.855 152.992 133.823C152.455 132.821 150.522 132.624 149.555 132.427C147.98 132.105 146.369 131.926 144.776 131.711L143.989 131.604C143.882 131.604 143.703 131.496 143.72 131.604C143.519 131.253 143.357 130.881 143.237 130.494C142.575 128.955 141.949 127.398 141.268 125.877C140.928 125.089 140.588 124.319 140.212 123.55C139.98 123.084 139.729 122.19 139.192 121.957C138.029 121.456 137.224 124.337 136.919 125.017C136.168 126.682 135.47 128.364 134.754 130.029C134.61 130.387 134.36 131.389 134.038 131.622C133.532 131.671 133.022 131.671 132.516 131.622L130.386 131.801C129.177 131.867 127.977 132.059 126.807 132.373C126.109 132.57 124.838 132.91 125.017 133.895C125.196 134.879 126.324 135.434 126.807 135.881C127.75 136.631 128.75 137.307 129.796 137.904C130.319 138.14 130.828 138.409 131.317 138.709C131.89 139.139 131.604 139.586 131.46 140.159C131.138 141.376 130.816 142.575 130.512 143.739C130.207 144.902 130.046 145.725 129.885 146.728C129.707 147.42 129.707 148.147 129.885 148.84C130.619 150.397 133.465 147.676 134.109 147.157C134.754 146.638 135.792 145.815 136.615 145.117L137.796 144.079C138.011 143.882 138.566 143.112 138.852 143.059C139.139 143.005 140.535 144.473 140.91 144.848C141.752 145.582 142.7 146.262 143.488 146.942C144.61 148.085 146.03 148.891 147.586 149.269C148.965 149.394 148.302 147.3 148.123 146.477C147.676 144.508 147.05 142.593 146.459 140.66C146.334 140.249 146.173 139.819 146.083 139.407C145.994 138.996 146.083 138.96 146.405 138.727C147.157 138.262 148.088 137.993 148.893 137.582C150.164 136.937 152.741 135.792 153.099 134.163C153.076 134.112 153.039 134.068 152.992 134.038Z" fill="#F7B9E7"/>
<path d="M72.3622 26.1311C70.1966 25.9343 67.9772 25.9701 65.7936 25.988L67.5834 24.1982C68.6377 23.297 69.549 22.2409 70.286 21.066C70.3526 20.9492 70.3785 20.8136 70.3598 20.6804C70.3412 20.5473 70.2789 20.4241 70.1828 20.33C70.0868 20.236 69.9622 20.1764 69.8287 20.1606C69.6952 20.1448 69.5602 20.1737 69.4448 20.2427C68.2603 20.9522 67.1919 21.8396 66.2769 22.8737L64.3618 24.6635C64.3618 23.7686 64.3618 22.8737 64.3618 21.9788C64.47 20.5982 64.3613 19.2092 64.0396 17.8623C64.0014 17.7378 63.9243 17.6289 63.8196 17.5516C63.7149 17.4742 63.5881 17.4325 63.458 17.4325C63.3278 17.4325 63.201 17.4742 63.0963 17.5516C62.9916 17.6289 62.9145 17.7378 62.8763 17.8623C62.5363 19.2063 62.4095 20.5954 62.5004 21.9788C62.5004 22.8737 62.5004 23.7686 62.5004 24.6456C61.874 24.0192 61.2476 23.3748 60.6032 22.7484C59.7088 21.6993 58.6584 20.7938 57.489 20.0637C57.3736 19.9947 57.2386 19.9659 57.1051 19.9817C56.9716 19.9975 56.8471 20.057 56.751 20.1511C56.6549 20.2451 56.5927 20.3683 56.574 20.5015C56.5553 20.6346 56.5813 20.7702 56.6478 20.887C57.3639 22.072 58.2572 23.1403 59.2967 24.055C59.9052 24.6993 60.5316 25.3436 61.0865 25.9701H58.4018C57.0212 25.8696 55.6334 25.9782 54.2852 26.2922C54.1608 26.3305 54.0519 26.4076 53.9746 26.5123C53.8972 26.617 53.8555 26.7437 53.8555 26.8739C53.8555 27.0041 53.8972 27.1308 53.9746 27.2355C54.0519 27.3402 54.1608 27.4173 54.2852 27.4556C55.6291 27.7964 57.0184 27.9233 58.4018 27.8314H60.997C59.4041 29.3528 57.7932 30.8741 56.3614 32.5207C56.1929 32.6892 56.0982 32.9178 56.0982 33.1561C56.0982 33.3944 56.1929 33.623 56.3614 33.7915C56.5299 33.96 56.7585 34.0547 56.9968 34.0547C57.2351 34.0547 57.4637 33.96 57.6322 33.7915C59.2788 32.4133 60.818 30.8383 62.3393 29.2812C62.3393 31.4647 62.2141 33.6662 62.3393 35.8318C62.3393 36.0692 62.4336 36.2968 62.6014 36.4646C62.7693 36.6325 62.9969 36.7267 63.2342 36.7267C63.4716 36.7267 63.6992 36.6325 63.867 36.4646C64.0348 36.2968 64.1291 36.0692 64.1291 35.8318C64.346 33.6731 64.4476 31.5044 64.4334 29.3349C65.9368 30.9278 67.4403 32.5207 69.0869 33.9526C69.2635 34.086 69.4826 34.1506 69.7034 34.1345C69.9241 34.1185 70.1315 34.0227 70.2869 33.8651C70.4424 33.7075 70.5352 33.4988 70.5482 33.2778C70.5612 33.0568 70.4935 32.8387 70.3576 32.6639C68.9795 31.0173 67.4045 29.4781 65.8473 27.9567C68.0309 27.9567 70.2323 28.082 72.3801 27.9567C72.6222 27.9544 72.8534 27.8559 73.0229 27.6831C73.1924 27.5102 73.2863 27.2771 73.284 27.035C73.2816 26.7929 73.1831 26.5617 73.0103 26.3922C72.8374 26.2227 72.6043 26.1288 72.3622 26.1311Z" fill="white"/>
<path d="M100.122 22.8737H100.587C101.124 22.8737 101.638 22.6606 102.017 22.2813C102.397 21.902 102.61 21.3876 102.61 20.8512V20.368C102.585 19.9368 102.469 19.5159 102.27 19.133C102.005 18.6778 101.595 18.3247 101.106 18.1307C100.659 17.9386 100.166 17.8837 99.6876 17.9729C99.2095 18.0621 98.7688 18.2915 98.4215 18.6319C98.1208 18.945 97.904 19.329 97.7914 19.7483C97.6787 20.1676 97.6738 20.6085 97.7771 21.0302C97.9249 21.542 98.24 21.9894 98.672 22.3009C99.0954 22.6349 99.6183 22.8176 100.158 22.82L100.122 22.8737Z" fill="white"/>
<path d="M111.504 41.1654C111.77 40.5548 111.808 39.8687 111.611 39.2324C111.45 38.6877 111.093 38.2221 110.609 37.9258C110.102 37.6428 109.506 37.5658 108.944 37.7111C108.474 37.856 108.041 38.1002 107.673 38.427C107.439 38.6896 107.235 38.9778 107.065 39.2861C106.901 39.5674 106.795 39.8782 106.752 40.2007C106.709 40.5232 106.73 40.8511 106.814 41.1654C106.91 41.5204 107.088 41.8479 107.333 42.1215C107.579 42.3951 107.886 42.6071 108.228 42.7404C108.524 42.8733 108.844 42.942 109.168 42.942C109.492 42.942 109.812 42.8733 110.108 42.7404C110.4 42.6357 110.663 42.4641 110.877 42.2392C111.179 41.9442 111.395 41.5732 111.504 41.1654Z" fill="white"/>
<path d="M138.693 32.8429C139.023 32.85 139.35 32.792 139.658 32.6722C139.965 32.5524 140.245 32.3732 140.483 32.1449C140.719 31.9116 140.904 31.6324 141.027 31.3245C141.15 31.0165 141.209 30.6866 141.199 30.3551C141.199 29.7142 140.944 29.0997 140.491 28.6465C140.038 28.1934 139.423 27.9388 138.783 27.9388C138.45 27.9239 138.118 27.9777 137.808 28.097C137.497 28.2163 137.215 28.3984 136.978 28.6319C136.741 28.8655 136.555 29.1454 136.431 29.4543C136.307 29.7631 136.249 30.0941 136.259 30.4267C136.253 30.7576 136.314 31.0864 136.437 31.3937C136.559 31.701 136.742 31.9808 136.975 32.2165C137.456 32.676 138.099 32.9269 138.765 32.9145L138.693 32.8429Z" fill="white"/>
<path d="M153.171 87.7002V87.8613C153.317 88.3111 153.591 88.7089 153.958 89.0067C154.335 89.3176 154.812 89.4828 155.3 89.4721C155.687 89.4599 156.066 89.3621 156.41 89.1857C156.892 88.8789 157.248 88.4088 157.412 87.8613L157.502 87.7002C157.615 87.3116 157.62 86.8994 157.516 86.5082C157.412 86.117 157.203 85.7617 156.911 85.4808C156.482 85.0687 155.913 84.8324 155.318 84.8186C154.716 84.8243 154.14 85.0615 153.708 85.4808C153.429 85.7695 153.232 86.1274 153.137 86.5175C153.043 86.9077 153.055 87.3159 153.171 87.7002Z" fill="white"/>
<path d="M133.375 113.366C133.957 113.355 134.513 113.125 134.932 112.722C135.136 112.519 135.298 112.277 135.409 112.012C135.519 111.746 135.576 111.461 135.576 111.173C135.576 110.886 135.519 110.601 135.409 110.335C135.298 110.069 135.136 109.828 134.932 109.625C134.513 109.222 133.957 108.992 133.375 108.981C132.799 108.991 132.248 109.221 131.836 109.625C131.628 109.827 131.464 110.07 131.353 110.337C131.242 110.605 131.187 110.893 131.192 111.182C131.194 111.76 131.426 112.314 131.836 112.722C132.248 113.125 132.799 113.356 133.375 113.366Z" fill="white"/>
<path d="M107.728 151.31C108.292 151.31 108.834 151.085 109.234 150.686C109.633 150.286 109.857 149.745 109.857 149.18C109.857 148.615 109.633 148.073 109.234 147.674C108.834 147.274 108.292 147.05 107.728 147.05C107.163 147.05 106.621 147.274 106.221 147.674C105.822 148.073 105.598 148.615 105.598 149.18C105.598 149.745 105.822 150.286 106.221 150.686C106.621 151.085 107.163 151.31 107.728 151.31Z" fill="white"/>
<path d="M84.4065 172.429C85.0188 172.429 85.6061 172.186 86.0391 171.753C86.4721 171.32 86.7153 170.733 86.7153 170.12C86.7153 169.508 86.4721 168.921 86.0391 168.488C85.6061 168.055 85.0188 167.812 84.4065 167.812C83.7942 167.812 83.2069 168.055 82.7739 168.488C82.3409 168.921 82.0977 169.508 82.0977 170.12C82.0977 170.733 82.3409 171.32 82.7739 171.753C83.2069 172.186 83.7942 172.429 84.4065 172.429Z" fill="white"/>
<path d="M67.746 152.813C68.3821 152.813 68.9921 152.56 69.4419 152.111C69.8916 151.661 70.1443 151.051 70.1443 150.415C70.1443 149.779 69.8916 149.169 69.4419 148.719C68.9921 148.269 68.3821 148.016 67.746 148.016C67.1099 148.016 66.4999 148.269 66.0501 148.719C65.6003 149.169 65.3477 149.779 65.3477 150.415C65.3477 151.051 65.6003 151.661 66.0501 152.111C66.4999 152.56 67.1099 152.813 67.746 152.813Z" fill="white"/>
<path d="M34.0051 138.96C34.6264 138.954 35.2219 138.711 35.6696 138.28C36.0592 137.896 36.3034 137.388 36.3606 136.844C36.4177 136.3 36.2843 135.753 35.9831 135.297C35.6819 134.84 35.2316 134.502 34.7089 134.34C34.1863 134.179 33.6238 134.203 33.1174 134.41C32.6109 134.617 32.192 134.994 31.9321 135.475C31.6722 135.956 31.5874 136.513 31.6922 137.05C31.7969 137.587 32.0848 138.071 32.5066 138.419C32.9284 138.767 33.458 138.959 34.0051 138.96Z" fill="white"/>
<path d="M50.5973 113.133C50.9538 113.13 51.3086 113.082 51.6532 112.99C52.0927 112.857 52.4802 112.591 52.7623 112.229C53.0444 111.867 53.2072 111.426 53.2283 110.968C53.2139 110.499 53.0548 110.046 52.7729 109.671C52.4909 109.296 52.0998 109.017 51.6532 108.873C51.3088 108.781 50.9539 108.733 50.5973 108.73C50.301 108.729 50.0074 108.787 49.7338 108.9C49.4602 109.014 49.2122 109.181 49.0043 109.392C48.579 109.807 48.3346 110.373 48.3242 110.968C48.338 111.563 48.5743 112.131 48.9864 112.56C49.1964 112.768 49.4452 112.931 49.7186 113.042C49.992 113.152 50.2845 113.208 50.5794 113.205L50.5973 113.133Z" fill="white"/>
<path d="M21.8015 95.9511V95.6647C22.1594 92.8548 17.0585 92.8369 17.4164 95.6647V95.9511C17.4655 96.4892 17.714 96.9895 18.113 97.3538C18.512 97.7181 19.0328 97.9201 19.5732 97.9201C20.1135 97.9201 20.6343 97.7181 21.0333 97.3538C21.4324 96.9895 21.6808 96.4892 21.7299 95.9511H21.8015Z" fill="white"/>
<path d="M22.4973 55.8239C22.8056 55.8372 23.1127 55.7758 23.3922 55.6449C23.6537 55.5282 23.8953 55.3712 24.1081 55.1796C24.3023 54.9851 24.4549 54.7531 24.5564 54.4976C24.658 54.2422 24.7064 53.9688 24.6987 53.694C24.7043 53.4276 24.6547 53.1628 24.5531 52.9164C24.4514 52.67 24.2999 52.4472 24.1081 52.2622C23.8999 52.0646 23.6573 51.9068 23.3922 51.7969C23.1127 51.666 22.8056 51.6045 22.4973 51.6179C21.9549 51.6319 21.4375 51.8491 21.0475 52.2264C20.8554 52.4177 20.703 52.645 20.599 52.8953C20.495 53.1456 20.4414 53.414 20.4414 53.6851C20.4414 53.9562 20.495 54.2246 20.599 54.4749C20.703 54.7252 20.8554 54.9525 21.0475 55.1438C21.4375 55.5211 21.9549 55.7382 22.4973 55.7523V55.8239Z" fill="white"/>
<path d="M125.287 163.659C125.895 163.659 126.477 163.418 126.907 162.988C127.337 162.559 127.578 161.976 127.578 161.368C127.578 160.761 127.337 160.178 126.907 159.748C126.477 159.319 125.895 159.077 125.287 159.077C124.679 159.077 124.097 159.319 123.667 159.748C123.237 160.178 122.996 160.761 122.996 161.368C122.996 161.976 123.237 162.559 123.667 162.988C124.097 163.418 124.679 163.659 125.287 163.659Z" fill="#FFF896"/>
<path d="M159.742 113.509C160.275 113.46 160.771 113.214 161.132 112.818C161.493 112.422 161.693 111.906 161.693 111.37C161.693 110.835 161.493 110.318 161.132 109.922C160.771 109.527 160.275 109.28 159.742 109.231C159.459 109.231 159.18 109.287 158.92 109.395C158.659 109.503 158.422 109.661 158.223 109.861C158.023 110.06 157.865 110.297 157.757 110.557C157.649 110.818 157.594 111.097 157.594 111.379C157.608 111.943 157.839 112.479 158.239 112.876C158.639 113.273 159.178 113.5 159.742 113.509Z" fill="#FFF896"/>
<path d="M119.165 21.7998C119.639 21.7998 120.095 21.6112 120.43 21.2756C120.766 20.9399 120.955 20.4847 120.955 20.01C120.955 19.656 120.85 19.31 120.653 19.0157C120.456 18.7213 120.177 18.4919 119.85 18.3565C119.523 18.221 119.163 18.1855 118.816 18.2546C118.468 18.3237 118.15 18.4941 117.899 18.7444C117.649 18.9947 117.478 19.3137 117.409 19.6608C117.34 20.008 117.376 20.3679 117.511 20.6949C117.647 21.022 117.876 21.3015 118.17 21.4982C118.465 21.6948 118.811 21.7998 119.165 21.7998Z" fill="#FFF896"/>
<path d="M46.786 153.708C47.2773 153.708 47.7485 153.513 48.0959 153.165C48.4433 152.818 48.6385 152.347 48.6385 151.855C48.6385 151.364 48.4433 150.893 48.0959 150.546C47.7485 150.198 47.2773 150.003 46.786 150.003C46.2947 150.003 45.8236 150.198 45.4762 150.546C45.1288 150.893 44.9336 151.364 44.9336 151.855C44.9336 152.347 45.1288 152.818 45.4762 153.165C45.8236 153.513 46.2947 153.708 46.786 153.708Z" fill="#FFF896"/>
<path d="M23.5373 112.543C23.6524 112.346 23.7425 112.135 23.8058 111.916C23.9422 111.371 23.8654 110.795 23.591 110.305C23.3435 109.863 22.9562 109.515 22.4898 109.316C22.0234 109.118 21.5043 109.079 21.0137 109.207C20.5232 109.335 20.0889 109.622 19.7789 110.023C19.4689 110.424 19.3008 110.917 19.3008 111.424C19.3008 111.931 19.4689 112.423 19.7789 112.825C20.0889 113.226 20.5232 113.513 21.0137 113.641C21.5043 113.769 22.0234 113.73 22.4898 113.531C22.9562 113.333 23.3435 112.985 23.591 112.543H23.5373Z" fill="#FFF896"/>
</g>
<defs>
<clipPath id="clip0_2288_4753">
<rect width="180" height="180" fill="white"/>
</clipPath>
</defs>
</svg>
