<svg width="375" height="812" viewBox="0 0 375 812" fill="none" xmlns="http://www.w3.org/2000/svg">
<g clip-path="url(#clip0_1618_34816)" filter="url(#filter0_b_1618_34816)">
<rect width="375" height="812" fill="white"/>
<g opacity="0.1" clip-path="url(#clip1_1618_34816)">
<path d="M42.2079 169.59L20.4692 165.546L-28.9176 154.452L-52.0485 149.258L-59.7655 147.528C-68.3584 145.592 -77.3464 146.466 -85.408 150.019C-93.4697 153.573 -100.179 159.62 -104.551 167.271C-104.557 167.293 -104.567 167.313 -104.58 167.332C-105.397 168.655 -106.085 170.054 -106.637 171.508C-107.547 173.851 -108.304 176.25 -108.905 178.69C-109.157 179.653 -109.405 180.675 -109.652 181.764C-109.652 181.764 -107.971 180.698 -101.387 181.217L-79.6247 185.263L-37.9548 194.628L-7.08002 201.565L0.636911 203.294C9.22538 205.221 18.206 204.342 26.2601 200.787C34.3142 197.232 41.0174 191.187 45.3853 183.542C45.3853 183.542 45.4046 183.501 45.4142 183.481C46.2311 182.158 46.9199 180.76 47.4714 179.305C48.3811 176.962 49.1387 174.563 49.7396 172.123C49.9919 171.161 50.2398 170.138 50.4864 169.049C50.4729 169.043 48.7917 170.109 42.2079 169.59Z" fill="url(#paint0_linear_1618_34816)"/>
<path d="M122.838 30.3009C125.045 30.1757 127.238 29.8698 129.395 29.3862C131.036 29.0263 132.653 28.5634 134.236 28.0003C140.572 25.758 146.263 21.9963 150.81 17.0444C150.81 17.0444 150.829 17.004 150.842 16.9771C151.933 15.871 152.913 14.6613 153.77 13.3652C155.167 11.2944 156.43 9.13655 157.553 6.90478C157.98 6.00926 158.479 5.08233 158.961 4.07235C158.961 4.07235 154.746 5.56658 137.61 -2.60384L70.5214 -34.5923C68.9824 -35.3261 67.4308 -36.0163 65.8667 -36.663C60.4939 -38.8964 54.93 -40.6393 49.243 -41.8704C46.6401 -42.4173 44.0291 -42.8606 41.4101 -43.2004C38.6349 -43.565 35.8523 -43.7926 33.0817 -43.9071C32.0369 -43.9508 30.9956 -43.9845 29.9582 -43.9916C17.9821 -44.082 6.09201 -41.9536 -5.11075 -37.7139C-22.4161 -31.1752 -37.4798 -19.7999 -48.5081 -4.94271C-59.5363 9.91451 -66.0644 27.6277 -67.315 46.0875C-68.5656 64.5474 -64.486 82.9761 -55.562 99.1793C-46.638 115.382 -33.2457 128.677 -16.9796 137.481C-0.713618 146.284 17.7407 150.225 36.1857 148.835C54.6308 147.444 72.2894 140.781 87.0589 129.637C101.828 118.494 113.086 103.341 119.492 85.9821C125.898 68.6233 127.182 49.7902 123.191 31.7254C123.086 31.2537 122.957 30.779 122.838 30.3009ZM50.4753 7.45002C59.3986 11.6966 66.8615 18.4953 71.92 26.9862C76.9784 35.4772 79.4051 45.2788 78.8932 55.1513C78.3812 65.0239 74.9536 74.5237 69.0438 82.4491C63.134 90.3745 55.0077 96.3694 45.6927 99.6756C36.3777 102.982 26.2926 103.451 16.713 101.023C7.13351 98.5949 -1.51006 93.3795 -8.12427 86.0363C-14.7385 78.6931 -19.0262 69.5519 -20.445 59.7691C-21.8638 49.9864 -20.35 40.0016 -16.095 31.0777C-10.3929 19.1189 -0.177881 9.91247 12.305 5.48193C24.788 1.05139 38.5172 1.75928 50.4753 7.45002Z" fill="url(#paint1_linear_1618_34816)"/>
</g>
</g>
<defs>
<filter id="filter0_b_1618_34816" x="-44" y="-44" width="463" height="900" filterUnits="userSpaceOnUse" color-interpolation-filters="sRGB">
<feFlood flood-opacity="0" result="BackgroundImageFix"/>
<feGaussianBlur in="BackgroundImageFix" stdDeviation="22"/>
<feComposite in2="SourceAlpha" operator="in" result="effect1_backgroundBlur_1618_34816"/>
<feBlend mode="normal" in="SourceGraphic" in2="effect1_backgroundBlur_1618_34816" result="shape"/>
</filter>
<linearGradient id="paint0_linear_1618_34816" x1="-93.9573" y1="144.696" x2="34.7942" y2="206.086" gradientUnits="userSpaceOnUse">
<stop stop-color="#E46125"/>
<stop offset="0.5" stop-color="#C91A44"/>
<stop offset="1" stop-color="#A12FA3"/>
</linearGradient>
<linearGradient id="paint1_linear_1618_34816" x1="-57.4433" y1="9.56921" x2="116.767" y2="92.634" gradientUnits="userSpaceOnUse">
<stop stop-color="#E46125"/>
<stop offset="0.5" stop-color="#C91A44"/>
<stop offset="1" stop-color="#A12FA3"/>
</linearGradient>
<clipPath id="clip0_1618_34816">
<rect width="375" height="812" fill="white"/>
</clipPath>
<clipPath id="clip1_1618_34816">
<rect width="193" height="276" fill="white" transform="translate(-15.2129 -79) rotate(25.4922)"/>
</clipPath>
</defs>
</svg>
