<svg width="18" height="18" viewBox="0 0 18 18" fill="none" xmlns="http://www.w3.org/2000/svg">
<path fill-rule="evenodd" clip-rule="evenodd" d="M13.7174 14.417C12.4278 15.6189 10.7453 16.2849 9.00004 16.2843C7.25477 16.2849 5.57227 15.6189 4.28267 14.417C2.99306 13.2151 2.18944 11.564 2.02947 9.7877C2.00913 9.56186 1.99939 9.33607 2.00003 9.11105C2.00118 8.90662 2.01092 8.70162 2.02938 8.49657C2.18935 6.7203 2.99297 5.06923 4.28258 3.86731C5.57219 2.6654 7.25469 1.9994 8.99996 2C10.7452 1.9994 12.4277 2.6654 13.7173 3.86731C15.0069 5.06923 15.8106 6.7203 15.9705 8.49658C15.9909 8.72239 16.0006 8.94815 16 9.17315C15.9988 9.3776 15.9891 9.58263 15.9706 9.7877C15.8106 11.564 15.007 13.2151 13.7174 14.417ZM5.43134 6.79546C5.29304 7.01384 5.17362 7.24549 5.07505 7.48795C4.75292 8.28034 4.668 9.15259 4.83103 9.99433C4.99406 10.8361 5.39772 11.6095 5.99093 12.2167C6.58414 12.8239 7.34025 13.2376 8.16357 13.4054C8.98689 13.5733 9.84043 13.4878 10.6162 13.1597C11.3919 12.8316 12.0551 12.2757 12.5216 11.5624C12.5375 11.538 12.5532 11.5135 12.5687 11.4888C12.707 11.2704 12.8264 11.0388 12.9249 10.7963C13.2471 10.0039 13.332 9.13168 13.169 8.28995C13.0059 7.44821 12.6023 6.67481 12.0091 6.06762C11.4159 5.46042 10.6598 5.04672 9.83643 4.87885C9.01311 4.71098 8.15957 4.7965 7.38381 5.12458C6.60805 5.45266 5.94494 6.00855 5.47839 6.72193C5.46245 6.74629 5.44677 6.77081 5.43134 6.79546Z" fill="url(#paint0_linear_2396_5016)"/>
<defs>
<linearGradient id="paint0_linear_2396_5016" x1="1.99891" y1="9.13958" x2="16" y2="9.13958" gradientUnits="userSpaceOnUse">
<stop stop-color="#E46125"/>
<stop offset="0.5" stop-color="#C91A44"/>
<stop offset="1" stop-color="#A12FA3"/>
</linearGradient>
</defs>
</svg>
