<svg width="18" height="18" viewBox="0 0 18 18" fill="none" xmlns="http://www.w3.org/2000/svg">
<path fill-rule="evenodd" clip-rule="evenodd" d="M12.9993 5.28075C13.877 5.41047 14.6811 5.85449 15.2684 6.53368C15.8556 7.21288 16.1878 8.08313 16.2058 8.98934C16.2238 9.89555 15.9263 10.7789 15.3665 11.4818C14.8067 12.1848 14.0208 12.6618 13.149 12.8277V13.996H14.0159C14.1075 13.9929 14.1988 14.0087 14.2843 14.0424C14.3698 14.0761 14.4478 14.127 14.5137 14.1922C14.5796 14.2573 14.6319 14.3353 14.6677 14.4215C14.7035 14.5078 14.7219 14.6005 14.7219 14.6942C14.7219 14.7879 14.7035 14.8806 14.6677 14.9669C14.6319 15.0531 14.5796 15.1311 14.5137 15.1962C14.4478 15.2614 14.3698 15.3123 14.2843 15.346C14.1988 15.3797 14.1075 15.3955 14.0159 15.3924H13.152V16.2783C13.155 16.372 13.1396 16.4653 13.1066 16.5527C13.0737 16.6401 13.0239 16.7198 12.9601 16.7872C12.8964 16.8545 12.8201 16.908 12.7357 16.9446C12.6513 16.9812 12.5606 17 12.4689 17C12.3773 17 12.2865 16.9812 12.2021 16.9446C12.1178 16.908 12.0414 16.8545 11.9777 16.7872C11.914 16.7198 11.8641 16.6401 11.8312 16.5527C11.7982 16.4653 11.7828 16.372 11.7858 16.2783V15.3924H10.9182C10.741 15.3864 10.5729 15.3102 10.4496 15.1799C10.3263 15.0496 10.2574 14.8755 10.2574 14.6942C10.2574 14.5129 10.3263 14.3388 10.4496 14.2085C10.5729 14.0782 10.741 14.002 10.9182 13.996H11.7858V12.8277C11.2104 12.7178 10.6682 12.4717 10.2026 12.1092C9.73692 11.7466 9.36083 11.2776 9.1044 10.7398C8.84771 11.2772 8.4715 11.7457 8.00588 12.1079C7.54027 12.47 6.99817 12.7158 6.42298 12.8254V13.9937H7.29059C7.38219 13.9906 7.47347 14.0064 7.559 14.0401C7.64452 14.0738 7.72254 14.1247 7.78842 14.1899C7.85429 14.255 7.90668 14.333 7.94245 14.4193C7.97823 14.5055 7.99666 14.5982 7.99666 14.6919C7.99666 14.7856 7.97823 14.8783 7.94245 14.9646C7.90668 15.0508 7.85429 15.1288 7.78842 15.194C7.72254 15.2591 7.64452 15.31 7.559 15.3437C7.47347 15.3774 7.38219 15.3932 7.29059 15.3901H6.42298V16.276C6.42298 16.3677 6.40532 16.4584 6.37101 16.5431C6.3367 16.6277 6.28641 16.7047 6.22302 16.7695C6.15962 16.8342 6.08436 16.8856 6.00153 16.9207C5.9187 16.9558 5.82992 16.9738 5.74027 16.9738C5.65062 16.9738 5.56184 16.9558 5.47901 16.9207C5.39618 16.8856 5.32092 16.8342 5.25752 16.7695C5.19413 16.7047 5.14384 16.6277 5.10953 16.5431C5.07522 16.4584 5.05756 16.3677 5.05756 16.276V15.3924H4.18995C4.0127 15.3864 3.84467 15.3102 3.72136 15.1799C3.59805 15.0496 3.52911 14.8755 3.52911 14.6942C3.52911 14.5129 3.59805 14.3388 3.72136 14.2085C3.84467 14.0782 4.0127 14.002 4.18995 13.996H5.05756V12.8277C4.18573 12.6618 3.39987 12.1848 2.84005 11.4818C2.28022 10.7789 1.98279 9.89555 2.00077 8.98934C2.01875 8.08313 2.35096 7.21288 2.93821 6.53368C3.52545 5.85449 4.32958 5.41047 5.20728 5.28075C4.97762 5.80361 4.85046 6.36741 4.83299 6.94026C4.39304 7.1355 4.02492 7.46816 3.78144 7.89051C3.53797 8.31286 3.43165 8.80318 3.47776 9.29112C3.52386 9.77906 3.72001 10.2395 4.03807 10.6065C4.35612 10.9734 4.77973 11.2279 5.2481 11.3335C5.71647 11.4391 6.20552 11.3903 6.64508 11.1941C7.08464 10.998 7.45211 10.6646 7.69476 10.2417C7.93741 9.8189 8.04277 9.32836 7.99571 8.84051C7.94865 8.35267 7.75159 7.8926 7.43282 7.52633C7.35973 7.24177 7.35712 6.9431 7.4252 6.65725C7.49329 6.37141 7.62995 6.10738 7.82283 5.88901C8.37182 6.26573 8.81388 6.78379 9.1044 7.3909C9.39516 6.78415 9.83718 6.26639 10.386 5.88977C10.5733 6.10067 10.7078 6.35491 10.7778 6.63064C10.8479 6.90638 10.8513 7.19536 10.788 7.47277L10.8149 7.47966C10.4848 7.83829 10.275 8.29503 10.2159 8.7837C10.1568 9.27237 10.2515 9.76758 10.4862 10.1976C10.7209 10.6276 11.0835 10.97 11.5214 11.1753C11.9592 11.3806 12.4497 11.438 12.9217 11.3393C13.3937 11.2406 13.8226 10.9909 14.1464 10.6263C14.4702 10.2617 14.6721 9.80125 14.7227 9.31158C14.7733 8.82192 14.67 8.32851 14.4278 7.90285C14.1857 7.47718 13.8172 7.14138 13.3758 6.94409C13.3591 6.37089 13.2319 5.8067 13.0015 5.28381L12.9993 5.28075ZM9.10665 3.19278C9.86318 3.19158 10.6021 3.4259 11.2251 3.86455L12.6624 2.39555H11.97C11.7889 2.39555 11.6153 2.32203 11.4872 2.19117C11.3592 2.06031 11.2873 1.88283 11.2873 1.69777C11.2873 1.51271 11.3592 1.33523 11.4872 1.20437C11.6153 1.07352 11.7889 1 11.97 1H14.3108C14.4918 1.0004 14.6653 1.07402 14.7934 1.20477C14.9214 1.33552 14.9937 1.51277 14.9943 1.69777V4.09025C14.9973 4.18388 14.9819 4.27717 14.9489 4.36459C14.9159 4.452 14.8661 4.53174 14.8024 4.59907C14.7387 4.6664 14.6623 4.71993 14.5779 4.7565C14.4936 4.79306 14.4028 4.8119 14.3112 4.8119C14.2195 4.8119 14.1288 4.79306 14.0444 4.7565C13.96 4.71993 13.8837 4.6664 13.82 4.59907C13.7562 4.53174 13.7064 4.452 13.6735 4.36459C13.6405 4.27717 13.6251 4.18388 13.6281 4.09025V3.38329L12.1886 4.84847C12.4705 5.26825 12.6677 5.74134 12.7684 6.24001C12.8692 6.73868 12.8715 7.25288 12.7753 7.75249C12.6791 8.25209 12.4863 8.72704 12.2081 9.14948C11.93 9.57192 11.5721 9.93336 11.1555 10.2126C10.9645 9.98416 10.8336 9.70975 10.775 9.41527C10.7165 9.12078 10.7323 8.8159 10.8209 8.52938C11.1051 8.19319 11.2888 7.78065 11.3502 7.34082C11.4116 6.90098 11.3481 6.45238 11.1673 6.04837C10.9864 5.64437 10.6958 5.30196 10.33 5.0619C9.96427 4.82183 9.53872 4.69421 9.10403 4.69421C8.66934 4.69421 8.24379 4.82183 7.87802 5.0619C7.51225 5.30196 7.22165 5.64437 7.04079 6.04837C6.85993 6.45238 6.79642 6.90098 6.85783 7.34082C6.91923 7.78065 7.10296 8.19319 7.38715 8.52938C7.47604 8.81582 7.49202 9.12069 7.43361 9.41521C7.37519 9.70972 7.2443 9.98416 7.05328 10.2126C6.38033 9.76079 5.86786 9.09922 5.59196 8.32611C5.31605 7.55299 5.29143 6.70956 5.52174 5.921C5.75204 5.13245 6.225 4.44083 6.87041 3.9488C7.51581 3.45677 8.29924 3.19058 9.1044 3.18972L9.10665 3.19278Z" fill="url(#paint0_linear_2396_5014)"/>
<defs>
<linearGradient id="paint0_linear_2396_5014" x1="1.99889" y1="8.99713" x2="16.2065" y2="8.99713" gradientUnits="userSpaceOnUse">
<stop stop-color="#E46125"/>
<stop offset="0.5" stop-color="#C91A44"/>
<stop offset="1" stop-color="#A12FA3"/>
</linearGradient>
</defs>
</svg>
