<svg width="18" height="18" viewBox="0 0 18 18" fill="none" xmlns="http://www.w3.org/2000/svg">
<path fill-rule="evenodd" clip-rule="evenodd" d="M9.14011 1C10.4226 0.99887 11.6592 1.48403 12.6071 2.36025C13.5551 3.23647 14.1461 4.44048 14.2639 5.73596C14.3818 7.03145 14.0182 8.32485 13.2443 9.36232C12.4705 10.3998 11.3423 11.1064 10.0813 11.3434V12.9364H11.2716C11.5205 12.9364 11.7592 13.0367 11.9352 13.2152C12.1113 13.3938 12.2101 13.6359 12.2101 13.8884C12.2101 14.1409 12.1113 14.3831 11.9352 14.5616C11.7592 14.7402 11.5205 14.8405 11.2716 14.8405H10.0813V16.048C10.0813 16.3004 9.98247 16.5426 9.80647 16.7212C9.63047 16.8997 9.39176 17 9.14285 17C8.89395 17 8.65524 16.8997 8.47924 16.7212C8.30323 16.5426 8.20436 16.3004 8.20436 16.048V14.8405H7.01407C6.76517 14.8405 6.52646 14.7402 6.35045 14.5616C6.17445 14.3831 6.07557 14.1409 6.07557 13.8884C6.07557 13.6359 6.17445 13.3938 6.35045 13.2152C6.52646 13.0367 6.76517 12.9364 7.01407 12.9364H8.20436V11.3434C6.94382 11.1065 5.81604 10.4003 5.04222 9.36342C4.26839 8.32655 3.90436 7.03381 4.02153 5.73874C4.13869 4.44367 4.72859 3.23974 5.67553 2.36307C6.62247 1.4864 7.85811 1.00026 9.14011 1ZM9.14011 3.05271C9.75561 3.05363 10.357 3.23963 10.8684 3.58719C11.3797 3.93476 11.778 4.42829 12.0129 5.00542C12.2478 5.58256 12.3088 6.21738 12.1882 6.82967C12.0676 7.44196 11.7707 8.00423 11.3352 8.44542C10.8996 8.88661 10.3449 9.18693 9.74117 9.3084C9.13742 9.42988 8.51173 9.36707 7.94316 9.12791C7.37459 8.88875 6.88866 8.48398 6.5468 7.96475C6.20493 7.44551 6.02247 6.83513 6.02247 6.21073C6.02368 5.37274 6.35268 4.5695 6.93722 3.97739C7.52176 3.38528 8.31405 3.05271 9.14011 3.05271Z" fill="url(#paint0_linear_2396_5013)"/>
<defs>
<linearGradient id="paint0_linear_2396_5013" x1="3.9992" y1="8.99713" x2="14.2857" y2="8.99713" gradientUnits="userSpaceOnUse">
<stop stop-color="#E46125"/>
<stop offset="0.5" stop-color="#C91A44"/>
<stop offset="1" stop-color="#A12FA3"/>
</linearGradient>
</defs>
</svg>
