<svg width="18" height="18" viewBox="0 0 18 18" fill="none" xmlns="http://www.w3.org/2000/svg">
<path fill-rule="evenodd" clip-rule="evenodd" d="M16.9965 5.43116V8.54887C16.9965 8.79012 16.9028 9.0215 16.7358 9.19209C16.5689 9.36269 16.3426 9.45853 16.1065 9.45853C15.8705 9.45853 15.6441 9.36269 15.4772 9.19209C15.3103 9.0215 15.2165 8.79012 15.2165 8.54887V7.62678L13.3444 9.54106C13.7262 10.1102 13.9882 10.7543 14.1137 11.4323C14.2393 12.1104 14.2257 12.8077 14.0738 13.4801C13.9219 14.1525 13.6349 14.7854 13.2312 15.3385C12.8275 15.8917 12.3158 16.3531 11.7285 16.6935C11.1411 17.034 10.491 17.246 9.81933 17.3163C9.14763 17.3865 8.46898 17.3133 7.82639 17.1015C7.18379 16.8896 6.59125 16.5436 6.08632 16.0855C5.58138 15.6273 5.17506 15.067 4.8931 14.4399C5.6345 14.5751 6.39495 14.5561 7.129 14.384C7.55064 14.8619 8.11071 15.1895 8.72745 15.319C9.34418 15.4485 9.98527 15.3731 10.5571 15.1038C11.1289 14.8345 11.6015 14.3854 11.9059 13.8221C12.2103 13.2587 12.3305 12.6107 12.249 11.9726C12.1674 11.3346 11.8884 10.7398 11.4527 10.2753C11.017 9.81073 10.4475 9.50072 9.82714 9.39051C9.20683 9.28031 8.5683 9.37567 8.00478 9.66269C7.44126 9.9497 6.98227 10.4133 6.69485 10.9859C6.37028 11.1139 6.02116 11.1635 5.67472 11.1309C5.32829 11.0983 4.99392 10.9842 4.69773 10.7977C4.93548 10.0641 5.33694 9.39704 5.87035 8.84928C6.40377 8.30152 7.05453 7.88807 7.77119 7.64161C8.48786 7.39516 9.25079 7.32245 9.99968 7.42923C10.7486 7.53602 11.4629 7.81937 12.0862 8.25689L13.9583 6.3426H13.0561C12.8913 6.34214 12.7298 6.29504 12.5896 6.20654C12.4494 6.11804 12.3358 5.99158 12.2616 5.84118C12.1145 5.76523 11.9908 5.64918 11.9043 5.50587C11.8177 5.36256 11.7716 5.19757 11.771 5.02914V4.10528L9.89806 6.01867C10.0564 6.25371 10.1947 6.50223 10.3114 6.76149C9.57021 6.62655 8.81002 6.64587 8.07633 6.81829C7.6547 6.34038 7.09463 6.01276 6.47789 5.88327C5.86116 5.75377 5.22007 5.82919 4.64825 6.0985C4.07642 6.36782 3.60382 6.81692 3.29944 7.38024C2.99506 7.94355 2.87486 8.59157 2.95639 9.22966C3.03791 9.86775 3.31689 10.4625 3.75259 10.927C4.18829 11.3916 4.75788 11.7016 5.37819 11.8118C5.99851 11.922 6.63704 11.8266 7.20056 11.5396C7.76408 11.2526 8.22307 10.789 8.51049 10.2164C8.83495 10.0876 9.18425 10.0377 9.53084 10.0705C9.87743 10.1033 10.2118 10.218 10.5076 10.4055C10.186 11.3986 9.56685 12.2632 8.73784 12.8767C7.90883 13.4902 6.91197 13.8217 5.88844 13.824C4.86491 13.8264 3.86659 13.4997 3.03484 12.89C2.2031 12.2803 1.5801 11.4186 1.25406 10.427C0.928027 9.4354 0.915482 8.36407 1.2182 7.36475C1.52093 6.36544 2.12358 5.48878 2.9408 4.85894C3.75803 4.2291 4.74842 3.87799 5.77171 3.85533C6.795 3.83268 7.79933 4.13963 8.64248 4.73272L10.5146 2.81932H9.61065C9.3746 2.81932 9.14822 2.72348 8.98131 2.55289C8.81439 2.3823 8.72063 2.15092 8.72063 1.90966C8.72063 1.6684 8.81439 1.43703 8.98131 1.26643C9.14822 1.09584 9.3746 1 9.61065 1H12.661C12.8968 1.00093 13.1227 1.09707 13.2894 1.26747C13.4561 1.43786 13.5501 1.66869 13.5511 1.90966V4.5215H16.11C16.3457 4.52244 16.5716 4.61858 16.7383 4.78897C16.905 4.95936 16.9991 5.19019 17 5.43116H16.9965Z" fill="url(#paint0_linear_2396_5017)"/>
<defs>
<linearGradient id="paint0_linear_2396_5017" x1="0.998755" y1="9.16813" x2="17" y2="9.16813" gradientUnits="userSpaceOnUse">
<stop stop-color="#E46125"/>
<stop offset="0.5" stop-color="#C91A44"/>
<stop offset="1" stop-color="#A12FA3"/>
</linearGradient>
</defs>
</svg>
