<svg width="18" height="18" viewBox="0 0 18 18" fill="none" xmlns="http://www.w3.org/2000/svg">
<path fill-rule="evenodd" clip-rule="evenodd" d="M6.29367 1.00118C7.19423 1.00197 8.07972 1.23753 8.8664 1.68557C9.65307 2.13361 10.3149 2.77932 10.7894 3.56166C11.2639 4.344 11.5352 5.2371 11.5779 6.15651C11.6205 7.07592 11.433 7.99125 11.0331 8.81594C10.6581 8.70624 10.3142 8.50668 10.0299 8.23384C9.74555 7.961 9.52902 7.62276 9.39828 7.24721C9.56891 6.58485 9.53246 5.88452 9.29403 5.2444C9.0556 4.60428 8.62714 4.05648 8.06873 3.6778C7.51032 3.29911 6.84996 3.10854 6.18023 3.13279C5.5105 3.15704 4.86499 3.39489 4.3342 3.81302C3.80341 4.23114 3.41396 4.80856 3.22044 5.46431C3.02692 6.12007 3.03905 6.82128 3.25512 7.46964C3.47118 8.118 3.88036 8.68099 4.42527 9.07968C4.97019 9.47837 5.62352 9.69277 6.29367 9.69282C6.38794 9.69282 6.48222 9.688 6.5765 9.68029C7.0026 10.3771 7.56028 10.9802 8.21696 11.4543C7.90793 11.5775 7.58815 11.6704 7.26191 11.7318V13.3853H8.48754C8.66836 13.385 8.84556 13.4371 8.99853 13.5356C9.15191 13.4372 9.32937 13.3851 9.51047 13.3853H10.7361V11.7318C9.93121 11.5788 9.17199 11.2371 8.51808 10.7337C7.86417 10.2302 7.33337 9.5786 6.96739 8.83011C6.60141 8.08162 6.4102 7.25659 6.40879 6.41983C6.40738 5.58307 6.59581 4.75738 6.95928 4.0076C7.33492 4.11677 7.6796 4.31609 7.96462 4.58896C8.24963 4.86183 8.46674 5.20035 8.59785 5.57633C8.42721 6.2387 8.46366 6.93903 8.7021 7.57914C8.94053 8.21926 9.36899 8.76706 9.9274 9.14575C10.4858 9.52443 11.1462 9.71501 11.8159 9.69076C12.4856 9.66651 13.1311 9.42865 13.6619 9.01053C14.1927 8.59241 14.5822 8.01499 14.7757 7.35923C14.9692 6.70347 14.9571 6.00226 14.741 5.3539C14.5249 4.70555 14.1158 4.14255 13.5708 3.74386C13.0259 3.34517 12.3726 3.13077 11.7025 3.13073C11.6082 3.13073 11.5139 3.13555 11.4196 3.14325C10.9942 2.44711 10.4379 1.84414 9.78294 1.36927C10.47 1.09566 11.2053 0.971726 11.9419 1.00541C12.6785 1.03909 13.4001 1.22964 14.0605 1.56487C14.7209 1.90009 15.3055 2.37259 15.7768 2.95211C16.2482 3.53162 16.5959 4.20537 16.7978 4.93019C16.9996 5.65502 17.0511 6.41494 16.9489 7.16128C16.8468 7.90763 16.5932 8.62393 16.2045 9.26433C15.8158 9.90472 15.3006 10.4551 14.6917 10.8801C14.0829 11.3052 13.3938 11.5956 12.6688 11.7327V13.3853H13.8944C14.1454 13.3933 14.3834 13.5009 14.5582 13.6851C14.7329 13.8694 14.8306 14.1159 14.8306 14.3725C14.8306 14.6291 14.7329 14.8757 14.5582 15.0599C14.3834 15.2442 14.1454 15.3517 13.8944 15.3597H12.6688V16.6124C12.6688 16.8744 12.567 17.1256 12.3858 17.3108C12.2045 17.496 11.9588 17.6001 11.7025 17.6001C11.4462 17.6001 11.2004 17.496 11.0191 17.3108C10.8379 17.1256 10.7361 16.8744 10.7361 16.6124V15.3597H9.51047C9.32937 15.3599 9.15191 15.3078 8.99853 15.2094C8.84556 15.3079 8.66836 15.3601 8.48754 15.3597H7.26191V16.6124C7.26191 16.8744 7.1601 17.1256 6.97887 17.3108C6.79765 17.496 6.55185 17.6001 6.29555 17.6001C6.03926 17.6001 5.79346 17.496 5.61223 17.3108C5.431 17.1256 5.32919 16.8744 5.32919 16.6124V15.3597H4.10356C3.85262 15.3517 3.61457 15.2442 3.43984 15.0599C3.2651 14.8757 3.16739 14.6291 3.16739 14.3725C3.16739 14.1159 3.2651 13.8694 3.43984 13.6851C3.61457 13.5009 3.85262 13.3933 4.10356 13.3853H5.32919V11.7318C4.03099 11.4859 2.86954 10.7531 2.07274 9.67708C1.27593 8.60109 0.90128 7.25962 1.02229 5.91586C1.14331 4.5721 1.75125 3.32306 2.72684 2.41381C3.70244 1.50455 4.97525 1.00073 6.29555 1.00118H6.29367Z" fill="url(#paint0_linear_2396_5018)"/>
<defs>
<linearGradient id="paint0_linear_2396_5018" x1="0.998755" y1="9.29706" x2="17" y2="9.29706" gradientUnits="userSpaceOnUse">
<stop stop-color="#E46125"/>
<stop offset="0.5" stop-color="#C91A44"/>
<stop offset="1" stop-color="#A12FA3"/>
</linearGradient>
</defs>
</svg>
