<svg width="18" height="18" viewBox="0 0 18 18" fill="none" xmlns="http://www.w3.org/2000/svg">
<path fill-rule="evenodd" clip-rule="evenodd" d="M7.2178 4.56454C8.47489 4.56292 9.70268 4.94415 10.7378 5.65748L13.1251 3.26894H11.9746C11.6799 3.25974 11.4003 3.13617 11.1951 2.92443C10.9899 2.71268 10.8751 2.42936 10.8751 2.13447C10.8751 1.83958 10.9899 1.55627 11.1951 1.34452C11.4003 1.13277 11.6799 1.00921 11.9746 1H15.8645C16.1652 1.00088 16.4534 1.12074 16.6661 1.33341C16.8787 1.54608 16.9986 1.83427 16.9994 2.13503V6.02512C17.0042 6.17708 16.9784 6.32845 16.9235 6.47024C16.8686 6.61203 16.7858 6.74135 16.68 6.85052C16.5742 6.95969 16.4475 7.04649 16.3075 7.10577C16.1676 7.16505 16.0171 7.19559 15.865 7.19559C15.713 7.19559 15.5625 7.16505 15.4225 7.10577C15.2825 7.04649 15.1559 6.95969 15.0501 6.85052C14.9443 6.74135 14.8615 6.61203 14.8066 6.47024C14.7517 6.32845 14.7259 6.17708 14.7306 6.02512V4.87459L12.3423 7.26202C13.1289 8.40745 13.5093 9.78341 13.4226 11.1703C13.3358 12.5572 12.7871 13.875 11.8639 14.9135C10.9406 15.952 9.69616 16.6513 8.32905 16.8998C6.96194 17.1483 5.55101 16.9316 4.32144 16.2843C3.09187 15.6371 2.11454 14.5966 1.54543 13.3289C0.976316 12.0612 0.848229 10.6394 1.18161 9.29045C1.51499 7.94145 2.29063 6.74302 3.38472 5.88642C4.47881 5.02982 5.8283 4.56443 7.2178 4.56454ZM7.2178 7.01176C7.96372 7.01067 8.6932 7.23087 9.31395 7.64451C9.93469 8.05816 10.4188 8.64664 10.705 9.33552C10.9912 10.0244 11.0667 10.7827 10.9218 11.5145C10.777 12.2462 10.4183 12.9186 9.89127 13.4464C9.36421 13.9743 8.69242 14.334 7.96091 14.4799C7.2294 14.6258 6.47105 14.5515 5.7818 14.2663C5.09255 13.9811 4.50339 13.4978 4.08886 12.8776C3.67433 12.2574 3.45307 11.5282 3.45307 10.7823C3.45483 9.78332 3.85279 8.82587 4.55963 8.12002C5.26647 7.41417 6.22444 7.01759 7.22333 7.0173L7.2178 7.01176Z" fill="url(#paint0_linear_2396_5012)"/>
<defs>
<linearGradient id="paint0_linear_2396_5012" x1="0.998755" y1="8.99713" x2="17" y2="8.99713" gradientUnits="userSpaceOnUse">
<stop stop-color="#E46125"/>
<stop offset="0.5" stop-color="#C91A44"/>
<stop offset="1" stop-color="#A12FA3"/>
</linearGradient>
</defs>
</svg>
