<svg width="18" height="18" viewBox="0 0 18 18" fill="none" xmlns="http://www.w3.org/2000/svg">
<path fill-rule="evenodd" clip-rule="evenodd" d="M8.50552 2.84506H8.6283C9.08588 2.82435 9.53103 2.6864 9.92282 2.4439C10.3146 2.20141 10.6405 1.86214 10.8704 1.45729C10.9284 1.35411 11.0057 1.2636 11.0979 1.19094C11.1901 1.11828 11.2953 1.06488 11.4077 1.03381C11.5201 1.00274 11.6373 0.994588 11.7528 1.00983C11.8683 1.02507 11.9796 1.06341 12.0806 1.12265C12.1816 1.18189 12.2701 1.26088 12.3412 1.35509C12.4123 1.44931 12.4645 1.55692 12.4949 1.67177C12.5253 1.78662 12.5333 1.90647 12.5184 2.02447C12.5035 2.14248 12.466 2.25632 12.408 2.35951C12.0998 2.90372 11.6864 3.37812 11.193 3.75384C11.897 4.28837 12.4331 5.02125 12.7355 5.86261C13.0379 6.70397 13.0935 7.61723 12.8955 8.49042C12.6975 9.36362 12.2545 10.1588 11.6208 10.7784C10.9871 11.398 10.1903 11.8152 9.32807 11.9788V13.3854H10.3713C10.4793 13.3854 10.5863 13.4071 10.6861 13.4494C10.7859 13.4916 10.8765 13.5536 10.9529 13.6316C11.0293 13.7097 11.0899 13.8024 11.1312 13.9044C11.1726 14.0064 11.1938 14.1157 11.1938 14.2261C11.1938 14.3365 11.1726 14.4458 11.1312 14.5478C11.0899 14.6498 11.0293 14.7425 10.9529 14.8206C10.8765 14.8986 10.7859 14.9605 10.6861 15.0028C10.5863 15.045 10.4793 15.0668 10.3713 15.0668H9.32807V16.133C9.33151 16.2456 9.31279 16.3577 9.27302 16.4627C9.23325 16.5678 9.17325 16.6635 9.09656 16.7444C9.01988 16.8253 8.92808 16.8896 8.82662 16.9335C8.72516 16.9774 8.6161 17 8.50592 17C8.39574 17 8.28668 16.9774 8.18522 16.9335C8.08376 16.8896 7.99196 16.8253 7.91528 16.7444C7.8386 16.6635 7.77859 16.5678 7.73882 16.4627C7.69905 16.3577 7.68033 16.2456 7.68377 16.133V15.0668H6.64054C6.53252 15.0668 6.42556 15.045 6.32577 15.0028C6.22597 14.9605 6.13529 14.8986 6.05891 14.8206C5.98253 14.7425 5.92194 14.6498 5.88061 14.5478C5.83927 14.4458 5.81799 14.3365 5.81799 14.2261C5.81799 14.1157 5.83927 14.0064 5.88061 13.9044C5.92194 13.8024 5.98253 13.7097 6.05891 13.6316C6.13529 13.5536 6.22597 13.4916 6.32577 13.4494C6.42556 13.4071 6.53252 13.3854 6.64054 13.3854H7.68377V11.9788C6.82151 11.8152 6.0247 11.398 5.39101 10.7784C4.75733 10.1588 4.31433 9.36362 4.11634 8.49042C3.91834 7.61723 3.97396 6.70397 4.27637 5.86261C4.57878 5.02125 5.11483 4.28837 5.8188 3.75384C5.32544 3.37812 4.91206 2.90372 4.60383 2.35951C4.48624 2.15133 4.45438 1.90394 4.51525 1.67175C4.57613 1.43957 4.72476 1.24161 4.92844 1.12142C5.13212 1.00124 5.37417 0.968671 5.60134 1.03089C5.82852 1.09311 6.0222 1.24501 6.13979 1.45319C6.36913 1.8602 6.69534 2.2014 7.08815 2.44516C7.48096 2.68891 7.92764 2.82731 8.38675 2.84752H8.50873L8.50552 2.84506ZM8.62509 4.66097H8.50552H8.38675C7.67424 4.69313 7.00238 5.00916 6.51503 5.54137C6.02768 6.07359 5.7636 6.77969 5.77934 7.50845C5.79507 8.23722 6.08938 8.93072 6.59922 9.44044C7.10907 9.95016 7.79392 10.2356 8.50712 10.2356C9.22033 10.2356 9.90518 9.95016 10.415 9.44044C10.9249 8.93072 11.2192 8.23722 11.2349 7.50845C11.2507 6.77969 10.9866 6.07359 10.4992 5.54137C10.0119 5.00916 9.34001 4.69313 8.6275 4.66097H8.62509Z" fill="url(#paint0_linear_2396_5015)"/>
<defs>
<linearGradient id="paint0_linear_2396_5015" x1="3.9993" y1="8.99713" x2="13.0118" y2="8.99713" gradientUnits="userSpaceOnUse">
<stop stop-color="#E46125"/>
<stop offset="0.5" stop-color="#C91A44"/>
<stop offset="1" stop-color="#A12FA3"/>
</linearGradient>
</defs>
</svg>
