<svg width="18" height="18" viewBox="0 0 18 18" fill="none" xmlns="http://www.w3.org/2000/svg">
<path fill-rule="evenodd" clip-rule="evenodd" d="M5.22126 8.44223C5.21998 7.60327 5.46873 6.78382 5.93439 6.09293L5.46168 5.60895L4.79566 6.28967C4.65514 6.42417 4.46895 6.49755 4.27646 6.49429C4.08397 6.49102 3.90027 6.41138 3.7642 6.27219C3.62812 6.133 3.55034 5.94518 3.5473 5.74845C3.54425 5.55171 3.61619 5.36147 3.74789 5.21796L4.4131 4.53807L3.4823 3.58589V4.35461C3.47593 4.55117 3.39506 4.7375 3.25676 4.87425C3.11846 5.011 2.93357 5.08745 2.74115 5.08745C2.54873 5.08745 2.36383 5.011 2.22554 4.87425C2.08724 4.7375 2.00637 4.55117 2 4.35461V1.75792C2.00043 1.55718 2.07858 1.36479 2.21738 1.22277C2.35618 1.08075 2.54434 1.00066 2.74074 1H5.28136C5.47368 1.00651 5.65599 1.08916 5.78979 1.23051C5.92358 1.37186 5.99838 1.56084 5.99838 1.75751C5.99838 1.95418 5.92358 2.14314 5.78979 2.28449C5.65599 2.42584 5.47368 2.5085 5.28136 2.51501H4.53006L5.46168 3.46718L6.12688 2.78646C6.2672 2.65174 6.45327 2.57807 6.64576 2.58102C6.83826 2.58398 7.02209 2.66333 7.15838 2.8023C7.29467 2.94128 7.37273 3.12897 7.37607 3.32571C7.37941 3.52244 7.30776 3.7128 7.17627 3.85652L6.51106 4.53641L6.98459 5.02038C7.66079 4.54517 8.46213 4.29076 9.28276 4.29076C10.1034 4.29076 10.9047 4.54517 11.5809 5.02038L13.1404 3.42651H12.3891C12.1968 3.42 12.0145 3.33734 11.8807 3.19599C11.7469 3.05464 11.6721 2.86567 11.6721 2.669C11.6721 2.47233 11.7469 2.28336 11.8807 2.14201C12.0145 2.00066 12.1968 1.918 12.3891 1.9115H14.9297C15.1261 1.91215 15.3143 1.99224 15.4531 2.13426C15.5919 2.27628 15.67 2.46868 15.6705 2.66942V5.26776C15.6705 5.46856 15.5924 5.66112 15.4535 5.80311C15.3146 5.94509 15.1262 6.02485 14.9297 6.02485C14.7333 6.02485 14.5448 5.94509 14.4059 5.80311C14.267 5.66112 14.189 5.46856 14.189 5.26776V4.49988L12.6295 6.09376C13.0121 6.66407 13.2492 7.32304 13.3193 8.01081C13.3894 8.69859 13.2903 9.39337 13.031 10.032C12.7716 10.6707 12.3603 11.233 11.8343 11.668C11.3083 12.1029 10.6843 12.3966 10.019 12.5224V13.7908H10.9604C11.1569 13.7908 11.3453 13.8706 11.4842 14.0126C11.6231 14.1546 11.7011 14.3471 11.7011 14.5479C11.7011 14.7487 11.6231 14.9413 11.4842 15.0833C11.3453 15.2253 11.1569 15.305 10.9604 15.305H10.019V16.2672C10.0127 16.4637 9.93179 16.6501 9.79349 16.7868C9.6552 16.9236 9.47031 17 9.27789 17C9.08546 17 8.90058 16.9236 8.76228 16.7868C8.62398 16.6501 8.5431 16.4637 8.53674 16.2672V15.305H7.59944C7.40298 15.305 7.21457 15.2253 7.07565 15.0833C6.93673 14.9413 6.85869 14.7487 6.85869 14.5479C6.85869 14.3471 6.93673 14.1546 7.07565 14.0126C7.21457 13.8706 7.40298 13.7908 7.59944 13.7908H8.53998V12.5224C7.60778 12.3452 6.76561 11.8403 6.15946 11.0951C5.55332 10.3498 5.2214 9.41133 5.22126 8.44223ZM6.81889 8.44223C6.81873 7.94434 6.96305 7.4576 7.23359 7.04355C7.50412 6.62951 7.88873 6.30677 8.33875 6.11616C8.78878 5.92555 9.284 5.87564 9.76178 5.97273C10.2396 6.06982 10.6784 6.30956 11.0229 6.66162C11.3674 7.01368 11.6019 7.46224 11.6969 7.95056C11.7919 8.43889 11.7431 8.94504 11.5566 9.405C11.3701 9.86495 11.0543 10.258 10.6492 10.5346C10.2441 10.8111 9.76786 10.9586 9.28073 10.9584C8.62787 10.9582 8.00182 10.693 7.54019 10.2212C7.07855 9.74936 6.81911 9.10949 6.81889 8.44223Z" fill="url(#paint0_linear_2396_5011)"/>
<defs>
<linearGradient id="paint0_linear_2396_5011" x1="1.99894" y1="8.99713" x2="15.6704" y2="8.99713" gradientUnits="userSpaceOnUse">
<stop stop-color="#E46125"/>
<stop offset="0.5" stop-color="#C91A44"/>
<stop offset="1" stop-color="#A12FA3"/>
</linearGradient>
</defs>
</svg>
