<svg width="18" height="18" viewBox="0 0 18 18" fill="none" xmlns="http://www.w3.org/2000/svg">
<path d="M4.90255 1.59716L16.424 13.1186C16.5328 13.2274 16.5328 13.4049 16.424 13.5149L13.6936 16.2452C13.5849 16.354 13.4074 16.354 13.2973 16.2452L1.77591 4.7238C1.66715 4.61504 1.66715 4.43752 1.77591 4.3275L4.50625 1.59716C4.61501 1.48714 4.79254 1.48714 4.90255 1.59716Z" fill="#EAA700"/>
<path d="M4.90255 1.59716L15.9089 12.6035C16.0177 12.7123 13.5249 15.0376 13.4149 15.1464L13.5411 16.3228C13.5411 16.3228 13.4061 16.354 13.2973 16.244L1.77591 4.7238C1.66715 4.61504 1.66715 4.43752 1.77591 4.3275L4.50625 1.59716C4.61501 1.48714 4.79254 1.48714 4.90255 1.59716Z" fill="#BF8400"/>
<path d="M4.90283 1.59716L16.1155 12.8098C16.2242 12.9186 16.473 13.1674 16.473 13.1674C16.473 13.1674 16.1355 13.1849 15.7242 13.5949C15.3129 14.005 13.6739 15.6452 13.6739 15.6452C13.5652 15.7539 13.3876 15.7539 13.2776 15.6452L2.06497 4.43376C1.95621 4.325 1.95621 4.14748 2.06497 4.03747L4.50653 1.59716C4.61529 1.48714 4.79281 1.48714 4.90283 1.59716Z" fill="url(#paint0_linear_4500_29023)"/>
<path d="M10.0234 8.10655C9.98467 8.1453 9.92217 8.1453 9.88343 8.10655L9.66969 7.89281C9.63094 7.85406 9.63094 7.79157 9.66969 7.75282L10.3122 7.11035L10.6659 7.46408L10.0234 8.10655Z" fill="#795548"/>
<path d="M10.7187 7.41135L10.4699 7.66009L10.1162 7.30635L10.3649 7.05762L10.7187 7.41135Z" fill="url(#paint1_linear_4500_29023)"/>
<path d="M7.66795 5.75206C7.6292 5.79081 7.5667 5.79081 7.52796 5.75206L7.31422 5.53832C7.27547 5.49957 7.27547 5.43707 7.31422 5.39833L7.95668 4.75586L8.31041 5.10959L7.66795 5.75206Z" fill="#795548"/>
<path d="M8.36321 5.05734L8.11447 5.30608L7.76074 4.9536L8.00948 4.70361L8.36321 5.05734Z" fill="url(#paint2_linear_4500_29023)"/>
<path d="M6.16587 4.98984C6.12713 5.02859 6.06463 5.02859 6.02588 4.98984L5.7234 4.68736C5.68465 4.64861 5.68465 4.58611 5.7234 4.54737L6.78834 3.48242L7.23082 3.9249L6.16587 4.98984Z" fill="#795548"/>
<path d="M7.23125 3.92511L6.98252 4.17385L6.54004 3.73262L6.79003 3.48389L7.23125 3.92511Z" fill="url(#paint3_linear_4500_29023)"/>
<path d="M12.3769 10.4591C12.3382 10.4978 12.2757 10.4978 12.2369 10.4591L12.0232 10.2454C11.9845 10.2066 11.9845 10.1441 12.0232 10.1054L12.6657 9.46289L13.0194 9.81662L12.3769 10.4591Z" fill="#795548"/>
<path d="M13.0702 9.7641L12.8215 10.0141L12.4678 9.66036L12.7178 9.41162L13.0702 9.7641Z" fill="url(#paint4_linear_4500_29023)"/>
<path d="M14.7295 12.8136C14.6907 12.8523 14.6282 12.8523 14.5895 12.8136L14.3757 12.5998C14.337 12.5611 14.337 12.4986 14.3757 12.4598L15.0182 11.8174L15.3719 12.1711L14.7295 12.8136Z" fill="#795548"/>
<path d="M15.4247 12.1184L15.176 12.3671L14.8223 12.0134L15.071 11.7646L15.4247 12.1184Z" fill="url(#paint5_linear_4500_29023)"/>
<path d="M8.52037 7.34385C8.48162 7.3826 8.41912 7.3826 8.38037 7.34385L8.07789 7.04136C8.03914 7.00262 8.03914 6.94012 8.07789 6.90137L9.14283 5.83643L9.58531 6.2789L8.52037 7.34385Z" fill="#795548"/>
<path d="M9.58477 6.2789L9.33603 6.52764L8.89355 6.08641L9.14229 5.83643L9.58477 6.2789Z" fill="url(#paint6_linear_4500_29023)"/>
<path d="M10.8739 9.69687C10.8351 9.73562 10.7726 9.73562 10.7339 9.69687L10.4314 9.39439C10.3927 9.35564 10.3927 9.29315 10.4314 9.2544L11.4963 8.18945L11.9388 8.63193L10.8739 9.69687Z" fill="#795548"/>
<path d="M11.9393 8.63291L11.6893 8.88164L11.248 8.43917L11.4968 8.19043L11.9393 8.63291Z" fill="url(#paint7_linear_4500_29023)"/>
<path d="M13.2264 12.0509C13.1877 12.0896 13.1252 12.0896 13.0864 12.0509L12.7839 11.7484C12.7452 11.7096 12.7452 11.6472 12.7839 11.6084L13.8489 10.5435L14.2914 10.9859L13.2264 12.0509Z" fill="#795548"/>
<path d="M14.2918 10.9857L14.0431 11.2344L13.6006 10.7932L13.8493 10.5444L14.2918 10.9857Z" fill="url(#paint8_linear_4500_29023)"/>
<path d="M5.31541 3.39854C5.27666 3.43729 5.21416 3.43729 5.17542 3.39854L4.96168 3.1848C4.92293 3.14605 4.92293 3.08356 4.96168 3.04481L5.60414 2.40234L5.95788 2.75608L5.31541 3.39854Z" fill="#795548"/>
<path d="M6.01067 2.70481L5.76068 2.95354L5.4082 2.59981L5.65694 2.35107L6.01067 2.70481Z" fill="url(#paint9_linear_4500_29023)"/>
<path d="M5.31541 3.39854C5.27666 3.43729 5.21416 3.43729 5.17542 3.39854L4.96168 3.1848C4.92293 3.14605 4.92293 3.08356 4.96168 3.04481L5.60414 2.40234L5.95788 2.75608L5.31541 3.39854Z" fill="#795548"/>
<path d="M6.01067 2.70481L5.76068 2.95354L5.4082 2.59981L5.65694 2.35107L6.01067 2.70481Z" fill="url(#paint10_linear_4500_29023)"/>
<defs>
<linearGradient id="paint0_linear_4500_29023" x1="8.56396" y1="9.3087" x2="11.419" y2="6.45368" gradientUnits="userSpaceOnUse">
<stop offset="0.5456" stop-color="#FDD835"/>
<stop offset="0.8933" stop-color="#F9A825"/>
</linearGradient>
<linearGradient id="paint1_linear_4500_29023" x1="10.3079" y1="7.47656" x2="10.4591" y2="7.31378" gradientUnits="userSpaceOnUse">
<stop stop-color="#5D4037" stop-opacity="0"/>
<stop offset="1" stop-color="#5D4037"/>
</linearGradient>
<linearGradient id="paint2_linear_4500_29023" x1="7.95293" y1="5.12305" x2="8.1041" y2="4.96028" gradientUnits="userSpaceOnUse">
<stop stop-color="#5D4037" stop-opacity="0"/>
<stop offset="1" stop-color="#5D4037"/>
</linearGradient>
<linearGradient id="paint3_linear_4500_29023" x1="6.77545" y1="3.94812" x2="6.92849" y2="3.78331" gradientUnits="userSpaceOnUse">
<stop stop-color="#5D4037" stop-opacity="0"/>
<stop offset="1" stop-color="#5D4037"/>
</linearGradient>
<linearGradient id="paint4_linear_4500_29023" x1="12.6602" y1="9.83007" x2="12.8114" y2="9.66728" gradientUnits="userSpaceOnUse">
<stop stop-color="#5D4037" stop-opacity="0"/>
<stop offset="1" stop-color="#5D4037"/>
</linearGradient>
<linearGradient id="paint5_linear_4500_29023" x1="15.0141" y1="12.1838" x2="15.1653" y2="12.021" gradientUnits="userSpaceOnUse">
<stop stop-color="#5D4037" stop-opacity="0"/>
<stop offset="1" stop-color="#5D4037"/>
</linearGradient>
<linearGradient id="paint6_linear_4500_29023" x1="9.12847" y1="6.30141" x2="9.28151" y2="6.1366" gradientUnits="userSpaceOnUse">
<stop stop-color="#5D4037" stop-opacity="0"/>
<stop offset="1" stop-color="#5D4037"/>
</linearGradient>
<linearGradient id="paint7_linear_4500_29023" x1="11.4827" y1="8.65516" x2="11.6357" y2="8.49035" gradientUnits="userSpaceOnUse">
<stop stop-color="#5D4037" stop-opacity="0"/>
<stop offset="1" stop-color="#5D4037"/>
</linearGradient>
<linearGradient id="paint8_linear_4500_29023" x1="13.8358" y1="11.0084" x2="13.9888" y2="10.8436" gradientUnits="userSpaceOnUse">
<stop stop-color="#5D4037" stop-opacity="0"/>
<stop offset="1" stop-color="#5D4037"/>
</linearGradient>
<linearGradient id="paint9_linear_4500_29023" x1="5.59964" y1="2.76976" x2="5.7508" y2="2.60697" gradientUnits="userSpaceOnUse">
<stop stop-color="#5D4037" stop-opacity="0"/>
<stop offset="1" stop-color="#5D4037"/>
</linearGradient>
<linearGradient id="paint10_linear_4500_29023" x1="5.59964" y1="2.76976" x2="5.7508" y2="2.60697" gradientUnits="userSpaceOnUse">
<stop stop-color="#5D4037" stop-opacity="0"/>
<stop offset="1" stop-color="#5D4037"/>
</linearGradient>
</defs>
</svg>
