<svg width="18" height="18" viewBox="0 0 18 18" fill="none" xmlns="http://www.w3.org/2000/svg">
<path opacity="0.5" d="M5.80215 10.8455C6.54836 10.5193 9.39321 10.0443 9.54071 9.10936C9.77944 7.60444 7.30707 7.4982 6.21338 7.4357C4.92345 7.36321 3.86351 6.93573 3.01105 6.14327C1.78611 5.06833 1.26739 2.45846 2.80981 1.47852C2.80981 1.47852 2.73106 2.7772 3.68226 3.27467C6.03464 4.50461 8.96449 3.20467 11.4231 4.13713C12.7968 4.6421 13.6305 6.09577 13.158 7.5057C12.8755 8.84813 11.0356 10.0731 9.27572 10.3443C6.94084 10.703 5.80215 10.8455 5.80215 10.8455Z" fill="#BDBDBD"/>
<path d="M15.8226 15.9865H3.26953V13.0967H15.8226C15.8226 13.0967 16.4988 13.3404 16.4988 14.5416C16.4988 15.7428 15.8226 15.9865 15.8226 15.9865Z" fill="#EEEEEE"/>
<path d="M15.8226 15.9865H3.26953V13.0967H15.8226C15.8226 13.0967 16.4988 13.3404 16.4988 14.5416C16.4988 15.7428 15.8226 15.9865 15.8226 15.9865Z" fill="url(#paint0_linear_4500_30305)"/>
<path d="M15.823 13.0967H12.5957C12.5957 13.0967 13.2719 13.3404 13.2719 14.5416C13.2719 15.7428 12.5957 15.9865 12.5957 15.9865H15.823C15.823 15.9865 16.4992 15.7428 16.4992 14.5416C16.4992 13.3404 15.823 13.0967 15.823 13.0967Z" fill="#F19534"/>
<path d="M16.4451 15.0765C16.4439 15.069 16.4339 15.0328 16.3726 14.9803C16.3114 14.9278 16.2377 14.8965 16.1564 14.9053C16.1314 14.9078 16.1064 14.914 16.0877 14.9303C16.0552 14.9565 16.0464 15.0015 16.0527 15.0428C16.0589 15.0828 16.1702 15.2753 16.1864 15.6827C16.2876 15.544 16.3864 15.349 16.4451 15.0765Z" fill="#FFCC80"/>
<path d="M14.269 14.6915C14.3203 14.7415 14.3715 14.7977 14.3815 14.8689C14.3928 14.9489 14.349 15.0252 14.3003 15.0889C14.2453 15.1589 14.1828 15.2227 14.1116 15.2764C14.0853 15.2964 14.0553 15.3164 14.0228 15.3152C13.9591 15.3127 13.9278 15.2364 13.9141 15.1739C13.8603 14.9464 13.8191 14.7165 13.7891 14.484C13.7866 14.4627 13.7841 14.439 13.7978 14.4227C13.8891 14.3065 14.2178 14.6427 14.269 14.6915Z" fill="#FFCC80"/>
<path d="M15.2812 14.4065C15.3537 14.364 15.4225 14.314 15.475 14.249C15.5274 14.1827 15.5599 14.1002 15.5512 14.0165C15.5487 13.9927 15.5412 13.9665 15.5212 13.954C15.5 13.9415 15.4737 13.9477 15.45 13.954C15.2912 13.9977 15.135 14.0502 14.9825 14.1127C14.9612 14.1215 14.9387 14.1315 14.9225 14.149C14.9062 14.1665 14.8987 14.1915 14.8912 14.214C14.8737 14.2777 14.865 14.3427 14.8625 14.4077C14.8537 14.674 15.1662 14.4752 15.2812 14.4065Z" fill="#FFCC80"/>
<path d="M14.4007 13.5814C14.3944 13.6252 14.3494 13.6527 14.3094 13.6714C14.2044 13.7177 14.0894 13.7477 13.9757 13.7402C13.8245 13.7314 13.422 13.4452 13.7307 13.4114C13.8432 13.3989 14.4182 13.4527 14.4007 13.5814Z" fill="#FFCC80"/>
<path d="M14.8352 15.1988C14.8915 15.1588 14.9852 15.1913 15.0415 15.2338C15.2614 15.4013 15.3152 15.3388 15.4664 15.2863C15.6339 15.2276 15.6214 15.3463 15.5564 15.4426C15.4827 15.5526 15.1802 15.7538 15.0127 15.7151C14.909 15.6926 14.7752 15.2426 14.8352 15.1988Z" fill="#FFCC80"/>
<path d="M16.4993 14.4866C16.4918 14.0204 16.3743 13.6842 16.2468 13.4917C16.2218 13.4954 16.1968 13.5054 16.1718 13.5217C16.108 13.5654 15.9893 13.8542 16.0031 13.9129C16.0293 14.0292 16.378 14.3617 16.4993 14.4866Z" fill="#FFCC80"/>
<path d="M15.0049 13.3392C15.1374 13.4904 15.2361 13.3629 15.2624 13.3054C15.2924 13.2392 15.2961 13.1667 15.2849 13.0967H14.7236C14.8061 13.1592 14.8899 13.2067 15.0049 13.3392Z" fill="#FFCC80"/>
<path d="M13.4406 15.7078C13.5493 15.6316 13.7093 15.6078 13.7981 15.7091C13.8818 15.804 13.9568 15.9153 14.0518 15.9865H13.2568C13.3243 15.854 13.3918 15.7415 13.4406 15.7078Z" fill="#FFCC80"/>
<path d="M4.06966 14.1105C3.99467 14.0081 3.85593 13.9593 3.80093 13.8456C3.72968 13.6993 3.82968 13.5181 3.77468 13.3643C3.71843 13.2043 3.52844 13.1456 3.36345 13.1081C3.26096 13.0844 3.13721 13.0856 3.03722 13.1181C2.99847 13.1306 2.96097 13.1481 2.92097 13.1606C2.76098 13.2118 2.59599 13.1593 2.43225 13.1793C2.33101 13.1918 2.22726 13.2281 2.16476 13.3081C2.13102 13.3518 2.11102 13.4056 2.07727 13.4493C2.01352 13.5281 1.90728 13.5393 1.82728 13.5968C1.75104 13.6518 1.66604 13.7056 1.62729 13.7956C1.5648 13.9406 1.64979 14.108 1.62104 14.263C1.60479 14.3493 1.55605 14.4243 1.5273 14.5068C1.52355 14.518 1.5198 14.5293 1.5173 14.5405C1.48105 14.6768 1.5023 14.828 1.57605 14.948C1.64354 15.0555 1.74979 15.1392 1.79228 15.2592C1.82978 15.3655 1.78978 15.4817 1.82853 15.5867C1.86353 15.6817 1.96478 15.733 2.05977 15.7492C2.24976 15.7805 2.436 15.808 2.62349 15.8617C2.73098 15.893 2.83223 15.9442 2.93722 15.9804C3.15971 16.0579 3.44595 16.0167 3.65469 15.9092C3.73843 15.8655 3.80843 15.7842 3.81093 15.6905C3.81218 15.663 3.80718 15.6342 3.81593 15.608C3.82593 15.5767 3.85218 15.5555 3.87342 15.5305C3.94717 15.4392 3.93592 15.3055 3.90967 15.1905C3.88342 15.0755 3.84718 14.9543 3.88467 14.843C3.90717 14.7743 3.95467 14.718 3.99592 14.658C4.05342 14.578 4.10091 14.4893 4.12091 14.393C4.12341 14.3818 4.12466 14.3705 4.12591 14.358C4.13716 14.2718 4.12091 14.1805 4.06966 14.1105Z" fill="#607D8B"/>
<path d="M1.96705 15.3928C1.9958 15.6165 2.46203 15.7503 2.41828 15.4378C2.39078 15.2491 2.27704 15.2141 2.22204 15.1053C2.17579 15.0391 2.16079 14.9866 2.20704 14.9178C2.26579 14.7966 2.30704 14.6166 2.21204 14.5216C2.02705 14.3516 1.73957 14.5541 1.84956 14.7853C1.89581 14.8841 2.05705 14.9041 2.09455 15.0078C2.14579 15.1578 1.92831 15.2328 1.96705 15.3928Z" fill="#F44336"/>
<path d="M2.78979 13.5539C2.83104 13.6539 2.79854 13.8064 2.82854 13.8989C2.88603 14.0789 3.08102 14.0489 3.17227 14.3101C3.22852 14.4713 3.25352 14.7201 3.07352 14.9013C3.01728 14.9576 2.92228 14.9801 2.88228 14.9476C2.76604 14.8613 2.76479 14.7276 2.80604 14.5413C2.81479 14.5026 2.78729 14.5001 2.77604 14.4851C2.69104 14.4363 2.62355 14.3638 2.64105 14.2588C2.6673 14.1014 2.81729 14.0339 2.77229 13.9001C2.74354 13.8126 2.6848 13.7514 2.5798 13.7551C2.5023 13.7576 2.5148 13.8264 2.41106 13.8726C2.33856 13.9051 2.24107 13.7926 2.16482 13.8226C2.08858 13.8526 2.17357 14.1039 2.00983 14.1714C1.94733 14.1976 1.88484 14.1351 1.85734 14.0789C1.81109 13.9914 1.84109 13.8376 1.93483 13.7876C2.01358 13.7439 2.07983 13.8189 2.15607 13.7689C2.23232 13.7189 2.21482 13.5051 2.31106 13.4164C2.5023 13.2614 2.72604 13.3489 2.78979 13.5539Z" fill="#F44336"/>
<path opacity="0.5" d="M3.04017 10.9707C3.91888 9.83704 5.3738 9.52331 6.66373 9.08083C7.13746 8.91834 7.91866 8.62835 7.79867 8.11713C7.62243 7.36467 6.16376 7.46342 5.59254 7.36217C4.24886 7.12468 3.06767 6.51722 2.37396 5.34228C1.79774 4.43857 1.42526 2.38993 2.81018 1.47998C2.81018 1.47998 1.94273 2.72616 3.65764 4.31858C5.57504 6.09974 8.76362 4.78981 10.931 6.18973C13.5209 8.01339 11.2247 10.042 8.88236 10.4045C7.82867 10.5683 6.77122 10.707 5.72003 10.8582C4.3551 11.0532 3.30016 11.3482 2.53395 12.5681C2.46145 11.9894 2.67769 11.4332 3.04017 10.9707Z" fill="#BDBDBD"/>
<path d="M3.48342 13.2442C3.58592 13.2992 3.68466 13.4017 3.66466 13.5154C3.65591 13.5679 3.62342 13.6117 3.60342 13.6617C3.55342 13.7854 3.59217 13.9391 3.69341 14.0254C3.78216 14.0991 3.9134 14.1304 3.9609 14.2354C4.00715 14.3366 3.9484 14.4554 3.8734 14.5391C3.77466 14.6504 3.61342 14.7778 3.62342 14.9428C3.62842 15.0241 3.66466 15.0991 3.70716 15.1678C3.72716 15.1991 3.74841 15.2303 3.75841 15.2666C3.76841 15.3028 3.76591 15.3441 3.74091 15.3716C3.72091 15.3928 3.69091 15.4016 3.66591 15.4178C3.60467 15.4591 3.58842 15.5416 3.58592 15.6153C3.58342 15.6841 3.59717 15.8153 3.54842 15.8715C3.50717 15.9203 3.28593 15.9865 3.22344 15.9865C3.38593 15.9865 3.69466 16.0528 3.77591 15.8628C3.79216 15.8253 3.79591 15.784 3.81216 15.7478C3.85465 15.6478 3.96715 15.6003 4.04714 15.5278C4.12214 15.4591 4.17089 15.3616 4.18214 15.2603C4.18964 15.1878 4.17839 15.1141 4.18089 15.0403C4.18589 14.8366 4.34463 14.8141 4.46212 14.6791C4.51837 14.6154 4.55087 14.5329 4.55962 14.4479C4.56712 14.3841 4.56212 14.3191 4.54462 14.2566C4.50462 14.1129 4.40587 13.9904 4.28838 13.8991C4.17589 13.8116 4.02964 13.7292 4.01839 13.5867C4.01464 13.5417 4.02714 13.4967 4.02964 13.4504C4.03964 13.2379 3.82216 13.1967 3.69216 13.1429C3.56217 13.0892 3.21094 13.0954 3.21094 13.0954C3.28968 13.1617 3.39218 13.1954 3.48342 13.2442Z" fill="#424242"/>
<path d="M15.823 13.0967H12.5957C12.5957 13.0967 13.2719 13.3404 13.2719 14.5416C13.2719 15.7428 12.5957 15.9865 12.5957 15.9865H15.823C15.823 15.9865 16.4992 15.7428 16.4992 14.5416C16.4992 13.3404 15.823 13.0967 15.823 13.0967Z" fill="url(#paint1_linear_4500_30305)"/>
<defs>
<linearGradient id="paint0_linear_4500_30305" x1="9.88416" y1="16.8222" x2="9.88416" y2="15.0309" gradientUnits="userSpaceOnUse">
<stop stop-color="#BDBDBD"/>
<stop offset="1" stop-color="#BDBDBD" stop-opacity="0"/>
</linearGradient>
<linearGradient id="paint1_linear_4500_30305" x1="14.5478" y1="16.8222" x2="14.5478" y2="15.0309" gradientUnits="userSpaceOnUse">
<stop stop-color="#A15D38"/>
<stop offset="1" stop-color="#A15D38" stop-opacity="0"/>
</linearGradient>
</defs>
</svg>
