<svg width="24" height="25" viewBox="0 0 24 25" fill="none" xmlns="http://www.w3.org/2000/svg">
<path d="M20.1929 9.21298C20.1362 9.07594 20.04 8.95881 19.9167 8.8764C19.7933 8.79399 19.6483 8.75 19.5 8.75H4.5C4.35167 8.75 4.20666 8.79399 4.08332 8.8764C3.95998 8.95881 3.86385 9.07595 3.80709 9.213C3.75032 9.35004 3.73547 9.50084 3.76441 9.64633C3.79336 9.79182 3.86479 9.92546 3.96968 10.0303L11.4697 17.5303C11.5393 17.6 11.622 17.6552 11.713 17.6929C11.804 17.7306 11.9015 17.75 12 17.75C12.0985 17.75 12.196 17.7306 12.287 17.6929C12.378 17.6552 12.4607 17.6 12.5303 17.5303L20.0303 10.0303C20.1352 9.92545 20.2067 9.79181 20.2356 9.64632C20.2645 9.50084 20.2497 9.35003 20.1929 9.21298Z" fill="#A9A9A9"/>
</svg>
