<svg width="24" height="25" viewBox="0 0 24 25" fill="none" xmlns="http://www.w3.org/2000/svg">
<path d="M2 12.5H22M2 12.5C2 18.0228 6.47715 22.5 12 22.5M2 12.5C2 6.97715 6.47715 2.5 12 2.5M22 12.5C22 18.0228 17.5228 22.5 12 22.5M22 12.5C22 6.97715 17.5228 2.5 12 2.5M12 2.5C14.5013 5.23835 15.9228 8.79203 16 12.5C15.9228 16.208 14.5013 19.7616 12 22.5M12 2.5C9.49872 5.23835 8.07725 8.79203 8 12.5C8.07725 16.208 9.49872 19.7616 12 22.5" stroke="black" stroke-width="2" stroke-linecap="round" stroke-linejoin="round"/>
</svg>
