<svg width="24" height="25" viewBox="0 0 24 25" fill="none" xmlns="http://www.w3.org/2000/svg">
<path d="M13.9998 21.5H9.99977M17.9998 8.5C17.9998 6.9087 17.3676 5.38258 16.2424 4.25736C15.1172 3.13214 13.5911 2.5 11.9998 2.5C10.4085 2.5 8.88235 3.13214 7.75713 4.25736C6.63192 5.38258 5.99977 6.9087 5.99977 8.5C5.99977 11.5902 5.22024 13.706 4.34944 15.1054C3.6149 16.2859 3.24763 16.8761 3.2611 17.0408C3.27601 17.2231 3.31463 17.2926 3.46155 17.4016C3.59423 17.5 4.19237 17.5 5.38863 17.5H18.6109C19.8072 17.5 20.4053 17.5 20.538 17.4016C20.6849 17.2926 20.7235 17.2231 20.7384 17.0408C20.7519 16.8761 20.3846 16.2859 19.6501 15.1054C18.7793 13.706 17.9998 11.5902 17.9998 8.5Z" stroke="black" stroke-width="2" stroke-linecap="round" stroke-linejoin="round"/>
</svg>
