<svg width="48" height="48" viewBox="0 0 48 48" fill="none" xmlns="http://www.w3.org/2000/svg">
<rect x="1.5" y="1.5" width="45" height="45" rx="22.5" fill="white"/>
<path d="M21 15H27M15 18H33M31 18L30.2987 28.5193C30.1935 30.0975 30.1409 30.8867 29.8 31.485C29.4999 32.0118 29.0472 32.4353 28.5017 32.6997C27.882 33 27.0911 33 25.5093 33H22.4907C20.9089 33 20.118 33 19.4983 32.6997C18.9528 32.4353 18.5001 32.0118 18.2 31.485C17.8591 30.8867 17.8065 30.0975 17.7013 28.5193L17 18M22 22.5V27.5M26 22.5V27.5" stroke="#E46125" stroke-width="2" stroke-linecap="round" stroke-linejoin="round"/>
<rect x="1.5" y="1.5" width="45" height="45" rx="22.5" stroke="url(#paint0_linear_2972_4003)" stroke-width="3"/>
<defs>
<linearGradient id="paint0_linear_2972_4003" x1="-0.00373635" y1="23.9914" x2="48" y2="23.9914" gradientUnits="userSpaceOnUse">
<stop stop-color="#E46125"/>
<stop offset="1" stop-color="#C91A44"/>
</linearGradient>
</defs>
</svg>
