<svg width="38" height="38" viewBox="0 0 38 38" fill="none" xmlns="http://www.w3.org/2000/svg">
<rect x="1.5" y="1.5" width="35" height="35" rx="17.5" fill="white"/>
<path d="M19 15.6671V19.0005M19 22.3338H19.0083M11.5 15.6183V22.3826C11.5 22.6681 11.5 22.8109 11.5421 22.9382C11.5793 23.0509 11.6401 23.1543 11.7205 23.2415C11.8114 23.3401 11.9362 23.4095 12.1858 23.5481L18.3525 26.9741C18.5888 27.1054 18.707 27.171 18.8321 27.1968C18.9429 27.2195 19.0571 27.2195 19.1679 27.1968C19.293 27.171 19.4112 27.1054 19.6475 26.9741L25.8142 23.5481C26.0638 23.4095 26.1886 23.3401 26.2795 23.2415C26.3599 23.1543 26.4207 23.0509 26.4579 22.9382C26.5 22.8109 26.5 22.6681 26.5 22.3826V15.6183C26.5 15.3328 26.5 15.19 26.4579 15.0627C26.4207 14.9501 26.3599 14.8467 26.2795 14.7594C26.1886 14.6608 26.0638 14.5915 25.8142 14.4528L19.6475 11.0269C19.4112 10.8956 19.293 10.8299 19.1679 10.8042C19.0571 10.7814 18.9429 10.7814 18.8321 10.8042C18.707 10.8299 18.5888 10.8956 18.3525 11.0269L12.1858 14.4528C11.9362 14.5915 11.8114 14.6608 11.7205 14.7594C11.6401 14.8467 11.5793 14.9501 11.5421 15.0627C11.5 15.19 11.5 15.3328 11.5 15.6183Z" stroke="#E46125" stroke-width="2" stroke-linecap="round" stroke-linejoin="round"/>
<rect x="1.5" y="1.5" width="35" height="35" rx="17.5" stroke="url(#paint0_linear_2972_4366)" stroke-width="3"/>
<defs>
<linearGradient id="paint0_linear_2972_4366" x1="-0.00295795" y1="18.9932" x2="38" y2="18.9932" gradientUnits="userSpaceOnUse">
<stop stop-color="#E46125"/>
<stop offset="1" stop-color="#C91A44"/>
</linearGradient>
</defs>
</svg>
