<svg width="48" height="48" viewBox="0 0 48 48" fill="none" xmlns="http://www.w3.org/2000/svg">
<rect x="1.5" y="1.5" width="45" height="45" rx="22.5" fill="white"/>
<path d="M20.59 25.51L27.42 29.49M27.41 18.51L20.59 22.49M33 17C33 18.6569 31.6569 20 30 20C28.3431 20 27 18.6569 27 17C27 15.3431 28.3431 14 30 14C31.6569 14 33 15.3431 33 17ZM21 24C21 25.6569 19.6569 27 18 27C16.3431 27 15 25.6569 15 24C15 22.3431 16.3431 21 18 21C19.6569 21 21 22.3431 21 24ZM33 31C33 32.6569 31.6569 34 30 34C28.3431 34 27 32.6569 27 31C27 29.3431 28.3431 28 30 28C31.6569 28 33 29.3431 33 31Z" stroke="#E46125" stroke-width="2" stroke-linecap="round" stroke-linejoin="round"/>
<rect x="1.5" y="1.5" width="45" height="45" rx="22.5" stroke="url(#paint0_linear_2972_4368)" stroke-width="3"/>
<defs>
<linearGradient id="paint0_linear_2972_4368" x1="-0.00373635" y1="23.9914" x2="48" y2="23.9914" gradientUnits="userSpaceOnUse">
<stop stop-color="#E46125"/>
<stop offset="1" stop-color="#C91A44"/>
</linearGradient>
</defs>
</svg>
