<svg width="48" height="48" viewBox="0 0 48 48" fill="none" xmlns="http://www.w3.org/2000/svg">
<rect x="1.5" y="1.5" width="45" height="45" rx="22.5" fill="white"/>
<path d="M22 25L26 21M26 25L22 21M24.0068 17.1358C26.0062 14.7984 29.3403 14.1696 31.8453 16.31C34.3504 18.4504 34.703 22.029 32.7358 24.5604C31.2499 26.4724 27.0287 30.311 25.052 32.0749C24.6886 32.3991 24.5069 32.5613 24.2942 32.6251C24.1095 32.6805 23.9042 32.6805 23.7195 32.6251C23.5068 32.5613 23.3251 32.3991 22.9617 32.0749C20.985 30.311 16.7638 26.4724 15.2779 24.5604C13.3107 22.029 13.6203 18.4279 16.1684 16.31C18.7165 14.1922 22.0075 14.7984 24.0068 17.1358ZM23.9932 17.1358C21.9938 14.7984 18.6597 14.1696 16.1547 16.31C13.6496 18.4504 13.297 22.029 15.2642 24.5604C16.7501 26.4724 20.9713 30.311 22.948 32.0749C23.3114 32.3991 23.4931 32.5613 23.7058 32.6251C23.8905 32.6805 24.0958 32.6805 24.2805 32.6251C24.4932 32.5613 24.6749 32.3991 25.0383 32.0749C27.015 30.311 31.2362 26.4724 32.7221 24.5604C34.6893 22.029 34.3797 18.4279 31.8316 16.31C29.2835 14.1922 25.9925 14.7984 23.9932 17.1358Z" stroke="#E46125" stroke-width="2" stroke-linecap="round" stroke-linejoin="round"/>
<rect x="1.5" y="1.5" width="45" height="45" rx="22.5" stroke="url(#paint0_linear_2972_4364)" stroke-width="3"/>
<defs>
<linearGradient id="paint0_linear_2972_4364" x1="-0.00373635" y1="23.9914" x2="48" y2="23.9914" gradientUnits="userSpaceOnUse">
<stop stop-color="#E46125"/>
<stop offset="1" stop-color="#C91A44"/>
</linearGradient>
</defs>
</svg>
