<svg width="128" height="109" viewBox="0 0 128 109" fill="none" xmlns="http://www.w3.org/2000/svg">
<path d="M104.974 106.68C93.3918 108.784 94.2677 108.784 84.608 108.784C74.9483 108.784 75.3487 108.784 65.6891 108.784C56.0289 108.784 53.7276 108.784 44.0675 108.784C34.4073 108.784 37.3554 106.532 27.6952 106.532C21.8776 106.532 19.068 107.613 11.6352 99.3243C6.90528 91.2162 5.55464 92.7676 5.55464 83.1081C5.55464 73.4485 4.20153 77.4286 0.824219 58.1081C2.17557 36.4865 5.55475 42.7683 5.55475 33.1081C9.60905 23.6486 5.55464 24.3243 11.6352 16.8919C16.3647 10.1351 21.8776 7.43243 27.6952 7.43243C37.3545 7.43243 37.3559 1.35135 47.0154 1.35135C56.6752 1.35135 55.3537 0 65.0134 0C74.6736 0 75.995 1.35135 85.6552 1.35135C95.3155 1.35135 95.3142 8.25026 104.974 8.25026C110.284 10.8108 113.662 12.8378 115.956 18.8832C119.303 27.7027 124.473 26.827 124.473 36.4865C124.473 46.1461 127.176 46.4214 127.176 56.0811C127.176 65.7412 125.824 67.3667 125.824 77.027C125.824 86.6872 120.419 89.1892 117.04 95.9459C115.689 104.73 112.311 104.054 104.974 106.68Z" fill="#FF9565"/>
<path d="M54.9984 48.489C54.9984 53.9749 50.5511 58.4223 45.0651 58.4223C39.5791 58.4223 35.1318 53.9749 35.1318 48.489C35.1318 43.003 39.5791 38.5557 45.0651 38.5557C50.5511 38.5557 54.9984 43.003 54.9984 48.489Z" fill="white"/>
<path d="M52.4716 53.1533C52.4716 55.815 50.3139 57.9726 47.6523 57.9726C44.9908 57.9726 42.833 55.815 42.833 53.1533C42.833 50.4917 44.9908 48.334 47.6523 48.334C50.3139 48.334 52.4716 50.4917 52.4716 53.1533Z" fill="black"/>
<path fill-rule="evenodd" clip-rule="evenodd" d="M47.6518 49.1913C45.464 49.1913 43.6903 50.965 43.6903 53.1527C43.6903 55.3407 45.464 57.1142 47.6518 57.1142C49.8396 57.1142 51.6132 55.3407 51.6132 53.1527C51.6132 50.965 49.8395 49.1913 47.6518 49.1913ZM41.9746 53.1527C41.9746 50.0174 44.5164 47.4756 47.6518 47.4756C50.7871 47.4756 53.3289 50.0174 53.3289 53.1527C53.3289 56.2883 50.7871 58.8299 47.6518 58.8299C44.5165 58.8299 41.9746 56.2883 41.9746 53.1527Z" fill="black"/>
<path d="M30.633 46.0926C32.0773 45.914 33.4768 45.6062 34.8302 45.0629C36.1535 44.5316 37.4146 43.8884 38.5784 43.0611C40.9176 41.3983 42.9113 39.239 44.2541 36.6915C44.9953 35.2855 45.567 33.7714 45.878 32.2113C45.9691 31.7549 45.946 31.301 45.7052 30.8891C45.4969 30.5332 45.0887 30.1938 44.6796 30.1006C44.2403 30.0006 43.7476 30.0223 43.3576 30.2735C42.9974 30.5059 42.6559 30.8636 42.569 31.2991C42.3721 32.286 42.0738 33.2484 41.6838 34.1761C41.7416 34.0395 41.7991 33.9028 41.8567 33.7662C41.3188 35.0323 40.6157 36.2205 39.7763 37.3099C39.8657 37.1941 39.9552 37.0784 40.0446 36.9626C39.1738 38.0841 38.165 39.0914 37.0436 39.9623C37.1594 39.8729 37.2754 39.7834 37.391 39.694C36.2684 40.5595 35.0419 41.2821 33.7356 41.8333C33.8722 41.7757 34.0089 41.7181 34.1455 41.6604C32.9331 42.1668 31.6627 42.5205 30.3606 42.6988C30.5126 42.6784 30.6648 42.6579 30.8168 42.6375C30.7555 42.6456 30.6943 42.6534 30.633 42.661C30.1613 42.7193 29.7693 42.8138 29.4196 43.1636C29.1221 43.4612 28.898 43.9495 28.9172 44.3769C28.937 44.8204 29.0828 45.2808 29.4196 45.59C29.7308 45.8759 30.1929 46.1469 30.633 46.0926Z" fill="black"/>
<path d="M77.6709 48.489C77.6709 53.9749 82.118 58.4223 87.604 58.4223C93.0902 58.4223 97.5375 53.9749 97.5375 48.489C97.5375 43.003 93.0902 38.5557 87.604 38.5557C82.118 38.5557 77.6709 43.003 77.6709 48.489Z" fill="white"/>
<path d="M80.1982 53.1533C80.1982 55.815 82.3558 57.9726 85.0174 57.9726C87.6789 57.9726 89.8365 55.815 89.8365 53.1533C89.8365 50.4917 87.6789 48.334 85.0174 48.334C82.3558 48.334 80.1982 50.4917 80.1982 53.1533Z" fill="black"/>
<path fill-rule="evenodd" clip-rule="evenodd" d="M79.3398 53.1527C79.3398 50.0174 81.8815 47.4756 85.0168 47.4756C88.1522 47.4756 90.6938 50.0174 90.6938 53.1527C90.6938 56.2882 88.1522 58.8299 85.0168 58.8299C81.8815 58.8299 79.3398 56.2882 79.3398 53.1527ZM85.0168 49.1913C82.8291 49.1913 81.0556 50.9649 81.0556 53.1527C81.0556 55.3407 82.8291 57.1142 85.0168 57.1142C87.2046 57.1142 88.9781 55.3407 88.9781 53.1527C88.9781 50.9649 87.2046 49.1913 85.0168 49.1913Z" fill="black"/>
<path d="M102.22 42.6608C102.159 42.6532 102.097 42.6454 102.036 42.6373C102.188 42.6577 102.34 42.6782 102.492 42.6986C101.19 42.5203 99.9197 42.1665 98.7073 41.6603C98.8439 41.7179 98.9806 41.7755 99.117 41.8331C97.8108 41.2817 96.5844 40.5591 95.4617 39.6939C95.5775 39.7832 95.6932 39.8726 95.809 39.962C94.6877 39.0912 93.6789 38.0839 92.8081 36.9624C92.8976 37.0782 92.9868 37.1938 93.0764 37.3096C92.237 36.2202 91.5337 35.0321 90.9957 33.766C91.0534 33.9025 91.1112 34.0391 91.1688 34.1758C90.7789 33.248 90.4805 32.2858 90.2835 31.2987C90.2029 30.8943 89.8413 30.4759 89.495 30.2733C89.1273 30.0582 88.5854 29.9671 88.173 30.1005C87.7579 30.2347 87.3573 30.4921 87.1476 30.8889C86.9232 31.3137 86.8804 31.7383 86.9748 32.2111C87.5369 35.0297 88.9041 37.6198 90.7281 39.8217C91.6533 40.9385 92.7221 41.8959 93.8768 42.7691C94.9156 43.5552 96.0474 44.2198 97.2436 44.7361C98.0306 45.0756 98.8246 45.3848 99.6514 45.6127C100.495 45.8455 101.352 45.9851 102.22 46.0924C102.625 46.1424 103.158 45.8645 103.433 45.5898C103.731 45.2922 103.955 44.8039 103.935 44.3765C103.916 43.9329 103.77 43.4726 103.433 43.1634C103.317 43.0738 103.201 42.9845 103.086 42.8949C102.818 42.7398 102.529 42.6617 102.22 42.6608Z" fill="black"/>
<g style="mix-blend-mode:overlay">
<path d="M51.3215 65.9739C51.3215 67.2217 46.8241 68.2334 41.2764 68.2334C35.7288 68.2334 31.2314 67.2217 31.2314 65.9739C31.2314 64.7263 35.7288 63.7148 41.2764 63.7148C46.8241 63.7148 51.3215 64.7263 51.3215 65.9739Z" fill="#28B1FA"/>
</g>
<g style="mix-blend-mode:overlay">
<path d="M101.955 65.9739C101.955 67.2217 97.4579 68.2334 91.9102 68.2334C86.3626 68.2334 81.8652 67.2217 81.8652 65.9739C81.8652 64.7263 86.3626 63.7148 91.9102 63.7148C97.4579 63.7148 101.955 64.7263 101.955 65.9739Z" fill="#28B2FA"/>
</g>
<path fill-rule="evenodd" clip-rule="evenodd" d="M62.4119 70.8101C61.2871 72.3315 60.4163 74.691 59.94 77.8492C59.7735 78.9532 58.7435 79.7133 57.6395 79.5468C56.5354 79.3803 55.7753 78.3503 55.9418 77.2462C56.4694 73.7476 57.4915 70.664 59.1607 68.4063C60.8851 66.074 63.3042 64.6396 66.3349 64.6396C69.3236 64.6396 71.6589 65.9334 73.3484 68.265C74.9453 70.4689 75.9338 73.5465 76.6154 77.1744C76.8216 78.2717 76.0992 79.3284 75.0018 79.5346C73.9045 79.7408 72.8477 79.0183 72.6416 77.921C71.9938 74.4734 71.1397 72.1079 70.0742 70.6375C69.1013 69.2948 67.9544 68.6831 66.3349 68.6831C64.7575 68.6831 63.4815 69.3635 62.4119 70.8101Z" fill="black"/>
</svg>
