<svg width="32" height="32" viewBox="0 0 32 32" fill="none" xmlns="http://www.w3.org/2000/svg">
<path d="M28.3956 26.3876C31.0852 23.2078 33.3816 17.4957 31.0091 10.9368C29.8531 7.74385 28.5476 5.96127 27.0272 4.8288C26.1018 4.13936 22.4055 2.40396 17.5113 3.16156C13.933 3.7173 9.1541 5.97437 6.04768 9.64703C3.03563 13.2148 0.710403 16.0329 0.602924 18.7697C0.463987 22.2903 3.1169 25.3154 3.43933 25.8057C4.01343 26.676 7.92988 31.6515 15.2883 31.9058C21.7843 32.1286 26.0153 29.2031 28.3956 26.3876Z" fill="#403D3E"/>
<path d="M6.59476 2.88768C3.20523 5.30728 -0.603743 10.2566 0.0804561 17.1982C0.41338 20.5772 1.24438 22.6272 2.43714 24.0978C3.16328 24.9944 6.31427 27.6604 11.2505 28.0536C16.226 28.4495 20.0087 27.3353 23.9593 24.5881C31.9888 19.0017 30.8065 10.5554 30.4631 9.57238C30.1197 8.58933 27.548 2.80117 20.478 0.743328C14.2389 -1.07072 9.5937 0.743328 6.59476 2.88768Z" fill="#5E6367"/>
<path d="M12.5499 3.3572C8.82486 3.22351 5.26493 6.14118 4.92152 9.74306C4.57811 13.3423 6.80634 16.0843 10.2771 16.6427C13.7479 17.1985 17.7614 15.0908 18.5688 10.6763C19.4024 6.12808 16.1073 3.48565 12.5499 3.3572Z" fill="white"/>
<path d="M13.6987 9.52225C13.6987 9.52225 14.5952 9.33613 14.7735 8.01492C14.9491 6.71468 14.3042 5.6058 12.7995 5.20734C11.1637 4.7748 10.0548 5.67396 9.76648 6.62031C9.3654 7.93627 9.95784 8.5628 9.95784 8.5628C9.95784 8.5628 8.35352 8.94816 8.22506 10.8408C8.10448 12.6261 9.32345 13.5855 10.5477 13.8791C12.0602 14.2435 13.7747 13.8293 14.1941 11.8999C14.5428 10.3113 13.6987 9.52225 13.6987 9.52225Z" fill="#303030"/>
<path d="M11.1794 7.11768C11.0352 7.66032 11.3236 8.18461 11.8898 8.32879C12.5006 8.48345 13.0563 8.2816 13.2058 7.65769C13.3368 7.10457 13.0747 6.61698 12.4298 6.45969C11.9003 6.32862 11.3367 6.52523 11.1794 7.11768Z" fill="white"/>
<path d="M11.638 9.81387C10.9511 9.60154 10.0441 9.8663 9.89993 10.7891C9.75575 11.7118 10.3089 12.1837 11.0324 12.3147C11.7559 12.4458 12.4401 12.0657 12.5738 11.3265C12.7049 10.5898 12.3222 10.0236 11.638 9.81387Z" fill="white"/>
</svg>
