<svg width="32" height="32" viewBox="0 0 32 32" fill="none" xmlns="http://www.w3.org/2000/svg">
<path d="M25.5344 0C22.9662 0 22.8707 2.6823 23.0033 3.86558C23.1572 5.22928 23.6852 7.14218 23.6852 9.05507C23.6852 10.968 23.4119 12.1513 22.9556 13.1515C22.4992 14.1517 21.3611 15.8444 21.2045 19.2112C21.0135 23.2996 22.9635 28.8181 23.534 29.293C24.0036 29.6857 27.3518 29.7149 27.7179 29.3885C28.1265 29.0251 30.2835 24.7907 30.2384 19.7816C30.1933 14.7752 27.243 13.1727 27.3385 8.93834C27.3916 6.6089 27.8453 5.37786 28.0522 3.51803C28.2459 1.80677 27.7444 0 25.5344 0Z" fill="#D8CEC9"/>
<path d="M11.0617 0.124095C8.32373 0.140013 8.39802 2.80639 8.53067 3.98968C8.68455 5.35338 9.21252 7.26627 9.21252 9.17917C9.21252 11.0921 8.93925 12.2753 8.48292 13.2756C8.02658 14.2758 6.8884 15.9685 6.73186 19.3353C6.54084 23.4237 8.49088 28.9422 9.0613 29.4171C9.5309 29.8098 12.8791 29.839 13.2453 29.5126C13.6538 29.1491 15.3067 24.9785 15.2616 19.972C15.2165 14.9656 12.8101 13.2623 13.0277 9.03325C13.1232 7.17872 13.744 5.88666 13.76 3.66865C13.7732 1.94944 13.2718 0.110829 11.0617 0.124095Z" fill="#D8CEC9"/>
<path d="M25.5774 0.893555C24.3649 0.893555 23.7016 2.21746 23.8874 3.94463C24.0704 5.67181 24.5002 7.69348 24.5719 9.90087C24.6488 12.2011 23.63 13.4322 23.041 14.8277C22.452 16.2232 22.123 17.4755 22.123 17.4755L22.7492 25.5277C22.7492 25.5277 23.1896 26.8145 23.7414 26.8516C24.2933 26.8887 26.9756 26.2998 28.7054 23.4689C30.4353 20.638 28.9628 16.4832 28.0793 14.6818C27.3311 13.1536 26.567 12.0472 26.4609 10.2325C26.2858 7.19735 27.0499 5.41711 27.1215 3.76157C27.1825 2.40052 27.0101 0.893555 25.5774 0.893555Z" fill="#F1EDED"/>
<path d="M11.0232 1.22266C9.91947 1.22266 9.14741 2.069 9.44191 4.42231C9.73641 6.77562 10.0601 7.59809 10.0972 9.69405C10.1344 11.79 8.74414 14.8278 8.74414 14.8278L11.575 17.0697L13.1934 14.3847C13.1934 14.3847 12.3099 12.5461 12.2383 10.0469C12.1852 8.20565 12.753 5.45172 12.7901 4.16496C12.8246 2.8782 12.6389 1.22266 11.0232 1.22266Z" fill="#EFEEEC"/>
<path d="M18.3047 0.332031C15.7843 0.332031 15.7392 3.08331 15.7843 4.32762C15.832 5.61173 16.4979 7.75279 16.4979 9.74793C16.4979 11.7431 16.2114 12.9821 15.7365 14.0274C15.2616 15.0727 13.9775 16.8344 13.8342 20.3524C13.691 23.8704 16.1159 30.5191 16.4979 30.8614C16.9729 31.2886 20.3476 31.1532 20.7297 30.8136C21.1568 30.4342 23.3456 25.916 23.2979 20.6841C23.2501 15.4521 20.0266 13.8815 20.1592 9.69752C20.2548 6.70215 20.788 6.03888 20.8729 4.08619C20.9684 1.90267 20.1141 0.332031 18.3047 0.332031Z" fill="#D8CEC9"/>
<path d="M18.3757 1.26009C17.2402 1.17785 16.4283 2.2895 16.8316 4.93731C17.2349 7.58511 17.5294 9.27515 17.4922 10.4531C17.4551 11.6285 17.0518 12.9152 16.7945 13.6156C16.5371 14.3134 15.6191 16.5924 15.6191 16.5924C15.6191 16.5924 16.8688 16.2608 17.7151 16.9241C18.5614 17.5847 20.1056 19.2774 20.546 21.0046C20.9864 22.7317 21.0978 25.3795 21.0978 25.3795C21.0978 25.3795 22.4589 23.5781 22.2015 20.1954C21.9442 16.8126 20.4 14.5336 19.9225 13.3954C19.559 12.5305 19.3335 11.5568 19.3335 10.5646C19.3335 8.21125 20.0313 6.00651 20.0313 4.53669C20.0313 3.06686 19.8827 1.37153 18.3757 1.26009Z" fill="#F1EDEC"/>
<path d="M25.1939 1.21508C24.8941 1.04528 24.3927 1.29733 24.1406 1.88367C23.8912 2.46735 23.9072 3.28716 24.3741 3.41982C24.841 3.55248 25.2602 2.96879 25.3929 2.35062C25.5255 1.73244 25.5441 1.41407 25.1939 1.21508Z" fill="white"/>
<path d="M18.0108 1.34809C17.7243 1.2685 17.2096 1.49932 16.992 2.14933C16.7745 2.79934 16.8594 3.42017 17.1751 3.56875C17.6473 3.79161 18.1435 3.23446 18.3106 2.60036C18.4778 1.96627 18.4963 1.48075 18.0108 1.34809Z" fill="white"/>
<path d="M10.9728 1.49861C11.2912 1.80106 11.14 2.45108 10.7712 2.8517C10.4024 3.25232 9.90097 3.40355 9.58525 3.18599C9.26687 2.96843 9.37034 2.26536 9.75239 1.79841C10.2061 1.24656 10.6385 1.18024 10.9728 1.49861Z" fill="white"/>
<path d="M10.3922 12.524C10.1879 12.41 9.82438 12.4232 9.55642 13.0096C9.28846 13.5933 9.03906 14.1637 9.03906 14.1637L9.94112 14.6306C9.94112 14.6306 10.3577 13.8453 10.5089 13.4447C10.6601 13.0441 10.692 12.6912 10.3922 12.524Z" fill="white"/>
<path d="M16.2246 15.9342C16.2246 15.9342 16.7101 14.5466 16.9091 13.9948C17.1081 13.4429 17.4769 12.5913 17.912 12.8248C18.3471 13.0582 18.0287 14.0611 17.8457 14.5626C17.6626 15.064 17.1612 16.4834 17.1612 16.4834L16.2246 15.9342Z" fill="white"/>
<path d="M25.0927 12.0925C24.7346 11.9571 24.3578 12.4427 23.8909 13.5304C23.4239 14.6182 23.3894 14.7827 23.2886 15.0507C23.1878 15.3186 23.087 15.8864 23.5221 16.0695C23.9572 16.2525 24.2358 15.6688 24.3738 15.385C24.6231 14.8676 24.8752 14.199 25.1246 13.5809C25.374 12.9627 25.5783 12.2755 25.0927 12.0925Z" fill="white"/>
<path d="M23.5078 6.93945L27.5007 6.94476C27.5007 6.94476 27.4477 7.3215 27.4238 7.61069C27.4026 7.86008 27.3681 8.31377 27.3681 8.31377L23.659 8.31642C23.659 8.31642 23.6405 7.98213 23.5901 7.58151C23.5609 7.33477 23.5078 6.93945 23.5078 6.93945Z" fill="#FC5027"/>
<path d="M23.671 9.8418L27.3748 9.84445C27.3748 9.84445 27.4199 10.2424 27.4623 10.5077C27.5048 10.773 27.5976 11.1922 27.5976 11.1922L23.541 11.1816C23.541 11.1816 23.5967 10.8102 23.6259 10.5024C23.6551 10.1894 23.671 9.8418 23.671 9.8418Z" fill="#FC5027"/>
<path d="M16.3145 7.64844L20.3366 7.6617C20.3366 7.6617 20.2729 8.07559 20.2437 8.41519C20.2119 8.7654 20.188 9.12091 20.188 9.12091H16.4763C16.4763 9.12091 16.4391 8.73887 16.41 8.39927C16.3808 8.05967 16.3145 7.64844 16.3145 7.64844Z" fill="#FC5027"/>
<path d="M16.4775 10.7188L20.1972 10.7241C20.1972 10.7241 20.2423 11.1592 20.3246 11.5226C20.3776 11.7588 20.4891 12.1461 20.4891 12.1461H16.3184C16.3184 12.1461 16.3847 11.6951 16.4139 11.459C16.4431 11.2228 16.4775 10.7188 16.4775 10.7188Z" fill="#FC5027"/>
<path d="M8.97656 6.72043L13.3781 6.71777C13.3781 6.71777 13.272 7.27493 13.2268 7.49248C13.1658 7.78963 13.0968 8.1876 13.0968 8.1876L9.16759 8.18229C9.16759 8.18229 9.13044 7.75249 9.0933 7.47126C9.04289 7.13431 8.97656 6.72043 8.97656 6.72043Z" fill="#FC5027"/>
<path d="M9.20909 9.60938L13.0163 9.61468C13.0163 9.61468 13.0322 10.1214 13.0455 10.3125C13.0614 10.5035 13.133 11.0898 13.133 11.0898H9.09766C9.09766 11.0898 9.15072 10.5618 9.17194 10.278C9.19051 10.0233 9.20909 9.60938 9.20909 9.60938Z" fill="#FC5027"/>
<path d="M3.6465 28.1812C6.67636 32.7738 14.1104 33.3654 17.7956 29.1815C21.4807 24.9975 20.637 18.0755 16.0472 15.25C11.5793 12.5013 0.624605 23.602 3.6465 28.1812Z" fill="#474C4F"/>
<path d="M5.27063 15.7168C2.3469 17.8605 0.85054 22.8032 3.05528 27.1623C3.22773 27.5045 3.40814 27.8574 3.64692 28.1784C4.17754 28.8974 11.1128 30.0515 14.6414 26.2098C18.4141 22.1028 17.2653 16.3694 16.0476 15.2471C15.7292 14.9553 15.3153 14.8253 14.9545 14.6529C10.9244 12.7585 7.33209 14.2071 5.27063 15.7168Z" fill="#5E6367"/>
<path d="M10.2568 22.1006C10.2064 22.9681 10.8298 23.4086 11.4188 23.4537C12.0078 23.4988 12.8144 23.2043 12.8595 22.2916C12.9046 21.4081 12.3448 20.8934 11.5807 20.8801C10.8696 20.8669 10.3019 21.3524 10.2568 22.1006Z" fill="#191919"/>
<path d="M7.74138 18.7154C6.99321 18.7738 6.62442 19.3018 6.59524 19.965C6.56605 20.5965 6.96402 21.2889 7.94833 21.273C8.83181 21.2598 9.26162 20.5965 9.16611 19.8828C9.05733 19.0683 8.50548 18.657 7.74138 18.7154Z" fill="#191919"/>
<path d="M6.89697 24.003C6.10368 24.0322 5.78001 24.592 5.76409 25.1651C5.74817 25.7381 6.19124 26.3139 6.94207 26.2979C7.72208 26.282 8.07495 25.7673 8.08821 25.1651C8.10148 24.5628 7.70616 23.9738 6.89697 24.003Z" fill="#191919"/>
</svg>
