<svg width="33" height="32" viewBox="0 0 33 32" fill="none" xmlns="http://www.w3.org/2000/svg">
<path d="M19.6744 2.11416C22.4932 -0.704719 27.0669 -0.704719 29.8858 2.11416C32.7047 4.93303 32.7047 9.5067 29.8858 12.3256C27.0669 15.1445 21.5652 16.0752 18.7463 13.2536C15.9274 10.4321 16.8528 4.93303 19.6744 2.11416Z" fill="#9E9E9E"/>
<path d="M30.7859 3.21021C30.7805 5.56238 29.8818 7.91188 28.087 9.70402C25.2441 12.5469 21.0038 13.1416 17.5742 11.4908C17.8489 12.1442 18.2356 12.7442 18.7476 13.2563C21.5665 16.0752 27.0683 15.1471 29.8871 12.3282C32.3673 9.84803 32.666 6.01575 30.7859 3.21021Z" fill="#757575"/>
<path d="M21.3406 16.8173C21.8526 16.3052 20.8899 14.5104 19.1911 12.8116C17.4923 11.1128 15.6975 10.1501 15.1855 10.6621C14.9134 10.9342 0.325689 27.034 0.179011 27.1807C-0.333027 27.6927 0.29102 29.1488 1.57111 30.4289C2.85121 31.709 4.30732 32.3331 4.81935 31.821C4.9687 31.677 21.0686 17.0893 21.3406 16.8173Z" fill="#616161"/>
<path d="M2.23242 29.7698L18.7483 13.2539L21.1271 16.0008L4.38191 31.1192C3.09115 31.1192 2.23242 29.7698 2.23242 29.7698Z" fill="#424242"/>
<path d="M10.5108 21.1539C9.77739 20.3992 9.88673 19.8685 10.2228 19.5405L13.2976 16.5589C13.6363 16.2309 14.175 16.2389 14.5031 16.5776L15.1991 17.295C15.5271 17.6336 15.5191 18.1724 15.1805 18.5004L12.1056 21.4819C11.7695 21.8073 11.2442 21.9086 10.5108 21.1539Z" fill="black"/>
<path d="M14.1082 19.0345C14.8756 19.0345 15.4976 18.4124 15.4976 17.6451C15.4976 16.8777 14.8756 16.2556 14.1082 16.2556C13.3408 16.2556 12.7188 16.8777 12.7188 17.6451C12.7188 18.4124 13.3408 19.0345 14.1082 19.0345Z" fill="#9E9E9E"/>
<path d="M28.6811 13.0108C28.9771 13.2055 29.0464 13.2375 29.3771 13.1068C29.7051 12.9761 30.2172 12.4268 30.2892 12.2508C30.3985 11.9761 30.3318 11.9094 30.0785 11.7574C29.1664 11.208 27.4303 9.96259 24.7368 7.26906C22.0432 4.57553 20.7978 2.8394 20.2484 1.92733C20.0964 1.67398 19.9684 1.66065 19.6431 1.89266C19.443 2.03667 19.163 2.32736 18.979 2.65272C18.8057 2.96207 18.7977 3.02608 18.9923 3.3221C19.7284 4.43952 21.0618 6.14631 23.4593 8.54382C25.8568 10.944 27.5636 12.2748 28.6811 13.0108Z" fill="#94D1E0"/>
<path d="M23.9061 14.8141C23.5088 14.5874 21.754 13.1419 20.1885 11.5738C18.7031 10.083 17.399 8.47225 17.1856 8.09356C17.031 7.82154 16.6389 7.8242 16.4869 8.09622L15.4522 9.93636C15.2335 10.3284 15.2148 10.8031 15.4122 11.2058C15.7482 11.8885 16.2896 12.7072 17.791 14.2087C19.2925 15.7101 20.1112 16.2515 20.7939 16.5875C21.1966 16.7849 21.6713 16.7662 22.0633 16.5475L23.9035 15.5128C24.1755 15.3608 24.1782 14.9687 23.9061 14.8141Z" fill="#82AEC0"/>
<path d="M15.5499 11.0013L16.6619 9.3532C16.8193 9.12118 17.1553 9.10518 17.334 9.32119L18.5634 10.8146C18.6968 10.9773 18.6888 11.2147 18.5447 11.3693L17.134 12.8681C16.9633 13.0495 16.6753 13.0441 16.5126 12.8575C16.2432 12.5481 15.8459 12.0414 15.5232 11.4253C15.4512 11.292 15.4645 11.1267 15.5499 11.0013Z" fill="#94D1E0"/>
</svg>
