<svg width="32" height="32" viewBox="0 0 32 32" fill="none" xmlns="http://www.w3.org/2000/svg">
<path d="M29.8029 18.5884H1.34961V30.7892H29.8029V18.5884Z" fill="#E1E1E1"/>
<path d="M0.263653 31.6899C0.263653 31.9306 0.400049 32.0001 0.84668 32.0001C1.29331 32.0001 30.0916 31.9653 30.3323 31.9653C30.573 31.9653 30.8137 31.7594 30.8137 31.4492C30.8137 31.1389 30.894 30.465 30.7816 30.1868C30.6693 29.9087 29.7493 29.5583 29.7493 29.5583H1.26122C1.26122 29.5583 0.482957 29.9488 0.333188 30.2457C0.18342 30.5425 0.263653 31.4144 0.263653 31.6899Z" fill="#9A9A9A"/>
<path d="M10.8464 18.8894C10.8464 18.8894 10.357 19.0472 10.3302 19.3627C10.3035 19.6783 10.3302 29.1565 10.3302 29.3143C10.3302 29.4721 10.4105 29.6834 10.7368 29.6834C11.063 29.6834 20.2925 29.6834 20.4557 29.6834C20.6188 29.6834 20.8087 29.5256 20.8087 29.3411C20.8087 29.1565 20.8087 19.5473 20.8087 19.336C20.8087 19.1247 20.4824 18.9134 20.2925 18.8894C20.1053 18.8653 10.8464 18.8894 10.8464 18.8894Z" fill="#00C1EC"/>
<path d="M20.8354 24.3491H10.3008V25.3547H20.8354V24.3491Z" fill="#178BFD"/>
<path d="M20.8327 23.5364H10.3008V24.4323H20.8327V23.5364Z" fill="#00AA46"/>
<path d="M8.97283 20.1387H2.8457V24.9072H8.97283V20.1387Z" fill="#A7D0D6"/>
<path d="M28.3995 20.074H22.2402V24.8104H28.3995V20.074Z" fill="#A7D0D6"/>
<path d="M16.1129 18.864H15.1367V29.6875H16.1129V18.864Z" fill="#B0E4FF"/>
<path d="M15.7121 14.8418L0.0078125 18.1501C0.0078125 18.1501 0.0613013 18.7893 0.478513 19.0086C0.711189 19.1316 1.34503 19.0941 1.34503 19.0941C1.34503 19.0941 30.3519 19.0941 30.5472 19.0941C30.7424 19.0941 30.9992 18.8748 31.0232 18.594C31.0473 18.3132 31.0232 18.0324 31.0232 18.0324L15.7121 14.8418Z" fill="#016DA7"/>
<path d="M0.00802336 18.1524L0 16.9141L0.671283 15.9326L31.0422 17.0452L31.0368 18.139C31.0368 18.139 0.0641865 18.0936 0.00802336 18.1524Z" fill="#178BFD"/>
<path d="M0 16.9143V15.1171L14.7976 14.1543L31.0555 15.1171L31.0422 17.0427C31.0422 17.0454 0.0213955 16.9357 0 16.9143Z" fill="#E1E1E1"/>
<path d="M15.4899 11.4128H13.6445V13.8626H15.4899V11.4128Z" fill="#5C6567"/>
<path d="M4.5136 11.1099H2.73242V13.7602H4.5136V11.1099Z" fill="#5C6567"/>
<path d="M0 15.1162C0 15.1162 0 14.4288 0 14.0678C0 13.7068 0.168489 13.3457 0.722097 13.3457C1.27571 13.3457 29.9296 13.3457 30.312 13.3457C30.6945 13.3457 31.0743 13.5383 31.0743 13.8779C31.0743 14.2176 31.0555 15.1162 31.0555 15.1162H0Z" fill="#02AB46"/>
<path d="M1.3688 0.0133722L16.6104 0C16.9741 0 17.271 0.294188 17.271 0.660585V11.3048C17.271 11.7541 16.9073 12.1152 16.4606 12.1152H1.46776C1.09066 12.1152 0.785774 11.813 0.780425 11.4386L0.740309 0.649888C0.73496 0.299537 1.01845 0.0133722 1.3688 0.0133722Z" fill="#ED6D30"/>
<path d="M4.28052 4.63331C4.48645 4.5397 4.98924 3.71598 5.61773 3.76412C6.24623 3.81226 6.25692 4.63598 5.73006 5.32599C5.21389 6.00262 4.7325 6.53483 3.92482 7.62868C3.10377 8.74391 3.10377 9.81904 3.24818 9.99555C3.3926 10.1721 3.73226 10.14 4.5854 10.156C5.43855 10.1721 7.93647 10.1721 8.04879 10.0758C8.16112 9.9795 8.11298 8.8188 8.11298 8.67438C8.11298 8.52996 7.92042 8.28659 7.69309 8.28659C7.46844 8.28659 5.71134 8.30263 5.71134 8.30263C5.71134 8.30263 6.24623 7.57251 6.80786 6.77286C7.64496 5.58006 8.22263 4.47284 8.12903 3.66516C7.96856 2.26376 7.04856 1.52294 5.35831 1.73155C3.89807 1.91341 2.97539 3.48598 3.05563 3.68121C3.21342 4.0583 4.07191 4.72959 4.28052 4.63331Z" fill="white"/>
<path d="M14.555 6.53438C14.5443 6.38996 14.2341 6.38996 13.9907 6.38996C13.75 6.38996 13.4424 6.37392 13.4424 6.37392C13.4424 6.37392 13.4103 2.02529 13.4103 1.76854C13.4103 1.51179 13.0573 1.33261 12.6374 1.34865C12.2496 1.3647 12.0731 1.34865 11.7682 1.75249C11.5195 2.07877 8.73007 6.39531 8.49739 6.74566C8.19251 7.21369 7.90099 8.05079 8.75414 8.14707C9.60728 8.24335 11.6532 8.14707 11.6532 8.14707C11.6532 8.14707 11.6532 9.61266 11.6532 9.77312C11.6532 9.93359 11.7014 10.062 11.9581 10.062C12.2149 10.062 13.0386 10.062 13.199 10.062C13.3595 10.062 13.4397 9.98173 13.4397 9.65812C13.4397 9.33719 13.4397 8.14439 13.4397 8.14439C13.4397 8.14439 14.1164 8.16044 14.3089 8.14439C14.5015 8.12835 14.5496 7.83951 14.5496 7.67637C14.5496 7.51323 14.5871 6.93555 14.555 6.53438ZM10.6423 6.45148L11.6399 4.82542C11.6078 4.82542 11.6399 6.41938 11.6399 6.41938L10.6423 6.45148Z" fill="white"/>
</svg>
