<svg width="45" height="45" viewBox="0 0 45 45" fill="none" xmlns="http://www.w3.org/2000/svg">
<path d="M10.7734 34.923C11.2976 33.686 12.1744 32.6307 13.2945 31.8889C14.4146 31.147 15.7284 30.7514 17.0718 30.7515H27.3365C28.6812 30.7509 29.9962 31.1462 31.1177 31.888C32.2392 32.6298 33.1175 33.6854 33.6431 34.923" stroke="url(#paint0_linear_2324_6160)" stroke-width="2.5" stroke-linecap="round" stroke-linejoin="round"/>
<path d="M26.9956 22.8094C29.692 20.1633 29.7329 15.8324 27.0868 13.136C24.4408 10.4396 20.1099 10.3988 17.4135 13.0449C14.7171 15.6909 14.6763 20.0218 17.3223 22.7182C19.9684 25.4146 24.2993 25.4554 26.9956 22.8094Z" stroke="url(#paint1_linear_2324_6160)" stroke-width="2.5" stroke-linecap="round" stroke-linejoin="round"/>
<path d="M38.8989 25.8937C40.9404 16.67 35.1181 7.53786 25.8944 5.4964C16.6708 3.45495 7.53862 9.27726 5.49716 18.5009C3.45571 27.7245 9.27802 36.8567 18.5017 38.8982C27.7253 40.9396 36.8575 35.1173 38.8989 25.8937Z" stroke="url(#paint2_linear_2324_6160)" stroke-width="4" stroke-linecap="round" stroke-linejoin="round"/>
<defs>
<linearGradient id="paint0_linear_2324_6160" x1="10.7717" y1="32.8365" x2="33.6431" y2="32.8365" gradientUnits="userSpaceOnUse">
<stop stop-color="#E46125"/>
<stop offset="1" stop-color="#C91A44"/>
</linearGradient>
<linearGradient id="paint1_linear_2324_6160" x1="17.3198" y1="22.7172" x2="27.0851" y2="13.1343" gradientUnits="userSpaceOnUse">
<stop stop-color="#E46125"/>
<stop offset="1" stop-color="#C91A44"/>
</linearGradient>
<linearGradient id="paint2_linear_2324_6160" x1="18.4951" y1="38.8994" x2="25.8884" y2="5.49511" gradientUnits="userSpaceOnUse">
<stop stop-color="#E46125"/>
<stop offset="1" stop-color="#C91A44"/>
</linearGradient>
</defs>
</svg>
