<svg width="45" height="45" viewBox="0 0 45 45" fill="none" xmlns="http://www.w3.org/2000/svg">
<path d="M41.393 22.2048C41.3915 24.9399 40.7246 27.6336 39.4498 30.0535C38.175 32.4733 36.3305 34.5467 34.0756 36.0946C31.8206 37.6425 29.2229 38.6186 26.5066 38.9385C23.7902 39.2584 21.0369 38.9126 18.484 37.9309C18.2707 37.8399 18.0513 37.7636 17.8275 37.7026C17.7046 37.6835 17.5794 37.6835 17.4565 37.7026C17.2633 37.6891 17.0694 37.6891 16.8762 37.7026L6.71553 38.7396C5.76416 38.8443 5.25994 38.8918 4.97453 38.7396C4.84669 38.6651 4.73799 38.5618 4.65707 38.438C4.57614 38.3141 4.52522 38.1731 4.50836 38.0261C4.45127 37.6931 4.68912 37.265 5.14577 36.4088L8.38995 30.4056C8.58015 30.1082 8.73349 29.7887 8.8466 29.4542C8.90791 29.2444 8.92731 29.0246 8.90368 28.8073C8.83363 28.3964 8.71878 27.9945 8.56119 27.6086C7.78459 25.2941 7.52022 22.8385 7.78639 20.4118C8.05255 17.9851 8.84289 15.6452 10.1027 13.5541C11.3625 11.463 13.0617 9.67064 15.0826 8.30109C17.1035 6.93154 19.3979 6.01752 21.807 5.62229C24.2161 5.22706 26.6823 5.36007 29.0348 6.01211C31.3874 6.66415 33.5702 7.81964 35.4321 9.39861C37.294 10.9776 38.7906 12.9423 39.8182 15.1568C40.8457 17.3712 41.3798 19.7826 41.3835 22.2238L41.393 22.2048Z" stroke="#BFBFBF" stroke-width="2" stroke-linecap="round" stroke-linejoin="round"/>
<path d="M24.5342 17.1435C24.1283 16.6288 23.6232 16.2007 23.0489 15.8847C22.4746 15.5687 21.8428 15.3711 21.1907 15.3037C20.5387 15.2363 19.8798 15.3004 19.253 15.4922C18.6261 15.684 18.0442 15.9997 17.5416 16.4205C16.4786 17.2834 15.7994 18.5312 15.6515 19.8923C15.5036 21.2534 15.8991 22.6179 16.752 23.689C18.5328 25.683 20.4395 27.561 22.4602 29.3116C22.8697 29.7706 23.3724 30.1371 23.9348 30.3866C24.3064 30.5035 24.7049 30.5035 25.0764 30.3866C25.6434 30.1404 26.1499 29.7735 26.5606 29.3116C28.5767 27.5561 30.4831 25.6784 32.2688 23.689C32.6942 23.1595 33.0109 22.5513 33.201 21.8993C33.3911 21.2472 33.4507 20.5641 33.3765 19.889C33.3022 19.2139 33.0956 18.5601 32.7684 17.9649C32.4412 17.3697 31.9999 16.8449 31.4696 16.4205C30.968 16.0099 30.3899 15.7027 29.7689 15.5166C29.1478 15.3306 28.496 15.2694 27.8512 15.3367C27.2064 15.4039 26.5813 15.5982 26.0119 15.9083C25.4426 16.2184 24.9404 16.6382 24.5342 17.1435Z" stroke="#BFBFBF" stroke-width="2" stroke-linecap="round" stroke-linejoin="round"/>
</svg>
