<svg width="45" height="45" viewBox="0 0 45 45" fill="none" xmlns="http://www.w3.org/2000/svg">
<path d="M22.3382 10.3057C18.5845 5.92184 12.3373 4.74262 7.63841 8.75739C5.40355 10.6136 3.979 13.2669 3.66647 16.1552C3.35395 19.0435 4.178 21.9401 5.96409 24.2314C8.75463 27.8321 16.6671 35.0334 20.3669 38.3191C20.7644 38.7586 21.2487 39.1111 21.7891 39.3543C22.1424 39.4534 22.5161 39.4534 22.8693 39.3543C23.413 39.1121 23.9004 38.7596 24.3006 38.3191C28.0003 35.0154 35.9218 27.814 38.7034 24.2314C40.5128 21.9499 41.3524 19.0484 41.0409 16.1532C40.7293 13.258 39.2915 10.6016 37.0381 8.75739C32.2581 4.78763 26.101 5.92184 22.3382 10.3057Z" stroke="url(#paint0_linear_2324_6128)" stroke-width="4" stroke-linecap="round" stroke-linejoin="round"/>
<path d="M22.383 10.3057V14.3204C22.383 15.1666 21.9149 14.7615 20.9877 14.1944C20.0605 13.6273 16.9369 12.277 15.9288 15.1756C15.2086 17.264 15.4337 20.6667 17.7831 20.6937C20.1326 20.7207 22.383 18.8933 22.383 20.6937V23.3042C22.383 23.8173 22.302 24.6454 23.7963 23.8443C25.2906 23.0431 28.2251 21.4768 28.9363 25.0325C29.6474 28.5882 28.0361 30.1365 26.4608 29.8844C24.8855 29.6324 22.383 27.895 22.383 29.2903V39.4263" stroke="url(#paint1_linear_2324_6128)" stroke-width="2.5" stroke-linecap="round" stroke-linejoin="round"/>
<defs>
<linearGradient id="paint0_linear_2324_6128" x1="3.59864" y1="22.8584" x2="41.1045" y2="22.8584" gradientUnits="userSpaceOnUse">
<stop stop-color="#E46125"/>
<stop offset="1" stop-color="#C91A44"/>
</linearGradient>
<linearGradient id="paint1_linear_2324_6128" x1="15.5654" y1="24.8607" x2="29.1092" y2="24.8607" gradientUnits="userSpaceOnUse">
<stop stop-color="#E46125"/>
<stop offset="1" stop-color="#C91A44"/>
</linearGradient>
</defs>
</svg>
