<svg width="131" height="159" viewBox="0 0 131 159" fill="none" xmlns="http://www.w3.org/2000/svg">
<g opacity="0.07" clip-path="url(#clip0_1633_26303)">
<path d="M57.397 139.963L67.9211 153.634L93.1567 184.012L104.975 198.241L108.915 202.989C113.31 208.273 115.893 214.829 116.283 221.694C116.674 228.559 114.852 235.37 111.086 241.125C111.073 241.138 111.062 241.152 111.054 241.167C110.424 242.205 109.697 243.18 108.882 244.08C107.576 245.545 106.178 246.923 104.695 248.208C104.116 248.725 103.493 249.261 102.824 249.819C102.824 249.819 102.968 248.272 100.271 243.881L89.7363 230.196L68.4409 204.565L52.6639 185.574L48.7237 180.826C44.3371 175.542 41.7611 168.989 41.3739 162.129C40.9867 155.269 42.8088 148.464 46.5725 142.712C46.5725 142.712 46.5938 142.684 46.6044 142.67C47.2343 141.633 47.9617 140.657 48.7767 139.757C50.0822 138.293 51.4808 136.914 52.9637 135.63C53.5429 135.112 54.1654 134.577 54.8347 134.019C54.844 134.026 54.6997 135.573 57.397 139.963Z" fill="url(#paint0_linear_1633_26303)"/>
<path d="M125.592 34.4483C124.896 32.8702 124.33 31.2375 123.901 29.5667C123.569 28.2985 123.317 27.0105 123.146 25.7105C122.456 20.5106 123.051 15.2196 124.879 10.3008C124.879 10.3008 124.901 10.2731 124.915 10.2546C125.297 9.10355 125.789 7.99232 126.386 6.9366C127.33 5.23013 128.381 3.58555 129.534 2.01291C130.005 1.39805 130.472 0.721449 131.003 0.0279931C131.003 0.0279931 131.46 3.48786 143.219 12.4932L189.258 47.7504C190.314 48.5592 191.344 49.3922 192.349 50.2495C195.807 53.1897 198.993 56.437 201.867 59.9516C203.171 61.5661 204.405 63.2231 205.571 64.9224C206.809 66.7214 207.955 68.5742 209.017 70.4589C209.418 71.1694 209.811 71.881 210.184 72.5995C214.497 80.8898 217.237 89.9085 218.266 99.1997C219.862 113.549 217.302 128.058 210.889 141C204.477 153.941 194.482 164.771 182.097 172.198C169.711 179.625 155.455 183.337 141.027 182.892C126.599 182.446 112.607 177.863 100.716 169.687C88.8256 161.511 79.5379 150.087 73.9591 136.775C68.3803 123.463 66.7453 108.824 69.2489 94.602C71.7524 80.3797 78.2891 67.1729 88.0804 56.5545C97.8718 45.936 110.505 38.3532 124.477 34.7089C124.842 34.6146 125.217 34.5356 125.592 34.4483ZM167.152 76.6167C161.034 71.9243 153.66 69.1535 145.964 68.6548C138.268 68.156 130.595 69.9517 123.915 73.8148C117.235 77.6778 111.849 83.4347 108.438 90.357C105.027 97.2794 103.744 105.056 104.751 112.704C105.759 120.352 109.012 127.527 114.099 133.321C119.185 139.116 125.877 143.269 133.328 145.257C140.779 147.245 148.653 146.977 155.956 144.487C163.258 141.998 169.661 137.399 174.353 131.272C180.641 123.061 183.415 112.691 182.064 102.443C180.714 92.1942 175.35 82.9049 167.152 76.6167Z" fill="url(#paint1_linear_1633_26303)"/>
</g>
<defs>
<linearGradient id="paint0_linear_1633_26303" x1="123.017" y1="225.744" x2="34.6626" y2="158.081" gradientUnits="userSpaceOnUse">
<stop stop-color="#E46125"/>
<stop offset="0.5" stop-color="#C91A44"/>
<stop offset="1" stop-color="#A12FA3"/>
</linearGradient>
<linearGradient id="paint1_linear_1633_26303" x1="203.974" y1="152.364" x2="84.4244" y2="60.8114" gradientUnits="userSpaceOnUse">
<stop stop-color="#E46125"/>
<stop offset="0.5" stop-color="#C91A44"/>
<stop offset="1" stop-color="#A12FA3"/>
</linearGradient>
<clipPath id="clip0_1633_26303">
<rect width="150.579" height="215.45" fill="white" transform="matrix(-0.793933 -0.608006 -0.608006 0.793933 250.544 91.5527)"/>
</clipPath>
</defs>
</svg>
