<svg width="75" height="108" viewBox="0 0 75 108" fill="none" xmlns="http://www.w3.org/2000/svg">
<path d="M61.7176 77.7212L53.4162 79.9424L34.2373 84.3181L25.255 86.368L22.2589 87.0533C18.921 87.8126 15.9143 89.6251 13.6809 92.2243C11.4475 94.8235 10.1053 98.0722 9.85162 101.493C9.85298 101.501 9.85298 101.51 9.85162 101.519C9.78643 102.121 9.77867 102.727 9.82844 103.331C9.9012 104.306 10.0367 105.276 10.2341 106.234C10.3065 106.615 10.3906 107.015 10.4862 107.439C10.4862 107.439 10.8976 106.783 13.2939 105.863L21.6041 103.639L37.7868 99.9481L49.7769 97.2129L52.7729 96.5277C56.1077 95.7658 59.1109 93.9525 61.3414 91.3541C63.5719 88.7557 64.9123 85.5091 65.1657 82.0911C65.1657 82.0911 65.1657 82.0736 65.1657 82.0649C65.2309 81.4631 65.2387 80.8564 65.1889 80.2531C65.1161 79.2775 64.9806 78.3076 64.7832 77.3495C64.7108 76.9691 64.6268 76.5685 64.5312 76.1445C64.5254 76.1445 64.1139 76.8007 61.7176 77.7212Z" fill="url(#paint0_linear_1633_25964)"/>
<path d="M66.7044 15.2748C67.4576 14.8611 68.1757 14.3863 68.8514 13.855C69.3668 13.4536 69.8565 13.0201 70.3176 12.5571C72.1652 10.7077 73.5322 8.43267 74.2988 5.93111C74.2988 5.93111 74.2988 5.91369 74.2988 5.90208C74.4965 5.3307 74.6382 4.7414 74.7219 4.14251C74.8655 3.18089 74.9478 2.21106 74.9681 1.23893C74.9681 0.852754 74.9884 0.443349 74.9884 0.0078125C74.9884 0.0078125 73.7599 1.23893 66.3827 1.23893H37.5C36.8374 1.23893 36.1778 1.25635 35.521 1.29119C33.2628 1.40656 31.0197 1.72629 28.819 2.24647C27.8145 2.49037 26.8245 2.77202 25.849 3.09141C24.8146 3.42823 23.8004 3.81441 22.8095 4.23833C22.4357 4.39802 22.0648 4.56062 21.6997 4.73194C17.4837 6.70647 13.6691 9.44621 10.4486 12.8126V12.8126C5.47197 18.0091 2.09061 24.5294 0.707111 31.5971C-0.676388 38.6647 -0.00372573 45.9819 2.645 52.6774C5.29372 59.3728 9.8069 65.1643 15.6471 69.3623C21.4873 73.5604 28.4085 75.988 35.5865 76.3561C42.7645 76.7242 49.8968 75.0173 56.1342 71.4387C62.3715 67.86 67.4512 62.5605 70.7681 56.171C74.0851 49.7815 75.4997 42.5713 74.8434 35.3991C74.1872 28.2268 71.4877 21.3947 67.0665 15.7162C66.9506 15.5681 66.8261 15.4229 66.7044 15.2748ZM37.5 19.3689C41.3403 19.366 45.0951 20.5045 48.2895 22.6404C51.484 24.7763 53.9745 27.8136 55.4461 31.3681C56.9177 34.9226 57.3042 38.8346 56.5568 42.6092C55.8093 46.3839 53.9615 49.8516 51.2471 52.5738C48.5326 55.2959 45.0735 57.1502 41.3072 57.902C37.541 58.6538 33.6368 58.2694 30.0886 56.7974C26.5404 55.3254 23.5076 52.8319 21.3737 49.6324C19.2399 46.4329 18.101 42.6711 18.101 38.8229C18.101 33.6659 20.1443 28.7199 23.7819 25.072C27.4196 21.424 32.3537 19.3727 37.5 19.3689V19.3689Z" fill="url(#paint1_linear_1633_25964)"/>
<defs>
<linearGradient id="paint0_linear_1633_25964" x1="9.79183" y1="91.7863" x2="65.2211" y2="91.7863" gradientUnits="userSpaceOnUse">
<stop stop-color="#E46125"/>
<stop offset="0.5" stop-color="#C91A44"/>
<stop offset="1" stop-color="#A12FA3"/>
</linearGradient>
<linearGradient id="paint1_linear_1633_25964" x1="2.17722e-05" y1="38.1928" x2="75" y2="38.1928" gradientUnits="userSpaceOnUse">
<stop stop-color="#E46125"/>
<stop offset="0.5" stop-color="#C91A44"/>
<stop offset="1" stop-color="#A12FA3"/>
</linearGradient>
</defs>
</svg>
